<?xml version="1.0" encoding="UTF-8" standalone="no"?>
<!-- Created with Inkscape (http://www.inkscape.org/) -->

<svg
   width="122.5mm"
   height="122.5mm"
   viewBox="0 0 122.5 122.5"
   version="1.1"
   id="svg1"
   inkscape:version="1.3.2 (091e20ef0f, 2023-11-25)"
   sodipodi:docname="red.svg"
   xmlns:inkscape="http://www.inkscape.org/namespaces/inkscape"
   xmlns:sodipodi="http://sodipodi.sourceforge.net/DTD/sodipodi-0.dtd"
   xmlns="http://www.w3.org/2000/svg"
   xmlns:svg="http://www.w3.org/2000/svg">
  <sodipodi:namedview
     id="namedview1"
     pagecolor="#ffffff"
     bordercolor="#000000"
     borderopacity="0.25"
     inkscape:showpageshadow="2"
     inkscape:pageopacity="0.0"
     inkscape:pagecheckerboard="0"
     inkscape:deskcolor="#d1d1d1"
     inkscape:document-units="mm"
     inkscape:zoom="2.7927042"
     inkscape:cx="231.67509"
     inkscape:cy="231.49605"
     inkscape:window-width="2473"
     inkscape:window-height="1469"
     inkscape:window-x="196"
     inkscape:window-y="98"
     inkscape:window-maximized="0"
     inkscape:current-layer="layer1" />
  <defs
     id="defs1" />
  <g
     inkscape:label="Black"
     inkscape:groupmode="layer"
     id="layer1"
     transform="translate(-44.185547,-1.0585937)"
     style="display:none">
    <rect
       style="fill:#000200;fill-opacity:1;stroke:#ffffff;stroke-width:0.499999;stroke-linejoin:round;stroke-dasharray:none;stroke-opacity:1"
       id="rect12"
       width="90"
       height="90"
       x="-150.43555"
       y="17.308592"
       ry="2"
       rx="2"
       transform="scale(-1,1)" />
    <path
       style="color:#000000;fill:#000001;stroke-linejoin:round;-inkscape-stroke:none"
       d="m 164.93555,2.5585918 a 0.250025,0.250025 0 0 1 0.25,0.25 V 121.80859 a 0.250025,0.250025 0 0 1 -0.25,0.25 H 45.935547 a 0.250025,0.250025 0 0 1 -0.25,-0.25 V 2.8085918 a 0.250025,0.250025 0 0 1 0.25,-0.25 z m -0.25,0.5 H 46.185547 V 121.55859 H 164.68555 Z"
       id="rect13" />
  </g>
  <g
     inkscape:groupmode="layer"
     id="layer3"
     inkscape:label="Red"
     transform="translate(-44.185547,-1.0585937)"
     style="display:inline">
    <g
       id="text2"
       style="font-size:7.05556px;font-family:Inconsolata;-inkscape-font-specification:Inconsolata;fill:#ff0000;stroke-width:0.1;stroke-linejoin:round"
       transform="matrix(-1,0,0,1,223.67548,6.5846534)"
       aria-label="        .---_&#10;       / / /\|&#10;     / / | \&#10;    /  /  \ \&#10;   / /  / \  \&#10;">
      <path
         style="-inkscape-font-specification:'Inconsolata Bold'"
         d="m 117.48421,17.964795 q -0.28433,0 -0.4953,-0.201789 -0.20178,-0.201788 -0.20178,-0.486127 0,-0.284339 0.20178,-0.486128 0.21097,-0.201789 0.4953,-0.201789 0.28434,0 0.48613,0.201789 0.20179,0.201789 0.20179,0.486128 0,0.284339 -0.20179,0.486127 -0.20179,0.201789 -0.48613,0.201789 z m 3.35704,-2.595738 v -0.862189 h 2.67828 v 0.862189 z m 4.5861,0 v -0.862189 h 2.67829 v 0.862189 z m 4.58612,0 v -0.862189 h 2.67829 v 0.862189 z m 3.90736,3.412066 v -0.8255 h 4.01743 v 0.8255 z"
         id="path4" />
      <path
         style="-inkscape-font-specification:'Inconsolata Bold'"
         d="m 112.08178,29.714409 -0.95391,-0.412749 2.82504,-6.099527 0.93557,0.476956 z m 9.17222,0 -0.95392,-0.412749 2.82505,-6.099527 0.93556,0.476956 z m 9.17222,0 -0.95391,-0.412749 2.82504,-6.099527 0.93557,0.476956 z m 6.47558,0.01835 -2.83421,-6.07201 0.93556,-0.449439 2.83422,6.081182 z m 3.14607,0.972255 v -7.365293 h 0.94474 v 7.365293 z"
         id="path5" />
      <path
         style="-inkscape-font-specification:'Inconsolata Bold'"
         d="m 102.90955,41.179685 -0.95391,-0.41275 2.82505,-6.099527 0.93556,0.476956 z m 9.17223,0 -0.95391,-0.41275 2.82504,-6.099527 0.93557,0.476956 z m 9.62165,0.9906 v -7.365293 h 0.94474 v 7.365293 z m 10.61226,-0.972256 -2.83421,-6.07201 0.93557,-0.449438 2.83421,6.081182 z"
         id="path6" />
      <path
         style="-inkscape-font-specification:'Inconsolata Bold'"
         d="m 98.323446,52.64496 -0.953911,-0.41275 2.825045,-6.099526 0.93557,0.476955 z m 13.758334,0 -0.95391,-0.41275 2.82504,-6.099526 0.93557,0.476955 z m 15.6478,0.01834 -2.83421,-6.072009 0.93556,-0.449439 2.83422,6.081182 z m 9.17222,0 -2.83421,-6.072009 0.93556,-0.449439 2.83422,6.081182 z"
         id="path7" />
      <path
         style="-inkscape-font-specification:'Inconsolata Bold'"
         d="m 93.737336,64.110235 -0.953911,-0.41275 2.825044,-6.099526 0.935566,0.476955 z m 9.172214,0 -0.95391,-0.41275 2.82505,-6.099526 0.93556,0.476955 z m 13.75834,0 -0.95391,-0.41275 2.82504,-6.099526 0.93557,0.476955 z m 11.06169,0.01834 -2.83421,-6.07201 0.93556,-0.449439 2.83422,6.081182 z m 13.75833,0 -2.83421,-6.07201 0.93556,-0.449439 2.83422,6.081182 z"
         id="path8" />
    </g>
    <path
       style="color:#000000;fill:#ff0000;stroke-linejoin:round;-inkscape-stroke:none"
       d="m 165.93555,1.5585937 a 0.250025,0.250025 0 0 1 0.25,0.25 V 122.80859 a 0.250025,0.250025 0 0 1 -0.25,0.25 H 44.935547 a 0.250025,0.250025 0 0 1 -0.25,-0.25 V 1.8085937 a 0.250025,0.250025 0 0 1 0.25,-0.25 z m -0.25,0.5000001 H 45.185547 V 122.55859 H 165.68555 Z"
       id="rect11-1" />
  </g>
  <g
     inkscape:groupmode="layer"
     id="layer4"
     inkscape:label="White"
     transform="translate(-44.185547,-1.0585937)"
     style="display:none">
    <g
       id="text8"
       style="font-size:9.17222px;font-family:Inconsolata;-inkscape-font-specification:Inconsolata;fill:#ffffff;stroke-width:0.1;stroke-linejoin:round"
       transform="matrix(-1,0,0,1,223.67548,6.5846534)"
       aria-label=" ,/~~~~~~~~~~~\.&#10;( .&quot;,^. -&quot;. '.~ )&#10; '~~~~~~~~~~~~~'">
      <path
         style="-inkscape-font-specification:'Inconsolata Bold'"
         d="m 85.14176,76.742871 -0.559506,-0.467783 q 0.256823,-0.238478 0.394406,-0.476955 0.137583,-0.229306 0.137583,-0.385234 0,-0.137583 -0.110066,-0.24765 -0.100895,-0.119239 -0.210961,-0.256822 -0.110067,-0.146755 -0.110067,-0.357716 0,-0.302684 0.210961,-0.467784 0.210961,-0.1651 0.4953,-0.1651 0.357716,0 0.568677,0.256823 0.210962,0.256822 0.210962,0.660399 0,0.862189 -1.027289,1.907822 z m 4.00826,-1.164872 -0.953911,-0.41275 2.825044,-6.099526 0.935567,0.476955 z m 6.365521,-2.678288 q -0.311856,0.0092 -0.531989,-0.110067 -0.210961,-0.128411 -0.403578,-0.256822 -0.192616,-0.128411 -0.412749,-0.128411 -0.238478,0 -0.41275,0.100894 -0.174273,0.09172 -0.321028,0.321028 l -0.651228,-0.504472 q 0.192617,-0.321028 0.522817,-0.531989 0.3302,-0.220133 0.761294,-0.220133 0.293511,0 0.522817,0.128411 0.229305,0.119239 0.431094,0.24765 0.201789,0.119239 0.403578,0.119239 0.210961,0 0.376061,-0.128411 0.1651,-0.137584 0.321027,-0.348545 l 0.559506,0.587023 q -0.24765,0.348544 -0.541161,0.541161 -0.293511,0.183444 -0.623711,0.183444 z m 4.586109,0 q -0.311854,0.0092 -0.531988,-0.110067 -0.210961,-0.128411 -0.403577,-0.256822 -0.192617,-0.128411 -0.41275,-0.128411 -0.238478,0 -0.41275,0.100894 -0.174272,0.09172 -0.321028,0.321028 l -0.651228,-0.504472 q 0.192617,-0.321028 0.522817,-0.531989 0.3302,-0.220133 0.761294,-0.220133 0.293511,0 0.522817,0.128411 0.229305,0.119239 0.431094,0.24765 0.201789,0.119239 0.403579,0.119239 0.21096,0 0.37606,-0.128411 0.1651,-0.137584 0.32103,-0.348545 l 0.5595,0.587023 q -0.24765,0.348544 -0.54116,0.541161 -0.29351,0.183444 -0.62371,0.183444 z m 4.58611,0 q -0.31186,0.0092 -0.53199,-0.110067 -0.21096,-0.128411 -0.40358,-0.256822 -0.19261,-0.128411 -0.41275,-0.128411 -0.23847,0 -0.41275,0.100894 -0.17427,0.09172 -0.32102,0.321028 l -0.65123,-0.504472 q 0.19262,-0.321028 0.52282,-0.531989 0.3302,-0.220133 0.76129,-0.220133 0.29351,0 0.52282,0.128411 0.2293,0.119239 0.43109,0.24765 0.20179,0.119239 0.40358,0.119239 0.21096,0 0.37606,-0.128411 0.1651,-0.137584 0.32103,-0.348545 l 0.5595,0.587023 q -0.24765,0.348544 -0.54116,0.541161 -0.29351,0.183444 -0.62371,0.183444 z m 4.58611,0 q -0.31185,0.0092 -0.53199,-0.110067 -0.21096,-0.128411 -0.40358,-0.256822 -0.19261,-0.128411 -0.41275,-0.128411 -0.23847,0 -0.41274,0.100894 -0.17428,0.09172 -0.32103,0.321028 l -0.65123,-0.504472 q 0.19262,-0.321028 0.52282,-0.531989 0.3302,-0.220133 0.76129,-0.220133 0.29351,0 0.52282,0.128411 0.2293,0.119239 0.43109,0.24765 0.20179,0.119239 0.40358,0.119239 0.21096,0 0.37606,-0.128411 0.1651,-0.137584 0.32103,-0.348545 l 0.5595,0.587023 q -0.24765,0.348544 -0.54116,0.541161 -0.29351,0.183444 -0.62371,0.183444 z m 4.58611,0 q -0.31185,0.0092 -0.53199,-0.110067 -0.21096,-0.128411 -0.40357,-0.256822 -0.19262,-0.128411 -0.41275,-0.128411 -0.23848,0 -0.41275,0.100894 -0.17428,0.09172 -0.32103,0.321028 l -0.65123,-0.504472 q 0.19262,-0.321028 0.52282,-0.531989 0.3302,-0.220133 0.76129,-0.220133 0.29351,0 0.52282,0.128411 0.2293,0.119239 0.43109,0.24765 0.20179,0.119239 0.40358,0.119239 0.21096,0 0.37606,-0.128411 0.1651,-0.137584 0.32103,-0.348545 l 0.5595,0.587023 q -0.24765,0.348544 -0.54116,0.541161 -0.29351,0.183444 -0.62371,0.183444 z m 4.58611,0 q -0.31185,0.0092 -0.53199,-0.110067 -0.21096,-0.128411 -0.40357,-0.256822 -0.19262,-0.128411 -0.41275,-0.128411 -0.23848,0 -0.41275,0.100894 -0.17428,0.09172 -0.32103,0.321028 l -0.65123,-0.504472 q 0.19262,-0.321028 0.52282,-0.531989 0.3302,-0.220133 0.76129,-0.220133 0.29351,0 0.52282,0.128411 0.2293,0.119239 0.43109,0.24765 0.20179,0.119239 0.40358,0.119239 0.21096,0 0.37606,-0.128411 0.1651,-0.137584 0.32103,-0.348545 l 0.5595,0.587023 q -0.24765,0.348544 -0.54116,0.541161 -0.29351,0.183444 -0.62371,0.183444 z m 4.58611,0 q -0.31185,0.0092 -0.53199,-0.110067 -0.21096,-0.128411 -0.40358,-0.256822 -0.19261,-0.128411 -0.41275,-0.128411 -0.23847,0 -0.41275,0.100894 -0.17427,0.09172 -0.32102,0.321028 l -0.65123,-0.504472 q 0.19262,-0.321028 0.52282,-0.531989 0.3302,-0.220133 0.76129,-0.220133 0.29351,0 0.52282,0.128411 0.2293,0.119239 0.43109,0.24765 0.20179,0.119239 0.40358,0.119239 0.21096,0 0.37606,-0.128411 0.1651,-0.137584 0.32103,-0.348545 l 0.5595,0.587023 q -0.24765,0.348544 -0.54116,0.541161 -0.29351,0.183444 -0.62371,0.183444 z m 4.58611,0 q -0.31186,0.0092 -0.53199,-0.110067 -0.21096,-0.128411 -0.40358,-0.256822 -0.19261,-0.128411 -0.41275,-0.128411 -0.23847,0 -0.41275,0.100894 -0.17427,0.09172 -0.32102,0.321028 l -0.65123,-0.504472 q 0.19261,-0.321028 0.52281,-0.531989 0.3302,-0.220133 0.7613,-0.220133 0.29351,0 0.52282,0.128411 0.2293,0.119239 0.43109,0.24765 0.20179,0.119239 0.40358,0.119239 0.21096,0 0.37606,-0.128411 0.1651,-0.137584 0.32103,-0.348545 l 0.5595,0.587023 q -0.24765,0.348544 -0.54116,0.541161 -0.29351,0.183444 -0.62371,0.183444 z m 4.58611,0 q -0.31185,0.0092 -0.53199,-0.110067 -0.21096,-0.128411 -0.40357,-0.256822 -0.19262,-0.128411 -0.41275,-0.128411 -0.23848,0 -0.41275,0.100894 -0.17428,0.09172 -0.32103,0.321028 l -0.65123,-0.504472 q 0.19262,-0.321028 0.52282,-0.531989 0.3302,-0.220133 0.76129,-0.220133 0.29351,0 0.52282,0.128411 0.2293,0.119239 0.43109,0.24765 0.20179,0.119239 0.40358,0.119239 0.21096,0 0.37606,-0.128411 0.1651,-0.137584 0.32103,-0.348545 l 0.5595,0.587023 q -0.24765,0.348544 -0.54116,0.541161 -0.29351,0.183444 -0.62371,0.183444 z m 4.58611,0 q -0.31185,0.0092 -0.53199,-0.110067 -0.21096,-0.128411 -0.40357,-0.256822 -0.19262,-0.128411 -0.41275,-0.128411 -0.23848,0 -0.41275,0.100894 -0.17428,0.09172 -0.32103,0.321028 l -0.65123,-0.504472 q 0.19262,-0.321028 0.52282,-0.531989 0.3302,-0.220133 0.76129,-0.220133 0.29351,0 0.52282,0.128411 0.2293,0.119239 0.43109,0.24765 0.20179,0.119239 0.40358,0.119239 0.21096,0 0.37606,-0.128411 0.1651,-0.137584 0.32103,-0.348545 l 0.5595,0.587023 q -0.24765,0.348544 -0.54116,0.541161 -0.29351,0.183444 -0.62371,0.183444 z m 4.58611,0 q -0.31185,0.0092 -0.53199,-0.110067 -0.21096,-0.128411 -0.40358,-0.256822 -0.19261,-0.128411 -0.41275,-0.128411 -0.23847,0 -0.41275,0.100894 -0.17427,0.09172 -0.32102,0.321028 l -0.65123,-0.504472 q 0.19262,-0.321028 0.52282,-0.531989 0.3302,-0.220133 0.76129,-0.220133 0.29351,0 0.52282,0.128411 0.2293,0.119239 0.43109,0.24765 0.20179,0.119239 0.40358,0.119239 0.21096,0 0.37606,-0.128411 0.1651,-0.137584 0.32103,-0.348545 l 0.5595,0.587023 q -0.24765,0.348544 -0.54116,0.541161 -0.29351,0.183444 -0.62371,0.183444 z m 4.69618,2.696633 -2.83422,-6.07201 0.93557,-0.449439 2.83422,6.081182 z m 3.51296,-0.302684 q -0.28434,0 -0.4953,-0.201788 -0.20179,-0.201789 -0.20179,-0.486128 0,-0.284339 0.20179,-0.486128 0.21096,-0.201789 0.4953,-0.201789 0.28434,0 0.48612,0.201789 0.20179,0.201789 0.20179,0.486128 0,0.284339 -0.20179,0.486128 -0.20178,0.201788 -0.48612,0.201788 z"
         id="path1" />
      <path
         style="-inkscape-font-specification:'Inconsolata Bold'"
         d="m 82.234166,87.639469 q -0.880533,-0.376061 -1.476727,-0.9906 -0.596195,-0.605366 -0.90805,-1.357489 -0.302683,-0.752122 -0.302683,-1.577621 0,-0.816328 0.302683,-1.550106 0.302683,-0.742949 0.889705,-1.329972 0.587022,-0.587022 1.440039,-0.963083 l 0.256822,0.862189 q -0.898878,0.467783 -1.394178,1.219905 -0.495299,0.752122 -0.495299,1.788583 0,1.008944 0.513644,1.8161 0.522816,0.797983 1.449211,1.256594 z m 7.732182,-0.880533 q -0.284339,0 -0.4953,-0.201789 -0.201789,-0.201789 -0.201789,-0.486128 0,-0.284339 0.201789,-0.486128 0.210961,-0.201788 0.4953,-0.201788 0.284339,0 0.486127,0.201788 0.201789,0.201789 0.201789,0.486128 0,0.284339 -0.201789,0.486128 -0.201788,0.201789 -0.486127,0.201789 z m 3.494616,-6.209593 h 0.953911 q 0,0.550333 -0.01834,0.880533 -0.0092,0.3302 -0.03669,0.559505 -0.02752,0.220133 -0.06421,0.431095 -0.02752,0.201788 -0.05503,0.495299 h -0.605366 q -0.02752,-0.293511 -0.06421,-0.495299 -0.02752,-0.210962 -0.05503,-0.431095 -0.02752,-0.220133 -0.04586,-0.550333 -0.0092,-0.339372 -0.0092,-0.889705 z m 1.430866,0 h 0.953911 q 0,0.550333 -0.01835,0.880533 -0.0092,0.3302 -0.03669,0.559505 -0.02752,0.220133 -0.06421,0.431095 -0.02752,0.201788 -0.05503,0.495299 h -0.605367 q -0.02752,-0.293511 -0.06421,-0.495299 -0.02752,-0.210962 -0.05503,-0.431095 -0.02752,-0.220133 -0.04586,-0.550333 -0.0092,-0.339372 -0.0092,-0.889705 z m 4.00826,7.658803 -0.559505,-0.467783 q 0.256822,-0.238477 0.394405,-0.476955 0.137584,-0.229306 0.137584,-0.385233 0,-0.137584 -0.110067,-0.24765 -0.100894,-0.119239 -0.210961,-0.256823 -0.110067,-0.146755 -0.110067,-0.357716 0,-0.302683 0.210961,-0.467783 0.210961,-0.1651 0.4953,-0.1651 0.357717,0 0.568678,0.256822 0.210961,0.256822 0.210961,0.6604 0,0.862188 -1.027289,1.907821 z m 4.09081,-4.595282 -0.79798,-0.394405 1.40335,-2.293055 h 0.51364 l 1.29328,2.283882 -0.78881,0.394406 -0.79798,-1.394178 z m 5.31989,3.146072 q -0.28434,0 -0.4953,-0.201789 -0.20179,-0.201789 -0.20179,-0.486128 0,-0.284339 0.20179,-0.486128 0.21096,-0.201788 0.4953,-0.201788 0.28434,0 0.48613,0.201788 0.20178,0.201789 0.20178,0.486128 0,0.284339 -0.20178,0.486128 -0.20179,0.201789 -0.48613,0.201789 z m 7.94314,-2.595739 v -0.862188 h 2.67829 v 0.862188 z m 4.72369,-3.613854 h 0.95391 q 0,0.550333 -0.0183,0.880533 -0.009,0.3302 -0.0367,0.559505 -0.0275,0.220133 -0.0642,0.431095 -0.0275,0.201788 -0.055,0.495299 h -0.60536 q -0.0275,-0.293511 -0.0642,-0.495299 -0.0275,-0.210962 -0.055,-0.431095 -0.0275,-0.220133 -0.0459,-0.550333 -0.009,-0.339372 -0.009,-0.889705 z m 1.43087,0 h 0.95391 q 0,0.550333 -0.0183,0.880533 -0.009,0.3302 -0.0367,0.559505 -0.0275,0.220133 -0.0642,0.431095 -0.0275,0.201788 -0.055,0.495299 h -0.60537 q -0.0275,-0.293511 -0.0642,-0.495299 -0.0275,-0.210962 -0.055,-0.431095 -0.0275,-0.220133 -0.0459,-0.550333 -0.009,-0.339372 -0.009,-0.889705 z m 4.24674,6.209593 q -0.28434,0 -0.4953,-0.201789 -0.20179,-0.201789 -0.20179,-0.486128 0,-0.284339 0.20179,-0.486128 0.21096,-0.201788 0.4953,-0.201788 0.28434,0 0.48612,0.201788 0.20179,0.201789 0.20179,0.486128 0,0.284339 -0.20179,0.486128 -0.20178,0.201789 -0.48612,0.201789 z m 8.79616,-6.209593 h 0.95391 q 0,0.550333 -0.0183,0.880533 -0.009,0.3302 -0.0367,0.559505 -0.0275,0.220133 -0.0642,0.431095 -0.0275,0.201788 -0.055,0.495299 h -0.60537 q -0.0275,-0.293511 -0.0642,-0.495299 -0.0275,-0.210962 -0.055,-0.431095 -0.0275,-0.220133 -0.0459,-0.550333 -0.009,-0.339372 -0.009,-0.889705 z m 4.96217,6.209593 q -0.28434,0 -0.4953,-0.201789 -0.20179,-0.201789 -0.20179,-0.486128 0,-0.284339 0.20179,-0.486128 0.21096,-0.201788 0.4953,-0.201788 0.28434,0 0.48613,0.201788 0.20178,0.201789 0.20178,0.486128 0,0.284339 -0.20178,0.486128 -0.20179,0.201789 -0.48613,0.201789 z m 5.54919,-2.39395 q -0.31185,0.0092 -0.53198,-0.110066 -0.21097,-0.128412 -0.40358,-0.256823 -0.19262,-0.128411 -0.41275,-0.128411 -0.23848,0 -0.41275,0.100895 -0.17427,0.09172 -0.32103,0.321027 l -0.65123,-0.504472 q 0.19262,-0.321027 0.52282,-0.531988 0.3302,-0.220134 0.76129,-0.220134 0.29351,0 0.52282,0.128411 0.22931,0.119239 0.43109,0.24765 0.20179,0.119239 0.40358,0.119239 0.21096,0 0.37606,-0.128411 0.1651,-0.137583 0.32103,-0.348544 l 0.55951,0.587022 q -0.24765,0.348544 -0.54116,0.541161 -0.29352,0.183444 -0.62372,0.183444 z m 7.22771,3.274483 -0.27516,-0.8255 q 0.92639,-0.458611 1.44003,-1.256594 0.52282,-0.807156 0.52282,-1.8161 0,-1.036461 -0.4953,-1.788583 -0.4953,-0.752122 -1.39418,-1.219905 l 0.25683,-0.862189 q 0.85301,0.376061 1.44003,0.963083 0.58703,0.587023 0.88971,1.329972 0.30268,0.733778 0.30268,1.550106 0,0.825499 -0.31185,1.577621 -0.30269,0.752123 -0.89888,1.357489 -0.5962,0.614539 -1.47673,0.9906 z"
         id="path2" />
      <path
         style="-inkscape-font-specification:'Inconsolata Bold'"
         d="m 85.004177,92.014618 h 0.95391 q 0,0.550333 -0.01834,0.880533 -0.0092,0.3302 -0.03669,0.559505 -0.02752,0.220134 -0.06421,0.431095 -0.02752,0.201789 -0.05503,0.4953 h -0.605366 q -0.02752,-0.293511 -0.06421,-0.4953 -0.02752,-0.210961 -0.05503,-0.431095 -0.02752,-0.220133 -0.04586,-0.550333 -0.0092,-0.339372 -0.0092,-0.889705 z m 5.925254,3.815643 q -0.311856,0.0092 -0.531989,-0.110066 -0.210961,-0.128411 -0.403578,-0.256822 -0.192616,-0.128411 -0.41275,-0.128411 -0.238477,0 -0.412749,0.100894 -0.174273,0.09172 -0.321028,0.321028 l -0.651228,-0.504472 q 0.192617,-0.321028 0.522817,-0.531989 0.3302,-0.220133 0.761294,-0.220133 0.293511,0 0.522817,0.128411 0.229305,0.119239 0.431094,0.24765 0.201789,0.119238 0.403578,0.119238 0.210961,0 0.376061,-0.128411 0.1651,-0.137583 0.321027,-0.348544 l 0.559506,0.587022 q -0.24765,0.348544 -0.541161,0.541161 -0.293511,0.183444 -0.623711,0.183444 z m 4.58611,0 q -0.311856,0.0092 -0.531989,-0.110066 -0.210961,-0.128411 -0.403578,-0.256822 -0.192616,-0.128411 -0.412749,-0.128411 -0.238478,0 -0.41275,0.100894 -0.174273,0.09172 -0.321028,0.321028 l -0.651228,-0.504472 q 0.192617,-0.321028 0.522817,-0.531989 0.3302,-0.220133 0.761294,-0.220133 0.293511,0 0.522817,0.128411 0.229305,0.119239 0.431094,0.24765 0.201789,0.119238 0.403578,0.119238 0.210961,0 0.376061,-0.128411 0.1651,-0.137583 0.321027,-0.348544 l 0.559506,0.587022 q -0.24765,0.348544 -0.541161,0.541161 -0.293511,0.183444 -0.623711,0.183444 z m 4.586109,0 q -0.311854,0.0092 -0.531988,-0.110066 -0.210961,-0.128411 -0.403577,-0.256822 -0.192617,-0.128411 -0.41275,-0.128411 -0.238478,0 -0.41275,0.100894 -0.174272,0.09172 -0.321028,0.321028 l -0.651228,-0.504472 q 0.192617,-0.321028 0.522817,-0.531989 0.3302,-0.220133 0.761294,-0.220133 0.293511,0 0.522817,0.128411 0.229305,0.119239 0.431094,0.24765 0.201789,0.119238 0.403579,0.119238 0.21096,0 0.37606,-0.128411 0.1651,-0.137583 0.32103,-0.348544 l 0.5595,0.587022 q -0.24765,0.348544 -0.54116,0.541161 -0.29351,0.183444 -0.62371,0.183444 z m 4.58611,0 q -0.31186,0.0092 -0.53199,-0.110066 -0.21096,-0.128411 -0.40358,-0.256822 -0.19261,-0.128411 -0.41275,-0.128411 -0.23847,0 -0.41275,0.100894 -0.17427,0.09172 -0.32102,0.321028 l -0.65123,-0.504472 q 0.19262,-0.321028 0.52282,-0.531989 0.3302,-0.220133 0.76129,-0.220133 0.29351,0 0.52282,0.128411 0.2293,0.119239 0.43109,0.24765 0.20179,0.119238 0.40358,0.119238 0.21096,0 0.37606,-0.128411 0.1651,-0.137583 0.32103,-0.348544 l 0.5595,0.587022 q -0.24765,0.348544 -0.54116,0.541161 -0.29351,0.183444 -0.62371,0.183444 z m 4.58611,0 q -0.31185,0.0092 -0.53199,-0.110066 -0.21096,-0.128411 -0.40358,-0.256822 -0.19261,-0.128411 -0.41275,-0.128411 -0.23847,0 -0.41274,0.100894 -0.17428,0.09172 -0.32103,0.321028 l -0.65123,-0.504472 q 0.19262,-0.321028 0.52282,-0.531989 0.3302,-0.220133 0.76129,-0.220133 0.29351,0 0.52282,0.128411 0.2293,0.119239 0.43109,0.24765 0.20179,0.119238 0.40358,0.119238 0.21096,0 0.37606,-0.128411 0.1651,-0.137583 0.32103,-0.348544 l 0.5595,0.587022 q -0.24765,0.348544 -0.54116,0.541161 -0.29351,0.183444 -0.62371,0.183444 z m 4.58611,0 q -0.31185,0.0092 -0.53199,-0.110066 -0.21096,-0.128411 -0.40357,-0.256822 -0.19262,-0.128411 -0.41275,-0.128411 -0.23848,0 -0.41275,0.100894 -0.17428,0.09172 -0.32103,0.321028 l -0.65123,-0.504472 q 0.19262,-0.321028 0.52282,-0.531989 0.3302,-0.220133 0.76129,-0.220133 0.29351,0 0.52282,0.128411 0.2293,0.119239 0.43109,0.24765 0.20179,0.119238 0.40358,0.119238 0.21096,0 0.37606,-0.128411 0.1651,-0.137583 0.32103,-0.348544 l 0.5595,0.587022 q -0.24765,0.348544 -0.54116,0.541161 -0.29351,0.183444 -0.62371,0.183444 z m 4.58611,0 q -0.31185,0.0092 -0.53199,-0.110066 -0.21096,-0.128411 -0.40357,-0.256822 -0.19262,-0.128411 -0.41275,-0.128411 -0.23848,0 -0.41275,0.100894 -0.17428,0.09172 -0.32103,0.321028 l -0.65123,-0.504472 q 0.19262,-0.321028 0.52282,-0.531989 0.3302,-0.220133 0.76129,-0.220133 0.29351,0 0.52282,0.128411 0.2293,0.119239 0.43109,0.24765 0.20179,0.119238 0.40358,0.119238 0.21096,0 0.37606,-0.128411 0.1651,-0.137583 0.32103,-0.348544 l 0.5595,0.587022 q -0.24765,0.348544 -0.54116,0.541161 -0.29351,0.183444 -0.62371,0.183444 z m 4.58611,0 q -0.31185,0.0092 -0.53199,-0.110066 -0.21096,-0.128411 -0.40358,-0.256822 -0.19261,-0.128411 -0.41275,-0.128411 -0.23847,0 -0.41275,0.100894 -0.17427,0.09172 -0.32102,0.321028 l -0.65123,-0.504472 q 0.19262,-0.321028 0.52282,-0.531989 0.3302,-0.220133 0.76129,-0.220133 0.29351,0 0.52282,0.128411 0.2293,0.119239 0.43109,0.24765 0.20179,0.119238 0.40358,0.119238 0.21096,0 0.37606,-0.128411 0.1651,-0.137583 0.32103,-0.348544 l 0.5595,0.587022 q -0.24765,0.348544 -0.54116,0.541161 -0.29351,0.183444 -0.62371,0.183444 z m 4.58611,0 q -0.31186,0.0092 -0.53199,-0.110066 -0.21096,-0.128411 -0.40358,-0.256822 -0.19261,-0.128411 -0.41275,-0.128411 -0.23847,0 -0.41275,0.100894 -0.17427,0.09172 -0.32102,0.321028 l -0.65123,-0.504472 q 0.19261,-0.321028 0.52281,-0.531989 0.3302,-0.220133 0.7613,-0.220133 0.29351,0 0.52282,0.128411 0.2293,0.119239 0.43109,0.24765 0.20179,0.119238 0.40358,0.119238 0.21096,0 0.37606,-0.128411 0.1651,-0.137583 0.32103,-0.348544 l 0.5595,0.587022 q -0.24765,0.348544 -0.54116,0.541161 -0.29351,0.183444 -0.62371,0.183444 z m 4.58611,0 q -0.31185,0.0092 -0.53199,-0.110066 -0.21096,-0.128411 -0.40357,-0.256822 -0.19262,-0.128411 -0.41275,-0.128411 -0.23848,0 -0.41275,0.100894 -0.17428,0.09172 -0.32103,0.321028 l -0.65123,-0.504472 q 0.19262,-0.321028 0.52282,-0.531989 0.3302,-0.220133 0.76129,-0.220133 0.29351,0 0.52282,0.128411 0.2293,0.119239 0.43109,0.24765 0.20179,0.119238 0.40358,0.119238 0.21096,0 0.37606,-0.128411 0.1651,-0.137583 0.32103,-0.348544 l 0.5595,0.587022 q -0.24765,0.348544 -0.54116,0.541161 -0.29351,0.183444 -0.62371,0.183444 z m 4.58611,0 q -0.31185,0.0092 -0.53199,-0.110066 -0.21096,-0.128411 -0.40357,-0.256822 -0.19262,-0.128411 -0.41275,-0.128411 -0.23848,0 -0.41275,0.100894 -0.17428,0.09172 -0.32103,0.321028 l -0.65123,-0.504472 q 0.19262,-0.321028 0.52282,-0.531989 0.3302,-0.220133 0.76129,-0.220133 0.29351,0 0.52282,0.128411 0.2293,0.119239 0.43109,0.24765 0.20179,0.119238 0.40358,0.119238 0.21096,0 0.37606,-0.128411 0.1651,-0.137583 0.32103,-0.348544 l 0.5595,0.587022 q -0.24765,0.348544 -0.54116,0.541161 -0.29351,0.183444 -0.62371,0.183444 z m 4.58611,0 q -0.31185,0.0092 -0.53199,-0.110066 -0.21096,-0.128411 -0.40358,-0.256822 -0.19261,-0.128411 -0.41275,-0.128411 -0.23847,0 -0.41275,0.100894 -0.17427,0.09172 -0.32102,0.321028 l -0.65123,-0.504472 q 0.19262,-0.321028 0.52282,-0.531989 0.3302,-0.220133 0.76129,-0.220133 0.29351,0 0.52282,0.128411 0.2293,0.119239 0.43109,0.24765 0.20179,0.119238 0.40358,0.119238 0.21096,0 0.37606,-0.128411 0.1651,-0.137583 0.32103,-0.348544 l 0.5595,0.587022 q -0.24765,0.348544 -0.54116,0.541161 -0.29351,0.183444 -0.62371,0.183444 z m 4.58611,0 q -0.31185,0.0092 -0.53198,-0.110066 -0.21097,-0.128411 -0.40358,-0.256822 -0.19262,-0.128411 -0.41275,-0.128411 -0.23848,0 -0.41275,0.100894 -0.17427,0.09172 -0.32103,0.321028 l -0.65123,-0.504472 q 0.19262,-0.321028 0.52282,-0.531989 0.3302,-0.220133 0.76129,-0.220133 0.29351,0 0.52282,0.128411 0.22931,0.119239 0.43109,0.24765 0.20179,0.119238 0.40358,0.119238 0.21096,0 0.37606,-0.128411 0.1651,-0.137583 0.32103,-0.348544 l 0.55951,0.587022 q -0.24765,0.348544 -0.54116,0.541161 -0.29352,0.183444 -0.62372,0.183444 z m 3.24697,-3.815643 h 0.95391 q 0,0.550333 -0.0183,0.880533 -0.009,0.3302 -0.0367,0.559505 -0.0275,0.220134 -0.0642,0.431095 -0.0275,0.201789 -0.055,0.4953 h -0.60536 q -0.0275,-0.293511 -0.0642,-0.4953 -0.0275,-0.210961 -0.055,-0.431095 -0.0275,-0.220133 -0.0459,-0.550333 -0.009,-0.339372 -0.009,-0.889705 z"
         id="path3" />
    </g>
    <path
       style="color:#000000;display:inline;fill:#ffffff;stroke-linejoin:round;-inkscape-stroke:none"
       d="m 166.43555,1.0585937 a 0.250025,0.250025 0 0 1 0.25,0.25 V 123.30859 a 0.250025,0.250025 0 0 1 -0.25,0.25 H 44.435547 a 0.250025,0.250025 0 0 1 -0.25,-0.25 V 1.3085937 a 0.250025,0.250025 0 0 1 0.25,-0.25 z m -0.25,0.5 H 44.685547 V 123.05859 H 166.18555 Z"
       id="rect11-1-8" />
  </g>
  <g
     inkscape:groupmode="layer"
     id="layer2"
     inkscape:label="Yellow"
     transform="translate(-44.185547,-1.0585937)"
     style="display:none">
    <path
       style="-inkscape-font-specification:'Inconsolata Bold';fill:#ffff00;stroke-width:0;stroke-linejoin:round"
       d="m 84.031107,46.3776 0.8255,-0.6604 -1.11901,-1.192389 1.43087,-0.41275 -0.36689,-0.935566 -1.27494,0.687916 0.20179,-1.476727 h -1.2199 l 0.25682,1.476727 -1.23825,-0.623711 -0.37606,0.90805 1.42169,0.366889 -1.08232,1.201561 0.83467,0.651227 0.83467,-1.375833 z"
       id="text11"
       aria-label="*" />
    <path
       style="color:#000000;fill:#ffff00;stroke-linejoin:round;-inkscape-stroke:none"
       d="m 165.43555,2.0585938 a 0.250025,0.250025 0 0 1 0.25,0.25 V 122.30859 a 0.250025,0.250025 0 0 1 -0.25,0.25 H 45.435547 a 0.250025,0.250025 0 0 1 -0.25,-0.25 V 2.3085938 a 0.250025,0.250025 0 0 1 0.25,-0.25 z m -0.25,0.5 H 45.685547 V 122.05859 H 165.18555 Z"
       id="rect11" />
  </g>
</svg>
