<svg viewbox="0 0 800 600" preserveAspectRatio="xMidYMid meet" xmlns="http://www.w3.org/2000/svg" width="800" height="600"><defs><marker viewBox="0 0 10 10 " refX="5" refY="5" markerUnits="userSpaceOnUse" markerWidth="2%" markerHeight="2%" id="circle"><circle cx="5" cy="5" r="3" fill="none" stroke="black"/></marker><marker id="filled-circle" viewBox="0 0 10 10 " refX="5" refY="5" markerUnits="userSpaceOnUse" markerWidth="2%" markerHeight="2%"><circle r="3" fill="black" stroke="none" cx="5" cy="5"/></marker><marker markerWidth="2%" markerHeight="2%" id="square" viewBox="0 0 10 10 " refX="5" refY="5" markerUnits="userSpaceOnUse"><rect y="2" width="6" height="6" fill="none" stroke="black" x="2"/></marker><marker markerHeight="2%" id="filled-square" viewBox="0 0 10 10 " refX="5" refY="5" markerUnits="userSpaceOnUse" markerWidth="2%"><rect fill="black" stroke="none" x="2" y="2" width="6" height="6"/></marker></defs><g transform="translate(80 520 )scale(1 -1 )" fill="hsl(198, 47%, 65%)" stroke="hsl(198, 47%, 65%)" stroke-width="1px" stroke-linecap="round" stroke-linejoin="round"><rect x="5.546667e+01" y="0" width="1.706667e+01" height="4.747299e+01" vector-effect="non-scaling-stroke"/><rect y="0" width="1.706667e+01" height="4.566462e+01" vector-effect="non-scaling-stroke" x="7.680000e+01"/><rect vector-effect="non-scaling-stroke" x="9.813333e+01" y="0" width="1.706667e+01" height="7.836057e+01"/><rect y="0" width="1.706667e+01" height="4.511543e+01" vector-effect="non-scaling-stroke" x="1.194667e+02"/><rect vector-effect="non-scaling-stroke" x="1.408000e+02" y="0" width="1.706667e+01" height="1.227384e+02"/><rect x="1.621333e+02" y="0" width="1.706667e+01" height="5.416188e+01" vector-effect="non-scaling-stroke"/><rect x="1.834667e+02" y="0" width="1.706667e+01" height="4.405159e+01" vector-effect="non-scaling-stroke"/><rect x="2.048000e+02" y="0" width="1.706667e+01" height="8.432340e+01" vector-effect="non-scaling-stroke"/><rect vector-effect="non-scaling-stroke" x="2.261333e+02" y="0" width="1.706667e+01" height="1.219869e+02"/><rect vector-effect="non-scaling-stroke" x="2.474667e+02" y="0" width="1.706667e+01" height="4.423058e+01"/><rect x="2.688000e+02" y="0" width="1.706667e+01" height="5.639499e+01" vector-effect="non-scaling-stroke"/><rect y="0" width="1.706667e+01" height="4.426244e+01" vector-effect="non-scaling-stroke" x="2.901333e+02"/><rect vector-effect="non-scaling-stroke" x="3.114667e+02" y="0" width="1.706667e+01" height="4.473026e+01"/><rect x="3.328000e+02" y="0" width="1.706667e+01" height="1.284336e+02" vector-effect="non-scaling-stroke"/><rect width="1.706667e+01" height="1.551408e+02" vector-effect="non-scaling-stroke" x="3.541333e+02" y="0"/><rect height="4.636361e+01" vector-effect="non-scaling-stroke" x="3.754667e+02" y="0" width="1.706667e+01"/><rect x="3.968000e+02" y="0" width="1.706667e+01" height="5.830391e+01" vector-effect="non-scaling-stroke"/><rect height="6.419091e+01" vector-effect="non-scaling-stroke" x="4.181333e+02" y="0" width="1.706667e+01"/><rect vector-effect="non-scaling-stroke" x="4.394667e+02" y="0" width="1.706667e+01" height="8.777271e+01"/><rect vector-effect="non-scaling-stroke" x="4.608000e+02" y="0" width="1.706667e+01" height="4.845791e+01"/><rect vector-effect="non-scaling-stroke" x="4.821333e+02" y="0" width="1.706667e+01" height="1.541799e+02"/><rect vector-effect="non-scaling-stroke" x="5.034667e+02" y="0" width="1.706667e+01" height="1.194718e+03"/><rect vector-effect="non-scaling-stroke" x="5.248000e+02" y="0" width="1.706667e+01" height="1.021550e+02"/><rect x="5.461333e+02" y="0" width="1.706667e+01" height="7.170267e+01" vector-effect="non-scaling-stroke"/><rect height="4.669560e+01" vector-effect="non-scaling-stroke" x="5.674667e+02" y="0" width="1.706667e+01"/></g><g fill="hsl(198, 47%, 65%)" stroke-width="1px" stroke-linecap="round" dominant-baseline="hanging" font-family="sans-serif" font-weight="normal" text-anchor="start" stroke="hsl(198, 47%, 65%)" font-size="12px" font-style="normal" stroke-linejoin="round"><rect y="502" width="12" height="12" vector-effect="non-scaling-stroke" x="736"/><g fill="black" stroke="black"><text stroke="none" vector-effect="non-scaling-stroke" x="752" y="502" dominant-baseline="hanging">Golang</text><g font-style="normal" stroke-width="2px" stroke-linecap="round" dominant-baseline="hanging" font-size="12px" fill="none" font-weight="normal" font-family="sans-serif" text-anchor="start" stroke-linejoin="round"><rect width="640" height="440" vector-effect="non-scaling-stroke" x="80" y="80"/></g><g stroke-width="2px" font-family="sans-serif" dominant-baseline="hanging" fill="none" stroke-linecap="round" font-style="normal" stroke-linejoin="round" font-weight="normal" text-anchor="start" transform="translate(80 520 )scale(1 -1 )" font-size="12px" stroke="black"><path vector-effect="non-scaling-stroke" d="M64,0 L64,-6 M8.533333e+01,0 L8.533333e+01,-6 M1.066667e+02,0 L1.066667e+02,-6 M128,0 L128,-6 M1.493333e+02,0 L1.493333e+02,-6 M1.706667e+02,0 L1.706667e+02,-6 M192,0 L192,-6 M2.133333e+02,0 L2.133333e+02,-6 M2.346667e+02,0 L2.346667e+02,-6 M256,0 L256,-6 M2.773333e+02,0 L2.773333e+02,-6 M2.986667e+02,0 L2.986667e+02,-6 M320,0 L320,-6 M3.413333e+02,0 L3.413333e+02,-6 M3.626667e+02,0 L3.626667e+02,-6 M384,0 L384,-6 M4.053333e+02,0 L4.053333e+02,-6 M4.266667e+02,0 L4.266667e+02,-6 M448,0 L448,-6 M4.693333e+02,0 L4.693333e+02,-6 M4.906667e+02,0 L4.906667e+02,-6 M512,0 L512,-6 M5.333333e+02,0 L5.333333e+02,-6 M5.546667e+02,0 L5.546667e+02,-6 M576,0 L576,-6 "/></g><g stroke-linecap="round" transform="translate(80 520 )scale(1 1 )" stroke="black" stroke-linejoin="round" font-family="sans-serif" font-weight="normal" text-anchor="middle" dominant-baseline="hanging" fill="black" stroke-width="2px" font-size="12px" font-style="normal"><text x="64" y="10" dominant-baseline="hanging" stroke="none" vector-effect="non-scaling-stroke">1</text><text dominant-baseline="hanging" stroke="none" vector-effect="non-scaling-stroke" x="8.533333e+01" y="10">2</text><text x="1.066667e+02" y="10" dominant-baseline="hanging" stroke="none" vector-effect="non-scaling-stroke">3</text><text x="128" y="10" dominant-baseline="hanging" stroke="none" vector-effect="non-scaling-stroke">4</text><text vector-effect="non-scaling-stroke" x="1.493333e+02" y="10" dominant-baseline="hanging" stroke="none">5</text><text vector-effect="non-scaling-stroke" x="1.706667e+02" y="10" dominant-baseline="hanging" stroke="none">6</text><text y="10" dominant-baseline="hanging" stroke="none" vector-effect="non-scaling-stroke" x="192">7</text><text vector-effect="non-scaling-stroke" x="2.133333e+02" y="10" dominant-baseline="hanging" stroke="none">8</text><text stroke="none" vector-effect="non-scaling-stroke" x="2.346667e+02" y="10" dominant-baseline="hanging">9</text><text stroke="none" vector-effect="non-scaling-stroke" x="256" y="10" dominant-baseline="hanging">10</text><text dominant-baseline="hanging" stroke="none" vector-effect="non-scaling-stroke" x="2.773333e+02" y="10">11</text><text dominant-baseline="hanging" stroke="none" vector-effect="non-scaling-stroke" x="2.986667e+02" y="10">12</text><text stroke="none" vector-effect="non-scaling-stroke" x="320" y="10" dominant-baseline="hanging">13</text><text stroke="none" vector-effect="non-scaling-stroke" x="3.413333e+02" y="10" dominant-baseline="hanging">14</text><text stroke="none" vector-effect="non-scaling-stroke" x="3.626667e+02" y="10" dominant-baseline="hanging">15</text><text dominant-baseline="hanging" stroke="none" vector-effect="non-scaling-stroke" x="384" y="10">16</text><text x="4.053333e+02" y="10" dominant-baseline="hanging" stroke="none" vector-effect="non-scaling-stroke">17</text><text stroke="none" vector-effect="non-scaling-stroke" x="4.266667e+02" y="10" dominant-baseline="hanging">18</text><text stroke="none" vector-effect="non-scaling-stroke" x="448" y="10" dominant-baseline="hanging">19</text><text dominant-baseline="hanging" stroke="none" vector-effect="non-scaling-stroke" x="4.693333e+02" y="10">20</text><text x="4.906667e+02" y="10" dominant-baseline="hanging" stroke="none" vector-effect="non-scaling-stroke">21</text><text stroke="none" vector-effect="non-scaling-stroke" x="512" y="10" dominant-baseline="hanging">22</text><text y="10" dominant-baseline="hanging" stroke="none" vector-effect="non-scaling-stroke" x="5.333333e+02">23</text><text stroke="none" vector-effect="non-scaling-stroke" x="5.546667e+02" y="10" dominant-baseline="hanging">24</text><text y="10" dominant-baseline="hanging" stroke="none" vector-effect="non-scaling-stroke" x="576">25</text></g><g transform="translate(80 520 )scale(1 1 )rotate(0 0 0 )" fill="black" stroke="black" stroke-linejoin="round" stroke-width="2px" font-family="sans-serif" font-weight="bold" text-anchor="middle" font-style="normal" stroke-linecap="round" font-size="12px" dominant-baseline="baseline"><text vector-effect="non-scaling-stroke" x="320" y="-6" dominant-baseline="baseline" stroke="none">Day</text></g><g transform="translate(80 520 )scale(1 -1 )" fill="black" stroke-width="2px" stroke-linecap="round" font-size="12px" font-style="normal" dominant-baseline="baseline" stroke="black" stroke-linejoin="round" font-family="sans-serif" font-weight="bold" text-anchor="middle"><path vector-effect="non-scaling-stroke" d="M0,44 L-6,44 M0,7.920000e+01 L-6,7.920000e+01 M0,1.144000e+02 L-6,1.144000e+02 M0,1.496000e+02 L-6,1.496000e+02 M0,1.848000e+02 L-6,1.848000e+02 M0,220 L-6,220 M0,2.552000e+02 L-6,2.552000e+02 M0,2.904000e+02 L-6,2.904000e+02 M0,3.256000e+02 L-6,3.256000e+02 M0,3.608000e+02 L-6,3.608000e+02 M0,396 L-6,396 "/></g><g stroke="black" stroke-linejoin="round" text-anchor="end" fill="black" font-size="12px" font-style="normal" font-weight="normal" dominant-baseline="middle" transform="translate(80 520 )scale(1 1 )" font-family="sans-serif" stroke-width="2px" stroke-linecap="round"><text vector-effect="non-scaling-stroke" x="-10" y="-44" dominant-baseline="middle" stroke="none">0s</text><text vector-effect="non-scaling-stroke" x="-10" y="-7.920000e+01" dominant-baseline="middle" stroke="none">200ms</text><text stroke="none" vector-effect="non-scaling-stroke" x="-10" y="-1.144000e+02" dominant-baseline="middle">400ms</text><text y="-1.496000e+02" dominant-baseline="middle" stroke="none" vector-effect="non-scaling-stroke" x="-10">600ms</text><text vector-effect="non-scaling-stroke" x="-10" y="-1.848000e+02" dominant-baseline="middle" stroke="none">800ms</text><text dominant-baseline="middle" stroke="none" vector-effect="non-scaling-stroke" x="-10" y="-220">1s</text><text stroke="none" vector-effect="non-scaling-stroke" x="-10" y="-2.552000e+02" dominant-baseline="middle">1.2s</text><text x="-10" y="-2.904000e+02" dominant-baseline="middle" stroke="none" vector-effect="non-scaling-stroke">1.4s</text><text stroke="none" vector-effect="non-scaling-stroke" x="-10" y="-3.256000e+02" dominant-baseline="middle">1.6s</text><text y="-3.608000e+02" dominant-baseline="middle" stroke="none" vector-effect="non-scaling-stroke" x="-10">1.8s</text><text dominant-baseline="middle" stroke="none" vector-effect="non-scaling-stroke" x="-10" y="-396">2s</text></g><g font-family="sans-serif" font-weight="bold" dominant-baseline="hanging" font-size="12px" fill="black" font-style="normal" transform="translate(80 520 )scale(1 1 )rotate(-90 0 0 )" stroke="black" stroke-linejoin="round" text-anchor="middle" stroke-width="2px" stroke-linecap="round"><text vector-effect="non-scaling-stroke" x="220" y="6" dominant-baseline="hanging" stroke="none">Runtime</text></g></g></g></svg>