<svg preserveAspectRatio="xMidYMid meet" xmlns="http://www.w3.org/2000/svg" width="800" height="600" viewbox="0 0 800 600"><defs><marker id="circle" viewBox="0 0 10 10 " refX="5" refY="5" markerUnits="userSpaceOnUse" markerWidth="2%" markerHeight="2%"><circle stroke="black" cx="5" cy="5" r="3" fill="none"/></marker><marker id="filled-circle" viewBox="0 0 10 10 " refX="5" refY="5" markerUnits="userSpaceOnUse" markerWidth="2%" markerHeight="2%"><circle fill="black" stroke="none" cx="5" cy="5" r="3"/></marker><marker refY="5" markerUnits="userSpaceOnUse" markerWidth="2%" markerHeight="2%" id="square" viewBox="0 0 10 10 " refX="5"><rect x="2" y="2" width="6" height="6" fill="none" stroke="black"/></marker><marker viewBox="0 0 10 10 " refX="5" refY="5" markerUnits="userSpaceOnUse" markerWidth="2%" markerHeight="2%" id="filled-square"><rect x="2" y="2" width="6" height="6" fill="black" stroke="none"/></marker></defs><g stroke-width="1px" stroke-linecap="round" stroke-linejoin="round" transform="translate(80 520 )scale(1 -1 )" fill="hsl(198, 47%, 65%)" stroke="hsl(198, 47%, 65%)"><rect vector-effect="non-scaling-stroke" x="5.546667e+01" y="0" width="8.533333e+00" height="4.411344e+01"/><rect vector-effect="non-scaling-stroke" x="7.680000e+01" y="0" width="8.533333e+00" height="4.488668e+01"/><rect x="9.813333e+01" y="0" width="8.533333e+00" height="5.956744e+01" vector-effect="non-scaling-stroke"/><rect vector-effect="non-scaling-stroke" x="1.194667e+02" y="0" width="8.533333e+00" height="4.450090e+01"/><rect width="8.533333e+00" height="8.910424e+01" vector-effect="non-scaling-stroke" x="1.408000e+02" y="0"/><rect vector-effect="non-scaling-stroke" x="1.621333e+02" y="0" width="8.533333e+00" height="4.930535e+01"/><rect vector-effect="non-scaling-stroke" x="1.834667e+02" y="0" width="8.533333e+00" height="4.403223e+01"/><rect width="8.533333e+00" height="4.404383e+01" vector-effect="non-scaling-stroke" x="2.048000e+02" y="0"/><rect height="7.965545e+01" vector-effect="non-scaling-stroke" x="2.261333e+02" y="0" width="8.533333e+00"/><rect vector-effect="non-scaling-stroke" x="2.474667e+02" y="0" width="8.533333e+00" height="4.421793e+01"/><rect width="8.533333e+00" height="4.889217e+01" vector-effect="non-scaling-stroke" x="2.688000e+02" y="0"/><rect x="2.901333e+02" y="0" width="8.533333e+00" height="4.433675e+01" vector-effect="non-scaling-stroke"/><rect height="4.502286e+01" vector-effect="non-scaling-stroke" x="3.114667e+02" y="0" width="8.533333e+00"/><rect vector-effect="non-scaling-stroke" x="3.328000e+02" y="0" width="8.533333e+00" height="6.472781e+01"/><rect vector-effect="non-scaling-stroke" x="3.541333e+02" y="0" width="8.533333e+00" height="1.206203e+02"/><rect vector-effect="non-scaling-stroke" x="3.754667e+02" y="0" width="8.533333e+00" height="4.688408e+01"/><rect height="5.206799e+01" vector-effect="non-scaling-stroke" x="3.968000e+02" y="0" width="8.533333e+00"/><rect x="4.181333e+02" y="0" width="8.533333e+00" height="7.533751e+01" vector-effect="non-scaling-stroke"/><rect y="0" width="8.533333e+00" height="5.500452e+01" vector-effect="non-scaling-stroke" x="4.394667e+02"/><rect y="0" width="8.533333e+00" height="4.908151e+01" vector-effect="non-scaling-stroke" x="4.608000e+02"/><rect vector-effect="non-scaling-stroke" x="4.821333e+02" y="0" width="8.533333e+00" height="9.013012e+01"/><rect height="4.986591e+02" vector-effect="non-scaling-stroke" x="5.034667e+02" y="0" width="8.533333e+00"/><rect height="7.252352e+01" vector-effect="non-scaling-stroke" x="5.248000e+02" y="0" width="8.533333e+00"/><rect width="8.533333e+00" height="6.058916e+01" vector-effect="non-scaling-stroke" x="5.461333e+02" y="0"/><rect height="4.549603e+01" vector-effect="non-scaling-stroke" x="5.674667e+02" y="0" width="8.533333e+00"/></g><g stroke-linejoin="round" transform="translate(80 520 )scale(1 -1 )" fill="hsl(49, 88%, 65%)" stroke="hsl(49, 88%, 65%)" stroke-width="1px" stroke-linecap="round"><rect vector-effect="non-scaling-stroke" x="64" y="0" width="8.533333e+00" height="4.412181e+01"/><rect width="8.533333e+00" height="4.408610e+01" vector-effect="non-scaling-stroke" x="8.533333e+01" y="0"/><rect y="0" width="8.533333e+00" height="4.473290e+01" vector-effect="non-scaling-stroke" x="1.066667e+02"/><rect height="4.400193e+01" vector-effect="non-scaling-stroke" x="128" y="0" width="8.533333e+00"/><rect x="1.493333e+02" y="0" width="8.533333e+00" height="4.489845e+01" vector-effect="non-scaling-stroke"/><rect x="1.706667e+02" y="0" width="8.533333e+00" height="4.522680e+01" vector-effect="non-scaling-stroke"/><rect vector-effect="non-scaling-stroke" x="192" y="0" width="8.533333e+00" height="4.400073e+01"/><rect vector-effect="non-scaling-stroke" x="2.133333e+02" y="0" width="8.533333e+00" height="4.401247e+01"/><rect x="2.346667e+02" y="0" width="8.533333e+00" height="5.147056e+01" vector-effect="non-scaling-stroke"/><rect x="2.560000e+02" y="0" width="8.533333e+00" height="4.400101e+01" vector-effect="non-scaling-stroke"/><rect vector-effect="non-scaling-stroke" x="2.773333e+02" y="0" width="8.533333e+00" height="4.447686e+01"/><rect width="8.533333e+00" height="4.401192e+01" vector-effect="non-scaling-stroke" x="2.986667e+02" y="0"/><rect vector-effect="non-scaling-stroke" x="320" y="0" width="8.533333e+00" height="4.468301e+01"/><rect height="6.226844e+01" vector-effect="non-scaling-stroke" x="3.413333e+02" y="0" width="8.533333e+00"/><rect height="7.151959e+01" vector-effect="non-scaling-stroke" x="3.626667e+02" y="0" width="8.533333e+00"/><rect y="0" width="8.533333e+00" height="4.402382e+01" vector-effect="non-scaling-stroke" x="384"/><rect vector-effect="non-scaling-stroke" x="4.053333e+02" y="0" width="8.533333e+00" height="4.414012e+01"/><rect vector-effect="non-scaling-stroke" x="4.266667e+02" y="0" width="8.533333e+00" height="4.759905e+01"/><rect vector-effect="non-scaling-stroke" x="448" y="0" width="8.533333e+00" height="5.164288e+01"/><rect x="4.693333e+02" y="0" width="8.533333e+00" height="4.405158e+01" vector-effect="non-scaling-stroke"/><rect x="4.906667e+02" y="0" width="8.533333e+00" height="4.403790e+01" vector-effect="non-scaling-stroke"/><rect width="8.533333e+00" height="4.695420e+01" vector-effect="non-scaling-stroke" x="512" y="0"/><rect height="5.556824e+01" vector-effect="non-scaling-stroke" x="5.333333e+02" y="0" width="8.533333e+00"/><rect y="0" width="8.533333e+00" height="5.285052e+01" vector-effect="non-scaling-stroke" x="5.546667e+02"/><rect y="0" width="8.533333e+00" height="4.438212e+01" vector-effect="non-scaling-stroke" x="576"/></g><g font-size="12px" text-anchor="start" stroke="hsl(198, 47%, 65%)" stroke-width="1px" font-style="normal" font-weight="normal" dominant-baseline="hanging" stroke-linecap="round" font-family="sans-serif" fill="hsl(198, 47%, 65%)" stroke-linejoin="round"><rect vector-effect="non-scaling-stroke" x="736" y="484" width="12" height="12"/><g stroke="black" fill="black"><text vector-effect="non-scaling-stroke" x="752" y="484" dominant-baseline="hanging" stroke="none">Golang</text></g><g text-anchor="start" fill="hsl(49, 88%, 65%)" stroke-linecap="round" stroke-linejoin="round" font-family="sans-serif" stroke="hsl(49, 88%, 65%)" stroke-width="1px" font-style="normal" font-weight="normal" font-size="12px" dominant-baseline="hanging"><rect x="736" y="502" width="12" height="12" vector-effect="non-scaling-stroke"/><g fill="black" stroke="black"><text x="752" y="502" dominant-baseline="hanging" stroke="none" vector-effect="non-scaling-stroke">Rust</text><g stroke-width="2px" font-family="sans-serif" font-weight="normal" dominant-baseline="hanging" fill="none" font-style="normal" font-size="12px" text-anchor="start" stroke-linecap="round" stroke-linejoin="round"><rect vector-effect="non-scaling-stroke" x="80" y="80" width="640" height="440"/></g><g font-size="12px" fill="none" transform="translate(80 520 )scale(1 -1 )" stroke="black" stroke-linecap="round" stroke-linejoin="round" text-anchor="start" dominant-baseline="hanging" stroke-width="2px" font-style="normal" font-weight="normal" font-family="sans-serif"><path vector-effect="non-scaling-stroke" d="M64,0 L64,-6 M8.533333e+01,0 L8.533333e+01,-6 M1.066667e+02,0 L1.066667e+02,-6 M128,0 L128,-6 M1.493333e+02,0 L1.493333e+02,-6 M1.706667e+02,0 L1.706667e+02,-6 M192,0 L192,-6 M2.133333e+02,0 L2.133333e+02,-6 M2.346667e+02,0 L2.346667e+02,-6 M256,0 L256,-6 M2.773333e+02,0 L2.773333e+02,-6 M2.986667e+02,0 L2.986667e+02,-6 M320,0 L320,-6 M3.413333e+02,0 L3.413333e+02,-6 M3.626667e+02,0 L3.626667e+02,-6 M384,0 L384,-6 M4.053333e+02,0 L4.053333e+02,-6 M4.266667e+02,0 L4.266667e+02,-6 M448,0 L448,-6 M4.693333e+02,0 L4.693333e+02,-6 M4.906667e+02,0 L4.906667e+02,-6 M512,0 L512,-6 M5.333333e+02,0 L5.333333e+02,-6 M5.546667e+02,0 L5.546667e+02,-6 M576,0 L576,-6 "/></g><g fill="black" font-style="normal" transform="translate(80 520 )scale(1 1 )" stroke="black" stroke-width="2px" dominant-baseline="hanging" font-family="sans-serif" font-size="12px" text-anchor="middle" stroke-linecap="round" font-weight="normal" stroke-linejoin="round"><text y="10" dominant-baseline="hanging" stroke="none" vector-effect="non-scaling-stroke" x="64">1</text><text y="10" dominant-baseline="hanging" stroke="none" vector-effect="non-scaling-stroke" x="8.533333e+01">2</text><text y="10" dominant-baseline="hanging" stroke="none" vector-effect="non-scaling-stroke" x="1.066667e+02">3</text><text stroke="none" vector-effect="non-scaling-stroke" x="128" y="10" dominant-baseline="hanging">4</text><text dominant-baseline="hanging" stroke="none" vector-effect="non-scaling-stroke" x="1.493333e+02" y="10">5</text><text x="1.706667e+02" y="10" dominant-baseline="hanging" stroke="none" vector-effect="non-scaling-stroke">6</text><text stroke="none" vector-effect="non-scaling-stroke" x="192" y="10" dominant-baseline="hanging">7</text><text dominant-baseline="hanging" stroke="none" vector-effect="non-scaling-stroke" x="2.133333e+02" y="10">8</text><text stroke="none" vector-effect="non-scaling-stroke" x="2.346667e+02" y="10" dominant-baseline="hanging">9</text><text dominant-baseline="hanging" stroke="none" vector-effect="non-scaling-stroke" x="256" y="10">10</text><text x="2.773333e+02" y="10" dominant-baseline="hanging" stroke="none" vector-effect="non-scaling-stroke">11</text><text dominant-baseline="hanging" stroke="none" vector-effect="non-scaling-stroke" x="2.986667e+02" y="10">12</text><text stroke="none" vector-effect="non-scaling-stroke" x="320" y="10" dominant-baseline="hanging">13</text><text dominant-baseline="hanging" stroke="none" vector-effect="non-scaling-stroke" x="3.413333e+02" y="10">14</text><text y="10" dominant-baseline="hanging" stroke="none" vector-effect="non-scaling-stroke" x="3.626667e+02">15</text><text stroke="none" vector-effect="non-scaling-stroke" x="384" y="10" dominant-baseline="hanging">16</text><text vector-effect="non-scaling-stroke" x="4.053333e+02" y="10" dominant-baseline="hanging" stroke="none">17</text><text x="4.266667e+02" y="10" dominant-baseline="hanging" stroke="none" vector-effect="non-scaling-stroke">18</text><text stroke="none" vector-effect="non-scaling-stroke" x="448" y="10" dominant-baseline="hanging">19</text><text stroke="none" vector-effect="non-scaling-stroke" x="4.693333e+02" y="10" dominant-baseline="hanging">20</text><text stroke="none" vector-effect="non-scaling-stroke" x="4.906667e+02" y="10" dominant-baseline="hanging">21</text><text vector-effect="non-scaling-stroke" x="512" y="10" dominant-baseline="hanging" stroke="none">22</text><text stroke="none" vector-effect="non-scaling-stroke" x="5.333333e+02" y="10" dominant-baseline="hanging">23</text><text y="10" dominant-baseline="hanging" stroke="none" vector-effect="non-scaling-stroke" x="5.546667e+02">24</text><text y="10" dominant-baseline="hanging" stroke="none" vector-effect="non-scaling-stroke" x="576">25</text></g><g stroke-linecap="round" stroke-linejoin="round" transform="translate(80 520 )scale(1 1 )rotate(0 0 0 )" stroke="black" stroke-width="2px" font-style="normal" font-size="12px" text-anchor="middle" font-weight="bold" dominant-baseline="baseline" fill="black" font-family="sans-serif"><text stroke="none" vector-effect="non-scaling-stroke" x="320" y="-6" dominant-baseline="baseline">Day</text></g><g font-weight="bold" transform="translate(80 520 )scale(1 -1 )" fill="black" stroke-linecap="round" dominant-baseline="baseline" stroke-width="2px" font-style="normal" stroke-linejoin="round" font-family="sans-serif" font-size="12px" text-anchor="middle" stroke="black"><path vector-effect="non-scaling-stroke" d="M0,44 L-6,44 M0,7.920000e+01 L-6,7.920000e+01 M0,1.144000e+02 L-6,1.144000e+02 M0,1.496000e+02 L-6,1.496000e+02 M0,1.848000e+02 L-6,1.848000e+02 M0,220 L-6,220 M0,2.552000e+02 L-6,2.552000e+02 M0,2.904000e+02 L-6,2.904000e+02 M0,3.256000e+02 L-6,3.256000e+02 M0,3.608000e+02 L-6,3.608000e+02 M0,396 L-6,396 "/></g><g stroke-width="2px" font-style="normal" transform="translate(80 520 )scale(1 1 )" fill="black" font-family="sans-serif" font-size="12px" dominant-baseline="middle" font-weight="normal" stroke-linecap="round" stroke-linejoin="round" text-anchor="end" stroke="black"><text stroke="none" vector-effect="non-scaling-stroke" x="-10" y="-44" dominant-baseline="middle">0s</text><text x="-10" y="-7.920000e+01" dominant-baseline="middle" stroke="none" vector-effect="non-scaling-stroke">200ms</text><text vector-effect="non-scaling-stroke" x="-10" y="-1.144000e+02" dominant-baseline="middle" stroke="none">400ms</text><text vector-effect="non-scaling-stroke" x="-10" y="-1.496000e+02" dominant-baseline="middle" stroke="none">600ms</text><text stroke="none" vector-effect="non-scaling-stroke" x="-10" y="-1.848000e+02" dominant-baseline="middle">800ms</text><text x="-10" y="-220" dominant-baseline="middle" stroke="none" vector-effect="non-scaling-stroke">1s</text><text vector-effect="non-scaling-stroke" x="-10" y="-2.552000e+02" dominant-baseline="middle" stroke="none">1.2s</text><text vector-effect="non-scaling-stroke" x="-10" y="-2.904000e+02" dominant-baseline="middle" stroke="none">1.4s</text><text vector-effect="non-scaling-stroke" x="-10" y="-3.256000e+02" dominant-baseline="middle" stroke="none">1.6s</text><text x="-10" y="-3.608000e+02" dominant-baseline="middle" stroke="none" vector-effect="non-scaling-stroke">1.8s</text><text vector-effect="non-scaling-stroke" x="-10" y="-396" dominant-baseline="middle" stroke="none">2s</text></g><g dominant-baseline="hanging" stroke-width="2px" font-style="normal" font-weight="bold" fill="black" font-family="sans-serif" text-anchor="middle" stroke="black" transform="translate(80 520 )scale(1 1 )rotate(-90 0 0 )" stroke-linecap="round" stroke-linejoin="round" font-size="12px"><text y="6" dominant-baseline="hanging" stroke="none" vector-effect="non-scaling-stroke" x="220">Runtime</text></g></g></g></g></svg>