<svg viewbox="0 0 800 600" preserveAspectRatio="xMidYMid meet" xmlns="http://www.w3.org/2000/svg" width="800" height="600"><defs><marker markerWidth="2%" markerHeight="2%" id="circle" viewBox="0 0 10 10 " refX="5" refY="5" markerUnits="userSpaceOnUse"><circle fill="none" stroke="black" cx="5" cy="5" r="3"/></marker><marker viewBox="0 0 10 10 " refX="5" refY="5" markerUnits="userSpaceOnUse" markerWidth="2%" markerHeight="2%" id="filled-circle"><circle stroke="none" cx="5" cy="5" r="3" fill="black"/></marker><marker viewBox="0 0 10 10 " refX="5" refY="5" markerUnits="userSpaceOnUse" markerWidth="2%" markerHeight="2%" id="square"><rect stroke="black" x="2" y="2" width="6" height="6" fill="none"/></marker><marker markerUnits="userSpaceOnUse" markerWidth="2%" markerHeight="2%" id="filled-square" viewBox="0 0 10 10 " refX="5" refY="5"><rect y="2" width="6" height="6" fill="black" stroke="none" x="2"/></marker></defs><g fill="hsl(198, 47%, 65%)" stroke="hsl(198, 47%, 65%)" stroke-width="1px" stroke-linecap="round" stroke-linejoin="round" transform="translate(80 520 )scale(1 -1 )"><rect y="0" width="5.688889e+00" height="4.401094e+01" vector-effect="non-scaling-stroke" x="5.546667e+01"/></g><g stroke-linejoin="round" transform="translate(80 520 )scale(1 -1 )" fill="hsl(49, 88%, 65%)" stroke="hsl(49, 88%, 65%)" stroke-width="1px" stroke-linecap="round"><rect vector-effect="non-scaling-stroke" x="6.115556e+01" y="0" width="5.688889e+00" height="4.400513e+01"/><rect width="5.688889e+00" height="4.413327e+01" vector-effect="non-scaling-stroke" x="8.248889e+01" y="0"/><rect vector-effect="non-scaling-stroke" x="1.038222e+02" y="0" width="5.688889e+00" height="4.413036e+01"/><rect width="5.688889e+00" height="2.882471e+02" vector-effect="non-scaling-stroke" x="1.251556e+02" y="0"/><rect y="0" width="5.688889e+00" height="4.409338e+01" vector-effect="non-scaling-stroke" x="1.464889e+02"/><rect x="1.678222e+02" y="0" width="5.688889e+00" height="6.525620e+01" vector-effect="non-scaling-stroke"/><rect y="0" width="5.688889e+00" height="4.405608e+01" vector-effect="non-scaling-stroke" x="1.891556e+02"/><rect x="2.104889e+02" y="0" width="5.688889e+00" height="4.400543e+01" vector-effect="non-scaling-stroke"/><rect vector-effect="non-scaling-stroke" x="2.318222e+02" y="0" width="5.688889e+00" height="4.657094e+01"/><rect height="6.482836e+01" vector-effect="non-scaling-stroke" x="2.531556e+02" y="0" width="5.688889e+00"/><rect height="5.294248e+01" vector-effect="non-scaling-stroke" x="2.744889e+02" y="0" width="5.688889e+00"/><rect x="2.958222e+02" y="0" width="5.688889e+00" height="5.770704e+01" vector-effect="non-scaling-stroke"/><rect width="5.688889e+00" height="6.995395e+01" vector-effect="non-scaling-stroke" x="3.171556e+02" y="0"/><rect width="5.688889e+00" height="4.405366e+01" vector-effect="non-scaling-stroke" x="3.384889e+02" y="0"/><rect width="5.688889e+00" height="6.199767e+01" vector-effect="non-scaling-stroke" x="3.598222e+02" y="0"/><rect y="0" width="5.688889e+00" height="4.409368e+01" vector-effect="non-scaling-stroke" x="3.811556e+02"/><rect y="0" width="5.688889e+00" height="5.977754e+01" vector-effect="non-scaling-stroke" x="4.024889e+02"/><rect height="4.507305e+01" vector-effect="non-scaling-stroke" x="4.238222e+02" y="0" width="5.688889e+00"/><rect vector-effect="non-scaling-stroke" x="4.451556e+02" y="0" width="5.688889e+00" height="4.406592e+01"/><rect y="0" width="5.688889e+00" height="1.173942e+03" vector-effect="non-scaling-stroke" x="4.664889e+02"/><rect vector-effect="non-scaling-stroke" x="4.878222e+02" y="0" width="5.688889e+00" height="4.411073e+01"/><rect height="5.108757e+02" vector-effect="non-scaling-stroke" x="5.091556e+02" y="0" width="5.688889e+00"/><rect width="5.688889e+00" height="4.400802e+01" vector-effect="non-scaling-stroke" x="5.304889e+02" y="0"/><rect x="5.518222e+02" y="0" width="5.688889e+00" height="8.500240e+01" vector-effect="non-scaling-stroke"/><rect vector-effect="non-scaling-stroke" x="5.731556e+02" y="0" width="5.688889e+00" height="4.400134e+01"/></g><g transform="translate(80 520 )scale(1 -1 )" fill="hsl(260, 76%, 65%)" stroke="hsl(260, 76%, 65%)" stroke-width="1px" stroke-linecap="round" stroke-linejoin="round"><rect vector-effect="non-scaling-stroke" x="6.684444e+01" y="0" width="5.688889e+00" height="4.400121e+01"/><rect vector-effect="non-scaling-stroke" x="8.817778e+01" y="0" width="5.688889e+00" height="4.402011e+01"/><rect width="5.688889e+00" height="4.416299e+01" vector-effect="non-scaling-stroke" x="1.095111e+02" y="0"/><rect y="0" width="5.688889e+00" height="4.168609e+02" vector-effect="non-scaling-stroke" x="1.308444e+02"/><rect height="4.406831e+01" vector-effect="non-scaling-stroke" x="1.521778e+02" y="0" width="5.688889e+00"/><rect y="0" width="5.688889e+00" height="5.359341e+01" vector-effect="non-scaling-stroke" x="1.735111e+02"/><rect height="4.407628e+01" vector-effect="non-scaling-stroke" x="1.948444e+02" y="0" width="5.688889e+00"/><rect height="4.401309e+01" vector-effect="non-scaling-stroke" x="2.161778e+02" y="0" width="5.688889e+00"/><rect vector-effect="non-scaling-stroke" x="2.375111e+02" y="0" width="5.688889e+00" height="4.568782e+01"/><rect vector-effect="non-scaling-stroke" x="2.588444e+02" y="0" width="5.688889e+00" height="2.502491e+02"/><rect height="6.125375e+01" vector-effect="non-scaling-stroke" x="2.801778e+02" y="0" width="5.688889e+00"/><rect x="3.015111e+02" y="0" width="5.688889e+00" height="4.409617e+01" vector-effect="non-scaling-stroke"/><rect vector-effect="non-scaling-stroke" x="3.228444e+02" y="0" width="5.688889e+00" height="7.576554e+01"/><rect vector-effect="non-scaling-stroke" x="3.441778e+02" y="0" width="5.688889e+00" height="4.415957e+01"/><rect vector-effect="non-scaling-stroke" x="3.655111e+02" y="0" width="5.688889e+00" height="5.762408e+01"/><rect x="3.868444e+02" y="0" width="5.688889e+00" height="4.409243e+01" vector-effect="non-scaling-stroke"/><rect width="5.688889e+00" height="5.546189e+01" vector-effect="non-scaling-stroke" x="4.081778e+02" y="0"/><rect width="5.688889e+00" height="4.874756e+01" vector-effect="non-scaling-stroke" x="4.295111e+02" y="0"/><rect y="0" width="5.688889e+00" height="4.428509e+01" vector-effect="non-scaling-stroke" x="4.508444e+02"/><rect vector-effect="non-scaling-stroke" x="4.721778e+02" y="0" width="5.688889e+00" height="5.297086e+02"/><rect vector-effect="non-scaling-stroke" x="4.935111e+02" y="0" width="5.688889e+00" height="4.401087e+01"/><rect height="1.758388e+02" vector-effect="non-scaling-stroke" x="5.148444e+02" y="0" width="5.688889e+00"/><rect x="5.361778e+02" y="0" width="5.688889e+00" height="4.400165e+01" vector-effect="non-scaling-stroke"/><rect vector-effect="non-scaling-stroke" x="5.575111e+02" y="0" width="5.688889e+00" height="4.648301e+01"/><rect width="5.688889e+00" height="4.400009e+01" vector-effect="non-scaling-stroke" x="5.788444e+02" y="0"/></g><g font-size="12px" dominant-baseline="hanging" fill="hsl(198, 47%, 65%)" stroke-linejoin="round" text-anchor="start" stroke-linecap="round" font-family="sans-serif" stroke="hsl(198, 47%, 65%)" stroke-width="1px" font-style="normal" font-weight="normal"><rect x="736" y="466" width="12" height="12" vector-effect="non-scaling-stroke"/><g fill="black" stroke="black"><text stroke="none" vector-effect="non-scaling-stroke" x="752" y="466" dominant-baseline="hanging">Crystal</text></g><g font-family="sans-serif" font-size="12px" font-weight="normal" text-anchor="start" stroke-width="1px" dominant-baseline="hanging" stroke="hsl(49, 88%, 65%)" stroke-linecap="round" stroke-linejoin="round" font-style="normal" fill="hsl(49, 88%, 65%)"><rect y="484" width="12" height="12" vector-effect="non-scaling-stroke" x="736"/><g stroke="black" fill="black"><text stroke="none" vector-effect="non-scaling-stroke" x="752" y="484" dominant-baseline="hanging">Golang</text></g><g font-family="sans-serif" text-anchor="start" fill="hsl(260, 76%, 65%)" stroke-linejoin="round" dominant-baseline="hanging" font-size="12px" font-style="normal" font-weight="normal" stroke-linecap="round" stroke="hsl(260, 76%, 65%)" stroke-width="1px"><rect vector-effect="non-scaling-stroke" x="736" y="502" width="12" height="12"/><g stroke="black" fill="black"><text dominant-baseline="hanging" stroke="none" vector-effect="non-scaling-stroke" x="752" y="502">Rust</text><g text-anchor="start" stroke-linecap="round" stroke-width="2px" dominant-baseline="hanging" stroke-linejoin="round" font-family="sans-serif" font-size="12px" font-style="normal" font-weight="normal" fill="none"><rect width="640" height="440" vector-effect="non-scaling-stroke" x="80" y="80"/></g><g font-weight="normal" stroke-width="2px" fill="none" stroke-linecap="round" font-style="normal" font-family="sans-serif" font-size="12px" transform="translate(80 520 )scale(1 -1 )" stroke="black" dominant-baseline="hanging" text-anchor="start" stroke-linejoin="round"><path vector-effect="non-scaling-stroke" d="M64,0 L64,-6 "/></g><g stroke-linecap="round" stroke-linejoin="round" font-size="12px" text-anchor="middle" fill="black" dominant-baseline="hanging" stroke="black" stroke-width="2px" font-family="sans-serif" font-style="normal" font-weight="normal" transform="translate(80 520 )scale(1 1 )"><text y="10" dominant-baseline="hanging" stroke="none" vector-effect="non-scaling-stroke" x="64">1</text></g><g transform="translate(80 520 )scale(1 1 )rotate(0 0 0 )" stroke="black" stroke-linejoin="round" font-family="sans-serif" font-style="normal" text-anchor="middle" fill="black" stroke-linecap="round" font-size="12px" font-weight="bold" stroke-width="2px" dominant-baseline="baseline"><text y="-6" dominant-baseline="baseline" stroke="none" vector-effect="non-scaling-stroke" x="320">Day</text></g><g stroke="black" font-size="12px" font-style="normal" text-anchor="middle" stroke-linecap="round" stroke-linejoin="round" transform="translate(80 520 )scale(1 -1 )" font-family="sans-serif" font-weight="bold" fill="black" stroke-width="2px" dominant-baseline="baseline"><path vector-effect="non-scaling-stroke" d="M0,44 L-6,44 M0,7.920000e+01 L-6,7.920000e+01 M0,1.144000e+02 L-6,1.144000e+02 M0,1.496000e+02 L-6,1.496000e+02 M0,1.848000e+02 L-6,1.848000e+02 M0,220 L-6,220 M0,2.552000e+02 L-6,2.552000e+02 M0,2.904000e+02 L-6,2.904000e+02 M0,3.256000e+02 L-6,3.256000e+02 M0,3.608000e+02 L-6,3.608000e+02 M0,396 L-6,396 "/></g><g stroke-linejoin="round" font-family="sans-serif" font-size="12px" stroke="black" stroke-width="2px" dominant-baseline="middle" fill="black" stroke-linecap="round" font-weight="normal" transform="translate(80 520 )scale(1 1 )" text-anchor="end" font-style="normal"><text stroke="none" vector-effect="non-scaling-stroke" x="-10" y="-44" dominant-baseline="middle">0s</text><text vector-effect="non-scaling-stroke" x="-10" y="-7.920000e+01" dominant-baseline="middle" stroke="none">200ms</text><text stroke="none" vector-effect="non-scaling-stroke" x="-10" y="-1.144000e+02" dominant-baseline="middle">400ms</text><text y="-1.496000e+02" dominant-baseline="middle" stroke="none" vector-effect="non-scaling-stroke" x="-10">600ms</text><text y="-1.848000e+02" dominant-baseline="middle" stroke="none" vector-effect="non-scaling-stroke" x="-10">800ms</text><text dominant-baseline="middle" stroke="none" vector-effect="non-scaling-stroke" x="-10" y="-220">1s</text><text stroke="none" vector-effect="non-scaling-stroke" x="-10" y="-2.552000e+02" dominant-baseline="middle">1.2s</text><text stroke="none" vector-effect="non-scaling-stroke" x="-10" y="-2.904000e+02" dominant-baseline="middle">1.4s</text><text dominant-baseline="middle" stroke="none" vector-effect="non-scaling-stroke" x="-10" y="-3.256000e+02">1.6s</text><text vector-effect="non-scaling-stroke" x="-10" y="-3.608000e+02" dominant-baseline="middle" stroke="none">1.8s</text><text y="-396" dominant-baseline="middle" stroke="none" vector-effect="non-scaling-stroke" x="-10">2s</text></g><g stroke-width="2px" stroke-linejoin="round" font-size="12px" transform="translate(80 520 )scale(1 1 )rotate(-90 0 0 )" stroke="black" font-weight="bold" text-anchor="middle" fill="black" stroke-linecap="round" font-family="sans-serif" font-style="normal" dominant-baseline="hanging"><text stroke="none" vector-effect="non-scaling-stroke" x="220" y="6" dominant-baseline="hanging">Runtime</text></g></g></g></g></g></svg>