<svg xmlns="http://www.w3.org/2000/svg" width="800" height="600" viewbox="0 0 800 600" preserveAspectRatio="xMidYMid meet"><defs><marker refX="5" refY="5" markerUnits="userSpaceOnUse" markerWidth="2%" markerHeight="2%" id="circle" viewBox="0 0 10 10 "><circle cy="5" r="3" fill="none" stroke="black" cx="5"/></marker><marker markerWidth="2%" markerHeight="2%" id="filled-circle" viewBox="0 0 10 10 " refX="5" refY="5" markerUnits="userSpaceOnUse"><circle stroke="none" cx="5" cy="5" r="3" fill="black"/></marker><marker markerWidth="2%" markerHeight="2%" id="square" viewBox="0 0 10 10 " refX="5" refY="5" markerUnits="userSpaceOnUse"><rect fill="none" stroke="black" x="2" y="2" width="6" height="6"/></marker><marker id="filled-square" viewBox="0 0 10 10 " refX="5" refY="5" markerUnits="userSpaceOnUse" markerWidth="2%" markerHeight="2%"><rect stroke="none" x="2" y="2" width="6" height="6" fill="black"/></marker></defs><g stroke-width="1px" stroke-linecap="round" stroke-linejoin="round" transform="translate(80 520 )scale(1 -1 )" fill="hsl(198, 47%, 65%)" stroke="hsl(198, 47%, 65%)"><rect y="0" width="5.688889e+00" height="4.400736e+01" vector-effect="non-scaling-stroke" x="5.546667e+01"/><rect vector-effect="non-scaling-stroke" x="7.680000e+01" y="0" width="5.688889e+00" height="4.401183e+01"/><rect y="0" width="5.688889e+00" height="4.402133e+01" vector-effect="non-scaling-stroke" x="9.813333e+01"/><rect vector-effect="non-scaling-stroke" x="1.194667e+02" y="0" width="5.688889e+00" height="4.508144e+01"/><rect y="0" width="5.688889e+00" height="9.928605e+01" vector-effect="non-scaling-stroke" x="1.408000e+02"/><rect x="1.621333e+02" y="0" width="5.688889e+00" height="5.507459e+01" vector-effect="non-scaling-stroke"/><rect vector-effect="non-scaling-stroke" x="1.834667e+02" y="0" width="5.688889e+00" height="4.585683e+01"/><rect width="5.688889e+00" height="4.442582e+01" vector-effect="non-scaling-stroke" x="2.048000e+02" y="0"/><rect width="5.688889e+00" height="4.408935e+01" vector-effect="non-scaling-stroke" x="2.261333e+02" y="0"/><rect vector-effect="non-scaling-stroke" x="2.474667e+02" y="0" width="5.688889e+00" height="4.430096e+01"/><rect x="2.688000e+02" y="0" width="5.688889e+00" height="4.409599e+01" vector-effect="non-scaling-stroke"/><rect width="5.688889e+00" height="4.629729e+01" vector-effect="non-scaling-stroke" x="2.901333e+02" y="0"/><rect vector-effect="non-scaling-stroke" x="3.114667e+02" y="0" width="5.688889e+00" height="6.236828e+01"/><rect x="3.328000e+02" y="0" width="5.688889e+00" height="6.119932e+01" vector-effect="non-scaling-stroke"/><rect width="5.688889e+00" height="396" vector-effect="non-scaling-stroke" x="3.541333e+02" y="0"/><rect height="1.755511e+02" vector-effect="non-scaling-stroke" x="3.754667e+02" y="0" width="5.688889e+00"/><rect width="5.688889e+00" height="2.093386e+02" vector-effect="non-scaling-stroke" x="3.968000e+02" y="0"/><rect height="4.929113e+01" vector-effect="non-scaling-stroke" x="4.181333e+02" y="0" width="5.688889e+00"/><rect vector-effect="non-scaling-stroke" x="4.394667e+02" y="0" width="5.688889e+00" height="4.414785e+01"/><rect x="4.608000e+02" y="0" width="5.688889e+00" height="2.750261e+02" vector-effect="non-scaling-stroke"/><rect width="5.688889e+00" height="8.955761e+01" vector-effect="non-scaling-stroke" x="4.821333e+02" y="0"/><rect height="8.441713e+01" vector-effect="non-scaling-stroke" x="5.034667e+02" y="0" width="5.688889e+00"/><rect x="5.248000e+02" y="0" width="5.688889e+00" height="4.506076e+01" vector-effect="non-scaling-stroke"/><rect height="1.257323e+02" vector-effect="non-scaling-stroke" x="5.461333e+02" y="0" width="5.688889e+00"/><rect y="0" width="5.688889e+00" height="6.553364e+01" vector-effect="non-scaling-stroke" x="5.674667e+02"/></g><g transform="translate(80 520 )scale(1 -1 )" fill="hsl(49, 88%, 65%)" stroke="hsl(49, 88%, 65%)" stroke-width="1px" stroke-linecap="round" stroke-linejoin="round"><rect vector-effect="non-scaling-stroke" x="6.115556e+01" y="0" width="5.688889e+00" height="4.400485e+01"/><rect height="4.400601e+01" vector-effect="non-scaling-stroke" x="8.248889e+01" y="0" width="5.688889e+00"/><rect height="4.400745e+01" vector-effect="non-scaling-stroke" x="1.038222e+02" y="0" width="5.688889e+00"/><rect vector-effect="non-scaling-stroke" x="1.251556e+02" y="0" width="5.688889e+00" height="4.603197e+01"/><rect vector-effect="non-scaling-stroke" x="1.464889e+02" y="0" width="5.688889e+00" height="7.238320e+01"/><rect vector-effect="non-scaling-stroke" x="1.678222e+02" y="0" width="5.688889e+00" height="4.470749e+01"/><rect width="5.688889e+00" height="4.443825e+01" vector-effect="non-scaling-stroke" x="1.891556e+02" y="0"/><rect vector-effect="non-scaling-stroke" x="2.104889e+02" y="0" width="5.688889e+00" height="4.414230e+01"/><rect x="2.318222e+02" y="0" width="5.688889e+00" height="4.403121e+01" vector-effect="non-scaling-stroke"/><rect x="2.531556e+02" y="0" width="5.688889e+00" height="4.407840e+01" vector-effect="non-scaling-stroke"/><rect height="4.405680e+01" vector-effect="non-scaling-stroke" x="2.744889e+02" y="0" width="5.688889e+00"/><rect x="2.958222e+02" y="0" width="5.688889e+00" height="4.457193e+01" vector-effect="non-scaling-stroke"/><rect vector-effect="non-scaling-stroke" x="3.171556e+02" y="0" width="5.688889e+00" height="2.877209e+02"/><rect vector-effect="non-scaling-stroke" x="3.384889e+02" y="0" width="5.688889e+00" height="5.940241e+01"/><rect y="0" width="5.688889e+00" height="3.246641e+02" vector-effect="non-scaling-stroke" x="3.598222e+02"/><rect height="5.728973e+01" vector-effect="non-scaling-stroke" x="3.811556e+02" y="0" width="5.688889e+00"/><rect x="4.024889e+02" y="0" width="5.688889e+00" height="2.019584e+02" vector-effect="non-scaling-stroke"/><rect x="4.238222e+02" y="0" width="5.688889e+00" height="4.400814e+01" vector-effect="non-scaling-stroke"/><rect y="0" width="5.688889e+00" height="4.402601e+01" vector-effect="non-scaling-stroke" x="4.451556e+02"/><rect width="5.688889e+00" height="5.432953e+01" vector-effect="non-scaling-stroke" x="4.664889e+02" y="0"/><rect width="5.688889e+00" height="4.400209e+01" vector-effect="non-scaling-stroke" x="4.878222e+02" y="0"/><rect vector-effect="non-scaling-stroke" x="5.091556e+02" y="0" width="5.688889e+00" height="8.339240e+01"/><rect x="5.304889e+02" y="0" width="5.688889e+00" height="4.401965e+01" vector-effect="non-scaling-stroke"/><rect y="0" width="5.688889e+00" height="1.000582e+02" vector-effect="non-scaling-stroke" x="5.518222e+02"/><rect vector-effect="non-scaling-stroke" x="5.731556e+02" y="0" width="5.688889e+00" height="7.376762e+01"/></g><g stroke-linecap="round" stroke-linejoin="round" transform="translate(80 520 )scale(1 -1 )" fill="hsl(260, 76%, 65%)" stroke="hsl(260, 76%, 65%)" stroke-width="1px"><rect height="4.400203e+01" vector-effect="non-scaling-stroke" x="6.684444e+01" y="0" width="5.688889e+00"/></g><g fill="hsl(198, 47%, 65%)" font-style="normal" font-family="sans-serif" stroke-width="1px" font-weight="normal" dominant-baseline="hanging" stroke="hsl(198, 47%, 65%)" stroke-linecap="round" stroke-linejoin="round" font-size="12px" text-anchor="start"><rect x="736" y="466" width="12" height="12" vector-effect="non-scaling-stroke"/><g fill="black" stroke="black"><text y="466" dominant-baseline="hanging" stroke="none" vector-effect="non-scaling-stroke" x="752">Golang</text></g><g stroke="hsl(49, 88%, 65%)" stroke-width="1px" stroke-linecap="round" font-size="12px" font-family="sans-serif" font-style="normal" font-weight="normal" text-anchor="start" dominant-baseline="hanging" fill="hsl(49, 88%, 65%)" stroke-linejoin="round"><rect y="484" width="12" height="12" vector-effect="non-scaling-stroke" x="736"/><g fill="black" stroke="black"><text x="752" y="484" dominant-baseline="hanging" stroke="none" vector-effect="non-scaling-stroke">Rust</text></g><g dominant-baseline="hanging" stroke="hsl(260, 76%, 65%)" stroke-linecap="round" font-family="sans-serif" font-style="normal" stroke-linejoin="round" text-anchor="start" fill="hsl(260, 76%, 65%)" stroke-width="1px" font-size="12px" font-weight="normal"><rect vector-effect="non-scaling-stroke" x="736" y="502" width="12" height="12"/><g fill="black" stroke="black"><text dominant-baseline="hanging" stroke="none" vector-effect="non-scaling-stroke" x="752" y="502">Zig</text><g stroke-linejoin="round" font-size="12px" fill="none" stroke-linecap="round" font-family="sans-serif" font-style="normal" text-anchor="start" stroke-width="2px" font-weight="normal" dominant-baseline="hanging"><rect x="80" y="80" width="640" height="440" vector-effect="non-scaling-stroke"/></g><g stroke-linejoin="round" text-anchor="start" stroke-linecap="round" font-style="normal" transform="translate(80 520 )scale(1 -1 )" stroke="black" stroke-width="2px" font-size="12px" font-weight="normal" dominant-baseline="hanging" font-family="sans-serif" fill="none"><path d="M64,0 L64,-6 M8.533333e+01,0 L8.533333e+01,-6 M1.066667e+02,0 L1.066667e+02,-6 M128,0 L128,-6 M1.493333e+02,0 L1.493333e+02,-6 M1.706667e+02,0 L1.706667e+02,-6 M192,0 L192,-6 M2.133333e+02,0 L2.133333e+02,-6 M2.346667e+02,0 L2.346667e+02,-6 M256,0 L256,-6 M2.773333e+02,0 L2.773333e+02,-6 M2.986667e+02,0 L2.986667e+02,-6 M320,0 L320,-6 M3.413333e+02,0 L3.413333e+02,-6 M3.626667e+02,0 L3.626667e+02,-6 M384,0 L384,-6 M4.053333e+02,0 L4.053333e+02,-6 M4.266667e+02,0 L4.266667e+02,-6 M448,0 L448,-6 M4.693333e+02,0 L4.693333e+02,-6 M4.906667e+02,0 L4.906667e+02,-6 M512,0 L512,-6 M5.333333e+02,0 L5.333333e+02,-6 M5.546667e+02,0 L5.546667e+02,-6 M576,0 L576,-6 " vector-effect="non-scaling-stroke"/></g><g text-anchor="middle" dominant-baseline="hanging" fill="black" stroke="black" stroke-width="2px" font-family="sans-serif" font-style="normal" stroke-linejoin="round" font-size="12px" font-weight="normal" stroke-linecap="round" transform="translate(80 520 )scale(1 1 )"><text stroke="none" vector-effect="non-scaling-stroke" x="64" y="10" dominant-baseline="hanging">1</text><text stroke="none" vector-effect="non-scaling-stroke" x="8.533333e+01" y="10" dominant-baseline="hanging">2</text><text stroke="none" vector-effect="non-scaling-stroke" x="1.066667e+02" y="10" dominant-baseline="hanging">3</text><text y="10" dominant-baseline="hanging" stroke="none" vector-effect="non-scaling-stroke" x="128">4</text><text y="10" dominant-baseline="hanging" stroke="none" vector-effect="non-scaling-stroke" x="1.493333e+02">5</text><text vector-effect="non-scaling-stroke" x="1.706667e+02" y="10" dominant-baseline="hanging" stroke="none">6</text><text x="192" y="10" dominant-baseline="hanging" stroke="none" vector-effect="non-scaling-stroke">7</text><text stroke="none" vector-effect="non-scaling-stroke" x="2.133333e+02" y="10" dominant-baseline="hanging">8</text><text y="10" dominant-baseline="hanging" stroke="none" vector-effect="non-scaling-stroke" x="2.346667e+02">9</text><text dominant-baseline="hanging" stroke="none" vector-effect="non-scaling-stroke" x="256" y="10">10</text><text y="10" dominant-baseline="hanging" stroke="none" vector-effect="non-scaling-stroke" x="2.773333e+02">11</text><text vector-effect="non-scaling-stroke" x="2.986667e+02" y="10" dominant-baseline="hanging" stroke="none">12</text><text dominant-baseline="hanging" stroke="none" vector-effect="non-scaling-stroke" x="320" y="10">13</text><text stroke="none" vector-effect="non-scaling-stroke" x="3.413333e+02" y="10" dominant-baseline="hanging">14</text><text vector-effect="non-scaling-stroke" x="3.626667e+02" y="10" dominant-baseline="hanging" stroke="none">15</text><text stroke="none" vector-effect="non-scaling-stroke" x="384" y="10" dominant-baseline="hanging">16</text><text dominant-baseline="hanging" stroke="none" vector-effect="non-scaling-stroke" x="4.053333e+02" y="10">17</text><text y="10" dominant-baseline="hanging" stroke="none" vector-effect="non-scaling-stroke" x="4.266667e+02">18</text><text dominant-baseline="hanging" stroke="none" vector-effect="non-scaling-stroke" x="448" y="10">19</text><text stroke="none" vector-effect="non-scaling-stroke" x="4.693333e+02" y="10" dominant-baseline="hanging">20</text><text dominant-baseline="hanging" stroke="none" vector-effect="non-scaling-stroke" x="4.906667e+02" y="10">21</text><text dominant-baseline="hanging" stroke="none" vector-effect="non-scaling-stroke" x="512" y="10">22</text><text dominant-baseline="hanging" stroke="none" vector-effect="non-scaling-stroke" x="5.333333e+02" y="10">23</text><text dominant-baseline="hanging" stroke="none" vector-effect="non-scaling-stroke" x="5.546667e+02" y="10">24</text><text stroke="none" vector-effect="non-scaling-stroke" x="576" y="10" dominant-baseline="hanging">25</text></g><g stroke-linecap="round" stroke="black" stroke-width="2px" font-size="12px" font-weight="bold" dominant-baseline="baseline" font-family="sans-serif" font-style="normal" transform="translate(80 520 )scale(1 1 )rotate(0 0 0 )" fill="black" stroke-linejoin="round" text-anchor="middle"><text dominant-baseline="baseline" stroke="none" vector-effect="non-scaling-stroke" x="320" y="-6">Day</text></g><g text-anchor="middle" stroke-linecap="round" font-style="normal" transform="translate(80 520 )scale(1 -1 )" font-size="12px" stroke="black" stroke-width="2px" stroke-linejoin="round" font-family="sans-serif" font-weight="bold" dominant-baseline="baseline" fill="black"><path d="M0,44 L-6,44 M0,1.129973e+02 L-6,1.129973e+02 M0,1.819945e+02 L-6,1.819945e+02 M0,2.509918e+02 L-6,2.509918e+02 M0,3.199891e+02 L-6,3.199891e+02 M0,3.889863e+02 L-6,3.889863e+02 " vector-effect="non-scaling-stroke"/></g><g font-style="normal" fill="black" stroke="black" stroke-width="2px" dominant-baseline="middle" stroke-linecap="round" transform="translate(80 520 )scale(1 1 )" stroke-linejoin="round" font-size="12px" font-weight="normal" text-anchor="end" font-family="sans-serif"><text stroke="none" vector-effect="non-scaling-stroke" x="-10" y="-44" dominant-baseline="middle">0s</text><text stroke="none" vector-effect="non-scaling-stroke" x="-10" y="-1.129973e+02" dominant-baseline="middle">100ms</text><text stroke="none" vector-effect="non-scaling-stroke" x="-10" y="-1.819945e+02" dominant-baseline="middle">200ms</text><text stroke="none" vector-effect="non-scaling-stroke" x="-10" y="-2.509918e+02" dominant-baseline="middle">300ms</text><text stroke="none" vector-effect="non-scaling-stroke" x="-10" y="-3.199891e+02" dominant-baseline="middle">400ms</text><text y="-3.889863e+02" dominant-baseline="middle" stroke="none" vector-effect="non-scaling-stroke" x="-10">500ms</text></g><g transform="translate(80 520 )scale(1 1 )rotate(-90 0 0 )" dominant-baseline="hanging" stroke="black" stroke-width="2px" stroke-linejoin="round" stroke-linecap="round" font-family="sans-serif" font-style="normal" text-anchor="middle" fill="black" font-size="12px" font-weight="bold"><text dominant-baseline="hanging" stroke="none" vector-effect="non-scaling-stroke" x="220" y="6">Runtime</text></g></g></g></g></g></svg>