<svg preserveAspectRatio="xMidYMid meet" xmlns="http://www.w3.org/2000/svg" width="800" height="600" viewbox="0 0 800 600"><defs><marker id="circle" viewBox="0 0 10 10 " refX="5" refY="5" markerUnits="userSpaceOnUse" markerWidth="2%" markerHeight="2%"><circle cx="5" cy="5" r="3" fill="none" stroke="black"/></marker><marker refX="5" refY="5" markerUnits="userSpaceOnUse" markerWidth="2%" markerHeight="2%" id="filled-circle" viewBox="0 0 10 10 "><circle stroke="none" cx="5" cy="5" r="3" fill="black"/></marker><marker markerUnits="userSpaceOnUse" markerWidth="2%" markerHeight="2%" id="square" viewBox="0 0 10 10 " refX="5" refY="5"><rect width="6" height="6" fill="none" stroke="black" x="2" y="2"/></marker><marker refY="5" markerUnits="userSpaceOnUse" markerWidth="2%" markerHeight="2%" id="filled-square" viewBox="0 0 10 10 " refX="5"><rect x="2" y="2" width="6" height="6" fill="black" stroke="none"/></marker></defs><g stroke-linejoin="round" transform="translate(80 520 )scale(1 -1 )" fill="hsl(198, 47%, 65%)" stroke="hsl(198, 47%, 65%)" stroke-width="1px" stroke-linecap="round"><rect vector-effect="non-scaling-stroke" x="5.546667e+01" y="0" width="4.266667e+00" height="4.400651e+01"/></g><g stroke-linecap="round" stroke-linejoin="round" transform="translate(80 520 )scale(1 -1 )" fill="hsl(49, 88%, 65%)" stroke="hsl(49, 88%, 65%)" stroke-width="1px"><rect x="5.973333e+01" y="0" width="4.266667e+00" height="4.400241e+01" vector-effect="non-scaling-stroke"/><rect vector-effect="non-scaling-stroke" x="8.106667e+01" y="0" width="4.266667e+00" height="4.400484e+01"/><rect vector-effect="non-scaling-stroke" x="1.024000e+02" y="0" width="4.266667e+00" height="4.409664e+01"/><rect x="1.237333e+02" y="0" width="4.266667e+00" height="2.097016e+02" vector-effect="non-scaling-stroke"/><rect width="4.266667e+00" height="4.405029e+01" vector-effect="non-scaling-stroke" x="1.450667e+02" y="0"/><rect height="5.535243e+01" vector-effect="non-scaling-stroke" x="1.664000e+02" y="0" width="4.266667e+00"/><rect vector-effect="non-scaling-stroke" x="1.877333e+02" y="0" width="4.266667e+00" height="4.404342e+01"/><rect vector-effect="non-scaling-stroke" x="2.090667e+02" y="0" width="4.266667e+00" height="4.400136e+01"/><rect vector-effect="non-scaling-stroke" x="2.304000e+02" y="0" width="4.266667e+00" height="4.622952e+01"/><rect x="2.517333e+02" y="0" width="4.266667e+00" height="5.460722e+01" vector-effect="non-scaling-stroke"/><rect x="2.730667e+02" y="0" width="4.266667e+00" height="4.871157e+01" vector-effect="non-scaling-stroke"/><rect vector-effect="non-scaling-stroke" x="2.944000e+02" y="0" width="4.266667e+00" height="4.415016e+01"/><rect y="0" width="4.266667e+00" height="5.833423e+01" vector-effect="non-scaling-stroke" x="3.157333e+02"/><rect x="3.370667e+02" y="0" width="4.266667e+00" height="4.407651e+01" vector-effect="non-scaling-stroke"/><rect width="4.266667e+00" height="5.385255e+01" vector-effect="non-scaling-stroke" x="3.584000e+02" y="0"/><rect vector-effect="non-scaling-stroke" x="3.797333e+02" y="0" width="4.266667e+00" height="4.408905e+01"/><rect y="0" width="4.266667e+00" height="5.494052e+01" vector-effect="non-scaling-stroke" x="4.010667e+02"/><rect y="0" width="4.266667e+00" height="5.243810e+01" vector-effect="non-scaling-stroke" x="4.224000e+02"/><rect vector-effect="non-scaling-stroke" x="4.437333e+02" y="0" width="4.266667e+00" height="4.409594e+01"/><rect vector-effect="non-scaling-stroke" x="4.650667e+02" y="0" width="4.266667e+00" height="6.740130e+02"/><rect vector-effect="non-scaling-stroke" x="4.864000e+02" y="0" width="4.266667e+00" height="4.407346e+01"/><rect x="5.077333e+02" y="0" width="4.266667e+00" height="1.244924e+02" vector-effect="non-scaling-stroke"/><rect y="0" width="4.266667e+00" height="4.400394e+01" vector-effect="non-scaling-stroke" x="5.290667e+02"/><rect width="4.266667e+00" height="6.975917e+01" vector-effect="non-scaling-stroke" x="5.504000e+02" y="0"/><rect width="4.266667e+00" height="4.400157e+01" vector-effect="non-scaling-stroke" x="5.717333e+02" y="0"/></g><g stroke="hsl(260, 76%, 65%)" stroke-width="1px" stroke-linecap="round" stroke-linejoin="round" transform="translate(80 520 )scale(1 -1 )" fill="hsl(260, 76%, 65%)"><rect width="4.266667e+00" height="4.400172e+01" vector-effect="non-scaling-stroke" x="6.400000e+01" y="0"/><rect height="4.400845e+01" vector-effect="non-scaling-stroke" x="8.533333e+01" y="0" width="4.266667e+00"/><rect x="1.066667e+02" y="0" width="4.266667e+00" height="4.407210e+01" vector-effect="non-scaling-stroke"/><rect x="1.280000e+02" y="0" width="4.266667e+00" height="3.057323e+02" vector-effect="non-scaling-stroke"/><rect x="1.493333e+02" y="0" width="4.266667e+00" height="4.403902e+01" vector-effect="non-scaling-stroke"/><rect x="1.706667e+02" y="0" width="4.266667e+00" height="5.118205e+01" vector-effect="non-scaling-stroke"/><rect vector-effect="non-scaling-stroke" x="192" y="0" width="4.266667e+00" height="4.404153e+01"/><rect vector-effect="non-scaling-stroke" x="2.133333e+02" y="0" width="4.266667e+00" height="4.400609e+01"/><rect x="2.346667e+02" y="0" width="4.266667e+00" height="4.482146e+01" vector-effect="non-scaling-stroke"/><rect x="256" y="0" width="4.266667e+00" height="1.544326e+02" vector-effect="non-scaling-stroke"/><rect x="2.773333e+02" y="0" width="4.266667e+00" height="5.276943e+01" vector-effect="non-scaling-stroke"/><rect width="4.266667e+00" height="4.405557e+01" vector-effect="non-scaling-stroke" x="2.986667e+02" y="0"/><rect height="5.432232e+01" vector-effect="non-scaling-stroke" x="320" y="0" width="4.266667e+00"/><rect y="0" width="4.266667e+00" height="4.407106e+01" vector-effect="non-scaling-stroke" x="3.413333e+02"/><rect height="5.188261e+01" vector-effect="non-scaling-stroke" x="3.626667e+02" y="0" width="4.266667e+00"/><rect x="384" y="0" width="4.266667e+00" height="4.404878e+01" vector-effect="non-scaling-stroke"/><rect x="4.053333e+02" y="0" width="4.266667e+00" height="4.981203e+01" vector-effect="non-scaling-stroke"/><rect vector-effect="non-scaling-stroke" x="4.266667e+02" y="0" width="4.266667e+00" height="4.608340e+01"/><rect height="4.420146e+01" vector-effect="non-scaling-stroke" x="448" y="0" width="4.266667e+00"/><rect y="0" width="4.266667e+00" height="2.668616e+02" vector-effect="non-scaling-stroke" x="4.693333e+02"/><rect y="0" width="4.266667e+00" height="4.400520e+01" vector-effect="non-scaling-stroke" x="4.906667e+02"/><rect height="1.256208e+02" vector-effect="non-scaling-stroke" x="512" y="0" width="4.266667e+00"/><rect x="5.333333e+02" y="0" width="4.266667e+00" height="4.400109e+01" vector-effect="non-scaling-stroke"/><rect height="4.530881e+01" vector-effect="non-scaling-stroke" x="5.546667e+02" y="0" width="4.266667e+00"/><rect x="576" y="0" width="4.266667e+00" height="4.400004e+01" vector-effect="non-scaling-stroke"/></g><g stroke="hsl(111, 64%, 65%)" stroke-width="1px" stroke-linecap="round" stroke-linejoin="round" transform="translate(80 520 )scale(1 -1 )" fill="hsl(111, 64%, 65%)"><rect width="4.266667e+00" height="4.400072e+01" vector-effect="non-scaling-stroke" x="6.826667e+01" y="0"/><rect vector-effect="non-scaling-stroke" x="8.960000e+01" y="0" width="4.266667e+00" height="4.400079e+01"/><rect vector-effect="non-scaling-stroke" x="1.109333e+02" y="0" width="4.266667e+00" height="4.408075e+01"/><rect x="1.322667e+02" y="0" width="4.266667e+00" height="2.131598e+02" vector-effect="non-scaling-stroke"/><rect width="4.266667e+00" height="4.401734e+01" vector-effect="non-scaling-stroke" x="1.536000e+02" y="0"/><rect width="4.266667e+00" height="4.637090e+01" vector-effect="non-scaling-stroke" x="1.749333e+02" y="0"/><rect vector-effect="non-scaling-stroke" x="1.962667e+02" y="0" width="4.266667e+00" height="4.400714e+01"/><rect x="2.176000e+02" y="0" width="4.266667e+00" height="4.400069e+01" vector-effect="non-scaling-stroke"/><rect y="0" width="4.266667e+00" height="4.412485e+01" vector-effect="non-scaling-stroke" x="2.389333e+02"/><rect y="0" width="4.266667e+00" height="4.968740e+01" vector-effect="non-scaling-stroke" x="2.602667e+02"/><rect x="2.816000e+02" y="0" width="4.266667e+00" height="4.454312e+01" vector-effect="non-scaling-stroke"/><rect vector-effect="non-scaling-stroke" x="3.029333e+02" y="0" width="4.266667e+00" height="4.400890e+01"/><rect y="0" width="4.266667e+00" height="4.454875e+01" vector-effect="non-scaling-stroke" x="3.242667e+02"/><rect height="4.400796e+01" vector-effect="non-scaling-stroke" x="3.456000e+02" y="0" width="4.266667e+00"/><rect x="3.669333e+02" y="0" width="4.266667e+00" height="4.407535e+01" vector-effect="non-scaling-stroke"/><rect x="3.882667e+02" y="0" width="4.266667e+00" height="4.400147e+01" vector-effect="non-scaling-stroke"/><rect y="0" width="4.266667e+00" height="4.438746e+01" vector-effect="non-scaling-stroke" x="4.096000e+02"/><rect vector-effect="non-scaling-stroke" x="4.309333e+02" y="0" width="4.266667e+00" height="4.662801e+01"/><rect y="0" width="4.266667e+00" height="4.444891e+01" vector-effect="non-scaling-stroke" x="4.522667e+02"/><rect vector-effect="non-scaling-stroke" x="4.736000e+02" y="0" width="4.266667e+00" height="5.930489e+02"/><rect width="4.266667e+00" height="4.400070e+01" vector-effect="non-scaling-stroke" x="4.949333e+02" y="0"/><rect height="4.546109e+01" vector-effect="non-scaling-stroke" x="5.162667e+02" y="0" width="4.266667e+00"/><rect vector-effect="non-scaling-stroke" x="5.376000e+02" y="0" width="4.266667e+00" height="4.400122e+01"/><rect vector-effect="non-scaling-stroke" x="5.589333e+02" y="0" width="4.266667e+00" height="3.028691e+02"/><rect height="4.400002e+01" vector-effect="non-scaling-stroke" x="5.802667e+02" y="0" width="4.266667e+00"/></g><g dominant-baseline="hanging" stroke="hsl(198, 47%, 65%)" stroke-linejoin="round" fill="hsl(198, 47%, 65%)" font-family="sans-serif" font-size="12px" font-style="normal" stroke-width="1px" stroke-linecap="round" font-weight="normal" text-anchor="start"><rect vector-effect="non-scaling-stroke" x="736" y="448" width="12" height="12"/><g fill="black" stroke="black"><text stroke="none" vector-effect="non-scaling-stroke" x="752" y="448" dominant-baseline="hanging">Crystal</text></g><g stroke-linejoin="round" fill="hsl(49, 88%, 65%)" font-family="sans-serif" font-size="12px" font-style="normal" font-weight="normal" text-anchor="start" dominant-baseline="hanging" stroke="hsl(49, 88%, 65%)" stroke-width="1px" stroke-linecap="round"><rect y="466" width="12" height="12" vector-effect="non-scaling-stroke" x="736"/><g stroke="black" fill="black"><text x="752" y="466" dominant-baseline="hanging" stroke="none" vector-effect="non-scaling-stroke">Golang</text></g><g font-style="normal" font-weight="normal" text-anchor="start" dominant-baseline="hanging" stroke="hsl(260, 76%, 65%)" stroke-linejoin="round" font-family="sans-serif" stroke-width="1px" stroke-linecap="round" fill="hsl(260, 76%, 65%)" font-size="12px"><rect vector-effect="non-scaling-stroke" x="736" y="484" width="12" height="12"/><g fill="black" stroke="black"><text stroke="none" vector-effect="non-scaling-stroke" x="752" y="484" dominant-baseline="hanging">Rust</text></g><g font-weight="normal" text-anchor="start" stroke-linecap="round" stroke-linejoin="round" font-family="sans-serif" font-size="12px" font-style="normal" dominant-baseline="hanging" stroke="hsl(111, 64%, 65%)" stroke-width="1px" fill="hsl(111, 64%, 65%)"><rect width="12" height="12" vector-effect="non-scaling-stroke" x="736" y="502"/><g fill="black" stroke="black"><text stroke="none" vector-effect="non-scaling-stroke" x="752" y="502" dominant-baseline="hanging">Zig</text><g text-anchor="start" dominant-baseline="hanging" stroke-width="2px" fill="none" stroke-linecap="round" stroke-linejoin="round" font-family="sans-serif" font-size="12px" font-style="normal" font-weight="normal"><rect height="440" vector-effect="non-scaling-stroke" x="80" y="80" width="640"/></g><g transform="translate(80 520 )scale(1 -1 )" stroke="black" stroke-width="2px" stroke-linejoin="round" fill="none" font-size="12px" dominant-baseline="hanging" stroke-linecap="round" font-family="sans-serif" font-style="normal" font-weight="normal" text-anchor="start"><path vector-effect="non-scaling-stroke" d="M64,0 L64,-6 "/></g><g text-anchor="middle" stroke="black" stroke-linecap="round" stroke-linejoin="round" fill="black" font-family="sans-serif" font-weight="normal" dominant-baseline="hanging" transform="translate(80 520 )scale(1 1 )" stroke-width="2px" font-size="12px" font-style="normal"><text stroke="none" vector-effect="non-scaling-stroke" x="64" y="10" dominant-baseline="hanging">1</text></g><g stroke-linecap="round" stroke-linejoin="round" fill="black" font-family="sans-serif" font-style="normal" text-anchor="middle" dominant-baseline="baseline" stroke="black" stroke-width="2px" font-size="12px" font-weight="bold" transform="translate(80 520 )scale(1 1 )rotate(0 0 0 )"><text y="-6" dominant-baseline="baseline" stroke="none" vector-effect="non-scaling-stroke" x="320">Day</text></g><g fill="black" font-size="12px" font-style="normal" font-weight="bold" text-anchor="middle" dominant-baseline="baseline" transform="translate(80 520 )scale(1 -1 )" stroke="black" font-family="sans-serif" stroke-width="2px" stroke-linecap="round" stroke-linejoin="round"><path vector-effect="non-scaling-stroke" d="M0,44 L-6,44 M0,7.920000e+01 L-6,7.920000e+01 M0,1.144000e+02 L-6,1.144000e+02 M0,1.496000e+02 L-6,1.496000e+02 M0,1.848000e+02 L-6,1.848000e+02 M0,220 L-6,220 M0,2.552000e+02 L-6,2.552000e+02 M0,2.904000e+02 L-6,2.904000e+02 M0,3.256000e+02 L-6,3.256000e+02 M0,3.608000e+02 L-6,3.608000e+02 M0,396 L-6,396 "/></g><g text-anchor="end" dominant-baseline="middle" transform="translate(80 520 )scale(1 1 )" stroke="black" stroke-width="2px" stroke-linecap="round" stroke-linejoin="round" fill="black" font-weight="normal" font-family="sans-serif" font-size="12px" font-style="normal"><text dominant-baseline="middle" stroke="none" vector-effect="non-scaling-stroke" x="-10" y="-44">0s</text><text vector-effect="non-scaling-stroke" x="-10" y="-7.920000e+01" dominant-baseline="middle" stroke="none">200ms</text><text stroke="none" vector-effect="non-scaling-stroke" x="-10" y="-1.144000e+02" dominant-baseline="middle">400ms</text><text y="-1.496000e+02" dominant-baseline="middle" stroke="none" vector-effect="non-scaling-stroke" x="-10">600ms</text><text stroke="none" vector-effect="non-scaling-stroke" x="-10" y="-1.848000e+02" dominant-baseline="middle">800ms</text><text dominant-baseline="middle" stroke="none" vector-effect="non-scaling-stroke" x="-10" y="-220">1s</text><text stroke="none" vector-effect="non-scaling-stroke" x="-10" y="-2.552000e+02" dominant-baseline="middle">1.2s</text><text y="-2.904000e+02" dominant-baseline="middle" stroke="none" vector-effect="non-scaling-stroke" x="-10">1.4s</text><text x="-10" y="-3.256000e+02" dominant-baseline="middle" stroke="none" vector-effect="non-scaling-stroke">1.6s</text><text x="-10" y="-3.608000e+02" dominant-baseline="middle" stroke="none" vector-effect="non-scaling-stroke">1.8s</text><text stroke="none" vector-effect="non-scaling-stroke" x="-10" y="-396" dominant-baseline="middle">2s</text></g><g stroke-width="2px" stroke-linecap="round" stroke-linejoin="round" fill="black" font-family="sans-serif" font-size="12px" font-style="normal" font-weight="bold" text-anchor="middle" dominant-baseline="hanging" transform="translate(80 520 )scale(1 1 )rotate(-90 0 0 )" stroke="black"><text vector-effect="non-scaling-stroke" x="220" y="6" dominant-baseline="hanging" stroke="none">Runtime</text></g></g></g></g></g></g></svg>