<svg height="600" viewbox="0 0 800 600" preserveAspectRatio="xMidYMid meet" xmlns="http://www.w3.org/2000/svg" width="800"><defs><marker markerUnits="userSpaceOnUse" markerWidth="2%" markerHeight="2%" id="circle" viewBox="0 0 10 10 " refX="5" refY="5"><circle r="3" fill="none" stroke="black" cx="5" cy="5"/></marker><marker markerWidth="2%" markerHeight="2%" id="filled-circle" viewBox="0 0 10 10 " refX="5" refY="5" markerUnits="userSpaceOnUse"><circle stroke="none" cx="5" cy="5" r="3" fill="black"/></marker><marker markerWidth="2%" markerHeight="2%" id="square" viewBox="0 0 10 10 " refX="5" refY="5" markerUnits="userSpaceOnUse"><rect y="2" width="6" height="6" fill="none" stroke="black" x="2"/></marker><marker refY="5" markerUnits="userSpaceOnUse" markerWidth="2%" markerHeight="2%" id="filled-square" viewBox="0 0 10 10 " refX="5"><rect x="2" y="2" width="6" height="6" fill="black" stroke="none"/></marker></defs><g transform="translate(80 520 )scale(1 -1 )" fill="hsl(198, 47%, 65%)" stroke="hsl(198, 47%, 65%)" stroke-width="1px" stroke-linecap="round" stroke-linejoin="round"><rect width="5.688889e+00" height="4.401184e+01" vector-effect="non-scaling-stroke" x="5.546667e+01" y="0"/></g><g fill="hsl(49, 88%, 65%)" stroke="hsl(49, 88%, 65%)" stroke-width="1px" stroke-linecap="round" stroke-linejoin="round" transform="translate(80 520 )scale(1 -1 )"><rect y="0" width="5.688889e+00" height="4.400509e+01" vector-effect="non-scaling-stroke" x="6.115556e+01"/><rect x="8.248889e+01" y="0" width="5.688889e+00" height="4.413260e+01" vector-effect="non-scaling-stroke"/><rect y="0" width="5.688889e+00" height="4.413039e+01" vector-effect="non-scaling-stroke" x="1.038222e+02"/><rect y="0" width="5.688889e+00" height="2.879621e+02" vector-effect="non-scaling-stroke" x="1.251556e+02"/><rect x="1.464889e+02" y="0" width="5.688889e+00" height="4.409330e+01" vector-effect="non-scaling-stroke"/><rect vector-effect="non-scaling-stroke" x="1.678222e+02" y="0" width="5.688889e+00" height="6.692243e+01"/><rect vector-effect="non-scaling-stroke" x="1.891556e+02" y="0" width="5.688889e+00" height="4.405552e+01"/><rect vector-effect="non-scaling-stroke" x="2.104889e+02" y="0" width="5.688889e+00" height="4.400543e+01"/><rect height="4.665495e+01" vector-effect="non-scaling-stroke" x="2.318222e+02" y="0" width="5.688889e+00"/><rect vector-effect="non-scaling-stroke" x="2.531556e+02" y="0" width="5.688889e+00" height="6.499947e+01"/><rect y="0" width="5.688889e+00" height="5.294009e+01" vector-effect="non-scaling-stroke" x="2.744889e+02"/><rect vector-effect="non-scaling-stroke" x="2.958222e+02" y="0" width="5.688889e+00" height="5.773790e+01"/><rect y="0" width="5.688889e+00" height="6.997441e+01" vector-effect="non-scaling-stroke" x="3.171556e+02"/><rect y="0" width="5.688889e+00" height="4.405365e+01" vector-effect="non-scaling-stroke" x="3.384889e+02"/><rect height="6.209517e+01" vector-effect="non-scaling-stroke" x="3.598222e+02" y="0" width="5.688889e+00"/><rect width="5.688889e+00" height="4.409398e+01" vector-effect="non-scaling-stroke" x="3.811556e+02" y="0"/><rect vector-effect="non-scaling-stroke" x="4.024889e+02" y="0" width="5.688889e+00" height="5.981487e+01"/><rect vector-effect="non-scaling-stroke" x="4.238222e+02" y="0" width="5.688889e+00" height="4.507278e+01"/><rect x="4.451556e+02" y="0" width="5.688889e+00" height="4.406545e+01" vector-effect="non-scaling-stroke"/><rect vector-effect="non-scaling-stroke" x="4.664889e+02" y="0" width="5.688889e+00" height="1.162751e+03"/><rect height="4.411141e+01" vector-effect="non-scaling-stroke" x="4.878222e+02" y="0" width="5.688889e+00"/><rect height="5.312401e+02" vector-effect="non-scaling-stroke" x="5.091556e+02" y="0" width="5.688889e+00"/><rect y="0" width="5.688889e+00" height="4.400800e+01" vector-effect="non-scaling-stroke" x="5.304889e+02"/><rect vector-effect="non-scaling-stroke" x="5.518222e+02" y="0" width="5.688889e+00" height="8.510916e+01"/><rect x="5.731556e+02" y="0" width="5.688889e+00" height="4.400135e+01" vector-effect="non-scaling-stroke"/></g><g fill="hsl(260, 76%, 65%)" stroke="hsl(260, 76%, 65%)" stroke-width="1px" stroke-linecap="round" stroke-linejoin="round" transform="translate(80 520 )scale(1 -1 )"><rect y="0" width="5.688889e+00" height="4.400123e+01" vector-effect="non-scaling-stroke" x="6.684444e+01"/><rect width="5.688889e+00" height="4.401736e+01" vector-effect="non-scaling-stroke" x="8.817778e+01" y="0"/><rect vector-effect="non-scaling-stroke" x="1.095111e+02" y="0" width="5.688889e+00" height="4.416019e+01"/><rect height="3.685338e+02" vector-effect="non-scaling-stroke" x="1.308444e+02" y="0" width="5.688889e+00"/><rect y="0" width="5.688889e+00" height="4.406513e+01" vector-effect="non-scaling-stroke" x="1.521778e+02"/><rect vector-effect="non-scaling-stroke" x="1.735111e+02" y="0" width="5.688889e+00" height="5.355585e+01"/><rect vector-effect="non-scaling-stroke" x="1.948444e+02" y="0" width="5.688889e+00" height="4.406252e+01"/><rect vector-effect="non-scaling-stroke" x="2.161778e+02" y="0" width="5.688889e+00" height="4.401212e+01"/><rect width="5.688889e+00" height="4.550722e+01" vector-effect="non-scaling-stroke" x="2.375111e+02" y="0"/><rect vector-effect="non-scaling-stroke" x="2.588444e+02" y="0" width="5.688889e+00" height="1.804509e+02"/><rect x="2.801778e+02" y="0" width="5.688889e+00" height="5.750803e+01" vector-effect="non-scaling-stroke"/><rect y="0" width="5.688889e+00" height="4.409441e+01" vector-effect="non-scaling-stroke" x="3.015111e+02"/><rect height="7.436076e+01" vector-effect="non-scaling-stroke" x="3.228444e+02" y="0" width="5.688889e+00"/><rect y="0" width="5.688889e+00" height="4.415757e+01" vector-effect="non-scaling-stroke" x="3.441778e+02"/><rect height="5.314767e+01" vector-effect="non-scaling-stroke" x="3.655111e+02" y="0" width="5.688889e+00"/><rect y="0" width="5.688889e+00" height="4.408291e+01" vector-effect="non-scaling-stroke" x="3.868444e+02"/><rect y="0" width="5.688889e+00" height="5.277403e+01" vector-effect="non-scaling-stroke" x="4.081778e+02"/><rect y="0" width="5.688889e+00" height="4.892995e+01" vector-effect="non-scaling-stroke" x="4.295111e+02"/><rect y="0" width="5.688889e+00" height="4.431604e+01" vector-effect="non-scaling-stroke" x="4.508444e+02"/><rect y="0" width="5.688889e+00" height="5.679560e+02" vector-effect="non-scaling-stroke" x="4.721778e+02"/><rect width="5.688889e+00" height="4.400758e+01" vector-effect="non-scaling-stroke" x="4.935111e+02" y="0"/><rect vector-effect="non-scaling-stroke" x="5.148444e+02" y="0" width="5.688889e+00" height="1.730810e+02"/><rect y="0" width="5.688889e+00" height="4.400158e+01" vector-effect="non-scaling-stroke" x="5.361778e+02"/><rect y="0" width="5.688889e+00" height="4.544669e+01" vector-effect="non-scaling-stroke" x="5.575111e+02"/><rect width="5.688889e+00" height="4.400011e+01" vector-effect="non-scaling-stroke" x="5.788444e+02" y="0"/></g><g fill="hsl(198, 47%, 65%)" stroke-linejoin="round" font-style="normal" stroke-linecap="round" stroke-width="1px" font-weight="normal" text-anchor="start" dominant-baseline="hanging" stroke="hsl(198, 47%, 65%)" font-family="sans-serif" font-size="12px"><rect height="12" vector-effect="non-scaling-stroke" x="736" y="466" width="12"/><g fill="black" stroke="black"><text y="466" dominant-baseline="hanging" stroke="none" vector-effect="non-scaling-stroke" x="752">Crystal</text></g><g stroke-width="1px" font-family="sans-serif" font-weight="normal" stroke-linecap="round" dominant-baseline="hanging" text-anchor="start" fill="hsl(49, 88%, 65%)" stroke="hsl(49, 88%, 65%)" font-size="12px" stroke-linejoin="round" font-style="normal"><rect vector-effect="non-scaling-stroke" x="736" y="484" width="12" height="12"/><g fill="black" stroke="black"><text vector-effect="non-scaling-stroke" x="752" y="484" dominant-baseline="hanging" stroke="none">Golang</text></g><g stroke="hsl(260, 76%, 65%)" stroke-width="1px" font-weight="normal" text-anchor="start" stroke-linejoin="round" fill="hsl(260, 76%, 65%)" dominant-baseline="hanging" font-family="sans-serif" font-size="12px" stroke-linecap="round" font-style="normal"><rect vector-effect="non-scaling-stroke" x="736" y="502" width="12" height="12"/><g fill="black" stroke="black"><text x="752" y="502" dominant-baseline="hanging" stroke="none" vector-effect="non-scaling-stroke">Rust</text><g stroke-linejoin="round" font-size="12px" font-style="normal" dominant-baseline="hanging" font-family="sans-serif" stroke-width="2px" fill="none" stroke-linecap="round" font-weight="normal" text-anchor="start"><rect y="80" width="640" height="440" vector-effect="non-scaling-stroke" x="80"/></g><g stroke-width="2px" font-family="sans-serif" font-size="12px" font-weight="normal" stroke-linejoin="round" font-style="normal" stroke="black" text-anchor="start" fill="none" dominant-baseline="hanging" transform="translate(80 520 )scale(1 -1 )" stroke-linecap="round"><path vector-effect="non-scaling-stroke" d="M64,0 L64,-6 "/></g><g stroke-width="2px" font-family="sans-serif" font-weight="normal" stroke="black" font-size="12px" stroke-linecap="round" stroke-linejoin="round" font-style="normal" dominant-baseline="hanging" transform="translate(80 520 )scale(1 1 )" fill="black" text-anchor="middle"><text stroke="none" vector-effect="non-scaling-stroke" x="64" y="10" dominant-baseline="hanging">1</text></g><g font-style="normal" dominant-baseline="baseline" stroke-linejoin="round" font-size="12px" text-anchor="middle" fill="black" stroke="black" stroke-linecap="round" stroke-width="2px" font-family="sans-serif" font-weight="bold" transform="translate(80 520 )scale(1 1 )rotate(0 0 0 )"><text dominant-baseline="baseline" stroke="none" vector-effect="non-scaling-stroke" x="320" y="-6">Day</text></g><g text-anchor="middle" stroke-linejoin="round" font-style="normal" font-weight="bold" stroke="black" stroke-width="2px" font-family="sans-serif" font-size="12px" fill="black" dominant-baseline="baseline" transform="translate(80 520 )scale(1 -1 )" stroke-linecap="round"><path vector-effect="non-scaling-stroke" d="M0,44 L-6,44 M0,7.920000e+01 L-6,7.920000e+01 M0,1.144000e+02 L-6,1.144000e+02 M0,1.496000e+02 L-6,1.496000e+02 M0,1.848000e+02 L-6,1.848000e+02 M0,220 L-6,220 M0,2.552000e+02 L-6,2.552000e+02 M0,2.904000e+02 L-6,2.904000e+02 M0,3.256000e+02 L-6,3.256000e+02 M0,3.608000e+02 L-6,3.608000e+02 M0,396 L-6,396 "/></g><g stroke="black" stroke-width="2px" font-size="12px" stroke-linecap="round" dominant-baseline="middle" transform="translate(80 520 )scale(1 1 )" text-anchor="end" fill="black" font-family="sans-serif" font-weight="normal" stroke-linejoin="round" font-style="normal"><text stroke="none" vector-effect="non-scaling-stroke" x="-10" y="-44" dominant-baseline="middle">0s</text><text x="-10" y="-7.920000e+01" dominant-baseline="middle" stroke="none" vector-effect="non-scaling-stroke">200ms</text><text y="-1.144000e+02" dominant-baseline="middle" stroke="none" vector-effect="non-scaling-stroke" x="-10">400ms</text><text dominant-baseline="middle" stroke="none" vector-effect="non-scaling-stroke" x="-10" y="-1.496000e+02">600ms</text><text x="-10" y="-1.848000e+02" dominant-baseline="middle" stroke="none" vector-effect="non-scaling-stroke">800ms</text><text stroke="none" vector-effect="non-scaling-stroke" x="-10" y="-220" dominant-baseline="middle">1s</text><text x="-10" y="-2.552000e+02" dominant-baseline="middle" stroke="none" vector-effect="non-scaling-stroke">1.2s</text><text stroke="none" vector-effect="non-scaling-stroke" x="-10" y="-2.904000e+02" dominant-baseline="middle">1.4s</text><text stroke="none" vector-effect="non-scaling-stroke" x="-10" y="-3.256000e+02" dominant-baseline="middle">1.6s</text><text vector-effect="non-scaling-stroke" x="-10" y="-3.608000e+02" dominant-baseline="middle" stroke="none">1.8s</text><text stroke="none" vector-effect="non-scaling-stroke" x="-10" y="-396" dominant-baseline="middle">2s</text></g><g stroke-linecap="round" stroke="black" stroke-width="2px" font-weight="bold" fill="black" stroke-linejoin="round" font-style="normal" font-family="sans-serif" font-size="12px" text-anchor="middle" dominant-baseline="hanging" transform="translate(80 520 )scale(1 1 )rotate(-90 0 0 )"><text dominant-baseline="hanging" stroke="none" vector-effect="non-scaling-stroke" x="220" y="6">Runtime</text></g></g></g></g></g></svg>