<svg preserveAspectRatio="xMidYMid meet" xmlns="http://www.w3.org/2000/svg" width="800" height="600" viewbox="0 0 800 600"><defs><marker markerHeight="2%" id="circle" viewBox="0 0 10 10 " refX="5" refY="5" markerUnits="userSpaceOnUse" markerWidth="2%"><circle stroke="black" cx="5" cy="5" r="3" fill="none"/></marker><marker markerWidth="2%" markerHeight="2%" id="filled-circle" viewBox="0 0 10 10 " refX="5" refY="5" markerUnits="userSpaceOnUse"><circle stroke="none" cx="5" cy="5" r="3" fill="black"/></marker><marker refY="5" markerUnits="userSpaceOnUse" markerWidth="2%" markerHeight="2%" id="square" viewBox="0 0 10 10 " refX="5"><rect fill="none" stroke="black" x="2" y="2" width="6" height="6"/></marker><marker refX="5" refY="5" markerUnits="userSpaceOnUse" markerWidth="2%" markerHeight="2%" id="filled-square" viewBox="0 0 10 10 "><rect y="2" width="6" height="6" fill="black" stroke="none" x="2"/></marker></defs><g transform="translate(80 520 )scale(1 -1 )" fill="hsl(198, 47%, 65%)" stroke="hsl(198, 47%, 65%)" stroke-width="1px" stroke-linecap="round" stroke-linejoin="round"><rect x="5.546667e+01" y="0" width="3.413333e+00" height="4.400024e+01" vector-effect="non-scaling-stroke"/><rect vector-effect="non-scaling-stroke" x="7.680000e+01" y="0" width="3.413333e+00" height="4.410564e+01"/><rect y="0" width="3.413333e+00" height="4.843495e+01" vector-effect="non-scaling-stroke" x="9.813333e+01"/><rect height="4.429723e+01" vector-effect="non-scaling-stroke" x="1.194667e+02" y="0" width="3.413333e+00"/><rect x="1.408000e+02" y="0" width="3.413333e+00" height="4.400436e+01" vector-effect="non-scaling-stroke"/><rect vector-effect="non-scaling-stroke" x="1.621333e+02" y="0" width="3.413333e+00" height="4.400039e+01"/><rect height="4.464469e+01" vector-effect="non-scaling-stroke" x="1.834667e+02" y="0" width="3.413333e+00"/><rect vector-effect="non-scaling-stroke" x="2.048000e+02" y="0" width="3.413333e+00" height="4.400521e+01"/><rect x="2.261333e+02" y="0" width="3.413333e+00" height="5.037476e+01" vector-effect="non-scaling-stroke"/><rect vector-effect="non-scaling-stroke" x="2.474667e+02" y="0" width="3.413333e+00" height="4.783011e+01"/><rect vector-effect="non-scaling-stroke" x="2.688000e+02" y="0" width="3.413333e+00" height="4.602192e+01"/><rect height="7.154946e+01" vector-effect="non-scaling-stroke" x="2.901333e+02" y="0" width="3.413333e+00"/><rect width="3.413333e+00" height="5.748413e+01" vector-effect="non-scaling-stroke" x="3.114667e+02" y="0"/><rect width="3.413333e+00" height="4.451795e+01" vector-effect="non-scaling-stroke" x="3.328000e+02" y="0"/><rect vector-effect="non-scaling-stroke" x="3.541333e+02" y="0" width="3.413333e+00" height="4.783742e+01"/><rect y="0" width="3.413333e+00" height="7.218869e+01" vector-effect="non-scaling-stroke" x="3.754667e+02"/><rect x="3.968000e+02" y="0" width="3.413333e+00" height="4.608259e+01" vector-effect="non-scaling-stroke"/><rect height="9.262458e+01" vector-effect="non-scaling-stroke" x="4.394667e+02" y="0" width="3.413333e+00"/><rect y="0" width="3.413333e+00" height="9.256104e+01" vector-effect="non-scaling-stroke" x="4.608000e+02"/><rect vector-effect="non-scaling-stroke" x="4.821333e+02" y="0" width="3.413333e+00" height="5.417042e+01"/><rect width="3.413333e+00" height="4.400037e+01" vector-effect="non-scaling-stroke" x="5.034667e+02" y="0"/><rect height="5.005348e+01" vector-effect="non-scaling-stroke" x="5.248000e+02" y="0" width="3.413333e+00"/><rect height="4.772411e+01" vector-effect="non-scaling-stroke" x="5.461333e+02" y="0" width="3.413333e+00"/><rect vector-effect="non-scaling-stroke" x="5.674667e+02" y="0" width="3.413333e+00" height="1.892715e+02"/></g><g stroke-width="1px" stroke-linecap="round" stroke-linejoin="round" transform="translate(80 520 )scale(1 -1 )" fill="hsl(49, 88%, 65%)" stroke="hsl(49, 88%, 65%)"><rect x="5.888000e+01" y="0" width="3.413333e+00" height="4.400160e+01" vector-effect="non-scaling-stroke"/><rect vector-effect="non-scaling-stroke" x="8.021333e+01" y="0" width="3.413333e+00" height="4.452255e+01"/><rect width="3.413333e+00" height="4.643943e+01" vector-effect="non-scaling-stroke" x="1.015467e+02" y="0"/><rect x="1.228800e+02" y="0" width="3.413333e+00" height="4.828531e+01" vector-effect="non-scaling-stroke"/><rect width="3.413333e+00" height="4.400817e+01" vector-effect="non-scaling-stroke" x="1.442133e+02" y="0"/><rect vector-effect="non-scaling-stroke" x="1.655467e+02" y="0" width="3.413333e+00" height="4.448840e+01"/><rect vector-effect="non-scaling-stroke" x="1.868800e+02" y="0" width="3.413333e+00" height="4.492234e+01"/><rect height="4.402409e+01" vector-effect="non-scaling-stroke" x="2.082133e+02" y="0" width="3.413333e+00"/><rect width="3.413333e+00" height="5.297217e+01" vector-effect="non-scaling-stroke" x="2.295467e+02" y="0"/><rect y="0" width="3.413333e+00" height="4.542406e+01" vector-effect="non-scaling-stroke" x="2.508800e+02"/><rect x="2.722133e+02" y="0" width="3.413333e+00" height="4.599523e+01" vector-effect="non-scaling-stroke"/><rect width="3.413333e+00" height="6.540043e+01" vector-effect="non-scaling-stroke" x="2.935467e+02" y="0"/><rect height="6.139180e+01" vector-effect="non-scaling-stroke" x="3.148800e+02" y="0" width="3.413333e+00"/><rect y="0" width="3.413333e+00" height="4.502342e+01" vector-effect="non-scaling-stroke" x="3.362133e+02"/><rect x="3.575467e+02" y="0" width="3.413333e+00" height="4.920817e+01" vector-effect="non-scaling-stroke"/><rect x="3.788800e+02" y="0" width="3.413333e+00" height="8.461365e+01" vector-effect="non-scaling-stroke"/><rect height="4.648353e+01" vector-effect="non-scaling-stroke" x="4.002133e+02" y="0" width="3.413333e+00"/><rect width="3.413333e+00" height="1.672193e+03" vector-effect="non-scaling-stroke" x="4.215467e+02" y="0"/><rect vector-effect="non-scaling-stroke" x="4.428800e+02" y="0" width="3.413333e+00" height="9.237446e+01"/><rect width="3.413333e+00" height="8.554862e+01" vector-effect="non-scaling-stroke" x="4.642133e+02" y="0"/><rect height="5.638581e+01" vector-effect="non-scaling-stroke" x="4.855467e+02" y="0" width="3.413333e+00"/><rect vector-effect="non-scaling-stroke" x="5.068800e+02" y="0" width="3.413333e+00" height="4.401620e+01"/><rect vector-effect="non-scaling-stroke" x="5.282133e+02" y="0" width="3.413333e+00" height="5.008903e+01"/><rect height="4.995377e+01" vector-effect="non-scaling-stroke" x="5.495467e+02" y="0" width="3.413333e+00"/><rect vector-effect="non-scaling-stroke" x="5.708800e+02" y="0" width="3.413333e+00" height="2.965812e+02"/></g><g stroke-linecap="round" stroke-linejoin="round" transform="translate(80 520 )scale(1 -1 )" fill="hsl(260, 76%, 65%)" stroke="hsl(260, 76%, 65%)" stroke-width="1px"><rect width="3.413333e+00" height="4.400096e+01" vector-effect="non-scaling-stroke" x="6.229333e+01" y="0"/><rect vector-effect="non-scaling-stroke" x="8.362667e+01" y="0" width="3.413333e+00" height="4.485743e+01"/><rect width="3.413333e+00" height="4.524482e+01" vector-effect="non-scaling-stroke" x="1.049600e+02" y="0"/><rect x="1.262933e+02" y="0" width="3.413333e+00" height="4.420153e+01" vector-effect="non-scaling-stroke"/><rect vector-effect="non-scaling-stroke" x="1.476267e+02" y="0" width="3.413333e+00" height="4.401036e+01"/><rect vector-effect="non-scaling-stroke" x="1.689600e+02" y="0" width="3.413333e+00" height="4.960097e+01"/><rect y="0" width="3.413333e+00" height="4.461279e+01" vector-effect="non-scaling-stroke" x="1.902933e+02"/><rect height="4.402983e+01" vector-effect="non-scaling-stroke" x="2.116267e+02" y="0" width="3.413333e+00"/><rect y="0" width="3.413333e+00" height="4.449311e+01" vector-effect="non-scaling-stroke" x="2.329600e+02"/><rect x="2.542933e+02" y="0" width="3.413333e+00" height="4.665952e+01" vector-effect="non-scaling-stroke"/><rect vector-effect="non-scaling-stroke" x="2.756267e+02" y="0" width="3.413333e+00" height="4.451892e+01"/><rect y="0" width="3.413333e+00" height="4.570981e+01" vector-effect="non-scaling-stroke" x="2.969600e+02"/><rect x="3.182933e+02" y="0" width="3.413333e+00" height="4.560734e+01" vector-effect="non-scaling-stroke"/><rect y="0" width="3.413333e+00" height="4.507032e+01" vector-effect="non-scaling-stroke" x="3.396267e+02"/><rect width="3.413333e+00" height="4.743835e+01" vector-effect="non-scaling-stroke" x="3.609600e+02" y="0"/><rect height="7.556434e+01" vector-effect="non-scaling-stroke" x="3.822933e+02" y="0" width="3.413333e+00"/><rect vector-effect="non-scaling-stroke" x="4.036267e+02" y="0" width="3.413333e+00" height="4.419495e+01"/><rect vector-effect="non-scaling-stroke" x="4.249600e+02" y="0" width="3.413333e+00" height="1.294072e+02"/><rect vector-effect="non-scaling-stroke" x="4.462933e+02" y="0" width="3.413333e+00" height="5.874068e+01"/><rect width="3.413333e+00" height="5.430312e+01" vector-effect="non-scaling-stroke" x="4.676267e+02" y="0"/><rect vector-effect="non-scaling-stroke" x="4.889600e+02" y="0" width="3.413333e+00" height="4.484129e+01"/><rect height="4.403714e+01" vector-effect="non-scaling-stroke" x="5.102933e+02" y="0" width="3.413333e+00"/><rect height="4.529260e+01" vector-effect="non-scaling-stroke" x="5.316267e+02" y="0" width="3.413333e+00"/><rect height="8.364251e+01" vector-effect="non-scaling-stroke" x="5.529600e+02" y="0" width="3.413333e+00"/><rect vector-effect="non-scaling-stroke" x="5.742933e+02" y="0" width="3.413333e+00" height="5.893277e+01"/></g><g stroke="hsl(111, 64%, 65%)" stroke-width="1px" stroke-linecap="round" stroke-linejoin="round" transform="translate(80 520 )scale(1 -1 )" fill="hsl(111, 64%, 65%)"><rect width="3.413333e+00" height="4.400015e+01" vector-effect="non-scaling-stroke" x="6.570667e+01" y="0"/><rect height="4.439247e+01" vector-effect="non-scaling-stroke" x="8.704000e+01" y="0" width="3.413333e+00"/><rect height="4.400623e+01" vector-effect="non-scaling-stroke" x="1.083733e+02" y="0" width="3.413333e+00"/><rect vector-effect="non-scaling-stroke" x="1.297067e+02" y="0" width="3.413333e+00" height="4.410411e+01"/><rect x="1.510400e+02" y="0" width="3.413333e+00" height="4.400052e+01" vector-effect="non-scaling-stroke"/><rect x="1.723733e+02" y="0" width="3.413333e+00" height="4.402429e+01" vector-effect="non-scaling-stroke"/><rect width="3.413333e+00" height="4.409003e+01" vector-effect="non-scaling-stroke" x="1.937067e+02" y="0"/><rect vector-effect="non-scaling-stroke" x="2.150400e+02" y="0" width="3.413333e+00" height="4.400338e+01"/><rect height="4.431369e+01" vector-effect="non-scaling-stroke" x="2.363733e+02" y="0" width="3.413333e+00"/><rect width="3.413333e+00" height="4.419451e+01" vector-effect="non-scaling-stroke" x="2.577067e+02" y="0"/><rect height="4.408759e+01" vector-effect="non-scaling-stroke" x="2.790400e+02" y="0" width="3.413333e+00"/><rect y="0" width="3.413333e+00" height="4.462379e+01" vector-effect="non-scaling-stroke" x="3.003733e+02"/><rect height="4.400113e+01" vector-effect="non-scaling-stroke" x="3.217067e+02" y="0" width="3.413333e+00"/><rect x="3.430400e+02" y="0" width="3.413333e+00" height="4.437569e+01" vector-effect="non-scaling-stroke"/><rect height="4.400163e+01" vector-effect="non-scaling-stroke" x="3.643733e+02" y="0" width="3.413333e+00"/><rect width="3.413333e+00" height="6.680134e+01" vector-effect="non-scaling-stroke" x="3.857067e+02" y="0"/><rect vector-effect="non-scaling-stroke" x="4.070400e+02" y="0" width="3.413333e+00" height="4.400092e+01"/><rect vector-effect="non-scaling-stroke" x="4.283733e+02" y="0" width="3.413333e+00" height="6.765630e+01"/><rect x="4.497067e+02" y="0" width="3.413333e+00" height="4.400109e+01" vector-effect="non-scaling-stroke"/><rect vector-effect="non-scaling-stroke" x="4.710400e+02" y="0" width="3.413333e+00" height="4.495331e+01"/><rect height="4.400091e+01" vector-effect="non-scaling-stroke" x="4.923733e+02" y="0" width="3.413333e+00"/><rect y="0" width="3.413333e+00" height="4.400051e+01" vector-effect="non-scaling-stroke" x="5.137067e+02"/><rect height="4.400167e+01" vector-effect="non-scaling-stroke" x="5.350400e+02" y="0" width="3.413333e+00"/><rect vector-effect="non-scaling-stroke" x="5.563733e+02" y="0" width="3.413333e+00" height="4.474824e+01"/><rect height="4.400214e+01" vector-effect="non-scaling-stroke" x="5.777067e+02" y="0" width="3.413333e+00"/></g><g stroke-linecap="round" stroke-linejoin="round" transform="translate(80 520 )scale(1 -1 )" fill="hsl(322, 52%, 65%)" stroke="hsl(322, 52%, 65%)" stroke-width="1px"><rect vector-effect="non-scaling-stroke" x="6.912000e+01" y="0" width="3.413333e+00" height="4.400017e+01"/><rect y="0" width="3.413333e+00" height="4.400099e+01" vector-effect="non-scaling-stroke" x="9.045333e+01"/><rect y="0" width="3.413333e+00" height="4.400612e+01" vector-effect="non-scaling-stroke" x="1.117867e+02"/><rect width="3.413333e+00" height="4.400025e+01" vector-effect="non-scaling-stroke" x="1.331200e+02" y="0"/><rect width="3.413333e+00" height="4.400053e+01" vector-effect="non-scaling-stroke" x="1.544533e+02" y="0"/><rect y="0" width="3.413333e+00" height="4.400426e+01" vector-effect="non-scaling-stroke" x="1.757867e+02"/><rect vector-effect="non-scaling-stroke" x="1.971200e+02" y="0" width="3.413333e+00" height="4.400139e+01"/><rect y="0" width="3.413333e+00" height="4.400273e+01" vector-effect="non-scaling-stroke" x="2.184533e+02"/><rect height="4.400064e+01" vector-effect="non-scaling-stroke" x="2.397867e+02" y="0" width="3.413333e+00"/><rect vector-effect="non-scaling-stroke" x="2.611200e+02" y="0" width="3.413333e+00" height="4.418178e+01"/><rect vector-effect="non-scaling-stroke" x="2.824533e+02" y="0" width="3.413333e+00" height="4.404077e+01"/><rect width="3.413333e+00" height="4.460721e+01" vector-effect="non-scaling-stroke" x="3.037867e+02" y="0"/><rect vector-effect="non-scaling-stroke" x="3.251200e+02" y="0" width="3.413333e+00" height="4.400081e+01"/></g><g stroke="hsl(198, 47%, 65%)" stroke-width="1px" font-family="sans-serif" dominant-baseline="hanging" fill="hsl(198, 47%, 65%)" stroke-linecap="round" font-size="12px" stroke-linejoin="round" font-style="normal" font-weight="normal" text-anchor="start"><rect vector-effect="non-scaling-stroke" x="736" y="430" width="12" height="12"/><g fill="black" stroke="black"><text vector-effect="non-scaling-stroke" x="752" y="430" dominant-baseline="hanging" stroke="none">C++</text></g><g font-style="normal" font-weight="normal" stroke-width="1px" font-size="12px" stroke-linejoin="round" font-family="sans-serif" fill="hsl(49, 88%, 65%)" stroke="hsl(49, 88%, 65%)" stroke-linecap="round" text-anchor="start" dominant-baseline="hanging"><rect vector-effect="non-scaling-stroke" x="736" y="448" width="12" height="12"/><g stroke="black" fill="black"><text x="752" y="448" dominant-baseline="hanging" stroke="none" vector-effect="non-scaling-stroke">Crystal</text></g><g dominant-baseline="hanging" font-family="sans-serif" stroke-width="1px" font-size="12px" text-anchor="start" fill="hsl(260, 76%, 65%)" stroke-linecap="round" stroke-linejoin="round" font-style="normal" stroke="hsl(260, 76%, 65%)" font-weight="normal"><rect height="12" vector-effect="non-scaling-stroke" x="736" y="466" width="12"/><g fill="black" stroke="black"><text y="466" dominant-baseline="hanging" stroke="none" vector-effect="non-scaling-stroke" x="752">Golang</text></g><g stroke-linecap="round" stroke-linejoin="round" stroke="hsl(111, 64%, 65%)" font-size="12px" font-family="sans-serif" font-style="normal" dominant-baseline="hanging" fill="hsl(111, 64%, 65%)" stroke-width="1px" font-weight="normal" text-anchor="start"><rect y="484" width="12" height="12" vector-effect="non-scaling-stroke" x="736"/><g fill="black" stroke="black"><text x="752" y="484" dominant-baseline="hanging" stroke="none" vector-effect="non-scaling-stroke">Rust</text></g><g font-family="sans-serif" font-style="normal" text-anchor="start" fill="hsl(322, 52%, 65%)" stroke-width="1px" stroke-linejoin="round" font-weight="normal" dominant-baseline="hanging" stroke-linecap="round" font-size="12px" stroke="hsl(322, 52%, 65%)"><rect vector-effect="non-scaling-stroke" x="736" y="502" width="12" height="12"/><g fill="black" stroke="black"><text y="502" dominant-baseline="hanging" stroke="none" vector-effect="non-scaling-stroke" x="752">Zig</text><g text-anchor="start" stroke-linecap="round" stroke-width="2px" font-size="12px" font-family="sans-serif" font-weight="normal" font-style="normal" dominant-baseline="hanging" fill="none" stroke-linejoin="round"><rect y="80" width="640" height="440" vector-effect="non-scaling-stroke" x="80"/></g><g stroke="black" font-family="sans-serif" dominant-baseline="hanging" transform="translate(80 520 )scale(1 -1 )" text-anchor="start" stroke-width="2px" font-size="12px" fill="none" stroke-linecap="round" stroke-linejoin="round" font-style="normal" font-weight="normal"><path d="M64,0 L64,-6 M8.533333e+01,0 L8.533333e+01,-6 M1.066667e+02,0 L1.066667e+02,-6 M128,0 L128,-6 M1.493333e+02,0 L1.493333e+02,-6 M1.706667e+02,0 L1.706667e+02,-6 M192,0 L192,-6 M2.133333e+02,0 L2.133333e+02,-6 M2.346667e+02,0 L2.346667e+02,-6 M256,0 L256,-6 M2.773333e+02,0 L2.773333e+02,-6 M2.986667e+02,0 L2.986667e+02,-6 M320,0 L320,-6 M3.413333e+02,0 L3.413333e+02,-6 M3.626667e+02,0 L3.626667e+02,-6 M384,0 L384,-6 M4.053333e+02,0 L4.053333e+02,-6 M448,0 L448,-6 M4.693333e+02,0 L4.693333e+02,-6 M4.906667e+02,0 L4.906667e+02,-6 M512,0 L512,-6 M5.333333e+02,0 L5.333333e+02,-6 M5.546667e+02,0 L5.546667e+02,-6 M576,0 L576,-6 " vector-effect="non-scaling-stroke"/></g><g fill="black" stroke-linecap="round" stroke-linejoin="round" font-style="normal" text-anchor="middle" font-size="12px" font-family="sans-serif" font-weight="normal" dominant-baseline="hanging" transform="translate(80 520 )scale(1 1 )" stroke="black" stroke-width="2px"><text stroke="none" vector-effect="non-scaling-stroke" x="64" y="10" dominant-baseline="hanging">1</text><text stroke="none" vector-effect="non-scaling-stroke" x="8.533333e+01" y="10" dominant-baseline="hanging">2</text><text x="1.066667e+02" y="10" dominant-baseline="hanging" stroke="none" vector-effect="non-scaling-stroke">3</text><text x="128" y="10" dominant-baseline="hanging" stroke="none" vector-effect="non-scaling-stroke">4</text><text stroke="none" vector-effect="non-scaling-stroke" x="1.493333e+02" y="10" dominant-baseline="hanging">5</text><text stroke="none" vector-effect="non-scaling-stroke" x="1.706667e+02" y="10" dominant-baseline="hanging">6</text><text x="192" y="10" dominant-baseline="hanging" stroke="none" vector-effect="non-scaling-stroke">7</text><text stroke="none" vector-effect="non-scaling-stroke" x="2.133333e+02" y="10" dominant-baseline="hanging">8</text><text stroke="none" vector-effect="non-scaling-stroke" x="2.346667e+02" y="10" dominant-baseline="hanging">9</text><text stroke="none" vector-effect="non-scaling-stroke" x="256" y="10" dominant-baseline="hanging">10</text><text vector-effect="non-scaling-stroke" x="2.773333e+02" y="10" dominant-baseline="hanging" stroke="none">11</text><text vector-effect="non-scaling-stroke" x="2.986667e+02" y="10" dominant-baseline="hanging" stroke="none">12</text><text vector-effect="non-scaling-stroke" x="320" y="10" dominant-baseline="hanging" stroke="none">13</text><text stroke="none" vector-effect="non-scaling-stroke" x="3.413333e+02" y="10" dominant-baseline="hanging">14</text><text y="10" dominant-baseline="hanging" stroke="none" vector-effect="non-scaling-stroke" x="3.626667e+02">15</text><text stroke="none" vector-effect="non-scaling-stroke" x="384" y="10" dominant-baseline="hanging">16</text><text y="10" dominant-baseline="hanging" stroke="none" vector-effect="non-scaling-stroke" x="4.053333e+02">17</text><text vector-effect="non-scaling-stroke" x="448" y="10" dominant-baseline="hanging" stroke="none">19</text><text y="10" dominant-baseline="hanging" stroke="none" vector-effect="non-scaling-stroke" x="4.693333e+02">20</text><text x="4.906667e+02" y="10" dominant-baseline="hanging" stroke="none" vector-effect="non-scaling-stroke">21</text><text stroke="none" vector-effect="non-scaling-stroke" x="512" y="10" dominant-baseline="hanging">22</text><text y="10" dominant-baseline="hanging" stroke="none" vector-effect="non-scaling-stroke" x="5.333333e+02">23</text><text stroke="none" vector-effect="non-scaling-stroke" x="5.546667e+02" y="10" dominant-baseline="hanging">24</text><text stroke="none" vector-effect="non-scaling-stroke" x="576" y="10" dominant-baseline="hanging">25</text></g><g stroke-width="2px" font-size="12px" text-anchor="middle" dominant-baseline="baseline" fill="black" stroke-linejoin="round" font-family="sans-serif" font-style="normal" transform="translate(80 520 )scale(1 1 )rotate(0 0 0 )" stroke="black" stroke-linecap="round" font-weight="bold"><text vector-effect="non-scaling-stroke" x="320" y="-6" dominant-baseline="baseline" stroke="none">Day</text></g><g stroke="black" stroke-width="2px" stroke-linecap="round" stroke-linejoin="round" font-weight="bold" dominant-baseline="baseline" transform="translate(80 520 )scale(1 -1 )" font-size="12px" fill="black" font-family="sans-serif" font-style="normal" text-anchor="middle"><path d="M0,44 L-6,44 M0,7.920000e+01 L-6,7.920000e+01 M0,1.144000e+02 L-6,1.144000e+02 M0,1.496000e+02 L-6,1.496000e+02 M0,1.848000e+02 L-6,1.848000e+02 M0,220 L-6,220 M0,2.552000e+02 L-6,2.552000e+02 M0,2.904000e+02 L-6,2.904000e+02 M0,3.256000e+02 L-6,3.256000e+02 M0,3.608000e+02 L-6,3.608000e+02 M0,396 L-6,396 " vector-effect="non-scaling-stroke"/></g><g text-anchor="end" dominant-baseline="middle" stroke-linejoin="round" font-family="sans-serif" stroke="black" stroke-width="2px" font-weight="normal" fill="black" stroke-linecap="round" font-style="normal" transform="translate(80 520 )scale(1 1 )" font-size="12px"><text y="-44" dominant-baseline="middle" stroke="none" vector-effect="non-scaling-stroke" x="-10">0s</text><text dominant-baseline="middle" stroke="none" vector-effect="non-scaling-stroke" x="-10" y="-7.920000e+01">200ms</text><text stroke="none" vector-effect="non-scaling-stroke" x="-10" y="-1.144000e+02" dominant-baseline="middle">400ms</text><text stroke="none" vector-effect="non-scaling-stroke" x="-10" y="-1.496000e+02" dominant-baseline="middle">600ms</text><text stroke="none" vector-effect="non-scaling-stroke" x="-10" y="-1.848000e+02" dominant-baseline="middle">800ms</text><text stroke="none" vector-effect="non-scaling-stroke" x="-10" y="-220" dominant-baseline="middle">1s</text><text y="-2.552000e+02" dominant-baseline="middle" stroke="none" vector-effect="non-scaling-stroke" x="-10">1.2s</text><text stroke="none" vector-effect="non-scaling-stroke" x="-10" y="-2.904000e+02" dominant-baseline="middle">1.4s</text><text stroke="none" vector-effect="non-scaling-stroke" x="-10" y="-3.256000e+02" dominant-baseline="middle">1.6s</text><text x="-10" y="-3.608000e+02" dominant-baseline="middle" stroke="none" vector-effect="non-scaling-stroke">1.8s</text><text vector-effect="non-scaling-stroke" x="-10" y="-396" dominant-baseline="middle" stroke="none">2s</text></g><g stroke="black" font-size="12px" fill="black" font-family="sans-serif" font-weight="bold" text-anchor="middle" transform="translate(80 520 )scale(1 1 )rotate(-90 0 0 )" stroke-width="2px" dominant-baseline="hanging" stroke-linecap="round" stroke-linejoin="round" font-style="normal"><text stroke="none" vector-effect="non-scaling-stroke" x="220" y="6" dominant-baseline="hanging">Runtime</text></g></g></g></g></g></g></g></svg>