<svg preserveAspectRatio="xMidYMid meet" xmlns="http://www.w3.org/2000/svg" width="800" height="600" viewbox="0 0 800 600"><defs><marker id="circle" viewBox="0 0 10 10 " refX="5" refY="5" markerUnits="userSpaceOnUse" markerWidth="2%" markerHeight="2%"><circle r="3" fill="none" stroke="black" cx="5" cy="5"/></marker><marker refY="5" markerUnits="userSpaceOnUse" markerWidth="2%" markerHeight="2%" id="filled-circle" viewBox="0 0 10 10 " refX="5"><circle cx="5" cy="5" r="3" fill="black" stroke="none"/></marker><marker markerHeight="2%" id="square" viewBox="0 0 10 10 " refX="5" refY="5" markerUnits="userSpaceOnUse" markerWidth="2%"><rect width="6" height="6" fill="none" stroke="black" x="2" y="2"/></marker><marker viewBox="0 0 10 10 " refX="5" refY="5" markerUnits="userSpaceOnUse" markerWidth="2%" markerHeight="2%" id="filled-square"><rect fill="black" stroke="none" x="2" y="2" width="6" height="6"/></marker></defs><g stroke-linejoin="round" transform="translate(80 520 )scale(1 -1 )" fill="hsl(198, 47%, 65%)" stroke="hsl(198, 47%, 65%)" stroke-width="1px" stroke-linecap="round"><rect width="4.266667e+00" height="4.400662e+01" vector-effect="non-scaling-stroke" x="5.546667e+01" y="0"/></g><g stroke-width="1px" stroke-linecap="round" stroke-linejoin="round" transform="translate(80 520 )scale(1 -1 )" fill="hsl(49, 88%, 65%)" stroke="hsl(49, 88%, 65%)"><rect y="0" width="4.266667e+00" height="4.400241e+01" vector-effect="non-scaling-stroke" x="5.973333e+01"/><rect vector-effect="non-scaling-stroke" x="8.106667e+01" y="0" width="4.266667e+00" height="4.400484e+01"/><rect vector-effect="non-scaling-stroke" x="1.024000e+02" y="0" width="4.266667e+00" height="4.409664e+01"/><rect width="4.266667e+00" height="2.097016e+02" vector-effect="non-scaling-stroke" x="1.237333e+02" y="0"/><rect width="4.266667e+00" height="4.405029e+01" vector-effect="non-scaling-stroke" x="1.450667e+02" y="0"/><rect width="4.266667e+00" height="5.535243e+01" vector-effect="non-scaling-stroke" x="1.664000e+02" y="0"/><rect x="1.877333e+02" y="0" width="4.266667e+00" height="4.404342e+01" vector-effect="non-scaling-stroke"/><rect height="4.400136e+01" vector-effect="non-scaling-stroke" x="2.090667e+02" y="0" width="4.266667e+00"/><rect x="2.304000e+02" y="0" width="4.266667e+00" height="4.622952e+01" vector-effect="non-scaling-stroke"/><rect y="0" width="4.266667e+00" height="5.460722e+01" vector-effect="non-scaling-stroke" x="2.517333e+02"/><rect width="4.266667e+00" height="4.871157e+01" vector-effect="non-scaling-stroke" x="2.730667e+02" y="0"/><rect width="4.266667e+00" height="4.415016e+01" vector-effect="non-scaling-stroke" x="2.944000e+02" y="0"/><rect vector-effect="non-scaling-stroke" x="3.157333e+02" y="0" width="4.266667e+00" height="5.833423e+01"/><rect vector-effect="non-scaling-stroke" x="3.370667e+02" y="0" width="4.266667e+00" height="4.407651e+01"/><rect vector-effect="non-scaling-stroke" x="3.584000e+02" y="0" width="4.266667e+00" height="5.385255e+01"/><rect width="4.266667e+00" height="4.408905e+01" vector-effect="non-scaling-stroke" x="3.797333e+02" y="0"/><rect width="4.266667e+00" height="5.534909e+01" vector-effect="non-scaling-stroke" x="4.010667e+02" y="0"/><rect vector-effect="non-scaling-stroke" x="4.224000e+02" y="0" width="4.266667e+00" height="4.468289e+01"/><rect vector-effect="non-scaling-stroke" x="4.437333e+02" y="0" width="4.266667e+00" height="4.409594e+01"/><rect vector-effect="non-scaling-stroke" x="4.650667e+02" y="0" width="4.266667e+00" height="6.740130e+02"/><rect height="4.409445e+01" vector-effect="non-scaling-stroke" x="4.864000e+02" y="0" width="4.266667e+00"/><rect y="0" width="4.266667e+00" height="1.244924e+02" vector-effect="non-scaling-stroke" x="5.077333e+02"/><rect vector-effect="non-scaling-stroke" x="5.290667e+02" y="0" width="4.266667e+00" height="4.400394e+01"/><rect x="5.504000e+02" y="0" width="4.266667e+00" height="6.975917e+01" vector-effect="non-scaling-stroke"/><rect height="4.400157e+01" vector-effect="non-scaling-stroke" x="5.717333e+02" y="0" width="4.266667e+00"/></g><g fill="hsl(260, 76%, 65%)" stroke="hsl(260, 76%, 65%)" stroke-width="1px" stroke-linecap="round" stroke-linejoin="round" transform="translate(80 520 )scale(1 -1 )"><rect y="0" width="4.266667e+00" height="4.400227e+01" vector-effect="non-scaling-stroke" x="6.400000e+01"/><rect height="4.400916e+01" vector-effect="non-scaling-stroke" x="8.533333e+01" y="0" width="4.266667e+00"/><rect width="4.266667e+00" height="4.408215e+01" vector-effect="non-scaling-stroke" x="1.066667e+02" y="0"/><rect height="3.085703e+02" vector-effect="non-scaling-stroke" x="1.280000e+02" y="0" width="4.266667e+00"/><rect height="4.402440e+01" vector-effect="non-scaling-stroke" x="1.493333e+02" y="0" width="4.266667e+00"/><rect x="1.706667e+02" y="0" width="4.266667e+00" height="5.079964e+01" vector-effect="non-scaling-stroke"/><rect y="0" width="4.266667e+00" height="4.404217e+01" vector-effect="non-scaling-stroke" x="192"/><rect vector-effect="non-scaling-stroke" x="2.133333e+02" y="0" width="4.266667e+00" height="4.400574e+01"/><rect height="4.489036e+01" vector-effect="non-scaling-stroke" x="2.346667e+02" y="0" width="4.266667e+00"/><rect vector-effect="non-scaling-stroke" x="256" y="0" width="4.266667e+00" height="1.632705e+02"/><rect height="5.288153e+01" vector-effect="non-scaling-stroke" x="2.773333e+02" y="0" width="4.266667e+00"/><rect x="2.986667e+02" y="0" width="4.266667e+00" height="4.405132e+01" vector-effect="non-scaling-stroke"/><rect vector-effect="non-scaling-stroke" x="320" y="0" width="4.266667e+00" height="6.043265e+01"/><rect vector-effect="non-scaling-stroke" x="3.413333e+02" y="0" width="4.266667e+00" height="4.407135e+01"/><rect vector-effect="non-scaling-stroke" x="3.626667e+02" y="0" width="4.266667e+00" height="5.195903e+01"/><rect x="384" y="0" width="4.266667e+00" height="4.404799e+01" vector-effect="non-scaling-stroke"/><rect vector-effect="non-scaling-stroke" x="4.053333e+02" y="0" width="4.266667e+00" height="5.164855e+01"/><rect y="0" width="4.266667e+00" height="4.542256e+01" vector-effect="non-scaling-stroke" x="4.266667e+02"/><rect x="448" y="0" width="4.266667e+00" height="4.419438e+01" vector-effect="non-scaling-stroke"/><rect height="2.634562e+02" vector-effect="non-scaling-stroke" x="4.693333e+02" y="0" width="4.266667e+00"/><rect vector-effect="non-scaling-stroke" x="4.906667e+02" y="0" width="4.266667e+00" height="4.400514e+01"/><rect x="512" y="0" width="4.266667e+00" height="1.172092e+02" vector-effect="non-scaling-stroke"/><rect y="0" width="4.266667e+00" height="4.400162e+01" vector-effect="non-scaling-stroke" x="5.333333e+02"/><rect vector-effect="non-scaling-stroke" x="5.546667e+02" y="0" width="4.266667e+00" height="4.535789e+01"/><rect width="4.266667e+00" height="4.400004e+01" vector-effect="non-scaling-stroke" x="576" y="0"/></g><g stroke-linejoin="round" transform="translate(80 520 )scale(1 -1 )" fill="hsl(111, 64%, 65%)" stroke="hsl(111, 64%, 65%)" stroke-width="1px" stroke-linecap="round"><rect x="6.826667e+01" y="0" width="4.266667e+00" height="4.400095e+01" vector-effect="non-scaling-stroke"/><rect width="4.266667e+00" height="4.400076e+01" vector-effect="non-scaling-stroke" x="8.960000e+01" y="0"/><rect x="1.109333e+02" y="0" width="4.266667e+00" height="4.408312e+01" vector-effect="non-scaling-stroke"/><rect height="2.212965e+02" vector-effect="non-scaling-stroke" x="1.322667e+02" y="0" width="4.266667e+00"/><rect y="0" width="4.266667e+00" height="4.401941e+01" vector-effect="non-scaling-stroke" x="1.536000e+02"/><rect vector-effect="non-scaling-stroke" x="1.749333e+02" y="0" width="4.266667e+00" height="4.553963e+01"/><rect vector-effect="non-scaling-stroke" x="1.962667e+02" y="0" width="4.266667e+00" height="4.400657e+01"/><rect x="2.176000e+02" y="0" width="4.266667e+00" height="4.400066e+01" vector-effect="non-scaling-stroke"/><rect vector-effect="non-scaling-stroke" x="2.389333e+02" y="0" width="4.266667e+00" height="4.411379e+01"/><rect vector-effect="non-scaling-stroke" x="2.602667e+02" y="0" width="4.266667e+00" height="4.923954e+01"/><rect y="0" width="4.266667e+00" height="4.456142e+01" vector-effect="non-scaling-stroke" x="2.816000e+02"/><rect y="0" width="4.266667e+00" height="4.401033e+01" vector-effect="non-scaling-stroke" x="3.029333e+02"/><rect vector-effect="non-scaling-stroke" x="3.242667e+02" y="0" width="4.266667e+00" height="4.440656e+01"/><rect width="4.266667e+00" height="4.400732e+01" vector-effect="non-scaling-stroke" x="3.456000e+02" y="0"/><rect y="0" width="4.266667e+00" height="4.407594e+01" vector-effect="non-scaling-stroke" x="3.669333e+02"/><rect width="4.266667e+00" height="4.400139e+01" vector-effect="non-scaling-stroke" x="3.882667e+02" y="0"/></g><g stroke="hsl(198, 47%, 65%)" stroke-linecap="round" font-family="sans-serif" font-size="12px" fill="hsl(198, 47%, 65%)" stroke-linejoin="round" font-weight="normal" text-anchor="start" dominant-baseline="hanging" stroke-width="1px" font-style="normal"><rect x="736" y="448" width="12" height="12" vector-effect="non-scaling-stroke"/><g stroke="black" fill="black"><text stroke="none" vector-effect="non-scaling-stroke" x="752" y="448" dominant-baseline="hanging">Crystal</text></g><g text-anchor="start" stroke="hsl(49, 88%, 65%)" stroke-width="1px" stroke-linecap="round" font-size="12px" font-weight="normal" stroke-linejoin="round" font-style="normal" dominant-baseline="hanging" font-family="sans-serif" fill="hsl(49, 88%, 65%)"><rect vector-effect="non-scaling-stroke" x="736" y="466" width="12" height="12"/><g stroke="black" fill="black"><text vector-effect="non-scaling-stroke" x="752" y="466" dominant-baseline="hanging" stroke="none">Golang</text></g><g text-anchor="start" stroke="hsl(260, 76%, 65%)" font-weight="normal" fill="hsl(260, 76%, 65%)" font-style="normal" dominant-baseline="hanging" stroke-width="1px" stroke-linecap="round" font-family="sans-serif" font-size="12px" stroke-linejoin="round"><rect width="12" height="12" vector-effect="non-scaling-stroke" x="736" y="484"/><g stroke="black" fill="black"><text stroke="none" vector-effect="non-scaling-stroke" x="752" y="484" dominant-baseline="hanging">Rust</text></g><g font-family="sans-serif" font-size="12px" stroke-linejoin="round" fill="hsl(111, 64%, 65%)" font-style="normal" font-weight="normal" text-anchor="start" stroke="hsl(111, 64%, 65%)" stroke-width="1px" stroke-linecap="round" dominant-baseline="hanging"><rect height="12" vector-effect="non-scaling-stroke" x="736" y="502" width="12"/><g stroke="black" fill="black"><text y="502" dominant-baseline="hanging" stroke="none" vector-effect="non-scaling-stroke" x="752">Zig</text><g dominant-baseline="hanging" font-weight="normal" fill="none" font-style="normal" font-family="sans-serif" font-size="12px" text-anchor="start" stroke-linejoin="round" stroke-width="2px" stroke-linecap="round"><rect y="80" width="640" height="440" vector-effect="non-scaling-stroke" x="80"/></g><g stroke-width="2px" dominant-baseline="hanging" stroke-linejoin="round" font-style="normal" font-family="sans-serif" font-weight="normal" text-anchor="start" transform="translate(80 520 )scale(1 -1 )" fill="none" font-size="12px" stroke="black" stroke-linecap="round"><path vector-effect="non-scaling-stroke" d="M64,0 L64,-6 "/></g><g stroke-width="2px" stroke-linecap="round" font-family="sans-serif" font-size="12px" font-weight="normal" stroke-linejoin="round" font-style="normal" stroke="black" transform="translate(80 520 )scale(1 1 )" fill="black" dominant-baseline="hanging" text-anchor="middle"><text x="64" y="10" dominant-baseline="hanging" stroke="none" vector-effect="non-scaling-stroke">1</text></g><g font-size="12px" fill="black" font-style="normal" transform="translate(80 520 )scale(1 1 )rotate(0 0 0 )" stroke-width="2px" stroke-linecap="round" font-family="sans-serif" dominant-baseline="baseline" stroke="black" font-weight="bold" text-anchor="middle" stroke-linejoin="round"><text x="320" y="-6" dominant-baseline="baseline" stroke="none" vector-effect="non-scaling-stroke">Day</text></g><g stroke-width="2px" font-family="sans-serif" font-size="12px" fill="black" stroke-linejoin="round" font-style="normal" text-anchor="middle" transform="translate(80 520 )scale(1 -1 )" dominant-baseline="baseline" stroke-linecap="round" font-weight="bold" stroke="black"><path vector-effect="non-scaling-stroke" d="M0,44 L-6,44 M0,7.920000e+01 L-6,7.920000e+01 M0,1.144000e+02 L-6,1.144000e+02 M0,1.496000e+02 L-6,1.496000e+02 M0,1.848000e+02 L-6,1.848000e+02 M0,220 L-6,220 M0,2.552000e+02 L-6,2.552000e+02 M0,2.904000e+02 L-6,2.904000e+02 M0,3.256000e+02 L-6,3.256000e+02 M0,3.608000e+02 L-6,3.608000e+02 M0,396 L-6,396 "/></g><g font-style="normal" font-family="sans-serif" font-size="12px" text-anchor="end" transform="translate(80 520 )scale(1 1 )" stroke="black" stroke-width="2px" fill="black" stroke-linejoin="round" font-weight="normal" stroke-linecap="round" dominant-baseline="middle"><text stroke="none" vector-effect="non-scaling-stroke" x="-10" y="-44" dominant-baseline="middle">0s</text><text dominant-baseline="middle" stroke="none" vector-effect="non-scaling-stroke" x="-10" y="-7.920000e+01">200ms</text><text dominant-baseline="middle" stroke="none" vector-effect="non-scaling-stroke" x="-10" y="-1.144000e+02">400ms</text><text x="-10" y="-1.496000e+02" dominant-baseline="middle" stroke="none" vector-effect="non-scaling-stroke">600ms</text><text x="-10" y="-1.848000e+02" dominant-baseline="middle" stroke="none" vector-effect="non-scaling-stroke">800ms</text><text stroke="none" vector-effect="non-scaling-stroke" x="-10" y="-220" dominant-baseline="middle">1s</text><text stroke="none" vector-effect="non-scaling-stroke" x="-10" y="-2.552000e+02" dominant-baseline="middle">1.2s</text><text y="-2.904000e+02" dominant-baseline="middle" stroke="none" vector-effect="non-scaling-stroke" x="-10">1.4s</text><text dominant-baseline="middle" stroke="none" vector-effect="non-scaling-stroke" x="-10" y="-3.256000e+02">1.6s</text><text vector-effect="non-scaling-stroke" x="-10" y="-3.608000e+02" dominant-baseline="middle" stroke="none">1.8s</text><text vector-effect="non-scaling-stroke" x="-10" y="-396" dominant-baseline="middle" stroke="none">2s</text></g><g font-size="12px" text-anchor="middle" stroke-linejoin="round" font-style="normal" fill="black" stroke-width="2px" stroke-linecap="round" font-family="sans-serif" stroke="black" dominant-baseline="hanging" font-weight="bold" transform="translate(80 520 )scale(1 1 )rotate(-90 0 0 )"><text vector-effect="non-scaling-stroke" x="220" y="6" dominant-baseline="hanging" stroke="none">Runtime</text></g></g></g></g></g></g></svg>