<svg width="800" height="600" viewbox="0 0 800 600" preserveAspectRatio="xMidYMid meet" xmlns="http://www.w3.org/2000/svg"><defs><marker refX="5" refY="5" markerUnits="userSpaceOnUse" markerWidth="2%" markerHeight="2%" id="circle" viewBox="0 0 10 10 "><circle cx="5" cy="5" r="3" fill="none" stroke="black"/></marker><marker viewBox="0 0 10 10 " refX="5" refY="5" markerUnits="userSpaceOnUse" markerWidth="2%" markerHeight="2%" id="filled-circle"><circle fill="black" stroke="none" cx="5" cy="5" r="3"/></marker><marker refX="5" refY="5" markerUnits="userSpaceOnUse" markerWidth="2%" markerHeight="2%" id="square" viewBox="0 0 10 10 "><rect y="2" width="6" height="6" fill="none" stroke="black" x="2"/></marker><marker id="filled-square" viewBox="0 0 10 10 " refX="5" refY="5" markerUnits="userSpaceOnUse" markerWidth="2%" markerHeight="2%"><rect height="6" fill="black" stroke="none" x="2" y="2" width="6"/></marker></defs><g transform="translate(80 520 )scale(1 -1 )" fill="hsl(198, 47%, 65%)" stroke="hsl(198, 47%, 65%)" stroke-width="1px" stroke-linecap="round" stroke-linejoin="round"><rect height="4.416377e+01" vector-effect="non-scaling-stroke" x="5.546667e+01" y="0" width="5.688889e+00"/><rect y="0" width="5.688889e+00" height="4.528006e+01" vector-effect="non-scaling-stroke" x="7.680000e+01"/><rect vector-effect="non-scaling-stroke" x="9.813333e+01" y="0" width="5.688889e+00" height="6.647397e+01"/><rect x="1.194667e+02" y="0" width="5.688889e+00" height="4.472313e+01" vector-effect="non-scaling-stroke"/><rect x="1.408000e+02" y="0" width="5.688889e+00" height="1.091148e+02" vector-effect="non-scaling-stroke"/><rect width="5.688889e+00" height="5.165908e+01" vector-effect="non-scaling-stroke" x="1.621333e+02" y="0"/><rect x="1.834667e+02" y="0" width="5.688889e+00" height="4.404652e+01" vector-effect="non-scaling-stroke"/><rect x="2.048000e+02" y="0" width="5.688889e+00" height="4.406327e+01" vector-effect="non-scaling-stroke"/><rect vector-effect="non-scaling-stroke" x="2.261333e+02" y="0" width="5.688889e+00" height="9.547406e+01"/><rect x="2.474667e+02" y="0" width="5.688889e+00" height="4.431461e+01" vector-effect="non-scaling-stroke"/><rect y="0" width="5.688889e+00" height="5.106260e+01" vector-effect="non-scaling-stroke" x="2.688000e+02"/><rect vector-effect="non-scaling-stroke" x="2.901333e+02" y="0" width="5.688889e+00" height="4.448615e+01"/><rect height="4.547665e+01" vector-effect="non-scaling-stroke" x="3.114667e+02" y="0" width="5.688889e+00"/><rect width="5.688889e+00" height="7.392375e+01" vector-effect="non-scaling-stroke" x="3.328000e+02" y="0"/><rect x="3.541333e+02" y="0" width="5.688889e+00" height="1.546130e+02" vector-effect="non-scaling-stroke"/><rect x="3.754667e+02" y="0" width="5.688889e+00" height="4.816361e+01" vector-effect="non-scaling-stroke"/><rect vector-effect="non-scaling-stroke" x="3.968000e+02" y="0" width="5.688889e+00" height="5.564737e+01"/><rect vector-effect="non-scaling-stroke" x="4.181333e+02" y="0" width="5.688889e+00" height="8.924046e+01"/><rect width="5.688889e+00" height="6.068504e+01" vector-effect="non-scaling-stroke" x="4.394667e+02" y="0"/><rect vector-effect="non-scaling-stroke" x="4.608000e+02" y="0" width="5.688889e+00" height="5.133593e+01"/><rect width="5.688889e+00" height="1.105958e+02" vector-effect="non-scaling-stroke" x="4.821333e+02" y="0"/><rect x="5.034667e+02" y="0" width="5.688889e+00" height="2.836688e+02" vector-effect="non-scaling-stroke"/><rect y="0" width="5.688889e+00" height="8.517803e+01" vector-effect="non-scaling-stroke" x="5.248000e+02"/><rect y="0" width="5.688889e+00" height="6.794898e+01" vector-effect="non-scaling-stroke" x="5.461333e+02"/><rect y="0" width="5.688889e+00" height="4.615975e+01" vector-effect="non-scaling-stroke" x="5.674667e+02"/></g><g fill="hsl(49, 88%, 65%)" stroke="hsl(49, 88%, 65%)" stroke-width="1px" stroke-linecap="round" stroke-linejoin="round" transform="translate(80 520 )scale(1 -1 )"><rect y="0" width="5.688889e+00" height="4.417395e+01" vector-effect="non-scaling-stroke" x="6.115556e+01"/><rect vector-effect="non-scaling-stroke" x="8.248889e+01" y="0" width="5.688889e+00" height="4.411649e+01"/><rect width="5.688889e+00" height="4.516021e+01" vector-effect="non-scaling-stroke" x="1.038222e+02" y="0"/><rect x="1.251556e+02" y="0" width="5.688889e+00" height="4.400200e+01" vector-effect="non-scaling-stroke"/><rect width="5.688889e+00" height="4.531643e+01" vector-effect="non-scaling-stroke" x="1.464889e+02" y="0"/><rect width="5.688889e+00" height="4.575810e+01" vector-effect="non-scaling-stroke" x="1.678222e+02" y="0"/><rect height="4.400103e+01" vector-effect="non-scaling-stroke" x="1.891556e+02" y="0" width="5.688889e+00"/><rect x="2.104889e+02" y="0" width="5.688889e+00" height="4.401835e+01" vector-effect="non-scaling-stroke"/><rect y="0" width="5.688889e+00" height="5.448841e+01" vector-effect="non-scaling-stroke" x="2.318222e+02"/><rect y="0" width="5.688889e+00" height="4.400153e+01" vector-effect="non-scaling-stroke" x="2.531556e+02"/><rect width="5.688889e+00" height="4.456863e+01" vector-effect="non-scaling-stroke" x="2.744889e+02" y="0"/><rect height="4.401497e+01" vector-effect="non-scaling-stroke" x="2.958222e+02" y="0" width="5.688889e+00"/><rect vector-effect="non-scaling-stroke" x="3.171556e+02" y="0" width="5.688889e+00" height="4.485016e+01"/><rect vector-effect="non-scaling-stroke" x="3.384889e+02" y="0" width="5.688889e+00" height="7.002496e+01"/><rect x="3.598222e+02" y="0" width="5.688889e+00" height="8.140258e+01" vector-effect="non-scaling-stroke"/><rect x="3.811556e+02" y="0" width="5.688889e+00" height="4.403438e+01" vector-effect="non-scaling-stroke"/><rect height="4.420306e+01" vector-effect="non-scaling-stroke" x="4.024889e+02" y="0" width="5.688889e+00"/><rect vector-effect="non-scaling-stroke" x="4.238222e+02" y="0" width="5.688889e+00" height="4.905826e+01"/><rect width="5.688889e+00" height="5.566771e+01" vector-effect="non-scaling-stroke" x="4.451556e+02" y="0"/><rect vector-effect="non-scaling-stroke" x="4.664889e+02" y="0" width="5.688889e+00" height="4.405270e+01"/><rect vector-effect="non-scaling-stroke" x="4.878222e+02" y="0" width="5.688889e+00" height="4.403587e+01"/><rect height="4.752294e+01" vector-effect="non-scaling-stroke" x="5.091556e+02" y="0" width="5.688889e+00"/><rect vector-effect="non-scaling-stroke" x="5.304889e+02" y="0" width="5.688889e+00" height="6.008024e+01"/><rect height="5.650190e+01" vector-effect="non-scaling-stroke" x="5.518222e+02" y="0" width="5.688889e+00"/><rect x="5.731556e+02" y="0" width="5.688889e+00" height="4.448936e+01" vector-effect="non-scaling-stroke"/></g><g transform="translate(80 520 )scale(1 -1 )" fill="hsl(260, 76%, 65%)" stroke="hsl(260, 76%, 65%)" stroke-width="1px" stroke-linecap="round" stroke-linejoin="round"><rect x="6.684444e+01" y="0" width="5.688889e+00" height="4.416649e+01" vector-effect="non-scaling-stroke"/><rect width="5.688889e+00" height="4.401587e+01" vector-effect="non-scaling-stroke" x="8.817778e+01" y="0"/><rect x="1.095111e+02" y="0" width="5.688889e+00" height="4.464951e+01" vector-effect="non-scaling-stroke"/><rect x="1.308444e+02" y="0" width="5.688889e+00" height="4.400199e+01" vector-effect="non-scaling-stroke"/><rect width="5.688889e+00" height="4.465906e+01" vector-effect="non-scaling-stroke" x="1.521778e+02" y="0"/><rect height="4.545696e+01" vector-effect="non-scaling-stroke" x="1.735111e+02" y="0" width="5.688889e+00"/><rect height="4.400075e+01" vector-effect="non-scaling-stroke" x="1.948444e+02" y="0" width="5.688889e+00"/><rect y="0" width="5.688889e+00" height="4.401348e+01" vector-effect="non-scaling-stroke" x="2.161778e+02"/><rect vector-effect="non-scaling-stroke" x="2.375111e+02" y="0" width="5.688889e+00" height="5.308958e+01"/><rect width="5.688889e+00" height="4.400134e+01" vector-effect="non-scaling-stroke" x="2.588444e+02" y="0"/><rect x="2.801778e+02" y="0" width="5.688889e+00" height="4.448630e+01" vector-effect="non-scaling-stroke"/><rect width="5.688889e+00" height="4.400798e+01" vector-effect="non-scaling-stroke" x="3.015111e+02" y="0"/><rect vector-effect="non-scaling-stroke" x="3.228444e+02" y="0" width="5.688889e+00" height="4.733291e+01"/><rect height="9.141166e+01" vector-effect="non-scaling-stroke" x="3.441778e+02" y="0" width="5.688889e+00"/><rect width="5.688889e+00" height="7.762418e+01" vector-effect="non-scaling-stroke" x="3.655111e+02" y="0"/><rect width="5.688889e+00" height="4.403251e+01" vector-effect="non-scaling-stroke" x="3.868444e+02" y="0"/><rect y="0" width="5.688889e+00" height="396" vector-effect="non-scaling-stroke" x="4.081778e+02"/><rect y="0" width="5.688889e+00" height="4.662389e+01" vector-effect="non-scaling-stroke" x="4.295111e+02"/><rect x="4.508444e+02" y="0" width="5.688889e+00" height="4.400130e+01" vector-effect="non-scaling-stroke"/><rect y="0" width="5.688889e+00" height="4.404777e+01" vector-effect="non-scaling-stroke" x="4.721778e+02"/><rect width="5.688889e+00" height="4.403656e+01" vector-effect="non-scaling-stroke" x="4.935111e+02" y="0"/><rect vector-effect="non-scaling-stroke" x="5.148444e+02" y="0" width="5.688889e+00" height="4.463019e+01"/><rect y="0" width="5.688889e+00" height="5.204525e+01" vector-effect="non-scaling-stroke" x="5.361778e+02"/><rect height="4.520124e+01" vector-effect="non-scaling-stroke" x="5.575111e+02" y="0" width="5.688889e+00"/><rect vector-effect="non-scaling-stroke" x="5.788444e+02" y="0" width="5.688889e+00" height="4.416474e+01"/></g><g dominant-baseline="hanging" stroke="hsl(198, 47%, 65%)" stroke-linejoin="round" font-weight="normal" font-style="normal" fill="hsl(198, 47%, 65%)" font-size="12px" text-anchor="start" stroke-width="1px" stroke-linecap="round" font-family="sans-serif"><rect width="12" height="12" vector-effect="non-scaling-stroke" x="736" y="466"/><g stroke="black" fill="black"><text y="466" dominant-baseline="hanging" stroke="none" vector-effect="non-scaling-stroke" x="752">Golang</text></g><g font-family="sans-serif" stroke-linejoin="round" font-size="12px" fill="hsl(49, 88%, 65%)" font-style="normal" dominant-baseline="hanging" stroke-linecap="round" font-weight="normal" text-anchor="start" stroke-width="1px" stroke="hsl(49, 88%, 65%)"><rect y="484" width="12" height="12" vector-effect="non-scaling-stroke" x="736"/><g fill="black" stroke="black"><text y="484" dominant-baseline="hanging" stroke="none" vector-effect="non-scaling-stroke" x="752">Rust</text></g><g stroke-linecap="round" font-size="12px" stroke="hsl(260, 76%, 65%)" stroke-linejoin="round" fill="hsl(260, 76%, 65%)" font-weight="normal" text-anchor="start" stroke-width="1px" font-family="sans-serif" font-style="normal" dominant-baseline="hanging"><rect y="502" width="12" height="12" vector-effect="non-scaling-stroke" x="736"/><g fill="black" stroke="black"><text x="752" y="502" dominant-baseline="hanging" stroke="none" vector-effect="non-scaling-stroke">Zig</text><g dominant-baseline="hanging" font-size="12px" font-family="sans-serif" stroke-linecap="round" font-style="normal" text-anchor="start" stroke-linejoin="round" font-weight="normal" stroke-width="2px" fill="none"><rect height="440" vector-effect="non-scaling-stroke" x="80" y="80" width="640"/></g><g font-weight="normal" text-anchor="start" font-size="12px" stroke="black" font-style="normal" dominant-baseline="hanging" transform="translate(80 520 )scale(1 -1 )" fill="none" font-family="sans-serif" stroke-width="2px" stroke-linecap="round" stroke-linejoin="round"><path d="M64,0 L64,-6 M8.533333e+01,0 L8.533333e+01,-6 M1.066667e+02,0 L1.066667e+02,-6 M128,0 L128,-6 M1.493333e+02,0 L1.493333e+02,-6 M1.706667e+02,0 L1.706667e+02,-6 M192,0 L192,-6 M2.133333e+02,0 L2.133333e+02,-6 M2.346667e+02,0 L2.346667e+02,-6 M256,0 L256,-6 M2.773333e+02,0 L2.773333e+02,-6 M2.986667e+02,0 L2.986667e+02,-6 M320,0 L320,-6 M3.413333e+02,0 L3.413333e+02,-6 M3.626667e+02,0 L3.626667e+02,-6 M384,0 L384,-6 M4.053333e+02,0 L4.053333e+02,-6 M4.266667e+02,0 L4.266667e+02,-6 M448,0 L448,-6 M4.693333e+02,0 L4.693333e+02,-6 M4.906667e+02,0 L4.906667e+02,-6 M512,0 L512,-6 M5.333333e+02,0 L5.333333e+02,-6 M5.546667e+02,0 L5.546667e+02,-6 M576,0 L576,-6 " vector-effect="non-scaling-stroke"/></g><g font-family="sans-serif" font-weight="normal" stroke="black" stroke-linejoin="round" dominant-baseline="hanging" stroke-width="2px" stroke-linecap="round" fill="black" font-size="12px" font-style="normal" text-anchor="middle" transform="translate(80 520 )scale(1 1 )"><text stroke="none" vector-effect="non-scaling-stroke" x="64" y="10" dominant-baseline="hanging">1</text><text vector-effect="non-scaling-stroke" x="8.533333e+01" y="10" dominant-baseline="hanging" stroke="none">2</text><text stroke="none" vector-effect="non-scaling-stroke" x="1.066667e+02" y="10" dominant-baseline="hanging">3</text><text dominant-baseline="hanging" stroke="none" vector-effect="non-scaling-stroke" x="128" y="10">4</text><text vector-effect="non-scaling-stroke" x="1.493333e+02" y="10" dominant-baseline="hanging" stroke="none">5</text><text dominant-baseline="hanging" stroke="none" vector-effect="non-scaling-stroke" x="1.706667e+02" y="10">6</text><text stroke="none" vector-effect="non-scaling-stroke" x="192" y="10" dominant-baseline="hanging">7</text><text y="10" dominant-baseline="hanging" stroke="none" vector-effect="non-scaling-stroke" x="2.133333e+02">8</text><text stroke="none" vector-effect="non-scaling-stroke" x="2.346667e+02" y="10" dominant-baseline="hanging">9</text><text vector-effect="non-scaling-stroke" x="256" y="10" dominant-baseline="hanging" stroke="none">10</text><text x="2.773333e+02" y="10" dominant-baseline="hanging" stroke="none" vector-effect="non-scaling-stroke">11</text><text y="10" dominant-baseline="hanging" stroke="none" vector-effect="non-scaling-stroke" x="2.986667e+02">12</text><text x="320" y="10" dominant-baseline="hanging" stroke="none" vector-effect="non-scaling-stroke">13</text><text x="3.413333e+02" y="10" dominant-baseline="hanging" stroke="none" vector-effect="non-scaling-stroke">14</text><text x="3.626667e+02" y="10" dominant-baseline="hanging" stroke="none" vector-effect="non-scaling-stroke">15</text><text x="384" y="10" dominant-baseline="hanging" stroke="none" vector-effect="non-scaling-stroke">16</text><text x="4.053333e+02" y="10" dominant-baseline="hanging" stroke="none" vector-effect="non-scaling-stroke">17</text><text x="4.266667e+02" y="10" dominant-baseline="hanging" stroke="none" vector-effect="non-scaling-stroke">18</text><text vector-effect="non-scaling-stroke" x="448" y="10" dominant-baseline="hanging" stroke="none">19</text><text stroke="none" vector-effect="non-scaling-stroke" x="4.693333e+02" y="10" dominant-baseline="hanging">20</text><text y="10" dominant-baseline="hanging" stroke="none" vector-effect="non-scaling-stroke" x="4.906667e+02">21</text><text stroke="none" vector-effect="non-scaling-stroke" x="512" y="10" dominant-baseline="hanging">22</text><text vector-effect="non-scaling-stroke" x="5.333333e+02" y="10" dominant-baseline="hanging" stroke="none">23</text><text x="5.546667e+02" y="10" dominant-baseline="hanging" stroke="none" vector-effect="non-scaling-stroke">24</text><text y="10" dominant-baseline="hanging" stroke="none" vector-effect="non-scaling-stroke" x="576">25</text></g><g fill="black" font-size="12px" font-style="normal" dominant-baseline="baseline" transform="translate(80 520 )scale(1 1 )rotate(0 0 0 )" stroke-linecap="round" font-family="sans-serif" stroke="black" stroke-linejoin="round" stroke-width="2px" font-weight="bold" text-anchor="middle"><text vector-effect="non-scaling-stroke" x="320" y="-6" dominant-baseline="baseline" stroke="none">Day</text></g><g stroke="black" stroke-linejoin="round" font-size="12px" font-style="normal" stroke-width="2px" stroke-linecap="round" text-anchor="middle" fill="black" dominant-baseline="baseline" font-family="sans-serif" font-weight="bold" transform="translate(80 520 )scale(1 -1 )"><path vector-effect="non-scaling-stroke" d="M0,44 L-6,44 M0,9.481655e+01 L-6,9.481655e+01 M0,1.456331e+02 L-6,1.456331e+02 M0,1.964497e+02 L-6,1.964497e+02 M0,2.472662e+02 L-6,2.472662e+02 M0,2.980828e+02 L-6,2.980828e+02 M0,3.488993e+02 L-6,3.488993e+02 "/></g><g dominant-baseline="middle" transform="translate(80 520 )scale(1 1 )" fill="black" stroke="black" font-style="normal" font-weight="normal" text-anchor="end" stroke-linejoin="round" font-size="12px" stroke-width="2px" stroke-linecap="round" font-family="sans-serif"><text dominant-baseline="middle" stroke="none" vector-effect="non-scaling-stroke" x="-10" y="-44">0s</text><text stroke="none" vector-effect="non-scaling-stroke" x="-10" y="-9.481655e+01" dominant-baseline="middle">200ms</text><text y="-1.456331e+02" dominant-baseline="middle" stroke="none" vector-effect="non-scaling-stroke" x="-10">400ms</text><text x="-10" y="-1.964497e+02" dominant-baseline="middle" stroke="none" vector-effect="non-scaling-stroke">600ms</text><text vector-effect="non-scaling-stroke" x="-10" y="-2.472662e+02" dominant-baseline="middle" stroke="none">800ms</text><text stroke="none" vector-effect="non-scaling-stroke" x="-10" y="-2.980828e+02" dominant-baseline="middle">1s</text><text vector-effect="non-scaling-stroke" x="-10" y="-3.488993e+02" dominant-baseline="middle" stroke="none">1.2s</text></g><g stroke="black" stroke-linejoin="round" font-style="normal" font-family="sans-serif" font-weight="bold" text-anchor="middle" stroke-width="2px" font-size="12px" dominant-baseline="hanging" transform="translate(80 520 )scale(1 1 )rotate(-90 0 0 )" fill="black" stroke-linecap="round"><text x="220" y="6" dominant-baseline="hanging" stroke="none" vector-effect="non-scaling-stroke">Runtime</text></g></g></g></g></g></svg>