<svg viewbox="0 0 800 600" preserveAspectRatio="xMidYMid meet" xmlns="http://www.w3.org/2000/svg" width="800" height="600"><defs><marker id="circle" viewBox="0 0 10 10 " refX="5" refY="5" markerUnits="userSpaceOnUse" markerWidth="2%" markerHeight="2%"><circle cx="5" cy="5" r="3" fill="none" stroke="black"/></marker><marker id="filled-circle" viewBox="0 0 10 10 " refX="5" refY="5" markerUnits="userSpaceOnUse" markerWidth="2%" markerHeight="2%"><circle r="3" fill="black" stroke="none" cx="5" cy="5"/></marker><marker refY="5" markerUnits="userSpaceOnUse" markerWidth="2%" markerHeight="2%" id="square" viewBox="0 0 10 10 " refX="5"><rect x="2" y="2" width="6" height="6" fill="none" stroke="black"/></marker><marker id="filled-square" viewBox="0 0 10 10 " refX="5" refY="5" markerUnits="userSpaceOnUse" markerWidth="2%" markerHeight="2%"><rect x="2" y="2" width="6" height="6" fill="black" stroke="none"/></marker></defs><g stroke="hsl(198, 47%, 65%)" stroke-width="1px" stroke-linecap="round" stroke-linejoin="round" transform="translate(80 520 )scale(1 -1 )" fill="hsl(198, 47%, 65%)"><rect vector-effect="non-scaling-stroke" x="5.546667e+01" y="0" width="5.688889e+00" height="4.400464e+01"/></g><g stroke="hsl(49, 88%, 65%)" stroke-width="1px" stroke-linecap="round" stroke-linejoin="round" transform="translate(80 520 )scale(1 -1 )" fill="hsl(49, 88%, 65%)"><rect height="4.400206e+01" vector-effect="non-scaling-stroke" x="6.115556e+01" y="0" width="5.688889e+00"/><rect height="4.408086e+01" vector-effect="non-scaling-stroke" x="8.248889e+01" y="0" width="5.688889e+00"/><rect vector-effect="non-scaling-stroke" x="1.038222e+02" y="0" width="5.688889e+00" height="4.409723e+01"/><rect y="0" width="5.688889e+00" height="2.107685e+02" vector-effect="non-scaling-stroke" x="1.251556e+02"/><rect vector-effect="non-scaling-stroke" x="1.464889e+02" y="0" width="5.688889e+00" height="4.404426e+01"/><rect height="5.542286e+01" vector-effect="non-scaling-stroke" x="1.678222e+02" y="0" width="5.688889e+00"/><rect y="0" width="5.688889e+00" height="4.404342e+01" vector-effect="non-scaling-stroke" x="1.891556e+02"/><rect height="4.400373e+01" vector-effect="non-scaling-stroke" x="2.104889e+02" y="0" width="5.688889e+00"/><rect width="5.688889e+00" height="4.622952e+01" vector-effect="non-scaling-stroke" x="2.318222e+02" y="0"/><rect x="2.531556e+02" y="0" width="5.688889e+00" height="5.460722e+01" vector-effect="non-scaling-stroke"/><rect y="0" width="5.688889e+00" height="4.871157e+01" vector-effect="non-scaling-stroke" x="2.744889e+02"/><rect x="2.958222e+02" y="0" width="5.688889e+00" height="4.415016e+01" vector-effect="non-scaling-stroke"/><rect x="3.171556e+02" y="0" width="5.688889e+00" height="5.833423e+01" vector-effect="non-scaling-stroke"/><rect vector-effect="non-scaling-stroke" x="3.384889e+02" y="0" width="5.688889e+00" height="4.404200e+01"/><rect x="3.598222e+02" y="0" width="5.688889e+00" height="5.385255e+01" vector-effect="non-scaling-stroke"/><rect height="4.408992e+01" vector-effect="non-scaling-stroke" x="3.811556e+02" y="0" width="5.688889e+00"/><rect width="5.688889e+00" height="5.534909e+01" vector-effect="non-scaling-stroke" x="4.024889e+02" y="0"/><rect y="0" width="5.688889e+00" height="4.468289e+01" vector-effect="non-scaling-stroke" x="4.238222e+02"/><rect vector-effect="non-scaling-stroke" x="4.451556e+02" y="0" width="5.688889e+00" height="4.409594e+01"/><rect y="0" width="5.688889e+00" height="6.740130e+02" vector-effect="non-scaling-stroke" x="4.664889e+02"/><rect y="0" width="5.688889e+00" height="4.409445e+01" vector-effect="non-scaling-stroke" x="4.878222e+02"/><rect x="5.091556e+02" y="0" width="5.688889e+00" height="1.244924e+02" vector-effect="non-scaling-stroke"/><rect width="5.688889e+00" height="4.400394e+01" vector-effect="non-scaling-stroke" x="5.304889e+02" y="0"/><rect x="5.518222e+02" y="0" width="5.688889e+00" height="6.975917e+01" vector-effect="non-scaling-stroke"/><rect vector-effect="non-scaling-stroke" x="5.731556e+02" y="0" width="5.688889e+00" height="4.400157e+01"/></g><g transform="translate(80 520 )scale(1 -1 )" fill="hsl(260, 76%, 65%)" stroke="hsl(260, 76%, 65%)" stroke-width="1px" stroke-linecap="round" stroke-linejoin="round"><rect y="0" width="5.688889e+00" height="4.400059e+01" vector-effect="non-scaling-stroke" x="6.684444e+01"/><rect height="4.400954e+01" vector-effect="non-scaling-stroke" x="8.817778e+01" y="0" width="5.688889e+00"/><rect vector-effect="non-scaling-stroke" x="1.095111e+02" y="0" width="5.688889e+00" height="4.409449e+01"/><rect vector-effect="non-scaling-stroke" x="1.308444e+02" y="0" width="5.688889e+00" height="2.792670e+02"/><rect vector-effect="non-scaling-stroke" x="1.521778e+02" y="0" width="5.688889e+00" height="4.403840e+01"/><rect y="0" width="5.688889e+00" height="5.075967e+01" vector-effect="non-scaling-stroke" x="1.735111e+02"/><rect height="4.404131e+01" vector-effect="non-scaling-stroke" x="1.948444e+02" y="0" width="5.688889e+00"/><rect vector-effect="non-scaling-stroke" x="2.161778e+02" y="0" width="5.688889e+00" height="4.400612e+01"/><rect height="4.490746e+01" vector-effect="non-scaling-stroke" x="2.375111e+02" y="0" width="5.688889e+00"/><rect vector-effect="non-scaling-stroke" x="2.588444e+02" y="0" width="5.688889e+00" height="1.732070e+02"/><rect y="0" width="5.688889e+00" height="5.570157e+01" vector-effect="non-scaling-stroke" x="2.801778e+02"/><rect height="4.405264e+01" vector-effect="non-scaling-stroke" x="3.015111e+02" y="0" width="5.688889e+00"/><rect vector-effect="non-scaling-stroke" x="3.228444e+02" y="0" width="5.688889e+00" height="6.012659e+01"/><rect vector-effect="non-scaling-stroke" x="3.441778e+02" y="0" width="5.688889e+00" height="4.407210e+01"/><rect vector-effect="non-scaling-stroke" x="3.655111e+02" y="0" width="5.688889e+00" height="5.155243e+01"/><rect vector-effect="non-scaling-stroke" x="3.868444e+02" y="0" width="5.688889e+00" height="4.404596e+01"/><rect height="5.156325e+01" vector-effect="non-scaling-stroke" x="4.081778e+02" y="0" width="5.688889e+00"/><rect vector-effect="non-scaling-stroke" x="4.295111e+02" y="0" width="5.688889e+00" height="4.600786e+01"/><rect x="4.508444e+02" y="0" width="5.688889e+00" height="4.418950e+01" vector-effect="non-scaling-stroke"/><rect width="5.688889e+00" height="2.583647e+02" vector-effect="non-scaling-stroke" x="4.721778e+02" y="0"/><rect x="4.935111e+02" y="0" width="5.688889e+00" height="4.400801e+01" vector-effect="non-scaling-stroke"/><rect height="1.146048e+02" vector-effect="non-scaling-stroke" x="5.148444e+02" y="0" width="5.688889e+00"/><rect height="4.400099e+01" vector-effect="non-scaling-stroke" x="5.361778e+02" y="0" width="5.688889e+00"/><rect y="0" width="5.688889e+00" height="4.561417e+01" vector-effect="non-scaling-stroke" x="5.575111e+02"/><rect vector-effect="non-scaling-stroke" x="5.788444e+02" y="0" width="5.688889e+00" height="4.400004e+01"/></g><g text-anchor="start" stroke-linejoin="round" font-family="sans-serif" stroke="hsl(198, 47%, 65%)" stroke-width="1px" stroke-linecap="round" font-size="12px" font-style="normal" dominant-baseline="hanging" fill="hsl(198, 47%, 65%)" font-weight="normal"><rect vector-effect="non-scaling-stroke" x="736" y="466" width="12" height="12"/><g fill="black" stroke="black"><text dominant-baseline="hanging" stroke="none" vector-effect="non-scaling-stroke" x="752" y="466">Crystal</text></g><g stroke="hsl(49, 88%, 65%)" stroke-linejoin="round" font-size="12px" dominant-baseline="hanging" stroke-linecap="round" stroke-width="1px" font-weight="normal" font-family="sans-serif" font-style="normal" text-anchor="start" fill="hsl(49, 88%, 65%)"><rect y="484" width="12" height="12" vector-effect="non-scaling-stroke" x="736"/><g fill="black" stroke="black"><text vector-effect="non-scaling-stroke" x="752" y="484" dominant-baseline="hanging" stroke="none">Golang</text></g><g font-size="12px" font-style="normal" text-anchor="start" stroke="hsl(260, 76%, 65%)" font-weight="normal" fill="hsl(260, 76%, 65%)" stroke-width="1px" stroke-linecap="round" dominant-baseline="hanging" stroke-linejoin="round" font-family="sans-serif"><rect vector-effect="non-scaling-stroke" x="736" y="502" width="12" height="12"/><g stroke="black" fill="black"><text stroke="none" vector-effect="non-scaling-stroke" x="752" y="502" dominant-baseline="hanging">Rust</text><g stroke-width="2px" stroke-linecap="round" font-weight="normal" stroke-linejoin="round" font-style="normal" text-anchor="start" font-family="sans-serif" fill="none" font-size="12px" dominant-baseline="hanging"><rect width="640" height="440" vector-effect="non-scaling-stroke" x="80" y="80"/></g><g dominant-baseline="hanging" transform="translate(80 520 )scale(1 -1 )" fill="none" font-weight="normal" font-style="normal" font-family="sans-serif" font-size="12px" text-anchor="start" stroke-width="2px" stroke-linecap="round" stroke="black" stroke-linejoin="round"><path vector-effect="non-scaling-stroke" d="M64,0 L64,-6 "/></g><g font-family="sans-serif" font-weight="normal" stroke-width="2px" stroke="black" stroke-linejoin="round" transform="translate(80 520 )scale(1 1 )" fill="black" stroke-linecap="round" font-size="12px" font-style="normal" text-anchor="middle" dominant-baseline="hanging"><text vector-effect="non-scaling-stroke" x="64" y="10" dominant-baseline="hanging" stroke="none">1</text></g><g font-size="12px" text-anchor="middle" dominant-baseline="baseline" transform="translate(80 520 )scale(1 1 )rotate(0 0 0 )" stroke-linecap="round" stroke="black" stroke-linejoin="round" font-family="sans-serif" stroke-width="2px" font-weight="bold" font-style="normal" fill="black"><text y="-6" dominant-baseline="baseline" stroke="none" vector-effect="non-scaling-stroke" x="320">Day</text></g><g font-style="normal" dominant-baseline="baseline" stroke-linejoin="round" font-weight="bold" font-family="sans-serif" fill="black" stroke-width="2px" stroke-linecap="round" font-size="12px" text-anchor="middle" transform="translate(80 520 )scale(1 -1 )" stroke="black"><path vector-effect="non-scaling-stroke" d="M0,44 L-6,44 M0,7.920000e+01 L-6,7.920000e+01 M0,1.144000e+02 L-6,1.144000e+02 M0,1.496000e+02 L-6,1.496000e+02 M0,1.848000e+02 L-6,1.848000e+02 M0,220 L-6,220 M0,2.552000e+02 L-6,2.552000e+02 M0,2.904000e+02 L-6,2.904000e+02 M0,3.256000e+02 L-6,3.256000e+02 M0,3.608000e+02 L-6,3.608000e+02 M0,396 L-6,396 "/></g><g font-weight="normal" transform="translate(80 520 )scale(1 1 )" stroke-linecap="round" text-anchor="end" stroke="black" stroke-linejoin="round" font-family="sans-serif" font-size="12px" font-style="normal" dominant-baseline="middle" fill="black" stroke-width="2px"><text vector-effect="non-scaling-stroke" x="-10" y="-44" dominant-baseline="middle" stroke="none">0s</text><text vector-effect="non-scaling-stroke" x="-10" y="-7.920000e+01" dominant-baseline="middle" stroke="none">200ms</text><text x="-10" y="-1.144000e+02" dominant-baseline="middle" stroke="none" vector-effect="non-scaling-stroke">400ms</text><text x="-10" y="-1.496000e+02" dominant-baseline="middle" stroke="none" vector-effect="non-scaling-stroke">600ms</text><text stroke="none" vector-effect="non-scaling-stroke" x="-10" y="-1.848000e+02" dominant-baseline="middle">800ms</text><text dominant-baseline="middle" stroke="none" vector-effect="non-scaling-stroke" x="-10" y="-220">1s</text><text stroke="none" vector-effect="non-scaling-stroke" x="-10" y="-2.552000e+02" dominant-baseline="middle">1.2s</text><text x="-10" y="-2.904000e+02" dominant-baseline="middle" stroke="none" vector-effect="non-scaling-stroke">1.4s</text><text dominant-baseline="middle" stroke="none" vector-effect="non-scaling-stroke" x="-10" y="-3.256000e+02">1.6s</text><text dominant-baseline="middle" stroke="none" vector-effect="non-scaling-stroke" x="-10" y="-3.608000e+02">1.8s</text><text stroke="none" vector-effect="non-scaling-stroke" x="-10" y="-396" dominant-baseline="middle">2s</text></g><g transform="translate(80 520 )scale(1 1 )rotate(-90 0 0 )" stroke-linecap="round" stroke="black" stroke-linejoin="round" font-family="sans-serif" font-weight="bold" dominant-baseline="hanging" fill="black" stroke-width="2px" font-size="12px" font-style="normal" text-anchor="middle"><text stroke="none" vector-effect="non-scaling-stroke" x="220" y="6" dominant-baseline="hanging">Runtime</text></g></g></g></g></g></svg>