<svg width="800" height="600" viewbox="0 0 800 600" preserveAspectRatio="xMidYMid meet" xmlns="http://www.w3.org/2000/svg"><defs><marker markerHeight="2%" id="circle" viewBox="0 0 10 10 " refX="5" refY="5" markerUnits="userSpaceOnUse" markerWidth="2%"><circle cy="5" r="3" fill="none" stroke="black" cx="5"/></marker><marker refY="5" markerUnits="userSpaceOnUse" markerWidth="2%" markerHeight="2%" id="filled-circle" viewBox="0 0 10 10 " refX="5"><circle cx="5" cy="5" r="3" fill="black" stroke="none"/></marker><marker markerHeight="2%" id="square" viewBox="0 0 10 10 " refX="5" refY="5" markerUnits="userSpaceOnUse" markerWidth="2%"><rect x="2" y="2" width="6" height="6" fill="none" stroke="black"/></marker><marker id="filled-square" viewBox="0 0 10 10 " refX="5" refY="5" markerUnits="userSpaceOnUse" markerWidth="2%" markerHeight="2%"><rect y="2" width="6" height="6" fill="black" stroke="none" x="2"/></marker></defs><g stroke-width="1px" stroke-linecap="round" stroke-linejoin="round" transform="translate(80 520 )scale(1 -1 )" fill="hsl(198, 47%, 65%)" stroke="hsl(198, 47%, 65%)"><rect x="5.546667e+01" y="0" width="1.706667e+01" height="4.747299e+01" vector-effect="non-scaling-stroke"/><rect y="0" width="1.706667e+01" height="4.566462e+01" vector-effect="non-scaling-stroke" x="7.680000e+01"/><rect width="1.706667e+01" height="7.836057e+01" vector-effect="non-scaling-stroke" x="9.813333e+01" y="0"/><rect vector-effect="non-scaling-stroke" x="1.194667e+02" y="0" width="1.706667e+01" height="4.511543e+01"/><rect vector-effect="non-scaling-stroke" x="1.408000e+02" y="0" width="1.706667e+01" height="1.227384e+02"/><rect height="5.416188e+01" vector-effect="non-scaling-stroke" x="1.621333e+02" y="0" width="1.706667e+01"/><rect y="0" width="1.706667e+01" height="4.405159e+01" vector-effect="non-scaling-stroke" x="1.834667e+02"/><rect vector-effect="non-scaling-stroke" x="2.048000e+02" y="0" width="1.706667e+01" height="8.432340e+01"/><rect height="1.219869e+02" vector-effect="non-scaling-stroke" x="2.261333e+02" y="0" width="1.706667e+01"/><rect x="2.474667e+02" y="0" width="1.706667e+01" height="4.423058e+01" vector-effect="non-scaling-stroke"/><rect vector-effect="non-scaling-stroke" x="2.688000e+02" y="0" width="1.706667e+01" height="5.639499e+01"/><rect height="4.426244e+01" vector-effect="non-scaling-stroke" x="2.901333e+02" y="0" width="1.706667e+01"/><rect x="3.114667e+02" y="0" width="1.706667e+01" height="4.473026e+01" vector-effect="non-scaling-stroke"/><rect width="1.706667e+01" height="1.284336e+02" vector-effect="non-scaling-stroke" x="3.328000e+02" y="0"/><rect y="0" width="1.706667e+01" height="1.551408e+02" vector-effect="non-scaling-stroke" x="3.541333e+02"/><rect height="4.636361e+01" vector-effect="non-scaling-stroke" x="3.754667e+02" y="0" width="1.706667e+01"/><rect vector-effect="non-scaling-stroke" x="3.968000e+02" y="0" width="1.706667e+01" height="5.830391e+01"/><rect height="6.419091e+01" vector-effect="non-scaling-stroke" x="4.181333e+02" y="0" width="1.706667e+01"/><rect y="0" width="1.706667e+01" height="8.777271e+01" vector-effect="non-scaling-stroke" x="4.394667e+02"/><rect height="4.845791e+01" vector-effect="non-scaling-stroke" x="4.608000e+02" y="0" width="1.706667e+01"/><rect vector-effect="non-scaling-stroke" x="4.821333e+02" y="0" width="1.706667e+01" height="1.541799e+02"/><rect x="5.034667e+02" y="0" width="1.706667e+01" height="1.194718e+03" vector-effect="non-scaling-stroke"/><rect x="5.248000e+02" y="0" width="1.706667e+01" height="1.021550e+02" vector-effect="non-scaling-stroke"/><rect width="1.706667e+01" height="7.170267e+01" vector-effect="non-scaling-stroke" x="5.461333e+02" y="0"/><rect vector-effect="non-scaling-stroke" x="5.674667e+02" y="0" width="1.706667e+01" height="4.669560e+01"/></g><g stroke-linecap="round" stroke-linejoin="round" font-family="sans-serif" font-size="12px" fill="hsl(198, 47%, 65%)" font-style="normal" text-anchor="start" stroke-width="1px" font-weight="normal" stroke="hsl(198, 47%, 65%)" dominant-baseline="hanging"><rect x="736" y="502" width="12" height="12" vector-effect="non-scaling-stroke"/><g fill="black" stroke="black"><text dominant-baseline="hanging" stroke="none" vector-effect="non-scaling-stroke" x="752" y="502">Golang</text><g font-style="normal" stroke-width="2px" font-size="12px" dominant-baseline="hanging" stroke-linecap="round" stroke-linejoin="round" font-family="sans-serif" font-weight="normal" fill="none" text-anchor="start"><rect width="640" height="440" vector-effect="non-scaling-stroke" x="80" y="80"/></g><g stroke-width="2px" font-family="sans-serif" stroke="black" font-style="normal" text-anchor="start" font-size="12px" font-weight="normal" transform="translate(80 520 )scale(1 -1 )" stroke-linecap="round" stroke-linejoin="round" dominant-baseline="hanging" fill="none"><path vector-effect="non-scaling-stroke" d="M64,0 L64,-6 M8.533333e+01,0 L8.533333e+01,-6 M1.066667e+02,0 L1.066667e+02,-6 M128,0 L128,-6 M1.493333e+02,0 L1.493333e+02,-6 M1.706667e+02,0 L1.706667e+02,-6 M192,0 L192,-6 M2.133333e+02,0 L2.133333e+02,-6 M2.346667e+02,0 L2.346667e+02,-6 M256,0 L256,-6 M2.773333e+02,0 L2.773333e+02,-6 M2.986667e+02,0 L2.986667e+02,-6 M320,0 L320,-6 M3.413333e+02,0 L3.413333e+02,-6 M3.626667e+02,0 L3.626667e+02,-6 M384,0 L384,-6 M4.053333e+02,0 L4.053333e+02,-6 M4.266667e+02,0 L4.266667e+02,-6 M448,0 L448,-6 M4.693333e+02,0 L4.693333e+02,-6 M4.906667e+02,0 L4.906667e+02,-6 M512,0 L512,-6 M5.333333e+02,0 L5.333333e+02,-6 M5.546667e+02,0 L5.546667e+02,-6 M576,0 L576,-6 "/></g><g fill="black" stroke="black" font-style="normal" stroke-linecap="round" stroke-linejoin="round" font-family="sans-serif" font-size="12px" text-anchor="middle" dominant-baseline="hanging" font-weight="normal" transform="translate(80 520 )scale(1 1 )" stroke-width="2px"><text stroke="none" vector-effect="non-scaling-stroke" x="64" y="10" dominant-baseline="hanging">1</text><text stroke="none" vector-effect="non-scaling-stroke" x="8.533333e+01" y="10" dominant-baseline="hanging">2</text><text y="10" dominant-baseline="hanging" stroke="none" vector-effect="non-scaling-stroke" x="1.066667e+02">3</text><text x="128" y="10" dominant-baseline="hanging" stroke="none" vector-effect="non-scaling-stroke">4</text><text x="1.493333e+02" y="10" dominant-baseline="hanging" stroke="none" vector-effect="non-scaling-stroke">5</text><text y="10" dominant-baseline="hanging" stroke="none" vector-effect="non-scaling-stroke" x="1.706667e+02">6</text><text vector-effect="non-scaling-stroke" x="192" y="10" dominant-baseline="hanging" stroke="none">7</text><text vector-effect="non-scaling-stroke" x="2.133333e+02" y="10" dominant-baseline="hanging" stroke="none">8</text><text y="10" dominant-baseline="hanging" stroke="none" vector-effect="non-scaling-stroke" x="2.346667e+02">9</text><text stroke="none" vector-effect="non-scaling-stroke" x="256" y="10" dominant-baseline="hanging">10</text><text stroke="none" vector-effect="non-scaling-stroke" x="2.773333e+02" y="10" dominant-baseline="hanging">11</text><text vector-effect="non-scaling-stroke" x="2.986667e+02" y="10" dominant-baseline="hanging" stroke="none">12</text><text stroke="none" vector-effect="non-scaling-stroke" x="320" y="10" dominant-baseline="hanging">13</text><text stroke="none" vector-effect="non-scaling-stroke" x="3.413333e+02" y="10" dominant-baseline="hanging">14</text><text vector-effect="non-scaling-stroke" x="3.626667e+02" y="10" dominant-baseline="hanging" stroke="none">15</text><text x="384" y="10" dominant-baseline="hanging" stroke="none" vector-effect="non-scaling-stroke">16</text><text dominant-baseline="hanging" stroke="none" vector-effect="non-scaling-stroke" x="4.053333e+02" y="10">17</text><text y="10" dominant-baseline="hanging" stroke="none" vector-effect="non-scaling-stroke" x="4.266667e+02">18</text><text dominant-baseline="hanging" stroke="none" vector-effect="non-scaling-stroke" x="448" y="10">19</text><text stroke="none" vector-effect="non-scaling-stroke" x="4.693333e+02" y="10" dominant-baseline="hanging">20</text><text dominant-baseline="hanging" stroke="none" vector-effect="non-scaling-stroke" x="4.906667e+02" y="10">21</text><text x="512" y="10" dominant-baseline="hanging" stroke="none" vector-effect="non-scaling-stroke">22</text><text stroke="none" vector-effect="non-scaling-stroke" x="5.333333e+02" y="10" dominant-baseline="hanging">23</text><text dominant-baseline="hanging" stroke="none" vector-effect="non-scaling-stroke" x="5.546667e+02" y="10">24</text><text dominant-baseline="hanging" stroke="none" vector-effect="non-scaling-stroke" x="576" y="10">25</text></g><g font-style="normal" font-family="sans-serif" font-size="12px" stroke-linecap="round" dominant-baseline="baseline" fill="black" stroke="black" font-weight="bold" transform="translate(80 520 )scale(1 1 )rotate(0 0 0 )" stroke-width="2px" stroke-linejoin="round" text-anchor="middle"><text stroke="none" vector-effect="non-scaling-stroke" x="320" y="-6" dominant-baseline="baseline">Day</text></g><g stroke="black" font-style="normal" text-anchor="middle" stroke-width="2px" stroke-linejoin="round" fill="black" dominant-baseline="baseline" font-weight="bold" transform="translate(80 520 )scale(1 -1 )" stroke-linecap="round" font-family="sans-serif" font-size="12px"><path d="M0,44 L-6,44 M0,7.920000e+01 L-6,7.920000e+01 M0,1.144000e+02 L-6,1.144000e+02 M0,1.496000e+02 L-6,1.496000e+02 M0,1.848000e+02 L-6,1.848000e+02 M0,220 L-6,220 M0,2.552000e+02 L-6,2.552000e+02 M0,2.904000e+02 L-6,2.904000e+02 M0,3.256000e+02 L-6,3.256000e+02 M0,3.608000e+02 L-6,3.608000e+02 M0,396 L-6,396 " vector-effect="non-scaling-stroke"/></g><g font-weight="normal" stroke-linejoin="round" font-family="sans-serif" font-size="12px" stroke="black" transform="translate(80 520 )scale(1 1 )" stroke-width="2px" stroke-linecap="round" fill="black" font-style="normal" text-anchor="end" dominant-baseline="middle"><text y="-44" dominant-baseline="middle" stroke="none" vector-effect="non-scaling-stroke" x="-10">0s</text><text x="-10" y="-7.920000e+01" dominant-baseline="middle" stroke="none" vector-effect="non-scaling-stroke">200ms</text><text vector-effect="non-scaling-stroke" x="-10" y="-1.144000e+02" dominant-baseline="middle" stroke="none">400ms</text><text x="-10" y="-1.496000e+02" dominant-baseline="middle" stroke="none" vector-effect="non-scaling-stroke">600ms</text><text vector-effect="non-scaling-stroke" x="-10" y="-1.848000e+02" dominant-baseline="middle" stroke="none">800ms</text><text stroke="none" vector-effect="non-scaling-stroke" x="-10" y="-220" dominant-baseline="middle">1s</text><text vector-effect="non-scaling-stroke" x="-10" y="-2.552000e+02" dominant-baseline="middle" stroke="none">1.2s</text><text stroke="none" vector-effect="non-scaling-stroke" x="-10" y="-2.904000e+02" dominant-baseline="middle">1.4s</text><text stroke="none" vector-effect="non-scaling-stroke" x="-10" y="-3.256000e+02" dominant-baseline="middle">1.6s</text><text y="-3.608000e+02" dominant-baseline="middle" stroke="none" vector-effect="non-scaling-stroke" x="-10">1.8s</text><text x="-10" y="-396" dominant-baseline="middle" stroke="none" vector-effect="non-scaling-stroke">2s</text></g><g dominant-baseline="hanging" font-weight="bold" stroke-width="2px" stroke-linejoin="round" font-size="12px" font-style="normal" text-anchor="middle" transform="translate(80 520 )scale(1 1 )rotate(-90 0 0 )" stroke-linecap="round" font-family="sans-serif" fill="black" stroke="black"><text vector-effect="non-scaling-stroke" x="220" y="6" dominant-baseline="hanging" stroke="none">Runtime</text></g></g></g></svg>