<svg viewbox="0 0 800 600" preserveAspectRatio="xMidYMid meet" xmlns="http://www.w3.org/2000/svg" width="800" height="600"><defs><marker markerWidth="2%" markerHeight="2%" id="circle" viewBox="0 0 10 10 " refX="5" refY="5" markerUnits="userSpaceOnUse"><circle fill="none" stroke="black" cx="5" cy="5" r="3"/></marker><marker markerHeight="2%" id="filled-circle" viewBox="0 0 10 10 " refX="5" refY="5" markerUnits="userSpaceOnUse" markerWidth="2%"><circle cx="5" cy="5" r="3" fill="black" stroke="none"/></marker><marker refX="5" refY="5" markerUnits="userSpaceOnUse" markerWidth="2%" markerHeight="2%" id="square" viewBox="0 0 10 10 "><rect x="2" y="2" width="6" height="6" fill="none" stroke="black"/></marker><marker markerUnits="userSpaceOnUse" markerWidth="2%" markerHeight="2%" id="filled-square" viewBox="0 0 10 10 " refX="5" refY="5"><rect fill="black" stroke="none" x="2" y="2" width="6" height="6"/></marker></defs><g stroke-linejoin="round" transform="translate(80 520 )scale(1 -1 )" fill="hsl(198, 47%, 65%)" stroke="hsl(198, 47%, 65%)" stroke-width="1px" stroke-linecap="round"><rect y="0" width="8.533333e+00" height="4.400609e+01" vector-effect="non-scaling-stroke" x="5.546667e+01"/><rect y="0" width="8.533333e+00" height="4.400978e+01" vector-effect="non-scaling-stroke" x="7.680000e+01"/><rect y="0" width="8.533333e+00" height="4.401764e+01" vector-effect="non-scaling-stroke" x="9.813333e+01"/><rect x="1.194667e+02" y="0" width="8.533333e+00" height="4.489441e+01" vector-effect="non-scaling-stroke"/><rect width="8.533333e+00" height="8.972484e+01" vector-effect="non-scaling-stroke" x="1.408000e+02" y="0"/><rect vector-effect="non-scaling-stroke" x="1.621333e+02" y="0" width="8.533333e+00" height="5.315934e+01"/><rect height="4.553571e+01" vector-effect="non-scaling-stroke" x="1.834667e+02" y="0" width="8.533333e+00"/><rect vector-effect="non-scaling-stroke" x="2.048000e+02" y="0" width="8.533333e+00" height="4.435218e+01"/><rect y="0" width="8.533333e+00" height="4.407390e+01" vector-effect="non-scaling-stroke" x="2.261333e+02"/><rect width="8.533333e+00" height="4.424891e+01" vector-effect="non-scaling-stroke" x="2.474667e+02" y="0"/><rect vector-effect="non-scaling-stroke" x="2.688000e+02" y="0" width="8.533333e+00" height="4.407939e+01"/><rect width="8.533333e+00" height="4.589999e+01" vector-effect="non-scaling-stroke" x="2.901333e+02" y="0"/><rect vector-effect="non-scaling-stroke" x="3.114667e+02" y="0" width="8.533333e+00" height="5.919166e+01"/><rect width="8.533333e+00" height="5.822486e+01" vector-effect="non-scaling-stroke" x="3.328000e+02" y="0"/><rect y="0" width="8.533333e+00" height="3.351249e+02" vector-effect="non-scaling-stroke" x="3.541333e+02"/><rect x="3.754667e+02" y="0" width="8.533333e+00" height="1.528006e+02" vector-effect="non-scaling-stroke"/><rect x="3.968000e+02" y="0" width="8.533333e+00" height="1.807449e+02" vector-effect="non-scaling-stroke"/><rect x="4.181333e+02" y="0" width="8.533333e+00" height="4.837608e+01" vector-effect="non-scaling-stroke"/><rect y="0" width="8.533333e+00" height="4.412228e+01" vector-effect="non-scaling-stroke" x="4.394667e+02"/><rect y="0" width="8.533333e+00" height="2.350723e+02" vector-effect="non-scaling-stroke" x="4.608000e+02"/><rect y="0" width="8.533333e+00" height="8.167884e+01" vector-effect="non-scaling-stroke" x="4.821333e+02"/><rect x="5.034667e+02" y="0" width="8.533333e+00" height="7.742736e+01" vector-effect="non-scaling-stroke"/><rect width="8.533333e+00" height="4.487731e+01" vector-effect="non-scaling-stroke" x="5.248000e+02" y="0"/><rect height="1.115975e+02" vector-effect="non-scaling-stroke" x="5.461333e+02" y="0" width="8.533333e+00"/><rect y="0" width="8.533333e+00" height="6.180959e+01" vector-effect="non-scaling-stroke" x="5.674667e+02"/></g><g transform="translate(80 520 )scale(1 -1 )" fill="hsl(49, 88%, 65%)" stroke="hsl(49, 88%, 65%)" stroke-width="1px" stroke-linecap="round" stroke-linejoin="round"><rect vector-effect="non-scaling-stroke" x="64" y="0" width="8.533333e+00" height="4.400065e+01"/><rect x="8.533333e+01" y="0" width="8.533333e+00" height="4.400475e+01" vector-effect="non-scaling-stroke"/><rect height="4.400647e+01" vector-effect="non-scaling-stroke" x="1.066667e+02" y="0" width="8.533333e+00"/><rect width="8.533333e+00" height="4.577722e+01" vector-effect="non-scaling-stroke" x="128" y="0"/><rect height="6.704632e+01" vector-effect="non-scaling-stroke" x="1.493333e+02" y="0" width="8.533333e+00"/><rect y="0" width="8.533333e+00" height="4.474564e+01" vector-effect="non-scaling-stroke" x="1.706667e+02"/><rect y="0" width="8.533333e+00" height="4.436524e+01" vector-effect="non-scaling-stroke" x="192"/><rect x="2.133333e+02" y="0" width="8.533333e+00" height="4.411948e+01" vector-effect="non-scaling-stroke"/><rect y="0" width="8.533333e+00" height="4.402697e+01" vector-effect="non-scaling-stroke" x="2.346667e+02"/><rect y="0" width="8.533333e+00" height="4.405698e+01" vector-effect="non-scaling-stroke" x="2.560000e+02"/><rect height="4.404601e+01" vector-effect="non-scaling-stroke" x="2.773333e+02" y="0" width="8.533333e+00"/><rect height="4.448952e+01" vector-effect="non-scaling-stroke" x="2.986667e+02" y="0" width="8.533333e+00"/><rect x="320" y="0" width="8.533333e+00" height="2.453150e+02" vector-effect="non-scaling-stroke"/><rect x="3.413333e+02" y="0" width="8.533333e+00" height="5.674696e+01" vector-effect="non-scaling-stroke"/><rect x="3.626667e+02" y="0" width="8.533333e+00" height="396" vector-effect="non-scaling-stroke"/><rect width="8.533333e+00" height="5.492324e+01" vector-effect="non-scaling-stroke" x="384" y="0"/><rect vector-effect="non-scaling-stroke" x="4.053333e+02" y="0" width="8.533333e+00" height="1.619274e+02"/><rect height="4.400570e+01" vector-effect="non-scaling-stroke" x="4.266667e+02" y="0" width="8.533333e+00"/><rect x="448" y="0" width="8.533333e+00" height="4.402026e+01" vector-effect="non-scaling-stroke"/><rect y="0" width="8.533333e+00" height="5.386723e+01" vector-effect="non-scaling-stroke" x="4.693333e+02"/><rect width="8.533333e+00" height="4.400194e+01" vector-effect="non-scaling-stroke" x="4.906667e+02" y="0"/><rect width="8.533333e+00" height="7.647719e+01" vector-effect="non-scaling-stroke" x="512" y="0"/><rect vector-effect="non-scaling-stroke" x="5.333333e+02" y="0" width="8.533333e+00" height="4.401644e+01"/><rect vector-effect="non-scaling-stroke" x="5.546667e+02" y="0" width="8.533333e+00" height="8.646234e+01"/><rect height="6.888016e+01" vector-effect="non-scaling-stroke" x="576" y="0" width="8.533333e+00"/></g><g stroke-linejoin="round" font-family="sans-serif" text-anchor="start" font-size="12px" dominant-baseline="hanging" stroke-linecap="round" fill="hsl(198, 47%, 65%)" stroke="hsl(198, 47%, 65%)" font-style="normal" font-weight="normal" stroke-width="1px"><rect y="484" width="12" height="12" vector-effect="non-scaling-stroke" x="736"/><g fill="black" stroke="black"><text stroke="none" vector-effect="non-scaling-stroke" x="752" y="484" dominant-baseline="hanging">Golang</text></g><g fill="hsl(49, 88%, 65%)" stroke="hsl(49, 88%, 65%)" stroke-linejoin="round" font-size="12px" stroke-linecap="round" dominant-baseline="hanging" font-family="sans-serif" font-style="normal" font-weight="normal" text-anchor="start" stroke-width="1px"><rect vector-effect="non-scaling-stroke" x="736" y="502" width="12" height="12"/><g fill="black" stroke="black"><text dominant-baseline="hanging" stroke="none" vector-effect="non-scaling-stroke" x="752" y="502">Rust</text><g font-size="12px" font-style="normal" stroke-linecap="round" stroke-linejoin="round" font-family="sans-serif" font-weight="normal" text-anchor="start" stroke-width="2px" dominant-baseline="hanging" fill="none"><rect y="80" width="640" height="440" vector-effect="non-scaling-stroke" x="80"/></g><g font-family="sans-serif" font-weight="normal" text-anchor="start" stroke-width="2px" stroke-linecap="round" dominant-baseline="hanging" stroke="black" stroke-linejoin="round" transform="translate(80 520 )scale(1 -1 )" font-size="12px" fill="none" font-style="normal"><path vector-effect="non-scaling-stroke" d="M64,0 L64,-6 M8.533333e+01,0 L8.533333e+01,-6 M1.066667e+02,0 L1.066667e+02,-6 M128,0 L128,-6 M1.493333e+02,0 L1.493333e+02,-6 M1.706667e+02,0 L1.706667e+02,-6 M192,0 L192,-6 M2.133333e+02,0 L2.133333e+02,-6 M2.346667e+02,0 L2.346667e+02,-6 M256,0 L256,-6 M2.773333e+02,0 L2.773333e+02,-6 M2.986667e+02,0 L2.986667e+02,-6 M320,0 L320,-6 M3.413333e+02,0 L3.413333e+02,-6 M3.626667e+02,0 L3.626667e+02,-6 M384,0 L384,-6 M4.053333e+02,0 L4.053333e+02,-6 M4.266667e+02,0 L4.266667e+02,-6 M448,0 L448,-6 M4.693333e+02,0 L4.693333e+02,-6 M4.906667e+02,0 L4.906667e+02,-6 M512,0 L512,-6 M5.333333e+02,0 L5.333333e+02,-6 M5.546667e+02,0 L5.546667e+02,-6 M576,0 L576,-6 "/></g><g fill="black" stroke-linejoin="round" font-family="sans-serif" stroke-width="2px" stroke-linecap="round" dominant-baseline="hanging" transform="translate(80 520 )scale(1 1 )" text-anchor="middle" font-size="12px" stroke="black" font-style="normal" font-weight="normal"><text stroke="none" vector-effect="non-scaling-stroke" x="64" y="10" dominant-baseline="hanging">1</text><text vector-effect="non-scaling-stroke" x="8.533333e+01" y="10" dominant-baseline="hanging" stroke="none">2</text><text dominant-baseline="hanging" stroke="none" vector-effect="non-scaling-stroke" x="1.066667e+02" y="10">3</text><text dominant-baseline="hanging" stroke="none" vector-effect="non-scaling-stroke" x="128" y="10">4</text><text x="1.493333e+02" y="10" dominant-baseline="hanging" stroke="none" vector-effect="non-scaling-stroke">5</text><text x="1.706667e+02" y="10" dominant-baseline="hanging" stroke="none" vector-effect="non-scaling-stroke">6</text><text dominant-baseline="hanging" stroke="none" vector-effect="non-scaling-stroke" x="192" y="10">7</text><text stroke="none" vector-effect="non-scaling-stroke" x="2.133333e+02" y="10" dominant-baseline="hanging">8</text><text y="10" dominant-baseline="hanging" stroke="none" vector-effect="non-scaling-stroke" x="2.346667e+02">9</text><text y="10" dominant-baseline="hanging" stroke="none" vector-effect="non-scaling-stroke" x="256">10</text><text dominant-baseline="hanging" stroke="none" vector-effect="non-scaling-stroke" x="2.773333e+02" y="10">11</text><text stroke="none" vector-effect="non-scaling-stroke" x="2.986667e+02" y="10" dominant-baseline="hanging">12</text><text stroke="none" vector-effect="non-scaling-stroke" x="320" y="10" dominant-baseline="hanging">13</text><text y="10" dominant-baseline="hanging" stroke="none" vector-effect="non-scaling-stroke" x="3.413333e+02">14</text><text x="3.626667e+02" y="10" dominant-baseline="hanging" stroke="none" vector-effect="non-scaling-stroke">15</text><text x="384" y="10" dominant-baseline="hanging" stroke="none" vector-effect="non-scaling-stroke">16</text><text y="10" dominant-baseline="hanging" stroke="none" vector-effect="non-scaling-stroke" x="4.053333e+02">17</text><text y="10" dominant-baseline="hanging" stroke="none" vector-effect="non-scaling-stroke" x="4.266667e+02">18</text><text vector-effect="non-scaling-stroke" x="448" y="10" dominant-baseline="hanging" stroke="none">19</text><text stroke="none" vector-effect="non-scaling-stroke" x="4.693333e+02" y="10" dominant-baseline="hanging">20</text><text x="4.906667e+02" y="10" dominant-baseline="hanging" stroke="none" vector-effect="non-scaling-stroke">21</text><text dominant-baseline="hanging" stroke="none" vector-effect="non-scaling-stroke" x="512" y="10">22</text><text dominant-baseline="hanging" stroke="none" vector-effect="non-scaling-stroke" x="5.333333e+02" y="10">23</text><text stroke="none" vector-effect="non-scaling-stroke" x="5.546667e+02" y="10" dominant-baseline="hanging">24</text><text dominant-baseline="hanging" stroke="none" vector-effect="non-scaling-stroke" x="576" y="10">25</text></g><g font-weight="bold" text-anchor="middle" stroke-width="2px" stroke-linecap="round" font-style="normal" fill="black" stroke="black" stroke-linejoin="round" dominant-baseline="baseline" transform="translate(80 520 )scale(1 1 )rotate(0 0 0 )" font-size="12px" font-family="sans-serif"><text x="320" y="-6" dominant-baseline="baseline" stroke="none" vector-effect="non-scaling-stroke">Day</text></g><g font-style="normal" font-weight="bold" text-anchor="middle" fill="black" stroke-linejoin="round" font-family="sans-serif" stroke-linecap="round" font-size="12px" dominant-baseline="baseline" stroke="black" transform="translate(80 520 )scale(1 -1 )" stroke-width="2px"><path vector-effect="non-scaling-stroke" d="M0,44 L-6,44 M0,1.010648e+02 L-6,1.010648e+02 M0,1.581297e+02 L-6,1.581297e+02 M0,2.151945e+02 L-6,2.151945e+02 M0,2.722593e+02 L-6,2.722593e+02 M0,3.293242e+02 L-6,3.293242e+02 M0,3.863890e+02 L-6,3.863890e+02 "/></g><g stroke-width="2px" stroke="black" stroke-linejoin="round" font-style="normal" font-weight="normal" text-anchor="end" stroke-linecap="round" transform="translate(80 520 )scale(1 1 )" font-family="sans-serif" fill="black" font-size="12px" dominant-baseline="middle"><text x="-10" y="-44" dominant-baseline="middle" stroke="none" vector-effect="non-scaling-stroke">0s</text><text x="-10" y="-1.010648e+02" dominant-baseline="middle" stroke="none" vector-effect="non-scaling-stroke">100ms</text><text dominant-baseline="middle" stroke="none" vector-effect="non-scaling-stroke" x="-10" y="-1.581297e+02">200ms</text><text x="-10" y="-2.151945e+02" dominant-baseline="middle" stroke="none" vector-effect="non-scaling-stroke">300ms</text><text stroke="none" vector-effect="non-scaling-stroke" x="-10" y="-2.722593e+02" dominant-baseline="middle">400ms</text><text x="-10" y="-3.293242e+02" dominant-baseline="middle" stroke="none" vector-effect="non-scaling-stroke">500ms</text><text x="-10" y="-3.863890e+02" dominant-baseline="middle" stroke="none" vector-effect="non-scaling-stroke">600ms</text></g><g stroke-linejoin="round" font-weight="bold" stroke-linecap="round" font-size="12px" dominant-baseline="hanging" transform="translate(80 520 )scale(1 1 )rotate(-90 0 0 )" fill="black" stroke="black" font-family="sans-serif" font-style="normal" text-anchor="middle" stroke-width="2px"><text x="220" y="6" dominant-baseline="hanging" stroke="none" vector-effect="non-scaling-stroke">Runtime</text></g></g></g></g></svg>