<svg preserveAspectRatio="xMidYMid meet" xmlns="http://www.w3.org/2000/svg" width="800" height="600" viewbox="0 0 800 600"><defs><marker id="circle" viewBox="0 0 10 10 " refX="5" refY="5" markerUnits="userSpaceOnUse" markerWidth="2%" markerHeight="2%"><circle cx="5" cy="5" r="3" fill="none" stroke="black"/></marker><marker markerWidth="2%" markerHeight="2%" id="filled-circle" viewBox="0 0 10 10 " refX="5" refY="5" markerUnits="userSpaceOnUse"><circle cy="5" r="3" fill="black" stroke="none" cx="5"/></marker><marker markerUnits="userSpaceOnUse" markerWidth="2%" markerHeight="2%" id="square" viewBox="0 0 10 10 " refX="5" refY="5"><rect fill="none" stroke="black" x="2" y="2" width="6" height="6"/></marker><marker refY="5" markerUnits="userSpaceOnUse" markerWidth="2%" markerHeight="2%" id="filled-square" viewBox="0 0 10 10 " refX="5"><rect x="2" y="2" width="6" height="6" fill="black" stroke="none"/></marker></defs><g stroke-linejoin="round" transform="translate(80 520 )scale(1 -1 )" fill="hsl(198, 47%, 65%)" stroke="hsl(198, 47%, 65%)" stroke-width="1px" stroke-linecap="round"><rect y="0" width="5.688889e+00" height="4.415809e+01" vector-effect="non-scaling-stroke" x="5.546667e+01"/><rect height="4.523563e+01" vector-effect="non-scaling-stroke" x="7.680000e+01" y="0" width="5.688889e+00"/><rect vector-effect="non-scaling-stroke" x="9.813333e+01" y="0" width="5.688889e+00" height="6.569389e+01"/><rect height="4.469803e+01" vector-effect="non-scaling-stroke" x="1.194667e+02" y="0" width="5.688889e+00"/><rect height="1.068547e+02" vector-effect="non-scaling-stroke" x="1.408000e+02" y="0" width="5.688889e+00"/><rect vector-effect="non-scaling-stroke" x="1.621333e+02" y="0" width="5.688889e+00" height="5.139323e+01"/><rect vector-effect="non-scaling-stroke" x="1.834667e+02" y="0" width="5.688889e+00" height="4.404491e+01"/><rect vector-effect="non-scaling-stroke" x="2.048000e+02" y="0" width="5.688889e+00" height="4.406107e+01"/><rect width="5.688889e+00" height="9.368740e+01" vector-effect="non-scaling-stroke" x="2.261333e+02" y="0"/><rect width="5.688889e+00" height="4.430369e+01" vector-effect="non-scaling-stroke" x="2.474667e+02" y="0"/><rect height="5.081745e+01" vector-effect="non-scaling-stroke" x="2.688000e+02" y="0" width="5.688889e+00"/><rect vector-effect="non-scaling-stroke" x="2.901333e+02" y="0" width="5.688889e+00" height="4.446928e+01"/><rect x="3.114667e+02" y="0" width="5.688889e+00" height="4.542540e+01" vector-effect="non-scaling-stroke"/><rect width="5.688889e+00" height="7.288509e+01" vector-effect="non-scaling-stroke" x="3.328000e+02" y="0"/><rect vector-effect="non-scaling-stroke" x="3.541333e+02" y="0" width="5.688889e+00" height="1.507736e+02"/><rect x="3.754667e+02" y="0" width="5.688889e+00" height="4.801909e+01" vector-effect="non-scaling-stroke"/><rect x="3.968000e+02" y="0" width="5.688889e+00" height="5.524309e+01" vector-effect="non-scaling-stroke"/><rect y="0" width="5.688889e+00" height="8.767016e+01" vector-effect="non-scaling-stroke" x="4.181333e+02"/><rect y="0" width="5.688889e+00" height="6.010590e+01" vector-effect="non-scaling-stroke" x="4.394667e+02"/><rect height="5.108130e+01" vector-effect="non-scaling-stroke" x="4.608000e+02" y="0" width="5.688889e+00"/><rect vector-effect="non-scaling-stroke" x="4.821333e+02" y="0" width="5.688889e+00" height="1.082843e+02"/><rect x="5.034667e+02" y="0" width="5.688889e+00" height="2.753499e+02" vector-effect="non-scaling-stroke"/><rect x="5.248000e+02" y="0" width="5.688889e+00" height="8.374874e+01" vector-effect="non-scaling-stroke"/><rect vector-effect="non-scaling-stroke" x="5.461333e+02" y="0" width="5.688889e+00" height="6.711771e+01"/><rect width="5.688889e+00" height="4.608478e+01" vector-effect="non-scaling-stroke" x="5.674667e+02" y="0"/></g><g fill="hsl(49, 88%, 65%)" stroke="hsl(49, 88%, 65%)" stroke-width="1px" stroke-linecap="round" stroke-linejoin="round" transform="translate(80 520 )scale(1 -1 )"><rect width="5.688889e+00" height="4.416791e+01" vector-effect="non-scaling-stroke" x="6.115556e+01" y="0"/><rect width="5.688889e+00" height="4.411244e+01" vector-effect="non-scaling-stroke" x="8.248889e+01" y="0"/><rect vector-effect="non-scaling-stroke" x="1.038222e+02" y="0" width="5.688889e+00" height="4.511994e+01"/><rect height="4.400193e+01" vector-effect="non-scaling-stroke" x="1.251556e+02" y="0" width="5.688889e+00"/><rect x="1.464889e+02" y="0" width="5.688889e+00" height="4.527074e+01" vector-effect="non-scaling-stroke"/><rect vector-effect="non-scaling-stroke" x="1.678222e+02" y="0" width="5.688889e+00" height="4.569708e+01"/><rect vector-effect="non-scaling-stroke" x="1.891556e+02" y="0" width="5.688889e+00" height="4.400099e+01"/><rect width="5.688889e+00" height="4.401772e+01" vector-effect="non-scaling-stroke" x="2.104889e+02" y="0"/><rect x="2.318222e+02" y="0" width="5.688889e+00" height="5.412436e+01" vector-effect="non-scaling-stroke"/><rect width="5.688889e+00" height="4.400148e+01" vector-effect="non-scaling-stroke" x="2.531556e+02" y="0"/><rect y="0" width="5.688889e+00" height="4.454889e+01" vector-effect="non-scaling-stroke" x="2.744889e+02"/><rect y="0" width="5.688889e+00" height="4.401445e+01" vector-effect="non-scaling-stroke" x="2.958222e+02"/><rect x="3.171556e+02" y="0" width="5.688889e+00" height="4.482065e+01" vector-effect="non-scaling-stroke"/><rect width="5.688889e+00" height="6.912164e+01" vector-effect="non-scaling-stroke" x="3.384889e+02" y="0"/><rect height="8.010433e+01" vector-effect="non-scaling-stroke" x="3.598222e+02" y="0" width="5.688889e+00"/><rect height="4.403318e+01" vector-effect="non-scaling-stroke" x="3.811556e+02" y="0" width="5.688889e+00"/><rect height="4.419601e+01" vector-effect="non-scaling-stroke" x="4.024889e+02" y="0" width="5.688889e+00"/><rect x="4.238222e+02" y="0" width="5.688889e+00" height="4.888269e+01" vector-effect="non-scaling-stroke"/><rect x="4.451556e+02" y="0" width="5.688889e+00" height="5.526272e+01" vector-effect="non-scaling-stroke"/><rect x="4.664889e+02" y="0" width="5.688889e+00" height="4.405087e+01" vector-effect="non-scaling-stroke"/><rect vector-effect="non-scaling-stroke" x="4.878222e+02" y="0" width="5.688889e+00" height="4.403462e+01"/><rect y="0" width="5.688889e+00" height="4.740066e+01" vector-effect="non-scaling-stroke" x="5.091556e+02"/><rect x="5.304889e+02" y="0" width="5.688889e+00" height="5.952210e+01" vector-effect="non-scaling-stroke"/><rect x="5.518222e+02" y="0" width="5.688889e+00" height="5.606796e+01" vector-effect="non-scaling-stroke"/><rect height="4.447237e+01" vector-effect="non-scaling-stroke" x="5.731556e+02" y="0" width="5.688889e+00"/></g><g transform="translate(80 520 )scale(1 -1 )" fill="hsl(260, 76%, 65%)" stroke="hsl(260, 76%, 65%)" stroke-width="1px" stroke-linecap="round" stroke-linejoin="round"><rect vector-effect="non-scaling-stroke" x="6.684444e+01" y="0" width="5.688889e+00" height="4.416613e+01"/><rect x="8.817778e+01" y="0" width="5.688889e+00" height="4.401213e+01" vector-effect="non-scaling-stroke"/><rect y="0" width="5.688889e+00" height="4.461353e+01" vector-effect="non-scaling-stroke" x="1.095111e+02"/><rect vector-effect="non-scaling-stroke" x="1.308444e+02" y="0" width="5.688889e+00" height="4.400203e+01"/><rect y="0" width="5.688889e+00" height="4.472854e+01" vector-effect="non-scaling-stroke" x="1.521778e+02"/><rect width="5.688889e+00" height="4.561015e+01" vector-effect="non-scaling-stroke" x="1.735111e+02" y="0"/><rect vector-effect="non-scaling-stroke" x="1.948444e+02" y="0" width="5.688889e+00" height="4.400067e+01"/><rect vector-effect="non-scaling-stroke" x="2.161778e+02" y="0" width="5.688889e+00" height="4.401374e+01"/><rect vector-effect="non-scaling-stroke" x="2.375111e+02" y="0" width="5.688889e+00" height="5.255368e+01"/><rect height="4.400101e+01" vector-effect="non-scaling-stroke" x="2.588444e+02" y="0" width="5.688889e+00"/><rect vector-effect="non-scaling-stroke" x="2.801778e+02" y="0" width="5.688889e+00" height="4.448836e+01"/><rect vector-effect="non-scaling-stroke" x="3.015111e+02" y="0" width="5.688889e+00" height="4.400780e+01"/><rect width="5.688889e+00" height="4.730181e+01" vector-effect="non-scaling-stroke" x="3.228444e+02" y="0"/><rect vector-effect="non-scaling-stroke" x="3.441778e+02" y="0" width="5.688889e+00" height="8.980678e+01"/><rect x="3.655111e+02" y="0" width="5.688889e+00" height="7.685049e+01" vector-effect="non-scaling-stroke"/><rect y="0" width="5.688889e+00" height="4.403028e+01" vector-effect="non-scaling-stroke" x="3.868444e+02"/><rect vector-effect="non-scaling-stroke" x="4.081778e+02" y="0" width="5.688889e+00" height="396"/><rect width="5.688889e+00" height="4.644601e+01" vector-effect="non-scaling-stroke" x="4.295111e+02" y="0"/><rect height="4.400120e+01" vector-effect="non-scaling-stroke" x="4.508444e+02" y="0" width="5.688889e+00"/><rect y="0" width="5.688889e+00" height="4.404803e+01" vector-effect="non-scaling-stroke" x="4.721778e+02"/><rect width="5.688889e+00" height="4.403518e+01" vector-effect="non-scaling-stroke" x="4.935111e+02" y="0"/><rect y="0" width="5.688889e+00" height="4.463696e+01" vector-effect="non-scaling-stroke" x="5.148444e+02"/><rect width="5.688889e+00" height="5.189398e+01" vector-effect="non-scaling-stroke" x="5.361778e+02" y="0"/><rect y="0" width="5.688889e+00" height="4.520116e+01" vector-effect="non-scaling-stroke" x="5.575111e+02"/><rect x="5.788444e+02" y="0" width="5.688889e+00" height="4.416999e+01" vector-effect="non-scaling-stroke"/></g><g font-style="normal" stroke-linecap="round" font-weight="normal" stroke-width="1px" font-size="12px" stroke-linejoin="round" fill="hsl(198, 47%, 65%)" font-family="sans-serif" text-anchor="start" dominant-baseline="hanging" stroke="hsl(198, 47%, 65%)"><rect vector-effect="non-scaling-stroke" x="736" y="466" width="12" height="12"/><g fill="black" stroke="black"><text dominant-baseline="hanging" stroke="none" vector-effect="non-scaling-stroke" x="752" y="466">Golang</text></g><g fill="hsl(49, 88%, 65%)" stroke-linejoin="round" font-size="12px" dominant-baseline="hanging" stroke-width="1px" text-anchor="start" stroke="hsl(49, 88%, 65%)" font-style="normal" stroke-linecap="round" font-family="sans-serif" font-weight="normal"><rect x="736" y="484" width="12" height="12" vector-effect="non-scaling-stroke"/><g fill="black" stroke="black"><text x="752" y="484" dominant-baseline="hanging" stroke="none" vector-effect="non-scaling-stroke">Rust</text></g><g stroke="hsl(260, 76%, 65%)" font-family="sans-serif" font-weight="normal" dominant-baseline="hanging" stroke-width="1px" stroke-linejoin="round" font-size="12px" fill="hsl(260, 76%, 65%)" font-style="normal" text-anchor="start" stroke-linecap="round"><rect x="736" y="502" width="12" height="12" vector-effect="non-scaling-stroke"/><g stroke="black" fill="black"><text x="752" y="502" dominant-baseline="hanging" stroke="none" vector-effect="non-scaling-stroke">Zig</text><g fill="none" stroke-width="2px" font-style="normal" dominant-baseline="hanging" stroke-linecap="round" font-weight="normal" font-size="12px" font-family="sans-serif" stroke-linejoin="round" text-anchor="start"><rect vector-effect="non-scaling-stroke" x="80" y="80" width="640" height="440"/></g><g stroke-width="2px" font-family="sans-serif" transform="translate(80 520 )scale(1 -1 )" stroke="black" font-size="12px" font-style="normal" dominant-baseline="hanging" stroke-linecap="round" font-weight="normal" text-anchor="start" fill="none" stroke-linejoin="round"><path vector-effect="non-scaling-stroke" d="M64,0 L64,-6 M8.533333e+01,0 L8.533333e+01,-6 M1.066667e+02,0 L1.066667e+02,-6 M128,0 L128,-6 M1.493333e+02,0 L1.493333e+02,-6 M1.706667e+02,0 L1.706667e+02,-6 M192,0 L192,-6 M2.133333e+02,0 L2.133333e+02,-6 M2.346667e+02,0 L2.346667e+02,-6 M256,0 L256,-6 M2.773333e+02,0 L2.773333e+02,-6 M2.986667e+02,0 L2.986667e+02,-6 M320,0 L320,-6 M3.413333e+02,0 L3.413333e+02,-6 M3.626667e+02,0 L3.626667e+02,-6 M384,0 L384,-6 M4.053333e+02,0 L4.053333e+02,-6 M4.266667e+02,0 L4.266667e+02,-6 M448,0 L448,-6 M4.693333e+02,0 L4.693333e+02,-6 M4.906667e+02,0 L4.906667e+02,-6 M512,0 L512,-6 M5.333333e+02,0 L5.333333e+02,-6 M5.546667e+02,0 L5.546667e+02,-6 M576,0 L576,-6 "/></g><g font-size="12px" transform="translate(80 520 )scale(1 1 )" font-family="sans-serif" dominant-baseline="hanging" stroke="black" stroke-width="2px" stroke-linejoin="round" font-style="normal" fill="black" stroke-linecap="round" font-weight="normal" text-anchor="middle"><text vector-effect="non-scaling-stroke" x="64" y="10" dominant-baseline="hanging" stroke="none">1</text><text stroke="none" vector-effect="non-scaling-stroke" x="8.533333e+01" y="10" dominant-baseline="hanging">2</text><text dominant-baseline="hanging" stroke="none" vector-effect="non-scaling-stroke" x="1.066667e+02" y="10">3</text><text y="10" dominant-baseline="hanging" stroke="none" vector-effect="non-scaling-stroke" x="128">4</text><text y="10" dominant-baseline="hanging" stroke="none" vector-effect="non-scaling-stroke" x="1.493333e+02">5</text><text stroke="none" vector-effect="non-scaling-stroke" x="1.706667e+02" y="10" dominant-baseline="hanging">6</text><text vector-effect="non-scaling-stroke" x="192" y="10" dominant-baseline="hanging" stroke="none">7</text><text stroke="none" vector-effect="non-scaling-stroke" x="2.133333e+02" y="10" dominant-baseline="hanging">8</text><text dominant-baseline="hanging" stroke="none" vector-effect="non-scaling-stroke" x="2.346667e+02" y="10">9</text><text dominant-baseline="hanging" stroke="none" vector-effect="non-scaling-stroke" x="256" y="10">10</text><text vector-effect="non-scaling-stroke" x="2.773333e+02" y="10" dominant-baseline="hanging" stroke="none">11</text><text stroke="none" vector-effect="non-scaling-stroke" x="2.986667e+02" y="10" dominant-baseline="hanging">12</text><text y="10" dominant-baseline="hanging" stroke="none" vector-effect="non-scaling-stroke" x="320">13</text><text x="3.413333e+02" y="10" dominant-baseline="hanging" stroke="none" vector-effect="non-scaling-stroke">14</text><text dominant-baseline="hanging" stroke="none" vector-effect="non-scaling-stroke" x="3.626667e+02" y="10">15</text><text vector-effect="non-scaling-stroke" x="384" y="10" dominant-baseline="hanging" stroke="none">16</text><text x="4.053333e+02" y="10" dominant-baseline="hanging" stroke="none" vector-effect="non-scaling-stroke">17</text><text y="10" dominant-baseline="hanging" stroke="none" vector-effect="non-scaling-stroke" x="4.266667e+02">18</text><text vector-effect="non-scaling-stroke" x="448" y="10" dominant-baseline="hanging" stroke="none">19</text><text dominant-baseline="hanging" stroke="none" vector-effect="non-scaling-stroke" x="4.693333e+02" y="10">20</text><text vector-effect="non-scaling-stroke" x="4.906667e+02" y="10" dominant-baseline="hanging" stroke="none">21</text><text vector-effect="non-scaling-stroke" x="512" y="10" dominant-baseline="hanging" stroke="none">22</text><text dominant-baseline="hanging" stroke="none" vector-effect="non-scaling-stroke" x="5.333333e+02" y="10">23</text><text x="5.546667e+02" y="10" dominant-baseline="hanging" stroke="none" vector-effect="non-scaling-stroke">24</text><text y="10" dominant-baseline="hanging" stroke="none" vector-effect="non-scaling-stroke" x="576">25</text></g><g stroke="black" stroke-linejoin="round" font-size="12px" font-style="normal" stroke-width="2px" font-family="sans-serif" font-weight="bold" text-anchor="middle" dominant-baseline="baseline" fill="black" transform="translate(80 520 )scale(1 1 )rotate(0 0 0 )" stroke-linecap="round"><text stroke="none" vector-effect="non-scaling-stroke" x="320" y="-6" dominant-baseline="baseline">Day</text></g><g font-family="sans-serif" font-weight="bold" dominant-baseline="baseline" stroke-width="2px" stroke-linejoin="round" font-style="normal" transform="translate(80 520 )scale(1 -1 )" fill="black" stroke-linecap="round" font-size="12px" stroke="black" text-anchor="middle"><path vector-effect="non-scaling-stroke" d="M0,44 L-6,44 M0,9.305271e+01 L-6,9.305271e+01 M0,1.421054e+02 L-6,1.421054e+02 M0,1.911581e+02 L-6,1.911581e+02 M0,2.402108e+02 L-6,2.402108e+02 M0,2.892636e+02 L-6,2.892636e+02 M0,3.383163e+02 L-6,3.383163e+02 M0,3.873690e+02 L-6,3.873690e+02 "/></g><g fill="black" font-family="sans-serif" text-anchor="end" dominant-baseline="middle" font-size="12px" font-style="normal" transform="translate(80 520 )scale(1 1 )" stroke-linecap="round" font-weight="normal" stroke-width="2px" stroke="black" stroke-linejoin="round"><text stroke="none" vector-effect="non-scaling-stroke" x="-10" y="-44" dominant-baseline="middle">0s</text><text stroke="none" vector-effect="non-scaling-stroke" x="-10" y="-9.305271e+01" dominant-baseline="middle">200ms</text><text stroke="none" vector-effect="non-scaling-stroke" x="-10" y="-1.421054e+02" dominant-baseline="middle">400ms</text><text vector-effect="non-scaling-stroke" x="-10" y="-1.911581e+02" dominant-baseline="middle" stroke="none">600ms</text><text x="-10" y="-2.402108e+02" dominant-baseline="middle" stroke="none" vector-effect="non-scaling-stroke">800ms</text><text vector-effect="non-scaling-stroke" x="-10" y="-2.892636e+02" dominant-baseline="middle" stroke="none">1s</text><text vector-effect="non-scaling-stroke" x="-10" y="-3.383163e+02" dominant-baseline="middle" stroke="none">1.2s</text><text dominant-baseline="middle" stroke="none" vector-effect="non-scaling-stroke" x="-10" y="-3.873690e+02">1.4s</text></g><g stroke="black" stroke-linejoin="round" stroke-width="2px" stroke-linecap="round" dominant-baseline="hanging" fill="black" font-size="12px" font-style="normal" transform="translate(80 520 )scale(1 1 )rotate(-90 0 0 )" font-family="sans-serif" font-weight="bold" text-anchor="middle"><text dominant-baseline="hanging" stroke="none" vector-effect="non-scaling-stroke" x="220" y="6">Runtime</text></g></g></g></g></g></svg>