<svg width="800" height="600" viewbox="0 0 800 600" preserveAspectRatio="xMidYMid meet" xmlns="http://www.w3.org/2000/svg"><defs><marker markerUnits="userSpaceOnUse" markerWidth="2%" markerHeight="2%" id="circle" viewBox="0 0 10 10 " refX="5" refY="5"><circle cx="5" cy="5" r="3" fill="none" stroke="black"/></marker><marker markerHeight="2%" id="filled-circle" viewBox="0 0 10 10 " refX="5" refY="5" markerUnits="userSpaceOnUse" markerWidth="2%"><circle cx="5" cy="5" r="3" fill="black" stroke="none"/></marker><marker markerHeight="2%" id="square" viewBox="0 0 10 10 " refX="5" refY="5" markerUnits="userSpaceOnUse" markerWidth="2%"><rect height="6" fill="none" stroke="black" x="2" y="2" width="6"/></marker><marker markerWidth="2%" markerHeight="2%" id="filled-square" viewBox="0 0 10 10 " refX="5" refY="5" markerUnits="userSpaceOnUse"><rect stroke="none" x="2" y="2" width="6" height="6" fill="black"/></marker></defs><g fill="hsl(198, 47%, 65%)" stroke="hsl(198, 47%, 65%)" stroke-width="1px" stroke-linecap="round" stroke-linejoin="round" transform="translate(80 520 )scale(1 -1 )"><rect y="0" width="5.688889e+00" height="4.400464e+01" vector-effect="non-scaling-stroke" x="5.546667e+01"/></g><g stroke-linecap="round" stroke-linejoin="round" transform="translate(80 520 )scale(1 -1 )" fill="hsl(49, 88%, 65%)" stroke="hsl(49, 88%, 65%)" stroke-width="1px"><rect width="5.688889e+00" height="4.400206e+01" vector-effect="non-scaling-stroke" x="6.115556e+01" y="0"/><rect width="5.688889e+00" height="4.408086e+01" vector-effect="non-scaling-stroke" x="8.248889e+01" y="0"/><rect y="0" width="5.688889e+00" height="4.409723e+01" vector-effect="non-scaling-stroke" x="1.038222e+02"/><rect height="2.107685e+02" vector-effect="non-scaling-stroke" x="1.251556e+02" y="0" width="5.688889e+00"/><rect vector-effect="non-scaling-stroke" x="1.464889e+02" y="0" width="5.688889e+00" height="4.404426e+01"/><rect y="0" width="5.688889e+00" height="5.542286e+01" vector-effect="non-scaling-stroke" x="1.678222e+02"/><rect vector-effect="non-scaling-stroke" x="1.891556e+02" y="0" width="5.688889e+00" height="4.404342e+01"/><rect height="4.400373e+01" vector-effect="non-scaling-stroke" x="2.104889e+02" y="0" width="5.688889e+00"/><rect x="2.318222e+02" y="0" width="5.688889e+00" height="4.622952e+01" vector-effect="non-scaling-stroke"/><rect y="0" width="5.688889e+00" height="5.460722e+01" vector-effect="non-scaling-stroke" x="2.531556e+02"/><rect width="5.688889e+00" height="4.871157e+01" vector-effect="non-scaling-stroke" x="2.744889e+02" y="0"/><rect height="4.415016e+01" vector-effect="non-scaling-stroke" x="2.958222e+02" y="0" width="5.688889e+00"/><rect width="5.688889e+00" height="5.833423e+01" vector-effect="non-scaling-stroke" x="3.171556e+02" y="0"/><rect vector-effect="non-scaling-stroke" x="3.384889e+02" y="0" width="5.688889e+00" height="4.404200e+01"/><rect vector-effect="non-scaling-stroke" x="3.598222e+02" y="0" width="5.688889e+00" height="5.385255e+01"/><rect vector-effect="non-scaling-stroke" x="3.811556e+02" y="0" width="5.688889e+00" height="4.408992e+01"/><rect vector-effect="non-scaling-stroke" x="4.024889e+02" y="0" width="5.688889e+00" height="5.534909e+01"/><rect y="0" width="5.688889e+00" height="4.468289e+01" vector-effect="non-scaling-stroke" x="4.238222e+02"/><rect height="4.409594e+01" vector-effect="non-scaling-stroke" x="4.451556e+02" y="0" width="5.688889e+00"/><rect height="6.740130e+02" vector-effect="non-scaling-stroke" x="4.664889e+02" y="0" width="5.688889e+00"/><rect x="4.878222e+02" y="0" width="5.688889e+00" height="4.409445e+01" vector-effect="non-scaling-stroke"/><rect x="5.091556e+02" y="0" width="5.688889e+00" height="1.244924e+02" vector-effect="non-scaling-stroke"/><rect vector-effect="non-scaling-stroke" x="5.304889e+02" y="0" width="5.688889e+00" height="4.400394e+01"/><rect height="6.975917e+01" vector-effect="non-scaling-stroke" x="5.518222e+02" y="0" width="5.688889e+00"/><rect vector-effect="non-scaling-stroke" x="5.731556e+02" y="0" width="5.688889e+00" height="4.400157e+01"/></g><g stroke-linecap="round" stroke-linejoin="round" transform="translate(80 520 )scale(1 -1 )" fill="hsl(260, 76%, 65%)" stroke="hsl(260, 76%, 65%)" stroke-width="1px"><rect vector-effect="non-scaling-stroke" x="6.684444e+01" y="0" width="5.688889e+00" height="4.400059e+01"/><rect height="4.400954e+01" vector-effect="non-scaling-stroke" x="8.817778e+01" y="0" width="5.688889e+00"/><rect height="4.409449e+01" vector-effect="non-scaling-stroke" x="1.095111e+02" y="0" width="5.688889e+00"/><rect vector-effect="non-scaling-stroke" x="1.308444e+02" y="0" width="5.688889e+00" height="2.792670e+02"/><rect width="5.688889e+00" height="4.403840e+01" vector-effect="non-scaling-stroke" x="1.521778e+02" y="0"/><rect width="5.688889e+00" height="5.075967e+01" vector-effect="non-scaling-stroke" x="1.735111e+02" y="0"/><rect height="4.404131e+01" vector-effect="non-scaling-stroke" x="1.948444e+02" y="0" width="5.688889e+00"/><rect y="0" width="5.688889e+00" height="4.400612e+01" vector-effect="non-scaling-stroke" x="2.161778e+02"/><rect y="0" width="5.688889e+00" height="4.490746e+01" vector-effect="non-scaling-stroke" x="2.375111e+02"/><rect width="5.688889e+00" height="1.732070e+02" vector-effect="non-scaling-stroke" x="2.588444e+02" y="0"/><rect vector-effect="non-scaling-stroke" x="2.801778e+02" y="0" width="5.688889e+00" height="5.570157e+01"/><rect vector-effect="non-scaling-stroke" x="3.015111e+02" y="0" width="5.688889e+00" height="4.405264e+01"/><rect vector-effect="non-scaling-stroke" x="3.228444e+02" y="0" width="5.688889e+00" height="6.012659e+01"/><rect vector-effect="non-scaling-stroke" x="3.441778e+02" y="0" width="5.688889e+00" height="4.407210e+01"/><rect width="5.688889e+00" height="5.155243e+01" vector-effect="non-scaling-stroke" x="3.655111e+02" y="0"/><rect x="3.868444e+02" y="0" width="5.688889e+00" height="4.404596e+01" vector-effect="non-scaling-stroke"/><rect y="0" width="5.688889e+00" height="5.156325e+01" vector-effect="non-scaling-stroke" x="4.081778e+02"/><rect width="5.688889e+00" height="4.600786e+01" vector-effect="non-scaling-stroke" x="4.295111e+02" y="0"/><rect width="5.688889e+00" height="4.418950e+01" vector-effect="non-scaling-stroke" x="4.508444e+02" y="0"/><rect height="2.583647e+02" vector-effect="non-scaling-stroke" x="4.721778e+02" y="0" width="5.688889e+00"/><rect x="4.935111e+02" y="0" width="5.688889e+00" height="4.400801e+01" vector-effect="non-scaling-stroke"/><rect width="5.688889e+00" height="1.146048e+02" vector-effect="non-scaling-stroke" x="5.148444e+02" y="0"/><rect vector-effect="non-scaling-stroke" x="5.361778e+02" y="0" width="5.688889e+00" height="4.400099e+01"/><rect height="4.561417e+01" vector-effect="non-scaling-stroke" x="5.575111e+02" y="0" width="5.688889e+00"/><rect vector-effect="non-scaling-stroke" x="5.788444e+02" y="0" width="5.688889e+00" height="4.400004e+01"/></g><g dominant-baseline="hanging" font-weight="normal" stroke-linecap="round" font-size="12px" font-family="sans-serif" font-style="normal" fill="hsl(198, 47%, 65%)" stroke="hsl(198, 47%, 65%)" stroke-width="1px" stroke-linejoin="round" text-anchor="start"><rect x="736" y="466" width="12" height="12" vector-effect="non-scaling-stroke"/><g fill="black" stroke="black"><text stroke="none" vector-effect="non-scaling-stroke" x="752" y="466" dominant-baseline="hanging">Crystal</text></g><g stroke-linejoin="round" text-anchor="start" font-family="sans-serif" font-size="12px" font-style="normal" stroke-width="1px" stroke-linecap="round" dominant-baseline="hanging" font-weight="normal" fill="hsl(49, 88%, 65%)" stroke="hsl(49, 88%, 65%)"><rect x="736" y="484" width="12" height="12" vector-effect="non-scaling-stroke"/><g fill="black" stroke="black"><text stroke="none" vector-effect="non-scaling-stroke" x="752" y="484" dominant-baseline="hanging">Golang</text></g><g font-size="12px" font-weight="normal" fill="hsl(260, 76%, 65%)" stroke-width="1px" text-anchor="start" font-family="sans-serif" dominant-baseline="hanging" stroke-linejoin="round" font-style="normal" stroke="hsl(260, 76%, 65%)" stroke-linecap="round"><rect vector-effect="non-scaling-stroke" x="736" y="502" width="12" height="12"/><g fill="black" stroke="black"><text dominant-baseline="hanging" stroke="none" vector-effect="non-scaling-stroke" x="752" y="502">Rust</text><g font-family="sans-serif" dominant-baseline="hanging" fill="none" stroke-linecap="round" font-size="12px" stroke-width="2px" font-style="normal" text-anchor="start" stroke-linejoin="round" font-weight="normal"><rect vector-effect="non-scaling-stroke" x="80" y="80" width="640" height="440"/></g><g font-family="sans-serif" font-size="12px" font-weight="normal" stroke-width="2px" transform="translate(80 520 )scale(1 -1 )" text-anchor="start" dominant-baseline="hanging" stroke-linecap="round" stroke-linejoin="round" font-style="normal" fill="none" stroke="black"><path d="M64,0 L64,-6 " vector-effect="non-scaling-stroke"/></g><g text-anchor="middle" font-family="sans-serif" dominant-baseline="hanging" font-size="12px" font-weight="normal" fill="black" stroke-width="2px" transform="translate(80 520 )scale(1 1 )" font-style="normal" stroke="black" stroke-linecap="round" stroke-linejoin="round"><text stroke="none" vector-effect="non-scaling-stroke" x="64" y="10" dominant-baseline="hanging">1</text></g><g stroke-width="2px" transform="translate(80 520 )scale(1 1 )rotate(0 0 0 )" stroke-linecap="round" font-style="normal" fill="black" stroke="black" font-family="sans-serif" dominant-baseline="baseline" stroke-linejoin="round" font-size="12px" font-weight="bold" text-anchor="middle"><text stroke="none" vector-effect="non-scaling-stroke" x="320" y="-6" dominant-baseline="baseline">Day</text></g><g dominant-baseline="baseline" font-family="sans-serif" font-style="normal" fill="black" transform="translate(80 520 )scale(1 -1 )" stroke="black" stroke-width="2px" stroke-linecap="round" stroke-linejoin="round" font-size="12px" font-weight="bold" text-anchor="middle"><path vector-effect="non-scaling-stroke" d="M0,44 L-6,44 M0,7.920000e+01 L-6,7.920000e+01 M0,1.144000e+02 L-6,1.144000e+02 M0,1.496000e+02 L-6,1.496000e+02 M0,1.848000e+02 L-6,1.848000e+02 M0,220 L-6,220 M0,2.552000e+02 L-6,2.552000e+02 M0,2.904000e+02 L-6,2.904000e+02 M0,3.256000e+02 L-6,3.256000e+02 M0,3.608000e+02 L-6,3.608000e+02 M0,396 L-6,396 "/></g><g font-style="normal" font-weight="normal" fill="black" text-anchor="end" transform="translate(80 520 )scale(1 1 )" font-family="sans-serif" font-size="12px" stroke-linejoin="round" stroke="black" stroke-width="2px" dominant-baseline="middle" stroke-linecap="round"><text vector-effect="non-scaling-stroke" x="-10" y="-44" dominant-baseline="middle" stroke="none">0s</text><text dominant-baseline="middle" stroke="none" vector-effect="non-scaling-stroke" x="-10" y="-7.920000e+01">200ms</text><text vector-effect="non-scaling-stroke" x="-10" y="-1.144000e+02" dominant-baseline="middle" stroke="none">400ms</text><text stroke="none" vector-effect="non-scaling-stroke" x="-10" y="-1.496000e+02" dominant-baseline="middle">600ms</text><text dominant-baseline="middle" stroke="none" vector-effect="non-scaling-stroke" x="-10" y="-1.848000e+02">800ms</text><text y="-220" dominant-baseline="middle" stroke="none" vector-effect="non-scaling-stroke" x="-10">1s</text><text y="-2.552000e+02" dominant-baseline="middle" stroke="none" vector-effect="non-scaling-stroke" x="-10">1.2s</text><text y="-2.904000e+02" dominant-baseline="middle" stroke="none" vector-effect="non-scaling-stroke" x="-10">1.4s</text><text stroke="none" vector-effect="non-scaling-stroke" x="-10" y="-3.256000e+02" dominant-baseline="middle">1.6s</text><text stroke="none" vector-effect="non-scaling-stroke" x="-10" y="-3.608000e+02" dominant-baseline="middle">1.8s</text><text vector-effect="non-scaling-stroke" x="-10" y="-396" dominant-baseline="middle" stroke="none">2s</text></g><g stroke="black" stroke-width="2px" stroke-linecap="round" stroke-linejoin="round" font-size="12px" font-style="normal" text-anchor="middle" transform="translate(80 520 )scale(1 1 )rotate(-90 0 0 )" dominant-baseline="hanging" font-weight="bold" fill="black" font-family="sans-serif"><text y="6" dominant-baseline="hanging" stroke="none" vector-effect="non-scaling-stroke" x="220">Runtime</text></g></g></g></g></g></svg>