<svg xmlns="http://www.w3.org/2000/svg" width="800" height="600" viewbox="0 0 800 600" preserveAspectRatio="xMidYMid meet"><defs><marker markerWidth="2%" markerHeight="2%" id="circle" viewBox="0 0 10 10 " refX="5" refY="5" markerUnits="userSpaceOnUse"><circle stroke="black" cx="5" cy="5" r="3" fill="none"/></marker><marker viewBox="0 0 10 10 " refX="5" refY="5" markerUnits="userSpaceOnUse" markerWidth="2%" markerHeight="2%" id="filled-circle"><circle stroke="none" cx="5" cy="5" r="3" fill="black"/></marker><marker viewBox="0 0 10 10 " refX="5" refY="5" markerUnits="userSpaceOnUse" markerWidth="2%" markerHeight="2%" id="square"><rect x="2" y="2" width="6" height="6" fill="none" stroke="black"/></marker><marker markerUnits="userSpaceOnUse" markerWidth="2%" markerHeight="2%" id="filled-square" viewBox="0 0 10 10 " refX="5" refY="5"><rect x="2" y="2" width="6" height="6" fill="black" stroke="none"/></marker></defs><g stroke-linecap="round" stroke-linejoin="round" transform="translate(80 520 )scale(1 -1 )" fill="hsl(198, 47%, 65%)" stroke="hsl(198, 47%, 65%)" stroke-width="1px"><rect height="4.402191e+01" vector-effect="non-scaling-stroke" x="5.546667e+01" y="0" width="8.533333e+00"/><rect vector-effect="non-scaling-stroke" x="7.680000e+01" y="0" width="8.533333e+00" height="4.400313e+01"/><rect width="8.533333e+00" height="4.401288e+01" vector-effect="non-scaling-stroke" x="9.813333e+01" y="0"/><rect y="0" width="8.533333e+00" height="4.437969e+01" vector-effect="non-scaling-stroke" x="1.194667e+02"/><rect vector-effect="non-scaling-stroke" x="1.408000e+02" y="0" width="8.533333e+00" height="1.069365e+03"/><rect y="0" width="8.533333e+00" height="4.404161e+01" vector-effect="non-scaling-stroke" x="1.621333e+02"/><rect y="0" width="8.533333e+00" height="4.425802e+01" vector-effect="non-scaling-stroke" x="1.834667e+02"/><rect height="4.400110e+01" vector-effect="non-scaling-stroke" x="2.048000e+02" y="0" width="8.533333e+00"/><rect height="4.400377e+01" vector-effect="non-scaling-stroke" x="2.261333e+02" y="0" width="8.533333e+00"/><rect vector-effect="non-scaling-stroke" x="2.474667e+02" y="0" width="8.533333e+00" height="4.491958e+01"/><rect x="2.688000e+02" y="0" width="8.533333e+00" height="5.199057e+01" vector-effect="non-scaling-stroke"/><rect y="0" width="8.533333e+00" height="4.400078e+01" vector-effect="non-scaling-stroke" x="2.901333e+02"/><rect vector-effect="non-scaling-stroke" x="3.114667e+02" y="0" width="8.533333e+00" height="4.402140e+01"/><rect vector-effect="non-scaling-stroke" x="3.328000e+02" y="0" width="8.533333e+00" height="2.282994e+03"/><rect x="3.541333e+02" y="0" width="8.533333e+00" height="5.332551e+01" vector-effect="non-scaling-stroke"/><rect vector-effect="non-scaling-stroke" x="3.754667e+02" y="0" width="8.533333e+00" height="1.151241e+02"/><rect y="0" width="8.533333e+00" height="5.624102e+01" vector-effect="non-scaling-stroke" x="3.968000e+02"/><rect vector-effect="non-scaling-stroke" x="4.181333e+02" y="0" width="8.533333e+00" height="8.817794e+01"/><rect x="4.394667e+02" y="0" width="8.533333e+00" height="1.356903e+02" vector-effect="non-scaling-stroke"/><rect vector-effect="non-scaling-stroke" x="4.608000e+02" y="0" width="8.533333e+00" height="4.405996e+01"/><rect vector-effect="non-scaling-stroke" x="4.821333e+02" y="0" width="8.533333e+00" height="9.025396e+01"/><rect height="4.965065e+01" vector-effect="non-scaling-stroke" x="5.034667e+02" y="0" width="8.533333e+00"/><rect vector-effect="non-scaling-stroke" x="5.248000e+02" y="0" width="8.533333e+00" height="4.400183e+01"/><rect width="8.533333e+00" height="5.549714e+01" vector-effect="non-scaling-stroke" x="5.461333e+02" y="0"/><rect vector-effect="non-scaling-stroke" x="5.674667e+02" y="0" width="8.533333e+00" height="7.060353e+01"/></g><g stroke="hsl(49, 88%, 65%)" stroke-width="1px" stroke-linecap="round" stroke-linejoin="round" transform="translate(80 520 )scale(1 -1 )" fill="hsl(49, 88%, 65%)"><rect x="64" y="0" width="8.533333e+00" height="4.401435e+01" vector-effect="non-scaling-stroke"/><rect vector-effect="non-scaling-stroke" x="8.533333e+01" y="0" width="8.533333e+00" height="4.402467e+01"/><rect height="4.408820e+01" vector-effect="non-scaling-stroke" x="1.066667e+02" y="0" width="8.533333e+00"/><rect width="8.533333e+00" height="4.452421e+01" vector-effect="non-scaling-stroke" x="128" y="0"/><rect vector-effect="non-scaling-stroke" x="1.493333e+02" y="0" width="8.533333e+00" height="1.664456e+03"/><rect vector-effect="non-scaling-stroke" x="1.706667e+02" y="0" width="8.533333e+00" height="4.427491e+01"/><rect vector-effect="non-scaling-stroke" x="192" y="0" width="8.533333e+00" height="4.484072e+01"/><rect x="2.133333e+02" y="0" width="8.533333e+00" height="4.400432e+01" vector-effect="non-scaling-stroke"/><rect height="4.405093e+01" vector-effect="non-scaling-stroke" x="2.346667e+02" y="0" width="8.533333e+00"/><rect vector-effect="non-scaling-stroke" x="2.560000e+02" y="0" width="8.533333e+00" height="4.404894e+01"/><rect vector-effect="non-scaling-stroke" x="2.773333e+02" y="0" width="8.533333e+00" height="4.393141e+02"/><rect vector-effect="non-scaling-stroke" x="2.986667e+02" y="0" width="8.533333e+00" height="4.400070e+01"/><rect y="0" width="8.533333e+00" height="4.403404e+01" vector-effect="non-scaling-stroke" x="320"/><rect width="8.533333e+00" height="1.496676e+03" vector-effect="non-scaling-stroke" x="3.413333e+02" y="0"/><rect height="4.597204e+01" vector-effect="non-scaling-stroke" x="3.626667e+02" y="0" width="8.533333e+00"/><rect width="8.533333e+00" height="7.228782e+01" vector-effect="non-scaling-stroke" x="384" y="0"/><rect y="0" width="8.533333e+00" height="5.179450e+01" vector-effect="non-scaling-stroke" x="4.053333e+02"/><rect height="1.377339e+02" vector-effect="non-scaling-stroke" x="4.266667e+02" y="0" width="8.533333e+00"/><rect y="0" width="8.533333e+00" height="4.400001e+01" vector-effect="non-scaling-stroke" x="448"/><rect width="8.533333e+00" height="4.403122e+01" vector-effect="non-scaling-stroke" x="4.693333e+02" y="0"/><rect width="8.533333e+00" height="5.368336e+01" vector-effect="non-scaling-stroke" x="4.906667e+02" y="0"/><rect vector-effect="non-scaling-stroke" x="512" y="0" width="8.533333e+00" height="4.820689e+01"/><rect vector-effect="non-scaling-stroke" x="5.333333e+02" y="0" width="8.533333e+00" height="4.400143e+01"/><rect vector-effect="non-scaling-stroke" x="5.546667e+02" y="0" width="8.533333e+00" height="4.530517e+01"/><rect y="0" width="8.533333e+00" height="4.607720e+01" vector-effect="non-scaling-stroke" x="576"/></g><g stroke-linejoin="round" stroke-width="1px" font-family="sans-serif" font-weight="normal" text-anchor="start" font-style="normal" fill="hsl(198, 47%, 65%)" stroke="hsl(198, 47%, 65%)" font-size="12px" stroke-linecap="round" dominant-baseline="hanging"><rect vector-effect="non-scaling-stroke" x="736" y="484" width="12" height="12"/><g fill="black" stroke="black"><text x="752" y="484" dominant-baseline="hanging" stroke="none" vector-effect="non-scaling-stroke">Golang</text></g><g stroke-linecap="round" stroke-linejoin="round" font-style="normal" fill="hsl(49, 88%, 65%)" font-weight="normal" dominant-baseline="hanging" stroke-width="1px" stroke="hsl(49, 88%, 65%)" font-family="sans-serif" text-anchor="start" font-size="12px"><rect vector-effect="non-scaling-stroke" x="736" y="502" width="12" height="12"/><g fill="black" stroke="black"><text x="752" y="502" dominant-baseline="hanging" stroke="none" vector-effect="non-scaling-stroke">Rust</text><g text-anchor="start" dominant-baseline="hanging" stroke-width="2px" font-family="sans-serif" font-weight="normal" fill="none" stroke-linecap="round" font-style="normal" stroke-linejoin="round" font-size="12px"><rect width="640" height="440" vector-effect="non-scaling-stroke" x="80" y="80"/></g><g stroke="black" stroke-linecap="round" font-style="normal" font-family="sans-serif" fill="none" font-size="12px" stroke-width="2px" font-weight="normal" text-anchor="start" dominant-baseline="hanging" transform="translate(80 520 )scale(1 -1 )" stroke-linejoin="round"><path vector-effect="non-scaling-stroke" d="M64,0 L64,-6 M8.533333e+01,0 L8.533333e+01,-6 M1.066667e+02,0 L1.066667e+02,-6 M128,0 L128,-6 M1.493333e+02,0 L1.493333e+02,-6 M1.706667e+02,0 L1.706667e+02,-6 M192,0 L192,-6 M2.133333e+02,0 L2.133333e+02,-6 M2.346667e+02,0 L2.346667e+02,-6 M256,0 L256,-6 M2.773333e+02,0 L2.773333e+02,-6 M2.986667e+02,0 L2.986667e+02,-6 M320,0 L320,-6 M3.413333e+02,0 L3.413333e+02,-6 M3.626667e+02,0 L3.626667e+02,-6 M384,0 L384,-6 M4.053333e+02,0 L4.053333e+02,-6 M4.266667e+02,0 L4.266667e+02,-6 M448,0 L448,-6 M4.693333e+02,0 L4.693333e+02,-6 M4.906667e+02,0 L4.906667e+02,-6 M512,0 L512,-6 M5.333333e+02,0 L5.333333e+02,-6 M5.546667e+02,0 L5.546667e+02,-6 M576,0 L576,-6 "/></g><g stroke-width="2px" font-family="sans-serif" fill="black" stroke="black" font-size="12px" font-weight="normal" text-anchor="middle" dominant-baseline="hanging" transform="translate(80 520 )scale(1 1 )" stroke-linecap="round" stroke-linejoin="round" font-style="normal"><text x="64" y="10" dominant-baseline="hanging" stroke="none" vector-effect="non-scaling-stroke">1</text><text vector-effect="non-scaling-stroke" x="8.533333e+01" y="10" dominant-baseline="hanging" stroke="none">2</text><text y="10" dominant-baseline="hanging" stroke="none" vector-effect="non-scaling-stroke" x="1.066667e+02">3</text><text stroke="none" vector-effect="non-scaling-stroke" x="128" y="10" dominant-baseline="hanging">4</text><text stroke="none" vector-effect="non-scaling-stroke" x="1.493333e+02" y="10" dominant-baseline="hanging">5</text><text x="1.706667e+02" y="10" dominant-baseline="hanging" stroke="none" vector-effect="non-scaling-stroke">6</text><text x="192" y="10" dominant-baseline="hanging" stroke="none" vector-effect="non-scaling-stroke">7</text><text stroke="none" vector-effect="non-scaling-stroke" x="2.133333e+02" y="10" dominant-baseline="hanging">8</text><text dominant-baseline="hanging" stroke="none" vector-effect="non-scaling-stroke" x="2.346667e+02" y="10">9</text><text stroke="none" vector-effect="non-scaling-stroke" x="256" y="10" dominant-baseline="hanging">10</text><text y="10" dominant-baseline="hanging" stroke="none" vector-effect="non-scaling-stroke" x="2.773333e+02">11</text><text dominant-baseline="hanging" stroke="none" vector-effect="non-scaling-stroke" x="2.986667e+02" y="10">12</text><text stroke="none" vector-effect="non-scaling-stroke" x="320" y="10" dominant-baseline="hanging">13</text><text dominant-baseline="hanging" stroke="none" vector-effect="non-scaling-stroke" x="3.413333e+02" y="10">14</text><text dominant-baseline="hanging" stroke="none" vector-effect="non-scaling-stroke" x="3.626667e+02" y="10">15</text><text dominant-baseline="hanging" stroke="none" vector-effect="non-scaling-stroke" x="384" y="10">16</text><text stroke="none" vector-effect="non-scaling-stroke" x="4.053333e+02" y="10" dominant-baseline="hanging">17</text><text stroke="none" vector-effect="non-scaling-stroke" x="4.266667e+02" y="10" dominant-baseline="hanging">18</text><text x="448" y="10" dominant-baseline="hanging" stroke="none" vector-effect="non-scaling-stroke">19</text><text dominant-baseline="hanging" stroke="none" vector-effect="non-scaling-stroke" x="4.693333e+02" y="10">20</text><text vector-effect="non-scaling-stroke" x="4.906667e+02" y="10" dominant-baseline="hanging" stroke="none">21</text><text stroke="none" vector-effect="non-scaling-stroke" x="512" y="10" dominant-baseline="hanging">22</text><text stroke="none" vector-effect="non-scaling-stroke" x="5.333333e+02" y="10" dominant-baseline="hanging">23</text><text stroke="none" vector-effect="non-scaling-stroke" x="5.546667e+02" y="10" dominant-baseline="hanging">24</text><text y="10" dominant-baseline="hanging" stroke="none" vector-effect="non-scaling-stroke" x="576">25</text></g><g transform="translate(80 520 )scale(1 1 )rotate(0 0 0 )" stroke-linejoin="round" fill="black" stroke="black" font-weight="bold" text-anchor="middle" font-family="sans-serif" stroke-linecap="round" font-size="12px" font-style="normal" dominant-baseline="baseline" stroke-width="2px"><text x="320" y="-6" dominant-baseline="baseline" stroke="none" vector-effect="non-scaling-stroke">Day</text></g><g font-family="sans-serif" font-weight="bold" text-anchor="middle" dominant-baseline="baseline" stroke-linecap="round" transform="translate(80 520 )scale(1 -1 )" stroke-width="2px" stroke="black" stroke-linejoin="round" font-size="12px" font-style="normal" fill="black"><path d="M0,44 L-6,44 M0,7.920000e+01 L-6,7.920000e+01 M0,1.144000e+02 L-6,1.144000e+02 M0,1.496000e+02 L-6,1.496000e+02 M0,1.848000e+02 L-6,1.848000e+02 M0,220 L-6,220 M0,2.552000e+02 L-6,2.552000e+02 M0,2.904000e+02 L-6,2.904000e+02 M0,3.256000e+02 L-6,3.256000e+02 M0,3.608000e+02 L-6,3.608000e+02 M0,396 L-6,396 " vector-effect="non-scaling-stroke"/></g><g dominant-baseline="middle" font-style="normal" stroke-linecap="round" transform="translate(80 520 )scale(1 1 )" font-weight="normal" stroke-width="2px" font-family="sans-serif" text-anchor="end" fill="black" stroke="black" stroke-linejoin="round" font-size="12px"><text dominant-baseline="middle" stroke="none" vector-effect="non-scaling-stroke" x="-10" y="-44">0s</text><text stroke="none" vector-effect="non-scaling-stroke" x="-10" y="-7.920000e+01" dominant-baseline="middle">200ms</text><text stroke="none" vector-effect="non-scaling-stroke" x="-10" y="-1.144000e+02" dominant-baseline="middle">400ms</text><text stroke="none" vector-effect="non-scaling-stroke" x="-10" y="-1.496000e+02" dominant-baseline="middle">600ms</text><text y="-1.848000e+02" dominant-baseline="middle" stroke="none" vector-effect="non-scaling-stroke" x="-10">800ms</text><text stroke="none" vector-effect="non-scaling-stroke" x="-10" y="-220" dominant-baseline="middle">1s</text><text stroke="none" vector-effect="non-scaling-stroke" x="-10" y="-2.552000e+02" dominant-baseline="middle">1.2s</text><text y="-2.904000e+02" dominant-baseline="middle" stroke="none" vector-effect="non-scaling-stroke" x="-10">1.4s</text><text stroke="none" vector-effect="non-scaling-stroke" x="-10" y="-3.256000e+02" dominant-baseline="middle">1.6s</text><text x="-10" y="-3.608000e+02" dominant-baseline="middle" stroke="none" vector-effect="non-scaling-stroke">1.8s</text><text stroke="none" vector-effect="non-scaling-stroke" x="-10" y="-396" dominant-baseline="middle">2s</text></g><g transform="translate(80 520 )scale(1 1 )rotate(-90 0 0 )" font-family="sans-serif" font-size="12px" dominant-baseline="hanging" text-anchor="middle" stroke-width="2px" stroke-linecap="round" stroke-linejoin="round" font-style="normal" fill="black" stroke="black" font-weight="bold"><text stroke="none" vector-effect="non-scaling-stroke" x="220" y="6" dominant-baseline="hanging">Runtime</text></g></g></g></g></svg>