<svg viewbox="0 0 800 600" preserveAspectRatio="xMidYMid meet" xmlns="http://www.w3.org/2000/svg" width="800" height="600"><defs><marker refX="5" refY="5" markerUnits="userSpaceOnUse" markerWidth="2%" markerHeight="2%" id="circle" viewBox="0 0 10 10 "><circle cx="5" cy="5" r="3" fill="none" stroke="black"/></marker><marker markerUnits="userSpaceOnUse" markerWidth="2%" markerHeight="2%" id="filled-circle" viewBox="0 0 10 10 " refX="5" refY="5"><circle stroke="none" cx="5" cy="5" r="3" fill="black"/></marker><marker refY="5" markerUnits="userSpaceOnUse" markerWidth="2%" markerHeight="2%" id="square" viewBox="0 0 10 10 " refX="5"><rect stroke="black" x="2" y="2" width="6" height="6" fill="none"/></marker><marker markerWidth="2%" markerHeight="2%" id="filled-square" viewBox="0 0 10 10 " refX="5" refY="5" markerUnits="userSpaceOnUse"><rect width="6" height="6" fill="black" stroke="none" x="2" y="2"/></marker></defs><g stroke-linecap="round" stroke-linejoin="round" transform="translate(80 520 )scale(1 -1 )" fill="hsl(198, 47%, 65%)" stroke="hsl(198, 47%, 65%)" stroke-width="1px"><rect height="4.400736e+01" vector-effect="non-scaling-stroke" x="5.546667e+01" y="0" width="8.533333e+00"/><rect y="0" width="8.533333e+00" height="4.401183e+01" vector-effect="non-scaling-stroke" x="7.680000e+01"/><rect vector-effect="non-scaling-stroke" x="9.813333e+01" y="0" width="8.533333e+00" height="4.402133e+01"/><rect height="4.508144e+01" vector-effect="non-scaling-stroke" x="1.194667e+02" y="0" width="8.533333e+00"/><rect height="9.928605e+01" vector-effect="non-scaling-stroke" x="1.408000e+02" y="0" width="8.533333e+00"/><rect vector-effect="non-scaling-stroke" x="1.621333e+02" y="0" width="8.533333e+00" height="5.507459e+01"/><rect vector-effect="non-scaling-stroke" x="1.834667e+02" y="0" width="8.533333e+00" height="4.585683e+01"/><rect x="2.048000e+02" y="0" width="8.533333e+00" height="4.442582e+01" vector-effect="non-scaling-stroke"/><rect vector-effect="non-scaling-stroke" x="2.261333e+02" y="0" width="8.533333e+00" height="4.408935e+01"/><rect vector-effect="non-scaling-stroke" x="2.474667e+02" y="0" width="8.533333e+00" height="4.430096e+01"/><rect x="2.688000e+02" y="0" width="8.533333e+00" height="4.409599e+01" vector-effect="non-scaling-stroke"/><rect vector-effect="non-scaling-stroke" x="2.901333e+02" y="0" width="8.533333e+00" height="4.629729e+01"/><rect x="3.114667e+02" y="0" width="8.533333e+00" height="6.236828e+01" vector-effect="non-scaling-stroke"/><rect width="8.533333e+00" height="6.119932e+01" vector-effect="non-scaling-stroke" x="3.328000e+02" y="0"/><rect width="8.533333e+00" height="396" vector-effect="non-scaling-stroke" x="3.541333e+02" y="0"/><rect y="0" width="8.533333e+00" height="1.755511e+02" vector-effect="non-scaling-stroke" x="3.754667e+02"/><rect y="0" width="8.533333e+00" height="2.093386e+02" vector-effect="non-scaling-stroke" x="3.968000e+02"/><rect vector-effect="non-scaling-stroke" x="4.181333e+02" y="0" width="8.533333e+00" height="4.929113e+01"/><rect vector-effect="non-scaling-stroke" x="4.394667e+02" y="0" width="8.533333e+00" height="4.414785e+01"/><rect vector-effect="non-scaling-stroke" x="4.608000e+02" y="0" width="8.533333e+00" height="2.750261e+02"/><rect height="8.955761e+01" vector-effect="non-scaling-stroke" x="4.821333e+02" y="0" width="8.533333e+00"/><rect y="0" width="8.533333e+00" height="8.441713e+01" vector-effect="non-scaling-stroke" x="5.034667e+02"/><rect x="5.248000e+02" y="0" width="8.533333e+00" height="4.506076e+01" vector-effect="non-scaling-stroke"/><rect width="8.533333e+00" height="1.257323e+02" vector-effect="non-scaling-stroke" x="5.461333e+02" y="0"/><rect y="0" width="8.533333e+00" height="6.553364e+01" vector-effect="non-scaling-stroke" x="5.674667e+02"/></g><g stroke-linecap="round" stroke-linejoin="round" transform="translate(80 520 )scale(1 -1 )" fill="hsl(49, 88%, 65%)" stroke="hsl(49, 88%, 65%)" stroke-width="1px"><rect width="8.533333e+00" height="4.400485e+01" vector-effect="non-scaling-stroke" x="64" y="0"/><rect vector-effect="non-scaling-stroke" x="8.533333e+01" y="0" width="8.533333e+00" height="4.400601e+01"/><rect y="0" width="8.533333e+00" height="4.400745e+01" vector-effect="non-scaling-stroke" x="1.066667e+02"/><rect width="8.533333e+00" height="4.603197e+01" vector-effect="non-scaling-stroke" x="128" y="0"/><rect x="1.493333e+02" y="0" width="8.533333e+00" height="7.238320e+01" vector-effect="non-scaling-stroke"/><rect x="1.706667e+02" y="0" width="8.533333e+00" height="4.470749e+01" vector-effect="non-scaling-stroke"/><rect vector-effect="non-scaling-stroke" x="192" y="0" width="8.533333e+00" height="4.443825e+01"/><rect vector-effect="non-scaling-stroke" x="2.133333e+02" y="0" width="8.533333e+00" height="4.414230e+01"/><rect vector-effect="non-scaling-stroke" x="2.346667e+02" y="0" width="8.533333e+00" height="4.403121e+01"/><rect height="4.407840e+01" vector-effect="non-scaling-stroke" x="2.560000e+02" y="0" width="8.533333e+00"/><rect y="0" width="8.533333e+00" height="4.405680e+01" vector-effect="non-scaling-stroke" x="2.773333e+02"/><rect width="8.533333e+00" height="4.457193e+01" vector-effect="non-scaling-stroke" x="2.986667e+02" y="0"/><rect vector-effect="non-scaling-stroke" x="320" y="0" width="8.533333e+00" height="2.877209e+02"/><rect y="0" width="8.533333e+00" height="5.940241e+01" vector-effect="non-scaling-stroke" x="3.413333e+02"/><rect vector-effect="non-scaling-stroke" x="3.626667e+02" y="0" width="8.533333e+00" height="3.246641e+02"/><rect vector-effect="non-scaling-stroke" x="384" y="0" width="8.533333e+00" height="5.728973e+01"/><rect vector-effect="non-scaling-stroke" x="4.053333e+02" y="0" width="8.533333e+00" height="2.019584e+02"/><rect x="4.266667e+02" y="0" width="8.533333e+00" height="4.400814e+01" vector-effect="non-scaling-stroke"/><rect vector-effect="non-scaling-stroke" x="448" y="0" width="8.533333e+00" height="4.402601e+01"/><rect vector-effect="non-scaling-stroke" x="4.693333e+02" y="0" width="8.533333e+00" height="5.432953e+01"/><rect width="8.533333e+00" height="4.400209e+01" vector-effect="non-scaling-stroke" x="4.906667e+02" y="0"/><rect vector-effect="non-scaling-stroke" x="512" y="0" width="8.533333e+00" height="8.339240e+01"/><rect height="4.401965e+01" vector-effect="non-scaling-stroke" x="5.333333e+02" y="0" width="8.533333e+00"/><rect y="0" width="8.533333e+00" height="1.000582e+02" vector-effect="non-scaling-stroke" x="5.546667e+02"/><rect x="576" y="0" width="8.533333e+00" height="7.376762e+01" vector-effect="non-scaling-stroke"/></g><g stroke="hsl(198, 47%, 65%)" stroke-width="1px" font-family="sans-serif" dominant-baseline="hanging" fill="hsl(198, 47%, 65%)" stroke-linejoin="round" font-style="normal" font-weight="normal" text-anchor="start" stroke-linecap="round" font-size="12px"><rect vector-effect="non-scaling-stroke" x="736" y="484" width="12" height="12"/><g fill="black" stroke="black"><text vector-effect="non-scaling-stroke" x="752" y="484" dominant-baseline="hanging" stroke="none">Golang</text></g><g fill="hsl(49, 88%, 65%)" stroke-linejoin="round" font-style="normal" font-weight="normal" text-anchor="start" font-family="sans-serif" stroke-width="1px" font-size="12px" dominant-baseline="hanging" stroke-linecap="round" stroke="hsl(49, 88%, 65%)"><rect width="12" height="12" vector-effect="non-scaling-stroke" x="736" y="502"/><g stroke="black" fill="black"><text stroke="none" vector-effect="non-scaling-stroke" x="752" y="502" dominant-baseline="hanging">Rust</text><g font-weight="normal" stroke-width="2px" text-anchor="start" stroke-linejoin="round" font-size="12px" font-family="sans-serif" fill="none" font-style="normal" dominant-baseline="hanging" stroke-linecap="round"><rect x="80" y="80" width="640" height="440" vector-effect="non-scaling-stroke"/></g><g dominant-baseline="hanging" transform="translate(80 520 )scale(1 -1 )" stroke="black" stroke-width="2px" font-size="12px" fill="none" font-family="sans-serif" font-weight="normal" text-anchor="start" stroke-linecap="round" stroke-linejoin="round" font-style="normal"><path vector-effect="non-scaling-stroke" d="M64,0 L64,-6 M8.533333e+01,0 L8.533333e+01,-6 M1.066667e+02,0 L1.066667e+02,-6 M128,0 L128,-6 M1.493333e+02,0 L1.493333e+02,-6 M1.706667e+02,0 L1.706667e+02,-6 M192,0 L192,-6 M2.133333e+02,0 L2.133333e+02,-6 M2.346667e+02,0 L2.346667e+02,-6 M256,0 L256,-6 M2.773333e+02,0 L2.773333e+02,-6 M2.986667e+02,0 L2.986667e+02,-6 M320,0 L320,-6 M3.413333e+02,0 L3.413333e+02,-6 M3.626667e+02,0 L3.626667e+02,-6 M384,0 L384,-6 M4.053333e+02,0 L4.053333e+02,-6 M4.266667e+02,0 L4.266667e+02,-6 M448,0 L448,-6 M4.693333e+02,0 L4.693333e+02,-6 M4.906667e+02,0 L4.906667e+02,-6 M512,0 L512,-6 M5.333333e+02,0 L5.333333e+02,-6 M5.546667e+02,0 L5.546667e+02,-6 M576,0 L576,-6 "/></g><g font-style="normal" dominant-baseline="hanging" transform="translate(80 520 )scale(1 1 )" stroke="black" font-size="12px" font-weight="normal" text-anchor="middle" stroke-linecap="round" stroke-width="2px" font-family="sans-serif" fill="black" stroke-linejoin="round"><text vector-effect="non-scaling-stroke" x="64" y="10" dominant-baseline="hanging" stroke="none">1</text><text stroke="none" vector-effect="non-scaling-stroke" x="8.533333e+01" y="10" dominant-baseline="hanging">2</text><text dominant-baseline="hanging" stroke="none" vector-effect="non-scaling-stroke" x="1.066667e+02" y="10">3</text><text x="128" y="10" dominant-baseline="hanging" stroke="none" vector-effect="non-scaling-stroke">4</text><text x="1.493333e+02" y="10" dominant-baseline="hanging" stroke="none" vector-effect="non-scaling-stroke">5</text><text y="10" dominant-baseline="hanging" stroke="none" vector-effect="non-scaling-stroke" x="1.706667e+02">6</text><text vector-effect="non-scaling-stroke" x="192" y="10" dominant-baseline="hanging" stroke="none">7</text><text y="10" dominant-baseline="hanging" stroke="none" vector-effect="non-scaling-stroke" x="2.133333e+02">8</text><text x="2.346667e+02" y="10" dominant-baseline="hanging" stroke="none" vector-effect="non-scaling-stroke">9</text><text stroke="none" vector-effect="non-scaling-stroke" x="256" y="10" dominant-baseline="hanging">10</text><text vector-effect="non-scaling-stroke" x="2.773333e+02" y="10" dominant-baseline="hanging" stroke="none">11</text><text y="10" dominant-baseline="hanging" stroke="none" vector-effect="non-scaling-stroke" x="2.986667e+02">12</text><text dominant-baseline="hanging" stroke="none" vector-effect="non-scaling-stroke" x="320" y="10">13</text><text y="10" dominant-baseline="hanging" stroke="none" vector-effect="non-scaling-stroke" x="3.413333e+02">14</text><text y="10" dominant-baseline="hanging" stroke="none" vector-effect="non-scaling-stroke" x="3.626667e+02">15</text><text vector-effect="non-scaling-stroke" x="384" y="10" dominant-baseline="hanging" stroke="none">16</text><text x="4.053333e+02" y="10" dominant-baseline="hanging" stroke="none" vector-effect="non-scaling-stroke">17</text><text stroke="none" vector-effect="non-scaling-stroke" x="4.266667e+02" y="10" dominant-baseline="hanging">18</text><text x="448" y="10" dominant-baseline="hanging" stroke="none" vector-effect="non-scaling-stroke">19</text><text stroke="none" vector-effect="non-scaling-stroke" x="4.693333e+02" y="10" dominant-baseline="hanging">20</text><text vector-effect="non-scaling-stroke" x="4.906667e+02" y="10" dominant-baseline="hanging" stroke="none">21</text><text dominant-baseline="hanging" stroke="none" vector-effect="non-scaling-stroke" x="512" y="10">22</text><text stroke="none" vector-effect="non-scaling-stroke" x="5.333333e+02" y="10" dominant-baseline="hanging">23</text><text x="5.546667e+02" y="10" dominant-baseline="hanging" stroke="none" vector-effect="non-scaling-stroke">24</text><text stroke="none" vector-effect="non-scaling-stroke" x="576" y="10" dominant-baseline="hanging">25</text></g><g dominant-baseline="baseline" stroke="black" font-family="sans-serif" font-size="12px" font-weight="bold" text-anchor="middle" fill="black" stroke-linecap="round" stroke-linejoin="round" transform="translate(80 520 )scale(1 1 )rotate(0 0 0 )" stroke-width="2px" font-style="normal"><text y="-6" dominant-baseline="baseline" stroke="none" vector-effect="non-scaling-stroke" x="320">Day</text></g><g text-anchor="middle" fill="black" stroke-linecap="round" dominant-baseline="baseline" stroke="black" stroke-width="2px" font-family="sans-serif" font-size="12px" stroke-linejoin="round" font-style="normal" font-weight="bold" transform="translate(80 520 )scale(1 -1 )"><path vector-effect="non-scaling-stroke" d="M0,44 L-6,44 M0,1.129973e+02 L-6,1.129973e+02 M0,1.819945e+02 L-6,1.819945e+02 M0,2.509918e+02 L-6,2.509918e+02 M0,3.199891e+02 L-6,3.199891e+02 M0,3.889863e+02 L-6,3.889863e+02 "/></g><g transform="translate(80 520 )scale(1 1 )" font-size="12px" fill="black" stroke-linecap="round" stroke-linejoin="round" font-weight="normal" stroke="black" stroke-width="2px" font-family="sans-serif" dominant-baseline="middle" text-anchor="end" font-style="normal"><text vector-effect="non-scaling-stroke" x="-10" y="-44" dominant-baseline="middle" stroke="none">0s</text><text stroke="none" vector-effect="non-scaling-stroke" x="-10" y="-1.129973e+02" dominant-baseline="middle">100ms</text><text stroke="none" vector-effect="non-scaling-stroke" x="-10" y="-1.819945e+02" dominant-baseline="middle">200ms</text><text x="-10" y="-2.509918e+02" dominant-baseline="middle" stroke="none" vector-effect="non-scaling-stroke">300ms</text><text stroke="none" vector-effect="non-scaling-stroke" x="-10" y="-3.199891e+02" dominant-baseline="middle">400ms</text><text vector-effect="non-scaling-stroke" x="-10" y="-3.889863e+02" dominant-baseline="middle" stroke="none">500ms</text></g><g dominant-baseline="hanging" stroke="black" font-weight="bold" font-style="normal" text-anchor="middle" fill="black" stroke-linecap="round" stroke-linejoin="round" transform="translate(80 520 )scale(1 1 )rotate(-90 0 0 )" stroke-width="2px" font-family="sans-serif" font-size="12px"><text y="6" dominant-baseline="hanging" stroke="none" vector-effect="non-scaling-stroke" x="220">Runtime</text></g></g></g></g></svg>