<svg preserveAspectRatio="xMidYMid meet" xmlns="http://www.w3.org/2000/svg" width="800" height="600" viewbox="0 0 800 600"><defs><marker markerHeight="2%" id="circle" viewBox="0 0 10 10 " refX="5" refY="5" markerUnits="userSpaceOnUse" markerWidth="2%"><circle r="3" fill="none" stroke="black" cx="5" cy="5"/></marker><marker refY="5" markerUnits="userSpaceOnUse" markerWidth="2%" markerHeight="2%" id="filled-circle" viewBox="0 0 10 10 " refX="5"><circle cx="5" cy="5" r="3" fill="black" stroke="none"/></marker><marker markerUnits="userSpaceOnUse" markerWidth="2%" markerHeight="2%" id="square" viewBox="0 0 10 10 " refX="5" refY="5"><rect x="2" y="2" width="6" height="6" fill="none" stroke="black"/></marker><marker viewBox="0 0 10 10 " refX="5" refY="5" markerUnits="userSpaceOnUse" markerWidth="2%" markerHeight="2%" id="filled-square"><rect stroke="none" x="2" y="2" width="6" height="6" fill="black"/></marker></defs><g transform="translate(80 520 )scale(1 -1 )" fill="hsl(198, 47%, 65%)" stroke="hsl(198, 47%, 65%)" stroke-width="1px" stroke-linecap="round" stroke-linejoin="round"><rect y="0" width="8.533333e+00" height="4.401188e+01" vector-effect="non-scaling-stroke" x="5.546667e+01"/><rect vector-effect="non-scaling-stroke" x="7.680000e+01" y="0" width="8.533333e+00" height="4.400884e+01"/><rect vector-effect="non-scaling-stroke" x="9.813333e+01" y="0" width="8.533333e+00" height="4.400968e+01"/><rect y="0" width="8.533333e+00" height="4.476121e+01" vector-effect="non-scaling-stroke" x="1.194667e+02"/><rect vector-effect="non-scaling-stroke" x="1.408000e+02" y="0" width="8.533333e+00" height="8.182391e+01"/><rect x="1.621333e+02" y="0" width="8.533333e+00" height="5.174448e+01" vector-effect="non-scaling-stroke"/><rect x="1.834667e+02" y="0" width="8.533333e+00" height="4.498461e+01" vector-effect="non-scaling-stroke"/><rect width="8.533333e+00" height="4.420758e+01" vector-effect="non-scaling-stroke" x="2.048000e+02" y="0"/><rect y="0" width="8.533333e+00" height="4.404473e+01" vector-effect="non-scaling-stroke" x="2.261333e+02"/><rect width="8.533333e+00" height="4.442263e+01" vector-effect="non-scaling-stroke" x="2.474667e+02" y="0"/><rect vector-effect="non-scaling-stroke" x="2.688000e+02" y="0" width="8.533333e+00" height="4.406246e+01"/><rect height="4.536961e+01" vector-effect="non-scaling-stroke" x="2.901333e+02" y="0" width="8.533333e+00"/><rect height="7.176625e+01" vector-effect="non-scaling-stroke" x="3.114667e+02" y="0" width="8.533333e+00"/><rect vector-effect="non-scaling-stroke" x="3.328000e+02" y="0" width="8.533333e+00" height="6.990265e+01"/><rect width="8.533333e+00" height="3.278735e+02" vector-effect="non-scaling-stroke" x="3.541333e+02" y="0"/><rect width="8.533333e+00" height="1.532455e+02" vector-effect="non-scaling-stroke" x="3.754667e+02" y="0"/><rect vector-effect="non-scaling-stroke" x="3.968000e+02" y="0" width="8.533333e+00" height="1.934050e+02"/><rect vector-effect="non-scaling-stroke" x="4.181333e+02" y="0" width="8.533333e+00" height="4.659383e+01"/><rect x="4.394667e+02" y="0" width="8.533333e+00" height="4.416391e+01" vector-effect="non-scaling-stroke"/><rect vector-effect="non-scaling-stroke" x="4.608000e+02" y="0" width="8.533333e+00" height="1.601479e+02"/><rect width="8.533333e+00" height="7.774719e+01" vector-effect="non-scaling-stroke" x="4.821333e+02" y="0"/><rect y="0" width="8.533333e+00" height="6.672630e+01" vector-effect="non-scaling-stroke" x="5.034667e+02"/><rect y="0" width="8.533333e+00" height="4.496501e+01" vector-effect="non-scaling-stroke" x="5.248000e+02"/><rect vector-effect="non-scaling-stroke" x="5.461333e+02" y="0" width="8.533333e+00" height="1.043056e+02"/><rect x="5.674667e+02" y="0" width="8.533333e+00" height="5.900259e+01" vector-effect="non-scaling-stroke"/></g><g stroke="hsl(49, 88%, 65%)" stroke-width="1px" stroke-linecap="round" stroke-linejoin="round" transform="translate(80 520 )scale(1 -1 )" fill="hsl(49, 88%, 65%)"><rect vector-effect="non-scaling-stroke" x="64" y="0" width="8.533333e+00" height="4.400423e+01"/><rect width="8.533333e+00" height="4.400482e+01" vector-effect="non-scaling-stroke" x="8.533333e+01" y="0"/><rect vector-effect="non-scaling-stroke" x="1.066667e+02" y="0" width="8.533333e+00" height="4.400467e+01"/><rect width="8.533333e+00" height="4.484149e+01" vector-effect="non-scaling-stroke" x="128" y="0"/><rect vector-effect="non-scaling-stroke" x="1.493333e+02" y="0" width="8.533333e+00" height="5.617247e+01"/><rect vector-effect="non-scaling-stroke" x="1.706667e+02" y="0" width="8.533333e+00" height="4.447921e+01"/><rect vector-effect="non-scaling-stroke" x="192" y="0" width="8.533333e+00" height="4.423411e+01"/><rect x="2.133333e+02" y="0" width="8.533333e+00" height="4.410295e+01" vector-effect="non-scaling-stroke"/><rect height="4.401878e+01" vector-effect="non-scaling-stroke" x="2.346667e+02" y="0" width="8.533333e+00"/><rect y="0" width="8.533333e+00" height="4.405675e+01" vector-effect="non-scaling-stroke" x="2.560000e+02"/><rect x="2.773333e+02" y="0" width="8.533333e+00" height="4.403646e+01" vector-effect="non-scaling-stroke"/><rect height="4.442642e+01" vector-effect="non-scaling-stroke" x="2.986667e+02" y="0" width="8.533333e+00"/><rect width="8.533333e+00" height="2.307366e+02" vector-effect="non-scaling-stroke" x="320" y="0"/><rect height="5.099316e+01" vector-effect="non-scaling-stroke" x="3.413333e+02" y="0" width="8.533333e+00"/><rect vector-effect="non-scaling-stroke" x="3.626667e+02" y="0" width="8.533333e+00" height="396"/><rect x="384" y="0" width="8.533333e+00" height="5.284383e+01" vector-effect="non-scaling-stroke"/><rect height="1.373122e+02" vector-effect="non-scaling-stroke" x="4.053333e+02" y="0" width="8.533333e+00"/><rect y="0" width="8.533333e+00" height="4.434319e+01" vector-effect="non-scaling-stroke" x="4.266667e+02"/><rect vector-effect="non-scaling-stroke" x="448" y="0" width="8.533333e+00" height="44"/><rect vector-effect="non-scaling-stroke" x="4.693333e+02" y="0" width="8.533333e+00" height="44"/><rect y="0" width="8.533333e+00" height="44" vector-effect="non-scaling-stroke" x="4.906667e+02"/><rect x="512" y="0" width="8.533333e+00" height="44" vector-effect="non-scaling-stroke"/><rect vector-effect="non-scaling-stroke" x="5.333333e+02" y="0" width="8.533333e+00" height="44"/><rect vector-effect="non-scaling-stroke" x="5.546667e+02" y="0" width="8.533333e+00" height="44"/><rect y="0" width="8.533333e+00" height="44" vector-effect="non-scaling-stroke" x="576"/></g><g font-family="sans-serif" font-style="normal" font-weight="normal" dominant-baseline="hanging" stroke-linecap="round" stroke-width="1px" text-anchor="start" stroke="hsl(198, 47%, 65%)" fill="hsl(198, 47%, 65%)" stroke-linejoin="round" font-size="12px"><rect vector-effect="non-scaling-stroke" x="736" y="484" width="12" height="12"/><g stroke="black" fill="black"><text stroke="none" vector-effect="non-scaling-stroke" x="752" y="484" dominant-baseline="hanging">Golang</text></g><g dominant-baseline="hanging" stroke="hsl(49, 88%, 65%)" stroke-width="1px" font-style="normal" font-weight="normal" stroke-linecap="round" font-size="12px" fill="hsl(49, 88%, 65%)" font-family="sans-serif" stroke-linejoin="round" text-anchor="start"><rect vector-effect="non-scaling-stroke" x="736" y="502" width="12" height="12"/><g fill="black" stroke="black"><text stroke="none" vector-effect="non-scaling-stroke" x="752" y="502" dominant-baseline="hanging">Rust</text><g font-family="sans-serif" text-anchor="start" fill="none" font-weight="normal" dominant-baseline="hanging" stroke-linecap="round" stroke-linejoin="round" font-size="12px" font-style="normal" stroke-width="2px"><rect vector-effect="non-scaling-stroke" x="80" y="80" width="640" height="440"/></g><g font-weight="normal" transform="translate(80 520 )scale(1 -1 )" fill="none" stroke-linecap="round" font-family="sans-serif" font-style="normal" dominant-baseline="hanging" stroke="black" stroke-width="2px" text-anchor="start" stroke-linejoin="round" font-size="12px"><path vector-effect="non-scaling-stroke" d="M64,0 L64,-6 M8.533333e+01,0 L8.533333e+01,-6 M1.066667e+02,0 L1.066667e+02,-6 M128,0 L128,-6 M1.493333e+02,0 L1.493333e+02,-6 M1.706667e+02,0 L1.706667e+02,-6 M192,0 L192,-6 M2.133333e+02,0 L2.133333e+02,-6 M2.346667e+02,0 L2.346667e+02,-6 M256,0 L256,-6 M2.773333e+02,0 L2.773333e+02,-6 M2.986667e+02,0 L2.986667e+02,-6 M320,0 L320,-6 M3.413333e+02,0 L3.413333e+02,-6 M3.626667e+02,0 L3.626667e+02,-6 M384,0 L384,-6 M4.053333e+02,0 L4.053333e+02,-6 M4.266667e+02,0 L4.266667e+02,-6 M448,0 L448,-6 M4.693333e+02,0 L4.693333e+02,-6 M4.906667e+02,0 L4.906667e+02,-6 M512,0 L512,-6 M5.333333e+02,0 L5.333333e+02,-6 M5.546667e+02,0 L5.546667e+02,-6 M576,0 L576,-6 "/></g><g font-family="sans-serif" transform="translate(80 520 )scale(1 1 )" stroke-width="2px" font-style="normal" font-weight="normal" stroke-linejoin="round" font-size="12px" text-anchor="middle" stroke-linecap="round" stroke="black" dominant-baseline="hanging" fill="black"><text stroke="none" vector-effect="non-scaling-stroke" x="64" y="10" dominant-baseline="hanging">1</text><text vector-effect="non-scaling-stroke" x="8.533333e+01" y="10" dominant-baseline="hanging" stroke="none">2</text><text y="10" dominant-baseline="hanging" stroke="none" vector-effect="non-scaling-stroke" x="1.066667e+02">3</text><text y="10" dominant-baseline="hanging" stroke="none" vector-effect="non-scaling-stroke" x="128">4</text><text dominant-baseline="hanging" stroke="none" vector-effect="non-scaling-stroke" x="1.493333e+02" y="10">5</text><text x="1.706667e+02" y="10" dominant-baseline="hanging" stroke="none" vector-effect="non-scaling-stroke">6</text><text stroke="none" vector-effect="non-scaling-stroke" x="192" y="10" dominant-baseline="hanging">7</text><text dominant-baseline="hanging" stroke="none" vector-effect="non-scaling-stroke" x="2.133333e+02" y="10">8</text><text stroke="none" vector-effect="non-scaling-stroke" x="2.346667e+02" y="10" dominant-baseline="hanging">9</text><text y="10" dominant-baseline="hanging" stroke="none" vector-effect="non-scaling-stroke" x="256">10</text><text y="10" dominant-baseline="hanging" stroke="none" vector-effect="non-scaling-stroke" x="2.773333e+02">11</text><text dominant-baseline="hanging" stroke="none" vector-effect="non-scaling-stroke" x="2.986667e+02" y="10">12</text><text dominant-baseline="hanging" stroke="none" vector-effect="non-scaling-stroke" x="320" y="10">13</text><text x="3.413333e+02" y="10" dominant-baseline="hanging" stroke="none" vector-effect="non-scaling-stroke">14</text><text dominant-baseline="hanging" stroke="none" vector-effect="non-scaling-stroke" x="3.626667e+02" y="10">15</text><text stroke="none" vector-effect="non-scaling-stroke" x="384" y="10" dominant-baseline="hanging">16</text><text dominant-baseline="hanging" stroke="none" vector-effect="non-scaling-stroke" x="4.053333e+02" y="10">17</text><text y="10" dominant-baseline="hanging" stroke="none" vector-effect="non-scaling-stroke" x="4.266667e+02">18</text><text stroke="none" vector-effect="non-scaling-stroke" x="448" y="10" dominant-baseline="hanging">19</text><text dominant-baseline="hanging" stroke="none" vector-effect="non-scaling-stroke" x="4.693333e+02" y="10">20</text><text dominant-baseline="hanging" stroke="none" vector-effect="non-scaling-stroke" x="4.906667e+02" y="10">21</text><text y="10" dominant-baseline="hanging" stroke="none" vector-effect="non-scaling-stroke" x="512">22</text><text y="10" dominant-baseline="hanging" stroke="none" vector-effect="non-scaling-stroke" x="5.333333e+02">23</text><text y="10" dominant-baseline="hanging" stroke="none" vector-effect="non-scaling-stroke" x="5.546667e+02">24</text><text stroke="none" vector-effect="non-scaling-stroke" x="576" y="10" dominant-baseline="hanging">25</text></g><g font-style="normal" font-weight="bold" dominant-baseline="baseline" fill="black" stroke="black" stroke-linecap="round" font-family="sans-serif" transform="translate(80 520 )scale(1 1 )rotate(0 0 0 )" font-size="12px" text-anchor="middle" stroke-linejoin="round" stroke-width="2px"><text dominant-baseline="baseline" stroke="none" vector-effect="non-scaling-stroke" x="320" y="-6">Day</text></g><g text-anchor="middle" stroke-linejoin="round" font-family="sans-serif" font-style="normal" dominant-baseline="baseline" fill="black" stroke-width="2px" stroke-linecap="round" font-size="12px" font-weight="bold" transform="translate(80 520 )scale(1 -1 )" stroke="black"><path vector-effect="non-scaling-stroke" d="M0,44 L-6,44 M0,8.932134e+01 L-6,8.932134e+01 M0,1.346427e+02 L-6,1.346427e+02 M0,1.799640e+02 L-6,1.799640e+02 M0,2.252854e+02 L-6,2.252854e+02 M0,2.706067e+02 L-6,2.706067e+02 M0,3.159281e+02 L-6,3.159281e+02 M0,3.612494e+02 L-6,3.612494e+02 "/></g><g stroke-width="2px" stroke-linecap="round" font-size="12px" stroke-linejoin="round" font-weight="normal" dominant-baseline="middle" transform="translate(80 520 )scale(1 1 )" fill="black" stroke="black" font-family="sans-serif" font-style="normal" text-anchor="end"><text dominant-baseline="middle" stroke="none" vector-effect="non-scaling-stroke" x="-10" y="-44">0s</text><text vector-effect="non-scaling-stroke" x="-10" y="-8.932134e+01" dominant-baseline="middle" stroke="none">200ms</text><text stroke="none" vector-effect="non-scaling-stroke" x="-10" y="-1.346427e+02" dominant-baseline="middle">400ms</text><text stroke="none" vector-effect="non-scaling-stroke" x="-10" y="-1.799640e+02" dominant-baseline="middle">600ms</text><text x="-10" y="-2.252854e+02" dominant-baseline="middle" stroke="none" vector-effect="non-scaling-stroke">800ms</text><text vector-effect="non-scaling-stroke" x="-10" y="-2.706067e+02" dominant-baseline="middle" stroke="none">1s</text><text dominant-baseline="middle" stroke="none" vector-effect="non-scaling-stroke" x="-10" y="-3.159281e+02">1.2s</text><text stroke="none" vector-effect="non-scaling-stroke" x="-10" y="-3.612494e+02" dominant-baseline="middle">1.4s</text></g><g font-style="normal" stroke-linecap="round" stroke="black" text-anchor="middle" fill="black" stroke-width="2px" font-family="sans-serif" font-weight="bold" dominant-baseline="hanging" stroke-linejoin="round" font-size="12px" transform="translate(80 520 )scale(1 1 )rotate(-90 0 0 )"><text dominant-baseline="hanging" stroke="none" vector-effect="non-scaling-stroke" x="220" y="6">Runtime</text></g></g></g></g></svg>