<svg height="600" viewbox="0 0 800 600" preserveAspectRatio="xMidYMid meet" xmlns="http://www.w3.org/2000/svg" width="800"><defs><marker markerWidth="2%" markerHeight="2%" id="circle" viewBox="0 0 10 10 " refX="5" refY="5" markerUnits="userSpaceOnUse"><circle fill="none" stroke="black" cx="5" cy="5" r="3"/></marker><marker refX="5" refY="5" markerUnits="userSpaceOnUse" markerWidth="2%" markerHeight="2%" id="filled-circle" viewBox="0 0 10 10 "><circle r="3" fill="black" stroke="none" cx="5" cy="5"/></marker><marker refY="5" markerUnits="userSpaceOnUse" markerWidth="2%" markerHeight="2%" id="square" viewBox="0 0 10 10 " refX="5"><rect width="6" height="6" fill="none" stroke="black" x="2" y="2"/></marker><marker markerUnits="userSpaceOnUse" markerWidth="2%" markerHeight="2%" id="filled-square" viewBox="0 0 10 10 " refX="5" refY="5"><rect width="6" height="6" fill="black" stroke="none" x="2" y="2"/></marker></defs><g stroke-linecap="round" stroke-linejoin="round" transform="translate(80 520 )scale(1 -1 )" fill="hsl(198, 47%, 65%)" stroke="hsl(198, 47%, 65%)" stroke-width="1px"><rect width="8.533333e+00" height="4.400846e+01" vector-effect="non-scaling-stroke" x="5.546667e+01" y="0"/><rect width="8.533333e+00" height="4.400677e+01" vector-effect="non-scaling-stroke" x="7.680000e+01" y="0"/><rect vector-effect="non-scaling-stroke" x="9.813333e+01" y="0" width="8.533333e+00" height="4.400685e+01"/><rect y="0" width="8.533333e+00" height="4.456216e+01" vector-effect="non-scaling-stroke" x="1.194667e+02"/><rect height="7.645785e+01" vector-effect="non-scaling-stroke" x="1.408000e+02" y="0" width="8.533333e+00"/><rect vector-effect="non-scaling-stroke" x="1.621333e+02" y="0" width="8.533333e+00" height="4.927174e+01"/><rect vector-effect="non-scaling-stroke" x="1.834667e+02" y="0" width="8.533333e+00" height="4.468293e+01"/><rect vector-effect="non-scaling-stroke" x="2.048000e+02" y="0" width="8.533333e+00" height="4.414726e+01"/><rect height="4.403901e+01" vector-effect="non-scaling-stroke" x="2.261333e+02" y="0" width="8.533333e+00"/><rect width="8.533333e+00" height="4.437436e+01" vector-effect="non-scaling-stroke" x="2.474667e+02" y="0"/><rect width="8.533333e+00" height="4.405410e+01" vector-effect="non-scaling-stroke" x="2.688000e+02" y="0"/><rect x="2.901333e+02" y="0" width="8.533333e+00" height="4.491302e+01" vector-effect="non-scaling-stroke"/><rect x="3.114667e+02" y="0" width="8.533333e+00" height="6.895581e+01" vector-effect="non-scaling-stroke"/><rect vector-effect="non-scaling-stroke" x="3.328000e+02" y="0" width="8.533333e+00" height="6.537308e+01"/><rect x="3.541333e+02" y="0" width="8.533333e+00" height="2.892051e+02" vector-effect="non-scaling-stroke"/><rect y="0" width="8.533333e+00" height="1.186967e+02" vector-effect="non-scaling-stroke" x="3.754667e+02"/><rect vector-effect="non-scaling-stroke" x="3.968000e+02" y="0" width="8.533333e+00" height="1.938593e+02"/><rect vector-effect="non-scaling-stroke" x="4.181333e+02" y="0" width="8.533333e+00" height="4.673487e+01"/><rect height="4.411668e+01" vector-effect="non-scaling-stroke" x="4.394667e+02" y="0" width="8.533333e+00"/><rect height="1.234329e+02" vector-effect="non-scaling-stroke" x="4.608000e+02" y="0" width="8.533333e+00"/><rect x="4.821333e+02" y="0" width="8.533333e+00" height="6.812314e+01" vector-effect="non-scaling-stroke"/><rect x="5.034667e+02" y="0" width="8.533333e+00" height="6.536163e+01" vector-effect="non-scaling-stroke"/><rect vector-effect="non-scaling-stroke" x="5.248000e+02" y="0" width="8.533333e+00" height="4.477407e+01"/><rect vector-effect="non-scaling-stroke" x="5.461333e+02" y="0" width="8.533333e+00" height="9.460388e+01"/><rect vector-effect="non-scaling-stroke" x="5.674667e+02" y="0" width="8.533333e+00" height="5.593159e+01"/></g><g transform="translate(80 520 )scale(1 -1 )" fill="hsl(49, 88%, 65%)" stroke="hsl(49, 88%, 65%)" stroke-width="1px" stroke-linecap="round" stroke-linejoin="round"><rect vector-effect="non-scaling-stroke" x="64" y="0" width="8.533333e+00" height="4.400065e+01"/><rect height="4.400359e+01" vector-effect="non-scaling-stroke" x="8.533333e+01" y="0" width="8.533333e+00"/><rect vector-effect="non-scaling-stroke" x="1.066667e+02" y="0" width="8.533333e+00" height="4.400452e+01"/><rect y="0" width="8.533333e+00" height="4.471941e+01" vector-effect="non-scaling-stroke" x="128"/><rect height="5.580168e+01" vector-effect="non-scaling-stroke" x="1.493333e+02" y="0" width="8.533333e+00"/><rect height="4.447051e+01" vector-effect="non-scaling-stroke" x="1.706667e+02" y="0" width="8.533333e+00"/><rect width="8.533333e+00" height="4.423506e+01" vector-effect="non-scaling-stroke" x="192" y="0"/><rect y="0" width="8.533333e+00" height="4.408020e+01" vector-effect="non-scaling-stroke" x="2.133333e+02"/><rect vector-effect="non-scaling-stroke" x="2.346667e+02" y="0" width="8.533333e+00" height="4.402254e+01"/><rect y="0" width="8.533333e+00" height="4.404461e+01" vector-effect="non-scaling-stroke" x="2.560000e+02"/><rect vector-effect="non-scaling-stroke" x="2.773333e+02" y="0" width="8.533333e+00" height="4.403912e+01"/><rect x="2.986667e+02" y="0" width="8.533333e+00" height="4.434157e+01" vector-effect="non-scaling-stroke"/><rect y="0" width="8.533333e+00" height="1.996872e+02" vector-effect="non-scaling-stroke" x="320"/><rect x="3.413333e+02" y="0" width="8.533333e+00" height="5.008636e+01" vector-effect="non-scaling-stroke"/><rect x="3.626667e+02" y="0" width="8.533333e+00" height="396" vector-effect="non-scaling-stroke"/><rect x="384" y="0" width="8.533333e+00" height="5.041445e+01" vector-effect="non-scaling-stroke"/><rect y="0" width="8.533333e+00" height="1.475452e+02" vector-effect="non-scaling-stroke" x="4.053333e+02"/><rect vector-effect="non-scaling-stroke" x="4.266667e+02" y="0" width="8.533333e+00" height="4.420129e+01"/><rect y="0" width="8.533333e+00" height="44" vector-effect="non-scaling-stroke" x="448"/><rect y="0" width="8.533333e+00" height="44" vector-effect="non-scaling-stroke" x="4.693333e+02"/><rect x="4.906667e+02" y="0" width="8.533333e+00" height="44" vector-effect="non-scaling-stroke"/><rect y="0" width="8.533333e+00" height="44" vector-effect="non-scaling-stroke" x="512"/><rect y="0" width="8.533333e+00" height="44" vector-effect="non-scaling-stroke" x="5.333333e+02"/><rect x="5.546667e+02" y="0" width="8.533333e+00" height="44" vector-effect="non-scaling-stroke"/><rect y="0" width="8.533333e+00" height="44" vector-effect="non-scaling-stroke" x="576"/></g><g font-size="12px" stroke-linejoin="round" font-family="sans-serif" font-weight="normal" stroke-linecap="round" dominant-baseline="hanging" text-anchor="start" fill="hsl(198, 47%, 65%)" stroke="hsl(198, 47%, 65%)" stroke-width="1px" font-style="normal"><rect y="484" width="12" height="12" vector-effect="non-scaling-stroke" x="736"/><g fill="black" stroke="black"><text stroke="none" vector-effect="non-scaling-stroke" x="752" y="484" dominant-baseline="hanging">Golang</text></g><g fill="hsl(49, 88%, 65%)" stroke="hsl(49, 88%, 65%)" stroke-width="1px" stroke-linejoin="round" stroke-linecap="round" font-size="12px" text-anchor="start" font-style="normal" font-weight="normal" dominant-baseline="hanging" font-family="sans-serif"><rect height="12" vector-effect="non-scaling-stroke" x="736" y="502" width="12"/><g fill="black" stroke="black"><text x="752" y="502" dominant-baseline="hanging" stroke="none" vector-effect="non-scaling-stroke">Rust</text><g stroke-linejoin="round" stroke-linecap="round" font-weight="normal" dominant-baseline="hanging" font-size="12px" text-anchor="start" font-family="sans-serif" font-style="normal" stroke-width="2px" fill="none"><rect vector-effect="non-scaling-stroke" x="80" y="80" width="640" height="440"/></g><g fill="none" stroke="black" font-style="normal" font-weight="normal" dominant-baseline="hanging" text-anchor="start" transform="translate(80 520 )scale(1 -1 )" stroke-width="2px" stroke-linejoin="round" font-family="sans-serif" stroke-linecap="round" font-size="12px"><path d="M64,0 L64,-6 M8.533333e+01,0 L8.533333e+01,-6 M1.066667e+02,0 L1.066667e+02,-6 M128,0 L128,-6 M1.493333e+02,0 L1.493333e+02,-6 M1.706667e+02,0 L1.706667e+02,-6 M192,0 L192,-6 M2.133333e+02,0 L2.133333e+02,-6 M2.346667e+02,0 L2.346667e+02,-6 M256,0 L256,-6 M2.773333e+02,0 L2.773333e+02,-6 M2.986667e+02,0 L2.986667e+02,-6 M320,0 L320,-6 M3.413333e+02,0 L3.413333e+02,-6 M3.626667e+02,0 L3.626667e+02,-6 M384,0 L384,-6 M4.053333e+02,0 L4.053333e+02,-6 M4.266667e+02,0 L4.266667e+02,-6 M448,0 L448,-6 M4.693333e+02,0 L4.693333e+02,-6 M4.906667e+02,0 L4.906667e+02,-6 M512,0 L512,-6 M5.333333e+02,0 L5.333333e+02,-6 M5.546667e+02,0 L5.546667e+02,-6 M576,0 L576,-6 " vector-effect="non-scaling-stroke"/></g><g transform="translate(80 520 )scale(1 1 )" stroke-linejoin="round" font-family="sans-serif" font-style="normal" font-weight="normal" dominant-baseline="hanging" fill="black" font-size="12px" stroke-linecap="round" stroke="black" stroke-width="2px" text-anchor="middle"><text x="64" y="10" dominant-baseline="hanging" stroke="none" vector-effect="non-scaling-stroke">1</text><text vector-effect="non-scaling-stroke" x="8.533333e+01" y="10" dominant-baseline="hanging" stroke="none">2</text><text vector-effect="non-scaling-stroke" x="1.066667e+02" y="10" dominant-baseline="hanging" stroke="none">3</text><text vector-effect="non-scaling-stroke" x="128" y="10" dominant-baseline="hanging" stroke="none">4</text><text x="1.493333e+02" y="10" dominant-baseline="hanging" stroke="none" vector-effect="non-scaling-stroke">5</text><text y="10" dominant-baseline="hanging" stroke="none" vector-effect="non-scaling-stroke" x="1.706667e+02">6</text><text stroke="none" vector-effect="non-scaling-stroke" x="192" y="10" dominant-baseline="hanging">7</text><text vector-effect="non-scaling-stroke" x="2.133333e+02" y="10" dominant-baseline="hanging" stroke="none">8</text><text stroke="none" vector-effect="non-scaling-stroke" x="2.346667e+02" y="10" dominant-baseline="hanging">9</text><text y="10" dominant-baseline="hanging" stroke="none" vector-effect="non-scaling-stroke" x="256">10</text><text x="2.773333e+02" y="10" dominant-baseline="hanging" stroke="none" vector-effect="non-scaling-stroke">11</text><text vector-effect="non-scaling-stroke" x="2.986667e+02" y="10" dominant-baseline="hanging" stroke="none">12</text><text x="320" y="10" dominant-baseline="hanging" stroke="none" vector-effect="non-scaling-stroke">13</text><text stroke="none" vector-effect="non-scaling-stroke" x="3.413333e+02" y="10" dominant-baseline="hanging">14</text><text stroke="none" vector-effect="non-scaling-stroke" x="3.626667e+02" y="10" dominant-baseline="hanging">15</text><text stroke="none" vector-effect="non-scaling-stroke" x="384" y="10" dominant-baseline="hanging">16</text><text stroke="none" vector-effect="non-scaling-stroke" x="4.053333e+02" y="10" dominant-baseline="hanging">17</text><text y="10" dominant-baseline="hanging" stroke="none" vector-effect="non-scaling-stroke" x="4.266667e+02">18</text><text stroke="none" vector-effect="non-scaling-stroke" x="448" y="10" dominant-baseline="hanging">19</text><text vector-effect="non-scaling-stroke" x="4.693333e+02" y="10" dominant-baseline="hanging" stroke="none">20</text><text y="10" dominant-baseline="hanging" stroke="none" vector-effect="non-scaling-stroke" x="4.906667e+02">21</text><text y="10" dominant-baseline="hanging" stroke="none" vector-effect="non-scaling-stroke" x="512">22</text><text y="10" dominant-baseline="hanging" stroke="none" vector-effect="non-scaling-stroke" x="5.333333e+02">23</text><text stroke="none" vector-effect="non-scaling-stroke" x="5.546667e+02" y="10" dominant-baseline="hanging">24</text><text dominant-baseline="hanging" stroke="none" vector-effect="non-scaling-stroke" x="576" y="10">25</text></g><g font-family="sans-serif" font-style="normal" dominant-baseline="baseline" font-size="12px" text-anchor="middle" transform="translate(80 520 )scale(1 1 )rotate(0 0 0 )" stroke-linecap="round" stroke="black" stroke-width="2px" stroke-linejoin="round" font-weight="bold" fill="black"><text stroke="none" vector-effect="non-scaling-stroke" x="320" y="-6" dominant-baseline="baseline">Day</text></g><g text-anchor="middle" transform="translate(80 520 )scale(1 -1 )" stroke-linecap="round" font-size="12px" stroke-linejoin="round" font-family="sans-serif" font-weight="bold" fill="black" stroke-width="2px" font-style="normal" dominant-baseline="baseline" stroke="black"><path vector-effect="non-scaling-stroke" d="M0,44 L-6,44 M0,8.682074e+01 L-6,8.682074e+01 M0,1.296415e+02 L-6,1.296415e+02 M0,1.724622e+02 L-6,1.724622e+02 M0,2.152830e+02 L-6,2.152830e+02 M0,2.581037e+02 L-6,2.581037e+02 M0,3.009245e+02 L-6,3.009245e+02 M0,3.437452e+02 L-6,3.437452e+02 M0,3.865659e+02 L-6,3.865659e+02 "/></g><g fill="black" stroke-linejoin="round" font-size="12px" transform="translate(80 520 )scale(1 1 )" font-style="normal" font-weight="normal" stroke-width="2px" font-family="sans-serif" stroke-linecap="round" text-anchor="end" dominant-baseline="middle" stroke="black"><text y="-44" dominant-baseline="middle" stroke="none" vector-effect="non-scaling-stroke" x="-10">0s</text><text x="-10" y="-8.682074e+01" dominant-baseline="middle" stroke="none" vector-effect="non-scaling-stroke">200ms</text><text vector-effect="non-scaling-stroke" x="-10" y="-1.296415e+02" dominant-baseline="middle" stroke="none">400ms</text><text dominant-baseline="middle" stroke="none" vector-effect="non-scaling-stroke" x="-10" y="-1.724622e+02">600ms</text><text stroke="none" vector-effect="non-scaling-stroke" x="-10" y="-2.152830e+02" dominant-baseline="middle">800ms</text><text dominant-baseline="middle" stroke="none" vector-effect="non-scaling-stroke" x="-10" y="-2.581037e+02">1s</text><text dominant-baseline="middle" stroke="none" vector-effect="non-scaling-stroke" x="-10" y="-3.009245e+02">1.2s</text><text stroke="none" vector-effect="non-scaling-stroke" x="-10" y="-3.437452e+02" dominant-baseline="middle">1.4s</text><text stroke="none" vector-effect="non-scaling-stroke" x="-10" y="-3.865659e+02" dominant-baseline="middle">1.6s</text></g><g stroke-linecap="round" font-size="12px" stroke-width="2px" font-family="sans-serif" font-style="normal" fill="black" transform="translate(80 520 )scale(1 1 )rotate(-90 0 0 )" stroke-linejoin="round" font-weight="bold" dominant-baseline="hanging" stroke="black" text-anchor="middle"><text vector-effect="non-scaling-stroke" x="220" y="6" dominant-baseline="hanging" stroke="none">Runtime</text></g></g></g></g></svg>