<svg xmlns="http://www.w3.org/2000/svg" width="800" height="600" viewbox="0 0 800 600" preserveAspectRatio="xMidYMid meet"><defs><marker id="circle" viewBox="0 0 10 10 " refX="5" refY="5" markerUnits="userSpaceOnUse" markerWidth="2%" markerHeight="2%"><circle cx="5" cy="5" r="3" fill="none" stroke="black"/></marker><marker id="filled-circle" viewBox="0 0 10 10 " refX="5" refY="5" markerUnits="userSpaceOnUse" markerWidth="2%" markerHeight="2%"><circle cx="5" cy="5" r="3" fill="black" stroke="none"/></marker><marker id="square" viewBox="0 0 10 10 " refX="5" refY="5" markerUnits="userSpaceOnUse" markerWidth="2%" markerHeight="2%"><rect width="6" height="6" fill="none" stroke="black" x="2" y="2"/></marker><marker markerWidth="2%" markerHeight="2%" id="filled-square" viewBox="0 0 10 10 " refX="5" refY="5" markerUnits="userSpaceOnUse"><rect width="6" height="6" fill="black" stroke="none" x="2" y="2"/></marker></defs><g stroke="hsl(198, 47%, 65%)" stroke-width="1px" stroke-linecap="round" stroke-linejoin="round" transform="translate(80 520 )scale(1 -1 )" fill="hsl(198, 47%, 65%)"><rect vector-effect="non-scaling-stroke" x="5.546667e+01" y="0" width="5.688889e+00" height="4.401184e+01"/></g><g fill="hsl(49, 88%, 65%)" stroke="hsl(49, 88%, 65%)" stroke-width="1px" stroke-linecap="round" stroke-linejoin="round" transform="translate(80 520 )scale(1 -1 )"><rect vector-effect="non-scaling-stroke" x="6.115556e+01" y="0" width="5.688889e+00" height="4.400509e+01"/><rect x="8.248889e+01" y="0" width="5.688889e+00" height="4.413260e+01" vector-effect="non-scaling-stroke"/><rect x="1.038222e+02" y="0" width="5.688889e+00" height="4.413039e+01" vector-effect="non-scaling-stroke"/><rect x="1.251556e+02" y="0" width="5.688889e+00" height="2.879621e+02" vector-effect="non-scaling-stroke"/><rect x="1.464889e+02" y="0" width="5.688889e+00" height="4.409330e+01" vector-effect="non-scaling-stroke"/><rect vector-effect="non-scaling-stroke" x="1.678222e+02" y="0" width="5.688889e+00" height="6.692243e+01"/><rect height="4.405552e+01" vector-effect="non-scaling-stroke" x="1.891556e+02" y="0" width="5.688889e+00"/><rect width="5.688889e+00" height="4.400543e+01" vector-effect="non-scaling-stroke" x="2.104889e+02" y="0"/><rect vector-effect="non-scaling-stroke" x="2.318222e+02" y="0" width="5.688889e+00" height="4.665495e+01"/><rect vector-effect="non-scaling-stroke" x="2.531556e+02" y="0" width="5.688889e+00" height="6.499947e+01"/><rect x="2.744889e+02" y="0" width="5.688889e+00" height="5.294009e+01" vector-effect="non-scaling-stroke"/><rect x="2.958222e+02" y="0" width="5.688889e+00" height="5.773790e+01" vector-effect="non-scaling-stroke"/><rect vector-effect="non-scaling-stroke" x="3.171556e+02" y="0" width="5.688889e+00" height="6.997441e+01"/><rect height="4.405365e+01" vector-effect="non-scaling-stroke" x="3.384889e+02" y="0" width="5.688889e+00"/><rect width="5.688889e+00" height="6.209517e+01" vector-effect="non-scaling-stroke" x="3.598222e+02" y="0"/><rect vector-effect="non-scaling-stroke" x="3.811556e+02" y="0" width="5.688889e+00" height="4.409398e+01"/><rect vector-effect="non-scaling-stroke" x="4.024889e+02" y="0" width="5.688889e+00" height="5.981487e+01"/><rect x="4.238222e+02" y="0" width="5.688889e+00" height="4.507278e+01" vector-effect="non-scaling-stroke"/><rect vector-effect="non-scaling-stroke" x="4.451556e+02" y="0" width="5.688889e+00" height="4.406545e+01"/><rect height="1.162751e+03" vector-effect="non-scaling-stroke" x="4.664889e+02" y="0" width="5.688889e+00"/><rect x="4.878222e+02" y="0" width="5.688889e+00" height="4.411141e+01" vector-effect="non-scaling-stroke"/><rect y="0" width="5.688889e+00" height="5.312401e+02" vector-effect="non-scaling-stroke" x="5.091556e+02"/><rect vector-effect="non-scaling-stroke" x="5.304889e+02" y="0" width="5.688889e+00" height="4.400800e+01"/><rect vector-effect="non-scaling-stroke" x="5.518222e+02" y="0" width="5.688889e+00" height="8.510916e+01"/><rect x="5.731556e+02" y="0" width="5.688889e+00" height="4.400135e+01" vector-effect="non-scaling-stroke"/></g><g stroke="hsl(260, 76%, 65%)" stroke-width="1px" stroke-linecap="round" stroke-linejoin="round" transform="translate(80 520 )scale(1 -1 )" fill="hsl(260, 76%, 65%)"><rect vector-effect="non-scaling-stroke" x="6.684444e+01" y="0" width="5.688889e+00" height="4.400122e+01"/><rect y="0" width="5.688889e+00" height="4.402011e+01" vector-effect="non-scaling-stroke" x="8.817778e+01"/><rect y="0" width="5.688889e+00" height="4.416299e+01" vector-effect="non-scaling-stroke" x="1.095111e+02"/><rect x="1.308444e+02" y="0" width="5.688889e+00" height="4.168609e+02" vector-effect="non-scaling-stroke"/><rect vector-effect="non-scaling-stroke" x="1.521778e+02" y="0" width="5.688889e+00" height="4.406831e+01"/><rect y="0" width="5.688889e+00" height="5.359341e+01" vector-effect="non-scaling-stroke" x="1.735111e+02"/><rect vector-effect="non-scaling-stroke" x="1.948444e+02" y="0" width="5.688889e+00" height="4.407628e+01"/><rect x="2.161778e+02" y="0" width="5.688889e+00" height="4.401309e+01" vector-effect="non-scaling-stroke"/><rect y="0" width="5.688889e+00" height="4.568782e+01" vector-effect="non-scaling-stroke" x="2.375111e+02"/><rect vector-effect="non-scaling-stroke" x="2.588444e+02" y="0" width="5.688889e+00" height="2.502491e+02"/><rect height="6.125375e+01" vector-effect="non-scaling-stroke" x="2.801778e+02" y="0" width="5.688889e+00"/><rect height="4.409617e+01" vector-effect="non-scaling-stroke" x="3.015111e+02" y="0" width="5.688889e+00"/><rect y="0" width="5.688889e+00" height="7.576554e+01" vector-effect="non-scaling-stroke" x="3.228444e+02"/><rect x="3.441778e+02" y="0" width="5.688889e+00" height="4.415957e+01" vector-effect="non-scaling-stroke"/><rect height="5.762408e+01" vector-effect="non-scaling-stroke" x="3.655111e+02" y="0" width="5.688889e+00"/><rect vector-effect="non-scaling-stroke" x="3.868444e+02" y="0" width="5.688889e+00" height="4.409243e+01"/><rect y="0" width="5.688889e+00" height="5.546189e+01" vector-effect="non-scaling-stroke" x="4.081778e+02"/><rect vector-effect="non-scaling-stroke" x="4.295111e+02" y="0" width="5.688889e+00" height="4.874756e+01"/><rect vector-effect="non-scaling-stroke" x="4.508444e+02" y="0" width="5.688889e+00" height="4.428509e+01"/><rect vector-effect="non-scaling-stroke" x="4.721778e+02" y="0" width="5.688889e+00" height="5.297086e+02"/><rect width="5.688889e+00" height="4.401087e+01" vector-effect="non-scaling-stroke" x="4.935111e+02" y="0"/><rect height="1.758388e+02" vector-effect="non-scaling-stroke" x="5.148444e+02" y="0" width="5.688889e+00"/><rect vector-effect="non-scaling-stroke" x="5.361778e+02" y="0" width="5.688889e+00" height="4.400165e+01"/><rect vector-effect="non-scaling-stroke" x="5.575111e+02" y="0" width="5.688889e+00" height="4.648301e+01"/><rect y="0" width="5.688889e+00" height="4.400009e+01" vector-effect="non-scaling-stroke" x="5.788444e+02"/></g><g fill="hsl(198, 47%, 65%)" font-size="12px" dominant-baseline="hanging" stroke-linecap="round" font-weight="normal" stroke="hsl(198, 47%, 65%)" stroke-width="1px" font-style="normal" text-anchor="start" stroke-linejoin="round" font-family="sans-serif"><rect height="12" vector-effect="non-scaling-stroke" x="736" y="466" width="12"/><g fill="black" stroke="black"><text y="466" dominant-baseline="hanging" stroke="none" vector-effect="non-scaling-stroke" x="752">Crystal</text></g><g text-anchor="start" stroke="hsl(49, 88%, 65%)" font-size="12px" dominant-baseline="hanging" fill="hsl(49, 88%, 65%)" stroke-width="1px" font-style="normal" stroke-linecap="round" stroke-linejoin="round" font-family="sans-serif" font-weight="normal"><rect y="484" width="12" height="12" vector-effect="non-scaling-stroke" x="736"/><g stroke="black" fill="black"><text stroke="none" vector-effect="non-scaling-stroke" x="752" y="484" dominant-baseline="hanging">Golang</text></g><g font-style="normal" dominant-baseline="hanging" stroke-linecap="round" stroke-linejoin="round" font-family="sans-serif" fill="hsl(260, 76%, 65%)" font-size="12px" text-anchor="start" font-weight="normal" stroke="hsl(260, 76%, 65%)" stroke-width="1px"><rect x="736" y="502" width="12" height="12" vector-effect="non-scaling-stroke"/><g fill="black" stroke="black"><text x="752" y="502" dominant-baseline="hanging" stroke="none" vector-effect="non-scaling-stroke">Rust</text><g font-family="sans-serif" stroke-linejoin="round" font-weight="normal" text-anchor="start" dominant-baseline="hanging" font-style="normal" fill="none" font-size="12px" stroke-linecap="round" stroke-width="2px"><rect width="640" height="440" vector-effect="non-scaling-stroke" x="80" y="80"/></g><g font-weight="normal" text-anchor="start" dominant-baseline="hanging" stroke-width="2px" stroke-linecap="round" stroke-linejoin="round" font-family="sans-serif" transform="translate(80 520 )scale(1 -1 )" fill="none" stroke="black" font-size="12px" font-style="normal"><path vector-effect="non-scaling-stroke" d="M64,0 L64,-6 "/></g><g font-weight="normal" dominant-baseline="hanging" fill="black" stroke="black" text-anchor="middle" stroke-linecap="round" stroke-linejoin="round" transform="translate(80 520 )scale(1 1 )" stroke-width="2px" font-size="12px" font-style="normal" font-family="sans-serif"><text y="10" dominant-baseline="hanging" stroke="none" vector-effect="non-scaling-stroke" x="64">1</text></g><g font-weight="bold" transform="translate(80 520 )scale(1 1 )rotate(0 0 0 )" stroke="black" stroke-width="2px" font-style="normal" font-family="sans-serif" stroke-linejoin="round" text-anchor="middle" dominant-baseline="baseline" fill="black" font-size="12px" stroke-linecap="round"><text dominant-baseline="baseline" stroke="none" vector-effect="non-scaling-stroke" x="320" y="-6">Day</text></g><g stroke-linejoin="round" font-weight="bold" fill="black" stroke="black" stroke-width="2px" stroke-linecap="round" font-family="sans-serif" font-style="normal" text-anchor="middle" dominant-baseline="baseline" transform="translate(80 520 )scale(1 -1 )" font-size="12px"><path d="M0,44 L-6,44 M0,7.920000e+01 L-6,7.920000e+01 M0,1.144000e+02 L-6,1.144000e+02 M0,1.496000e+02 L-6,1.496000e+02 M0,1.848000e+02 L-6,1.848000e+02 M0,220 L-6,220 M0,2.552000e+02 L-6,2.552000e+02 M0,2.904000e+02 L-6,2.904000e+02 M0,3.256000e+02 L-6,3.256000e+02 M0,3.608000e+02 L-6,3.608000e+02 M0,396 L-6,396 " vector-effect="non-scaling-stroke"/></g><g font-style="normal" text-anchor="end" transform="translate(80 520 )scale(1 1 )" font-family="sans-serif" font-weight="normal" stroke-linecap="round" stroke-linejoin="round" fill="black" stroke="black" stroke-width="2px" font-size="12px" dominant-baseline="middle"><text stroke="none" vector-effect="non-scaling-stroke" x="-10" y="-44" dominant-baseline="middle">0s</text><text vector-effect="non-scaling-stroke" x="-10" y="-7.920000e+01" dominant-baseline="middle" stroke="none">200ms</text><text stroke="none" vector-effect="non-scaling-stroke" x="-10" y="-1.144000e+02" dominant-baseline="middle">400ms</text><text y="-1.496000e+02" dominant-baseline="middle" stroke="none" vector-effect="non-scaling-stroke" x="-10">600ms</text><text y="-1.848000e+02" dominant-baseline="middle" stroke="none" vector-effect="non-scaling-stroke" x="-10">800ms</text><text x="-10" y="-220" dominant-baseline="middle" stroke="none" vector-effect="non-scaling-stroke">1s</text><text vector-effect="non-scaling-stroke" x="-10" y="-2.552000e+02" dominant-baseline="middle" stroke="none">1.2s</text><text dominant-baseline="middle" stroke="none" vector-effect="non-scaling-stroke" x="-10" y="-2.904000e+02">1.4s</text><text dominant-baseline="middle" stroke="none" vector-effect="non-scaling-stroke" x="-10" y="-3.256000e+02">1.6s</text><text dominant-baseline="middle" stroke="none" vector-effect="non-scaling-stroke" x="-10" y="-3.608000e+02">1.8s</text><text stroke="none" vector-effect="non-scaling-stroke" x="-10" y="-396" dominant-baseline="middle">2s</text></g><g font-style="normal" stroke-linecap="round" text-anchor="middle" dominant-baseline="hanging" transform="translate(80 520 )scale(1 1 )rotate(-90 0 0 )" stroke-width="2px" font-size="12px" fill="black" stroke="black" stroke-linejoin="round" font-family="sans-serif" font-weight="bold"><text stroke="none" vector-effect="non-scaling-stroke" x="220" y="6" dominant-baseline="hanging">Runtime</text></g></g></g></g></g></svg>