<svg height="600" viewbox="0 0 800 600" preserveAspectRatio="xMidYMid meet" xmlns="http://www.w3.org/2000/svg" width="800"><defs><marker markerUnits="userSpaceOnUse" markerWidth="2%" markerHeight="2%" id="circle" viewBox="0 0 10 10 " refX="5" refY="5"><circle stroke="black" cx="5" cy="5" r="3" fill="none"/></marker><marker markerUnits="userSpaceOnUse" markerWidth="2%" markerHeight="2%" id="filled-circle" viewBox="0 0 10 10 " refX="5" refY="5"><circle fill="black" stroke="none" cx="5" cy="5" r="3"/></marker><marker id="square" viewBox="0 0 10 10 " refX="5" refY="5" markerUnits="userSpaceOnUse" markerWidth="2%" markerHeight="2%"><rect stroke="black" x="2" y="2" width="6" height="6" fill="none"/></marker><marker refY="5" markerUnits="userSpaceOnUse" markerWidth="2%" markerHeight="2%" id="filled-square" viewBox="0 0 10 10 " refX="5"><rect x="2" y="2" width="6" height="6" fill="black" stroke="none"/></marker></defs><g stroke-linejoin="round" transform="translate(80 520 )scale(1 -1 )" fill="hsl(198, 47%, 65%)" stroke="hsl(198, 47%, 65%)" stroke-width="1px" stroke-linecap="round"><rect vector-effect="non-scaling-stroke" x="5.546667e+01" y="0" width="5.688889e+00" height="4.411344e+01"/><rect height="4.488668e+01" vector-effect="non-scaling-stroke" x="7.680000e+01" y="0" width="5.688889e+00"/><rect vector-effect="non-scaling-stroke" x="9.813333e+01" y="0" width="5.688889e+00" height="5.956744e+01"/><rect y="0" width="5.688889e+00" height="4.450090e+01" vector-effect="non-scaling-stroke" x="1.194667e+02"/><rect x="1.408000e+02" y="0" width="5.688889e+00" height="8.910424e+01" vector-effect="non-scaling-stroke"/><rect y="0" width="5.688889e+00" height="4.930535e+01" vector-effect="non-scaling-stroke" x="1.621333e+02"/><rect vector-effect="non-scaling-stroke" x="1.834667e+02" y="0" width="5.688889e+00" height="4.403223e+01"/><rect width="5.688889e+00" height="4.404383e+01" vector-effect="non-scaling-stroke" x="2.048000e+02" y="0"/><rect vector-effect="non-scaling-stroke" x="2.261333e+02" y="0" width="5.688889e+00" height="7.965545e+01"/><rect y="0" width="5.688889e+00" height="4.421793e+01" vector-effect="non-scaling-stroke" x="2.474667e+02"/><rect y="0" width="5.688889e+00" height="4.889217e+01" vector-effect="non-scaling-stroke" x="2.688000e+02"/><rect x="2.901333e+02" y="0" width="5.688889e+00" height="4.433675e+01" vector-effect="non-scaling-stroke"/><rect width="5.688889e+00" height="4.502286e+01" vector-effect="non-scaling-stroke" x="3.114667e+02" y="0"/><rect vector-effect="non-scaling-stroke" x="3.328000e+02" y="0" width="5.688889e+00" height="6.472781e+01"/><rect vector-effect="non-scaling-stroke" x="3.541333e+02" y="0" width="5.688889e+00" height="1.206203e+02"/><rect width="5.688889e+00" height="4.688408e+01" vector-effect="non-scaling-stroke" x="3.754667e+02" y="0"/><rect height="5.206799e+01" vector-effect="non-scaling-stroke" x="3.968000e+02" y="0" width="5.688889e+00"/><rect height="7.533751e+01" vector-effect="non-scaling-stroke" x="4.181333e+02" y="0" width="5.688889e+00"/><rect width="5.688889e+00" height="5.500452e+01" vector-effect="non-scaling-stroke" x="4.394667e+02" y="0"/><rect height="4.908151e+01" vector-effect="non-scaling-stroke" x="4.608000e+02" y="0" width="5.688889e+00"/><rect height="9.013012e+01" vector-effect="non-scaling-stroke" x="4.821333e+02" y="0" width="5.688889e+00"/><rect height="4.986591e+02" vector-effect="non-scaling-stroke" x="5.034667e+02" y="0" width="5.688889e+00"/><rect y="0" width="5.688889e+00" height="7.252352e+01" vector-effect="non-scaling-stroke" x="5.248000e+02"/><rect y="0" width="5.688889e+00" height="6.058916e+01" vector-effect="non-scaling-stroke" x="5.461333e+02"/><rect y="0" width="5.688889e+00" height="4.549603e+01" vector-effect="non-scaling-stroke" x="5.674667e+02"/></g><g transform="translate(80 520 )scale(1 -1 )" fill="hsl(49, 88%, 65%)" stroke="hsl(49, 88%, 65%)" stroke-width="1px" stroke-linecap="round" stroke-linejoin="round"><rect vector-effect="non-scaling-stroke" x="6.115556e+01" y="0" width="5.688889e+00" height="4.412049e+01"/><rect height="4.408069e+01" vector-effect="non-scaling-stroke" x="8.248889e+01" y="0" width="5.688889e+00"/><rect height="4.480366e+01" vector-effect="non-scaling-stroke" x="1.038222e+02" y="0" width="5.688889e+00"/><rect width="5.688889e+00" height="4.400138e+01" vector-effect="non-scaling-stroke" x="1.251556e+02" y="0"/><rect y="0" width="5.688889e+00" height="4.491188e+01" vector-effect="non-scaling-stroke" x="1.464889e+02"/><rect height="4.526658e+01" vector-effect="non-scaling-stroke" x="1.678222e+02" y="0" width="5.688889e+00"/><rect y="0" width="5.688889e+00" height="4.400071e+01" vector-effect="non-scaling-stroke" x="1.891556e+02"/><rect vector-effect="non-scaling-stroke" x="2.104889e+02" y="0" width="5.688889e+00" height="4.401271e+01"/><rect vector-effect="non-scaling-stroke" x="2.318222e+02" y="0" width="5.688889e+00" height="5.126519e+01"/><rect width="5.688889e+00" height="4.400106e+01" vector-effect="non-scaling-stroke" x="2.531556e+02" y="0"/><rect y="0" width="5.688889e+00" height="4.443394e+01" vector-effect="non-scaling-stroke" x="2.744889e+02"/><rect vector-effect="non-scaling-stroke" x="2.958222e+02" y="0" width="5.688889e+00" height="4.401113e+01"/><rect vector-effect="non-scaling-stroke" x="3.171556e+02" y="0" width="5.688889e+00" height="4.458890e+01"/><rect height="6.202717e+01" vector-effect="non-scaling-stroke" x="3.384889e+02" y="0" width="5.688889e+00"/><rect y="0" width="5.688889e+00" height="7.028620e+01" vector-effect="non-scaling-stroke" x="3.598222e+02"/><rect vector-effect="non-scaling-stroke" x="3.811556e+02" y="0" width="5.688889e+00" height="4.402381e+01"/><rect x="4.024889e+02" y="0" width="5.688889e+00" height="4.414066e+01" vector-effect="non-scaling-stroke"/><rect x="4.238222e+02" y="0" width="5.688889e+00" height="4.750379e+01" vector-effect="non-scaling-stroke"/><rect vector-effect="non-scaling-stroke" x="4.451556e+02" y="0" width="5.688889e+00" height="5.208208e+01"/><rect vector-effect="non-scaling-stroke" x="4.664889e+02" y="0" width="5.688889e+00" height="4.403650e+01"/><rect vector-effect="non-scaling-stroke" x="4.878222e+02" y="0" width="5.688889e+00" height="4.402484e+01"/><rect x="5.091556e+02" y="0" width="5.688889e+00" height="4.644030e+01" vector-effect="non-scaling-stroke"/><rect vector-effect="non-scaling-stroke" x="5.304889e+02" y="0" width="5.688889e+00" height="5.547576e+01"/><rect height="5.265991e+01" vector-effect="non-scaling-stroke" x="5.518222e+02" y="0" width="5.688889e+00"/><rect x="5.731556e+02" y="0" width="5.688889e+00" height="4.433897e+01" vector-effect="non-scaling-stroke"/></g><g transform="translate(80 520 )scale(1 -1 )" fill="hsl(260, 76%, 65%)" stroke="hsl(260, 76%, 65%)" stroke-width="1px" stroke-linecap="round" stroke-linejoin="round"><rect vector-effect="non-scaling-stroke" x="6.684444e+01" y="0" width="5.688889e+00" height="4.411533e+01"/><rect x="8.817778e+01" y="0" width="5.688889e+00" height="4.401099e+01" vector-effect="non-scaling-stroke"/><rect height="4.444991e+01" vector-effect="non-scaling-stroke" x="1.095111e+02" y="0" width="5.688889e+00"/><rect x="1.308444e+02" y="0" width="5.688889e+00" height="4.400138e+01" vector-effect="non-scaling-stroke"/></g><g stroke-width="1px" stroke-linejoin="round" text-anchor="start" dominant-baseline="hanging" fill="hsl(198, 47%, 65%)" stroke="hsl(198, 47%, 65%)" font-size="12px" font-weight="normal" stroke-linecap="round" font-family="sans-serif" font-style="normal"><rect vector-effect="non-scaling-stroke" x="736" y="466" width="12" height="12"/><g fill="black" stroke="black"><text x="752" y="466" dominant-baseline="hanging" stroke="none" vector-effect="non-scaling-stroke">Golang</text></g><g stroke="hsl(49, 88%, 65%)" stroke-width="1px" stroke-linejoin="round" stroke-linecap="round" font-family="sans-serif" font-weight="normal" text-anchor="start" dominant-baseline="hanging" font-style="normal" font-size="12px" fill="hsl(49, 88%, 65%)"><rect height="12" vector-effect="non-scaling-stroke" x="736" y="484" width="12"/><g fill="black" stroke="black"><text stroke="none" vector-effect="non-scaling-stroke" x="752" y="484" dominant-baseline="hanging">Rust</text></g><g font-size="12px" text-anchor="start" dominant-baseline="hanging" stroke="hsl(260, 76%, 65%)" stroke-linejoin="round" font-family="sans-serif" font-style="normal" font-weight="normal" stroke-width="1px" fill="hsl(260, 76%, 65%)" stroke-linecap="round"><rect vector-effect="non-scaling-stroke" x="736" y="502" width="12" height="12"/><g stroke="black" fill="black"><text y="502" dominant-baseline="hanging" stroke="none" vector-effect="non-scaling-stroke" x="752">Zig</text><g stroke-linecap="round" stroke-width="2px" text-anchor="start" stroke-linejoin="round" font-size="12px" font-weight="normal" dominant-baseline="hanging" fill="none" font-family="sans-serif" font-style="normal"><rect vector-effect="non-scaling-stroke" x="80" y="80" width="640" height="440"/></g><g stroke="black" stroke-width="2px" font-size="12px" text-anchor="start" fill="none" font-family="sans-serif" font-style="normal" dominant-baseline="hanging" stroke-linejoin="round" font-weight="normal" stroke-linecap="round" transform="translate(80 520 )scale(1 -1 )"><path vector-effect="non-scaling-stroke" d="M64,0 L64,-6 M8.533333e+01,0 L8.533333e+01,-6 M1.066667e+02,0 L1.066667e+02,-6 M128,0 L128,-6 M1.493333e+02,0 L1.493333e+02,-6 M1.706667e+02,0 L1.706667e+02,-6 M192,0 L192,-6 M2.133333e+02,0 L2.133333e+02,-6 M2.346667e+02,0 L2.346667e+02,-6 M256,0 L256,-6 M2.773333e+02,0 L2.773333e+02,-6 M2.986667e+02,0 L2.986667e+02,-6 M320,0 L320,-6 M3.413333e+02,0 L3.413333e+02,-6 M3.626667e+02,0 L3.626667e+02,-6 M384,0 L384,-6 M4.053333e+02,0 L4.053333e+02,-6 M4.266667e+02,0 L4.266667e+02,-6 M448,0 L448,-6 M4.693333e+02,0 L4.693333e+02,-6 M4.906667e+02,0 L4.906667e+02,-6 M512,0 L512,-6 M5.333333e+02,0 L5.333333e+02,-6 M5.546667e+02,0 L5.546667e+02,-6 M576,0 L576,-6 "/></g><g stroke-linejoin="round" text-anchor="middle" fill="black" stroke-linecap="round" font-family="sans-serif" font-style="normal" stroke-width="2px" stroke="black" font-size="12px" font-weight="normal" dominant-baseline="hanging" transform="translate(80 520 )scale(1 1 )"><text vector-effect="non-scaling-stroke" x="64" y="10" dominant-baseline="hanging" stroke="none">1</text><text dominant-baseline="hanging" stroke="none" vector-effect="non-scaling-stroke" x="8.533333e+01" y="10">2</text><text vector-effect="non-scaling-stroke" x="1.066667e+02" y="10" dominant-baseline="hanging" stroke="none">3</text><text vector-effect="non-scaling-stroke" x="128" y="10" dominant-baseline="hanging" stroke="none">4</text><text stroke="none" vector-effect="non-scaling-stroke" x="1.493333e+02" y="10" dominant-baseline="hanging">5</text><text dominant-baseline="hanging" stroke="none" vector-effect="non-scaling-stroke" x="1.706667e+02" y="10">6</text><text stroke="none" vector-effect="non-scaling-stroke" x="192" y="10" dominant-baseline="hanging">7</text><text stroke="none" vector-effect="non-scaling-stroke" x="2.133333e+02" y="10" dominant-baseline="hanging">8</text><text stroke="none" vector-effect="non-scaling-stroke" x="2.346667e+02" y="10" dominant-baseline="hanging">9</text><text stroke="none" vector-effect="non-scaling-stroke" x="256" y="10" dominant-baseline="hanging">10</text><text x="2.773333e+02" y="10" dominant-baseline="hanging" stroke="none" vector-effect="non-scaling-stroke">11</text><text dominant-baseline="hanging" stroke="none" vector-effect="non-scaling-stroke" x="2.986667e+02" y="10">12</text><text stroke="none" vector-effect="non-scaling-stroke" x="320" y="10" dominant-baseline="hanging">13</text><text stroke="none" vector-effect="non-scaling-stroke" x="3.413333e+02" y="10" dominant-baseline="hanging">14</text><text y="10" dominant-baseline="hanging" stroke="none" vector-effect="non-scaling-stroke" x="3.626667e+02">15</text><text stroke="none" vector-effect="non-scaling-stroke" x="384" y="10" dominant-baseline="hanging">16</text><text y="10" dominant-baseline="hanging" stroke="none" vector-effect="non-scaling-stroke" x="4.053333e+02">17</text><text stroke="none" vector-effect="non-scaling-stroke" x="4.266667e+02" y="10" dominant-baseline="hanging">18</text><text stroke="none" vector-effect="non-scaling-stroke" x="448" y="10" dominant-baseline="hanging">19</text><text vector-effect="non-scaling-stroke" x="4.693333e+02" y="10" dominant-baseline="hanging" stroke="none">20</text><text vector-effect="non-scaling-stroke" x="4.906667e+02" y="10" dominant-baseline="hanging" stroke="none">21</text><text stroke="none" vector-effect="non-scaling-stroke" x="512" y="10" dominant-baseline="hanging">22</text><text x="5.333333e+02" y="10" dominant-baseline="hanging" stroke="none" vector-effect="non-scaling-stroke">23</text><text stroke="none" vector-effect="non-scaling-stroke" x="5.546667e+02" y="10" dominant-baseline="hanging">24</text><text y="10" dominant-baseline="hanging" stroke="none" vector-effect="non-scaling-stroke" x="576">25</text></g><g stroke-width="2px" stroke-linejoin="round" font-size="12px" fill="black" font-family="sans-serif" text-anchor="middle" dominant-baseline="baseline" stroke="black" stroke-linecap="round" font-style="normal" transform="translate(80 520 )scale(1 1 )rotate(0 0 0 )" font-weight="bold"><text stroke="none" vector-effect="non-scaling-stroke" x="320" y="-6" dominant-baseline="baseline">Day</text></g><g stroke-linejoin="round" dominant-baseline="baseline" transform="translate(80 520 )scale(1 -1 )" stroke="black" stroke-linecap="round" font-size="12px" font-weight="bold" text-anchor="middle" stroke-width="2px" font-family="sans-serif" font-style="normal" fill="black"><path vector-effect="non-scaling-stroke" d="M0,44 L-6,44 M0,7.920000e+01 L-6,7.920000e+01 M0,1.144000e+02 L-6,1.144000e+02 M0,1.496000e+02 L-6,1.496000e+02 M0,1.848000e+02 L-6,1.848000e+02 M0,220 L-6,220 M0,2.552000e+02 L-6,2.552000e+02 M0,2.904000e+02 L-6,2.904000e+02 M0,3.256000e+02 L-6,3.256000e+02 M0,3.608000e+02 L-6,3.608000e+02 M0,396 L-6,396 "/></g><g stroke="black" stroke-width="2px" font-weight="normal" font-family="sans-serif" font-style="normal" stroke-linecap="round" stroke-linejoin="round" font-size="12px" text-anchor="end" dominant-baseline="middle" transform="translate(80 520 )scale(1 1 )" fill="black"><text stroke="none" vector-effect="non-scaling-stroke" x="-10" y="-44" dominant-baseline="middle">0s</text><text dominant-baseline="middle" stroke="none" vector-effect="non-scaling-stroke" x="-10" y="-7.920000e+01">200ms</text><text vector-effect="non-scaling-stroke" x="-10" y="-1.144000e+02" dominant-baseline="middle" stroke="none">400ms</text><text y="-1.496000e+02" dominant-baseline="middle" stroke="none" vector-effect="non-scaling-stroke" x="-10">600ms</text><text vector-effect="non-scaling-stroke" x="-10" y="-1.848000e+02" dominant-baseline="middle" stroke="none">800ms</text><text x="-10" y="-220" dominant-baseline="middle" stroke="none" vector-effect="non-scaling-stroke">1s</text><text stroke="none" vector-effect="non-scaling-stroke" x="-10" y="-2.552000e+02" dominant-baseline="middle">1.2s</text><text vector-effect="non-scaling-stroke" x="-10" y="-2.904000e+02" dominant-baseline="middle" stroke="none">1.4s</text><text dominant-baseline="middle" stroke="none" vector-effect="non-scaling-stroke" x="-10" y="-3.256000e+02">1.6s</text><text stroke="none" vector-effect="non-scaling-stroke" x="-10" y="-3.608000e+02" dominant-baseline="middle">1.8s</text><text dominant-baseline="middle" stroke="none" vector-effect="non-scaling-stroke" x="-10" y="-396">2s</text></g><g font-style="normal" stroke-linecap="round" font-family="sans-serif" dominant-baseline="hanging" stroke="black" stroke-linejoin="round" fill="black" font-size="12px" font-weight="bold" text-anchor="middle" transform="translate(80 520 )scale(1 1 )rotate(-90 0 0 )" stroke-width="2px"><text y="6" dominant-baseline="hanging" stroke="none" vector-effect="non-scaling-stroke" x="220">Runtime</text></g></g></g></g></g></svg>