<svg preserveAspectRatio="xMidYMid meet" xmlns="http://www.w3.org/2000/svg" width="800" height="600" viewbox="0 0 800 600"><defs><marker viewBox="0 0 10 10 " refX="5" refY="5" markerUnits="userSpaceOnUse" markerWidth="2%" markerHeight="2%" id="circle"><circle cx="5" cy="5" r="3" fill="none" stroke="black"/></marker><marker markerUnits="userSpaceOnUse" markerWidth="2%" markerHeight="2%" id="filled-circle" viewBox="0 0 10 10 " refX="5" refY="5"><circle fill="black" stroke="none" cx="5" cy="5" r="3"/></marker><marker id="square" viewBox="0 0 10 10 " refX="5" refY="5" markerUnits="userSpaceOnUse" markerWidth="2%" markerHeight="2%"><rect stroke="black" x="2" y="2" width="6" height="6" fill="none"/></marker><marker markerHeight="2%" id="filled-square" viewBox="0 0 10 10 " refX="5" refY="5" markerUnits="userSpaceOnUse" markerWidth="2%"><rect y="2" width="6" height="6" fill="black" stroke="none" x="2"/></marker></defs><g stroke-width="1px" stroke-linecap="round" stroke-linejoin="round" transform="translate(80 520 )scale(1 -1 )" fill="hsl(198, 47%, 65%)" stroke="hsl(198, 47%, 65%)"><rect vector-effect="non-scaling-stroke" x="5.546667e+01" y="0" width="8.533333e+00" height="4.402191e+01"/><rect x="7.680000e+01" y="0" width="8.533333e+00" height="4.400313e+01" vector-effect="non-scaling-stroke"/><rect width="8.533333e+00" height="4.401288e+01" vector-effect="non-scaling-stroke" x="9.813333e+01" y="0"/><rect vector-effect="non-scaling-stroke" x="1.194667e+02" y="0" width="8.533333e+00" height="4.437969e+01"/><rect y="0" width="8.533333e+00" height="1.069365e+03" vector-effect="non-scaling-stroke" x="1.408000e+02"/><rect vector-effect="non-scaling-stroke" x="1.621333e+02" y="0" width="8.533333e+00" height="4.404161e+01"/><rect x="1.834667e+02" y="0" width="8.533333e+00" height="4.425802e+01" vector-effect="non-scaling-stroke"/><rect x="2.048000e+02" y="0" width="8.533333e+00" height="4.400110e+01" vector-effect="non-scaling-stroke"/><rect vector-effect="non-scaling-stroke" x="2.261333e+02" y="0" width="8.533333e+00" height="4.400377e+01"/><rect vector-effect="non-scaling-stroke" x="2.474667e+02" y="0" width="8.533333e+00" height="4.491958e+01"/><rect x="2.688000e+02" y="0" width="8.533333e+00" height="5.199057e+01" vector-effect="non-scaling-stroke"/><rect height="4.400078e+01" vector-effect="non-scaling-stroke" x="2.901333e+02" y="0" width="8.533333e+00"/><rect y="0" width="8.533333e+00" height="4.402140e+01" vector-effect="non-scaling-stroke" x="3.114667e+02"/><rect height="2.282994e+03" vector-effect="non-scaling-stroke" x="3.328000e+02" y="0" width="8.533333e+00"/><rect y="0" width="8.533333e+00" height="5.332551e+01" vector-effect="non-scaling-stroke" x="3.541333e+02"/><rect vector-effect="non-scaling-stroke" x="3.754667e+02" y="0" width="8.533333e+00" height="1.151241e+02"/><rect vector-effect="non-scaling-stroke" x="3.968000e+02" y="0" width="8.533333e+00" height="5.624102e+01"/><rect width="8.533333e+00" height="8.817794e+01" vector-effect="non-scaling-stroke" x="4.181333e+02" y="0"/><rect vector-effect="non-scaling-stroke" x="4.394667e+02" y="0" width="8.533333e+00" height="1.356903e+02"/><rect y="0" width="8.533333e+00" height="4.405996e+01" vector-effect="non-scaling-stroke" x="4.608000e+02"/><rect width="8.533333e+00" height="9.025396e+01" vector-effect="non-scaling-stroke" x="4.821333e+02" y="0"/><rect y="0" width="8.533333e+00" height="4.965065e+01" vector-effect="non-scaling-stroke" x="5.034667e+02"/><rect y="0" width="8.533333e+00" height="4.400183e+01" vector-effect="non-scaling-stroke" x="5.248000e+02"/><rect vector-effect="non-scaling-stroke" x="5.461333e+02" y="0" width="8.533333e+00" height="5.549714e+01"/><rect vector-effect="non-scaling-stroke" x="5.674667e+02" y="0" width="8.533333e+00" height="7.060353e+01"/></g><g stroke-width="1px" stroke-linecap="round" stroke-linejoin="round" transform="translate(80 520 )scale(1 -1 )" fill="hsl(49, 88%, 65%)" stroke="hsl(49, 88%, 65%)"><rect height="4.401435e+01" vector-effect="non-scaling-stroke" x="64" y="0" width="8.533333e+00"/><rect x="8.533333e+01" y="0" width="8.533333e+00" height="4.402467e+01" vector-effect="non-scaling-stroke"/><rect vector-effect="non-scaling-stroke" x="1.066667e+02" y="0" width="8.533333e+00" height="4.408820e+01"/><rect height="4.452421e+01" vector-effect="non-scaling-stroke" x="128" y="0" width="8.533333e+00"/><rect vector-effect="non-scaling-stroke" x="1.493333e+02" y="0" width="8.533333e+00" height="1.664456e+03"/><rect y="0" width="8.533333e+00" height="4.427491e+01" vector-effect="non-scaling-stroke" x="1.706667e+02"/><rect vector-effect="non-scaling-stroke" x="192" y="0" width="8.533333e+00" height="4.484072e+01"/><rect vector-effect="non-scaling-stroke" x="2.133333e+02" y="0" width="8.533333e+00" height="4.400432e+01"/><rect height="4.405093e+01" vector-effect="non-scaling-stroke" x="2.346667e+02" y="0" width="8.533333e+00"/><rect vector-effect="non-scaling-stroke" x="2.560000e+02" y="0" width="8.533333e+00" height="4.404894e+01"/><rect vector-effect="non-scaling-stroke" x="2.773333e+02" y="0" width="8.533333e+00" height="4.393141e+02"/><rect height="4.400070e+01" vector-effect="non-scaling-stroke" x="2.986667e+02" y="0" width="8.533333e+00"/><rect width="8.533333e+00" height="4.403404e+01" vector-effect="non-scaling-stroke" x="320" y="0"/><rect x="3.413333e+02" y="0" width="8.533333e+00" height="1.598680e+03" vector-effect="non-scaling-stroke"/><rect x="3.626667e+02" y="0" width="8.533333e+00" height="4.597204e+01" vector-effect="non-scaling-stroke"/><rect width="8.533333e+00" height="7.228782e+01" vector-effect="non-scaling-stroke" x="384" y="0"/><rect vector-effect="non-scaling-stroke" x="4.053333e+02" y="0" width="8.533333e+00" height="5.179450e+01"/><rect y="0" width="8.533333e+00" height="1.377339e+02" vector-effect="non-scaling-stroke" x="4.266667e+02"/><rect vector-effect="non-scaling-stroke" x="448" y="0" width="8.533333e+00" height="4.400001e+01"/><rect width="8.533333e+00" height="4.403122e+01" vector-effect="non-scaling-stroke" x="4.693333e+02" y="0"/><rect width="8.533333e+00" height="5.368336e+01" vector-effect="non-scaling-stroke" x="4.906667e+02" y="0"/><rect vector-effect="non-scaling-stroke" x="512" y="0" width="8.533333e+00" height="4.820689e+01"/><rect y="0" width="8.533333e+00" height="4.400143e+01" vector-effect="non-scaling-stroke" x="5.333333e+02"/><rect y="0" width="8.533333e+00" height="4.530517e+01" vector-effect="non-scaling-stroke" x="5.546667e+02"/><rect vector-effect="non-scaling-stroke" x="576" y="0" width="8.533333e+00" height="4.607720e+01"/></g><g dominant-baseline="hanging" font-size="12px" text-anchor="start" fill="hsl(198, 47%, 65%)" font-family="sans-serif" font-weight="normal" font-style="normal" stroke="hsl(198, 47%, 65%)" stroke-width="1px" stroke-linecap="round" stroke-linejoin="round"><rect vector-effect="non-scaling-stroke" x="736" y="484" width="12" height="12"/><g fill="black" stroke="black"><text dominant-baseline="hanging" stroke="none" vector-effect="non-scaling-stroke" x="752" y="484">Golang</text></g><g font-family="sans-serif" font-weight="normal" stroke-width="1px" font-size="12px" font-style="normal" text-anchor="start" dominant-baseline="hanging" fill="hsl(49, 88%, 65%)" stroke="hsl(49, 88%, 65%)" stroke-linecap="round" stroke-linejoin="round"><rect y="502" width="12" height="12" vector-effect="non-scaling-stroke" x="736"/><g fill="black" stroke="black"><text dominant-baseline="hanging" stroke="none" vector-effect="non-scaling-stroke" x="752" y="502">Rust</text><g text-anchor="start" fill="none" font-family="sans-serif" font-weight="normal" font-style="normal" stroke-linejoin="round" font-size="12px" dominant-baseline="hanging" stroke-width="2px" stroke-linecap="round"><rect height="440" vector-effect="non-scaling-stroke" x="80" y="80" width="640"/></g><g transform="translate(80 520 )scale(1 -1 )" stroke-linecap="round" font-size="12px" font-style="normal" fill="none" stroke="black" stroke-width="2px" stroke-linejoin="round" font-family="sans-serif" font-weight="normal" dominant-baseline="hanging" text-anchor="start"><path vector-effect="non-scaling-stroke" d="M64,0 L64,-6 M8.533333e+01,0 L8.533333e+01,-6 M1.066667e+02,0 L1.066667e+02,-6 M128,0 L128,-6 M1.493333e+02,0 L1.493333e+02,-6 M1.706667e+02,0 L1.706667e+02,-6 M192,0 L192,-6 M2.133333e+02,0 L2.133333e+02,-6 M2.346667e+02,0 L2.346667e+02,-6 M256,0 L256,-6 M2.773333e+02,0 L2.773333e+02,-6 M2.986667e+02,0 L2.986667e+02,-6 M320,0 L320,-6 M3.413333e+02,0 L3.413333e+02,-6 M3.626667e+02,0 L3.626667e+02,-6 M384,0 L384,-6 M4.053333e+02,0 L4.053333e+02,-6 M4.266667e+02,0 L4.266667e+02,-6 M448,0 L448,-6 M4.693333e+02,0 L4.693333e+02,-6 M4.906667e+02,0 L4.906667e+02,-6 M512,0 L512,-6 M5.333333e+02,0 L5.333333e+02,-6 M5.546667e+02,0 L5.546667e+02,-6 M576,0 L576,-6 "/></g><g stroke="black" font-size="12px" font-style="normal" stroke-linejoin="round" dominant-baseline="hanging" transform="translate(80 520 )scale(1 1 )" stroke-width="2px" stroke-linecap="round" text-anchor="middle" font-family="sans-serif" font-weight="normal" fill="black"><text stroke="none" vector-effect="non-scaling-stroke" x="64" y="10" dominant-baseline="hanging">1</text><text x="8.533333e+01" y="10" dominant-baseline="hanging" stroke="none" vector-effect="non-scaling-stroke">2</text><text dominant-baseline="hanging" stroke="none" vector-effect="non-scaling-stroke" x="1.066667e+02" y="10">3</text><text stroke="none" vector-effect="non-scaling-stroke" x="128" y="10" dominant-baseline="hanging">4</text><text y="10" dominant-baseline="hanging" stroke="none" vector-effect="non-scaling-stroke" x="1.493333e+02">5</text><text stroke="none" vector-effect="non-scaling-stroke" x="1.706667e+02" y="10" dominant-baseline="hanging">6</text><text y="10" dominant-baseline="hanging" stroke="none" vector-effect="non-scaling-stroke" x="192">7</text><text x="2.133333e+02" y="10" dominant-baseline="hanging" stroke="none" vector-effect="non-scaling-stroke">8</text><text dominant-baseline="hanging" stroke="none" vector-effect="non-scaling-stroke" x="2.346667e+02" y="10">9</text><text dominant-baseline="hanging" stroke="none" vector-effect="non-scaling-stroke" x="256" y="10">10</text><text dominant-baseline="hanging" stroke="none" vector-effect="non-scaling-stroke" x="2.773333e+02" y="10">11</text><text x="2.986667e+02" y="10" dominant-baseline="hanging" stroke="none" vector-effect="non-scaling-stroke">12</text><text x="320" y="10" dominant-baseline="hanging" stroke="none" vector-effect="non-scaling-stroke">13</text><text y="10" dominant-baseline="hanging" stroke="none" vector-effect="non-scaling-stroke" x="3.413333e+02">14</text><text vector-effect="non-scaling-stroke" x="3.626667e+02" y="10" dominant-baseline="hanging" stroke="none">15</text><text stroke="none" vector-effect="non-scaling-stroke" x="384" y="10" dominant-baseline="hanging">16</text><text stroke="none" vector-effect="non-scaling-stroke" x="4.053333e+02" y="10" dominant-baseline="hanging">17</text><text stroke="none" vector-effect="non-scaling-stroke" x="4.266667e+02" y="10" dominant-baseline="hanging">18</text><text vector-effect="non-scaling-stroke" x="448" y="10" dominant-baseline="hanging" stroke="none">19</text><text dominant-baseline="hanging" stroke="none" vector-effect="non-scaling-stroke" x="4.693333e+02" y="10">20</text><text y="10" dominant-baseline="hanging" stroke="none" vector-effect="non-scaling-stroke" x="4.906667e+02">21</text><text stroke="none" vector-effect="non-scaling-stroke" x="512" y="10" dominant-baseline="hanging">22</text><text y="10" dominant-baseline="hanging" stroke="none" vector-effect="non-scaling-stroke" x="5.333333e+02">23</text><text y="10" dominant-baseline="hanging" stroke="none" vector-effect="non-scaling-stroke" x="5.546667e+02">24</text><text stroke="none" vector-effect="non-scaling-stroke" x="576" y="10" dominant-baseline="hanging">25</text></g><g transform="translate(80 520 )scale(1 1 )rotate(0 0 0 )" stroke="black" stroke-width="2px" stroke-linecap="round" font-size="12px" font-style="normal" text-anchor="middle" dominant-baseline="baseline" fill="black" stroke-linejoin="round" font-family="sans-serif" font-weight="bold"><text y="-6" dominant-baseline="baseline" stroke="none" vector-effect="non-scaling-stroke" x="320">Day</text></g><g font-style="normal" transform="translate(80 520 )scale(1 -1 )" stroke="black" stroke-linecap="round" stroke-linejoin="round" dominant-baseline="baseline" font-size="12px" text-anchor="middle" fill="black" stroke-width="2px" font-family="sans-serif" font-weight="bold"><path vector-effect="non-scaling-stroke" d="M0,44 L-6,44 M0,7.920000e+01 L-6,7.920000e+01 M0,1.144000e+02 L-6,1.144000e+02 M0,1.496000e+02 L-6,1.496000e+02 M0,1.848000e+02 L-6,1.848000e+02 M0,220 L-6,220 M0,2.552000e+02 L-6,2.552000e+02 M0,2.904000e+02 L-6,2.904000e+02 M0,3.256000e+02 L-6,3.256000e+02 M0,3.608000e+02 L-6,3.608000e+02 M0,396 L-6,396 "/></g><g font-family="sans-serif" stroke-width="2px" stroke-linecap="round" text-anchor="end" stroke="black" fill="black" font-weight="normal" dominant-baseline="middle" stroke-linejoin="round" font-size="12px" font-style="normal" transform="translate(80 520 )scale(1 1 )"><text vector-effect="non-scaling-stroke" x="-10" y="-44" dominant-baseline="middle" stroke="none">0s</text><text stroke="none" vector-effect="non-scaling-stroke" x="-10" y="-7.920000e+01" dominant-baseline="middle">200ms</text><text y="-1.144000e+02" dominant-baseline="middle" stroke="none" vector-effect="non-scaling-stroke" x="-10">400ms</text><text y="-1.496000e+02" dominant-baseline="middle" stroke="none" vector-effect="non-scaling-stroke" x="-10">600ms</text><text vector-effect="non-scaling-stroke" x="-10" y="-1.848000e+02" dominant-baseline="middle" stroke="none">800ms</text><text x="-10" y="-220" dominant-baseline="middle" stroke="none" vector-effect="non-scaling-stroke">1s</text><text stroke="none" vector-effect="non-scaling-stroke" x="-10" y="-2.552000e+02" dominant-baseline="middle">1.2s</text><text x="-10" y="-2.904000e+02" dominant-baseline="middle" stroke="none" vector-effect="non-scaling-stroke">1.4s</text><text y="-3.256000e+02" dominant-baseline="middle" stroke="none" vector-effect="non-scaling-stroke" x="-10">1.6s</text><text y="-3.608000e+02" dominant-baseline="middle" stroke="none" vector-effect="non-scaling-stroke" x="-10">1.8s</text><text stroke="none" vector-effect="non-scaling-stroke" x="-10" y="-396" dominant-baseline="middle">2s</text></g><g font-size="12px" text-anchor="middle" stroke-linejoin="round" font-weight="bold" dominant-baseline="hanging" stroke="black" stroke-width="2px" font-style="normal" transform="translate(80 520 )scale(1 1 )rotate(-90 0 0 )" font-family="sans-serif" fill="black" stroke-linecap="round"><text dominant-baseline="hanging" stroke="none" vector-effect="non-scaling-stroke" x="220" y="6">Runtime</text></g></g></g></g></svg>