<svg width="800" height="600" viewbox="0 0 800 600" preserveAspectRatio="xMidYMid meet" xmlns="http://www.w3.org/2000/svg"><defs><marker markerWidth="2%" markerHeight="2%" id="circle" viewBox="0 0 10 10 " refX="5" refY="5" markerUnits="userSpaceOnUse"><circle cy="5" r="3" fill="none" stroke="black" cx="5"/></marker><marker refY="5" markerUnits="userSpaceOnUse" markerWidth="2%" markerHeight="2%" id="filled-circle" viewBox="0 0 10 10 " refX="5"><circle cx="5" cy="5" r="3" fill="black" stroke="none"/></marker><marker refY="5" markerUnits="userSpaceOnUse" markerWidth="2%" markerHeight="2%" id="square" viewBox="0 0 10 10 " refX="5"><rect fill="none" stroke="black" x="2" y="2" width="6" height="6"/></marker><marker refY="5" markerUnits="userSpaceOnUse" markerWidth="2%" markerHeight="2%" id="filled-square" viewBox="0 0 10 10 " refX="5"><rect height="6" fill="black" stroke="none" x="2" y="2" width="6"/></marker></defs><g transform="translate(80 520 )scale(1 -1 )" fill="hsl(198, 47%, 65%)" stroke="hsl(198, 47%, 65%)" stroke-width="1px" stroke-linecap="round" stroke-linejoin="round"><rect width="8.533333e+00" height="4.401188e+01" vector-effect="non-scaling-stroke" x="5.546667e+01" y="0"/><rect vector-effect="non-scaling-stroke" x="7.680000e+01" y="0" width="8.533333e+00" height="4.400884e+01"/><rect x="9.813333e+01" y="0" width="8.533333e+00" height="4.400968e+01" vector-effect="non-scaling-stroke"/><rect y="0" width="8.533333e+00" height="4.476121e+01" vector-effect="non-scaling-stroke" x="1.194667e+02"/><rect vector-effect="non-scaling-stroke" x="1.408000e+02" y="0" width="8.533333e+00" height="8.182391e+01"/><rect y="0" width="8.533333e+00" height="5.174448e+01" vector-effect="non-scaling-stroke" x="1.621333e+02"/><rect width="8.533333e+00" height="4.498461e+01" vector-effect="non-scaling-stroke" x="1.834667e+02" y="0"/><rect x="2.048000e+02" y="0" width="8.533333e+00" height="4.420758e+01" vector-effect="non-scaling-stroke"/><rect width="8.533333e+00" height="4.404473e+01" vector-effect="non-scaling-stroke" x="2.261333e+02" y="0"/><rect vector-effect="non-scaling-stroke" x="2.474667e+02" y="0" width="8.533333e+00" height="4.442263e+01"/><rect width="8.533333e+00" height="4.406246e+01" vector-effect="non-scaling-stroke" x="2.688000e+02" y="0"/><rect x="2.901333e+02" y="0" width="8.533333e+00" height="4.536961e+01" vector-effect="non-scaling-stroke"/><rect height="7.176625e+01" vector-effect="non-scaling-stroke" x="3.114667e+02" y="0" width="8.533333e+00"/><rect vector-effect="non-scaling-stroke" x="3.328000e+02" y="0" width="8.533333e+00" height="6.990265e+01"/><rect height="3.278735e+02" vector-effect="non-scaling-stroke" x="3.541333e+02" y="0" width="8.533333e+00"/><rect width="8.533333e+00" height="1.532455e+02" vector-effect="non-scaling-stroke" x="3.754667e+02" y="0"/><rect y="0" width="8.533333e+00" height="1.934050e+02" vector-effect="non-scaling-stroke" x="3.968000e+02"/><rect x="4.181333e+02" y="0" width="8.533333e+00" height="4.659383e+01" vector-effect="non-scaling-stroke"/><rect height="4.416391e+01" vector-effect="non-scaling-stroke" x="4.394667e+02" y="0" width="8.533333e+00"/><rect y="0" width="8.533333e+00" height="1.601479e+02" vector-effect="non-scaling-stroke" x="4.608000e+02"/><rect height="7.774719e+01" vector-effect="non-scaling-stroke" x="4.821333e+02" y="0" width="8.533333e+00"/><rect vector-effect="non-scaling-stroke" x="5.034667e+02" y="0" width="8.533333e+00" height="6.672630e+01"/><rect vector-effect="non-scaling-stroke" x="5.248000e+02" y="0" width="8.533333e+00" height="4.496501e+01"/><rect vector-effect="non-scaling-stroke" x="5.461333e+02" y="0" width="8.533333e+00" height="1.043056e+02"/><rect vector-effect="non-scaling-stroke" x="5.674667e+02" y="0" width="8.533333e+00" height="5.900259e+01"/></g><g stroke-linecap="round" stroke-linejoin="round" transform="translate(80 520 )scale(1 -1 )" fill="hsl(49, 88%, 65%)" stroke="hsl(49, 88%, 65%)" stroke-width="1px"><rect y="0" width="8.533333e+00" height="4.400423e+01" vector-effect="non-scaling-stroke" x="64"/><rect height="4.400482e+01" vector-effect="non-scaling-stroke" x="8.533333e+01" y="0" width="8.533333e+00"/><rect x="1.066667e+02" y="0" width="8.533333e+00" height="4.400467e+01" vector-effect="non-scaling-stroke"/><rect vector-effect="non-scaling-stroke" x="128" y="0" width="8.533333e+00" height="4.484149e+01"/><rect width="8.533333e+00" height="5.617247e+01" vector-effect="non-scaling-stroke" x="1.493333e+02" y="0"/><rect height="4.447921e+01" vector-effect="non-scaling-stroke" x="1.706667e+02" y="0" width="8.533333e+00"/><rect height="4.423411e+01" vector-effect="non-scaling-stroke" x="192" y="0" width="8.533333e+00"/><rect y="0" width="8.533333e+00" height="4.410295e+01" vector-effect="non-scaling-stroke" x="2.133333e+02"/><rect y="0" width="8.533333e+00" height="4.401878e+01" vector-effect="non-scaling-stroke" x="2.346667e+02"/><rect width="8.533333e+00" height="4.405675e+01" vector-effect="non-scaling-stroke" x="2.560000e+02" y="0"/><rect width="8.533333e+00" height="4.403646e+01" vector-effect="non-scaling-stroke" x="2.773333e+02" y="0"/><rect height="4.442642e+01" vector-effect="non-scaling-stroke" x="2.986667e+02" y="0" width="8.533333e+00"/><rect height="2.307366e+02" vector-effect="non-scaling-stroke" x="320" y="0" width="8.533333e+00"/><rect height="5.099316e+01" vector-effect="non-scaling-stroke" x="3.413333e+02" y="0" width="8.533333e+00"/><rect height="396" vector-effect="non-scaling-stroke" x="3.626667e+02" y="0" width="8.533333e+00"/><rect width="8.533333e+00" height="5.284383e+01" vector-effect="non-scaling-stroke" x="384" y="0"/><rect y="0" width="8.533333e+00" height="1.373122e+02" vector-effect="non-scaling-stroke" x="4.053333e+02"/><rect vector-effect="non-scaling-stroke" x="4.266667e+02" y="0" width="8.533333e+00" height="4.434319e+01"/><rect x="448" y="0" width="8.533333e+00" height="44" vector-effect="non-scaling-stroke"/><rect vector-effect="non-scaling-stroke" x="4.693333e+02" y="0" width="8.533333e+00" height="44"/><rect x="4.906667e+02" y="0" width="8.533333e+00" height="44" vector-effect="non-scaling-stroke"/><rect x="512" y="0" width="8.533333e+00" height="44" vector-effect="non-scaling-stroke"/><rect height="44" vector-effect="non-scaling-stroke" x="5.333333e+02" y="0" width="8.533333e+00"/><rect width="8.533333e+00" height="44" vector-effect="non-scaling-stroke" x="5.546667e+02" y="0"/><rect vector-effect="non-scaling-stroke" x="576" y="0" width="8.533333e+00" height="44"/></g><g font-size="12px" font-style="normal" font-weight="normal" stroke="hsl(198, 47%, 65%)" stroke-width="1px" font-family="sans-serif" text-anchor="start" stroke-linecap="round" dominant-baseline="hanging" stroke-linejoin="round" fill="hsl(198, 47%, 65%)"><rect vector-effect="non-scaling-stroke" x="736" y="484" width="12" height="12"/><g fill="black" stroke="black"><text dominant-baseline="hanging" stroke="none" vector-effect="non-scaling-stroke" x="752" y="484">Golang</text></g><g fill="hsl(49, 88%, 65%)" text-anchor="start" stroke="hsl(49, 88%, 65%)" stroke-linejoin="round" font-style="normal" font-weight="normal" dominant-baseline="hanging" stroke-width="1px" font-family="sans-serif" font-size="12px" stroke-linecap="round"><rect vector-effect="non-scaling-stroke" x="736" y="502" width="12" height="12"/><g stroke="black" fill="black"><text vector-effect="non-scaling-stroke" x="752" y="502" dominant-baseline="hanging" stroke="none">Rust</text><g font-family="sans-serif" stroke-linecap="round" text-anchor="start" dominant-baseline="hanging" font-size="12px" stroke-width="2px" stroke-linejoin="round" font-style="normal" font-weight="normal" fill="none"><rect x="80" y="80" width="640" height="440" vector-effect="non-scaling-stroke"/></g><g stroke="black" stroke-linejoin="round" stroke-linecap="round" font-style="normal" font-weight="normal" stroke-width="2px" font-family="sans-serif" font-size="12px" fill="none" text-anchor="start" dominant-baseline="hanging" transform="translate(80 520 )scale(1 -1 )"><path d="M64,0 L64,-6 M8.533333e+01,0 L8.533333e+01,-6 M1.066667e+02,0 L1.066667e+02,-6 M128,0 L128,-6 M1.493333e+02,0 L1.493333e+02,-6 M1.706667e+02,0 L1.706667e+02,-6 M192,0 L192,-6 M2.133333e+02,0 L2.133333e+02,-6 M2.346667e+02,0 L2.346667e+02,-6 M256,0 L256,-6 M2.773333e+02,0 L2.773333e+02,-6 M2.986667e+02,0 L2.986667e+02,-6 M320,0 L320,-6 M3.413333e+02,0 L3.413333e+02,-6 M3.626667e+02,0 L3.626667e+02,-6 M384,0 L384,-6 M4.053333e+02,0 L4.053333e+02,-6 M4.266667e+02,0 L4.266667e+02,-6 M448,0 L448,-6 M4.693333e+02,0 L4.693333e+02,-6 M4.906667e+02,0 L4.906667e+02,-6 M512,0 L512,-6 M5.333333e+02,0 L5.333333e+02,-6 M5.546667e+02,0 L5.546667e+02,-6 M576,0 L576,-6 " vector-effect="non-scaling-stroke"/></g><g stroke-linecap="round" text-anchor="middle" dominant-baseline="hanging" transform="translate(80 520 )scale(1 1 )" stroke="black" font-style="normal" font-weight="normal" font-size="12px" fill="black" stroke-width="2px" stroke-linejoin="round" font-family="sans-serif"><text stroke="none" vector-effect="non-scaling-stroke" x="64" y="10" dominant-baseline="hanging">1</text><text y="10" dominant-baseline="hanging" stroke="none" vector-effect="non-scaling-stroke" x="8.533333e+01">2</text><text dominant-baseline="hanging" stroke="none" vector-effect="non-scaling-stroke" x="1.066667e+02" y="10">3</text><text y="10" dominant-baseline="hanging" stroke="none" vector-effect="non-scaling-stroke" x="128">4</text><text y="10" dominant-baseline="hanging" stroke="none" vector-effect="non-scaling-stroke" x="1.493333e+02">5</text><text stroke="none" vector-effect="non-scaling-stroke" x="1.706667e+02" y="10" dominant-baseline="hanging">6</text><text y="10" dominant-baseline="hanging" stroke="none" vector-effect="non-scaling-stroke" x="192">7</text><text stroke="none" vector-effect="non-scaling-stroke" x="2.133333e+02" y="10" dominant-baseline="hanging">8</text><text stroke="none" vector-effect="non-scaling-stroke" x="2.346667e+02" y="10" dominant-baseline="hanging">9</text><text stroke="none" vector-effect="non-scaling-stroke" x="256" y="10" dominant-baseline="hanging">10</text><text stroke="none" vector-effect="non-scaling-stroke" x="2.773333e+02" y="10" dominant-baseline="hanging">11</text><text stroke="none" vector-effect="non-scaling-stroke" x="2.986667e+02" y="10" dominant-baseline="hanging">12</text><text x="320" y="10" dominant-baseline="hanging" stroke="none" vector-effect="non-scaling-stroke">13</text><text stroke="none" vector-effect="non-scaling-stroke" x="3.413333e+02" y="10" dominant-baseline="hanging">14</text><text stroke="none" vector-effect="non-scaling-stroke" x="3.626667e+02" y="10" dominant-baseline="hanging">15</text><text x="384" y="10" dominant-baseline="hanging" stroke="none" vector-effect="non-scaling-stroke">16</text><text x="4.053333e+02" y="10" dominant-baseline="hanging" stroke="none" vector-effect="non-scaling-stroke">17</text><text stroke="none" vector-effect="non-scaling-stroke" x="4.266667e+02" y="10" dominant-baseline="hanging">18</text><text y="10" dominant-baseline="hanging" stroke="none" vector-effect="non-scaling-stroke" x="448">19</text><text stroke="none" vector-effect="non-scaling-stroke" x="4.693333e+02" y="10" dominant-baseline="hanging">20</text><text stroke="none" vector-effect="non-scaling-stroke" x="4.906667e+02" y="10" dominant-baseline="hanging">21</text><text y="10" dominant-baseline="hanging" stroke="none" vector-effect="non-scaling-stroke" x="512">22</text><text dominant-baseline="hanging" stroke="none" vector-effect="non-scaling-stroke" x="5.333333e+02" y="10">23</text><text stroke="none" vector-effect="non-scaling-stroke" x="5.546667e+02" y="10" dominant-baseline="hanging">24</text><text stroke="none" vector-effect="non-scaling-stroke" x="576" y="10" dominant-baseline="hanging">25</text></g><g font-weight="bold" font-size="12px" stroke-linecap="round" dominant-baseline="baseline" transform="translate(80 520 )scale(1 1 )rotate(0 0 0 )" stroke-width="2px" stroke-linejoin="round" font-family="sans-serif" font-style="normal" fill="black" text-anchor="middle" stroke="black"><text x="320" y="-6" dominant-baseline="baseline" stroke="none" vector-effect="non-scaling-stroke">Day</text></g><g stroke-linejoin="round" font-size="12px" text-anchor="middle" dominant-baseline="baseline" transform="translate(80 520 )scale(1 -1 )" stroke="black" stroke-width="2px" fill="black" stroke-linecap="round" font-weight="bold" font-family="sans-serif" font-style="normal"><path vector-effect="non-scaling-stroke" d="M0,44 L-6,44 M0,8.932134e+01 L-6,8.932134e+01 M0,1.346427e+02 L-6,1.346427e+02 M0,1.799640e+02 L-6,1.799640e+02 M0,2.252854e+02 L-6,2.252854e+02 M0,2.706067e+02 L-6,2.706067e+02 M0,3.159281e+02 L-6,3.159281e+02 M0,3.612494e+02 L-6,3.612494e+02 "/></g><g dominant-baseline="middle" font-weight="normal" stroke-width="2px" font-family="sans-serif" fill="black" transform="translate(80 520 )scale(1 1 )" stroke-linecap="round" text-anchor="end" font-size="12px" font-style="normal" stroke="black" stroke-linejoin="round"><text y="-44" dominant-baseline="middle" stroke="none" vector-effect="non-scaling-stroke" x="-10">0s</text><text y="-8.932134e+01" dominant-baseline="middle" stroke="none" vector-effect="non-scaling-stroke" x="-10">200ms</text><text vector-effect="non-scaling-stroke" x="-10" y="-1.346427e+02" dominant-baseline="middle" stroke="none">400ms</text><text stroke="none" vector-effect="non-scaling-stroke" x="-10" y="-1.799640e+02" dominant-baseline="middle">600ms</text><text vector-effect="non-scaling-stroke" x="-10" y="-2.252854e+02" dominant-baseline="middle" stroke="none">800ms</text><text vector-effect="non-scaling-stroke" x="-10" y="-2.706067e+02" dominant-baseline="middle" stroke="none">1s</text><text x="-10" y="-3.159281e+02" dominant-baseline="middle" stroke="none" vector-effect="non-scaling-stroke">1.2s</text><text stroke="none" vector-effect="non-scaling-stroke" x="-10" y="-3.612494e+02" dominant-baseline="middle">1.4s</text></g><g font-style="normal" font-weight="bold" stroke-linecap="round" text-anchor="middle" stroke="black" stroke-width="2px" stroke-linejoin="round" font-size="12px" transform="translate(80 520 )scale(1 1 )rotate(-90 0 0 )" font-family="sans-serif" fill="black" dominant-baseline="hanging"><text x="220" y="6" dominant-baseline="hanging" stroke="none" vector-effect="non-scaling-stroke">Runtime</text></g></g></g></g></svg>