<svg xmlns="http://www.w3.org/2000/svg" width="800" height="600" viewbox="0 0 800 600" preserveAspectRatio="xMidYMid meet"><defs><marker markerWidth="2%" markerHeight="2%" id="circle" viewBox="0 0 10 10 " refX="5" refY="5" markerUnits="userSpaceOnUse"><circle cx="5" cy="5" r="3" fill="none" stroke="black"/></marker><marker markerHeight="2%" id="filled-circle" viewBox="0 0 10 10 " refX="5" refY="5" markerUnits="userSpaceOnUse" markerWidth="2%"><circle fill="black" stroke="none" cx="5" cy="5" r="3"/></marker><marker viewBox="0 0 10 10 " refX="5" refY="5" markerUnits="userSpaceOnUse" markerWidth="2%" markerHeight="2%" id="square"><rect fill="none" stroke="black" x="2" y="2" width="6" height="6"/></marker><marker viewBox="0 0 10 10 " refX="5" refY="5" markerUnits="userSpaceOnUse" markerWidth="2%" markerHeight="2%" id="filled-square"><rect y="2" width="6" height="6" fill="black" stroke="none" x="2"/></marker></defs><g stroke-linejoin="round" transform="translate(80 520 )scale(1 -1 )" fill="hsl(198, 47%, 65%)" stroke="hsl(198, 47%, 65%)" stroke-width="1px" stroke-linecap="round"><rect height="4.402957e+01" vector-effect="non-scaling-stroke" x="5.546667e+01" y="0" width="8.533333e+00"/><rect y="0" width="8.533333e+00" height="4.400140e+01" vector-effect="non-scaling-stroke" x="7.680000e+01"/><rect vector-effect="non-scaling-stroke" x="9.813333e+01" y="0" width="8.533333e+00" height="4.401096e+01"/><rect y="0" width="8.533333e+00" height="4.431275e+01" vector-effect="non-scaling-stroke" x="1.194667e+02"/><rect vector-effect="non-scaling-stroke" x="1.408000e+02" y="0" width="8.533333e+00" height="7.133341e+02"/><rect y="0" width="8.533333e+00" height="4.402000e+01" vector-effect="non-scaling-stroke" x="1.621333e+02"/><rect x="1.834667e+02" y="0" width="8.533333e+00" height="4.418837e+01" vector-effect="non-scaling-stroke"/><rect height="4.400065e+01" vector-effect="non-scaling-stroke" x="2.048000e+02" y="0" width="8.533333e+00"/><rect y="0" width="8.533333e+00" height="4.400173e+01" vector-effect="non-scaling-stroke" x="2.261333e+02"/><rect vector-effect="non-scaling-stroke" x="2.474667e+02" y="0" width="8.533333e+00" height="4.542853e+01"/><rect width="8.533333e+00" height="4.833755e+01" vector-effect="non-scaling-stroke" x="2.688000e+02" y="0"/><rect x="2.901333e+02" y="0" width="8.533333e+00" height="4.400083e+01" vector-effect="non-scaling-stroke"/><rect y="0" width="8.533333e+00" height="4.402367e+01" vector-effect="non-scaling-stroke" x="3.114667e+02"/><rect y="0" width="8.533333e+00" height="1.657137e+03" vector-effect="non-scaling-stroke" x="3.328000e+02"/><rect width="8.533333e+00" height="4.720032e+01" vector-effect="non-scaling-stroke" x="3.541333e+02" y="0"/><rect x="3.754667e+02" y="0" width="8.533333e+00" height="6.410765e+01" vector-effect="non-scaling-stroke"/><rect width="8.533333e+00" height="6.006799e+01" vector-effect="non-scaling-stroke" x="3.968000e+02" y="0"/><rect vector-effect="non-scaling-stroke" x="4.181333e+02" y="0" width="8.533333e+00" height="7.514564e+01"/><rect vector-effect="non-scaling-stroke" x="4.394667e+02" y="0" width="8.533333e+00" height="8.816171e+01"/><rect height="4.404857e+01" vector-effect="non-scaling-stroke" x="4.608000e+02" y="0" width="8.533333e+00"/><rect width="8.533333e+00" height="6.777525e+01" vector-effect="non-scaling-stroke" x="4.821333e+02" y="0"/><rect width="8.533333e+00" height="4.696701e+01" vector-effect="non-scaling-stroke" x="5.034667e+02" y="0"/><rect height="4.400226e+01" vector-effect="non-scaling-stroke" x="5.248000e+02" y="0" width="8.533333e+00"/><rect x="5.461333e+02" y="0" width="8.533333e+00" height="5.583318e+01" vector-effect="non-scaling-stroke"/><rect vector-effect="non-scaling-stroke" x="5.674667e+02" y="0" width="8.533333e+00" height="5.449669e+01"/></g><g fill="hsl(49, 88%, 65%)" stroke="hsl(49, 88%, 65%)" stroke-width="1px" stroke-linecap="round" stroke-linejoin="round" transform="translate(80 520 )scale(1 -1 )"><rect y="0" width="8.533333e+00" height="4.400707e+01" vector-effect="non-scaling-stroke" x="64"/><rect x="8.533333e+01" y="0" width="8.533333e+00" height="4.401265e+01" vector-effect="non-scaling-stroke"/><rect height="4.403497e+01" vector-effect="non-scaling-stroke" x="1.066667e+02" y="0" width="8.533333e+00"/><rect vector-effect="non-scaling-stroke" x="128" y="0" width="8.533333e+00" height="4.429498e+01"/><rect y="0" width="8.533333e+00" height="1.168683e+03" vector-effect="non-scaling-stroke" x="1.493333e+02"/><rect x="1.706667e+02" y="0" width="8.533333e+00" height="4.413021e+01" vector-effect="non-scaling-stroke"/><rect x="192" y="0" width="8.533333e+00" height="4.439883e+01" vector-effect="non-scaling-stroke"/><rect vector-effect="non-scaling-stroke" x="2.133333e+02" y="0" width="8.533333e+00" height="4.400174e+01"/><rect vector-effect="non-scaling-stroke" x="2.346667e+02" y="0" width="8.533333e+00" height="4.402506e+01"/><rect height="4.402301e+01" vector-effect="non-scaling-stroke" x="2.560000e+02" y="0" width="8.533333e+00"/><rect y="0" width="8.533333e+00" height="2.772293e+02" vector-effect="non-scaling-stroke" x="2.773333e+02"/><rect y="0" width="8.533333e+00" height="4.400036e+01" vector-effect="non-scaling-stroke" x="2.986667e+02"/><rect vector-effect="non-scaling-stroke" x="320" y="0" width="8.533333e+00" height="4.401793e+01"/><rect x="3.413333e+02" y="0" width="8.533333e+00" height="1.050237e+03" vector-effect="non-scaling-stroke"/><rect y="0" width="8.533333e+00" height="4.481310e+01" vector-effect="non-scaling-stroke" x="3.626667e+02"/><rect width="8.533333e+00" height="5.404956e+01" vector-effect="non-scaling-stroke" x="384" y="0"/><rect y="0" width="8.533333e+00" height="4.907837e+01" vector-effect="non-scaling-stroke" x="4.053333e+02"/><rect height="9.539654e+01" vector-effect="non-scaling-stroke" x="4.266667e+02" y="0" width="8.533333e+00"/><rect y="0" width="8.533333e+00" height="4.400001e+01" vector-effect="non-scaling-stroke" x="448"/><rect height="4.401479e+01" vector-effect="non-scaling-stroke" x="4.693333e+02" y="0" width="8.533333e+00"/><rect height="4.977735e+01" vector-effect="non-scaling-stroke" x="4.906667e+02" y="0" width="8.533333e+00"/><rect vector-effect="non-scaling-stroke" x="512" y="0" width="8.533333e+00" height="4.586154e+01"/><rect vector-effect="non-scaling-stroke" x="5.333333e+02" y="0" width="8.533333e+00" height="4.400077e+01"/><rect y="0" width="8.533333e+00" height="4.476924e+01" vector-effect="non-scaling-stroke" x="5.546667e+02"/><rect x="576" y="0" width="8.533333e+00" height="4.544087e+01" vector-effect="non-scaling-stroke"/></g><g dominant-baseline="hanging" font-weight="normal" stroke="hsl(198, 47%, 65%)" stroke-linecap="round" font-family="sans-serif" text-anchor="start" stroke-width="1px" stroke-linejoin="round" font-size="12px" font-style="normal" fill="hsl(198, 47%, 65%)"><rect width="12" height="12" vector-effect="non-scaling-stroke" x="736" y="484"/><g fill="black" stroke="black"><text stroke="none" vector-effect="non-scaling-stroke" x="752" y="484" dominant-baseline="hanging">Golang</text></g><g fill="hsl(49, 88%, 65%)" text-anchor="start" font-size="12px" font-style="normal" stroke-width="1px" dominant-baseline="hanging" stroke-linejoin="round" font-family="sans-serif" font-weight="normal" stroke="hsl(49, 88%, 65%)" stroke-linecap="round"><rect width="12" height="12" vector-effect="non-scaling-stroke" x="736" y="502"/><g stroke="black" fill="black"><text dominant-baseline="hanging" stroke="none" vector-effect="non-scaling-stroke" x="752" y="502">Rust</text><g fill="none" stroke-linejoin="round" font-family="sans-serif" font-size="12px" font-weight="normal" stroke-width="2px" font-style="normal" stroke-linecap="round" dominant-baseline="hanging" text-anchor="start"><rect vector-effect="non-scaling-stroke" x="80" y="80" width="640" height="440"/></g><g text-anchor="start" dominant-baseline="hanging" stroke-linecap="round" font-size="12px" fill="none" stroke="black" stroke-width="2px" stroke-linejoin="round" font-family="sans-serif" font-style="normal" font-weight="normal" transform="translate(80 520 )scale(1 -1 )"><path vector-effect="non-scaling-stroke" d="M64,0 L64,-6 M8.533333e+01,0 L8.533333e+01,-6 M1.066667e+02,0 L1.066667e+02,-6 M128,0 L128,-6 M1.493333e+02,0 L1.493333e+02,-6 M1.706667e+02,0 L1.706667e+02,-6 M192,0 L192,-6 M2.133333e+02,0 L2.133333e+02,-6 M2.346667e+02,0 L2.346667e+02,-6 M256,0 L256,-6 M2.773333e+02,0 L2.773333e+02,-6 M2.986667e+02,0 L2.986667e+02,-6 M320,0 L320,-6 M3.413333e+02,0 L3.413333e+02,-6 M3.626667e+02,0 L3.626667e+02,-6 M384,0 L384,-6 M4.053333e+02,0 L4.053333e+02,-6 M4.266667e+02,0 L4.266667e+02,-6 M448,0 L448,-6 M4.693333e+02,0 L4.693333e+02,-6 M4.906667e+02,0 L4.906667e+02,-6 M512,0 L512,-6 M5.333333e+02,0 L5.333333e+02,-6 M5.546667e+02,0 L5.546667e+02,-6 M576,0 L576,-6 "/></g><g stroke-linejoin="round" font-style="normal" transform="translate(80 520 )scale(1 1 )" dominant-baseline="hanging" fill="black" stroke-width="2px" font-family="sans-serif" font-size="12px" font-weight="normal" stroke="black" text-anchor="middle" stroke-linecap="round"><text vector-effect="non-scaling-stroke" x="64" y="10" dominant-baseline="hanging" stroke="none">1</text><text x="8.533333e+01" y="10" dominant-baseline="hanging" stroke="none" vector-effect="non-scaling-stroke">2</text><text y="10" dominant-baseline="hanging" stroke="none" vector-effect="non-scaling-stroke" x="1.066667e+02">3</text><text stroke="none" vector-effect="non-scaling-stroke" x="128" y="10" dominant-baseline="hanging">4</text><text y="10" dominant-baseline="hanging" stroke="none" vector-effect="non-scaling-stroke" x="1.493333e+02">5</text><text x="1.706667e+02" y="10" dominant-baseline="hanging" stroke="none" vector-effect="non-scaling-stroke">6</text><text stroke="none" vector-effect="non-scaling-stroke" x="192" y="10" dominant-baseline="hanging">7</text><text y="10" dominant-baseline="hanging" stroke="none" vector-effect="non-scaling-stroke" x="2.133333e+02">8</text><text stroke="none" vector-effect="non-scaling-stroke" x="2.346667e+02" y="10" dominant-baseline="hanging">9</text><text vector-effect="non-scaling-stroke" x="256" y="10" dominant-baseline="hanging" stroke="none">10</text><text stroke="none" vector-effect="non-scaling-stroke" x="2.773333e+02" y="10" dominant-baseline="hanging">11</text><text y="10" dominant-baseline="hanging" stroke="none" vector-effect="non-scaling-stroke" x="2.986667e+02">12</text><text dominant-baseline="hanging" stroke="none" vector-effect="non-scaling-stroke" x="320" y="10">13</text><text vector-effect="non-scaling-stroke" x="3.413333e+02" y="10" dominant-baseline="hanging" stroke="none">14</text><text stroke="none" vector-effect="non-scaling-stroke" x="3.626667e+02" y="10" dominant-baseline="hanging">15</text><text y="10" dominant-baseline="hanging" stroke="none" vector-effect="non-scaling-stroke" x="384">16</text><text stroke="none" vector-effect="non-scaling-stroke" x="4.053333e+02" y="10" dominant-baseline="hanging">17</text><text x="4.266667e+02" y="10" dominant-baseline="hanging" stroke="none" vector-effect="non-scaling-stroke">18</text><text dominant-baseline="hanging" stroke="none" vector-effect="non-scaling-stroke" x="448" y="10">19</text><text stroke="none" vector-effect="non-scaling-stroke" x="4.693333e+02" y="10" dominant-baseline="hanging">20</text><text vector-effect="non-scaling-stroke" x="4.906667e+02" y="10" dominant-baseline="hanging" stroke="none">21</text><text vector-effect="non-scaling-stroke" x="512" y="10" dominant-baseline="hanging" stroke="none">22</text><text y="10" dominant-baseline="hanging" stroke="none" vector-effect="non-scaling-stroke" x="5.333333e+02">23</text><text y="10" dominant-baseline="hanging" stroke="none" vector-effect="non-scaling-stroke" x="5.546667e+02">24</text><text x="576" y="10" dominant-baseline="hanging" stroke="none" vector-effect="non-scaling-stroke">25</text></g><g text-anchor="middle" stroke="black" stroke-linecap="round" stroke-linejoin="round" font-family="sans-serif" font-size="12px" fill="black" dominant-baseline="baseline" font-style="normal" font-weight="bold" stroke-width="2px" transform="translate(80 520 )scale(1 1 )rotate(0 0 0 )"><text stroke="none" vector-effect="non-scaling-stroke" x="320" y="-6" dominant-baseline="baseline">Day</text></g><g font-weight="bold" stroke="black" font-size="12px" font-style="normal" transform="translate(80 520 )scale(1 -1 )" fill="black" dominant-baseline="baseline" stroke-linecap="round" stroke-linejoin="round" font-family="sans-serif" text-anchor="middle" stroke-width="2px"><path vector-effect="non-scaling-stroke" d="M0,44 L-6,44 M0,7.920000e+01 L-6,7.920000e+01 M0,1.144000e+02 L-6,1.144000e+02 M0,1.496000e+02 L-6,1.496000e+02 M0,1.848000e+02 L-6,1.848000e+02 M0,220 L-6,220 M0,2.552000e+02 L-6,2.552000e+02 M0,2.904000e+02 L-6,2.904000e+02 M0,3.256000e+02 L-6,3.256000e+02 M0,3.608000e+02 L-6,3.608000e+02 M0,396 L-6,396 "/></g><g stroke-linejoin="round" transform="translate(80 520 )scale(1 1 )" fill="black" text-anchor="end" dominant-baseline="middle" font-weight="normal" stroke="black" stroke-width="2px" font-size="12px" font-style="normal" stroke-linecap="round" font-family="sans-serif"><text stroke="none" vector-effect="non-scaling-stroke" x="-10" y="-44" dominant-baseline="middle">0s</text><text x="-10" y="-7.920000e+01" dominant-baseline="middle" stroke="none" vector-effect="non-scaling-stroke">200ms</text><text stroke="none" vector-effect="non-scaling-stroke" x="-10" y="-1.144000e+02" dominant-baseline="middle">400ms</text><text x="-10" y="-1.496000e+02" dominant-baseline="middle" stroke="none" vector-effect="non-scaling-stroke">600ms</text><text x="-10" y="-1.848000e+02" dominant-baseline="middle" stroke="none" vector-effect="non-scaling-stroke">800ms</text><text stroke="none" vector-effect="non-scaling-stroke" x="-10" y="-220" dominant-baseline="middle">1s</text><text stroke="none" vector-effect="non-scaling-stroke" x="-10" y="-2.552000e+02" dominant-baseline="middle">1.2s</text><text stroke="none" vector-effect="non-scaling-stroke" x="-10" y="-2.904000e+02" dominant-baseline="middle">1.4s</text><text y="-3.256000e+02" dominant-baseline="middle" stroke="none" vector-effect="non-scaling-stroke" x="-10">1.6s</text><text x="-10" y="-3.608000e+02" dominant-baseline="middle" stroke="none" vector-effect="non-scaling-stroke">1.8s</text><text vector-effect="non-scaling-stroke" x="-10" y="-396" dominant-baseline="middle" stroke="none">2s</text></g><g stroke-linecap="round" fill="black" dominant-baseline="hanging" font-family="sans-serif" font-size="12px" font-style="normal" font-weight="bold" stroke="black" stroke-linejoin="round" transform="translate(80 520 )scale(1 1 )rotate(-90 0 0 )" text-anchor="middle" stroke-width="2px"><text dominant-baseline="hanging" stroke="none" vector-effect="non-scaling-stroke" x="220" y="6">Runtime</text></g></g></g></g></svg>