<svg height="600" viewbox="0 0 800 600" preserveAspectRatio="xMidYMid meet" xmlns="http://www.w3.org/2000/svg" width="800"><defs><marker viewBox="0 0 10 10 " refX="5" refY="5" markerUnits="userSpaceOnUse" markerWidth="2%" markerHeight="2%" id="circle"><circle cx="5" cy="5" r="3" fill="none" stroke="black"/></marker><marker markerUnits="userSpaceOnUse" markerWidth="2%" markerHeight="2%" id="filled-circle" viewBox="0 0 10 10 " refX="5" refY="5"><circle fill="black" stroke="none" cx="5" cy="5" r="3"/></marker><marker refX="5" refY="5" markerUnits="userSpaceOnUse" markerWidth="2%" markerHeight="2%" id="square" viewBox="0 0 10 10 "><rect fill="none" stroke="black" x="2" y="2" width="6" height="6"/></marker><marker refX="5" refY="5" markerUnits="userSpaceOnUse" markerWidth="2%" markerHeight="2%" id="filled-square" viewBox="0 0 10 10 "><rect width="6" height="6" fill="black" stroke="none" x="2" y="2"/></marker></defs><g fill="hsl(198, 47%, 65%)" stroke="hsl(198, 47%, 65%)" stroke-width="1px" stroke-linecap="round" stroke-linejoin="round" transform="translate(80 520 )scale(1 -1 )"><rect width="5.688889e+00" height="4.401184e+01" vector-effect="non-scaling-stroke" x="5.546667e+01" y="0"/><rect width="5.688889e+00" height="44" vector-effect="non-scaling-stroke" x="7.680000e+01" y="0"/><rect y="0" width="5.688889e+00" height="44" vector-effect="non-scaling-stroke" x="9.813333e+01"/><rect y="0" width="5.688889e+00" height="44" vector-effect="non-scaling-stroke" x="1.194667e+02"/><rect vector-effect="non-scaling-stroke" x="1.408000e+02" y="0" width="5.688889e+00" height="44"/><rect height="44" vector-effect="non-scaling-stroke" x="1.621333e+02" y="0" width="5.688889e+00"/><rect width="5.688889e+00" height="44" vector-effect="non-scaling-stroke" x="1.834667e+02" y="0"/><rect vector-effect="non-scaling-stroke" x="2.048000e+02" y="0" width="5.688889e+00" height="44"/><rect y="0" width="5.688889e+00" height="44" vector-effect="non-scaling-stroke" x="2.261333e+02"/><rect vector-effect="non-scaling-stroke" x="2.474667e+02" y="0" width="5.688889e+00" height="44"/><rect vector-effect="non-scaling-stroke" x="2.688000e+02" y="0" width="5.688889e+00" height="44"/><rect y="0" width="5.688889e+00" height="44" vector-effect="non-scaling-stroke" x="2.901333e+02"/><rect x="3.114667e+02" y="0" width="5.688889e+00" height="44" vector-effect="non-scaling-stroke"/><rect width="5.688889e+00" height="44" vector-effect="non-scaling-stroke" x="3.328000e+02" y="0"/><rect x="3.541333e+02" y="0" width="5.688889e+00" height="44" vector-effect="non-scaling-stroke"/><rect height="44" vector-effect="non-scaling-stroke" x="3.754667e+02" y="0" width="5.688889e+00"/><rect vector-effect="non-scaling-stroke" x="3.968000e+02" y="0" width="5.688889e+00" height="44"/><rect x="4.181333e+02" y="0" width="5.688889e+00" height="44" vector-effect="non-scaling-stroke"/><rect y="0" width="5.688889e+00" height="44" vector-effect="non-scaling-stroke" x="4.394667e+02"/><rect x="4.608000e+02" y="0" width="5.688889e+00" height="44" vector-effect="non-scaling-stroke"/><rect x="4.821333e+02" y="0" width="5.688889e+00" height="44" vector-effect="non-scaling-stroke"/><rect vector-effect="non-scaling-stroke" x="5.034667e+02" y="0" width="5.688889e+00" height="44"/><rect y="0" width="5.688889e+00" height="44" vector-effect="non-scaling-stroke" x="5.248000e+02"/><rect vector-effect="non-scaling-stroke" x="5.461333e+02" y="0" width="5.688889e+00" height="44"/><rect width="5.688889e+00" height="44" vector-effect="non-scaling-stroke" x="5.674667e+02" y="0"/></g><g fill="hsl(49, 88%, 65%)" stroke="hsl(49, 88%, 65%)" stroke-width="1px" stroke-linecap="round" stroke-linejoin="round" transform="translate(80 520 )scale(1 -1 )"><rect width="5.688889e+00" height="4.400512e+01" vector-effect="non-scaling-stroke" x="6.115556e+01" y="0"/><rect width="5.688889e+00" height="4.413528e+01" vector-effect="non-scaling-stroke" x="8.248889e+01" y="0"/><rect width="5.688889e+00" height="4.413275e+01" vector-effect="non-scaling-stroke" x="1.038222e+02" y="0"/><rect height="2.884879e+02" vector-effect="non-scaling-stroke" x="1.251556e+02" y="0" width="5.688889e+00"/><rect x="1.464889e+02" y="0" width="5.688889e+00" height="4.409377e+01" vector-effect="non-scaling-stroke"/><rect width="5.688889e+00" height="6.735611e+01" vector-effect="non-scaling-stroke" x="1.678222e+02" y="0"/><rect vector-effect="non-scaling-stroke" x="1.891556e+02" y="0" width="5.688889e+00" height="4.405629e+01"/><rect y="0" width="5.688889e+00" height="4.400568e+01" vector-effect="non-scaling-stroke" x="2.104889e+02"/><rect x="2.318222e+02" y="0" width="5.688889e+00" height="4.660350e+01" vector-effect="non-scaling-stroke"/><rect x="2.531556e+02" y="0" width="5.688889e+00" height="6.506294e+01" vector-effect="non-scaling-stroke"/><rect y="0" width="5.688889e+00" height="5.298850e+01" vector-effect="non-scaling-stroke" x="2.744889e+02"/><rect vector-effect="non-scaling-stroke" x="2.958222e+02" y="0" width="5.688889e+00" height="5.801541e+01"/><rect y="0" width="5.688889e+00" height="7.042231e+01" vector-effect="non-scaling-stroke" x="3.171556e+02"/><rect x="3.384889e+02" y="0" width="5.688889e+00" height="4.405454e+01" vector-effect="non-scaling-stroke"/><rect y="0" width="5.688889e+00" height="6.204868e+01" vector-effect="non-scaling-stroke" x="3.598222e+02"/><rect vector-effect="non-scaling-stroke" x="3.811556e+02" y="0" width="5.688889e+00" height="4.409458e+01"/><rect vector-effect="non-scaling-stroke" x="4.024889e+02" y="0" width="5.688889e+00" height="5.992533e+01"/><rect x="4.238222e+02" y="0" width="5.688889e+00" height="4.507720e+01" vector-effect="non-scaling-stroke"/><rect width="5.688889e+00" height="4.406893e+01" vector-effect="non-scaling-stroke" x="4.451556e+02" y="0"/><rect y="0" width="5.688889e+00" height="1.172080e+03" vector-effect="non-scaling-stroke" x="4.664889e+02"/><rect height="4.411205e+01" vector-effect="non-scaling-stroke" x="4.878222e+02" y="0" width="5.688889e+00"/><rect width="5.688889e+00" height="5.087442e+02" vector-effect="non-scaling-stroke" x="5.091556e+02" y="0"/><rect y="0" width="5.688889e+00" height="4.400842e+01" vector-effect="non-scaling-stroke" x="5.304889e+02"/><rect width="5.688889e+00" height="8.577670e+01" vector-effect="non-scaling-stroke" x="5.518222e+02" y="0"/><rect vector-effect="non-scaling-stroke" x="5.731556e+02" y="0" width="5.688889e+00" height="4.400139e+01"/></g><g fill="hsl(260, 76%, 65%)" stroke="hsl(260, 76%, 65%)" stroke-width="1px" stroke-linecap="round" stroke-linejoin="round" transform="translate(80 520 )scale(1 -1 )"><rect vector-effect="non-scaling-stroke" x="6.684444e+01" y="0" width="5.688889e+00" height="4.400123e+01"/><rect x="8.817778e+01" y="0" width="5.688889e+00" height="4.401736e+01" vector-effect="non-scaling-stroke"/><rect y="0" width="5.688889e+00" height="4.416019e+01" vector-effect="non-scaling-stroke" x="1.095111e+02"/><rect x="1.308444e+02" y="0" width="5.688889e+00" height="3.685338e+02" vector-effect="non-scaling-stroke"/><rect vector-effect="non-scaling-stroke" x="1.521778e+02" y="0" width="5.688889e+00" height="4.406513e+01"/><rect x="1.735111e+02" y="0" width="5.688889e+00" height="5.355585e+01" vector-effect="non-scaling-stroke"/><rect width="5.688889e+00" height="4.406252e+01" vector-effect="non-scaling-stroke" x="1.948444e+02" y="0"/><rect vector-effect="non-scaling-stroke" x="2.161778e+02" y="0" width="5.688889e+00" height="4.401212e+01"/><rect width="5.688889e+00" height="4.550722e+01" vector-effect="non-scaling-stroke" x="2.375111e+02" y="0"/><rect height="1.804509e+02" vector-effect="non-scaling-stroke" x="2.588444e+02" y="0" width="5.688889e+00"/><rect vector-effect="non-scaling-stroke" x="2.801778e+02" y="0" width="5.688889e+00" height="5.750803e+01"/><rect vector-effect="non-scaling-stroke" x="3.015111e+02" y="0" width="5.688889e+00" height="4.409441e+01"/><rect vector-effect="non-scaling-stroke" x="3.228444e+02" y="0" width="5.688889e+00" height="7.436076e+01"/><rect vector-effect="non-scaling-stroke" x="3.441778e+02" y="0" width="5.688889e+00" height="4.415757e+01"/><rect x="3.655111e+02" y="0" width="5.688889e+00" height="5.314767e+01" vector-effect="non-scaling-stroke"/><rect width="5.688889e+00" height="4.408291e+01" vector-effect="non-scaling-stroke" x="3.868444e+02" y="0"/><rect y="0" width="5.688889e+00" height="5.277403e+01" vector-effect="non-scaling-stroke" x="4.081778e+02"/><rect y="0" width="5.688889e+00" height="4.892995e+01" vector-effect="non-scaling-stroke" x="4.295111e+02"/><rect vector-effect="non-scaling-stroke" x="4.508444e+02" y="0" width="5.688889e+00" height="4.431604e+01"/><rect x="4.721778e+02" y="0" width="5.688889e+00" height="5.679560e+02" vector-effect="non-scaling-stroke"/><rect vector-effect="non-scaling-stroke" x="4.935111e+02" y="0" width="5.688889e+00" height="4.400758e+01"/><rect x="5.148444e+02" y="0" width="5.688889e+00" height="1.730810e+02" vector-effect="non-scaling-stroke"/><rect vector-effect="non-scaling-stroke" x="5.361778e+02" y="0" width="5.688889e+00" height="4.400158e+01"/><rect vector-effect="non-scaling-stroke" x="5.575111e+02" y="0" width="5.688889e+00" height="4.544669e+01"/><rect x="5.788444e+02" y="0" width="5.688889e+00" height="4.400011e+01" vector-effect="non-scaling-stroke"/></g><g font-family="sans-serif" font-size="12px" fill="hsl(198, 47%, 65%)" stroke-width="1px" stroke-linecap="round" stroke-linejoin="round" stroke="hsl(198, 47%, 65%)" dominant-baseline="hanging" font-style="normal" font-weight="normal" text-anchor="start"><rect vector-effect="non-scaling-stroke" x="736" y="466" width="12" height="12"/><g fill="black" stroke="black"><text stroke="none" vector-effect="non-scaling-stroke" x="752" y="466" dominant-baseline="hanging">Crystal</text></g><g font-family="sans-serif" font-size="12px" dominant-baseline="hanging" stroke="hsl(49, 88%, 65%)" stroke-width="1px" font-style="normal" font-weight="normal" stroke-linecap="round" stroke-linejoin="round" text-anchor="start" fill="hsl(49, 88%, 65%)"><rect height="12" vector-effect="non-scaling-stroke" x="736" y="484" width="12"/><g fill="black" stroke="black"><text stroke="none" vector-effect="non-scaling-stroke" x="752" y="484" dominant-baseline="hanging">Golang</text></g><g stroke-width="1px" stroke-linecap="round" stroke-linejoin="round" stroke="hsl(260, 76%, 65%)" font-family="sans-serif" dominant-baseline="hanging" text-anchor="start" fill="hsl(260, 76%, 65%)" font-size="12px" font-style="normal" font-weight="normal"><rect vector-effect="non-scaling-stroke" x="736" y="502" width="12" height="12"/><g stroke="black" fill="black"><text vector-effect="non-scaling-stroke" x="752" y="502" dominant-baseline="hanging" stroke="none">Rust</text><g font-size="12px" dominant-baseline="hanging" fill="none" stroke-linejoin="round" font-weight="normal" font-style="normal" text-anchor="start" font-family="sans-serif" stroke-width="2px" stroke-linecap="round"><rect width="640" height="440" vector-effect="non-scaling-stroke" x="80" y="80"/></g><g font-weight="normal" text-anchor="start" transform="translate(80 520 )scale(1 -1 )" fill="none" font-family="sans-serif" dominant-baseline="hanging" font-style="normal" stroke-linecap="round" stroke-linejoin="round" font-size="12px" stroke="black" stroke-width="2px"><path vector-effect="non-scaling-stroke" d="M64,0 L64,-6 M8.533333e+01,0 L8.533333e+01,-6 M1.066667e+02,0 L1.066667e+02,-6 M128,0 L128,-6 M1.493333e+02,0 L1.493333e+02,-6 M1.706667e+02,0 L1.706667e+02,-6 M192,0 L192,-6 M2.133333e+02,0 L2.133333e+02,-6 M2.346667e+02,0 L2.346667e+02,-6 M256,0 L256,-6 M2.773333e+02,0 L2.773333e+02,-6 M2.986667e+02,0 L2.986667e+02,-6 M320,0 L320,-6 M3.413333e+02,0 L3.413333e+02,-6 M3.626667e+02,0 L3.626667e+02,-6 M384,0 L384,-6 M4.053333e+02,0 L4.053333e+02,-6 M4.266667e+02,0 L4.266667e+02,-6 M448,0 L448,-6 M4.693333e+02,0 L4.693333e+02,-6 M4.906667e+02,0 L4.906667e+02,-6 M512,0 L512,-6 M5.333333e+02,0 L5.333333e+02,-6 M5.546667e+02,0 L5.546667e+02,-6 M576,0 L576,-6 "/></g><g fill="black" font-family="sans-serif" stroke="black" stroke-linecap="round" stroke-linejoin="round" transform="translate(80 520 )scale(1 1 )" text-anchor="middle" font-size="12px" dominant-baseline="hanging" stroke-width="2px" font-style="normal" font-weight="normal"><text stroke="none" vector-effect="non-scaling-stroke" x="64" y="10" dominant-baseline="hanging">1</text><text vector-effect="non-scaling-stroke" x="8.533333e+01" y="10" dominant-baseline="hanging" stroke="none">2</text><text y="10" dominant-baseline="hanging" stroke="none" vector-effect="non-scaling-stroke" x="1.066667e+02">3</text><text y="10" dominant-baseline="hanging" stroke="none" vector-effect="non-scaling-stroke" x="128">4</text><text x="1.493333e+02" y="10" dominant-baseline="hanging" stroke="none" vector-effect="non-scaling-stroke">5</text><text dominant-baseline="hanging" stroke="none" vector-effect="non-scaling-stroke" x="1.706667e+02" y="10">6</text><text stroke="none" vector-effect="non-scaling-stroke" x="192" y="10" dominant-baseline="hanging">7</text><text dominant-baseline="hanging" stroke="none" vector-effect="non-scaling-stroke" x="2.133333e+02" y="10">8</text><text y="10" dominant-baseline="hanging" stroke="none" vector-effect="non-scaling-stroke" x="2.346667e+02">9</text><text dominant-baseline="hanging" stroke="none" vector-effect="non-scaling-stroke" x="256" y="10">10</text><text stroke="none" vector-effect="non-scaling-stroke" x="2.773333e+02" y="10" dominant-baseline="hanging">11</text><text y="10" dominant-baseline="hanging" stroke="none" vector-effect="non-scaling-stroke" x="2.986667e+02">12</text><text x="320" y="10" dominant-baseline="hanging" stroke="none" vector-effect="non-scaling-stroke">13</text><text stroke="none" vector-effect="non-scaling-stroke" x="3.413333e+02" y="10" dominant-baseline="hanging">14</text><text vector-effect="non-scaling-stroke" x="3.626667e+02" y="10" dominant-baseline="hanging" stroke="none">15</text><text dominant-baseline="hanging" stroke="none" vector-effect="non-scaling-stroke" x="384" y="10">16</text><text stroke="none" vector-effect="non-scaling-stroke" x="4.053333e+02" y="10" dominant-baseline="hanging">17</text><text stroke="none" vector-effect="non-scaling-stroke" x="4.266667e+02" y="10" dominant-baseline="hanging">18</text><text dominant-baseline="hanging" stroke="none" vector-effect="non-scaling-stroke" x="448" y="10">19</text><text vector-effect="non-scaling-stroke" x="4.693333e+02" y="10" dominant-baseline="hanging" stroke="none">20</text><text stroke="none" vector-effect="non-scaling-stroke" x="4.906667e+02" y="10" dominant-baseline="hanging">21</text><text stroke="none" vector-effect="non-scaling-stroke" x="512" y="10" dominant-baseline="hanging">22</text><text stroke="none" vector-effect="non-scaling-stroke" x="5.333333e+02" y="10" dominant-baseline="hanging">23</text><text y="10" dominant-baseline="hanging" stroke="none" vector-effect="non-scaling-stroke" x="5.546667e+02">24</text><text dominant-baseline="hanging" stroke="none" vector-effect="non-scaling-stroke" x="576" y="10">25</text></g><g fill="black" font-family="sans-serif" stroke-width="2px" stroke-linecap="round" font-weight="bold" text-anchor="middle" transform="translate(80 520 )scale(1 1 )rotate(0 0 0 )" stroke-linejoin="round" font-style="normal" font-size="12px" dominant-baseline="baseline" stroke="black"><text y="-6" dominant-baseline="baseline" stroke="none" vector-effect="non-scaling-stroke" x="320">Day</text></g><g dominant-baseline="baseline" stroke-width="2px" stroke-linecap="round" font-style="normal" fill="black" font-size="12px" stroke="black" stroke-linejoin="round" font-weight="bold" text-anchor="middle" transform="translate(80 520 )scale(1 -1 )" font-family="sans-serif"><path vector-effect="non-scaling-stroke" d="M0,44 L-6,44 M0,7.920000e+01 L-6,7.920000e+01 M0,1.144000e+02 L-6,1.144000e+02 M0,1.496000e+02 L-6,1.496000e+02 M0,1.848000e+02 L-6,1.848000e+02 M0,220 L-6,220 M0,2.552000e+02 L-6,2.552000e+02 M0,2.904000e+02 L-6,2.904000e+02 M0,3.256000e+02 L-6,3.256000e+02 M0,3.608000e+02 L-6,3.608000e+02 M0,396 L-6,396 "/></g><g fill="black" stroke-width="2px" stroke-linecap="round" text-anchor="end" font-size="12px" stroke-linejoin="round" font-style="normal" font-weight="normal" transform="translate(80 520 )scale(1 1 )" stroke="black" font-family="sans-serif" dominant-baseline="middle"><text y="-44" dominant-baseline="middle" stroke="none" vector-effect="non-scaling-stroke" x="-10">0s</text><text stroke="none" vector-effect="non-scaling-stroke" x="-10" y="-7.920000e+01" dominant-baseline="middle">200ms</text><text vector-effect="non-scaling-stroke" x="-10" y="-1.144000e+02" dominant-baseline="middle" stroke="none">400ms</text><text dominant-baseline="middle" stroke="none" vector-effect="non-scaling-stroke" x="-10" y="-1.496000e+02">600ms</text><text stroke="none" vector-effect="non-scaling-stroke" x="-10" y="-1.848000e+02" dominant-baseline="middle">800ms</text><text stroke="none" vector-effect="non-scaling-stroke" x="-10" y="-220" dominant-baseline="middle">1s</text><text stroke="none" vector-effect="non-scaling-stroke" x="-10" y="-2.552000e+02" dominant-baseline="middle">1.2s</text><text stroke="none" vector-effect="non-scaling-stroke" x="-10" y="-2.904000e+02" dominant-baseline="middle">1.4s</text><text dominant-baseline="middle" stroke="none" vector-effect="non-scaling-stroke" x="-10" y="-3.256000e+02">1.6s</text><text stroke="none" vector-effect="non-scaling-stroke" x="-10" y="-3.608000e+02" dominant-baseline="middle">1.8s</text><text stroke="none" vector-effect="non-scaling-stroke" x="-10" y="-396" dominant-baseline="middle">2s</text></g><g stroke="black" stroke-linecap="round" stroke-linejoin="round" font-style="normal" font-weight="bold" transform="translate(80 520 )scale(1 1 )rotate(-90 0 0 )" font-family="sans-serif" font-size="12px" dominant-baseline="hanging" stroke-width="2px" text-anchor="middle" fill="black"><text stroke="none" vector-effect="non-scaling-stroke" x="220" y="6" dominant-baseline="hanging">Runtime</text></g></g></g></g></g></svg>