<svg height="600" viewbox="0 0 800 600" preserveAspectRatio="xMidYMid meet" xmlns="http://www.w3.org/2000/svg" width="800"><defs><marker id="circle" viewBox="0 0 10 10 " refX="5" refY="5" markerUnits="userSpaceOnUse" markerWidth="2%" markerHeight="2%"><circle r="3" fill="none" stroke="black" cx="5" cy="5"/></marker><marker markerUnits="userSpaceOnUse" markerWidth="2%" markerHeight="2%" id="filled-circle" viewBox="0 0 10 10 " refX="5" refY="5"><circle cx="5" cy="5" r="3" fill="black" stroke="none"/></marker><marker id="square" viewBox="0 0 10 10 " refX="5" refY="5" markerUnits="userSpaceOnUse" markerWidth="2%" markerHeight="2%"><rect height="6" fill="none" stroke="black" x="2" y="2" width="6"/></marker><marker id="filled-square" viewBox="0 0 10 10 " refX="5" refY="5" markerUnits="userSpaceOnUse" markerWidth="2%" markerHeight="2%"><rect height="6" fill="black" stroke="none" x="2" y="2" width="6"/></marker></defs><g fill="hsl(198, 47%, 65%)" stroke="hsl(198, 47%, 65%)" stroke-width="1px" stroke-linecap="round" stroke-linejoin="round" transform="translate(80 520 )scale(1 -1 )"><rect width="4.266667e+00" height="4.400057e+01" vector-effect="non-scaling-stroke" x="5.546667e+01" y="0"/><rect y="0" width="4.266667e+00" height="4.415432e+01" vector-effect="non-scaling-stroke" x="7.680000e+01"/><rect vector-effect="non-scaling-stroke" x="9.813333e+01" y="0" width="4.266667e+00" height="5.333096e+01"/><rect height="4.459818e+01" vector-effect="non-scaling-stroke" x="1.194667e+02" y="0" width="4.266667e+00"/><rect vector-effect="non-scaling-stroke" x="1.408000e+02" y="0" width="4.266667e+00" height="4.400915e+01"/><rect x="1.621333e+02" y="0" width="4.266667e+00" height="4.400077e+01" vector-effect="non-scaling-stroke"/><rect y="0" width="4.266667e+00" height="4.546369e+01" vector-effect="non-scaling-stroke" x="1.834667e+02"/><rect width="4.266667e+00" height="4.400739e+01" vector-effect="non-scaling-stroke" x="2.048000e+02" y="0"/><rect width="4.266667e+00" height="5.836457e+01" vector-effect="non-scaling-stroke" x="2.261333e+02" y="0"/><rect x="2.474667e+02" y="0" width="4.266667e+00" height="5.125043e+01" vector-effect="non-scaling-stroke"/><rect height="4.822710e+01" vector-effect="non-scaling-stroke" x="2.688000e+02" y="0" width="4.266667e+00"/><rect vector-effect="non-scaling-stroke" x="2.901333e+02" y="0" width="4.266667e+00" height="1.298685e+02"/><rect height="7.354406e+01" vector-effect="non-scaling-stroke" x="3.114667e+02" y="0" width="4.266667e+00"/><rect height="4.538262e+01" vector-effect="non-scaling-stroke" x="3.328000e+02" y="0" width="4.266667e+00"/><rect height="5.216022e+01" vector-effect="non-scaling-stroke" x="3.541333e+02" y="0" width="4.266667e+00"/><rect height="9.058034e+01" vector-effect="non-scaling-stroke" x="3.754667e+02" y="0" width="4.266667e+00"/><rect height="4.868392e+01" vector-effect="non-scaling-stroke" x="3.968000e+02" y="0" width="4.266667e+00"/><rect height="4.707877e+02" vector-effect="non-scaling-stroke" x="4.181333e+02" y="0" width="4.266667e+00"/><rect x="4.394667e+02" y="0" width="4.266667e+00" height="1.465202e+02" vector-effect="non-scaling-stroke"/><rect vector-effect="non-scaling-stroke" x="4.608000e+02" y="0" width="4.266667e+00" height="1.382330e+02"/><rect height="6.607058e+01" vector-effect="non-scaling-stroke" x="4.821333e+02" y="0" width="4.266667e+00"/><rect x="5.034667e+02" y="0" width="4.266667e+00" height="4.400077e+01" vector-effect="non-scaling-stroke"/><rect y="0" width="4.266667e+00" height="5.712622e+01" vector-effect="non-scaling-stroke" x="5.248000e+02"/><rect vector-effect="non-scaling-stroke" x="5.461333e+02" y="0" width="4.266667e+00" height="5.286873e+01"/><rect vector-effect="non-scaling-stroke" x="5.674667e+02" y="0" width="4.266667e+00" height="3.004918e+02"/></g><g transform="translate(80 520 )scale(1 -1 )" fill="hsl(49, 88%, 65%)" stroke="hsl(49, 88%, 65%)" stroke-width="1px" stroke-linecap="round" stroke-linejoin="round"><rect x="5.973333e+01" y="0" width="4.266667e+00" height="4.400344e+01" vector-effect="non-scaling-stroke"/><rect width="4.266667e+00" height="4.485732e+01" vector-effect="non-scaling-stroke" x="8.106667e+01" y="0"/><rect width="4.266667e+00" height="4.930899e+01" vector-effect="non-scaling-stroke" x="1.024000e+02" y="0"/><rect y="0" width="4.266667e+00" height="5.083908e+01" vector-effect="non-scaling-stroke" x="1.237333e+02"/><rect vector-effect="non-scaling-stroke" x="1.450667e+02" y="0" width="4.266667e+00" height="4.401191e+01"/><rect vector-effect="non-scaling-stroke" x="1.664000e+02" y="0" width="4.266667e+00" height="4.509565e+01"/><rect vector-effect="non-scaling-stroke" x="1.877333e+02" y="0" width="4.266667e+00" height="4.514655e+01"/><rect y="0" width="4.266667e+00" height="4.404310e+01" vector-effect="non-scaling-stroke" x="2.090667e+02"/><rect vector-effect="non-scaling-stroke" x="2.304000e+02" y="0" width="4.266667e+00" height="5.513543e+01"/><rect height="4.672417e+01" vector-effect="non-scaling-stroke" x="2.517333e+02" y="0" width="4.266667e+00"/><rect vector-effect="non-scaling-stroke" x="2.730667e+02" y="0" width="4.266667e+00" height="4.718008e+01"/><rect x="2.944000e+02" y="0" width="4.266667e+00" height="7.911427e+01" vector-effect="non-scaling-stroke"/><rect width="4.266667e+00" height="6.955576e+01" vector-effect="non-scaling-stroke" x="3.157333e+02" y="0"/><rect width="4.266667e+00" height="4.634944e+01" vector-effect="non-scaling-stroke" x="3.370667e+02" y="0"/><rect height="4.992510e+01" vector-effect="non-scaling-stroke" x="3.584000e+02" y="0" width="4.266667e+00"/><rect x="3.797333e+02" y="0" width="4.266667e+00" height="1.392621e+02" vector-effect="non-scaling-stroke"/><rect vector-effect="non-scaling-stroke" x="4.010667e+02" y="0" width="4.266667e+00" height="4.852008e+01"/><rect height="3.406503e+03" vector-effect="non-scaling-stroke" x="4.224000e+02" y="0" width="4.266667e+00"/><rect width="4.266667e+00" height="1.153968e+02" vector-effect="non-scaling-stroke" x="4.437333e+02" y="0"/><rect vector-effect="non-scaling-stroke" x="4.650667e+02" y="0" width="4.266667e+00" height="1.353092e+02"/><rect vector-effect="non-scaling-stroke" x="4.864000e+02" y="0" width="4.266667e+00" height="6.241191e+01"/><rect width="4.266667e+00" height="4.402572e+01" vector-effect="non-scaling-stroke" x="5.077333e+02" y="0"/><rect vector-effect="non-scaling-stroke" x="5.290667e+02" y="0" width="4.266667e+00" height="5.533965e+01"/><rect y="0" width="4.266667e+00" height="5.792864e+01" vector-effect="non-scaling-stroke" x="5.504000e+02"/><rect width="4.266667e+00" height="3.827982e+02" vector-effect="non-scaling-stroke" x="5.717333e+02" y="0"/></g><g fill="hsl(260, 76%, 65%)" stroke="hsl(260, 76%, 65%)" stroke-width="1px" stroke-linecap="round" stroke-linejoin="round" transform="translate(80 520 )scale(1 -1 )"><rect width="4.266667e+00" height="4.400117e+01" vector-effect="non-scaling-stroke" x="6.400000e+01" y="0"/><rect height="4.444288e+01" vector-effect="non-scaling-stroke" x="8.533333e+01" y="0" width="4.266667e+00"/><rect vector-effect="non-scaling-stroke" x="1.066667e+02" y="0" width="4.266667e+00" height="4.737578e+01"/><rect x="1.280000e+02" y="0" width="4.266667e+00" height="4.446431e+01" vector-effect="non-scaling-stroke"/><rect y="0" width="4.266667e+00" height="4.400572e+01" vector-effect="non-scaling-stroke" x="1.493333e+02"/><rect vector-effect="non-scaling-stroke" x="1.706667e+02" y="0" width="4.266667e+00" height="4.938115e+01"/><rect vector-effect="non-scaling-stroke" x="192" y="0" width="4.266667e+00" height="4.447131e+01"/><rect vector-effect="non-scaling-stroke" x="2.133333e+02" y="0" width="4.266667e+00" height="4.404860e+01"/><rect x="2.346667e+02" y="0" width="4.266667e+00" height="4.649721e+01" vector-effect="non-scaling-stroke"/><rect y="0" width="4.266667e+00" height="4.933343e+01" vector-effect="non-scaling-stroke" x="256"/><rect height="4.520609e+01" vector-effect="non-scaling-stroke" x="2.773333e+02" y="0" width="4.266667e+00"/><rect vector-effect="non-scaling-stroke" x="2.986667e+02" y="0" width="4.266667e+00" height="4.677557e+01"/><rect y="0" width="4.266667e+00" height="5.008687e+01" vector-effect="non-scaling-stroke" x="320"/><rect vector-effect="non-scaling-stroke" x="3.413333e+02" y="0" width="4.266667e+00" height="4.603741e+01"/><rect width="4.266667e+00" height="4.618878e+01" vector-effect="non-scaling-stroke" x="3.626667e+02" y="0"/><rect height="1.503521e+02" vector-effect="non-scaling-stroke" x="384" y="0" width="4.266667e+00"/><rect vector-effect="non-scaling-stroke" x="4.053333e+02" y="0" width="4.266667e+00" height="4.489894e+01"/><rect x="4.266667e+02" y="0" width="4.266667e+00" height="1.873231e+02" vector-effect="non-scaling-stroke"/><rect width="4.266667e+00" height="6.252803e+01" vector-effect="non-scaling-stroke" x="448" y="0"/><rect vector-effect="non-scaling-stroke" x="4.693333e+02" y="0" width="4.266667e+00" height="5.288112e+01"/><rect vector-effect="non-scaling-stroke" x="4.906667e+02" y="0" width="4.266667e+00" height="4.803113e+01"/><rect width="4.266667e+00" height="4.405766e+01" vector-effect="non-scaling-stroke" x="512" y="0"/><rect x="5.333333e+02" y="0" width="4.266667e+00" height="4.663368e+01" vector-effect="non-scaling-stroke"/><rect x="5.546667e+02" y="0" width="4.266667e+00" height="9.496575e+01" vector-effect="non-scaling-stroke"/><rect vector-effect="non-scaling-stroke" x="576" y="0" width="4.266667e+00" height="8.138362e+01"/></g><g stroke-linejoin="round" transform="translate(80 520 )scale(1 -1 )" fill="hsl(111, 64%, 65%)" stroke="hsl(111, 64%, 65%)" stroke-width="1px" stroke-linecap="round"><rect vector-effect="non-scaling-stroke" x="6.826667e+01" y="0" width="4.266667e+00" height="4.400276e+01"/><rect vector-effect="non-scaling-stroke" x="8.960000e+01" y="0" width="4.266667e+00" height="4.563749e+01"/><rect x="1.109333e+02" y="0" width="4.266667e+00" height="4.960613e+01" vector-effect="non-scaling-stroke"/><rect vector-effect="non-scaling-stroke" x="1.322667e+02" y="0" width="4.266667e+00" height="5.917362e+01"/><rect width="4.266667e+00" height="4.401540e+01" vector-effect="non-scaling-stroke" x="1.536000e+02" y="0"/><rect width="4.266667e+00" height="6.007912e+01" vector-effect="non-scaling-stroke" x="1.749333e+02" y="0"/><rect height="4.534926e+01" vector-effect="non-scaling-stroke" x="1.962667e+02" y="0" width="4.266667e+00"/><rect y="0" width="4.266667e+00" height="4.400512e+01" vector-effect="non-scaling-stroke" x="2.176000e+02"/><rect y="0" width="4.266667e+00" height="4.642099e+01" vector-effect="non-scaling-stroke" x="2.389333e+02"/><rect width="4.266667e+00" height="4.922211e+01" vector-effect="non-scaling-stroke" x="2.602667e+02" y="0"/><rect height="4.488206e+01" vector-effect="non-scaling-stroke" x="2.816000e+02" y="0" width="4.266667e+00"/><rect vector-effect="non-scaling-stroke" x="3.029333e+02" y="0" width="4.266667e+00" height="1.206155e+02"/><rect vector-effect="non-scaling-stroke" x="3.242667e+02" y="0" width="4.266667e+00" height="4.938564e+01"/><rect y="0" width="4.266667e+00" height="4.540699e+01" vector-effect="non-scaling-stroke" x="3.456000e+02"/><rect vector-effect="non-scaling-stroke" x="3.669333e+02" y="0" width="4.266667e+00" height="4.930682e+01"/><rect height="1.652913e+02" vector-effect="non-scaling-stroke" x="3.882667e+02" y="0" width="4.266667e+00"/><rect x="4.096000e+02" y="0" width="4.266667e+00" height="4.472172e+01" vector-effect="non-scaling-stroke"/><rect x="4.309333e+02" y="0" width="4.266667e+00" height="1.201920e+04" vector-effect="non-scaling-stroke"/><rect vector-effect="non-scaling-stroke" x="4.522667e+02" y="0" width="4.266667e+00" height="6.424692e+01"/><rect width="4.266667e+00" height="1.965136e+02" vector-effect="non-scaling-stroke" x="4.736000e+02" y="0"/><rect x="4.949333e+02" y="0" width="4.266667e+00" height="4.766289e+01" vector-effect="non-scaling-stroke"/><rect y="0" width="4.266667e+00" height="4.400847e+01" vector-effect="non-scaling-stroke" x="5.162667e+02"/><rect y="0" width="4.266667e+00" height="4.675692e+01" vector-effect="non-scaling-stroke" x="5.376000e+02"/><rect width="4.266667e+00" height="5.309008e+01" vector-effect="non-scaling-stroke" x="5.589333e+02" y="0"/><rect height="7.960887e+01" vector-effect="non-scaling-stroke" x="5.802667e+02" y="0" width="4.266667e+00"/></g><g font-style="normal" stroke="hsl(198, 47%, 65%)" font-size="12px" stroke-linejoin="round" font-family="sans-serif" font-weight="normal" text-anchor="start" dominant-baseline="hanging" fill="hsl(198, 47%, 65%)" stroke-linecap="round" stroke-width="1px"><rect y="448" width="12" height="12" vector-effect="non-scaling-stroke" x="736"/><g stroke="black" fill="black"><text stroke="none" vector-effect="non-scaling-stroke" x="752" y="448" dominant-baseline="hanging">C++</text></g><g dominant-baseline="hanging" stroke-linecap="round" stroke-linejoin="round" font-family="sans-serif" font-style="normal" text-anchor="start" fill="hsl(49, 88%, 65%)" stroke="hsl(49, 88%, 65%)" font-size="12px" stroke-width="1px" font-weight="normal"><rect vector-effect="non-scaling-stroke" x="736" y="466" width="12" height="12"/><g fill="black" stroke="black"><text stroke="none" vector-effect="non-scaling-stroke" x="752" y="466" dominant-baseline="hanging">Crystal</text></g><g font-weight="normal" dominant-baseline="hanging" stroke="hsl(260, 76%, 65%)" font-style="normal" stroke-width="1px" stroke-linejoin="round" font-family="sans-serif" text-anchor="start" fill="hsl(260, 76%, 65%)" stroke-linecap="round" font-size="12px"><rect x="736" y="484" width="12" height="12" vector-effect="non-scaling-stroke"/><g stroke="black" fill="black"><text y="484" dominant-baseline="hanging" stroke="none" vector-effect="non-scaling-stroke" x="752">Golang</text></g><g stroke-linejoin="round" font-family="sans-serif" font-style="normal" fill="hsl(111, 64%, 65%)" font-size="12px" stroke-width="1px" text-anchor="start" dominant-baseline="hanging" stroke="hsl(111, 64%, 65%)" stroke-linecap="round" font-weight="normal"><rect x="736" y="502" width="12" height="12" vector-effect="non-scaling-stroke"/><g fill="black" stroke="black"><text stroke="none" vector-effect="non-scaling-stroke" x="752" y="502" dominant-baseline="hanging">Nim</text><g font-family="sans-serif" font-weight="normal" fill="none" font-size="12px" stroke-width="2px" font-style="normal" dominant-baseline="hanging" stroke-linejoin="round" text-anchor="start" stroke-linecap="round"><rect width="640" height="440" vector-effect="non-scaling-stroke" x="80" y="80"/></g><g dominant-baseline="hanging" transform="translate(80 520 )scale(1 -1 )" stroke="black" stroke-width="2px" font-size="12px" font-style="normal" stroke-linecap="round" text-anchor="start" fill="none" font-family="sans-serif" font-weight="normal" stroke-linejoin="round"><path d="M64,0 L64,-6 M8.533333e+01,0 L8.533333e+01,-6 M1.066667e+02,0 L1.066667e+02,-6 M128,0 L128,-6 M1.493333e+02,0 L1.493333e+02,-6 M1.706667e+02,0 L1.706667e+02,-6 M192,0 L192,-6 M2.133333e+02,0 L2.133333e+02,-6 M2.346667e+02,0 L2.346667e+02,-6 M256,0 L256,-6 M2.773333e+02,0 L2.773333e+02,-6 M2.986667e+02,0 L2.986667e+02,-6 M320,0 L320,-6 M3.413333e+02,0 L3.413333e+02,-6 M3.626667e+02,0 L3.626667e+02,-6 M384,0 L384,-6 M4.053333e+02,0 L4.053333e+02,-6 M4.266667e+02,0 L4.266667e+02,-6 M448,0 L448,-6 M4.693333e+02,0 L4.693333e+02,-6 M4.906667e+02,0 L4.906667e+02,-6 M512,0 L512,-6 M5.333333e+02,0 L5.333333e+02,-6 M5.546667e+02,0 L5.546667e+02,-6 M576,0 L576,-6 " vector-effect="non-scaling-stroke"/></g><g fill="black" font-size="12px" font-style="normal" transform="translate(80 520 )scale(1 1 )" font-family="sans-serif" stroke="black" stroke-linecap="round" text-anchor="middle" dominant-baseline="hanging" stroke-width="2px" stroke-linejoin="round" font-weight="normal"><text dominant-baseline="hanging" stroke="none" vector-effect="non-scaling-stroke" x="64" y="10">1</text><text x="8.533333e+01" y="10" dominant-baseline="hanging" stroke="none" vector-effect="non-scaling-stroke">2</text><text stroke="none" vector-effect="non-scaling-stroke" x="1.066667e+02" y="10" dominant-baseline="hanging">3</text><text stroke="none" vector-effect="non-scaling-stroke" x="128" y="10" dominant-baseline="hanging">4</text><text x="1.493333e+02" y="10" dominant-baseline="hanging" stroke="none" vector-effect="non-scaling-stroke">5</text><text vector-effect="non-scaling-stroke" x="1.706667e+02" y="10" dominant-baseline="hanging" stroke="none">6</text><text vector-effect="non-scaling-stroke" x="192" y="10" dominant-baseline="hanging" stroke="none">7</text><text x="2.133333e+02" y="10" dominant-baseline="hanging" stroke="none" vector-effect="non-scaling-stroke">8</text><text y="10" dominant-baseline="hanging" stroke="none" vector-effect="non-scaling-stroke" x="2.346667e+02">9</text><text dominant-baseline="hanging" stroke="none" vector-effect="non-scaling-stroke" x="256" y="10">10</text><text y="10" dominant-baseline="hanging" stroke="none" vector-effect="non-scaling-stroke" x="2.773333e+02">11</text><text x="2.986667e+02" y="10" dominant-baseline="hanging" stroke="none" vector-effect="non-scaling-stroke">12</text><text dominant-baseline="hanging" stroke="none" vector-effect="non-scaling-stroke" x="320" y="10">13</text><text stroke="none" vector-effect="non-scaling-stroke" x="3.413333e+02" y="10" dominant-baseline="hanging">14</text><text vector-effect="non-scaling-stroke" x="3.626667e+02" y="10" dominant-baseline="hanging" stroke="none">15</text><text vector-effect="non-scaling-stroke" x="384" y="10" dominant-baseline="hanging" stroke="none">16</text><text y="10" dominant-baseline="hanging" stroke="none" vector-effect="non-scaling-stroke" x="4.053333e+02">17</text><text dominant-baseline="hanging" stroke="none" vector-effect="non-scaling-stroke" x="4.266667e+02" y="10">18</text><text dominant-baseline="hanging" stroke="none" vector-effect="non-scaling-stroke" x="448" y="10">19</text><text x="4.693333e+02" y="10" dominant-baseline="hanging" stroke="none" vector-effect="non-scaling-stroke">20</text><text vector-effect="non-scaling-stroke" x="4.906667e+02" y="10" dominant-baseline="hanging" stroke="none">21</text><text dominant-baseline="hanging" stroke="none" vector-effect="non-scaling-stroke" x="512" y="10">22</text><text vector-effect="non-scaling-stroke" x="5.333333e+02" y="10" dominant-baseline="hanging" stroke="none">23</text><text stroke="none" vector-effect="non-scaling-stroke" x="5.546667e+02" y="10" dominant-baseline="hanging">24</text><text y="10" dominant-baseline="hanging" stroke="none" vector-effect="non-scaling-stroke" x="576">25</text></g><g stroke-width="2px" stroke-linejoin="round" fill="black" font-size="12px" dominant-baseline="baseline" transform="translate(80 520 )scale(1 1 )rotate(0 0 0 )" stroke="black" stroke-linecap="round" font-family="sans-serif" font-weight="bold" font-style="normal" text-anchor="middle"><text y="-6" dominant-baseline="baseline" stroke="none" vector-effect="non-scaling-stroke" x="320">Day</text></g><g stroke-width="2px" font-family="sans-serif" font-weight="bold" stroke-linecap="round" font-style="normal" font-size="12px" text-anchor="middle" dominant-baseline="baseline" transform="translate(80 520 )scale(1 -1 )" stroke-linejoin="round" fill="black" stroke="black"><path vector-effect="non-scaling-stroke" d="M0,44 L-6,44 M0,7.920000e+01 L-6,7.920000e+01 M0,1.144000e+02 L-6,1.144000e+02 M0,1.496000e+02 L-6,1.496000e+02 M0,1.848000e+02 L-6,1.848000e+02 M0,220 L-6,220 M0,2.552000e+02 L-6,2.552000e+02 M0,2.904000e+02 L-6,2.904000e+02 M0,3.256000e+02 L-6,3.256000e+02 M0,3.608000e+02 L-6,3.608000e+02 M0,396 L-6,396 "/></g><g font-size="12px" font-style="normal" transform="translate(80 520 )scale(1 1 )" stroke-linejoin="round" stroke-width="2px" stroke="black" stroke-linecap="round" fill="black" font-family="sans-serif" font-weight="normal" text-anchor="end" dominant-baseline="middle"><text x="-10" y="-44" dominant-baseline="middle" stroke="none" vector-effect="non-scaling-stroke">0s</text><text dominant-baseline="middle" stroke="none" vector-effect="non-scaling-stroke" x="-10" y="-7.920000e+01">200ms</text><text x="-10" y="-1.144000e+02" dominant-baseline="middle" stroke="none" vector-effect="non-scaling-stroke">400ms</text><text x="-10" y="-1.496000e+02" dominant-baseline="middle" stroke="none" vector-effect="non-scaling-stroke">600ms</text><text dominant-baseline="middle" stroke="none" vector-effect="non-scaling-stroke" x="-10" y="-1.848000e+02">800ms</text><text y="-220" dominant-baseline="middle" stroke="none" vector-effect="non-scaling-stroke" x="-10">1s</text><text dominant-baseline="middle" stroke="none" vector-effect="non-scaling-stroke" x="-10" y="-2.552000e+02">1.2s</text><text stroke="none" vector-effect="non-scaling-stroke" x="-10" y="-2.904000e+02" dominant-baseline="middle">1.4s</text><text stroke="none" vector-effect="non-scaling-stroke" x="-10" y="-3.256000e+02" dominant-baseline="middle">1.6s</text><text stroke="none" vector-effect="non-scaling-stroke" x="-10" y="-3.608000e+02" dominant-baseline="middle">1.8s</text><text y="-396" dominant-baseline="middle" stroke="none" vector-effect="non-scaling-stroke" x="-10">2s</text></g><g transform="translate(80 520 )scale(1 1 )rotate(-90 0 0 )" fill="black" font-family="sans-serif" font-weight="bold" stroke="black" stroke-linecap="round" text-anchor="middle" dominant-baseline="hanging" font-size="12px" font-style="normal" stroke-linejoin="round" stroke-width="2px"><text dominant-baseline="hanging" stroke="none" vector-effect="non-scaling-stroke" x="220" y="6">Runtime</text></g></g></g></g></g></g></svg>