<svg preserveAspectRatio="xMidYMid meet" xmlns="http://www.w3.org/2000/svg" width="800" height="600" viewbox="0 0 800 600"><defs><marker id="circle" viewBox="0 0 10 10 " refX="5" refY="5" markerUnits="userSpaceOnUse" markerWidth="2%" markerHeight="2%"><circle cy="5" r="3" fill="none" stroke="black" cx="5"/></marker><marker markerUnits="userSpaceOnUse" markerWidth="2%" markerHeight="2%" id="filled-circle" viewBox="0 0 10 10 " refX="5" refY="5"><circle fill="black" stroke="none" cx="5" cy="5" r="3"/></marker><marker markerHeight="2%" id="square" viewBox="0 0 10 10 " refX="5" refY="5" markerUnits="userSpaceOnUse" markerWidth="2%"><rect x="2" y="2" width="6" height="6" fill="none" stroke="black"/></marker><marker refX="5" refY="5" markerUnits="userSpaceOnUse" markerWidth="2%" markerHeight="2%" id="filled-square" viewBox="0 0 10 10 "><rect stroke="none" x="2" y="2" width="6" height="6" fill="black"/></marker></defs><g stroke-linecap="round" stroke-linejoin="round" transform="translate(80 520 )scale(1 -1 )" fill="hsl(198, 47%, 65%)" stroke="hsl(198, 47%, 65%)" stroke-width="1px"><rect vector-effect="non-scaling-stroke" x="5.546667e+01" y="0" width="1.706667e+01" height="4.759863e+01"/><rect y="0" width="1.706667e+01" height="4.575457e+01" vector-effect="non-scaling-stroke" x="7.680000e+01"/><rect y="0" width="1.706667e+01" height="8.022625e+01" vector-effect="non-scaling-stroke" x="9.813333e+01"/><rect vector-effect="non-scaling-stroke" x="1.194667e+02" y="0" width="1.706667e+01" height="4.511508e+01"/><rect height="1.451924e+02" vector-effect="non-scaling-stroke" x="1.408000e+02" y="0" width="1.706667e+01"/><rect x="1.621333e+02" y="0" width="1.706667e+01" height="5.413956e+01" vector-effect="non-scaling-stroke"/><rect height="4.405138e+01" vector-effect="non-scaling-stroke" x="1.834667e+02" y="0" width="1.706667e+01"/><rect vector-effect="non-scaling-stroke" x="2.048000e+02" y="0" width="1.706667e+01" height="8.375902e+01"/><rect x="2.261333e+02" y="0" width="1.706667e+01" height="1.191800e+02" vector-effect="non-scaling-stroke"/><rect vector-effect="non-scaling-stroke" x="2.474667e+02" y="0" width="1.706667e+01" height="4.423569e+01"/><rect vector-effect="non-scaling-stroke" x="2.688000e+02" y="0" width="1.706667e+01" height="5.659748e+01"/><rect width="1.706667e+01" height="4.428002e+01" vector-effect="non-scaling-stroke" x="2.901333e+02" y="0"/><rect vector-effect="non-scaling-stroke" x="3.114667e+02" y="0" width="1.706667e+01" height="4.476245e+01"/><rect width="1.706667e+01" height="1.307532e+02" vector-effect="non-scaling-stroke" x="3.328000e+02" y="0"/><rect height="1.562821e+02" vector-effect="non-scaling-stroke" x="3.541333e+02" y="0" width="1.706667e+01"/><rect y="0" width="1.706667e+01" height="4.645535e+01" vector-effect="non-scaling-stroke" x="3.754667e+02"/><rect y="0" width="1.706667e+01" height="5.806450e+01" vector-effect="non-scaling-stroke" x="3.968000e+02"/><rect vector-effect="non-scaling-stroke" x="4.181333e+02" y="0" width="1.706667e+01" height="6.487297e+01"/><rect height="8.787105e+01" vector-effect="non-scaling-stroke" x="4.394667e+02" y="0" width="1.706667e+01"/><rect height="4.847194e+01" vector-effect="non-scaling-stroke" x="4.608000e+02" y="0" width="1.706667e+01"/><rect vector-effect="non-scaling-stroke" x="4.821333e+02" y="0" width="1.706667e+01" height="1.541603e+02"/><rect vector-effect="non-scaling-stroke" x="5.034667e+02" y="0" width="1.706667e+01" height="1.200510e+03"/><rect y="0" width="1.706667e+01" height="1.019361e+02" vector-effect="non-scaling-stroke" x="5.248000e+02"/><rect height="7.176401e+01" vector-effect="non-scaling-stroke" x="5.461333e+02" y="0" width="1.706667e+01"/><rect height="4.668739e+01" vector-effect="non-scaling-stroke" x="5.674667e+02" y="0" width="1.706667e+01"/></g><g text-anchor="start" font-size="12px" font-style="normal" stroke="hsl(198, 47%, 65%)" stroke-width="1px" stroke-linejoin="round" dominant-baseline="hanging" fill="hsl(198, 47%, 65%)" font-family="sans-serif" font-weight="normal" stroke-linecap="round"><rect x="736" y="502" width="12" height="12" vector-effect="non-scaling-stroke"/><g fill="black" stroke="black"><text stroke="none" vector-effect="non-scaling-stroke" x="752" y="502" dominant-baseline="hanging">Golang</text><g font-family="sans-serif" text-anchor="start" stroke-linecap="round" dominant-baseline="hanging" font-size="12px" fill="none" stroke-width="2px" stroke-linejoin="round" font-weight="normal" font-style="normal"><rect x="80" y="80" width="640" height="440" vector-effect="non-scaling-stroke"/></g><g font-family="sans-serif" font-style="normal" text-anchor="start" dominant-baseline="hanging" fill="none" stroke-linecap="round" stroke-linejoin="round" font-size="12px" font-weight="normal" transform="translate(80 520 )scale(1 -1 )" stroke-width="2px" stroke="black"><path vector-effect="non-scaling-stroke" d="M64,0 L64,-6 M8.533333e+01,0 L8.533333e+01,-6 M1.066667e+02,0 L1.066667e+02,-6 M128,0 L128,-6 M1.493333e+02,0 L1.493333e+02,-6 M1.706667e+02,0 L1.706667e+02,-6 M192,0 L192,-6 M2.133333e+02,0 L2.133333e+02,-6 M2.346667e+02,0 L2.346667e+02,-6 M256,0 L256,-6 M2.773333e+02,0 L2.773333e+02,-6 M2.986667e+02,0 L2.986667e+02,-6 M320,0 L320,-6 M3.413333e+02,0 L3.413333e+02,-6 M3.626667e+02,0 L3.626667e+02,-6 M384,0 L384,-6 M4.053333e+02,0 L4.053333e+02,-6 M4.266667e+02,0 L4.266667e+02,-6 M448,0 L448,-6 M4.693333e+02,0 L4.693333e+02,-6 M4.906667e+02,0 L4.906667e+02,-6 M512,0 L512,-6 M5.333333e+02,0 L5.333333e+02,-6 M5.546667e+02,0 L5.546667e+02,-6 M576,0 L576,-6 "/></g><g dominant-baseline="hanging" fill="black" font-family="sans-serif" font-style="normal" stroke-linecap="round" stroke-linejoin="round" font-weight="normal" text-anchor="middle" transform="translate(80 520 )scale(1 1 )" font-size="12px" stroke="black" stroke-width="2px"><text stroke="none" vector-effect="non-scaling-stroke" x="64" y="10" dominant-baseline="hanging">1</text><text stroke="none" vector-effect="non-scaling-stroke" x="8.533333e+01" y="10" dominant-baseline="hanging">2</text><text stroke="none" vector-effect="non-scaling-stroke" x="1.066667e+02" y="10" dominant-baseline="hanging">3</text><text vector-effect="non-scaling-stroke" x="128" y="10" dominant-baseline="hanging" stroke="none">4</text><text vector-effect="non-scaling-stroke" x="1.493333e+02" y="10" dominant-baseline="hanging" stroke="none">5</text><text dominant-baseline="hanging" stroke="none" vector-effect="non-scaling-stroke" x="1.706667e+02" y="10">6</text><text vector-effect="non-scaling-stroke" x="192" y="10" dominant-baseline="hanging" stroke="none">7</text><text dominant-baseline="hanging" stroke="none" vector-effect="non-scaling-stroke" x="2.133333e+02" y="10">8</text><text y="10" dominant-baseline="hanging" stroke="none" vector-effect="non-scaling-stroke" x="2.346667e+02">9</text><text x="256" y="10" dominant-baseline="hanging" stroke="none" vector-effect="non-scaling-stroke">10</text><text dominant-baseline="hanging" stroke="none" vector-effect="non-scaling-stroke" x="2.773333e+02" y="10">11</text><text vector-effect="non-scaling-stroke" x="2.986667e+02" y="10" dominant-baseline="hanging" stroke="none">12</text><text vector-effect="non-scaling-stroke" x="320" y="10" dominant-baseline="hanging" stroke="none">13</text><text vector-effect="non-scaling-stroke" x="3.413333e+02" y="10" dominant-baseline="hanging" stroke="none">14</text><text vector-effect="non-scaling-stroke" x="3.626667e+02" y="10" dominant-baseline="hanging" stroke="none">15</text><text stroke="none" vector-effect="non-scaling-stroke" x="384" y="10" dominant-baseline="hanging">16</text><text vector-effect="non-scaling-stroke" x="4.053333e+02" y="10" dominant-baseline="hanging" stroke="none">17</text><text stroke="none" vector-effect="non-scaling-stroke" x="4.266667e+02" y="10" dominant-baseline="hanging">18</text><text y="10" dominant-baseline="hanging" stroke="none" vector-effect="non-scaling-stroke" x="448">19</text><text x="4.693333e+02" y="10" dominant-baseline="hanging" stroke="none" vector-effect="non-scaling-stroke">20</text><text x="4.906667e+02" y="10" dominant-baseline="hanging" stroke="none" vector-effect="non-scaling-stroke">21</text><text x="512" y="10" dominant-baseline="hanging" stroke="none" vector-effect="non-scaling-stroke">22</text><text vector-effect="non-scaling-stroke" x="5.333333e+02" y="10" dominant-baseline="hanging" stroke="none">23</text><text y="10" dominant-baseline="hanging" stroke="none" vector-effect="non-scaling-stroke" x="5.546667e+02">24</text><text x="576" y="10" dominant-baseline="hanging" stroke="none" vector-effect="non-scaling-stroke">25</text></g><g stroke="black" stroke-width="2px" font-family="sans-serif" font-size="12px" transform="translate(80 520 )scale(1 1 )rotate(0 0 0 )" text-anchor="middle" dominant-baseline="baseline" stroke-linecap="round" stroke-linejoin="round" fill="black" font-style="normal" font-weight="bold"><text vector-effect="non-scaling-stroke" x="320" y="-6" dominant-baseline="baseline" stroke="none">Day</text></g><g stroke="black" stroke-linecap="round" stroke-linejoin="round" fill="black" font-weight="bold" dominant-baseline="baseline" font-style="normal" text-anchor="middle" stroke-width="2px" transform="translate(80 520 )scale(1 -1 )" font-family="sans-serif" font-size="12px"><path vector-effect="non-scaling-stroke" d="M0,44 L-6,44 M0,7.920000e+01 L-6,7.920000e+01 M0,1.144000e+02 L-6,1.144000e+02 M0,1.496000e+02 L-6,1.496000e+02 M0,1.848000e+02 L-6,1.848000e+02 M0,220 L-6,220 M0,2.552000e+02 L-6,2.552000e+02 M0,2.904000e+02 L-6,2.904000e+02 M0,3.256000e+02 L-6,3.256000e+02 M0,3.608000e+02 L-6,3.608000e+02 M0,396 L-6,396 "/></g><g font-size="12px" stroke="black" stroke-width="2px" stroke-linejoin="round" transform="translate(80 520 )scale(1 1 )" fill="black" font-family="sans-serif" font-weight="normal" stroke-linecap="round" text-anchor="end" dominant-baseline="middle" font-style="normal"><text vector-effect="non-scaling-stroke" x="-10" y="-44" dominant-baseline="middle" stroke="none">0s</text><text stroke="none" vector-effect="non-scaling-stroke" x="-10" y="-7.920000e+01" dominant-baseline="middle">200ms</text><text stroke="none" vector-effect="non-scaling-stroke" x="-10" y="-1.144000e+02" dominant-baseline="middle">400ms</text><text vector-effect="non-scaling-stroke" x="-10" y="-1.496000e+02" dominant-baseline="middle" stroke="none">600ms</text><text x="-10" y="-1.848000e+02" dominant-baseline="middle" stroke="none" vector-effect="non-scaling-stroke">800ms</text><text vector-effect="non-scaling-stroke" x="-10" y="-220" dominant-baseline="middle" stroke="none">1s</text><text stroke="none" vector-effect="non-scaling-stroke" x="-10" y="-2.552000e+02" dominant-baseline="middle">1.2s</text><text x="-10" y="-2.904000e+02" dominant-baseline="middle" stroke="none" vector-effect="non-scaling-stroke">1.4s</text><text stroke="none" vector-effect="non-scaling-stroke" x="-10" y="-3.256000e+02" dominant-baseline="middle">1.6s</text><text stroke="none" vector-effect="non-scaling-stroke" x="-10" y="-3.608000e+02" dominant-baseline="middle">1.8s</text><text vector-effect="non-scaling-stroke" x="-10" y="-396" dominant-baseline="middle" stroke="none">2s</text></g><g transform="translate(80 520 )scale(1 1 )rotate(-90 0 0 )" font-family="sans-serif" font-size="12px" stroke="black" stroke-linecap="round" stroke-linejoin="round" text-anchor="middle" dominant-baseline="hanging" fill="black" font-style="normal" stroke-width="2px" font-weight="bold"><text stroke="none" vector-effect="non-scaling-stroke" x="220" y="6" dominant-baseline="hanging">Runtime</text></g></g></g></svg>