<svg preserveAspectRatio="xMidYMid meet" xmlns="http://www.w3.org/2000/svg" width="800" height="600" viewbox="0 0 800 600"><defs><marker markerUnits="userSpaceOnUse" markerWidth="2%" markerHeight="2%" id="circle" viewBox="0 0 10 10 " refX="5" refY="5"><circle stroke="black" cx="5" cy="5" r="3" fill="none"/></marker><marker id="filled-circle" viewBox="0 0 10 10 " refX="5" refY="5" markerUnits="userSpaceOnUse" markerWidth="2%" markerHeight="2%"><circle cx="5" cy="5" r="3" fill="black" stroke="none"/></marker><marker refX="5" refY="5" markerUnits="userSpaceOnUse" markerWidth="2%" markerHeight="2%" id="square" viewBox="0 0 10 10 "><rect y="2" width="6" height="6" fill="none" stroke="black" x="2"/></marker><marker markerUnits="userSpaceOnUse" markerWidth="2%" markerHeight="2%" id="filled-square" viewBox="0 0 10 10 " refX="5" refY="5"><rect height="6" fill="black" stroke="none" x="2" y="2" width="6"/></marker></defs><g transform="translate(80 520 )scale(1 -1 )" fill="hsl(198, 47%, 65%)" stroke="hsl(198, 47%, 65%)" stroke-width="1px" stroke-linecap="round" stroke-linejoin="round"><rect vector-effect="non-scaling-stroke" x="5.546667e+01" y="0" width="8.533333e+00" height="4.402957e+01"/><rect vector-effect="non-scaling-stroke" x="7.680000e+01" y="0" width="8.533333e+00" height="4.400140e+01"/><rect vector-effect="non-scaling-stroke" x="9.813333e+01" y="0" width="8.533333e+00" height="4.401096e+01"/><rect vector-effect="non-scaling-stroke" x="1.194667e+02" y="0" width="8.533333e+00" height="4.431275e+01"/><rect height="7.133341e+02" vector-effect="non-scaling-stroke" x="1.408000e+02" y="0" width="8.533333e+00"/><rect width="8.533333e+00" height="4.402000e+01" vector-effect="non-scaling-stroke" x="1.621333e+02" y="0"/><rect x="1.834667e+02" y="0" width="8.533333e+00" height="4.418837e+01" vector-effect="non-scaling-stroke"/><rect vector-effect="non-scaling-stroke" x="2.048000e+02" y="0" width="8.533333e+00" height="4.400065e+01"/><rect width="8.533333e+00" height="4.400173e+01" vector-effect="non-scaling-stroke" x="2.261333e+02" y="0"/><rect y="0" width="8.533333e+00" height="4.542853e+01" vector-effect="non-scaling-stroke" x="2.474667e+02"/><rect height="4.833755e+01" vector-effect="non-scaling-stroke" x="2.688000e+02" y="0" width="8.533333e+00"/><rect vector-effect="non-scaling-stroke" x="2.901333e+02" y="0" width="8.533333e+00" height="4.400083e+01"/><rect height="4.402367e+01" vector-effect="non-scaling-stroke" x="3.114667e+02" y="0" width="8.533333e+00"/><rect y="0" width="8.533333e+00" height="1.657137e+03" vector-effect="non-scaling-stroke" x="3.328000e+02"/><rect width="8.533333e+00" height="4.720032e+01" vector-effect="non-scaling-stroke" x="3.541333e+02" y="0"/><rect x="3.754667e+02" y="0" width="8.533333e+00" height="6.410765e+01" vector-effect="non-scaling-stroke"/><rect y="0" width="8.533333e+00" height="6.006799e+01" vector-effect="non-scaling-stroke" x="3.968000e+02"/><rect vector-effect="non-scaling-stroke" x="4.181333e+02" y="0" width="8.533333e+00" height="7.514564e+01"/><rect vector-effect="non-scaling-stroke" x="4.394667e+02" y="0" width="8.533333e+00" height="8.816171e+01"/><rect height="4.404857e+01" vector-effect="non-scaling-stroke" x="4.608000e+02" y="0" width="8.533333e+00"/><rect height="6.777525e+01" vector-effect="non-scaling-stroke" x="4.821333e+02" y="0" width="8.533333e+00"/><rect y="0" width="8.533333e+00" height="4.696701e+01" vector-effect="non-scaling-stroke" x="5.034667e+02"/><rect height="4.400226e+01" vector-effect="non-scaling-stroke" x="5.248000e+02" y="0" width="8.533333e+00"/><rect height="5.583318e+01" vector-effect="non-scaling-stroke" x="5.461333e+02" y="0" width="8.533333e+00"/><rect height="5.449669e+01" vector-effect="non-scaling-stroke" x="5.674667e+02" y="0" width="8.533333e+00"/></g><g fill="hsl(49, 88%, 65%)" stroke="hsl(49, 88%, 65%)" stroke-width="1px" stroke-linecap="round" stroke-linejoin="round" transform="translate(80 520 )scale(1 -1 )"><rect vector-effect="non-scaling-stroke" x="64" y="0" width="8.533333e+00" height="4.400727e+01"/><rect x="8.533333e+01" y="0" width="8.533333e+00" height="4.401358e+01" vector-effect="non-scaling-stroke"/><rect height="4.404430e+01" vector-effect="non-scaling-stroke" x="1.066667e+02" y="0" width="8.533333e+00"/><rect y="0" width="8.533333e+00" height="4.428521e+01" vector-effect="non-scaling-stroke" x="128"/><rect height="1.043582e+03" vector-effect="non-scaling-stroke" x="1.493333e+02" y="0" width="8.533333e+00"/><rect height="4.412638e+01" vector-effect="non-scaling-stroke" x="1.706667e+02" y="0" width="8.533333e+00"/><rect vector-effect="non-scaling-stroke" x="192" y="0" width="8.533333e+00" height="4.440082e+01"/><rect width="8.533333e+00" height="4.400199e+01" vector-effect="non-scaling-stroke" x="2.133333e+02" y="0"/><rect x="2.346667e+02" y="0" width="8.533333e+00" height="4.402681e+01" vector-effect="non-scaling-stroke"/><rect vector-effect="non-scaling-stroke" x="2.560000e+02" y="0" width="8.533333e+00" height="4.402308e+01"/><rect height="2.872063e+02" vector-effect="non-scaling-stroke" x="2.773333e+02" y="0" width="8.533333e+00"/><rect vector-effect="non-scaling-stroke" x="2.986667e+02" y="0" width="8.533333e+00" height="4.400034e+01"/><rect x="320" y="0" width="8.533333e+00" height="4.401870e+01" vector-effect="non-scaling-stroke"/><rect width="8.533333e+00" height="9.870480e+02" vector-effect="non-scaling-stroke" x="3.413333e+02" y="0"/><rect vector-effect="non-scaling-stroke" x="3.626667e+02" y="0" width="8.533333e+00" height="4.474816e+01"/><rect height="5.425139e+01" vector-effect="non-scaling-stroke" x="384" y="0" width="8.533333e+00"/><rect vector-effect="non-scaling-stroke" x="4.053333e+02" y="0" width="8.533333e+00" height="4.885725e+01"/><rect vector-effect="non-scaling-stroke" x="4.266667e+02" y="0" width="8.533333e+00" height="1.011727e+02"/><rect y="0" width="8.533333e+00" height="4.400001e+01" vector-effect="non-scaling-stroke" x="448"/><rect y="0" width="8.533333e+00" height="4.401476e+01" vector-effect="non-scaling-stroke" x="4.693333e+02"/><rect x="4.906667e+02" y="0" width="8.533333e+00" height="4.952401e+01" vector-effect="non-scaling-stroke"/><rect height="4.582489e+01" vector-effect="non-scaling-stroke" x="512" y="0" width="8.533333e+00"/><rect vector-effect="non-scaling-stroke" x="5.333333e+02" y="0" width="8.533333e+00" height="4.400071e+01"/><rect vector-effect="non-scaling-stroke" x="5.546667e+02" y="0" width="8.533333e+00" height="4.475111e+01"/><rect width="8.533333e+00" height="4.540892e+01" vector-effect="non-scaling-stroke" x="576" y="0"/></g><g stroke-linecap="round" stroke-linejoin="round" dominant-baseline="hanging" stroke="hsl(198, 47%, 65%)" font-family="sans-serif" font-size="12px" font-style="normal" text-anchor="start" font-weight="normal" fill="hsl(198, 47%, 65%)" stroke-width="1px"><rect width="12" height="12" vector-effect="non-scaling-stroke" x="736" y="484"/><g stroke="black" fill="black"><text stroke="none" vector-effect="non-scaling-stroke" x="752" y="484" dominant-baseline="hanging">Golang</text></g><g dominant-baseline="hanging" stroke-linecap="round" stroke-linejoin="round" font-size="12px" stroke="hsl(49, 88%, 65%)" stroke-width="1px" font-weight="normal" fill="hsl(49, 88%, 65%)" font-family="sans-serif" font-style="normal" text-anchor="start"><rect y="502" width="12" height="12" vector-effect="non-scaling-stroke" x="736"/><g stroke="black" fill="black"><text vector-effect="non-scaling-stroke" x="752" y="502" dominant-baseline="hanging" stroke="none">Rust</text><g stroke-linejoin="round" text-anchor="start" fill="none" dominant-baseline="hanging" font-size="12px" font-family="sans-serif" stroke-width="2px" font-weight="normal" stroke-linecap="round" font-style="normal"><rect vector-effect="non-scaling-stroke" x="80" y="80" width="640" height="440"/></g><g stroke-linecap="round" stroke-linejoin="round" font-family="sans-serif" font-size="12px" stroke="black" dominant-baseline="hanging" transform="translate(80 520 )scale(1 -1 )" fill="none" font-style="normal" stroke-width="2px" font-weight="normal" text-anchor="start"><path vector-effect="non-scaling-stroke" d="M64,0 L64,-6 M8.533333e+01,0 L8.533333e+01,-6 M1.066667e+02,0 L1.066667e+02,-6 M128,0 L128,-6 M1.493333e+02,0 L1.493333e+02,-6 M1.706667e+02,0 L1.706667e+02,-6 M192,0 L192,-6 M2.133333e+02,0 L2.133333e+02,-6 M2.346667e+02,0 L2.346667e+02,-6 M256,0 L256,-6 M2.773333e+02,0 L2.773333e+02,-6 M2.986667e+02,0 L2.986667e+02,-6 M320,0 L320,-6 M3.413333e+02,0 L3.413333e+02,-6 M3.626667e+02,0 L3.626667e+02,-6 M384,0 L384,-6 M4.053333e+02,0 L4.053333e+02,-6 M4.266667e+02,0 L4.266667e+02,-6 M448,0 L448,-6 M4.693333e+02,0 L4.693333e+02,-6 M4.906667e+02,0 L4.906667e+02,-6 M512,0 L512,-6 M5.333333e+02,0 L5.333333e+02,-6 M5.546667e+02,0 L5.546667e+02,-6 M576,0 L576,-6 "/></g><g stroke="black" stroke-width="2px" font-weight="normal" font-family="sans-serif" font-size="12px" font-style="normal" fill="black" stroke-linejoin="round" text-anchor="middle" stroke-linecap="round" dominant-baseline="hanging" transform="translate(80 520 )scale(1 1 )"><text dominant-baseline="hanging" stroke="none" vector-effect="non-scaling-stroke" x="64" y="10">1</text><text dominant-baseline="hanging" stroke="none" vector-effect="non-scaling-stroke" x="8.533333e+01" y="10">2</text><text vector-effect="non-scaling-stroke" x="1.066667e+02" y="10" dominant-baseline="hanging" stroke="none">3</text><text stroke="none" vector-effect="non-scaling-stroke" x="128" y="10" dominant-baseline="hanging">4</text><text vector-effect="non-scaling-stroke" x="1.493333e+02" y="10" dominant-baseline="hanging" stroke="none">5</text><text stroke="none" vector-effect="non-scaling-stroke" x="1.706667e+02" y="10" dominant-baseline="hanging">6</text><text dominant-baseline="hanging" stroke="none" vector-effect="non-scaling-stroke" x="192" y="10">7</text><text stroke="none" vector-effect="non-scaling-stroke" x="2.133333e+02" y="10" dominant-baseline="hanging">8</text><text vector-effect="non-scaling-stroke" x="2.346667e+02" y="10" dominant-baseline="hanging" stroke="none">9</text><text y="10" dominant-baseline="hanging" stroke="none" vector-effect="non-scaling-stroke" x="256">10</text><text y="10" dominant-baseline="hanging" stroke="none" vector-effect="non-scaling-stroke" x="2.773333e+02">11</text><text vector-effect="non-scaling-stroke" x="2.986667e+02" y="10" dominant-baseline="hanging" stroke="none">12</text><text dominant-baseline="hanging" stroke="none" vector-effect="non-scaling-stroke" x="320" y="10">13</text><text vector-effect="non-scaling-stroke" x="3.413333e+02" y="10" dominant-baseline="hanging" stroke="none">14</text><text stroke="none" vector-effect="non-scaling-stroke" x="3.626667e+02" y="10" dominant-baseline="hanging">15</text><text dominant-baseline="hanging" stroke="none" vector-effect="non-scaling-stroke" x="384" y="10">16</text><text vector-effect="non-scaling-stroke" x="4.053333e+02" y="10" dominant-baseline="hanging" stroke="none">17</text><text y="10" dominant-baseline="hanging" stroke="none" vector-effect="non-scaling-stroke" x="4.266667e+02">18</text><text x="448" y="10" dominant-baseline="hanging" stroke="none" vector-effect="non-scaling-stroke">19</text><text dominant-baseline="hanging" stroke="none" vector-effect="non-scaling-stroke" x="4.693333e+02" y="10">20</text><text x="4.906667e+02" y="10" dominant-baseline="hanging" stroke="none" vector-effect="non-scaling-stroke">21</text><text stroke="none" vector-effect="non-scaling-stroke" x="512" y="10" dominant-baseline="hanging">22</text><text vector-effect="non-scaling-stroke" x="5.333333e+02" y="10" dominant-baseline="hanging" stroke="none">23</text><text x="5.546667e+02" y="10" dominant-baseline="hanging" stroke="none" vector-effect="non-scaling-stroke">24</text><text dominant-baseline="hanging" stroke="none" vector-effect="non-scaling-stroke" x="576" y="10">25</text></g><g font-size="12px" text-anchor="middle" fill="black" stroke-linejoin="round" font-family="sans-serif" stroke="black" stroke-width="2px" font-weight="bold" dominant-baseline="baseline" font-style="normal" stroke-linecap="round" transform="translate(80 520 )scale(1 1 )rotate(0 0 0 )"><text vector-effect="non-scaling-stroke" x="320" y="-6" dominant-baseline="baseline" stroke="none">Day</text></g><g stroke-width="2px" transform="translate(80 520 )scale(1 -1 )" fill="black" text-anchor="middle" stroke="black" font-size="12px" font-style="normal" font-weight="bold" dominant-baseline="baseline" stroke-linecap="round" stroke-linejoin="round" font-family="sans-serif"><path vector-effect="non-scaling-stroke" d="M0,44 L-6,44 M0,7.920000e+01 L-6,7.920000e+01 M0,1.144000e+02 L-6,1.144000e+02 M0,1.496000e+02 L-6,1.496000e+02 M0,1.848000e+02 L-6,1.848000e+02 M0,220 L-6,220 M0,2.552000e+02 L-6,2.552000e+02 M0,2.904000e+02 L-6,2.904000e+02 M0,3.256000e+02 L-6,3.256000e+02 M0,3.608000e+02 L-6,3.608000e+02 M0,396 L-6,396 "/></g><g stroke="black" stroke-width="2px" font-size="12px" font-style="normal" fill="black" stroke-linecap="round" transform="translate(80 520 )scale(1 1 )" font-weight="normal" dominant-baseline="middle" text-anchor="end" stroke-linejoin="round" font-family="sans-serif"><text stroke="none" vector-effect="non-scaling-stroke" x="-10" y="-44" dominant-baseline="middle">0s</text><text x="-10" y="-7.920000e+01" dominant-baseline="middle" stroke="none" vector-effect="non-scaling-stroke">200ms</text><text y="-1.144000e+02" dominant-baseline="middle" stroke="none" vector-effect="non-scaling-stroke" x="-10">400ms</text><text stroke="none" vector-effect="non-scaling-stroke" x="-10" y="-1.496000e+02" dominant-baseline="middle">600ms</text><text stroke="none" vector-effect="non-scaling-stroke" x="-10" y="-1.848000e+02" dominant-baseline="middle">800ms</text><text stroke="none" vector-effect="non-scaling-stroke" x="-10" y="-220" dominant-baseline="middle">1s</text><text stroke="none" vector-effect="non-scaling-stroke" x="-10" y="-2.552000e+02" dominant-baseline="middle">1.2s</text><text stroke="none" vector-effect="non-scaling-stroke" x="-10" y="-2.904000e+02" dominant-baseline="middle">1.4s</text><text x="-10" y="-3.256000e+02" dominant-baseline="middle" stroke="none" vector-effect="non-scaling-stroke">1.6s</text><text x="-10" y="-3.608000e+02" dominant-baseline="middle" stroke="none" vector-effect="non-scaling-stroke">1.8s</text><text stroke="none" vector-effect="non-scaling-stroke" x="-10" y="-396" dominant-baseline="middle">2s</text></g><g font-style="normal" text-anchor="middle" stroke="black" stroke-width="2px" font-weight="bold" dominant-baseline="hanging" fill="black" font-size="12px" transform="translate(80 520 )scale(1 1 )rotate(-90 0 0 )" stroke-linecap="round" stroke-linejoin="round" font-family="sans-serif"><text stroke="none" vector-effect="non-scaling-stroke" x="220" y="6" dominant-baseline="hanging">Runtime</text></g></g></g></g></svg>