<svg width="800" height="600" viewbox="0 0 800 600" preserveAspectRatio="xMidYMid meet" xmlns="http://www.w3.org/2000/svg"><defs><marker markerWidth="2%" markerHeight="2%" id="circle" viewBox="0 0 10 10 " refX="5" refY="5" markerUnits="userSpaceOnUse"><circle cy="5" r="3" fill="none" stroke="black" cx="5"/></marker><marker markerWidth="2%" markerHeight="2%" id="filled-circle" viewBox="0 0 10 10 " refX="5" refY="5" markerUnits="userSpaceOnUse"><circle cx="5" cy="5" r="3" fill="black" stroke="none"/></marker><marker markerHeight="2%" id="square" viewBox="0 0 10 10 " refX="5" refY="5" markerUnits="userSpaceOnUse" markerWidth="2%"><rect y="2" width="6" height="6" fill="none" stroke="black" x="2"/></marker><marker refY="5" markerUnits="userSpaceOnUse" markerWidth="2%" markerHeight="2%" id="filled-square" viewBox="0 0 10 10 " refX="5"><rect x="2" y="2" width="6" height="6" fill="black" stroke="none"/></marker></defs><g fill="hsl(198, 47%, 65%)" stroke="hsl(198, 47%, 65%)" stroke-width="1px" stroke-linecap="round" stroke-linejoin="round" transform="translate(80 520 )scale(1 -1 )"><rect width="8.533333e+00" height="4.402957e+01" vector-effect="non-scaling-stroke" x="5.546667e+01" y="0"/><rect x="7.680000e+01" y="0" width="8.533333e+00" height="4.400140e+01" vector-effect="non-scaling-stroke"/><rect width="8.533333e+00" height="4.401096e+01" vector-effect="non-scaling-stroke" x="9.813333e+01" y="0"/><rect width="8.533333e+00" height="4.431275e+01" vector-effect="non-scaling-stroke" x="1.194667e+02" y="0"/><rect width="8.533333e+00" height="7.133341e+02" vector-effect="non-scaling-stroke" x="1.408000e+02" y="0"/><rect x="1.621333e+02" y="0" width="8.533333e+00" height="4.402000e+01" vector-effect="non-scaling-stroke"/><rect vector-effect="non-scaling-stroke" x="1.834667e+02" y="0" width="8.533333e+00" height="4.418837e+01"/><rect y="0" width="8.533333e+00" height="4.400065e+01" vector-effect="non-scaling-stroke" x="2.048000e+02"/><rect vector-effect="non-scaling-stroke" x="2.261333e+02" y="0" width="8.533333e+00" height="4.400173e+01"/><rect vector-effect="non-scaling-stroke" x="2.474667e+02" y="0" width="8.533333e+00" height="4.542853e+01"/><rect x="2.688000e+02" y="0" width="8.533333e+00" height="4.833755e+01" vector-effect="non-scaling-stroke"/><rect vector-effect="non-scaling-stroke" x="2.901333e+02" y="0" width="8.533333e+00" height="4.400083e+01"/><rect vector-effect="non-scaling-stroke" x="3.114667e+02" y="0" width="8.533333e+00" height="4.402367e+01"/><rect y="0" width="8.533333e+00" height="1.657137e+03" vector-effect="non-scaling-stroke" x="3.328000e+02"/><rect y="0" width="8.533333e+00" height="4.720032e+01" vector-effect="non-scaling-stroke" x="3.541333e+02"/><rect x="3.754667e+02" y="0" width="8.533333e+00" height="6.410765e+01" vector-effect="non-scaling-stroke"/><rect vector-effect="non-scaling-stroke" x="3.968000e+02" y="0" width="8.533333e+00" height="6.006799e+01"/><rect height="7.514564e+01" vector-effect="non-scaling-stroke" x="4.181333e+02" y="0" width="8.533333e+00"/><rect vector-effect="non-scaling-stroke" x="4.394667e+02" y="0" width="8.533333e+00" height="8.816171e+01"/><rect vector-effect="non-scaling-stroke" x="4.608000e+02" y="0" width="8.533333e+00" height="4.404857e+01"/><rect y="0" width="8.533333e+00" height="6.777525e+01" vector-effect="non-scaling-stroke" x="4.821333e+02"/><rect x="5.034667e+02" y="0" width="8.533333e+00" height="4.696701e+01" vector-effect="non-scaling-stroke"/><rect width="8.533333e+00" height="4.400226e+01" vector-effect="non-scaling-stroke" x="5.248000e+02" y="0"/><rect height="5.583318e+01" vector-effect="non-scaling-stroke" x="5.461333e+02" y="0" width="8.533333e+00"/><rect vector-effect="non-scaling-stroke" x="5.674667e+02" y="0" width="8.533333e+00" height="5.449669e+01"/></g><g transform="translate(80 520 )scale(1 -1 )" fill="hsl(49, 88%, 65%)" stroke="hsl(49, 88%, 65%)" stroke-width="1px" stroke-linecap="round" stroke-linejoin="round"><rect vector-effect="non-scaling-stroke" x="64" y="0" width="8.533333e+00" height="4.400707e+01"/><rect vector-effect="non-scaling-stroke" x="8.533333e+01" y="0" width="8.533333e+00" height="4.401265e+01"/><rect x="1.066667e+02" y="0" width="8.533333e+00" height="4.403497e+01" vector-effect="non-scaling-stroke"/><rect y="0" width="8.533333e+00" height="4.429498e+01" vector-effect="non-scaling-stroke" x="128"/><rect vector-effect="non-scaling-stroke" x="1.493333e+02" y="0" width="8.533333e+00" height="1.168683e+03"/><rect width="8.533333e+00" height="4.413021e+01" vector-effect="non-scaling-stroke" x="1.706667e+02" y="0"/><rect vector-effect="non-scaling-stroke" x="192" y="0" width="8.533333e+00" height="4.439883e+01"/><rect height="4.400174e+01" vector-effect="non-scaling-stroke" x="2.133333e+02" y="0" width="8.533333e+00"/><rect y="0" width="8.533333e+00" height="4.402506e+01" vector-effect="non-scaling-stroke" x="2.346667e+02"/><rect x="2.560000e+02" y="0" width="8.533333e+00" height="4.402301e+01" vector-effect="non-scaling-stroke"/><rect x="2.773333e+02" y="0" width="8.533333e+00" height="2.772293e+02" vector-effect="non-scaling-stroke"/><rect vector-effect="non-scaling-stroke" x="2.986667e+02" y="0" width="8.533333e+00" height="4.400036e+01"/><rect vector-effect="non-scaling-stroke" x="320" y="0" width="8.533333e+00" height="4.401793e+01"/><rect vector-effect="non-scaling-stroke" x="3.413333e+02" y="0" width="8.533333e+00" height="1.050237e+03"/><rect vector-effect="non-scaling-stroke" x="3.626667e+02" y="0" width="8.533333e+00" height="4.481310e+01"/><rect vector-effect="non-scaling-stroke" x="384" y="0" width="8.533333e+00" height="5.404956e+01"/><rect x="4.053333e+02" y="0" width="8.533333e+00" height="4.907837e+01" vector-effect="non-scaling-stroke"/><rect width="8.533333e+00" height="9.539654e+01" vector-effect="non-scaling-stroke" x="4.266667e+02" y="0"/><rect height="4.400001e+01" vector-effect="non-scaling-stroke" x="448" y="0" width="8.533333e+00"/><rect height="4.401479e+01" vector-effect="non-scaling-stroke" x="4.693333e+02" y="0" width="8.533333e+00"/><rect x="4.906667e+02" y="0" width="8.533333e+00" height="4.977735e+01" vector-effect="non-scaling-stroke"/><rect vector-effect="non-scaling-stroke" x="512" y="0" width="8.533333e+00" height="4.586154e+01"/><rect x="5.333333e+02" y="0" width="8.533333e+00" height="4.400077e+01" vector-effect="non-scaling-stroke"/><rect vector-effect="non-scaling-stroke" x="5.546667e+02" y="0" width="8.533333e+00" height="4.476924e+01"/><rect x="576" y="0" width="8.533333e+00" height="4.544087e+01" vector-effect="non-scaling-stroke"/></g><g stroke-width="1px" font-family="sans-serif" font-style="normal" font-weight="normal" stroke-linecap="round" text-anchor="start" stroke="hsl(198, 47%, 65%)" stroke-linejoin="round" font-size="12px" dominant-baseline="hanging" fill="hsl(198, 47%, 65%)"><rect x="736" y="484" width="12" height="12" vector-effect="non-scaling-stroke"/><g fill="black" stroke="black"><text dominant-baseline="hanging" stroke="none" vector-effect="non-scaling-stroke" x="752" y="484">Golang</text></g><g dominant-baseline="hanging" font-family="sans-serif" font-size="12px" font-style="normal" font-weight="normal" fill="hsl(49, 88%, 65%)" stroke-linecap="round" stroke-width="1px" stroke-linejoin="round" text-anchor="start" stroke="hsl(49, 88%, 65%)"><rect height="12" vector-effect="non-scaling-stroke" x="736" y="502" width="12"/><g fill="black" stroke="black"><text x="752" y="502" dominant-baseline="hanging" stroke="none" vector-effect="non-scaling-stroke">Rust</text><g fill="none" font-size="12px" stroke-linejoin="round" font-weight="normal" text-anchor="start" stroke-width="2px" font-family="sans-serif" dominant-baseline="hanging" stroke-linecap="round" font-style="normal"><rect height="440" vector-effect="non-scaling-stroke" x="80" y="80" width="640"/></g><g stroke-linecap="round" text-anchor="start" dominant-baseline="hanging" stroke-width="2px" font-size="12px" font-family="sans-serif" font-style="normal" transform="translate(80 520 )scale(1 -1 )" fill="none" font-weight="normal" stroke="black" stroke-linejoin="round"><path vector-effect="non-scaling-stroke" d="M64,0 L64,-6 M8.533333e+01,0 L8.533333e+01,-6 M1.066667e+02,0 L1.066667e+02,-6 M128,0 L128,-6 M1.493333e+02,0 L1.493333e+02,-6 M1.706667e+02,0 L1.706667e+02,-6 M192,0 L192,-6 M2.133333e+02,0 L2.133333e+02,-6 M2.346667e+02,0 L2.346667e+02,-6 M256,0 L256,-6 M2.773333e+02,0 L2.773333e+02,-6 M2.986667e+02,0 L2.986667e+02,-6 M320,0 L320,-6 M3.413333e+02,0 L3.413333e+02,-6 M3.626667e+02,0 L3.626667e+02,-6 M384,0 L384,-6 M4.053333e+02,0 L4.053333e+02,-6 M4.266667e+02,0 L4.266667e+02,-6 M448,0 L448,-6 M4.693333e+02,0 L4.693333e+02,-6 M4.906667e+02,0 L4.906667e+02,-6 M512,0 L512,-6 M5.333333e+02,0 L5.333333e+02,-6 M5.546667e+02,0 L5.546667e+02,-6 M576,0 L576,-6 "/></g><g stroke-linecap="round" text-anchor="middle" font-size="12px" font-family="sans-serif" dominant-baseline="hanging" stroke="black" stroke-width="2px" stroke-linejoin="round" transform="translate(80 520 )scale(1 1 )" fill="black" font-style="normal" font-weight="normal"><text dominant-baseline="hanging" stroke="none" vector-effect="non-scaling-stroke" x="64" y="10">1</text><text y="10" dominant-baseline="hanging" stroke="none" vector-effect="non-scaling-stroke" x="8.533333e+01">2</text><text dominant-baseline="hanging" stroke="none" vector-effect="non-scaling-stroke" x="1.066667e+02" y="10">3</text><text stroke="none" vector-effect="non-scaling-stroke" x="128" y="10" dominant-baseline="hanging">4</text><text stroke="none" vector-effect="non-scaling-stroke" x="1.493333e+02" y="10" dominant-baseline="hanging">5</text><text x="1.706667e+02" y="10" dominant-baseline="hanging" stroke="none" vector-effect="non-scaling-stroke">6</text><text x="192" y="10" dominant-baseline="hanging" stroke="none" vector-effect="non-scaling-stroke">7</text><text dominant-baseline="hanging" stroke="none" vector-effect="non-scaling-stroke" x="2.133333e+02" y="10">8</text><text y="10" dominant-baseline="hanging" stroke="none" vector-effect="non-scaling-stroke" x="2.346667e+02">9</text><text dominant-baseline="hanging" stroke="none" vector-effect="non-scaling-stroke" x="256" y="10">10</text><text dominant-baseline="hanging" stroke="none" vector-effect="non-scaling-stroke" x="2.773333e+02" y="10">11</text><text x="2.986667e+02" y="10" dominant-baseline="hanging" stroke="none" vector-effect="non-scaling-stroke">12</text><text dominant-baseline="hanging" stroke="none" vector-effect="non-scaling-stroke" x="320" y="10">13</text><text dominant-baseline="hanging" stroke="none" vector-effect="non-scaling-stroke" x="3.413333e+02" y="10">14</text><text vector-effect="non-scaling-stroke" x="3.626667e+02" y="10" dominant-baseline="hanging" stroke="none">15</text><text stroke="none" vector-effect="non-scaling-stroke" x="384" y="10" dominant-baseline="hanging">16</text><text x="4.053333e+02" y="10" dominant-baseline="hanging" stroke="none" vector-effect="non-scaling-stroke">17</text><text dominant-baseline="hanging" stroke="none" vector-effect="non-scaling-stroke" x="4.266667e+02" y="10">18</text><text stroke="none" vector-effect="non-scaling-stroke" x="448" y="10" dominant-baseline="hanging">19</text><text y="10" dominant-baseline="hanging" stroke="none" vector-effect="non-scaling-stroke" x="4.693333e+02">20</text><text x="4.906667e+02" y="10" dominant-baseline="hanging" stroke="none" vector-effect="non-scaling-stroke">21</text><text vector-effect="non-scaling-stroke" x="512" y="10" dominant-baseline="hanging" stroke="none">22</text><text vector-effect="non-scaling-stroke" x="5.333333e+02" y="10" dominant-baseline="hanging" stroke="none">23</text><text dominant-baseline="hanging" stroke="none" vector-effect="non-scaling-stroke" x="5.546667e+02" y="10">24</text><text x="576" y="10" dominant-baseline="hanging" stroke="none" vector-effect="non-scaling-stroke">25</text></g><g font-family="sans-serif" stroke="black" stroke-width="2px" stroke-linecap="round" text-anchor="middle" font-size="12px" font-style="normal" font-weight="bold" dominant-baseline="baseline" stroke-linejoin="round" transform="translate(80 520 )scale(1 1 )rotate(0 0 0 )" fill="black"><text dominant-baseline="baseline" stroke="none" vector-effect="non-scaling-stroke" x="320" y="-6">Day</text></g><g text-anchor="middle" dominant-baseline="baseline" font-weight="bold" transform="translate(80 520 )scale(1 -1 )" fill="black" stroke-linecap="round" stroke="black" stroke-width="2px" stroke-linejoin="round" font-family="sans-serif" font-size="12px" font-style="normal"><path vector-effect="non-scaling-stroke" d="M0,44 L-6,44 M0,7.920000e+01 L-6,7.920000e+01 M0,1.144000e+02 L-6,1.144000e+02 M0,1.496000e+02 L-6,1.496000e+02 M0,1.848000e+02 L-6,1.848000e+02 M0,220 L-6,220 M0,2.552000e+02 L-6,2.552000e+02 M0,2.904000e+02 L-6,2.904000e+02 M0,3.256000e+02 L-6,3.256000e+02 M0,3.608000e+02 L-6,3.608000e+02 M0,396 L-6,396 "/></g><g fill="black" stroke-width="2px" stroke-linejoin="round" transform="translate(80 520 )scale(1 1 )" stroke-linecap="round" dominant-baseline="middle" stroke="black" text-anchor="end" font-family="sans-serif" font-size="12px" font-style="normal" font-weight="normal"><text x="-10" y="-44" dominant-baseline="middle" stroke="none" vector-effect="non-scaling-stroke">0s</text><text y="-7.920000e+01" dominant-baseline="middle" stroke="none" vector-effect="non-scaling-stroke" x="-10">200ms</text><text y="-1.144000e+02" dominant-baseline="middle" stroke="none" vector-effect="non-scaling-stroke" x="-10">400ms</text><text vector-effect="non-scaling-stroke" x="-10" y="-1.496000e+02" dominant-baseline="middle" stroke="none">600ms</text><text stroke="none" vector-effect="non-scaling-stroke" x="-10" y="-1.848000e+02" dominant-baseline="middle">800ms</text><text dominant-baseline="middle" stroke="none" vector-effect="non-scaling-stroke" x="-10" y="-220">1s</text><text stroke="none" vector-effect="non-scaling-stroke" x="-10" y="-2.552000e+02" dominant-baseline="middle">1.2s</text><text stroke="none" vector-effect="non-scaling-stroke" x="-10" y="-2.904000e+02" dominant-baseline="middle">1.4s</text><text y="-3.256000e+02" dominant-baseline="middle" stroke="none" vector-effect="non-scaling-stroke" x="-10">1.6s</text><text x="-10" y="-3.608000e+02" dominant-baseline="middle" stroke="none" vector-effect="non-scaling-stroke">1.8s</text><text stroke="none" vector-effect="non-scaling-stroke" x="-10" y="-396" dominant-baseline="middle">2s</text></g><g fill="black" font-size="12px" font-weight="bold" stroke="black" stroke-width="2px" transform="translate(80 520 )scale(1 1 )rotate(-90 0 0 )" stroke-linecap="round" text-anchor="middle" font-style="normal" dominant-baseline="hanging" stroke-linejoin="round" font-family="sans-serif"><text y="6" dominant-baseline="hanging" stroke="none" vector-effect="non-scaling-stroke" x="220">Runtime</text></g></g></g></g></svg>