<svg xmlns="http://www.w3.org/2000/svg" width="800" height="600" viewbox="0 0 800 600" preserveAspectRatio="xMidYMid meet"><defs><marker markerUnits="userSpaceOnUse" markerWidth="2%" markerHeight="2%" id="circle" viewBox="0 0 10 10 " refX="5" refY="5"><circle r="3" fill="none" stroke="black" cx="5" cy="5"/></marker><marker refY="5" markerUnits="userSpaceOnUse" markerWidth="2%" markerHeight="2%" id="filled-circle" viewBox="0 0 10 10 " refX="5"><circle fill="black" stroke="none" cx="5" cy="5" r="3"/></marker><marker markerHeight="2%" id="square" viewBox="0 0 10 10 " refX="5" refY="5" markerUnits="userSpaceOnUse" markerWidth="2%"><rect x="2" y="2" width="6" height="6" fill="none" stroke="black"/></marker><marker viewBox="0 0 10 10 " refX="5" refY="5" markerUnits="userSpaceOnUse" markerWidth="2%" markerHeight="2%" id="filled-square"><rect stroke="none" x="2" y="2" width="6" height="6" fill="black"/></marker></defs><g stroke="hsl(198, 47%, 65%)" stroke-width="1px" stroke-linecap="round" stroke-linejoin="round" transform="translate(80 520 )scale(1 -1 )" fill="hsl(198, 47%, 65%)"><rect height="4.403431e+01" vector-effect="non-scaling-stroke" x="5.546667e+01" y="0" width="8.533333e+00"/><rect width="8.533333e+00" height="4.400288e+01" vector-effect="non-scaling-stroke" x="7.680000e+01" y="0"/><rect vector-effect="non-scaling-stroke" x="9.813333e+01" y="0" width="8.533333e+00" height="4.402117e+01"/><rect height="4.449116e+01" vector-effect="non-scaling-stroke" x="1.194667e+02" y="0" width="8.533333e+00"/><rect width="8.533333e+00" height="1.086642e+03" vector-effect="non-scaling-stroke" x="1.408000e+02" y="0"/><rect x="1.621333e+02" y="0" width="8.533333e+00" height="4.404222e+01" vector-effect="non-scaling-stroke"/><rect height="4.431752e+01" vector-effect="non-scaling-stroke" x="1.834667e+02" y="0" width="8.533333e+00"/><rect width="8.533333e+00" height="4.400145e+01" vector-effect="non-scaling-stroke" x="2.048000e+02" y="0"/><rect x="2.261333e+02" y="0" width="8.533333e+00" height="4.400448e+01" vector-effect="non-scaling-stroke"/><rect y="0" width="8.533333e+00" height="4.539655e+01" vector-effect="non-scaling-stroke" x="2.474667e+02"/><rect height="5.332608e+01" vector-effect="non-scaling-stroke" x="2.688000e+02" y="0" width="8.533333e+00"/><rect x="2.901333e+02" y="0" width="8.533333e+00" height="4.400131e+01" vector-effect="non-scaling-stroke"/><rect vector-effect="non-scaling-stroke" x="3.114667e+02" y="0" width="8.533333e+00" height="4.403097e+01"/><rect x="3.328000e+02" y="0" width="8.533333e+00" height="2.234237e+03" vector-effect="non-scaling-stroke"/><rect x="3.541333e+02" y="0" width="8.533333e+00" height="5.451887e+01" vector-effect="non-scaling-stroke"/><rect width="8.533333e+00" height="1.207651e+02" vector-effect="non-scaling-stroke" x="3.754667e+02" y="0"/><rect height="6.451010e+01" vector-effect="non-scaling-stroke" x="3.968000e+02" y="0" width="8.533333e+00"/><rect vector-effect="non-scaling-stroke" x="4.181333e+02" y="0" width="8.533333e+00" height="9.055652e+01"/><rect vector-effect="non-scaling-stroke" x="4.394667e+02" y="0" width="8.533333e+00" height="1.732893e+02"/><rect width="8.533333e+00" height="4.408124e+01" vector-effect="non-scaling-stroke" x="4.608000e+02" y="0"/><rect vector-effect="non-scaling-stroke" x="4.821333e+02" y="0" width="8.533333e+00" height="1.059726e+02"/><rect y="0" width="8.533333e+00" height="5.037372e+01" vector-effect="non-scaling-stroke" x="5.034667e+02"/><rect height="4.400330e+01" vector-effect="non-scaling-stroke" x="5.248000e+02" y="0" width="8.533333e+00"/><rect vector-effect="non-scaling-stroke" x="5.461333e+02" y="0" width="8.533333e+00" height="6.062624e+01"/><rect x="5.674667e+02" y="0" width="8.533333e+00" height="7.552880e+01" vector-effect="non-scaling-stroke"/></g><g stroke="hsl(49, 88%, 65%)" stroke-width="1px" stroke-linecap="round" stroke-linejoin="round" transform="translate(80 520 )scale(1 -1 )" fill="hsl(49, 88%, 65%)"><rect width="8.533333e+00" height="4.401500e+01" vector-effect="non-scaling-stroke" x="64" y="0"/><rect height="4.402463e+01" vector-effect="non-scaling-stroke" x="8.533333e+01" y="0" width="8.533333e+00"/><rect x="1.066667e+02" y="0" width="8.533333e+00" height="4.410758e+01" vector-effect="non-scaling-stroke"/><rect vector-effect="non-scaling-stroke" x="128" y="0" width="8.533333e+00" height="4.452988e+01"/><rect vector-effect="non-scaling-stroke" x="1.493333e+02" y="0" width="8.533333e+00" height="1.108275e+03"/><rect height="4.434248e+01" vector-effect="non-scaling-stroke" x="1.706667e+02" y="0" width="8.533333e+00"/><rect height="4.477304e+01" vector-effect="non-scaling-stroke" x="192" y="0" width="8.533333e+00"/><rect vector-effect="non-scaling-stroke" x="2.133333e+02" y="0" width="8.533333e+00" height="4.400532e+01"/><rect width="8.533333e+00" height="4.405919e+01" vector-effect="non-scaling-stroke" x="2.346667e+02" y="0"/><rect vector-effect="non-scaling-stroke" x="2.560000e+02" y="0" width="8.533333e+00" height="4.405523e+01"/><rect x="2.773333e+02" y="0" width="8.533333e+00" height="4.345679e+02" vector-effect="non-scaling-stroke"/><rect x="2.986667e+02" y="0" width="8.533333e+00" height="4.400060e+01" vector-effect="non-scaling-stroke"/><rect width="8.533333e+00" height="4.403423e+01" vector-effect="non-scaling-stroke" x="320" y="0"/><rect vector-effect="non-scaling-stroke" x="3.413333e+02" y="0" width="8.533333e+00" height="1.106553e+04"/><rect height="4.651853e+01" vector-effect="non-scaling-stroke" x="3.626667e+02" y="0" width="8.533333e+00"/><rect vector-effect="non-scaling-stroke" x="384" y="0" width="8.533333e+00" height="6.886348e+01"/><rect x="4.053333e+02" y="0" width="8.533333e+00" height="5.029511e+01" vector-effect="non-scaling-stroke"/><rect y="0" width="8.533333e+00" height="1.341954e+02" vector-effect="non-scaling-stroke" x="4.266667e+02"/><rect height="4.400001e+01" vector-effect="non-scaling-stroke" x="448" y="0" width="8.533333e+00"/><rect width="8.533333e+00" height="4.403529e+01" vector-effect="non-scaling-stroke" x="4.693333e+02" y="0"/><rect vector-effect="non-scaling-stroke" x="4.906667e+02" y="0" width="8.533333e+00" height="5.740222e+01"/><rect y="0" width="8.533333e+00" height="4.851913e+01" vector-effect="non-scaling-stroke" x="512"/><rect width="8.533333e+00" height="4.400151e+01" vector-effect="non-scaling-stroke" x="5.333333e+02" y="0"/><rect y="0" width="8.533333e+00" height="4.498181e+01" vector-effect="non-scaling-stroke" x="5.546667e+02"/><rect vector-effect="non-scaling-stroke" x="576" y="0" width="8.533333e+00" height="4.671552e+01"/></g><g stroke-linecap="round" font-weight="normal" stroke-width="1px" stroke-linejoin="round" font-family="sans-serif" font-size="12px" font-style="normal" text-anchor="start" stroke="hsl(198, 47%, 65%)" dominant-baseline="hanging" fill="hsl(198, 47%, 65%)"><rect vector-effect="non-scaling-stroke" x="736" y="484" width="12" height="12"/><g fill="black" stroke="black"><text stroke="none" vector-effect="non-scaling-stroke" x="752" y="484" dominant-baseline="hanging">Golang</text></g><g dominant-baseline="hanging" stroke-width="1px" font-size="12px" fill="hsl(49, 88%, 65%)" stroke-linecap="round" font-weight="normal" stroke="hsl(49, 88%, 65%)" stroke-linejoin="round" font-family="sans-serif" font-style="normal" text-anchor="start"><rect x="736" y="502" width="12" height="12" vector-effect="non-scaling-stroke"/><g stroke="black" fill="black"><text y="502" dominant-baseline="hanging" stroke="none" vector-effect="non-scaling-stroke" x="752">Rust</text><g font-style="normal" text-anchor="start" stroke-linejoin="round" font-family="sans-serif" fill="none" font-weight="normal" dominant-baseline="hanging" font-size="12px" stroke-linecap="round" stroke-width="2px"><rect width="640" height="440" vector-effect="non-scaling-stroke" x="80" y="80"/></g><g fill="none" stroke-linecap="round" stroke-width="2px" stroke-linejoin="round" font-family="sans-serif" font-weight="normal" dominant-baseline="hanging" transform="translate(80 520 )scale(1 -1 )" text-anchor="start" stroke="black" font-size="12px" font-style="normal"><path d="M64,0 L64,-6 M8.533333e+01,0 L8.533333e+01,-6 M1.066667e+02,0 L1.066667e+02,-6 M128,0 L128,-6 M1.493333e+02,0 L1.493333e+02,-6 M1.706667e+02,0 L1.706667e+02,-6 M192,0 L192,-6 M2.133333e+02,0 L2.133333e+02,-6 M2.346667e+02,0 L2.346667e+02,-6 M256,0 L256,-6 M2.773333e+02,0 L2.773333e+02,-6 M2.986667e+02,0 L2.986667e+02,-6 M320,0 L320,-6 M3.413333e+02,0 L3.413333e+02,-6 M3.626667e+02,0 L3.626667e+02,-6 M384,0 L384,-6 M4.053333e+02,0 L4.053333e+02,-6 M4.266667e+02,0 L4.266667e+02,-6 M448,0 L448,-6 M4.693333e+02,0 L4.693333e+02,-6 M4.906667e+02,0 L4.906667e+02,-6 M512,0 L512,-6 M5.333333e+02,0 L5.333333e+02,-6 M5.546667e+02,0 L5.546667e+02,-6 M576,0 L576,-6 " vector-effect="non-scaling-stroke"/></g><g stroke-linejoin="round" font-size="12px" stroke="black" font-weight="normal" dominant-baseline="hanging" transform="translate(80 520 )scale(1 1 )" fill="black" stroke-width="2px" font-family="sans-serif" font-style="normal" text-anchor="middle" stroke-linecap="round"><text x="64" y="10" dominant-baseline="hanging" stroke="none" vector-effect="non-scaling-stroke">1</text><text stroke="none" vector-effect="non-scaling-stroke" x="8.533333e+01" y="10" dominant-baseline="hanging">2</text><text y="10" dominant-baseline="hanging" stroke="none" vector-effect="non-scaling-stroke" x="1.066667e+02">3</text><text dominant-baseline="hanging" stroke="none" vector-effect="non-scaling-stroke" x="128" y="10">4</text><text vector-effect="non-scaling-stroke" x="1.493333e+02" y="10" dominant-baseline="hanging" stroke="none">5</text><text y="10" dominant-baseline="hanging" stroke="none" vector-effect="non-scaling-stroke" x="1.706667e+02">6</text><text vector-effect="non-scaling-stroke" x="192" y="10" dominant-baseline="hanging" stroke="none">7</text><text vector-effect="non-scaling-stroke" x="2.133333e+02" y="10" dominant-baseline="hanging" stroke="none">8</text><text dominant-baseline="hanging" stroke="none" vector-effect="non-scaling-stroke" x="2.346667e+02" y="10">9</text><text vector-effect="non-scaling-stroke" x="256" y="10" dominant-baseline="hanging" stroke="none">10</text><text stroke="none" vector-effect="non-scaling-stroke" x="2.773333e+02" y="10" dominant-baseline="hanging">11</text><text stroke="none" vector-effect="non-scaling-stroke" x="2.986667e+02" y="10" dominant-baseline="hanging">12</text><text y="10" dominant-baseline="hanging" stroke="none" vector-effect="non-scaling-stroke" x="320">13</text><text stroke="none" vector-effect="non-scaling-stroke" x="3.413333e+02" y="10" dominant-baseline="hanging">14</text><text vector-effect="non-scaling-stroke" x="3.626667e+02" y="10" dominant-baseline="hanging" stroke="none">15</text><text y="10" dominant-baseline="hanging" stroke="none" vector-effect="non-scaling-stroke" x="384">16</text><text y="10" dominant-baseline="hanging" stroke="none" vector-effect="non-scaling-stroke" x="4.053333e+02">17</text><text vector-effect="non-scaling-stroke" x="4.266667e+02" y="10" dominant-baseline="hanging" stroke="none">18</text><text y="10" dominant-baseline="hanging" stroke="none" vector-effect="non-scaling-stroke" x="448">19</text><text stroke="none" vector-effect="non-scaling-stroke" x="4.693333e+02" y="10" dominant-baseline="hanging">20</text><text dominant-baseline="hanging" stroke="none" vector-effect="non-scaling-stroke" x="4.906667e+02" y="10">21</text><text stroke="none" vector-effect="non-scaling-stroke" x="512" y="10" dominant-baseline="hanging">22</text><text vector-effect="non-scaling-stroke" x="5.333333e+02" y="10" dominant-baseline="hanging" stroke="none">23</text><text dominant-baseline="hanging" stroke="none" vector-effect="non-scaling-stroke" x="5.546667e+02" y="10">24</text><text y="10" dominant-baseline="hanging" stroke="none" vector-effect="non-scaling-stroke" x="576">25</text></g><g stroke-linecap="round" font-size="12px" font-style="normal" stroke="black" stroke-width="2px" stroke-linejoin="round" font-family="sans-serif" transform="translate(80 520 )scale(1 1 )rotate(0 0 0 )" dominant-baseline="baseline" text-anchor="middle" fill="black" font-weight="bold"><text dominant-baseline="baseline" stroke="none" vector-effect="non-scaling-stroke" x="320" y="-6">Day</text></g><g font-weight="bold" font-family="sans-serif" font-style="normal" text-anchor="middle" stroke-linecap="round" transform="translate(80 520 )scale(1 -1 )" fill="black" font-size="12px" stroke="black" stroke-width="2px" stroke-linejoin="round" dominant-baseline="baseline"><path vector-effect="non-scaling-stroke" d="M0,44 L-6,44 M0,7.920000e+01 L-6,7.920000e+01 M0,1.144000e+02 L-6,1.144000e+02 M0,1.496000e+02 L-6,1.496000e+02 M0,1.848000e+02 L-6,1.848000e+02 M0,220 L-6,220 M0,2.552000e+02 L-6,2.552000e+02 M0,2.904000e+02 L-6,2.904000e+02 M0,3.256000e+02 L-6,3.256000e+02 M0,3.608000e+02 L-6,3.608000e+02 M0,396 L-6,396 "/></g><g dominant-baseline="middle" transform="translate(80 520 )scale(1 1 )" fill="black" font-style="normal" text-anchor="end" font-weight="normal" stroke-linecap="round" stroke-linejoin="round" font-family="sans-serif" font-size="12px" stroke="black" stroke-width="2px"><text y="-44" dominant-baseline="middle" stroke="none" vector-effect="non-scaling-stroke" x="-10">0s</text><text dominant-baseline="middle" stroke="none" vector-effect="non-scaling-stroke" x="-10" y="-7.920000e+01">200ms</text><text vector-effect="non-scaling-stroke" x="-10" y="-1.144000e+02" dominant-baseline="middle" stroke="none">400ms</text><text stroke="none" vector-effect="non-scaling-stroke" x="-10" y="-1.496000e+02" dominant-baseline="middle">600ms</text><text y="-1.848000e+02" dominant-baseline="middle" stroke="none" vector-effect="non-scaling-stroke" x="-10">800ms</text><text y="-220" dominant-baseline="middle" stroke="none" vector-effect="non-scaling-stroke" x="-10">1s</text><text y="-2.552000e+02" dominant-baseline="middle" stroke="none" vector-effect="non-scaling-stroke" x="-10">1.2s</text><text vector-effect="non-scaling-stroke" x="-10" y="-2.904000e+02" dominant-baseline="middle" stroke="none">1.4s</text><text y="-3.256000e+02" dominant-baseline="middle" stroke="none" vector-effect="non-scaling-stroke" x="-10">1.6s</text><text y="-3.608000e+02" dominant-baseline="middle" stroke="none" vector-effect="non-scaling-stroke" x="-10">1.8s</text><text y="-396" dominant-baseline="middle" stroke="none" vector-effect="non-scaling-stroke" x="-10">2s</text></g><g font-style="normal" stroke="black" fill="black" font-weight="bold" font-size="12px" text-anchor="middle" stroke-width="2px" stroke-linejoin="round" dominant-baseline="hanging" transform="translate(80 520 )scale(1 1 )rotate(-90 0 0 )" stroke-linecap="round" font-family="sans-serif"><text vector-effect="non-scaling-stroke" x="220" y="6" dominant-baseline="hanging" stroke="none">Runtime</text></g></g></g></g></svg>