<svg preserveAspectRatio="xMidYMid meet" xmlns="http://www.w3.org/2000/svg" width="800" height="600" viewbox="0 0 800 600"><defs><marker markerUnits="userSpaceOnUse" markerWidth="2%" markerHeight="2%" id="circle" viewBox="0 0 10 10 " refX="5" refY="5"><circle cx="5" cy="5" r="3" fill="none" stroke="black"/></marker><marker refY="5" markerUnits="userSpaceOnUse" markerWidth="2%" markerHeight="2%" id="filled-circle" viewBox="0 0 10 10 " refX="5"><circle cx="5" cy="5" r="3" fill="black" stroke="none"/></marker><marker markerWidth="2%" markerHeight="2%" id="square" viewBox="0 0 10 10 " refX="5" refY="5" markerUnits="userSpaceOnUse"><rect x="2" y="2" width="6" height="6" fill="none" stroke="black"/></marker><marker viewBox="0 0 10 10 " refX="5" refY="5" markerUnits="userSpaceOnUse" markerWidth="2%" markerHeight="2%" id="filled-square"><rect y="2" width="6" height="6" fill="black" stroke="none" x="2"/></marker></defs><g fill="hsl(198, 47%, 65%)" stroke="hsl(198, 47%, 65%)" stroke-width="1px" stroke-linecap="round" stroke-linejoin="round" transform="translate(80 520 )scale(1 -1 )"><rect x="5.546667e+01" y="0" width="8.533333e+00" height="4.431907e+01" vector-effect="non-scaling-stroke"/><rect width="8.533333e+00" height="4.627433e+01" vector-effect="non-scaling-stroke" x="7.680000e+01" y="0"/><rect width="8.533333e+00" height="8.678408e+01" vector-effect="non-scaling-stroke" x="9.813333e+01" y="0"/><rect height="4.532188e+01" vector-effect="non-scaling-stroke" x="1.194667e+02" y="0" width="8.533333e+00"/><rect height="1.298190e+02" vector-effect="non-scaling-stroke" x="1.408000e+02" y="0" width="8.533333e+00"/><rect x="1.621333e+02" y="0" width="8.533333e+00" height="5.470725e+01" vector-effect="non-scaling-stroke"/><rect vector-effect="non-scaling-stroke" x="1.834667e+02" y="0" width="8.533333e+00" height="4.406522e+01"/><rect width="8.533333e+00" height="4.403877e+01" vector-effect="non-scaling-stroke" x="2.048000e+02" y="0"/><rect vector-effect="non-scaling-stroke" x="2.261333e+02" y="0" width="8.533333e+00" height="1.356398e+02"/><rect width="8.533333e+00" height="4.428495e+01" vector-effect="non-scaling-stroke" x="2.474667e+02" y="0"/><rect width="8.533333e+00" height="5.868310e+01" vector-effect="non-scaling-stroke" x="2.688000e+02" y="0"/><rect vector-effect="non-scaling-stroke" x="2.901333e+02" y="0" width="8.533333e+00" height="4.426198e+01"/><rect x="3.114667e+02" y="0" width="8.533333e+00" height="4.475945e+01" vector-effect="non-scaling-stroke"/><rect vector-effect="non-scaling-stroke" x="3.328000e+02" y="0" width="8.533333e+00" height="8.119069e+01"/><rect vector-effect="non-scaling-stroke" x="3.541333e+02" y="0" width="8.533333e+00" height="1.704952e+02"/><rect y="0" width="8.533333e+00" height="4.690639e+01" vector-effect="non-scaling-stroke" x="3.754667e+02"/><rect height="5.820347e+01" vector-effect="non-scaling-stroke" x="3.968000e+02" y="0" width="8.533333e+00"/><rect y="0" width="8.533333e+00" height="6.967380e+01" vector-effect="non-scaling-stroke" x="4.181333e+02"/><rect vector-effect="non-scaling-stroke" x="4.394667e+02" y="0" width="8.533333e+00" height="9.289713e+01"/><rect width="8.533333e+00" height="4.931363e+01" vector-effect="non-scaling-stroke" x="4.608000e+02" y="0"/><rect width="8.533333e+00" height="1.555352e+02" vector-effect="non-scaling-stroke" x="4.821333e+02" y="0"/><rect vector-effect="non-scaling-stroke" x="5.034667e+02" y="0" width="8.533333e+00" height="1.316755e+03"/><rect y="0" width="8.533333e+00" height="1.109633e+02" vector-effect="non-scaling-stroke" x="5.248000e+02"/><rect height="7.758517e+01" vector-effect="non-scaling-stroke" x="5.461333e+02" y="0" width="8.533333e+00"/><rect vector-effect="non-scaling-stroke" x="5.674667e+02" y="0" width="8.533333e+00" height="4.721528e+01"/></g><g stroke-linecap="round" stroke-linejoin="round" transform="translate(80 520 )scale(1 -1 )" fill="hsl(49, 88%, 65%)" stroke="hsl(49, 88%, 65%)" stroke-width="1px"><rect vector-effect="non-scaling-stroke" x="64" y="0" width="8.533333e+00" height="4.424245e+01"/><rect vector-effect="non-scaling-stroke" x="8.533333e+01" y="0" width="8.533333e+00" height="4.414333e+01"/><rect vector-effect="non-scaling-stroke" x="1.066667e+02" y="0" width="8.533333e+00" height="4.563030e+01"/><rect vector-effect="non-scaling-stroke" x="128" y="0" width="8.533333e+00" height="4.400488e+01"/><rect height="4.557232e+01" vector-effect="non-scaling-stroke" x="1.493333e+02" y="0" width="8.533333e+00"/><rect width="8.533333e+00" height="4.637456e+01" vector-effect="non-scaling-stroke" x="1.706667e+02" y="0"/><rect x="192" y="0" width="8.533333e+00" height="4.400178e+01" vector-effect="non-scaling-stroke"/><rect height="4.402469e+01" vector-effect="non-scaling-stroke" x="2.133333e+02" y="0" width="8.533333e+00"/><rect y="0" width="8.533333e+00" height="6.023544e+01" vector-effect="non-scaling-stroke" x="2.346667e+02"/><rect vector-effect="non-scaling-stroke" x="2.560000e+02" y="0" width="8.533333e+00" height="4.400222e+01"/><rect width="8.533333e+00" height="4.535219e+01" vector-effect="non-scaling-stroke" x="2.773333e+02" y="0"/><rect width="8.533333e+00" height="4.402753e+01" vector-effect="non-scaling-stroke" x="2.986667e+02" y="0"/><rect height="4.506115e+01" vector-effect="non-scaling-stroke" x="320" y="0" width="8.533333e+00"/><rect height="7.492114e+01" vector-effect="non-scaling-stroke" x="3.413333e+02" y="0" width="8.533333e+00"/><rect vector-effect="non-scaling-stroke" x="3.626667e+02" y="0" width="8.533333e+00" height="9.063075e+01"/><rect vector-effect="non-scaling-stroke" x="384" y="0" width="8.533333e+00" height="4.403726e+01"/><rect height="4.424348e+01" vector-effect="non-scaling-stroke" x="4.053333e+02" y="0" width="8.533333e+00"/><rect vector-effect="non-scaling-stroke" x="4.266667e+02" y="0" width="8.533333e+00" height="5.096679e+01"/><rect height="5.677751e+01" vector-effect="non-scaling-stroke" x="448" y="0" width="8.533333e+00"/><rect vector-effect="non-scaling-stroke" x="4.693333e+02" y="0" width="8.533333e+00" height="4.409174e+01"/><rect x="4.906667e+02" y="0" width="8.533333e+00" height="4.406372e+01" vector-effect="non-scaling-stroke"/><rect width="8.533333e+00" height="4.852196e+01" vector-effect="non-scaling-stroke" x="512" y="0"/><rect vector-effect="non-scaling-stroke" x="5.333333e+02" y="0" width="8.533333e+00" height="6.819049e+01"/><rect vector-effect="non-scaling-stroke" x="5.546667e+02" y="0" width="8.533333e+00" height="5.954163e+01"/><rect y="0" width="8.533333e+00" height="4.480453e+01" vector-effect="non-scaling-stroke" x="576"/></g><g font-family="sans-serif" text-anchor="start" fill="hsl(198, 47%, 65%)" dominant-baseline="hanging" stroke-linejoin="round" stroke="hsl(198, 47%, 65%)" stroke-width="1px" stroke-linecap="round" font-size="12px" font-weight="normal" font-style="normal"><rect x="736" y="484" width="12" height="12" vector-effect="non-scaling-stroke"/><g fill="black" stroke="black"><text vector-effect="non-scaling-stroke" x="752" y="484" dominant-baseline="hanging" stroke="none">Golang</text></g><g stroke="hsl(49, 88%, 65%)" stroke-linejoin="round" font-style="normal" fill="hsl(49, 88%, 65%)" stroke-width="1px" stroke-linecap="round" dominant-baseline="hanging" font-family="sans-serif" font-size="12px" font-weight="normal" text-anchor="start"><rect x="736" y="502" width="12" height="12" vector-effect="non-scaling-stroke"/><g fill="black" stroke="black"><text dominant-baseline="hanging" stroke="none" vector-effect="non-scaling-stroke" x="752" y="502">Rust</text><g stroke-linejoin="round" font-family="sans-serif" text-anchor="start" stroke-width="2px" font-style="normal" stroke-linecap="round" font-size="12px" dominant-baseline="hanging" font-weight="normal" fill="none"><rect y="80" width="640" height="440" vector-effect="non-scaling-stroke" x="80"/></g><g font-style="normal" transform="translate(80 520 )scale(1 -1 )" fill="none" font-size="12px" stroke-width="2px" stroke-linecap="round" font-family="sans-serif" font-weight="normal" stroke-linejoin="round" dominant-baseline="hanging" text-anchor="start" stroke="black"><path vector-effect="non-scaling-stroke" d="M64,0 L64,-6 M8.533333e+01,0 L8.533333e+01,-6 M1.066667e+02,0 L1.066667e+02,-6 M128,0 L128,-6 M1.493333e+02,0 L1.493333e+02,-6 M1.706667e+02,0 L1.706667e+02,-6 M192,0 L192,-6 M2.133333e+02,0 L2.133333e+02,-6 M2.346667e+02,0 L2.346667e+02,-6 M256,0 L256,-6 M2.773333e+02,0 L2.773333e+02,-6 M2.986667e+02,0 L2.986667e+02,-6 M320,0 L320,-6 M3.413333e+02,0 L3.413333e+02,-6 M3.626667e+02,0 L3.626667e+02,-6 M384,0 L384,-6 M4.053333e+02,0 L4.053333e+02,-6 M4.266667e+02,0 L4.266667e+02,-6 M448,0 L448,-6 M4.693333e+02,0 L4.693333e+02,-6 M4.906667e+02,0 L4.906667e+02,-6 M512,0 L512,-6 M5.333333e+02,0 L5.333333e+02,-6 M5.546667e+02,0 L5.546667e+02,-6 M576,0 L576,-6 "/></g><g text-anchor="middle" font-style="normal" stroke-width="2px" font-weight="normal" font-size="12px" fill="black" stroke="black" dominant-baseline="hanging" transform="translate(80 520 )scale(1 1 )" stroke-linejoin="round" stroke-linecap="round" font-family="sans-serif"><text dominant-baseline="hanging" stroke="none" vector-effect="non-scaling-stroke" x="64" y="10">1</text><text vector-effect="non-scaling-stroke" x="8.533333e+01" y="10" dominant-baseline="hanging" stroke="none">2</text><text x="1.066667e+02" y="10" dominant-baseline="hanging" stroke="none" vector-effect="non-scaling-stroke">3</text><text stroke="none" vector-effect="non-scaling-stroke" x="128" y="10" dominant-baseline="hanging">4</text><text vector-effect="non-scaling-stroke" x="1.493333e+02" y="10" dominant-baseline="hanging" stroke="none">5</text><text dominant-baseline="hanging" stroke="none" vector-effect="non-scaling-stroke" x="1.706667e+02" y="10">6</text><text dominant-baseline="hanging" stroke="none" vector-effect="non-scaling-stroke" x="192" y="10">7</text><text vector-effect="non-scaling-stroke" x="2.133333e+02" y="10" dominant-baseline="hanging" stroke="none">8</text><text y="10" dominant-baseline="hanging" stroke="none" vector-effect="non-scaling-stroke" x="2.346667e+02">9</text><text dominant-baseline="hanging" stroke="none" vector-effect="non-scaling-stroke" x="256" y="10">10</text><text dominant-baseline="hanging" stroke="none" vector-effect="non-scaling-stroke" x="2.773333e+02" y="10">11</text><text stroke="none" vector-effect="non-scaling-stroke" x="2.986667e+02" y="10" dominant-baseline="hanging">12</text><text vector-effect="non-scaling-stroke" x="320" y="10" dominant-baseline="hanging" stroke="none">13</text><text stroke="none" vector-effect="non-scaling-stroke" x="3.413333e+02" y="10" dominant-baseline="hanging">14</text><text x="3.626667e+02" y="10" dominant-baseline="hanging" stroke="none" vector-effect="non-scaling-stroke">15</text><text x="384" y="10" dominant-baseline="hanging" stroke="none" vector-effect="non-scaling-stroke">16</text><text vector-effect="non-scaling-stroke" x="4.053333e+02" y="10" dominant-baseline="hanging" stroke="none">17</text><text x="4.266667e+02" y="10" dominant-baseline="hanging" stroke="none" vector-effect="non-scaling-stroke">18</text><text x="448" y="10" dominant-baseline="hanging" stroke="none" vector-effect="non-scaling-stroke">19</text><text vector-effect="non-scaling-stroke" x="4.693333e+02" y="10" dominant-baseline="hanging" stroke="none">20</text><text dominant-baseline="hanging" stroke="none" vector-effect="non-scaling-stroke" x="4.906667e+02" y="10">21</text><text dominant-baseline="hanging" stroke="none" vector-effect="non-scaling-stroke" x="512" y="10">22</text><text dominant-baseline="hanging" stroke="none" vector-effect="non-scaling-stroke" x="5.333333e+02" y="10">23</text><text dominant-baseline="hanging" stroke="none" vector-effect="non-scaling-stroke" x="5.546667e+02" y="10">24</text><text dominant-baseline="hanging" stroke="none" vector-effect="non-scaling-stroke" x="576" y="10">25</text></g><g text-anchor="middle" stroke-linejoin="round" transform="translate(80 520 )scale(1 1 )rotate(0 0 0 )" font-weight="bold" font-size="12px" fill="black" stroke="black" stroke-width="2px" stroke-linecap="round" font-style="normal" dominant-baseline="baseline" font-family="sans-serif"><text x="320" y="-6" dominant-baseline="baseline" stroke="none" vector-effect="non-scaling-stroke">Day</text></g><g stroke-linejoin="round" transform="translate(80 520 )scale(1 -1 )" text-anchor="middle" fill="black" stroke="black" stroke-width="2px" stroke-linecap="round" font-family="sans-serif" font-size="12px" font-weight="bold" font-style="normal" dominant-baseline="baseline"><path vector-effect="non-scaling-stroke" d="M0,44 L-6,44 M0,7.920000e+01 L-6,7.920000e+01 M0,1.144000e+02 L-6,1.144000e+02 M0,1.496000e+02 L-6,1.496000e+02 M0,1.848000e+02 L-6,1.848000e+02 M0,220 L-6,220 M0,2.552000e+02 L-6,2.552000e+02 M0,2.904000e+02 L-6,2.904000e+02 M0,3.256000e+02 L-6,3.256000e+02 M0,3.608000e+02 L-6,3.608000e+02 M0,396 L-6,396 "/></g><g dominant-baseline="middle" stroke-linejoin="round" font-style="normal" stroke-width="2px" font-weight="normal" stroke="black" text-anchor="end" fill="black" transform="translate(80 520 )scale(1 1 )" stroke-linecap="round" font-family="sans-serif" font-size="12px"><text stroke="none" vector-effect="non-scaling-stroke" x="-10" y="-44" dominant-baseline="middle">0s</text><text dominant-baseline="middle" stroke="none" vector-effect="non-scaling-stroke" x="-10" y="-7.920000e+01">200ms</text><text x="-10" y="-1.144000e+02" dominant-baseline="middle" stroke="none" vector-effect="non-scaling-stroke">400ms</text><text x="-10" y="-1.496000e+02" dominant-baseline="middle" stroke="none" vector-effect="non-scaling-stroke">600ms</text><text dominant-baseline="middle" stroke="none" vector-effect="non-scaling-stroke" x="-10" y="-1.848000e+02">800ms</text><text x="-10" y="-220" dominant-baseline="middle" stroke="none" vector-effect="non-scaling-stroke">1s</text><text dominant-baseline="middle" stroke="none" vector-effect="non-scaling-stroke" x="-10" y="-2.552000e+02">1.2s</text><text vector-effect="non-scaling-stroke" x="-10" y="-2.904000e+02" dominant-baseline="middle" stroke="none">1.4s</text><text x="-10" y="-3.256000e+02" dominant-baseline="middle" stroke="none" vector-effect="non-scaling-stroke">1.6s</text><text y="-3.608000e+02" dominant-baseline="middle" stroke="none" vector-effect="non-scaling-stroke" x="-10">1.8s</text><text stroke="none" vector-effect="non-scaling-stroke" x="-10" y="-396" dominant-baseline="middle">2s</text></g><g stroke="black" dominant-baseline="hanging" stroke-width="2px" font-family="sans-serif" font-weight="bold" text-anchor="middle" fill="black" stroke-linecap="round" font-size="12px" transform="translate(80 520 )scale(1 1 )rotate(-90 0 0 )" stroke-linejoin="round" font-style="normal"><text x="220" y="6" dominant-baseline="hanging" stroke="none" vector-effect="non-scaling-stroke">Runtime</text></g></g></g></g></svg>