<svg preserveAspectRatio="xMidYMid meet" xmlns="http://www.w3.org/2000/svg" width="800" height="600" viewbox="0 0 800 600"><defs><marker markerWidth="2%" markerHeight="2%" id="circle" viewBox="0 0 10 10 " refX="5" refY="5" markerUnits="userSpaceOnUse"><circle fill="none" stroke="black" cx="5" cy="5" r="3"/></marker><marker markerUnits="userSpaceOnUse" markerWidth="2%" markerHeight="2%" id="filled-circle" viewBox="0 0 10 10 " refX="5" refY="5"><circle r="3" fill="black" stroke="none" cx="5" cy="5"/></marker><marker markerUnits="userSpaceOnUse" markerWidth="2%" markerHeight="2%" id="square" viewBox="0 0 10 10 " refX="5" refY="5"><rect fill="none" stroke="black" x="2" y="2" width="6" height="6"/></marker><marker markerHeight="2%" id="filled-square" viewBox="0 0 10 10 " refX="5" refY="5" markerUnits="userSpaceOnUse" markerWidth="2%"><rect y="2" width="6" height="6" fill="black" stroke="none" x="2"/></marker></defs><g stroke="hsl(198, 47%, 65%)" stroke-width="1px" stroke-linecap="round" stroke-linejoin="round" transform="translate(80 520 )scale(1 -1 )" fill="hsl(198, 47%, 65%)"><rect x="5.546667e+01" y="0" width="1.706667e+01" height="4.742537e+01" vector-effect="non-scaling-stroke"/><rect width="1.706667e+01" height="4.570413e+01" vector-effect="non-scaling-stroke" x="7.680000e+01" y="0"/><rect vector-effect="non-scaling-stroke" x="9.813333e+01" y="0" width="1.706667e+01" height="7.880209e+01"/><rect x="1.194667e+02" y="0" width="1.706667e+01" height="4.514952e+01" vector-effect="non-scaling-stroke"/><rect height="1.228300e+02" vector-effect="non-scaling-stroke" x="1.408000e+02" y="0" width="1.706667e+01"/><rect width="1.706667e+01" height="5.417912e+01" vector-effect="non-scaling-stroke" x="1.621333e+02" y="0"/><rect height="4.405283e+01" vector-effect="non-scaling-stroke" x="1.834667e+02" y="0" width="1.706667e+01"/><rect height="8.553749e+01" vector-effect="non-scaling-stroke" x="2.048000e+02" y="0" width="1.706667e+01"/><rect x="2.261333e+02" y="0" width="1.706667e+01" height="1.207959e+02" vector-effect="non-scaling-stroke"/><rect x="2.474667e+02" y="0" width="1.706667e+01" height="4.423802e+01" vector-effect="non-scaling-stroke"/><rect vector-effect="non-scaling-stroke" x="2.688000e+02" y="0" width="1.706667e+01" height="5.649860e+01"/><rect y="0" width="1.706667e+01" height="4.426718e+01" vector-effect="non-scaling-stroke" x="2.901333e+02"/><rect x="3.114667e+02" y="0" width="1.706667e+01" height="4.475659e+01" vector-effect="non-scaling-stroke"/><rect height="1.289223e+02" vector-effect="non-scaling-stroke" x="3.328000e+02" y="0" width="1.706667e+01"/><rect x="3.541333e+02" y="0" width="1.706667e+01" height="1.567582e+02" vector-effect="non-scaling-stroke"/><rect height="4.644770e+01" vector-effect="non-scaling-stroke" x="3.754667e+02" y="0" width="1.706667e+01"/><rect vector-effect="non-scaling-stroke" x="3.968000e+02" y="0" width="1.706667e+01" height="5.844764e+01"/><rect vector-effect="non-scaling-stroke" x="4.181333e+02" y="0" width="1.706667e+01" height="6.459017e+01"/><rect vector-effect="non-scaling-stroke" x="4.394667e+02" y="0" width="1.706667e+01" height="8.796601e+01"/><rect height="4.850647e+01" vector-effect="non-scaling-stroke" x="4.608000e+02" y="0" width="1.706667e+01"/><rect height="1.545572e+02" vector-effect="non-scaling-stroke" x="4.821333e+02" y="0" width="1.706667e+01"/><rect vector-effect="non-scaling-stroke" x="5.034667e+02" y="0" width="1.706667e+01" height="1.230216e+03"/><rect height="1.026036e+02" vector-effect="non-scaling-stroke" x="5.248000e+02" y="0" width="1.706667e+01"/><rect vector-effect="non-scaling-stroke" x="5.461333e+02" y="0" width="1.706667e+01" height="7.560770e+01"/><rect width="1.706667e+01" height="4.671397e+01" vector-effect="non-scaling-stroke" x="5.674667e+02" y="0"/></g><g stroke-linejoin="round" font-style="normal" dominant-baseline="hanging" font-family="sans-serif" font-weight="normal" fill="hsl(198, 47%, 65%)" stroke="hsl(198, 47%, 65%)" stroke-width="1px" stroke-linecap="round" font-size="12px" text-anchor="start"><rect y="502" width="12" height="12" vector-effect="non-scaling-stroke" x="736"/><g fill="black" stroke="black"><text stroke="none" vector-effect="non-scaling-stroke" x="752" y="502" dominant-baseline="hanging">Golang</text><g stroke-linejoin="round" stroke-linecap="round" stroke-width="2px" font-weight="normal" font-style="normal" font-family="sans-serif" fill="none" font-size="12px" dominant-baseline="hanging" text-anchor="start"><rect y="80" width="640" height="440" vector-effect="non-scaling-stroke" x="80"/></g><g stroke-linecap="round" font-size="12px" transform="translate(80 520 )scale(1 -1 )" dominant-baseline="hanging" font-weight="normal" font-family="sans-serif" font-style="normal" text-anchor="start" fill="none" stroke="black" stroke-width="2px" stroke-linejoin="round"><path vector-effect="non-scaling-stroke" d="M64,0 L64,-6 M8.533333e+01,0 L8.533333e+01,-6 M1.066667e+02,0 L1.066667e+02,-6 M128,0 L128,-6 M1.493333e+02,0 L1.493333e+02,-6 M1.706667e+02,0 L1.706667e+02,-6 M192,0 L192,-6 M2.133333e+02,0 L2.133333e+02,-6 M2.346667e+02,0 L2.346667e+02,-6 M256,0 L256,-6 M2.773333e+02,0 L2.773333e+02,-6 M2.986667e+02,0 L2.986667e+02,-6 M320,0 L320,-6 M3.413333e+02,0 L3.413333e+02,-6 M3.626667e+02,0 L3.626667e+02,-6 M384,0 L384,-6 M4.053333e+02,0 L4.053333e+02,-6 M4.266667e+02,0 L4.266667e+02,-6 M448,0 L448,-6 M4.693333e+02,0 L4.693333e+02,-6 M4.906667e+02,0 L4.906667e+02,-6 M512,0 L512,-6 M5.333333e+02,0 L5.333333e+02,-6 M5.546667e+02,0 L5.546667e+02,-6 M576,0 L576,-6 "/></g><g fill="black" stroke="black" stroke-width="2px" stroke-linejoin="round" font-family="sans-serif" font-weight="normal" dominant-baseline="hanging" font-size="12px" text-anchor="middle" transform="translate(80 520 )scale(1 1 )" stroke-linecap="round" font-style="normal"><text stroke="none" vector-effect="non-scaling-stroke" x="64" y="10" dominant-baseline="hanging">1</text><text y="10" dominant-baseline="hanging" stroke="none" vector-effect="non-scaling-stroke" x="8.533333e+01">2</text><text stroke="none" vector-effect="non-scaling-stroke" x="1.066667e+02" y="10" dominant-baseline="hanging">3</text><text stroke="none" vector-effect="non-scaling-stroke" x="128" y="10" dominant-baseline="hanging">4</text><text vector-effect="non-scaling-stroke" x="1.493333e+02" y="10" dominant-baseline="hanging" stroke="none">5</text><text stroke="none" vector-effect="non-scaling-stroke" x="1.706667e+02" y="10" dominant-baseline="hanging">6</text><text vector-effect="non-scaling-stroke" x="192" y="10" dominant-baseline="hanging" stroke="none">7</text><text stroke="none" vector-effect="non-scaling-stroke" x="2.133333e+02" y="10" dominant-baseline="hanging">8</text><text y="10" dominant-baseline="hanging" stroke="none" vector-effect="non-scaling-stroke" x="2.346667e+02">9</text><text y="10" dominant-baseline="hanging" stroke="none" vector-effect="non-scaling-stroke" x="256">10</text><text vector-effect="non-scaling-stroke" x="2.773333e+02" y="10" dominant-baseline="hanging" stroke="none">11</text><text y="10" dominant-baseline="hanging" stroke="none" vector-effect="non-scaling-stroke" x="2.986667e+02">12</text><text dominant-baseline="hanging" stroke="none" vector-effect="non-scaling-stroke" x="320" y="10">13</text><text dominant-baseline="hanging" stroke="none" vector-effect="non-scaling-stroke" x="3.413333e+02" y="10">14</text><text stroke="none" vector-effect="non-scaling-stroke" x="3.626667e+02" y="10" dominant-baseline="hanging">15</text><text y="10" dominant-baseline="hanging" stroke="none" vector-effect="non-scaling-stroke" x="384">16</text><text vector-effect="non-scaling-stroke" x="4.053333e+02" y="10" dominant-baseline="hanging" stroke="none">17</text><text vector-effect="non-scaling-stroke" x="4.266667e+02" y="10" dominant-baseline="hanging" stroke="none">18</text><text y="10" dominant-baseline="hanging" stroke="none" vector-effect="non-scaling-stroke" x="448">19</text><text stroke="none" vector-effect="non-scaling-stroke" x="4.693333e+02" y="10" dominant-baseline="hanging">20</text><text x="4.906667e+02" y="10" dominant-baseline="hanging" stroke="none" vector-effect="non-scaling-stroke">21</text><text stroke="none" vector-effect="non-scaling-stroke" x="512" y="10" dominant-baseline="hanging">22</text><text dominant-baseline="hanging" stroke="none" vector-effect="non-scaling-stroke" x="5.333333e+02" y="10">23</text><text dominant-baseline="hanging" stroke="none" vector-effect="non-scaling-stroke" x="5.546667e+02" y="10">24</text><text vector-effect="non-scaling-stroke" x="576" y="10" dominant-baseline="hanging" stroke="none">25</text></g><g transform="translate(80 520 )scale(1 1 )rotate(0 0 0 )" font-style="normal" font-weight="bold" fill="black" stroke-width="2px" stroke-linecap="round" text-anchor="middle" font-family="sans-serif" dominant-baseline="baseline" stroke="black" stroke-linejoin="round" font-size="12px"><text vector-effect="non-scaling-stroke" x="320" y="-6" dominant-baseline="baseline" stroke="none">Day</text></g><g stroke="black" stroke-linejoin="round" font-family="sans-serif" font-style="normal" font-weight="bold" text-anchor="middle" font-size="12px" transform="translate(80 520 )scale(1 -1 )" fill="black" stroke-width="2px" dominant-baseline="baseline" stroke-linecap="round"><path d="M0,44 L-6,44 M0,7.920000e+01 L-6,7.920000e+01 M0,1.144000e+02 L-6,1.144000e+02 M0,1.496000e+02 L-6,1.496000e+02 M0,1.848000e+02 L-6,1.848000e+02 M0,220 L-6,220 M0,2.552000e+02 L-6,2.552000e+02 M0,2.904000e+02 L-6,2.904000e+02 M0,3.256000e+02 L-6,3.256000e+02 M0,3.608000e+02 L-6,3.608000e+02 M0,396 L-6,396 " vector-effect="non-scaling-stroke"/></g><g fill="black" stroke="black" stroke-linejoin="round" stroke-linecap="round" font-family="sans-serif" font-style="normal" font-weight="normal" dominant-baseline="middle" transform="translate(80 520 )scale(1 1 )" stroke-width="2px" font-size="12px" text-anchor="end"><text x="-10" y="-44" dominant-baseline="middle" stroke="none" vector-effect="non-scaling-stroke">0s</text><text stroke="none" vector-effect="non-scaling-stroke" x="-10" y="-7.920000e+01" dominant-baseline="middle">200ms</text><text x="-10" y="-1.144000e+02" dominant-baseline="middle" stroke="none" vector-effect="non-scaling-stroke">400ms</text><text y="-1.496000e+02" dominant-baseline="middle" stroke="none" vector-effect="non-scaling-stroke" x="-10">600ms</text><text vector-effect="non-scaling-stroke" x="-10" y="-1.848000e+02" dominant-baseline="middle" stroke="none">800ms</text><text stroke="none" vector-effect="non-scaling-stroke" x="-10" y="-220" dominant-baseline="middle">1s</text><text stroke="none" vector-effect="non-scaling-stroke" x="-10" y="-2.552000e+02" dominant-baseline="middle">1.2s</text><text stroke="none" vector-effect="non-scaling-stroke" x="-10" y="-2.904000e+02" dominant-baseline="middle">1.4s</text><text y="-3.256000e+02" dominant-baseline="middle" stroke="none" vector-effect="non-scaling-stroke" x="-10">1.6s</text><text stroke="none" vector-effect="non-scaling-stroke" x="-10" y="-3.608000e+02" dominant-baseline="middle">1.8s</text><text vector-effect="non-scaling-stroke" x="-10" y="-396" dominant-baseline="middle" stroke="none">2s</text></g><g stroke-width="2px" stroke-linejoin="round" stroke-linecap="round" font-size="12px" fill="black" stroke="black" font-family="sans-serif" font-style="normal" font-weight="bold" dominant-baseline="hanging" text-anchor="middle" transform="translate(80 520 )scale(1 1 )rotate(-90 0 0 )"><text vector-effect="non-scaling-stroke" x="220" y="6" dominant-baseline="hanging" stroke="none">Runtime</text></g></g></g></svg>