<svg xmlns="http://www.w3.org/2000/svg" width="800" height="600" viewbox="0 0 800 600" preserveAspectRatio="xMidYMid meet"><defs><marker markerHeight="2%" id="circle" viewBox="0 0 10 10 " refX="5" refY="5" markerUnits="userSpaceOnUse" markerWidth="2%"><circle stroke="black" cx="5" cy="5" r="3" fill="none"/></marker><marker refY="5" markerUnits="userSpaceOnUse" markerWidth="2%" markerHeight="2%" id="filled-circle" viewBox="0 0 10 10 " refX="5"><circle stroke="none" cx="5" cy="5" r="3" fill="black"/></marker><marker id="square" viewBox="0 0 10 10 " refX="5" refY="5" markerUnits="userSpaceOnUse" markerWidth="2%" markerHeight="2%"><rect fill="none" stroke="black" x="2" y="2" width="6" height="6"/></marker><marker id="filled-square" viewBox="0 0 10 10 " refX="5" refY="5" markerUnits="userSpaceOnUse" markerWidth="2%" markerHeight="2%"><rect stroke="none" x="2" y="2" width="6" height="6" fill="black"/></marker></defs><g transform="translate(80 520 )scale(1 -1 )" fill="hsl(198, 47%, 65%)" stroke="hsl(198, 47%, 65%)" stroke-width="1px" stroke-linecap="round" stroke-linejoin="round"><rect vector-effect="non-scaling-stroke" x="5.546667e+01" y="0" width="5.688889e+00" height="4.400736e+01"/><rect x="7.680000e+01" y="0" width="5.688889e+00" height="4.401183e+01" vector-effect="non-scaling-stroke"/><rect y="0" width="5.688889e+00" height="4.401923e+01" vector-effect="non-scaling-stroke" x="9.813333e+01"/><rect y="0" width="5.688889e+00" height="4.508144e+01" vector-effect="non-scaling-stroke" x="1.194667e+02"/><rect y="0" width="5.688889e+00" height="9.928605e+01" vector-effect="non-scaling-stroke" x="1.408000e+02"/><rect vector-effect="non-scaling-stroke" x="1.621333e+02" y="0" width="5.688889e+00" height="5.507459e+01"/><rect vector-effect="non-scaling-stroke" x="1.834667e+02" y="0" width="5.688889e+00" height="4.585683e+01"/><rect vector-effect="non-scaling-stroke" x="2.048000e+02" y="0" width="5.688889e+00" height="4.442582e+01"/><rect width="5.688889e+00" height="4.402520e+01" vector-effect="non-scaling-stroke" x="2.261333e+02" y="0"/><rect height="4.429911e+01" vector-effect="non-scaling-stroke" x="2.474667e+02" y="0" width="5.688889e+00"/><rect vector-effect="non-scaling-stroke" x="2.688000e+02" y="0" width="5.688889e+00" height="4.409123e+01"/><rect vector-effect="non-scaling-stroke" x="2.901333e+02" y="0" width="5.688889e+00" height="4.606371e+01"/><rect height="6.236828e+01" vector-effect="non-scaling-stroke" x="3.114667e+02" y="0" width="5.688889e+00"/><rect y="0" width="5.688889e+00" height="6.264918e+01" vector-effect="non-scaling-stroke" x="3.328000e+02"/><rect y="0" width="5.688889e+00" height="396" vector-effect="non-scaling-stroke" x="3.541333e+02"/><rect vector-effect="non-scaling-stroke" x="3.754667e+02" y="0" width="5.688889e+00" height="2.000739e+02"/><rect x="3.968000e+02" y="0" width="5.688889e+00" height="2.093386e+02" vector-effect="non-scaling-stroke"/><rect y="0" width="5.688889e+00" height="4.935561e+01" vector-effect="non-scaling-stroke" x="4.181333e+02"/><rect height="4.414785e+01" vector-effect="non-scaling-stroke" x="4.394667e+02" y="0" width="5.688889e+00"/><rect y="0" width="5.688889e+00" height="2.750261e+02" vector-effect="non-scaling-stroke" x="4.608000e+02"/><rect vector-effect="non-scaling-stroke" x="4.821333e+02" y="0" width="5.688889e+00" height="8.955761e+01"/><rect y="0" width="5.688889e+00" height="8.441713e+01" vector-effect="non-scaling-stroke" x="5.034667e+02"/><rect vector-effect="non-scaling-stroke" x="5.248000e+02" y="0" width="5.688889e+00" height="4.516876e+01"/><rect y="0" width="5.688889e+00" height="1.257323e+02" vector-effect="non-scaling-stroke" x="5.461333e+02"/><rect height="6.553364e+01" vector-effect="non-scaling-stroke" x="5.674667e+02" y="0" width="5.688889e+00"/></g><g stroke-linecap="round" stroke-linejoin="round" transform="translate(80 520 )scale(1 -1 )" fill="hsl(49, 88%, 65%)" stroke="hsl(49, 88%, 65%)" stroke-width="1px"><rect vector-effect="non-scaling-stroke" x="6.115556e+01" y="0" width="5.688889e+00" height="4.400485e+01"/><rect y="0" width="5.688889e+00" height="4.400601e+01" vector-effect="non-scaling-stroke" x="8.248889e+01"/><rect y="0" width="5.688889e+00" height="4.400745e+01" vector-effect="non-scaling-stroke" x="1.038222e+02"/><rect width="5.688889e+00" height="4.603197e+01" vector-effect="non-scaling-stroke" x="1.251556e+02" y="0"/><rect vector-effect="non-scaling-stroke" x="1.464889e+02" y="0" width="5.688889e+00" height="7.238320e+01"/><rect width="5.688889e+00" height="4.470749e+01" vector-effect="non-scaling-stroke" x="1.678222e+02" y="0"/><rect y="0" width="5.688889e+00" height="4.443221e+01" vector-effect="non-scaling-stroke" x="1.891556e+02"/><rect vector-effect="non-scaling-stroke" x="2.104889e+02" y="0" width="5.688889e+00" height="4.414230e+01"/><rect x="2.318222e+02" y="0" width="5.688889e+00" height="4.403121e+01" vector-effect="non-scaling-stroke"/><rect width="5.688889e+00" height="4.407840e+01" vector-effect="non-scaling-stroke" x="2.531556e+02" y="0"/><rect x="2.744889e+02" y="0" width="5.688889e+00" height="4.405680e+01" vector-effect="non-scaling-stroke"/><rect height="4.451826e+01" vector-effect="non-scaling-stroke" x="2.958222e+02" y="0" width="5.688889e+00"/><rect y="0" width="5.688889e+00" height="2.877209e+02" vector-effect="non-scaling-stroke" x="3.171556e+02"/><rect height="5.940241e+01" vector-effect="non-scaling-stroke" x="3.384889e+02" y="0" width="5.688889e+00"/><rect y="0" width="5.688889e+00" height="3.246641e+02" vector-effect="non-scaling-stroke" x="3.598222e+02"/><rect y="0" width="5.688889e+00" height="5.728973e+01" vector-effect="non-scaling-stroke" x="3.811556e+02"/><rect vector-effect="non-scaling-stroke" x="4.024889e+02" y="0" width="5.688889e+00" height="2.019584e+02"/><rect width="5.688889e+00" height="4.400690e+01" vector-effect="non-scaling-stroke" x="4.238222e+02" y="0"/><rect x="4.451556e+02" y="0" width="5.688889e+00" height="4.402601e+01" vector-effect="non-scaling-stroke"/><rect vector-effect="non-scaling-stroke" x="4.664889e+02" y="0" width="5.688889e+00" height="5.432953e+01"/><rect y="0" width="5.688889e+00" height="4.400208e+01" vector-effect="non-scaling-stroke" x="4.878222e+02"/><rect width="5.688889e+00" height="8.339240e+01" vector-effect="non-scaling-stroke" x="5.091556e+02" y="0"/><rect y="0" width="5.688889e+00" height="4.402233e+01" vector-effect="non-scaling-stroke" x="5.304889e+02"/><rect x="5.518222e+02" y="0" width="5.688889e+00" height="1.000582e+02" vector-effect="non-scaling-stroke"/><rect vector-effect="non-scaling-stroke" x="5.731556e+02" y="0" width="5.688889e+00" height="7.376762e+01"/></g><g stroke-linecap="round" stroke-linejoin="round" transform="translate(80 520 )scale(1 -1 )" fill="hsl(260, 76%, 65%)" stroke="hsl(260, 76%, 65%)" stroke-width="1px"><rect width="5.688889e+00" height="4.400203e+01" vector-effect="non-scaling-stroke" x="6.684444e+01" y="0"/><rect vector-effect="non-scaling-stroke" x="8.817778e+01" y="0" width="5.688889e+00" height="4.400262e+01"/><rect height="4.403213e+01" vector-effect="non-scaling-stroke" x="1.095111e+02" y="0" width="5.688889e+00"/><rect vector-effect="non-scaling-stroke" x="1.308444e+02" y="0" width="5.688889e+00" height="4.432983e+01"/><rect height="7.863671e+01" vector-effect="non-scaling-stroke" x="1.521778e+02" y="0" width="5.688889e+00"/><rect x="1.735111e+02" y="0" width="5.688889e+00" height="4.425127e+01" vector-effect="non-scaling-stroke"/><rect width="5.688889e+00" height="4.406593e+01" vector-effect="non-scaling-stroke" x="1.948444e+02" y="0"/><rect vector-effect="non-scaling-stroke" x="2.161778e+02" y="0" width="5.688889e+00" height="4.401298e+01"/><rect vector-effect="non-scaling-stroke" x="2.375111e+02" y="0" width="5.688889e+00" height="4.401278e+01"/><rect vector-effect="non-scaling-stroke" x="2.588444e+02" y="0" width="5.688889e+00" height="4.456207e+01"/><rect y="0" width="5.688889e+00" height="4.400721e+01" vector-effect="non-scaling-stroke" x="2.801778e+02"/><rect vector-effect="non-scaling-stroke" x="3.015111e+02" y="0" width="5.688889e+00" height="4.403017e+01"/><rect y="0" width="5.688889e+00" height="5.427729e+01" vector-effect="non-scaling-stroke" x="3.228444e+02"/><rect y="0" width="5.688889e+00" height="6.716453e+01" vector-effect="non-scaling-stroke" x="3.441778e+02"/><rect height="3.164988e+02" vector-effect="non-scaling-stroke" x="3.655111e+02" y="0" width="5.688889e+00"/><rect vector-effect="non-scaling-stroke" x="3.868444e+02" y="0" width="5.688889e+00" height="4.737285e+01"/><rect y="0" width="5.688889e+00" height="1.841722e+02" vector-effect="non-scaling-stroke" x="4.081778e+02"/><rect vector-effect="non-scaling-stroke" x="4.295111e+02" y="0" width="5.688889e+00" height="4.400464e+01"/><rect x="4.508444e+02" y="0" width="5.688889e+00" height="4.401421e+01" vector-effect="non-scaling-stroke"/><rect x="4.721778e+02" y="0" width="5.688889e+00" height="9.172504e+01" vector-effect="non-scaling-stroke"/><rect vector-effect="non-scaling-stroke" x="4.935111e+02" y="0" width="5.688889e+00" height="4.400310e+01"/><rect width="5.688889e+00" height="8.200530e+01" vector-effect="non-scaling-stroke" x="5.148444e+02" y="0"/><rect height="4.402140e+01" vector-effect="non-scaling-stroke" x="5.361778e+02" y="0" width="5.688889e+00"/><rect vector-effect="non-scaling-stroke" x="5.575111e+02" y="0" width="5.688889e+00" height="9.073167e+01"/><rect height="6.829182e+01" vector-effect="non-scaling-stroke" x="5.788444e+02" y="0" width="5.688889e+00"/></g><g font-style="normal" text-anchor="start" dominant-baseline="hanging" stroke="hsl(198, 47%, 65%)" font-size="12px" fill="hsl(198, 47%, 65%)" stroke-width="1px" stroke-linejoin="round" font-weight="normal" font-family="sans-serif" stroke-linecap="round"><rect y="466" width="12" height="12" vector-effect="non-scaling-stroke" x="736"/><g fill="black" stroke="black"><text vector-effect="non-scaling-stroke" x="752" y="466" dominant-baseline="hanging" stroke="none">Golang</text></g><g stroke-linejoin="round" fill="hsl(49, 88%, 65%)" stroke-width="1px" font-size="12px" font-weight="normal" stroke="hsl(49, 88%, 65%)" stroke-linecap="round" font-style="normal" text-anchor="start" dominant-baseline="hanging" font-family="sans-serif"><rect vector-effect="non-scaling-stroke" x="736" y="484" width="12" height="12"/><g fill="black" stroke="black"><text dominant-baseline="hanging" stroke="none" vector-effect="non-scaling-stroke" x="752" y="484">Rust</text></g><g stroke="hsl(260, 76%, 65%)" dominant-baseline="hanging" fill="hsl(260, 76%, 65%)" stroke-width="1px" font-size="12px" stroke-linecap="round" stroke-linejoin="round" font-style="normal" text-anchor="start" font-family="sans-serif" font-weight="normal"><rect vector-effect="non-scaling-stroke" x="736" y="502" width="12" height="12"/><g stroke="black" fill="black"><text vector-effect="non-scaling-stroke" x="752" y="502" dominant-baseline="hanging" stroke="none">Zig</text><g stroke-width="2px" stroke-linejoin="round" fill="none" font-family="sans-serif" font-style="normal" text-anchor="start" dominant-baseline="hanging" font-size="12px" font-weight="normal" stroke-linecap="round"><rect height="440" vector-effect="non-scaling-stroke" x="80" y="80" width="640"/></g><g font-size="12px" font-weight="normal" transform="translate(80 520 )scale(1 -1 )" stroke-linejoin="round" font-style="normal" text-anchor="start" dominant-baseline="hanging" stroke-width="2px" stroke="black" stroke-linecap="round" fill="none" font-family="sans-serif"><path d="M64,0 L64,-6 M8.533333e+01,0 L8.533333e+01,-6 M1.066667e+02,0 L1.066667e+02,-6 M128,0 L128,-6 M1.493333e+02,0 L1.493333e+02,-6 M1.706667e+02,0 L1.706667e+02,-6 M192,0 L192,-6 M2.133333e+02,0 L2.133333e+02,-6 M2.346667e+02,0 L2.346667e+02,-6 M256,0 L256,-6 M2.773333e+02,0 L2.773333e+02,-6 M2.986667e+02,0 L2.986667e+02,-6 M320,0 L320,-6 M3.413333e+02,0 L3.413333e+02,-6 M3.626667e+02,0 L3.626667e+02,-6 M384,0 L384,-6 M4.053333e+02,0 L4.053333e+02,-6 M4.266667e+02,0 L4.266667e+02,-6 M448,0 L448,-6 M4.693333e+02,0 L4.693333e+02,-6 M4.906667e+02,0 L4.906667e+02,-6 M512,0 L512,-6 M5.333333e+02,0 L5.333333e+02,-6 M5.546667e+02,0 L5.546667e+02,-6 M576,0 L576,-6 " vector-effect="non-scaling-stroke"/></g><g font-style="normal" text-anchor="middle" dominant-baseline="hanging" font-size="12px" font-weight="normal" fill="black" stroke-width="2px" font-family="sans-serif" transform="translate(80 520 )scale(1 1 )" stroke="black" stroke-linecap="round" stroke-linejoin="round"><text dominant-baseline="hanging" stroke="none" vector-effect="non-scaling-stroke" x="64" y="10">1</text><text dominant-baseline="hanging" stroke="none" vector-effect="non-scaling-stroke" x="8.533333e+01" y="10">2</text><text dominant-baseline="hanging" stroke="none" vector-effect="non-scaling-stroke" x="1.066667e+02" y="10">3</text><text x="128" y="10" dominant-baseline="hanging" stroke="none" vector-effect="non-scaling-stroke">4</text><text vector-effect="non-scaling-stroke" x="1.493333e+02" y="10" dominant-baseline="hanging" stroke="none">5</text><text x="1.706667e+02" y="10" dominant-baseline="hanging" stroke="none" vector-effect="non-scaling-stroke">6</text><text x="192" y="10" dominant-baseline="hanging" stroke="none" vector-effect="non-scaling-stroke">7</text><text stroke="none" vector-effect="non-scaling-stroke" x="2.133333e+02" y="10" dominant-baseline="hanging">8</text><text vector-effect="non-scaling-stroke" x="2.346667e+02" y="10" dominant-baseline="hanging" stroke="none">9</text><text stroke="none" vector-effect="non-scaling-stroke" x="256" y="10" dominant-baseline="hanging">10</text><text vector-effect="non-scaling-stroke" x="2.773333e+02" y="10" dominant-baseline="hanging" stroke="none">11</text><text y="10" dominant-baseline="hanging" stroke="none" vector-effect="non-scaling-stroke" x="2.986667e+02">12</text><text x="320" y="10" dominant-baseline="hanging" stroke="none" vector-effect="non-scaling-stroke">13</text><text y="10" dominant-baseline="hanging" stroke="none" vector-effect="non-scaling-stroke" x="3.413333e+02">14</text><text stroke="none" vector-effect="non-scaling-stroke" x="3.626667e+02" y="10" dominant-baseline="hanging">15</text><text dominant-baseline="hanging" stroke="none" vector-effect="non-scaling-stroke" x="384" y="10">16</text><text x="4.053333e+02" y="10" dominant-baseline="hanging" stroke="none" vector-effect="non-scaling-stroke">17</text><text x="4.266667e+02" y="10" dominant-baseline="hanging" stroke="none" vector-effect="non-scaling-stroke">18</text><text vector-effect="non-scaling-stroke" x="448" y="10" dominant-baseline="hanging" stroke="none">19</text><text y="10" dominant-baseline="hanging" stroke="none" vector-effect="non-scaling-stroke" x="4.693333e+02">20</text><text stroke="none" vector-effect="non-scaling-stroke" x="4.906667e+02" y="10" dominant-baseline="hanging">21</text><text stroke="none" vector-effect="non-scaling-stroke" x="512" y="10" dominant-baseline="hanging">22</text><text vector-effect="non-scaling-stroke" x="5.333333e+02" y="10" dominant-baseline="hanging" stroke="none">23</text><text y="10" dominant-baseline="hanging" stroke="none" vector-effect="non-scaling-stroke" x="5.546667e+02">24</text><text dominant-baseline="hanging" stroke="none" vector-effect="non-scaling-stroke" x="576" y="10">25</text></g><g stroke-linecap="round" font-family="sans-serif" dominant-baseline="baseline" stroke="black" stroke-width="2px" stroke-linejoin="round" font-style="normal" text-anchor="middle" transform="translate(80 520 )scale(1 1 )rotate(0 0 0 )" font-size="12px" font-weight="bold" fill="black"><text stroke="none" vector-effect="non-scaling-stroke" x="320" y="-6" dominant-baseline="baseline">Day</text></g><g font-size="12px" font-weight="bold" stroke-width="2px" text-anchor="middle" stroke="black" dominant-baseline="baseline" transform="translate(80 520 )scale(1 -1 )" stroke-linecap="round" font-family="sans-serif" fill="black" stroke-linejoin="round" font-style="normal"><path vector-effect="non-scaling-stroke" d="M0,44 L-6,44 M0,1.129973e+02 L-6,1.129973e+02 M0,1.819945e+02 L-6,1.819945e+02 M0,2.509918e+02 L-6,2.509918e+02 M0,3.199891e+02 L-6,3.199891e+02 M0,3.889863e+02 L-6,3.889863e+02 "/></g><g stroke-linecap="round" stroke-linejoin="round" text-anchor="end" stroke="black" font-size="12px" fill="black" font-style="normal" dominant-baseline="middle" transform="translate(80 520 )scale(1 1 )" stroke-width="2px" font-family="sans-serif" font-weight="normal"><text vector-effect="non-scaling-stroke" x="-10" y="-44" dominant-baseline="middle" stroke="none">0s</text><text dominant-baseline="middle" stroke="none" vector-effect="non-scaling-stroke" x="-10" y="-1.129973e+02">100ms</text><text vector-effect="non-scaling-stroke" x="-10" y="-1.819945e+02" dominant-baseline="middle" stroke="none">200ms</text><text vector-effect="non-scaling-stroke" x="-10" y="-2.509918e+02" dominant-baseline="middle" stroke="none">300ms</text><text x="-10" y="-3.199891e+02" dominant-baseline="middle" stroke="none" vector-effect="non-scaling-stroke">400ms</text><text x="-10" y="-3.889863e+02" dominant-baseline="middle" stroke="none" vector-effect="non-scaling-stroke">500ms</text></g><g fill="black" font-size="12px" stroke-linecap="round" stroke-linejoin="round" stroke="black" font-style="normal" text-anchor="middle" stroke-width="2px" font-family="sans-serif" font-weight="bold" dominant-baseline="hanging" transform="translate(80 520 )scale(1 1 )rotate(-90 0 0 )"><text stroke="none" vector-effect="non-scaling-stroke" x="220" y="6" dominant-baseline="hanging">Runtime</text></g></g></g></g></g></svg>