<svg xmlns="http://www.w3.org/2000/svg" width="800" height="600" viewbox="0 0 800 600" preserveAspectRatio="xMidYMid meet"><defs><marker markerHeight="2%" id="circle" viewBox="0 0 10 10 " refX="5" refY="5" markerUnits="userSpaceOnUse" markerWidth="2%"><circle fill="none" stroke="black" cx="5" cy="5" r="3"/></marker><marker markerWidth="2%" markerHeight="2%" id="filled-circle" viewBox="0 0 10 10 " refX="5" refY="5" markerUnits="userSpaceOnUse"><circle stroke="none" cx="5" cy="5" r="3" fill="black"/></marker><marker markerWidth="2%" markerHeight="2%" id="square" viewBox="0 0 10 10 " refX="5" refY="5" markerUnits="userSpaceOnUse"><rect y="2" width="6" height="6" fill="none" stroke="black" x="2"/></marker><marker markerWidth="2%" markerHeight="2%" id="filled-square" viewBox="0 0 10 10 " refX="5" refY="5" markerUnits="userSpaceOnUse"><rect width="6" height="6" fill="black" stroke="none" x="2" y="2"/></marker></defs><g fill="hsl(198, 47%, 65%)" stroke="hsl(198, 47%, 65%)" stroke-width="1px" stroke-linecap="round" stroke-linejoin="round" transform="translate(80 520 )scale(1 -1 )"><rect height="4.411344e+01" vector-effect="non-scaling-stroke" x="5.546667e+01" y="0" width="8.533333e+00"/><rect x="7.680000e+01" y="0" width="8.533333e+00" height="4.488668e+01" vector-effect="non-scaling-stroke"/><rect x="9.813333e+01" y="0" width="8.533333e+00" height="5.956744e+01" vector-effect="non-scaling-stroke"/><rect width="8.533333e+00" height="4.450090e+01" vector-effect="non-scaling-stroke" x="1.194667e+02" y="0"/><rect vector-effect="non-scaling-stroke" x="1.408000e+02" y="0" width="8.533333e+00" height="8.910424e+01"/><rect y="0" width="8.533333e+00" height="4.930535e+01" vector-effect="non-scaling-stroke" x="1.621333e+02"/><rect height="4.403223e+01" vector-effect="non-scaling-stroke" x="1.834667e+02" y="0" width="8.533333e+00"/><rect vector-effect="non-scaling-stroke" x="2.048000e+02" y="0" width="8.533333e+00" height="4.404383e+01"/><rect x="2.261333e+02" y="0" width="8.533333e+00" height="7.965545e+01" vector-effect="non-scaling-stroke"/><rect width="8.533333e+00" height="4.421793e+01" vector-effect="non-scaling-stroke" x="2.474667e+02" y="0"/><rect y="0" width="8.533333e+00" height="4.889217e+01" vector-effect="non-scaling-stroke" x="2.688000e+02"/><rect x="2.901333e+02" y="0" width="8.533333e+00" height="4.433675e+01" vector-effect="non-scaling-stroke"/><rect vector-effect="non-scaling-stroke" x="3.114667e+02" y="0" width="8.533333e+00" height="4.502286e+01"/><rect x="3.328000e+02" y="0" width="8.533333e+00" height="6.472781e+01" vector-effect="non-scaling-stroke"/><rect vector-effect="non-scaling-stroke" x="3.541333e+02" y="0" width="8.533333e+00" height="1.206203e+02"/><rect width="8.533333e+00" height="4.688408e+01" vector-effect="non-scaling-stroke" x="3.754667e+02" y="0"/><rect x="3.968000e+02" y="0" width="8.533333e+00" height="5.206799e+01" vector-effect="non-scaling-stroke"/><rect vector-effect="non-scaling-stroke" x="4.181333e+02" y="0" width="8.533333e+00" height="7.533751e+01"/><rect vector-effect="non-scaling-stroke" x="4.394667e+02" y="0" width="8.533333e+00" height="5.500452e+01"/><rect x="4.608000e+02" y="0" width="8.533333e+00" height="4.908151e+01" vector-effect="non-scaling-stroke"/><rect x="4.821333e+02" y="0" width="8.533333e+00" height="9.013012e+01" vector-effect="non-scaling-stroke"/><rect x="5.034667e+02" y="0" width="8.533333e+00" height="4.986591e+02" vector-effect="non-scaling-stroke"/><rect width="8.533333e+00" height="7.252352e+01" vector-effect="non-scaling-stroke" x="5.248000e+02" y="0"/><rect vector-effect="non-scaling-stroke" x="5.461333e+02" y="0" width="8.533333e+00" height="6.058916e+01"/><rect width="8.533333e+00" height="4.549603e+01" vector-effect="non-scaling-stroke" x="5.674667e+02" y="0"/></g><g stroke-linecap="round" stroke-linejoin="round" transform="translate(80 520 )scale(1 -1 )" fill="hsl(49, 88%, 65%)" stroke="hsl(49, 88%, 65%)" stroke-width="1px"><rect y="0" width="8.533333e+00" height="4.412049e+01" vector-effect="non-scaling-stroke" x="64"/><rect y="0" width="8.533333e+00" height="4.408069e+01" vector-effect="non-scaling-stroke" x="8.533333e+01"/><rect height="4.480366e+01" vector-effect="non-scaling-stroke" x="1.066667e+02" y="0" width="8.533333e+00"/><rect vector-effect="non-scaling-stroke" x="128" y="0" width="8.533333e+00" height="4.400138e+01"/><rect width="8.533333e+00" height="4.491188e+01" vector-effect="non-scaling-stroke" x="1.493333e+02" y="0"/><rect vector-effect="non-scaling-stroke" x="1.706667e+02" y="0" width="8.533333e+00" height="4.526658e+01"/><rect x="192" y="0" width="8.533333e+00" height="4.400071e+01" vector-effect="non-scaling-stroke"/><rect height="4.401271e+01" vector-effect="non-scaling-stroke" x="2.133333e+02" y="0" width="8.533333e+00"/><rect width="8.533333e+00" height="5.126519e+01" vector-effect="non-scaling-stroke" x="2.346667e+02" y="0"/><rect vector-effect="non-scaling-stroke" x="2.560000e+02" y="0" width="8.533333e+00" height="4.400106e+01"/><rect height="4.443394e+01" vector-effect="non-scaling-stroke" x="2.773333e+02" y="0" width="8.533333e+00"/><rect width="8.533333e+00" height="4.401113e+01" vector-effect="non-scaling-stroke" x="2.986667e+02" y="0"/><rect height="4.458890e+01" vector-effect="non-scaling-stroke" x="320" y="0" width="8.533333e+00"/><rect width="8.533333e+00" height="6.202717e+01" vector-effect="non-scaling-stroke" x="3.413333e+02" y="0"/><rect height="7.028620e+01" vector-effect="non-scaling-stroke" x="3.626667e+02" y="0" width="8.533333e+00"/><rect y="0" width="8.533333e+00" height="4.402381e+01" vector-effect="non-scaling-stroke" x="384"/><rect y="0" width="8.533333e+00" height="4.414066e+01" vector-effect="non-scaling-stroke" x="4.053333e+02"/><rect y="0" width="8.533333e+00" height="4.750379e+01" vector-effect="non-scaling-stroke" x="4.266667e+02"/><rect width="8.533333e+00" height="5.208208e+01" vector-effect="non-scaling-stroke" x="448" y="0"/><rect vector-effect="non-scaling-stroke" x="4.693333e+02" y="0" width="8.533333e+00" height="4.403650e+01"/><rect vector-effect="non-scaling-stroke" x="4.906667e+02" y="0" width="8.533333e+00" height="4.402484e+01"/><rect y="0" width="8.533333e+00" height="4.644030e+01" vector-effect="non-scaling-stroke" x="512"/><rect y="0" width="8.533333e+00" height="5.547576e+01" vector-effect="non-scaling-stroke" x="5.333333e+02"/><rect vector-effect="non-scaling-stroke" x="5.546667e+02" y="0" width="8.533333e+00" height="5.265991e+01"/><rect y="0" width="8.533333e+00" height="4.433897e+01" vector-effect="non-scaling-stroke" x="576"/></g><g stroke-linejoin="round" font-family="sans-serif" font-style="normal" text-anchor="start" dominant-baseline="hanging" font-size="12px" fill="hsl(198, 47%, 65%)" stroke="hsl(198, 47%, 65%)" font-weight="normal" stroke-width="1px" stroke-linecap="round"><rect vector-effect="non-scaling-stroke" x="736" y="484" width="12" height="12"/><g fill="black" stroke="black"><text y="484" dominant-baseline="hanging" stroke="none" vector-effect="non-scaling-stroke" x="752">Golang</text></g><g text-anchor="start" fill="hsl(49, 88%, 65%)" stroke-width="1px" font-weight="normal" stroke-linejoin="round" dominant-baseline="hanging" stroke="hsl(49, 88%, 65%)" font-style="normal" font-family="sans-serif" font-size="12px" stroke-linecap="round"><rect x="736" y="502" width="12" height="12" vector-effect="non-scaling-stroke"/><g stroke="black" fill="black"><text y="502" dominant-baseline="hanging" stroke="none" vector-effect="non-scaling-stroke" x="752">Rust</text><g fill="none" text-anchor="start" stroke-linejoin="round" font-family="sans-serif" font-size="12px" font-style="normal" dominant-baseline="hanging" stroke-linecap="round" font-weight="normal" stroke-width="2px"><rect x="80" y="80" width="640" height="440" vector-effect="non-scaling-stroke"/></g><g stroke-linecap="round" font-family="sans-serif" font-size="12px" stroke="black" font-style="normal" text-anchor="start" dominant-baseline="hanging" fill="none" stroke-width="2px" stroke-linejoin="round" transform="translate(80 520 )scale(1 -1 )" font-weight="normal"><path vector-effect="non-scaling-stroke" d="M64,0 L64,-6 M8.533333e+01,0 L8.533333e+01,-6 M1.066667e+02,0 L1.066667e+02,-6 M128,0 L128,-6 M1.493333e+02,0 L1.493333e+02,-6 M1.706667e+02,0 L1.706667e+02,-6 M192,0 L192,-6 M2.133333e+02,0 L2.133333e+02,-6 M2.346667e+02,0 L2.346667e+02,-6 M256,0 L256,-6 M2.773333e+02,0 L2.773333e+02,-6 M2.986667e+02,0 L2.986667e+02,-6 M320,0 L320,-6 M3.413333e+02,0 L3.413333e+02,-6 M3.626667e+02,0 L3.626667e+02,-6 M384,0 L384,-6 M4.053333e+02,0 L4.053333e+02,-6 M4.266667e+02,0 L4.266667e+02,-6 M448,0 L448,-6 M4.693333e+02,0 L4.693333e+02,-6 M4.906667e+02,0 L4.906667e+02,-6 M512,0 L512,-6 M5.333333e+02,0 L5.333333e+02,-6 M5.546667e+02,0 L5.546667e+02,-6 M576,0 L576,-6 "/></g><g stroke-width="2px" stroke-linecap="round" stroke="black" font-weight="normal" font-family="sans-serif" font-size="12px" transform="translate(80 520 )scale(1 1 )" fill="black" stroke-linejoin="round" dominant-baseline="hanging" font-style="normal" text-anchor="middle"><text dominant-baseline="hanging" stroke="none" vector-effect="non-scaling-stroke" x="64" y="10">1</text><text dominant-baseline="hanging" stroke="none" vector-effect="non-scaling-stroke" x="8.533333e+01" y="10">2</text><text x="1.066667e+02" y="10" dominant-baseline="hanging" stroke="none" vector-effect="non-scaling-stroke">3</text><text dominant-baseline="hanging" stroke="none" vector-effect="non-scaling-stroke" x="128" y="10">4</text><text stroke="none" vector-effect="non-scaling-stroke" x="1.493333e+02" y="10" dominant-baseline="hanging">5</text><text stroke="none" vector-effect="non-scaling-stroke" x="1.706667e+02" y="10" dominant-baseline="hanging">6</text><text y="10" dominant-baseline="hanging" stroke="none" vector-effect="non-scaling-stroke" x="192">7</text><text y="10" dominant-baseline="hanging" stroke="none" vector-effect="non-scaling-stroke" x="2.133333e+02">8</text><text y="10" dominant-baseline="hanging" stroke="none" vector-effect="non-scaling-stroke" x="2.346667e+02">9</text><text stroke="none" vector-effect="non-scaling-stroke" x="256" y="10" dominant-baseline="hanging">10</text><text vector-effect="non-scaling-stroke" x="2.773333e+02" y="10" dominant-baseline="hanging" stroke="none">11</text><text x="2.986667e+02" y="10" dominant-baseline="hanging" stroke="none" vector-effect="non-scaling-stroke">12</text><text dominant-baseline="hanging" stroke="none" vector-effect="non-scaling-stroke" x="320" y="10">13</text><text stroke="none" vector-effect="non-scaling-stroke" x="3.413333e+02" y="10" dominant-baseline="hanging">14</text><text stroke="none" vector-effect="non-scaling-stroke" x="3.626667e+02" y="10" dominant-baseline="hanging">15</text><text vector-effect="non-scaling-stroke" x="384" y="10" dominant-baseline="hanging" stroke="none">16</text><text stroke="none" vector-effect="non-scaling-stroke" x="4.053333e+02" y="10" dominant-baseline="hanging">17</text><text stroke="none" vector-effect="non-scaling-stroke" x="4.266667e+02" y="10" dominant-baseline="hanging">18</text><text dominant-baseline="hanging" stroke="none" vector-effect="non-scaling-stroke" x="448" y="10">19</text><text y="10" dominant-baseline="hanging" stroke="none" vector-effect="non-scaling-stroke" x="4.693333e+02">20</text><text stroke="none" vector-effect="non-scaling-stroke" x="4.906667e+02" y="10" dominant-baseline="hanging">21</text><text stroke="none" vector-effect="non-scaling-stroke" x="512" y="10" dominant-baseline="hanging">22</text><text vector-effect="non-scaling-stroke" x="5.333333e+02" y="10" dominant-baseline="hanging" stroke="none">23</text><text dominant-baseline="hanging" stroke="none" vector-effect="non-scaling-stroke" x="5.546667e+02" y="10">24</text><text stroke="none" vector-effect="non-scaling-stroke" x="576" y="10" dominant-baseline="hanging">25</text></g><g font-weight="bold" text-anchor="middle" dominant-baseline="baseline" fill="black" stroke-width="2px" stroke-linecap="round" font-family="sans-serif" font-style="normal" stroke-linejoin="round" font-size="12px" transform="translate(80 520 )scale(1 1 )rotate(0 0 0 )" stroke="black"><text dominant-baseline="baseline" stroke="none" vector-effect="non-scaling-stroke" x="320" y="-6">Day</text></g><g text-anchor="middle" font-family="sans-serif" transform="translate(80 520 )scale(1 -1 )" fill="black" stroke-width="2px" stroke-linecap="round" dominant-baseline="baseline" font-size="12px" stroke-linejoin="round" stroke="black" font-style="normal" font-weight="bold"><path vector-effect="non-scaling-stroke" d="M0,44 L-6,44 M0,7.920000e+01 L-6,7.920000e+01 M0,1.144000e+02 L-6,1.144000e+02 M0,1.496000e+02 L-6,1.496000e+02 M0,1.848000e+02 L-6,1.848000e+02 M0,220 L-6,220 M0,2.552000e+02 L-6,2.552000e+02 M0,2.904000e+02 L-6,2.904000e+02 M0,3.256000e+02 L-6,3.256000e+02 M0,3.608000e+02 L-6,3.608000e+02 M0,396 L-6,396 "/></g><g font-style="normal" transform="translate(80 520 )scale(1 1 )" dominant-baseline="middle" stroke="black" stroke-width="2px" stroke-linecap="round" stroke-linejoin="round" font-family="sans-serif" font-weight="normal" text-anchor="end" font-size="12px" fill="black"><text y="-44" dominant-baseline="middle" stroke="none" vector-effect="non-scaling-stroke" x="-10">0s</text><text stroke="none" vector-effect="non-scaling-stroke" x="-10" y="-7.920000e+01" dominant-baseline="middle">200ms</text><text dominant-baseline="middle" stroke="none" vector-effect="non-scaling-stroke" x="-10" y="-1.144000e+02">400ms</text><text stroke="none" vector-effect="non-scaling-stroke" x="-10" y="-1.496000e+02" dominant-baseline="middle">600ms</text><text dominant-baseline="middle" stroke="none" vector-effect="non-scaling-stroke" x="-10" y="-1.848000e+02">800ms</text><text dominant-baseline="middle" stroke="none" vector-effect="non-scaling-stroke" x="-10" y="-220">1s</text><text vector-effect="non-scaling-stroke" x="-10" y="-2.552000e+02" dominant-baseline="middle" stroke="none">1.2s</text><text stroke="none" vector-effect="non-scaling-stroke" x="-10" y="-2.904000e+02" dominant-baseline="middle">1.4s</text><text x="-10" y="-3.256000e+02" dominant-baseline="middle" stroke="none" vector-effect="non-scaling-stroke">1.6s</text><text y="-3.608000e+02" dominant-baseline="middle" stroke="none" vector-effect="non-scaling-stroke" x="-10">1.8s</text><text vector-effect="non-scaling-stroke" x="-10" y="-396" dominant-baseline="middle" stroke="none">2s</text></g><g stroke="black" font-style="normal" font-weight="bold" stroke-linejoin="round" stroke-linecap="round" font-family="sans-serif" font-size="12px" transform="translate(80 520 )scale(1 1 )rotate(-90 0 0 )" text-anchor="middle" dominant-baseline="hanging" fill="black" stroke-width="2px"><text vector-effect="non-scaling-stroke" x="220" y="6" dominant-baseline="hanging" stroke="none">Runtime</text></g></g></g></g></svg>