<svg height="600" viewbox="0 0 800 600" preserveAspectRatio="xMidYMid meet" xmlns="http://www.w3.org/2000/svg" width="800"><defs><marker markerHeight="2%" id="circle" viewBox="0 0 10 10 " refX="5" refY="5" markerUnits="userSpaceOnUse" markerWidth="2%"><circle cx="5" cy="5" r="3" fill="none" stroke="black"/></marker><marker viewBox="0 0 10 10 " refX="5" refY="5" markerUnits="userSpaceOnUse" markerWidth="2%" markerHeight="2%" id="filled-circle"><circle cx="5" cy="5" r="3" fill="black" stroke="none"/></marker><marker refX="5" refY="5" markerUnits="userSpaceOnUse" markerWidth="2%" markerHeight="2%" id="square" viewBox="0 0 10 10 "><rect y="2" width="6" height="6" fill="none" stroke="black" x="2"/></marker><marker id="filled-square" viewBox="0 0 10 10 " refX="5" refY="5" markerUnits="userSpaceOnUse" markerWidth="2%" markerHeight="2%"><rect stroke="none" x="2" y="2" width="6" height="6" fill="black"/></marker></defs><g transform="translate(80 520 )scale(1 -1 )" fill="hsl(198, 47%, 65%)" stroke="hsl(198, 47%, 65%)" stroke-width="1px" stroke-linecap="round" stroke-linejoin="round"><rect vector-effect="non-scaling-stroke" x="5.546667e+01" y="0" width="5.688889e+00" height="4.401094e+01"/></g><g stroke-width="1px" stroke-linecap="round" stroke-linejoin="round" transform="translate(80 520 )scale(1 -1 )" fill="hsl(49, 88%, 65%)" stroke="hsl(49, 88%, 65%)"><rect width="5.688889e+00" height="4.400513e+01" vector-effect="non-scaling-stroke" x="6.115556e+01" y="0"/><rect height="4.413327e+01" vector-effect="non-scaling-stroke" x="8.248889e+01" y="0" width="5.688889e+00"/><rect vector-effect="non-scaling-stroke" x="1.038222e+02" y="0" width="5.688889e+00" height="4.413036e+01"/><rect height="2.882471e+02" vector-effect="non-scaling-stroke" x="1.251556e+02" y="0" width="5.688889e+00"/><rect x="1.464889e+02" y="0" width="5.688889e+00" height="4.409338e+01" vector-effect="non-scaling-stroke"/><rect y="0" width="5.688889e+00" height="6.525620e+01" vector-effect="non-scaling-stroke" x="1.678222e+02"/><rect vector-effect="non-scaling-stroke" x="1.891556e+02" y="0" width="5.688889e+00" height="4.405608e+01"/><rect height="4.400543e+01" vector-effect="non-scaling-stroke" x="2.104889e+02" y="0" width="5.688889e+00"/><rect height="4.657094e+01" vector-effect="non-scaling-stroke" x="2.318222e+02" y="0" width="5.688889e+00"/><rect x="2.531556e+02" y="0" width="5.688889e+00" height="6.482836e+01" vector-effect="non-scaling-stroke"/><rect width="5.688889e+00" height="5.294248e+01" vector-effect="non-scaling-stroke" x="2.744889e+02" y="0"/><rect x="2.958222e+02" y="0" width="5.688889e+00" height="5.770704e+01" vector-effect="non-scaling-stroke"/><rect vector-effect="non-scaling-stroke" x="3.171556e+02" y="0" width="5.688889e+00" height="6.995395e+01"/><rect height="4.405366e+01" vector-effect="non-scaling-stroke" x="3.384889e+02" y="0" width="5.688889e+00"/><rect width="5.688889e+00" height="6.199767e+01" vector-effect="non-scaling-stroke" x="3.598222e+02" y="0"/><rect vector-effect="non-scaling-stroke" x="3.811556e+02" y="0" width="5.688889e+00" height="4.409368e+01"/><rect vector-effect="non-scaling-stroke" x="4.024889e+02" y="0" width="5.688889e+00" height="5.977754e+01"/><rect vector-effect="non-scaling-stroke" x="4.238222e+02" y="0" width="5.688889e+00" height="4.507305e+01"/><rect width="5.688889e+00" height="4.406592e+01" vector-effect="non-scaling-stroke" x="4.451556e+02" y="0"/><rect vector-effect="non-scaling-stroke" x="4.664889e+02" y="0" width="5.688889e+00" height="1.173942e+03"/><rect width="5.688889e+00" height="4.411073e+01" vector-effect="non-scaling-stroke" x="4.878222e+02" y="0"/><rect vector-effect="non-scaling-stroke" x="5.091556e+02" y="0" width="5.688889e+00" height="5.108757e+02"/><rect vector-effect="non-scaling-stroke" x="5.304889e+02" y="0" width="5.688889e+00" height="4.400802e+01"/><rect vector-effect="non-scaling-stroke" x="5.518222e+02" y="0" width="5.688889e+00" height="8.500240e+01"/><rect height="4.400134e+01" vector-effect="non-scaling-stroke" x="5.731556e+02" y="0" width="5.688889e+00"/></g><g stroke-linecap="round" stroke-linejoin="round" transform="translate(80 520 )scale(1 -1 )" fill="hsl(260, 76%, 65%)" stroke="hsl(260, 76%, 65%)" stroke-width="1px"><rect vector-effect="non-scaling-stroke" x="6.684444e+01" y="0" width="5.688889e+00" height="4.400082e+01"/><rect x="8.817778e+01" y="0" width="5.688889e+00" height="4.402296e+01" vector-effect="non-scaling-stroke"/><rect vector-effect="non-scaling-stroke" x="1.095111e+02" y="0" width="5.688889e+00" height="4.417043e+01"/><rect width="5.688889e+00" height="4.136812e+02" vector-effect="non-scaling-stroke" x="1.308444e+02" y="0"/><rect height="4.406756e+01" vector-effect="non-scaling-stroke" x="1.521778e+02" y="0" width="5.688889e+00"/><rect vector-effect="non-scaling-stroke" x="1.735111e+02" y="0" width="5.688889e+00" height="5.380277e+01"/><rect height="4.407687e+01" vector-effect="non-scaling-stroke" x="1.948444e+02" y="0" width="5.688889e+00"/><rect y="0" width="5.688889e+00" height="4.401355e+01" vector-effect="non-scaling-stroke" x="2.161778e+02"/><rect y="0" width="5.688889e+00" height="4.568534e+01" vector-effect="non-scaling-stroke" x="2.375111e+02"/><rect y="0" width="5.688889e+00" height="2.481995e+02" vector-effect="non-scaling-stroke" x="2.588444e+02"/><rect vector-effect="non-scaling-stroke" x="2.801778e+02" y="0" width="5.688889e+00" height="6.116998e+01"/><rect width="5.688889e+00" height="4.409562e+01" vector-effect="non-scaling-stroke" x="3.015111e+02" y="0"/><rect x="3.228444e+02" y="0" width="5.688889e+00" height="7.558977e+01" vector-effect="non-scaling-stroke"/><rect vector-effect="non-scaling-stroke" x="3.441778e+02" y="0" width="5.688889e+00" height="4.417322e+01"/><rect y="0" width="5.688889e+00" height="5.743923e+01" vector-effect="non-scaling-stroke" x="3.655111e+02"/><rect vector-effect="non-scaling-stroke" x="3.868444e+02" y="0" width="5.688889e+00" height="4.408968e+01"/><rect height="5.555177e+01" vector-effect="non-scaling-stroke" x="4.081778e+02" y="0" width="5.688889e+00"/><rect vector-effect="non-scaling-stroke" x="4.295111e+02" y="0" width="5.688889e+00" height="4.873322e+01"/><rect x="4.508444e+02" y="0" width="5.688889e+00" height="4.429103e+01" vector-effect="non-scaling-stroke"/><rect x="4.721778e+02" y="0" width="5.688889e+00" height="6.099288e+02" vector-effect="non-scaling-stroke"/><rect y="0" width="5.688889e+00" height="4.401170e+01" vector-effect="non-scaling-stroke" x="4.935111e+02"/><rect width="5.688889e+00" height="1.812254e+02" vector-effect="non-scaling-stroke" x="5.148444e+02" y="0"/><rect vector-effect="non-scaling-stroke" x="5.361778e+02" y="0" width="5.688889e+00" height="4.400172e+01"/><rect y="0" width="5.688889e+00" height="4.643980e+01" vector-effect="non-scaling-stroke" x="5.575111e+02"/><rect height="4.400011e+01" vector-effect="non-scaling-stroke" x="5.788444e+02" y="0" width="5.688889e+00"/></g><g stroke-linecap="round" font-size="12px" font-weight="normal" stroke-width="1px" font-style="normal" text-anchor="start" dominant-baseline="hanging" fill="hsl(198, 47%, 65%)" stroke="hsl(198, 47%, 65%)" stroke-linejoin="round" font-family="sans-serif"><rect width="12" height="12" vector-effect="non-scaling-stroke" x="736" y="466"/><g stroke="black" fill="black"><text vector-effect="non-scaling-stroke" x="752" y="466" dominant-baseline="hanging" stroke="none">Crystal</text></g><g font-size="12px" dominant-baseline="hanging" fill="hsl(49, 88%, 65%)" stroke="hsl(49, 88%, 65%)" stroke-linejoin="round" font-weight="normal" text-anchor="start" stroke-linecap="round" font-style="normal" stroke-width="1px" font-family="sans-serif"><rect height="12" vector-effect="non-scaling-stroke" x="736" y="484" width="12"/><g fill="black" stroke="black"><text y="484" dominant-baseline="hanging" stroke="none" vector-effect="non-scaling-stroke" x="752">Golang</text></g><g font-style="normal" font-family="sans-serif" font-weight="normal" text-anchor="start" fill="hsl(260, 76%, 65%)" stroke="hsl(260, 76%, 65%)" stroke-linecap="round" dominant-baseline="hanging" stroke-width="1px" stroke-linejoin="round" font-size="12px"><rect vector-effect="non-scaling-stroke" x="736" y="502" width="12" height="12"/><g stroke="black" fill="black"><text dominant-baseline="hanging" stroke="none" vector-effect="non-scaling-stroke" x="752" y="502">Rust</text><g font-style="normal" stroke-width="2px" font-weight="normal" text-anchor="start" fill="none" stroke-linejoin="round" font-family="sans-serif" dominant-baseline="hanging" stroke-linecap="round" font-size="12px"><rect width="640" height="440" vector-effect="non-scaling-stroke" x="80" y="80"/></g><g font-size="12px" font-family="sans-serif" font-weight="normal" text-anchor="start" dominant-baseline="hanging" fill="none" stroke-linejoin="round" stroke-linecap="round" font-style="normal" transform="translate(80 520 )scale(1 -1 )" stroke="black" stroke-width="2px"><path vector-effect="non-scaling-stroke" d="M64,0 L64,-6 "/></g><g stroke-linejoin="round" stroke-linecap="round" font-style="normal" transform="translate(80 520 )scale(1 1 )" font-weight="normal" fill="black" stroke="black" stroke-width="2px" font-size="12px" font-family="sans-serif" text-anchor="middle" dominant-baseline="hanging"><text vector-effect="non-scaling-stroke" x="64" y="10" dominant-baseline="hanging" stroke="none">1</text></g><g transform="translate(80 520 )scale(1 1 )rotate(0 0 0 )" font-family="sans-serif" dominant-baseline="baseline" stroke-linejoin="round" stroke-linecap="round" font-size="12px" font-style="normal" font-weight="bold" text-anchor="middle" fill="black" stroke="black" stroke-width="2px"><text stroke="none" vector-effect="non-scaling-stroke" x="320" y="-6" dominant-baseline="baseline">Day</text></g><g stroke-linejoin="round" font-size="12px" transform="translate(80 520 )scale(1 -1 )" text-anchor="middle" fill="black" stroke="black" stroke-width="2px" font-style="normal" font-weight="bold" dominant-baseline="baseline" font-family="sans-serif" stroke-linecap="round"><path vector-effect="non-scaling-stroke" d="M0,44 L-6,44 M0,7.920000e+01 L-6,7.920000e+01 M0,1.144000e+02 L-6,1.144000e+02 M0,1.496000e+02 L-6,1.496000e+02 M0,1.848000e+02 L-6,1.848000e+02 M0,220 L-6,220 M0,2.552000e+02 L-6,2.552000e+02 M0,2.904000e+02 L-6,2.904000e+02 M0,3.256000e+02 L-6,3.256000e+02 M0,3.608000e+02 L-6,3.608000e+02 M0,396 L-6,396 "/></g><g stroke-width="2px" stroke-linejoin="round" text-anchor="end" dominant-baseline="middle" stroke="black" font-style="normal" stroke-linecap="round" font-family="sans-serif" font-weight="normal" fill="black" transform="translate(80 520 )scale(1 1 )" font-size="12px"><text y="-44" dominant-baseline="middle" stroke="none" vector-effect="non-scaling-stroke" x="-10">0s</text><text vector-effect="non-scaling-stroke" x="-10" y="-7.920000e+01" dominant-baseline="middle" stroke="none">200ms</text><text x="-10" y="-1.144000e+02" dominant-baseline="middle" stroke="none" vector-effect="non-scaling-stroke">400ms</text><text y="-1.496000e+02" dominant-baseline="middle" stroke="none" vector-effect="non-scaling-stroke" x="-10">600ms</text><text stroke="none" vector-effect="non-scaling-stroke" x="-10" y="-1.848000e+02" dominant-baseline="middle">800ms</text><text y="-220" dominant-baseline="middle" stroke="none" vector-effect="non-scaling-stroke" x="-10">1s</text><text vector-effect="non-scaling-stroke" x="-10" y="-2.552000e+02" dominant-baseline="middle" stroke="none">1.2s</text><text vector-effect="non-scaling-stroke" x="-10" y="-2.904000e+02" dominant-baseline="middle" stroke="none">1.4s</text><text dominant-baseline="middle" stroke="none" vector-effect="non-scaling-stroke" x="-10" y="-3.256000e+02">1.6s</text><text vector-effect="non-scaling-stroke" x="-10" y="-3.608000e+02" dominant-baseline="middle" stroke="none">1.8s</text><text vector-effect="non-scaling-stroke" x="-10" y="-396" dominant-baseline="middle" stroke="none">2s</text></g><g stroke="black" stroke-width="2px" stroke-linejoin="round" dominant-baseline="hanging" font-size="12px" font-style="normal" font-family="sans-serif" font-weight="bold" text-anchor="middle" fill="black" transform="translate(80 520 )scale(1 1 )rotate(-90 0 0 )" stroke-linecap="round"><text stroke="none" vector-effect="non-scaling-stroke" x="220" y="6" dominant-baseline="hanging">Runtime</text></g></g></g></g></g></svg>