<svg preserveAspectRatio="xMidYMid meet" xmlns="http://www.w3.org/2000/svg" width="800" height="600" viewbox="0 0 800 600"><defs><marker refY="5" markerUnits="userSpaceOnUse" markerWidth="2%" markerHeight="2%" id="circle" viewBox="0 0 10 10 " refX="5"><circle cx="5" cy="5" r="3" fill="none" stroke="black"/></marker><marker markerHeight="2%" id="filled-circle" viewBox="0 0 10 10 " refX="5" refY="5" markerUnits="userSpaceOnUse" markerWidth="2%"><circle fill="black" stroke="none" cx="5" cy="5" r="3"/></marker><marker markerWidth="2%" markerHeight="2%" id="square" viewBox="0 0 10 10 " refX="5" refY="5" markerUnits="userSpaceOnUse"><rect y="2" width="6" height="6" fill="none" stroke="black" x="2"/></marker><marker viewBox="0 0 10 10 " refX="5" refY="5" markerUnits="userSpaceOnUse" markerWidth="2%" markerHeight="2%" id="filled-square"><rect width="6" height="6" fill="black" stroke="none" x="2" y="2"/></marker></defs><g stroke-width="1px" stroke-linecap="round" stroke-linejoin="round" transform="translate(80 520 )scale(1 -1 )" fill="hsl(198, 47%, 65%)" stroke="hsl(198, 47%, 65%)"><rect height="4.400024e+01" vector-effect="non-scaling-stroke" x="5.546667e+01" y="0" width="4.266667e+00"/><rect vector-effect="non-scaling-stroke" x="7.680000e+01" y="0" width="4.266667e+00" height="4.410564e+01"/><rect y="0" width="4.266667e+00" height="4.843495e+01" vector-effect="non-scaling-stroke" x="9.813333e+01"/><rect y="0" width="4.266667e+00" height="4.429723e+01" vector-effect="non-scaling-stroke" x="1.194667e+02"/><rect width="4.266667e+00" height="4.400436e+01" vector-effect="non-scaling-stroke" x="1.408000e+02" y="0"/><rect width="4.266667e+00" height="4.400037e+01" vector-effect="non-scaling-stroke" x="1.621333e+02" y="0"/><rect x="1.834667e+02" y="0" width="4.266667e+00" height="4.464469e+01" vector-effect="non-scaling-stroke"/><rect vector-effect="non-scaling-stroke" x="2.048000e+02" y="0" width="4.266667e+00" height="4.400521e+01"/><rect height="5.037476e+01" vector-effect="non-scaling-stroke" x="2.261333e+02" y="0" width="4.266667e+00"/><rect vector-effect="non-scaling-stroke" x="2.474667e+02" y="0" width="4.266667e+00" height="4.783011e+01"/><rect y="0" width="4.266667e+00" height="4.602192e+01" vector-effect="non-scaling-stroke" x="2.688000e+02"/><rect width="4.266667e+00" height="7.154946e+01" vector-effect="non-scaling-stroke" x="2.901333e+02" y="0"/><rect vector-effect="non-scaling-stroke" x="3.114667e+02" y="0" width="4.266667e+00" height="5.748413e+01"/><rect height="4.451795e+01" vector-effect="non-scaling-stroke" x="3.328000e+02" y="0" width="4.266667e+00"/><rect vector-effect="non-scaling-stroke" x="3.541333e+02" y="0" width="4.266667e+00" height="4.783742e+01"/><rect width="4.266667e+00" height="7.218869e+01" vector-effect="non-scaling-stroke" x="3.754667e+02" y="0"/><rect y="0" width="4.266667e+00" height="4.608259e+01" vector-effect="non-scaling-stroke" x="3.968000e+02"/><rect height="9.262458e+01" vector-effect="non-scaling-stroke" x="4.394667e+02" y="0" width="4.266667e+00"/><rect y="0" width="4.266667e+00" height="9.256104e+01" vector-effect="non-scaling-stroke" x="4.608000e+02"/><rect vector-effect="non-scaling-stroke" x="4.821333e+02" y="0" width="4.266667e+00" height="5.417042e+01"/><rect vector-effect="non-scaling-stroke" x="5.034667e+02" y="0" width="4.266667e+00" height="4.400037e+01"/><rect width="4.266667e+00" height="5.005348e+01" vector-effect="non-scaling-stroke" x="5.248000e+02" y="0"/><rect height="4.772411e+01" vector-effect="non-scaling-stroke" x="5.461333e+02" y="0" width="4.266667e+00"/><rect height="1.892715e+02" vector-effect="non-scaling-stroke" x="5.674667e+02" y="0" width="4.266667e+00"/></g><g stroke-linejoin="round" transform="translate(80 520 )scale(1 -1 )" fill="hsl(49, 88%, 65%)" stroke="hsl(49, 88%, 65%)" stroke-width="1px" stroke-linecap="round"><rect width="4.266667e+00" height="4.400160e+01" vector-effect="non-scaling-stroke" x="5.973333e+01" y="0"/><rect vector-effect="non-scaling-stroke" x="8.106667e+01" y="0" width="4.266667e+00" height="4.452255e+01"/><rect vector-effect="non-scaling-stroke" x="1.024000e+02" y="0" width="4.266667e+00" height="4.643943e+01"/><rect vector-effect="non-scaling-stroke" x="1.237333e+02" y="0" width="4.266667e+00" height="4.828531e+01"/><rect y="0" width="4.266667e+00" height="4.400817e+01" vector-effect="non-scaling-stroke" x="1.450667e+02"/><rect y="0" width="4.266667e+00" height="4.448840e+01" vector-effect="non-scaling-stroke" x="1.664000e+02"/><rect height="4.492234e+01" vector-effect="non-scaling-stroke" x="1.877333e+02" y="0" width="4.266667e+00"/><rect y="0" width="4.266667e+00" height="4.402409e+01" vector-effect="non-scaling-stroke" x="2.090667e+02"/><rect y="0" width="4.266667e+00" height="5.297217e+01" vector-effect="non-scaling-stroke" x="2.304000e+02"/><rect vector-effect="non-scaling-stroke" x="2.517333e+02" y="0" width="4.266667e+00" height="4.542406e+01"/><rect vector-effect="non-scaling-stroke" x="2.730667e+02" y="0" width="4.266667e+00" height="4.599523e+01"/><rect vector-effect="non-scaling-stroke" x="2.944000e+02" y="0" width="4.266667e+00" height="6.540043e+01"/><rect vector-effect="non-scaling-stroke" x="3.157333e+02" y="0" width="4.266667e+00" height="6.139180e+01"/><rect width="4.266667e+00" height="4.502342e+01" vector-effect="non-scaling-stroke" x="3.370667e+02" y="0"/><rect y="0" width="4.266667e+00" height="4.920817e+01" vector-effect="non-scaling-stroke" x="3.584000e+02"/><rect width="4.266667e+00" height="8.461365e+01" vector-effect="non-scaling-stroke" x="3.797333e+02" y="0"/><rect y="0" width="4.266667e+00" height="4.648353e+01" vector-effect="non-scaling-stroke" x="4.010667e+02"/><rect x="4.224000e+02" y="0" width="4.266667e+00" height="1.672193e+03" vector-effect="non-scaling-stroke"/><rect y="0" width="4.266667e+00" height="9.237446e+01" vector-effect="non-scaling-stroke" x="4.437333e+02"/><rect height="8.554862e+01" vector-effect="non-scaling-stroke" x="4.650667e+02" y="0" width="4.266667e+00"/><rect vector-effect="non-scaling-stroke" x="4.864000e+02" y="0" width="4.266667e+00" height="5.638581e+01"/><rect vector-effect="non-scaling-stroke" x="5.077333e+02" y="0" width="4.266667e+00" height="4.401620e+01"/><rect y="0" width="4.266667e+00" height="5.008903e+01" vector-effect="non-scaling-stroke" x="5.290667e+02"/><rect vector-effect="non-scaling-stroke" x="5.504000e+02" y="0" width="4.266667e+00" height="4.995377e+01"/><rect height="2.965812e+02" vector-effect="non-scaling-stroke" x="5.717333e+02" y="0" width="4.266667e+00"/></g><g transform="translate(80 520 )scale(1 -1 )" fill="hsl(260, 76%, 65%)" stroke="hsl(260, 76%, 65%)" stroke-width="1px" stroke-linecap="round" stroke-linejoin="round"><rect width="4.266667e+00" height="4.400096e+01" vector-effect="non-scaling-stroke" x="6.400000e+01" y="0"/><rect vector-effect="non-scaling-stroke" x="8.533333e+01" y="0" width="4.266667e+00" height="4.485743e+01"/><rect y="0" width="4.266667e+00" height="4.524482e+01" vector-effect="non-scaling-stroke" x="1.066667e+02"/><rect width="4.266667e+00" height="4.420153e+01" vector-effect="non-scaling-stroke" x="1.280000e+02" y="0"/><rect vector-effect="non-scaling-stroke" x="1.493333e+02" y="0" width="4.266667e+00" height="4.401036e+01"/><rect height="4.960097e+01" vector-effect="non-scaling-stroke" x="1.706667e+02" y="0" width="4.266667e+00"/><rect y="0" width="4.266667e+00" height="4.490564e+01" vector-effect="non-scaling-stroke" x="192"/><rect width="4.266667e+00" height="4.402983e+01" vector-effect="non-scaling-stroke" x="2.133333e+02" y="0"/><rect width="4.266667e+00" height="4.449311e+01" vector-effect="non-scaling-stroke" x="2.346667e+02" y="0"/><rect width="4.266667e+00" height="4.665952e+01" vector-effect="non-scaling-stroke" x="256" y="0"/><rect x="2.773333e+02" y="0" width="4.266667e+00" height="4.451892e+01" vector-effect="non-scaling-stroke"/><rect height="4.570981e+01" vector-effect="non-scaling-stroke" x="2.986667e+02" y="0" width="4.266667e+00"/><rect y="0" width="4.266667e+00" height="4.560734e+01" vector-effect="non-scaling-stroke" x="320"/><rect vector-effect="non-scaling-stroke" x="3.413333e+02" y="0" width="4.266667e+00" height="4.507032e+01"/><rect width="4.266667e+00" height="4.743835e+01" vector-effect="non-scaling-stroke" x="3.626667e+02" y="0"/><rect x="384" y="0" width="4.266667e+00" height="7.556434e+01" vector-effect="non-scaling-stroke"/><rect width="4.266667e+00" height="4.419495e+01" vector-effect="non-scaling-stroke" x="4.053333e+02" y="0"/><rect y="0" width="4.266667e+00" height="1.294072e+02" vector-effect="non-scaling-stroke" x="4.266667e+02"/><rect x="448" y="0" width="4.266667e+00" height="5.874068e+01" vector-effect="non-scaling-stroke"/><rect y="0" width="4.266667e+00" height="5.430312e+01" vector-effect="non-scaling-stroke" x="4.693333e+02"/><rect y="0" width="4.266667e+00" height="4.484129e+01" vector-effect="non-scaling-stroke" x="4.906667e+02"/><rect x="512" y="0" width="4.266667e+00" height="4.403714e+01" vector-effect="non-scaling-stroke"/><rect x="5.333333e+02" y="0" width="4.266667e+00" height="4.529260e+01" vector-effect="non-scaling-stroke"/><rect vector-effect="non-scaling-stroke" x="5.546667e+02" y="0" width="4.266667e+00" height="8.364251e+01"/><rect vector-effect="non-scaling-stroke" x="576" y="0" width="4.266667e+00" height="5.893277e+01"/></g><g stroke="hsl(111, 64%, 65%)" stroke-width="1px" stroke-linecap="round" stroke-linejoin="round" transform="translate(80 520 )scale(1 -1 )" fill="hsl(111, 64%, 65%)"><rect y="0" width="4.266667e+00" height="4.400015e+01" vector-effect="non-scaling-stroke" x="6.826667e+01"/><rect width="4.266667e+00" height="4.439247e+01" vector-effect="non-scaling-stroke" x="8.960000e+01" y="0"/><rect vector-effect="non-scaling-stroke" x="1.109333e+02" y="0" width="4.266667e+00" height="4.400652e+01"/><rect height="4.410411e+01" vector-effect="non-scaling-stroke" x="1.322667e+02" y="0" width="4.266667e+00"/><rect vector-effect="non-scaling-stroke" x="1.536000e+02" y="0" width="4.266667e+00" height="4.400052e+01"/><rect y="0" width="4.266667e+00" height="4.402429e+01" vector-effect="non-scaling-stroke" x="1.749333e+02"/><rect height="4.409003e+01" vector-effect="non-scaling-stroke" x="1.962667e+02" y="0" width="4.266667e+00"/><rect vector-effect="non-scaling-stroke" x="2.176000e+02" y="0" width="4.266667e+00" height="4.400338e+01"/><rect vector-effect="non-scaling-stroke" x="2.389333e+02" y="0" width="4.266667e+00" height="4.431369e+01"/><rect vector-effect="non-scaling-stroke" x="2.602667e+02" y="0" width="4.266667e+00" height="4.419451e+01"/><rect x="2.816000e+02" y="0" width="4.266667e+00" height="4.408759e+01" vector-effect="non-scaling-stroke"/><rect x="3.029333e+02" y="0" width="4.266667e+00" height="4.462379e+01" vector-effect="non-scaling-stroke"/><rect vector-effect="non-scaling-stroke" x="3.242667e+02" y="0" width="4.266667e+00" height="4.400113e+01"/><rect y="0" width="4.266667e+00" height="4.437569e+01" vector-effect="non-scaling-stroke" x="3.456000e+02"/><rect width="4.266667e+00" height="4.400163e+01" vector-effect="non-scaling-stroke" x="3.669333e+02" y="0"/><rect x="3.882667e+02" y="0" width="4.266667e+00" height="6.680134e+01" vector-effect="non-scaling-stroke"/><rect height="4.400092e+01" vector-effect="non-scaling-stroke" x="4.096000e+02" y="0" width="4.266667e+00"/><rect vector-effect="non-scaling-stroke" x="4.309333e+02" y="0" width="4.266667e+00" height="6.765630e+01"/><rect width="4.266667e+00" height="4.400109e+01" vector-effect="non-scaling-stroke" x="4.522667e+02" y="0"/><rect y="0" width="4.266667e+00" height="4.495331e+01" vector-effect="non-scaling-stroke" x="4.736000e+02"/><rect width="4.266667e+00" height="4.400091e+01" vector-effect="non-scaling-stroke" x="4.949333e+02" y="0"/><rect vector-effect="non-scaling-stroke" x="5.162667e+02" y="0" width="4.266667e+00" height="4.400051e+01"/><rect vector-effect="non-scaling-stroke" x="5.376000e+02" y="0" width="4.266667e+00" height="4.400167e+01"/><rect width="4.266667e+00" height="4.474824e+01" vector-effect="non-scaling-stroke" x="5.589333e+02" y="0"/><rect width="4.266667e+00" height="4.400214e+01" vector-effect="non-scaling-stroke" x="5.802667e+02" y="0"/></g><g text-anchor="start" font-family="sans-serif" font-weight="normal" stroke="hsl(198, 47%, 65%)" stroke-linejoin="round" fill="hsl(198, 47%, 65%)" font-style="normal" font-size="12px" dominant-baseline="hanging" stroke-width="1px" stroke-linecap="round"><rect y="448" width="12" height="12" vector-effect="non-scaling-stroke" x="736"/><g fill="black" stroke="black"><text stroke="none" vector-effect="non-scaling-stroke" x="752" y="448" dominant-baseline="hanging">C++</text></g><g font-weight="normal" fill="hsl(49, 88%, 65%)" stroke="hsl(49, 88%, 65%)" stroke-linecap="round" font-family="sans-serif" font-size="12px" font-style="normal" text-anchor="start" dominant-baseline="hanging" stroke-width="1px" stroke-linejoin="round"><rect y="466" width="12" height="12" vector-effect="non-scaling-stroke" x="736"/><g fill="black" stroke="black"><text y="466" dominant-baseline="hanging" stroke="none" vector-effect="non-scaling-stroke" x="752">Crystal</text></g><g stroke="hsl(260, 76%, 65%)" stroke-width="1px" stroke-linecap="round" stroke-linejoin="round" font-family="sans-serif" dominant-baseline="hanging" font-style="normal" text-anchor="start" font-size="12px" font-weight="normal" fill="hsl(260, 76%, 65%)"><rect vector-effect="non-scaling-stroke" x="736" y="484" width="12" height="12"/><g fill="black" stroke="black"><text stroke="none" vector-effect="non-scaling-stroke" x="752" y="484" dominant-baseline="hanging">Golang</text></g><g font-size="12px" font-style="normal" text-anchor="start" stroke="hsl(111, 64%, 65%)" stroke-linejoin="round" stroke-linecap="round" font-family="sans-serif" fill="hsl(111, 64%, 65%)" font-weight="normal" dominant-baseline="hanging" stroke-width="1px"><rect vector-effect="non-scaling-stroke" x="736" y="502" width="12" height="12"/><g fill="black" stroke="black"><text y="502" dominant-baseline="hanging" stroke="none" vector-effect="non-scaling-stroke" x="752">Rust</text><g font-size="12px" fill="none" text-anchor="start" stroke-linecap="round" font-family="sans-serif" stroke-width="2px" font-weight="normal" dominant-baseline="hanging" font-style="normal" stroke-linejoin="round"><rect vector-effect="non-scaling-stroke" x="80" y="80" width="640" height="440"/></g><g transform="translate(80 520 )scale(1 -1 )" dominant-baseline="hanging" stroke="black" stroke-linejoin="round" text-anchor="start" font-style="normal" font-family="sans-serif" font-size="12px" font-weight="normal" stroke-width="2px" stroke-linecap="round" fill="none"><path vector-effect="non-scaling-stroke" d="M64,0 L64,-6 M8.533333e+01,0 L8.533333e+01,-6 M1.066667e+02,0 L1.066667e+02,-6 M128,0 L128,-6 M1.493333e+02,0 L1.493333e+02,-6 M1.706667e+02,0 L1.706667e+02,-6 M192,0 L192,-6 M2.133333e+02,0 L2.133333e+02,-6 M2.346667e+02,0 L2.346667e+02,-6 M256,0 L256,-6 M2.773333e+02,0 L2.773333e+02,-6 M2.986667e+02,0 L2.986667e+02,-6 M320,0 L320,-6 M3.413333e+02,0 L3.413333e+02,-6 M3.626667e+02,0 L3.626667e+02,-6 M384,0 L384,-6 M4.053333e+02,0 L4.053333e+02,-6 M448,0 L448,-6 M4.693333e+02,0 L4.693333e+02,-6 M4.906667e+02,0 L4.906667e+02,-6 M512,0 L512,-6 M5.333333e+02,0 L5.333333e+02,-6 M5.546667e+02,0 L5.546667e+02,-6 M576,0 L576,-6 "/></g><g font-family="sans-serif" font-size="12px" dominant-baseline="hanging" text-anchor="middle" stroke="black" stroke-width="2px" stroke-linecap="round" stroke-linejoin="round" transform="translate(80 520 )scale(1 1 )" font-weight="normal" fill="black" font-style="normal"><text y="10" dominant-baseline="hanging" stroke="none" vector-effect="non-scaling-stroke" x="64">1</text><text stroke="none" vector-effect="non-scaling-stroke" x="8.533333e+01" y="10" dominant-baseline="hanging">2</text><text dominant-baseline="hanging" stroke="none" vector-effect="non-scaling-stroke" x="1.066667e+02" y="10">3</text><text stroke="none" vector-effect="non-scaling-stroke" x="128" y="10" dominant-baseline="hanging">4</text><text y="10" dominant-baseline="hanging" stroke="none" vector-effect="non-scaling-stroke" x="1.493333e+02">5</text><text vector-effect="non-scaling-stroke" x="1.706667e+02" y="10" dominant-baseline="hanging" stroke="none">6</text><text y="10" dominant-baseline="hanging" stroke="none" vector-effect="non-scaling-stroke" x="192">7</text><text stroke="none" vector-effect="non-scaling-stroke" x="2.133333e+02" y="10" dominant-baseline="hanging">8</text><text dominant-baseline="hanging" stroke="none" vector-effect="non-scaling-stroke" x="2.346667e+02" y="10">9</text><text stroke="none" vector-effect="non-scaling-stroke" x="256" y="10" dominant-baseline="hanging">10</text><text dominant-baseline="hanging" stroke="none" vector-effect="non-scaling-stroke" x="2.773333e+02" y="10">11</text><text dominant-baseline="hanging" stroke="none" vector-effect="non-scaling-stroke" x="2.986667e+02" y="10">12</text><text y="10" dominant-baseline="hanging" stroke="none" vector-effect="non-scaling-stroke" x="320">13</text><text y="10" dominant-baseline="hanging" stroke="none" vector-effect="non-scaling-stroke" x="3.413333e+02">14</text><text stroke="none" vector-effect="non-scaling-stroke" x="3.626667e+02" y="10" dominant-baseline="hanging">15</text><text dominant-baseline="hanging" stroke="none" vector-effect="non-scaling-stroke" x="384" y="10">16</text><text x="4.053333e+02" y="10" dominant-baseline="hanging" stroke="none" vector-effect="non-scaling-stroke">17</text><text x="448" y="10" dominant-baseline="hanging" stroke="none" vector-effect="non-scaling-stroke">19</text><text x="4.693333e+02" y="10" dominant-baseline="hanging" stroke="none" vector-effect="non-scaling-stroke">20</text><text stroke="none" vector-effect="non-scaling-stroke" x="4.906667e+02" y="10" dominant-baseline="hanging">21</text><text vector-effect="non-scaling-stroke" x="512" y="10" dominant-baseline="hanging" stroke="none">22</text><text vector-effect="non-scaling-stroke" x="5.333333e+02" y="10" dominant-baseline="hanging" stroke="none">23</text><text stroke="none" vector-effect="non-scaling-stroke" x="5.546667e+02" y="10" dominant-baseline="hanging">24</text><text dominant-baseline="hanging" stroke="none" vector-effect="non-scaling-stroke" x="576" y="10">25</text></g><g stroke-width="2px" stroke-linecap="round" text-anchor="middle" font-family="sans-serif" font-size="12px" font-weight="bold" fill="black" font-style="normal" transform="translate(80 520 )scale(1 1 )rotate(0 0 0 )" dominant-baseline="baseline" stroke="black" stroke-linejoin="round"><text dominant-baseline="baseline" stroke="none" vector-effect="non-scaling-stroke" x="320" y="-6">Day</text></g><g stroke-width="2px" font-style="normal" font-size="12px" dominant-baseline="baseline" stroke="black" font-weight="bold" stroke-linecap="round" stroke-linejoin="round" fill="black" text-anchor="middle" transform="translate(80 520 )scale(1 -1 )" font-family="sans-serif"><path vector-effect="non-scaling-stroke" d="M0,44 L-6,44 M0,7.920000e+01 L-6,7.920000e+01 M0,1.144000e+02 L-6,1.144000e+02 M0,1.496000e+02 L-6,1.496000e+02 M0,1.848000e+02 L-6,1.848000e+02 M0,220 L-6,220 M0,2.552000e+02 L-6,2.552000e+02 M0,2.904000e+02 L-6,2.904000e+02 M0,3.256000e+02 L-6,3.256000e+02 M0,3.608000e+02 L-6,3.608000e+02 M0,396 L-6,396 "/></g><g stroke-linecap="round" font-family="sans-serif" font-size="12px" font-weight="normal" dominant-baseline="middle" stroke="black" stroke-width="2px" text-anchor="end" transform="translate(80 520 )scale(1 1 )" fill="black" font-style="normal" stroke-linejoin="round"><text y="-44" dominant-baseline="middle" stroke="none" vector-effect="non-scaling-stroke" x="-10">0s</text><text y="-7.920000e+01" dominant-baseline="middle" stroke="none" vector-effect="non-scaling-stroke" x="-10">200ms</text><text x="-10" y="-1.144000e+02" dominant-baseline="middle" stroke="none" vector-effect="non-scaling-stroke">400ms</text><text vector-effect="non-scaling-stroke" x="-10" y="-1.496000e+02" dominant-baseline="middle" stroke="none">600ms</text><text vector-effect="non-scaling-stroke" x="-10" y="-1.848000e+02" dominant-baseline="middle" stroke="none">800ms</text><text vector-effect="non-scaling-stroke" x="-10" y="-220" dominant-baseline="middle" stroke="none">1s</text><text stroke="none" vector-effect="non-scaling-stroke" x="-10" y="-2.552000e+02" dominant-baseline="middle">1.2s</text><text y="-2.904000e+02" dominant-baseline="middle" stroke="none" vector-effect="non-scaling-stroke" x="-10">1.4s</text><text stroke="none" vector-effect="non-scaling-stroke" x="-10" y="-3.256000e+02" dominant-baseline="middle">1.6s</text><text y="-3.608000e+02" dominant-baseline="middle" stroke="none" vector-effect="non-scaling-stroke" x="-10">1.8s</text><text dominant-baseline="middle" stroke="none" vector-effect="non-scaling-stroke" x="-10" y="-396">2s</text></g><g stroke-width="2px" stroke-linecap="round" font-family="sans-serif" fill="black" text-anchor="middle" transform="translate(80 520 )scale(1 1 )rotate(-90 0 0 )" font-weight="bold" dominant-baseline="hanging" stroke-linejoin="round" font-style="normal" font-size="12px" stroke="black"><text vector-effect="non-scaling-stroke" x="220" y="6" dominant-baseline="hanging" stroke="none">Runtime</text></g></g></g></g></g></g></svg>