<svg height="600" viewbox="0 0 800 600" preserveAspectRatio="xMidYMid meet" xmlns="http://www.w3.org/2000/svg" width="800"><defs><marker markerHeight="2%" id="circle" viewBox="0 0 10 10 " refX="5" refY="5" markerUnits="userSpaceOnUse" markerWidth="2%"><circle cy="5" r="3" fill="none" stroke="black" cx="5"/></marker><marker refY="5" markerUnits="userSpaceOnUse" markerWidth="2%" markerHeight="2%" id="filled-circle" viewBox="0 0 10 10 " refX="5"><circle cy="5" r="3" fill="black" stroke="none" cx="5"/></marker><marker refX="5" refY="5" markerUnits="userSpaceOnUse" markerWidth="2%" markerHeight="2%" id="square" viewBox="0 0 10 10 "><rect height="6" fill="none" stroke="black" x="2" y="2" width="6"/></marker><marker markerUnits="userSpaceOnUse" markerWidth="2%" markerHeight="2%" id="filled-square" viewBox="0 0 10 10 " refX="5" refY="5"><rect x="2" y="2" width="6" height="6" fill="black" stroke="none"/></marker></defs><g stroke="hsl(198, 47%, 65%)" stroke-width="1px" stroke-linecap="round" stroke-linejoin="round" transform="translate(80 520 )scale(1 -1 )" fill="hsl(198, 47%, 65%)"><rect vector-effect="non-scaling-stroke" x="5.546667e+01" y="0" width="5.688889e+00" height="4.400464e+01"/></g><g stroke-linecap="round" stroke-linejoin="round" transform="translate(80 520 )scale(1 -1 )" fill="hsl(49, 88%, 65%)" stroke="hsl(49, 88%, 65%)" stroke-width="1px"><rect vector-effect="non-scaling-stroke" x="6.115556e+01" y="0" width="5.688889e+00" height="4.400206e+01"/><rect vector-effect="non-scaling-stroke" x="8.248889e+01" y="0" width="5.688889e+00" height="4.408086e+01"/><rect vector-effect="non-scaling-stroke" x="1.038222e+02" y="0" width="5.688889e+00" height="4.409723e+01"/><rect vector-effect="non-scaling-stroke" x="1.251556e+02" y="0" width="5.688889e+00" height="2.107685e+02"/><rect vector-effect="non-scaling-stroke" x="1.464889e+02" y="0" width="5.688889e+00" height="4.404426e+01"/><rect x="1.678222e+02" y="0" width="5.688889e+00" height="5.542286e+01" vector-effect="non-scaling-stroke"/><rect width="5.688889e+00" height="4.404342e+01" vector-effect="non-scaling-stroke" x="1.891556e+02" y="0"/><rect vector-effect="non-scaling-stroke" x="2.104889e+02" y="0" width="5.688889e+00" height="4.400373e+01"/><rect vector-effect="non-scaling-stroke" x="2.318222e+02" y="0" width="5.688889e+00" height="4.622952e+01"/><rect vector-effect="non-scaling-stroke" x="2.531556e+02" y="0" width="5.688889e+00" height="5.460722e+01"/><rect width="5.688889e+00" height="4.871157e+01" vector-effect="non-scaling-stroke" x="2.744889e+02" y="0"/><rect height="4.415016e+01" vector-effect="non-scaling-stroke" x="2.958222e+02" y="0" width="5.688889e+00"/><rect width="5.688889e+00" height="5.833423e+01" vector-effect="non-scaling-stroke" x="3.171556e+02" y="0"/><rect height="4.404200e+01" vector-effect="non-scaling-stroke" x="3.384889e+02" y="0" width="5.688889e+00"/><rect y="0" width="5.688889e+00" height="5.385255e+01" vector-effect="non-scaling-stroke" x="3.598222e+02"/><rect vector-effect="non-scaling-stroke" x="3.811556e+02" y="0" width="5.688889e+00" height="4.408992e+01"/><rect y="0" width="5.688889e+00" height="5.534909e+01" vector-effect="non-scaling-stroke" x="4.024889e+02"/><rect x="4.238222e+02" y="0" width="5.688889e+00" height="4.468289e+01" vector-effect="non-scaling-stroke"/><rect vector-effect="non-scaling-stroke" x="4.451556e+02" y="0" width="5.688889e+00" height="4.409594e+01"/><rect width="5.688889e+00" height="6.740130e+02" vector-effect="non-scaling-stroke" x="4.664889e+02" y="0"/><rect width="5.688889e+00" height="4.409445e+01" vector-effect="non-scaling-stroke" x="4.878222e+02" y="0"/><rect x="5.091556e+02" y="0" width="5.688889e+00" height="1.244924e+02" vector-effect="non-scaling-stroke"/><rect y="0" width="5.688889e+00" height="4.400394e+01" vector-effect="non-scaling-stroke" x="5.304889e+02"/><rect height="6.975917e+01" vector-effect="non-scaling-stroke" x="5.518222e+02" y="0" width="5.688889e+00"/><rect x="5.731556e+02" y="0" width="5.688889e+00" height="4.400157e+01" vector-effect="non-scaling-stroke"/></g><g stroke="hsl(260, 76%, 65%)" stroke-width="1px" stroke-linecap="round" stroke-linejoin="round" transform="translate(80 520 )scale(1 -1 )" fill="hsl(260, 76%, 65%)"><rect y="0" width="5.688889e+00" height="4.400227e+01" vector-effect="non-scaling-stroke" x="6.684444e+01"/><rect height="4.400916e+01" vector-effect="non-scaling-stroke" x="8.817778e+01" y="0" width="5.688889e+00"/><rect width="5.688889e+00" height="4.408215e+01" vector-effect="non-scaling-stroke" x="1.095111e+02" y="0"/><rect vector-effect="non-scaling-stroke" x="1.308444e+02" y="0" width="5.688889e+00" height="3.085703e+02"/><rect y="0" width="5.688889e+00" height="4.402440e+01" vector-effect="non-scaling-stroke" x="1.521778e+02"/><rect vector-effect="non-scaling-stroke" x="1.735111e+02" y="0" width="5.688889e+00" height="5.079964e+01"/><rect x="1.948444e+02" y="0" width="5.688889e+00" height="4.404217e+01" vector-effect="non-scaling-stroke"/><rect vector-effect="non-scaling-stroke" x="2.161778e+02" y="0" width="5.688889e+00" height="4.400574e+01"/><rect vector-effect="non-scaling-stroke" x="2.375111e+02" y="0" width="5.688889e+00" height="4.489036e+01"/><rect x="2.588444e+02" y="0" width="5.688889e+00" height="1.632705e+02" vector-effect="non-scaling-stroke"/><rect vector-effect="non-scaling-stroke" x="2.801778e+02" y="0" width="5.688889e+00" height="5.288153e+01"/><rect vector-effect="non-scaling-stroke" x="3.015111e+02" y="0" width="5.688889e+00" height="4.405132e+01"/><rect y="0" width="5.688889e+00" height="6.043265e+01" vector-effect="non-scaling-stroke" x="3.228444e+02"/><rect x="3.441778e+02" y="0" width="5.688889e+00" height="4.407135e+01" vector-effect="non-scaling-stroke"/><rect width="5.688889e+00" height="5.195903e+01" vector-effect="non-scaling-stroke" x="3.655111e+02" y="0"/><rect width="5.688889e+00" height="4.404799e+01" vector-effect="non-scaling-stroke" x="3.868444e+02" y="0"/><rect x="4.081778e+02" y="0" width="5.688889e+00" height="5.164855e+01" vector-effect="non-scaling-stroke"/><rect height="4.542256e+01" vector-effect="non-scaling-stroke" x="4.295111e+02" y="0" width="5.688889e+00"/><rect height="4.419438e+01" vector-effect="non-scaling-stroke" x="4.508444e+02" y="0" width="5.688889e+00"/><rect y="0" width="5.688889e+00" height="2.634562e+02" vector-effect="non-scaling-stroke" x="4.721778e+02"/><rect vector-effect="non-scaling-stroke" x="4.935111e+02" y="0" width="5.688889e+00" height="4.400514e+01"/><rect x="5.148444e+02" y="0" width="5.688889e+00" height="1.172092e+02" vector-effect="non-scaling-stroke"/><rect y="0" width="5.688889e+00" height="4.400162e+01" vector-effect="non-scaling-stroke" x="5.361778e+02"/><rect width="5.688889e+00" height="4.535789e+01" vector-effect="non-scaling-stroke" x="5.575111e+02" y="0"/><rect vector-effect="non-scaling-stroke" x="5.788444e+02" y="0" width="5.688889e+00" height="4.400004e+01"/></g><g stroke="hsl(198, 47%, 65%)" stroke-width="1px" font-weight="normal" fill="hsl(198, 47%, 65%)" font-family="sans-serif" dominant-baseline="hanging" stroke-linecap="round" font-style="normal" text-anchor="start" stroke-linejoin="round" font-size="12px"><rect height="12" vector-effect="non-scaling-stroke" x="736" y="466" width="12"/><g fill="black" stroke="black"><text stroke="none" vector-effect="non-scaling-stroke" x="752" y="466" dominant-baseline="hanging">Crystal</text></g><g font-family="sans-serif" dominant-baseline="hanging" text-anchor="start" stroke-linejoin="round" font-size="12px" stroke="hsl(49, 88%, 65%)" stroke-width="1px" stroke-linecap="round" fill="hsl(49, 88%, 65%)" font-style="normal" font-weight="normal"><rect vector-effect="non-scaling-stroke" x="736" y="484" width="12" height="12"/><g fill="black" stroke="black"><text x="752" y="484" dominant-baseline="hanging" stroke="none" vector-effect="non-scaling-stroke">Golang</text></g><g font-size="12px" font-weight="normal" stroke-linecap="round" font-family="sans-serif" stroke="hsl(260, 76%, 65%)" font-style="normal" text-anchor="start" fill="hsl(260, 76%, 65%)" stroke-width="1px" dominant-baseline="hanging" stroke-linejoin="round"><rect width="12" height="12" vector-effect="non-scaling-stroke" x="736" y="502"/><g fill="black" stroke="black"><text vector-effect="non-scaling-stroke" x="752" y="502" dominant-baseline="hanging" stroke="none">Rust</text><g font-family="sans-serif" text-anchor="start" stroke-linecap="round" font-size="12px" fill="none" dominant-baseline="hanging" stroke-width="2px" font-weight="normal" font-style="normal" stroke-linejoin="round"><rect x="80" y="80" width="640" height="440" vector-effect="non-scaling-stroke"/></g><g stroke-width="2px" font-size="12px" font-style="normal" transform="translate(80 520 )scale(1 -1 )" fill="none" stroke-linejoin="round" font-family="sans-serif" stroke="black" font-weight="normal" text-anchor="start" stroke-linecap="round" dominant-baseline="hanging"><path d="M64,0 L64,-6 " vector-effect="non-scaling-stroke"/></g><g font-size="12px" font-weight="normal" stroke-linecap="round" dominant-baseline="hanging" text-anchor="middle" stroke-linejoin="round" fill="black" font-style="normal" stroke="black" stroke-width="2px" font-family="sans-serif" transform="translate(80 520 )scale(1 1 )"><text x="64" y="10" dominant-baseline="hanging" stroke="none" vector-effect="non-scaling-stroke">1</text></g><g stroke-width="2px" stroke-linecap="round" transform="translate(80 520 )scale(1 1 )rotate(0 0 0 )" fill="black" font-size="12px" font-style="normal" font-weight="bold" stroke="black" font-family="sans-serif" dominant-baseline="baseline" text-anchor="middle" stroke-linejoin="round"><text dominant-baseline="baseline" stroke="none" vector-effect="non-scaling-stroke" x="320" y="-6">Day</text></g><g font-style="normal" transform="translate(80 520 )scale(1 -1 )" fill="black" font-size="12px" dominant-baseline="baseline" stroke="black" stroke-width="2px" stroke-linecap="round" font-family="sans-serif" font-weight="bold" text-anchor="middle" stroke-linejoin="round"><path vector-effect="non-scaling-stroke" d="M0,44 L-6,44 M0,7.920000e+01 L-6,7.920000e+01 M0,1.144000e+02 L-6,1.144000e+02 M0,1.496000e+02 L-6,1.496000e+02 M0,1.848000e+02 L-6,1.848000e+02 M0,220 L-6,220 M0,2.552000e+02 L-6,2.552000e+02 M0,2.904000e+02 L-6,2.904000e+02 M0,3.256000e+02 L-6,3.256000e+02 M0,3.608000e+02 L-6,3.608000e+02 M0,396 L-6,396 "/></g><g stroke="black" font-family="sans-serif" fill="black" stroke-linejoin="round" font-weight="normal" stroke-width="2px" stroke-linecap="round" dominant-baseline="middle" font-size="12px" font-style="normal" text-anchor="end" transform="translate(80 520 )scale(1 1 )"><text stroke="none" vector-effect="non-scaling-stroke" x="-10" y="-44" dominant-baseline="middle">0s</text><text stroke="none" vector-effect="non-scaling-stroke" x="-10" y="-7.920000e+01" dominant-baseline="middle">200ms</text><text stroke="none" vector-effect="non-scaling-stroke" x="-10" y="-1.144000e+02" dominant-baseline="middle">400ms</text><text vector-effect="non-scaling-stroke" x="-10" y="-1.496000e+02" dominant-baseline="middle" stroke="none">600ms</text><text vector-effect="non-scaling-stroke" x="-10" y="-1.848000e+02" dominant-baseline="middle" stroke="none">800ms</text><text dominant-baseline="middle" stroke="none" vector-effect="non-scaling-stroke" x="-10" y="-220">1s</text><text dominant-baseline="middle" stroke="none" vector-effect="non-scaling-stroke" x="-10" y="-2.552000e+02">1.2s</text><text x="-10" y="-2.904000e+02" dominant-baseline="middle" stroke="none" vector-effect="non-scaling-stroke">1.4s</text><text stroke="none" vector-effect="non-scaling-stroke" x="-10" y="-3.256000e+02" dominant-baseline="middle">1.6s</text><text x="-10" y="-3.608000e+02" dominant-baseline="middle" stroke="none" vector-effect="non-scaling-stroke">1.8s</text><text vector-effect="non-scaling-stroke" x="-10" y="-396" dominant-baseline="middle" stroke="none">2s</text></g><g dominant-baseline="hanging" stroke-linejoin="round" font-size="12px" font-style="normal" stroke="black" stroke-width="2px" stroke-linecap="round" fill="black" font-weight="bold" text-anchor="middle" transform="translate(80 520 )scale(1 1 )rotate(-90 0 0 )" font-family="sans-serif"><text stroke="none" vector-effect="non-scaling-stroke" x="220" y="6" dominant-baseline="hanging">Runtime</text></g></g></g></g></g></svg>