<svg viewbox="0 0 800 600" preserveAspectRatio="xMidYMid meet" xmlns="http://www.w3.org/2000/svg" width="800" height="600"><defs><marker markerUnits="userSpaceOnUse" markerWidth="2%" markerHeight="2%" id="circle" viewBox="0 0 10 10 " refX="5" refY="5"><circle r="3" fill="none" stroke="black" cx="5" cy="5"/></marker><marker id="filled-circle" viewBox="0 0 10 10 " refX="5" refY="5" markerUnits="userSpaceOnUse" markerWidth="2%" markerHeight="2%"><circle cx="5" cy="5" r="3" fill="black" stroke="none"/></marker><marker viewBox="0 0 10 10 " refX="5" refY="5" markerUnits="userSpaceOnUse" markerWidth="2%" markerHeight="2%" id="square"><rect stroke="black" x="2" y="2" width="6" height="6" fill="none"/></marker><marker refX="5" refY="5" markerUnits="userSpaceOnUse" markerWidth="2%" markerHeight="2%" id="filled-square" viewBox="0 0 10 10 "><rect y="2" width="6" height="6" fill="black" stroke="none" x="2"/></marker></defs><g fill="hsl(198, 47%, 65%)" stroke="hsl(198, 47%, 65%)" stroke-width="1px" stroke-linecap="round" stroke-linejoin="round" transform="translate(80 520 )scale(1 -1 )"><rect y="0" width="8.533333e+00" height="4.402191e+01" vector-effect="non-scaling-stroke" x="5.546667e+01"/><rect y="0" width="8.533333e+00" height="4.400313e+01" vector-effect="non-scaling-stroke" x="7.680000e+01"/><rect width="8.533333e+00" height="4.401288e+01" vector-effect="non-scaling-stroke" x="9.813333e+01" y="0"/><rect y="0" width="8.533333e+00" height="4.437969e+01" vector-effect="non-scaling-stroke" x="1.194667e+02"/><rect width="8.533333e+00" height="1.069365e+03" vector-effect="non-scaling-stroke" x="1.408000e+02" y="0"/><rect width="8.533333e+00" height="4.404161e+01" vector-effect="non-scaling-stroke" x="1.621333e+02" y="0"/><rect height="4.425802e+01" vector-effect="non-scaling-stroke" x="1.834667e+02" y="0" width="8.533333e+00"/><rect width="8.533333e+00" height="4.400110e+01" vector-effect="non-scaling-stroke" x="2.048000e+02" y="0"/><rect vector-effect="non-scaling-stroke" x="2.261333e+02" y="0" width="8.533333e+00" height="4.400377e+01"/><rect y="0" width="8.533333e+00" height="4.491958e+01" vector-effect="non-scaling-stroke" x="2.474667e+02"/><rect width="8.533333e+00" height="5.199057e+01" vector-effect="non-scaling-stroke" x="2.688000e+02" y="0"/><rect height="4.400078e+01" vector-effect="non-scaling-stroke" x="2.901333e+02" y="0" width="8.533333e+00"/><rect x="3.114667e+02" y="0" width="8.533333e+00" height="4.402140e+01" vector-effect="non-scaling-stroke"/><rect y="0" width="8.533333e+00" height="2.282994e+03" vector-effect="non-scaling-stroke" x="3.328000e+02"/><rect vector-effect="non-scaling-stroke" x="3.541333e+02" y="0" width="8.533333e+00" height="5.332551e+01"/><rect y="0" width="8.533333e+00" height="1.151241e+02" vector-effect="non-scaling-stroke" x="3.754667e+02"/><rect width="8.533333e+00" height="5.624102e+01" vector-effect="non-scaling-stroke" x="3.968000e+02" y="0"/><rect width="8.533333e+00" height="8.817794e+01" vector-effect="non-scaling-stroke" x="4.181333e+02" y="0"/><rect height="1.356903e+02" vector-effect="non-scaling-stroke" x="4.394667e+02" y="0" width="8.533333e+00"/><rect vector-effect="non-scaling-stroke" x="4.608000e+02" y="0" width="8.533333e+00" height="4.405996e+01"/><rect vector-effect="non-scaling-stroke" x="4.821333e+02" y="0" width="8.533333e+00" height="9.025396e+01"/><rect vector-effect="non-scaling-stroke" x="5.034667e+02" y="0" width="8.533333e+00" height="4.965065e+01"/><rect width="8.533333e+00" height="4.400183e+01" vector-effect="non-scaling-stroke" x="5.248000e+02" y="0"/><rect x="5.461333e+02" y="0" width="8.533333e+00" height="5.549714e+01" vector-effect="non-scaling-stroke"/><rect vector-effect="non-scaling-stroke" x="5.674667e+02" y="0" width="8.533333e+00" height="7.060353e+01"/></g><g transform="translate(80 520 )scale(1 -1 )" fill="hsl(49, 88%, 65%)" stroke="hsl(49, 88%, 65%)" stroke-width="1px" stroke-linecap="round" stroke-linejoin="round"><rect vector-effect="non-scaling-stroke" x="64" y="0" width="8.533333e+00" height="4.401435e+01"/><rect vector-effect="non-scaling-stroke" x="8.533333e+01" y="0" width="8.533333e+00" height="4.402467e+01"/><rect width="8.533333e+00" height="4.408820e+01" vector-effect="non-scaling-stroke" x="1.066667e+02" y="0"/><rect x="128" y="0" width="8.533333e+00" height="4.452421e+01" vector-effect="non-scaling-stroke"/><rect x="1.493333e+02" y="0" width="8.533333e+00" height="1.664456e+03" vector-effect="non-scaling-stroke"/><rect height="4.427491e+01" vector-effect="non-scaling-stroke" x="1.706667e+02" y="0" width="8.533333e+00"/><rect vector-effect="non-scaling-stroke" x="192" y="0" width="8.533333e+00" height="4.484072e+01"/><rect x="2.133333e+02" y="0" width="8.533333e+00" height="4.400432e+01" vector-effect="non-scaling-stroke"/><rect vector-effect="non-scaling-stroke" x="2.346667e+02" y="0" width="8.533333e+00" height="4.405093e+01"/><rect y="0" width="8.533333e+00" height="4.404894e+01" vector-effect="non-scaling-stroke" x="2.560000e+02"/><rect width="8.533333e+00" height="4.393141e+02" vector-effect="non-scaling-stroke" x="2.773333e+02" y="0"/><rect height="4.400070e+01" vector-effect="non-scaling-stroke" x="2.986667e+02" y="0" width="8.533333e+00"/><rect height="4.403404e+01" vector-effect="non-scaling-stroke" x="320" y="0" width="8.533333e+00"/><rect vector-effect="non-scaling-stroke" x="3.413333e+02" y="0" width="8.533333e+00" height="1.496676e+03"/><rect y="0" width="8.533333e+00" height="4.597204e+01" vector-effect="non-scaling-stroke" x="3.626667e+02"/><rect width="8.533333e+00" height="7.228782e+01" vector-effect="non-scaling-stroke" x="384" y="0"/><rect width="8.533333e+00" height="5.179450e+01" vector-effect="non-scaling-stroke" x="4.053333e+02" y="0"/><rect y="0" width="8.533333e+00" height="1.377339e+02" vector-effect="non-scaling-stroke" x="4.266667e+02"/><rect width="8.533333e+00" height="4.400001e+01" vector-effect="non-scaling-stroke" x="448" y="0"/><rect x="4.693333e+02" y="0" width="8.533333e+00" height="4.403122e+01" vector-effect="non-scaling-stroke"/><rect vector-effect="non-scaling-stroke" x="4.906667e+02" y="0" width="8.533333e+00" height="5.368336e+01"/><rect x="512" y="0" width="8.533333e+00" height="4.820689e+01" vector-effect="non-scaling-stroke"/><rect height="4.400143e+01" vector-effect="non-scaling-stroke" x="5.333333e+02" y="0" width="8.533333e+00"/><rect x="5.546667e+02" y="0" width="8.533333e+00" height="4.530517e+01" vector-effect="non-scaling-stroke"/><rect x="576" y="0" width="8.533333e+00" height="4.607720e+01" vector-effect="non-scaling-stroke"/></g><g stroke-width="1px" stroke-linejoin="round" font-family="sans-serif" font-size="12px" stroke="hsl(198, 47%, 65%)" dominant-baseline="hanging" stroke-linecap="round" font-weight="normal" fill="hsl(198, 47%, 65%)" font-style="normal" text-anchor="start"><rect x="736" y="484" width="12" height="12" vector-effect="non-scaling-stroke"/><g fill="black" stroke="black"><text dominant-baseline="hanging" stroke="none" vector-effect="non-scaling-stroke" x="752" y="484">Golang</text></g><g stroke="hsl(49, 88%, 65%)" fill="hsl(49, 88%, 65%)" font-weight="normal" stroke-width="1px" font-size="12px" font-style="normal" text-anchor="start" dominant-baseline="hanging" stroke-linecap="round" stroke-linejoin="round" font-family="sans-serif"><rect vector-effect="non-scaling-stroke" x="736" y="502" width="12" height="12"/><g stroke="black" fill="black"><text vector-effect="non-scaling-stroke" x="752" y="502" dominant-baseline="hanging" stroke="none">Rust</text><g stroke-width="2px" stroke-linejoin="round" font-family="sans-serif" font-size="12px" font-style="normal" stroke-linecap="round" font-weight="normal" fill="none" text-anchor="start" dominant-baseline="hanging"><rect x="80" y="80" width="640" height="440" vector-effect="non-scaling-stroke"/></g><g stroke="black" stroke-linejoin="round" fill="none" text-anchor="start" stroke-width="2px" stroke-linecap="round" font-weight="normal" transform="translate(80 520 )scale(1 -1 )" font-family="sans-serif" font-size="12px" font-style="normal" dominant-baseline="hanging"><path vector-effect="non-scaling-stroke" d="M64,0 L64,-6 M8.533333e+01,0 L8.533333e+01,-6 M1.066667e+02,0 L1.066667e+02,-6 M128,0 L128,-6 M1.493333e+02,0 L1.493333e+02,-6 M1.706667e+02,0 L1.706667e+02,-6 M192,0 L192,-6 M2.133333e+02,0 L2.133333e+02,-6 M2.346667e+02,0 L2.346667e+02,-6 M256,0 L256,-6 M2.773333e+02,0 L2.773333e+02,-6 M2.986667e+02,0 L2.986667e+02,-6 M320,0 L320,-6 M3.413333e+02,0 L3.413333e+02,-6 M3.626667e+02,0 L3.626667e+02,-6 M384,0 L384,-6 M4.053333e+02,0 L4.053333e+02,-6 M4.266667e+02,0 L4.266667e+02,-6 M448,0 L448,-6 M4.693333e+02,0 L4.693333e+02,-6 M4.906667e+02,0 L4.906667e+02,-6 M512,0 L512,-6 M5.333333e+02,0 L5.333333e+02,-6 M5.546667e+02,0 L5.546667e+02,-6 M576,0 L576,-6 "/></g><g fill="black" font-size="12px" stroke-width="2px" stroke-linejoin="round" font-weight="normal" transform="translate(80 520 )scale(1 1 )" font-family="sans-serif" font-style="normal" text-anchor="middle" dominant-baseline="hanging" stroke="black" stroke-linecap="round"><text x="64" y="10" dominant-baseline="hanging" stroke="none" vector-effect="non-scaling-stroke">1</text><text stroke="none" vector-effect="non-scaling-stroke" x="8.533333e+01" y="10" dominant-baseline="hanging">2</text><text vector-effect="non-scaling-stroke" x="1.066667e+02" y="10" dominant-baseline="hanging" stroke="none">3</text><text dominant-baseline="hanging" stroke="none" vector-effect="non-scaling-stroke" x="128" y="10">4</text><text x="1.493333e+02" y="10" dominant-baseline="hanging" stroke="none" vector-effect="non-scaling-stroke">5</text><text x="1.706667e+02" y="10" dominant-baseline="hanging" stroke="none" vector-effect="non-scaling-stroke">6</text><text stroke="none" vector-effect="non-scaling-stroke" x="192" y="10" dominant-baseline="hanging">7</text><text vector-effect="non-scaling-stroke" x="2.133333e+02" y="10" dominant-baseline="hanging" stroke="none">8</text><text stroke="none" vector-effect="non-scaling-stroke" x="2.346667e+02" y="10" dominant-baseline="hanging">9</text><text stroke="none" vector-effect="non-scaling-stroke" x="256" y="10" dominant-baseline="hanging">10</text><text stroke="none" vector-effect="non-scaling-stroke" x="2.773333e+02" y="10" dominant-baseline="hanging">11</text><text vector-effect="non-scaling-stroke" x="2.986667e+02" y="10" dominant-baseline="hanging" stroke="none">12</text><text y="10" dominant-baseline="hanging" stroke="none" vector-effect="non-scaling-stroke" x="320">13</text><text x="3.413333e+02" y="10" dominant-baseline="hanging" stroke="none" vector-effect="non-scaling-stroke">14</text><text y="10" dominant-baseline="hanging" stroke="none" vector-effect="non-scaling-stroke" x="3.626667e+02">15</text><text y="10" dominant-baseline="hanging" stroke="none" vector-effect="non-scaling-stroke" x="384">16</text><text vector-effect="non-scaling-stroke" x="4.053333e+02" y="10" dominant-baseline="hanging" stroke="none">17</text><text vector-effect="non-scaling-stroke" x="4.266667e+02" y="10" dominant-baseline="hanging" stroke="none">18</text><text vector-effect="non-scaling-stroke" x="448" y="10" dominant-baseline="hanging" stroke="none">19</text><text x="4.693333e+02" y="10" dominant-baseline="hanging" stroke="none" vector-effect="non-scaling-stroke">20</text><text stroke="none" vector-effect="non-scaling-stroke" x="4.906667e+02" y="10" dominant-baseline="hanging">21</text><text y="10" dominant-baseline="hanging" stroke="none" vector-effect="non-scaling-stroke" x="512">22</text><text y="10" dominant-baseline="hanging" stroke="none" vector-effect="non-scaling-stroke" x="5.333333e+02">23</text><text vector-effect="non-scaling-stroke" x="5.546667e+02" y="10" dominant-baseline="hanging" stroke="none">24</text><text dominant-baseline="hanging" stroke="none" vector-effect="non-scaling-stroke" x="576" y="10">25</text></g><g fill="black" font-size="12px" font-style="normal" stroke-width="2px" font-weight="bold" transform="translate(80 520 )scale(1 1 )rotate(0 0 0 )" font-family="sans-serif" text-anchor="middle" dominant-baseline="baseline" stroke="black" stroke-linecap="round" stroke-linejoin="round"><text y="-6" dominant-baseline="baseline" stroke="none" vector-effect="non-scaling-stroke" x="320">Day</text></g><g fill="black" font-family="sans-serif" font-style="normal" text-anchor="middle" transform="translate(80 520 )scale(1 -1 )" stroke="black" stroke-width="2px" dominant-baseline="baseline" stroke-linejoin="round" stroke-linecap="round" font-weight="bold" font-size="12px"><path d="M0,44 L-6,44 M0,7.920000e+01 L-6,7.920000e+01 M0,1.144000e+02 L-6,1.144000e+02 M0,1.496000e+02 L-6,1.496000e+02 M0,1.848000e+02 L-6,1.848000e+02 M0,220 L-6,220 M0,2.552000e+02 L-6,2.552000e+02 M0,2.904000e+02 L-6,2.904000e+02 M0,3.256000e+02 L-6,3.256000e+02 M0,3.608000e+02 L-6,3.608000e+02 M0,396 L-6,396 " vector-effect="non-scaling-stroke"/></g><g text-anchor="end" dominant-baseline="middle" font-weight="normal" transform="translate(80 520 )scale(1 1 )" stroke="black" font-style="normal" fill="black" font-family="sans-serif" stroke-linecap="round" stroke-linejoin="round" stroke-width="2px" font-size="12px"><text stroke="none" vector-effect="non-scaling-stroke" x="-10" y="-44" dominant-baseline="middle">0s</text><text x="-10" y="-7.920000e+01" dominant-baseline="middle" stroke="none" vector-effect="non-scaling-stroke">200ms</text><text vector-effect="non-scaling-stroke" x="-10" y="-1.144000e+02" dominant-baseline="middle" stroke="none">400ms</text><text vector-effect="non-scaling-stroke" x="-10" y="-1.496000e+02" dominant-baseline="middle" stroke="none">600ms</text><text stroke="none" vector-effect="non-scaling-stroke" x="-10" y="-1.848000e+02" dominant-baseline="middle">800ms</text><text x="-10" y="-220" dominant-baseline="middle" stroke="none" vector-effect="non-scaling-stroke">1s</text><text stroke="none" vector-effect="non-scaling-stroke" x="-10" y="-2.552000e+02" dominant-baseline="middle">1.2s</text><text dominant-baseline="middle" stroke="none" vector-effect="non-scaling-stroke" x="-10" y="-2.904000e+02">1.4s</text><text vector-effect="non-scaling-stroke" x="-10" y="-3.256000e+02" dominant-baseline="middle" stroke="none">1.6s</text><text stroke="none" vector-effect="non-scaling-stroke" x="-10" y="-3.608000e+02" dominant-baseline="middle">1.8s</text><text stroke="none" vector-effect="non-scaling-stroke" x="-10" y="-396" dominant-baseline="middle">2s</text></g><g stroke="black" stroke-width="2px" font-weight="bold" font-family="sans-serif" font-size="12px" stroke-linecap="round" stroke-linejoin="round" transform="translate(80 520 )scale(1 1 )rotate(-90 0 0 )" fill="black" font-style="normal" text-anchor="middle" dominant-baseline="hanging"><text vector-effect="non-scaling-stroke" x="220" y="6" dominant-baseline="hanging" stroke="none">Runtime</text></g></g></g></g></svg>