<svg width="800" height="600" viewbox="0 0 800 600" preserveAspectRatio="xMidYMid meet" xmlns="http://www.w3.org/2000/svg"><defs><marker refX="5" refY="5" markerUnits="userSpaceOnUse" markerWidth="2%" markerHeight="2%" id="circle" viewBox="0 0 10 10 "><circle cx="5" cy="5" r="3" fill="none" stroke="black"/></marker><marker markerWidth="2%" markerHeight="2%" id="filled-circle" viewBox="0 0 10 10 " refX="5" refY="5" markerUnits="userSpaceOnUse"><circle cx="5" cy="5" r="3" fill="black" stroke="none"/></marker><marker markerHeight="2%" id="square" viewBox="0 0 10 10 " refX="5" refY="5" markerUnits="userSpaceOnUse" markerWidth="2%"><rect fill="none" stroke="black" x="2" y="2" width="6" height="6"/></marker><marker markerWidth="2%" markerHeight="2%" id="filled-square" viewBox="0 0 10 10 " refX="5" refY="5" markerUnits="userSpaceOnUse"><rect x="2" y="2" width="6" height="6" fill="black" stroke="none"/></marker></defs><g stroke-width="1px" stroke-linecap="round" stroke-linejoin="round" transform="translate(80 520 )scale(1 -1 )" fill="hsl(198, 47%, 65%)" stroke="hsl(198, 47%, 65%)"><rect vector-effect="non-scaling-stroke" x="5.546667e+01" y="0" width="4.266667e+00" height="4.400044e+01"/><rect x="7.680000e+01" y="0" width="4.266667e+00" height="4.420712e+01" vector-effect="non-scaling-stroke"/><rect y="0" width="4.266667e+00" height="5.271165e+01" vector-effect="non-scaling-stroke" x="9.813333e+01"/><rect vector-effect="non-scaling-stroke" x="1.194667e+02" y="0" width="4.266667e+00" height="4.470786e+01"/><rect width="4.266667e+00" height="4.401056e+01" vector-effect="non-scaling-stroke" x="1.408000e+02" y="0"/><rect width="4.266667e+00" height="4.400097e+01" vector-effect="non-scaling-stroke" x="1.621333e+02" y="0"/><rect width="4.266667e+00" height="4.556190e+01" vector-effect="non-scaling-stroke" x="1.834667e+02" y="0"/><rect width="4.266667e+00" height="4.400747e+01" vector-effect="non-scaling-stroke" x="2.048000e+02" y="0"/><rect width="4.266667e+00" height="6.261763e+01" vector-effect="non-scaling-stroke" x="2.261333e+02" y="0"/><rect height="5.085807e+01" vector-effect="non-scaling-stroke" x="2.474667e+02" y="0" width="4.266667e+00"/><rect vector-effect="non-scaling-stroke" x="2.688000e+02" y="0" width="4.266667e+00" height="4.872308e+01"/><rect height="1.375306e+02" vector-effect="non-scaling-stroke" x="2.901333e+02" y="0" width="4.266667e+00"/><rect x="3.114667e+02" y="0" width="4.266667e+00" height="8.009250e+01" vector-effect="non-scaling-stroke"/><rect width="4.266667e+00" height="4.517717e+01" vector-effect="non-scaling-stroke" x="3.328000e+02" y="0"/><rect height="5.215846e+01" vector-effect="non-scaling-stroke" x="3.541333e+02" y="0" width="4.266667e+00"/><rect y="0" width="4.266667e+00" height="9.405053e+01" vector-effect="non-scaling-stroke" x="3.754667e+02"/><rect x="3.968000e+02" y="0" width="4.266667e+00" height="4.962820e+01" vector-effect="non-scaling-stroke"/><rect vector-effect="non-scaling-stroke" x="4.181333e+02" y="0" width="4.266667e+00" height="4.682902e+02"/><rect x="4.394667e+02" y="0" width="4.266667e+00" height="1.665233e+02" vector-effect="non-scaling-stroke"/><rect vector-effect="non-scaling-stroke" x="4.608000e+02" y="0" width="4.266667e+00" height="1.321857e+02"/><rect width="4.266667e+00" height="7.250285e+01" vector-effect="non-scaling-stroke" x="4.821333e+02" y="0"/><rect height="4.400080e+01" vector-effect="non-scaling-stroke" x="5.034667e+02" y="0" width="4.266667e+00"/><rect vector-effect="non-scaling-stroke" x="5.248000e+02" y="0" width="4.266667e+00" height="6.106984e+01"/><rect vector-effect="non-scaling-stroke" x="5.461333e+02" y="0" width="4.266667e+00" height="5.532185e+01"/><rect x="5.674667e+02" y="0" width="4.266667e+00" height="3.158197e+02" vector-effect="non-scaling-stroke"/></g><g stroke="hsl(49, 88%, 65%)" stroke-width="1px" stroke-linecap="round" stroke-linejoin="round" transform="translate(80 520 )scale(1 -1 )" fill="hsl(49, 88%, 65%)"><rect y="0" width="4.266667e+00" height="4.400352e+01" vector-effect="non-scaling-stroke" x="5.973333e+01"/><rect vector-effect="non-scaling-stroke" x="8.106667e+01" y="0" width="4.266667e+00" height="4.600836e+01"/><rect height="5.191612e+01" vector-effect="non-scaling-stroke" x="1.024000e+02" y="0" width="4.266667e+00"/><rect vector-effect="non-scaling-stroke" x="1.237333e+02" y="0" width="4.266667e+00" height="5.677891e+01"/><rect width="4.266667e+00" height="4.402172e+01" vector-effect="non-scaling-stroke" x="1.450667e+02" y="0"/><rect height="4.552418e+01" vector-effect="non-scaling-stroke" x="1.664000e+02" y="0" width="4.266667e+00"/><rect width="4.266667e+00" height="4.685468e+01" vector-effect="non-scaling-stroke" x="1.877333e+02" y="0"/><rect y="0" width="4.266667e+00" height="4.408531e+01" vector-effect="non-scaling-stroke" x="2.090667e+02"/><rect vector-effect="non-scaling-stroke" x="2.304000e+02" y="0" width="4.266667e+00" height="6.489015e+01"/><rect vector-effect="non-scaling-stroke" x="2.517333e+02" y="0" width="4.266667e+00" height="4.743899e+01"/><rect height="4.928966e+01" vector-effect="non-scaling-stroke" x="2.730667e+02" y="0" width="4.266667e+00"/><rect y="0" width="4.266667e+00" height="9.813387e+01" vector-effect="non-scaling-stroke" x="2.944000e+02"/><rect vector-effect="non-scaling-stroke" x="3.157333e+02" y="0" width="4.266667e+00" height="9.104848e+01"/><rect y="0" width="4.266667e+00" height="4.681024e+01" vector-effect="non-scaling-stroke" x="3.370667e+02"/><rect y="0" width="4.266667e+00" height="4.997445e+01" vector-effect="non-scaling-stroke" x="3.584000e+02"/><rect x="3.797333e+02" y="0" width="4.266667e+00" height="1.661586e+02" vector-effect="non-scaling-stroke"/><rect x="4.010667e+02" y="0" width="4.266667e+00" height="4.843136e+01" vector-effect="non-scaling-stroke"/><rect height="3.761436e+03" vector-effect="non-scaling-stroke" x="4.224000e+02" y="0" width="4.266667e+00"/><rect x="4.437333e+02" y="0" width="4.266667e+00" height="1.412986e+02" vector-effect="non-scaling-stroke"/><rect vector-effect="non-scaling-stroke" x="4.650667e+02" y="0" width="4.266667e+00" height="1.288808e+02"/><rect vector-effect="non-scaling-stroke" x="4.864000e+02" y="0" width="4.266667e+00" height="6.726807e+01"/><rect vector-effect="non-scaling-stroke" x="5.077333e+02" y="0" width="4.266667e+00" height="4.403347e+01"/><rect x="5.290667e+02" y="0" width="4.266667e+00" height="5.830921e+01" vector-effect="non-scaling-stroke"/><rect width="4.266667e+00" height="6.115890e+01" vector-effect="non-scaling-stroke" x="5.504000e+02" y="0"/><rect width="4.266667e+00" height="4.875051e+02" vector-effect="non-scaling-stroke" x="5.717333e+02" y="0"/></g><g stroke-width="1px" stroke-linecap="round" stroke-linejoin="round" transform="translate(80 520 )scale(1 -1 )" fill="hsl(260, 76%, 65%)" stroke="hsl(260, 76%, 65%)"><rect vector-effect="non-scaling-stroke" x="6.400000e+01" y="0" width="4.266667e+00" height="4.400118e+01"/><rect width="4.266667e+00" height="4.445193e+01" vector-effect="non-scaling-stroke" x="8.533333e+01" y="0"/><rect y="0" width="4.266667e+00" height="4.749037e+01" vector-effect="non-scaling-stroke" x="1.066667e+02"/><rect vector-effect="non-scaling-stroke" x="1.280000e+02" y="0" width="4.266667e+00" height="4.441142e+01"/><rect width="4.266667e+00" height="4.400581e+01" vector-effect="non-scaling-stroke" x="1.493333e+02" y="0"/><rect x="1.706667e+02" y="0" width="4.266667e+00" height="4.936756e+01" vector-effect="non-scaling-stroke"/><rect y="0" width="4.266667e+00" height="4.448450e+01" vector-effect="non-scaling-stroke" x="192"/><rect height="4.404890e+01" vector-effect="non-scaling-stroke" x="2.133333e+02" y="0" width="4.266667e+00"/><rect vector-effect="non-scaling-stroke" x="2.346667e+02" y="0" width="4.266667e+00" height="4.650701e+01"/><rect vector-effect="non-scaling-stroke" x="256" y="0" width="4.266667e+00" height="4.936484e+01"/><rect x="2.773333e+02" y="0" width="4.266667e+00" height="4.521437e+01" vector-effect="non-scaling-stroke"/><rect vector-effect="non-scaling-stroke" x="2.986667e+02" y="0" width="4.266667e+00" height="4.678084e+01"/><rect vector-effect="non-scaling-stroke" x="320" y="0" width="4.266667e+00" height="5.011674e+01"/><rect vector-effect="non-scaling-stroke" x="3.413333e+02" y="0" width="4.266667e+00" height="4.604731e+01"/><rect width="4.266667e+00" height="4.623269e+01" vector-effect="non-scaling-stroke" x="3.626667e+02" y="0"/><rect width="4.266667e+00" height="1.508393e+02" vector-effect="non-scaling-stroke" x="384" y="0"/><rect x="4.053333e+02" y="0" width="4.266667e+00" height="4.490191e+01" vector-effect="non-scaling-stroke"/><rect vector-effect="non-scaling-stroke" x="4.266667e+02" y="0" width="4.266667e+00" height="1.959952e+02"/><rect y="0" width="4.266667e+00" height="6.247924e+01" vector-effect="non-scaling-stroke" x="448"/><rect width="4.266667e+00" height="5.284167e+01" vector-effect="non-scaling-stroke" x="4.693333e+02" y="0"/><rect x="4.906667e+02" y="0" width="4.266667e+00" height="4.805201e+01" vector-effect="non-scaling-stroke"/><rect vector-effect="non-scaling-stroke" x="512" y="0" width="4.266667e+00" height="4.405928e+01"/><rect y="0" width="4.266667e+00" height="4.666564e+01" vector-effect="non-scaling-stroke" x="5.333333e+02"/><rect y="0" width="4.266667e+00" height="9.628290e+01" vector-effect="non-scaling-stroke" x="5.546667e+02"/><rect y="0" width="4.266667e+00" height="8.170567e+01" vector-effect="non-scaling-stroke" x="576"/></g><g stroke-linecap="round" stroke-linejoin="round" transform="translate(80 520 )scale(1 -1 )" fill="hsl(111, 64%, 65%)" stroke="hsl(111, 64%, 65%)" stroke-width="1px"><rect vector-effect="non-scaling-stroke" x="6.826667e+01" y="0" width="4.266667e+00" height="4.400276e+01"/><rect height="4.563749e+01" vector-effect="non-scaling-stroke" x="8.960000e+01" y="0" width="4.266667e+00"/><rect vector-effect="non-scaling-stroke" x="1.109333e+02" y="0" width="4.266667e+00" height="4.960613e+01"/><rect height="5.917362e+01" vector-effect="non-scaling-stroke" x="1.322667e+02" y="0" width="4.266667e+00"/><rect vector-effect="non-scaling-stroke" x="1.536000e+02" y="0" width="4.266667e+00" height="4.401540e+01"/><rect vector-effect="non-scaling-stroke" x="1.749333e+02" y="0" width="4.266667e+00" height="6.007912e+01"/><rect vector-effect="non-scaling-stroke" x="1.962667e+02" y="0" width="4.266667e+00" height="4.534926e+01"/><rect vector-effect="non-scaling-stroke" x="2.176000e+02" y="0" width="4.266667e+00" height="4.400512e+01"/><rect x="2.389333e+02" y="0" width="4.266667e+00" height="4.642099e+01" vector-effect="non-scaling-stroke"/><rect y="0" width="4.266667e+00" height="4.922211e+01" vector-effect="non-scaling-stroke" x="2.602667e+02"/><rect height="4.488206e+01" vector-effect="non-scaling-stroke" x="2.816000e+02" y="0" width="4.266667e+00"/><rect y="0" width="4.266667e+00" height="1.206155e+02" vector-effect="non-scaling-stroke" x="3.029333e+02"/><rect vector-effect="non-scaling-stroke" x="3.242667e+02" y="0" width="4.266667e+00" height="4.938564e+01"/><rect x="3.456000e+02" y="0" width="4.266667e+00" height="4.540699e+01" vector-effect="non-scaling-stroke"/><rect y="0" width="4.266667e+00" height="4.930682e+01" vector-effect="non-scaling-stroke" x="3.669333e+02"/><rect y="0" width="4.266667e+00" height="1.652913e+02" vector-effect="non-scaling-stroke" x="3.882667e+02"/><rect width="4.266667e+00" height="4.472172e+01" vector-effect="non-scaling-stroke" x="4.096000e+02" y="0"/><rect height="1.201920e+04" vector-effect="non-scaling-stroke" x="4.309333e+02" y="0" width="4.266667e+00"/><rect height="6.424692e+01" vector-effect="non-scaling-stroke" x="4.522667e+02" y="0" width="4.266667e+00"/><rect x="4.736000e+02" y="0" width="4.266667e+00" height="1.965136e+02" vector-effect="non-scaling-stroke"/><rect y="0" width="4.266667e+00" height="4.766289e+01" vector-effect="non-scaling-stroke" x="4.949333e+02"/><rect height="4.400847e+01" vector-effect="non-scaling-stroke" x="5.162667e+02" y="0" width="4.266667e+00"/><rect width="4.266667e+00" height="4.675692e+01" vector-effect="non-scaling-stroke" x="5.376000e+02" y="0"/><rect y="0" width="4.266667e+00" height="5.309008e+01" vector-effect="non-scaling-stroke" x="5.589333e+02"/><rect vector-effect="non-scaling-stroke" x="5.802667e+02" y="0" width="4.266667e+00" height="7.960887e+01"/></g><g stroke-width="1px" font-family="sans-serif" dominant-baseline="hanging" font-size="12px" font-style="normal" fill="hsl(198, 47%, 65%)" stroke-linecap="round" text-anchor="start" stroke-linejoin="round" font-weight="normal" stroke="hsl(198, 47%, 65%)"><rect height="12" vector-effect="non-scaling-stroke" x="736" y="448" width="12"/><g fill="black" stroke="black"><text stroke="none" vector-effect="non-scaling-stroke" x="752" y="448" dominant-baseline="hanging">C++</text></g><g stroke-linejoin="round" font-style="normal" font-weight="normal" font-family="sans-serif" dominant-baseline="hanging" stroke="hsl(49, 88%, 65%)" stroke-width="1px" text-anchor="start" fill="hsl(49, 88%, 65%)" stroke-linecap="round" font-size="12px"><rect y="466" width="12" height="12" vector-effect="non-scaling-stroke" x="736"/><g fill="black" stroke="black"><text dominant-baseline="hanging" stroke="none" vector-effect="non-scaling-stroke" x="752" y="466">Crystal</text></g><g stroke-width="1px" font-family="sans-serif" stroke-linejoin="round" font-size="12px" font-weight="normal" fill="hsl(260, 76%, 65%)" stroke="hsl(260, 76%, 65%)" stroke-linecap="round" text-anchor="start" dominant-baseline="hanging" font-style="normal"><rect height="12" vector-effect="non-scaling-stroke" x="736" y="484" width="12"/><g stroke="black" fill="black"><text x="752" y="484" dominant-baseline="hanging" stroke="none" vector-effect="non-scaling-stroke">Golang</text></g><g font-weight="normal" text-anchor="start" dominant-baseline="hanging" stroke="hsl(111, 64%, 65%)" font-family="sans-serif" stroke-linejoin="round" font-size="12px" fill="hsl(111, 64%, 65%)" stroke-width="1px" stroke-linecap="round" font-style="normal"><rect width="12" height="12" vector-effect="non-scaling-stroke" x="736" y="502"/><g fill="black" stroke="black"><text dominant-baseline="hanging" stroke="none" vector-effect="non-scaling-stroke" x="752" y="502">Nim</text><g dominant-baseline="hanging" font-size="12px" stroke-width="2px" stroke-linejoin="round" font-style="normal" font-weight="normal" stroke-linecap="round" font-family="sans-serif" text-anchor="start" fill="none"><rect height="440" vector-effect="non-scaling-stroke" x="80" y="80" width="640"/></g><g font-style="normal" stroke-width="2px" stroke-linecap="round" font-family="sans-serif" text-anchor="start" dominant-baseline="hanging" transform="translate(80 520 )scale(1 -1 )" fill="none" stroke="black" font-weight="normal" stroke-linejoin="round" font-size="12px"><path vector-effect="non-scaling-stroke" d="M64,0 L64,-6 M8.533333e+01,0 L8.533333e+01,-6 M1.066667e+02,0 L1.066667e+02,-6 M128,0 L128,-6 M1.493333e+02,0 L1.493333e+02,-6 M1.706667e+02,0 L1.706667e+02,-6 M192,0 L192,-6 M2.133333e+02,0 L2.133333e+02,-6 M2.346667e+02,0 L2.346667e+02,-6 M256,0 L256,-6 M2.773333e+02,0 L2.773333e+02,-6 M2.986667e+02,0 L2.986667e+02,-6 M320,0 L320,-6 M3.413333e+02,0 L3.413333e+02,-6 M3.626667e+02,0 L3.626667e+02,-6 M384,0 L384,-6 M4.053333e+02,0 L4.053333e+02,-6 M4.266667e+02,0 L4.266667e+02,-6 M448,0 L448,-6 M4.693333e+02,0 L4.693333e+02,-6 M4.906667e+02,0 L4.906667e+02,-6 M512,0 L512,-6 M5.333333e+02,0 L5.333333e+02,-6 M5.546667e+02,0 L5.546667e+02,-6 M576,0 L576,-6 "/></g><g dominant-baseline="hanging" font-weight="normal" fill="black" stroke="black" stroke-linecap="round" text-anchor="middle" transform="translate(80 520 )scale(1 1 )" stroke-linejoin="round" font-size="12px" font-style="normal" stroke-width="2px" font-family="sans-serif"><text dominant-baseline="hanging" stroke="none" vector-effect="non-scaling-stroke" x="64" y="10">1</text><text vector-effect="non-scaling-stroke" x="8.533333e+01" y="10" dominant-baseline="hanging" stroke="none">2</text><text stroke="none" vector-effect="non-scaling-stroke" x="1.066667e+02" y="10" dominant-baseline="hanging">3</text><text y="10" dominant-baseline="hanging" stroke="none" vector-effect="non-scaling-stroke" x="128">4</text><text stroke="none" vector-effect="non-scaling-stroke" x="1.493333e+02" y="10" dominant-baseline="hanging">5</text><text stroke="none" vector-effect="non-scaling-stroke" x="1.706667e+02" y="10" dominant-baseline="hanging">6</text><text stroke="none" vector-effect="non-scaling-stroke" x="192" y="10" dominant-baseline="hanging">7</text><text vector-effect="non-scaling-stroke" x="2.133333e+02" y="10" dominant-baseline="hanging" stroke="none">8</text><text dominant-baseline="hanging" stroke="none" vector-effect="non-scaling-stroke" x="2.346667e+02" y="10">9</text><text stroke="none" vector-effect="non-scaling-stroke" x="256" y="10" dominant-baseline="hanging">10</text><text stroke="none" vector-effect="non-scaling-stroke" x="2.773333e+02" y="10" dominant-baseline="hanging">11</text><text vector-effect="non-scaling-stroke" x="2.986667e+02" y="10" dominant-baseline="hanging" stroke="none">12</text><text x="320" y="10" dominant-baseline="hanging" stroke="none" vector-effect="non-scaling-stroke">13</text><text stroke="none" vector-effect="non-scaling-stroke" x="3.413333e+02" y="10" dominant-baseline="hanging">14</text><text vector-effect="non-scaling-stroke" x="3.626667e+02" y="10" dominant-baseline="hanging" stroke="none">15</text><text vector-effect="non-scaling-stroke" x="384" y="10" dominant-baseline="hanging" stroke="none">16</text><text x="4.053333e+02" y="10" dominant-baseline="hanging" stroke="none" vector-effect="non-scaling-stroke">17</text><text dominant-baseline="hanging" stroke="none" vector-effect="non-scaling-stroke" x="4.266667e+02" y="10">18</text><text stroke="none" vector-effect="non-scaling-stroke" x="448" y="10" dominant-baseline="hanging">19</text><text y="10" dominant-baseline="hanging" stroke="none" vector-effect="non-scaling-stroke" x="4.693333e+02">20</text><text vector-effect="non-scaling-stroke" x="4.906667e+02" y="10" dominant-baseline="hanging" stroke="none">21</text><text stroke="none" vector-effect="non-scaling-stroke" x="512" y="10" dominant-baseline="hanging">22</text><text x="5.333333e+02" y="10" dominant-baseline="hanging" stroke="none" vector-effect="non-scaling-stroke">23</text><text dominant-baseline="hanging" stroke="none" vector-effect="non-scaling-stroke" x="5.546667e+02" y="10">24</text><text vector-effect="non-scaling-stroke" x="576" y="10" dominant-baseline="hanging" stroke="none">25</text></g><g font-size="12px" transform="translate(80 520 )scale(1 1 )rotate(0 0 0 )" fill="black" stroke-linecap="round" font-family="sans-serif" stroke-linejoin="round" font-style="normal" font-weight="bold" dominant-baseline="baseline" stroke="black" stroke-width="2px" text-anchor="middle"><text x="320" y="-6" dominant-baseline="baseline" stroke="none" vector-effect="non-scaling-stroke">Day</text></g><g fill="black" stroke="black" stroke-width="2px" stroke-linejoin="round" font-style="normal" font-weight="bold" font-family="sans-serif" text-anchor="middle" dominant-baseline="baseline" transform="translate(80 520 )scale(1 -1 )" stroke-linecap="round" font-size="12px"><path vector-effect="non-scaling-stroke" d="M0,44 L-6,44 M0,7.920000e+01 L-6,7.920000e+01 M0,1.144000e+02 L-6,1.144000e+02 M0,1.496000e+02 L-6,1.496000e+02 M0,1.848000e+02 L-6,1.848000e+02 M0,220 L-6,220 M0,2.552000e+02 L-6,2.552000e+02 M0,2.904000e+02 L-6,2.904000e+02 M0,3.256000e+02 L-6,3.256000e+02 M0,3.608000e+02 L-6,3.608000e+02 M0,396 L-6,396 "/></g><g transform="translate(80 520 )scale(1 1 )" stroke-width="2px" font-family="sans-serif" font-size="12px" font-weight="normal" text-anchor="end" dominant-baseline="middle" fill="black" stroke="black" stroke-linecap="round" stroke-linejoin="round" font-style="normal"><text y="-44" dominant-baseline="middle" stroke="none" vector-effect="non-scaling-stroke" x="-10">0s</text><text y="-7.920000e+01" dominant-baseline="middle" stroke="none" vector-effect="non-scaling-stroke" x="-10">200ms</text><text stroke="none" vector-effect="non-scaling-stroke" x="-10" y="-1.144000e+02" dominant-baseline="middle">400ms</text><text x="-10" y="-1.496000e+02" dominant-baseline="middle" stroke="none" vector-effect="non-scaling-stroke">600ms</text><text stroke="none" vector-effect="non-scaling-stroke" x="-10" y="-1.848000e+02" dominant-baseline="middle">800ms</text><text y="-220" dominant-baseline="middle" stroke="none" vector-effect="non-scaling-stroke" x="-10">1s</text><text dominant-baseline="middle" stroke="none" vector-effect="non-scaling-stroke" x="-10" y="-2.552000e+02">1.2s</text><text y="-2.904000e+02" dominant-baseline="middle" stroke="none" vector-effect="non-scaling-stroke" x="-10">1.4s</text><text stroke="none" vector-effect="non-scaling-stroke" x="-10" y="-3.256000e+02" dominant-baseline="middle">1.6s</text><text stroke="none" vector-effect="non-scaling-stroke" x="-10" y="-3.608000e+02" dominant-baseline="middle">1.8s</text><text dominant-baseline="middle" stroke="none" vector-effect="non-scaling-stroke" x="-10" y="-396">2s</text></g><g stroke-width="2px" transform="translate(80 520 )scale(1 1 )rotate(-90 0 0 )" fill="black" font-style="normal" font-weight="bold" stroke="black" font-family="sans-serif" text-anchor="middle" dominant-baseline="hanging" font-size="12px" stroke-linejoin="round" stroke-linecap="round"><text vector-effect="non-scaling-stroke" x="220" y="6" dominant-baseline="hanging" stroke="none">Runtime</text></g></g></g></g></g></g></svg>