<svg height="600" viewbox="0 0 800 600" preserveAspectRatio="xMidYMid meet" xmlns="http://www.w3.org/2000/svg" width="800"><defs><marker viewBox="0 0 10 10 " refX="5" refY="5" markerUnits="userSpaceOnUse" markerWidth="2%" markerHeight="2%" id="circle"><circle cy="5" r="3" fill="none" stroke="black" cx="5"/></marker><marker id="filled-circle" viewBox="0 0 10 10 " refX="5" refY="5" markerUnits="userSpaceOnUse" markerWidth="2%" markerHeight="2%"><circle r="3" fill="black" stroke="none" cx="5" cy="5"/></marker><marker id="square" viewBox="0 0 10 10 " refX="5" refY="5" markerUnits="userSpaceOnUse" markerWidth="2%" markerHeight="2%"><rect height="6" fill="none" stroke="black" x="2" y="2" width="6"/></marker><marker markerHeight="2%" id="filled-square" viewBox="0 0 10 10 " refX="5" refY="5" markerUnits="userSpaceOnUse" markerWidth="2%"><rect fill="black" stroke="none" x="2" y="2" width="6" height="6"/></marker></defs><g fill="hsl(198, 47%, 65%)" stroke="hsl(198, 47%, 65%)" stroke-width="1px" stroke-linecap="round" stroke-linejoin="round" transform="translate(80 520 )scale(1 -1 )"><rect y="0" width="4.266667e+00" height="4.400625e+01" vector-effect="non-scaling-stroke" x="5.546667e+01"/></g><g stroke="hsl(49, 88%, 65%)" stroke-width="1px" stroke-linecap="round" stroke-linejoin="round" transform="translate(80 520 )scale(1 -1 )" fill="hsl(49, 88%, 65%)"><rect vector-effect="non-scaling-stroke" x="5.973333e+01" y="0" width="4.266667e+00" height="4.400241e+01"/><rect vector-effect="non-scaling-stroke" x="8.106667e+01" y="0" width="4.266667e+00" height="4.400484e+01"/><rect vector-effect="non-scaling-stroke" x="1.024000e+02" y="0" width="4.266667e+00" height="4.409664e+01"/><rect vector-effect="non-scaling-stroke" x="1.237333e+02" y="0" width="4.266667e+00" height="2.097016e+02"/><rect vector-effect="non-scaling-stroke" x="1.450667e+02" y="0" width="4.266667e+00" height="4.405029e+01"/><rect vector-effect="non-scaling-stroke" x="1.664000e+02" y="0" width="4.266667e+00" height="5.535243e+01"/><rect x="1.877333e+02" y="0" width="4.266667e+00" height="4.404342e+01" vector-effect="non-scaling-stroke"/><rect x="2.090667e+02" y="0" width="4.266667e+00" height="4.400136e+01" vector-effect="non-scaling-stroke"/><rect vector-effect="non-scaling-stroke" x="2.304000e+02" y="0" width="4.266667e+00" height="4.622952e+01"/><rect vector-effect="non-scaling-stroke" x="2.517333e+02" y="0" width="4.266667e+00" height="5.460722e+01"/><rect y="0" width="4.266667e+00" height="4.871157e+01" vector-effect="non-scaling-stroke" x="2.730667e+02"/><rect width="4.266667e+00" height="4.415016e+01" vector-effect="non-scaling-stroke" x="2.944000e+02" y="0"/><rect vector-effect="non-scaling-stroke" x="3.157333e+02" y="0" width="4.266667e+00" height="5.833423e+01"/><rect y="0" width="4.266667e+00" height="4.407651e+01" vector-effect="non-scaling-stroke" x="3.370667e+02"/><rect vector-effect="non-scaling-stroke" x="3.584000e+02" y="0" width="4.266667e+00" height="5.385255e+01"/><rect x="3.797333e+02" y="0" width="4.266667e+00" height="4.408905e+01" vector-effect="non-scaling-stroke"/><rect vector-effect="non-scaling-stroke" x="4.010667e+02" y="0" width="4.266667e+00" height="5.494052e+01"/><rect x="4.224000e+02" y="0" width="4.266667e+00" height="5.243810e+01" vector-effect="non-scaling-stroke"/><rect y="0" width="4.266667e+00" height="4.409594e+01" vector-effect="non-scaling-stroke" x="4.437333e+02"/><rect vector-effect="non-scaling-stroke" x="4.650667e+02" y="0" width="4.266667e+00" height="6.740130e+02"/><rect height="4.407346e+01" vector-effect="non-scaling-stroke" x="4.864000e+02" y="0" width="4.266667e+00"/><rect x="5.077333e+02" y="0" width="4.266667e+00" height="1.244924e+02" vector-effect="non-scaling-stroke"/><rect vector-effect="non-scaling-stroke" x="5.290667e+02" y="0" width="4.266667e+00" height="4.400394e+01"/><rect width="4.266667e+00" height="6.975917e+01" vector-effect="non-scaling-stroke" x="5.504000e+02" y="0"/><rect x="5.717333e+02" y="0" width="4.266667e+00" height="4.400157e+01" vector-effect="non-scaling-stroke"/></g><g stroke-linejoin="round" transform="translate(80 520 )scale(1 -1 )" fill="hsl(260, 76%, 65%)" stroke="hsl(260, 76%, 65%)" stroke-width="1px" stroke-linecap="round"><rect height="4.400227e+01" vector-effect="non-scaling-stroke" x="6.400000e+01" y="0" width="4.266667e+00"/><rect vector-effect="non-scaling-stroke" x="8.533333e+01" y="0" width="4.266667e+00" height="4.400916e+01"/><rect vector-effect="non-scaling-stroke" x="1.066667e+02" y="0" width="4.266667e+00" height="4.408215e+01"/><rect vector-effect="non-scaling-stroke" x="1.280000e+02" y="0" width="4.266667e+00" height="3.085703e+02"/><rect x="1.493333e+02" y="0" width="4.266667e+00" height="4.402440e+01" vector-effect="non-scaling-stroke"/><rect height="5.079964e+01" vector-effect="non-scaling-stroke" x="1.706667e+02" y="0" width="4.266667e+00"/><rect width="4.266667e+00" height="4.404217e+01" vector-effect="non-scaling-stroke" x="192" y="0"/><rect x="2.133333e+02" y="0" width="4.266667e+00" height="4.400574e+01" vector-effect="non-scaling-stroke"/><rect y="0" width="4.266667e+00" height="4.489036e+01" vector-effect="non-scaling-stroke" x="2.346667e+02"/><rect vector-effect="non-scaling-stroke" x="256" y="0" width="4.266667e+00" height="1.632705e+02"/><rect vector-effect="non-scaling-stroke" x="2.773333e+02" y="0" width="4.266667e+00" height="5.288153e+01"/><rect width="4.266667e+00" height="4.405132e+01" vector-effect="non-scaling-stroke" x="2.986667e+02" y="0"/><rect x="320" y="0" width="4.266667e+00" height="6.043265e+01" vector-effect="non-scaling-stroke"/><rect y="0" width="4.266667e+00" height="4.407135e+01" vector-effect="non-scaling-stroke" x="3.413333e+02"/><rect x="3.626667e+02" y="0" width="4.266667e+00" height="5.195903e+01" vector-effect="non-scaling-stroke"/><rect y="0" width="4.266667e+00" height="4.404799e+01" vector-effect="non-scaling-stroke" x="384"/><rect x="4.053333e+02" y="0" width="4.266667e+00" height="5.164855e+01" vector-effect="non-scaling-stroke"/><rect x="4.266667e+02" y="0" width="4.266667e+00" height="4.542256e+01" vector-effect="non-scaling-stroke"/><rect width="4.266667e+00" height="4.419438e+01" vector-effect="non-scaling-stroke" x="448" y="0"/><rect height="2.634562e+02" vector-effect="non-scaling-stroke" x="4.693333e+02" y="0" width="4.266667e+00"/><rect height="4.400514e+01" vector-effect="non-scaling-stroke" x="4.906667e+02" y="0" width="4.266667e+00"/><rect x="512" y="0" width="4.266667e+00" height="7.996193e+01" vector-effect="non-scaling-stroke"/><rect width="4.266667e+00" height="4.400162e+01" vector-effect="non-scaling-stroke" x="5.333333e+02" y="0"/><rect y="0" width="4.266667e+00" height="4.535789e+01" vector-effect="non-scaling-stroke" x="5.546667e+02"/><rect height="4.400004e+01" vector-effect="non-scaling-stroke" x="576" y="0" width="4.266667e+00"/></g><g stroke-linecap="round" stroke-linejoin="round" transform="translate(80 520 )scale(1 -1 )" fill="hsl(111, 64%, 65%)" stroke="hsl(111, 64%, 65%)" stroke-width="1px"><rect width="4.266667e+00" height="4.400098e+01" vector-effect="non-scaling-stroke" x="6.826667e+01" y="0"/><rect vector-effect="non-scaling-stroke" x="8.960000e+01" y="0" width="4.266667e+00" height="4.400079e+01"/><rect vector-effect="non-scaling-stroke" x="1.109333e+02" y="0" width="4.266667e+00" height="4.408858e+01"/><rect x="1.322667e+02" y="0" width="4.266667e+00" height="2.377514e+02" vector-effect="non-scaling-stroke"/><rect y="0" width="4.266667e+00" height="4.401979e+01" vector-effect="non-scaling-stroke" x="1.536000e+02"/><rect vector-effect="non-scaling-stroke" x="1.749333e+02" y="0" width="4.266667e+00" height="4.559365e+01"/><rect vector-effect="non-scaling-stroke" x="1.962667e+02" y="0" width="4.266667e+00" height="4.400648e+01"/><rect y="0" width="4.266667e+00" height="4.400076e+01" vector-effect="non-scaling-stroke" x="2.176000e+02"/><rect x="2.389333e+02" y="0" width="4.266667e+00" height="4.412973e+01" vector-effect="non-scaling-stroke"/><rect width="4.266667e+00" height="4.943208e+01" vector-effect="non-scaling-stroke" x="2.602667e+02" y="0"/><rect x="2.816000e+02" y="0" width="4.266667e+00" height="4.461870e+01" vector-effect="non-scaling-stroke"/><rect vector-effect="non-scaling-stroke" x="3.029333e+02" y="0" width="4.266667e+00" height="4.401027e+01"/><rect height="4.440163e+01" vector-effect="non-scaling-stroke" x="3.242667e+02" y="0" width="4.266667e+00"/><rect height="4.400680e+01" vector-effect="non-scaling-stroke" x="3.456000e+02" y="0" width="4.266667e+00"/><rect height="4.407250e+01" vector-effect="non-scaling-stroke" x="3.669333e+02" y="0" width="4.266667e+00"/><rect vector-effect="non-scaling-stroke" x="3.882667e+02" y="0" width="4.266667e+00" height="4.400134e+01"/><rect vector-effect="non-scaling-stroke" x="4.096000e+02" y="0" width="4.266667e+00" height="4.437394e+01"/><rect vector-effect="non-scaling-stroke" x="4.309333e+02" y="0" width="4.266667e+00" height="4.656033e+01"/><rect vector-effect="non-scaling-stroke" x="4.522667e+02" y="0" width="4.266667e+00" height="4.440935e+01"/><rect height="5.824093e+02" vector-effect="non-scaling-stroke" x="4.736000e+02" y="0" width="4.266667e+00"/><rect x="4.949333e+02" y="0" width="4.266667e+00" height="4.400065e+01" vector-effect="non-scaling-stroke"/><rect width="4.266667e+00" height="4.539018e+01" vector-effect="non-scaling-stroke" x="5.162667e+02" y="0"/><rect vector-effect="non-scaling-stroke" x="5.376000e+02" y="0" width="4.266667e+00" height="4.400119e+01"/><rect x="5.589333e+02" y="0" width="4.266667e+00" height="2.883429e+02" vector-effect="non-scaling-stroke"/><rect y="0" width="4.266667e+00" height="4.400002e+01" vector-effect="non-scaling-stroke" x="5.802667e+02"/></g><g stroke="hsl(198, 47%, 65%)" font-weight="normal" text-anchor="start" fill="hsl(198, 47%, 65%)" stroke-width="1px" stroke-linejoin="round" font-style="normal" stroke-linecap="round" font-family="sans-serif" font-size="12px" dominant-baseline="hanging"><rect height="12" vector-effect="non-scaling-stroke" x="736" y="448" width="12"/><g stroke="black" fill="black"><text vector-effect="non-scaling-stroke" x="752" y="448" dominant-baseline="hanging" stroke="none">Crystal</text></g><g font-family="sans-serif" dominant-baseline="hanging" stroke="hsl(49, 88%, 65%)" font-weight="normal" stroke-linecap="round" stroke-linejoin="round" font-style="normal" stroke-width="1px" text-anchor="start" fill="hsl(49, 88%, 65%)" font-size="12px"><rect width="12" height="12" vector-effect="non-scaling-stroke" x="736" y="466"/><g fill="black" stroke="black"><text vector-effect="non-scaling-stroke" x="752" y="466" dominant-baseline="hanging" stroke="none">Golang</text></g><g font-size="12px" font-style="normal" dominant-baseline="hanging" stroke="hsl(260, 76%, 65%)" font-weight="normal" text-anchor="start" stroke-linejoin="round" stroke-width="1px" fill="hsl(260, 76%, 65%)" stroke-linecap="round" font-family="sans-serif"><rect height="12" vector-effect="non-scaling-stroke" x="736" y="484" width="12"/><g fill="black" stroke="black"><text y="484" dominant-baseline="hanging" stroke="none" vector-effect="non-scaling-stroke" x="752">Rust</text></g><g stroke-width="1px" font-weight="normal" text-anchor="start" font-style="normal" dominant-baseline="hanging" stroke="hsl(111, 64%, 65%)" fill="hsl(111, 64%, 65%)" stroke-linecap="round" stroke-linejoin="round" font-family="sans-serif" font-size="12px"><rect y="502" width="12" height="12" vector-effect="non-scaling-stroke" x="736"/><g stroke="black" fill="black"><text vector-effect="non-scaling-stroke" x="752" y="502" dominant-baseline="hanging" stroke="none">Zig</text><g text-anchor="start" font-size="12px" font-family="sans-serif" stroke-linejoin="round" font-style="normal" dominant-baseline="hanging" stroke-linecap="round" font-weight="normal" fill="none" stroke-width="2px"><rect y="80" width="640" height="440" vector-effect="non-scaling-stroke" x="80"/></g><g fill="none" font-size="12px" font-style="normal" stroke="black" stroke-width="2px" font-family="sans-serif" stroke-linecap="round" font-weight="normal" text-anchor="start" dominant-baseline="hanging" transform="translate(80 520 )scale(1 -1 )" stroke-linejoin="round"><path d="M64,0 L64,-6 " vector-effect="non-scaling-stroke"/></g><g stroke-linecap="round" fill="black" stroke-width="2px" dominant-baseline="hanging" font-size="12px" font-style="normal" transform="translate(80 520 )scale(1 1 )" stroke="black" font-weight="normal" text-anchor="middle" stroke-linejoin="round" font-family="sans-serif"><text x="64" y="10" dominant-baseline="hanging" stroke="none" vector-effect="non-scaling-stroke">1</text></g><g transform="translate(80 520 )scale(1 1 )rotate(0 0 0 )" stroke="black" stroke-linecap="round" stroke-linejoin="round" font-size="12px" dominant-baseline="baseline" stroke-width="2px" font-weight="bold" text-anchor="middle" fill="black" font-family="sans-serif" font-style="normal"><text dominant-baseline="baseline" stroke="none" vector-effect="non-scaling-stroke" x="320" y="-6">Day</text></g><g font-size="12px" font-weight="bold" transform="translate(80 520 )scale(1 -1 )" stroke="black" stroke-width="2px" stroke-linejoin="round" font-family="sans-serif" font-style="normal" dominant-baseline="baseline" fill="black" stroke-linecap="round" text-anchor="middle"><path d="M0,44 L-6,44 M0,7.920000e+01 L-6,7.920000e+01 M0,1.144000e+02 L-6,1.144000e+02 M0,1.496000e+02 L-6,1.496000e+02 M0,1.848000e+02 L-6,1.848000e+02 M0,220 L-6,220 M0,2.552000e+02 L-6,2.552000e+02 M0,2.904000e+02 L-6,2.904000e+02 M0,3.256000e+02 L-6,3.256000e+02 M0,3.608000e+02 L-6,3.608000e+02 M0,396 L-6,396 " vector-effect="non-scaling-stroke"/></g><g text-anchor="end" transform="translate(80 520 )scale(1 1 )" stroke-width="2px" font-style="normal" stroke-linecap="round" font-weight="normal" stroke-linejoin="round" font-family="sans-serif" font-size="12px" dominant-baseline="middle" fill="black" stroke="black"><text vector-effect="non-scaling-stroke" x="-10" y="-44" dominant-baseline="middle" stroke="none">0s</text><text vector-effect="non-scaling-stroke" x="-10" y="-7.920000e+01" dominant-baseline="middle" stroke="none">200ms</text><text x="-10" y="-1.144000e+02" dominant-baseline="middle" stroke="none" vector-effect="non-scaling-stroke">400ms</text><text vector-effect="non-scaling-stroke" x="-10" y="-1.496000e+02" dominant-baseline="middle" stroke="none">600ms</text><text dominant-baseline="middle" stroke="none" vector-effect="non-scaling-stroke" x="-10" y="-1.848000e+02">800ms</text><text vector-effect="non-scaling-stroke" x="-10" y="-220" dominant-baseline="middle" stroke="none">1s</text><text stroke="none" vector-effect="non-scaling-stroke" x="-10" y="-2.552000e+02" dominant-baseline="middle">1.2s</text><text y="-2.904000e+02" dominant-baseline="middle" stroke="none" vector-effect="non-scaling-stroke" x="-10">1.4s</text><text dominant-baseline="middle" stroke="none" vector-effect="non-scaling-stroke" x="-10" y="-3.256000e+02">1.6s</text><text y="-3.608000e+02" dominant-baseline="middle" stroke="none" vector-effect="non-scaling-stroke" x="-10">1.8s</text><text stroke="none" vector-effect="non-scaling-stroke" x="-10" y="-396" dominant-baseline="middle">2s</text></g><g font-family="sans-serif" stroke-linecap="round" font-weight="bold" transform="translate(80 520 )scale(1 1 )rotate(-90 0 0 )" stroke-linejoin="round" dominant-baseline="hanging" stroke="black" stroke-width="2px" fill="black" text-anchor="middle" font-size="12px" font-style="normal"><text y="6" dominant-baseline="hanging" stroke="none" vector-effect="non-scaling-stroke" x="220">Runtime</text></g></g></g></g></g></g></svg>