<svg preserveAspectRatio="xMidYMid meet" xmlns="http://www.w3.org/2000/svg" width="800" height="600" viewbox="0 0 800 600"><defs><marker markerWidth="2%" markerHeight="2%" id="circle" viewBox="0 0 10 10 " refX="5" refY="5" markerUnits="userSpaceOnUse"><circle cy="5" r="3" fill="none" stroke="black" cx="5"/></marker><marker refY="5" markerUnits="userSpaceOnUse" markerWidth="2%" markerHeight="2%" id="filled-circle" viewBox="0 0 10 10 " refX="5"><circle stroke="none" cx="5" cy="5" r="3" fill="black"/></marker><marker refX="5" refY="5" markerUnits="userSpaceOnUse" markerWidth="2%" markerHeight="2%" id="square" viewBox="0 0 10 10 "><rect width="6" height="6" fill="none" stroke="black" x="2" y="2"/></marker><marker markerUnits="userSpaceOnUse" markerWidth="2%" markerHeight="2%" id="filled-square" viewBox="0 0 10 10 " refX="5" refY="5"><rect width="6" height="6" fill="black" stroke="none" x="2" y="2"/></marker></defs><g stroke-linejoin="round" transform="translate(80 520 )scale(1 -1 )" fill="hsl(198, 47%, 65%)" stroke="hsl(198, 47%, 65%)" stroke-width="1px" stroke-linecap="round"><rect height="4.400464e+01" vector-effect="non-scaling-stroke" x="5.546667e+01" y="0" width="5.688889e+00"/></g><g stroke-linecap="round" stroke-linejoin="round" transform="translate(80 520 )scale(1 -1 )" fill="hsl(49, 88%, 65%)" stroke="hsl(49, 88%, 65%)" stroke-width="1px"><rect x="6.115556e+01" y="0" width="5.688889e+00" height="4.400206e+01" vector-effect="non-scaling-stroke"/><rect height="4.408086e+01" vector-effect="non-scaling-stroke" x="8.248889e+01" y="0" width="5.688889e+00"/><rect vector-effect="non-scaling-stroke" x="1.038222e+02" y="0" width="5.688889e+00" height="4.409723e+01"/><rect y="0" width="5.688889e+00" height="2.139339e+02" vector-effect="non-scaling-stroke" x="1.251556e+02"/><rect width="5.688889e+00" height="4.404426e+01" vector-effect="non-scaling-stroke" x="1.464889e+02" y="0"/><rect vector-effect="non-scaling-stroke" x="1.678222e+02" y="0" width="5.688889e+00" height="5.542286e+01"/><rect height="4.404342e+01" vector-effect="non-scaling-stroke" x="1.891556e+02" y="0" width="5.688889e+00"/><rect height="4.400373e+01" vector-effect="non-scaling-stroke" x="2.104889e+02" y="0" width="5.688889e+00"/><rect vector-effect="non-scaling-stroke" x="2.318222e+02" y="0" width="5.688889e+00" height="4.622952e+01"/><rect width="5.688889e+00" height="5.460722e+01" vector-effect="non-scaling-stroke" x="2.531556e+02" y="0"/><rect vector-effect="non-scaling-stroke" x="2.744889e+02" y="0" width="5.688889e+00" height="4.871157e+01"/><rect height="5.674458e+01" vector-effect="non-scaling-stroke" x="2.958222e+02" y="0" width="5.688889e+00"/><rect height="5.833423e+01" vector-effect="non-scaling-stroke" x="3.171556e+02" y="0" width="5.688889e+00"/><rect height="4.404200e+01" vector-effect="non-scaling-stroke" x="3.384889e+02" y="0" width="5.688889e+00"/><rect width="5.688889e+00" height="5.385255e+01" vector-effect="non-scaling-stroke" x="3.598222e+02" y="0"/><rect vector-effect="non-scaling-stroke" x="3.811556e+02" y="0" width="5.688889e+00" height="4.408992e+01"/><rect height="5.534909e+01" vector-effect="non-scaling-stroke" x="4.024889e+02" y="0" width="5.688889e+00"/><rect height="4.468289e+01" vector-effect="non-scaling-stroke" x="4.238222e+02" y="0" width="5.688889e+00"/><rect width="5.688889e+00" height="4.409594e+01" vector-effect="non-scaling-stroke" x="4.451556e+02" y="0"/><rect width="5.688889e+00" height="7.640869e+02" vector-effect="non-scaling-stroke" x="4.664889e+02" y="0"/><rect height="4.409445e+01" vector-effect="non-scaling-stroke" x="4.878222e+02" y="0" width="5.688889e+00"/><rect height="2.935412e+02" vector-effect="non-scaling-stroke" x="5.091556e+02" y="0" width="5.688889e+00"/><rect vector-effect="non-scaling-stroke" x="5.304889e+02" y="0" width="5.688889e+00" height="4.400394e+01"/><rect width="5.688889e+00" height="6.975917e+01" vector-effect="non-scaling-stroke" x="5.518222e+02" y="0"/><rect vector-effect="non-scaling-stroke" x="5.731556e+02" y="0" width="5.688889e+00" height="4.400157e+01"/></g><g stroke-width="1px" stroke-linecap="round" stroke-linejoin="round" transform="translate(80 520 )scale(1 -1 )" fill="hsl(260, 76%, 65%)" stroke="hsl(260, 76%, 65%)"><rect height="4.400059e+01" vector-effect="non-scaling-stroke" x="6.684444e+01" y="0" width="5.688889e+00"/><rect width="5.688889e+00" height="4.400954e+01" vector-effect="non-scaling-stroke" x="8.817778e+01" y="0"/><rect width="5.688889e+00" height="4.409449e+01" vector-effect="non-scaling-stroke" x="1.095111e+02" y="0"/><rect vector-effect="non-scaling-stroke" x="1.308444e+02" y="0" width="5.688889e+00" height="2.792670e+02"/><rect y="0" width="5.688889e+00" height="4.403840e+01" vector-effect="non-scaling-stroke" x="1.521778e+02"/><rect vector-effect="non-scaling-stroke" x="1.735111e+02" y="0" width="5.688889e+00" height="5.075967e+01"/><rect vector-effect="non-scaling-stroke" x="1.948444e+02" y="0" width="5.688889e+00" height="4.404131e+01"/><rect x="2.161778e+02" y="0" width="5.688889e+00" height="4.400612e+01" vector-effect="non-scaling-stroke"/><rect x="2.375111e+02" y="0" width="5.688889e+00" height="4.490746e+01" vector-effect="non-scaling-stroke"/><rect x="2.588444e+02" y="0" width="5.688889e+00" height="1.732070e+02" vector-effect="non-scaling-stroke"/><rect vector-effect="non-scaling-stroke" x="2.801778e+02" y="0" width="5.688889e+00" height="5.570157e+01"/><rect vector-effect="non-scaling-stroke" x="3.015111e+02" y="0" width="5.688889e+00" height="4.405264e+01"/><rect width="5.688889e+00" height="6.012659e+01" vector-effect="non-scaling-stroke" x="3.228444e+02" y="0"/><rect vector-effect="non-scaling-stroke" x="3.441778e+02" y="0" width="5.688889e+00" height="4.407210e+01"/><rect y="0" width="5.688889e+00" height="5.155243e+01" vector-effect="non-scaling-stroke" x="3.655111e+02"/><rect height="4.404596e+01" vector-effect="non-scaling-stroke" x="3.868444e+02" y="0" width="5.688889e+00"/><rect y="0" width="5.688889e+00" height="5.156325e+01" vector-effect="non-scaling-stroke" x="4.081778e+02"/><rect x="4.295111e+02" y="0" width="5.688889e+00" height="4.600786e+01" vector-effect="non-scaling-stroke"/><rect width="5.688889e+00" height="4.418950e+01" vector-effect="non-scaling-stroke" x="4.508444e+02" y="0"/><rect height="2.583647e+02" vector-effect="non-scaling-stroke" x="4.721778e+02" y="0" width="5.688889e+00"/><rect vector-effect="non-scaling-stroke" x="4.935111e+02" y="0" width="5.688889e+00" height="4.400801e+01"/><rect x="5.148444e+02" y="0" width="5.688889e+00" height="1.146048e+02" vector-effect="non-scaling-stroke"/><rect height="4.400099e+01" vector-effect="non-scaling-stroke" x="5.361778e+02" y="0" width="5.688889e+00"/><rect vector-effect="non-scaling-stroke" x="5.575111e+02" y="0" width="5.688889e+00" height="4.561417e+01"/><rect height="4.400004e+01" vector-effect="non-scaling-stroke" x="5.788444e+02" y="0" width="5.688889e+00"/></g><g text-anchor="start" fill="hsl(198, 47%, 65%)" stroke-linejoin="round" font-family="sans-serif" font-size="12px" stroke="hsl(198, 47%, 65%)" font-style="normal" font-weight="normal" dominant-baseline="hanging" stroke-width="1px" stroke-linecap="round"><rect vector-effect="non-scaling-stroke" x="736" y="466" width="12" height="12"/><g stroke="black" fill="black"><text vector-effect="non-scaling-stroke" x="752" y="466" dominant-baseline="hanging" stroke="none">Crystal</text></g><g fill="hsl(49, 88%, 65%)" font-style="normal" font-weight="normal" dominant-baseline="hanging" stroke="hsl(49, 88%, 65%)" stroke-linecap="round" stroke-linejoin="round" font-family="sans-serif" font-size="12px" text-anchor="start" stroke-width="1px"><rect y="484" width="12" height="12" vector-effect="non-scaling-stroke" x="736"/><g stroke="black" fill="black"><text stroke="none" vector-effect="non-scaling-stroke" x="752" y="484" dominant-baseline="hanging">Golang</text></g><g dominant-baseline="hanging" font-style="normal" text-anchor="start" font-family="sans-serif" font-size="12px" fill="hsl(260, 76%, 65%)" stroke-linejoin="round" stroke="hsl(260, 76%, 65%)" font-weight="normal" stroke-width="1px" stroke-linecap="round"><rect vector-effect="non-scaling-stroke" x="736" y="502" width="12" height="12"/><g stroke="black" fill="black"><text x="752" y="502" dominant-baseline="hanging" stroke="none" vector-effect="non-scaling-stroke">Rust</text><g stroke-linejoin="round" text-anchor="start" font-size="12px" dominant-baseline="hanging" stroke-linecap="round" font-family="sans-serif" fill="none" stroke-width="2px" font-style="normal" font-weight="normal"><rect width="640" height="440" vector-effect="non-scaling-stroke" x="80" y="80"/></g><g stroke-linejoin="round" transform="translate(80 520 )scale(1 -1 )" stroke="black" font-style="normal" dominant-baseline="hanging" font-size="12px" fill="none" stroke-width="2px" text-anchor="start" stroke-linecap="round" font-family="sans-serif" font-weight="normal"><path vector-effect="non-scaling-stroke" d="M64,0 L64,-6 "/></g><g stroke-width="2px" font-weight="normal" text-anchor="middle" transform="translate(80 520 )scale(1 1 )" fill="black" font-style="normal" dominant-baseline="hanging" stroke="black" stroke-linecap="round" stroke-linejoin="round" font-family="sans-serif" font-size="12px"><text dominant-baseline="hanging" stroke="none" vector-effect="non-scaling-stroke" x="64" y="10">1</text></g><g stroke-linejoin="round" font-style="normal" text-anchor="middle" dominant-baseline="baseline" font-size="12px" stroke-width="2px" stroke-linecap="round" transform="translate(80 520 )scale(1 1 )rotate(0 0 0 )" stroke="black" font-weight="bold" fill="black" font-family="sans-serif"><text y="-6" dominant-baseline="baseline" stroke="none" vector-effect="non-scaling-stroke" x="320">Day</text></g><g font-family="sans-serif" font-size="12px" font-weight="bold" text-anchor="middle" stroke-width="2px" stroke-linecap="round" stroke-linejoin="round" fill="black" font-style="normal" dominant-baseline="baseline" transform="translate(80 520 )scale(1 -1 )" stroke="black"><path vector-effect="non-scaling-stroke" d="M0,44 L-6,44 M0,7.920000e+01 L-6,7.920000e+01 M0,1.144000e+02 L-6,1.144000e+02 M0,1.496000e+02 L-6,1.496000e+02 M0,1.848000e+02 L-6,1.848000e+02 M0,220 L-6,220 M0,2.552000e+02 L-6,2.552000e+02 M0,2.904000e+02 L-6,2.904000e+02 M0,3.256000e+02 L-6,3.256000e+02 M0,3.608000e+02 L-6,3.608000e+02 M0,396 L-6,396 "/></g><g transform="translate(80 520 )scale(1 1 )" stroke="black" font-style="normal" font-weight="normal" fill="black" stroke-width="2px" dominant-baseline="middle" font-family="sans-serif" font-size="12px" stroke-linecap="round" stroke-linejoin="round" text-anchor="end"><text dominant-baseline="middle" stroke="none" vector-effect="non-scaling-stroke" x="-10" y="-44">0s</text><text x="-10" y="-7.920000e+01" dominant-baseline="middle" stroke="none" vector-effect="non-scaling-stroke">200ms</text><text dominant-baseline="middle" stroke="none" vector-effect="non-scaling-stroke" x="-10" y="-1.144000e+02">400ms</text><text vector-effect="non-scaling-stroke" x="-10" y="-1.496000e+02" dominant-baseline="middle" stroke="none">600ms</text><text stroke="none" vector-effect="non-scaling-stroke" x="-10" y="-1.848000e+02" dominant-baseline="middle">800ms</text><text stroke="none" vector-effect="non-scaling-stroke" x="-10" y="-220" dominant-baseline="middle">1s</text><text stroke="none" vector-effect="non-scaling-stroke" x="-10" y="-2.552000e+02" dominant-baseline="middle">1.2s</text><text stroke="none" vector-effect="non-scaling-stroke" x="-10" y="-2.904000e+02" dominant-baseline="middle">1.4s</text><text y="-3.256000e+02" dominant-baseline="middle" stroke="none" vector-effect="non-scaling-stroke" x="-10">1.6s</text><text stroke="none" vector-effect="non-scaling-stroke" x="-10" y="-3.608000e+02" dominant-baseline="middle">1.8s</text><text vector-effect="non-scaling-stroke" x="-10" y="-396" dominant-baseline="middle" stroke="none">2s</text></g><g font-size="12px" fill="black" stroke-width="2px" stroke-linecap="round" dominant-baseline="hanging" transform="translate(80 520 )scale(1 1 )rotate(-90 0 0 )" font-style="normal" font-family="sans-serif" stroke-linejoin="round" stroke="black" font-weight="bold" text-anchor="middle"><text dominant-baseline="hanging" stroke="none" vector-effect="non-scaling-stroke" x="220" y="6">Runtime</text></g></g></g></g></g></svg>