<svg viewbox="0 0 800 600" preserveAspectRatio="xMidYMid meet" xmlns="http://www.w3.org/2000/svg" width="800" height="600"><defs><marker id="circle" viewBox="0 0 10 10 " refX="5" refY="5" markerUnits="userSpaceOnUse" markerWidth="2%" markerHeight="2%"><circle cy="5" r="3" fill="none" stroke="black" cx="5"/></marker><marker viewBox="0 0 10 10 " refX="5" refY="5" markerUnits="userSpaceOnUse" markerWidth="2%" markerHeight="2%" id="filled-circle"><circle fill="black" stroke="none" cx="5" cy="5" r="3"/></marker><marker markerHeight="2%" id="square" viewBox="0 0 10 10 " refX="5" refY="5" markerUnits="userSpaceOnUse" markerWidth="2%"><rect stroke="black" x="2" y="2" width="6" height="6" fill="none"/></marker><marker refX="5" refY="5" markerUnits="userSpaceOnUse" markerWidth="2%" markerHeight="2%" id="filled-square" viewBox="0 0 10 10 "><rect stroke="none" x="2" y="2" width="6" height="6" fill="black"/></marker></defs><g stroke-linejoin="round" transform="translate(80 520 )scale(1 -1 )" fill="hsl(198, 47%, 65%)" stroke="hsl(198, 47%, 65%)" stroke-width="1px" stroke-linecap="round"><rect y="0" width="4.266667e+00" height="4.400653e+01" vector-effect="non-scaling-stroke" x="5.546667e+01"/></g><g stroke-linecap="round" stroke-linejoin="round" transform="translate(80 520 )scale(1 -1 )" fill="hsl(49, 88%, 65%)" stroke="hsl(49, 88%, 65%)" stroke-width="1px"><rect width="4.266667e+00" height="4.400241e+01" vector-effect="non-scaling-stroke" x="5.973333e+01" y="0"/><rect vector-effect="non-scaling-stroke" x="8.106667e+01" y="0" width="4.266667e+00" height="4.400484e+01"/><rect y="0" width="4.266667e+00" height="4.409664e+01" vector-effect="non-scaling-stroke" x="1.024000e+02"/><rect width="4.266667e+00" height="2.097016e+02" vector-effect="non-scaling-stroke" x="1.237333e+02" y="0"/><rect height="4.405029e+01" vector-effect="non-scaling-stroke" x="1.450667e+02" y="0" width="4.266667e+00"/><rect vector-effect="non-scaling-stroke" x="1.664000e+02" y="0" width="4.266667e+00" height="5.535243e+01"/><rect width="4.266667e+00" height="4.404342e+01" vector-effect="non-scaling-stroke" x="1.877333e+02" y="0"/><rect y="0" width="4.266667e+00" height="4.400136e+01" vector-effect="non-scaling-stroke" x="2.090667e+02"/><rect height="4.622952e+01" vector-effect="non-scaling-stroke" x="2.304000e+02" y="0" width="4.266667e+00"/><rect vector-effect="non-scaling-stroke" x="2.517333e+02" y="0" width="4.266667e+00" height="5.460722e+01"/><rect x="2.730667e+02" y="0" width="4.266667e+00" height="4.871157e+01" vector-effect="non-scaling-stroke"/><rect vector-effect="non-scaling-stroke" x="2.944000e+02" y="0" width="4.266667e+00" height="4.415016e+01"/><rect vector-effect="non-scaling-stroke" x="3.157333e+02" y="0" width="4.266667e+00" height="5.833423e+01"/><rect x="3.370667e+02" y="0" width="4.266667e+00" height="4.404200e+01" vector-effect="non-scaling-stroke"/><rect x="3.584000e+02" y="0" width="4.266667e+00" height="5.385255e+01" vector-effect="non-scaling-stroke"/><rect width="4.266667e+00" height="4.408992e+01" vector-effect="non-scaling-stroke" x="3.797333e+02" y="0"/><rect width="4.266667e+00" height="5.534909e+01" vector-effect="non-scaling-stroke" x="4.010667e+02" y="0"/><rect y="0" width="4.266667e+00" height="4.468289e+01" vector-effect="non-scaling-stroke" x="4.224000e+02"/><rect x="4.437333e+02" y="0" width="4.266667e+00" height="4.409594e+01" vector-effect="non-scaling-stroke"/><rect height="6.740130e+02" vector-effect="non-scaling-stroke" x="4.650667e+02" y="0" width="4.266667e+00"/><rect vector-effect="non-scaling-stroke" x="4.864000e+02" y="0" width="4.266667e+00" height="4.409445e+01"/><rect vector-effect="non-scaling-stroke" x="5.077333e+02" y="0" width="4.266667e+00" height="1.244924e+02"/><rect vector-effect="non-scaling-stroke" x="5.290667e+02" y="0" width="4.266667e+00" height="4.400394e+01"/><rect vector-effect="non-scaling-stroke" x="5.504000e+02" y="0" width="4.266667e+00" height="6.975917e+01"/><rect vector-effect="non-scaling-stroke" x="5.717333e+02" y="0" width="4.266667e+00" height="4.400157e+01"/></g><g stroke-width="1px" stroke-linecap="round" stroke-linejoin="round" transform="translate(80 520 )scale(1 -1 )" fill="hsl(260, 76%, 65%)" stroke="hsl(260, 76%, 65%)"><rect width="4.266667e+00" height="4.400227e+01" vector-effect="non-scaling-stroke" x="6.400000e+01" y="0"/><rect width="4.266667e+00" height="4.400916e+01" vector-effect="non-scaling-stroke" x="8.533333e+01" y="0"/><rect width="4.266667e+00" height="4.408215e+01" vector-effect="non-scaling-stroke" x="1.066667e+02" y="0"/><rect height="3.085703e+02" vector-effect="non-scaling-stroke" x="1.280000e+02" y="0" width="4.266667e+00"/><rect vector-effect="non-scaling-stroke" x="1.493333e+02" y="0" width="4.266667e+00" height="4.402440e+01"/><rect x="1.706667e+02" y="0" width="4.266667e+00" height="5.079964e+01" vector-effect="non-scaling-stroke"/><rect x="192" y="0" width="4.266667e+00" height="4.404217e+01" vector-effect="non-scaling-stroke"/><rect y="0" width="4.266667e+00" height="4.400574e+01" vector-effect="non-scaling-stroke" x="2.133333e+02"/><rect x="2.346667e+02" y="0" width="4.266667e+00" height="4.489036e+01" vector-effect="non-scaling-stroke"/><rect height="1.632705e+02" vector-effect="non-scaling-stroke" x="256" y="0" width="4.266667e+00"/><rect y="0" width="4.266667e+00" height="5.288153e+01" vector-effect="non-scaling-stroke" x="2.773333e+02"/><rect width="4.266667e+00" height="4.405132e+01" vector-effect="non-scaling-stroke" x="2.986667e+02" y="0"/><rect width="4.266667e+00" height="6.043265e+01" vector-effect="non-scaling-stroke" x="320" y="0"/><rect vector-effect="non-scaling-stroke" x="3.413333e+02" y="0" width="4.266667e+00" height="4.407135e+01"/><rect y="0" width="4.266667e+00" height="5.195903e+01" vector-effect="non-scaling-stroke" x="3.626667e+02"/><rect x="384" y="0" width="4.266667e+00" height="4.404799e+01" vector-effect="non-scaling-stroke"/><rect y="0" width="4.266667e+00" height="5.164855e+01" vector-effect="non-scaling-stroke" x="4.053333e+02"/><rect vector-effect="non-scaling-stroke" x="4.266667e+02" y="0" width="4.266667e+00" height="4.542256e+01"/><rect y="0" width="4.266667e+00" height="4.419438e+01" vector-effect="non-scaling-stroke" x="448"/><rect y="0" width="4.266667e+00" height="2.634562e+02" vector-effect="non-scaling-stroke" x="4.693333e+02"/><rect width="4.266667e+00" height="4.400514e+01" vector-effect="non-scaling-stroke" x="4.906667e+02" y="0"/><rect y="0" width="4.266667e+00" height="1.172092e+02" vector-effect="non-scaling-stroke" x="512"/><rect width="4.266667e+00" height="4.400162e+01" vector-effect="non-scaling-stroke" x="5.333333e+02" y="0"/><rect x="5.546667e+02" y="0" width="4.266667e+00" height="4.535789e+01" vector-effect="non-scaling-stroke"/><rect x="576" y="0" width="4.266667e+00" height="4.400004e+01" vector-effect="non-scaling-stroke"/></g><g stroke-width="1px" stroke-linecap="round" stroke-linejoin="round" transform="translate(80 520 )scale(1 -1 )" fill="hsl(111, 64%, 65%)" stroke="hsl(111, 64%, 65%)"><rect vector-effect="non-scaling-stroke" x="6.826667e+01" y="0" width="4.266667e+00" height="4.400093e+01"/><rect x="8.960000e+01" y="0" width="4.266667e+00" height="4.400076e+01" vector-effect="non-scaling-stroke"/><rect vector-effect="non-scaling-stroke" x="1.109333e+02" y="0" width="4.266667e+00" height="4.408040e+01"/><rect vector-effect="non-scaling-stroke" x="1.322667e+02" y="0" width="4.266667e+00" height="2.207771e+02"/><rect x="1.536000e+02" y="0" width="4.266667e+00" height="4.401834e+01" vector-effect="non-scaling-stroke"/><rect y="0" width="4.266667e+00" height="4.553504e+01" vector-effect="non-scaling-stroke" x="1.749333e+02"/><rect height="4.400612e+01" vector-effect="non-scaling-stroke" x="1.962667e+02" y="0" width="4.266667e+00"/><rect x="2.176000e+02" y="0" width="4.266667e+00" height="4.400062e+01" vector-effect="non-scaling-stroke"/><rect height="4.411024e+01" vector-effect="non-scaling-stroke" x="2.389333e+02" y="0" width="4.266667e+00"/><rect vector-effect="non-scaling-stroke" x="2.602667e+02" y="0" width="4.266667e+00" height="4.897381e+01"/><rect vector-effect="non-scaling-stroke" x="2.816000e+02" y="0" width="4.266667e+00" height="4.457886e+01"/><rect width="4.266667e+00" height="4.401073e+01" vector-effect="non-scaling-stroke" x="3.029333e+02" y="0"/></g><g font-family="sans-serif" font-style="normal" stroke="hsl(198, 47%, 65%)" stroke-linecap="round" stroke-linejoin="round" font-size="12px" font-weight="normal" text-anchor="start" dominant-baseline="hanging" fill="hsl(198, 47%, 65%)" stroke-width="1px"><rect vector-effect="non-scaling-stroke" x="736" y="448" width="12" height="12"/><g stroke="black" fill="black"><text dominant-baseline="hanging" stroke="none" vector-effect="non-scaling-stroke" x="752" y="448">Crystal</text></g><g font-family="sans-serif" font-weight="normal" text-anchor="start" dominant-baseline="hanging" stroke-width="1px" stroke-linecap="round" stroke-linejoin="round" font-size="12px" font-style="normal" fill="hsl(49, 88%, 65%)" stroke="hsl(49, 88%, 65%)"><rect height="12" vector-effect="non-scaling-stroke" x="736" y="466" width="12"/><g fill="black" stroke="black"><text stroke="none" vector-effect="non-scaling-stroke" x="752" y="466" dominant-baseline="hanging">Golang</text></g><g font-style="normal" dominant-baseline="hanging" text-anchor="start" stroke-linecap="round" font-size="12px" font-weight="normal" stroke-linejoin="round" font-family="sans-serif" fill="hsl(260, 76%, 65%)" stroke="hsl(260, 76%, 65%)" stroke-width="1px"><rect x="736" y="484" width="12" height="12" vector-effect="non-scaling-stroke"/><g fill="black" stroke="black"><text dominant-baseline="hanging" stroke="none" vector-effect="non-scaling-stroke" x="752" y="484">Rust</text></g><g fill="hsl(111, 64%, 65%)" font-weight="normal" stroke-linecap="round" font-family="sans-serif" font-style="normal" dominant-baseline="hanging" text-anchor="start" font-size="12px" stroke-width="1px" stroke-linejoin="round" stroke="hsl(111, 64%, 65%)"><rect width="12" height="12" vector-effect="non-scaling-stroke" x="736" y="502"/><g fill="black" stroke="black"><text x="752" y="502" dominant-baseline="hanging" stroke="none" vector-effect="non-scaling-stroke">Zig</text><g stroke-linecap="round" dominant-baseline="hanging" font-family="sans-serif" font-style="normal" stroke-linejoin="round" stroke-width="2px" font-size="12px" text-anchor="start" fill="none" font-weight="normal"><rect width="640" height="440" vector-effect="non-scaling-stroke" x="80" y="80"/></g><g stroke-linejoin="round" font-family="sans-serif" font-weight="normal" font-size="12px" stroke="black" stroke-width="2px" dominant-baseline="hanging" fill="none" text-anchor="start" transform="translate(80 520 )scale(1 -1 )" stroke-linecap="round" font-style="normal"><path d="M64,0 L64,-6 " vector-effect="non-scaling-stroke"/></g><g font-weight="normal" transform="translate(80 520 )scale(1 1 )" fill="black" stroke="black" stroke-linecap="round" font-size="12px" font-style="normal" text-anchor="middle" dominant-baseline="hanging" stroke-width="2px" stroke-linejoin="round" font-family="sans-serif"><text y="10" dominant-baseline="hanging" stroke="none" vector-effect="non-scaling-stroke" x="64">1</text></g><g font-weight="bold" transform="translate(80 520 )scale(1 1 )rotate(0 0 0 )" stroke-linecap="round" font-size="12px" text-anchor="middle" font-family="sans-serif" font-style="normal" dominant-baseline="baseline" fill="black" stroke="black" stroke-width="2px" stroke-linejoin="round"><text y="-6" dominant-baseline="baseline" stroke="none" vector-effect="non-scaling-stroke" x="320">Day</text></g><g font-style="normal" font-size="12px" font-weight="bold" transform="translate(80 520 )scale(1 -1 )" stroke="black" stroke-width="2px" stroke-linecap="round" stroke-linejoin="round" dominant-baseline="baseline" text-anchor="middle" fill="black" font-family="sans-serif"><path vector-effect="non-scaling-stroke" d="M0,44 L-6,44 M0,7.920000e+01 L-6,7.920000e+01 M0,1.144000e+02 L-6,1.144000e+02 M0,1.496000e+02 L-6,1.496000e+02 M0,1.848000e+02 L-6,1.848000e+02 M0,220 L-6,220 M0,2.552000e+02 L-6,2.552000e+02 M0,2.904000e+02 L-6,2.904000e+02 M0,3.256000e+02 L-6,3.256000e+02 M0,3.608000e+02 L-6,3.608000e+02 M0,396 L-6,396 "/></g><g fill="black" stroke-width="2px" font-size="12px" text-anchor="end" stroke-linecap="round" font-family="sans-serif" dominant-baseline="middle" stroke="black" transform="translate(80 520 )scale(1 1 )" font-weight="normal" stroke-linejoin="round" font-style="normal"><text stroke="none" vector-effect="non-scaling-stroke" x="-10" y="-44" dominant-baseline="middle">0s</text><text stroke="none" vector-effect="non-scaling-stroke" x="-10" y="-7.920000e+01" dominant-baseline="middle">200ms</text><text dominant-baseline="middle" stroke="none" vector-effect="non-scaling-stroke" x="-10" y="-1.144000e+02">400ms</text><text stroke="none" vector-effect="non-scaling-stroke" x="-10" y="-1.496000e+02" dominant-baseline="middle">600ms</text><text x="-10" y="-1.848000e+02" dominant-baseline="middle" stroke="none" vector-effect="non-scaling-stroke">800ms</text><text stroke="none" vector-effect="non-scaling-stroke" x="-10" y="-220" dominant-baseline="middle">1s</text><text y="-2.552000e+02" dominant-baseline="middle" stroke="none" vector-effect="non-scaling-stroke" x="-10">1.2s</text><text vector-effect="non-scaling-stroke" x="-10" y="-2.904000e+02" dominant-baseline="middle" stroke="none">1.4s</text><text dominant-baseline="middle" stroke="none" vector-effect="non-scaling-stroke" x="-10" y="-3.256000e+02">1.6s</text><text stroke="none" vector-effect="non-scaling-stroke" x="-10" y="-3.608000e+02" dominant-baseline="middle">1.8s</text><text y="-396" dominant-baseline="middle" stroke="none" vector-effect="non-scaling-stroke" x="-10">2s</text></g><g stroke-linecap="round" font-weight="bold" text-anchor="middle" transform="translate(80 520 )scale(1 1 )rotate(-90 0 0 )" font-family="sans-serif" font-style="normal" dominant-baseline="hanging" stroke-width="2px" font-size="12px" stroke-linejoin="round" fill="black" stroke="black"><text vector-effect="non-scaling-stroke" x="220" y="6" dominant-baseline="hanging" stroke="none">Runtime</text></g></g></g></g></g></g></svg>