<svg preserveAspectRatio="xMidYMid meet" xmlns="http://www.w3.org/2000/svg" width="800" height="600" viewbox="0 0 800 600"><defs><marker markerHeight="2%" id="circle" viewBox="0 0 10 10 " refX="5" refY="5" markerUnits="userSpaceOnUse" markerWidth="2%"><circle cx="5" cy="5" r="3" fill="none" stroke="black"/></marker><marker id="filled-circle" viewBox="0 0 10 10 " refX="5" refY="5" markerUnits="userSpaceOnUse" markerWidth="2%" markerHeight="2%"><circle fill="black" stroke="none" cx="5" cy="5" r="3"/></marker><marker refX="5" refY="5" markerUnits="userSpaceOnUse" markerWidth="2%" markerHeight="2%" id="square" viewBox="0 0 10 10 "><rect width="6" height="6" fill="none" stroke="black" x="2" y="2"/></marker><marker refY="5" markerUnits="userSpaceOnUse" markerWidth="2%" markerHeight="2%" id="filled-square" viewBox="0 0 10 10 " refX="5"><rect width="6" height="6" fill="black" stroke="none" x="2" y="2"/></marker></defs><g stroke-width="1px" stroke-linecap="round" stroke-linejoin="round" transform="translate(80 520 )scale(1 -1 )" fill="hsl(198, 47%, 65%)" stroke="hsl(198, 47%, 65%)"><rect vector-effect="non-scaling-stroke" x="5.546667e+01" y="0" width="8.533333e+00" height="4.400867e+01"/><rect width="8.533333e+00" height="4.400693e+01" vector-effect="non-scaling-stroke" x="7.680000e+01" y="0"/><rect vector-effect="non-scaling-stroke" x="9.813333e+01" y="0" width="8.533333e+00" height="4.400702e+01"/><rect x="1.194667e+02" y="0" width="8.533333e+00" height="4.457588e+01" vector-effect="non-scaling-stroke"/><rect y="0" width="8.533333e+00" height="7.725004e+01" vector-effect="non-scaling-stroke" x="1.408000e+02"/><rect height="4.940040e+01" vector-effect="non-scaling-stroke" x="1.621333e+02" y="0" width="8.533333e+00"/><rect y="0" width="8.533333e+00" height="4.469960e+01" vector-effect="non-scaling-stroke" x="1.834667e+02"/><rect x="2.048000e+02" y="0" width="8.533333e+00" height="4.415086e+01" vector-effect="non-scaling-stroke"/><rect x="2.261333e+02" y="0" width="8.533333e+00" height="4.403996e+01" vector-effect="non-scaling-stroke"/><rect vector-effect="non-scaling-stroke" x="2.474667e+02" y="0" width="8.533333e+00" height="4.438349e+01"/><rect height="4.405542e+01" vector-effect="non-scaling-stroke" x="2.688000e+02" y="0" width="8.533333e+00"/><rect height="4.493530e+01" vector-effect="non-scaling-stroke" x="2.901333e+02" y="0" width="8.533333e+00"/><rect x="3.114667e+02" y="0" width="8.533333e+00" height="6.956489e+01" vector-effect="non-scaling-stroke"/><rect vector-effect="non-scaling-stroke" x="3.328000e+02" y="0" width="8.533333e+00" height="6.589472e+01"/><rect width="8.533333e+00" height="2.951897e+02" vector-effect="non-scaling-stroke" x="3.541333e+02" y="0"/><rect height="1.205198e+02" vector-effect="non-scaling-stroke" x="3.754667e+02" y="0" width="8.533333e+00"/><rect vector-effect="non-scaling-stroke" x="3.968000e+02" y="0" width="8.533333e+00" height="1.975168e+02"/><rect x="4.181333e+02" y="0" width="8.533333e+00" height="4.680162e+01" vector-effect="non-scaling-stroke"/><rect x="4.394667e+02" y="0" width="8.533333e+00" height="4.411953e+01" vector-effect="non-scaling-stroke"/><rect x="4.608000e+02" y="0" width="8.533333e+00" height="1.253716e+02" vector-effect="non-scaling-stroke"/><rect height="6.871191e+01" vector-effect="non-scaling-stroke" x="4.821333e+02" y="0" width="8.533333e+00"/><rect vector-effect="non-scaling-stroke" x="5.034667e+02" y="0" width="8.533333e+00" height="6.588300e+01"/><rect height="4.479296e+01" vector-effect="non-scaling-stroke" x="5.248000e+02" y="0" width="8.533333e+00"/><rect y="0" width="8.533333e+00" height="9.583894e+01" vector-effect="non-scaling-stroke" x="5.461333e+02"/><rect x="5.674667e+02" y="0" width="8.533333e+00" height="5.622280e+01" vector-effect="non-scaling-stroke"/></g><g stroke-linejoin="round" transform="translate(80 520 )scale(1 -1 )" fill="hsl(49, 88%, 65%)" stroke="hsl(49, 88%, 65%)" stroke-width="1px" stroke-linecap="round"><rect height="4.400047e+01" vector-effect="non-scaling-stroke" x="64" y="0" width="8.533333e+00"/><rect vector-effect="non-scaling-stroke" x="8.533333e+01" y="0" width="8.533333e+00" height="4.400373e+01"/><rect vector-effect="non-scaling-stroke" x="1.066667e+02" y="0" width="8.533333e+00" height="4.400450e+01"/><rect x="128" y="0" width="8.533333e+00" height="4.474057e+01" vector-effect="non-scaling-stroke"/><rect width="8.533333e+00" height="5.609320e+01" vector-effect="non-scaling-stroke" x="1.493333e+02" y="0"/><rect vector-effect="non-scaling-stroke" x="1.706667e+02" y="0" width="8.533333e+00" height="4.447127e+01"/><rect x="192" y="0" width="8.533333e+00" height="4.422659e+01" vector-effect="non-scaling-stroke"/><rect width="8.533333e+00" height="4.407631e+01" vector-effect="non-scaling-stroke" x="2.133333e+02" y="0"/><rect x="2.346667e+02" y="0" width="8.533333e+00" height="4.402178e+01" vector-effect="non-scaling-stroke"/><rect x="2.560000e+02" y="0" width="8.533333e+00" height="4.404660e+01" vector-effect="non-scaling-stroke"/><rect height="4.403747e+01" vector-effect="non-scaling-stroke" x="2.773333e+02" y="0" width="8.533333e+00"/><rect width="8.533333e+00" height="4.435056e+01" vector-effect="non-scaling-stroke" x="2.986667e+02" y="0"/><rect y="0" width="8.533333e+00" height="2.026834e+02" vector-effect="non-scaling-stroke" x="320"/><rect height="5.125178e+01" vector-effect="non-scaling-stroke" x="3.413333e+02" y="0" width="8.533333e+00"/><rect height="396" vector-effect="non-scaling-stroke" x="3.626667e+02" y="0" width="8.533333e+00"/><rect height="5.038742e+01" vector-effect="non-scaling-stroke" x="384" y="0" width="8.533333e+00"/><rect width="8.533333e+00" height="1.504964e+02" vector-effect="non-scaling-stroke" x="4.053333e+02" y="0"/><rect y="0" width="8.533333e+00" height="4.420525e+01" vector-effect="non-scaling-stroke" x="4.266667e+02"/><rect x="448" y="0" width="8.533333e+00" height="44" vector-effect="non-scaling-stroke"/><rect height="44" vector-effect="non-scaling-stroke" x="4.693333e+02" y="0" width="8.533333e+00"/><rect vector-effect="non-scaling-stroke" x="4.906667e+02" y="0" width="8.533333e+00" height="44"/><rect height="44" vector-effect="non-scaling-stroke" x="512" y="0" width="8.533333e+00"/><rect x="5.333333e+02" y="0" width="8.533333e+00" height="44" vector-effect="non-scaling-stroke"/><rect vector-effect="non-scaling-stroke" x="5.546667e+02" y="0" width="8.533333e+00" height="44"/><rect y="0" width="8.533333e+00" height="44" vector-effect="non-scaling-stroke" x="576"/></g><g stroke="hsl(198, 47%, 65%)" stroke-width="1px" stroke-linecap="round" fill="hsl(198, 47%, 65%)" font-style="normal" font-family="sans-serif" font-weight="normal" text-anchor="start" dominant-baseline="hanging" stroke-linejoin="round" font-size="12px"><rect y="484" width="12" height="12" vector-effect="non-scaling-stroke" x="736"/><g stroke="black" fill="black"><text dominant-baseline="hanging" stroke="none" vector-effect="non-scaling-stroke" x="752" y="484">Golang</text></g><g font-size="12px" font-style="normal" stroke-linejoin="round" stroke-linecap="round" font-family="sans-serif" fill="hsl(49, 88%, 65%)" font-weight="normal" text-anchor="start" dominant-baseline="hanging" stroke="hsl(49, 88%, 65%)" stroke-width="1px"><rect height="12" vector-effect="non-scaling-stroke" x="736" y="502" width="12"/><g stroke="black" fill="black"><text x="752" y="502" dominant-baseline="hanging" stroke="none" vector-effect="non-scaling-stroke">Rust</text><g font-size="12px" font-style="normal" dominant-baseline="hanging" stroke-linecap="round" font-family="sans-serif" stroke-linejoin="round" fill="none" font-weight="normal" text-anchor="start" stroke-width="2px"><rect vector-effect="non-scaling-stroke" x="80" y="80" width="640" height="440"/></g><g stroke-linecap="round" stroke-width="2px" transform="translate(80 520 )scale(1 -1 )" font-style="normal" font-size="12px" stroke-linejoin="round" font-family="sans-serif" font-weight="normal" text-anchor="start" dominant-baseline="hanging" stroke="black" fill="none"><path vector-effect="non-scaling-stroke" d="M64,0 L64,-6 M8.533333e+01,0 L8.533333e+01,-6 M1.066667e+02,0 L1.066667e+02,-6 M128,0 L128,-6 M1.493333e+02,0 L1.493333e+02,-6 M1.706667e+02,0 L1.706667e+02,-6 M192,0 L192,-6 M2.133333e+02,0 L2.133333e+02,-6 M2.346667e+02,0 L2.346667e+02,-6 M256,0 L256,-6 M2.773333e+02,0 L2.773333e+02,-6 M2.986667e+02,0 L2.986667e+02,-6 M320,0 L320,-6 M3.413333e+02,0 L3.413333e+02,-6 M3.626667e+02,0 L3.626667e+02,-6 M384,0 L384,-6 M4.053333e+02,0 L4.053333e+02,-6 M4.266667e+02,0 L4.266667e+02,-6 M448,0 L448,-6 M4.693333e+02,0 L4.693333e+02,-6 M4.906667e+02,0 L4.906667e+02,-6 M512,0 L512,-6 M5.333333e+02,0 L5.333333e+02,-6 M5.546667e+02,0 L5.546667e+02,-6 M576,0 L576,-6 "/></g><g stroke="black" font-size="12px" font-style="normal" fill="black" stroke-width="2px" stroke-linejoin="round" font-family="sans-serif" font-weight="normal" stroke-linecap="round" text-anchor="middle" dominant-baseline="hanging" transform="translate(80 520 )scale(1 1 )"><text y="10" dominant-baseline="hanging" stroke="none" vector-effect="non-scaling-stroke" x="64">1</text><text stroke="none" vector-effect="non-scaling-stroke" x="8.533333e+01" y="10" dominant-baseline="hanging">2</text><text dominant-baseline="hanging" stroke="none" vector-effect="non-scaling-stroke" x="1.066667e+02" y="10">3</text><text stroke="none" vector-effect="non-scaling-stroke" x="128" y="10" dominant-baseline="hanging">4</text><text stroke="none" vector-effect="non-scaling-stroke" x="1.493333e+02" y="10" dominant-baseline="hanging">5</text><text vector-effect="non-scaling-stroke" x="1.706667e+02" y="10" dominant-baseline="hanging" stroke="none">6</text><text y="10" dominant-baseline="hanging" stroke="none" vector-effect="non-scaling-stroke" x="192">7</text><text x="2.133333e+02" y="10" dominant-baseline="hanging" stroke="none" vector-effect="non-scaling-stroke">8</text><text stroke="none" vector-effect="non-scaling-stroke" x="2.346667e+02" y="10" dominant-baseline="hanging">9</text><text x="256" y="10" dominant-baseline="hanging" stroke="none" vector-effect="non-scaling-stroke">10</text><text y="10" dominant-baseline="hanging" stroke="none" vector-effect="non-scaling-stroke" x="2.773333e+02">11</text><text stroke="none" vector-effect="non-scaling-stroke" x="2.986667e+02" y="10" dominant-baseline="hanging">12</text><text vector-effect="non-scaling-stroke" x="320" y="10" dominant-baseline="hanging" stroke="none">13</text><text stroke="none" vector-effect="non-scaling-stroke" x="3.413333e+02" y="10" dominant-baseline="hanging">14</text><text y="10" dominant-baseline="hanging" stroke="none" vector-effect="non-scaling-stroke" x="3.626667e+02">15</text><text x="384" y="10" dominant-baseline="hanging" stroke="none" vector-effect="non-scaling-stroke">16</text><text stroke="none" vector-effect="non-scaling-stroke" x="4.053333e+02" y="10" dominant-baseline="hanging">17</text><text dominant-baseline="hanging" stroke="none" vector-effect="non-scaling-stroke" x="4.266667e+02" y="10">18</text><text dominant-baseline="hanging" stroke="none" vector-effect="non-scaling-stroke" x="448" y="10">19</text><text x="4.693333e+02" y="10" dominant-baseline="hanging" stroke="none" vector-effect="non-scaling-stroke">20</text><text stroke="none" vector-effect="non-scaling-stroke" x="4.906667e+02" y="10" dominant-baseline="hanging">21</text><text stroke="none" vector-effect="non-scaling-stroke" x="512" y="10" dominant-baseline="hanging">22</text><text y="10" dominant-baseline="hanging" stroke="none" vector-effect="non-scaling-stroke" x="5.333333e+02">23</text><text x="5.546667e+02" y="10" dominant-baseline="hanging" stroke="none" vector-effect="non-scaling-stroke">24</text><text dominant-baseline="hanging" stroke="none" vector-effect="non-scaling-stroke" x="576" y="10">25</text></g><g fill="black" text-anchor="middle" stroke-width="2px" stroke-linejoin="round" font-family="sans-serif" font-weight="bold" font-size="12px" font-style="normal" dominant-baseline="baseline" stroke="black" stroke-linecap="round" transform="translate(80 520 )scale(1 1 )rotate(0 0 0 )"><text y="-6" dominant-baseline="baseline" stroke="none" vector-effect="non-scaling-stroke" x="320">Day</text></g><g font-family="sans-serif" font-weight="bold" stroke-width="2px" fill="black" font-style="normal" stroke-linejoin="round" dominant-baseline="baseline" stroke="black" stroke-linecap="round" transform="translate(80 520 )scale(1 -1 )" font-size="12px" text-anchor="middle"><path vector-effect="non-scaling-stroke" d="M0,44 L-6,44 M0,8.786585e+01 L-6,8.786585e+01 M0,1.317317e+02 L-6,1.317317e+02 M0,1.755976e+02 L-6,1.755976e+02 M0,2.194634e+02 L-6,2.194634e+02 M0,2.633293e+02 L-6,2.633293e+02 M0,3.071951e+02 L-6,3.071951e+02 M0,3.510610e+02 L-6,3.510610e+02 M0,3.949268e+02 L-6,3.949268e+02 "/></g><g font-weight="normal" font-size="12px" font-style="normal" stroke="black" stroke-width="2px" stroke-linecap="round" transform="translate(80 520 )scale(1 1 )" stroke-linejoin="round" font-family="sans-serif" text-anchor="end" dominant-baseline="middle" fill="black"><text x="-10" y="-44" dominant-baseline="middle" stroke="none" vector-effect="non-scaling-stroke">0s</text><text x="-10" y="-8.786585e+01" dominant-baseline="middle" stroke="none" vector-effect="non-scaling-stroke">200ms</text><text dominant-baseline="middle" stroke="none" vector-effect="non-scaling-stroke" x="-10" y="-1.317317e+02">400ms</text><text x="-10" y="-1.755976e+02" dominant-baseline="middle" stroke="none" vector-effect="non-scaling-stroke">600ms</text><text y="-2.194634e+02" dominant-baseline="middle" stroke="none" vector-effect="non-scaling-stroke" x="-10">800ms</text><text dominant-baseline="middle" stroke="none" vector-effect="non-scaling-stroke" x="-10" y="-2.633293e+02">1s</text><text x="-10" y="-3.071951e+02" dominant-baseline="middle" stroke="none" vector-effect="non-scaling-stroke">1.2s</text><text stroke="none" vector-effect="non-scaling-stroke" x="-10" y="-3.510610e+02" dominant-baseline="middle">1.4s</text><text vector-effect="non-scaling-stroke" x="-10" y="-3.949268e+02" dominant-baseline="middle" stroke="none">1.6s</text></g><g stroke-linecap="round" stroke-linejoin="round" font-family="sans-serif" font-weight="bold" dominant-baseline="hanging" transform="translate(80 520 )scale(1 1 )rotate(-90 0 0 )" stroke-width="2px" font-style="normal" fill="black" text-anchor="middle" stroke="black" font-size="12px"><text x="220" y="6" dominant-baseline="hanging" stroke="none" vector-effect="non-scaling-stroke">Runtime</text></g></g></g></g></svg>