<svg width="800" height="600" viewbox="0 0 800 600" preserveAspectRatio="xMidYMid meet" xmlns="http://www.w3.org/2000/svg"><defs><marker viewBox="0 0 10 10 " refX="5" refY="5" markerUnits="userSpaceOnUse" markerWidth="2%" markerHeight="2%" id="circle"><circle stroke="black" cx="5" cy="5" r="3" fill="none"/></marker><marker id="filled-circle" viewBox="0 0 10 10 " refX="5" refY="5" markerUnits="userSpaceOnUse" markerWidth="2%" markerHeight="2%"><circle fill="black" stroke="none" cx="5" cy="5" r="3"/></marker><marker refX="5" refY="5" markerUnits="userSpaceOnUse" markerWidth="2%" markerHeight="2%" id="square" viewBox="0 0 10 10 "><rect stroke="black" x="2" y="2" width="6" height="6" fill="none"/></marker><marker refX="5" refY="5" markerUnits="userSpaceOnUse" markerWidth="2%" markerHeight="2%" id="filled-square" viewBox="0 0 10 10 "><rect fill="black" stroke="none" x="2" y="2" width="6" height="6"/></marker></defs><g stroke="hsl(198, 47%, 65%)" stroke-width="1px" stroke-linecap="round" stroke-linejoin="round" transform="translate(80 520 )scale(1 -1 )" fill="hsl(198, 47%, 65%)"><rect vector-effect="non-scaling-stroke" x="5.546667e+01" y="0" width="8.533333e+00" height="4.400867e+01"/><rect height="4.400693e+01" vector-effect="non-scaling-stroke" x="7.680000e+01" y="0" width="8.533333e+00"/><rect height="4.400702e+01" vector-effect="non-scaling-stroke" x="9.813333e+01" y="0" width="8.533333e+00"/><rect height="4.457588e+01" vector-effect="non-scaling-stroke" x="1.194667e+02" y="0" width="8.533333e+00"/><rect x="1.408000e+02" y="0" width="8.533333e+00" height="7.725004e+01" vector-effect="non-scaling-stroke"/><rect height="4.940040e+01" vector-effect="non-scaling-stroke" x="1.621333e+02" y="0" width="8.533333e+00"/><rect height="4.469960e+01" vector-effect="non-scaling-stroke" x="1.834667e+02" y="0" width="8.533333e+00"/><rect height="4.415086e+01" vector-effect="non-scaling-stroke" x="2.048000e+02" y="0" width="8.533333e+00"/><rect width="8.533333e+00" height="4.403996e+01" vector-effect="non-scaling-stroke" x="2.261333e+02" y="0"/><rect x="2.474667e+02" y="0" width="8.533333e+00" height="4.438349e+01" vector-effect="non-scaling-stroke"/><rect vector-effect="non-scaling-stroke" x="2.688000e+02" y="0" width="8.533333e+00" height="4.405542e+01"/><rect height="4.493530e+01" vector-effect="non-scaling-stroke" x="2.901333e+02" y="0" width="8.533333e+00"/><rect x="3.114667e+02" y="0" width="8.533333e+00" height="6.956489e+01" vector-effect="non-scaling-stroke"/><rect y="0" width="8.533333e+00" height="6.589472e+01" vector-effect="non-scaling-stroke" x="3.328000e+02"/><rect width="8.533333e+00" height="2.951897e+02" vector-effect="non-scaling-stroke" x="3.541333e+02" y="0"/><rect x="3.754667e+02" y="0" width="8.533333e+00" height="1.205198e+02" vector-effect="non-scaling-stroke"/><rect vector-effect="non-scaling-stroke" x="3.968000e+02" y="0" width="8.533333e+00" height="1.975168e+02"/><rect y="0" width="8.533333e+00" height="4.680162e+01" vector-effect="non-scaling-stroke" x="4.181333e+02"/><rect height="4.411953e+01" vector-effect="non-scaling-stroke" x="4.394667e+02" y="0" width="8.533333e+00"/><rect x="4.608000e+02" y="0" width="8.533333e+00" height="1.253716e+02" vector-effect="non-scaling-stroke"/><rect y="0" width="8.533333e+00" height="6.871191e+01" vector-effect="non-scaling-stroke" x="4.821333e+02"/><rect x="5.034667e+02" y="0" width="8.533333e+00" height="6.588300e+01" vector-effect="non-scaling-stroke"/><rect width="8.533333e+00" height="4.479296e+01" vector-effect="non-scaling-stroke" x="5.248000e+02" y="0"/><rect x="5.461333e+02" y="0" width="8.533333e+00" height="9.583894e+01" vector-effect="non-scaling-stroke"/><rect height="5.622280e+01" vector-effect="non-scaling-stroke" x="5.674667e+02" y="0" width="8.533333e+00"/></g><g stroke="hsl(49, 88%, 65%)" stroke-width="1px" stroke-linecap="round" stroke-linejoin="round" transform="translate(80 520 )scale(1 -1 )" fill="hsl(49, 88%, 65%)"><rect y="0" width="8.533333e+00" height="4.400047e+01" vector-effect="non-scaling-stroke" x="64"/><rect vector-effect="non-scaling-stroke" x="8.533333e+01" y="0" width="8.533333e+00" height="4.400373e+01"/><rect height="4.400450e+01" vector-effect="non-scaling-stroke" x="1.066667e+02" y="0" width="8.533333e+00"/><rect height="4.474057e+01" vector-effect="non-scaling-stroke" x="128" y="0" width="8.533333e+00"/><rect vector-effect="non-scaling-stroke" x="1.493333e+02" y="0" width="8.533333e+00" height="5.609320e+01"/><rect vector-effect="non-scaling-stroke" x="1.706667e+02" y="0" width="8.533333e+00" height="4.447127e+01"/><rect y="0" width="8.533333e+00" height="4.422659e+01" vector-effect="non-scaling-stroke" x="192"/><rect vector-effect="non-scaling-stroke" x="2.133333e+02" y="0" width="8.533333e+00" height="4.407631e+01"/><rect y="0" width="8.533333e+00" height="4.402178e+01" vector-effect="non-scaling-stroke" x="2.346667e+02"/><rect height="4.404660e+01" vector-effect="non-scaling-stroke" x="2.560000e+02" y="0" width="8.533333e+00"/><rect height="4.403747e+01" vector-effect="non-scaling-stroke" x="2.773333e+02" y="0" width="8.533333e+00"/><rect y="0" width="8.533333e+00" height="4.435056e+01" vector-effect="non-scaling-stroke" x="2.986667e+02"/><rect x="320" y="0" width="8.533333e+00" height="2.026834e+02" vector-effect="non-scaling-stroke"/><rect vector-effect="non-scaling-stroke" x="3.413333e+02" y="0" width="8.533333e+00" height="5.125178e+01"/><rect vector-effect="non-scaling-stroke" x="3.626667e+02" y="0" width="8.533333e+00" height="396"/><rect width="8.533333e+00" height="5.038742e+01" vector-effect="non-scaling-stroke" x="384" y="0"/><rect height="1.504964e+02" vector-effect="non-scaling-stroke" x="4.053333e+02" y="0" width="8.533333e+00"/><rect vector-effect="non-scaling-stroke" x="4.266667e+02" y="0" width="8.533333e+00" height="4.420525e+01"/><rect height="44" vector-effect="non-scaling-stroke" x="448" y="0" width="8.533333e+00"/><rect vector-effect="non-scaling-stroke" x="4.693333e+02" y="0" width="8.533333e+00" height="44"/><rect width="8.533333e+00" height="44" vector-effect="non-scaling-stroke" x="4.906667e+02" y="0"/><rect width="8.533333e+00" height="44" vector-effect="non-scaling-stroke" x="512" y="0"/><rect vector-effect="non-scaling-stroke" x="5.333333e+02" y="0" width="8.533333e+00" height="44"/><rect y="0" width="8.533333e+00" height="44" vector-effect="non-scaling-stroke" x="5.546667e+02"/><rect x="576" y="0" width="8.533333e+00" height="44" vector-effect="non-scaling-stroke"/></g><g stroke-linejoin="round" text-anchor="start" font-size="12px" font-style="normal" fill="hsl(198, 47%, 65%)" font-weight="normal" dominant-baseline="hanging" stroke="hsl(198, 47%, 65%)" stroke-width="1px" stroke-linecap="round" font-family="sans-serif"><rect vector-effect="non-scaling-stroke" x="736" y="484" width="12" height="12"/><g stroke="black" fill="black"><text dominant-baseline="hanging" stroke="none" vector-effect="non-scaling-stroke" x="752" y="484">Golang</text></g><g dominant-baseline="hanging" stroke="hsl(49, 88%, 65%)" font-family="sans-serif" font-size="12px" fill="hsl(49, 88%, 65%)" stroke-linejoin="round" font-weight="normal" stroke-width="1px" stroke-linecap="round" font-style="normal" text-anchor="start"><rect x="736" y="502" width="12" height="12" vector-effect="non-scaling-stroke"/><g fill="black" stroke="black"><text stroke="none" vector-effect="non-scaling-stroke" x="752" y="502" dominant-baseline="hanging">Rust</text><g font-style="normal" stroke-linecap="round" text-anchor="start" stroke-width="2px" stroke-linejoin="round" dominant-baseline="hanging" font-size="12px" fill="none" font-weight="normal" font-family="sans-serif"><rect vector-effect="non-scaling-stroke" x="80" y="80" width="640" height="440"/></g><g stroke-width="2px" font-weight="normal" stroke-linecap="round" font-style="normal" text-anchor="start" transform="translate(80 520 )scale(1 -1 )" stroke="black" font-family="sans-serif" font-size="12px" dominant-baseline="hanging" fill="none" stroke-linejoin="round"><path vector-effect="non-scaling-stroke" d="M64,0 L64,-6 M8.533333e+01,0 L8.533333e+01,-6 M1.066667e+02,0 L1.066667e+02,-6 M128,0 L128,-6 M1.493333e+02,0 L1.493333e+02,-6 M1.706667e+02,0 L1.706667e+02,-6 M192,0 L192,-6 M2.133333e+02,0 L2.133333e+02,-6 M2.346667e+02,0 L2.346667e+02,-6 M256,0 L256,-6 M2.773333e+02,0 L2.773333e+02,-6 M2.986667e+02,0 L2.986667e+02,-6 M320,0 L320,-6 M3.413333e+02,0 L3.413333e+02,-6 M3.626667e+02,0 L3.626667e+02,-6 M384,0 L384,-6 M4.053333e+02,0 L4.053333e+02,-6 M4.266667e+02,0 L4.266667e+02,-6 M448,0 L448,-6 M4.693333e+02,0 L4.693333e+02,-6 M4.906667e+02,0 L4.906667e+02,-6 M512,0 L512,-6 M5.333333e+02,0 L5.333333e+02,-6 M5.546667e+02,0 L5.546667e+02,-6 M576,0 L576,-6 "/></g><g fill="black" stroke-linejoin="round" text-anchor="middle" transform="translate(80 520 )scale(1 1 )" stroke-width="2px" stroke-linecap="round" font-family="sans-serif" font-style="normal" stroke="black" font-size="12px" font-weight="normal" dominant-baseline="hanging"><text x="64" y="10" dominant-baseline="hanging" stroke="none" vector-effect="non-scaling-stroke">1</text><text dominant-baseline="hanging" stroke="none" vector-effect="non-scaling-stroke" x="8.533333e+01" y="10">2</text><text dominant-baseline="hanging" stroke="none" vector-effect="non-scaling-stroke" x="1.066667e+02" y="10">3</text><text stroke="none" vector-effect="non-scaling-stroke" x="128" y="10" dominant-baseline="hanging">4</text><text dominant-baseline="hanging" stroke="none" vector-effect="non-scaling-stroke" x="1.493333e+02" y="10">5</text><text stroke="none" vector-effect="non-scaling-stroke" x="1.706667e+02" y="10" dominant-baseline="hanging">6</text><text x="192" y="10" dominant-baseline="hanging" stroke="none" vector-effect="non-scaling-stroke">7</text><text dominant-baseline="hanging" stroke="none" vector-effect="non-scaling-stroke" x="2.133333e+02" y="10">8</text><text x="2.346667e+02" y="10" dominant-baseline="hanging" stroke="none" vector-effect="non-scaling-stroke">9</text><text stroke="none" vector-effect="non-scaling-stroke" x="256" y="10" dominant-baseline="hanging">10</text><text y="10" dominant-baseline="hanging" stroke="none" vector-effect="non-scaling-stroke" x="2.773333e+02">11</text><text y="10" dominant-baseline="hanging" stroke="none" vector-effect="non-scaling-stroke" x="2.986667e+02">12</text><text y="10" dominant-baseline="hanging" stroke="none" vector-effect="non-scaling-stroke" x="320">13</text><text dominant-baseline="hanging" stroke="none" vector-effect="non-scaling-stroke" x="3.413333e+02" y="10">14</text><text y="10" dominant-baseline="hanging" stroke="none" vector-effect="non-scaling-stroke" x="3.626667e+02">15</text><text stroke="none" vector-effect="non-scaling-stroke" x="384" y="10" dominant-baseline="hanging">16</text><text y="10" dominant-baseline="hanging" stroke="none" vector-effect="non-scaling-stroke" x="4.053333e+02">17</text><text y="10" dominant-baseline="hanging" stroke="none" vector-effect="non-scaling-stroke" x="4.266667e+02">18</text><text vector-effect="non-scaling-stroke" x="448" y="10" dominant-baseline="hanging" stroke="none">19</text><text stroke="none" vector-effect="non-scaling-stroke" x="4.693333e+02" y="10" dominant-baseline="hanging">20</text><text stroke="none" vector-effect="non-scaling-stroke" x="4.906667e+02" y="10" dominant-baseline="hanging">21</text><text stroke="none" vector-effect="non-scaling-stroke" x="512" y="10" dominant-baseline="hanging">22</text><text dominant-baseline="hanging" stroke="none" vector-effect="non-scaling-stroke" x="5.333333e+02" y="10">23</text><text stroke="none" vector-effect="non-scaling-stroke" x="5.546667e+02" y="10" dominant-baseline="hanging">24</text><text stroke="none" vector-effect="non-scaling-stroke" x="576" y="10" dominant-baseline="hanging">25</text></g><g font-size="12px" font-style="normal" transform="translate(80 520 )scale(1 1 )rotate(0 0 0 )" stroke-linejoin="round" dominant-baseline="baseline" stroke-linecap="round" font-family="sans-serif" stroke="black" font-weight="bold" fill="black" stroke-width="2px" text-anchor="middle"><text y="-6" dominant-baseline="baseline" stroke="none" vector-effect="non-scaling-stroke" x="320">Day</text></g><g stroke-width="2px" stroke-linecap="round" stroke-linejoin="round" font-weight="bold" text-anchor="middle" transform="translate(80 520 )scale(1 -1 )" stroke="black" font-family="sans-serif" font-size="12px" font-style="normal" fill="black" dominant-baseline="baseline"><path vector-effect="non-scaling-stroke" d="M0,44 L-6,44 M0,8.786585e+01 L-6,8.786585e+01 M0,1.317317e+02 L-6,1.317317e+02 M0,1.755976e+02 L-6,1.755976e+02 M0,2.194634e+02 L-6,2.194634e+02 M0,2.633293e+02 L-6,2.633293e+02 M0,3.071951e+02 L-6,3.071951e+02 M0,3.510610e+02 L-6,3.510610e+02 M0,3.949268e+02 L-6,3.949268e+02 "/></g><g stroke-width="2px" stroke-linecap="round" font-family="sans-serif" font-style="normal" text-anchor="end" transform="translate(80 520 )scale(1 1 )" stroke-linejoin="round" font-weight="normal" stroke="black" font-size="12px" fill="black" dominant-baseline="middle"><text vector-effect="non-scaling-stroke" x="-10" y="-44" dominant-baseline="middle" stroke="none">0s</text><text dominant-baseline="middle" stroke="none" vector-effect="non-scaling-stroke" x="-10" y="-8.786585e+01">200ms</text><text stroke="none" vector-effect="non-scaling-stroke" x="-10" y="-1.317317e+02" dominant-baseline="middle">400ms</text><text stroke="none" vector-effect="non-scaling-stroke" x="-10" y="-1.755976e+02" dominant-baseline="middle">600ms</text><text vector-effect="non-scaling-stroke" x="-10" y="-2.194634e+02" dominant-baseline="middle" stroke="none">800ms</text><text stroke="none" vector-effect="non-scaling-stroke" x="-10" y="-2.633293e+02" dominant-baseline="middle">1s</text><text stroke="none" vector-effect="non-scaling-stroke" x="-10" y="-3.071951e+02" dominant-baseline="middle">1.2s</text><text dominant-baseline="middle" stroke="none" vector-effect="non-scaling-stroke" x="-10" y="-3.510610e+02">1.4s</text><text dominant-baseline="middle" stroke="none" vector-effect="non-scaling-stroke" x="-10" y="-3.949268e+02">1.6s</text></g><g dominant-baseline="hanging" stroke-linejoin="round" stroke-width="2px" stroke-linecap="round" text-anchor="middle" transform="translate(80 520 )scale(1 1 )rotate(-90 0 0 )" stroke="black" fill="black" font-weight="bold" font-family="sans-serif" font-size="12px" font-style="normal"><text vector-effect="non-scaling-stroke" x="220" y="6" dominant-baseline="hanging" stroke="none">Runtime</text></g></g></g></g></svg>