<svg preserveAspectRatio="xMidYMid meet" xmlns="http://www.w3.org/2000/svg" width="800" height="600" viewbox="0 0 800 600"><defs><marker markerHeight="2%" id="circle" viewBox="0 0 10 10 " refX="5" refY="5" markerUnits="userSpaceOnUse" markerWidth="2%"><circle fill="none" stroke="black" cx="5" cy="5" r="3"/></marker><marker viewBox="0 0 10 10 " refX="5" refY="5" markerUnits="userSpaceOnUse" markerWidth="2%" markerHeight="2%" id="filled-circle"><circle fill="black" stroke="none" cx="5" cy="5" r="3"/></marker><marker markerWidth="2%" markerHeight="2%" id="square" viewBox="0 0 10 10 " refX="5" refY="5" markerUnits="userSpaceOnUse"><rect width="6" height="6" fill="none" stroke="black" x="2" y="2"/></marker><marker markerHeight="2%" id="filled-square" viewBox="0 0 10 10 " refX="5" refY="5" markerUnits="userSpaceOnUse" markerWidth="2%"><rect y="2" width="6" height="6" fill="black" stroke="none" x="2"/></marker></defs><g transform="translate(80 520 )scale(1 -1 )" fill="hsl(198, 47%, 65%)" stroke="hsl(198, 47%, 65%)" stroke-width="1px" stroke-linecap="round" stroke-linejoin="round"><rect vector-effect="non-scaling-stroke" x="5.546667e+01" y="0" width="5.688889e+00" height="4.400464e+01"/></g><g fill="hsl(49, 88%, 65%)" stroke="hsl(49, 88%, 65%)" stroke-width="1px" stroke-linecap="round" stroke-linejoin="round" transform="translate(80 520 )scale(1 -1 )"><rect height="4.400206e+01" vector-effect="non-scaling-stroke" x="6.115556e+01" y="0" width="5.688889e+00"/><rect vector-effect="non-scaling-stroke" x="8.248889e+01" y="0" width="5.688889e+00" height="4.408086e+01"/><rect width="5.688889e+00" height="4.409723e+01" vector-effect="non-scaling-stroke" x="1.038222e+02" y="0"/><rect x="1.251556e+02" y="0" width="5.688889e+00" height="2.107685e+02" vector-effect="non-scaling-stroke"/><rect vector-effect="non-scaling-stroke" x="1.464889e+02" y="0" width="5.688889e+00" height="4.404426e+01"/><rect x="1.678222e+02" y="0" width="5.688889e+00" height="5.542286e+01" vector-effect="non-scaling-stroke"/><rect vector-effect="non-scaling-stroke" x="1.891556e+02" y="0" width="5.688889e+00" height="4.404342e+01"/><rect x="2.104889e+02" y="0" width="5.688889e+00" height="4.400373e+01" vector-effect="non-scaling-stroke"/><rect width="5.688889e+00" height="4.622952e+01" vector-effect="non-scaling-stroke" x="2.318222e+02" y="0"/><rect height="5.460722e+01" vector-effect="non-scaling-stroke" x="2.531556e+02" y="0" width="5.688889e+00"/><rect width="5.688889e+00" height="4.871157e+01" vector-effect="non-scaling-stroke" x="2.744889e+02" y="0"/><rect vector-effect="non-scaling-stroke" x="2.958222e+02" y="0" width="5.688889e+00" height="4.415016e+01"/><rect x="3.171556e+02" y="0" width="5.688889e+00" height="5.833423e+01" vector-effect="non-scaling-stroke"/><rect x="3.384889e+02" y="0" width="5.688889e+00" height="4.404200e+01" vector-effect="non-scaling-stroke"/><rect vector-effect="non-scaling-stroke" x="3.598222e+02" y="0" width="5.688889e+00" height="5.385255e+01"/><rect y="0" width="5.688889e+00" height="4.408992e+01" vector-effect="non-scaling-stroke" x="3.811556e+02"/><rect vector-effect="non-scaling-stroke" x="4.024889e+02" y="0" width="5.688889e+00" height="5.534909e+01"/><rect width="5.688889e+00" height="4.468289e+01" vector-effect="non-scaling-stroke" x="4.238222e+02" y="0"/><rect width="5.688889e+00" height="4.409594e+01" vector-effect="non-scaling-stroke" x="4.451556e+02" y="0"/><rect width="5.688889e+00" height="6.740130e+02" vector-effect="non-scaling-stroke" x="4.664889e+02" y="0"/><rect y="0" width="5.688889e+00" height="4.409445e+01" vector-effect="non-scaling-stroke" x="4.878222e+02"/><rect height="1.244924e+02" vector-effect="non-scaling-stroke" x="5.091556e+02" y="0" width="5.688889e+00"/><rect x="5.304889e+02" y="0" width="5.688889e+00" height="4.400394e+01" vector-effect="non-scaling-stroke"/><rect x="5.518222e+02" y="0" width="5.688889e+00" height="6.975917e+01" vector-effect="non-scaling-stroke"/><rect vector-effect="non-scaling-stroke" x="5.731556e+02" y="0" width="5.688889e+00" height="4.400157e+01"/></g><g stroke-linejoin="round" transform="translate(80 520 )scale(1 -1 )" fill="hsl(260, 76%, 65%)" stroke="hsl(260, 76%, 65%)" stroke-width="1px" stroke-linecap="round"><rect y="0" width="5.688889e+00" height="4.400227e+01" vector-effect="non-scaling-stroke" x="6.684444e+01"/><rect width="5.688889e+00" height="4.400916e+01" vector-effect="non-scaling-stroke" x="8.817778e+01" y="0"/><rect width="5.688889e+00" height="4.408215e+01" vector-effect="non-scaling-stroke" x="1.095111e+02" y="0"/><rect height="3.085703e+02" vector-effect="non-scaling-stroke" x="1.308444e+02" y="0" width="5.688889e+00"/><rect y="0" width="5.688889e+00" height="4.402440e+01" vector-effect="non-scaling-stroke" x="1.521778e+02"/><rect vector-effect="non-scaling-stroke" x="1.735111e+02" y="0" width="5.688889e+00" height="5.079964e+01"/><rect height="4.404217e+01" vector-effect="non-scaling-stroke" x="1.948444e+02" y="0" width="5.688889e+00"/><rect vector-effect="non-scaling-stroke" x="2.161778e+02" y="0" width="5.688889e+00" height="4.400574e+01"/><rect width="5.688889e+00" height="4.489036e+01" vector-effect="non-scaling-stroke" x="2.375111e+02" y="0"/><rect width="5.688889e+00" height="1.632705e+02" vector-effect="non-scaling-stroke" x="2.588444e+02" y="0"/><rect vector-effect="non-scaling-stroke" x="2.801778e+02" y="0" width="5.688889e+00" height="5.288153e+01"/><rect y="0" width="5.688889e+00" height="4.405132e+01" vector-effect="non-scaling-stroke" x="3.015111e+02"/><rect vector-effect="non-scaling-stroke" x="3.228444e+02" y="0" width="5.688889e+00" height="6.043265e+01"/><rect y="0" width="5.688889e+00" height="4.407135e+01" vector-effect="non-scaling-stroke" x="3.441778e+02"/><rect vector-effect="non-scaling-stroke" x="3.655111e+02" y="0" width="5.688889e+00" height="5.195903e+01"/><rect vector-effect="non-scaling-stroke" x="3.868444e+02" y="0" width="5.688889e+00" height="4.404799e+01"/><rect width="5.688889e+00" height="5.164855e+01" vector-effect="non-scaling-stroke" x="4.081778e+02" y="0"/><rect vector-effect="non-scaling-stroke" x="4.295111e+02" y="0" width="5.688889e+00" height="4.542256e+01"/><rect vector-effect="non-scaling-stroke" x="4.508444e+02" y="0" width="5.688889e+00" height="4.419438e+01"/><rect vector-effect="non-scaling-stroke" x="4.721778e+02" y="0" width="5.688889e+00" height="2.634562e+02"/><rect x="4.935111e+02" y="0" width="5.688889e+00" height="4.400514e+01" vector-effect="non-scaling-stroke"/><rect width="5.688889e+00" height="1.172092e+02" vector-effect="non-scaling-stroke" x="5.148444e+02" y="0"/><rect x="5.361778e+02" y="0" width="5.688889e+00" height="4.400162e+01" vector-effect="non-scaling-stroke"/><rect vector-effect="non-scaling-stroke" x="5.575111e+02" y="0" width="5.688889e+00" height="4.535789e+01"/><rect vector-effect="non-scaling-stroke" x="5.788444e+02" y="0" width="5.688889e+00" height="4.400004e+01"/></g><g font-size="12px" dominant-baseline="hanging" stroke-linejoin="round" font-style="normal" stroke-linecap="round" stroke-width="1px" stroke="hsl(198, 47%, 65%)" font-family="sans-serif" font-weight="normal" text-anchor="start" fill="hsl(198, 47%, 65%)"><rect x="736" y="466" width="12" height="12" vector-effect="non-scaling-stroke"/><g fill="black" stroke="black"><text vector-effect="non-scaling-stroke" x="752" y="466" dominant-baseline="hanging" stroke="none">Crystal</text></g><g fill="hsl(49, 88%, 65%)" stroke-width="1px" dominant-baseline="hanging" stroke-linejoin="round" text-anchor="start" stroke="hsl(49, 88%, 65%)" stroke-linecap="round" font-size="12px" font-family="sans-serif" font-style="normal" font-weight="normal"><rect vector-effect="non-scaling-stroke" x="736" y="484" width="12" height="12"/><g stroke="black" fill="black"><text y="484" dominant-baseline="hanging" stroke="none" vector-effect="non-scaling-stroke" x="752">Golang</text></g><g dominant-baseline="hanging" stroke-width="1px" stroke-linecap="round" stroke-linejoin="round" font-family="sans-serif" stroke="hsl(260, 76%, 65%)" font-size="12px" font-style="normal" font-weight="normal" text-anchor="start" fill="hsl(260, 76%, 65%)"><rect vector-effect="non-scaling-stroke" x="736" y="502" width="12" height="12"/><g fill="black" stroke="black"><text x="752" y="502" dominant-baseline="hanging" stroke="none" vector-effect="non-scaling-stroke">Rust</text><g dominant-baseline="hanging" font-weight="normal" font-size="12px" font-style="normal" text-anchor="start" stroke-width="2px" fill="none" stroke-linecap="round" stroke-linejoin="round" font-family="sans-serif"><rect y="80" width="640" height="440" vector-effect="non-scaling-stroke" x="80"/></g><g dominant-baseline="hanging" stroke="black" stroke-linecap="round" stroke-linejoin="round" font-family="sans-serif" transform="translate(80 520 )scale(1 -1 )" stroke-width="2px" font-size="12px" font-weight="normal" text-anchor="start" fill="none" font-style="normal"><path vector-effect="non-scaling-stroke" d="M64,0 L64,-6 "/></g><g stroke="black" font-family="sans-serif" font-size="12px" dominant-baseline="hanging" stroke-linecap="round" stroke-linejoin="round" font-style="normal" font-weight="normal" text-anchor="middle" fill="black" transform="translate(80 520 )scale(1 1 )" stroke-width="2px"><text y="10" dominant-baseline="hanging" stroke="none" vector-effect="non-scaling-stroke" x="64">1</text></g><g stroke-linecap="round" stroke-linejoin="round" stroke-width="2px" stroke="black" fill="black" font-family="sans-serif" font-style="normal" font-weight="bold" transform="translate(80 520 )scale(1 1 )rotate(0 0 0 )" font-size="12px" dominant-baseline="baseline" text-anchor="middle"><text stroke="none" vector-effect="non-scaling-stroke" x="320" y="-6" dominant-baseline="baseline">Day</text></g><g stroke="black" stroke-linecap="round" stroke-linejoin="round" font-family="sans-serif" transform="translate(80 520 )scale(1 -1 )" font-size="12px" font-style="normal" font-weight="bold" text-anchor="middle" fill="black" dominant-baseline="baseline" stroke-width="2px"><path vector-effect="non-scaling-stroke" d="M0,44 L-6,44 M0,7.920000e+01 L-6,7.920000e+01 M0,1.144000e+02 L-6,1.144000e+02 M0,1.496000e+02 L-6,1.496000e+02 M0,1.848000e+02 L-6,1.848000e+02 M0,220 L-6,220 M0,2.552000e+02 L-6,2.552000e+02 M0,2.904000e+02 L-6,2.904000e+02 M0,3.256000e+02 L-6,3.256000e+02 M0,3.608000e+02 L-6,3.608000e+02 M0,396 L-6,396 "/></g><g dominant-baseline="middle" stroke-width="2px" font-style="normal" font-weight="normal" fill="black" stroke="black" font-size="12px" stroke-linecap="round" stroke-linejoin="round" font-family="sans-serif" text-anchor="end" transform="translate(80 520 )scale(1 1 )"><text stroke="none" vector-effect="non-scaling-stroke" x="-10" y="-44" dominant-baseline="middle">0s</text><text dominant-baseline="middle" stroke="none" vector-effect="non-scaling-stroke" x="-10" y="-7.920000e+01">200ms</text><text y="-1.144000e+02" dominant-baseline="middle" stroke="none" vector-effect="non-scaling-stroke" x="-10">400ms</text><text stroke="none" vector-effect="non-scaling-stroke" x="-10" y="-1.496000e+02" dominant-baseline="middle">600ms</text><text dominant-baseline="middle" stroke="none" vector-effect="non-scaling-stroke" x="-10" y="-1.848000e+02">800ms</text><text vector-effect="non-scaling-stroke" x="-10" y="-220" dominant-baseline="middle" stroke="none">1s</text><text dominant-baseline="middle" stroke="none" vector-effect="non-scaling-stroke" x="-10" y="-2.552000e+02">1.2s</text><text stroke="none" vector-effect="non-scaling-stroke" x="-10" y="-2.904000e+02" dominant-baseline="middle">1.4s</text><text stroke="none" vector-effect="non-scaling-stroke" x="-10" y="-3.256000e+02" dominant-baseline="middle">1.6s</text><text stroke="none" vector-effect="non-scaling-stroke" x="-10" y="-3.608000e+02" dominant-baseline="middle">1.8s</text><text dominant-baseline="middle" stroke="none" vector-effect="non-scaling-stroke" x="-10" y="-396">2s</text></g><g font-weight="bold" text-anchor="middle" stroke-linecap="round" font-size="12px" dominant-baseline="hanging" transform="translate(80 520 )scale(1 1 )rotate(-90 0 0 )" stroke-width="2px" font-family="sans-serif" font-style="normal" fill="black" stroke="black" stroke-linejoin="round"><text stroke="none" vector-effect="non-scaling-stroke" x="220" y="6" dominant-baseline="hanging">Runtime</text></g></g></g></g></g></svg>