<svg xmlns="http://www.w3.org/2000/svg" width="800" height="600" viewbox="0 0 800 600" preserveAspectRatio="xMidYMid meet"><defs><marker viewBox="0 0 10 10 " refX="5" refY="5" markerUnits="userSpaceOnUse" markerWidth="2%" markerHeight="2%" id="circle"><circle cx="5" cy="5" r="3" fill="none" stroke="black"/></marker><marker refY="5" markerUnits="userSpaceOnUse" markerWidth="2%" markerHeight="2%" id="filled-circle" viewBox="0 0 10 10 " refX="5"><circle cx="5" cy="5" r="3" fill="black" stroke="none"/></marker><marker id="square" viewBox="0 0 10 10 " refX="5" refY="5" markerUnits="userSpaceOnUse" markerWidth="2%" markerHeight="2%"><rect stroke="black" x="2" y="2" width="6" height="6" fill="none"/></marker><marker viewBox="0 0 10 10 " refX="5" refY="5" markerUnits="userSpaceOnUse" markerWidth="2%" markerHeight="2%" id="filled-square"><rect y="2" width="6" height="6" fill="black" stroke="none" x="2"/></marker></defs><g transform="translate(80 520 )scale(1 -1 )" fill="hsl(198, 47%, 65%)" stroke="hsl(198, 47%, 65%)" stroke-width="1px" stroke-linecap="round" stroke-linejoin="round"><rect width="5.688889e+00" height="4.417382e+01" vector-effect="non-scaling-stroke" x="5.546667e+01" y="0"/><rect x="7.680000e+01" y="0" width="5.688889e+00" height="4.535854e+01" vector-effect="non-scaling-stroke"/><rect height="6.785183e+01" vector-effect="non-scaling-stroke" x="9.813333e+01" y="0" width="5.688889e+00"/><rect x="1.194667e+02" y="0" width="5.688889e+00" height="4.476747e+01" vector-effect="non-scaling-stroke"/><rect x="1.408000e+02" y="0" width="5.688889e+00" height="1.131070e+02" vector-effect="non-scaling-stroke"/><rect y="0" width="5.688889e+00" height="5.212865e+01" vector-effect="non-scaling-stroke" x="1.621333e+02"/><rect width="5.688889e+00" height="4.404938e+01" vector-effect="non-scaling-stroke" x="1.834667e+02" y="0"/><rect width="5.688889e+00" height="4.406715e+01" vector-effect="non-scaling-stroke" x="2.048000e+02" y="0"/><rect vector-effect="non-scaling-stroke" x="2.261333e+02" y="0" width="5.688889e+00" height="9.862991e+01"/><rect x="2.474667e+02" y="0" width="5.688889e+00" height="4.433390e+01" vector-effect="non-scaling-stroke"/><rect vector-effect="non-scaling-stroke" x="2.688000e+02" y="0" width="5.688889e+00" height="5.149560e+01"/><rect width="5.688889e+00" height="4.451596e+01" vector-effect="non-scaling-stroke" x="2.901333e+02" y="0"/><rect vector-effect="non-scaling-stroke" x="3.114667e+02" y="0" width="5.688889e+00" height="4.556718e+01"/><rect vector-effect="non-scaling-stroke" x="3.328000e+02" y="0" width="5.688889e+00" height="7.575836e+01"/><rect y="0" width="5.688889e+00" height="1.613946e+02" vector-effect="non-scaling-stroke" x="3.541333e+02"/><rect height="4.841888e+01" vector-effect="non-scaling-stroke" x="3.754667e+02" y="0" width="5.688889e+00"/><rect vector-effect="non-scaling-stroke" x="3.968000e+02" y="0" width="5.688889e+00" height="5.636146e+01"/><rect width="5.688889e+00" height="9.201413e+01" vector-effect="non-scaling-stroke" x="4.181333e+02" y="0"/><rect vector-effect="non-scaling-stroke" x="4.394667e+02" y="0" width="5.688889e+00" height="6.170799e+01"/><rect vector-effect="non-scaling-stroke" x="4.608000e+02" y="0" width="5.688889e+00" height="5.178569e+01"/><rect width="5.688889e+00" height="1.146788e+02" vector-effect="non-scaling-stroke" x="4.821333e+02" y="0"/><rect x="5.034667e+02" y="0" width="5.688889e+00" height="2.983628e+02" vector-effect="non-scaling-stroke"/><rect y="0" width="5.688889e+00" height="8.770264e+01" vector-effect="non-scaling-stroke" x="5.248000e+02"/><rect vector-effect="non-scaling-stroke" x="5.461333e+02" y="0" width="5.688889e+00" height="6.941728e+01"/><rect x="5.674667e+02" y="0" width="5.688889e+00" height="4.629216e+01" vector-effect="non-scaling-stroke"/></g><g fill="hsl(49, 88%, 65%)" stroke="hsl(49, 88%, 65%)" stroke-width="1px" stroke-linecap="round" stroke-linejoin="round" transform="translate(80 520 )scale(1 -1 )"><rect y="0" width="5.688889e+00" height="4.418807e+01" vector-effect="non-scaling-stroke" x="6.115556e+01"/><rect width="5.688889e+00" height="4.414230e+01" vector-effect="non-scaling-stroke" x="8.248889e+01" y="0"/><rect height="4.517018e+01" vector-effect="non-scaling-stroke" x="1.038222e+02" y="0" width="5.688889e+00"/><rect height="4.400222e+01" vector-effect="non-scaling-stroke" x="1.251556e+02" y="0" width="5.688889e+00"/><rect height="4.551958e+01" vector-effect="non-scaling-stroke" x="1.464889e+02" y="0" width="5.688889e+00"/><rect y="0" width="5.688889e+00" height="4.580217e+01" vector-effect="non-scaling-stroke" x="1.678222e+02"/><rect width="5.688889e+00" height="4.400112e+01" vector-effect="non-scaling-stroke" x="1.891556e+02" y="0"/><rect x="2.104889e+02" y="0" width="5.688889e+00" height="4.402027e+01" vector-effect="non-scaling-stroke"/><rect height="5.495743e+01" vector-effect="non-scaling-stroke" x="2.318222e+02" y="0" width="5.688889e+00"/><rect y="0" width="5.688889e+00" height="4.400148e+01" vector-effect="non-scaling-stroke" x="2.531556e+02"/><rect vector-effect="non-scaling-stroke" x="2.744889e+02" y="0" width="5.688889e+00" height="4.485104e+01"/><rect width="5.688889e+00" height="4.401682e+01" vector-effect="non-scaling-stroke" x="2.958222e+02" y="0"/><rect vector-effect="non-scaling-stroke" x="3.171556e+02" y="0" width="5.688889e+00" height="4.493876e+01"/><rect x="3.384889e+02" y="0" width="5.688889e+00" height="7.204835e+01" vector-effect="non-scaling-stroke"/><rect y="0" width="5.688889e+00" height="8.635327e+01" vector-effect="non-scaling-stroke" x="3.598222e+02"/><rect x="3.811556e+02" y="0" width="5.688889e+00" height="4.403205e+01" vector-effect="non-scaling-stroke"/><rect x="4.024889e+02" y="0" width="5.688889e+00" height="4.422319e+01" vector-effect="non-scaling-stroke"/><rect y="0" width="5.688889e+00" height="5.040663e+01" vector-effect="non-scaling-stroke" x="4.238222e+02"/><rect width="5.688889e+00" height="5.596449e+01" vector-effect="non-scaling-stroke" x="4.451556e+02" y="0"/><rect width="5.688889e+00" height="4.404706e+01" vector-effect="non-scaling-stroke" x="4.664889e+02" y="0"/><rect vector-effect="non-scaling-stroke" x="4.878222e+02" y="0" width="5.688889e+00" height="4.403870e+01"/><rect y="0" width="5.688889e+00" height="4.780343e+01" vector-effect="non-scaling-stroke" x="5.091556e+02"/><rect vector-effect="non-scaling-stroke" x="5.304889e+02" y="0" width="5.688889e+00" height="6.201297e+01"/><rect width="5.688889e+00" height="5.981118e+01" vector-effect="non-scaling-stroke" x="5.518222e+02" y="0"/><rect vector-effect="non-scaling-stroke" x="5.731556e+02" y="0" width="5.688889e+00" height="4.454949e+01"/></g><g fill="hsl(260, 76%, 65%)" stroke="hsl(260, 76%, 65%)" stroke-width="1px" stroke-linecap="round" stroke-linejoin="round" transform="translate(80 520 )scale(1 -1 )"><rect height="4.417642e+01" vector-effect="non-scaling-stroke" x="6.684444e+01" y="0" width="5.688889e+00"/><rect width="5.688889e+00" height="4.401309e+01" vector-effect="non-scaling-stroke" x="8.817778e+01" y="0"/><rect y="0" width="5.688889e+00" height="4.455092e+01" vector-effect="non-scaling-stroke" x="1.095111e+02"/><rect y="0" width="5.688889e+00" height="4.400217e+01" vector-effect="non-scaling-stroke" x="1.308444e+02"/><rect width="5.688889e+00" height="4.479971e+01" vector-effect="non-scaling-stroke" x="1.521778e+02" y="0"/><rect vector-effect="non-scaling-stroke" x="1.735111e+02" y="0" width="5.688889e+00" height="4.575637e+01"/><rect y="0" width="5.688889e+00" height="4.400073e+01" vector-effect="non-scaling-stroke" x="1.948444e+02"/><rect x="2.161778e+02" y="0" width="5.688889e+00" height="4.401512e+01" vector-effect="non-scaling-stroke"/><rect x="2.375111e+02" y="0" width="5.688889e+00" height="5.311533e+01" vector-effect="non-scaling-stroke"/><rect vector-effect="non-scaling-stroke" x="2.588444e+02" y="0" width="5.688889e+00" height="4.400143e+01"/><rect width="5.688889e+00" height="4.454268e+01" vector-effect="non-scaling-stroke" x="2.801778e+02" y="0"/><rect x="3.015111e+02" y="0" width="5.688889e+00" height="4.400865e+01" vector-effect="non-scaling-stroke"/><rect y="0" width="5.688889e+00" height="4.729629e+01" vector-effect="non-scaling-stroke" x="3.228444e+02"/><rect height="9.020814e+01" vector-effect="non-scaling-stroke" x="3.441778e+02" y="0" width="5.688889e+00"/><rect y="0" width="5.688889e+00" height="8.282792e+01" vector-effect="non-scaling-stroke" x="3.655111e+02"/><rect x="3.868444e+02" y="0" width="5.688889e+00" height="4.403355e+01" vector-effect="non-scaling-stroke"/><rect width="5.688889e+00" height="396" vector-effect="non-scaling-stroke" x="4.081778e+02" y="0"/><rect height="4.677230e+01" vector-effect="non-scaling-stroke" x="4.295111e+02" y="0" width="5.688889e+00"/><rect height="4.400219e+01" vector-effect="non-scaling-stroke" x="4.508444e+02" y="0" width="5.688889e+00"/><rect width="5.688889e+00" height="4.404873e+01" vector-effect="non-scaling-stroke" x="4.721778e+02" y="0"/><rect y="0" width="5.688889e+00" height="4.404200e+01" vector-effect="non-scaling-stroke" x="4.935111e+02"/><rect width="5.688889e+00" height="4.463600e+01" vector-effect="non-scaling-stroke" x="5.148444e+02" y="0"/><rect vector-effect="non-scaling-stroke" x="5.361778e+02" y="0" width="5.688889e+00" height="5.310862e+01"/><rect vector-effect="non-scaling-stroke" x="5.575111e+02" y="0" width="5.688889e+00" height="4.520599e+01"/><rect x="5.788444e+02" y="0" width="5.688889e+00" height="4.417886e+01" vector-effect="non-scaling-stroke"/></g><g text-anchor="start" stroke-width="1px" stroke-linejoin="round" font-style="normal" dominant-baseline="hanging" fill="hsl(198, 47%, 65%)" font-weight="normal" stroke="hsl(198, 47%, 65%)" stroke-linecap="round" font-family="sans-serif" font-size="12px"><rect vector-effect="non-scaling-stroke" x="736" y="466" width="12" height="12"/><g stroke="black" fill="black"><text y="466" dominant-baseline="hanging" stroke="none" vector-effect="non-scaling-stroke" x="752">Golang</text></g><g dominant-baseline="hanging" text-anchor="start" fill="hsl(49, 88%, 65%)" font-weight="normal" stroke="hsl(49, 88%, 65%)" stroke-linecap="round" font-family="sans-serif" font-size="12px" stroke-width="1px" stroke-linejoin="round" font-style="normal"><rect height="12" vector-effect="non-scaling-stroke" x="736" y="484" width="12"/><g fill="black" stroke="black"><text dominant-baseline="hanging" stroke="none" vector-effect="non-scaling-stroke" x="752" y="484">Rust</text></g><g font-family="sans-serif" text-anchor="start" fill="hsl(260, 76%, 65%)" font-weight="normal" dominant-baseline="hanging" stroke="hsl(260, 76%, 65%)" font-size="12px" stroke-width="1px" stroke-linejoin="round" font-style="normal" stroke-linecap="round"><rect vector-effect="non-scaling-stroke" x="736" y="502" width="12" height="12"/><g stroke="black" fill="black"><text y="502" dominant-baseline="hanging" stroke="none" vector-effect="non-scaling-stroke" x="752">Zig</text><g fill="none" stroke-linejoin="round" stroke-linecap="round" font-family="sans-serif" stroke-width="2px" font-style="normal" font-weight="normal" font-size="12px" dominant-baseline="hanging" text-anchor="start"><rect width="640" height="440" vector-effect="non-scaling-stroke" x="80" y="80"/></g><g font-weight="normal" dominant-baseline="hanging" stroke="black" stroke-linecap="round" font-size="12px" fill="none" stroke-width="2px" font-style="normal" font-family="sans-serif" text-anchor="start" transform="translate(80 520 )scale(1 -1 )" stroke-linejoin="round"><path vector-effect="non-scaling-stroke" d="M64,0 L64,-6 M8.533333e+01,0 L8.533333e+01,-6 M1.066667e+02,0 L1.066667e+02,-6 M128,0 L128,-6 M1.493333e+02,0 L1.493333e+02,-6 M1.706667e+02,0 L1.706667e+02,-6 M192,0 L192,-6 M2.133333e+02,0 L2.133333e+02,-6 M2.346667e+02,0 L2.346667e+02,-6 M256,0 L256,-6 M2.773333e+02,0 L2.773333e+02,-6 M2.986667e+02,0 L2.986667e+02,-6 M320,0 L320,-6 M3.413333e+02,0 L3.413333e+02,-6 M3.626667e+02,0 L3.626667e+02,-6 M384,0 L384,-6 M4.053333e+02,0 L4.053333e+02,-6 M4.266667e+02,0 L4.266667e+02,-6 M448,0 L448,-6 M4.693333e+02,0 L4.693333e+02,-6 M4.906667e+02,0 L4.906667e+02,-6 M512,0 L512,-6 M5.333333e+02,0 L5.333333e+02,-6 M5.546667e+02,0 L5.546667e+02,-6 M576,0 L576,-6 "/></g><g stroke="black" stroke-linecap="round" font-family="sans-serif" transform="translate(80 520 )scale(1 1 )" stroke-width="2px" stroke-linejoin="round" font-style="normal" dominant-baseline="hanging" font-size="12px" text-anchor="middle" fill="black" font-weight="normal"><text x="64" y="10" dominant-baseline="hanging" stroke="none" vector-effect="non-scaling-stroke">1</text><text dominant-baseline="hanging" stroke="none" vector-effect="non-scaling-stroke" x="8.533333e+01" y="10">2</text><text vector-effect="non-scaling-stroke" x="1.066667e+02" y="10" dominant-baseline="hanging" stroke="none">3</text><text x="128" y="10" dominant-baseline="hanging" stroke="none" vector-effect="non-scaling-stroke">4</text><text y="10" dominant-baseline="hanging" stroke="none" vector-effect="non-scaling-stroke" x="1.493333e+02">5</text><text stroke="none" vector-effect="non-scaling-stroke" x="1.706667e+02" y="10" dominant-baseline="hanging">6</text><text stroke="none" vector-effect="non-scaling-stroke" x="192" y="10" dominant-baseline="hanging">7</text><text vector-effect="non-scaling-stroke" x="2.133333e+02" y="10" dominant-baseline="hanging" stroke="none">8</text><text dominant-baseline="hanging" stroke="none" vector-effect="non-scaling-stroke" x="2.346667e+02" y="10">9</text><text stroke="none" vector-effect="non-scaling-stroke" x="256" y="10" dominant-baseline="hanging">10</text><text y="10" dominant-baseline="hanging" stroke="none" vector-effect="non-scaling-stroke" x="2.773333e+02">11</text><text x="2.986667e+02" y="10" dominant-baseline="hanging" stroke="none" vector-effect="non-scaling-stroke">12</text><text dominant-baseline="hanging" stroke="none" vector-effect="non-scaling-stroke" x="320" y="10">13</text><text vector-effect="non-scaling-stroke" x="3.413333e+02" y="10" dominant-baseline="hanging" stroke="none">14</text><text dominant-baseline="hanging" stroke="none" vector-effect="non-scaling-stroke" x="3.626667e+02" y="10">15</text><text stroke="none" vector-effect="non-scaling-stroke" x="384" y="10" dominant-baseline="hanging">16</text><text vector-effect="non-scaling-stroke" x="4.053333e+02" y="10" dominant-baseline="hanging" stroke="none">17</text><text stroke="none" vector-effect="non-scaling-stroke" x="4.266667e+02" y="10" dominant-baseline="hanging">18</text><text dominant-baseline="hanging" stroke="none" vector-effect="non-scaling-stroke" x="448" y="10">19</text><text x="4.693333e+02" y="10" dominant-baseline="hanging" stroke="none" vector-effect="non-scaling-stroke">20</text><text dominant-baseline="hanging" stroke="none" vector-effect="non-scaling-stroke" x="4.906667e+02" y="10">21</text><text x="512" y="10" dominant-baseline="hanging" stroke="none" vector-effect="non-scaling-stroke">22</text><text stroke="none" vector-effect="non-scaling-stroke" x="5.333333e+02" y="10" dominant-baseline="hanging">23</text><text dominant-baseline="hanging" stroke="none" vector-effect="non-scaling-stroke" x="5.546667e+02" y="10">24</text><text stroke="none" vector-effect="non-scaling-stroke" x="576" y="10" dominant-baseline="hanging">25</text></g><g stroke-linecap="round" font-size="12px" text-anchor="middle" fill="black" stroke-width="2px" font-family="sans-serif" transform="translate(80 520 )scale(1 1 )rotate(0 0 0 )" stroke-linejoin="round" font-style="normal" font-weight="bold" dominant-baseline="baseline" stroke="black"><text stroke="none" vector-effect="non-scaling-stroke" x="320" y="-6" dominant-baseline="baseline">Day</text></g><g transform="translate(80 520 )scale(1 -1 )" stroke-width="2px" font-style="normal" font-weight="bold" dominant-baseline="baseline" stroke="black" text-anchor="middle" fill="black" stroke-linejoin="round" stroke-linecap="round" font-family="sans-serif" font-size="12px"><path vector-effect="non-scaling-stroke" d="M0,44 L-6,44 M0,9.793209e+01 L-6,9.793209e+01 M0,1.518642e+02 L-6,1.518642e+02 M0,2.057963e+02 L-6,2.057963e+02 M0,2.597284e+02 L-6,2.597284e+02 M0,3.136605e+02 L-6,3.136605e+02 M0,3.675926e+02 L-6,3.675926e+02 "/></g><g stroke-width="2px" text-anchor="end" stroke-linejoin="round" font-style="normal" font-weight="normal" dominant-baseline="middle" stroke="black" stroke-linecap="round" font-family="sans-serif" font-size="12px" transform="translate(80 520 )scale(1 1 )" fill="black"><text x="-10" y="-44" dominant-baseline="middle" stroke="none" vector-effect="non-scaling-stroke">0s</text><text x="-10" y="-9.793209e+01" dominant-baseline="middle" stroke="none" vector-effect="non-scaling-stroke">200ms</text><text y="-1.518642e+02" dominant-baseline="middle" stroke="none" vector-effect="non-scaling-stroke" x="-10">400ms</text><text dominant-baseline="middle" stroke="none" vector-effect="non-scaling-stroke" x="-10" y="-2.057963e+02">600ms</text><text x="-10" y="-2.597284e+02" dominant-baseline="middle" stroke="none" vector-effect="non-scaling-stroke">800ms</text><text stroke="none" vector-effect="non-scaling-stroke" x="-10" y="-3.136605e+02" dominant-baseline="middle">1s</text><text vector-effect="non-scaling-stroke" x="-10" y="-3.675926e+02" dominant-baseline="middle" stroke="none">1.2s</text></g><g font-style="normal" stroke="black" stroke-linecap="round" font-size="12px" text-anchor="middle" stroke-width="2px" stroke-linejoin="round" font-weight="bold" dominant-baseline="hanging" font-family="sans-serif" transform="translate(80 520 )scale(1 1 )rotate(-90 0 0 )" fill="black"><text y="6" dominant-baseline="hanging" stroke="none" vector-effect="non-scaling-stroke" x="220">Runtime</text></g></g></g></g></g></svg>