<svg width="800" height="600" viewbox="0 0 800 600" preserveAspectRatio="xMidYMid meet" xmlns="http://www.w3.org/2000/svg"><defs><marker markerWidth="2%" markerHeight="2%" id="circle" viewBox="0 0 10 10 " refX="5" refY="5" markerUnits="userSpaceOnUse"><circle r="3" fill="none" stroke="black" cx="5" cy="5"/></marker><marker viewBox="0 0 10 10 " refX="5" refY="5" markerUnits="userSpaceOnUse" markerWidth="2%" markerHeight="2%" id="filled-circle"><circle r="3" fill="black" stroke="none" cx="5" cy="5"/></marker><marker markerWidth="2%" markerHeight="2%" id="square" viewBox="0 0 10 10 " refX="5" refY="5" markerUnits="userSpaceOnUse"><rect fill="none" stroke="black" x="2" y="2" width="6" height="6"/></marker><marker viewBox="0 0 10 10 " refX="5" refY="5" markerUnits="userSpaceOnUse" markerWidth="2%" markerHeight="2%" id="filled-square"><rect stroke="none" x="2" y="2" width="6" height="6" fill="black"/></marker></defs><g fill="hsl(198, 47%, 65%)" stroke="hsl(198, 47%, 65%)" stroke-width="1px" stroke-linecap="round" stroke-linejoin="round" transform="translate(80 520 )scale(1 -1 )"><rect width="3.413333e+00" height="4.400024e+01" vector-effect="non-scaling-stroke" x="5.546667e+01" y="0"/><rect x="7.680000e+01" y="0" width="3.413333e+00" height="4.410564e+01" vector-effect="non-scaling-stroke"/><rect height="4.843495e+01" vector-effect="non-scaling-stroke" x="9.813333e+01" y="0" width="3.413333e+00"/><rect vector-effect="non-scaling-stroke" x="1.194667e+02" y="0" width="3.413333e+00" height="4.429723e+01"/><rect vector-effect="non-scaling-stroke" x="1.408000e+02" y="0" width="3.413333e+00" height="4.400436e+01"/><rect height="4.400039e+01" vector-effect="non-scaling-stroke" x="1.621333e+02" y="0" width="3.413333e+00"/><rect x="1.834667e+02" y="0" width="3.413333e+00" height="4.464469e+01" vector-effect="non-scaling-stroke"/><rect height="4.400521e+01" vector-effect="non-scaling-stroke" x="2.048000e+02" y="0" width="3.413333e+00"/><rect width="3.413333e+00" height="5.037476e+01" vector-effect="non-scaling-stroke" x="2.261333e+02" y="0"/><rect y="0" width="3.413333e+00" height="4.783011e+01" vector-effect="non-scaling-stroke" x="2.474667e+02"/><rect vector-effect="non-scaling-stroke" x="2.688000e+02" y="0" width="3.413333e+00" height="4.602192e+01"/><rect x="2.901333e+02" y="0" width="3.413333e+00" height="7.154946e+01" vector-effect="non-scaling-stroke"/><rect x="3.114667e+02" y="0" width="3.413333e+00" height="5.748413e+01" vector-effect="non-scaling-stroke"/><rect vector-effect="non-scaling-stroke" x="3.328000e+02" y="0" width="3.413333e+00" height="4.451795e+01"/><rect height="4.783742e+01" vector-effect="non-scaling-stroke" x="3.541333e+02" y="0" width="3.413333e+00"/><rect y="0" width="3.413333e+00" height="7.218869e+01" vector-effect="non-scaling-stroke" x="3.754667e+02"/><rect vector-effect="non-scaling-stroke" x="3.968000e+02" y="0" width="3.413333e+00" height="4.608259e+01"/><rect height="9.262458e+01" vector-effect="non-scaling-stroke" x="4.394667e+02" y="0" width="3.413333e+00"/><rect width="3.413333e+00" height="9.256104e+01" vector-effect="non-scaling-stroke" x="4.608000e+02" y="0"/><rect x="4.821333e+02" y="0" width="3.413333e+00" height="5.417042e+01" vector-effect="non-scaling-stroke"/><rect width="3.413333e+00" height="4.400037e+01" vector-effect="non-scaling-stroke" x="5.034667e+02" y="0"/><rect vector-effect="non-scaling-stroke" x="5.248000e+02" y="0" width="3.413333e+00" height="5.005348e+01"/><rect y="0" width="3.413333e+00" height="4.772411e+01" vector-effect="non-scaling-stroke" x="5.461333e+02"/><rect x="5.674667e+02" y="0" width="3.413333e+00" height="1.892715e+02" vector-effect="non-scaling-stroke"/></g><g stroke="hsl(49, 88%, 65%)" stroke-width="1px" stroke-linecap="round" stroke-linejoin="round" transform="translate(80 520 )scale(1 -1 )" fill="hsl(49, 88%, 65%)"><rect x="5.888000e+01" y="0" width="3.413333e+00" height="4.400160e+01" vector-effect="non-scaling-stroke"/><rect y="0" width="3.413333e+00" height="4.452255e+01" vector-effect="non-scaling-stroke" x="8.021333e+01"/><rect height="4.643943e+01" vector-effect="non-scaling-stroke" x="1.015467e+02" y="0" width="3.413333e+00"/><rect height="4.828531e+01" vector-effect="non-scaling-stroke" x="1.228800e+02" y="0" width="3.413333e+00"/><rect x="1.442133e+02" y="0" width="3.413333e+00" height="4.400817e+01" vector-effect="non-scaling-stroke"/><rect y="0" width="3.413333e+00" height="4.448840e+01" vector-effect="non-scaling-stroke" x="1.655467e+02"/><rect x="1.868800e+02" y="0" width="3.413333e+00" height="4.492234e+01" vector-effect="non-scaling-stroke"/><rect vector-effect="non-scaling-stroke" x="2.082133e+02" y="0" width="3.413333e+00" height="4.402409e+01"/><rect width="3.413333e+00" height="5.297217e+01" vector-effect="non-scaling-stroke" x="2.295467e+02" y="0"/><rect width="3.413333e+00" height="4.542406e+01" vector-effect="non-scaling-stroke" x="2.508800e+02" y="0"/><rect vector-effect="non-scaling-stroke" x="2.722133e+02" y="0" width="3.413333e+00" height="4.599523e+01"/><rect vector-effect="non-scaling-stroke" x="2.935467e+02" y="0" width="3.413333e+00" height="6.540043e+01"/><rect width="3.413333e+00" height="6.139180e+01" vector-effect="non-scaling-stroke" x="3.148800e+02" y="0"/><rect vector-effect="non-scaling-stroke" x="3.362133e+02" y="0" width="3.413333e+00" height="4.502342e+01"/><rect width="3.413333e+00" height="4.920817e+01" vector-effect="non-scaling-stroke" x="3.575467e+02" y="0"/><rect y="0" width="3.413333e+00" height="8.461365e+01" vector-effect="non-scaling-stroke" x="3.788800e+02"/><rect y="0" width="3.413333e+00" height="4.648353e+01" vector-effect="non-scaling-stroke" x="4.002133e+02"/><rect x="4.215467e+02" y="0" width="3.413333e+00" height="1.672193e+03" vector-effect="non-scaling-stroke"/><rect height="9.237446e+01" vector-effect="non-scaling-stroke" x="4.428800e+02" y="0" width="3.413333e+00"/><rect width="3.413333e+00" height="8.554862e+01" vector-effect="non-scaling-stroke" x="4.642133e+02" y="0"/><rect y="0" width="3.413333e+00" height="5.638581e+01" vector-effect="non-scaling-stroke" x="4.855467e+02"/><rect vector-effect="non-scaling-stroke" x="5.068800e+02" y="0" width="3.413333e+00" height="4.401620e+01"/><rect x="5.282133e+02" y="0" width="3.413333e+00" height="5.008903e+01" vector-effect="non-scaling-stroke"/><rect x="5.495467e+02" y="0" width="3.413333e+00" height="4.995377e+01" vector-effect="non-scaling-stroke"/><rect x="5.708800e+02" y="0" width="3.413333e+00" height="2.965812e+02" vector-effect="non-scaling-stroke"/></g><g stroke-width="1px" stroke-linecap="round" stroke-linejoin="round" transform="translate(80 520 )scale(1 -1 )" fill="hsl(260, 76%, 65%)" stroke="hsl(260, 76%, 65%)"><rect y="0" width="3.413333e+00" height="4.400096e+01" vector-effect="non-scaling-stroke" x="6.229333e+01"/><rect vector-effect="non-scaling-stroke" x="8.362667e+01" y="0" width="3.413333e+00" height="4.485743e+01"/><rect x="1.049600e+02" y="0" width="3.413333e+00" height="4.524482e+01" vector-effect="non-scaling-stroke"/><rect y="0" width="3.413333e+00" height="4.420153e+01" vector-effect="non-scaling-stroke" x="1.262933e+02"/><rect width="3.413333e+00" height="4.401036e+01" vector-effect="non-scaling-stroke" x="1.476267e+02" y="0"/><rect x="1.689600e+02" y="0" width="3.413333e+00" height="4.960097e+01" vector-effect="non-scaling-stroke"/><rect vector-effect="non-scaling-stroke" x="1.902933e+02" y="0" width="3.413333e+00" height="4.461279e+01"/><rect height="4.402983e+01" vector-effect="non-scaling-stroke" x="2.116267e+02" y="0" width="3.413333e+00"/><rect height="4.449311e+01" vector-effect="non-scaling-stroke" x="2.329600e+02" y="0" width="3.413333e+00"/><rect height="4.665952e+01" vector-effect="non-scaling-stroke" x="2.542933e+02" y="0" width="3.413333e+00"/><rect y="0" width="3.413333e+00" height="4.451892e+01" vector-effect="non-scaling-stroke" x="2.756267e+02"/><rect y="0" width="3.413333e+00" height="4.570981e+01" vector-effect="non-scaling-stroke" x="2.969600e+02"/><rect width="3.413333e+00" height="4.560734e+01" vector-effect="non-scaling-stroke" x="3.182933e+02" y="0"/><rect vector-effect="non-scaling-stroke" x="3.396267e+02" y="0" width="3.413333e+00" height="4.507032e+01"/><rect height="4.743835e+01" vector-effect="non-scaling-stroke" x="3.609600e+02" y="0" width="3.413333e+00"/><rect vector-effect="non-scaling-stroke" x="3.822933e+02" y="0" width="3.413333e+00" height="7.556434e+01"/><rect vector-effect="non-scaling-stroke" x="4.036267e+02" y="0" width="3.413333e+00" height="4.419495e+01"/><rect vector-effect="non-scaling-stroke" x="4.249600e+02" y="0" width="3.413333e+00" height="1.334231e+02"/><rect vector-effect="non-scaling-stroke" x="4.462933e+02" y="0" width="3.413333e+00" height="5.874068e+01"/><rect height="5.430312e+01" vector-effect="non-scaling-stroke" x="4.676267e+02" y="0" width="3.413333e+00"/><rect vector-effect="non-scaling-stroke" x="4.889600e+02" y="0" width="3.413333e+00" height="4.484129e+01"/><rect width="3.413333e+00" height="4.403714e+01" vector-effect="non-scaling-stroke" x="5.102933e+02" y="0"/><rect y="0" width="3.413333e+00" height="4.529260e+01" vector-effect="non-scaling-stroke" x="5.316267e+02"/><rect vector-effect="non-scaling-stroke" x="5.529600e+02" y="0" width="3.413333e+00" height="8.364251e+01"/><rect height="5.893277e+01" vector-effect="non-scaling-stroke" x="5.742933e+02" y="0" width="3.413333e+00"/></g><g fill="hsl(111, 64%, 65%)" stroke="hsl(111, 64%, 65%)" stroke-width="1px" stroke-linecap="round" stroke-linejoin="round" transform="translate(80 520 )scale(1 -1 )"><rect x="6.570667e+01" y="0" width="3.413333e+00" height="4.400015e+01" vector-effect="non-scaling-stroke"/><rect height="4.439247e+01" vector-effect="non-scaling-stroke" x="8.704000e+01" y="0" width="3.413333e+00"/><rect width="3.413333e+00" height="4.400623e+01" vector-effect="non-scaling-stroke" x="1.083733e+02" y="0"/><rect vector-effect="non-scaling-stroke" x="1.297067e+02" y="0" width="3.413333e+00" height="4.410411e+01"/><rect height="4.400052e+01" vector-effect="non-scaling-stroke" x="1.510400e+02" y="0" width="3.413333e+00"/><rect y="0" width="3.413333e+00" height="4.402429e+01" vector-effect="non-scaling-stroke" x="1.723733e+02"/><rect width="3.413333e+00" height="4.409003e+01" vector-effect="non-scaling-stroke" x="1.937067e+02" y="0"/><rect vector-effect="non-scaling-stroke" x="2.150400e+02" y="0" width="3.413333e+00" height="4.400338e+01"/><rect x="2.363733e+02" y="0" width="3.413333e+00" height="4.431369e+01" vector-effect="non-scaling-stroke"/><rect x="2.577067e+02" y="0" width="3.413333e+00" height="4.419451e+01" vector-effect="non-scaling-stroke"/><rect width="3.413333e+00" height="4.408759e+01" vector-effect="non-scaling-stroke" x="2.790400e+02" y="0"/><rect x="3.003733e+02" y="0" width="3.413333e+00" height="4.462379e+01" vector-effect="non-scaling-stroke"/><rect width="3.413333e+00" height="4.400113e+01" vector-effect="non-scaling-stroke" x="3.217067e+02" y="0"/><rect height="4.437569e+01" vector-effect="non-scaling-stroke" x="3.430400e+02" y="0" width="3.413333e+00"/><rect height="4.400128e+01" vector-effect="non-scaling-stroke" x="3.643733e+02" y="0" width="3.413333e+00"/><rect vector-effect="non-scaling-stroke" x="3.857067e+02" y="0" width="3.413333e+00" height="6.351794e+01"/><rect x="4.070400e+02" y="0" width="3.413333e+00" height="4.400092e+01" vector-effect="non-scaling-stroke"/><rect vector-effect="non-scaling-stroke" x="4.283733e+02" y="0" width="3.413333e+00" height="6.765630e+01"/><rect vector-effect="non-scaling-stroke" x="4.497067e+02" y="0" width="3.413333e+00" height="4.400109e+01"/><rect width="3.413333e+00" height="4.495331e+01" vector-effect="non-scaling-stroke" x="4.710400e+02" y="0"/><rect width="3.413333e+00" height="4.400091e+01" vector-effect="non-scaling-stroke" x="4.923733e+02" y="0"/><rect width="3.413333e+00" height="4.400051e+01" vector-effect="non-scaling-stroke" x="5.137067e+02" y="0"/><rect vector-effect="non-scaling-stroke" x="5.350400e+02" y="0" width="3.413333e+00" height="4.400177e+01"/><rect x="5.563733e+02" y="0" width="3.413333e+00" height="4.468637e+01" vector-effect="non-scaling-stroke"/><rect x="5.777067e+02" y="0" width="3.413333e+00" height="4.400214e+01" vector-effect="non-scaling-stroke"/></g><g transform="translate(80 520 )scale(1 -1 )" fill="hsl(322, 52%, 65%)" stroke="hsl(322, 52%, 65%)" stroke-width="1px" stroke-linecap="round" stroke-linejoin="round"><rect y="0" width="3.413333e+00" height="4.400017e+01" vector-effect="non-scaling-stroke" x="6.912000e+01"/><rect vector-effect="non-scaling-stroke" x="9.045333e+01" y="0" width="3.413333e+00" height="4.400109e+01"/><rect vector-effect="non-scaling-stroke" x="1.117867e+02" y="0" width="3.413333e+00" height="4.400549e+01"/><rect vector-effect="non-scaling-stroke" x="1.331200e+02" y="0" width="3.413333e+00" height="4.400026e+01"/><rect x="1.544533e+02" y="0" width="3.413333e+00" height="4.400047e+01" vector-effect="non-scaling-stroke"/><rect y="0" width="3.413333e+00" height="4.400402e+01" vector-effect="non-scaling-stroke" x="1.757867e+02"/><rect x="1.971200e+02" y="0" width="3.413333e+00" height="4.400145e+01" vector-effect="non-scaling-stroke"/><rect vector-effect="non-scaling-stroke" x="2.184533e+02" y="0" width="3.413333e+00" height="4.400252e+01"/><rect vector-effect="non-scaling-stroke" x="2.397867e+02" y="0" width="3.413333e+00" height="4.400062e+01"/><rect x="2.611200e+02" y="0" width="3.413333e+00" height="4.418936e+01" vector-effect="non-scaling-stroke"/><rect y="0" width="3.413333e+00" height="4.404173e+01" vector-effect="non-scaling-stroke" x="2.824533e+02"/><rect y="0" width="3.413333e+00" height="4.459712e+01" vector-effect="non-scaling-stroke" x="3.037867e+02"/><rect vector-effect="non-scaling-stroke" x="3.251200e+02" y="0" width="3.413333e+00" height="4.400125e+01"/><rect vector-effect="non-scaling-stroke" x="3.464533e+02" y="0" width="3.413333e+00" height="4.407856e+01"/><rect vector-effect="non-scaling-stroke" x="3.677867e+02" y="0" width="3.413333e+00" height="4.400114e+01"/><rect vector-effect="non-scaling-stroke" x="3.891200e+02" y="0" width="3.413333e+00" height="6.325034e+01"/><rect x="4.104533e+02" y="0" width="3.413333e+00" height="4.400073e+01" vector-effect="non-scaling-stroke"/><rect y="0" width="3.413333e+00" height="1.924038e+02" vector-effect="non-scaling-stroke" x="4.317867e+02"/><rect height="4.400136e+01" vector-effect="non-scaling-stroke" x="4.531200e+02" y="0" width="3.413333e+00"/><rect y="0" width="3.413333e+00" height="4.523629e+01" vector-effect="non-scaling-stroke" x="4.744533e+02"/><rect x="4.957867e+02" y="0" width="3.413333e+00" height="4.400100e+01" vector-effect="non-scaling-stroke"/><rect vector-effect="non-scaling-stroke" x="5.171200e+02" y="0" width="3.413333e+00" height="4.400035e+01"/><rect width="3.413333e+00" height="4.400166e+01" vector-effect="non-scaling-stroke" x="5.384533e+02" y="0"/><rect y="0" width="3.413333e+00" height="4.454568e+01" vector-effect="non-scaling-stroke" x="5.597867e+02"/></g><g stroke="hsl(198, 47%, 65%)" stroke-width="1px" font-family="sans-serif" font-style="normal" font-weight="normal" fill="hsl(198, 47%, 65%)" stroke-linejoin="round" stroke-linecap="round" font-size="12px" text-anchor="start" dominant-baseline="hanging"><rect width="12" height="12" vector-effect="non-scaling-stroke" x="736" y="430"/><g stroke="black" fill="black"><text vector-effect="non-scaling-stroke" x="752" y="430" dominant-baseline="hanging" stroke="none">C++</text></g><g stroke-width="1px" stroke-linecap="round" dominant-baseline="hanging" font-weight="normal" stroke="hsl(49, 88%, 65%)" font-family="sans-serif" font-size="12px" text-anchor="start" stroke-linejoin="round" font-style="normal" fill="hsl(49, 88%, 65%)"><rect y="448" width="12" height="12" vector-effect="non-scaling-stroke" x="736"/><g fill="black" stroke="black"><text x="752" y="448" dominant-baseline="hanging" stroke="none" vector-effect="non-scaling-stroke">Crystal</text></g><g stroke-linejoin="round" dominant-baseline="hanging" font-style="normal" stroke="hsl(260, 76%, 65%)" text-anchor="start" stroke-linecap="round" font-family="sans-serif" font-size="12px" font-weight="normal" fill="hsl(260, 76%, 65%)" stroke-width="1px"><rect x="736" y="466" width="12" height="12" vector-effect="non-scaling-stroke"/><g stroke="black" fill="black"><text stroke="none" vector-effect="non-scaling-stroke" x="752" y="466" dominant-baseline="hanging">Golang</text></g><g stroke-linejoin="round" dominant-baseline="hanging" stroke="hsl(111, 64%, 65%)" font-family="sans-serif" font-weight="normal" fill="hsl(111, 64%, 65%)" stroke-width="1px" stroke-linecap="round" font-size="12px" font-style="normal" text-anchor="start"><rect y="484" width="12" height="12" vector-effect="non-scaling-stroke" x="736"/><g fill="black" stroke="black"><text y="484" dominant-baseline="hanging" stroke="none" vector-effect="non-scaling-stroke" x="752">Rust</text></g><g stroke="hsl(322, 52%, 65%)" stroke-width="1px" stroke-linecap="round" font-family="sans-serif" font-size="12px" font-style="normal" font-weight="normal" stroke-linejoin="round" fill="hsl(322, 52%, 65%)" text-anchor="start" dominant-baseline="hanging"><rect width="12" height="12" vector-effect="non-scaling-stroke" x="736" y="502"/><g stroke="black" fill="black"><text y="502" dominant-baseline="hanging" stroke="none" vector-effect="non-scaling-stroke" x="752">Zig</text><g fill="none" font-family="sans-serif" stroke-linejoin="round" font-style="normal" font-weight="normal" font-size="12px" text-anchor="start" stroke-width="2px" stroke-linecap="round" dominant-baseline="hanging"><rect y="80" width="640" height="440" vector-effect="non-scaling-stroke" x="80"/></g><g font-style="normal" fill="none" stroke="black" stroke-linecap="round" text-anchor="start" stroke-linejoin="round" dominant-baseline="hanging" font-size="12px" font-weight="normal" stroke-width="2px" font-family="sans-serif" transform="translate(80 520 )scale(1 -1 )"><path d="M64,0 L64,-6 M8.533333e+01,0 L8.533333e+01,-6 M1.066667e+02,0 L1.066667e+02,-6 M128,0 L128,-6 M1.493333e+02,0 L1.493333e+02,-6 M1.706667e+02,0 L1.706667e+02,-6 M192,0 L192,-6 M2.133333e+02,0 L2.133333e+02,-6 M2.346667e+02,0 L2.346667e+02,-6 M256,0 L256,-6 M2.773333e+02,0 L2.773333e+02,-6 M2.986667e+02,0 L2.986667e+02,-6 M320,0 L320,-6 M3.413333e+02,0 L3.413333e+02,-6 M3.626667e+02,0 L3.626667e+02,-6 M384,0 L384,-6 M4.053333e+02,0 L4.053333e+02,-6 M448,0 L448,-6 M4.693333e+02,0 L4.693333e+02,-6 M4.906667e+02,0 L4.906667e+02,-6 M512,0 L512,-6 M5.333333e+02,0 L5.333333e+02,-6 M5.546667e+02,0 L5.546667e+02,-6 M576,0 L576,-6 " vector-effect="non-scaling-stroke"/></g><g dominant-baseline="hanging" font-size="12px" font-style="normal" fill="black" stroke-linecap="round" stroke-linejoin="round" font-weight="normal" stroke="black" stroke-width="2px" font-family="sans-serif" text-anchor="middle" transform="translate(80 520 )scale(1 1 )"><text x="64" y="10" dominant-baseline="hanging" stroke="none" vector-effect="non-scaling-stroke">1</text><text stroke="none" vector-effect="non-scaling-stroke" x="8.533333e+01" y="10" dominant-baseline="hanging">2</text><text vector-effect="non-scaling-stroke" x="1.066667e+02" y="10" dominant-baseline="hanging" stroke="none">3</text><text x="128" y="10" dominant-baseline="hanging" stroke="none" vector-effect="non-scaling-stroke">4</text><text stroke="none" vector-effect="non-scaling-stroke" x="1.493333e+02" y="10" dominant-baseline="hanging">5</text><text y="10" dominant-baseline="hanging" stroke="none" vector-effect="non-scaling-stroke" x="1.706667e+02">6</text><text stroke="none" vector-effect="non-scaling-stroke" x="192" y="10" dominant-baseline="hanging">7</text><text stroke="none" vector-effect="non-scaling-stroke" x="2.133333e+02" y="10" dominant-baseline="hanging">8</text><text stroke="none" vector-effect="non-scaling-stroke" x="2.346667e+02" y="10" dominant-baseline="hanging">9</text><text x="256" y="10" dominant-baseline="hanging" stroke="none" vector-effect="non-scaling-stroke">10</text><text dominant-baseline="hanging" stroke="none" vector-effect="non-scaling-stroke" x="2.773333e+02" y="10">11</text><text stroke="none" vector-effect="non-scaling-stroke" x="2.986667e+02" y="10" dominant-baseline="hanging">12</text><text vector-effect="non-scaling-stroke" x="320" y="10" dominant-baseline="hanging" stroke="none">13</text><text dominant-baseline="hanging" stroke="none" vector-effect="non-scaling-stroke" x="3.413333e+02" y="10">14</text><text dominant-baseline="hanging" stroke="none" vector-effect="non-scaling-stroke" x="3.626667e+02" y="10">15</text><text vector-effect="non-scaling-stroke" x="384" y="10" dominant-baseline="hanging" stroke="none">16</text><text stroke="none" vector-effect="non-scaling-stroke" x="4.053333e+02" y="10" dominant-baseline="hanging">17</text><text x="448" y="10" dominant-baseline="hanging" stroke="none" vector-effect="non-scaling-stroke">19</text><text y="10" dominant-baseline="hanging" stroke="none" vector-effect="non-scaling-stroke" x="4.693333e+02">20</text><text vector-effect="non-scaling-stroke" x="4.906667e+02" y="10" dominant-baseline="hanging" stroke="none">21</text><text stroke="none" vector-effect="non-scaling-stroke" x="512" y="10" dominant-baseline="hanging">22</text><text stroke="none" vector-effect="non-scaling-stroke" x="5.333333e+02" y="10" dominant-baseline="hanging">23</text><text dominant-baseline="hanging" stroke="none" vector-effect="non-scaling-stroke" x="5.546667e+02" y="10">24</text><text x="576" y="10" dominant-baseline="hanging" stroke="none" vector-effect="non-scaling-stroke">25</text></g><g stroke="black" stroke-width="2px" text-anchor="middle" stroke-linejoin="round" dominant-baseline="baseline" font-size="12px" font-style="normal" font-weight="bold" transform="translate(80 520 )scale(1 1 )rotate(0 0 0 )" stroke-linecap="round" font-family="sans-serif" fill="black"><text stroke="none" vector-effect="non-scaling-stroke" x="320" y="-6" dominant-baseline="baseline">Day</text></g><g font-weight="bold" stroke="black" stroke-width="2px" stroke-linecap="round" font-size="12px" text-anchor="middle" transform="translate(80 520 )scale(1 -1 )" font-style="normal" stroke-linejoin="round" font-family="sans-serif" dominant-baseline="baseline" fill="black"><path vector-effect="non-scaling-stroke" d="M0,44 L-6,44 M0,7.920000e+01 L-6,7.920000e+01 M0,1.144000e+02 L-6,1.144000e+02 M0,1.496000e+02 L-6,1.496000e+02 M0,1.848000e+02 L-6,1.848000e+02 M0,220 L-6,220 M0,2.552000e+02 L-6,2.552000e+02 M0,2.904000e+02 L-6,2.904000e+02 M0,3.256000e+02 L-6,3.256000e+02 M0,3.608000e+02 L-6,3.608000e+02 M0,396 L-6,396 "/></g><g fill="black" stroke-linecap="round" font-size="12px" font-style="normal" stroke-linejoin="round" dominant-baseline="middle" font-weight="normal" stroke="black" stroke-width="2px" font-family="sans-serif" text-anchor="end" transform="translate(80 520 )scale(1 1 )"><text x="-10" y="-44" dominant-baseline="middle" stroke="none" vector-effect="non-scaling-stroke">0s</text><text vector-effect="non-scaling-stroke" x="-10" y="-7.920000e+01" dominant-baseline="middle" stroke="none">200ms</text><text y="-1.144000e+02" dominant-baseline="middle" stroke="none" vector-effect="non-scaling-stroke" x="-10">400ms</text><text vector-effect="non-scaling-stroke" x="-10" y="-1.496000e+02" dominant-baseline="middle" stroke="none">600ms</text><text y="-1.848000e+02" dominant-baseline="middle" stroke="none" vector-effect="non-scaling-stroke" x="-10">800ms</text><text y="-220" dominant-baseline="middle" stroke="none" vector-effect="non-scaling-stroke" x="-10">1s</text><text y="-2.552000e+02" dominant-baseline="middle" stroke="none" vector-effect="non-scaling-stroke" x="-10">1.2s</text><text dominant-baseline="middle" stroke="none" vector-effect="non-scaling-stroke" x="-10" y="-2.904000e+02">1.4s</text><text y="-3.256000e+02" dominant-baseline="middle" stroke="none" vector-effect="non-scaling-stroke" x="-10">1.6s</text><text dominant-baseline="middle" stroke="none" vector-effect="non-scaling-stroke" x="-10" y="-3.608000e+02">1.8s</text><text dominant-baseline="middle" stroke="none" vector-effect="non-scaling-stroke" x="-10" y="-396">2s</text></g><g fill="black" font-family="sans-serif" font-size="12px" text-anchor="middle" transform="translate(80 520 )scale(1 1 )rotate(-90 0 0 )" stroke-linejoin="round" dominant-baseline="hanging" stroke="black" stroke-width="2px" stroke-linecap="round" font-style="normal" font-weight="bold"><text x="220" y="6" dominant-baseline="hanging" stroke="none" vector-effect="non-scaling-stroke">Runtime</text></g></g></g></g></g></g></g></svg>