<svg xmlns="http://www.w3.org/2000/svg" width="800" height="600" viewbox="0 0 800 600" preserveAspectRatio="xMidYMid meet"><defs><marker markerWidth="2%" markerHeight="2%" id="circle" viewBox="0 0 10 10 " refX="5" refY="5" markerUnits="userSpaceOnUse"><circle r="3" fill="none" stroke="black" cx="5" cy="5"/></marker><marker viewBox="0 0 10 10 " refX="5" refY="5" markerUnits="userSpaceOnUse" markerWidth="2%" markerHeight="2%" id="filled-circle"><circle cx="5" cy="5" r="3" fill="black" stroke="none"/></marker><marker id="square" viewBox="0 0 10 10 " refX="5" refY="5" markerUnits="userSpaceOnUse" markerWidth="2%" markerHeight="2%"><rect x="2" y="2" width="6" height="6" fill="none" stroke="black"/></marker><marker markerHeight="2%" id="filled-square" viewBox="0 0 10 10 " refX="5" refY="5" markerUnits="userSpaceOnUse" markerWidth="2%"><rect x="2" y="2" width="6" height="6" fill="black" stroke="none"/></marker></defs><g stroke-linecap="round" stroke-linejoin="round" transform="translate(80 520 )scale(1 -1 )" fill="hsl(198, 47%, 65%)" stroke="hsl(198, 47%, 65%)" stroke-width="1px"><rect vector-effect="non-scaling-stroke" x="5.546667e+01" y="0" width="8.533333e+00" height="4.400736e+01"/><rect height="4.401183e+01" vector-effect="non-scaling-stroke" x="7.680000e+01" y="0" width="8.533333e+00"/><rect width="8.533333e+00" height="4.402133e+01" vector-effect="non-scaling-stroke" x="9.813333e+01" y="0"/><rect vector-effect="non-scaling-stroke" x="1.194667e+02" y="0" width="8.533333e+00" height="4.508144e+01"/><rect vector-effect="non-scaling-stroke" x="1.408000e+02" y="0" width="8.533333e+00" height="9.928605e+01"/><rect vector-effect="non-scaling-stroke" x="1.621333e+02" y="0" width="8.533333e+00" height="5.507459e+01"/><rect vector-effect="non-scaling-stroke" x="1.834667e+02" y="0" width="8.533333e+00" height="4.585683e+01"/><rect vector-effect="non-scaling-stroke" x="2.048000e+02" y="0" width="8.533333e+00" height="4.442582e+01"/><rect vector-effect="non-scaling-stroke" x="2.261333e+02" y="0" width="8.533333e+00" height="4.408935e+01"/><rect y="0" width="8.533333e+00" height="4.430096e+01" vector-effect="non-scaling-stroke" x="2.474667e+02"/><rect height="4.409599e+01" vector-effect="non-scaling-stroke" x="2.688000e+02" y="0" width="8.533333e+00"/><rect vector-effect="non-scaling-stroke" x="2.901333e+02" y="0" width="8.533333e+00" height="4.629729e+01"/><rect height="6.236828e+01" vector-effect="non-scaling-stroke" x="3.114667e+02" y="0" width="8.533333e+00"/><rect x="3.328000e+02" y="0" width="8.533333e+00" height="6.119932e+01" vector-effect="non-scaling-stroke"/><rect x="3.541333e+02" y="0" width="8.533333e+00" height="396" vector-effect="non-scaling-stroke"/><rect width="8.533333e+00" height="1.755511e+02" vector-effect="non-scaling-stroke" x="3.754667e+02" y="0"/><rect x="3.968000e+02" y="0" width="8.533333e+00" height="2.093386e+02" vector-effect="non-scaling-stroke"/><rect width="8.533333e+00" height="4.929113e+01" vector-effect="non-scaling-stroke" x="4.181333e+02" y="0"/><rect vector-effect="non-scaling-stroke" x="4.394667e+02" y="0" width="8.533333e+00" height="4.414785e+01"/><rect x="4.608000e+02" y="0" width="8.533333e+00" height="2.750261e+02" vector-effect="non-scaling-stroke"/><rect x="4.821333e+02" y="0" width="8.533333e+00" height="8.955761e+01" vector-effect="non-scaling-stroke"/><rect width="8.533333e+00" height="8.441713e+01" vector-effect="non-scaling-stroke" x="5.034667e+02" y="0"/><rect x="5.248000e+02" y="0" width="8.533333e+00" height="4.506076e+01" vector-effect="non-scaling-stroke"/><rect height="1.257323e+02" vector-effect="non-scaling-stroke" x="5.461333e+02" y="0" width="8.533333e+00"/><rect height="6.553364e+01" vector-effect="non-scaling-stroke" x="5.674667e+02" y="0" width="8.533333e+00"/></g><g fill="hsl(49, 88%, 65%)" stroke="hsl(49, 88%, 65%)" stroke-width="1px" stroke-linecap="round" stroke-linejoin="round" transform="translate(80 520 )scale(1 -1 )"><rect y="0" width="8.533333e+00" height="4.400485e+01" vector-effect="non-scaling-stroke" x="64"/><rect y="0" width="8.533333e+00" height="4.400601e+01" vector-effect="non-scaling-stroke" x="8.533333e+01"/><rect vector-effect="non-scaling-stroke" x="1.066667e+02" y="0" width="8.533333e+00" height="4.400745e+01"/><rect x="128" y="0" width="8.533333e+00" height="4.603197e+01" vector-effect="non-scaling-stroke"/><rect height="7.238320e+01" vector-effect="non-scaling-stroke" x="1.493333e+02" y="0" width="8.533333e+00"/><rect vector-effect="non-scaling-stroke" x="1.706667e+02" y="0" width="8.533333e+00" height="4.470749e+01"/><rect height="4.443825e+01" vector-effect="non-scaling-stroke" x="192" y="0" width="8.533333e+00"/><rect y="0" width="8.533333e+00" height="4.414230e+01" vector-effect="non-scaling-stroke" x="2.133333e+02"/><rect vector-effect="non-scaling-stroke" x="2.346667e+02" y="0" width="8.533333e+00" height="4.403121e+01"/><rect y="0" width="8.533333e+00" height="4.407840e+01" vector-effect="non-scaling-stroke" x="2.560000e+02"/><rect y="0" width="8.533333e+00" height="4.405680e+01" vector-effect="non-scaling-stroke" x="2.773333e+02"/><rect height="4.457193e+01" vector-effect="non-scaling-stroke" x="2.986667e+02" y="0" width="8.533333e+00"/><rect height="2.877209e+02" vector-effect="non-scaling-stroke" x="320" y="0" width="8.533333e+00"/><rect width="8.533333e+00" height="5.940241e+01" vector-effect="non-scaling-stroke" x="3.413333e+02" y="0"/><rect vector-effect="non-scaling-stroke" x="3.626667e+02" y="0" width="8.533333e+00" height="3.246641e+02"/><rect x="384" y="0" width="8.533333e+00" height="5.728973e+01" vector-effect="non-scaling-stroke"/><rect y="0" width="8.533333e+00" height="2.019584e+02" vector-effect="non-scaling-stroke" x="4.053333e+02"/><rect width="8.533333e+00" height="4.400814e+01" vector-effect="non-scaling-stroke" x="4.266667e+02" y="0"/><rect vector-effect="non-scaling-stroke" x="448" y="0" width="8.533333e+00" height="4.402601e+01"/><rect height="5.432953e+01" vector-effect="non-scaling-stroke" x="4.693333e+02" y="0" width="8.533333e+00"/><rect vector-effect="non-scaling-stroke" x="4.906667e+02" y="0" width="8.533333e+00" height="4.400209e+01"/><rect height="8.339240e+01" vector-effect="non-scaling-stroke" x="512" y="0" width="8.533333e+00"/><rect vector-effect="non-scaling-stroke" x="5.333333e+02" y="0" width="8.533333e+00" height="4.401965e+01"/><rect vector-effect="non-scaling-stroke" x="5.546667e+02" y="0" width="8.533333e+00" height="1.000582e+02"/><rect width="8.533333e+00" height="7.376762e+01" vector-effect="non-scaling-stroke" x="576" y="0"/></g><g fill="hsl(198, 47%, 65%)" font-style="normal" font-weight="normal" stroke-width="1px" dominant-baseline="hanging" font-family="sans-serif" text-anchor="start" stroke="hsl(198, 47%, 65%)" stroke-linecap="round" stroke-linejoin="round" font-size="12px"><rect vector-effect="non-scaling-stroke" x="736" y="484" width="12" height="12"/><g stroke="black" fill="black"><text y="484" dominant-baseline="hanging" stroke="none" vector-effect="non-scaling-stroke" x="752">Golang</text></g><g font-style="normal" font-weight="normal" text-anchor="start" stroke="hsl(49, 88%, 65%)" font-size="12px" fill="hsl(49, 88%, 65%)" font-family="sans-serif" dominant-baseline="hanging" stroke-width="1px" stroke-linecap="round" stroke-linejoin="round"><rect x="736" y="502" width="12" height="12" vector-effect="non-scaling-stroke"/><g fill="black" stroke="black"><text x="752" y="502" dominant-baseline="hanging" stroke="none" vector-effect="non-scaling-stroke">Rust</text><g text-anchor="start" stroke-width="2px" stroke-linecap="round" stroke-linejoin="round" font-family="sans-serif" font-style="normal" font-size="12px" dominant-baseline="hanging" font-weight="normal" fill="none"><rect y="80" width="640" height="440" vector-effect="non-scaling-stroke" x="80"/></g><g text-anchor="start" fill="none" font-style="normal" font-weight="normal" font-size="12px" stroke-linejoin="round" font-family="sans-serif" dominant-baseline="hanging" transform="translate(80 520 )scale(1 -1 )" stroke="black" stroke-width="2px" stroke-linecap="round"><path vector-effect="non-scaling-stroke" d="M64,0 L64,-6 M8.533333e+01,0 L8.533333e+01,-6 M1.066667e+02,0 L1.066667e+02,-6 M128,0 L128,-6 M1.493333e+02,0 L1.493333e+02,-6 M1.706667e+02,0 L1.706667e+02,-6 M192,0 L192,-6 M2.133333e+02,0 L2.133333e+02,-6 M2.346667e+02,0 L2.346667e+02,-6 M256,0 L256,-6 M2.773333e+02,0 L2.773333e+02,-6 M2.986667e+02,0 L2.986667e+02,-6 M320,0 L320,-6 M3.413333e+02,0 L3.413333e+02,-6 M3.626667e+02,0 L3.626667e+02,-6 M384,0 L384,-6 M4.053333e+02,0 L4.053333e+02,-6 M4.266667e+02,0 L4.266667e+02,-6 M448,0 L448,-6 M4.693333e+02,0 L4.693333e+02,-6 M4.906667e+02,0 L4.906667e+02,-6 M512,0 L512,-6 M5.333333e+02,0 L5.333333e+02,-6 M5.546667e+02,0 L5.546667e+02,-6 M576,0 L576,-6 "/></g><g font-family="sans-serif" font-weight="normal" dominant-baseline="hanging" transform="translate(80 520 )scale(1 1 )" font-size="12px" fill="black" font-style="normal" text-anchor="middle" stroke="black" stroke-width="2px" stroke-linecap="round" stroke-linejoin="round"><text x="64" y="10" dominant-baseline="hanging" stroke="none" vector-effect="non-scaling-stroke">1</text><text stroke="none" vector-effect="non-scaling-stroke" x="8.533333e+01" y="10" dominant-baseline="hanging">2</text><text stroke="none" vector-effect="non-scaling-stroke" x="1.066667e+02" y="10" dominant-baseline="hanging">3</text><text dominant-baseline="hanging" stroke="none" vector-effect="non-scaling-stroke" x="128" y="10">4</text><text x="1.493333e+02" y="10" dominant-baseline="hanging" stroke="none" vector-effect="non-scaling-stroke">5</text><text dominant-baseline="hanging" stroke="none" vector-effect="non-scaling-stroke" x="1.706667e+02" y="10">6</text><text stroke="none" vector-effect="non-scaling-stroke" x="192" y="10" dominant-baseline="hanging">7</text><text stroke="none" vector-effect="non-scaling-stroke" x="2.133333e+02" y="10" dominant-baseline="hanging">8</text><text stroke="none" vector-effect="non-scaling-stroke" x="2.346667e+02" y="10" dominant-baseline="hanging">9</text><text x="256" y="10" dominant-baseline="hanging" stroke="none" vector-effect="non-scaling-stroke">10</text><text dominant-baseline="hanging" stroke="none" vector-effect="non-scaling-stroke" x="2.773333e+02" y="10">11</text><text stroke="none" vector-effect="non-scaling-stroke" x="2.986667e+02" y="10" dominant-baseline="hanging">12</text><text y="10" dominant-baseline="hanging" stroke="none" vector-effect="non-scaling-stroke" x="320">13</text><text stroke="none" vector-effect="non-scaling-stroke" x="3.413333e+02" y="10" dominant-baseline="hanging">14</text><text stroke="none" vector-effect="non-scaling-stroke" x="3.626667e+02" y="10" dominant-baseline="hanging">15</text><text vector-effect="non-scaling-stroke" x="384" y="10" dominant-baseline="hanging" stroke="none">16</text><text x="4.053333e+02" y="10" dominant-baseline="hanging" stroke="none" vector-effect="non-scaling-stroke">17</text><text dominant-baseline="hanging" stroke="none" vector-effect="non-scaling-stroke" x="4.266667e+02" y="10">18</text><text x="448" y="10" dominant-baseline="hanging" stroke="none" vector-effect="non-scaling-stroke">19</text><text x="4.693333e+02" y="10" dominant-baseline="hanging" stroke="none" vector-effect="non-scaling-stroke">20</text><text dominant-baseline="hanging" stroke="none" vector-effect="non-scaling-stroke" x="4.906667e+02" y="10">21</text><text stroke="none" vector-effect="non-scaling-stroke" x="512" y="10" dominant-baseline="hanging">22</text><text vector-effect="non-scaling-stroke" x="5.333333e+02" y="10" dominant-baseline="hanging" stroke="none">23</text><text y="10" dominant-baseline="hanging" stroke="none" vector-effect="non-scaling-stroke" x="5.546667e+02">24</text><text dominant-baseline="hanging" stroke="none" vector-effect="non-scaling-stroke" x="576" y="10">25</text></g><g fill="black" font-family="sans-serif" dominant-baseline="baseline" stroke-width="2px" font-weight="bold" text-anchor="middle" stroke-linecap="round" stroke-linejoin="round" font-size="12px" transform="translate(80 520 )scale(1 1 )rotate(0 0 0 )" stroke="black" font-style="normal"><text y="-6" dominant-baseline="baseline" stroke="none" vector-effect="non-scaling-stroke" x="320">Day</text></g><g dominant-baseline="baseline" transform="translate(80 520 )scale(1 -1 )" stroke-width="2px" font-weight="bold" fill="black" stroke-linejoin="round" font-size="12px" font-style="normal" text-anchor="middle" font-family="sans-serif" stroke-linecap="round" stroke="black"><path vector-effect="non-scaling-stroke" d="M0,44 L-6,44 M0,1.129973e+02 L-6,1.129973e+02 M0,1.819945e+02 L-6,1.819945e+02 M0,2.509918e+02 L-6,2.509918e+02 M0,3.199891e+02 L-6,3.199891e+02 M0,3.889863e+02 L-6,3.889863e+02 "/></g><g stroke="black" stroke-width="2px" stroke-linecap="round" stroke-linejoin="round" font-size="12px" dominant-baseline="middle" fill="black" font-weight="normal" transform="translate(80 520 )scale(1 1 )" text-anchor="end" font-family="sans-serif" font-style="normal"><text dominant-baseline="middle" stroke="none" vector-effect="non-scaling-stroke" x="-10" y="-44">0s</text><text vector-effect="non-scaling-stroke" x="-10" y="-1.129973e+02" dominant-baseline="middle" stroke="none">100ms</text><text x="-10" y="-1.819945e+02" dominant-baseline="middle" stroke="none" vector-effect="non-scaling-stroke">200ms</text><text stroke="none" vector-effect="non-scaling-stroke" x="-10" y="-2.509918e+02" dominant-baseline="middle">300ms</text><text vector-effect="non-scaling-stroke" x="-10" y="-3.199891e+02" dominant-baseline="middle" stroke="none">400ms</text><text y="-3.889863e+02" dominant-baseline="middle" stroke="none" vector-effect="non-scaling-stroke" x="-10">500ms</text></g><g transform="translate(80 520 )scale(1 1 )rotate(-90 0 0 )" stroke-linecap="round" font-size="12px" font-family="sans-serif" font-style="normal" text-anchor="middle" stroke-width="2px" stroke-linejoin="round" dominant-baseline="hanging" fill="black" font-weight="bold" stroke="black"><text dominant-baseline="hanging" stroke="none" vector-effect="non-scaling-stroke" x="220" y="6">Runtime</text></g></g></g></g></svg>