<svg viewbox="0 0 800 600" preserveAspectRatio="xMidYMid meet" xmlns="http://www.w3.org/2000/svg" width="800" height="600"><defs><marker refX="5" refY="5" markerUnits="userSpaceOnUse" markerWidth="2%" markerHeight="2%" id="circle" viewBox="0 0 10 10 "><circle fill="none" stroke="black" cx="5" cy="5" r="3"/></marker><marker refX="5" refY="5" markerUnits="userSpaceOnUse" markerWidth="2%" markerHeight="2%" id="filled-circle" viewBox="0 0 10 10 "><circle r="3" fill="black" stroke="none" cx="5" cy="5"/></marker><marker id="square" viewBox="0 0 10 10 " refX="5" refY="5" markerUnits="userSpaceOnUse" markerWidth="2%" markerHeight="2%"><rect fill="none" stroke="black" x="2" y="2" width="6" height="6"/></marker><marker markerHeight="2%" id="filled-square" viewBox="0 0 10 10 " refX="5" refY="5" markerUnits="userSpaceOnUse" markerWidth="2%"><rect y="2" width="6" height="6" fill="black" stroke="none" x="2"/></marker></defs><g stroke-linecap="round" stroke-linejoin="round" transform="translate(80 520 )scale(1 -1 )" fill="hsl(198, 47%, 65%)" stroke="hsl(198, 47%, 65%)" stroke-width="1px"><rect width="5.688889e+00" height="4.401094e+01" vector-effect="non-scaling-stroke" x="5.546667e+01" y="0"/></g><g stroke-width="1px" stroke-linecap="round" stroke-linejoin="round" transform="translate(80 520 )scale(1 -1 )" fill="hsl(49, 88%, 65%)" stroke="hsl(49, 88%, 65%)"><rect vector-effect="non-scaling-stroke" x="6.115556e+01" y="0" width="5.688889e+00" height="4.400513e+01"/><rect x="8.248889e+01" y="0" width="5.688889e+00" height="4.413327e+01" vector-effect="non-scaling-stroke"/><rect vector-effect="non-scaling-stroke" x="1.038222e+02" y="0" width="5.688889e+00" height="4.413036e+01"/><rect width="5.688889e+00" height="2.882471e+02" vector-effect="non-scaling-stroke" x="1.251556e+02" y="0"/><rect vector-effect="non-scaling-stroke" x="1.464889e+02" y="0" width="5.688889e+00" height="4.409338e+01"/><rect y="0" width="5.688889e+00" height="6.525620e+01" vector-effect="non-scaling-stroke" x="1.678222e+02"/><rect vector-effect="non-scaling-stroke" x="1.891556e+02" y="0" width="5.688889e+00" height="4.405608e+01"/><rect height="4.400543e+01" vector-effect="non-scaling-stroke" x="2.104889e+02" y="0" width="5.688889e+00"/><rect vector-effect="non-scaling-stroke" x="2.318222e+02" y="0" width="5.688889e+00" height="4.657094e+01"/><rect width="5.688889e+00" height="6.482836e+01" vector-effect="non-scaling-stroke" x="2.531556e+02" y="0"/><rect height="5.294248e+01" vector-effect="non-scaling-stroke" x="2.744889e+02" y="0" width="5.688889e+00"/><rect vector-effect="non-scaling-stroke" x="2.958222e+02" y="0" width="5.688889e+00" height="5.770704e+01"/><rect y="0" width="5.688889e+00" height="6.995395e+01" vector-effect="non-scaling-stroke" x="3.171556e+02"/><rect x="3.384889e+02" y="0" width="5.688889e+00" height="4.405366e+01" vector-effect="non-scaling-stroke"/><rect height="6.199767e+01" vector-effect="non-scaling-stroke" x="3.598222e+02" y="0" width="5.688889e+00"/><rect height="4.409368e+01" vector-effect="non-scaling-stroke" x="3.811556e+02" y="0" width="5.688889e+00"/><rect height="5.977754e+01" vector-effect="non-scaling-stroke" x="4.024889e+02" y="0" width="5.688889e+00"/><rect height="4.507305e+01" vector-effect="non-scaling-stroke" x="4.238222e+02" y="0" width="5.688889e+00"/><rect x="4.451556e+02" y="0" width="5.688889e+00" height="4.406592e+01" vector-effect="non-scaling-stroke"/><rect x="4.664889e+02" y="0" width="5.688889e+00" height="1.173942e+03" vector-effect="non-scaling-stroke"/><rect vector-effect="non-scaling-stroke" x="4.878222e+02" y="0" width="5.688889e+00" height="4.411073e+01"/><rect x="5.091556e+02" y="0" width="5.688889e+00" height="5.108757e+02" vector-effect="non-scaling-stroke"/><rect x="5.304889e+02" y="0" width="5.688889e+00" height="4.400802e+01" vector-effect="non-scaling-stroke"/><rect height="8.500240e+01" vector-effect="non-scaling-stroke" x="5.518222e+02" y="0" width="5.688889e+00"/><rect width="5.688889e+00" height="4.400134e+01" vector-effect="non-scaling-stroke" x="5.731556e+02" y="0"/></g><g stroke-linecap="round" stroke-linejoin="round" transform="translate(80 520 )scale(1 -1 )" fill="hsl(260, 76%, 65%)" stroke="hsl(260, 76%, 65%)" stroke-width="1px"><rect vector-effect="non-scaling-stroke" x="6.684444e+01" y="0" width="5.688889e+00" height="4.400082e+01"/><rect y="0" width="5.688889e+00" height="4.402296e+01" vector-effect="non-scaling-stroke" x="8.817778e+01"/><rect x="1.095111e+02" y="0" width="5.688889e+00" height="4.417043e+01" vector-effect="non-scaling-stroke"/><rect y="0" width="5.688889e+00" height="4.136812e+02" vector-effect="non-scaling-stroke" x="1.308444e+02"/><rect vector-effect="non-scaling-stroke" x="1.521778e+02" y="0" width="5.688889e+00" height="4.406756e+01"/><rect height="5.380277e+01" vector-effect="non-scaling-stroke" x="1.735111e+02" y="0" width="5.688889e+00"/><rect width="5.688889e+00" height="4.407687e+01" vector-effect="non-scaling-stroke" x="1.948444e+02" y="0"/><rect vector-effect="non-scaling-stroke" x="2.161778e+02" y="0" width="5.688889e+00" height="4.401355e+01"/><rect width="5.688889e+00" height="4.568534e+01" vector-effect="non-scaling-stroke" x="2.375111e+02" y="0"/><rect height="2.481995e+02" vector-effect="non-scaling-stroke" x="2.588444e+02" y="0" width="5.688889e+00"/><rect y="0" width="5.688889e+00" height="6.116998e+01" vector-effect="non-scaling-stroke" x="2.801778e+02"/><rect height="4.409562e+01" vector-effect="non-scaling-stroke" x="3.015111e+02" y="0" width="5.688889e+00"/><rect width="5.688889e+00" height="7.558977e+01" vector-effect="non-scaling-stroke" x="3.228444e+02" y="0"/><rect y="0" width="5.688889e+00" height="4.417322e+01" vector-effect="non-scaling-stroke" x="3.441778e+02"/><rect y="0" width="5.688889e+00" height="5.743923e+01" vector-effect="non-scaling-stroke" x="3.655111e+02"/><rect height="4.408968e+01" vector-effect="non-scaling-stroke" x="3.868444e+02" y="0" width="5.688889e+00"/><rect vector-effect="non-scaling-stroke" x="4.081778e+02" y="0" width="5.688889e+00" height="5.555177e+01"/><rect height="4.873322e+01" vector-effect="non-scaling-stroke" x="4.295111e+02" y="0" width="5.688889e+00"/><rect y="0" width="5.688889e+00" height="4.429103e+01" vector-effect="non-scaling-stroke" x="4.508444e+02"/><rect vector-effect="non-scaling-stroke" x="4.721778e+02" y="0" width="5.688889e+00" height="6.099288e+02"/><rect y="0" width="5.688889e+00" height="4.401170e+01" vector-effect="non-scaling-stroke" x="4.935111e+02"/><rect vector-effect="non-scaling-stroke" x="5.148444e+02" y="0" width="5.688889e+00" height="1.812254e+02"/><rect width="5.688889e+00" height="4.400172e+01" vector-effect="non-scaling-stroke" x="5.361778e+02" y="0"/><rect width="5.688889e+00" height="4.643980e+01" vector-effect="non-scaling-stroke" x="5.575111e+02" y="0"/><rect vector-effect="non-scaling-stroke" x="5.788444e+02" y="0" width="5.688889e+00" height="4.400011e+01"/></g><g font-family="sans-serif" font-size="12px" stroke="hsl(198, 47%, 65%)" font-weight="normal" text-anchor="start" dominant-baseline="hanging" fill="hsl(198, 47%, 65%)" stroke-width="1px" font-style="normal" stroke-linecap="round" stroke-linejoin="round"><rect vector-effect="non-scaling-stroke" x="736" y="466" width="12" height="12"/><g fill="black" stroke="black"><text vector-effect="non-scaling-stroke" x="752" y="466" dominant-baseline="hanging" stroke="none">Crystal</text></g><g stroke="hsl(49, 88%, 65%)" stroke-linejoin="round" dominant-baseline="hanging" font-family="sans-serif" font-weight="normal" text-anchor="start" stroke-linecap="round" font-size="12px" font-style="normal" fill="hsl(49, 88%, 65%)" stroke-width="1px"><rect y="484" width="12" height="12" vector-effect="non-scaling-stroke" x="736"/><g fill="black" stroke="black"><text stroke="none" vector-effect="non-scaling-stroke" x="752" y="484" dominant-baseline="hanging">Golang</text></g><g stroke-linecap="round" font-weight="normal" font-style="normal" dominant-baseline="hanging" fill="hsl(260, 76%, 65%)" stroke-width="1px" text-anchor="start" stroke="hsl(260, 76%, 65%)" stroke-linejoin="round" font-family="sans-serif" font-size="12px"><rect vector-effect="non-scaling-stroke" x="736" y="502" width="12" height="12"/><g stroke="black" fill="black"><text y="502" dominant-baseline="hanging" stroke="none" vector-effect="non-scaling-stroke" x="752">Rust</text><g font-style="normal" font-weight="normal" font-family="sans-serif" stroke-linecap="round" fill="none" stroke-width="2px" dominant-baseline="hanging" text-anchor="start" font-size="12px" stroke-linejoin="round"><rect y="80" width="640" height="440" vector-effect="non-scaling-stroke" x="80"/></g><g transform="translate(80 520 )scale(1 -1 )" stroke-width="2px" font-style="normal" stroke="black" stroke-linecap="round" dominant-baseline="hanging" fill="none" font-family="sans-serif" font-size="12px" stroke-linejoin="round" font-weight="normal" text-anchor="start"><path vector-effect="non-scaling-stroke" d="M64,0 L64,-6 "/></g><g stroke="black" stroke-linecap="round" stroke-linejoin="round" font-weight="normal" fill="black" stroke-width="2px" font-family="sans-serif" text-anchor="middle" font-size="12px" font-style="normal" dominant-baseline="hanging" transform="translate(80 520 )scale(1 1 )"><text stroke="none" vector-effect="non-scaling-stroke" x="64" y="10" dominant-baseline="hanging">1</text></g><g fill="black" stroke-linecap="round" text-anchor="middle" stroke="black" stroke-width="2px" font-family="sans-serif" transform="translate(80 520 )scale(1 1 )rotate(0 0 0 )" stroke-linejoin="round" font-weight="bold" font-size="12px" font-style="normal" dominant-baseline="baseline"><text dominant-baseline="baseline" stroke="none" vector-effect="non-scaling-stroke" x="320" y="-6">Day</text></g><g font-size="12px" stroke-linecap="round" stroke-linejoin="round" font-weight="bold" text-anchor="middle" stroke="black" font-style="normal" dominant-baseline="baseline" transform="translate(80 520 )scale(1 -1 )" fill="black" stroke-width="2px" font-family="sans-serif"><path vector-effect="non-scaling-stroke" d="M0,44 L-6,44 M0,7.920000e+01 L-6,7.920000e+01 M0,1.144000e+02 L-6,1.144000e+02 M0,1.496000e+02 L-6,1.496000e+02 M0,1.848000e+02 L-6,1.848000e+02 M0,220 L-6,220 M0,2.552000e+02 L-6,2.552000e+02 M0,2.904000e+02 L-6,2.904000e+02 M0,3.256000e+02 L-6,3.256000e+02 M0,3.608000e+02 L-6,3.608000e+02 M0,396 L-6,396 "/></g><g font-style="normal" dominant-baseline="middle" stroke-linecap="round" stroke-linejoin="round" font-weight="normal" text-anchor="end" transform="translate(80 520 )scale(1 1 )" stroke-width="2px" font-size="12px" stroke="black" fill="black" font-family="sans-serif"><text dominant-baseline="middle" stroke="none" vector-effect="non-scaling-stroke" x="-10" y="-44">0s</text><text dominant-baseline="middle" stroke="none" vector-effect="non-scaling-stroke" x="-10" y="-7.920000e+01">200ms</text><text stroke="none" vector-effect="non-scaling-stroke" x="-10" y="-1.144000e+02" dominant-baseline="middle">400ms</text><text x="-10" y="-1.496000e+02" dominant-baseline="middle" stroke="none" vector-effect="non-scaling-stroke">600ms</text><text vector-effect="non-scaling-stroke" x="-10" y="-1.848000e+02" dominant-baseline="middle" stroke="none">800ms</text><text x="-10" y="-220" dominant-baseline="middle" stroke="none" vector-effect="non-scaling-stroke">1s</text><text vector-effect="non-scaling-stroke" x="-10" y="-2.552000e+02" dominant-baseline="middle" stroke="none">1.2s</text><text y="-2.904000e+02" dominant-baseline="middle" stroke="none" vector-effect="non-scaling-stroke" x="-10">1.4s</text><text x="-10" y="-3.256000e+02" dominant-baseline="middle" stroke="none" vector-effect="non-scaling-stroke">1.6s</text><text dominant-baseline="middle" stroke="none" vector-effect="non-scaling-stroke" x="-10" y="-3.608000e+02">1.8s</text><text stroke="none" vector-effect="non-scaling-stroke" x="-10" y="-396" dominant-baseline="middle">2s</text></g><g fill="black" stroke-width="2px" font-style="normal" stroke-linejoin="round" font-weight="bold" dominant-baseline="hanging" transform="translate(80 520 )scale(1 1 )rotate(-90 0 0 )" stroke="black" stroke-linecap="round" text-anchor="middle" font-family="sans-serif" font-size="12px"><text y="6" dominant-baseline="hanging" stroke="none" vector-effect="non-scaling-stroke" x="220">Runtime</text></g></g></g></g></g></svg>