<svg width="800" height="600" viewbox="0 0 800 600" preserveAspectRatio="xMidYMid meet" xmlns="http://www.w3.org/2000/svg"><defs><marker markerWidth="2%" markerHeight="2%" id="circle" viewBox="0 0 10 10 " refX="5" refY="5" markerUnits="userSpaceOnUse"><circle cx="5" cy="5" r="3" fill="none" stroke="black"/></marker><marker markerHeight="2%" id="filled-circle" viewBox="0 0 10 10 " refX="5" refY="5" markerUnits="userSpaceOnUse" markerWidth="2%"><circle cx="5" cy="5" r="3" fill="black" stroke="none"/></marker><marker id="square" viewBox="0 0 10 10 " refX="5" refY="5" markerUnits="userSpaceOnUse" markerWidth="2%" markerHeight="2%"><rect height="6" fill="none" stroke="black" x="2" y="2" width="6"/></marker><marker refX="5" refY="5" markerUnits="userSpaceOnUse" markerWidth="2%" markerHeight="2%" id="filled-square" viewBox="0 0 10 10 "><rect x="2" y="2" width="6" height="6" fill="black" stroke="none"/></marker></defs><g stroke-linejoin="round" transform="translate(80 520 )scale(1 -1 )" fill="hsl(198, 47%, 65%)" stroke="hsl(198, 47%, 65%)" stroke-width="1px" stroke-linecap="round"><rect width="8.533333e+00" height="4.400878e+01" vector-effect="non-scaling-stroke" x="5.546667e+01" y="0"/><rect vector-effect="non-scaling-stroke" x="7.680000e+01" y="0" width="8.533333e+00" height="4.400686e+01"/><rect width="8.533333e+00" height="4.400690e+01" vector-effect="non-scaling-stroke" x="9.813333e+01" y="0"/><rect vector-effect="non-scaling-stroke" x="1.194667e+02" y="0" width="8.533333e+00" height="4.456856e+01"/><rect x="1.408000e+02" y="0" width="8.533333e+00" height="7.712218e+01" vector-effect="non-scaling-stroke"/><rect y="0" width="8.533333e+00" height="4.931786e+01" vector-effect="non-scaling-stroke" x="1.621333e+02"/><rect vector-effect="non-scaling-stroke" x="1.834667e+02" y="0" width="8.533333e+00" height="4.467152e+01"/><rect width="8.533333e+00" height="4.414736e+01" vector-effect="non-scaling-stroke" x="2.048000e+02" y="0"/><rect vector-effect="non-scaling-stroke" x="2.261333e+02" y="0" width="8.533333e+00" height="4.404044e+01"/><rect height="4.438214e+01" vector-effect="non-scaling-stroke" x="2.474667e+02" y="0" width="8.533333e+00"/><rect vector-effect="non-scaling-stroke" x="2.688000e+02" y="0" width="8.533333e+00" height="4.405171e+01"/><rect vector-effect="non-scaling-stroke" x="2.901333e+02" y="0" width="8.533333e+00" height="4.497078e+01"/><rect x="3.114667e+02" y="0" width="8.533333e+00" height="6.958265e+01" vector-effect="non-scaling-stroke"/><rect x="3.328000e+02" y="0" width="8.533333e+00" height="6.598980e+01" vector-effect="non-scaling-stroke"/><rect x="3.541333e+02" y="0" width="8.533333e+00" height="2.976470e+02" vector-effect="non-scaling-stroke"/><rect width="8.533333e+00" height="1.225766e+02" vector-effect="non-scaling-stroke" x="3.754667e+02" y="0"/><rect x="3.968000e+02" y="0" width="8.533333e+00" height="1.973159e+02" vector-effect="non-scaling-stroke"/><rect x="4.181333e+02" y="0" width="8.533333e+00" height="4.673984e+01" vector-effect="non-scaling-stroke"/><rect x="4.394667e+02" y="0" width="8.533333e+00" height="4.412970e+01" vector-effect="non-scaling-stroke"/><rect width="8.533333e+00" height="1.238040e+02" vector-effect="non-scaling-stroke" x="4.608000e+02" y="0"/><rect vector-effect="non-scaling-stroke" x="4.821333e+02" y="0" width="8.533333e+00" height="6.833492e+01"/><rect y="0" width="8.533333e+00" height="6.583592e+01" vector-effect="non-scaling-stroke" x="5.034667e+02"/><rect x="5.248000e+02" y="0" width="8.533333e+00" height="4.476917e+01" vector-effect="non-scaling-stroke"/><rect vector-effect="non-scaling-stroke" x="5.461333e+02" y="0" width="8.533333e+00" height="9.519148e+01"/><rect width="8.533333e+00" height="5.620175e+01" vector-effect="non-scaling-stroke" x="5.674667e+02" y="0"/></g><g stroke-width="1px" stroke-linecap="round" stroke-linejoin="round" transform="translate(80 520 )scale(1 -1 )" fill="hsl(49, 88%, 65%)" stroke="hsl(49, 88%, 65%)"><rect x="64" y="0" width="8.533333e+00" height="4.400062e+01" vector-effect="non-scaling-stroke"/><rect height="4.400376e+01" vector-effect="non-scaling-stroke" x="8.533333e+01" y="0" width="8.533333e+00"/><rect width="8.533333e+00" height="4.400473e+01" vector-effect="non-scaling-stroke" x="1.066667e+02" y="0"/><rect width="8.533333e+00" height="4.507984e+01" vector-effect="non-scaling-stroke" x="128" y="0"/><rect x="1.493333e+02" y="0" width="8.533333e+00" height="5.607149e+01" vector-effect="non-scaling-stroke"/><rect vector-effect="non-scaling-stroke" x="1.706667e+02" y="0" width="8.533333e+00" height="4.450781e+01"/><rect vector-effect="non-scaling-stroke" x="192" y="0" width="8.533333e+00" height="4.424840e+01"/><rect width="8.533333e+00" height="4.408988e+01" vector-effect="non-scaling-stroke" x="2.133333e+02" y="0"/><rect vector-effect="non-scaling-stroke" x="2.346667e+02" y="0" width="8.533333e+00" height="4.402210e+01"/><rect height="4.404608e+01" vector-effect="non-scaling-stroke" x="2.560000e+02" y="0" width="8.533333e+00"/><rect height="4.403610e+01" vector-effect="non-scaling-stroke" x="2.773333e+02" y="0" width="8.533333e+00"/><rect height="4.435463e+01" vector-effect="non-scaling-stroke" x="2.986667e+02" y="0" width="8.533333e+00"/><rect y="0" width="8.533333e+00" height="2.056085e+02" vector-effect="non-scaling-stroke" x="320"/><rect width="8.533333e+00" height="5.287844e+01" vector-effect="non-scaling-stroke" x="3.413333e+02" y="0"/><rect height="396" vector-effect="non-scaling-stroke" x="3.626667e+02" y="0" width="8.533333e+00"/><rect height="5.146372e+01" vector-effect="non-scaling-stroke" x="384" y="0" width="8.533333e+00"/><rect x="4.053333e+02" y="0" width="8.533333e+00" height="1.501152e+02" vector-effect="non-scaling-stroke"/><rect y="0" width="8.533333e+00" height="4.423194e+01" vector-effect="non-scaling-stroke" x="4.266667e+02"/></g><g font-size="12px" font-style="normal" font-weight="normal" fill="hsl(198, 47%, 65%)" dominant-baseline="hanging" stroke-width="1px" stroke="hsl(198, 47%, 65%)" stroke-linejoin="round" stroke-linecap="round" text-anchor="start" font-family="sans-serif"><rect x="736" y="484" width="12" height="12" vector-effect="non-scaling-stroke"/><g stroke="black" fill="black"><text vector-effect="non-scaling-stroke" x="752" y="484" dominant-baseline="hanging" stroke="none">Golang</text></g><g font-style="normal" font-weight="normal" stroke-linejoin="round" text-anchor="start" font-size="12px" fill="hsl(49, 88%, 65%)" stroke="hsl(49, 88%, 65%)" font-family="sans-serif" stroke-width="1px" stroke-linecap="round" dominant-baseline="hanging"><rect y="502" width="12" height="12" vector-effect="non-scaling-stroke" x="736"/><g stroke="black" fill="black"><text vector-effect="non-scaling-stroke" x="752" y="502" dominant-baseline="hanging" stroke="none">Rust</text><g font-weight="normal" stroke-linejoin="round" font-size="12px" stroke-linecap="round" dominant-baseline="hanging" font-style="normal" stroke-width="2px" font-family="sans-serif" text-anchor="start" fill="none"><rect vector-effect="non-scaling-stroke" x="80" y="80" width="640" height="440"/></g><g fill="none" stroke="black" font-family="sans-serif" font-size="12px" stroke-linecap="round" text-anchor="start" font-style="normal" font-weight="normal" stroke-width="2px" dominant-baseline="hanging" transform="translate(80 520 )scale(1 -1 )" stroke-linejoin="round"><path vector-effect="non-scaling-stroke" d="M64,0 L64,-6 M8.533333e+01,0 L8.533333e+01,-6 M1.066667e+02,0 L1.066667e+02,-6 M128,0 L128,-6 M1.493333e+02,0 L1.493333e+02,-6 M1.706667e+02,0 L1.706667e+02,-6 M192,0 L192,-6 M2.133333e+02,0 L2.133333e+02,-6 M2.346667e+02,0 L2.346667e+02,-6 M256,0 L256,-6 M2.773333e+02,0 L2.773333e+02,-6 M2.986667e+02,0 L2.986667e+02,-6 M320,0 L320,-6 M3.413333e+02,0 L3.413333e+02,-6 M3.626667e+02,0 L3.626667e+02,-6 M384,0 L384,-6 M4.053333e+02,0 L4.053333e+02,-6 M4.266667e+02,0 L4.266667e+02,-6 M448,0 L448,-6 M4.693333e+02,0 L4.693333e+02,-6 M4.906667e+02,0 L4.906667e+02,-6 M512,0 L512,-6 M5.333333e+02,0 L5.333333e+02,-6 M5.546667e+02,0 L5.546667e+02,-6 M576,0 L576,-6 "/></g><g dominant-baseline="hanging" fill="black" text-anchor="middle" font-style="normal" font-weight="normal" transform="translate(80 520 )scale(1 1 )" stroke="black" stroke-linejoin="round" stroke-width="2px" stroke-linecap="round" font-family="sans-serif" font-size="12px"><text x="64" y="10" dominant-baseline="hanging" stroke="none" vector-effect="non-scaling-stroke">1</text><text x="8.533333e+01" y="10" dominant-baseline="hanging" stroke="none" vector-effect="non-scaling-stroke">2</text><text stroke="none" vector-effect="non-scaling-stroke" x="1.066667e+02" y="10" dominant-baseline="hanging">3</text><text stroke="none" vector-effect="non-scaling-stroke" x="128" y="10" dominant-baseline="hanging">4</text><text stroke="none" vector-effect="non-scaling-stroke" x="1.493333e+02" y="10" dominant-baseline="hanging">5</text><text vector-effect="non-scaling-stroke" x="1.706667e+02" y="10" dominant-baseline="hanging" stroke="none">6</text><text y="10" dominant-baseline="hanging" stroke="none" vector-effect="non-scaling-stroke" x="192">7</text><text stroke="none" vector-effect="non-scaling-stroke" x="2.133333e+02" y="10" dominant-baseline="hanging">8</text><text vector-effect="non-scaling-stroke" x="2.346667e+02" y="10" dominant-baseline="hanging" stroke="none">9</text><text dominant-baseline="hanging" stroke="none" vector-effect="non-scaling-stroke" x="256" y="10">10</text><text x="2.773333e+02" y="10" dominant-baseline="hanging" stroke="none" vector-effect="non-scaling-stroke">11</text><text stroke="none" vector-effect="non-scaling-stroke" x="2.986667e+02" y="10" dominant-baseline="hanging">12</text><text dominant-baseline="hanging" stroke="none" vector-effect="non-scaling-stroke" x="320" y="10">13</text><text y="10" dominant-baseline="hanging" stroke="none" vector-effect="non-scaling-stroke" x="3.413333e+02">14</text><text vector-effect="non-scaling-stroke" x="3.626667e+02" y="10" dominant-baseline="hanging" stroke="none">15</text><text x="384" y="10" dominant-baseline="hanging" stroke="none" vector-effect="non-scaling-stroke">16</text><text vector-effect="non-scaling-stroke" x="4.053333e+02" y="10" dominant-baseline="hanging" stroke="none">17</text><text stroke="none" vector-effect="non-scaling-stroke" x="4.266667e+02" y="10" dominant-baseline="hanging">18</text><text stroke="none" vector-effect="non-scaling-stroke" x="448" y="10" dominant-baseline="hanging">19</text><text vector-effect="non-scaling-stroke" x="4.693333e+02" y="10" dominant-baseline="hanging" stroke="none">20</text><text x="4.906667e+02" y="10" dominant-baseline="hanging" stroke="none" vector-effect="non-scaling-stroke">21</text><text stroke="none" vector-effect="non-scaling-stroke" x="512" y="10" dominant-baseline="hanging">22</text><text vector-effect="non-scaling-stroke" x="5.333333e+02" y="10" dominant-baseline="hanging" stroke="none">23</text><text vector-effect="non-scaling-stroke" x="5.546667e+02" y="10" dominant-baseline="hanging" stroke="none">24</text><text dominant-baseline="hanging" stroke="none" vector-effect="non-scaling-stroke" x="576" y="10">25</text></g><g stroke-linejoin="round" font-family="sans-serif" font-weight="bold" dominant-baseline="baseline" stroke-width="2px" stroke-linecap="round" font-size="12px" font-style="normal" transform="translate(80 520 )scale(1 1 )rotate(0 0 0 )" fill="black" stroke="black" text-anchor="middle"><text x="320" y="-6" dominant-baseline="baseline" stroke="none" vector-effect="non-scaling-stroke">Day</text></g><g stroke-linejoin="round" font-family="sans-serif" font-size="12px" font-style="normal" font-weight="bold" transform="translate(80 520 )scale(1 -1 )" dominant-baseline="baseline" stroke-width="2px" stroke="black" fill="black" stroke-linecap="round" text-anchor="middle"><path vector-effect="non-scaling-stroke" d="M0,44 L-6,44 M0,8.783957e+01 L-6,8.783957e+01 M0,1.316791e+02 L-6,1.316791e+02 M0,1.755187e+02 L-6,1.755187e+02 M0,2.193583e+02 L-6,2.193583e+02 M0,2.631979e+02 L-6,2.631979e+02 M0,3.070374e+02 L-6,3.070374e+02 M0,3.508770e+02 L-6,3.508770e+02 M0,3.947166e+02 L-6,3.947166e+02 "/></g><g stroke="black" font-family="sans-serif" stroke-width="2px" stroke-linecap="round" text-anchor="end" font-weight="normal" transform="translate(80 520 )scale(1 1 )" fill="black" dominant-baseline="middle" stroke-linejoin="round" font-size="12px" font-style="normal"><text stroke="none" vector-effect="non-scaling-stroke" x="-10" y="-44" dominant-baseline="middle">0s</text><text dominant-baseline="middle" stroke="none" vector-effect="non-scaling-stroke" x="-10" y="-8.783957e+01">200ms</text><text y="-1.316791e+02" dominant-baseline="middle" stroke="none" vector-effect="non-scaling-stroke" x="-10">400ms</text><text stroke="none" vector-effect="non-scaling-stroke" x="-10" y="-1.755187e+02" dominant-baseline="middle">600ms</text><text x="-10" y="-2.193583e+02" dominant-baseline="middle" stroke="none" vector-effect="non-scaling-stroke">800ms</text><text y="-2.631979e+02" dominant-baseline="middle" stroke="none" vector-effect="non-scaling-stroke" x="-10">1s</text><text vector-effect="non-scaling-stroke" x="-10" y="-3.070374e+02" dominant-baseline="middle" stroke="none">1.2s</text><text dominant-baseline="middle" stroke="none" vector-effect="non-scaling-stroke" x="-10" y="-3.508770e+02">1.4s</text><text vector-effect="non-scaling-stroke" x="-10" y="-3.947166e+02" dominant-baseline="middle" stroke="none">1.6s</text></g><g stroke-linecap="round" text-anchor="middle" font-size="12px" font-weight="bold" stroke="black" font-family="sans-serif" stroke-width="2px" dominant-baseline="hanging" font-style="normal" transform="translate(80 520 )scale(1 1 )rotate(-90 0 0 )" fill="black" stroke-linejoin="round"><text y="6" dominant-baseline="hanging" stroke="none" vector-effect="non-scaling-stroke" x="220">Runtime</text></g></g></g></g></svg>