<svg preserveAspectRatio="xMidYMid meet" xmlns="http://www.w3.org/2000/svg" width="800" height="600" viewbox="0 0 800 600"><defs><marker refX="5" refY="5" markerUnits="userSpaceOnUse" markerWidth="2%" markerHeight="2%" id="circle" viewBox="0 0 10 10 "><circle cx="5" cy="5" r="3" fill="none" stroke="black"/></marker><marker markerWidth="2%" markerHeight="2%" id="filled-circle" viewBox="0 0 10 10 " refX="5" refY="5" markerUnits="userSpaceOnUse"><circle r="3" fill="black" stroke="none" cx="5" cy="5"/></marker><marker markerUnits="userSpaceOnUse" markerWidth="2%" markerHeight="2%" id="square" viewBox="0 0 10 10 " refX="5" refY="5"><rect x="2" y="2" width="6" height="6" fill="none" stroke="black"/></marker><marker refY="5" markerUnits="userSpaceOnUse" markerWidth="2%" markerHeight="2%" id="filled-square" viewBox="0 0 10 10 " refX="5"><rect fill="black" stroke="none" x="2" y="2" width="6" height="6"/></marker></defs><g stroke="hsl(198, 47%, 65%)" stroke-width="1px" stroke-linecap="round" stroke-linejoin="round" transform="translate(80 520 )scale(1 -1 )" fill="hsl(198, 47%, 65%)"><rect width="8.533333e+00" height="4.400878e+01" vector-effect="non-scaling-stroke" x="5.546667e+01" y="0"/><rect x="7.680000e+01" y="0" width="8.533333e+00" height="4.400686e+01" vector-effect="non-scaling-stroke"/><rect x="9.813333e+01" y="0" width="8.533333e+00" height="4.400690e+01" vector-effect="non-scaling-stroke"/><rect vector-effect="non-scaling-stroke" x="1.194667e+02" y="0" width="8.533333e+00" height="4.456856e+01"/><rect y="0" width="8.533333e+00" height="7.712218e+01" vector-effect="non-scaling-stroke" x="1.408000e+02"/><rect width="8.533333e+00" height="4.931786e+01" vector-effect="non-scaling-stroke" x="1.621333e+02" y="0"/><rect vector-effect="non-scaling-stroke" x="1.834667e+02" y="0" width="8.533333e+00" height="4.467152e+01"/><rect y="0" width="8.533333e+00" height="4.414736e+01" vector-effect="non-scaling-stroke" x="2.048000e+02"/><rect y="0" width="8.533333e+00" height="4.404044e+01" vector-effect="non-scaling-stroke" x="2.261333e+02"/><rect y="0" width="8.533333e+00" height="4.438214e+01" vector-effect="non-scaling-stroke" x="2.474667e+02"/><rect x="2.688000e+02" y="0" width="8.533333e+00" height="4.405171e+01" vector-effect="non-scaling-stroke"/><rect height="4.497078e+01" vector-effect="non-scaling-stroke" x="2.901333e+02" y="0" width="8.533333e+00"/><rect y="0" width="8.533333e+00" height="6.958265e+01" vector-effect="non-scaling-stroke" x="3.114667e+02"/><rect height="6.598980e+01" vector-effect="non-scaling-stroke" x="3.328000e+02" y="0" width="8.533333e+00"/><rect vector-effect="non-scaling-stroke" x="3.541333e+02" y="0" width="8.533333e+00" height="2.976470e+02"/><rect width="8.533333e+00" height="1.225766e+02" vector-effect="non-scaling-stroke" x="3.754667e+02" y="0"/><rect x="3.968000e+02" y="0" width="8.533333e+00" height="1.973159e+02" vector-effect="non-scaling-stroke"/><rect height="4.673984e+01" vector-effect="non-scaling-stroke" x="4.181333e+02" y="0" width="8.533333e+00"/><rect height="4.412970e+01" vector-effect="non-scaling-stroke" x="4.394667e+02" y="0" width="8.533333e+00"/><rect width="8.533333e+00" height="1.238040e+02" vector-effect="non-scaling-stroke" x="4.608000e+02" y="0"/><rect vector-effect="non-scaling-stroke" x="4.821333e+02" y="0" width="8.533333e+00" height="6.833492e+01"/><rect vector-effect="non-scaling-stroke" x="5.034667e+02" y="0" width="8.533333e+00" height="6.583592e+01"/><rect x="5.248000e+02" y="0" width="8.533333e+00" height="4.476917e+01" vector-effect="non-scaling-stroke"/><rect x="5.461333e+02" y="0" width="8.533333e+00" height="9.519148e+01" vector-effect="non-scaling-stroke"/><rect y="0" width="8.533333e+00" height="5.620175e+01" vector-effect="non-scaling-stroke" x="5.674667e+02"/></g><g fill="hsl(49, 88%, 65%)" stroke="hsl(49, 88%, 65%)" stroke-width="1px" stroke-linecap="round" stroke-linejoin="round" transform="translate(80 520 )scale(1 -1 )"><rect vector-effect="non-scaling-stroke" x="64" y="0" width="8.533333e+00" height="4.400062e+01"/><rect vector-effect="non-scaling-stroke" x="8.533333e+01" y="0" width="8.533333e+00" height="4.400376e+01"/><rect width="8.533333e+00" height="4.400473e+01" vector-effect="non-scaling-stroke" x="1.066667e+02" y="0"/><rect vector-effect="non-scaling-stroke" x="128" y="0" width="8.533333e+00" height="4.507984e+01"/><rect height="5.607149e+01" vector-effect="non-scaling-stroke" x="1.493333e+02" y="0" width="8.533333e+00"/><rect vector-effect="non-scaling-stroke" x="1.706667e+02" y="0" width="8.533333e+00" height="4.450781e+01"/><rect vector-effect="non-scaling-stroke" x="192" y="0" width="8.533333e+00" height="4.424840e+01"/><rect vector-effect="non-scaling-stroke" x="2.133333e+02" y="0" width="8.533333e+00" height="4.408988e+01"/><rect vector-effect="non-scaling-stroke" x="2.346667e+02" y="0" width="8.533333e+00" height="4.402210e+01"/><rect vector-effect="non-scaling-stroke" x="2.560000e+02" y="0" width="8.533333e+00" height="4.404608e+01"/><rect vector-effect="non-scaling-stroke" x="2.773333e+02" y="0" width="8.533333e+00" height="4.403610e+01"/><rect y="0" width="8.533333e+00" height="4.435463e+01" vector-effect="non-scaling-stroke" x="2.986667e+02"/><rect height="2.056085e+02" vector-effect="non-scaling-stroke" x="320" y="0" width="8.533333e+00"/><rect y="0" width="8.533333e+00" height="5.287844e+01" vector-effect="non-scaling-stroke" x="3.413333e+02"/><rect height="396" vector-effect="non-scaling-stroke" x="3.626667e+02" y="0" width="8.533333e+00"/><rect vector-effect="non-scaling-stroke" x="384" y="0" width="8.533333e+00" height="5.146372e+01"/><rect width="8.533333e+00" height="1.501152e+02" vector-effect="non-scaling-stroke" x="4.053333e+02" y="0"/><rect x="4.266667e+02" y="0" width="8.533333e+00" height="4.420576e+01" vector-effect="non-scaling-stroke"/></g><g font-weight="normal" font-family="sans-serif" text-anchor="start" stroke-linejoin="round" font-style="normal" stroke-linecap="round" font-size="12px" dominant-baseline="hanging" fill="hsl(198, 47%, 65%)" stroke="hsl(198, 47%, 65%)" stroke-width="1px"><rect vector-effect="non-scaling-stroke" x="736" y="484" width="12" height="12"/><g fill="black" stroke="black"><text dominant-baseline="hanging" stroke="none" vector-effect="non-scaling-stroke" x="752" y="484">Golang</text></g><g stroke-linejoin="round" stroke-width="1px" dominant-baseline="hanging" font-style="normal" font-weight="normal" text-anchor="start" font-family="sans-serif" fill="hsl(49, 88%, 65%)" font-size="12px" stroke="hsl(49, 88%, 65%)" stroke-linecap="round"><rect y="502" width="12" height="12" vector-effect="non-scaling-stroke" x="736"/><g fill="black" stroke="black"><text x="752" y="502" dominant-baseline="hanging" stroke="none" vector-effect="non-scaling-stroke">Rust</text><g stroke-width="2px" stroke-linejoin="round" font-size="12px" dominant-baseline="hanging" font-weight="normal" font-style="normal" stroke-linecap="round" font-family="sans-serif" fill="none" text-anchor="start"><rect x="80" y="80" width="640" height="440" vector-effect="non-scaling-stroke"/></g><g font-style="normal" font-weight="normal" fill="none" stroke="black" stroke-width="2px" font-family="sans-serif" dominant-baseline="hanging" font-size="12px" text-anchor="start" stroke-linecap="round" transform="translate(80 520 )scale(1 -1 )" stroke-linejoin="round"><path vector-effect="non-scaling-stroke" d="M64,0 L64,-6 M8.533333e+01,0 L8.533333e+01,-6 M1.066667e+02,0 L1.066667e+02,-6 M128,0 L128,-6 M1.493333e+02,0 L1.493333e+02,-6 M1.706667e+02,0 L1.706667e+02,-6 M192,0 L192,-6 M2.133333e+02,0 L2.133333e+02,-6 M2.346667e+02,0 L2.346667e+02,-6 M256,0 L256,-6 M2.773333e+02,0 L2.773333e+02,-6 M2.986667e+02,0 L2.986667e+02,-6 M320,0 L320,-6 M3.413333e+02,0 L3.413333e+02,-6 M3.626667e+02,0 L3.626667e+02,-6 M384,0 L384,-6 M4.053333e+02,0 L4.053333e+02,-6 M4.266667e+02,0 L4.266667e+02,-6 M448,0 L448,-6 M4.693333e+02,0 L4.693333e+02,-6 M4.906667e+02,0 L4.906667e+02,-6 M512,0 L512,-6 M5.333333e+02,0 L5.333333e+02,-6 M5.546667e+02,0 L5.546667e+02,-6 M576,0 L576,-6 "/></g><g stroke="black" stroke-width="2px" dominant-baseline="hanging" transform="translate(80 520 )scale(1 1 )" stroke-linejoin="round" stroke-linecap="round" font-family="sans-serif" fill="black" font-size="12px" font-style="normal" font-weight="normal" text-anchor="middle"><text stroke="none" vector-effect="non-scaling-stroke" x="64" y="10" dominant-baseline="hanging">1</text><text x="8.533333e+01" y="10" dominant-baseline="hanging" stroke="none" vector-effect="non-scaling-stroke">2</text><text stroke="none" vector-effect="non-scaling-stroke" x="1.066667e+02" y="10" dominant-baseline="hanging">3</text><text dominant-baseline="hanging" stroke="none" vector-effect="non-scaling-stroke" x="128" y="10">4</text><text x="1.493333e+02" y="10" dominant-baseline="hanging" stroke="none" vector-effect="non-scaling-stroke">5</text><text vector-effect="non-scaling-stroke" x="1.706667e+02" y="10" dominant-baseline="hanging" stroke="none">6</text><text y="10" dominant-baseline="hanging" stroke="none" vector-effect="non-scaling-stroke" x="192">7</text><text y="10" dominant-baseline="hanging" stroke="none" vector-effect="non-scaling-stroke" x="2.133333e+02">8</text><text y="10" dominant-baseline="hanging" stroke="none" vector-effect="non-scaling-stroke" x="2.346667e+02">9</text><text vector-effect="non-scaling-stroke" x="256" y="10" dominant-baseline="hanging" stroke="none">10</text><text vector-effect="non-scaling-stroke" x="2.773333e+02" y="10" dominant-baseline="hanging" stroke="none">11</text><text x="2.986667e+02" y="10" dominant-baseline="hanging" stroke="none" vector-effect="non-scaling-stroke">12</text><text x="320" y="10" dominant-baseline="hanging" stroke="none" vector-effect="non-scaling-stroke">13</text><text vector-effect="non-scaling-stroke" x="3.413333e+02" y="10" dominant-baseline="hanging" stroke="none">14</text><text stroke="none" vector-effect="non-scaling-stroke" x="3.626667e+02" y="10" dominant-baseline="hanging">15</text><text stroke="none" vector-effect="non-scaling-stroke" x="384" y="10" dominant-baseline="hanging">16</text><text stroke="none" vector-effect="non-scaling-stroke" x="4.053333e+02" y="10" dominant-baseline="hanging">17</text><text y="10" dominant-baseline="hanging" stroke="none" vector-effect="non-scaling-stroke" x="4.266667e+02">18</text><text y="10" dominant-baseline="hanging" stroke="none" vector-effect="non-scaling-stroke" x="448">19</text><text vector-effect="non-scaling-stroke" x="4.693333e+02" y="10" dominant-baseline="hanging" stroke="none">20</text><text vector-effect="non-scaling-stroke" x="4.906667e+02" y="10" dominant-baseline="hanging" stroke="none">21</text><text stroke="none" vector-effect="non-scaling-stroke" x="512" y="10" dominant-baseline="hanging">22</text><text stroke="none" vector-effect="non-scaling-stroke" x="5.333333e+02" y="10" dominant-baseline="hanging">23</text><text stroke="none" vector-effect="non-scaling-stroke" x="5.546667e+02" y="10" dominant-baseline="hanging">24</text><text y="10" dominant-baseline="hanging" stroke="none" vector-effect="non-scaling-stroke" x="576">25</text></g><g font-weight="bold" fill="black" stroke="black" stroke-linecap="round" font-family="sans-serif" dominant-baseline="baseline" stroke-linejoin="round" font-size="12px" stroke-width="2px" transform="translate(80 520 )scale(1 1 )rotate(0 0 0 )" font-style="normal" text-anchor="middle"><text stroke="none" vector-effect="non-scaling-stroke" x="320" y="-6" dominant-baseline="baseline">Day</text></g><g stroke-linecap="round" font-weight="bold" text-anchor="middle" stroke-width="2px" dominant-baseline="baseline" transform="translate(80 520 )scale(1 -1 )" fill="black" stroke="black" font-style="normal" stroke-linejoin="round" font-size="12px" font-family="sans-serif"><path vector-effect="non-scaling-stroke" d="M0,44 L-6,44 M0,8.783957e+01 L-6,8.783957e+01 M0,1.316791e+02 L-6,1.316791e+02 M0,1.755187e+02 L-6,1.755187e+02 M0,2.193583e+02 L-6,2.193583e+02 M0,2.631979e+02 L-6,2.631979e+02 M0,3.070374e+02 L-6,3.070374e+02 M0,3.508770e+02 L-6,3.508770e+02 M0,3.947166e+02 L-6,3.947166e+02 "/></g><g font-style="normal" font-weight="normal" text-anchor="end" transform="translate(80 520 )scale(1 1 )" fill="black" stroke-width="2px" dominant-baseline="middle" stroke-linejoin="round" font-size="12px" stroke="black" stroke-linecap="round" font-family="sans-serif"><text stroke="none" vector-effect="non-scaling-stroke" x="-10" y="-44" dominant-baseline="middle">0s</text><text y="-8.783957e+01" dominant-baseline="middle" stroke="none" vector-effect="non-scaling-stroke" x="-10">200ms</text><text vector-effect="non-scaling-stroke" x="-10" y="-1.316791e+02" dominant-baseline="middle" stroke="none">400ms</text><text dominant-baseline="middle" stroke="none" vector-effect="non-scaling-stroke" x="-10" y="-1.755187e+02">600ms</text><text y="-2.193583e+02" dominant-baseline="middle" stroke="none" vector-effect="non-scaling-stroke" x="-10">800ms</text><text x="-10" y="-2.631979e+02" dominant-baseline="middle" stroke="none" vector-effect="non-scaling-stroke">1s</text><text y="-3.070374e+02" dominant-baseline="middle" stroke="none" vector-effect="non-scaling-stroke" x="-10">1.2s</text><text vector-effect="non-scaling-stroke" x="-10" y="-3.508770e+02" dominant-baseline="middle" stroke="none">1.4s</text><text dominant-baseline="middle" stroke="none" vector-effect="non-scaling-stroke" x="-10" y="-3.947166e+02">1.6s</text></g><g text-anchor="middle" stroke-linejoin="round" font-size="12px" transform="translate(80 520 )scale(1 1 )rotate(-90 0 0 )" fill="black" stroke="black" stroke-width="2px" stroke-linecap="round" font-style="normal" font-weight="bold" font-family="sans-serif" dominant-baseline="hanging"><text stroke="none" vector-effect="non-scaling-stroke" x="220" y="6" dominant-baseline="hanging">Runtime</text></g></g></g></g></svg>