<svg height="600" viewbox="0 0 800 600" preserveAspectRatio="xMidYMid meet" xmlns="http://www.w3.org/2000/svg" width="800"><defs><marker markerUnits="userSpaceOnUse" markerWidth="2%" markerHeight="2%" id="circle" viewBox="0 0 10 10 " refX="5" refY="5"><circle fill="none" stroke="black" cx="5" cy="5" r="3"/></marker><marker refX="5" refY="5" markerUnits="userSpaceOnUse" markerWidth="2%" markerHeight="2%" id="filled-circle" viewBox="0 0 10 10 "><circle stroke="none" cx="5" cy="5" r="3" fill="black"/></marker><marker id="square" viewBox="0 0 10 10 " refX="5" refY="5" markerUnits="userSpaceOnUse" markerWidth="2%" markerHeight="2%"><rect fill="none" stroke="black" x="2" y="2" width="6" height="6"/></marker><marker markerUnits="userSpaceOnUse" markerWidth="2%" markerHeight="2%" id="filled-square" viewBox="0 0 10 10 " refX="5" refY="5"><rect height="6" fill="black" stroke="none" x="2" y="2" width="6"/></marker></defs><g stroke-linecap="round" stroke-linejoin="round" transform="translate(80 520 )scale(1 -1 )" fill="hsl(198, 47%, 65%)" stroke="hsl(198, 47%, 65%)" stroke-width="1px"><rect vector-effect="non-scaling-stroke" x="5.546667e+01" y="0" width="5.688889e+00" height="4.402957e+01"/><rect y="0" width="5.688889e+00" height="4.400140e+01" vector-effect="non-scaling-stroke" x="7.680000e+01"/><rect width="5.688889e+00" height="4.401096e+01" vector-effect="non-scaling-stroke" x="9.813333e+01" y="0"/><rect vector-effect="non-scaling-stroke" x="1.194667e+02" y="0" width="5.688889e+00" height="4.428485e+01"/><rect vector-effect="non-scaling-stroke" x="1.408000e+02" y="0" width="5.688889e+00" height="7.133341e+02"/><rect vector-effect="non-scaling-stroke" x="1.621333e+02" y="0" width="5.688889e+00" height="4.402000e+01"/><rect x="1.834667e+02" y="0" width="5.688889e+00" height="4.419334e+01" vector-effect="non-scaling-stroke"/><rect y="0" width="5.688889e+00" height="4.400065e+01" vector-effect="non-scaling-stroke" x="2.048000e+02"/><rect height="4.400138e+01" vector-effect="non-scaling-stroke" x="2.261333e+02" y="0" width="5.688889e+00"/><rect x="2.474667e+02" y="0" width="5.688889e+00" height="4.542853e+01" vector-effect="non-scaling-stroke"/><rect y="0" width="5.688889e+00" height="4.833755e+01" vector-effect="non-scaling-stroke" x="2.688000e+02"/><rect height="4.400083e+01" vector-effect="non-scaling-stroke" x="2.901333e+02" y="0" width="5.688889e+00"/><rect height="4.402367e+01" vector-effect="non-scaling-stroke" x="3.114667e+02" y="0" width="5.688889e+00"/><rect width="5.688889e+00" height="1.618747e+03" vector-effect="non-scaling-stroke" x="3.328000e+02" y="0"/><rect width="5.688889e+00" height="4.720032e+01" vector-effect="non-scaling-stroke" x="3.541333e+02" y="0"/><rect width="5.688889e+00" height="6.281465e+01" vector-effect="non-scaling-stroke" x="3.754667e+02" y="0"/><rect width="5.688889e+00" height="5.731565e+01" vector-effect="non-scaling-stroke" x="3.968000e+02" y="0"/><rect width="5.688889e+00" height="7.514564e+01" vector-effect="non-scaling-stroke" x="4.181333e+02" y="0"/><rect vector-effect="non-scaling-stroke" x="4.394667e+02" y="0" width="5.688889e+00" height="8.816171e+01"/><rect vector-effect="non-scaling-stroke" x="4.608000e+02" y="0" width="5.688889e+00" height="4.404857e+01"/><rect vector-effect="non-scaling-stroke" x="4.821333e+02" y="0" width="5.688889e+00" height="6.637401e+01"/><rect width="5.688889e+00" height="4.696701e+01" vector-effect="non-scaling-stroke" x="5.034667e+02" y="0"/><rect height="4.400226e+01" vector-effect="non-scaling-stroke" x="5.248000e+02" y="0" width="5.688889e+00"/><rect y="0" width="5.688889e+00" height="5.583318e+01" vector-effect="non-scaling-stroke" x="5.461333e+02"/><rect height="5.449669e+01" vector-effect="non-scaling-stroke" x="5.674667e+02" y="0" width="5.688889e+00"/></g><g fill="hsl(49, 88%, 65%)" stroke="hsl(49, 88%, 65%)" stroke-width="1px" stroke-linecap="round" stroke-linejoin="round" transform="translate(80 520 )scale(1 -1 )"><rect y="0" width="5.688889e+00" height="4.400687e+01" vector-effect="non-scaling-stroke" x="6.115556e+01"/><rect width="5.688889e+00" height="4.401221e+01" vector-effect="non-scaling-stroke" x="8.248889e+01" y="0"/><rect vector-effect="non-scaling-stroke" x="1.038222e+02" y="0" width="5.688889e+00" height="4.403603e+01"/><rect vector-effect="non-scaling-stroke" x="1.251556e+02" y="0" width="5.688889e+00" height="4.430558e+01"/><rect x="1.464889e+02" y="0" width="5.688889e+00" height="1.158798e+03" vector-effect="non-scaling-stroke"/><rect vector-effect="non-scaling-stroke" x="1.678222e+02" y="0" width="5.688889e+00" height="4.413621e+01"/><rect vector-effect="non-scaling-stroke" x="1.891556e+02" y="0" width="5.688889e+00" height="4.444758e+01"/><rect width="5.688889e+00" height="4.400182e+01" vector-effect="non-scaling-stroke" x="2.104889e+02" y="0"/><rect vector-effect="non-scaling-stroke" x="2.318222e+02" y="0" width="5.688889e+00" height="4.402852e+01"/><rect height="4.402205e+01" vector-effect="non-scaling-stroke" x="2.531556e+02" y="0" width="5.688889e+00"/><rect width="5.688889e+00" height="2.707500e+02" vector-effect="non-scaling-stroke" x="2.744889e+02" y="0"/><rect vector-effect="non-scaling-stroke" x="2.958222e+02" y="0" width="5.688889e+00" height="4.400035e+01"/><rect x="3.171556e+02" y="0" width="5.688889e+00" height="4.401868e+01" vector-effect="non-scaling-stroke"/><rect height="1.039437e+03" vector-effect="non-scaling-stroke" x="3.384889e+02" y="0" width="5.688889e+00"/><rect width="5.688889e+00" height="4.477889e+01" vector-effect="non-scaling-stroke" x="3.598222e+02" y="0"/><rect y="0" width="5.688889e+00" height="5.042347e+01" vector-effect="non-scaling-stroke" x="3.811556e+02"/><rect height="4.937437e+01" vector-effect="non-scaling-stroke" x="4.024889e+02" y="0" width="5.688889e+00"/><rect height="9.697332e+01" vector-effect="non-scaling-stroke" x="4.238222e+02" y="0" width="5.688889e+00"/><rect vector-effect="non-scaling-stroke" x="4.451556e+02" y="0" width="5.688889e+00" height="4.400001e+01"/><rect vector-effect="non-scaling-stroke" x="4.664889e+02" y="0" width="5.688889e+00" height="4.401271e+01"/><rect height="5.020822e+01" vector-effect="non-scaling-stroke" x="4.878222e+02" y="0" width="5.688889e+00"/><rect width="5.688889e+00" height="4.599967e+01" vector-effect="non-scaling-stroke" x="5.091556e+02" y="0"/><rect width="5.688889e+00" height="4.400083e+01" vector-effect="non-scaling-stroke" x="5.304889e+02" y="0"/><rect x="5.518222e+02" y="0" width="5.688889e+00" height="4.480524e+01" vector-effect="non-scaling-stroke"/><rect y="0" width="5.688889e+00" height="4.536264e+01" vector-effect="non-scaling-stroke" x="5.731556e+02"/></g><g fill="hsl(260, 76%, 65%)" stroke="hsl(260, 76%, 65%)" stroke-width="1px" stroke-linecap="round" stroke-linejoin="round" transform="translate(80 520 )scale(1 -1 )"><rect vector-effect="non-scaling-stroke" x="6.684444e+01" y="0" width="5.688889e+00" height="4.400463e+01"/><rect height="4.400174e+01" vector-effect="non-scaling-stroke" x="8.817778e+01" y="0" width="5.688889e+00"/><rect x="1.095111e+02" y="0" width="5.688889e+00" height="4.400350e+01" vector-effect="non-scaling-stroke"/><rect vector-effect="non-scaling-stroke" x="1.308444e+02" y="0" width="5.688889e+00" height="4.407439e+01"/><rect x="1.521778e+02" y="0" width="5.688889e+00" height="4.828533e+02" vector-effect="non-scaling-stroke"/><rect vector-effect="non-scaling-stroke" x="1.735111e+02" y="0" width="5.688889e+00" height="4.400065e+01"/><rect y="0" width="5.688889e+00" height="4.409785e+01" vector-effect="non-scaling-stroke" x="1.948444e+02"/><rect height="4.400056e+01" vector-effect="non-scaling-stroke" x="2.161778e+02" y="0" width="5.688889e+00"/><rect y="0" width="5.688889e+00" height="4.400113e+01" vector-effect="non-scaling-stroke" x="2.375111e+02"/><rect y="0" width="5.688889e+00" height="4.400142e+01" vector-effect="non-scaling-stroke" x="2.588444e+02"/><rect height="4.400001e+01" vector-effect="non-scaling-stroke" x="3.015111e+02" y="0" width="5.688889e+00"/><rect height="4.400181e+01" vector-effect="non-scaling-stroke" x="3.228444e+02" y="0" width="5.688889e+00"/><rect x="3.441778e+02" y="0" width="5.688889e+00" height="8.740414e+02" vector-effect="non-scaling-stroke"/><rect height="4.400005e+01" vector-effect="non-scaling-stroke" x="3.655111e+02" y="0" width="5.688889e+00"/><rect height="4.400002e+01" vector-effect="non-scaling-stroke" x="3.868444e+02" y="0" width="5.688889e+00"/><rect vector-effect="non-scaling-stroke" x="4.081778e+02" y="0" width="5.688889e+00" height="4.768928e+01"/><rect height="4.413773e+01" vector-effect="non-scaling-stroke" x="4.295111e+02" y="0" width="5.688889e+00"/><rect width="5.688889e+00" height="4.400000e+01" vector-effect="non-scaling-stroke" x="4.508444e+02" y="0"/><rect x="4.721778e+02" y="0" width="5.688889e+00" height="4.400447e+01" vector-effect="non-scaling-stroke"/><rect width="5.688889e+00" height="4.400019e+01" vector-effect="non-scaling-stroke" x="4.935111e+02" y="0"/><rect vector-effect="non-scaling-stroke" x="5.148444e+02" y="0" width="5.688889e+00" height="4.416177e+01"/><rect width="5.688889e+00" height="4.400001e+01" vector-effect="non-scaling-stroke" x="5.361778e+02" y="0"/><rect vector-effect="non-scaling-stroke" x="5.575111e+02" y="0" width="5.688889e+00" height="4.413919e+01"/><rect y="0" width="5.688889e+00" height="4.400002e+01" vector-effect="non-scaling-stroke" x="5.788444e+02"/></g><g stroke="hsl(198, 47%, 65%)" font-family="sans-serif" font-size="12px" font-style="normal" dominant-baseline="hanging" stroke-linecap="round" stroke-linejoin="round" fill="hsl(198, 47%, 65%)" stroke-width="1px" font-weight="normal" text-anchor="start"><rect y="466" width="12" height="12" vector-effect="non-scaling-stroke" x="736"/><g stroke="black" fill="black"><text vector-effect="non-scaling-stroke" x="752" y="466" dominant-baseline="hanging" stroke="none">Golang</text></g><g fill="hsl(49, 88%, 65%)" font-style="normal" font-weight="normal" stroke="hsl(49, 88%, 65%)" stroke-linecap="round" stroke-width="1px" text-anchor="start" dominant-baseline="hanging" stroke-linejoin="round" font-family="sans-serif" font-size="12px"><rect height="12" vector-effect="non-scaling-stroke" x="736" y="484" width="12"/><g stroke="black" fill="black"><text stroke="none" vector-effect="non-scaling-stroke" x="752" y="484" dominant-baseline="hanging">Rust</text></g><g stroke-width="1px" font-style="normal" stroke="hsl(260, 76%, 65%)" stroke-linecap="round" font-family="sans-serif" font-size="12px" fill="hsl(260, 76%, 65%)" font-weight="normal" text-anchor="start" dominant-baseline="hanging" stroke-linejoin="round"><rect height="12" vector-effect="non-scaling-stroke" x="736" y="502" width="12"/><g stroke="black" fill="black"><text stroke="none" vector-effect="non-scaling-stroke" x="752" y="502" dominant-baseline="hanging">Zig</text><g font-style="normal" text-anchor="start" font-size="12px" stroke-width="2px" fill="none" stroke-linecap="round" stroke-linejoin="round" font-weight="normal" dominant-baseline="hanging" font-family="sans-serif"><rect x="80" y="80" width="640" height="440" vector-effect="non-scaling-stroke"/></g><g font-weight="normal" text-anchor="start" dominant-baseline="hanging" stroke="black" stroke-linecap="round" font-family="sans-serif" transform="translate(80 520 )scale(1 -1 )" fill="none" stroke-width="2px" stroke-linejoin="round" font-size="12px" font-style="normal"><path vector-effect="non-scaling-stroke" d="M64,0 L64,-6 M8.533333e+01,0 L8.533333e+01,-6 M1.066667e+02,0 L1.066667e+02,-6 M128,0 L128,-6 M1.493333e+02,0 L1.493333e+02,-6 M1.706667e+02,0 L1.706667e+02,-6 M192,0 L192,-6 M2.133333e+02,0 L2.133333e+02,-6 M2.346667e+02,0 L2.346667e+02,-6 M256,0 L256,-6 M2.773333e+02,0 L2.773333e+02,-6 M2.986667e+02,0 L2.986667e+02,-6 M320,0 L320,-6 M3.413333e+02,0 L3.413333e+02,-6 M3.626667e+02,0 L3.626667e+02,-6 M384,0 L384,-6 M4.053333e+02,0 L4.053333e+02,-6 M4.266667e+02,0 L4.266667e+02,-6 M448,0 L448,-6 M4.693333e+02,0 L4.693333e+02,-6 M4.906667e+02,0 L4.906667e+02,-6 M512,0 L512,-6 M5.333333e+02,0 L5.333333e+02,-6 M5.546667e+02,0 L5.546667e+02,-6 M576,0 L576,-6 "/></g><g font-family="sans-serif" transform="translate(80 520 )scale(1 1 )" font-style="normal" font-weight="normal" dominant-baseline="hanging" font-size="12px" fill="black" stroke-width="2px" text-anchor="middle" stroke="black" stroke-linecap="round" stroke-linejoin="round"><text vector-effect="non-scaling-stroke" x="64" y="10" dominant-baseline="hanging" stroke="none">1</text><text stroke="none" vector-effect="non-scaling-stroke" x="8.533333e+01" y="10" dominant-baseline="hanging">2</text><text stroke="none" vector-effect="non-scaling-stroke" x="1.066667e+02" y="10" dominant-baseline="hanging">3</text><text x="128" y="10" dominant-baseline="hanging" stroke="none" vector-effect="non-scaling-stroke">4</text><text stroke="none" vector-effect="non-scaling-stroke" x="1.493333e+02" y="10" dominant-baseline="hanging">5</text><text stroke="none" vector-effect="non-scaling-stroke" x="1.706667e+02" y="10" dominant-baseline="hanging">6</text><text y="10" dominant-baseline="hanging" stroke="none" vector-effect="non-scaling-stroke" x="192">7</text><text vector-effect="non-scaling-stroke" x="2.133333e+02" y="10" dominant-baseline="hanging" stroke="none">8</text><text stroke="none" vector-effect="non-scaling-stroke" x="2.346667e+02" y="10" dominant-baseline="hanging">9</text><text vector-effect="non-scaling-stroke" x="256" y="10" dominant-baseline="hanging" stroke="none">10</text><text dominant-baseline="hanging" stroke="none" vector-effect="non-scaling-stroke" x="2.773333e+02" y="10">11</text><text vector-effect="non-scaling-stroke" x="2.986667e+02" y="10" dominant-baseline="hanging" stroke="none">12</text><text stroke="none" vector-effect="non-scaling-stroke" x="320" y="10" dominant-baseline="hanging">13</text><text x="3.413333e+02" y="10" dominant-baseline="hanging" stroke="none" vector-effect="non-scaling-stroke">14</text><text stroke="none" vector-effect="non-scaling-stroke" x="3.626667e+02" y="10" dominant-baseline="hanging">15</text><text x="384" y="10" dominant-baseline="hanging" stroke="none" vector-effect="non-scaling-stroke">16</text><text stroke="none" vector-effect="non-scaling-stroke" x="4.053333e+02" y="10" dominant-baseline="hanging">17</text><text vector-effect="non-scaling-stroke" x="4.266667e+02" y="10" dominant-baseline="hanging" stroke="none">18</text><text y="10" dominant-baseline="hanging" stroke="none" vector-effect="non-scaling-stroke" x="448">19</text><text x="4.693333e+02" y="10" dominant-baseline="hanging" stroke="none" vector-effect="non-scaling-stroke">20</text><text y="10" dominant-baseline="hanging" stroke="none" vector-effect="non-scaling-stroke" x="4.906667e+02">21</text><text stroke="none" vector-effect="non-scaling-stroke" x="512" y="10" dominant-baseline="hanging">22</text><text dominant-baseline="hanging" stroke="none" vector-effect="non-scaling-stroke" x="5.333333e+02" y="10">23</text><text y="10" dominant-baseline="hanging" stroke="none" vector-effect="non-scaling-stroke" x="5.546667e+02">24</text><text vector-effect="non-scaling-stroke" x="576" y="10" dominant-baseline="hanging" stroke="none">25</text></g><g text-anchor="middle" stroke="black" stroke-linejoin="round" transform="translate(80 520 )scale(1 1 )rotate(0 0 0 )" fill="black" stroke-width="2px" dominant-baseline="baseline" stroke-linecap="round" font-family="sans-serif" font-size="12px" font-style="normal" font-weight="bold"><text x="320" y="-6" dominant-baseline="baseline" stroke="none" vector-effect="non-scaling-stroke">Day</text></g><g stroke-linecap="round" font-style="normal" stroke-linejoin="round" font-family="sans-serif" font-size="12px" transform="translate(80 520 )scale(1 -1 )" fill="black" stroke-width="2px" font-weight="bold" text-anchor="middle" dominant-baseline="baseline" stroke="black"><path vector-effect="non-scaling-stroke" d="M0,44 L-6,44 M0,7.920000e+01 L-6,7.920000e+01 M0,1.144000e+02 L-6,1.144000e+02 M0,1.496000e+02 L-6,1.496000e+02 M0,1.848000e+02 L-6,1.848000e+02 M0,220 L-6,220 M0,2.552000e+02 L-6,2.552000e+02 M0,2.904000e+02 L-6,2.904000e+02 M0,3.256000e+02 L-6,3.256000e+02 M0,3.608000e+02 L-6,3.608000e+02 M0,396 L-6,396 "/></g><g font-style="normal" text-anchor="end" stroke-linecap="round" stroke-linejoin="round" font-family="sans-serif" transform="translate(80 520 )scale(1 1 )" font-weight="normal" dominant-baseline="middle" stroke="black" font-size="12px" fill="black" stroke-width="2px"><text stroke="none" vector-effect="non-scaling-stroke" x="-10" y="-44" dominant-baseline="middle">0s</text><text stroke="none" vector-effect="non-scaling-stroke" x="-10" y="-7.920000e+01" dominant-baseline="middle">200ms</text><text x="-10" y="-1.144000e+02" dominant-baseline="middle" stroke="none" vector-effect="non-scaling-stroke">400ms</text><text y="-1.496000e+02" dominant-baseline="middle" stroke="none" vector-effect="non-scaling-stroke" x="-10">600ms</text><text y="-1.848000e+02" dominant-baseline="middle" stroke="none" vector-effect="non-scaling-stroke" x="-10">800ms</text><text vector-effect="non-scaling-stroke" x="-10" y="-220" dominant-baseline="middle" stroke="none">1s</text><text y="-2.552000e+02" dominant-baseline="middle" stroke="none" vector-effect="non-scaling-stroke" x="-10">1.2s</text><text vector-effect="non-scaling-stroke" x="-10" y="-2.904000e+02" dominant-baseline="middle" stroke="none">1.4s</text><text y="-3.256000e+02" dominant-baseline="middle" stroke="none" vector-effect="non-scaling-stroke" x="-10">1.6s</text><text dominant-baseline="middle" stroke="none" vector-effect="non-scaling-stroke" x="-10" y="-3.608000e+02">1.8s</text><text y="-396" dominant-baseline="middle" stroke="none" vector-effect="non-scaling-stroke" x="-10">2s</text></g><g transform="translate(80 520 )scale(1 1 )rotate(-90 0 0 )" font-weight="bold" dominant-baseline="hanging" stroke="black" stroke-linecap="round" font-size="12px" fill="black" stroke-width="2px" font-style="normal" text-anchor="middle" stroke-linejoin="round" font-family="sans-serif"><text vector-effect="non-scaling-stroke" x="220" y="6" dominant-baseline="hanging" stroke="none">Runtime</text></g></g></g></g></g></svg>