<svg width="800" height="600" viewbox="0 0 800 600" preserveAspectRatio="xMidYMid meet" xmlns="http://www.w3.org/2000/svg"><defs><marker refY="5" markerUnits="userSpaceOnUse" markerWidth="2%" markerHeight="2%" id="circle" viewBox="0 0 10 10 " refX="5"><circle cy="5" r="3" fill="none" stroke="black" cx="5"/></marker><marker viewBox="0 0 10 10 " refX="5" refY="5" markerUnits="userSpaceOnUse" markerWidth="2%" markerHeight="2%" id="filled-circle"><circle r="3" fill="black" stroke="none" cx="5" cy="5"/></marker><marker refX="5" refY="5" markerUnits="userSpaceOnUse" markerWidth="2%" markerHeight="2%" id="square" viewBox="0 0 10 10 "><rect y="2" width="6" height="6" fill="none" stroke="black" x="2"/></marker><marker viewBox="0 0 10 10 " refX="5" refY="5" markerUnits="userSpaceOnUse" markerWidth="2%" markerHeight="2%" id="filled-square"><rect fill="black" stroke="none" x="2" y="2" width="6" height="6"/></marker></defs><g fill="hsl(198, 47%, 65%)" stroke="hsl(198, 47%, 65%)" stroke-width="1px" stroke-linecap="round" stroke-linejoin="round" transform="translate(80 520 )scale(1 -1 )"><rect x="3.733333e+01" y="0" width="2.666667e+01" height="5.286771e+01" vector-effect="non-scaling-stroke"/><rect width="2.666667e+01" height="4.638089e+01" vector-effect="non-scaling-stroke" x="5.866667e+01" y="0"/><rect vector-effect="non-scaling-stroke" x="80" y="0" width="2.666667e+01" height="7.026067e+01"/><rect vector-effect="non-scaling-stroke" x="1.013333e+02" y="0" width="2.666667e+01" height="5.467111e+01"/><rect vector-effect="non-scaling-stroke" x="1.226667e+02" y="0" width="2.666667e+01" height="5.061863e+01"/><rect x="144" y="0" width="2.666667e+01" height="6.122304e+01" vector-effect="non-scaling-stroke"/><rect x="1.653333e+02" y="0" width="2.666667e+01" height="5.695037e+01" vector-effect="non-scaling-stroke"/><rect x="1.866667e+02" y="0" width="2.666667e+01" height="396" vector-effect="non-scaling-stroke"/></g><g transform="translate(80 520 )scale(1 -1 )" fill="hsl(49, 88%, 65%)" stroke="hsl(49, 88%, 65%)" stroke-width="1px" stroke-linecap="round" stroke-linejoin="round"><rect vector-effect="non-scaling-stroke" x="6.400000e+01" y="0" width="2.666667e+01" height="4.793338e+01"/><rect y="0" width="2.666667e+01" height="4.457696e+01" vector-effect="non-scaling-stroke" x="8.533333e+01"/><rect y="0" width="2.666667e+01" height="6.390353e+01" vector-effect="non-scaling-stroke" x="1.066667e+02"/><rect y="0" width="2.666667e+01" height="5.078907e+01" vector-effect="non-scaling-stroke" x="128"/><rect height="4.816205e+01" vector-effect="non-scaling-stroke" x="1.493333e+02" y="0" width="2.666667e+01"/><rect width="2.666667e+01" height="5.348543e+01" vector-effect="non-scaling-stroke" x="1.706667e+02" y="0"/><rect width="2.666667e+01" height="5.406874e+01" vector-effect="non-scaling-stroke" x="192" y="0"/><rect vector-effect="non-scaling-stroke" x="2.133333e+02" y="0" width="2.666667e+01" height="3.867835e+02"/></g><g dominant-baseline="hanging" font-size="12px" font-style="normal" stroke-width="1px" stroke-linejoin="round" font-family="sans-serif" stroke-linecap="round" font-weight="normal" text-anchor="start" fill="hsl(198, 47%, 65%)" stroke="hsl(198, 47%, 65%)"><rect width="12" height="12" vector-effect="non-scaling-stroke" x="736" y="484"/><g stroke="black" fill="black"><text stroke="none" vector-effect="non-scaling-stroke" x="752" y="484" dominant-baseline="hanging">Golang</text></g><g stroke="hsl(49, 88%, 65%)" stroke-linecap="round" font-style="normal" fill="hsl(49, 88%, 65%)" font-family="sans-serif" stroke-linejoin="round" font-size="12px" dominant-baseline="hanging" font-weight="normal" text-anchor="start" stroke-width="1px"><rect width="12" height="12" vector-effect="non-scaling-stroke" x="736" y="502"/><g stroke="black" fill="black"><text vector-effect="non-scaling-stroke" x="752" y="502" dominant-baseline="hanging" stroke="none">Rust</text><g font-family="sans-serif" font-style="normal" font-weight="normal" dominant-baseline="hanging" font-size="12px" text-anchor="start" fill="none" stroke-width="2px" stroke-linejoin="round" stroke-linecap="round"><rect width="640" height="440" vector-effect="non-scaling-stroke" x="80" y="80"/></g><g stroke="black" font-weight="normal" text-anchor="start" stroke-width="2px" font-size="12px" transform="translate(80 520 )scale(1 -1 )" stroke-linecap="round" dominant-baseline="hanging" font-style="normal" fill="none" stroke-linejoin="round" font-family="sans-serif"><path vector-effect="non-scaling-stroke" d="M64,0 L64,-6 M8.533333e+01,0 L8.533333e+01,-6 M1.066667e+02,0 L1.066667e+02,-6 M128,0 L128,-6 M1.493333e+02,0 L1.493333e+02,-6 M1.706667e+02,0 L1.706667e+02,-6 M192,0 L192,-6 M2.133333e+02,0 L2.133333e+02,-6 "/></g><g stroke="black" stroke-width="2px" font-size="12px" font-style="normal" font-weight="normal" text-anchor="middle" stroke-linecap="round" dominant-baseline="hanging" stroke-linejoin="round" font-family="sans-serif" fill="black" transform="translate(80 520 )scale(1 1 )"><text dominant-baseline="hanging" stroke="none" vector-effect="non-scaling-stroke" x="64" y="10">1</text><text vector-effect="non-scaling-stroke" x="8.533333e+01" y="10" dominant-baseline="hanging" stroke="none">2</text><text y="10" dominant-baseline="hanging" stroke="none" vector-effect="non-scaling-stroke" x="1.066667e+02">3</text><text stroke="none" vector-effect="non-scaling-stroke" x="128" y="10" dominant-baseline="hanging">4</text><text stroke="none" vector-effect="non-scaling-stroke" x="1.493333e+02" y="10" dominant-baseline="hanging">5</text><text dominant-baseline="hanging" stroke="none" vector-effect="non-scaling-stroke" x="1.706667e+02" y="10">6</text><text x="192" y="10" dominant-baseline="hanging" stroke="none" vector-effect="non-scaling-stroke">7</text><text x="2.133333e+02" y="10" dominant-baseline="hanging" stroke="none" vector-effect="non-scaling-stroke">8</text></g><g font-weight="bold" fill="black" dominant-baseline="baseline" stroke="black" stroke-linejoin="round" font-size="12px" font-style="normal" transform="translate(80 520 )scale(1 1 )rotate(0 0 0 )" stroke-linecap="round" font-family="sans-serif" text-anchor="middle" stroke-width="2px"><text x="320" y="-6" dominant-baseline="baseline" stroke="none" vector-effect="non-scaling-stroke">Day</text></g><g font-weight="bold" text-anchor="middle" font-size="12px" font-style="normal" transform="translate(80 520 )scale(1 -1 )" font-family="sans-serif" stroke="black" stroke-linecap="round" dominant-baseline="baseline" fill="black" stroke-width="2px" stroke-linejoin="round"><path vector-effect="non-scaling-stroke" d="M0,44 L-6,44 M0,9.693209e+01 L-6,9.693209e+01 M0,1.498642e+02 L-6,1.498642e+02 M0,2.027963e+02 L-6,2.027963e+02 M0,2.557284e+02 L-6,2.557284e+02 M0,3.086605e+02 L-6,3.086605e+02 M0,3.615926e+02 L-6,3.615926e+02 "/></g><g font-style="normal" font-weight="normal" fill="black" stroke-width="2px" stroke-linejoin="round" transform="translate(80 520 )scale(1 1 )" stroke-linecap="round" font-family="sans-serif" font-size="12px" text-anchor="end" stroke="black" dominant-baseline="middle"><text vector-effect="non-scaling-stroke" x="-10" y="-44" dominant-baseline="middle" stroke="none">0s</text><text vector-effect="non-scaling-stroke" x="-10" y="-9.693209e+01" dominant-baseline="middle" stroke="none">100µs</text><text stroke="none" vector-effect="non-scaling-stroke" x="-10" y="-1.498642e+02" dominant-baseline="middle">200µs</text><text stroke="none" vector-effect="non-scaling-stroke" x="-10" y="-2.027963e+02" dominant-baseline="middle">300µs</text><text vector-effect="non-scaling-stroke" x="-10" y="-2.557284e+02" dominant-baseline="middle" stroke="none">400µs</text><text stroke="none" vector-effect="non-scaling-stroke" x="-10" y="-3.086605e+02" dominant-baseline="middle">500µs</text><text vector-effect="non-scaling-stroke" x="-10" y="-3.615926e+02" dominant-baseline="middle" stroke="none">600µs</text></g><g stroke-linecap="round" font-size="12px" font-weight="bold" text-anchor="middle" transform="translate(80 520 )scale(1 1 )rotate(-90 0 0 )" dominant-baseline="hanging" stroke="black" stroke-linejoin="round" font-family="sans-serif" font-style="normal" fill="black" stroke-width="2px"><text stroke="none" vector-effect="non-scaling-stroke" x="220" y="6" dominant-baseline="hanging">Runtime</text></g></g></g></g></svg>