<svg viewbox="0 0 800 600" preserveAspectRatio="xMidYMid meet" xmlns="http://www.w3.org/2000/svg" width="800" height="600"><defs><marker id="circle" viewBox="0 0 10 10 " refX="5" refY="5" markerUnits="userSpaceOnUse" markerWidth="2%" markerHeight="2%"><circle r="3" fill="none" stroke="black" cx="5" cy="5"/></marker><marker markerUnits="userSpaceOnUse" markerWidth="2%" markerHeight="2%" id="filled-circle" viewBox="0 0 10 10 " refX="5" refY="5"><circle r="3" fill="black" stroke="none" cx="5" cy="5"/></marker><marker markerHeight="2%" id="square" viewBox="0 0 10 10 " refX="5" refY="5" markerUnits="userSpaceOnUse" markerWidth="2%"><rect x="2" y="2" width="6" height="6" fill="none" stroke="black"/></marker><marker refY="5" markerUnits="userSpaceOnUse" markerWidth="2%" markerHeight="2%" id="filled-square" viewBox="0 0 10 10 " refX="5"><rect fill="black" stroke="none" x="2" y="2" width="6" height="6"/></marker></defs><g stroke-linejoin="round" transform="translate(80 520 )scale(1 -1 )" fill="hsl(198, 47%, 65%)" stroke="hsl(198, 47%, 65%)" stroke-width="1px" stroke-linecap="round"><rect x="5.546667e+01" y="0" width="8.533333e+00" height="4.401614e+01" vector-effect="non-scaling-stroke"/><rect x="7.680000e+01" y="0" width="8.533333e+00" height="4.400415e+01" vector-effect="non-scaling-stroke"/><rect y="0" width="8.533333e+00" height="4.404729e+01" vector-effect="non-scaling-stroke" x="9.813333e+01"/><rect vector-effect="non-scaling-stroke" x="1.194667e+02" y="0" width="8.533333e+00" height="4.401773e+01"/><rect y="0" width="8.533333e+00" height="4.401199e+01" vector-effect="non-scaling-stroke" x="1.408000e+02"/><rect width="8.533333e+00" height="4.400654e+01" vector-effect="non-scaling-stroke" x="1.621333e+02" y="0"/><rect width="8.533333e+00" height="4.402772e+01" vector-effect="non-scaling-stroke" x="1.834667e+02" y="0"/><rect height="4.463078e+01" vector-effect="non-scaling-stroke" x="2.048000e+02" y="0" width="8.533333e+00"/><rect x="2.261333e+02" y="0" width="8.533333e+00" height="4.436593e+01" vector-effect="non-scaling-stroke"/><rect x="2.474667e+02" y="0" width="8.533333e+00" height="4.400158e+01" vector-effect="non-scaling-stroke"/><rect vector-effect="non-scaling-stroke" x="2.688000e+02" y="0" width="8.533333e+00" height="5.712138e+01"/><rect vector-effect="non-scaling-stroke" x="2.901333e+02" y="0" width="8.533333e+00" height="4.453094e+01"/><rect height="4.451354e+01" vector-effect="non-scaling-stroke" x="3.114667e+02" y="0" width="8.533333e+00"/><rect vector-effect="non-scaling-stroke" x="3.328000e+02" y="0" width="8.533333e+00" height="4.994604e+01"/><rect width="8.533333e+00" height="4.400496e+01" vector-effect="non-scaling-stroke" x="3.541333e+02" y="0"/><rect x="3.754667e+02" y="0" width="8.533333e+00" height="3.084086e+02" vector-effect="non-scaling-stroke"/><rect vector-effect="non-scaling-stroke" x="3.968000e+02" y="0" width="8.533333e+00" height="4.445715e+01"/><rect height="4.417750e+01" vector-effect="non-scaling-stroke" x="4.181333e+02" y="0" width="8.533333e+00"/><rect vector-effect="non-scaling-stroke" x="4.394667e+02" y="0" width="8.533333e+00" height="2.065786e+02"/><rect vector-effect="non-scaling-stroke" x="4.608000e+02" y="0" width="8.533333e+00" height="8.635494e+01"/><rect x="4.821333e+02" y="0" width="8.533333e+00" height="4.437493e+01" vector-effect="non-scaling-stroke"/><rect width="8.533333e+00" height="4.483266e+01" vector-effect="non-scaling-stroke" x="5.034667e+02" y="0"/><rect width="8.533333e+00" height="1.367082e+02" vector-effect="non-scaling-stroke" x="5.248000e+02" y="0"/><rect vector-effect="non-scaling-stroke" x="5.461333e+02" y="0" width="8.533333e+00" height="1.618175e+02"/><rect width="8.533333e+00" height="4.400278e+01" vector-effect="non-scaling-stroke" x="5.674667e+02" y="0"/></g><g stroke-linejoin="round" transform="translate(80 520 )scale(1 -1 )" fill="hsl(49, 88%, 65%)" stroke="hsl(49, 88%, 65%)" stroke-width="1px" stroke-linecap="round"><rect x="64" y="0" width="8.533333e+00" height="4.400690e+01" vector-effect="non-scaling-stroke"/><rect x="8.533333e+01" y="0" width="8.533333e+00" height="4.400106e+01" vector-effect="non-scaling-stroke"/><rect x="1.066667e+02" y="0" width="8.533333e+00" height="4.403490e+01" vector-effect="non-scaling-stroke"/><rect vector-effect="non-scaling-stroke" x="128" y="0" width="8.533333e+00" height="4.401190e+01"/><rect width="8.533333e+00" height="4.400921e+01" vector-effect="non-scaling-stroke" x="1.493333e+02" y="0"/><rect height="4.401049e+01" vector-effect="non-scaling-stroke" x="1.706667e+02" y="0" width="8.533333e+00"/><rect width="8.533333e+00" height="4.402064e+01" vector-effect="non-scaling-stroke" x="192" y="0"/><rect height="4.460105e+01" vector-effect="non-scaling-stroke" x="2.133333e+02" y="0" width="8.533333e+00"/><rect width="8.533333e+00" height="4.435897e+01" vector-effect="non-scaling-stroke" x="2.346667e+02" y="0"/><rect x="2.560000e+02" y="0" width="8.533333e+00" height="4.400111e+01" vector-effect="non-scaling-stroke"/><rect vector-effect="non-scaling-stroke" x="2.773333e+02" y="0" width="8.533333e+00" height="4.888612e+01"/><rect width="8.533333e+00" height="4.429340e+01" vector-effect="non-scaling-stroke" x="2.986667e+02" y="0"/><rect x="320" y="0" width="8.533333e+00" height="4.442116e+01" vector-effect="non-scaling-stroke"/><rect y="0" width="8.533333e+00" height="5.008777e+01" vector-effect="non-scaling-stroke" x="3.413333e+02"/><rect x="3.626667e+02" y="0" width="8.533333e+00" height="4.400217e+01" vector-effect="non-scaling-stroke"/><rect vector-effect="non-scaling-stroke" x="384" y="0" width="8.533333e+00" height="396"/><rect vector-effect="non-scaling-stroke" x="4.053333e+02" y="0" width="8.533333e+00" height="4.434586e+01"/><rect height="4.420608e+01" vector-effect="non-scaling-stroke" x="4.266667e+02" y="0" width="8.533333e+00"/><rect height="1.035770e+02" vector-effect="non-scaling-stroke" x="448" y="0" width="8.533333e+00"/><rect height="7.929570e+01" vector-effect="non-scaling-stroke" x="4.693333e+02" y="0" width="8.533333e+00"/><rect height="4.441237e+01" vector-effect="non-scaling-stroke" x="4.906667e+02" y="0" width="8.533333e+00"/><rect width="8.533333e+00" height="4.460522e+01" vector-effect="non-scaling-stroke" x="512" y="0"/><rect vector-effect="non-scaling-stroke" x="5.333333e+02" y="0" width="8.533333e+00" height="1.253448e+02"/><rect height="1.978465e+02" vector-effect="non-scaling-stroke" x="5.546667e+02" y="0" width="8.533333e+00"/><rect y="0" width="8.533333e+00" height="4.400639e+01" vector-effect="non-scaling-stroke" x="576"/></g><g text-anchor="start" stroke-width="1px" stroke-linejoin="round" font-family="sans-serif" font-size="12px" fill="hsl(198, 47%, 65%)" font-weight="normal" font-style="normal" dominant-baseline="hanging" stroke="hsl(198, 47%, 65%)" stroke-linecap="round"><rect x="736" y="484" width="12" height="12" vector-effect="non-scaling-stroke"/><g fill="black" stroke="black"><text vector-effect="non-scaling-stroke" x="752" y="484" dominant-baseline="hanging" stroke="none">Golang</text></g><g stroke-width="1px" stroke-linecap="round" font-family="sans-serif" stroke="hsl(49, 88%, 65%)" font-size="12px" text-anchor="start" fill="hsl(49, 88%, 65%)" stroke-linejoin="round" font-style="normal" dominant-baseline="hanging" font-weight="normal"><rect height="12" vector-effect="non-scaling-stroke" x="736" y="502" width="12"/><g fill="black" stroke="black"><text x="752" y="502" dominant-baseline="hanging" stroke="none" vector-effect="non-scaling-stroke">Rust</text><g stroke-width="2px" stroke-linecap="round" stroke-linejoin="round" text-anchor="start" font-family="sans-serif" font-size="12px" font-style="normal" dominant-baseline="hanging" fill="none" font-weight="normal"><rect vector-effect="non-scaling-stroke" x="80" y="80" width="640" height="440"/></g><g dominant-baseline="hanging" transform="translate(80 520 )scale(1 -1 )" stroke="black" stroke-linecap="round" font-family="sans-serif" fill="none" text-anchor="start" font-style="normal" stroke-width="2px" stroke-linejoin="round" font-size="12px" font-weight="normal"><path d="M64,0 L64,-6 M8.533333e+01,0 L8.533333e+01,-6 M1.066667e+02,0 L1.066667e+02,-6 M128,0 L128,-6 M1.493333e+02,0 L1.493333e+02,-6 M1.706667e+02,0 L1.706667e+02,-6 M192,0 L192,-6 M2.133333e+02,0 L2.133333e+02,-6 M2.346667e+02,0 L2.346667e+02,-6 M256,0 L256,-6 M2.773333e+02,0 L2.773333e+02,-6 M2.986667e+02,0 L2.986667e+02,-6 M320,0 L320,-6 M3.413333e+02,0 L3.413333e+02,-6 M3.626667e+02,0 L3.626667e+02,-6 M384,0 L384,-6 M4.053333e+02,0 L4.053333e+02,-6 M4.266667e+02,0 L4.266667e+02,-6 M448,0 L448,-6 M4.693333e+02,0 L4.693333e+02,-6 M4.906667e+02,0 L4.906667e+02,-6 M512,0 L512,-6 M5.333333e+02,0 L5.333333e+02,-6 M5.546667e+02,0 L5.546667e+02,-6 M576,0 L576,-6 " vector-effect="non-scaling-stroke"/></g><g text-anchor="middle" stroke="black" stroke-width="2px" stroke-linecap="round" stroke-linejoin="round" dominant-baseline="hanging" font-size="12px" font-weight="normal" font-family="sans-serif" font-style="normal" fill="black" transform="translate(80 520 )scale(1 1 )"><text x="64" y="10" dominant-baseline="hanging" stroke="none" vector-effect="non-scaling-stroke">1</text><text vector-effect="non-scaling-stroke" x="8.533333e+01" y="10" dominant-baseline="hanging" stroke="none">2</text><text dominant-baseline="hanging" stroke="none" vector-effect="non-scaling-stroke" x="1.066667e+02" y="10">3</text><text dominant-baseline="hanging" stroke="none" vector-effect="non-scaling-stroke" x="128" y="10">4</text><text dominant-baseline="hanging" stroke="none" vector-effect="non-scaling-stroke" x="1.493333e+02" y="10">5</text><text stroke="none" vector-effect="non-scaling-stroke" x="1.706667e+02" y="10" dominant-baseline="hanging">6</text><text y="10" dominant-baseline="hanging" stroke="none" vector-effect="non-scaling-stroke" x="192">7</text><text y="10" dominant-baseline="hanging" stroke="none" vector-effect="non-scaling-stroke" x="2.133333e+02">8</text><text y="10" dominant-baseline="hanging" stroke="none" vector-effect="non-scaling-stroke" x="2.346667e+02">9</text><text y="10" dominant-baseline="hanging" stroke="none" vector-effect="non-scaling-stroke" x="256">10</text><text vector-effect="non-scaling-stroke" x="2.773333e+02" y="10" dominant-baseline="hanging" stroke="none">11</text><text dominant-baseline="hanging" stroke="none" vector-effect="non-scaling-stroke" x="2.986667e+02" y="10">12</text><text stroke="none" vector-effect="non-scaling-stroke" x="320" y="10" dominant-baseline="hanging">13</text><text stroke="none" vector-effect="non-scaling-stroke" x="3.413333e+02" y="10" dominant-baseline="hanging">14</text><text dominant-baseline="hanging" stroke="none" vector-effect="non-scaling-stroke" x="3.626667e+02" y="10">15</text><text stroke="none" vector-effect="non-scaling-stroke" x="384" y="10" dominant-baseline="hanging">16</text><text vector-effect="non-scaling-stroke" x="4.053333e+02" y="10" dominant-baseline="hanging" stroke="none">17</text><text dominant-baseline="hanging" stroke="none" vector-effect="non-scaling-stroke" x="4.266667e+02" y="10">18</text><text stroke="none" vector-effect="non-scaling-stroke" x="448" y="10" dominant-baseline="hanging">19</text><text dominant-baseline="hanging" stroke="none" vector-effect="non-scaling-stroke" x="4.693333e+02" y="10">20</text><text stroke="none" vector-effect="non-scaling-stroke" x="4.906667e+02" y="10" dominant-baseline="hanging">21</text><text stroke="none" vector-effect="non-scaling-stroke" x="512" y="10" dominant-baseline="hanging">22</text><text vector-effect="non-scaling-stroke" x="5.333333e+02" y="10" dominant-baseline="hanging" stroke="none">23</text><text vector-effect="non-scaling-stroke" x="5.546667e+02" y="10" dominant-baseline="hanging" stroke="none">24</text><text vector-effect="non-scaling-stroke" x="576" y="10" dominant-baseline="hanging" stroke="none">25</text></g><g stroke-width="2px" stroke-linecap="round" text-anchor="middle" stroke-linejoin="round" font-family="sans-serif" font-style="normal" transform="translate(80 520 )scale(1 1 )rotate(0 0 0 )" stroke="black" fill="black" font-size="12px" font-weight="bold" dominant-baseline="baseline"><text y="-6" dominant-baseline="baseline" stroke="none" vector-effect="non-scaling-stroke" x="320">Day</text></g><g transform="translate(80 520 )scale(1 -1 )" stroke="black" stroke-width="2px" stroke-linejoin="round" fill="black" text-anchor="middle" stroke-linecap="round" font-family="sans-serif" font-style="normal" dominant-baseline="baseline" font-size="12px" font-weight="bold"><path vector-effect="non-scaling-stroke" d="M0,44 L-6,44 M0,1.368127e+02 L-6,1.368127e+02 M0,2.296253e+02 L-6,2.296253e+02 M0,3.224380e+02 L-6,3.224380e+02 "/></g><g stroke-width="2px" stroke-linecap="round" stroke-linejoin="round" fill="black" font-size="12px" font-family="sans-serif" font-style="normal" stroke="black" text-anchor="end" dominant-baseline="middle" transform="translate(80 520 )scale(1 1 )" font-weight="normal"><text dominant-baseline="middle" stroke="none" vector-effect="non-scaling-stroke" x="-10" y="-44">0s</text><text y="-1.368127e+02" dominant-baseline="middle" stroke="none" vector-effect="non-scaling-stroke" x="-10">100ms</text><text y="-2.296253e+02" dominant-baseline="middle" stroke="none" vector-effect="non-scaling-stroke" x="-10">200ms</text><text stroke="none" vector-effect="non-scaling-stroke" x="-10" y="-3.224380e+02" dominant-baseline="middle">300ms</text></g><g font-weight="bold" font-family="sans-serif" font-style="normal" stroke="black" stroke-width="2px" stroke-linejoin="round" fill="black" dominant-baseline="hanging" transform="translate(80 520 )scale(1 1 )rotate(-90 0 0 )" stroke-linecap="round" font-size="12px" text-anchor="middle"><text stroke="none" vector-effect="non-scaling-stroke" x="220" y="6" dominant-baseline="hanging">Runtime</text></g></g></g></g></svg>