<svg width="800" height="600" viewbox="0 0 800 600" preserveAspectRatio="xMidYMid meet" xmlns="http://www.w3.org/2000/svg"><defs><marker id="circle" viewBox="0 0 10 10 " refX="5" refY="5" markerUnits="userSpaceOnUse" markerWidth="2%" markerHeight="2%"><circle r="3" fill="none" stroke="black" cx="5" cy="5"/></marker><marker markerWidth="2%" markerHeight="2%" id="filled-circle" viewBox="0 0 10 10 " refX="5" refY="5" markerUnits="userSpaceOnUse"><circle cy="5" r="3" fill="black" stroke="none" cx="5"/></marker><marker id="square" viewBox="0 0 10 10 " refX="5" refY="5" markerUnits="userSpaceOnUse" markerWidth="2%" markerHeight="2%"><rect x="2" y="2" width="6" height="6" fill="none" stroke="black"/></marker><marker refX="5" refY="5" markerUnits="userSpaceOnUse" markerWidth="2%" markerHeight="2%" id="filled-square" viewBox="0 0 10 10 "><rect height="6" fill="black" stroke="none" x="2" y="2" width="6"/></marker></defs><g stroke-linejoin="round" transform="translate(80 520 )scale(1 -1 )" fill="hsl(198, 47%, 65%)" stroke="hsl(198, 47%, 65%)" stroke-width="1px" stroke-linecap="round"><rect vector-effect="non-scaling-stroke" x="5.333333e+01" y="0" width="1.066667e+01" height="4.400289e+01"/><rect y="0" width="1.066667e+01" height="4.400080e+01" vector-effect="non-scaling-stroke" x="7.466667e+01"/><rect y="0" width="1.066667e+01" height="4.400876e+01" vector-effect="non-scaling-stroke" x="96"/><rect vector-effect="non-scaling-stroke" x="1.173333e+02" y="0" width="1.066667e+01" height="4.400378e+01"/><rect height="4.400216e+01" vector-effect="non-scaling-stroke" x="1.386667e+02" y="0" width="1.066667e+01"/><rect width="1.066667e+01" height="4.400563e+01" vector-effect="non-scaling-stroke" x="160" y="0"/><rect x="1.813333e+02" y="0" width="1.066667e+01" height="4.400438e+01" vector-effect="non-scaling-stroke"/><rect y="0" width="1.066667e+01" height="4.411749e+01" vector-effect="non-scaling-stroke" x="2.026667e+02"/><rect vector-effect="non-scaling-stroke" x="2.240000e+02" y="0" width="1.066667e+01" height="4.407042e+01"/><rect y="0" width="1.066667e+01" height="4.400028e+01" vector-effect="non-scaling-stroke" x="2.453333e+02"/><rect y="0" width="1.066667e+01" height="4.648182e+01" vector-effect="non-scaling-stroke" x="2.666667e+02"/><rect y="0" width="1.066667e+01" height="4.408909e+01" vector-effect="non-scaling-stroke" x="288"/><rect x="3.093333e+02" y="0" width="1.066667e+01" height="4.414194e+01" vector-effect="non-scaling-stroke"/><rect vector-effect="non-scaling-stroke" x="3.306667e+02" y="0" width="1.066667e+01" height="4.504811e+01"/><rect vector-effect="non-scaling-stroke" x="3.520000e+02" y="0" width="1.066667e+01" height="4.400089e+01"/><rect vector-effect="non-scaling-stroke" x="3.733333e+02" y="0" width="1.066667e+01" height="8.201469e+02"/><rect x="3.946667e+02" y="0" width="1.066667e+01" height="4.408508e+01" vector-effect="non-scaling-stroke"/><rect vector-effect="non-scaling-stroke" x="4.160000e+02" y="0" width="1.066667e+01" height="4.403330e+01"/><rect vector-effect="non-scaling-stroke" x="4.373333e+02" y="0" width="1.066667e+01" height="1.041927e+02"/><rect vector-effect="non-scaling-stroke" x="4.586667e+02" y="0" width="1.066667e+01" height="1.074011e+02"/></g><g transform="translate(80 520 )scale(1 -1 )" fill="hsl(49, 88%, 65%)" stroke="hsl(49, 88%, 65%)" stroke-width="1px" stroke-linecap="round" stroke-linejoin="round"><rect width="1.066667e+01" height="4.400131e+01" vector-effect="non-scaling-stroke" x="6.400000e+01" y="0"/><rect x="8.533333e+01" y="0" width="1.066667e+01" height="4.400019e+01" vector-effect="non-scaling-stroke"/><rect vector-effect="non-scaling-stroke" x="1.066667e+02" y="0" width="1.066667e+01" height="4.400662e+01"/><rect vector-effect="non-scaling-stroke" x="128" y="0" width="1.066667e+01" height="4.400226e+01"/><rect vector-effect="non-scaling-stroke" x="1.493333e+02" y="0" width="1.066667e+01" height="4.400175e+01"/><rect vector-effect="non-scaling-stroke" x="1.706667e+02" y="0" width="1.066667e+01" height="4.400335e+01"/><rect vector-effect="non-scaling-stroke" x="192" y="0" width="1.066667e+01" height="4.400391e+01"/><rect width="1.066667e+01" height="4.411398e+01" vector-effect="non-scaling-stroke" x="2.133333e+02" y="0"/><rect vector-effect="non-scaling-stroke" x="2.346667e+02" y="0" width="1.066667e+01" height="4.406807e+01"/><rect width="1.066667e+01" height="4.400021e+01" vector-effect="non-scaling-stroke" x="2.560000e+02" y="0"/><rect width="1.066667e+01" height="4.492655e+01" vector-effect="non-scaling-stroke" x="2.773333e+02" y="0"/><rect vector-effect="non-scaling-stroke" x="2.986667e+02" y="0" width="1.066667e+01" height="4.405564e+01"/><rect width="1.066667e+01" height="4.412034e+01" vector-effect="non-scaling-stroke" x="320" y="0"/><rect y="0" width="1.066667e+01" height="4.515442e+01" vector-effect="non-scaling-stroke" x="3.413333e+02"/><rect x="3.626667e+02" y="0" width="1.066667e+01" height="4.400038e+01" vector-effect="non-scaling-stroke"/><rect width="1.066667e+01" height="4.405816e+01" vector-effect="non-scaling-stroke" x="4.053333e+02" y="0"/><rect y="0" width="1.066667e+01" height="4.403908e+01" vector-effect="non-scaling-stroke" x="4.266667e+02"/></g><g stroke-width="1px" stroke-linejoin="round" fill="hsl(198, 47%, 65%)" stroke="hsl(198, 47%, 65%)" font-weight="normal" text-anchor="start" font-size="12px" font-family="sans-serif" font-style="normal" dominant-baseline="hanging" stroke-linecap="round"><rect vector-effect="non-scaling-stroke" x="736" y="484" width="12" height="12"/><g stroke="black" fill="black"><text vector-effect="non-scaling-stroke" x="752" y="484" dominant-baseline="hanging" stroke="none">Golang</text></g><g stroke="hsl(49, 88%, 65%)" font-family="sans-serif" font-style="normal" fill="hsl(49, 88%, 65%)" font-size="12px" font-weight="normal" stroke-linecap="round" stroke-linejoin="round" text-anchor="start" dominant-baseline="hanging" stroke-width="1px"><rect x="736" y="502" width="12" height="12" vector-effect="non-scaling-stroke"/><g fill="black" stroke="black"><text y="502" dominant-baseline="hanging" stroke="none" vector-effect="non-scaling-stroke" x="752">Rust</text><g text-anchor="start" stroke-width="2px" fill="none" dominant-baseline="hanging" stroke-linecap="round" stroke-linejoin="round" font-size="12px" font-weight="normal" font-style="normal" font-family="sans-serif"><rect vector-effect="non-scaling-stroke" x="80" y="80" width="640" height="440"/></g><g font-weight="normal" dominant-baseline="hanging" font-style="normal" fill="none" stroke="black" font-size="12px" stroke-linecap="round" stroke-linejoin="round" font-family="sans-serif" text-anchor="start" transform="translate(80 520 )scale(1 -1 )" stroke-width="2px"><path d="M64,0 L64,-6 M8.533333e+01,0 L8.533333e+01,-6 M1.066667e+02,0 L1.066667e+02,-6 M128,0 L128,-6 M1.493333e+02,0 L1.493333e+02,-6 M1.706667e+02,0 L1.706667e+02,-6 M192,0 L192,-6 M2.133333e+02,0 L2.133333e+02,-6 M2.346667e+02,0 L2.346667e+02,-6 M256,0 L256,-6 M2.773333e+02,0 L2.773333e+02,-6 M2.986667e+02,0 L2.986667e+02,-6 M320,0 L320,-6 M3.413333e+02,0 L3.413333e+02,-6 M3.626667e+02,0 L3.626667e+02,-6 M384,0 L384,-6 M4.053333e+02,0 L4.053333e+02,-6 M4.266667e+02,0 L4.266667e+02,-6 M448,0 L448,-6 M4.693333e+02,0 L4.693333e+02,-6 " vector-effect="non-scaling-stroke"/></g><g dominant-baseline="hanging" stroke-linejoin="round" stroke="black" text-anchor="middle" font-family="sans-serif" font-size="12px" font-weight="normal" transform="translate(80 520 )scale(1 1 )" stroke-width="2px" stroke-linecap="round" font-style="normal" fill="black"><text stroke="none" vector-effect="non-scaling-stroke" x="64" y="10" dominant-baseline="hanging">1</text><text y="10" dominant-baseline="hanging" stroke="none" vector-effect="non-scaling-stroke" x="8.533333e+01">2</text><text vector-effect="non-scaling-stroke" x="1.066667e+02" y="10" dominant-baseline="hanging" stroke="none">3</text><text vector-effect="non-scaling-stroke" x="128" y="10" dominant-baseline="hanging" stroke="none">4</text><text stroke="none" vector-effect="non-scaling-stroke" x="1.493333e+02" y="10" dominant-baseline="hanging">5</text><text y="10" dominant-baseline="hanging" stroke="none" vector-effect="non-scaling-stroke" x="1.706667e+02">6</text><text stroke="none" vector-effect="non-scaling-stroke" x="192" y="10" dominant-baseline="hanging">7</text><text x="2.133333e+02" y="10" dominant-baseline="hanging" stroke="none" vector-effect="non-scaling-stroke">8</text><text dominant-baseline="hanging" stroke="none" vector-effect="non-scaling-stroke" x="2.346667e+02" y="10">9</text><text stroke="none" vector-effect="non-scaling-stroke" x="256" y="10" dominant-baseline="hanging">10</text><text y="10" dominant-baseline="hanging" stroke="none" vector-effect="non-scaling-stroke" x="2.773333e+02">11</text><text y="10" dominant-baseline="hanging" stroke="none" vector-effect="non-scaling-stroke" x="2.986667e+02">12</text><text y="10" dominant-baseline="hanging" stroke="none" vector-effect="non-scaling-stroke" x="320">13</text><text vector-effect="non-scaling-stroke" x="3.413333e+02" y="10" dominant-baseline="hanging" stroke="none">14</text><text dominant-baseline="hanging" stroke="none" vector-effect="non-scaling-stroke" x="3.626667e+02" y="10">15</text><text x="384" y="10" dominant-baseline="hanging" stroke="none" vector-effect="non-scaling-stroke">16</text><text dominant-baseline="hanging" stroke="none" vector-effect="non-scaling-stroke" x="4.053333e+02" y="10">17</text><text dominant-baseline="hanging" stroke="none" vector-effect="non-scaling-stroke" x="4.266667e+02" y="10">18</text><text stroke="none" vector-effect="non-scaling-stroke" x="448" y="10" dominant-baseline="hanging">19</text><text dominant-baseline="hanging" stroke="none" vector-effect="non-scaling-stroke" x="4.693333e+02" y="10">20</text></g><g font-style="normal" stroke-linecap="round" stroke-linejoin="round" font-size="12px" dominant-baseline="baseline" fill="black" stroke="black" font-family="sans-serif" transform="translate(80 520 )scale(1 1 )rotate(0 0 0 )" stroke-width="2px" font-weight="bold" text-anchor="middle"><text x="320" y="-6" dominant-baseline="baseline" stroke="none" vector-effect="non-scaling-stroke">Day</text></g><g text-anchor="middle" dominant-baseline="baseline" fill="black" stroke="black" font-style="normal" stroke-width="2px" stroke-linecap="round" font-weight="bold" transform="translate(80 520 )scale(1 -1 )" font-family="sans-serif" stroke-linejoin="round" font-size="12px"><path vector-effect="non-scaling-stroke" d="M0,44 L-6,44 M0,7.920000e+01 L-6,7.920000e+01 M0,1.144000e+02 L-6,1.144000e+02 M0,1.496000e+02 L-6,1.496000e+02 M0,1.848000e+02 L-6,1.848000e+02 M0,220 L-6,220 M0,2.552000e+02 L-6,2.552000e+02 M0,2.904000e+02 L-6,2.904000e+02 M0,3.256000e+02 L-6,3.256000e+02 M0,3.608000e+02 L-6,3.608000e+02 M0,396 L-6,396 "/></g><g dominant-baseline="middle" transform="translate(80 520 )scale(1 1 )" fill="black" stroke="black" font-size="12px" font-weight="normal" text-anchor="end" stroke-width="2px" stroke-linecap="round" font-family="sans-serif" font-style="normal" stroke-linejoin="round"><text y="-44" dominant-baseline="middle" stroke="none" vector-effect="non-scaling-stroke" x="-10">0s</text><text dominant-baseline="middle" stroke="none" vector-effect="non-scaling-stroke" x="-10" y="-7.920000e+01">200ms</text><text x="-10" y="-1.144000e+02" dominant-baseline="middle" stroke="none" vector-effect="non-scaling-stroke">400ms</text><text stroke="none" vector-effect="non-scaling-stroke" x="-10" y="-1.496000e+02" dominant-baseline="middle">600ms</text><text x="-10" y="-1.848000e+02" dominant-baseline="middle" stroke="none" vector-effect="non-scaling-stroke">800ms</text><text y="-220" dominant-baseline="middle" stroke="none" vector-effect="non-scaling-stroke" x="-10">1s</text><text y="-2.552000e+02" dominant-baseline="middle" stroke="none" vector-effect="non-scaling-stroke" x="-10">1.2s</text><text dominant-baseline="middle" stroke="none" vector-effect="non-scaling-stroke" x="-10" y="-2.904000e+02">1.4s</text><text x="-10" y="-3.256000e+02" dominant-baseline="middle" stroke="none" vector-effect="non-scaling-stroke">1.6s</text><text dominant-baseline="middle" stroke="none" vector-effect="non-scaling-stroke" x="-10" y="-3.608000e+02">1.8s</text><text stroke="none" vector-effect="non-scaling-stroke" x="-10" y="-396" dominant-baseline="middle">2s</text></g><g font-weight="bold" text-anchor="middle" dominant-baseline="hanging" stroke-linejoin="round" font-family="sans-serif" font-size="12px" stroke-width="2px" stroke-linecap="round" font-style="normal" fill="black" stroke="black" transform="translate(80 520 )scale(1 1 )rotate(-90 0 0 )"><text x="220" y="6" dominant-baseline="hanging" stroke="none" vector-effect="non-scaling-stroke">Runtime</text></g></g></g></g></svg>