<svg width="800" height="600" viewbox="0 0 800 600" preserveAspectRatio="xMidYMid meet" xmlns="http://www.w3.org/2000/svg"><defs><marker markerUnits="userSpaceOnUse" markerWidth="2%" markerHeight="2%" id="circle" viewBox="0 0 10 10 " refX="5" refY="5"><circle cy="5" r="3" fill="none" stroke="black" cx="5"/></marker><marker markerUnits="userSpaceOnUse" markerWidth="2%" markerHeight="2%" id="filled-circle" viewBox="0 0 10 10 " refX="5" refY="5"><circle cx="5" cy="5" r="3" fill="black" stroke="none"/></marker><marker refY="5" markerUnits="userSpaceOnUse" markerWidth="2%" markerHeight="2%" id="square" viewBox="0 0 10 10 " refX="5"><rect x="2" y="2" width="6" height="6" fill="none" stroke="black"/></marker><marker id="filled-square" viewBox="0 0 10 10 " refX="5" refY="5" markerUnits="userSpaceOnUse" markerWidth="2%" markerHeight="2%"><rect width="6" height="6" fill="black" stroke="none" x="2" y="2"/></marker></defs><g stroke="hsl(198, 47%, 65%)" stroke-width="1px" stroke-linecap="round" stroke-linejoin="round" transform="translate(80 520 )scale(1 -1 )" fill="hsl(198, 47%, 65%)"><rect width="1.939394e+01" height="4.426328e+01" vector-effect="non-scaling-stroke" x="4.460606e+01" y="0"/><rect width="1.939394e+01" height="4.423326e+01" vector-effect="non-scaling-stroke" x="6.593939e+01" y="0"/><rect vector-effect="non-scaling-stroke" x="8.727273e+01" y="0" width="1.939394e+01" height="4.414482e+01"/><rect height="4.533401e+01" vector-effect="non-scaling-stroke" x="1.086061e+02" y="0" width="1.939394e+01"/><rect y="0" width="1.939394e+01" height="4.414970e+01" vector-effect="non-scaling-stroke" x="1.299394e+02"/><rect vector-effect="non-scaling-stroke" x="1.512727e+02" y="0" width="1.939394e+01" height="396"/><rect height="1.265206e+02" vector-effect="non-scaling-stroke" x="1.726061e+02" y="0" width="1.939394e+01"/><rect y="0" width="1.939394e+01" height="4.403414e+01" vector-effect="non-scaling-stroke" x="1.939394e+02"/><rect y="0" width="1.939394e+01" height="4.785299e+01" vector-effect="non-scaling-stroke" x="2.152727e+02"/><rect height="4.622438e+01" vector-effect="non-scaling-stroke" x="2.366061e+02" y="0" width="1.939394e+01"/><rect width="1.939394e+01" height="5.035092e+01" vector-effect="non-scaling-stroke" x="2.579394e+02" y="0"/></g><g stroke-linecap="round" stroke-linejoin="round" transform="translate(80 520 )scale(1 -1 )" fill="hsl(49, 88%, 65%)" stroke="hsl(49, 88%, 65%)" stroke-width="1px"><rect x="64" y="0" width="1.939394e+01" height="4.422948e+01" vector-effect="non-scaling-stroke"/><rect x="8.533333e+01" y="0" width="1.939394e+01" height="4.421116e+01" vector-effect="non-scaling-stroke"/><rect vector-effect="non-scaling-stroke" x="1.066667e+02" y="0" width="1.939394e+01" height="4.404346e+01"/><rect x="1.280000e+02" y="0" width="1.939394e+01" height="4.622662e+01" vector-effect="non-scaling-stroke"/><rect x="1.493333e+02" y="0" width="1.939394e+01" height="4.410670e+01" vector-effect="non-scaling-stroke"/><rect width="1.939394e+01" height="3.114004e+02" vector-effect="non-scaling-stroke" x="1.706667e+02" y="0"/><rect vector-effect="non-scaling-stroke" x="192" y="0" width="1.939394e+01" height="1.275011e+02"/><rect vector-effect="non-scaling-stroke" x="2.133333e+02" y="0" width="1.939394e+01" height="4.401625e+01"/><rect x="256" y="0" width="1.939394e+01" height="4.418291e+01" vector-effect="non-scaling-stroke"/><rect vector-effect="non-scaling-stroke" x="2.773333e+02" y="0" width="1.939394e+01" height="6.246056e+01"/></g><g stroke-linejoin="round" font-family="sans-serif" fill="hsl(198, 47%, 65%)" stroke="hsl(198, 47%, 65%)" stroke-width="1px" font-weight="normal" stroke-linecap="round" font-size="12px" font-style="normal" text-anchor="start" dominant-baseline="hanging"><rect vector-effect="non-scaling-stroke" x="736" y="484" width="12" height="12"/><g fill="black" stroke="black"><text vector-effect="non-scaling-stroke" x="752" y="484" dominant-baseline="hanging" stroke="none">Golang</text></g><g font-weight="normal" fill="hsl(49, 88%, 65%)" stroke="hsl(49, 88%, 65%)" stroke-width="1px" font-size="12px" dominant-baseline="hanging" stroke-linecap="round" stroke-linejoin="round" font-family="sans-serif" text-anchor="start" font-style="normal"><rect vector-effect="non-scaling-stroke" x="736" y="502" width="12" height="12"/><g stroke="black" fill="black"><text x="752" y="502" dominant-baseline="hanging" stroke="none" vector-effect="non-scaling-stroke">Rust</text><g font-style="normal" font-size="12px" font-weight="normal" font-family="sans-serif" stroke-width="2px" dominant-baseline="hanging" fill="none" stroke-linecap="round" stroke-linejoin="round" text-anchor="start"><rect width="640" height="440" vector-effect="non-scaling-stroke" x="80" y="80"/></g><g font-weight="normal" text-anchor="start" fill="none" stroke="black" stroke-width="2px" font-size="12px" font-style="normal" stroke-linejoin="round" dominant-baseline="hanging" transform="translate(80 520 )scale(1 -1 )" stroke-linecap="round" font-family="sans-serif"><path vector-effect="non-scaling-stroke" d="M64,0 L64,-6 M8.533333e+01,0 L8.533333e+01,-6 M1.066667e+02,0 L1.066667e+02,-6 M128,0 L128,-6 M1.493333e+02,0 L1.493333e+02,-6 M1.706667e+02,0 L1.706667e+02,-6 M192,0 L192,-6 M2.133333e+02,0 L2.133333e+02,-6 M2.346667e+02,0 L2.346667e+02,-6 M256,0 L256,-6 M2.773333e+02,0 L2.773333e+02,-6 "/></g><g fill="black" stroke-width="2px" transform="translate(80 520 )scale(1 1 )" stroke-linecap="round" font-weight="normal" stroke="black" font-size="12px" font-style="normal" stroke-linejoin="round" font-family="sans-serif" text-anchor="middle" dominant-baseline="hanging"><text stroke="none" vector-effect="non-scaling-stroke" x="64" y="10" dominant-baseline="hanging">1</text><text stroke="none" vector-effect="non-scaling-stroke" x="8.533333e+01" y="10" dominant-baseline="hanging">2</text><text stroke="none" vector-effect="non-scaling-stroke" x="1.066667e+02" y="10" dominant-baseline="hanging">3</text><text dominant-baseline="hanging" stroke="none" vector-effect="non-scaling-stroke" x="128" y="10">4</text><text x="1.493333e+02" y="10" dominant-baseline="hanging" stroke="none" vector-effect="non-scaling-stroke">5</text><text dominant-baseline="hanging" stroke="none" vector-effect="non-scaling-stroke" x="1.706667e+02" y="10">6</text><text dominant-baseline="hanging" stroke="none" vector-effect="non-scaling-stroke" x="192" y="10">7</text><text dominant-baseline="hanging" stroke="none" vector-effect="non-scaling-stroke" x="2.133333e+02" y="10">8</text><text stroke="none" vector-effect="non-scaling-stroke" x="2.346667e+02" y="10" dominant-baseline="hanging">9</text><text stroke="none" vector-effect="non-scaling-stroke" x="256" y="10" dominant-baseline="hanging">10</text><text vector-effect="non-scaling-stroke" x="2.773333e+02" y="10" dominant-baseline="hanging" stroke="none">11</text></g><g stroke-width="2px" font-size="12px" dominant-baseline="baseline" font-weight="bold" stroke="black" text-anchor="middle" transform="translate(80 520 )scale(1 1 )rotate(0 0 0 )" fill="black" font-style="normal" stroke-linecap="round" stroke-linejoin="round" font-family="sans-serif"><text stroke="none" vector-effect="non-scaling-stroke" x="320" y="-6" dominant-baseline="baseline">Day</text></g><g stroke="black" stroke-width="2px" font-size="12px" font-style="normal" stroke-linecap="round" stroke-linejoin="round" font-weight="bold" fill="black" text-anchor="middle" dominant-baseline="baseline" font-family="sans-serif" transform="translate(80 520 )scale(1 -1 )"><path d="M0,44 L-6,44 M0,9.307912e+01 L-6,9.307912e+01 M0,1.421582e+02 L-6,1.421582e+02 M0,1.912374e+02 L-6,1.912374e+02 M0,2.403165e+02 L-6,2.403165e+02 M0,2.893956e+02 L-6,2.893956e+02 M0,3.384747e+02 L-6,3.384747e+02 M0,3.875538e+02 L-6,3.875538e+02 " vector-effect="non-scaling-stroke"/></g><g stroke-linecap="round" stroke-linejoin="round" stroke="black" stroke-width="2px" transform="translate(80 520 )scale(1 1 )" font-family="sans-serif" font-weight="normal" text-anchor="end" dominant-baseline="middle" fill="black" font-size="12px" font-style="normal"><text x="-10" y="-44" dominant-baseline="middle" stroke="none" vector-effect="non-scaling-stroke">0s</text><text vector-effect="non-scaling-stroke" x="-10" y="-9.307912e+01" dominant-baseline="middle" stroke="none">10ms</text><text x="-10" y="-1.421582e+02" dominant-baseline="middle" stroke="none" vector-effect="non-scaling-stroke">20ms</text><text dominant-baseline="middle" stroke="none" vector-effect="non-scaling-stroke" x="-10" y="-1.912374e+02">30ms</text><text dominant-baseline="middle" stroke="none" vector-effect="non-scaling-stroke" x="-10" y="-2.403165e+02">40ms</text><text x="-10" y="-2.893956e+02" dominant-baseline="middle" stroke="none" vector-effect="non-scaling-stroke">50ms</text><text dominant-baseline="middle" stroke="none" vector-effect="non-scaling-stroke" x="-10" y="-3.384747e+02">60ms</text><text y="-3.875538e+02" dominant-baseline="middle" stroke="none" vector-effect="non-scaling-stroke" x="-10">70ms</text></g><g stroke="black" font-family="sans-serif" font-weight="bold" text-anchor="middle" dominant-baseline="hanging" stroke-width="2px" font-style="normal" fill="black" stroke-linecap="round" font-size="12px" transform="translate(80 520 )scale(1 1 )rotate(-90 0 0 )" stroke-linejoin="round"><text y="6" dominant-baseline="hanging" stroke="none" vector-effect="non-scaling-stroke" x="220">Runtime</text></g></g></g></g></svg>