<svg preserveAspectRatio="xMidYMid meet" xmlns="http://www.w3.org/2000/svg" width="800" height="600" viewbox="0 0 800 600"><defs><marker markerHeight="2%" id="circle" viewBox="0 0 10 10 " refX="5" refY="5" markerUnits="userSpaceOnUse" markerWidth="2%"><circle cx="5" cy="5" r="3" fill="none" stroke="black"/></marker><marker refY="5" markerUnits="userSpaceOnUse" markerWidth="2%" markerHeight="2%" id="filled-circle" viewBox="0 0 10 10 " refX="5"><circle cx="5" cy="5" r="3" fill="black" stroke="none"/></marker><marker markerWidth="2%" markerHeight="2%" id="square" viewBox="0 0 10 10 " refX="5" refY="5" markerUnits="userSpaceOnUse"><rect height="6" fill="none" stroke="black" x="2" y="2" width="6"/></marker><marker markerHeight="2%" id="filled-square" viewBox="0 0 10 10 " refX="5" refY="5" markerUnits="userSpaceOnUse" markerWidth="2%"><rect stroke="none" x="2" y="2" width="6" height="6" fill="black"/></marker></defs><g stroke-linecap="round" stroke-linejoin="round" transform="translate(80 520 )scale(1 -1 )" fill="hsl(198, 47%, 65%)" stroke="hsl(198, 47%, 65%)" stroke-width="1px"><rect width="1.122807e+01" height="4.400289e+01" vector-effect="non-scaling-stroke" x="5.277193e+01" y="0"/><rect vector-effect="non-scaling-stroke" x="7.410526e+01" y="0" width="1.122807e+01" height="4.400080e+01"/><rect vector-effect="non-scaling-stroke" x="9.543860e+01" y="0" width="1.122807e+01" height="4.400876e+01"/><rect vector-effect="non-scaling-stroke" x="1.167719e+02" y="0" width="1.122807e+01" height="4.400378e+01"/><rect vector-effect="non-scaling-stroke" x="1.381053e+02" y="0" width="1.122807e+01" height="4.400216e+01"/><rect vector-effect="non-scaling-stroke" x="1.594386e+02" y="0" width="1.122807e+01" height="4.400563e+01"/><rect x="1.807719e+02" y="0" width="1.122807e+01" height="4.400438e+01" vector-effect="non-scaling-stroke"/><rect width="1.122807e+01" height="4.411749e+01" vector-effect="non-scaling-stroke" x="2.021053e+02" y="0"/><rect height="4.407042e+01" vector-effect="non-scaling-stroke" x="2.234386e+02" y="0" width="1.122807e+01"/><rect y="0" width="1.122807e+01" height="4.400028e+01" vector-effect="non-scaling-stroke" x="2.447719e+02"/><rect width="1.122807e+01" height="4.648182e+01" vector-effect="non-scaling-stroke" x="2.661053e+02" y="0"/><rect y="0" width="1.122807e+01" height="4.408909e+01" vector-effect="non-scaling-stroke" x="2.874386e+02"/><rect width="1.122807e+01" height="4.414194e+01" vector-effect="non-scaling-stroke" x="3.087719e+02" y="0"/><rect vector-effect="non-scaling-stroke" x="3.301053e+02" y="0" width="1.122807e+01" height="4.504811e+01"/><rect height="4.400089e+01" vector-effect="non-scaling-stroke" x="3.514386e+02" y="0" width="1.122807e+01"/><rect vector-effect="non-scaling-stroke" x="3.727719e+02" y="0" width="1.122807e+01" height="8.201469e+02"/><rect y="0" width="1.122807e+01" height="4.408508e+01" vector-effect="non-scaling-stroke" x="3.941053e+02"/><rect height="4.403330e+01" vector-effect="non-scaling-stroke" x="4.154386e+02" y="0" width="1.122807e+01"/><rect y="0" width="1.122807e+01" height="1.113890e+02" vector-effect="non-scaling-stroke" x="4.367719e+02"/></g><g stroke-linecap="round" stroke-linejoin="round" transform="translate(80 520 )scale(1 -1 )" fill="hsl(49, 88%, 65%)" stroke="hsl(49, 88%, 65%)" stroke-width="1px"><rect width="1.122807e+01" height="4.400131e+01" vector-effect="non-scaling-stroke" x="64" y="0"/><rect x="8.533333e+01" y="0" width="1.122807e+01" height="4.400019e+01" vector-effect="non-scaling-stroke"/><rect width="1.122807e+01" height="4.400662e+01" vector-effect="non-scaling-stroke" x="1.066667e+02" y="0"/><rect width="1.122807e+01" height="4.400226e+01" vector-effect="non-scaling-stroke" x="1.280000e+02" y="0"/><rect y="0" width="1.122807e+01" height="4.400175e+01" vector-effect="non-scaling-stroke" x="1.493333e+02"/><rect width="1.122807e+01" height="4.400335e+01" vector-effect="non-scaling-stroke" x="1.706667e+02" y="0"/><rect x="192" y="0" width="1.122807e+01" height="4.400391e+01" vector-effect="non-scaling-stroke"/><rect vector-effect="non-scaling-stroke" x="2.133333e+02" y="0" width="1.122807e+01" height="4.411398e+01"/><rect vector-effect="non-scaling-stroke" x="2.346667e+02" y="0" width="1.122807e+01" height="4.406807e+01"/><rect y="0" width="1.122807e+01" height="4.400021e+01" vector-effect="non-scaling-stroke" x="256"/><rect x="2.773333e+02" y="0" width="1.122807e+01" height="4.492655e+01" vector-effect="non-scaling-stroke"/><rect height="4.405564e+01" vector-effect="non-scaling-stroke" x="2.986667e+02" y="0" width="1.122807e+01"/><rect height="4.412034e+01" vector-effect="non-scaling-stroke" x="320" y="0" width="1.122807e+01"/><rect height="4.515442e+01" vector-effect="non-scaling-stroke" x="3.413333e+02" y="0" width="1.122807e+01"/><rect x="3.626667e+02" y="0" width="1.122807e+01" height="4.400038e+01" vector-effect="non-scaling-stroke"/><rect vector-effect="non-scaling-stroke" x="4.053333e+02" y="0" width="1.122807e+01" height="4.405816e+01"/><rect vector-effect="non-scaling-stroke" x="4.266667e+02" y="0" width="1.122807e+01" height="4.403908e+01"/></g><g font-style="normal" stroke-width="1px" font-size="12px" stroke="hsl(198, 47%, 65%)" stroke-linejoin="round" font-family="sans-serif" text-anchor="start" dominant-baseline="hanging" fill="hsl(198, 47%, 65%)" stroke-linecap="round" font-weight="normal"><rect width="12" height="12" vector-effect="non-scaling-stroke" x="736" y="484"/><g stroke="black" fill="black"><text vector-effect="non-scaling-stroke" x="752" y="484" dominant-baseline="hanging" stroke="none">Golang</text></g><g dominant-baseline="hanging" stroke="hsl(49, 88%, 65%)" stroke-linejoin="round" fill="hsl(49, 88%, 65%)" font-style="normal" text-anchor="start" font-family="sans-serif" font-size="12px" stroke-linecap="round" font-weight="normal" stroke-width="1px"><rect width="12" height="12" vector-effect="non-scaling-stroke" x="736" y="502"/><g fill="black" stroke="black"><text y="502" dominant-baseline="hanging" stroke="none" vector-effect="non-scaling-stroke" x="752">Rust</text><g font-family="sans-serif" font-size="12px" stroke-width="2px" text-anchor="start" stroke-linecap="round" fill="none" stroke-linejoin="round" dominant-baseline="hanging" font-style="normal" font-weight="normal"><rect y="80" width="640" height="440" vector-effect="non-scaling-stroke" x="80"/></g><g font-family="sans-serif" font-size="12px" fill="none" font-style="normal" font-weight="normal" text-anchor="start" stroke="black" stroke-linejoin="round" transform="translate(80 520 )scale(1 -1 )" dominant-baseline="hanging" stroke-width="2px" stroke-linecap="round"><path d="M64,0 L64,-6 M8.533333e+01,0 L8.533333e+01,-6 M1.066667e+02,0 L1.066667e+02,-6 M128,0 L128,-6 M1.493333e+02,0 L1.493333e+02,-6 M1.706667e+02,0 L1.706667e+02,-6 M192,0 L192,-6 M2.133333e+02,0 L2.133333e+02,-6 M2.346667e+02,0 L2.346667e+02,-6 M256,0 L256,-6 M2.773333e+02,0 L2.773333e+02,-6 M2.986667e+02,0 L2.986667e+02,-6 M320,0 L320,-6 M3.413333e+02,0 L3.413333e+02,-6 M3.626667e+02,0 L3.626667e+02,-6 M384,0 L384,-6 M4.053333e+02,0 L4.053333e+02,-6 M4.266667e+02,0 L4.266667e+02,-6 M448,0 L448,-6 " vector-effect="non-scaling-stroke"/></g><g stroke-linecap="round" transform="translate(80 520 )scale(1 1 )" stroke="black" stroke-width="2px" stroke-linejoin="round" font-family="sans-serif" dominant-baseline="hanging" fill="black" font-style="normal" font-weight="normal" font-size="12px" text-anchor="middle"><text x="64" y="10" dominant-baseline="hanging" stroke="none" vector-effect="non-scaling-stroke">1</text><text x="8.533333e+01" y="10" dominant-baseline="hanging" stroke="none" vector-effect="non-scaling-stroke">2</text><text y="10" dominant-baseline="hanging" stroke="none" vector-effect="non-scaling-stroke" x="1.066667e+02">3</text><text vector-effect="non-scaling-stroke" x="128" y="10" dominant-baseline="hanging" stroke="none">4</text><text y="10" dominant-baseline="hanging" stroke="none" vector-effect="non-scaling-stroke" x="1.493333e+02">5</text><text stroke="none" vector-effect="non-scaling-stroke" x="1.706667e+02" y="10" dominant-baseline="hanging">6</text><text x="192" y="10" dominant-baseline="hanging" stroke="none" vector-effect="non-scaling-stroke">7</text><text stroke="none" vector-effect="non-scaling-stroke" x="2.133333e+02" y="10" dominant-baseline="hanging">8</text><text x="2.346667e+02" y="10" dominant-baseline="hanging" stroke="none" vector-effect="non-scaling-stroke">9</text><text vector-effect="non-scaling-stroke" x="256" y="10" dominant-baseline="hanging" stroke="none">10</text><text stroke="none" vector-effect="non-scaling-stroke" x="2.773333e+02" y="10" dominant-baseline="hanging">11</text><text stroke="none" vector-effect="non-scaling-stroke" x="2.986667e+02" y="10" dominant-baseline="hanging">12</text><text dominant-baseline="hanging" stroke="none" vector-effect="non-scaling-stroke" x="320" y="10">13</text><text stroke="none" vector-effect="non-scaling-stroke" x="3.413333e+02" y="10" dominant-baseline="hanging">14</text><text vector-effect="non-scaling-stroke" x="3.626667e+02" y="10" dominant-baseline="hanging" stroke="none">15</text><text dominant-baseline="hanging" stroke="none" vector-effect="non-scaling-stroke" x="384" y="10">16</text><text y="10" dominant-baseline="hanging" stroke="none" vector-effect="non-scaling-stroke" x="4.053333e+02">17</text><text vector-effect="non-scaling-stroke" x="4.266667e+02" y="10" dominant-baseline="hanging" stroke="none">18</text><text stroke="none" vector-effect="non-scaling-stroke" x="448" y="10" dominant-baseline="hanging">19</text></g><g transform="translate(80 520 )scale(1 1 )rotate(0 0 0 )" fill="black" dominant-baseline="baseline" stroke="black" stroke-width="2px" stroke-linejoin="round" font-style="normal" font-weight="bold" font-size="12px" text-anchor="middle" font-family="sans-serif" stroke-linecap="round"><text vector-effect="non-scaling-stroke" x="320" y="-6" dominant-baseline="baseline" stroke="none">Day</text></g><g text-anchor="middle" stroke-width="2px" font-family="sans-serif" font-size="12px" fill="black" transform="translate(80 520 )scale(1 -1 )" font-weight="bold" dominant-baseline="baseline" stroke="black" stroke-linejoin="round" stroke-linecap="round" font-style="normal"><path vector-effect="non-scaling-stroke" d="M0,44 L-6,44 M0,7.920000e+01 L-6,7.920000e+01 M0,1.144000e+02 L-6,1.144000e+02 M0,1.496000e+02 L-6,1.496000e+02 M0,1.848000e+02 L-6,1.848000e+02 M0,220 L-6,220 M0,2.552000e+02 L-6,2.552000e+02 M0,2.904000e+02 L-6,2.904000e+02 M0,3.256000e+02 L-6,3.256000e+02 M0,3.608000e+02 L-6,3.608000e+02 M0,396 L-6,396 "/></g><g stroke-linejoin="round" font-family="sans-serif" font-style="normal" stroke-width="2px" transform="translate(80 520 )scale(1 1 )" fill="black" font-size="12px" text-anchor="end" dominant-baseline="middle" stroke="black" stroke-linecap="round" font-weight="normal"><text stroke="none" vector-effect="non-scaling-stroke" x="-10" y="-44" dominant-baseline="middle">0s</text><text stroke="none" vector-effect="non-scaling-stroke" x="-10" y="-7.920000e+01" dominant-baseline="middle">200ms</text><text stroke="none" vector-effect="non-scaling-stroke" x="-10" y="-1.144000e+02" dominant-baseline="middle">400ms</text><text stroke="none" vector-effect="non-scaling-stroke" x="-10" y="-1.496000e+02" dominant-baseline="middle">600ms</text><text x="-10" y="-1.848000e+02" dominant-baseline="middle" stroke="none" vector-effect="non-scaling-stroke">800ms</text><text x="-10" y="-220" dominant-baseline="middle" stroke="none" vector-effect="non-scaling-stroke">1s</text><text dominant-baseline="middle" stroke="none" vector-effect="non-scaling-stroke" x="-10" y="-2.552000e+02">1.2s</text><text stroke="none" vector-effect="non-scaling-stroke" x="-10" y="-2.904000e+02" dominant-baseline="middle">1.4s</text><text stroke="none" vector-effect="non-scaling-stroke" x="-10" y="-3.256000e+02" dominant-baseline="middle">1.6s</text><text stroke="none" vector-effect="non-scaling-stroke" x="-10" y="-3.608000e+02" dominant-baseline="middle">1.8s</text><text x="-10" y="-396" dominant-baseline="middle" stroke="none" vector-effect="non-scaling-stroke">2s</text></g><g fill="black" font-weight="bold" font-size="12px" stroke="black" font-family="sans-serif" stroke-linejoin="round" transform="translate(80 520 )scale(1 1 )rotate(-90 0 0 )" stroke-linecap="round" font-style="normal" text-anchor="middle" dominant-baseline="hanging" stroke-width="2px"><text vector-effect="non-scaling-stroke" x="220" y="6" dominant-baseline="hanging" stroke="none">Runtime</text></g></g></g></g></svg>