<svg viewbox="0 0 800 600" preserveAspectRatio="xMidYMid meet" xmlns="http://www.w3.org/2000/svg" width="800" height="600"><defs><marker id="circle" viewBox="0 0 10 10 " refX="5" refY="5" markerUnits="userSpaceOnUse" markerWidth="2%" markerHeight="2%"><circle cx="5" cy="5" r="3" fill="none" stroke="black"/></marker><marker markerHeight="2%" id="filled-circle" viewBox="0 0 10 10 " refX="5" refY="5" markerUnits="userSpaceOnUse" markerWidth="2%"><circle cx="5" cy="5" r="3" fill="black" stroke="none"/></marker><marker refY="5" markerUnits="userSpaceOnUse" markerWidth="2%" markerHeight="2%" id="square" viewBox="0 0 10 10 " refX="5"><rect stroke="black" x="2" y="2" width="6" height="6" fill="none"/></marker><marker markerHeight="2%" id="filled-square" viewBox="0 0 10 10 " refX="5" refY="5" markerUnits="userSpaceOnUse" markerWidth="2%"><rect fill="black" stroke="none" x="2" y="2" width="6" height="6"/></marker></defs><g transform="translate(80 520 )scale(1 -1 )" fill="hsl(198, 47%, 65%)" stroke="hsl(198, 47%, 65%)" stroke-width="1px" stroke-linecap="round" stroke-linejoin="round"><rect x="5.145098e+01" y="0" width="8.366013e+00" height="4.416107e+01" vector-effect="non-scaling-stroke"/><rect x="7.278431e+01" y="0" width="8.366013e+00" height="4.400552e+01" vector-effect="non-scaling-stroke"/><rect y="0" width="8.366013e+00" height="4.402370e+01" vector-effect="non-scaling-stroke" x="9.411765e+01"/><rect y="0" width="8.366013e+00" height="4.403046e+01" vector-effect="non-scaling-stroke" x="1.154510e+02"/><rect height="4.404900e+01" vector-effect="non-scaling-stroke" x="1.367843e+02" y="0" width="8.366013e+00"/><rect width="8.366013e+00" height="4.400013e+01" vector-effect="non-scaling-stroke" x="1.581176e+02" y="0"/><rect vector-effect="non-scaling-stroke" x="1.794510e+02" y="0" width="8.366013e+00" height="4.433411e+01"/><rect y="0" width="8.366013e+00" height="4.488021e+01" vector-effect="non-scaling-stroke" x="2.007843e+02"/><rect vector-effect="non-scaling-stroke" x="2.221176e+02" y="0" width="8.366013e+00" height="4.403448e+01"/><rect width="8.366013e+00" height="4.504864e+01" vector-effect="non-scaling-stroke" x="2.434510e+02" y="0"/><rect width="8.366013e+00" height="4.424140e+01" vector-effect="non-scaling-stroke" x="2.647843e+02" y="0"/><rect y="0" width="8.366013e+00" height="396" vector-effect="non-scaling-stroke" x="2.861176e+02"/><rect y="0" width="8.366013e+00" height="4.410024e+01" vector-effect="non-scaling-stroke" x="3.074510e+02"/><rect vector-effect="non-scaling-stroke" x="3.287843e+02" y="0" width="8.366013e+00" height="5.874573e+01"/><rect vector-effect="non-scaling-stroke" x="3.501176e+02" y="0" width="8.366013e+00" height="4.412710e+01"/><rect height="1.246638e+02" vector-effect="non-scaling-stroke" x="3.714510e+02" y="0" width="8.366013e+00"/><rect height="2.396492e+02" vector-effect="non-scaling-stroke" x="3.927843e+02" y="0" width="8.366013e+00"/></g><g stroke-linejoin="round" transform="translate(80 520 )scale(1 -1 )" fill="hsl(49, 88%, 65%)" stroke="hsl(49, 88%, 65%)" stroke-width="1px" stroke-linecap="round"><rect x="5.981699e+01" y="0" width="8.366013e+00" height="4.408368e+01" vector-effect="non-scaling-stroke"/><rect vector-effect="non-scaling-stroke" x="8.115033e+01" y="0" width="8.366013e+00" height="4.400216e+01"/><rect height="4.401564e+01" vector-effect="non-scaling-stroke" x="1.024837e+02" y="0" width="8.366013e+00"/><rect height="4.401708e+01" vector-effect="non-scaling-stroke" x="1.238170e+02" y="0" width="8.366013e+00"/><rect x="1.451503e+02" y="0" width="8.366013e+00" height="4.400997e+01" vector-effect="non-scaling-stroke"/><rect height="4.400009e+01" vector-effect="non-scaling-stroke" x="1.664837e+02" y="0" width="8.366013e+00"/><rect x="1.878170e+02" y="0" width="8.366013e+00" height="4.406173e+01" vector-effect="non-scaling-stroke"/><rect vector-effect="non-scaling-stroke" x="2.091503e+02" y="0" width="8.366013e+00" height="4.651565e+01"/><rect y="0" width="8.366013e+00" height="4.401950e+01" vector-effect="non-scaling-stroke" x="2.304837e+02"/><rect x="2.518170e+02" y="0" width="8.366013e+00" height="4.407725e+01" vector-effect="non-scaling-stroke"/><rect vector-effect="non-scaling-stroke" x="2.731503e+02" y="0" width="8.366013e+00" height="4.422258e+01"/><rect vector-effect="non-scaling-stroke" x="3.158170e+02" y="0" width="8.366013e+00" height="4.404709e+01"/><rect vector-effect="non-scaling-stroke" x="3.584837e+02" y="0" width="8.366013e+00" height="4.405882e+01"/><rect vector-effect="non-scaling-stroke" x="3.798170e+02" y="0" width="8.366013e+00" height="5.272789e+01"/></g><g stroke="hsl(260, 76%, 65%)" stroke-width="1px" stroke-linecap="round" stroke-linejoin="round" transform="translate(80 520 )scale(1 -1 )" fill="hsl(260, 76%, 65%)"><rect height="4.407023e+01" vector-effect="non-scaling-stroke" x="6.818301e+01" y="0" width="8.366013e+00"/><rect vector-effect="non-scaling-stroke" x="8.951634e+01" y="0" width="8.366013e+00" height="4.400245e+01"/><rect width="8.366013e+00" height="4.401289e+01" vector-effect="non-scaling-stroke" x="1.108497e+02" y="0"/><rect y="0" width="8.366013e+00" height="4.405005e+01" vector-effect="non-scaling-stroke" x="1.321830e+02"/><rect width="8.366013e+00" height="4.582160e+01" vector-effect="non-scaling-stroke" x="1.535163e+02" y="0"/><rect height="4.400009e+01" vector-effect="non-scaling-stroke" x="1.748497e+02" y="0" width="8.366013e+00"/><rect x="1.961830e+02" y="0" width="8.366013e+00" height="4.404313e+01" vector-effect="non-scaling-stroke"/><rect vector-effect="non-scaling-stroke" x="2.175163e+02" y="0" width="8.366013e+00" height="4.421529e+01"/><rect height="4.401905e+01" vector-effect="non-scaling-stroke" x="2.388497e+02" y="0" width="8.366013e+00"/><rect y="0" width="8.366013e+00" height="4.407969e+01" vector-effect="non-scaling-stroke" x="2.601830e+02"/><rect vector-effect="non-scaling-stroke" x="2.815163e+02" y="0" width="8.366013e+00" height="6.179219e+01"/><rect vector-effect="non-scaling-stroke" x="3.668497e+02" y="0" width="8.366013e+00" height="4.406034e+01"/><rect x="3.881830e+02" y="0" width="8.366013e+00" height="9.028059e+01" vector-effect="non-scaling-stroke"/></g><g font-style="normal" stroke="hsl(198, 47%, 65%)" font-family="sans-serif" font-size="12px" text-anchor="start" dominant-baseline="hanging" stroke-linecap="round" stroke-linejoin="round" font-weight="normal" fill="hsl(198, 47%, 65%)" stroke-width="1px"><rect height="12" vector-effect="non-scaling-stroke" x="736" y="466" width="12"/><g fill="black" stroke="black"><text y="466" dominant-baseline="hanging" stroke="none" vector-effect="non-scaling-stroke" x="752">Golang</text></g><g stroke-linecap="round" stroke-linejoin="round" font-size="12px" text-anchor="start" font-weight="normal" fill="hsl(49, 88%, 65%)" stroke="hsl(49, 88%, 65%)" stroke-width="1px" font-style="normal" dominant-baseline="hanging" font-family="sans-serif"><rect vector-effect="non-scaling-stroke" x="736" y="484" width="12" height="12"/><g fill="black" stroke="black"><text stroke="none" vector-effect="non-scaling-stroke" x="752" y="484" dominant-baseline="hanging">Rust</text></g><g stroke="hsl(260, 76%, 65%)" stroke-width="1px" stroke-linecap="round" font-family="sans-serif" font-size="12px" font-weight="normal" text-anchor="start" dominant-baseline="hanging" stroke-linejoin="round" fill="hsl(260, 76%, 65%)" font-style="normal"><rect width="12" height="12" vector-effect="non-scaling-stroke" x="736" y="502"/><g fill="black" stroke="black"><text dominant-baseline="hanging" stroke="none" vector-effect="non-scaling-stroke" x="752" y="502">Zig</text><g fill="none" stroke-width="2px" text-anchor="start" dominant-baseline="hanging" font-family="sans-serif" font-weight="normal" stroke-linecap="round" font-size="12px" stroke-linejoin="round" font-style="normal"><rect x="80" y="80" width="640" height="440" vector-effect="non-scaling-stroke"/></g><g text-anchor="start" font-style="normal" font-size="12px" font-weight="normal" fill="none" stroke="black" stroke-width="2px" stroke-linecap="round" dominant-baseline="hanging" font-family="sans-serif" stroke-linejoin="round" transform="translate(80 520 )scale(1 -1 )"><path vector-effect="non-scaling-stroke" d="M64,0 L64,-6 M8.533333e+01,0 L8.533333e+01,-6 M1.066667e+02,0 L1.066667e+02,-6 M128,0 L128,-6 M1.493333e+02,0 L1.493333e+02,-6 M1.706667e+02,0 L1.706667e+02,-6 M192,0 L192,-6 M2.133333e+02,0 L2.133333e+02,-6 M2.346667e+02,0 L2.346667e+02,-6 M256,0 L256,-6 M2.773333e+02,0 L2.773333e+02,-6 M2.986667e+02,0 L2.986667e+02,-6 M320,0 L320,-6 M3.413333e+02,0 L3.413333e+02,-6 M3.626667e+02,0 L3.626667e+02,-6 M384,0 L384,-6 M4.053333e+02,0 L4.053333e+02,-6 "/></g><g font-family="sans-serif" stroke="black" stroke-linejoin="round" transform="translate(80 520 )scale(1 1 )" stroke-linecap="round" text-anchor="middle" font-style="normal" dominant-baseline="hanging" font-size="12px" font-weight="normal" fill="black" stroke-width="2px"><text stroke="none" vector-effect="non-scaling-stroke" x="64" y="10" dominant-baseline="hanging">1</text><text stroke="none" vector-effect="non-scaling-stroke" x="8.533333e+01" y="10" dominant-baseline="hanging">2</text><text dominant-baseline="hanging" stroke="none" vector-effect="non-scaling-stroke" x="1.066667e+02" y="10">3</text><text x="128" y="10" dominant-baseline="hanging" stroke="none" vector-effect="non-scaling-stroke">4</text><text vector-effect="non-scaling-stroke" x="1.493333e+02" y="10" dominant-baseline="hanging" stroke="none">5</text><text y="10" dominant-baseline="hanging" stroke="none" vector-effect="non-scaling-stroke" x="1.706667e+02">6</text><text x="192" y="10" dominant-baseline="hanging" stroke="none" vector-effect="non-scaling-stroke">7</text><text stroke="none" vector-effect="non-scaling-stroke" x="2.133333e+02" y="10" dominant-baseline="hanging">8</text><text stroke="none" vector-effect="non-scaling-stroke" x="2.346667e+02" y="10" dominant-baseline="hanging">9</text><text stroke="none" vector-effect="non-scaling-stroke" x="256" y="10" dominant-baseline="hanging">10</text><text dominant-baseline="hanging" stroke="none" vector-effect="non-scaling-stroke" x="2.773333e+02" y="10">11</text><text y="10" dominant-baseline="hanging" stroke="none" vector-effect="non-scaling-stroke" x="2.986667e+02">12</text><text stroke="none" vector-effect="non-scaling-stroke" x="320" y="10" dominant-baseline="hanging">13</text><text x="3.413333e+02" y="10" dominant-baseline="hanging" stroke="none" vector-effect="non-scaling-stroke">14</text><text stroke="none" vector-effect="non-scaling-stroke" x="3.626667e+02" y="10" dominant-baseline="hanging">15</text><text dominant-baseline="hanging" stroke="none" vector-effect="non-scaling-stroke" x="384" y="10">16</text><text dominant-baseline="hanging" stroke="none" vector-effect="non-scaling-stroke" x="4.053333e+02" y="10">17</text></g><g dominant-baseline="baseline" stroke="black" font-family="sans-serif" fill="black" transform="translate(80 520 )scale(1 1 )rotate(0 0 0 )" text-anchor="middle" font-style="normal" stroke-width="2px" stroke-linecap="round" stroke-linejoin="round" font-size="12px" font-weight="bold"><text stroke="none" vector-effect="non-scaling-stroke" x="320" y="-6" dominant-baseline="baseline">Day</text></g><g font-weight="bold" transform="translate(80 520 )scale(1 -1 )" font-style="normal" dominant-baseline="baseline" stroke-width="2px" font-size="12px" font-family="sans-serif" fill="black" stroke="black" text-anchor="middle" stroke-linecap="round" stroke-linejoin="round"><path d="M0,44 L-6,44 M0,1.341724e+02 L-6,1.341724e+02 M0,2.243448e+02 L-6,2.243448e+02 M0,3.145172e+02 L-6,3.145172e+02 " vector-effect="non-scaling-stroke"/></g><g font-style="normal" dominant-baseline="middle" font-weight="normal" fill="black" font-size="12px" text-anchor="end" transform="translate(80 520 )scale(1 1 )" stroke="black" stroke-width="2px" stroke-linecap="round" stroke-linejoin="round" font-family="sans-serif"><text x="-10" y="-44" dominant-baseline="middle" stroke="none" vector-effect="non-scaling-stroke">0s</text><text stroke="none" vector-effect="non-scaling-stroke" x="-10" y="-1.341724e+02" dominant-baseline="middle">100ms</text><text dominant-baseline="middle" stroke="none" vector-effect="non-scaling-stroke" x="-10" y="-2.243448e+02">200ms</text><text stroke="none" vector-effect="non-scaling-stroke" x="-10" y="-3.145172e+02" dominant-baseline="middle">300ms</text></g><g font-style="normal" stroke="black" stroke-linecap="round" stroke-linejoin="round" font-family="sans-serif" transform="translate(80 520 )scale(1 1 )rotate(-90 0 0 )" dominant-baseline="hanging" fill="black" stroke-width="2px" font-size="12px" font-weight="bold" text-anchor="middle"><text dominant-baseline="hanging" stroke="none" vector-effect="non-scaling-stroke" x="220" y="6">Runtime</text></g></g></g></g></g></svg>