<svg preserveAspectRatio="xMidYMid meet" xmlns="http://www.w3.org/2000/svg" width="800" height="600" viewbox="0 0 800 600"><defs><marker markerWidth="2%" markerHeight="2%" id="circle" viewBox="0 0 10 10 " refX="5" refY="5" markerUnits="userSpaceOnUse"><circle stroke="black" cx="5" cy="5" r="3" fill="none"/></marker><marker markerHeight="2%" id="filled-circle" viewBox="0 0 10 10 " refX="5" refY="5" markerUnits="userSpaceOnUse" markerWidth="2%"><circle r="3" fill="black" stroke="none" cx="5" cy="5"/></marker><marker id="square" viewBox="0 0 10 10 " refX="5" refY="5" markerUnits="userSpaceOnUse" markerWidth="2%" markerHeight="2%"><rect y="2" width="6" height="6" fill="none" stroke="black" x="2"/></marker><marker markerUnits="userSpaceOnUse" markerWidth="2%" markerHeight="2%" id="filled-square" viewBox="0 0 10 10 " refX="5" refY="5"><rect height="6" fill="black" stroke="none" x="2" y="2" width="6"/></marker></defs><g stroke-linejoin="round" transform="translate(80 520 )scale(1 -1 )" fill="hsl(198, 47%, 65%)" stroke="hsl(198, 47%, 65%)" stroke-width="1px" stroke-linecap="round"><rect x="5.546667e+01" y="0" width="8.533333e+00" height="4.401820e+01" vector-effect="non-scaling-stroke"/><rect height="4.400384e+01" vector-effect="non-scaling-stroke" x="7.680000e+01" y="0" width="8.533333e+00"/><rect width="8.533333e+00" height="4.404804e+01" vector-effect="non-scaling-stroke" x="9.813333e+01" y="0"/><rect y="0" width="8.533333e+00" height="4.401801e+01" vector-effect="non-scaling-stroke" x="1.194667e+02"/><rect vector-effect="non-scaling-stroke" x="1.408000e+02" y="0" width="8.533333e+00" height="4.400967e+01"/><rect y="0" width="8.533333e+00" height="4.400961e+01" vector-effect="non-scaling-stroke" x="1.621333e+02"/><rect vector-effect="non-scaling-stroke" x="1.834667e+02" y="0" width="8.533333e+00" height="4.402885e+01"/><rect y="0" width="8.533333e+00" height="4.478816e+01" vector-effect="non-scaling-stroke" x="2.048000e+02"/><rect height="4.447406e+01" vector-effect="non-scaling-stroke" x="2.261333e+02" y="0" width="8.533333e+00"/><rect vector-effect="non-scaling-stroke" x="2.474667e+02" y="0" width="8.533333e+00" height="4.400164e+01"/><rect vector-effect="non-scaling-stroke" x="2.688000e+02" y="0" width="8.533333e+00" height="5.149110e+01"/><rect vector-effect="non-scaling-stroke" x="2.901333e+02" y="0" width="8.533333e+00" height="4.442143e+01"/><rect x="3.114667e+02" y="0" width="8.533333e+00" height="4.555074e+01" vector-effect="non-scaling-stroke"/><rect vector-effect="non-scaling-stroke" x="3.328000e+02" y="0" width="8.533333e+00" height="5.031080e+01"/><rect height="4.400386e+01" vector-effect="non-scaling-stroke" x="3.541333e+02" y="0" width="8.533333e+00"/><rect height="3.293054e+02" vector-effect="non-scaling-stroke" x="3.754667e+02" y="0" width="8.533333e+00"/><rect x="3.968000e+02" y="0" width="8.533333e+00" height="4.495051e+01" vector-effect="non-scaling-stroke"/><rect vector-effect="non-scaling-stroke" x="4.181333e+02" y="0" width="8.533333e+00" height="4.417800e+01"/><rect y="0" width="8.533333e+00" height="2.790625e+02" vector-effect="non-scaling-stroke" x="4.394667e+02"/><rect width="8.533333e+00" height="1.200239e+02" vector-effect="non-scaling-stroke" x="4.608000e+02" y="0"/><rect vector-effect="non-scaling-stroke" x="4.821333e+02" y="0" width="8.533333e+00" height="4.466838e+01"/><rect height="4.455830e+01" vector-effect="non-scaling-stroke" x="5.034667e+02" y="0" width="8.533333e+00"/><rect height="1.677405e+02" vector-effect="non-scaling-stroke" x="5.248000e+02" y="0" width="8.533333e+00"/><rect vector-effect="non-scaling-stroke" x="5.461333e+02" y="0" width="8.533333e+00" height="1.996272e+02"/><rect vector-effect="non-scaling-stroke" x="5.674667e+02" y="0" width="8.533333e+00" height="4.400337e+01"/></g><g fill="hsl(49, 88%, 65%)" stroke="hsl(49, 88%, 65%)" stroke-width="1px" stroke-linecap="round" stroke-linejoin="round" transform="translate(80 520 )scale(1 -1 )"><rect vector-effect="non-scaling-stroke" x="64" y="0" width="8.533333e+00" height="4.401267e+01"/><rect width="8.533333e+00" height="4.400131e+01" vector-effect="non-scaling-stroke" x="8.533333e+01" y="0"/><rect x="1.066667e+02" y="0" width="8.533333e+00" height="4.409343e+01" vector-effect="non-scaling-stroke"/><rect x="128" y="0" width="8.533333e+00" height="4.401218e+01" vector-effect="non-scaling-stroke"/><rect vector-effect="non-scaling-stroke" x="1.493333e+02" y="0" width="8.533333e+00" height="4.400666e+01"/><rect y="0" width="8.533333e+00" height="4.401140e+01" vector-effect="non-scaling-stroke" x="1.706667e+02"/><rect width="8.533333e+00" height="4.401616e+01" vector-effect="non-scaling-stroke" x="192" y="0"/><rect y="0" width="8.533333e+00" height="4.460003e+01" vector-effect="non-scaling-stroke" x="2.133333e+02"/><rect width="8.533333e+00" height="4.438104e+01" vector-effect="non-scaling-stroke" x="2.346667e+02" y="0"/><rect height="4.400132e+01" vector-effect="non-scaling-stroke" x="2.560000e+02" y="0" width="8.533333e+00"/><rect width="8.533333e+00" height="4.887981e+01" vector-effect="non-scaling-stroke" x="2.773333e+02" y="0"/><rect vector-effect="non-scaling-stroke" x="2.986667e+02" y="0" width="8.533333e+00" height="4.425034e+01"/><rect x="320" y="0" width="8.533333e+00" height="4.451498e+01" vector-effect="non-scaling-stroke"/><rect vector-effect="non-scaling-stroke" x="3.413333e+02" y="0" width="8.533333e+00" height="5.117188e+01"/><rect height="4.400212e+01" vector-effect="non-scaling-stroke" x="3.626667e+02" y="0" width="8.533333e+00"/><rect width="8.533333e+00" height="396" vector-effect="non-scaling-stroke" x="384" y="0"/><rect vector-effect="non-scaling-stroke" x="4.053333e+02" y="0" width="8.533333e+00" height="4.433890e+01"/><rect height="4.417624e+01" vector-effect="non-scaling-stroke" x="4.266667e+02" y="0" width="8.533333e+00"/><rect vector-effect="non-scaling-stroke" x="448" y="0" width="8.533333e+00" height="1.487249e+02"/><rect height="9.362843e+01" vector-effect="non-scaling-stroke" x="4.693333e+02" y="0" width="8.533333e+00"/><rect x="4.906667e+02" y="0" width="8.533333e+00" height="4.441350e+01" vector-effect="non-scaling-stroke"/><rect height="4.464343e+01" vector-effect="non-scaling-stroke" x="512" y="0" width="8.533333e+00"/><rect x="5.333333e+02" y="0" width="8.533333e+00" height="1.411176e+02" vector-effect="non-scaling-stroke"/><rect width="8.533333e+00" height="2.097830e+02" vector-effect="non-scaling-stroke" x="5.546667e+02" y="0"/><rect y="0" width="8.533333e+00" height="4.400287e+01" vector-effect="non-scaling-stroke" x="576"/></g><g font-style="normal" stroke-linejoin="round" font-family="sans-serif" font-weight="normal" text-anchor="start" fill="hsl(198, 47%, 65%)" stroke="hsl(198, 47%, 65%)" stroke-width="1px" stroke-linecap="round" font-size="12px" dominant-baseline="hanging"><rect x="736" y="484" width="12" height="12" vector-effect="non-scaling-stroke"/><g fill="black" stroke="black"><text x="752" y="484" dominant-baseline="hanging" stroke="none" vector-effect="non-scaling-stroke">Golang</text></g><g font-style="normal" fill="hsl(49, 88%, 65%)" stroke="hsl(49, 88%, 65%)" font-family="sans-serif" font-weight="normal" dominant-baseline="hanging" font-size="12px" text-anchor="start" stroke-width="1px" stroke-linecap="round" stroke-linejoin="round"><rect width="12" height="12" vector-effect="non-scaling-stroke" x="736" y="502"/><g fill="black" stroke="black"><text dominant-baseline="hanging" stroke="none" vector-effect="non-scaling-stroke" x="752" y="502">Rust</text><g stroke-width="2px" stroke-linecap="round" stroke-linejoin="round" font-style="normal" font-weight="normal" dominant-baseline="hanging" fill="none" text-anchor="start" font-family="sans-serif" font-size="12px"><rect width="640" height="440" vector-effect="non-scaling-stroke" x="80" y="80"/></g><g fill="none" font-size="12px" dominant-baseline="hanging" stroke-width="2px" stroke-linecap="round" stroke-linejoin="round" stroke="black" font-style="normal" transform="translate(80 520 )scale(1 -1 )" font-family="sans-serif" font-weight="normal" text-anchor="start"><path vector-effect="non-scaling-stroke" d="M64,0 L64,-6 M8.533333e+01,0 L8.533333e+01,-6 M1.066667e+02,0 L1.066667e+02,-6 M128,0 L128,-6 M1.493333e+02,0 L1.493333e+02,-6 M1.706667e+02,0 L1.706667e+02,-6 M192,0 L192,-6 M2.133333e+02,0 L2.133333e+02,-6 M2.346667e+02,0 L2.346667e+02,-6 M256,0 L256,-6 M2.773333e+02,0 L2.773333e+02,-6 M2.986667e+02,0 L2.986667e+02,-6 M320,0 L320,-6 M3.413333e+02,0 L3.413333e+02,-6 M3.626667e+02,0 L3.626667e+02,-6 M384,0 L384,-6 M4.053333e+02,0 L4.053333e+02,-6 M4.266667e+02,0 L4.266667e+02,-6 M448,0 L448,-6 M4.693333e+02,0 L4.693333e+02,-6 M4.906667e+02,0 L4.906667e+02,-6 M512,0 L512,-6 M5.333333e+02,0 L5.333333e+02,-6 M5.546667e+02,0 L5.546667e+02,-6 M576,0 L576,-6 "/></g><g stroke="black" font-family="sans-serif" font-weight="normal" text-anchor="middle" font-style="normal" transform="translate(80 520 )scale(1 1 )" fill="black" font-size="12px" stroke-width="2px" stroke-linecap="round" stroke-linejoin="round" dominant-baseline="hanging"><text vector-effect="non-scaling-stroke" x="64" y="10" dominant-baseline="hanging" stroke="none">1</text><text y="10" dominant-baseline="hanging" stroke="none" vector-effect="non-scaling-stroke" x="8.533333e+01">2</text><text dominant-baseline="hanging" stroke="none" vector-effect="non-scaling-stroke" x="1.066667e+02" y="10">3</text><text stroke="none" vector-effect="non-scaling-stroke" x="128" y="10" dominant-baseline="hanging">4</text><text stroke="none" vector-effect="non-scaling-stroke" x="1.493333e+02" y="10" dominant-baseline="hanging">5</text><text dominant-baseline="hanging" stroke="none" vector-effect="non-scaling-stroke" x="1.706667e+02" y="10">6</text><text vector-effect="non-scaling-stroke" x="192" y="10" dominant-baseline="hanging" stroke="none">7</text><text vector-effect="non-scaling-stroke" x="2.133333e+02" y="10" dominant-baseline="hanging" stroke="none">8</text><text x="2.346667e+02" y="10" dominant-baseline="hanging" stroke="none" vector-effect="non-scaling-stroke">9</text><text stroke="none" vector-effect="non-scaling-stroke" x="256" y="10" dominant-baseline="hanging">10</text><text x="2.773333e+02" y="10" dominant-baseline="hanging" stroke="none" vector-effect="non-scaling-stroke">11</text><text y="10" dominant-baseline="hanging" stroke="none" vector-effect="non-scaling-stroke" x="2.986667e+02">12</text><text x="320" y="10" dominant-baseline="hanging" stroke="none" vector-effect="non-scaling-stroke">13</text><text x="3.413333e+02" y="10" dominant-baseline="hanging" stroke="none" vector-effect="non-scaling-stroke">14</text><text stroke="none" vector-effect="non-scaling-stroke" x="3.626667e+02" y="10" dominant-baseline="hanging">15</text><text dominant-baseline="hanging" stroke="none" vector-effect="non-scaling-stroke" x="384" y="10">16</text><text stroke="none" vector-effect="non-scaling-stroke" x="4.053333e+02" y="10" dominant-baseline="hanging">17</text><text dominant-baseline="hanging" stroke="none" vector-effect="non-scaling-stroke" x="4.266667e+02" y="10">18</text><text stroke="none" vector-effect="non-scaling-stroke" x="448" y="10" dominant-baseline="hanging">19</text><text stroke="none" vector-effect="non-scaling-stroke" x="4.693333e+02" y="10" dominant-baseline="hanging">20</text><text dominant-baseline="hanging" stroke="none" vector-effect="non-scaling-stroke" x="4.906667e+02" y="10">21</text><text dominant-baseline="hanging" stroke="none" vector-effect="non-scaling-stroke" x="512" y="10">22</text><text stroke="none" vector-effect="non-scaling-stroke" x="5.333333e+02" y="10" dominant-baseline="hanging">23</text><text vector-effect="non-scaling-stroke" x="5.546667e+02" y="10" dominant-baseline="hanging" stroke="none">24</text><text vector-effect="non-scaling-stroke" x="576" y="10" dominant-baseline="hanging" stroke="none">25</text></g><g font-size="12px" dominant-baseline="baseline" stroke-width="2px" stroke-linecap="round" font-weight="bold" font-family="sans-serif" transform="translate(80 520 )scale(1 1 )rotate(0 0 0 )" fill="black" stroke="black" font-style="normal" text-anchor="middle" stroke-linejoin="round"><text vector-effect="non-scaling-stroke" x="320" y="-6" dominant-baseline="baseline" stroke="none">Day</text></g><g font-size="12px" transform="translate(80 520 )scale(1 -1 )" stroke-linejoin="round" text-anchor="middle" stroke-linecap="round" font-family="sans-serif" font-weight="bold" stroke-width="2px" stroke="black" font-style="normal" dominant-baseline="baseline" fill="black"><path vector-effect="non-scaling-stroke" d="M0,44 L-6,44 M0,8.462101e+01 L-6,8.462101e+01 M0,1.252420e+02 L-6,1.252420e+02 M0,1.658630e+02 L-6,1.658630e+02 M0,2.064840e+02 L-6,2.064840e+02 M0,2.471050e+02 L-6,2.471050e+02 M0,2.877260e+02 L-6,2.877260e+02 M0,3.283470e+02 L-6,3.283470e+02 M0,3.689681e+02 L-6,3.689681e+02 "/></g><g font-family="sans-serif" stroke-width="2px" stroke-linejoin="round" font-style="normal" stroke="black" font-weight="normal" text-anchor="end" stroke-linecap="round" dominant-baseline="middle" transform="translate(80 520 )scale(1 1 )" fill="black" font-size="12px"><text vector-effect="non-scaling-stroke" x="-10" y="-44" dominant-baseline="middle" stroke="none">0s</text><text stroke="none" vector-effect="non-scaling-stroke" x="-10" y="-8.462101e+01" dominant-baseline="middle">20ms</text><text x="-10" y="-1.252420e+02" dominant-baseline="middle" stroke="none" vector-effect="non-scaling-stroke">40ms</text><text y="-1.658630e+02" dominant-baseline="middle" stroke="none" vector-effect="non-scaling-stroke" x="-10">60ms</text><text x="-10" y="-2.064840e+02" dominant-baseline="middle" stroke="none" vector-effect="non-scaling-stroke">80ms</text><text stroke="none" vector-effect="non-scaling-stroke" x="-10" y="-2.471050e+02" dominant-baseline="middle">100ms</text><text stroke="none" vector-effect="non-scaling-stroke" x="-10" y="-2.877260e+02" dominant-baseline="middle">120ms</text><text x="-10" y="-3.283470e+02" dominant-baseline="middle" stroke="none" vector-effect="non-scaling-stroke">140ms</text><text stroke="none" vector-effect="non-scaling-stroke" x="-10" y="-3.689681e+02" dominant-baseline="middle">160ms</text></g><g text-anchor="middle" fill="black" font-size="12px" transform="translate(80 520 )scale(1 1 )rotate(-90 0 0 )" stroke-linejoin="round" font-family="sans-serif" font-weight="bold" font-style="normal" dominant-baseline="hanging" stroke-width="2px" stroke-linecap="round" stroke="black"><text vector-effect="non-scaling-stroke" x="220" y="6" dominant-baseline="hanging" stroke="none">Runtime</text></g></g></g></g></svg>