<svg width="800" height="600" viewbox="0 0 800 600" preserveAspectRatio="xMidYMid meet" xmlns="http://www.w3.org/2000/svg"><defs><marker markerUnits="userSpaceOnUse" markerWidth="2%" markerHeight="2%" id="circle" viewBox="0 0 10 10 " refX="5" refY="5"><circle r="3" fill="none" stroke="black" cx="5" cy="5"/></marker><marker id="filled-circle" viewBox="0 0 10 10 " refX="5" refY="5" markerUnits="userSpaceOnUse" markerWidth="2%" markerHeight="2%"><circle cy="5" r="3" fill="black" stroke="none" cx="5"/></marker><marker markerHeight="2%" id="square" viewBox="0 0 10 10 " refX="5" refY="5" markerUnits="userSpaceOnUse" markerWidth="2%"><rect width="6" height="6" fill="none" stroke="black" x="2" y="2"/></marker><marker markerHeight="2%" id="filled-square" viewBox="0 0 10 10 " refX="5" refY="5" markerUnits="userSpaceOnUse" markerWidth="2%"><rect width="6" height="6" fill="black" stroke="none" x="2" y="2"/></marker></defs><g stroke-linejoin="round" transform="translate(80 520 )scale(1 -1 )" fill="hsl(198, 47%, 65%)" stroke="hsl(198, 47%, 65%)" stroke-width="1px" stroke-linecap="round"><rect y="0" width="1.939394e+01" height="4.426328e+01" vector-effect="non-scaling-stroke" x="4.460606e+01"/><rect width="1.939394e+01" height="4.423326e+01" vector-effect="non-scaling-stroke" x="6.593939e+01" y="0"/><rect vector-effect="non-scaling-stroke" x="8.727273e+01" y="0" width="1.939394e+01" height="4.414482e+01"/><rect height="4.533401e+01" vector-effect="non-scaling-stroke" x="1.086061e+02" y="0" width="1.939394e+01"/><rect width="1.939394e+01" height="4.414970e+01" vector-effect="non-scaling-stroke" x="1.299394e+02" y="0"/><rect vector-effect="non-scaling-stroke" x="1.512727e+02" y="0" width="1.939394e+01" height="396"/><rect height="1.265206e+02" vector-effect="non-scaling-stroke" x="1.726061e+02" y="0" width="1.939394e+01"/><rect x="1.939394e+02" y="0" width="1.939394e+01" height="4.403414e+01" vector-effect="non-scaling-stroke"/><rect vector-effect="non-scaling-stroke" x="2.152727e+02" y="0" width="1.939394e+01" height="4.785299e+01"/><rect vector-effect="non-scaling-stroke" x="2.366061e+02" y="0" width="1.939394e+01" height="4.622438e+01"/><rect width="1.939394e+01" height="5.035092e+01" vector-effect="non-scaling-stroke" x="2.579394e+02" y="0"/></g><g stroke-width="1px" stroke-linecap="round" stroke-linejoin="round" transform="translate(80 520 )scale(1 -1 )" fill="hsl(49, 88%, 65%)" stroke="hsl(49, 88%, 65%)"><rect x="64" y="0" width="1.939394e+01" height="4.422948e+01" vector-effect="non-scaling-stroke"/><rect y="0" width="1.939394e+01" height="4.421116e+01" vector-effect="non-scaling-stroke" x="8.533333e+01"/><rect vector-effect="non-scaling-stroke" x="1.066667e+02" y="0" width="1.939394e+01" height="4.404346e+01"/><rect vector-effect="non-scaling-stroke" x="1.280000e+02" y="0" width="1.939394e+01" height="4.622662e+01"/><rect height="4.410670e+01" vector-effect="non-scaling-stroke" x="1.493333e+02" y="0" width="1.939394e+01"/><rect vector-effect="non-scaling-stroke" x="1.706667e+02" y="0" width="1.939394e+01" height="3.114004e+02"/><rect width="1.939394e+01" height="1.275011e+02" vector-effect="non-scaling-stroke" x="192" y="0"/><rect vector-effect="non-scaling-stroke" x="2.133333e+02" y="0" width="1.939394e+01" height="4.401625e+01"/><rect vector-effect="non-scaling-stroke" x="256" y="0" width="1.939394e+01" height="4.418291e+01"/><rect width="1.939394e+01" height="4.918509e+01" vector-effect="non-scaling-stroke" x="2.773333e+02" y="0"/></g><g font-weight="normal" stroke="hsl(198, 47%, 65%)" stroke-linecap="round" dominant-baseline="hanging" fill="hsl(198, 47%, 65%)" stroke-linejoin="round" font-style="normal" stroke-width="1px" font-family="sans-serif" font-size="12px" text-anchor="start"><rect x="736" y="484" width="12" height="12" vector-effect="non-scaling-stroke"/><g stroke="black" fill="black"><text stroke="none" vector-effect="non-scaling-stroke" x="752" y="484" dominant-baseline="hanging">Golang</text></g><g stroke-linecap="round" fill="hsl(49, 88%, 65%)" font-style="normal" font-weight="normal" font-size="12px" dominant-baseline="hanging" stroke="hsl(49, 88%, 65%)" stroke-width="1px" font-family="sans-serif" stroke-linejoin="round" text-anchor="start"><rect height="12" vector-effect="non-scaling-stroke" x="736" y="502" width="12"/><g fill="black" stroke="black"><text stroke="none" vector-effect="non-scaling-stroke" x="752" y="502" dominant-baseline="hanging">Rust</text><g fill="none" stroke-linejoin="round" font-style="normal" font-weight="normal" font-family="sans-serif" stroke-width="2px" stroke-linecap="round" font-size="12px" text-anchor="start" dominant-baseline="hanging"><rect x="80" y="80" width="640" height="440" vector-effect="non-scaling-stroke"/></g><g font-size="12px" text-anchor="start" dominant-baseline="hanging" stroke-linejoin="round" font-weight="normal" transform="translate(80 520 )scale(1 -1 )" stroke-linecap="round" font-family="sans-serif" fill="none" font-style="normal" stroke="black" stroke-width="2px"><path vector-effect="non-scaling-stroke" d="M64,0 L64,-6 M8.533333e+01,0 L8.533333e+01,-6 M1.066667e+02,0 L1.066667e+02,-6 M128,0 L128,-6 M1.493333e+02,0 L1.493333e+02,-6 M1.706667e+02,0 L1.706667e+02,-6 M192,0 L192,-6 M2.133333e+02,0 L2.133333e+02,-6 M2.346667e+02,0 L2.346667e+02,-6 M256,0 L256,-6 M2.773333e+02,0 L2.773333e+02,-6 "/></g><g font-family="sans-serif" fill="black" font-style="normal" font-size="12px" text-anchor="middle" stroke="black" stroke-width="2px" stroke-linecap="round" transform="translate(80 520 )scale(1 1 )" stroke-linejoin="round" font-weight="normal" dominant-baseline="hanging"><text x="64" y="10" dominant-baseline="hanging" stroke="none" vector-effect="non-scaling-stroke">1</text><text y="10" dominant-baseline="hanging" stroke="none" vector-effect="non-scaling-stroke" x="8.533333e+01">2</text><text stroke="none" vector-effect="non-scaling-stroke" x="1.066667e+02" y="10" dominant-baseline="hanging">3</text><text x="128" y="10" dominant-baseline="hanging" stroke="none" vector-effect="non-scaling-stroke">4</text><text vector-effect="non-scaling-stroke" x="1.493333e+02" y="10" dominant-baseline="hanging" stroke="none">5</text><text stroke="none" vector-effect="non-scaling-stroke" x="1.706667e+02" y="10" dominant-baseline="hanging">6</text><text vector-effect="non-scaling-stroke" x="192" y="10" dominant-baseline="hanging" stroke="none">7</text><text dominant-baseline="hanging" stroke="none" vector-effect="non-scaling-stroke" x="2.133333e+02" y="10">8</text><text vector-effect="non-scaling-stroke" x="2.346667e+02" y="10" dominant-baseline="hanging" stroke="none">9</text><text stroke="none" vector-effect="non-scaling-stroke" x="256" y="10" dominant-baseline="hanging">10</text><text stroke="none" vector-effect="non-scaling-stroke" x="2.773333e+02" y="10" dominant-baseline="hanging">11</text></g><g font-size="12px" fill="black" stroke-linejoin="round" font-style="normal" dominant-baseline="baseline" stroke-linecap="round" font-family="sans-serif" font-weight="bold" transform="translate(80 520 )scale(1 1 )rotate(0 0 0 )" text-anchor="middle" stroke="black" stroke-width="2px"><text vector-effect="non-scaling-stroke" x="320" y="-6" dominant-baseline="baseline" stroke="none">Day</text></g><g stroke-linejoin="round" stroke-width="2px" font-family="sans-serif" dominant-baseline="baseline" font-style="normal" font-weight="bold" transform="translate(80 520 )scale(1 -1 )" fill="black" stroke-linecap="round" font-size="12px" text-anchor="middle" stroke="black"><path d="M0,44 L-6,44 M0,9.307912e+01 L-6,9.307912e+01 M0,1.421582e+02 L-6,1.421582e+02 M0,1.912374e+02 L-6,1.912374e+02 M0,2.403165e+02 L-6,2.403165e+02 M0,2.893956e+02 L-6,2.893956e+02 M0,3.384747e+02 L-6,3.384747e+02 M0,3.875538e+02 L-6,3.875538e+02 " vector-effect="non-scaling-stroke"/></g><g font-weight="normal" transform="translate(80 520 )scale(1 1 )" stroke="black" stroke-width="2px" stroke-linecap="round" font-family="sans-serif" stroke-linejoin="round" font-style="normal" font-size="12px" dominant-baseline="middle" fill="black" text-anchor="end"><text stroke="none" vector-effect="non-scaling-stroke" x="-10" y="-44" dominant-baseline="middle">0s</text><text stroke="none" vector-effect="non-scaling-stroke" x="-10" y="-9.307912e+01" dominant-baseline="middle">10ms</text><text stroke="none" vector-effect="non-scaling-stroke" x="-10" y="-1.421582e+02" dominant-baseline="middle">20ms</text><text stroke="none" vector-effect="non-scaling-stroke" x="-10" y="-1.912374e+02" dominant-baseline="middle">30ms</text><text vector-effect="non-scaling-stroke" x="-10" y="-2.403165e+02" dominant-baseline="middle" stroke="none">40ms</text><text dominant-baseline="middle" stroke="none" vector-effect="non-scaling-stroke" x="-10" y="-2.893956e+02">50ms</text><text dominant-baseline="middle" stroke="none" vector-effect="non-scaling-stroke" x="-10" y="-3.384747e+02">60ms</text><text y="-3.875538e+02" dominant-baseline="middle" stroke="none" vector-effect="non-scaling-stroke" x="-10">70ms</text></g><g font-family="sans-serif" font-weight="bold" transform="translate(80 520 )scale(1 1 )rotate(-90 0 0 )" stroke="black" stroke-width="2px" stroke-linecap="round" fill="black" stroke-linejoin="round" font-style="normal" font-size="12px" text-anchor="middle" dominant-baseline="hanging"><text stroke="none" vector-effect="non-scaling-stroke" x="220" y="6" dominant-baseline="hanging">Runtime</text></g></g></g></g></svg>