<svg preserveAspectRatio="xMidYMid meet" xmlns="http://www.w3.org/2000/svg" width="800" height="600" viewbox="0 0 800 600"><defs><marker markerHeight="2%" id="circle" viewBox="0 0 10 10 " refX="5" refY="5" markerUnits="userSpaceOnUse" markerWidth="2%"><circle cx="5" cy="5" r="3" fill="none" stroke="black"/></marker><marker markerUnits="userSpaceOnUse" markerWidth="2%" markerHeight="2%" id="filled-circle" viewBox="0 0 10 10 " refX="5" refY="5"><circle stroke="none" cx="5" cy="5" r="3" fill="black"/></marker><marker refY="5" markerUnits="userSpaceOnUse" markerWidth="2%" markerHeight="2%" id="square" viewBox="0 0 10 10 " refX="5"><rect x="2" y="2" width="6" height="6" fill="none" stroke="black"/></marker><marker markerHeight="2%" id="filled-square" viewBox="0 0 10 10 " refX="5" refY="5" markerUnits="userSpaceOnUse" markerWidth="2%"><rect y="2" width="6" height="6" fill="black" stroke="none" x="2"/></marker></defs><g stroke-linecap="round" stroke-linejoin="round" transform="translate(80 520 )scale(1 -1 )" fill="hsl(198, 47%, 65%)" stroke="hsl(198, 47%, 65%)" stroke-width="1px"><rect x="5.546667e+01" y="0" width="3.413333e+00" height="4.410585e+01" vector-effect="non-scaling-stroke"/><rect vector-effect="non-scaling-stroke" x="7.680000e+01" y="0" width="3.413333e+00" height="4.402472e+01"/><rect x="9.813333e+01" y="0" width="3.413333e+00" height="4.405754e+01" vector-effect="non-scaling-stroke"/></g><g stroke-width="1px" stroke-linecap="round" stroke-linejoin="round" transform="translate(80 520 )scale(1 -1 )" fill="hsl(49, 88%, 65%)" stroke="hsl(49, 88%, 65%)"><rect vector-effect="non-scaling-stroke" x="5.888000e+01" y="0" width="3.413333e+00" height="4.403052e+01"/><rect x="8.021333e+01" y="0" width="3.413333e+00" height="4.400044e+01" vector-effect="non-scaling-stroke"/><rect x="1.015467e+02" y="0" width="3.413333e+00" height="4.401220e+01" vector-effect="non-scaling-stroke"/><rect y="0" width="3.413333e+00" height="4.406251e+01" vector-effect="non-scaling-stroke" x="1.228800e+02"/><rect vector-effect="non-scaling-stroke" x="1.442133e+02" y="0" width="3.413333e+00" height="4.508927e+01"/><rect width="3.413333e+00" height="4.400051e+01" vector-effect="non-scaling-stroke" x="1.655467e+02" y="0"/><rect y="0" width="3.413333e+00" height="4.402498e+01" vector-effect="non-scaling-stroke" x="1.868800e+02"/><rect vector-effect="non-scaling-stroke" x="2.082133e+02" y="0" width="3.413333e+00" height="4.413281e+01"/><rect x="2.295467e+02" y="0" width="3.413333e+00" height="4.427518e+01" vector-effect="non-scaling-stroke"/><rect x="2.508800e+02" y="0" width="3.413333e+00" height="4.400682e+01" vector-effect="non-scaling-stroke"/><rect y="0" width="3.413333e+00" height="4.423802e+01" vector-effect="non-scaling-stroke" x="2.722133e+02"/><rect vector-effect="non-scaling-stroke" x="2.935467e+02" y="0" width="3.413333e+00" height="4.491362e+01"/><rect y="0" width="3.413333e+00" height="4.410464e+01" vector-effect="non-scaling-stroke" x="3.148800e+02"/><rect vector-effect="non-scaling-stroke" x="3.362133e+02" y="0" width="3.413333e+00" height="4.413796e+01"/><rect height="6.005092e+01" vector-effect="non-scaling-stroke" x="3.575467e+02" y="0" width="3.413333e+00"/><rect vector-effect="non-scaling-stroke" x="3.788800e+02" y="0" width="3.413333e+00" height="4.400500e+01"/><rect vector-effect="non-scaling-stroke" x="4.002133e+02" y="0" width="3.413333e+00" height="4.465910e+01"/><rect width="3.413333e+00" height="5.820003e+01" vector-effect="non-scaling-stroke" x="4.215467e+02" y="0"/><rect height="3.120484e+02" vector-effect="non-scaling-stroke" x="4.428800e+02" y="0" width="3.413333e+00"/><rect width="3.413333e+00" height="5.189396e+01" vector-effect="non-scaling-stroke" x="4.642133e+02" y="0"/><rect height="4.531949e+01" vector-effect="non-scaling-stroke" x="4.855467e+02" y="0" width="3.413333e+00"/><rect x="5.068800e+02" y="0" width="3.413333e+00" height="4.782139e+01" vector-effect="non-scaling-stroke"/><rect height="1.951494e+02" vector-effect="non-scaling-stroke" x="5.282133e+02" y="0" width="3.413333e+00"/><rect height="4.400083e+01" vector-effect="non-scaling-stroke" x="5.495467e+02" y="0" width="3.413333e+00"/><rect vector-effect="non-scaling-stroke" x="5.708800e+02" y="0" width="3.413333e+00" height="6.079170e+01"/></g><g stroke-width="1px" stroke-linecap="round" stroke-linejoin="round" transform="translate(80 520 )scale(1 -1 )" fill="hsl(260, 76%, 65%)" stroke="hsl(260, 76%, 65%)"><rect vector-effect="non-scaling-stroke" x="6.229333e+01" y="0" width="3.413333e+00" height="4.460048e+01"/><rect y="0" width="3.413333e+00" height="4.436391e+01" vector-effect="non-scaling-stroke" x="8.362667e+01"/><rect width="3.413333e+00" height="4.455350e+01" vector-effect="non-scaling-stroke" x="1.049600e+02" y="0"/></g><g stroke-width="1px" stroke-linecap="round" stroke-linejoin="round" transform="translate(80 520 )scale(1 -1 )" fill="hsl(111, 64%, 65%)" stroke="hsl(111, 64%, 65%)"><rect vector-effect="non-scaling-stroke" x="6.570667e+01" y="0" width="3.413333e+00" height="4.400900e+01"/><rect y="0" width="3.413333e+00" height="4.400042e+01" vector-effect="non-scaling-stroke" x="8.704000e+01"/><rect y="0" width="3.413333e+00" height="4.400959e+01" vector-effect="non-scaling-stroke" x="1.083733e+02"/><rect vector-effect="non-scaling-stroke" x="1.297067e+02" y="0" width="3.413333e+00" height="4.402786e+01"/><rect height="4.418077e+01" vector-effect="non-scaling-stroke" x="1.510400e+02" y="0" width="3.413333e+00"/><rect height="4.400046e+01" vector-effect="non-scaling-stroke" x="1.723733e+02" y="0" width="3.413333e+00"/><rect vector-effect="non-scaling-stroke" x="1.937067e+02" y="0" width="3.413333e+00" height="4.401162e+01"/><rect height="4.400836e+01" vector-effect="non-scaling-stroke" x="2.150400e+02" y="0" width="3.413333e+00"/><rect vector-effect="non-scaling-stroke" x="2.363733e+02" y="0" width="3.413333e+00" height="4.405064e+01"/><rect x="2.577067e+02" y="0" width="3.413333e+00" height="4.401441e+01" vector-effect="non-scaling-stroke"/><rect height="4.406238e+01" vector-effect="non-scaling-stroke" x="2.790400e+02" y="0" width="3.413333e+00"/><rect height="4.633411e+01" vector-effect="non-scaling-stroke" x="3.003733e+02" y="0" width="3.413333e+00"/><rect x="3.217067e+02" y="0" width="3.413333e+00" height="4.414147e+01" vector-effect="non-scaling-stroke"/><rect vector-effect="non-scaling-stroke" x="3.430400e+02" y="0" width="3.413333e+00" height="4.400797e+01"/><rect height="7.231552e+01" vector-effect="non-scaling-stroke" x="3.643733e+02" y="0" width="3.413333e+00"/><rect y="0" width="3.413333e+00" height="4.400313e+01" vector-effect="non-scaling-stroke" x="3.857067e+02"/><rect vector-effect="non-scaling-stroke" x="4.070400e+02" y="0" width="3.413333e+00" height="4.481472e+01"/><rect height="5.610757e+01" vector-effect="non-scaling-stroke" x="4.283733e+02" y="0" width="3.413333e+00"/><rect vector-effect="non-scaling-stroke" x="4.497067e+02" y="0" width="3.413333e+00" height="4.934652e+01"/><rect vector-effect="non-scaling-stroke" x="4.710400e+02" y="0" width="3.413333e+00" height="5.437970e+01"/><rect y="0" width="3.413333e+00" height="4.400057e+01" vector-effect="non-scaling-stroke" x="4.923733e+02"/><rect height="4.982739e+01" vector-effect="non-scaling-stroke" x="5.137067e+02" y="0" width="3.413333e+00"/><rect width="3.413333e+00" height="396" vector-effect="non-scaling-stroke" x="5.350400e+02" y="0"/><rect vector-effect="non-scaling-stroke" x="5.563733e+02" y="0" width="3.413333e+00" height="4.400479e+01"/><rect width="3.413333e+00" height="5.843428e+01" vector-effect="non-scaling-stroke" x="5.777067e+02" y="0"/></g><g stroke-linecap="round" stroke-linejoin="round" transform="translate(80 520 )scale(1 -1 )" fill="hsl(322, 52%, 65%)" stroke="hsl(322, 52%, 65%)" stroke-width="1px"><rect vector-effect="non-scaling-stroke" x="6.912000e+01" y="0" width="3.413333e+00" height="4.400296e+01"/><rect y="0" width="3.413333e+00" height="4.400038e+01" vector-effect="non-scaling-stroke" x="9.045333e+01"/><rect height="4.402937e+01" vector-effect="non-scaling-stroke" x="1.117867e+02" y="0" width="3.413333e+00"/><rect vector-effect="non-scaling-stroke" x="1.331200e+02" y="0" width="3.413333e+00" height="4.401683e+01"/><rect width="3.413333e+00" height="4.435914e+01" vector-effect="non-scaling-stroke" x="1.544533e+02" y="0"/><rect vector-effect="non-scaling-stroke" x="1.757867e+02" y="0" width="3.413333e+00" height="4.400023e+01"/><rect y="0" width="3.413333e+00" height="4.401451e+01" vector-effect="non-scaling-stroke" x="1.971200e+02"/><rect width="3.413333e+00" height="4.449540e+01" vector-effect="non-scaling-stroke" x="2.184533e+02" y="0"/><rect width="3.413333e+00" height="4.407168e+01" vector-effect="non-scaling-stroke" x="2.397867e+02" y="0"/><rect height="4.401472e+01" vector-effect="non-scaling-stroke" x="2.611200e+02" y="0" width="3.413333e+00"/><rect vector-effect="non-scaling-stroke" x="2.824533e+02" y="0" width="3.413333e+00" height="4.403985e+01"/><rect x="3.037867e+02" y="0" width="3.413333e+00" height="4.406562e+01" vector-effect="non-scaling-stroke"/><rect vector-effect="non-scaling-stroke" x="3.251200e+02" y="0" width="3.413333e+00" height="4.413559e+01"/><rect height="4.403779e+01" vector-effect="non-scaling-stroke" x="3.464533e+02" y="0" width="3.413333e+00"/><rect y="0" width="3.413333e+00" height="4.989453e+01" vector-effect="non-scaling-stroke" x="3.677867e+02"/><rect x="3.891200e+02" y="0" width="3.413333e+00" height="4.418429e+01" vector-effect="non-scaling-stroke"/><rect width="3.413333e+00" height="4.480230e+01" vector-effect="non-scaling-stroke" x="4.104533e+02" y="0"/><rect vector-effect="non-scaling-stroke" x="4.317867e+02" y="0" width="3.413333e+00" height="4.741064e+01"/><rect height="4.411180e+01" vector-effect="non-scaling-stroke" x="4.957867e+02" y="0" width="3.413333e+00"/></g><g font-family="sans-serif" font-weight="normal" dominant-baseline="hanging" font-style="normal" stroke-width="1px" font-size="12px" stroke-linecap="round" text-anchor="start" fill="hsl(198, 47%, 65%)" stroke="hsl(198, 47%, 65%)" stroke-linejoin="round"><rect vector-effect="non-scaling-stroke" x="736" y="430" width="12" height="12"/><g stroke="black" fill="black"><text stroke="none" vector-effect="non-scaling-stroke" x="752" y="430" dominant-baseline="hanging">Crystal</text></g><g stroke-linejoin="round" font-size="12px" font-style="normal" font-family="sans-serif" dominant-baseline="hanging" stroke-linecap="round" font-weight="normal" fill="hsl(49, 88%, 65%)" stroke="hsl(49, 88%, 65%)" stroke-width="1px" text-anchor="start"><rect x="736" y="448" width="12" height="12" vector-effect="non-scaling-stroke"/><g fill="black" stroke="black"><text dominant-baseline="hanging" stroke="none" vector-effect="non-scaling-stroke" x="752" y="448">Golang</text></g><g font-style="normal" font-family="sans-serif" text-anchor="start" fill="hsl(260, 76%, 65%)" stroke="hsl(260, 76%, 65%)" stroke-width="1px" stroke-linejoin="round" font-size="12px" stroke-linecap="round" font-weight="normal" dominant-baseline="hanging"><rect width="12" height="12" vector-effect="non-scaling-stroke" x="736" y="466"/><g stroke="black" fill="black"><text stroke="none" vector-effect="non-scaling-stroke" x="752" y="466" dominant-baseline="hanging">Haskell</text></g><g font-size="12px" fill="hsl(111, 64%, 65%)" stroke-width="1px" stroke-linejoin="round" dominant-baseline="hanging" font-family="sans-serif" text-anchor="start" font-style="normal" stroke="hsl(111, 64%, 65%)" stroke-linecap="round" font-weight="normal"><rect width="12" height="12" vector-effect="non-scaling-stroke" x="736" y="484"/><g stroke="black" fill="black"><text stroke="none" vector-effect="non-scaling-stroke" x="752" y="484" dominant-baseline="hanging">Rust</text></g><g dominant-baseline="hanging" stroke-width="1px" font-size="12px" text-anchor="start" font-family="sans-serif" font-weight="normal" fill="hsl(322, 52%, 65%)" stroke="hsl(322, 52%, 65%)" stroke-linejoin="round" font-style="normal" stroke-linecap="round"><rect y="502" width="12" height="12" vector-effect="non-scaling-stroke" x="736"/><g stroke="black" fill="black"><text x="752" y="502" dominant-baseline="hanging" stroke="none" vector-effect="non-scaling-stroke">Zig</text><g font-style="normal" stroke-width="2px" dominant-baseline="hanging" font-weight="normal" fill="none" stroke-linecap="round" font-family="sans-serif" font-size="12px" text-anchor="start" stroke-linejoin="round"><rect y="80" width="640" height="440" vector-effect="non-scaling-stroke" x="80"/></g><g font-size="12px" font-style="normal" stroke="black" dominant-baseline="hanging" font-weight="normal" stroke-linecap="round" font-family="sans-serif" stroke-linejoin="round" transform="translate(80 520 )scale(1 -1 )" fill="none" stroke-width="2px" text-anchor="start"><path d="M64,0 L64,-6 M8.533333e+01,0 L8.533333e+01,-6 M1.066667e+02,0 L1.066667e+02,-6 " vector-effect="non-scaling-stroke"/></g><g dominant-baseline="hanging" font-family="sans-serif" stroke-width="2px" font-size="12px" fill="black" font-weight="normal" text-anchor="middle" stroke-linejoin="round" font-style="normal" transform="translate(80 520 )scale(1 1 )" stroke="black" stroke-linecap="round"><text vector-effect="non-scaling-stroke" x="64" y="10" dominant-baseline="hanging" stroke="none">1</text><text vector-effect="non-scaling-stroke" x="8.533333e+01" y="10" dominant-baseline="hanging" stroke="none">2</text><text y="10" dominant-baseline="hanging" stroke="none" vector-effect="non-scaling-stroke" x="1.066667e+02">3</text></g><g font-size="12px" stroke="black" stroke-linejoin="round" dominant-baseline="baseline" stroke-linecap="round" text-anchor="middle" font-style="normal" transform="translate(80 520 )scale(1 1 )rotate(0 0 0 )" fill="black" stroke-width="2px" font-family="sans-serif" font-weight="bold"><text stroke="none" vector-effect="non-scaling-stroke" x="320" y="-6" dominant-baseline="baseline">Day</text></g><g transform="translate(80 520 )scale(1 -1 )" font-family="sans-serif" font-weight="bold" text-anchor="middle" dominant-baseline="baseline" fill="black" stroke-width="2px" stroke-linecap="round" stroke="black" stroke-linejoin="round" font-size="12px" font-style="normal"><path vector-effect="non-scaling-stroke" d="M0,44 L-6,44 M0,9.506087e+01 L-6,9.506087e+01 M0,1.461217e+02 L-6,1.461217e+02 M0,1.971826e+02 L-6,1.971826e+02 M0,2.482435e+02 L-6,2.482435e+02 M0,2.993044e+02 L-6,2.993044e+02 M0,3.503652e+02 L-6,3.503652e+02 "/></g><g font-style="normal" transform="translate(80 520 )scale(1 1 )" fill="black" stroke="black" stroke-linecap="round" stroke-width="2px" stroke-linejoin="round" font-size="12px" font-weight="normal" text-anchor="end" dominant-baseline="middle" font-family="sans-serif"><text vector-effect="non-scaling-stroke" x="-10" y="-44" dominant-baseline="middle" stroke="none">0s</text><text vector-effect="non-scaling-stroke" x="-10" y="-9.506087e+01" dominant-baseline="middle" stroke="none">100ms</text><text stroke="none" vector-effect="non-scaling-stroke" x="-10" y="-1.461217e+02" dominant-baseline="middle">200ms</text><text stroke="none" vector-effect="non-scaling-stroke" x="-10" y="-1.971826e+02" dominant-baseline="middle">300ms</text><text stroke="none" vector-effect="non-scaling-stroke" x="-10" y="-2.482435e+02" dominant-baseline="middle">400ms</text><text vector-effect="non-scaling-stroke" x="-10" y="-2.993044e+02" dominant-baseline="middle" stroke="none">500ms</text><text stroke="none" vector-effect="non-scaling-stroke" x="-10" y="-3.503652e+02" dominant-baseline="middle">600ms</text></g><g fill="black" stroke-width="2px" dominant-baseline="hanging" font-family="sans-serif" font-weight="bold" stroke-linejoin="round" font-size="12px" text-anchor="middle" stroke-linecap="round" font-style="normal" transform="translate(80 520 )scale(1 1 )rotate(-90 0 0 )" stroke="black"><text vector-effect="non-scaling-stroke" x="220" y="6" dominant-baseline="hanging" stroke="none">Runtime</text></g></g></g></g></g></g></g></svg>