<svg preserveAspectRatio="xMidYMid meet" xmlns="http://www.w3.org/2000/svg" width="800" height="600" viewbox="0 0 800 600"><defs><marker refY="5" markerUnits="userSpaceOnUse" markerWidth="2%" markerHeight="2%" id="circle" viewBox="0 0 10 10 " refX="5"><circle cx="5" cy="5" r="3" fill="none" stroke="black"/></marker><marker markerUnits="userSpaceOnUse" markerWidth="2%" markerHeight="2%" id="filled-circle" viewBox="0 0 10 10 " refX="5" refY="5"><circle stroke="none" cx="5" cy="5" r="3" fill="black"/></marker><marker viewBox="0 0 10 10 " refX="5" refY="5" markerUnits="userSpaceOnUse" markerWidth="2%" markerHeight="2%" id="square"><rect height="6" fill="none" stroke="black" x="2" y="2" width="6"/></marker><marker refY="5" markerUnits="userSpaceOnUse" markerWidth="2%" markerHeight="2%" id="filled-square" viewBox="0 0 10 10 " refX="5"><rect width="6" height="6" fill="black" stroke="none" x="2" y="2"/></marker></defs><g stroke-linecap="round" stroke-linejoin="round" transform="translate(80 520 )scale(1 -1 )" fill="hsl(198, 47%, 65%)" stroke="hsl(198, 47%, 65%)" stroke-width="1px"><rect vector-effect="non-scaling-stroke" x="4.029630e+01" y="0" width="2.370370e+01" height="4.426328e+01"/><rect x="6.162963e+01" y="0" width="2.370370e+01" height="4.423326e+01" vector-effect="non-scaling-stroke"/><rect x="8.296296e+01" y="0" width="2.370370e+01" height="4.414482e+01" vector-effect="non-scaling-stroke"/><rect width="2.370370e+01" height="4.533401e+01" vector-effect="non-scaling-stroke" x="1.042963e+02" y="0"/><rect vector-effect="non-scaling-stroke" x="1.256296e+02" y="0" width="2.370370e+01" height="4.414970e+01"/><rect vector-effect="non-scaling-stroke" x="1.469630e+02" y="0" width="2.370370e+01" height="396"/><rect height="1.265206e+02" vector-effect="non-scaling-stroke" x="1.682963e+02" y="0" width="2.370370e+01"/><rect height="4.403414e+01" vector-effect="non-scaling-stroke" x="1.896296e+02" y="0" width="2.370370e+01"/><rect y="0" width="2.370370e+01" height="4.785299e+01" vector-effect="non-scaling-stroke" x="2.109630e+02"/></g><g fill="hsl(49, 88%, 65%)" stroke="hsl(49, 88%, 65%)" stroke-width="1px" stroke-linecap="round" stroke-linejoin="round" transform="translate(80 520 )scale(1 -1 )"><rect x="6.400000e+01" y="0" width="2.370370e+01" height="4.422948e+01" vector-effect="non-scaling-stroke"/><rect vector-effect="non-scaling-stroke" x="8.533333e+01" y="0" width="2.370370e+01" height="4.421116e+01"/><rect vector-effect="non-scaling-stroke" x="1.066667e+02" y="0" width="2.370370e+01" height="4.404346e+01"/><rect x="128" y="0" width="2.370370e+01" height="4.622662e+01" vector-effect="non-scaling-stroke"/><rect vector-effect="non-scaling-stroke" x="1.493333e+02" y="0" width="2.370370e+01" height="4.410670e+01"/><rect vector-effect="non-scaling-stroke" x="1.706667e+02" y="0" width="2.370370e+01" height="3.114004e+02"/><rect x="192" y="0" width="2.370370e+01" height="1.275011e+02" vector-effect="non-scaling-stroke"/><rect x="2.133333e+02" y="0" width="2.370370e+01" height="4.401625e+01" vector-effect="non-scaling-stroke"/></g><g font-size="12px" font-weight="normal" text-anchor="start" stroke-width="1px" font-family="sans-serif" stroke-linecap="round" stroke-linejoin="round" fill="hsl(198, 47%, 65%)" font-style="normal" dominant-baseline="hanging" stroke="hsl(198, 47%, 65%)"><rect width="12" height="12" vector-effect="non-scaling-stroke" x="736" y="484"/><g fill="black" stroke="black"><text x="752" y="484" dominant-baseline="hanging" stroke="none" vector-effect="non-scaling-stroke">Golang</text></g><g font-style="normal" text-anchor="start" fill="hsl(49, 88%, 65%)" stroke="hsl(49, 88%, 65%)" stroke-linecap="round" stroke-linejoin="round" stroke-width="1px" dominant-baseline="hanging" font-weight="normal" font-family="sans-serif" font-size="12px"><rect vector-effect="non-scaling-stroke" x="736" y="502" width="12" height="12"/><g fill="black" stroke="black"><text dominant-baseline="hanging" stroke="none" vector-effect="non-scaling-stroke" x="752" y="502">Rust</text><g font-weight="normal" text-anchor="start" font-style="normal" stroke-linecap="round" fill="none" stroke-linejoin="round" font-family="sans-serif" font-size="12px" dominant-baseline="hanging" stroke-width="2px"><rect vector-effect="non-scaling-stroke" x="80" y="80" width="640" height="440"/></g><g font-family="sans-serif" font-weight="normal" text-anchor="start" stroke="black" stroke-linejoin="round" font-size="12px" fill="none" stroke-linecap="round" transform="translate(80 520 )scale(1 -1 )" stroke-width="2px" font-style="normal" dominant-baseline="hanging"><path d="M64,0 L64,-6 M8.533333e+01,0 L8.533333e+01,-6 M1.066667e+02,0 L1.066667e+02,-6 M128,0 L128,-6 M1.493333e+02,0 L1.493333e+02,-6 M1.706667e+02,0 L1.706667e+02,-6 M192,0 L192,-6 M2.133333e+02,0 L2.133333e+02,-6 M2.346667e+02,0 L2.346667e+02,-6 " vector-effect="non-scaling-stroke"/></g><g stroke-linecap="round" stroke-linejoin="round" font-size="12px" font-weight="normal" text-anchor="middle" dominant-baseline="hanging" transform="translate(80 520 )scale(1 1 )" stroke="black" font-family="sans-serif" fill="black" font-style="normal" stroke-width="2px"><text dominant-baseline="hanging" stroke="none" vector-effect="non-scaling-stroke" x="64" y="10">1</text><text vector-effect="non-scaling-stroke" x="8.533333e+01" y="10" dominant-baseline="hanging" stroke="none">2</text><text x="1.066667e+02" y="10" dominant-baseline="hanging" stroke="none" vector-effect="non-scaling-stroke">3</text><text dominant-baseline="hanging" stroke="none" vector-effect="non-scaling-stroke" x="128" y="10">4</text><text vector-effect="non-scaling-stroke" x="1.493333e+02" y="10" dominant-baseline="hanging" stroke="none">5</text><text vector-effect="non-scaling-stroke" x="1.706667e+02" y="10" dominant-baseline="hanging" stroke="none">6</text><text y="10" dominant-baseline="hanging" stroke="none" vector-effect="non-scaling-stroke" x="192">7</text><text vector-effect="non-scaling-stroke" x="2.133333e+02" y="10" dominant-baseline="hanging" stroke="none">8</text><text dominant-baseline="hanging" stroke="none" vector-effect="non-scaling-stroke" x="2.346667e+02" y="10">9</text></g><g dominant-baseline="baseline" stroke="black" stroke-linejoin="round" font-family="sans-serif" font-size="12px" font-weight="bold" text-anchor="middle" stroke-width="2px" font-style="normal" transform="translate(80 520 )scale(1 1 )rotate(0 0 0 )" fill="black" stroke-linecap="round"><text dominant-baseline="baseline" stroke="none" vector-effect="non-scaling-stroke" x="320" y="-6">Day</text></g><g stroke-linecap="round" font-family="sans-serif" font-size="12px" dominant-baseline="baseline" transform="translate(80 520 )scale(1 -1 )" fill="black" stroke="black" stroke-linejoin="round" font-weight="bold" text-anchor="middle" stroke-width="2px" font-style="normal"><path d="M0,44 L-6,44 M0,9.307912e+01 L-6,9.307912e+01 M0,1.421582e+02 L-6,1.421582e+02 M0,1.912374e+02 L-6,1.912374e+02 M0,2.403165e+02 L-6,2.403165e+02 M0,2.893956e+02 L-6,2.893956e+02 M0,3.384747e+02 L-6,3.384747e+02 M0,3.875538e+02 L-6,3.875538e+02 " vector-effect="non-scaling-stroke"/></g><g transform="translate(80 520 )scale(1 1 )" fill="black" stroke="black" stroke-linecap="round" font-size="12px" stroke-width="2px" font-style="normal" text-anchor="end" stroke-linejoin="round" font-family="sans-serif" dominant-baseline="middle" font-weight="normal"><text y="-44" dominant-baseline="middle" stroke="none" vector-effect="non-scaling-stroke" x="-10">0s</text><text vector-effect="non-scaling-stroke" x="-10" y="-9.307912e+01" dominant-baseline="middle" stroke="none">10ms</text><text stroke="none" vector-effect="non-scaling-stroke" x="-10" y="-1.421582e+02" dominant-baseline="middle">20ms</text><text vector-effect="non-scaling-stroke" x="-10" y="-1.912374e+02" dominant-baseline="middle" stroke="none">30ms</text><text vector-effect="non-scaling-stroke" x="-10" y="-2.403165e+02" dominant-baseline="middle" stroke="none">40ms</text><text vector-effect="non-scaling-stroke" x="-10" y="-2.893956e+02" dominant-baseline="middle" stroke="none">50ms</text><text stroke="none" vector-effect="non-scaling-stroke" x="-10" y="-3.384747e+02" dominant-baseline="middle">60ms</text><text dominant-baseline="middle" stroke="none" vector-effect="non-scaling-stroke" x="-10" y="-3.875538e+02">70ms</text></g><g font-weight="bold" text-anchor="middle" dominant-baseline="hanging" transform="translate(80 520 )scale(1 1 )rotate(-90 0 0 )" stroke-width="2px" stroke-linejoin="round" font-family="sans-serif" fill="black" stroke="black" font-style="normal" stroke-linecap="round" font-size="12px"><text stroke="none" vector-effect="non-scaling-stroke" x="220" y="6" dominant-baseline="hanging">Runtime</text></g></g></g></g></svg>