<svg height="600" viewbox="0 0 800 600" preserveAspectRatio="xMidYMid meet" xmlns="http://www.w3.org/2000/svg" width="800"><defs><marker markerUnits="userSpaceOnUse" markerWidth="2%" markerHeight="2%" id="circle" viewBox="0 0 10 10 " refX="5" refY="5"><circle fill="none" stroke="black" cx="5" cy="5" r="3"/></marker><marker markerHeight="2%" id="filled-circle" viewBox="0 0 10 10 " refX="5" refY="5" markerUnits="userSpaceOnUse" markerWidth="2%"><circle cy="5" r="3" fill="black" stroke="none" cx="5"/></marker><marker refY="5" markerUnits="userSpaceOnUse" markerWidth="2%" markerHeight="2%" id="square" viewBox="0 0 10 10 " refX="5"><rect y="2" width="6" height="6" fill="none" stroke="black" x="2"/></marker><marker markerUnits="userSpaceOnUse" markerWidth="2%" markerHeight="2%" id="filled-square" viewBox="0 0 10 10 " refX="5" refY="5"><rect width="6" height="6" fill="black" stroke="none" x="2" y="2"/></marker></defs><g stroke="hsl(198, 47%, 65%)" stroke-width="1px" stroke-linecap="round" stroke-linejoin="round" transform="translate(80 520 )scale(1 -1 )" fill="hsl(198, 47%, 65%)"><rect height="4.418910e+01" vector-effect="non-scaling-stroke" x="3.650000e+01" y="0" width="1.833333e+01"/><rect vector-effect="non-scaling-stroke" x="5.783333e+01" y="0" width="1.833333e+01" height="2.109720e+02"/><rect width="1.833333e+01" height="4.483797e+01" vector-effect="non-scaling-stroke" x="7.916667e+01" y="0"/><rect y="0" width="1.833333e+01" height="8.409037e+01" vector-effect="non-scaling-stroke" x="1.005000e+02"/></g><g fill="hsl(49, 88%, 65%)" stroke="hsl(49, 88%, 65%)" stroke-width="1px" stroke-linecap="round" stroke-linejoin="round" transform="translate(80 520 )scale(1 -1 )"><rect height="4.409569e+01" vector-effect="non-scaling-stroke" x="5.483333e+01" y="0" width="1.833333e+01"/><rect x="7.616667e+01" y="0" width="1.833333e+01" height="2.517139e+02" vector-effect="non-scaling-stroke"/><rect x="9.750000e+01" y="0" width="1.833333e+01" height="4.460115e+01" vector-effect="non-scaling-stroke"/><rect y="0" width="1.833333e+01" height="4.825407e+01" vector-effect="non-scaling-stroke" x="1.188333e+02"/></g><g transform="translate(80 520 )scale(1 -1 )" fill="hsl(260, 76%, 65%)" stroke="hsl(260, 76%, 65%)" stroke-width="1px" stroke-linecap="round" stroke-linejoin="round"><rect y="0" width="1.833333e+01" height="4.409934e+01" vector-effect="non-scaling-stroke" x="7.316667e+01"/><rect vector-effect="non-scaling-stroke" x="9.450000e+01" y="0" width="1.833333e+01" height="396"/><rect height="4.441413e+01" vector-effect="non-scaling-stroke" x="1.158333e+02" y="0" width="1.833333e+01"/><rect height="5.134806e+01" vector-effect="non-scaling-stroke" x="1.371667e+02" y="0" width="1.833333e+01"/></g><g stroke-linecap="round" font-style="normal" stroke-width="1px" stroke-linejoin="round" font-family="sans-serif" text-anchor="start" dominant-baseline="hanging" font-weight="normal" fill="hsl(198, 47%, 65%)" font-size="12px" stroke="hsl(198, 47%, 65%)"><rect x="736" y="466" width="12" height="12" vector-effect="non-scaling-stroke"/><g fill="black" stroke="black"><text x="752" y="466" dominant-baseline="hanging" stroke="none" vector-effect="non-scaling-stroke">Golang</text></g><g font-style="normal" font-weight="normal" fill="hsl(49, 88%, 65%)" font-family="sans-serif" font-size="12px" stroke="hsl(49, 88%, 65%)" stroke-linecap="round" stroke-width="1px" stroke-linejoin="round" text-anchor="start" dominant-baseline="hanging"><rect vector-effect="non-scaling-stroke" x="736" y="484" width="12" height="12"/><g stroke="black" fill="black"><text dominant-baseline="hanging" stroke="none" vector-effect="non-scaling-stroke" x="752" y="484">Rust</text></g><g font-size="12px" text-anchor="start" stroke="hsl(260, 76%, 65%)" stroke-width="1px" font-family="sans-serif" dominant-baseline="hanging" stroke-linecap="round" font-style="normal" font-weight="normal" fill="hsl(260, 76%, 65%)" stroke-linejoin="round"><rect width="12" height="12" vector-effect="non-scaling-stroke" x="736" y="502"/><g fill="black" stroke="black"><text y="502" dominant-baseline="hanging" stroke="none" vector-effect="non-scaling-stroke" x="752">Zig</text><g text-anchor="start" dominant-baseline="hanging" fill="none" stroke-linecap="round" font-style="normal" font-weight="normal" stroke-linejoin="round" font-family="sans-serif" font-size="12px" stroke-width="2px"><rect vector-effect="non-scaling-stroke" x="80" y="80" width="640" height="440"/></g><g font-family="sans-serif" font-size="12px" text-anchor="start" stroke-linecap="round" fill="none" stroke-width="2px" stroke-linejoin="round" dominant-baseline="hanging" transform="translate(80 520 )scale(1 -1 )" stroke="black" font-style="normal" font-weight="normal"><path vector-effect="non-scaling-stroke" d="M64,0 L64,-6 M8.533333e+01,0 L8.533333e+01,-6 M1.066667e+02,0 L1.066667e+02,-6 M128,0 L128,-6 "/></g><g fill="black" stroke-width="2px" stroke-linejoin="round" font-size="12px" text-anchor="middle" dominant-baseline="hanging" transform="translate(80 520 )scale(1 1 )" font-style="normal" font-family="sans-serif" stroke="black" stroke-linecap="round" font-weight="normal"><text vector-effect="non-scaling-stroke" x="64" y="10" dominant-baseline="hanging" stroke="none">1</text><text dominant-baseline="hanging" stroke="none" vector-effect="non-scaling-stroke" x="8.533333e+01" y="10">2</text><text x="1.066667e+02" y="10" dominant-baseline="hanging" stroke="none" vector-effect="non-scaling-stroke">3</text><text vector-effect="non-scaling-stroke" x="128" y="10" dominant-baseline="hanging" stroke="none">4</text></g><g fill="black" font-family="sans-serif" text-anchor="middle" dominant-baseline="baseline" transform="translate(80 520 )scale(1 1 )rotate(0 0 0 )" font-weight="bold" stroke-width="2px" stroke-linejoin="round" font-size="12px" stroke="black" stroke-linecap="round" font-style="normal"><text vector-effect="non-scaling-stroke" x="320" y="-6" dominant-baseline="baseline" stroke="none">Day</text></g><g font-family="sans-serif" dominant-baseline="baseline" stroke="black" font-style="normal" font-weight="bold" fill="black" stroke-linejoin="round" font-size="12px" text-anchor="middle" transform="translate(80 520 )scale(1 -1 )" stroke-linecap="round" stroke-width="2px"><path vector-effect="non-scaling-stroke" d="M0,44 L-6,44 M0,1.420220e+02 L-6,1.420220e+02 M0,2.400441e+02 L-6,2.400441e+02 M0,3.380661e+02 L-6,3.380661e+02 "/></g><g font-size="12px" text-anchor="end" dominant-baseline="middle" transform="translate(80 520 )scale(1 1 )" stroke-width="2px" font-family="sans-serif" stroke="black" stroke-linecap="round" font-style="normal" font-weight="normal" fill="black" stroke-linejoin="round"><text x="-10" y="-44" dominant-baseline="middle" stroke="none" vector-effect="non-scaling-stroke">0s</text><text x="-10" y="-1.420220e+02" dominant-baseline="middle" stroke="none" vector-effect="non-scaling-stroke">10ms</text><text dominant-baseline="middle" stroke="none" vector-effect="non-scaling-stroke" x="-10" y="-2.400441e+02">20ms</text><text vector-effect="non-scaling-stroke" x="-10" y="-3.380661e+02" dominant-baseline="middle" stroke="none">30ms</text></g><g font-style="normal" stroke-width="2px" stroke-linejoin="round" dominant-baseline="hanging" transform="translate(80 520 )scale(1 1 )rotate(-90 0 0 )" stroke="black" stroke-linecap="round" font-weight="bold" fill="black" font-family="sans-serif" font-size="12px" text-anchor="middle"><text x="220" y="6" dominant-baseline="hanging" stroke="none" vector-effect="non-scaling-stroke">Runtime</text></g></g></g></g></g></svg>