<svg viewbox="0 0 800 600" preserveAspectRatio="xMidYMid meet" xmlns="http://www.w3.org/2000/svg" width="800" height="600"><defs><marker refY="5" markerUnits="userSpaceOnUse" markerWidth="2%" markerHeight="2%" id="circle" viewBox="0 0 10 10 " refX="5"><circle stroke="black" cx="5" cy="5" r="3" fill="none"/></marker><marker id="filled-circle" viewBox="0 0 10 10 " refX="5" refY="5" markerUnits="userSpaceOnUse" markerWidth="2%" markerHeight="2%"><circle cx="5" cy="5" r="3" fill="black" stroke="none"/></marker><marker id="square" viewBox="0 0 10 10 " refX="5" refY="5" markerUnits="userSpaceOnUse" markerWidth="2%" markerHeight="2%"><rect fill="none" stroke="black" x="2" y="2" width="6" height="6"/></marker><marker markerHeight="2%" id="filled-square" viewBox="0 0 10 10 " refX="5" refY="5" markerUnits="userSpaceOnUse" markerWidth="2%"><rect width="6" height="6" fill="black" stroke="none" x="2" y="2"/></marker></defs><g stroke="hsl(198, 47%, 65%)" stroke-width="1px" stroke-linecap="round" stroke-linejoin="round" transform="translate(80 520 )scale(1 -1 )" fill="hsl(198, 47%, 65%)"><rect y="0" width="8.533333e+00" height="396" vector-effect="non-scaling-stroke" x="5.546667e+01"/><rect y="0" width="8.533333e+00" height="1.457686e+02" vector-effect="non-scaling-stroke" x="7.680000e+01"/><rect vector-effect="non-scaling-stroke" x="9.813333e+01" y="0" width="8.533333e+00" height="44"/><rect height="44" vector-effect="non-scaling-stroke" x="1.194667e+02" y="0" width="8.533333e+00"/><rect vector-effect="non-scaling-stroke" x="1.408000e+02" y="0" width="8.533333e+00" height="44"/><rect height="44" vector-effect="non-scaling-stroke" x="1.621333e+02" y="0" width="8.533333e+00"/><rect vector-effect="non-scaling-stroke" x="1.834667e+02" y="0" width="8.533333e+00" height="44"/><rect width="8.533333e+00" height="44" vector-effect="non-scaling-stroke" x="2.048000e+02" y="0"/><rect vector-effect="non-scaling-stroke" x="2.261333e+02" y="0" width="8.533333e+00" height="44"/><rect y="0" width="8.533333e+00" height="44" vector-effect="non-scaling-stroke" x="2.474667e+02"/><rect x="2.688000e+02" y="0" width="8.533333e+00" height="44" vector-effect="non-scaling-stroke"/><rect vector-effect="non-scaling-stroke" x="2.901333e+02" y="0" width="8.533333e+00" height="44"/><rect x="3.114667e+02" y="0" width="8.533333e+00" height="44" vector-effect="non-scaling-stroke"/><rect x="3.328000e+02" y="0" width="8.533333e+00" height="44" vector-effect="non-scaling-stroke"/><rect x="3.541333e+02" y="0" width="8.533333e+00" height="44" vector-effect="non-scaling-stroke"/><rect width="8.533333e+00" height="44" vector-effect="non-scaling-stroke" x="3.754667e+02" y="0"/><rect vector-effect="non-scaling-stroke" x="3.968000e+02" y="0" width="8.533333e+00" height="44"/><rect vector-effect="non-scaling-stroke" x="4.181333e+02" y="0" width="8.533333e+00" height="44"/><rect x="4.394667e+02" y="0" width="8.533333e+00" height="44" vector-effect="non-scaling-stroke"/><rect height="44" vector-effect="non-scaling-stroke" x="4.608000e+02" y="0" width="8.533333e+00"/><rect height="44" vector-effect="non-scaling-stroke" x="4.821333e+02" y="0" width="8.533333e+00"/><rect height="44" vector-effect="non-scaling-stroke" x="5.034667e+02" y="0" width="8.533333e+00"/><rect width="8.533333e+00" height="44" vector-effect="non-scaling-stroke" x="5.248000e+02" y="0"/><rect vector-effect="non-scaling-stroke" x="5.461333e+02" y="0" width="8.533333e+00" height="44"/><rect height="44" vector-effect="non-scaling-stroke" x="5.674667e+02" y="0" width="8.533333e+00"/></g><g fill="hsl(49, 88%, 65%)" stroke="hsl(49, 88%, 65%)" stroke-width="1px" stroke-linecap="round" stroke-linejoin="round" transform="translate(80 520 )scale(1 -1 )"><rect x="64" y="0" width="8.533333e+00" height="4.473432e+01" vector-effect="non-scaling-stroke"/><rect height="7.505755e+01" vector-effect="non-scaling-stroke" x="8.533333e+01" y="0" width="8.533333e+00"/><rect x="1.066667e+02" y="0" width="8.533333e+00" height="44" vector-effect="non-scaling-stroke"/><rect vector-effect="non-scaling-stroke" x="128" y="0" width="8.533333e+00" height="44"/><rect width="8.533333e+00" height="44" vector-effect="non-scaling-stroke" x="1.493333e+02" y="0"/><rect height="44" vector-effect="non-scaling-stroke" x="1.706667e+02" y="0" width="8.533333e+00"/><rect vector-effect="non-scaling-stroke" x="192" y="0" width="8.533333e+00" height="44"/><rect x="2.133333e+02" y="0" width="8.533333e+00" height="44" vector-effect="non-scaling-stroke"/><rect y="0" width="8.533333e+00" height="44" vector-effect="non-scaling-stroke" x="2.346667e+02"/><rect x="2.560000e+02" y="0" width="8.533333e+00" height="44" vector-effect="non-scaling-stroke"/><rect vector-effect="non-scaling-stroke" x="2.773333e+02" y="0" width="8.533333e+00" height="44"/><rect x="2.986667e+02" y="0" width="8.533333e+00" height="44" vector-effect="non-scaling-stroke"/><rect vector-effect="non-scaling-stroke" x="320" y="0" width="8.533333e+00" height="44"/><rect x="3.413333e+02" y="0" width="8.533333e+00" height="44" vector-effect="non-scaling-stroke"/><rect height="44" vector-effect="non-scaling-stroke" x="3.626667e+02" y="0" width="8.533333e+00"/><rect vector-effect="non-scaling-stroke" x="384" y="0" width="8.533333e+00" height="44"/><rect x="4.053333e+02" y="0" width="8.533333e+00" height="44" vector-effect="non-scaling-stroke"/><rect height="44" vector-effect="non-scaling-stroke" x="4.266667e+02" y="0" width="8.533333e+00"/><rect y="0" width="8.533333e+00" height="44" vector-effect="non-scaling-stroke" x="448"/><rect x="4.693333e+02" y="0" width="8.533333e+00" height="44" vector-effect="non-scaling-stroke"/><rect vector-effect="non-scaling-stroke" x="4.906667e+02" y="0" width="8.533333e+00" height="44"/><rect height="44" vector-effect="non-scaling-stroke" x="512" y="0" width="8.533333e+00"/><rect vector-effect="non-scaling-stroke" x="5.333333e+02" y="0" width="8.533333e+00" height="44"/><rect width="8.533333e+00" height="44" vector-effect="non-scaling-stroke" x="5.546667e+02" y="0"/><rect y="0" width="8.533333e+00" height="44" vector-effect="non-scaling-stroke" x="576"/></g><g dominant-baseline="hanging" font-size="12px" font-weight="normal" stroke="hsl(198, 47%, 65%)" text-anchor="start" font-family="sans-serif" stroke-width="1px" font-style="normal" fill="hsl(198, 47%, 65%)" stroke-linecap="round" stroke-linejoin="round"><rect y="484" width="12" height="12" vector-effect="non-scaling-stroke" x="736"/><g stroke="black" fill="black"><text stroke="none" vector-effect="non-scaling-stroke" x="752" y="484" dominant-baseline="hanging">Golang</text></g><g dominant-baseline="hanging" stroke-width="1px" stroke="hsl(49, 88%, 65%)" stroke-linecap="round" font-size="12px" font-weight="normal" fill="hsl(49, 88%, 65%)" stroke-linejoin="round" font-family="sans-serif" font-style="normal" text-anchor="start"><rect vector-effect="non-scaling-stroke" x="736" y="502" width="12" height="12"/><g stroke="black" fill="black"><text x="752" y="502" dominant-baseline="hanging" stroke="none" vector-effect="non-scaling-stroke">Rust</text><g stroke-width="2px" dominant-baseline="hanging" stroke-linecap="round" font-family="sans-serif" fill="none" font-size="12px" text-anchor="start" font-weight="normal" font-style="normal" stroke-linejoin="round"><rect vector-effect="non-scaling-stroke" x="80" y="80" width="640" height="440"/></g><g stroke-width="2px" stroke-linejoin="round" font-size="12px" font-style="normal" stroke="black" stroke-linecap="round" text-anchor="start" dominant-baseline="hanging" font-family="sans-serif" font-weight="normal" fill="none" transform="translate(80 520 )scale(1 -1 )"><path vector-effect="non-scaling-stroke" d="M64,0 L64,-6 M8.533333e+01,0 L8.533333e+01,-6 M1.066667e+02,0 L1.066667e+02,-6 M128,0 L128,-6 M1.493333e+02,0 L1.493333e+02,-6 M1.706667e+02,0 L1.706667e+02,-6 M192,0 L192,-6 M2.133333e+02,0 L2.133333e+02,-6 M2.346667e+02,0 L2.346667e+02,-6 M256,0 L256,-6 M2.773333e+02,0 L2.773333e+02,-6 M2.986667e+02,0 L2.986667e+02,-6 M320,0 L320,-6 M3.413333e+02,0 L3.413333e+02,-6 M3.626667e+02,0 L3.626667e+02,-6 M384,0 L384,-6 M4.053333e+02,0 L4.053333e+02,-6 M4.266667e+02,0 L4.266667e+02,-6 M448,0 L448,-6 M4.693333e+02,0 L4.693333e+02,-6 M4.906667e+02,0 L4.906667e+02,-6 M512,0 L512,-6 M5.333333e+02,0 L5.333333e+02,-6 M5.546667e+02,0 L5.546667e+02,-6 M576,0 L576,-6 "/></g><g font-style="normal" stroke="black" stroke-linecap="round" stroke-linejoin="round" transform="translate(80 520 )scale(1 1 )" dominant-baseline="hanging" font-size="12px" fill="black" font-family="sans-serif" text-anchor="middle" stroke-width="2px" font-weight="normal"><text stroke="none" vector-effect="non-scaling-stroke" x="64" y="10" dominant-baseline="hanging">1</text><text x="8.533333e+01" y="10" dominant-baseline="hanging" stroke="none" vector-effect="non-scaling-stroke">2</text><text stroke="none" vector-effect="non-scaling-stroke" x="1.066667e+02" y="10" dominant-baseline="hanging">3</text><text dominant-baseline="hanging" stroke="none" vector-effect="non-scaling-stroke" x="128" y="10">4</text><text stroke="none" vector-effect="non-scaling-stroke" x="1.493333e+02" y="10" dominant-baseline="hanging">5</text><text vector-effect="non-scaling-stroke" x="1.706667e+02" y="10" dominant-baseline="hanging" stroke="none">6</text><text vector-effect="non-scaling-stroke" x="192" y="10" dominant-baseline="hanging" stroke="none">7</text><text stroke="none" vector-effect="non-scaling-stroke" x="2.133333e+02" y="10" dominant-baseline="hanging">8</text><text y="10" dominant-baseline="hanging" stroke="none" vector-effect="non-scaling-stroke" x="2.346667e+02">9</text><text dominant-baseline="hanging" stroke="none" vector-effect="non-scaling-stroke" x="256" y="10">10</text><text vector-effect="non-scaling-stroke" x="2.773333e+02" y="10" dominant-baseline="hanging" stroke="none">11</text><text vector-effect="non-scaling-stroke" x="2.986667e+02" y="10" dominant-baseline="hanging" stroke="none">12</text><text stroke="none" vector-effect="non-scaling-stroke" x="320" y="10" dominant-baseline="hanging">13</text><text stroke="none" vector-effect="non-scaling-stroke" x="3.413333e+02" y="10" dominant-baseline="hanging">14</text><text stroke="none" vector-effect="non-scaling-stroke" x="3.626667e+02" y="10" dominant-baseline="hanging">15</text><text vector-effect="non-scaling-stroke" x="384" y="10" dominant-baseline="hanging" stroke="none">16</text><text stroke="none" vector-effect="non-scaling-stroke" x="4.053333e+02" y="10" dominant-baseline="hanging">17</text><text vector-effect="non-scaling-stroke" x="4.266667e+02" y="10" dominant-baseline="hanging" stroke="none">18</text><text x="448" y="10" dominant-baseline="hanging" stroke="none" vector-effect="non-scaling-stroke">19</text><text vector-effect="non-scaling-stroke" x="4.693333e+02" y="10" dominant-baseline="hanging" stroke="none">20</text><text y="10" dominant-baseline="hanging" stroke="none" vector-effect="non-scaling-stroke" x="4.906667e+02">21</text><text stroke="none" vector-effect="non-scaling-stroke" x="512" y="10" dominant-baseline="hanging">22</text><text y="10" dominant-baseline="hanging" stroke="none" vector-effect="non-scaling-stroke" x="5.333333e+02">23</text><text x="5.546667e+02" y="10" dominant-baseline="hanging" stroke="none" vector-effect="non-scaling-stroke">24</text><text x="576" y="10" dominant-baseline="hanging" stroke="none" vector-effect="non-scaling-stroke">25</text></g><g stroke-linejoin="round" font-weight="bold" fill="black" transform="translate(80 520 )scale(1 1 )rotate(0 0 0 )" text-anchor="middle" stroke="black" stroke-linecap="round" font-style="normal" dominant-baseline="baseline" stroke-width="2px" font-family="sans-serif" font-size="12px"><text x="320" y="-6" dominant-baseline="baseline" stroke="none" vector-effect="non-scaling-stroke">Day</text></g><g stroke-linejoin="round" font-family="sans-serif" fill="black" text-anchor="middle" stroke="black" stroke-linecap="round" font-size="12px" font-style="normal" font-weight="bold" transform="translate(80 520 )scale(1 -1 )" dominant-baseline="baseline" stroke-width="2px"><path vector-effect="non-scaling-stroke" d="M0,44 L-6,44 M0,8.719548e+01 L-6,8.719548e+01 M0,1.303910e+02 L-6,1.303910e+02 M0,1.735865e+02 L-6,1.735865e+02 M0,2.167819e+02 L-6,2.167819e+02 M0,2.599774e+02 L-6,2.599774e+02 M0,3.031729e+02 L-6,3.031729e+02 M0,3.463684e+02 L-6,3.463684e+02 M0,3.895639e+02 L-6,3.895639e+02 "/></g><g font-style="normal" stroke-width="2px" dominant-baseline="middle" fill="black" stroke-linecap="round" font-family="sans-serif" transform="translate(80 520 )scale(1 1 )" stroke="black" stroke-linejoin="round" font-size="12px" font-weight="normal" text-anchor="end"><text stroke="none" vector-effect="non-scaling-stroke" x="-10" y="-44" dominant-baseline="middle">0s</text><text x="-10" y="-8.719548e+01" dominant-baseline="middle" stroke="none" vector-effect="non-scaling-stroke">2µs</text><text x="-10" y="-1.303910e+02" dominant-baseline="middle" stroke="none" vector-effect="non-scaling-stroke">4µs</text><text dominant-baseline="middle" stroke="none" vector-effect="non-scaling-stroke" x="-10" y="-1.735865e+02">6µs</text><text stroke="none" vector-effect="non-scaling-stroke" x="-10" y="-2.167819e+02" dominant-baseline="middle">8µs</text><text x="-10" y="-2.599774e+02" dominant-baseline="middle" stroke="none" vector-effect="non-scaling-stroke">10µs</text><text y="-3.031729e+02" dominant-baseline="middle" stroke="none" vector-effect="non-scaling-stroke" x="-10">12µs</text><text dominant-baseline="middle" stroke="none" vector-effect="non-scaling-stroke" x="-10" y="-3.463684e+02">14µs</text><text x="-10" y="-3.895639e+02" dominant-baseline="middle" stroke="none" vector-effect="non-scaling-stroke">16µs</text></g><g font-size="12px" text-anchor="middle" transform="translate(80 520 )scale(1 1 )rotate(-90 0 0 )" stroke-width="2px" stroke="black" stroke-linejoin="round" font-family="sans-serif" font-style="normal" font-weight="bold" dominant-baseline="hanging" fill="black" stroke-linecap="round"><text stroke="none" vector-effect="non-scaling-stroke" x="220" y="6" dominant-baseline="hanging">Runtime</text></g></g></g></g></svg>