<svg preserveAspectRatio="xMidYMid meet" xmlns="http://www.w3.org/2000/svg" width="800" height="600" viewbox="0 0 800 600"><defs><marker markerHeight="2%" id="circle" viewBox="0 0 10 10 " refX="5" refY="5" markerUnits="userSpaceOnUse" markerWidth="2%"><circle cx="5" cy="5" r="3" fill="none" stroke="black"/></marker><marker id="filled-circle" viewBox="0 0 10 10 " refX="5" refY="5" markerUnits="userSpaceOnUse" markerWidth="2%" markerHeight="2%"><circle cx="5" cy="5" r="3" fill="black" stroke="none"/></marker><marker markerUnits="userSpaceOnUse" markerWidth="2%" markerHeight="2%" id="square" viewBox="0 0 10 10 " refX="5" refY="5"><rect fill="none" stroke="black" x="2" y="2" width="6" height="6"/></marker><marker markerHeight="2%" id="filled-square" viewBox="0 0 10 10 " refX="5" refY="5" markerUnits="userSpaceOnUse" markerWidth="2%"><rect width="6" height="6" fill="black" stroke="none" x="2" y="2"/></marker></defs><g stroke-linecap="round" stroke-linejoin="round" transform="translate(80 520 )scale(1 -1 )" fill="hsl(198, 47%, 65%)" stroke="hsl(198, 47%, 65%)" stroke-width="1px"><rect vector-effect="non-scaling-stroke" x="4.622222e+01" y="0" width="1.777778e+01" height="4.441257e+01"/><rect x="6.755556e+01" y="0" width="1.777778e+01" height="4.411410e+01" vector-effect="non-scaling-stroke"/><rect x="8.888889e+01" y="0" width="1.777778e+01" height="4.525135e+01" vector-effect="non-scaling-stroke"/><rect vector-effect="non-scaling-stroke" x="1.102222e+02" y="0" width="1.777778e+01" height="4.450511e+01"/><rect vector-effect="non-scaling-stroke" x="1.315556e+02" y="0" width="1.777778e+01" height="4.430672e+01"/><rect y="0" width="1.777778e+01" height="4.480381e+01" vector-effect="non-scaling-stroke" x="1.528889e+02"/><rect y="0" width="1.777778e+01" height="4.462087e+01" vector-effect="non-scaling-stroke" x="1.742222e+02"/><rect y="0" width="1.777778e+01" height="6.071526e+01" vector-effect="non-scaling-stroke" x="1.955556e+02"/><rect height="5.379807e+01" vector-effect="non-scaling-stroke" x="2.168889e+02" y="0" width="1.777778e+01"/><rect x="2.382222e+02" y="0" width="1.777778e+01" height="4.404087e+01" vector-effect="non-scaling-stroke"/><rect height="396" vector-effect="non-scaling-stroke" x="2.595556e+02" y="0" width="1.777778e+01"/><rect height="8.387643e+01" vector-effect="non-scaling-stroke" x="2.808889e+02" y="0" width="1.777778e+01"/></g><g fill="hsl(49, 88%, 65%)" stroke="hsl(49, 88%, 65%)" stroke-width="1px" stroke-linecap="round" stroke-linejoin="round" transform="translate(80 520 )scale(1 -1 )"><rect width="1.777778e+01" height="4.418676e+01" vector-effect="non-scaling-stroke" x="64" y="0"/><rect x="8.533333e+01" y="0" width="1.777778e+01" height="4.402739e+01" vector-effect="non-scaling-stroke"/><rect x="1.066667e+02" y="0" width="1.777778e+01" height="4.494503e+01" vector-effect="non-scaling-stroke"/><rect x="128" y="0" width="1.777778e+01" height="4.432235e+01" vector-effect="non-scaling-stroke"/><rect vector-effect="non-scaling-stroke" x="1.493333e+02" y="0" width="1.777778e+01" height="4.424934e+01"/><rect y="0" width="1.777778e+01" height="4.447789e+01" vector-effect="non-scaling-stroke" x="1.706667e+02"/><rect width="1.777778e+01" height="4.455890e+01" vector-effect="non-scaling-stroke" x="192" y="0"/><rect x="2.133333e+02" y="0" width="1.777778e+01" height="6.027557e+01" vector-effect="non-scaling-stroke"/><rect x="2.346667e+02" y="0" width="1.777778e+01" height="5.372041e+01" vector-effect="non-scaling-stroke"/><rect width="1.777778e+01" height="4.402996e+01" vector-effect="non-scaling-stroke" x="256" y="0"/><rect x="2.773333e+02" y="0" width="1.777778e+01" height="1.763100e+02" vector-effect="non-scaling-stroke"/><rect vector-effect="non-scaling-stroke" x="2.986667e+02" y="0" width="1.777778e+01" height="5.355796e+01"/></g><g stroke-linejoin="round" font-family="sans-serif" font-weight="normal" text-anchor="start" font-size="12px" font-style="normal" dominant-baseline="hanging" fill="hsl(198, 47%, 65%)" stroke-linecap="round" stroke="hsl(198, 47%, 65%)" stroke-width="1px"><rect width="12" height="12" vector-effect="non-scaling-stroke" x="736" y="484"/><g stroke="black" fill="black"><text stroke="none" vector-effect="non-scaling-stroke" x="752" y="484" dominant-baseline="hanging">Golang</text></g><g stroke-linejoin="round" stroke="hsl(49, 88%, 65%)" stroke-width="1px" font-style="normal" dominant-baseline="hanging" font-family="sans-serif" font-weight="normal" text-anchor="start" stroke-linecap="round" font-size="12px" fill="hsl(49, 88%, 65%)"><rect x="736" y="502" width="12" height="12" vector-effect="non-scaling-stroke"/><g fill="black" stroke="black"><text y="502" dominant-baseline="hanging" stroke="none" vector-effect="non-scaling-stroke" x="752">Rust</text><g font-family="sans-serif" dominant-baseline="hanging" font-size="12px" stroke-linejoin="round" fill="none" font-style="normal" stroke-linecap="round" stroke-width="2px" font-weight="normal" text-anchor="start"><rect y="80" width="640" height="440" vector-effect="non-scaling-stroke" x="80"/></g><g font-weight="normal" text-anchor="start" stroke-width="2px" stroke="black" font-size="12px" font-style="normal" dominant-baseline="hanging" fill="none" font-family="sans-serif" transform="translate(80 520 )scale(1 -1 )" stroke-linecap="round" stroke-linejoin="round"><path d="M64,0 L64,-6 M8.533333e+01,0 L8.533333e+01,-6 M1.066667e+02,0 L1.066667e+02,-6 M128,0 L128,-6 M1.493333e+02,0 L1.493333e+02,-6 M1.706667e+02,0 L1.706667e+02,-6 M192,0 L192,-6 M2.133333e+02,0 L2.133333e+02,-6 M2.346667e+02,0 L2.346667e+02,-6 M256,0 L256,-6 M2.773333e+02,0 L2.773333e+02,-6 M2.986667e+02,0 L2.986667e+02,-6 " vector-effect="non-scaling-stroke"/></g><g stroke="black" dominant-baseline="hanging" fill="black" stroke-linejoin="round" font-family="sans-serif" text-anchor="middle" stroke-linecap="round" stroke-width="2px" font-size="12px" font-style="normal" font-weight="normal" transform="translate(80 520 )scale(1 1 )"><text y="10" dominant-baseline="hanging" stroke="none" vector-effect="non-scaling-stroke" x="64">1</text><text dominant-baseline="hanging" stroke="none" vector-effect="non-scaling-stroke" x="8.533333e+01" y="10">2</text><text vector-effect="non-scaling-stroke" x="1.066667e+02" y="10" dominant-baseline="hanging" stroke="none">3</text><text stroke="none" vector-effect="non-scaling-stroke" x="128" y="10" dominant-baseline="hanging">4</text><text y="10" dominant-baseline="hanging" stroke="none" vector-effect="non-scaling-stroke" x="1.493333e+02">5</text><text y="10" dominant-baseline="hanging" stroke="none" vector-effect="non-scaling-stroke" x="1.706667e+02">6</text><text stroke="none" vector-effect="non-scaling-stroke" x="192" y="10" dominant-baseline="hanging">7</text><text y="10" dominant-baseline="hanging" stroke="none" vector-effect="non-scaling-stroke" x="2.133333e+02">8</text><text vector-effect="non-scaling-stroke" x="2.346667e+02" y="10" dominant-baseline="hanging" stroke="none">9</text><text stroke="none" vector-effect="non-scaling-stroke" x="256" y="10" dominant-baseline="hanging">10</text><text x="2.773333e+02" y="10" dominant-baseline="hanging" stroke="none" vector-effect="non-scaling-stroke">11</text><text dominant-baseline="hanging" stroke="none" vector-effect="non-scaling-stroke" x="2.986667e+02" y="10">12</text></g><g font-family="sans-serif" font-size="12px" dominant-baseline="baseline" stroke="black" stroke-width="2px" transform="translate(80 520 )scale(1 1 )rotate(0 0 0 )" stroke-linejoin="round" font-style="normal" fill="black" font-weight="bold" text-anchor="middle" stroke-linecap="round"><text vector-effect="non-scaling-stroke" x="320" y="-6" dominant-baseline="baseline" stroke="none">Day</text></g><g font-size="12px" stroke-linecap="round" stroke-linejoin="round" font-weight="bold" text-anchor="middle" stroke-width="2px" stroke="black" font-style="normal" dominant-baseline="baseline" font-family="sans-serif" transform="translate(80 520 )scale(1 -1 )" fill="black"><path d="M0,44 L-6,44 M0,9.426497e+01 L-6,9.426497e+01 M0,1.445299e+02 L-6,1.445299e+02 M0,1.947949e+02 L-6,1.947949e+02 M0,2.450599e+02 L-6,2.450599e+02 M0,2.953248e+02 L-6,2.953248e+02 M0,3.455898e+02 L-6,3.455898e+02 M0,3.958548e+02 L-6,3.958548e+02 " vector-effect="non-scaling-stroke"/></g><g stroke="black" stroke-width="2px" font-size="12px" stroke-linecap="round" text-anchor="end" font-weight="normal" dominant-baseline="middle" fill="black" font-style="normal" transform="translate(80 520 )scale(1 1 )" stroke-linejoin="round" font-family="sans-serif"><text stroke="none" vector-effect="non-scaling-stroke" x="-10" y="-44" dominant-baseline="middle">0s</text><text stroke="none" vector-effect="non-scaling-stroke" x="-10" y="-9.426497e+01" dominant-baseline="middle">2ms</text><text x="-10" y="-1.445299e+02" dominant-baseline="middle" stroke="none" vector-effect="non-scaling-stroke">4ms</text><text x="-10" y="-1.947949e+02" dominant-baseline="middle" stroke="none" vector-effect="non-scaling-stroke">6ms</text><text x="-10" y="-2.450599e+02" dominant-baseline="middle" stroke="none" vector-effect="non-scaling-stroke">8ms</text><text stroke="none" vector-effect="non-scaling-stroke" x="-10" y="-2.953248e+02" dominant-baseline="middle">10ms</text><text dominant-baseline="middle" stroke="none" vector-effect="non-scaling-stroke" x="-10" y="-3.455898e+02">12ms</text><text dominant-baseline="middle" stroke="none" vector-effect="non-scaling-stroke" x="-10" y="-3.958548e+02">14ms</text></g><g dominant-baseline="hanging" stroke="black" stroke-width="2px" text-anchor="middle" stroke-linejoin="round" font-weight="bold" font-style="normal" fill="black" font-size="12px" transform="translate(80 520 )scale(1 1 )rotate(-90 0 0 )" stroke-linecap="round" font-family="sans-serif"><text stroke="none" vector-effect="non-scaling-stroke" x="220" y="6" dominant-baseline="hanging">Runtime</text></g></g></g></g></svg>