<svg width="800" height="600" viewbox="0 0 800 600" preserveAspectRatio="xMidYMid meet" xmlns="http://www.w3.org/2000/svg"><defs><marker viewBox="0 0 10 10 " refX="5" refY="5" markerUnits="userSpaceOnUse" markerWidth="2%" markerHeight="2%" id="circle"><circle cy="5" r="3" fill="none" stroke="black" cx="5"/></marker><marker markerUnits="userSpaceOnUse" markerWidth="2%" markerHeight="2%" id="filled-circle" viewBox="0 0 10 10 " refX="5" refY="5"><circle stroke="none" cx="5" cy="5" r="3" fill="black"/></marker><marker markerWidth="2%" markerHeight="2%" id="square" viewBox="0 0 10 10 " refX="5" refY="5" markerUnits="userSpaceOnUse"><rect width="6" height="6" fill="none" stroke="black" x="2" y="2"/></marker><marker refX="5" refY="5" markerUnits="userSpaceOnUse" markerWidth="2%" markerHeight="2%" id="filled-square" viewBox="0 0 10 10 "><rect width="6" height="6" fill="black" stroke="none" x="2" y="2"/></marker></defs><g transform="translate(80 520 )scale(1 -1 )" fill="hsl(198, 47%, 65%)" stroke="hsl(198, 47%, 65%)" stroke-width="1px" stroke-linecap="round" stroke-linejoin="round"><rect height="4.426328e+01" vector-effect="non-scaling-stroke" x="3.650000e+01" y="0" width="2.750000e+01"/><rect width="2.750000e+01" height="4.423326e+01" vector-effect="non-scaling-stroke" x="5.783333e+01" y="0"/><rect width="2.750000e+01" height="4.414482e+01" vector-effect="non-scaling-stroke" x="7.916667e+01" y="0"/><rect y="0" width="2.750000e+01" height="4.533401e+01" vector-effect="non-scaling-stroke" x="1.005000e+02"/><rect vector-effect="non-scaling-stroke" x="1.218333e+02" y="0" width="2.750000e+01" height="4.414970e+01"/><rect vector-effect="non-scaling-stroke" x="1.431667e+02" y="0" width="2.750000e+01" height="396"/><rect height="1.661633e+02" vector-effect="non-scaling-stroke" x="1.645000e+02" y="0" width="2.750000e+01"/></g><g fill="hsl(49, 88%, 65%)" stroke="hsl(49, 88%, 65%)" stroke-width="1px" stroke-linecap="round" stroke-linejoin="round" transform="translate(80 520 )scale(1 -1 )"><rect height="4.423630e+01" vector-effect="non-scaling-stroke" x="64" y="0" width="2.750000e+01"/><rect width="2.750000e+01" height="4.420182e+01" vector-effect="non-scaling-stroke" x="8.533333e+01" y="0"/><rect height="4.403944e+01" vector-effect="non-scaling-stroke" x="1.066667e+02" y="0" width="2.750000e+01"/><rect height="4.622662e+01" vector-effect="non-scaling-stroke" x="128" y="0" width="2.750000e+01"/><rect vector-effect="non-scaling-stroke" x="1.493333e+02" y="0" width="2.750000e+01" height="4.410670e+01"/><rect height="2.968756e+02" vector-effect="non-scaling-stroke" x="1.706667e+02" y="0" width="2.750000e+01"/></g><g font-family="sans-serif" font-size="12px" fill="hsl(198, 47%, 65%)" stroke-linejoin="round" font-weight="normal" stroke-width="1px" font-style="normal" text-anchor="start" dominant-baseline="hanging" stroke="hsl(198, 47%, 65%)" stroke-linecap="round"><rect height="12" vector-effect="non-scaling-stroke" x="736" y="484" width="12"/><g stroke="black" fill="black"><text vector-effect="non-scaling-stroke" x="752" y="484" dominant-baseline="hanging" stroke="none">Golang</text></g><g stroke-width="1px" font-style="normal" text-anchor="start" font-size="12px" font-weight="normal" fill="hsl(49, 88%, 65%)" dominant-baseline="hanging" stroke="hsl(49, 88%, 65%)" font-family="sans-serif" stroke-linecap="round" stroke-linejoin="round"><rect height="12" vector-effect="non-scaling-stroke" x="736" y="502" width="12"/><g fill="black" stroke="black"><text y="502" dominant-baseline="hanging" stroke="none" vector-effect="non-scaling-stroke" x="752">Rust</text><g text-anchor="start" fill="none" stroke-linecap="round" font-size="12px" font-weight="normal" stroke-linejoin="round" font-family="sans-serif" dominant-baseline="hanging" font-style="normal" stroke-width="2px"><rect x="80" y="80" width="640" height="440" vector-effect="non-scaling-stroke"/></g><g dominant-baseline="hanging" font-size="12px" transform="translate(80 520 )scale(1 -1 )" stroke="black" font-style="normal" text-anchor="start" stroke-width="2px" fill="none" stroke-linecap="round" stroke-linejoin="round" font-family="sans-serif" font-weight="normal"><path vector-effect="non-scaling-stroke" d="M64,0 L64,-6 M8.533333e+01,0 L8.533333e+01,-6 M1.066667e+02,0 L1.066667e+02,-6 M128,0 L128,-6 M1.493333e+02,0 L1.493333e+02,-6 M1.706667e+02,0 L1.706667e+02,-6 M192,0 L192,-6 "/></g><g fill="black" dominant-baseline="hanging" stroke="black" text-anchor="middle" font-size="12px" transform="translate(80 520 )scale(1 1 )" stroke-linecap="round" stroke-linejoin="round" font-family="sans-serif" stroke-width="2px" font-style="normal" font-weight="normal"><text x="64" y="10" dominant-baseline="hanging" stroke="none" vector-effect="non-scaling-stroke">1</text><text y="10" dominant-baseline="hanging" stroke="none" vector-effect="non-scaling-stroke" x="8.533333e+01">2</text><text x="1.066667e+02" y="10" dominant-baseline="hanging" stroke="none" vector-effect="non-scaling-stroke">3</text><text stroke="none" vector-effect="non-scaling-stroke" x="128" y="10" dominant-baseline="hanging">4</text><text stroke="none" vector-effect="non-scaling-stroke" x="1.493333e+02" y="10" dominant-baseline="hanging">5</text><text stroke="none" vector-effect="non-scaling-stroke" x="1.706667e+02" y="10" dominant-baseline="hanging">6</text><text stroke="none" vector-effect="non-scaling-stroke" x="192" y="10" dominant-baseline="hanging">7</text></g><g transform="translate(80 520 )scale(1 1 )rotate(0 0 0 )" fill="black" stroke-linejoin="round" font-family="sans-serif" stroke="black" font-style="normal" text-anchor="middle" dominant-baseline="baseline" stroke-linecap="round" font-size="12px" font-weight="bold" stroke-width="2px"><text vector-effect="non-scaling-stroke" x="320" y="-6" dominant-baseline="baseline" stroke="none">Day</text></g><g transform="translate(80 520 )scale(1 -1 )" font-style="normal" fill="black" stroke-linecap="round" text-anchor="middle" dominant-baseline="baseline" stroke-linejoin="round" font-family="sans-serif" font-size="12px" font-weight="bold" stroke="black" stroke-width="2px"><path vector-effect="non-scaling-stroke" d="M0,44 L-6,44 M0,9.307912e+01 L-6,9.307912e+01 M0,1.421582e+02 L-6,1.421582e+02 M0,1.912374e+02 L-6,1.912374e+02 M0,2.403165e+02 L-6,2.403165e+02 M0,2.893956e+02 L-6,2.893956e+02 M0,3.384747e+02 L-6,3.384747e+02 M0,3.875538e+02 L-6,3.875538e+02 "/></g><g font-style="normal" font-size="12px" font-weight="normal" stroke-linecap="round" stroke="black" dominant-baseline="middle" stroke-width="2px" font-family="sans-serif" transform="translate(80 520 )scale(1 1 )" fill="black" stroke-linejoin="round" text-anchor="end"><text x="-10" y="-44" dominant-baseline="middle" stroke="none" vector-effect="non-scaling-stroke">0s</text><text vector-effect="non-scaling-stroke" x="-10" y="-9.307912e+01" dominant-baseline="middle" stroke="none">10ms</text><text x="-10" y="-1.421582e+02" dominant-baseline="middle" stroke="none" vector-effect="non-scaling-stroke">20ms</text><text dominant-baseline="middle" stroke="none" vector-effect="non-scaling-stroke" x="-10" y="-1.912374e+02">30ms</text><text dominant-baseline="middle" stroke="none" vector-effect="non-scaling-stroke" x="-10" y="-2.403165e+02">40ms</text><text stroke="none" vector-effect="non-scaling-stroke" x="-10" y="-2.893956e+02" dominant-baseline="middle">50ms</text><text stroke="none" vector-effect="non-scaling-stroke" x="-10" y="-3.384747e+02" dominant-baseline="middle">60ms</text><text dominant-baseline="middle" stroke="none" vector-effect="non-scaling-stroke" x="-10" y="-3.875538e+02">70ms</text></g><g text-anchor="middle" dominant-baseline="hanging" font-weight="bold" transform="translate(80 520 )scale(1 1 )rotate(-90 0 0 )" fill="black" font-size="12px" stroke="black" stroke-linecap="round" stroke-linejoin="round" font-family="sans-serif" stroke-width="2px" font-style="normal"><text dominant-baseline="hanging" stroke="none" vector-effect="non-scaling-stroke" x="220" y="6">Runtime</text></g></g></g></g></svg>