<svg xmlns="http://www.w3.org/2000/svg" width="800" height="600" viewbox="0 0 800 600" preserveAspectRatio="xMidYMid meet"><defs><marker markerUnits="userSpaceOnUse" markerWidth="2%" markerHeight="2%" id="circle" viewBox="0 0 10 10 " refX="5" refY="5"><circle fill="none" stroke="black" cx="5" cy="5" r="3"/></marker><marker viewBox="0 0 10 10 " refX="5" refY="5" markerUnits="userSpaceOnUse" markerWidth="2%" markerHeight="2%" id="filled-circle"><circle fill="black" stroke="none" cx="5" cy="5" r="3"/></marker><marker markerWidth="2%" markerHeight="2%" id="square" viewBox="0 0 10 10 " refX="5" refY="5" markerUnits="userSpaceOnUse"><rect width="6" height="6" fill="none" stroke="black" x="2" y="2"/></marker><marker markerUnits="userSpaceOnUse" markerWidth="2%" markerHeight="2%" id="filled-square" viewBox="0 0 10 10 " refX="5" refY="5"><rect y="2" width="6" height="6" fill="black" stroke="none" x="2"/></marker></defs><g fill="hsl(198, 47%, 65%)" stroke="hsl(198, 47%, 65%)" stroke-width="1px" stroke-linecap="round" stroke-linejoin="round" transform="translate(80 520 )scale(1 -1 )"><rect x="5.384127e+01" y="0" width="1.015873e+01" height="4.423525e+01" vector-effect="non-scaling-stroke"/><rect width="1.015873e+01" height="4.423326e+01" vector-effect="non-scaling-stroke" x="7.517460e+01" y="0"/><rect width="1.015873e+01" height="4.414482e+01" vector-effect="non-scaling-stroke" x="9.650794e+01" y="0"/><rect width="1.015873e+01" height="4.533401e+01" vector-effect="non-scaling-stroke" x="1.178413e+02" y="0"/><rect vector-effect="non-scaling-stroke" x="1.391746e+02" y="0" width="1.015873e+01" height="4.414970e+01"/><rect x="1.605079e+02" y="0" width="1.015873e+01" height="396" vector-effect="non-scaling-stroke"/><rect height="1.265206e+02" vector-effect="non-scaling-stroke" x="1.818413e+02" y="0" width="1.015873e+01"/><rect height="4.403414e+01" vector-effect="non-scaling-stroke" x="2.031746e+02" y="0" width="1.015873e+01"/><rect height="4.626741e+01" vector-effect="non-scaling-stroke" x="2.245079e+02" y="0" width="1.015873e+01"/><rect height="4.455961e+01" vector-effect="non-scaling-stroke" x="2.458413e+02" y="0" width="1.015873e+01"/><rect x="2.671746e+02" y="0" width="1.015873e+01" height="5.078807e+01" vector-effect="non-scaling-stroke"/><rect vector-effect="non-scaling-stroke" x="2.885079e+02" y="0" width="1.015873e+01" height="4.690133e+01"/><rect vector-effect="non-scaling-stroke" x="3.098413e+02" y="0" width="1.015873e+01" height="4.403436e+01"/><rect width="1.015873e+01" height="7.156957e+01" vector-effect="non-scaling-stroke" x="3.311746e+02" y="0"/><rect x="3.525079e+02" y="0" width="1.015873e+01" height="4.723968e+01" vector-effect="non-scaling-stroke"/><rect vector-effect="non-scaling-stroke" x="3.738413e+02" y="0" width="1.015873e+01" height="1.121467e+02"/><rect vector-effect="non-scaling-stroke" x="3.951746e+02" y="0" width="1.015873e+01" height="4.409585e+01"/><rect y="0" width="1.015873e+01" height="4.501693e+01" vector-effect="non-scaling-stroke" x="4.165079e+02"/><rect height="5.086528e+01" vector-effect="non-scaling-stroke" x="4.378413e+02" y="0" width="1.015873e+01"/><rect height="1.421085e+02" vector-effect="non-scaling-stroke" x="4.591746e+02" y="0" width="1.015873e+01"/><rect height="4.400029e+01" vector-effect="non-scaling-stroke" x="4.805079e+02" y="0" width="1.015873e+01"/></g><g stroke-linejoin="round" transform="translate(80 520 )scale(1 -1 )" fill="hsl(49, 88%, 65%)" stroke="hsl(49, 88%, 65%)" stroke-width="1px" stroke-linecap="round"><rect y="0" width="1.015873e+01" height="4.422948e+01" vector-effect="non-scaling-stroke" x="64"/><rect height="4.421116e+01" vector-effect="non-scaling-stroke" x="8.533333e+01" y="0" width="1.015873e+01"/><rect y="0" width="1.015873e+01" height="4.404346e+01" vector-effect="non-scaling-stroke" x="1.066667e+02"/><rect height="4.622662e+01" vector-effect="non-scaling-stroke" x="128" y="0" width="1.015873e+01"/><rect vector-effect="non-scaling-stroke" x="1.493333e+02" y="0" width="1.015873e+01" height="4.408438e+01"/><rect vector-effect="non-scaling-stroke" x="1.706667e+02" y="0" width="1.015873e+01" height="3.114004e+02"/><rect width="1.015873e+01" height="1.275011e+02" vector-effect="non-scaling-stroke" x="192" y="0"/><rect y="0" width="1.015873e+01" height="4.401625e+01" vector-effect="non-scaling-stroke" x="2.133333e+02"/><rect x="2.346667e+02" y="0" width="1.015873e+01" height="4.690768e+01" vector-effect="non-scaling-stroke"/><rect height="4.418291e+01" vector-effect="non-scaling-stroke" x="2.560000e+02" y="0" width="1.015873e+01"/><rect vector-effect="non-scaling-stroke" x="2.773333e+02" y="0" width="1.015873e+01" height="4.918509e+01"/><rect vector-effect="non-scaling-stroke" x="2.986667e+02" y="0" width="1.015873e+01" height="4.621178e+01"/><rect y="0" width="1.015873e+01" height="4.402768e+01" vector-effect="non-scaling-stroke" x="320"/><rect height="6.266067e+01" vector-effect="non-scaling-stroke" x="3.413333e+02" y="0" width="1.015873e+01"/><rect width="1.015873e+01" height="5.329766e+01" vector-effect="non-scaling-stroke" x="3.626667e+02" y="0"/><rect vector-effect="non-scaling-stroke" x="384" y="0" width="1.015873e+01" height="9.482237e+01"/><rect vector-effect="non-scaling-stroke" x="4.053333e+02" y="0" width="1.015873e+01" height="4.487092e+01"/><rect width="1.015873e+01" height="4.460063e+01" vector-effect="non-scaling-stroke" x="4.266667e+02" y="0"/><rect width="1.015873e+01" height="5.337299e+01" vector-effect="non-scaling-stroke" x="448" y="0"/><rect y="0" width="1.015873e+01" height="1.703957e+02" vector-effect="non-scaling-stroke" x="4.693333e+02"/></g><g stroke-width="1px" text-anchor="start" fill="hsl(198, 47%, 65%)" stroke-linejoin="round" font-weight="normal" stroke="hsl(198, 47%, 65%)" font-family="sans-serif" font-size="12px" font-style="normal" dominant-baseline="hanging" stroke-linecap="round"><rect x="736" y="484" width="12" height="12" vector-effect="non-scaling-stroke"/><g fill="black" stroke="black"><text stroke="none" vector-effect="non-scaling-stroke" x="752" y="484" dominant-baseline="hanging">Golang</text></g><g stroke-linejoin="round" font-style="normal" font-family="sans-serif" text-anchor="start" fill="hsl(49, 88%, 65%)" font-weight="normal" stroke="hsl(49, 88%, 65%)" font-size="12px" dominant-baseline="hanging" stroke-width="1px" stroke-linecap="round"><rect x="736" y="502" width="12" height="12" vector-effect="non-scaling-stroke"/><g stroke="black" fill="black"><text vector-effect="non-scaling-stroke" x="752" y="502" dominant-baseline="hanging" stroke="none">Rust</text><g fill="none" stroke-linejoin="round" font-weight="normal" font-style="normal" text-anchor="start" stroke-linecap="round" font-family="sans-serif" stroke-width="2px" font-size="12px" dominant-baseline="hanging"><rect vector-effect="non-scaling-stroke" x="80" y="80" width="640" height="440"/></g><g font-family="sans-serif" font-weight="normal" text-anchor="start" fill="none" stroke="black" font-style="normal" stroke-width="2px" transform="translate(80 520 )scale(1 -1 )" stroke-linejoin="round" font-size="12px" dominant-baseline="hanging" stroke-linecap="round"><path vector-effect="non-scaling-stroke" d="M64,0 L64,-6 M8.533333e+01,0 L8.533333e+01,-6 M1.066667e+02,0 L1.066667e+02,-6 M128,0 L128,-6 M1.493333e+02,0 L1.493333e+02,-6 M1.706667e+02,0 L1.706667e+02,-6 M192,0 L192,-6 M2.133333e+02,0 L2.133333e+02,-6 M2.346667e+02,0 L2.346667e+02,-6 M256,0 L256,-6 M2.773333e+02,0 L2.773333e+02,-6 M2.986667e+02,0 L2.986667e+02,-6 M320,0 L320,-6 M3.413333e+02,0 L3.413333e+02,-6 M3.626667e+02,0 L3.626667e+02,-6 M384,0 L384,-6 M4.053333e+02,0 L4.053333e+02,-6 M4.266667e+02,0 L4.266667e+02,-6 M448,0 L448,-6 M4.693333e+02,0 L4.693333e+02,-6 M4.906667e+02,0 L4.906667e+02,-6 "/></g><g text-anchor="middle" stroke-linejoin="round" font-size="12px" font-style="normal" dominant-baseline="hanging" stroke-width="2px" font-family="sans-serif" stroke-linecap="round" font-weight="normal" transform="translate(80 520 )scale(1 1 )" fill="black" stroke="black"><text stroke="none" vector-effect="non-scaling-stroke" x="64" y="10" dominant-baseline="hanging">1</text><text vector-effect="non-scaling-stroke" x="8.533333e+01" y="10" dominant-baseline="hanging" stroke="none">2</text><text vector-effect="non-scaling-stroke" x="1.066667e+02" y="10" dominant-baseline="hanging" stroke="none">3</text><text y="10" dominant-baseline="hanging" stroke="none" vector-effect="non-scaling-stroke" x="128">4</text><text dominant-baseline="hanging" stroke="none" vector-effect="non-scaling-stroke" x="1.493333e+02" y="10">5</text><text vector-effect="non-scaling-stroke" x="1.706667e+02" y="10" dominant-baseline="hanging" stroke="none">6</text><text y="10" dominant-baseline="hanging" stroke="none" vector-effect="non-scaling-stroke" x="192">7</text><text y="10" dominant-baseline="hanging" stroke="none" vector-effect="non-scaling-stroke" x="2.133333e+02">8</text><text dominant-baseline="hanging" stroke="none" vector-effect="non-scaling-stroke" x="2.346667e+02" y="10">9</text><text dominant-baseline="hanging" stroke="none" vector-effect="non-scaling-stroke" x="256" y="10">10</text><text y="10" dominant-baseline="hanging" stroke="none" vector-effect="non-scaling-stroke" x="2.773333e+02">11</text><text stroke="none" vector-effect="non-scaling-stroke" x="2.986667e+02" y="10" dominant-baseline="hanging">12</text><text x="320" y="10" dominant-baseline="hanging" stroke="none" vector-effect="non-scaling-stroke">13</text><text stroke="none" vector-effect="non-scaling-stroke" x="3.413333e+02" y="10" dominant-baseline="hanging">14</text><text stroke="none" vector-effect="non-scaling-stroke" x="3.626667e+02" y="10" dominant-baseline="hanging">15</text><text y="10" dominant-baseline="hanging" stroke="none" vector-effect="non-scaling-stroke" x="384">16</text><text x="4.053333e+02" y="10" dominant-baseline="hanging" stroke="none" vector-effect="non-scaling-stroke">17</text><text vector-effect="non-scaling-stroke" x="4.266667e+02" y="10" dominant-baseline="hanging" stroke="none">18</text><text y="10" dominant-baseline="hanging" stroke="none" vector-effect="non-scaling-stroke" x="448">19</text><text dominant-baseline="hanging" stroke="none" vector-effect="non-scaling-stroke" x="4.693333e+02" y="10">20</text><text dominant-baseline="hanging" stroke="none" vector-effect="non-scaling-stroke" x="4.906667e+02" y="10">21</text></g><g stroke-linejoin="round" text-anchor="middle" transform="translate(80 520 )scale(1 1 )rotate(0 0 0 )" stroke-width="2px" stroke-linecap="round" font-style="normal" fill="black" stroke="black" dominant-baseline="baseline" font-size="12px" font-weight="bold" font-family="sans-serif"><text vector-effect="non-scaling-stroke" x="320" y="-6" dominant-baseline="baseline" stroke="none">Day</text></g><g dominant-baseline="baseline" stroke-width="2px" font-family="sans-serif" stroke="black" stroke-linejoin="round" font-style="normal" font-weight="bold" stroke-linecap="round" font-size="12px" text-anchor="middle" transform="translate(80 520 )scale(1 -1 )" fill="black"><path vector-effect="non-scaling-stroke" d="M0,44 L-6,44 M0,9.307912e+01 L-6,9.307912e+01 M0,1.421582e+02 L-6,1.421582e+02 M0,1.912374e+02 L-6,1.912374e+02 M0,2.403165e+02 L-6,2.403165e+02 M0,2.893956e+02 L-6,2.893956e+02 M0,3.384747e+02 L-6,3.384747e+02 M0,3.875538e+02 L-6,3.875538e+02 "/></g><g stroke="black" stroke-linejoin="round" font-weight="normal" text-anchor="end" stroke-width="2px" font-size="12px" dominant-baseline="middle" fill="black" transform="translate(80 520 )scale(1 1 )" stroke-linecap="round" font-family="sans-serif" font-style="normal"><text dominant-baseline="middle" stroke="none" vector-effect="non-scaling-stroke" x="-10" y="-44">0s</text><text dominant-baseline="middle" stroke="none" vector-effect="non-scaling-stroke" x="-10" y="-9.307912e+01">10ms</text><text dominant-baseline="middle" stroke="none" vector-effect="non-scaling-stroke" x="-10" y="-1.421582e+02">20ms</text><text dominant-baseline="middle" stroke="none" vector-effect="non-scaling-stroke" x="-10" y="-1.912374e+02">30ms</text><text stroke="none" vector-effect="non-scaling-stroke" x="-10" y="-2.403165e+02" dominant-baseline="middle">40ms</text><text stroke="none" vector-effect="non-scaling-stroke" x="-10" y="-2.893956e+02" dominant-baseline="middle">50ms</text><text stroke="none" vector-effect="non-scaling-stroke" x="-10" y="-3.384747e+02" dominant-baseline="middle">60ms</text><text vector-effect="non-scaling-stroke" x="-10" y="-3.875538e+02" dominant-baseline="middle" stroke="none">70ms</text></g><g fill="black" stroke-linejoin="round" stroke-width="2px" font-size="12px" font-style="normal" stroke="black" font-weight="bold" text-anchor="middle" transform="translate(80 520 )scale(1 1 )rotate(-90 0 0 )" stroke-linecap="round" font-family="sans-serif" dominant-baseline="hanging"><text y="6" dominant-baseline="hanging" stroke="none" vector-effect="non-scaling-stroke" x="220">Runtime</text></g></g></g></g></svg>