<svg preserveAspectRatio="xMidYMid meet" xmlns="http://www.w3.org/2000/svg" width="800" height="600" viewbox="0 0 800 600"><defs><marker markerUnits="userSpaceOnUse" markerWidth="2%" markerHeight="2%" id="circle" viewBox="0 0 10 10 " refX="5" refY="5"><circle cx="5" cy="5" r="3" fill="none" stroke="black"/></marker><marker markerHeight="2%" id="filled-circle" viewBox="0 0 10 10 " refX="5" refY="5" markerUnits="userSpaceOnUse" markerWidth="2%"><circle cx="5" cy="5" r="3" fill="black" stroke="none"/></marker><marker id="square" viewBox="0 0 10 10 " refX="5" refY="5" markerUnits="userSpaceOnUse" markerWidth="2%" markerHeight="2%"><rect x="2" y="2" width="6" height="6" fill="none" stroke="black"/></marker><marker markerHeight="2%" id="filled-square" viewBox="0 0 10 10 " refX="5" refY="5" markerUnits="userSpaceOnUse" markerWidth="2%"><rect stroke="none" x="2" y="2" width="6" height="6" fill="black"/></marker></defs><g fill="hsl(198, 47%, 65%)" stroke="hsl(198, 47%, 65%)" stroke-width="1px" stroke-linecap="round" stroke-linejoin="round" transform="translate(80 520 )scale(1 -1 )"><rect width="5.688889e+00" height="4.434578e+01" vector-effect="non-scaling-stroke" x="5.546667e+01" y="0"/><rect vector-effect="non-scaling-stroke" x="7.680000e+01" y="0" width="5.688889e+00" height="4.434818e+01"/><rect vector-effect="non-scaling-stroke" x="9.813333e+01" y="0" width="5.688889e+00" height="4.421305e+01"/><rect vector-effect="non-scaling-stroke" x="1.194667e+02" y="0" width="5.688889e+00" height="4.599119e+01"/><rect vector-effect="non-scaling-stroke" x="1.408000e+02" y="0" width="5.688889e+00" height="4.422345e+01"/><rect y="0" width="5.688889e+00" height="8.020621e+01" vector-effect="non-scaling-stroke" x="1.621333e+02"/><rect vector-effect="non-scaling-stroke" x="1.834667e+02" y="0" width="5.688889e+00" height="4.611048e+01"/><rect width="5.688889e+00" height="4.404970e+01" vector-effect="non-scaling-stroke" x="2.048000e+02" y="0"/><rect y="0" width="5.688889e+00" height="4.738440e+01" vector-effect="non-scaling-stroke" x="2.261333e+02"/><rect height="4.483576e+01" vector-effect="non-scaling-stroke" x="2.474667e+02" y="0" width="5.688889e+00"/><rect x="2.688000e+02" y="0" width="5.688889e+00" height="5.410432e+01" vector-effect="non-scaling-stroke"/><rect vector-effect="non-scaling-stroke" x="2.901333e+02" y="0" width="5.688889e+00" height="4.833061e+01"/><rect width="5.688889e+00" height="4.405287e+01" vector-effect="non-scaling-stroke" x="3.114667e+02" y="0"/><rect x="3.328000e+02" y="0" width="5.688889e+00" height="4.596460e+01" vector-effect="non-scaling-stroke"/><rect vector-effect="non-scaling-stroke" x="3.541333e+02" y="0" width="5.688889e+00" height="4.843917e+01"/><rect y="0" width="5.688889e+00" height="4.813988e+01" vector-effect="non-scaling-stroke" x="3.754667e+02"/><rect y="0" width="5.688889e+00" height="4.414219e+01" vector-effect="non-scaling-stroke" x="3.968000e+02"/><rect width="5.688889e+00" height="4.550780e+01" vector-effect="non-scaling-stroke" x="4.181333e+02" y="0"/><rect x="4.394667e+02" y="0" width="5.688889e+00" height="5.424731e+01" vector-effect="non-scaling-stroke"/><rect vector-effect="non-scaling-stroke" x="4.608000e+02" y="0" width="5.688889e+00" height="1.899797e+02"/><rect vector-effect="non-scaling-stroke" x="4.821333e+02" y="0" width="5.688889e+00" height="4.400046e+01"/><rect height="1.261080e+02" vector-effect="non-scaling-stroke" x="5.034667e+02" y="0" width="5.688889e+00"/><rect x="5.248000e+02" y="0" width="5.688889e+00" height="1.370142e+02" vector-effect="non-scaling-stroke"/><rect x="5.461333e+02" y="0" width="5.688889e+00" height="4.431128e+01" vector-effect="non-scaling-stroke"/><rect x="5.674667e+02" y="0" width="5.688889e+00" height="4.604196e+01" vector-effect="non-scaling-stroke"/></g><g transform="translate(80 520 )scale(1 -1 )" fill="hsl(49, 88%, 65%)" stroke="hsl(49, 88%, 65%)" stroke-width="1px" stroke-linecap="round" stroke-linejoin="round"><rect height="4.413559e+01" vector-effect="non-scaling-stroke" x="6.115556e+01" y="0" width="5.688889e+00"/><rect height="4.431519e+01" vector-effect="non-scaling-stroke" x="8.248889e+01" y="0" width="5.688889e+00"/><rect height="4.406487e+01" vector-effect="non-scaling-stroke" x="1.038222e+02" y="0" width="5.688889e+00"/><rect vector-effect="non-scaling-stroke" x="1.251556e+02" y="0" width="5.688889e+00" height="4.732352e+01"/><rect width="5.688889e+00" height="4.412595e+01" vector-effect="non-scaling-stroke" x="1.464889e+02" y="0"/><rect y="0" width="5.688889e+00" height="7.172105e+01" vector-effect="non-scaling-stroke" x="1.678222e+02"/><rect width="5.688889e+00" height="4.577847e+01" vector-effect="non-scaling-stroke" x="1.891556e+02" y="0"/><rect height="4.402425e+01" vector-effect="non-scaling-stroke" x="2.104889e+02" y="0" width="5.688889e+00"/><rect height="4.804309e+01" vector-effect="non-scaling-stroke" x="2.318222e+02" y="0" width="5.688889e+00"/><rect width="5.688889e+00" height="4.428583e+01" vector-effect="non-scaling-stroke" x="2.531556e+02" y="0"/><rect width="5.688889e+00" height="5.173941e+01" vector-effect="non-scaling-stroke" x="2.744889e+02" y="0"/><rect vector-effect="non-scaling-stroke" x="2.958222e+02" y="0" width="5.688889e+00" height="4.730137e+01"/><rect vector-effect="non-scaling-stroke" x="3.171556e+02" y="0" width="5.688889e+00" height="4.404132e+01"/><rect x="3.384889e+02" y="0" width="5.688889e+00" height="7.185346e+01" vector-effect="non-scaling-stroke"/><rect width="5.688889e+00" height="5.723772e+01" vector-effect="non-scaling-stroke" x="3.598222e+02" y="0"/><rect vector-effect="non-scaling-stroke" x="3.811556e+02" y="0" width="5.688889e+00" height="8.506811e+01"/><rect height="4.558204e+01" vector-effect="non-scaling-stroke" x="4.024889e+02" y="0" width="5.688889e+00"/><rect vector-effect="non-scaling-stroke" x="4.238222e+02" y="0" width="5.688889e+00" height="4.490598e+01"/><rect y="0" width="5.688889e+00" height="5.722012e+01" vector-effect="non-scaling-stroke" x="4.451556e+02"/><rect height="2.326620e+02" vector-effect="non-scaling-stroke" x="4.664889e+02" y="0" width="5.688889e+00"/><rect vector-effect="non-scaling-stroke" x="4.878222e+02" y="0" width="5.688889e+00" height="4.400021e+01"/><rect height="396" vector-effect="non-scaling-stroke" x="5.091556e+02" y="0" width="5.688889e+00"/><rect width="5.688889e+00" height="4.797911e+01" vector-effect="non-scaling-stroke" x="5.304889e+02" y="0"/><rect width="5.688889e+00" height="4.457424e+01" vector-effect="non-scaling-stroke" x="5.518222e+02" y="0"/><rect width="5.688889e+00" height="4.545673e+01" vector-effect="non-scaling-stroke" x="5.731556e+02" y="0"/></g><g stroke-linejoin="round" transform="translate(80 520 )scale(1 -1 )" fill="hsl(260, 76%, 65%)" stroke="hsl(260, 76%, 65%)" stroke-width="1px" stroke-linecap="round"><rect height="4.425745e+01" vector-effect="non-scaling-stroke" x="6.684444e+01" y="0" width="5.688889e+00"/><rect vector-effect="non-scaling-stroke" x="8.817778e+01" y="0" width="5.688889e+00" height="4.418796e+01"/><rect y="0" width="5.688889e+00" height="4.421283e+01" vector-effect="non-scaling-stroke" x="1.095111e+02"/><rect y="0" width="5.688889e+00" height="4.510324e+01" vector-effect="non-scaling-stroke" x="1.308444e+02"/><rect x="1.521778e+02" y="0" width="5.688889e+00" height="4.411748e+01" vector-effect="non-scaling-stroke"/><rect y="0" width="5.688889e+00" height="7.744669e+01" vector-effect="non-scaling-stroke" x="1.735111e+02"/><rect vector-effect="non-scaling-stroke" x="1.948444e+02" y="0" width="5.688889e+00" height="4.569312e+01"/><rect x="2.161778e+02" y="0" width="5.688889e+00" height="4.403189e+01" vector-effect="non-scaling-stroke"/><rect width="5.688889e+00" height="4.642947e+01" vector-effect="non-scaling-stroke" x="2.375111e+02" y="0"/><rect y="0" width="5.688889e+00" height="5.348919e+01" vector-effect="non-scaling-stroke" x="2.588444e+02"/><rect x="2.801778e+02" y="0" width="5.688889e+00" height="5.204300e+01" vector-effect="non-scaling-stroke"/><rect width="5.688889e+00" height="1.506315e+02" vector-effect="non-scaling-stroke" x="3.015111e+02" y="0"/><rect x="3.228444e+02" y="0" width="5.688889e+00" height="4.403720e+01" vector-effect="non-scaling-stroke"/><rect height="8.032232e+01" vector-effect="non-scaling-stroke" x="3.441778e+02" y="0" width="5.688889e+00"/><rect width="5.688889e+00" height="5.284835e+01" vector-effect="non-scaling-stroke" x="3.655111e+02" y="0"/><rect x="3.868444e+02" y="0" width="5.688889e+00" height="1.136754e+02" vector-effect="non-scaling-stroke"/><rect width="5.688889e+00" height="4.463864e+01" vector-effect="non-scaling-stroke" x="4.081778e+02" y="0"/><rect vector-effect="non-scaling-stroke" x="4.295111e+02" y="0" width="5.688889e+00" height="4.536153e+01"/><rect height="5.928947e+01" vector-effect="non-scaling-stroke" x="4.508444e+02" y="0" width="5.688889e+00"/><rect y="0" width="5.688889e+00" height="2.078842e+02" vector-effect="non-scaling-stroke" x="4.721778e+02"/><rect y="0" width="5.688889e+00" height="4.414643e+01" vector-effect="non-scaling-stroke" x="4.935111e+02"/><rect y="0" width="5.688889e+00" height="3.302784e+02" vector-effect="non-scaling-stroke" x="5.148444e+02"/><rect x="5.361778e+02" y="0" width="5.688889e+00" height="4.770778e+01" vector-effect="non-scaling-stroke"/><rect vector-effect="non-scaling-stroke" x="5.575111e+02" y="0" width="5.688889e+00" height="4.483306e+01"/><rect height="4.522071e+01" vector-effect="non-scaling-stroke" x="5.788444e+02" y="0" width="5.688889e+00"/></g><g stroke-linejoin="round" font-weight="normal" stroke-linecap="round" font-family="sans-serif" font-size="12px" dominant-baseline="hanging" stroke-width="1px" fill="hsl(198, 47%, 65%)" stroke="hsl(198, 47%, 65%)" font-style="normal" text-anchor="start"><rect width="12" height="12" vector-effect="non-scaling-stroke" x="736" y="466"/><g stroke="black" fill="black"><text x="752" y="466" dominant-baseline="hanging" stroke="none" vector-effect="non-scaling-stroke">Golang</text></g><g stroke-linecap="round" font-family="sans-serif" stroke-linejoin="round" dominant-baseline="hanging" fill="hsl(49, 88%, 65%)" text-anchor="start" stroke="hsl(49, 88%, 65%)" stroke-width="1px" font-style="normal" font-size="12px" font-weight="normal"><rect height="12" vector-effect="non-scaling-stroke" x="736" y="484" width="12"/><g stroke="black" fill="black"><text x="752" y="484" dominant-baseline="hanging" stroke="none" vector-effect="non-scaling-stroke">Rust</text></g><g font-family="sans-serif" font-size="12px" stroke-linejoin="round" font-style="normal" text-anchor="start" fill="hsl(260, 76%, 65%)" stroke-linecap="round" dominant-baseline="hanging" stroke="hsl(260, 76%, 65%)" stroke-width="1px" font-weight="normal"><rect vector-effect="non-scaling-stroke" x="736" y="502" width="12" height="12"/><g fill="black" stroke="black"><text dominant-baseline="hanging" stroke="none" vector-effect="non-scaling-stroke" x="752" y="502">Zig</text><g dominant-baseline="hanging" text-anchor="start" stroke-linejoin="round" font-style="normal" fill="none" font-weight="normal" stroke-linecap="round" font-family="sans-serif" font-size="12px" stroke-width="2px"><rect height="440" vector-effect="non-scaling-stroke" x="80" y="80" width="640"/></g><g font-size="12px" dominant-baseline="hanging" stroke-linejoin="round" stroke="black" stroke-width="2px" font-style="normal" font-weight="normal" text-anchor="start" fill="none" stroke-linecap="round" transform="translate(80 520 )scale(1 -1 )" font-family="sans-serif"><path vector-effect="non-scaling-stroke" d="M64,0 L64,-6 M8.533333e+01,0 L8.533333e+01,-6 M1.066667e+02,0 L1.066667e+02,-6 M128,0 L128,-6 M1.493333e+02,0 L1.493333e+02,-6 M1.706667e+02,0 L1.706667e+02,-6 M192,0 L192,-6 M2.133333e+02,0 L2.133333e+02,-6 M2.346667e+02,0 L2.346667e+02,-6 M256,0 L256,-6 M2.773333e+02,0 L2.773333e+02,-6 M2.986667e+02,0 L2.986667e+02,-6 M320,0 L320,-6 M3.413333e+02,0 L3.413333e+02,-6 M3.626667e+02,0 L3.626667e+02,-6 M384,0 L384,-6 M4.053333e+02,0 L4.053333e+02,-6 M4.266667e+02,0 L4.266667e+02,-6 M448,0 L448,-6 M4.693333e+02,0 L4.693333e+02,-6 M4.906667e+02,0 L4.906667e+02,-6 M512,0 L512,-6 M5.333333e+02,0 L5.333333e+02,-6 M5.546667e+02,0 L5.546667e+02,-6 M576,0 L576,-6 "/></g><g font-style="normal" dominant-baseline="hanging" stroke-linecap="round" text-anchor="middle" transform="translate(80 520 )scale(1 1 )" stroke="black" fill="black" font-family="sans-serif" font-size="12px" font-weight="normal" stroke-width="2px" stroke-linejoin="round"><text y="10" dominant-baseline="hanging" stroke="none" vector-effect="non-scaling-stroke" x="64">1</text><text dominant-baseline="hanging" stroke="none" vector-effect="non-scaling-stroke" x="8.533333e+01" y="10">2</text><text dominant-baseline="hanging" stroke="none" vector-effect="non-scaling-stroke" x="1.066667e+02" y="10">3</text><text stroke="none" vector-effect="non-scaling-stroke" x="128" y="10" dominant-baseline="hanging">4</text><text y="10" dominant-baseline="hanging" stroke="none" vector-effect="non-scaling-stroke" x="1.493333e+02">5</text><text dominant-baseline="hanging" stroke="none" vector-effect="non-scaling-stroke" x="1.706667e+02" y="10">6</text><text stroke="none" vector-effect="non-scaling-stroke" x="192" y="10" dominant-baseline="hanging">7</text><text vector-effect="non-scaling-stroke" x="2.133333e+02" y="10" dominant-baseline="hanging" stroke="none">8</text><text stroke="none" vector-effect="non-scaling-stroke" x="2.346667e+02" y="10" dominant-baseline="hanging">9</text><text y="10" dominant-baseline="hanging" stroke="none" vector-effect="non-scaling-stroke" x="256">10</text><text x="2.773333e+02" y="10" dominant-baseline="hanging" stroke="none" vector-effect="non-scaling-stroke">11</text><text vector-effect="non-scaling-stroke" x="2.986667e+02" y="10" dominant-baseline="hanging" stroke="none">12</text><text vector-effect="non-scaling-stroke" x="320" y="10" dominant-baseline="hanging" stroke="none">13</text><text x="3.413333e+02" y="10" dominant-baseline="hanging" stroke="none" vector-effect="non-scaling-stroke">14</text><text x="3.626667e+02" y="10" dominant-baseline="hanging" stroke="none" vector-effect="non-scaling-stroke">15</text><text vector-effect="non-scaling-stroke" x="384" y="10" dominant-baseline="hanging" stroke="none">16</text><text stroke="none" vector-effect="non-scaling-stroke" x="4.053333e+02" y="10" dominant-baseline="hanging">17</text><text dominant-baseline="hanging" stroke="none" vector-effect="non-scaling-stroke" x="4.266667e+02" y="10">18</text><text stroke="none" vector-effect="non-scaling-stroke" x="448" y="10" dominant-baseline="hanging">19</text><text vector-effect="non-scaling-stroke" x="4.693333e+02" y="10" dominant-baseline="hanging" stroke="none">20</text><text stroke="none" vector-effect="non-scaling-stroke" x="4.906667e+02" y="10" dominant-baseline="hanging">21</text><text x="512" y="10" dominant-baseline="hanging" stroke="none" vector-effect="non-scaling-stroke">22</text><text stroke="none" vector-effect="non-scaling-stroke" x="5.333333e+02" y="10" dominant-baseline="hanging">23</text><text stroke="none" vector-effect="non-scaling-stroke" x="5.546667e+02" y="10" dominant-baseline="hanging">24</text><text vector-effect="non-scaling-stroke" x="576" y="10" dominant-baseline="hanging" stroke="none">25</text></g><g stroke-linecap="round" font-family="sans-serif" dominant-baseline="baseline" stroke="black" stroke-linejoin="round" font-style="normal" transform="translate(80 520 )scale(1 1 )rotate(0 0 0 )" fill="black" font-size="12px" stroke-width="2px" font-weight="bold" text-anchor="middle"><text vector-effect="non-scaling-stroke" x="320" y="-6" dominant-baseline="baseline" stroke="none">Day</text></g><g stroke-linejoin="round" font-size="12px" stroke="black" stroke-width="2px" font-style="normal" font-weight="bold" text-anchor="middle" fill="black" stroke-linecap="round" font-family="sans-serif" transform="translate(80 520 )scale(1 -1 )" dominant-baseline="baseline"><path d="M0,44 L-6,44 M0,1.172570e+02 L-6,1.172570e+02 M0,1.905139e+02 L-6,1.905139e+02 M0,2.637709e+02 L-6,2.637709e+02 M0,3.370278e+02 L-6,3.370278e+02 " vector-effect="non-scaling-stroke"/></g><g font-family="sans-serif" font-size="12px" stroke-width="2px" stroke-linejoin="round" font-style="normal" stroke-linecap="round" fill="black" dominant-baseline="middle" stroke="black" font-weight="normal" text-anchor="end" transform="translate(80 520 )scale(1 1 )"><text stroke="none" vector-effect="non-scaling-stroke" x="-10" y="-44" dominant-baseline="middle">0s</text><text stroke="none" vector-effect="non-scaling-stroke" x="-10" y="-1.172570e+02" dominant-baseline="middle">10ms</text><text dominant-baseline="middle" stroke="none" vector-effect="non-scaling-stroke" x="-10" y="-1.905139e+02">20ms</text><text stroke="none" vector-effect="non-scaling-stroke" x="-10" y="-2.637709e+02" dominant-baseline="middle">30ms</text><text x="-10" y="-3.370278e+02" dominant-baseline="middle" stroke="none" vector-effect="non-scaling-stroke">40ms</text></g><g stroke-linejoin="round" fill="black" stroke-linecap="round" transform="translate(80 520 )scale(1 1 )rotate(-90 0 0 )" stroke-width="2px" font-weight="bold" text-anchor="middle" font-family="sans-serif" font-size="12px" dominant-baseline="hanging" stroke="black" font-style="normal"><text x="220" y="6" dominant-baseline="hanging" stroke="none" vector-effect="non-scaling-stroke">Runtime</text></g></g></g></g></g></svg>