<svg viewbox="0 0 800 600" preserveAspectRatio="xMidYMid meet" xmlns="http://www.w3.org/2000/svg" width="800" height="600"><defs><marker viewBox="0 0 10 10 " refX="5" refY="5" markerUnits="userSpaceOnUse" markerWidth="2%" markerHeight="2%" id="circle"><circle cx="5" cy="5" r="3" fill="none" stroke="black"/></marker><marker markerUnits="userSpaceOnUse" markerWidth="2%" markerHeight="2%" id="filled-circle" viewBox="0 0 10 10 " refX="5" refY="5"><circle stroke="none" cx="5" cy="5" r="3" fill="black"/></marker><marker markerHeight="2%" id="square" viewBox="0 0 10 10 " refX="5" refY="5" markerUnits="userSpaceOnUse" markerWidth="2%"><rect y="2" width="6" height="6" fill="none" stroke="black" x="2"/></marker><marker refY="5" markerUnits="userSpaceOnUse" markerWidth="2%" markerHeight="2%" id="filled-square" viewBox="0 0 10 10 " refX="5"><rect height="6" fill="black" stroke="none" x="2" y="2" width="6"/></marker></defs><g stroke-linecap="round" stroke-linejoin="round" transform="translate(80 520 )scale(1 -1 )" fill="hsl(198, 47%, 65%)" stroke="hsl(198, 47%, 65%)" stroke-width="1px"><rect width="1.833333e+01" height="396" vector-effect="non-scaling-stroke" x="3.650000e+01" y="0"/><rect y="0" width="1.833333e+01" height="5.515657e+01" vector-effect="non-scaling-stroke" x="5.783333e+01"/><rect height="9.394572e+01" vector-effect="non-scaling-stroke" x="7.916667e+01" y="0" width="1.833333e+01"/><rect x="1.005000e+02" y="0" width="1.833333e+01" height="1.081403e+02" vector-effect="non-scaling-stroke"/></g><g transform="translate(80 520 )scale(1 -1 )" fill="hsl(49, 88%, 65%)" stroke="hsl(49, 88%, 65%)" stroke-width="1px" stroke-linecap="round" stroke-linejoin="round"><rect vector-effect="non-scaling-stroke" x="5.483333e+01" y="0" width="1.833333e+01" height="2.199848e+02"/><rect width="1.833333e+01" height="4.854190e+01" vector-effect="non-scaling-stroke" x="7.616667e+01" y="0"/><rect height="9.159986e+01" vector-effect="non-scaling-stroke" x="9.750000e+01" y="0" width="1.833333e+01"/></g><g stroke="hsl(260, 76%, 65%)" stroke-width="1px" stroke-linecap="round" stroke-linejoin="round" transform="translate(80 520 )scale(1 -1 )" fill="hsl(260, 76%, 65%)"><rect width="1.833333e+01" height="1.845258e+02" vector-effect="non-scaling-stroke" x="7.316667e+01" y="0"/><rect vector-effect="non-scaling-stroke" x="9.450000e+01" y="0" width="1.833333e+01" height="4.890411e+01"/><rect width="1.833333e+01" height="8.128719e+01" vector-effect="non-scaling-stroke" x="1.158333e+02" y="0"/></g><g font-family="sans-serif" dominant-baseline="hanging" fill="hsl(198, 47%, 65%)" font-size="12px" stroke-linejoin="round" text-anchor="start" stroke="hsl(198, 47%, 65%)" stroke-width="1px" font-weight="normal" stroke-linecap="round" font-style="normal"><rect y="466" width="12" height="12" vector-effect="non-scaling-stroke" x="736"/><g stroke="black" fill="black"><text x="752" y="466" dominant-baseline="hanging" stroke="none" vector-effect="non-scaling-stroke">Golang</text></g><g font-style="normal" stroke-linejoin="round" font-family="sans-serif" text-anchor="start" stroke-linecap="round" font-size="12px" font-weight="normal" fill="hsl(49, 88%, 65%)" stroke="hsl(49, 88%, 65%)" stroke-width="1px" dominant-baseline="hanging"><rect vector-effect="non-scaling-stroke" x="736" y="484" width="12" height="12"/><g fill="black" stroke="black"><text y="484" dominant-baseline="hanging" stroke="none" vector-effect="non-scaling-stroke" x="752">Rust</text></g><g font-style="normal" font-weight="normal" stroke-linecap="round" stroke-linejoin="round" font-family="sans-serif" dominant-baseline="hanging" fill="hsl(260, 76%, 65%)" font-size="12px" stroke="hsl(260, 76%, 65%)" stroke-width="1px" text-anchor="start"><rect y="502" width="12" height="12" vector-effect="non-scaling-stroke" x="736"/><g fill="black" stroke="black"><text x="752" y="502" dominant-baseline="hanging" stroke="none" vector-effect="non-scaling-stroke">Zig</text><g font-style="normal" font-size="12px" fill="none" font-family="sans-serif" text-anchor="start" stroke-linecap="round" stroke-linejoin="round" font-weight="normal" stroke-width="2px" dominant-baseline="hanging"><rect y="80" width="640" height="440" vector-effect="non-scaling-stroke" x="80"/></g><g stroke-linejoin="round" stroke-linecap="round" font-size="12px" font-family="sans-serif" dominant-baseline="hanging" transform="translate(80 520 )scale(1 -1 )" fill="none" stroke-width="2px" font-style="normal" font-weight="normal" text-anchor="start" stroke="black"><path vector-effect="non-scaling-stroke" d="M64,0 L64,-6 M8.533333e+01,0 L8.533333e+01,-6 M1.066667e+02,0 L1.066667e+02,-6 M128,0 L128,-6 "/></g><g stroke="black" stroke-linejoin="round" transform="translate(80 520 )scale(1 1 )" stroke-linecap="round" font-size="12px" fill="black" font-family="sans-serif" text-anchor="middle" dominant-baseline="hanging" font-style="normal" font-weight="normal" stroke-width="2px"><text stroke="none" vector-effect="non-scaling-stroke" x="64" y="10" dominant-baseline="hanging">1</text><text stroke="none" vector-effect="non-scaling-stroke" x="8.533333e+01" y="10" dominant-baseline="hanging">2</text><text vector-effect="non-scaling-stroke" x="1.066667e+02" y="10" dominant-baseline="hanging" stroke="none">3</text><text x="128" y="10" dominant-baseline="hanging" stroke="none" vector-effect="non-scaling-stroke">4</text></g><g text-anchor="middle" dominant-baseline="baseline" stroke-width="2px" stroke-linecap="round" font-size="12px" font-style="normal" stroke-linejoin="round" font-family="sans-serif" transform="translate(80 520 )scale(1 1 )rotate(0 0 0 )" fill="black" stroke="black" font-weight="bold"><text x="320" y="-6" dominant-baseline="baseline" stroke="none" vector-effect="non-scaling-stroke">Day</text></g><g transform="translate(80 520 )scale(1 -1 )" font-style="normal" stroke-linecap="round" stroke-width="2px" font-family="sans-serif" text-anchor="middle" dominant-baseline="baseline" font-weight="bold" font-size="12px" stroke-linejoin="round" fill="black" stroke="black"><path vector-effect="non-scaling-stroke" d="M0,44 L-6,44 M0,8.192817e+01 L-6,8.192817e+01 M0,1.198563e+02 L-6,1.198563e+02 M0,1.577845e+02 L-6,1.577845e+02 M0,1.957127e+02 L-6,1.957127e+02 M0,2.336409e+02 L-6,2.336409e+02 M0,2.715690e+02 L-6,2.715690e+02 M0,3.094972e+02 L-6,3.094972e+02 M0,3.474254e+02 L-6,3.474254e+02 M0,3.853536e+02 L-6,3.853536e+02 "/></g><g stroke-linecap="round" font-size="12px" font-style="normal" fill="black" stroke="black" dominant-baseline="middle" font-weight="normal" transform="translate(80 520 )scale(1 1 )" stroke-width="2px" stroke-linejoin="round" font-family="sans-serif" text-anchor="end"><text x="-10" y="-44" dominant-baseline="middle" stroke="none" vector-effect="non-scaling-stroke">0s</text><text stroke="none" vector-effect="non-scaling-stroke" x="-10" y="-8.192817e+01" dominant-baseline="middle">20µs</text><text stroke="none" vector-effect="non-scaling-stroke" x="-10" y="-1.198563e+02" dominant-baseline="middle">40µs</text><text x="-10" y="-1.577845e+02" dominant-baseline="middle" stroke="none" vector-effect="non-scaling-stroke">60µs</text><text dominant-baseline="middle" stroke="none" vector-effect="non-scaling-stroke" x="-10" y="-1.957127e+02">80µs</text><text dominant-baseline="middle" stroke="none" vector-effect="non-scaling-stroke" x="-10" y="-2.336409e+02">100µs</text><text vector-effect="non-scaling-stroke" x="-10" y="-2.715690e+02" dominant-baseline="middle" stroke="none">120µs</text><text stroke="none" vector-effect="non-scaling-stroke" x="-10" y="-3.094972e+02" dominant-baseline="middle">140µs</text><text stroke="none" vector-effect="non-scaling-stroke" x="-10" y="-3.474254e+02" dominant-baseline="middle">160µs</text><text x="-10" y="-3.853536e+02" dominant-baseline="middle" stroke="none" vector-effect="non-scaling-stroke">180µs</text></g><g stroke="black" font-family="sans-serif" text-anchor="middle" font-size="12px" fill="black" stroke-width="2px" stroke-linejoin="round" dominant-baseline="hanging" transform="translate(80 520 )scale(1 1 )rotate(-90 0 0 )" stroke-linecap="round" font-style="normal" font-weight="bold"><text dominant-baseline="hanging" stroke="none" vector-effect="non-scaling-stroke" x="220" y="6">Runtime</text></g></g></g></g></g></svg>