<svg width="800" height="600" viewbox="0 0 800 600" preserveAspectRatio="xMidYMid meet" xmlns="http://www.w3.org/2000/svg"><defs><marker markerUnits="userSpaceOnUse" markerWidth="2%" markerHeight="2%" id="circle" viewBox="0 0 10 10 " refX="5" refY="5"><circle cx="5" cy="5" r="3" fill="none" stroke="black"/></marker><marker markerWidth="2%" markerHeight="2%" id="filled-circle" viewBox="0 0 10 10 " refX="5" refY="5" markerUnits="userSpaceOnUse"><circle stroke="none" cx="5" cy="5" r="3" fill="black"/></marker><marker id="square" viewBox="0 0 10 10 " refX="5" refY="5" markerUnits="userSpaceOnUse" markerWidth="2%" markerHeight="2%"><rect stroke="black" x="2" y="2" width="6" height="6" fill="none"/></marker><marker refY="5" markerUnits="userSpaceOnUse" markerWidth="2%" markerHeight="2%" id="filled-square" viewBox="0 0 10 10 " refX="5"><rect x="2" y="2" width="6" height="6" fill="black" stroke="none"/></marker></defs><g stroke-linecap="round" stroke-linejoin="round" transform="translate(80 520 )scale(1 -1 )" fill="hsl(198, 47%, 65%)" stroke="hsl(198, 47%, 65%)" stroke-width="1px"><rect vector-effect="non-scaling-stroke" x="3.650000e+01" y="0" width="2.750000e+01" height="1.134691e+02"/><rect width="2.750000e+01" height="1.055500e+02" vector-effect="non-scaling-stroke" x="5.783333e+01" y="0"/><rect width="2.750000e+01" height="8.221366e+01" vector-effect="non-scaling-stroke" x="7.916667e+01" y="0"/><rect vector-effect="non-scaling-stroke" x="1.005000e+02" y="0" width="2.750000e+01" height="396"/></g><g transform="translate(80 520 )scale(1 -1 )" fill="hsl(49, 88%, 65%)" stroke="hsl(49, 88%, 65%)" stroke-width="1px" stroke-linecap="round" stroke-linejoin="round"><rect width="2.750000e+01" height="1.063517e+02" vector-effect="non-scaling-stroke" x="64" y="0"/><rect height="9.725281e+01" vector-effect="non-scaling-stroke" x="8.533333e+01" y="0" width="2.750000e+01"/><rect x="1.066667e+02" y="0" width="2.750000e+01" height="5.440813e+01" vector-effect="non-scaling-stroke"/></g><g font-family="sans-serif" font-size="12px" text-anchor="start" font-weight="normal" stroke-width="1px" dominant-baseline="hanging" fill="hsl(198, 47%, 65%)" stroke-linecap="round" stroke-linejoin="round" font-style="normal" stroke="hsl(198, 47%, 65%)"><rect height="12" vector-effect="non-scaling-stroke" x="736" y="484" width="12"/><g fill="black" stroke="black"><text dominant-baseline="hanging" stroke="none" vector-effect="non-scaling-stroke" x="752" y="484">Golang</text></g><g stroke-width="1px" dominant-baseline="hanging" fill="hsl(49, 88%, 65%)" stroke-linecap="round" stroke-linejoin="round" font-family="sans-serif" font-size="12px" stroke="hsl(49, 88%, 65%)" font-weight="normal" font-style="normal" text-anchor="start"><rect x="736" y="502" width="12" height="12" vector-effect="non-scaling-stroke"/><g fill="black" stroke="black"><text vector-effect="non-scaling-stroke" x="752" y="502" dominant-baseline="hanging" stroke="none">Rust</text><g font-style="normal" text-anchor="start" stroke-width="2px" fill="none" stroke-linejoin="round" font-weight="normal" font-family="sans-serif" font-size="12px" stroke-linecap="round" dominant-baseline="hanging"><rect vector-effect="non-scaling-stroke" x="80" y="80" width="640" height="440"/></g><g stroke-width="2px" stroke-linejoin="round" font-family="sans-serif" font-size="12px" text-anchor="start" transform="translate(80 520 )scale(1 -1 )" fill="none" stroke-linecap="round" font-style="normal" stroke="black" font-weight="normal" dominant-baseline="hanging"><path vector-effect="non-scaling-stroke" d="M64,0 L64,-6 M8.533333e+01,0 L8.533333e+01,-6 M1.066667e+02,0 L1.066667e+02,-6 M128,0 L128,-6 "/></g><g stroke-linecap="round" font-family="sans-serif" transform="translate(80 520 )scale(1 1 )" fill="black" font-style="normal" stroke="black" stroke-width="2px" stroke-linejoin="round" font-weight="normal" dominant-baseline="hanging" font-size="12px" text-anchor="middle"><text dominant-baseline="hanging" stroke="none" vector-effect="non-scaling-stroke" x="64" y="10">1</text><text stroke="none" vector-effect="non-scaling-stroke" x="8.533333e+01" y="10" dominant-baseline="hanging">2</text><text y="10" dominant-baseline="hanging" stroke="none" vector-effect="non-scaling-stroke" x="1.066667e+02">3</text><text stroke="none" vector-effect="non-scaling-stroke" x="128" y="10" dominant-baseline="hanging">4</text></g><g stroke="black" dominant-baseline="baseline" stroke-linejoin="round" stroke-width="2px" stroke-linecap="round" font-family="sans-serif" font-size="12px" font-style="normal" text-anchor="middle" font-weight="bold" fill="black" transform="translate(80 520 )scale(1 1 )rotate(0 0 0 )"><text stroke="none" vector-effect="non-scaling-stroke" x="320" y="-6" dominant-baseline="baseline">Day</text></g><g font-style="normal" text-anchor="middle" stroke="black" stroke-width="2px" stroke-linecap="round" fill="black" font-size="12px" stroke-linejoin="round" font-family="sans-serif" transform="translate(80 520 )scale(1 -1 )" font-weight="bold" dominant-baseline="baseline"><path vector-effect="non-scaling-stroke" d="M0,44 L-6,44 M0,1.735027e+02 L-6,1.735027e+02 M0,3.030054e+02 L-6,3.030054e+02 "/></g><g font-size="12px" transform="translate(80 520 )scale(1 1 )" fill="black" dominant-baseline="middle" text-anchor="end" font-weight="normal" stroke="black" stroke-width="2px" stroke-linecap="round" stroke-linejoin="round" font-family="sans-serif" font-style="normal"><text x="-10" y="-44" dominant-baseline="middle" stroke="none" vector-effect="non-scaling-stroke">0s</text><text stroke="none" vector-effect="non-scaling-stroke" x="-10" y="-1.735027e+02" dominant-baseline="middle">100µs</text><text vector-effect="non-scaling-stroke" x="-10" y="-3.030054e+02" dominant-baseline="middle" stroke="none">200µs</text></g><g fill="black" stroke-linecap="round" font-size="12px" stroke="black" text-anchor="middle" stroke-width="2px" transform="translate(80 520 )scale(1 1 )rotate(-90 0 0 )" dominant-baseline="hanging" font-weight="bold" stroke-linejoin="round" font-family="sans-serif" font-style="normal"><text dominant-baseline="hanging" stroke="none" vector-effect="non-scaling-stroke" x="220" y="6">Runtime</text></g></g></g></g></svg>