<svg width="800" height="600" viewbox="0 0 800 600" preserveAspectRatio="xMidYMid meet" xmlns="http://www.w3.org/2000/svg"><defs><marker refY="5" markerUnits="userSpaceOnUse" markerWidth="2%" markerHeight="2%" id="circle" viewBox="0 0 10 10 " refX="5"><circle stroke="black" cx="5" cy="5" r="3" fill="none"/></marker><marker refX="5" refY="5" markerUnits="userSpaceOnUse" markerWidth="2%" markerHeight="2%" id="filled-circle" viewBox="0 0 10 10 "><circle r="3" fill="black" stroke="none" cx="5" cy="5"/></marker><marker refX="5" refY="5" markerUnits="userSpaceOnUse" markerWidth="2%" markerHeight="2%" id="square" viewBox="0 0 10 10 "><rect x="2" y="2" width="6" height="6" fill="none" stroke="black"/></marker><marker id="filled-square" viewBox="0 0 10 10 " refX="5" refY="5" markerUnits="userSpaceOnUse" markerWidth="2%" markerHeight="2%"><rect fill="black" stroke="none" x="2" y="2" width="6" height="6"/></marker></defs><g fill="hsl(198, 47%, 65%)" stroke="hsl(198, 47%, 65%)" stroke-width="1px" stroke-linecap="round" stroke-linejoin="round" transform="translate(80 520 )scale(1 -1 )"><rect height="8.562038e+01" vector-effect="non-scaling-stroke" x="3.650000e+01" y="0" width="2.750000e+01"/><rect width="2.750000e+01" height="8.087589e+01" vector-effect="non-scaling-stroke" x="5.783333e+01" y="0"/><rect width="2.750000e+01" height="6.689459e+01" vector-effect="non-scaling-stroke" x="7.916667e+01" y="0"/><rect vector-effect="non-scaling-stroke" x="1.005000e+02" y="0" width="2.750000e+01" height="2.548904e+02"/><rect width="2.750000e+01" height="6.766581e+01" vector-effect="non-scaling-stroke" x="1.218333e+02" y="0"/></g><g transform="translate(80 520 )scale(1 -1 )" fill="hsl(49, 88%, 65%)" stroke="hsl(49, 88%, 65%)" stroke-width="1px" stroke-linecap="round" stroke-linejoin="round"><rect vector-effect="non-scaling-stroke" x="64" y="0" width="2.750000e+01" height="8.135616e+01"/><rect vector-effect="non-scaling-stroke" x="8.533333e+01" y="0" width="2.750000e+01" height="7.590485e+01"/><rect x="1.066667e+02" y="0" width="2.750000e+01" height="5.023573e+01" vector-effect="non-scaling-stroke"/><rect y="0" width="2.750000e+01" height="396" vector-effect="non-scaling-stroke" x="128"/></g><g dominant-baseline="hanging" fill="hsl(198, 47%, 65%)" font-size="12px" font-style="normal" text-anchor="start" stroke-linejoin="round" font-family="sans-serif" font-weight="normal" stroke="hsl(198, 47%, 65%)" stroke-width="1px" stroke-linecap="round"><rect width="12" height="12" vector-effect="non-scaling-stroke" x="736" y="484"/><g fill="black" stroke="black"><text y="484" dominant-baseline="hanging" stroke="none" vector-effect="non-scaling-stroke" x="752">Golang</text></g><g font-family="sans-serif" stroke-width="1px" stroke-linejoin="round" font-size="12px" text-anchor="start" font-weight="normal" fill="hsl(49, 88%, 65%)" stroke-linecap="round" dominant-baseline="hanging" stroke="hsl(49, 88%, 65%)" font-style="normal"><rect height="12" vector-effect="non-scaling-stroke" x="736" y="502" width="12"/><g stroke="black" fill="black"><text x="752" y="502" dominant-baseline="hanging" stroke="none" vector-effect="non-scaling-stroke">Rust</text><g text-anchor="start" font-family="sans-serif" font-size="12px" stroke-linecap="round" stroke-linejoin="round" font-style="normal" dominant-baseline="hanging" fill="none" font-weight="normal" stroke-width="2px"><rect vector-effect="non-scaling-stroke" x="80" y="80" width="640" height="440"/></g><g font-weight="normal" stroke-width="2px" transform="translate(80 520 )scale(1 -1 )" text-anchor="start" font-family="sans-serif" stroke-linecap="round" stroke-linejoin="round" dominant-baseline="hanging" stroke="black" font-size="12px" font-style="normal" fill="none"><path vector-effect="non-scaling-stroke" d="M64,0 L64,-6 M8.533333e+01,0 L8.533333e+01,-6 M1.066667e+02,0 L1.066667e+02,-6 M128,0 L128,-6 M1.493333e+02,0 L1.493333e+02,-6 "/></g><g font-size="12px" font-style="normal" stroke-linecap="round" text-anchor="middle" transform="translate(80 520 )scale(1 1 )" fill="black" stroke-width="2px" dominant-baseline="hanging" stroke="black" stroke-linejoin="round" font-family="sans-serif" font-weight="normal"><text x="64" y="10" dominant-baseline="hanging" stroke="none" vector-effect="non-scaling-stroke">1</text><text vector-effect="non-scaling-stroke" x="8.533333e+01" y="10" dominant-baseline="hanging" stroke="none">2</text><text stroke="none" vector-effect="non-scaling-stroke" x="1.066667e+02" y="10" dominant-baseline="hanging">3</text><text y="10" dominant-baseline="hanging" stroke="none" vector-effect="non-scaling-stroke" x="128">4</text><text dominant-baseline="hanging" stroke="none" vector-effect="non-scaling-stroke" x="1.493333e+02" y="10">5</text></g><g font-family="sans-serif" fill="black" dominant-baseline="baseline" transform="translate(80 520 )scale(1 1 )rotate(0 0 0 )" font-size="12px" font-style="normal" text-anchor="middle" font-weight="bold" stroke-width="2px" stroke-linecap="round" stroke-linejoin="round" stroke="black"><text vector-effect="non-scaling-stroke" x="320" y="-6" dominant-baseline="baseline" stroke="none">Day</text></g><g fill="black" font-weight="bold" stroke="black" font-size="12px" font-style="normal" dominant-baseline="baseline" stroke-width="2px" stroke-linecap="round" stroke-linejoin="round" font-family="sans-serif" text-anchor="middle" transform="translate(80 520 )scale(1 -1 )"><path d="M0,44 L-6,44 M0,1.215877e+02 L-6,1.215877e+02 M0,1.991755e+02 L-6,1.991755e+02 M0,2.767632e+02 L-6,2.767632e+02 M0,3.543509e+02 L-6,3.543509e+02 " vector-effect="non-scaling-stroke"/></g><g font-size="12px" font-style="normal" transform="translate(80 520 )scale(1 1 )" fill="black" stroke-width="2px" font-family="sans-serif" stroke="black" text-anchor="end" dominant-baseline="middle" stroke-linecap="round" stroke-linejoin="round" font-weight="normal"><text stroke="none" vector-effect="non-scaling-stroke" x="-10" y="-44" dominant-baseline="middle">0s</text><text y="-1.215877e+02" dominant-baseline="middle" stroke="none" vector-effect="non-scaling-stroke" x="-10">100µs</text><text y="-1.991755e+02" dominant-baseline="middle" stroke="none" vector-effect="non-scaling-stroke" x="-10">200µs</text><text dominant-baseline="middle" stroke="none" vector-effect="non-scaling-stroke" x="-10" y="-2.767632e+02">300µs</text><text y="-3.543509e+02" dominant-baseline="middle" stroke="none" vector-effect="non-scaling-stroke" x="-10">400µs</text></g><g font-size="12px" fill="black" stroke-width="2px" stroke-linecap="round" stroke="black" text-anchor="middle" dominant-baseline="hanging" transform="translate(80 520 )scale(1 1 )rotate(-90 0 0 )" stroke-linejoin="round" font-family="sans-serif" font-weight="bold" font-style="normal"><text y="6" dominant-baseline="hanging" stroke="none" vector-effect="non-scaling-stroke" x="220">Runtime</text></g></g></g></g></svg>