<svg preserveAspectRatio="xMidYMid meet" xmlns="http://www.w3.org/2000/svg" width="800" height="600" viewbox="0 0 800 600"><defs><marker markerWidth="2%" markerHeight="2%" id="circle" viewBox="0 0 10 10 " refX="5" refY="5" markerUnits="userSpaceOnUse"><circle cy="5" r="3" fill="none" stroke="black" cx="5"/></marker><marker refY="5" markerUnits="userSpaceOnUse" markerWidth="2%" markerHeight="2%" id="filled-circle" viewBox="0 0 10 10 " refX="5"><circle cy="5" r="3" fill="black" stroke="none" cx="5"/></marker><marker viewBox="0 0 10 10 " refX="5" refY="5" markerUnits="userSpaceOnUse" markerWidth="2%" markerHeight="2%" id="square"><rect height="6" fill="none" stroke="black" x="2" y="2" width="6"/></marker><marker viewBox="0 0 10 10 " refX="5" refY="5" markerUnits="userSpaceOnUse" markerWidth="2%" markerHeight="2%" id="filled-square"><rect width="6" height="6" fill="black" stroke="none" x="2" y="2"/></marker></defs><g transform="translate(80 520 )scale(1 -1 )" fill="hsl(198, 47%, 65%)" stroke="hsl(198, 47%, 65%)" stroke-width="1px" stroke-linecap="round" stroke-linejoin="round"><rect width="8.366013e+00" height="4.428698e+01" vector-effect="non-scaling-stroke" x="5.145098e+01" y="0"/><rect height="4.401175e+01" vector-effect="non-scaling-stroke" x="7.278431e+01" y="0" width="8.366013e+00"/><rect vector-effect="non-scaling-stroke" x="9.411765e+01" y="0" width="8.366013e+00" height="4.404873e+01"/><rect height="4.405508e+01" vector-effect="non-scaling-stroke" x="1.154510e+02" y="0" width="8.366013e+00"/><rect width="8.366013e+00" height="4.409778e+01" vector-effect="non-scaling-stroke" x="1.367843e+02" y="0"/><rect width="8.366013e+00" height="4.400022e+01" vector-effect="non-scaling-stroke" x="1.581176e+02" y="0"/><rect vector-effect="non-scaling-stroke" x="1.794510e+02" y="0" width="8.366013e+00" height="4.459589e+01"/><rect width="8.366013e+00" height="4.551062e+01" vector-effect="non-scaling-stroke" x="2.007843e+02" y="0"/><rect vector-effect="non-scaling-stroke" x="2.221176e+02" y="0" width="8.366013e+00" height="4.406150e+01"/><rect x="2.434510e+02" y="0" width="8.366013e+00" height="4.591624e+01" vector-effect="non-scaling-stroke"/><rect x="2.647843e+02" y="0" width="8.366013e+00" height="4.443054e+01" vector-effect="non-scaling-stroke"/><rect x="2.861176e+02" y="0" width="8.366013e+00" height="1.871043e+02" vector-effect="non-scaling-stroke"/><rect height="4.417878e+01" vector-effect="non-scaling-stroke" x="3.074510e+02" y="0" width="8.366013e+00"/><rect width="8.366013e+00" height="7.029912e+01" vector-effect="non-scaling-stroke" x="3.287843e+02" y="0"/><rect y="0" width="8.366013e+00" height="4.422669e+01" vector-effect="non-scaling-stroke" x="3.501176e+02"/><rect vector-effect="non-scaling-stroke" x="3.714510e+02" y="0" width="8.366013e+00" height="1.878644e+02"/><rect x="3.927843e+02" y="0" width="8.366013e+00" height="396" vector-effect="non-scaling-stroke"/></g><g stroke-linecap="round" stroke-linejoin="round" transform="translate(80 520 )scale(1 -1 )" fill="hsl(49, 88%, 65%)" stroke="hsl(49, 88%, 65%)" stroke-width="1px"><rect vector-effect="non-scaling-stroke" x="5.981699e+01" y="0" width="8.366013e+00" height="4.414924e+01"/><rect y="0" width="8.366013e+00" height="4.400385e+01" vector-effect="non-scaling-stroke" x="8.115033e+01"/><rect x="1.024837e+02" y="0" width="8.366013e+00" height="4.402790e+01" vector-effect="non-scaling-stroke"/><rect width="8.366013e+00" height="4.403046e+01" vector-effect="non-scaling-stroke" x="1.238170e+02" y="0"/><rect x="1.451503e+02" y="0" width="8.366013e+00" height="4.401779e+01" vector-effect="non-scaling-stroke"/><rect x="1.664837e+02" y="0" width="8.366013e+00" height="4.400016e+01" vector-effect="non-scaling-stroke"/><rect height="4.411010e+01" vector-effect="non-scaling-stroke" x="1.878170e+02" y="0" width="8.366013e+00"/><rect y="0" width="8.366013e+00" height="4.848668e+01" vector-effect="non-scaling-stroke" x="2.091503e+02"/><rect x="2.304837e+02" y="0" width="8.366013e+00" height="4.403478e+01" vector-effect="non-scaling-stroke"/><rect height="4.413778e+01" vector-effect="non-scaling-stroke" x="2.518170e+02" y="0" width="8.366013e+00"/><rect width="8.366013e+00" height="4.439698e+01" vector-effect="non-scaling-stroke" x="2.731503e+02" y="0"/><rect height="4.408398e+01" vector-effect="non-scaling-stroke" x="3.158170e+02" y="0" width="8.366013e+00"/><rect height="4.410490e+01" vector-effect="non-scaling-stroke" x="3.584837e+02" y="0" width="8.366013e+00"/><rect y="0" width="8.366013e+00" height="5.956625e+01" vector-effect="non-scaling-stroke" x="3.798170e+02"/></g><g fill="hsl(260, 76%, 65%)" stroke="hsl(260, 76%, 65%)" stroke-width="1px" stroke-linecap="round" stroke-linejoin="round" transform="translate(80 520 )scale(1 -1 )"><rect vector-effect="non-scaling-stroke" x="6.818301e+01" y="0" width="8.366013e+00" height="4.411965e+01"/><rect x="8.951634e+01" y="0" width="8.366013e+00" height="4.400419e+01" vector-effect="non-scaling-stroke"/><rect y="0" width="8.366013e+00" height="4.402151e+01" vector-effect="non-scaling-stroke" x="1.108497e+02"/><rect height="4.408522e+01" vector-effect="non-scaling-stroke" x="1.321830e+02" y="0" width="8.366013e+00"/><rect x="1.535163e+02" y="0" width="8.366013e+00" height="4.717025e+01" vector-effect="non-scaling-stroke"/><rect y="0" width="8.366013e+00" height="4.400014e+01" vector-effect="non-scaling-stroke" x="1.748497e+02"/><rect vector-effect="non-scaling-stroke" x="1.961830e+02" y="0" width="8.366013e+00" height="4.406952e+01"/><rect y="0" width="8.366013e+00" height="4.435691e+01" vector-effect="non-scaling-stroke" x="2.175163e+02"/><rect vector-effect="non-scaling-stroke" x="2.388497e+02" y="0" width="8.366013e+00" height="4.403398e+01"/><rect y="0" width="8.366013e+00" height="4.412865e+01" vector-effect="non-scaling-stroke" x="2.601830e+02"/><rect height="7.504404e+01" vector-effect="non-scaling-stroke" x="2.815163e+02" y="0" width="8.366013e+00"/><rect vector-effect="non-scaling-stroke" x="3.668497e+02" y="0" width="8.366013e+00" height="4.410762e+01"/><rect width="8.366013e+00" height="1.265418e+02" vector-effect="non-scaling-stroke" x="3.881830e+02" y="0"/></g><g stroke="hsl(198, 47%, 65%)" stroke-linejoin="round" font-style="normal" text-anchor="start" font-weight="normal" dominant-baseline="hanging" fill="hsl(198, 47%, 65%)" stroke-width="1px" stroke-linecap="round" font-family="sans-serif" font-size="12px"><rect y="466" width="12" height="12" vector-effect="non-scaling-stroke" x="736"/><g fill="black" stroke="black"><text stroke="none" vector-effect="non-scaling-stroke" x="752" y="466" dominant-baseline="hanging">Golang</text></g><g font-family="sans-serif" font-weight="normal" fill="hsl(49, 88%, 65%)" stroke="hsl(49, 88%, 65%)" stroke-width="1px" stroke-linecap="round" font-style="normal" stroke-linejoin="round" text-anchor="start" dominant-baseline="hanging" font-size="12px"><rect vector-effect="non-scaling-stroke" x="736" y="484" width="12" height="12"/><g fill="black" stroke="black"><text dominant-baseline="hanging" stroke="none" vector-effect="non-scaling-stroke" x="752" y="484">Rust</text></g><g fill="hsl(260, 76%, 65%)" stroke-width="1px" font-family="sans-serif" font-weight="normal" font-style="normal" text-anchor="start" dominant-baseline="hanging" stroke="hsl(260, 76%, 65%)" stroke-linecap="round" stroke-linejoin="round" font-size="12px"><rect y="502" width="12" height="12" vector-effect="non-scaling-stroke" x="736"/><g fill="black" stroke="black"><text dominant-baseline="hanging" stroke="none" vector-effect="non-scaling-stroke" x="752" y="502">Zig</text><g font-style="normal" dominant-baseline="hanging" stroke-width="2px" stroke-linejoin="round" font-size="12px" fill="none" stroke-linecap="round" font-weight="normal" text-anchor="start" font-family="sans-serif"><rect vector-effect="non-scaling-stroke" x="80" y="80" width="640" height="440"/></g><g font-family="sans-serif" font-size="12px" font-style="normal" stroke-linejoin="round" stroke="black" stroke-width="2px" font-weight="normal" dominant-baseline="hanging" stroke-linecap="round" transform="translate(80 520 )scale(1 -1 )" fill="none" text-anchor="start"><path vector-effect="non-scaling-stroke" d="M64,0 L64,-6 M8.533333e+01,0 L8.533333e+01,-6 M1.066667e+02,0 L1.066667e+02,-6 M128,0 L128,-6 M1.493333e+02,0 L1.493333e+02,-6 M1.706667e+02,0 L1.706667e+02,-6 M192,0 L192,-6 M2.133333e+02,0 L2.133333e+02,-6 M2.346667e+02,0 L2.346667e+02,-6 M256,0 L256,-6 M2.773333e+02,0 L2.773333e+02,-6 M2.986667e+02,0 L2.986667e+02,-6 M320,0 L320,-6 M3.413333e+02,0 L3.413333e+02,-6 M3.626667e+02,0 L3.626667e+02,-6 M384,0 L384,-6 M4.053333e+02,0 L4.053333e+02,-6 "/></g><g stroke-linejoin="round" fill="black" text-anchor="middle" font-style="normal" font-weight="normal" transform="translate(80 520 )scale(1 1 )" stroke="black" stroke-width="2px" stroke-linecap="round" dominant-baseline="hanging" font-family="sans-serif" font-size="12px"><text stroke="none" vector-effect="non-scaling-stroke" x="64" y="10" dominant-baseline="hanging">1</text><text stroke="none" vector-effect="non-scaling-stroke" x="8.533333e+01" y="10" dominant-baseline="hanging">2</text><text dominant-baseline="hanging" stroke="none" vector-effect="non-scaling-stroke" x="1.066667e+02" y="10">3</text><text stroke="none" vector-effect="non-scaling-stroke" x="128" y="10" dominant-baseline="hanging">4</text><text dominant-baseline="hanging" stroke="none" vector-effect="non-scaling-stroke" x="1.493333e+02" y="10">5</text><text stroke="none" vector-effect="non-scaling-stroke" x="1.706667e+02" y="10" dominant-baseline="hanging">6</text><text x="192" y="10" dominant-baseline="hanging" stroke="none" vector-effect="non-scaling-stroke">7</text><text x="2.133333e+02" y="10" dominant-baseline="hanging" stroke="none" vector-effect="non-scaling-stroke">8</text><text stroke="none" vector-effect="non-scaling-stroke" x="2.346667e+02" y="10" dominant-baseline="hanging">9</text><text y="10" dominant-baseline="hanging" stroke="none" vector-effect="non-scaling-stroke" x="256">10</text><text stroke="none" vector-effect="non-scaling-stroke" x="2.773333e+02" y="10" dominant-baseline="hanging">11</text><text dominant-baseline="hanging" stroke="none" vector-effect="non-scaling-stroke" x="2.986667e+02" y="10">12</text><text stroke="none" vector-effect="non-scaling-stroke" x="320" y="10" dominant-baseline="hanging">13</text><text y="10" dominant-baseline="hanging" stroke="none" vector-effect="non-scaling-stroke" x="3.413333e+02">14</text><text y="10" dominant-baseline="hanging" stroke="none" vector-effect="non-scaling-stroke" x="3.626667e+02">15</text><text stroke="none" vector-effect="non-scaling-stroke" x="384" y="10" dominant-baseline="hanging">16</text><text x="4.053333e+02" y="10" dominant-baseline="hanging" stroke="none" vector-effect="non-scaling-stroke">17</text></g><g font-family="sans-serif" font-size="12px" text-anchor="middle" fill="black" stroke="black" stroke-width="2px" transform="translate(80 520 )scale(1 1 )rotate(0 0 0 )" font-style="normal" font-weight="bold" dominant-baseline="baseline" stroke-linecap="round" stroke-linejoin="round"><text stroke="none" vector-effect="non-scaling-stroke" x="320" y="-6" dominant-baseline="baseline">Day</text></g><g text-anchor="middle" dominant-baseline="baseline" stroke="black" transform="translate(80 520 )scale(1 -1 )" font-family="sans-serif" font-style="normal" fill="black" stroke-width="2px" stroke-linecap="round" stroke-linejoin="round" font-size="12px" font-weight="bold"><path d="M0,44 L-6,44 M0,2.048232e+02 L-6,2.048232e+02 M0,3.656463e+02 L-6,3.656463e+02 " vector-effect="non-scaling-stroke"/></g><g font-size="12px" fill="black" stroke-linecap="round" transform="translate(80 520 )scale(1 1 )" dominant-baseline="middle" stroke="black" stroke-width="2px" stroke-linejoin="round" font-family="sans-serif" font-style="normal" font-weight="normal" text-anchor="end"><text vector-effect="non-scaling-stroke" x="-10" y="-44" dominant-baseline="middle" stroke="none">0s</text><text x="-10" y="-2.048232e+02" dominant-baseline="middle" stroke="none" vector-effect="non-scaling-stroke">100ms</text><text y="-3.656463e+02" dominant-baseline="middle" stroke="none" vector-effect="non-scaling-stroke" x="-10">200ms</text></g><g text-anchor="middle" dominant-baseline="hanging" font-family="sans-serif" font-size="12px" stroke-width="2px" stroke-linecap="round" stroke-linejoin="round" font-weight="bold" fill="black" stroke="black" transform="translate(80 520 )scale(1 1 )rotate(-90 0 0 )" font-style="normal"><text vector-effect="non-scaling-stroke" x="220" y="6" dominant-baseline="hanging" stroke="none">Runtime</text></g></g></g></g></g></svg>