<svg xmlns="http://www.w3.org/2000/svg" width="800" height="600" viewbox="0 0 800 600" preserveAspectRatio="xMidYMid meet"><defs><marker markerWidth="2%" markerHeight="2%" id="circle" viewBox="0 0 10 10 " refX="5" refY="5" markerUnits="userSpaceOnUse"><circle cy="5" r="3" fill="none" stroke="black" cx="5"/></marker><marker refX="5" refY="5" markerUnits="userSpaceOnUse" markerWidth="2%" markerHeight="2%" id="filled-circle" viewBox="0 0 10 10 "><circle cx="5" cy="5" r="3" fill="black" stroke="none"/></marker><marker markerWidth="2%" markerHeight="2%" id="square" viewBox="0 0 10 10 " refX="5" refY="5" markerUnits="userSpaceOnUse"><rect fill="none" stroke="black" x="2" y="2" width="6" height="6"/></marker><marker id="filled-square" viewBox="0 0 10 10 " refX="5" refY="5" markerUnits="userSpaceOnUse" markerWidth="2%" markerHeight="2%"><rect y="2" width="6" height="6" fill="black" stroke="none" x="2"/></marker></defs><g stroke-width="1px" stroke-linecap="round" stroke-linejoin="round" transform="translate(80 520 )scale(1 -1 )" fill="hsl(198, 47%, 65%)" stroke="hsl(198, 47%, 65%)"><rect vector-effect="non-scaling-stroke" x="3.650000e+01" y="0" width="2.750000e+01" height="4.417971e+01"/><rect x="5.783333e+01" y="0" width="2.750000e+01" height="4.415922e+01" vector-effect="non-scaling-stroke"/><rect vector-effect="non-scaling-stroke" x="7.916667e+01" y="0" width="2.750000e+01" height="4.409885e+01"/><rect width="2.750000e+01" height="4.491059e+01" vector-effect="non-scaling-stroke" x="1.005000e+02" y="0"/><rect vector-effect="non-scaling-stroke" x="1.218333e+02" y="0" width="2.750000e+01" height="4.410218e+01"/><rect y="0" width="2.750000e+01" height="396" vector-effect="non-scaling-stroke" x="1.431667e+02"/></g><g transform="translate(80 520 )scale(1 -1 )" fill="hsl(49, 88%, 65%)" stroke="hsl(49, 88%, 65%)" stroke-width="1px" stroke-linecap="round" stroke-linejoin="round"><rect height="4.416130e+01" vector-effect="non-scaling-stroke" x="64" y="0" width="2.750000e+01"/><rect y="0" width="2.750000e+01" height="4.413776e+01" vector-effect="non-scaling-stroke" x="8.533333e+01"/><rect x="1.066667e+02" y="0" width="2.750000e+01" height="4.402692e+01" vector-effect="non-scaling-stroke"/><rect x="128" y="0" width="2.750000e+01" height="4.551987e+01" vector-effect="non-scaling-stroke"/><rect vector-effect="non-scaling-stroke" x="1.493333e+02" y="0" width="2.750000e+01" height="4.407283e+01"/></g><g stroke-linecap="round" font-size="12px" font-style="normal" fill="hsl(198, 47%, 65%)" stroke-width="1px" font-weight="normal" font-family="sans-serif" text-anchor="start" dominant-baseline="hanging" stroke="hsl(198, 47%, 65%)" stroke-linejoin="round"><rect width="12" height="12" vector-effect="non-scaling-stroke" x="736" y="484"/><g fill="black" stroke="black"><text y="484" dominant-baseline="hanging" stroke="none" vector-effect="non-scaling-stroke" x="752">Golang</text></g><g stroke="hsl(49, 88%, 65%)" stroke-width="1px" stroke-linejoin="round" font-family="sans-serif" font-size="12px" text-anchor="start" dominant-baseline="hanging" fill="hsl(49, 88%, 65%)" stroke-linecap="round" font-style="normal" font-weight="normal"><rect height="12" vector-effect="non-scaling-stroke" x="736" y="502" width="12"/><g stroke="black" fill="black"><text x="752" y="502" dominant-baseline="hanging" stroke="none" vector-effect="non-scaling-stroke">Rust</text><g font-style="normal" text-anchor="start" fill="none" font-size="12px" dominant-baseline="hanging" stroke-linejoin="round" font-weight="normal" font-family="sans-serif" stroke-linecap="round" stroke-width="2px"><rect x="80" y="80" width="640" height="440" vector-effect="non-scaling-stroke"/></g><g font-family="sans-serif" text-anchor="start" stroke="black" stroke-width="2px" stroke-linejoin="round" font-weight="normal" transform="translate(80 520 )scale(1 -1 )" fill="none" dominant-baseline="hanging" font-size="12px" font-style="normal" stroke-linecap="round"><path vector-effect="non-scaling-stroke" d="M64,0 L64,-6 M8.533333e+01,0 L8.533333e+01,-6 M1.066667e+02,0 L1.066667e+02,-6 M128,0 L128,-6 M1.493333e+02,0 L1.493333e+02,-6 M1.706667e+02,0 L1.706667e+02,-6 "/></g><g font-size="12px" text-anchor="middle" stroke-linejoin="round" fill="black" font-weight="normal" transform="translate(80 520 )scale(1 1 )" font-family="sans-serif" font-style="normal" dominant-baseline="hanging" stroke-linecap="round" stroke="black" stroke-width="2px"><text x="64" y="10" dominant-baseline="hanging" stroke="none" vector-effect="non-scaling-stroke">1</text><text dominant-baseline="hanging" stroke="none" vector-effect="non-scaling-stroke" x="8.533333e+01" y="10">2</text><text x="1.066667e+02" y="10" dominant-baseline="hanging" stroke="none" vector-effect="non-scaling-stroke">3</text><text stroke="none" vector-effect="non-scaling-stroke" x="128" y="10" dominant-baseline="hanging">4</text><text stroke="none" vector-effect="non-scaling-stroke" x="1.493333e+02" y="10" dominant-baseline="hanging">5</text><text vector-effect="non-scaling-stroke" x="1.706667e+02" y="10" dominant-baseline="hanging" stroke="none">6</text></g><g font-size="12px" stroke-linejoin="round" fill="black" stroke-width="2px" text-anchor="middle" dominant-baseline="baseline" font-family="sans-serif" font-weight="bold" transform="translate(80 520 )scale(1 1 )rotate(0 0 0 )" stroke="black" font-style="normal" stroke-linecap="round"><text x="320" y="-6" dominant-baseline="baseline" stroke="none" vector-effect="non-scaling-stroke">Day</text></g><g font-family="sans-serif" font-style="normal" text-anchor="middle" transform="translate(80 520 )scale(1 -1 )" stroke-linejoin="round" font-weight="bold" fill="black" font-size="12px" dominant-baseline="baseline" stroke-linecap="round" stroke="black" stroke-width="2px"><path vector-effect="non-scaling-stroke" d="M0,44 L-6,44 M0,1.110020e+02 L-6,1.110020e+02 M0,1.780041e+02 L-6,1.780041e+02 M0,2.450061e+02 L-6,2.450061e+02 M0,3.120082e+02 L-6,3.120082e+02 M0,3.790102e+02 L-6,3.790102e+02 "/></g><g fill="black" stroke="black" stroke-linejoin="round" stroke-linecap="round" font-style="normal" text-anchor="end" transform="translate(80 520 )scale(1 1 )" stroke-width="2px" font-weight="normal" dominant-baseline="middle" font-family="sans-serif" font-size="12px"><text y="-44" dominant-baseline="middle" stroke="none" vector-effect="non-scaling-stroke" x="-10">0s</text><text stroke="none" vector-effect="non-scaling-stroke" x="-10" y="-1.110020e+02" dominant-baseline="middle">20ms</text><text stroke="none" vector-effect="non-scaling-stroke" x="-10" y="-1.780041e+02" dominant-baseline="middle">40ms</text><text stroke="none" vector-effect="non-scaling-stroke" x="-10" y="-2.450061e+02" dominant-baseline="middle">60ms</text><text stroke="none" vector-effect="non-scaling-stroke" x="-10" y="-3.120082e+02" dominant-baseline="middle">80ms</text><text y="-3.790102e+02" dominant-baseline="middle" stroke="none" vector-effect="non-scaling-stroke" x="-10">100ms</text></g><g fill="black" stroke-width="2px" stroke-linejoin="round" font-weight="bold" font-size="12px" font-style="normal" font-family="sans-serif" text-anchor="middle" transform="translate(80 520 )scale(1 1 )rotate(-90 0 0 )" stroke="black" dominant-baseline="hanging" stroke-linecap="round"><text stroke="none" vector-effect="non-scaling-stroke" x="220" y="6" dominant-baseline="hanging">Runtime</text></g></g></g></g></svg>