<svg height="600" viewbox="0 0 800 600" preserveAspectRatio="xMidYMid meet" xmlns="http://www.w3.org/2000/svg" width="800"><defs><marker viewBox="0 0 10 10 " refX="5" refY="5" markerUnits="userSpaceOnUse" markerWidth="2%" markerHeight="2%" id="circle"><circle stroke="black" cx="5" cy="5" r="3" fill="none"/></marker><marker refY="5" markerUnits="userSpaceOnUse" markerWidth="2%" markerHeight="2%" id="filled-circle" viewBox="0 0 10 10 " refX="5"><circle cy="5" r="3" fill="black" stroke="none" cx="5"/></marker><marker markerUnits="userSpaceOnUse" markerWidth="2%" markerHeight="2%" id="square" viewBox="0 0 10 10 " refX="5" refY="5"><rect x="2" y="2" width="6" height="6" fill="none" stroke="black"/></marker><marker markerHeight="2%" id="filled-square" viewBox="0 0 10 10 " refX="5" refY="5" markerUnits="userSpaceOnUse" markerWidth="2%"><rect x="2" y="2" width="6" height="6" fill="black" stroke="none"/></marker></defs><g fill="hsl(198, 47%, 65%)" stroke="hsl(198, 47%, 65%)" stroke-width="1px" stroke-linecap="round" stroke-linejoin="round" transform="translate(80 520 )scale(1 -1 )"><rect y="0" width="8.533333e+00" height="4.401689e+01" vector-effect="non-scaling-stroke" x="5.546667e+01"/><rect height="4.400356e+01" vector-effect="non-scaling-stroke" x="7.680000e+01" y="0" width="8.533333e+00"/><rect height="4.404459e+01" vector-effect="non-scaling-stroke" x="9.813333e+01" y="0" width="8.533333e+00"/><rect vector-effect="non-scaling-stroke" x="1.194667e+02" y="0" width="8.533333e+00" height="4.401671e+01"/><rect vector-effect="non-scaling-stroke" x="1.408000e+02" y="0" width="8.533333e+00" height="4.400898e+01"/><rect vector-effect="non-scaling-stroke" x="1.621333e+02" y="0" width="8.533333e+00" height="4.400892e+01"/><rect width="8.533333e+00" height="4.402678e+01" vector-effect="non-scaling-stroke" x="1.834667e+02" y="0"/><rect vector-effect="non-scaling-stroke" x="2.048000e+02" y="0" width="8.533333e+00" height="4.473151e+01"/><rect width="8.533333e+00" height="4.443999e+01" vector-effect="non-scaling-stroke" x="2.261333e+02" y="0"/><rect x="2.474667e+02" y="0" width="8.533333e+00" height="4.400153e+01" vector-effect="non-scaling-stroke"/><rect vector-effect="non-scaling-stroke" x="2.688000e+02" y="0" width="8.533333e+00" height="5.095271e+01"/><rect width="8.533333e+00" height="4.439114e+01" vector-effect="non-scaling-stroke" x="2.901333e+02" y="0"/><rect height="4.543929e+01" vector-effect="non-scaling-stroke" x="3.114667e+02" y="0" width="8.533333e+00"/><rect vector-effect="non-scaling-stroke" x="3.328000e+02" y="0" width="8.533333e+00" height="4.985724e+01"/><rect y="0" width="8.533333e+00" height="4.400358e+01" vector-effect="non-scaling-stroke" x="3.541333e+02"/><rect width="8.533333e+00" height="3.088002e+02" vector-effect="non-scaling-stroke" x="3.754667e+02" y="0"/><rect width="8.533333e+00" height="4.488220e+01" vector-effect="non-scaling-stroke" x="3.968000e+02" y="0"/><rect width="8.533333e+00" height="4.416521e+01" vector-effect="non-scaling-stroke" x="4.181333e+02" y="0"/><rect width="8.533333e+00" height="2.621683e+02" vector-effect="non-scaling-stroke" x="4.394667e+02" y="0"/><rect vector-effect="non-scaling-stroke" x="4.608000e+02" y="0" width="8.533333e+00" height="1.145600e+02"/><rect vector-effect="non-scaling-stroke" x="4.821333e+02" y="0" width="8.533333e+00" height="4.462035e+01"/><rect width="8.533333e+00" height="4.451818e+01" vector-effect="non-scaling-stroke" x="5.034667e+02" y="0"/><rect width="8.533333e+00" height="1.588472e+02" vector-effect="non-scaling-stroke" x="5.248000e+02" y="0"/><rect y="0" width="8.533333e+00" height="1.884421e+02" vector-effect="non-scaling-stroke" x="5.461333e+02"/><rect y="0" width="8.533333e+00" height="4.400312e+01" vector-effect="non-scaling-stroke" x="5.674667e+02"/></g><g transform="translate(80 520 )scale(1 -1 )" fill="hsl(49, 88%, 65%)" stroke="hsl(49, 88%, 65%)" stroke-width="1px" stroke-linecap="round" stroke-linejoin="round"><rect height="4.400713e+01" vector-effect="non-scaling-stroke" x="64" y="0" width="8.533333e+00"/><rect height="4.400121e+01" vector-effect="non-scaling-stroke" x="8.533333e+01" y="0" width="8.533333e+00"/><rect y="0" width="8.533333e+00" height="4.403615e+01" vector-effect="non-scaling-stroke" x="1.066667e+02"/><rect y="0" width="8.533333e+00" height="4.401063e+01" vector-effect="non-scaling-stroke" x="128"/><rect height="4.400669e+01" vector-effect="non-scaling-stroke" x="1.493333e+02" y="0" width="8.533333e+00"/><rect width="8.533333e+00" height="4.401098e+01" vector-effect="non-scaling-stroke" x="1.706667e+02" y="0"/><rect vector-effect="non-scaling-stroke" x="192" y="0" width="8.533333e+00" height="4.401823e+01"/><rect vector-effect="non-scaling-stroke" x="2.133333e+02" y="0" width="8.533333e+00" height="4.452837e+01"/><rect x="2.346667e+02" y="0" width="8.533333e+00" height="4.437196e+01" vector-effect="non-scaling-stroke"/><rect x="2.560000e+02" y="0" width="8.533333e+00" height="4.400097e+01" vector-effect="non-scaling-stroke"/><rect x="2.773333e+02" y="0" width="8.533333e+00" height="4.845632e+01" vector-effect="non-scaling-stroke"/><rect vector-effect="non-scaling-stroke" x="2.986667e+02" y="0" width="8.533333e+00" height="4.422809e+01"/><rect height="4.447271e+01" vector-effect="non-scaling-stroke" x="320" y="0" width="8.533333e+00"/><rect vector-effect="non-scaling-stroke" x="3.413333e+02" y="0" width="8.533333e+00" height="5.134573e+01"/><rect height="4.400210e+01" vector-effect="non-scaling-stroke" x="3.626667e+02" y="0" width="8.533333e+00"/><rect vector-effect="non-scaling-stroke" x="384" y="0" width="8.533333e+00" height="396"/><rect y="0" width="8.533333e+00" height="4.438650e+01" vector-effect="non-scaling-stroke" x="4.053333e+02"/><rect vector-effect="non-scaling-stroke" x="4.266667e+02" y="0" width="8.533333e+00" height="4.416392e+01"/><rect y="0" width="8.533333e+00" height="1.431778e+02" vector-effect="non-scaling-stroke" x="448"/><rect vector-effect="non-scaling-stroke" x="4.693333e+02" y="0" width="8.533333e+00" height="9.230925e+01"/><rect x="4.906667e+02" y="0" width="8.533333e+00" height="4.440558e+01" vector-effect="non-scaling-stroke"/><rect width="8.533333e+00" height="4.461582e+01" vector-effect="non-scaling-stroke" x="512" y="0"/><rect y="0" width="8.533333e+00" height="1.361731e+02" vector-effect="non-scaling-stroke" x="5.333333e+02"/><rect vector-effect="non-scaling-stroke" x="5.546667e+02" y="0" width="8.533333e+00" height="2.038345e+02"/><rect y="0" width="8.533333e+00" height="4.400235e+01" vector-effect="non-scaling-stroke" x="576"/></g><g font-style="normal" font-family="sans-serif" font-weight="normal" fill="hsl(198, 47%, 65%)" stroke-linejoin="round" text-anchor="start" dominant-baseline="hanging" stroke="hsl(198, 47%, 65%)" stroke-linecap="round" font-size="12px" stroke-width="1px"><rect x="736" y="484" width="12" height="12" vector-effect="non-scaling-stroke"/><g fill="black" stroke="black"><text vector-effect="non-scaling-stroke" x="752" y="484" dominant-baseline="hanging" stroke="none">Golang</text></g><g dominant-baseline="hanging" stroke-linecap="round" font-family="sans-serif" text-anchor="start" stroke-width="1px" font-size="12px" stroke="hsl(49, 88%, 65%)" font-style="normal" fill="hsl(49, 88%, 65%)" stroke-linejoin="round" font-weight="normal"><rect vector-effect="non-scaling-stroke" x="736" y="502" width="12" height="12"/><g stroke="black" fill="black"><text dominant-baseline="hanging" stroke="none" vector-effect="non-scaling-stroke" x="752" y="502">Rust</text><g fill="none" stroke-width="2px" text-anchor="start" dominant-baseline="hanging" stroke-linejoin="round" font-style="normal" stroke-linecap="round" font-size="12px" font-weight="normal" font-family="sans-serif"><rect vector-effect="non-scaling-stroke" x="80" y="80" width="640" height="440"/></g><g font-family="sans-serif" font-style="normal" transform="translate(80 520 )scale(1 -1 )" stroke-width="2px" stroke-linejoin="round" font-size="12px" stroke="black" text-anchor="start" fill="none" font-weight="normal" dominant-baseline="hanging" stroke-linecap="round"><path vector-effect="non-scaling-stroke" d="M64,0 L64,-6 M8.533333e+01,0 L8.533333e+01,-6 M1.066667e+02,0 L1.066667e+02,-6 M128,0 L128,-6 M1.493333e+02,0 L1.493333e+02,-6 M1.706667e+02,0 L1.706667e+02,-6 M192,0 L192,-6 M2.133333e+02,0 L2.133333e+02,-6 M2.346667e+02,0 L2.346667e+02,-6 M256,0 L256,-6 M2.773333e+02,0 L2.773333e+02,-6 M2.986667e+02,0 L2.986667e+02,-6 M320,0 L320,-6 M3.413333e+02,0 L3.413333e+02,-6 M3.626667e+02,0 L3.626667e+02,-6 M384,0 L384,-6 M4.053333e+02,0 L4.053333e+02,-6 M4.266667e+02,0 L4.266667e+02,-6 M448,0 L448,-6 M4.693333e+02,0 L4.693333e+02,-6 M4.906667e+02,0 L4.906667e+02,-6 M512,0 L512,-6 M5.333333e+02,0 L5.333333e+02,-6 M5.546667e+02,0 L5.546667e+02,-6 M576,0 L576,-6 "/></g><g text-anchor="middle" transform="translate(80 520 )scale(1 1 )" fill="black" stroke="black" font-size="12px" font-family="sans-serif" stroke-width="2px" stroke-linejoin="round" font-style="normal" font-weight="normal" dominant-baseline="hanging" stroke-linecap="round"><text x="64" y="10" dominant-baseline="hanging" stroke="none" vector-effect="non-scaling-stroke">1</text><text x="8.533333e+01" y="10" dominant-baseline="hanging" stroke="none" vector-effect="non-scaling-stroke">2</text><text stroke="none" vector-effect="non-scaling-stroke" x="1.066667e+02" y="10" dominant-baseline="hanging">3</text><text x="128" y="10" dominant-baseline="hanging" stroke="none" vector-effect="non-scaling-stroke">4</text><text dominant-baseline="hanging" stroke="none" vector-effect="non-scaling-stroke" x="1.493333e+02" y="10">5</text><text stroke="none" vector-effect="non-scaling-stroke" x="1.706667e+02" y="10" dominant-baseline="hanging">6</text><text x="192" y="10" dominant-baseline="hanging" stroke="none" vector-effect="non-scaling-stroke">7</text><text x="2.133333e+02" y="10" dominant-baseline="hanging" stroke="none" vector-effect="non-scaling-stroke">8</text><text y="10" dominant-baseline="hanging" stroke="none" vector-effect="non-scaling-stroke" x="2.346667e+02">9</text><text vector-effect="non-scaling-stroke" x="256" y="10" dominant-baseline="hanging" stroke="none">10</text><text stroke="none" vector-effect="non-scaling-stroke" x="2.773333e+02" y="10" dominant-baseline="hanging">11</text><text vector-effect="non-scaling-stroke" x="2.986667e+02" y="10" dominant-baseline="hanging" stroke="none">12</text><text stroke="none" vector-effect="non-scaling-stroke" x="320" y="10" dominant-baseline="hanging">13</text><text y="10" dominant-baseline="hanging" stroke="none" vector-effect="non-scaling-stroke" x="3.413333e+02">14</text><text dominant-baseline="hanging" stroke="none" vector-effect="non-scaling-stroke" x="3.626667e+02" y="10">15</text><text vector-effect="non-scaling-stroke" x="384" y="10" dominant-baseline="hanging" stroke="none">16</text><text y="10" dominant-baseline="hanging" stroke="none" vector-effect="non-scaling-stroke" x="4.053333e+02">17</text><text stroke="none" vector-effect="non-scaling-stroke" x="4.266667e+02" y="10" dominant-baseline="hanging">18</text><text x="448" y="10" dominant-baseline="hanging" stroke="none" vector-effect="non-scaling-stroke">19</text><text vector-effect="non-scaling-stroke" x="4.693333e+02" y="10" dominant-baseline="hanging" stroke="none">20</text><text x="4.906667e+02" y="10" dominant-baseline="hanging" stroke="none" vector-effect="non-scaling-stroke">21</text><text stroke="none" vector-effect="non-scaling-stroke" x="512" y="10" dominant-baseline="hanging">22</text><text stroke="none" vector-effect="non-scaling-stroke" x="5.333333e+02" y="10" dominant-baseline="hanging">23</text><text vector-effect="non-scaling-stroke" x="5.546667e+02" y="10" dominant-baseline="hanging" stroke="none">24</text><text stroke="none" vector-effect="non-scaling-stroke" x="576" y="10" dominant-baseline="hanging">25</text></g><g transform="translate(80 520 )scale(1 1 )rotate(0 0 0 )" stroke="black" font-family="sans-serif" dominant-baseline="baseline" stroke-width="2px" stroke-linejoin="round" font-style="normal" text-anchor="middle" fill="black" stroke-linecap="round" font-size="12px" font-weight="bold"><text stroke="none" vector-effect="non-scaling-stroke" x="320" y="-6" dominant-baseline="baseline">Day</text></g><g font-size="12px" font-weight="bold" dominant-baseline="baseline" stroke="black" stroke-linecap="round" font-style="normal" stroke-width="2px" font-family="sans-serif" stroke-linejoin="round" text-anchor="middle" transform="translate(80 520 )scale(1 -1 )" fill="black"><path vector-effect="non-scaling-stroke" d="M0,44 L-6,44 M0,8.170153e+01 L-6,8.170153e+01 M0,1.194031e+02 L-6,1.194031e+02 M0,1.571046e+02 L-6,1.571046e+02 M0,1.948061e+02 L-6,1.948061e+02 M0,2.325077e+02 L-6,2.325077e+02 M0,2.702092e+02 L-6,2.702092e+02 M0,3.079107e+02 L-6,3.079107e+02 M0,3.456123e+02 L-6,3.456123e+02 M0,3.833138e+02 L-6,3.833138e+02 "/></g><g fill="black" stroke-width="2px" stroke-linejoin="round" font-style="normal" transform="translate(80 520 )scale(1 1 )" stroke-linecap="round" font-family="sans-serif" font-size="12px" dominant-baseline="middle" text-anchor="end" stroke="black" font-weight="normal"><text stroke="none" vector-effect="non-scaling-stroke" x="-10" y="-44" dominant-baseline="middle">0s</text><text vector-effect="non-scaling-stroke" x="-10" y="-8.170153e+01" dominant-baseline="middle" stroke="none">20ms</text><text stroke="none" vector-effect="non-scaling-stroke" x="-10" y="-1.194031e+02" dominant-baseline="middle">40ms</text><text y="-1.571046e+02" dominant-baseline="middle" stroke="none" vector-effect="non-scaling-stroke" x="-10">60ms</text><text stroke="none" vector-effect="non-scaling-stroke" x="-10" y="-1.948061e+02" dominant-baseline="middle">80ms</text><text dominant-baseline="middle" stroke="none" vector-effect="non-scaling-stroke" x="-10" y="-2.325077e+02">100ms</text><text y="-2.702092e+02" dominant-baseline="middle" stroke="none" vector-effect="non-scaling-stroke" x="-10">120ms</text><text dominant-baseline="middle" stroke="none" vector-effect="non-scaling-stroke" x="-10" y="-3.079107e+02">140ms</text><text stroke="none" vector-effect="non-scaling-stroke" x="-10" y="-3.456123e+02" dominant-baseline="middle">160ms</text><text vector-effect="non-scaling-stroke" x="-10" y="-3.833138e+02" dominant-baseline="middle" stroke="none">180ms</text></g><g fill="black" font-style="normal" font-weight="bold" stroke-linecap="round" font-family="sans-serif" stroke="black" font-size="12px" text-anchor="middle" transform="translate(80 520 )scale(1 1 )rotate(-90 0 0 )" stroke-width="2px" stroke-linejoin="round" dominant-baseline="hanging"><text stroke="none" vector-effect="non-scaling-stroke" x="220" y="6" dominant-baseline="hanging">Runtime</text></g></g></g></g></svg>