<svg preserveAspectRatio="xMidYMid meet" xmlns="http://www.w3.org/2000/svg" width="800" height="600" viewbox="0 0 800 600"><defs><marker markerWidth="2%" markerHeight="2%" id="circle" viewBox="0 0 10 10 " refX="5" refY="5" markerUnits="userSpaceOnUse"><circle stroke="black" cx="5" cy="5" r="3" fill="none"/></marker><marker refX="5" refY="5" markerUnits="userSpaceOnUse" markerWidth="2%" markerHeight="2%" id="filled-circle" viewBox="0 0 10 10 "><circle stroke="none" cx="5" cy="5" r="3" fill="black"/></marker><marker markerUnits="userSpaceOnUse" markerWidth="2%" markerHeight="2%" id="square" viewBox="0 0 10 10 " refX="5" refY="5"><rect height="6" fill="none" stroke="black" x="2" y="2" width="6"/></marker><marker markerWidth="2%" markerHeight="2%" id="filled-square" viewBox="0 0 10 10 " refX="5" refY="5" markerUnits="userSpaceOnUse"><rect y="2" width="6" height="6" fill="black" stroke="none" x="2"/></marker></defs><g stroke-width="1px" stroke-linecap="round" stroke-linejoin="round" transform="translate(80 520 )scale(1 -1 )" fill="hsl(198, 47%, 65%)" stroke="hsl(198, 47%, 65%)"><rect width="2.133333e+01" height="5.286771e+01" vector-effect="non-scaling-stroke" x="4.266667e+01" y="0"/><rect y="0" width="2.133333e+01" height="4.638089e+01" vector-effect="non-scaling-stroke" x="6.400000e+01"/><rect vector-effect="non-scaling-stroke" x="8.533333e+01" y="0" width="2.133333e+01" height="7.026067e+01"/><rect height="5.467111e+01" vector-effect="non-scaling-stroke" x="1.066667e+02" y="0" width="2.133333e+01"/><rect x="1.280000e+02" y="0" width="2.133333e+01" height="5.061863e+01" vector-effect="non-scaling-stroke"/><rect y="0" width="2.133333e+01" height="6.122304e+01" vector-effect="non-scaling-stroke" x="1.493333e+02"/><rect height="5.695037e+01" vector-effect="non-scaling-stroke" x="1.706667e+02" y="0" width="2.133333e+01"/><rect y="0" width="2.133333e+01" height="396" vector-effect="non-scaling-stroke" x="1.920000e+02"/><rect width="2.133333e+01" height="2.564848e+02" vector-effect="non-scaling-stroke" x="2.133333e+02" y="0"/><rect vector-effect="non-scaling-stroke" x="2.346667e+02" y="0" width="2.133333e+01" height="4.631790e+01"/></g><g stroke="hsl(49, 88%, 65%)" stroke-width="1px" stroke-linecap="round" stroke-linejoin="round" transform="translate(80 520 )scale(1 -1 )" fill="hsl(49, 88%, 65%)"><rect vector-effect="non-scaling-stroke" x="64" y="0" width="2.133333e+01" height="4.793338e+01"/><rect y="0" width="2.133333e+01" height="4.457696e+01" vector-effect="non-scaling-stroke" x="8.533333e+01"/><rect vector-effect="non-scaling-stroke" x="1.066667e+02" y="0" width="2.133333e+01" height="6.390353e+01"/><rect x="1.280000e+02" y="0" width="2.133333e+01" height="5.078907e+01" vector-effect="non-scaling-stroke"/><rect y="0" width="2.133333e+01" height="4.925139e+01" vector-effect="non-scaling-stroke" x="1.493333e+02"/><rect width="2.133333e+01" height="5.406504e+01" vector-effect="non-scaling-stroke" x="1.706667e+02" y="0"/><rect vector-effect="non-scaling-stroke" x="192" y="0" width="2.133333e+01" height="5.577104e+01"/><rect vector-effect="non-scaling-stroke" x="2.133333e+02" y="0" width="2.133333e+01" height="3.867835e+02"/><rect height="2.487239e+02" vector-effect="non-scaling-stroke" x="2.346667e+02" y="0" width="2.133333e+01"/></g><g font-style="normal" font-size="12px" stroke="hsl(198, 47%, 65%)" stroke-linecap="round" font-weight="normal" dominant-baseline="hanging" fill="hsl(198, 47%, 65%)" stroke-width="1px" font-family="sans-serif" text-anchor="start" stroke-linejoin="round"><rect y="484" width="12" height="12" vector-effect="non-scaling-stroke" x="736"/><g stroke="black" fill="black"><text dominant-baseline="hanging" stroke="none" vector-effect="non-scaling-stroke" x="752" y="484">Golang</text></g><g stroke="hsl(49, 88%, 65%)" stroke-linecap="round" dominant-baseline="hanging" fill="hsl(49, 88%, 65%)" stroke-width="1px" font-family="sans-serif" text-anchor="start" stroke-linejoin="round" font-size="12px" font-weight="normal" font-style="normal"><rect y="502" width="12" height="12" vector-effect="non-scaling-stroke" x="736"/><g stroke="black" fill="black"><text dominant-baseline="hanging" stroke="none" vector-effect="non-scaling-stroke" x="752" y="502">Rust</text><g stroke-width="2px" fill="none" font-family="sans-serif" font-weight="normal" stroke-linecap="round" stroke-linejoin="round" font-size="12px" dominant-baseline="hanging" text-anchor="start" font-style="normal"><rect vector-effect="non-scaling-stroke" x="80" y="80" width="640" height="440"/></g><g transform="translate(80 520 )scale(1 -1 )" stroke="black" font-weight="normal" dominant-baseline="hanging" fill="none" font-style="normal" stroke-width="2px" stroke-linejoin="round" font-size="12px" text-anchor="start" stroke-linecap="round" font-family="sans-serif"><path d="M64,0 L64,-6 M8.533333e+01,0 L8.533333e+01,-6 M1.066667e+02,0 L1.066667e+02,-6 M128,0 L128,-6 M1.493333e+02,0 L1.493333e+02,-6 M1.706667e+02,0 L1.706667e+02,-6 M192,0 L192,-6 M2.133333e+02,0 L2.133333e+02,-6 M2.346667e+02,0 L2.346667e+02,-6 M256,0 L256,-6 " vector-effect="non-scaling-stroke"/></g><g transform="translate(80 520 )scale(1 1 )" stroke-width="2px" dominant-baseline="hanging" stroke-linecap="round" stroke-linejoin="round" text-anchor="middle" font-size="12px" fill="black" font-family="sans-serif" font-style="normal" font-weight="normal" stroke="black"><text y="10" dominant-baseline="hanging" stroke="none" vector-effect="non-scaling-stroke" x="64">1</text><text stroke="none" vector-effect="non-scaling-stroke" x="8.533333e+01" y="10" dominant-baseline="hanging">2</text><text x="1.066667e+02" y="10" dominant-baseline="hanging" stroke="none" vector-effect="non-scaling-stroke">3</text><text stroke="none" vector-effect="non-scaling-stroke" x="128" y="10" dominant-baseline="hanging">4</text><text stroke="none" vector-effect="non-scaling-stroke" x="1.493333e+02" y="10" dominant-baseline="hanging">5</text><text dominant-baseline="hanging" stroke="none" vector-effect="non-scaling-stroke" x="1.706667e+02" y="10">6</text><text stroke="none" vector-effect="non-scaling-stroke" x="192" y="10" dominant-baseline="hanging">7</text><text vector-effect="non-scaling-stroke" x="2.133333e+02" y="10" dominant-baseline="hanging" stroke="none">8</text><text vector-effect="non-scaling-stroke" x="2.346667e+02" y="10" dominant-baseline="hanging" stroke="none">9</text><text stroke="none" vector-effect="non-scaling-stroke" x="256" y="10" dominant-baseline="hanging">10</text></g><g font-weight="bold" fill="black" font-family="sans-serif" font-size="12px" transform="translate(80 520 )scale(1 1 )rotate(0 0 0 )" stroke-linejoin="round" font-style="normal" dominant-baseline="baseline" stroke-width="2px" text-anchor="middle" stroke="black" stroke-linecap="round"><text dominant-baseline="baseline" stroke="none" vector-effect="non-scaling-stroke" x="320" y="-6">Day</text></g><g font-family="sans-serif" font-style="normal" stroke="black" stroke-linecap="round" stroke-linejoin="round" font-size="12px" transform="translate(80 520 )scale(1 -1 )" text-anchor="middle" fill="black" stroke-width="2px" font-weight="bold" dominant-baseline="baseline"><path d="M0,44 L-6,44 M0,9.693209e+01 L-6,9.693209e+01 M0,1.498642e+02 L-6,1.498642e+02 M0,2.027963e+02 L-6,2.027963e+02 M0,2.557284e+02 L-6,2.557284e+02 M0,3.086605e+02 L-6,3.086605e+02 M0,3.615926e+02 L-6,3.615926e+02 " vector-effect="non-scaling-stroke"/></g><g text-anchor="end" fill="black" font-family="sans-serif" font-style="normal" font-weight="normal" dominant-baseline="middle" stroke="black" stroke-linecap="round" stroke-width="2px" stroke-linejoin="round" font-size="12px" transform="translate(80 520 )scale(1 1 )"><text stroke="none" vector-effect="non-scaling-stroke" x="-10" y="-44" dominant-baseline="middle">0s</text><text stroke="none" vector-effect="non-scaling-stroke" x="-10" y="-9.693209e+01" dominant-baseline="middle">100µs</text><text x="-10" y="-1.498642e+02" dominant-baseline="middle" stroke="none" vector-effect="non-scaling-stroke">200µs</text><text stroke="none" vector-effect="non-scaling-stroke" x="-10" y="-2.027963e+02" dominant-baseline="middle">300µs</text><text y="-2.557284e+02" dominant-baseline="middle" stroke="none" vector-effect="non-scaling-stroke" x="-10">400µs</text><text vector-effect="non-scaling-stroke" x="-10" y="-3.086605e+02" dominant-baseline="middle" stroke="none">500µs</text><text vector-effect="non-scaling-stroke" x="-10" y="-3.615926e+02" dominant-baseline="middle" stroke="none">600µs</text></g><g fill="black" font-style="normal" transform="translate(80 520 )scale(1 1 )rotate(-90 0 0 )" stroke="black" stroke-linecap="round" font-size="12px" dominant-baseline="hanging" stroke-width="2px" font-family="sans-serif" font-weight="bold" stroke-linejoin="round" text-anchor="middle"><text y="6" dominant-baseline="hanging" stroke="none" vector-effect="non-scaling-stroke" x="220">Runtime</text></g></g></g></g></svg>