<svg height="600" viewbox="0 0 800 600" preserveAspectRatio="xMidYMid meet" xmlns="http://www.w3.org/2000/svg" width="800"><defs><marker markerHeight="2%" id="circle" viewBox="0 0 10 10 " refX="5" refY="5" markerUnits="userSpaceOnUse" markerWidth="2%"><circle r="3" fill="none" stroke="black" cx="5" cy="5"/></marker><marker markerHeight="2%" id="filled-circle" viewBox="0 0 10 10 " refX="5" refY="5" markerUnits="userSpaceOnUse" markerWidth="2%"><circle cx="5" cy="5" r="3" fill="black" stroke="none"/></marker><marker id="square" viewBox="0 0 10 10 " refX="5" refY="5" markerUnits="userSpaceOnUse" markerWidth="2%" markerHeight="2%"><rect x="2" y="2" width="6" height="6" fill="none" stroke="black"/></marker><marker markerUnits="userSpaceOnUse" markerWidth="2%" markerHeight="2%" id="filled-square" viewBox="0 0 10 10 " refX="5" refY="5"><rect height="6" fill="black" stroke="none" x="2" y="2" width="6"/></marker></defs><g stroke-width="1px" stroke-linecap="round" stroke-linejoin="round" transform="translate(80 520 )scale(1 -1 )" fill="hsl(198, 47%, 65%)" stroke="hsl(198, 47%, 65%)"><rect y="0" width="5.688889e+00" height="4.431878e+01" vector-effect="non-scaling-stroke" x="5.546667e+01"/><rect height="4.432099e+01" vector-effect="non-scaling-stroke" x="7.680000e+01" y="0" width="5.688889e+00"/><rect width="5.688889e+00" height="4.419641e+01" vector-effect="non-scaling-stroke" x="9.813333e+01" y="0"/><rect width="5.688889e+00" height="4.583573e+01" vector-effect="non-scaling-stroke" x="1.194667e+02" y="0"/><rect vector-effect="non-scaling-stroke" x="1.408000e+02" y="0" width="5.688889e+00" height="4.420600e+01"/><rect x="1.621333e+02" y="0" width="5.688889e+00" height="7.737943e+01" vector-effect="non-scaling-stroke"/><rect vector-effect="non-scaling-stroke" x="1.834667e+02" y="0" width="5.688889e+00" height="4.594571e+01"/><rect vector-effect="non-scaling-stroke" x="2.048000e+02" y="0" width="5.688889e+00" height="4.404582e+01"/><rect height="4.712016e+01" vector-effect="non-scaling-stroke" x="2.261333e+02" y="0" width="5.688889e+00"/><rect vector-effect="non-scaling-stroke" x="2.474667e+02" y="0" width="5.688889e+00" height="4.477051e+01"/><rect height="5.331543e+01" vector-effect="non-scaling-stroke" x="2.688000e+02" y="0" width="5.688889e+00"/><rect vector-effect="non-scaling-stroke" x="2.901333e+02" y="0" width="5.688889e+00" height="4.799250e+01"/><rect vector-effect="non-scaling-stroke" x="3.114667e+02" y="0" width="5.688889e+00" height="4.404874e+01"/><rect x="3.328000e+02" y="0" width="5.688889e+00" height="4.581121e+01" vector-effect="non-scaling-stroke"/><rect y="0" width="5.688889e+00" height="4.809259e+01" vector-effect="non-scaling-stroke" x="3.541333e+02"/><rect y="0" width="5.688889e+00" height="4.781666e+01" vector-effect="non-scaling-stroke" x="3.754667e+02"/><rect vector-effect="non-scaling-stroke" x="3.968000e+02" y="0" width="5.688889e+00" height="4.413109e+01"/><rect width="5.688889e+00" height="4.539008e+01" vector-effect="non-scaling-stroke" x="4.181333e+02" y="0"/><rect y="0" width="5.688889e+00" height="5.344726e+01" vector-effect="non-scaling-stroke" x="4.394667e+02"/><rect height="1.785825e+02" vector-effect="non-scaling-stroke" x="4.608000e+02" y="0" width="5.688889e+00"/><rect vector-effect="non-scaling-stroke" x="4.821333e+02" y="0" width="5.688889e+00" height="4.400043e+01"/><rect vector-effect="non-scaling-stroke" x="5.034667e+02" y="0" width="5.688889e+00" height="1.196975e+02"/><rect vector-effect="non-scaling-stroke" x="5.248000e+02" y="0" width="5.688889e+00" height="1.297521e+02"/><rect vector-effect="non-scaling-stroke" x="5.461333e+02" y="0" width="5.688889e+00" height="4.428697e+01"/><rect height="4.588254e+01" vector-effect="non-scaling-stroke" x="5.674667e+02" y="0" width="5.688889e+00"/></g><g stroke-width="1px" stroke-linecap="round" stroke-linejoin="round" transform="translate(80 520 )scale(1 -1 )" fill="hsl(49, 88%, 65%)" stroke="hsl(49, 88%, 65%)"><rect x="6.115556e+01" y="0" width="5.688889e+00" height="4.412609e+01" vector-effect="non-scaling-stroke"/><rect y="0" width="5.688889e+00" height="4.428330e+01" vector-effect="non-scaling-stroke" x="8.248889e+01"/><rect vector-effect="non-scaling-stroke" x="1.038222e+02" y="0" width="5.688889e+00" height="4.407998e+01"/><rect height="4.668992e+01" vector-effect="non-scaling-stroke" x="1.251556e+02" y="0" width="5.688889e+00"/><rect height="4.410724e+01" vector-effect="non-scaling-stroke" x="1.464889e+02" y="0" width="5.688889e+00"/><rect height="7.294366e+01" vector-effect="non-scaling-stroke" x="1.678222e+02" y="0" width="5.688889e+00"/><rect y="0" width="5.688889e+00" height="4.561583e+01" vector-effect="non-scaling-stroke" x="1.891556e+02"/><rect y="0" width="5.688889e+00" height="4.402792e+01" vector-effect="non-scaling-stroke" x="2.104889e+02"/><rect vector-effect="non-scaling-stroke" x="2.318222e+02" y="0" width="5.688889e+00" height="4.793131e+01"/><rect vector-effect="non-scaling-stroke" x="2.531556e+02" y="0" width="5.688889e+00" height="4.455025e+01"/><rect x="2.744889e+02" y="0" width="5.688889e+00" height="5.059781e+01" vector-effect="non-scaling-stroke"/><rect height="4.691937e+01" vector-effect="non-scaling-stroke" x="2.958222e+02" y="0" width="5.688889e+00"/><rect width="5.688889e+00" height="4.403620e+01" vector-effect="non-scaling-stroke" x="3.171556e+02" y="0"/><rect width="5.688889e+00" height="6.671129e+01" vector-effect="non-scaling-stroke" x="3.384889e+02" y="0"/><rect x="3.598222e+02" y="0" width="5.688889e+00" height="5.263537e+01" vector-effect="non-scaling-stroke"/><rect height="8.056516e+01" vector-effect="non-scaling-stroke" x="3.811556e+02" y="0" width="5.688889e+00"/><rect vector-effect="non-scaling-stroke" x="4.024889e+02" y="0" width="5.688889e+00" height="4.531304e+01"/><rect vector-effect="non-scaling-stroke" x="4.238222e+02" y="0" width="5.688889e+00" height="4.482368e+01"/><rect height="5.705866e+01" vector-effect="non-scaling-stroke" x="4.451556e+02" y="0" width="5.688889e+00"/><rect vector-effect="non-scaling-stroke" x="4.664889e+02" y="0" width="5.688889e+00" height="2.476031e+02"/><rect height="4.400019e+01" vector-effect="non-scaling-stroke" x="4.878222e+02" y="0" width="5.688889e+00"/><rect x="5.091556e+02" y="0" width="5.688889e+00" height="396" vector-effect="non-scaling-stroke"/><rect vector-effect="non-scaling-stroke" x="5.304889e+02" y="0" width="5.688889e+00" height="4.772838e+01"/><rect x="5.518222e+02" y="0" width="5.688889e+00" height="4.456339e+01" vector-effect="non-scaling-stroke"/><rect height="4.547862e+01" vector-effect="non-scaling-stroke" x="5.731556e+02" y="0" width="5.688889e+00"/></g><g stroke-width="1px" stroke-linecap="round" stroke-linejoin="round" transform="translate(80 520 )scale(1 -1 )" fill="hsl(260, 76%, 65%)" stroke="hsl(260, 76%, 65%)"><rect y="0" width="5.688889e+00" height="4.422041e+01" vector-effect="non-scaling-stroke" x="6.684444e+01"/><rect vector-effect="non-scaling-stroke" x="8.817778e+01" y="0" width="5.688889e+00" height="4.419969e+01"/><rect y="0" width="5.688889e+00" height="4.418193e+01" vector-effect="non-scaling-stroke" x="1.095111e+02"/><rect x="1.308444e+02" y="0" width="5.688889e+00" height="4.511679e+01" vector-effect="non-scaling-stroke"/><rect vector-effect="non-scaling-stroke" x="1.521778e+02" y="0" width="5.688889e+00" height="4.409855e+01"/><rect vector-effect="non-scaling-stroke" x="1.735111e+02" y="0" width="5.688889e+00" height="7.553721e+01"/><rect vector-effect="non-scaling-stroke" x="1.948444e+02" y="0" width="5.688889e+00" height="4.560232e+01"/><rect width="5.688889e+00" height="4.402735e+01" vector-effect="non-scaling-stroke" x="2.161778e+02" y="0"/><rect width="5.688889e+00" height="4.677008e+01" vector-effect="non-scaling-stroke" x="2.375111e+02" y="0"/><rect x="2.588444e+02" y="0" width="5.688889e+00" height="5.727079e+01" vector-effect="non-scaling-stroke"/><rect width="5.688889e+00" height="5.219067e+01" vector-effect="non-scaling-stroke" x="2.801778e+02" y="0"/><rect x="3.015111e+02" y="0" width="5.688889e+00" height="1.371144e+02" vector-effect="non-scaling-stroke"/><rect width="5.688889e+00" height="4.403399e+01" vector-effect="non-scaling-stroke" x="3.228444e+02" y="0"/><rect x="3.441778e+02" y="0" width="5.688889e+00" height="7.888465e+01" vector-effect="non-scaling-stroke"/><rect height="5.245017e+01" vector-effect="non-scaling-stroke" x="3.655111e+02" y="0" width="5.688889e+00"/><rect vector-effect="non-scaling-stroke" x="3.868444e+02" y="0" width="5.688889e+00" height="1.068612e+02"/><rect width="5.688889e+00" height="4.456139e+01" vector-effect="non-scaling-stroke" x="4.081778e+02" y="0"/><rect vector-effect="non-scaling-stroke" x="4.295111e+02" y="0" width="5.688889e+00" height="4.492622e+01"/><rect y="0" width="5.688889e+00" height="5.924102e+01" vector-effect="non-scaling-stroke" x="4.508444e+02"/><rect width="5.688889e+00" height="1.974190e+02" vector-effect="non-scaling-stroke" x="4.721778e+02" y="0"/><rect width="5.688889e+00" height="4.413885e+01" vector-effect="non-scaling-stroke" x="4.935111e+02" y="0"/><rect width="5.688889e+00" height="2.838068e+02" vector-effect="non-scaling-stroke" x="5.148444e+02" y="0"/><rect width="5.688889e+00" height="4.751051e+01" vector-effect="non-scaling-stroke" x="5.361778e+02" y="0"/><rect x="5.575111e+02" y="0" width="5.688889e+00" height="4.475474e+01" vector-effect="non-scaling-stroke"/><rect x="5.788444e+02" y="0" width="5.688889e+00" height="4.533640e+01" vector-effect="non-scaling-stroke"/></g><g font-size="12px" stroke-width="1px" stroke-linejoin="round" font-family="sans-serif" dominant-baseline="hanging" stroke="hsl(198, 47%, 65%)" stroke-linecap="round" font-style="normal" font-weight="normal" text-anchor="start" fill="hsl(198, 47%, 65%)"><rect width="12" height="12" vector-effect="non-scaling-stroke" x="736" y="466"/><g stroke="black" fill="black"><text dominant-baseline="hanging" stroke="none" vector-effect="non-scaling-stroke" x="752" y="466">Golang</text></g><g stroke-width="1px" stroke-linejoin="round" font-size="12px" font-style="normal" text-anchor="start" stroke="hsl(49, 88%, 65%)" stroke-linecap="round" font-family="sans-serif" font-weight="normal" dominant-baseline="hanging" fill="hsl(49, 88%, 65%)"><rect width="12" height="12" vector-effect="non-scaling-stroke" x="736" y="484"/><g fill="black" stroke="black"><text dominant-baseline="hanging" stroke="none" vector-effect="non-scaling-stroke" x="752" y="484">Rust</text></g><g fill="hsl(260, 76%, 65%)" stroke="hsl(260, 76%, 65%)" font-weight="normal" text-anchor="start" stroke-width="1px" dominant-baseline="hanging" font-family="sans-serif" font-style="normal" stroke-linejoin="round" font-size="12px" stroke-linecap="round"><rect vector-effect="non-scaling-stroke" x="736" y="502" width="12" height="12"/><g fill="black" stroke="black"><text x="752" y="502" dominant-baseline="hanging" stroke="none" vector-effect="non-scaling-stroke">Zig</text><g font-family="sans-serif" font-weight="normal" fill="none" text-anchor="start" stroke-linecap="round" stroke-linejoin="round" font-style="normal" dominant-baseline="hanging" stroke-width="2px" font-size="12px"><rect y="80" width="640" height="440" vector-effect="non-scaling-stroke" x="80"/></g><g stroke-width="2px" stroke-linecap="round" font-weight="normal" stroke="black" text-anchor="start" dominant-baseline="hanging" fill="none" font-size="12px" transform="translate(80 520 )scale(1 -1 )" stroke-linejoin="round" font-family="sans-serif" font-style="normal"><path vector-effect="non-scaling-stroke" d="M64,0 L64,-6 M8.533333e+01,0 L8.533333e+01,-6 M1.066667e+02,0 L1.066667e+02,-6 M128,0 L128,-6 M1.493333e+02,0 L1.493333e+02,-6 M1.706667e+02,0 L1.706667e+02,-6 M192,0 L192,-6 M2.133333e+02,0 L2.133333e+02,-6 M2.346667e+02,0 L2.346667e+02,-6 M256,0 L256,-6 M2.773333e+02,0 L2.773333e+02,-6 M2.986667e+02,0 L2.986667e+02,-6 M320,0 L320,-6 M3.413333e+02,0 L3.413333e+02,-6 M3.626667e+02,0 L3.626667e+02,-6 M384,0 L384,-6 M4.053333e+02,0 L4.053333e+02,-6 M4.266667e+02,0 L4.266667e+02,-6 M448,0 L448,-6 M4.693333e+02,0 L4.693333e+02,-6 M4.906667e+02,0 L4.906667e+02,-6 M512,0 L512,-6 M5.333333e+02,0 L5.333333e+02,-6 M5.546667e+02,0 L5.546667e+02,-6 M576,0 L576,-6 "/></g><g font-family="sans-serif" font-size="12px" transform="translate(80 520 )scale(1 1 )" stroke-width="2px" stroke="black" text-anchor="middle" dominant-baseline="hanging" fill="black" stroke-linejoin="round" stroke-linecap="round" font-style="normal" font-weight="normal"><text stroke="none" vector-effect="non-scaling-stroke" x="64" y="10" dominant-baseline="hanging">1</text><text x="8.533333e+01" y="10" dominant-baseline="hanging" stroke="none" vector-effect="non-scaling-stroke">2</text><text vector-effect="non-scaling-stroke" x="1.066667e+02" y="10" dominant-baseline="hanging" stroke="none">3</text><text x="128" y="10" dominant-baseline="hanging" stroke="none" vector-effect="non-scaling-stroke">4</text><text y="10" dominant-baseline="hanging" stroke="none" vector-effect="non-scaling-stroke" x="1.493333e+02">5</text><text dominant-baseline="hanging" stroke="none" vector-effect="non-scaling-stroke" x="1.706667e+02" y="10">6</text><text stroke="none" vector-effect="non-scaling-stroke" x="192" y="10" dominant-baseline="hanging">7</text><text y="10" dominant-baseline="hanging" stroke="none" vector-effect="non-scaling-stroke" x="2.133333e+02">8</text><text stroke="none" vector-effect="non-scaling-stroke" x="2.346667e+02" y="10" dominant-baseline="hanging">9</text><text x="256" y="10" dominant-baseline="hanging" stroke="none" vector-effect="non-scaling-stroke">10</text><text y="10" dominant-baseline="hanging" stroke="none" vector-effect="non-scaling-stroke" x="2.773333e+02">11</text><text stroke="none" vector-effect="non-scaling-stroke" x="2.986667e+02" y="10" dominant-baseline="hanging">12</text><text stroke="none" vector-effect="non-scaling-stroke" x="320" y="10" dominant-baseline="hanging">13</text><text dominant-baseline="hanging" stroke="none" vector-effect="non-scaling-stroke" x="3.413333e+02" y="10">14</text><text stroke="none" vector-effect="non-scaling-stroke" x="3.626667e+02" y="10" dominant-baseline="hanging">15</text><text dominant-baseline="hanging" stroke="none" vector-effect="non-scaling-stroke" x="384" y="10">16</text><text vector-effect="non-scaling-stroke" x="4.053333e+02" y="10" dominant-baseline="hanging" stroke="none">17</text><text stroke="none" vector-effect="non-scaling-stroke" x="4.266667e+02" y="10" dominant-baseline="hanging">18</text><text vector-effect="non-scaling-stroke" x="448" y="10" dominant-baseline="hanging" stroke="none">19</text><text stroke="none" vector-effect="non-scaling-stroke" x="4.693333e+02" y="10" dominant-baseline="hanging">20</text><text x="4.906667e+02" y="10" dominant-baseline="hanging" stroke="none" vector-effect="non-scaling-stroke">21</text><text y="10" dominant-baseline="hanging" stroke="none" vector-effect="non-scaling-stroke" x="512">22</text><text stroke="none" vector-effect="non-scaling-stroke" x="5.333333e+02" y="10" dominant-baseline="hanging">23</text><text dominant-baseline="hanging" stroke="none" vector-effect="non-scaling-stroke" x="5.546667e+02" y="10">24</text><text stroke="none" vector-effect="non-scaling-stroke" x="576" y="10" dominant-baseline="hanging">25</text></g><g stroke-linejoin="round" font-size="12px" font-family="sans-serif" font-style="normal" font-weight="bold" dominant-baseline="baseline" fill="black" transform="translate(80 520 )scale(1 1 )rotate(0 0 0 )" stroke-width="2px" stroke="black" stroke-linecap="round" text-anchor="middle"><text dominant-baseline="baseline" stroke="none" vector-effect="non-scaling-stroke" x="320" y="-6">Day</text></g><g font-style="normal" font-weight="bold" stroke-width="2px" font-size="12px" dominant-baseline="baseline" fill="black" stroke-linecap="round" font-family="sans-serif" transform="translate(80 520 )scale(1 -1 )" text-anchor="middle" stroke="black" stroke-linejoin="round"><path vector-effect="non-scaling-stroke" d="M0,44 L-6,44 M0,1.115375e+02 L-6,1.115375e+02 M0,1.790749e+02 L-6,1.790749e+02 M0,2.466124e+02 L-6,2.466124e+02 M0,3.141498e+02 L-6,3.141498e+02 M0,3.816873e+02 L-6,3.816873e+02 "/></g><g stroke-width="2px" stroke-linejoin="round" transform="translate(80 520 )scale(1 1 )" text-anchor="end" dominant-baseline="middle" stroke="black" font-size="12px" fill="black" stroke-linecap="round" font-family="sans-serif" font-style="normal" font-weight="normal"><text x="-10" y="-44" dominant-baseline="middle" stroke="none" vector-effect="non-scaling-stroke">0s</text><text dominant-baseline="middle" stroke="none" vector-effect="non-scaling-stroke" x="-10" y="-1.115375e+02">10ms</text><text stroke="none" vector-effect="non-scaling-stroke" x="-10" y="-1.790749e+02" dominant-baseline="middle">20ms</text><text stroke="none" vector-effect="non-scaling-stroke" x="-10" y="-2.466124e+02" dominant-baseline="middle">30ms</text><text stroke="none" vector-effect="non-scaling-stroke" x="-10" y="-3.141498e+02" dominant-baseline="middle">40ms</text><text vector-effect="non-scaling-stroke" x="-10" y="-3.816873e+02" dominant-baseline="middle" stroke="none">50ms</text></g><g font-weight="bold" stroke-width="2px" font-size="12px" fill="black" stroke="black" font-style="normal" font-family="sans-serif" stroke-linejoin="round" transform="translate(80 520 )scale(1 1 )rotate(-90 0 0 )" text-anchor="middle" dominant-baseline="hanging" stroke-linecap="round"><text stroke="none" vector-effect="non-scaling-stroke" x="220" y="6" dominant-baseline="hanging">Runtime</text></g></g></g></g></g></svg>