<svg preserveAspectRatio="xMidYMid meet" xmlns="http://www.w3.org/2000/svg" width="800" height="600" viewbox="0 0 800 600"><defs><marker markerWidth="2%" markerHeight="2%" id="circle" viewBox="0 0 10 10 " refX="5" refY="5" markerUnits="userSpaceOnUse"><circle fill="none" stroke="black" cx="5" cy="5" r="3"/></marker><marker refX="5" refY="5" markerUnits="userSpaceOnUse" markerWidth="2%" markerHeight="2%" id="filled-circle" viewBox="0 0 10 10 "><circle fill="black" stroke="none" cx="5" cy="5" r="3"/></marker><marker viewBox="0 0 10 10 " refX="5" refY="5" markerUnits="userSpaceOnUse" markerWidth="2%" markerHeight="2%" id="square"><rect fill="none" stroke="black" x="2" y="2" width="6" height="6"/></marker><marker refX="5" refY="5" markerUnits="userSpaceOnUse" markerWidth="2%" markerHeight="2%" id="filled-square" viewBox="0 0 10 10 "><rect fill="black" stroke="none" x="2" y="2" width="6" height="6"/></marker></defs><g transform="translate(80 520 )scale(1 -1 )" fill="hsl(198, 47%, 65%)" stroke="hsl(198, 47%, 65%)" stroke-width="1px" stroke-linecap="round" stroke-linejoin="round"><rect y="0" width="1.833333e+01" height="4.432046e+01" vector-effect="non-scaling-stroke" x="3.650000e+01"/><rect width="1.833333e+01" height="3.269573e+02" vector-effect="non-scaling-stroke" x="5.783333e+01" y="0"/><rect height="4.568665e+01" vector-effect="non-scaling-stroke" x="7.916667e+01" y="0" width="1.833333e+01"/><rect vector-effect="non-scaling-stroke" x="1.005000e+02" y="0" width="1.833333e+01" height="1.119387e+02"/><rect width="1.833333e+01" height="4.527785e+01" vector-effect="non-scaling-stroke" x="1.218333e+02" y="0"/><rect width="1.833333e+01" height="4.493368e+01" vector-effect="non-scaling-stroke" x="1.431667e+02" y="0"/></g><g stroke-linejoin="round" transform="translate(80 520 )scale(1 -1 )" fill="hsl(49, 88%, 65%)" stroke="hsl(49, 88%, 65%)" stroke-width="1px" stroke-linecap="round"><rect x="5.483333e+01" y="0" width="1.833333e+01" height="4.416216e+01" vector-effect="non-scaling-stroke"/><rect x="7.616667e+01" y="0" width="1.833333e+01" height="396" vector-effect="non-scaling-stroke"/><rect x="9.750000e+01" y="0" width="1.833333e+01" height="4.501873e+01" vector-effect="non-scaling-stroke"/><rect vector-effect="non-scaling-stroke" x="1.188333e+02" y="0" width="1.833333e+01" height="5.120911e+01"/><rect y="0" width="1.833333e+01" height="4.628371e+01" vector-effect="non-scaling-stroke" x="1.401667e+02"/><rect x="1.615000e+02" y="0" width="1.833333e+01" height="4.459941e+01" vector-effect="non-scaling-stroke"/></g><g stroke-linejoin="round" transform="translate(80 520 )scale(1 -1 )" fill="hsl(260, 76%, 65%)" stroke="hsl(260, 76%, 65%)" stroke-width="1px" stroke-linecap="round"><rect width="1.833333e+01" height="4.416834e+01" vector-effect="non-scaling-stroke" x="7.316667e+01" y="0"/><rect width="1.833333e+01" height="2.239032e+02" vector-effect="non-scaling-stroke" x="9.450000e+01" y="0"/><rect vector-effect="non-scaling-stroke" x="1.158333e+02" y="0" width="1.833333e+01" height="4.470181e+01"/><rect x="1.371667e+02" y="0" width="1.833333e+01" height="5.228081e+01" vector-effect="non-scaling-stroke"/><rect x="1.585000e+02" y="0" width="1.833333e+01" height="4.510883e+01" vector-effect="non-scaling-stroke"/><rect width="1.833333e+01" height="4.459822e+01" vector-effect="non-scaling-stroke" x="1.798333e+02" y="0"/></g><g stroke-linecap="round" stroke-linejoin="round" fill="hsl(198, 47%, 65%)" font-family="sans-serif" stroke="hsl(198, 47%, 65%)" font-size="12px" text-anchor="start" font-style="normal" font-weight="normal" dominant-baseline="hanging" stroke-width="1px"><rect y="466" width="12" height="12" vector-effect="non-scaling-stroke" x="736"/><g fill="black" stroke="black"><text vector-effect="non-scaling-stroke" x="752" y="466" dominant-baseline="hanging" stroke="none">Golang</text></g><g font-size="12px" fill="hsl(49, 88%, 65%)" font-family="sans-serif" font-style="normal" stroke-linejoin="round" text-anchor="start" font-weight="normal" dominant-baseline="hanging" stroke="hsl(49, 88%, 65%)" stroke-width="1px" stroke-linecap="round"><rect width="12" height="12" vector-effect="non-scaling-stroke" x="736" y="484"/><g stroke="black" fill="black"><text stroke="none" vector-effect="non-scaling-stroke" x="752" y="484" dominant-baseline="hanging">Rust</text></g><g font-size="12px" fill="hsl(260, 76%, 65%)" font-family="sans-serif" font-weight="normal" dominant-baseline="hanging" stroke="hsl(260, 76%, 65%)" stroke-width="1px" stroke-linejoin="round" text-anchor="start" font-style="normal" stroke-linecap="round"><rect height="12" vector-effect="non-scaling-stroke" x="736" y="502" width="12"/><g fill="black" stroke="black"><text dominant-baseline="hanging" stroke="none" vector-effect="non-scaling-stroke" x="752" y="502">Zig</text><g stroke-linejoin="round" text-anchor="start" fill="none" font-style="normal" font-weight="normal" stroke-linecap="round" font-size="12px" stroke-width="2px" font-family="sans-serif" dominant-baseline="hanging"><rect width="640" height="440" vector-effect="non-scaling-stroke" x="80" y="80"/></g><g font-style="normal" stroke="black" stroke-width="2px" stroke-linecap="round" font-size="12px" text-anchor="start" transform="translate(80 520 )scale(1 -1 )" fill="none" font-weight="normal" dominant-baseline="hanging" stroke-linejoin="round" font-family="sans-serif"><path vector-effect="non-scaling-stroke" d="M64,0 L64,-6 M8.533333e+01,0 L8.533333e+01,-6 M1.066667e+02,0 L1.066667e+02,-6 M128,0 L128,-6 M1.493333e+02,0 L1.493333e+02,-6 M1.706667e+02,0 L1.706667e+02,-6 "/></g><g stroke-linejoin="round" font-size="12px" transform="translate(80 520 )scale(1 1 )" fill="black" font-family="sans-serif" font-style="normal" font-weight="normal" stroke="black" stroke-width="2px" stroke-linecap="round" text-anchor="middle" dominant-baseline="hanging"><text stroke="none" vector-effect="non-scaling-stroke" x="64" y="10" dominant-baseline="hanging">1</text><text dominant-baseline="hanging" stroke="none" vector-effect="non-scaling-stroke" x="8.533333e+01" y="10">2</text><text vector-effect="non-scaling-stroke" x="1.066667e+02" y="10" dominant-baseline="hanging" stroke="none">3</text><text stroke="none" vector-effect="non-scaling-stroke" x="128" y="10" dominant-baseline="hanging">4</text><text dominant-baseline="hanging" stroke="none" vector-effect="non-scaling-stroke" x="1.493333e+02" y="10">5</text><text dominant-baseline="hanging" stroke="none" vector-effect="non-scaling-stroke" x="1.706667e+02" y="10">6</text></g><g font-size="12px" text-anchor="middle" transform="translate(80 520 )scale(1 1 )rotate(0 0 0 )" fill="black" font-family="sans-serif" font-style="normal" font-weight="bold" stroke-width="2px" stroke-linejoin="round" dominant-baseline="baseline" stroke="black" stroke-linecap="round"><text y="-6" dominant-baseline="baseline" stroke="none" vector-effect="non-scaling-stroke" x="320">Day</text></g><g font-style="normal" dominant-baseline="baseline" font-size="12px" text-anchor="middle" fill="black" font-weight="bold" stroke="black" stroke-width="2px" stroke-linecap="round" stroke-linejoin="round" transform="translate(80 520 )scale(1 -1 )" font-family="sans-serif"><path vector-effect="non-scaling-stroke" d="M0,44 L-6,44 M0,2.101119e+02 L-6,2.101119e+02 M0,3.762239e+02 L-6,3.762239e+02 "/></g><g stroke-linejoin="round" text-anchor="end" transform="translate(80 520 )scale(1 1 )" fill="black" font-family="sans-serif" font-weight="normal" stroke-width="2px" font-size="12px" font-style="normal" dominant-baseline="middle" stroke="black" stroke-linecap="round"><text vector-effect="non-scaling-stroke" x="-10" y="-44" dominant-baseline="middle" stroke="none">0s</text><text x="-10" y="-2.101119e+02" dominant-baseline="middle" stroke="none" vector-effect="non-scaling-stroke">10ms</text><text stroke="none" vector-effect="non-scaling-stroke" x="-10" y="-3.762239e+02" dominant-baseline="middle">20ms</text></g><g font-family="sans-serif" font-style="normal" font-weight="bold" dominant-baseline="hanging" font-size="12px" text-anchor="middle" transform="translate(80 520 )scale(1 1 )rotate(-90 0 0 )" fill="black" stroke="black" stroke-width="2px" stroke-linecap="round" stroke-linejoin="round"><text x="220" y="6" dominant-baseline="hanging" stroke="none" vector-effect="non-scaling-stroke">Runtime</text></g></g></g></g></g></svg>