<svg xmlns="http://www.w3.org/2000/svg" width="800" height="600" viewbox="0 0 800 600" preserveAspectRatio="xMidYMid meet"><defs><marker viewBox="0 0 10 10 " refX="5" refY="5" markerUnits="userSpaceOnUse" markerWidth="2%" markerHeight="2%" id="circle"><circle cx="5" cy="5" r="3" fill="none" stroke="black"/></marker><marker viewBox="0 0 10 10 " refX="5" refY="5" markerUnits="userSpaceOnUse" markerWidth="2%" markerHeight="2%" id="filled-circle"><circle cy="5" r="3" fill="black" stroke="none" cx="5"/></marker><marker refY="5" markerUnits="userSpaceOnUse" markerWidth="2%" markerHeight="2%" id="square" viewBox="0 0 10 10 " refX="5"><rect x="2" y="2" width="6" height="6" fill="none" stroke="black"/></marker><marker id="filled-square" viewBox="0 0 10 10 " refX="5" refY="5" markerUnits="userSpaceOnUse" markerWidth="2%" markerHeight="2%"><rect stroke="none" x="2" y="2" width="6" height="6" fill="black"/></marker></defs><g stroke="hsl(198, 47%, 65%)" stroke-width="1px" stroke-linecap="round" stroke-linejoin="round" transform="translate(80 520 )scale(1 -1 )" fill="hsl(198, 47%, 65%)"><rect height="4.410760e+01" vector-effect="non-scaling-stroke" x="4.029630e+01" y="0" width="1.580247e+01"/><rect vector-effect="non-scaling-stroke" x="8.684175e+01" y="0" width="1.580247e+01" height="1.357531e+02"/><rect height="4.456632e+01" vector-effect="non-scaling-stroke" x="1.333872e+02" y="0" width="1.580247e+01"/><rect x="1.799327e+02" y="0" width="1.580247e+01" height="6.681151e+01" vector-effect="non-scaling-stroke"/><rect x="2.264781e+02" y="0" width="1.580247e+01" height="4.442906e+01" vector-effect="non-scaling-stroke"/><rect x="2.730236e+02" y="0" width="1.580247e+01" height="4.419161e+01" vector-effect="non-scaling-stroke"/><rect y="0" width="1.580247e+01" height="4.404994e+01" vector-effect="non-scaling-stroke" x="3.195690e+02"/><rect height="396" vector-effect="non-scaling-stroke" x="3.661145e+02" y="0" width="1.580247e+01"/><rect x="4.126599e+02" y="0" width="1.580247e+01" height="8.366922e+01" vector-effect="non-scaling-stroke"/></g><g stroke-width="1px" stroke-linecap="round" stroke-linejoin="round" transform="translate(80 520 )scale(1 -1 )" fill="hsl(49, 88%, 65%)" stroke="hsl(49, 88%, 65%)"><rect x="5.609877e+01" y="0" width="1.580247e+01" height="4.405445e+01" vector-effect="non-scaling-stroke"/><rect vector-effect="non-scaling-stroke" x="1.026442e+02" y="0" width="1.580247e+01" height="1.621897e+02"/><rect vector-effect="non-scaling-stroke" x="1.491897e+02" y="0" width="1.580247e+01" height="4.434206e+01"/><rect width="1.580247e+01" height="4.642057e+01" vector-effect="non-scaling-stroke" x="1.957351e+02" y="0"/><rect y="0" width="1.580247e+01" height="4.476679e+01" vector-effect="non-scaling-stroke" x="2.422806e+02"/><rect width="1.580247e+01" height="4.413790e+01" vector-effect="non-scaling-stroke" x="2.888260e+02" y="0"/><rect vector-effect="non-scaling-stroke" x="3.353715e+02" y="0" width="1.580247e+01" height="4.406232e+01"/><rect height="1.618717e+02" vector-effect="non-scaling-stroke" x="3.819169e+02" y="0" width="1.580247e+01"/><rect x="4.284624e+02" y="0" width="1.580247e+01" height="1.336737e+02" vector-effect="non-scaling-stroke"/></g><g stroke-linejoin="round" transform="translate(80 520 )scale(1 -1 )" fill="hsl(260, 76%, 65%)" stroke="hsl(260, 76%, 65%)" stroke-width="1px" stroke-linecap="round"><rect vector-effect="non-scaling-stroke" x="7.190123e+01" y="0" width="1.580247e+01" height="4.405652e+01"/><rect y="0" width="1.580247e+01" height="1.003720e+02" vector-effect="non-scaling-stroke" x="1.184467e+02"/><rect vector-effect="non-scaling-stroke" x="1.649921e+02" y="0" width="1.580247e+01" height="4.423564e+01"/><rect y="0" width="1.580247e+01" height="4.678042e+01" vector-effect="non-scaling-stroke" x="2.115376e+02"/><rect width="1.580247e+01" height="4.437231e+01" vector-effect="non-scaling-stroke" x="2.580831e+02" y="0"/><rect vector-effect="non-scaling-stroke" x="3.046285e+02" y="0" width="1.580247e+01" height="4.410825e+01"/><rect y="0" width="1.580247e+01" height="4.404004e+01" vector-effect="non-scaling-stroke" x="3.511740e+02"/><rect y="0" width="1.580247e+01" height="2.545900e+02" vector-effect="non-scaling-stroke" x="3.977194e+02"/><rect height="1.437395e+02" vector-effect="non-scaling-stroke" x="4.442649e+02" y="0" width="1.580247e+01"/></g><g stroke-linejoin="round" font-family="sans-serif" fill="hsl(198, 47%, 65%)" stroke="hsl(198, 47%, 65%)" stroke-linecap="round" font-weight="normal" text-anchor="start" font-size="12px" font-style="normal" dominant-baseline="hanging" stroke-width="1px"><rect y="466" width="12" height="12" vector-effect="non-scaling-stroke" x="736"/><g stroke="black" fill="black"><text stroke="none" vector-effect="non-scaling-stroke" x="752" y="466" dominant-baseline="hanging">Golang</text></g><g stroke="hsl(49, 88%, 65%)" font-size="12px" font-style="normal" stroke-linejoin="round" stroke-linecap="round" dominant-baseline="hanging" stroke-width="1px" font-family="sans-serif" font-weight="normal" text-anchor="start" fill="hsl(49, 88%, 65%)"><rect width="12" height="12" vector-effect="non-scaling-stroke" x="736" y="484"/><g fill="black" stroke="black"><text stroke="none" vector-effect="non-scaling-stroke" x="752" y="484" dominant-baseline="hanging">Rust</text></g><g font-weight="normal" fill="hsl(260, 76%, 65%)" stroke-linecap="round" font-style="normal" dominant-baseline="hanging" stroke-width="1px" stroke-linejoin="round" font-family="sans-serif" text-anchor="start" stroke="hsl(260, 76%, 65%)" font-size="12px"><rect y="502" width="12" height="12" vector-effect="non-scaling-stroke" x="736"/><g fill="black" stroke="black"><text stroke="none" vector-effect="non-scaling-stroke" x="752" y="502" dominant-baseline="hanging">Zig</text><g font-weight="normal" stroke-linejoin="round" text-anchor="start" stroke-width="2px" fill="none" font-size="12px" font-style="normal" font-family="sans-serif" stroke-linecap="round" dominant-baseline="hanging"><rect vector-effect="non-scaling-stroke" x="80" y="80" width="640" height="440"/></g><g stroke-linecap="round" font-size="12px" font-style="normal" stroke-width="2px" font-weight="normal" text-anchor="start" fill="none" dominant-baseline="hanging" transform="translate(80 520 )scale(1 -1 )" stroke-linejoin="round" font-family="sans-serif" stroke="black"><path vector-effect="non-scaling-stroke" d="M64,0 L64,-6 M1.105455e+02,0 L1.105455e+02,-6 M1.570909e+02,0 L1.570909e+02,-6 M2.036364e+02,0 L2.036364e+02,-6 M2.501818e+02,0 L2.501818e+02,-6 M2.967273e+02,0 L2.967273e+02,-6 M3.432727e+02,0 L3.432727e+02,-6 M3.898182e+02,0 L3.898182e+02,-6 M4.363636e+02,0 L4.363636e+02,-6 "/></g><g font-weight="normal" stroke-linecap="round" font-size="12px" dominant-baseline="hanging" transform="translate(80 520 )scale(1 1 )" stroke-linejoin="round" font-family="sans-serif" text-anchor="middle" fill="black" stroke="black" font-style="normal" stroke-width="2px"><text stroke="none" vector-effect="non-scaling-stroke" x="64" y="10" dominant-baseline="hanging">1</text><text x="1.105455e+02" y="10" dominant-baseline="hanging" stroke="none" vector-effect="non-scaling-stroke">2</text><text stroke="none" vector-effect="non-scaling-stroke" x="1.570909e+02" y="10" dominant-baseline="hanging">3</text><text dominant-baseline="hanging" stroke="none" vector-effect="non-scaling-stroke" x="2.036364e+02" y="10">4</text><text stroke="none" vector-effect="non-scaling-stroke" x="2.501818e+02" y="10" dominant-baseline="hanging">5</text><text stroke="none" vector-effect="non-scaling-stroke" x="2.967273e+02" y="10" dominant-baseline="hanging">6</text><text x="3.432727e+02" y="10" dominant-baseline="hanging" stroke="none" vector-effect="non-scaling-stroke">7</text><text y="10" dominant-baseline="hanging" stroke="none" vector-effect="non-scaling-stroke" x="3.898182e+02">8</text><text stroke="none" vector-effect="non-scaling-stroke" x="4.363636e+02" y="10" dominant-baseline="hanging">9</text></g><g font-weight="bold" text-anchor="middle" fill="black" stroke-linecap="round" stroke-width="2px" font-family="sans-serif" stroke="black" font-size="12px" font-style="normal" dominant-baseline="baseline" transform="translate(80 520 )scale(1 1 )rotate(0 0 0 )" stroke-linejoin="round"><text dominant-baseline="baseline" stroke="none" vector-effect="non-scaling-stroke" x="320" y="-6">Day</text></g><g stroke="black" stroke-linecap="round" stroke-width="2px" stroke-linejoin="round" text-anchor="middle" font-size="12px" font-style="normal" dominant-baseline="baseline" transform="translate(80 520 )scale(1 -1 )" font-family="sans-serif" font-weight="bold" fill="black"><path vector-effect="non-scaling-stroke" d="M0,44 L-6,44 M0,9.977477e+01 L-6,9.977477e+01 M0,1.555495e+02 L-6,1.555495e+02 M0,2.113243e+02 L-6,2.113243e+02 M0,2.670991e+02 L-6,2.670991e+02 M0,3.228738e+02 L-6,3.228738e+02 M0,3.786486e+02 L-6,3.786486e+02 "/></g><g stroke-linejoin="round" font-family="sans-serif" font-weight="normal" fill="black" font-size="12px" dominant-baseline="middle" transform="translate(80 520 )scale(1 1 )" stroke-width="2px" text-anchor="end" stroke="black" stroke-linecap="round" font-style="normal"><text stroke="none" vector-effect="non-scaling-stroke" x="-10" y="-44" dominant-baseline="middle">0s</text><text vector-effect="non-scaling-stroke" x="-10" y="-9.977477e+01" dominant-baseline="middle" stroke="none">10ms</text><text stroke="none" vector-effect="non-scaling-stroke" x="-10" y="-1.555495e+02" dominant-baseline="middle">20ms</text><text y="-2.113243e+02" dominant-baseline="middle" stroke="none" vector-effect="non-scaling-stroke" x="-10">30ms</text><text y="-2.670991e+02" dominant-baseline="middle" stroke="none" vector-effect="non-scaling-stroke" x="-10">40ms</text><text stroke="none" vector-effect="non-scaling-stroke" x="-10" y="-3.228738e+02" dominant-baseline="middle">50ms</text><text stroke="none" vector-effect="non-scaling-stroke" x="-10" y="-3.786486e+02" dominant-baseline="middle">60ms</text></g><g stroke="black" stroke-linecap="round" stroke-width="2px" stroke-linejoin="round" font-family="sans-serif" font-weight="bold" text-anchor="middle" fill="black" font-size="12px" font-style="normal" dominant-baseline="hanging" transform="translate(80 520 )scale(1 1 )rotate(-90 0 0 )"><text stroke="none" vector-effect="non-scaling-stroke" x="220" y="6" dominant-baseline="hanging">Runtime</text></g></g></g></g></g></svg>