<svg height="600" viewbox="0 0 800 600" preserveAspectRatio="xMidYMid meet" xmlns="http://www.w3.org/2000/svg" width="800"><defs><marker markerHeight="2%" id="circle" viewBox="0 0 10 10 " refX="5" refY="5" markerUnits="userSpaceOnUse" markerWidth="2%"><circle cx="5" cy="5" r="3" fill="none" stroke="black"/></marker><marker markerWidth="2%" markerHeight="2%" id="filled-circle" viewBox="0 0 10 10 " refX="5" refY="5" markerUnits="userSpaceOnUse"><circle r="3" fill="black" stroke="none" cx="5" cy="5"/></marker><marker viewBox="0 0 10 10 " refX="5" refY="5" markerUnits="userSpaceOnUse" markerWidth="2%" markerHeight="2%" id="square"><rect height="6" fill="none" stroke="black" x="2" y="2" width="6"/></marker><marker markerWidth="2%" markerHeight="2%" id="filled-square" viewBox="0 0 10 10 " refX="5" refY="5" markerUnits="userSpaceOnUse"><rect fill="black" stroke="none" x="2" y="2" width="6" height="6"/></marker></defs><g fill="hsl(198, 47%, 65%)" stroke="hsl(198, 47%, 65%)" stroke-width="1px" stroke-linecap="round" stroke-linejoin="round" transform="translate(80 520 )scale(1 -1 )"><rect y="0" width="5.688889e+00" height="4.401470e+01" vector-effect="non-scaling-stroke" x="5.546667e+01"/><rect height="4.400310e+01" vector-effect="non-scaling-stroke" x="7.680000e+01" y="0" width="5.688889e+00"/><rect height="4.403881e+01" vector-effect="non-scaling-stroke" x="9.813333e+01" y="0" width="5.688889e+00"/><rect height="4.401455e+01" vector-effect="non-scaling-stroke" x="1.194667e+02" y="0" width="5.688889e+00"/><rect x="1.408000e+02" y="0" width="5.688889e+00" height="4.400781e+01" vector-effect="non-scaling-stroke"/><rect y="0" width="5.688889e+00" height="4.400777e+01" vector-effect="non-scaling-stroke" x="1.621333e+02"/><rect x="1.834667e+02" y="0" width="5.688889e+00" height="4.402331e+01" vector-effect="non-scaling-stroke"/><rect y="0" width="5.688889e+00" height="4.463670e+01" vector-effect="non-scaling-stroke" x="2.048000e+02"/><rect height="4.438296e+01" vector-effect="non-scaling-stroke" x="2.261333e+02" y="0" width="5.688889e+00"/><rect vector-effect="non-scaling-stroke" x="2.474667e+02" y="0" width="5.688889e+00" height="4.400133e+01"/><rect height="5.005157e+01" vector-effect="non-scaling-stroke" x="2.688000e+02" y="0" width="5.688889e+00"/><rect vector-effect="non-scaling-stroke" x="2.901333e+02" y="0" width="5.688889e+00" height="4.434044e+01"/><rect vector-effect="non-scaling-stroke" x="3.114667e+02" y="0" width="5.688889e+00" height="4.525274e+01"/><rect vector-effect="non-scaling-stroke" x="3.328000e+02" y="0" width="5.688889e+00" height="4.909808e+01"/><rect y="0" width="5.688889e+00" height="4.400312e+01" vector-effect="non-scaling-stroke" x="3.541333e+02"/><rect vector-effect="non-scaling-stroke" x="3.754667e+02" y="0" width="5.688889e+00" height="2.744795e+02"/><rect height="4.476786e+01" vector-effect="non-scaling-stroke" x="3.968000e+02" y="0" width="5.688889e+00"/><rect x="4.181333e+02" y="0" width="5.688889e+00" height="4.415491e+01" vector-effect="non-scaling-stroke"/><rect x="4.394667e+02" y="0" width="5.688889e+00" height="2.574768e+02" vector-effect="non-scaling-stroke"/><rect height="1.054148e+02" vector-effect="non-scaling-stroke" x="4.608000e+02" y="0" width="5.688889e+00"/><rect y="0" width="5.688889e+00" height="4.446533e+01" vector-effect="non-scaling-stroke" x="4.821333e+02"/><rect x="5.034667e+02" y="0" width="5.688889e+00" height="4.445102e+01" vector-effect="non-scaling-stroke"/><rect x="5.248000e+02" y="0" width="5.688889e+00" height="1.439619e+02" vector-effect="non-scaling-stroke"/><rect height="1.732324e+02" vector-effect="non-scaling-stroke" x="5.461333e+02" y="0" width="5.688889e+00"/><rect x="5.674667e+02" y="0" width="5.688889e+00" height="4.400272e+01" vector-effect="non-scaling-stroke"/></g><g stroke-width="1px" stroke-linecap="round" stroke-linejoin="round" transform="translate(80 520 )scale(1 -1 )" fill="hsl(49, 88%, 65%)" stroke="hsl(49, 88%, 65%)"><rect x="6.115556e+01" y="0" width="5.688889e+00" height="4.401170e+01" vector-effect="non-scaling-stroke"/><rect height="4.400100e+01" vector-effect="non-scaling-stroke" x="8.248889e+01" y="0" width="5.688889e+00"/><rect vector-effect="non-scaling-stroke" x="1.038222e+02" y="0" width="5.688889e+00" height="4.403152e+01"/><rect vector-effect="non-scaling-stroke" x="1.251556e+02" y="0" width="5.688889e+00" height="4.400946e+01"/><rect x="1.464889e+02" y="0" width="5.688889e+00" height="4.400538e+01" vector-effect="non-scaling-stroke"/><rect vector-effect="non-scaling-stroke" x="1.678222e+02" y="0" width="5.688889e+00" height="4.400861e+01"/><rect y="0" width="5.688889e+00" height="4.401329e+01" vector-effect="non-scaling-stroke" x="1.891556e+02"/><rect width="5.688889e+00" height="4.447350e+01" vector-effect="non-scaling-stroke" x="2.104889e+02" y="0"/><rect vector-effect="non-scaling-stroke" x="2.318222e+02" y="0" width="5.688889e+00" height="4.429392e+01"/><rect x="2.531556e+02" y="0" width="5.688889e+00" height="4.400096e+01" vector-effect="non-scaling-stroke"/><rect vector-effect="non-scaling-stroke" x="2.744889e+02" y="0" width="5.688889e+00" height="4.737521e+01"/><rect y="0" width="5.688889e+00" height="4.418664e+01" vector-effect="non-scaling-stroke" x="2.958222e+02"/><rect vector-effect="non-scaling-stroke" x="3.171556e+02" y="0" width="5.688889e+00" height="4.440915e+01"/><rect x="3.384889e+02" y="0" width="5.688889e+00" height="4.951316e+01" vector-effect="non-scaling-stroke"/><rect vector-effect="non-scaling-stroke" x="3.598222e+02" y="0" width="5.688889e+00" height="4.400176e+01"/><rect x="3.811556e+02" y="0" width="5.688889e+00" height="3.482961e+02" vector-effect="non-scaling-stroke"/><rect y="0" width="5.688889e+00" height="4.428421e+01" vector-effect="non-scaling-stroke" x="4.024889e+02"/><rect y="0" width="5.688889e+00" height="4.414063e+01" vector-effect="non-scaling-stroke" x="4.238222e+02"/><rect vector-effect="non-scaling-stroke" x="4.451556e+02" y="0" width="5.688889e+00" height="8.645415e+01"/><rect vector-effect="non-scaling-stroke" x="4.664889e+02" y="0" width="5.688889e+00" height="8.592736e+01"/><rect height="4.433809e+01" vector-effect="non-scaling-stroke" x="4.878222e+02" y="0" width="5.688889e+00"/><rect x="5.091556e+02" y="0" width="5.688889e+00" height="4.453807e+01" vector-effect="non-scaling-stroke"/><rect vector-effect="non-scaling-stroke" x="5.304889e+02" y="0" width="5.688889e+00" height="1.245125e+02"/><rect height="1.712270e+02" vector-effect="non-scaling-stroke" x="5.518222e+02" y="0" width="5.688889e+00"/><rect x="5.731556e+02" y="0" width="5.688889e+00" height="4.400232e+01" vector-effect="non-scaling-stroke"/></g><g stroke="hsl(260, 76%, 65%)" stroke-width="1px" stroke-linecap="round" stroke-linejoin="round" transform="translate(80 520 )scale(1 -1 )" fill="hsl(260, 76%, 65%)"><rect height="4.400891e+01" vector-effect="non-scaling-stroke" x="6.684444e+01" y="0" width="5.688889e+00"/><rect width="5.688889e+00" height="4.400171e+01" vector-effect="non-scaling-stroke" x="8.817778e+01" y="0"/><rect vector-effect="non-scaling-stroke" x="1.095111e+02" y="0" width="5.688889e+00" height="4.401368e+01"/><rect height="4.400982e+01" vector-effect="non-scaling-stroke" x="1.308444e+02" y="0" width="5.688889e+00"/><rect width="5.688889e+00" height="4.400515e+01" vector-effect="non-scaling-stroke" x="1.521778e+02" y="0"/><rect y="0" width="5.688889e+00" height="4.400744e+01" vector-effect="non-scaling-stroke" x="1.735111e+02"/><rect vector-effect="non-scaling-stroke" x="1.948444e+02" y="0" width="5.688889e+00" height="4.401274e+01"/><rect y="0" width="5.688889e+00" height="4.444156e+01" vector-effect="non-scaling-stroke" x="2.161778e+02"/><rect vector-effect="non-scaling-stroke" x="2.375111e+02" y="0" width="5.688889e+00" height="4.436252e+01"/><rect x="2.588444e+02" y="0" width="5.688889e+00" height="4.400101e+01" vector-effect="non-scaling-stroke"/><rect y="0" width="5.688889e+00" height="4.827037e+01" vector-effect="non-scaling-stroke" x="2.801778e+02"/><rect y="0" width="5.688889e+00" height="4.410653e+01" vector-effect="non-scaling-stroke" x="3.015111e+02"/><rect vector-effect="non-scaling-stroke" x="3.228444e+02" y="0" width="5.688889e+00" height="4.400827e+01"/><rect vector-effect="non-scaling-stroke" x="3.441778e+02" y="0" width="5.688889e+00" height="4.837476e+01"/><rect height="4.400151e+01" vector-effect="non-scaling-stroke" x="3.655111e+02" y="0" width="5.688889e+00"/><rect vector-effect="non-scaling-stroke" x="3.868444e+02" y="0" width="5.688889e+00" height="396"/><rect y="0" width="5.688889e+00" height="4.427033e+01" vector-effect="non-scaling-stroke" x="4.081778e+02"/><rect x="4.295111e+02" y="0" width="5.688889e+00" height="4.413820e+01" vector-effect="non-scaling-stroke"/><rect vector-effect="non-scaling-stroke" x="4.508444e+02" y="0" width="5.688889e+00" height="6.408820e+01"/><rect width="5.688889e+00" height="1.038196e+02" vector-effect="non-scaling-stroke" x="4.721778e+02" y="0"/><rect vector-effect="non-scaling-stroke" x="4.935111e+02" y="0" width="5.688889e+00" height="4.412373e+01"/><rect y="0" width="5.688889e+00" height="4.548907e+01" vector-effect="non-scaling-stroke" x="5.148444e+02"/><rect vector-effect="non-scaling-stroke" x="5.361778e+02" y="0" width="5.688889e+00" height="1.536570e+02"/><rect height="1.761281e+02" vector-effect="non-scaling-stroke" x="5.575111e+02" y="0" width="5.688889e+00"/><rect vector-effect="non-scaling-stroke" x="5.788444e+02" y="0" width="5.688889e+00" height="4.400194e+01"/></g><g font-weight="normal" text-anchor="start" fill="hsl(198, 47%, 65%)" stroke="hsl(198, 47%, 65%)" stroke-linecap="round" dominant-baseline="hanging" stroke-width="1px" font-style="normal" stroke-linejoin="round" font-family="sans-serif" font-size="12px"><rect vector-effect="non-scaling-stroke" x="736" y="466" width="12" height="12"/><g fill="black" stroke="black"><text dominant-baseline="hanging" stroke="none" vector-effect="non-scaling-stroke" x="752" y="466">Golang</text></g><g fill="hsl(49, 88%, 65%)" stroke-linecap="round" font-style="normal" font-family="sans-serif" font-weight="normal" dominant-baseline="hanging" stroke="hsl(49, 88%, 65%)" stroke-linejoin="round" font-size="12px" text-anchor="start" stroke-width="1px"><rect x="736" y="484" width="12" height="12" vector-effect="non-scaling-stroke"/><g fill="black" stroke="black"><text y="484" dominant-baseline="hanging" stroke="none" vector-effect="non-scaling-stroke" x="752">Rust</text></g><g text-anchor="start" stroke-width="1px" stroke-linejoin="round" font-size="12px" stroke-linecap="round" font-family="sans-serif" font-style="normal" font-weight="normal" dominant-baseline="hanging" fill="hsl(260, 76%, 65%)" stroke="hsl(260, 76%, 65%)"><rect height="12" vector-effect="non-scaling-stroke" x="736" y="502" width="12"/><g fill="black" stroke="black"><text dominant-baseline="hanging" stroke="none" vector-effect="non-scaling-stroke" x="752" y="502">Zig</text><g font-weight="normal" fill="none" stroke-linejoin="round" text-anchor="start" dominant-baseline="hanging" font-size="12px" font-style="normal" font-family="sans-serif" stroke-width="2px" stroke-linecap="round"><rect width="640" height="440" vector-effect="non-scaling-stroke" x="80" y="80"/></g><g font-weight="normal" dominant-baseline="hanging" stroke-linejoin="round" font-size="12px" text-anchor="start" stroke-width="2px" font-style="normal" transform="translate(80 520 )scale(1 -1 )" fill="none" stroke="black" stroke-linecap="round" font-family="sans-serif"><path vector-effect="non-scaling-stroke" d="M64,0 L64,-6 M8.533333e+01,0 L8.533333e+01,-6 M1.066667e+02,0 L1.066667e+02,-6 M128,0 L128,-6 M1.493333e+02,0 L1.493333e+02,-6 M1.706667e+02,0 L1.706667e+02,-6 M192,0 L192,-6 M2.133333e+02,0 L2.133333e+02,-6 M2.346667e+02,0 L2.346667e+02,-6 M256,0 L256,-6 M2.773333e+02,0 L2.773333e+02,-6 M2.986667e+02,0 L2.986667e+02,-6 M320,0 L320,-6 M3.413333e+02,0 L3.413333e+02,-6 M3.626667e+02,0 L3.626667e+02,-6 M384,0 L384,-6 M4.053333e+02,0 L4.053333e+02,-6 M4.266667e+02,0 L4.266667e+02,-6 M448,0 L448,-6 M4.693333e+02,0 L4.693333e+02,-6 M4.906667e+02,0 L4.906667e+02,-6 M512,0 L512,-6 M5.333333e+02,0 L5.333333e+02,-6 M5.546667e+02,0 L5.546667e+02,-6 M576,0 L576,-6 "/></g><g fill="black" stroke-linecap="round" text-anchor="middle" font-family="sans-serif" font-style="normal" dominant-baseline="hanging" transform="translate(80 520 )scale(1 1 )" font-size="12px" stroke-width="2px" font-weight="normal" stroke="black" stroke-linejoin="round"><text vector-effect="non-scaling-stroke" x="64" y="10" dominant-baseline="hanging" stroke="none">1</text><text vector-effect="non-scaling-stroke" x="8.533333e+01" y="10" dominant-baseline="hanging" stroke="none">2</text><text stroke="none" vector-effect="non-scaling-stroke" x="1.066667e+02" y="10" dominant-baseline="hanging">3</text><text dominant-baseline="hanging" stroke="none" vector-effect="non-scaling-stroke" x="128" y="10">4</text><text stroke="none" vector-effect="non-scaling-stroke" x="1.493333e+02" y="10" dominant-baseline="hanging">5</text><text x="1.706667e+02" y="10" dominant-baseline="hanging" stroke="none" vector-effect="non-scaling-stroke">6</text><text y="10" dominant-baseline="hanging" stroke="none" vector-effect="non-scaling-stroke" x="192">7</text><text stroke="none" vector-effect="non-scaling-stroke" x="2.133333e+02" y="10" dominant-baseline="hanging">8</text><text stroke="none" vector-effect="non-scaling-stroke" x="2.346667e+02" y="10" dominant-baseline="hanging">9</text><text vector-effect="non-scaling-stroke" x="256" y="10" dominant-baseline="hanging" stroke="none">10</text><text y="10" dominant-baseline="hanging" stroke="none" vector-effect="non-scaling-stroke" x="2.773333e+02">11</text><text y="10" dominant-baseline="hanging" stroke="none" vector-effect="non-scaling-stroke" x="2.986667e+02">12</text><text x="320" y="10" dominant-baseline="hanging" stroke="none" vector-effect="non-scaling-stroke">13</text><text x="3.413333e+02" y="10" dominant-baseline="hanging" stroke="none" vector-effect="non-scaling-stroke">14</text><text dominant-baseline="hanging" stroke="none" vector-effect="non-scaling-stroke" x="3.626667e+02" y="10">15</text><text y="10" dominant-baseline="hanging" stroke="none" vector-effect="non-scaling-stroke" x="384">16</text><text stroke="none" vector-effect="non-scaling-stroke" x="4.053333e+02" y="10" dominant-baseline="hanging">17</text><text stroke="none" vector-effect="non-scaling-stroke" x="4.266667e+02" y="10" dominant-baseline="hanging">18</text><text x="448" y="10" dominant-baseline="hanging" stroke="none" vector-effect="non-scaling-stroke">19</text><text stroke="none" vector-effect="non-scaling-stroke" x="4.693333e+02" y="10" dominant-baseline="hanging">20</text><text stroke="none" vector-effect="non-scaling-stroke" x="4.906667e+02" y="10" dominant-baseline="hanging">21</text><text y="10" dominant-baseline="hanging" stroke="none" vector-effect="non-scaling-stroke" x="512">22</text><text stroke="none" vector-effect="non-scaling-stroke" x="5.333333e+02" y="10" dominant-baseline="hanging">23</text><text stroke="none" vector-effect="non-scaling-stroke" x="5.546667e+02" y="10" dominant-baseline="hanging">24</text><text y="10" dominant-baseline="hanging" stroke="none" vector-effect="non-scaling-stroke" x="576">25</text></g><g stroke-linecap="round" font-size="12px" font-weight="bold" dominant-baseline="baseline" transform="translate(80 520 )scale(1 1 )rotate(0 0 0 )" fill="black" stroke="black" stroke-linejoin="round" text-anchor="middle" stroke-width="2px" font-family="sans-serif" font-style="normal"><text y="-6" dominant-baseline="baseline" stroke="none" vector-effect="non-scaling-stroke" x="320">Day</text></g><g stroke-width="2px" font-family="sans-serif" font-style="normal" font-weight="bold" font-size="12px" fill="black" stroke-linecap="round" dominant-baseline="baseline" transform="translate(80 520 )scale(1 -1 )" text-anchor="middle" stroke="black" stroke-linejoin="round"><path vector-effect="non-scaling-stroke" d="M0,44 L-6,44 M0,2.080753e+02 L-6,2.080753e+02 M0,3.721505e+02 L-6,3.721505e+02 "/></g><g dominant-baseline="middle" stroke-width="2px" text-anchor="end" fill="black" font-weight="normal" transform="translate(80 520 )scale(1 1 )" font-family="sans-serif" font-style="normal" stroke-linejoin="round" font-size="12px" stroke="black" stroke-linecap="round"><text stroke="none" vector-effect="non-scaling-stroke" x="-10" y="-44" dominant-baseline="middle">0s</text><text dominant-baseline="middle" stroke="none" vector-effect="non-scaling-stroke" x="-10" y="-2.080753e+02">100ms</text><text vector-effect="non-scaling-stroke" x="-10" y="-3.721505e+02" dominant-baseline="middle" stroke="none">200ms</text></g><g font-weight="bold" dominant-baseline="hanging" stroke-linecap="round" stroke-linejoin="round" font-size="12px" text-anchor="middle" font-style="normal" transform="translate(80 520 )scale(1 1 )rotate(-90 0 0 )" fill="black" stroke="black" stroke-width="2px" font-family="sans-serif"><text x="220" y="6" dominant-baseline="hanging" stroke="none" vector-effect="non-scaling-stroke">Runtime</text></g></g></g></g></g></svg>