<svg width="800" height="600" viewbox="0 0 800 600" preserveAspectRatio="xMidYMid meet" xmlns="http://www.w3.org/2000/svg"><defs><marker viewBox="0 0 10 10 " refX="5" refY="5" markerUnits="userSpaceOnUse" markerWidth="2%" markerHeight="2%" id="circle"><circle fill="none" stroke="black" cx="5" cy="5" r="3"/></marker><marker markerUnits="userSpaceOnUse" markerWidth="2%" markerHeight="2%" id="filled-circle" viewBox="0 0 10 10 " refX="5" refY="5"><circle r="3" fill="black" stroke="none" cx="5" cy="5"/></marker><marker markerUnits="userSpaceOnUse" markerWidth="2%" markerHeight="2%" id="square" viewBox="0 0 10 10 " refX="5" refY="5"><rect x="2" y="2" width="6" height="6" fill="none" stroke="black"/></marker><marker id="filled-square" viewBox="0 0 10 10 " refX="5" refY="5" markerUnits="userSpaceOnUse" markerWidth="2%" markerHeight="2%"><rect x="2" y="2" width="6" height="6" fill="black" stroke="none"/></marker></defs><g transform="translate(80 520 )scale(1 -1 )" fill="hsl(198, 47%, 65%)" stroke="hsl(198, 47%, 65%)" stroke-width="1px" stroke-linecap="round" stroke-linejoin="round"><rect width="6.464646e+00" height="4.403874e+01" vector-effect="non-scaling-stroke" x="5.430303e+01" y="0"/><rect width="6.464646e+00" height="4.400159e+01" vector-effect="non-scaling-stroke" x="7.563636e+01" y="0"/><rect vector-effect="non-scaling-stroke" x="9.696970e+01" y="0" width="6.464646e+00" height="4.400658e+01"/><rect width="6.464646e+00" height="4.400744e+01" vector-effect="non-scaling-stroke" x="1.183030e+02" y="0"/><rect y="0" width="6.464646e+00" height="4.401320e+01" vector-effect="non-scaling-stroke" x="1.396364e+02"/><rect y="0" width="6.464646e+00" height="4.400003e+01" vector-effect="non-scaling-stroke" x="1.609697e+02"/><rect vector-effect="non-scaling-stroke" x="1.823030e+02" y="0" width="6.464646e+00" height="4.408045e+01"/><rect vector-effect="non-scaling-stroke" x="2.036364e+02" y="0" width="6.464646e+00" height="4.420395e+01"/><rect x="2.249697e+02" y="0" width="6.464646e+00" height="4.400830e+01" vector-effect="non-scaling-stroke"/><rect x="2.463030e+02" y="0" width="6.464646e+00" height="4.425871e+01" vector-effect="non-scaling-stroke"/><rect x="2.676364e+02" y="0" width="6.464646e+00" height="4.400286e+01" vector-effect="non-scaling-stroke"/><rect x="2.889697e+02" y="0" width="6.464646e+00" height="4.642182e+01" vector-effect="non-scaling-stroke"/><rect height="4.402414e+01" vector-effect="non-scaling-stroke" x="3.103030e+02" y="0" width="6.464646e+00"/><rect vector-effect="non-scaling-stroke" x="3.316364e+02" y="0" width="6.464646e+00" height="4.754643e+01"/><rect width="6.464646e+00" height="4.403060e+01" vector-effect="non-scaling-stroke" x="3.529697e+02" y="0"/><rect y="0" width="6.464646e+00" height="6.342272e+01" vector-effect="non-scaling-stroke" x="3.743030e+02"/><rect vector-effect="non-scaling-stroke" x="3.956364e+02" y="0" width="6.464646e+00" height="9.115146e+01"/><rect vector-effect="non-scaling-stroke" x="4.169697e+02" y="0" width="6.464646e+00" height="4.400146e+01"/><rect height="4.406249e+01" vector-effect="non-scaling-stroke" x="4.383030e+02" y="0" width="6.464646e+00"/><rect x="4.596364e+02" y="0" width="6.464646e+00" height="4.427701e+01" vector-effect="non-scaling-stroke"/><rect y="0" width="6.464646e+00" height="396" vector-effect="non-scaling-stroke" x="4.809697e+02"/><rect x="5.023030e+02" y="0" width="6.464646e+00" height="4.508781e+01" vector-effect="non-scaling-stroke"/></g><g stroke-linejoin="round" transform="translate(80 520 )scale(1 -1 )" fill="hsl(49, 88%, 65%)" stroke="hsl(49, 88%, 65%)" stroke-width="1px" stroke-linecap="round"><rect x="6.076768e+01" y="0" width="6.464646e+00" height="4.402015e+01" vector-effect="non-scaling-stroke"/><rect x="8.210101e+01" y="0" width="6.464646e+00" height="4.400052e+01" vector-effect="non-scaling-stroke"/><rect height="4.400377e+01" vector-effect="non-scaling-stroke" x="1.034343e+02" y="0" width="6.464646e+00"/><rect x="1.247677e+02" y="0" width="6.464646e+00" height="4.400411e+01" vector-effect="non-scaling-stroke"/><rect height="4.400240e+01" vector-effect="non-scaling-stroke" x="1.461010e+02" y="0" width="6.464646e+00"/><rect x="1.674343e+02" y="0" width="6.464646e+00" height="4.400002e+01" vector-effect="non-scaling-stroke"/><rect x="1.887677e+02" y="0" width="6.464646e+00" height="4.401486e+01" vector-effect="non-scaling-stroke"/><rect x="2.101010e+02" y="0" width="6.464646e+00" height="4.460573e+01" vector-effect="non-scaling-stroke"/><rect x="2.314343e+02" y="0" width="6.464646e+00" height="4.400470e+01" vector-effect="non-scaling-stroke"/><rect vector-effect="non-scaling-stroke" x="2.527677e+02" y="0" width="6.464646e+00" height="4.401860e+01"/><rect vector-effect="non-scaling-stroke" x="2.741010e+02" y="0" width="6.464646e+00" height="4.400226e+01"/><rect vector-effect="non-scaling-stroke" x="2.954343e+02" y="0" width="6.464646e+00" height="4.729851e+01"/><rect x="3.167677e+02" y="0" width="6.464646e+00" height="4.401134e+01" vector-effect="non-scaling-stroke"/><rect width="6.464646e+00" height="4.751789e+01" vector-effect="non-scaling-stroke" x="3.381010e+02" y="0"/><rect x="3.594343e+02" y="0" width="6.464646e+00" height="4.401416e+01" vector-effect="non-scaling-stroke"/><rect vector-effect="non-scaling-stroke" x="3.807677e+02" y="0" width="6.464646e+00" height="4.610155e+01"/><rect vector-effect="non-scaling-stroke" x="4.234343e+02" y="0" width="6.464646e+00" height="4.400069e+01"/><rect y="0" width="6.464646e+00" height="4.402740e+01" vector-effect="non-scaling-stroke" x="4.447677e+02"/><rect vector-effect="non-scaling-stroke" x="4.874343e+02" y="0" width="6.464646e+00" height="1.522600e+02"/></g><g stroke-linecap="round" stroke-linejoin="round" transform="translate(80 520 )scale(1 -1 )" fill="hsl(260, 76%, 65%)" stroke="hsl(260, 76%, 65%)" stroke-width="1px"><rect vector-effect="non-scaling-stroke" x="6.723232e+01" y="0" width="6.464646e+00" height="4.401615e+01"/><rect vector-effect="non-scaling-stroke" x="8.856566e+01" y="0" width="6.464646e+00" height="4.400057e+01"/><rect width="6.464646e+00" height="4.400290e+01" vector-effect="non-scaling-stroke" x="1.098990e+02" y="0"/><rect y="0" width="6.464646e+00" height="4.401151e+01" vector-effect="non-scaling-stroke" x="1.312323e+02"/><rect height="4.442801e+01" vector-effect="non-scaling-stroke" x="1.525657e+02" y="0" width="6.464646e+00"/><rect vector-effect="non-scaling-stroke" x="1.738990e+02" y="0" width="6.464646e+00" height="4.400002e+01"/><rect vector-effect="non-scaling-stroke" x="1.952323e+02" y="0" width="6.464646e+00" height="4.400939e+01"/><rect width="6.464646e+00" height="4.404818e+01" vector-effect="non-scaling-stroke" x="2.165657e+02" y="0"/><rect vector-effect="non-scaling-stroke" x="2.378990e+02" y="0" width="6.464646e+00" height="4.400459e+01"/><rect width="6.464646e+00" height="4.401737e+01" vector-effect="non-scaling-stroke" x="2.592323e+02" y="0"/><rect width="6.464646e+00" height="4.400186e+01" vector-effect="non-scaling-stroke" x="2.805657e+02" y="0"/><rect width="6.464646e+00" height="4.772667e+01" vector-effect="non-scaling-stroke" x="3.018990e+02" y="0"/><rect x="3.232323e+02" y="0" width="6.464646e+00" height="4.401932e+01" vector-effect="non-scaling-stroke"/><rect width="6.464646e+00" height="4.401453e+01" vector-effect="non-scaling-stroke" x="3.658990e+02" y="0"/><rect vector-effect="non-scaling-stroke" x="3.872323e+02" y="0" width="6.464646e+00" height="5.514372e+01"/><rect vector-effect="non-scaling-stroke" x="4.298990e+02" y="0" width="6.464646e+00" height="4.400074e+01"/><rect vector-effect="non-scaling-stroke" x="4.512323e+02" y="0" width="6.464646e+00" height="4.452884e+01"/></g><g stroke="hsl(198, 47%, 65%)" stroke-linecap="round" stroke-linejoin="round" font-family="sans-serif" text-anchor="start" font-style="normal" font-weight="normal" font-size="12px" fill="hsl(198, 47%, 65%)" stroke-width="1px" dominant-baseline="hanging"><rect width="12" height="12" vector-effect="non-scaling-stroke" x="736" y="466"/><g fill="black" stroke="black"><text stroke="none" vector-effect="non-scaling-stroke" x="752" y="466" dominant-baseline="hanging">Golang</text></g><g font-weight="normal" dominant-baseline="hanging" fill="hsl(49, 88%, 65%)" stroke-linejoin="round" font-family="sans-serif" font-size="12px" stroke-linecap="round" font-style="normal" stroke-width="1px" text-anchor="start" stroke="hsl(49, 88%, 65%)"><rect vector-effect="non-scaling-stroke" x="736" y="484" width="12" height="12"/><g fill="black" stroke="black"><text dominant-baseline="hanging" stroke="none" vector-effect="non-scaling-stroke" x="752" y="484">Rust</text></g><g stroke-linecap="round" font-family="sans-serif" fill="hsl(260, 76%, 65%)" font-style="normal" font-weight="normal" font-size="12px" text-anchor="start" stroke="hsl(260, 76%, 65%)" stroke-linejoin="round" dominant-baseline="hanging" stroke-width="1px"><rect vector-effect="non-scaling-stroke" x="736" y="502" width="12" height="12"/><g fill="black" stroke="black"><text stroke="none" vector-effect="non-scaling-stroke" x="752" y="502" dominant-baseline="hanging">Zig</text><g font-weight="normal" dominant-baseline="hanging" font-family="sans-serif" font-size="12px" stroke-linecap="round" text-anchor="start" stroke-width="2px" font-style="normal" fill="none" stroke-linejoin="round"><rect width="640" height="440" vector-effect="non-scaling-stroke" x="80" y="80"/></g><g transform="translate(80 520 )scale(1 -1 )" stroke="black" stroke-linejoin="round" font-family="sans-serif" text-anchor="start" stroke-width="2px" font-style="normal" dominant-baseline="hanging" font-size="12px" fill="none" font-weight="normal" stroke-linecap="round"><path d="M64,0 L64,-6 M8.533333e+01,0 L8.533333e+01,-6 M1.066667e+02,0 L1.066667e+02,-6 M128,0 L128,-6 M1.493333e+02,0 L1.493333e+02,-6 M1.706667e+02,0 L1.706667e+02,-6 M192,0 L192,-6 M2.133333e+02,0 L2.133333e+02,-6 M2.346667e+02,0 L2.346667e+02,-6 M256,0 L256,-6 M2.773333e+02,0 L2.773333e+02,-6 M2.986667e+02,0 L2.986667e+02,-6 M320,0 L320,-6 M3.413333e+02,0 L3.413333e+02,-6 M3.626667e+02,0 L3.626667e+02,-6 M384,0 L384,-6 M4.053333e+02,0 L4.053333e+02,-6 M4.266667e+02,0 L4.266667e+02,-6 M448,0 L448,-6 M4.693333e+02,0 L4.693333e+02,-6 M4.906667e+02,0 L4.906667e+02,-6 M512,0 L512,-6 " vector-effect="non-scaling-stroke"/></g><g text-anchor="middle" font-style="normal" fill="black" stroke-linejoin="round" stroke-width="2px" font-family="sans-serif" font-size="12px" stroke="black" stroke-linecap="round" font-weight="normal" dominant-baseline="hanging" transform="translate(80 520 )scale(1 1 )"><text y="10" dominant-baseline="hanging" stroke="none" vector-effect="non-scaling-stroke" x="64">1</text><text x="8.533333e+01" y="10" dominant-baseline="hanging" stroke="none" vector-effect="non-scaling-stroke">2</text><text x="1.066667e+02" y="10" dominant-baseline="hanging" stroke="none" vector-effect="non-scaling-stroke">3</text><text x="128" y="10" dominant-baseline="hanging" stroke="none" vector-effect="non-scaling-stroke">4</text><text x="1.493333e+02" y="10" dominant-baseline="hanging" stroke="none" vector-effect="non-scaling-stroke">5</text><text stroke="none" vector-effect="non-scaling-stroke" x="1.706667e+02" y="10" dominant-baseline="hanging">6</text><text dominant-baseline="hanging" stroke="none" vector-effect="non-scaling-stroke" x="192" y="10">7</text><text stroke="none" vector-effect="non-scaling-stroke" x="2.133333e+02" y="10" dominant-baseline="hanging">8</text><text y="10" dominant-baseline="hanging" stroke="none" vector-effect="non-scaling-stroke" x="2.346667e+02">9</text><text stroke="none" vector-effect="non-scaling-stroke" x="256" y="10" dominant-baseline="hanging">10</text><text stroke="none" vector-effect="non-scaling-stroke" x="2.773333e+02" y="10" dominant-baseline="hanging">11</text><text dominant-baseline="hanging" stroke="none" vector-effect="non-scaling-stroke" x="2.986667e+02" y="10">12</text><text y="10" dominant-baseline="hanging" stroke="none" vector-effect="non-scaling-stroke" x="320">13</text><text stroke="none" vector-effect="non-scaling-stroke" x="3.413333e+02" y="10" dominant-baseline="hanging">14</text><text x="3.626667e+02" y="10" dominant-baseline="hanging" stroke="none" vector-effect="non-scaling-stroke">15</text><text stroke="none" vector-effect="non-scaling-stroke" x="384" y="10" dominant-baseline="hanging">16</text><text stroke="none" vector-effect="non-scaling-stroke" x="4.053333e+02" y="10" dominant-baseline="hanging">17</text><text y="10" dominant-baseline="hanging" stroke="none" vector-effect="non-scaling-stroke" x="4.266667e+02">18</text><text stroke="none" vector-effect="non-scaling-stroke" x="448" y="10" dominant-baseline="hanging">19</text><text dominant-baseline="hanging" stroke="none" vector-effect="non-scaling-stroke" x="4.693333e+02" y="10">20</text><text x="4.906667e+02" y="10" dominant-baseline="hanging" stroke="none" vector-effect="non-scaling-stroke">21</text><text dominant-baseline="hanging" stroke="none" vector-effect="non-scaling-stroke" x="512" y="10">22</text></g><g dominant-baseline="baseline" stroke="black" stroke-linejoin="round" text-anchor="middle" font-style="normal" stroke-width="2px" font-weight="bold" transform="translate(80 520 )scale(1 1 )rotate(0 0 0 )" stroke-linecap="round" font-family="sans-serif" font-size="12px" fill="black"><text dominant-baseline="baseline" stroke="none" vector-effect="non-scaling-stroke" x="320" y="-6">Day</text></g><g font-style="normal" font-weight="bold" fill="black" font-family="sans-serif" font-size="12px" text-anchor="middle" stroke="black" stroke-linecap="round" dominant-baseline="baseline" transform="translate(80 520 )scale(1 -1 )" stroke-width="2px" stroke-linejoin="round"><path vector-effect="non-scaling-stroke" d="M0,44 L-6,44 M0,8.742452e+01 L-6,8.742452e+01 M0,1.308490e+02 L-6,1.308490e+02 M0,1.742736e+02 L-6,1.742736e+02 M0,2.176981e+02 L-6,2.176981e+02 M0,2.611226e+02 L-6,2.611226e+02 M0,3.045471e+02 L-6,3.045471e+02 M0,3.479717e+02 L-6,3.479717e+02 M0,3.913962e+02 L-6,3.913962e+02 "/></g><g text-anchor="end" font-size="12px" transform="translate(80 520 )scale(1 1 )" stroke-width="2px" font-weight="normal" dominant-baseline="middle" stroke="black" stroke-linecap="round" stroke-linejoin="round" font-family="sans-serif" fill="black" font-style="normal"><text stroke="none" vector-effect="non-scaling-stroke" x="-10" y="-44" dominant-baseline="middle">0s</text><text dominant-baseline="middle" stroke="none" vector-effect="non-scaling-stroke" x="-10" y="-8.742452e+01">200ms</text><text stroke="none" vector-effect="non-scaling-stroke" x="-10" y="-1.308490e+02" dominant-baseline="middle">400ms</text><text x="-10" y="-1.742736e+02" dominant-baseline="middle" stroke="none" vector-effect="non-scaling-stroke">600ms</text><text stroke="none" vector-effect="non-scaling-stroke" x="-10" y="-2.176981e+02" dominant-baseline="middle">800ms</text><text x="-10" y="-2.611226e+02" dominant-baseline="middle" stroke="none" vector-effect="non-scaling-stroke">1s</text><text y="-3.045471e+02" dominant-baseline="middle" stroke="none" vector-effect="non-scaling-stroke" x="-10">1.2s</text><text y="-3.479717e+02" dominant-baseline="middle" stroke="none" vector-effect="non-scaling-stroke" x="-10">1.4s</text><text vector-effect="non-scaling-stroke" x="-10" y="-3.913962e+02" dominant-baseline="middle" stroke="none">1.6s</text></g><g font-weight="bold" stroke-linecap="round" stroke-linejoin="round" font-size="12px" text-anchor="middle" stroke="black" stroke-width="2px" font-style="normal" dominant-baseline="hanging" fill="black" font-family="sans-serif" transform="translate(80 520 )scale(1 1 )rotate(-90 0 0 )"><text y="6" dominant-baseline="hanging" stroke="none" vector-effect="non-scaling-stroke" x="220">Runtime</text></g></g></g></g></g></svg>