<svg viewbox="0 0 800 600" preserveAspectRatio="xMidYMid meet" xmlns="http://www.w3.org/2000/svg" width="800" height="600"><defs><marker markerHeight="2%" id="circle" viewBox="0 0 10 10 " refX="5" refY="5" markerUnits="userSpaceOnUse" markerWidth="2%"><circle cy="5" r="3" fill="none" stroke="black" cx="5"/></marker><marker id="filled-circle" viewBox="0 0 10 10 " refX="5" refY="5" markerUnits="userSpaceOnUse" markerWidth="2%" markerHeight="2%"><circle cx="5" cy="5" r="3" fill="black" stroke="none"/></marker><marker refY="5" markerUnits="userSpaceOnUse" markerWidth="2%" markerHeight="2%" id="square" viewBox="0 0 10 10 " refX="5"><rect y="2" width="6" height="6" fill="none" stroke="black" x="2"/></marker><marker id="filled-square" viewBox="0 0 10 10 " refX="5" refY="5" markerUnits="userSpaceOnUse" markerWidth="2%" markerHeight="2%"><rect y="2" width="6" height="6" fill="black" stroke="none" x="2"/></marker></defs><g fill="hsl(198, 47%, 65%)" stroke="hsl(198, 47%, 65%)" stroke-width="1px" stroke-linecap="round" stroke-linejoin="round" transform="translate(80 520 )scale(1 -1 )"><rect height="4.400775e+01" vector-effect="non-scaling-stroke" x="5.384127e+01" y="0" width="1.015873e+01"/><rect width="1.015873e+01" height="4.400214e+01" vector-effect="non-scaling-stroke" x="7.517460e+01" y="0"/><rect vector-effect="non-scaling-stroke" x="9.650794e+01" y="0" width="1.015873e+01" height="4.402350e+01"/><rect height="4.401013e+01" vector-effect="non-scaling-stroke" x="1.178413e+02" y="0" width="1.015873e+01"/><rect y="0" width="1.015873e+01" height="4.400580e+01" vector-effect="non-scaling-stroke" x="1.391746e+02"/><rect vector-effect="non-scaling-stroke" x="1.605079e+02" y="0" width="1.015873e+01" height="4.401509e+01"/><rect vector-effect="non-scaling-stroke" x="1.818413e+02" y="0" width="1.015873e+01" height="4.401174e+01"/><rect vector-effect="non-scaling-stroke" x="2.031746e+02" y="0" width="1.015873e+01" height="4.431504e+01"/><rect width="1.015873e+01" height="4.418882e+01" vector-effect="non-scaling-stroke" x="2.245079e+02" y="0"/><rect width="1.015873e+01" height="4.400074e+01" vector-effect="non-scaling-stroke" x="2.458413e+02" y="0"/><rect vector-effect="non-scaling-stroke" x="2.671746e+02" y="0" width="1.015873e+01" height="5.065464e+01"/><rect vector-effect="non-scaling-stroke" x="2.885079e+02" y="0" width="1.015873e+01" height="4.423888e+01"/><rect y="0" width="1.015873e+01" height="4.438058e+01" vector-effect="non-scaling-stroke" x="3.098413e+02"/><rect y="0" width="1.015873e+01" height="4.681037e+01" vector-effect="non-scaling-stroke" x="3.311746e+02"/><rect height="4.400239e+01" vector-effect="non-scaling-stroke" x="3.525079e+02" y="0" width="1.015873e+01"/><rect height="396" vector-effect="non-scaling-stroke" x="3.738413e+02" y="0" width="1.015873e+01"/><rect height="4.422812e+01" vector-effect="non-scaling-stroke" x="3.951746e+02" y="0" width="1.015873e+01"/><rect width="1.015873e+01" height="4.408930e+01" vector-effect="non-scaling-stroke" x="4.165079e+02" y="0"/><rect height="2.053979e+02" vector-effect="non-scaling-stroke" x="4.378413e+02" y="0" width="1.015873e+01"/><rect width="1.015873e+01" height="6.554127e+01" vector-effect="non-scaling-stroke" x="4.591746e+02" y="0"/><rect height="4.503881e+01" vector-effect="non-scaling-stroke" x="4.805079e+02" y="0" width="1.015873e+01"/></g><g stroke-linecap="round" stroke-linejoin="round" transform="translate(80 520 )scale(1 -1 )" fill="hsl(49, 88%, 65%)" stroke="hsl(49, 88%, 65%)" stroke-width="1px"><rect vector-effect="non-scaling-stroke" x="64" y="0" width="1.015873e+01" height="4.400351e+01"/><rect height="4.400051e+01" vector-effect="non-scaling-stroke" x="8.533333e+01" y="0" width="1.015873e+01"/><rect vector-effect="non-scaling-stroke" x="1.066667e+02" y="0" width="1.015873e+01" height="4.401775e+01"/><rect y="0" width="1.015873e+01" height="4.400605e+01" vector-effect="non-scaling-stroke" x="128"/><rect vector-effect="non-scaling-stroke" x="1.493333e+02" y="0" width="1.015873e+01" height="4.400468e+01"/><rect x="1.706667e+02" y="0" width="1.015873e+01" height="4.400897e+01" vector-effect="non-scaling-stroke"/><rect vector-effect="non-scaling-stroke" x="192" y="0" width="1.015873e+01" height="4.401049e+01"/><rect vector-effect="non-scaling-stroke" x="2.133333e+02" y="0" width="1.015873e+01" height="4.430561e+01"/><rect height="4.418252e+01" vector-effect="non-scaling-stroke" x="2.346667e+02" y="0" width="1.015873e+01"/><rect vector-effect="non-scaling-stroke" x="2.560000e+02" y="0" width="1.015873e+01" height="4.400056e+01"/><rect y="0" width="1.015873e+01" height="4.648442e+01" vector-effect="non-scaling-stroke" x="2.773333e+02"/><rect x="2.986667e+02" y="0" width="1.015873e+01" height="4.414919e+01" vector-effect="non-scaling-stroke"/><rect vector-effect="non-scaling-stroke" x="320" y="0" width="1.015873e+01" height="4.432268e+01"/><rect y="0" width="1.015873e+01" height="4.709541e+01" vector-effect="non-scaling-stroke" x="3.413333e+02"/><rect width="1.015873e+01" height="4.400101e+01" vector-effect="non-scaling-stroke" x="3.626667e+02" y="0"/><rect x="4.053333e+02" y="0" width="1.015873e+01" height="4.415595e+01" vector-effect="non-scaling-stroke"/><rect width="1.015873e+01" height="4.410479e+01" vector-effect="non-scaling-stroke" x="4.266667e+02" y="0"/><rect vector-effect="non-scaling-stroke" x="4.693333e+02" y="0" width="1.015873e+01" height="6.155360e+01"/></g><g stroke-linejoin="round" font-style="normal" dominant-baseline="hanging" fill="hsl(198, 47%, 65%)" stroke-width="1px" font-size="12px" font-weight="normal" text-anchor="start" stroke="hsl(198, 47%, 65%)" stroke-linecap="round" font-family="sans-serif"><rect height="12" vector-effect="non-scaling-stroke" x="736" y="484" width="12"/><g fill="black" stroke="black"><text vector-effect="non-scaling-stroke" x="752" y="484" dominant-baseline="hanging" stroke="none">Golang</text></g><g stroke-linecap="round" font-weight="normal" text-anchor="start" stroke-width="1px" stroke-linejoin="round" font-family="sans-serif" font-size="12px" fill="hsl(49, 88%, 65%)" stroke="hsl(49, 88%, 65%)" font-style="normal" dominant-baseline="hanging"><rect x="736" y="502" width="12" height="12" vector-effect="non-scaling-stroke"/><g stroke="black" fill="black"><text dominant-baseline="hanging" stroke="none" vector-effect="non-scaling-stroke" x="752" y="502">Rust</text><g stroke-width="2px" stroke-linecap="round" font-family="sans-serif" font-weight="normal" font-size="12px" stroke-linejoin="round" dominant-baseline="hanging" text-anchor="start" fill="none" font-style="normal"><rect vector-effect="non-scaling-stroke" x="80" y="80" width="640" height="440"/></g><g dominant-baseline="hanging" font-family="sans-serif" font-weight="normal" fill="none" stroke-width="2px" transform="translate(80 520 )scale(1 -1 )" stroke-linejoin="round" font-style="normal" stroke-linecap="round" font-size="12px" text-anchor="start" stroke="black"><path d="M64,0 L64,-6 M8.533333e+01,0 L8.533333e+01,-6 M1.066667e+02,0 L1.066667e+02,-6 M128,0 L128,-6 M1.493333e+02,0 L1.493333e+02,-6 M1.706667e+02,0 L1.706667e+02,-6 M192,0 L192,-6 M2.133333e+02,0 L2.133333e+02,-6 M2.346667e+02,0 L2.346667e+02,-6 M256,0 L256,-6 M2.773333e+02,0 L2.773333e+02,-6 M2.986667e+02,0 L2.986667e+02,-6 M320,0 L320,-6 M3.413333e+02,0 L3.413333e+02,-6 M3.626667e+02,0 L3.626667e+02,-6 M384,0 L384,-6 M4.053333e+02,0 L4.053333e+02,-6 M4.266667e+02,0 L4.266667e+02,-6 M448,0 L448,-6 M4.693333e+02,0 L4.693333e+02,-6 M4.906667e+02,0 L4.906667e+02,-6 " vector-effect="non-scaling-stroke"/></g><g stroke-width="2px" font-size="12px" font-weight="normal" text-anchor="middle" transform="translate(80 520 )scale(1 1 )" dominant-baseline="hanging" stroke-linejoin="round" stroke="black" stroke-linecap="round" font-family="sans-serif" fill="black" font-style="normal"><text y="10" dominant-baseline="hanging" stroke="none" vector-effect="non-scaling-stroke" x="64">1</text><text y="10" dominant-baseline="hanging" stroke="none" vector-effect="non-scaling-stroke" x="8.533333e+01">2</text><text x="1.066667e+02" y="10" dominant-baseline="hanging" stroke="none" vector-effect="non-scaling-stroke">3</text><text x="128" y="10" dominant-baseline="hanging" stroke="none" vector-effect="non-scaling-stroke">4</text><text stroke="none" vector-effect="non-scaling-stroke" x="1.493333e+02" y="10" dominant-baseline="hanging">5</text><text stroke="none" vector-effect="non-scaling-stroke" x="1.706667e+02" y="10" dominant-baseline="hanging">6</text><text stroke="none" vector-effect="non-scaling-stroke" x="192" y="10" dominant-baseline="hanging">7</text><text stroke="none" vector-effect="non-scaling-stroke" x="2.133333e+02" y="10" dominant-baseline="hanging">8</text><text dominant-baseline="hanging" stroke="none" vector-effect="non-scaling-stroke" x="2.346667e+02" y="10">9</text><text stroke="none" vector-effect="non-scaling-stroke" x="256" y="10" dominant-baseline="hanging">10</text><text vector-effect="non-scaling-stroke" x="2.773333e+02" y="10" dominant-baseline="hanging" stroke="none">11</text><text vector-effect="non-scaling-stroke" x="2.986667e+02" y="10" dominant-baseline="hanging" stroke="none">12</text><text vector-effect="non-scaling-stroke" x="320" y="10" dominant-baseline="hanging" stroke="none">13</text><text stroke="none" vector-effect="non-scaling-stroke" x="3.413333e+02" y="10" dominant-baseline="hanging">14</text><text y="10" dominant-baseline="hanging" stroke="none" vector-effect="non-scaling-stroke" x="3.626667e+02">15</text><text y="10" dominant-baseline="hanging" stroke="none" vector-effect="non-scaling-stroke" x="384">16</text><text stroke="none" vector-effect="non-scaling-stroke" x="4.053333e+02" y="10" dominant-baseline="hanging">17</text><text x="4.266667e+02" y="10" dominant-baseline="hanging" stroke="none" vector-effect="non-scaling-stroke">18</text><text dominant-baseline="hanging" stroke="none" vector-effect="non-scaling-stroke" x="448" y="10">19</text><text stroke="none" vector-effect="non-scaling-stroke" x="4.693333e+02" y="10" dominant-baseline="hanging">20</text><text dominant-baseline="hanging" stroke="none" vector-effect="non-scaling-stroke" x="4.906667e+02" y="10">21</text></g><g stroke-linejoin="round" font-style="normal" font-family="sans-serif" font-size="12px" font-weight="bold" stroke-width="2px" stroke-linecap="round" dominant-baseline="baseline" text-anchor="middle" fill="black" stroke="black" transform="translate(80 520 )scale(1 1 )rotate(0 0 0 )"><text stroke="none" vector-effect="non-scaling-stroke" x="320" y="-6" dominant-baseline="baseline">Day</text></g><g font-size="12px" transform="translate(80 520 )scale(1 -1 )" text-anchor="middle" fill="black" stroke="black" stroke-width="2px" stroke-linecap="round" stroke-linejoin="round" font-style="normal" dominant-baseline="baseline" font-family="sans-serif" font-weight="bold"><path vector-effect="non-scaling-stroke" d="M0,44 L-6,44 M0,9.119185e+01 L-6,9.119185e+01 M0,1.383837e+02 L-6,1.383837e+02 M0,1.855756e+02 L-6,1.855756e+02 M0,2.327674e+02 L-6,2.327674e+02 M0,2.799593e+02 L-6,2.799593e+02 M0,3.271511e+02 L-6,3.271511e+02 M0,3.743430e+02 L-6,3.743430e+02 "/></g><g dominant-baseline="middle" font-weight="normal" transform="translate(80 520 )scale(1 1 )" stroke-linejoin="round" text-anchor="end" fill="black" stroke="black" stroke-width="2px" font-style="normal" stroke-linecap="round" font-family="sans-serif" font-size="12px"><text x="-10" y="-44" dominant-baseline="middle" stroke="none" vector-effect="non-scaling-stroke">0s</text><text stroke="none" vector-effect="non-scaling-stroke" x="-10" y="-9.119185e+01" dominant-baseline="middle">100ms</text><text stroke="none" vector-effect="non-scaling-stroke" x="-10" y="-1.383837e+02" dominant-baseline="middle">200ms</text><text stroke="none" vector-effect="non-scaling-stroke" x="-10" y="-1.855756e+02" dominant-baseline="middle">300ms</text><text stroke="none" vector-effect="non-scaling-stroke" x="-10" y="-2.327674e+02" dominant-baseline="middle">400ms</text><text y="-2.799593e+02" dominant-baseline="middle" stroke="none" vector-effect="non-scaling-stroke" x="-10">500ms</text><text vector-effect="non-scaling-stroke" x="-10" y="-3.271511e+02" dominant-baseline="middle" stroke="none">600ms</text><text stroke="none" vector-effect="non-scaling-stroke" x="-10" y="-3.743430e+02" dominant-baseline="middle">700ms</text></g><g font-style="normal" stroke-linecap="round" font-size="12px" font-weight="bold" stroke="black" stroke-width="2px" transform="translate(80 520 )scale(1 1 )rotate(-90 0 0 )" stroke-linejoin="round" font-family="sans-serif" text-anchor="middle" fill="black" dominant-baseline="hanging"><text stroke="none" vector-effect="non-scaling-stroke" x="220" y="6" dominant-baseline="hanging">Runtime</text></g></g></g></g></svg>