<svg height="600" viewbox="0 0 800 600" preserveAspectRatio="xMidYMid meet" xmlns="http://www.w3.org/2000/svg" width="800"><defs><marker markerWidth="2%" markerHeight="2%" id="circle" viewBox="0 0 10 10 " refX="5" refY="5" markerUnits="userSpaceOnUse"><circle cx="5" cy="5" r="3" fill="none" stroke="black"/></marker><marker markerUnits="userSpaceOnUse" markerWidth="2%" markerHeight="2%" id="filled-circle" viewBox="0 0 10 10 " refX="5" refY="5"><circle fill="black" stroke="none" cx="5" cy="5" r="3"/></marker><marker markerHeight="2%" id="square" viewBox="0 0 10 10 " refX="5" refY="5" markerUnits="userSpaceOnUse" markerWidth="2%"><rect x="2" y="2" width="6" height="6" fill="none" stroke="black"/></marker><marker markerHeight="2%" id="filled-square" viewBox="0 0 10 10 " refX="5" refY="5" markerUnits="userSpaceOnUse" markerWidth="2%"><rect width="6" height="6" fill="black" stroke="none" x="2" y="2"/></marker></defs><g stroke-linejoin="round" transform="translate(80 520 )scale(1 -1 )" fill="hsl(198, 47%, 65%)" stroke="hsl(198, 47%, 65%)" stroke-width="1px" stroke-linecap="round"><rect height="4.404153e+01" vector-effect="non-scaling-stroke" x="5.384127e+01" y="0" width="6.772487e+00"/><rect width="6.772487e+00" height="4.400170e+01" vector-effect="non-scaling-stroke" x="7.517460e+01" y="0"/><rect vector-effect="non-scaling-stroke" x="9.650794e+01" y="0" width="6.772487e+00" height="4.400705e+01"/><rect x="1.178413e+02" y="0" width="6.772487e+00" height="4.400797e+01" vector-effect="non-scaling-stroke"/><rect y="0" width="6.772487e+00" height="4.401415e+01" vector-effect="non-scaling-stroke" x="1.391746e+02"/><rect vector-effect="non-scaling-stroke" x="1.605079e+02" y="0" width="6.772487e+00" height="4.400003e+01"/><rect width="6.772487e+00" height="4.408623e+01" vector-effect="non-scaling-stroke" x="1.818413e+02" y="0"/><rect x="2.031746e+02" y="0" width="6.772487e+00" height="4.421860e+01" vector-effect="non-scaling-stroke"/><rect width="6.772487e+00" height="4.400890e+01" vector-effect="non-scaling-stroke" x="2.245079e+02" y="0"/><rect vector-effect="non-scaling-stroke" x="2.458413e+02" y="0" width="6.772487e+00" height="4.427730e+01"/><rect vector-effect="non-scaling-stroke" x="2.671746e+02" y="0" width="6.772487e+00" height="4.400307e+01"/><rect vector-effect="non-scaling-stroke" x="2.885079e+02" y="0" width="6.772487e+00" height="4.659584e+01"/><rect vector-effect="non-scaling-stroke" x="3.098413e+02" y="0" width="6.772487e+00" height="4.402587e+01"/><rect y="0" width="6.772487e+00" height="4.780569e+01" vector-effect="non-scaling-stroke" x="3.311746e+02"/><rect x="3.525079e+02" y="0" width="6.772487e+00" height="4.403280e+01" vector-effect="non-scaling-stroke"/><rect y="0" width="6.772487e+00" height="6.481834e+01" vector-effect="non-scaling-stroke" x="3.738413e+02"/><rect y="0" width="6.772487e+00" height="9.453954e+01" vector-effect="non-scaling-stroke" x="3.951746e+02"/><rect y="0" width="6.772487e+00" height="4.400157e+01" vector-effect="non-scaling-stroke" x="4.165079e+02"/><rect vector-effect="non-scaling-stroke" x="4.378413e+02" y="0" width="6.772487e+00" height="4.406698e+01"/><rect y="0" width="6.772487e+00" height="4.429691e+01" vector-effect="non-scaling-stroke" x="4.591746e+02"/><rect height="396" vector-effect="non-scaling-stroke" x="4.805079e+02" y="0" width="6.772487e+00"/></g><g stroke="hsl(49, 88%, 65%)" stroke-width="1px" stroke-linecap="round" stroke-linejoin="round" transform="translate(80 520 )scale(1 -1 )" fill="hsl(49, 88%, 65%)"><rect x="6.061376e+01" y="0" width="6.772487e+00" height="4.402160e+01" vector-effect="non-scaling-stroke"/><rect vector-effect="non-scaling-stroke" x="8.194709e+01" y="0" width="6.772487e+00" height="4.400056e+01"/><rect y="0" width="6.772487e+00" height="4.400404e+01" vector-effect="non-scaling-stroke" x="1.032804e+02"/><rect vector-effect="non-scaling-stroke" x="1.246138e+02" y="0" width="6.772487e+00" height="4.400441e+01"/><rect vector-effect="non-scaling-stroke" x="1.459471e+02" y="0" width="6.772487e+00" height="4.400257e+01"/><rect vector-effect="non-scaling-stroke" x="1.672804e+02" y="0" width="6.772487e+00" height="4.400002e+01"/><rect height="4.401593e+01" vector-effect="non-scaling-stroke" x="1.886138e+02" y="0" width="6.772487e+00"/><rect vector-effect="non-scaling-stroke" x="2.099471e+02" y="0" width="6.772487e+00" height="4.464926e+01"/><rect x="2.312804e+02" y="0" width="6.772487e+00" height="4.400503e+01" vector-effect="non-scaling-stroke"/><rect y="0" width="6.772487e+00" height="4.401994e+01" vector-effect="non-scaling-stroke" x="2.526138e+02"/><rect y="0" width="6.772487e+00" height="4.400242e+01" vector-effect="non-scaling-stroke" x="2.739471e+02"/><rect y="0" width="6.772487e+00" height="4.753552e+01" vector-effect="non-scaling-stroke" x="2.952804e+02"/><rect height="4.401215e+01" vector-effect="non-scaling-stroke" x="3.166138e+02" y="0" width="6.772487e+00"/><rect x="3.592804e+02" y="0" width="6.772487e+00" height="4.401518e+01" vector-effect="non-scaling-stroke"/><rect height="4.625256e+01" vector-effect="non-scaling-stroke" x="3.806138e+02" y="0" width="6.772487e+00"/><rect y="0" width="6.772487e+00" height="4.400074e+01" vector-effect="non-scaling-stroke" x="4.232804e+02"/><rect width="6.772487e+00" height="4.402937e+01" vector-effect="non-scaling-stroke" x="4.446138e+02" y="0"/></g><g transform="translate(80 520 )scale(1 -1 )" fill="hsl(260, 76%, 65%)" stroke="hsl(260, 76%, 65%)" stroke-width="1px" stroke-linecap="round" stroke-linejoin="round"><rect vector-effect="non-scaling-stroke" x="6.738624e+01" y="0" width="6.772487e+00" height="4.401731e+01"/><rect x="8.871958e+01" y="0" width="6.772487e+00" height="4.400061e+01" vector-effect="non-scaling-stroke"/><rect vector-effect="non-scaling-stroke" x="1.100529e+02" y="0" width="6.772487e+00" height="4.400311e+01"/><rect y="0" width="6.772487e+00" height="4.401233e+01" vector-effect="non-scaling-stroke" x="1.313862e+02"/><rect width="6.772487e+00" height="4.445876e+01" vector-effect="non-scaling-stroke" x="1.527196e+02" y="0"/><rect vector-effect="non-scaling-stroke" x="1.740529e+02" y="0" width="6.772487e+00" height="4.400002e+01"/><rect height="4.401006e+01" vector-effect="non-scaling-stroke" x="1.953862e+02" y="0" width="6.772487e+00"/><rect vector-effect="non-scaling-stroke" x="2.167196e+02" y="0" width="6.772487e+00" height="4.405165e+01"/><rect vector-effect="non-scaling-stroke" x="2.380529e+02" y="0" width="6.772487e+00" height="4.400492e+01"/><rect x="2.593862e+02" y="0" width="6.772487e+00" height="4.401862e+01" vector-effect="non-scaling-stroke"/><rect y="0" width="6.772487e+00" height="4.400200e+01" vector-effect="non-scaling-stroke" x="2.807196e+02"/><rect height="4.799445e+01" vector-effect="non-scaling-stroke" x="3.020529e+02" y="0" width="6.772487e+00"/><rect vector-effect="non-scaling-stroke" x="3.233862e+02" y="0" width="6.772487e+00" height="4.402071e+01"/><rect x="3.660529e+02" y="0" width="6.772487e+00" height="4.401557e+01" vector-effect="non-scaling-stroke"/><rect width="6.772487e+00" height="5.594446e+01" vector-effect="non-scaling-stroke" x="3.873862e+02" y="0"/><rect height="4.400080e+01" vector-effect="non-scaling-stroke" x="4.300529e+02" y="0" width="6.772487e+00"/><rect vector-effect="non-scaling-stroke" x="4.513862e+02" y="0" width="6.772487e+00" height="4.456684e+01"/></g><g font-style="normal" dominant-baseline="hanging" text-anchor="start" fill="hsl(198, 47%, 65%)" font-family="sans-serif" font-weight="normal" stroke="hsl(198, 47%, 65%)" stroke-width="1px" stroke-linecap="round" font-size="12px" stroke-linejoin="round"><rect width="12" height="12" vector-effect="non-scaling-stroke" x="736" y="466"/><g stroke="black" fill="black"><text vector-effect="non-scaling-stroke" x="752" y="466" dominant-baseline="hanging" stroke="none">Golang</text></g><g stroke-linecap="round" font-size="12px" stroke="hsl(49, 88%, 65%)" font-family="sans-serif" font-weight="normal" dominant-baseline="hanging" text-anchor="start" stroke-width="1px" font-style="normal" fill="hsl(49, 88%, 65%)" stroke-linejoin="round"><rect x="736" y="484" width="12" height="12" vector-effect="non-scaling-stroke"/><g fill="black" stroke="black"><text y="484" dominant-baseline="hanging" stroke="none" vector-effect="non-scaling-stroke" x="752">Rust</text></g><g stroke-width="1px" stroke-linecap="round" fill="hsl(260, 76%, 65%)" stroke-linejoin="round" font-style="normal" font-weight="normal" dominant-baseline="hanging" stroke="hsl(260, 76%, 65%)" font-size="12px" text-anchor="start" font-family="sans-serif"><rect x="736" y="502" width="12" height="12" vector-effect="non-scaling-stroke"/><g stroke="black" fill="black"><text y="502" dominant-baseline="hanging" stroke="none" vector-effect="non-scaling-stroke" x="752">Zig</text><g dominant-baseline="hanging" stroke-linejoin="round" font-family="sans-serif" fill="none" font-size="12px" stroke-width="2px" font-style="normal" font-weight="normal" text-anchor="start" stroke-linecap="round"><rect y="80" width="640" height="440" vector-effect="non-scaling-stroke" x="80"/></g><g text-anchor="start" stroke="black" font-family="sans-serif" font-style="normal" font-weight="normal" dominant-baseline="hanging" stroke-linecap="round" font-size="12px" fill="none" stroke-linejoin="round" transform="translate(80 520 )scale(1 -1 )" stroke-width="2px"><path vector-effect="non-scaling-stroke" d="M64,0 L64,-6 M8.533333e+01,0 L8.533333e+01,-6 M1.066667e+02,0 L1.066667e+02,-6 M128,0 L128,-6 M1.493333e+02,0 L1.493333e+02,-6 M1.706667e+02,0 L1.706667e+02,-6 M192,0 L192,-6 M2.133333e+02,0 L2.133333e+02,-6 M2.346667e+02,0 L2.346667e+02,-6 M256,0 L256,-6 M2.773333e+02,0 L2.773333e+02,-6 M2.986667e+02,0 L2.986667e+02,-6 M320,0 L320,-6 M3.413333e+02,0 L3.413333e+02,-6 M3.626667e+02,0 L3.626667e+02,-6 M384,0 L384,-6 M4.053333e+02,0 L4.053333e+02,-6 M4.266667e+02,0 L4.266667e+02,-6 M448,0 L448,-6 M4.693333e+02,0 L4.693333e+02,-6 M4.906667e+02,0 L4.906667e+02,-6 "/></g><g stroke-linecap="round" font-size="12px" stroke-linejoin="round" font-style="normal" font-weight="normal" transform="translate(80 520 )scale(1 1 )" stroke="black" dominant-baseline="hanging" fill="black" font-family="sans-serif" stroke-width="2px" text-anchor="middle"><text x="64" y="10" dominant-baseline="hanging" stroke="none" vector-effect="non-scaling-stroke">1</text><text y="10" dominant-baseline="hanging" stroke="none" vector-effect="non-scaling-stroke" x="8.533333e+01">2</text><text stroke="none" vector-effect="non-scaling-stroke" x="1.066667e+02" y="10" dominant-baseline="hanging">3</text><text y="10" dominant-baseline="hanging" stroke="none" vector-effect="non-scaling-stroke" x="128">4</text><text vector-effect="non-scaling-stroke" x="1.493333e+02" y="10" dominant-baseline="hanging" stroke="none">5</text><text x="1.706667e+02" y="10" dominant-baseline="hanging" stroke="none" vector-effect="non-scaling-stroke">6</text><text dominant-baseline="hanging" stroke="none" vector-effect="non-scaling-stroke" x="192" y="10">7</text><text vector-effect="non-scaling-stroke" x="2.133333e+02" y="10" dominant-baseline="hanging" stroke="none">8</text><text stroke="none" vector-effect="non-scaling-stroke" x="2.346667e+02" y="10" dominant-baseline="hanging">9</text><text stroke="none" vector-effect="non-scaling-stroke" x="256" y="10" dominant-baseline="hanging">10</text><text stroke="none" vector-effect="non-scaling-stroke" x="2.773333e+02" y="10" dominant-baseline="hanging">11</text><text stroke="none" vector-effect="non-scaling-stroke" x="2.986667e+02" y="10" dominant-baseline="hanging">12</text><text vector-effect="non-scaling-stroke" x="320" y="10" dominant-baseline="hanging" stroke="none">13</text><text y="10" dominant-baseline="hanging" stroke="none" vector-effect="non-scaling-stroke" x="3.413333e+02">14</text><text vector-effect="non-scaling-stroke" x="3.626667e+02" y="10" dominant-baseline="hanging" stroke="none">15</text><text x="384" y="10" dominant-baseline="hanging" stroke="none" vector-effect="non-scaling-stroke">16</text><text dominant-baseline="hanging" stroke="none" vector-effect="non-scaling-stroke" x="4.053333e+02" y="10">17</text><text vector-effect="non-scaling-stroke" x="4.266667e+02" y="10" dominant-baseline="hanging" stroke="none">18</text><text dominant-baseline="hanging" stroke="none" vector-effect="non-scaling-stroke" x="448" y="10">19</text><text dominant-baseline="hanging" stroke="none" vector-effect="non-scaling-stroke" x="4.693333e+02" y="10">20</text><text stroke="none" vector-effect="non-scaling-stroke" x="4.906667e+02" y="10" dominant-baseline="hanging">21</text></g><g font-size="12px" text-anchor="middle" fill="black" font-style="normal" font-weight="bold" dominant-baseline="baseline" stroke="black" stroke-width="2px" stroke-linejoin="round" font-family="sans-serif" stroke-linecap="round" transform="translate(80 520 )scale(1 1 )rotate(0 0 0 )"><text vector-effect="non-scaling-stroke" x="320" y="-6" dominant-baseline="baseline" stroke="none">Day</text></g><g font-size="12px" font-weight="bold" stroke-linejoin="round" font-style="normal" transform="translate(80 520 )scale(1 -1 )" stroke-linecap="round" stroke-width="2px" dominant-baseline="baseline" fill="black" font-family="sans-serif" text-anchor="middle" stroke="black"><path vector-effect="non-scaling-stroke" d="M0,44 L-6,44 M0,9.054481e+01 L-6,9.054481e+01 M0,1.370896e+02 L-6,1.370896e+02 M0,1.836344e+02 L-6,1.836344e+02 M0,2.301792e+02 L-6,2.301792e+02 M0,2.767240e+02 L-6,2.767240e+02 M0,3.232688e+02 L-6,3.232688e+02 M0,3.698136e+02 L-6,3.698136e+02 "/></g><g stroke-width="2px" stroke-linecap="round" fill="black" stroke-linejoin="round" font-family="sans-serif" stroke="black" font-size="12px" text-anchor="end" transform="translate(80 520 )scale(1 1 )" font-style="normal" font-weight="normal" dominant-baseline="middle"><text y="-44" dominant-baseline="middle" stroke="none" vector-effect="non-scaling-stroke" x="-10">0s</text><text stroke="none" vector-effect="non-scaling-stroke" x="-10" y="-9.054481e+01" dominant-baseline="middle">200ms</text><text x="-10" y="-1.370896e+02" dominant-baseline="middle" stroke="none" vector-effect="non-scaling-stroke">400ms</text><text vector-effect="non-scaling-stroke" x="-10" y="-1.836344e+02" dominant-baseline="middle" stroke="none">600ms</text><text dominant-baseline="middle" stroke="none" vector-effect="non-scaling-stroke" x="-10" y="-2.301792e+02">800ms</text><text stroke="none" vector-effect="non-scaling-stroke" x="-10" y="-2.767240e+02" dominant-baseline="middle">1s</text><text vector-effect="non-scaling-stroke" x="-10" y="-3.232688e+02" dominant-baseline="middle" stroke="none">1.2s</text><text y="-3.698136e+02" dominant-baseline="middle" stroke="none" vector-effect="non-scaling-stroke" x="-10">1.4s</text></g><g stroke-linejoin="round" font-family="sans-serif" font-weight="bold" font-size="12px" dominant-baseline="hanging" stroke-width="2px" stroke-linecap="round" text-anchor="middle" fill="black" font-style="normal" transform="translate(80 520 )scale(1 1 )rotate(-90 0 0 )" stroke="black"><text y="6" dominant-baseline="hanging" stroke="none" vector-effect="non-scaling-stroke" x="220">Runtime</text></g></g></g></g></g></svg>