<svg width="800" height="600" viewbox="0 0 800 600" preserveAspectRatio="xMidYMid meet" xmlns="http://www.w3.org/2000/svg"><defs><marker refY="5" markerUnits="userSpaceOnUse" markerWidth="2%" markerHeight="2%" id="circle" viewBox="0 0 10 10 " refX="5"><circle cx="5" cy="5" r="3" fill="none" stroke="black"/></marker><marker refX="5" refY="5" markerUnits="userSpaceOnUse" markerWidth="2%" markerHeight="2%" id="filled-circle" viewBox="0 0 10 10 "><circle cx="5" cy="5" r="3" fill="black" stroke="none"/></marker><marker viewBox="0 0 10 10 " refX="5" refY="5" markerUnits="userSpaceOnUse" markerWidth="2%" markerHeight="2%" id="square"><rect height="6" fill="none" stroke="black" x="2" y="2" width="6"/></marker><marker markerHeight="2%" id="filled-square" viewBox="0 0 10 10 " refX="5" refY="5" markerUnits="userSpaceOnUse" markerWidth="2%"><rect y="2" width="6" height="6" fill="black" stroke="none" x="2"/></marker></defs><g transform="translate(80 520 )scale(1 -1 )" fill="hsl(198, 47%, 65%)" stroke="hsl(198, 47%, 65%)" stroke-width="1px" stroke-linecap="round" stroke-linejoin="round"><rect vector-effect="non-scaling-stroke" x="3.650000e+01" y="0" width="2.750000e+01" height="1.628635e+02"/><rect y="0" width="2.750000e+01" height="7.591357e+01" vector-effect="non-scaling-stroke" x="5.783333e+01"/><rect x="7.916667e+01" y="0" width="2.750000e+01" height="396" vector-effect="non-scaling-stroke"/><rect y="0" width="2.750000e+01" height="1.870364e+02" vector-effect="non-scaling-stroke" x="1.005000e+02"/><rect vector-effect="non-scaling-stroke" x="1.218333e+02" y="0" width="2.750000e+01" height="1.327166e+02"/><rect y="0" width="2.750000e+01" height="2.748590e+02" vector-effect="non-scaling-stroke" x="1.431667e+02"/><rect width="2.750000e+01" height="2.175877e+02" vector-effect="non-scaling-stroke" x="1.645000e+02" y="0"/></g><g stroke-linecap="round" stroke-linejoin="round" transform="translate(80 520 )scale(1 -1 )" fill="hsl(49, 88%, 65%)" stroke="hsl(49, 88%, 65%)" stroke-width="1px"><rect height="9.672337e+01" vector-effect="non-scaling-stroke" x="64" y="0" width="2.750000e+01"/><rect vector-effect="non-scaling-stroke" x="8.533333e+01" y="0" width="2.750000e+01" height="5.173361e+01"/><rect y="0" width="2.750000e+01" height="3.107884e+02" vector-effect="non-scaling-stroke" x="1.066667e+02"/><rect x="128" y="0" width="2.750000e+01" height="1.350012e+02" vector-effect="non-scaling-stroke"/><rect x="1.493333e+02" y="0" width="2.750000e+01" height="9.978844e+01" vector-effect="non-scaling-stroke"/><rect vector-effect="non-scaling-stroke" x="1.706667e+02" y="0" width="2.750000e+01" height="1.711434e+02"/><rect vector-effect="non-scaling-stroke" x="192" y="0" width="2.750000e+01" height="1.789622e+02"/></g><g fill="hsl(198, 47%, 65%)" stroke="hsl(198, 47%, 65%)" stroke-linecap="round" font-family="sans-serif" font-size="12px" stroke-linejoin="round" font-style="normal" dominant-baseline="hanging" stroke-width="1px" font-weight="normal" text-anchor="start"><rect height="12" vector-effect="non-scaling-stroke" x="736" y="484" width="12"/><g stroke="black" fill="black"><text dominant-baseline="hanging" stroke="none" vector-effect="non-scaling-stroke" x="752" y="484">Golang</text></g><g stroke="hsl(49, 88%, 65%)" stroke-width="1px" stroke-linecap="round" font-size="12px" font-weight="normal" font-style="normal" stroke-linejoin="round" font-family="sans-serif" text-anchor="start" fill="hsl(49, 88%, 65%)" dominant-baseline="hanging"><rect x="736" y="502" width="12" height="12" vector-effect="non-scaling-stroke"/><g stroke="black" fill="black"><text y="502" dominant-baseline="hanging" stroke="none" vector-effect="non-scaling-stroke" x="752">Rust</text><g fill="none" font-size="12px" font-family="sans-serif" stroke-linecap="round" font-style="normal" stroke-width="2px" font-weight="normal" text-anchor="start" stroke-linejoin="round" dominant-baseline="hanging"><rect y="80" width="640" height="440" vector-effect="non-scaling-stroke" x="80"/></g><g font-family="sans-serif" text-anchor="start" stroke-linejoin="round" stroke="black" stroke-width="2px" transform="translate(80 520 )scale(1 -1 )" font-style="normal" stroke-linecap="round" font-size="12px" font-weight="normal" fill="none" dominant-baseline="hanging"><path vector-effect="non-scaling-stroke" d="M64,0 L64,-6 M8.533333e+01,0 L8.533333e+01,-6 M1.066667e+02,0 L1.066667e+02,-6 M128,0 L128,-6 M1.493333e+02,0 L1.493333e+02,-6 M1.706667e+02,0 L1.706667e+02,-6 M192,0 L192,-6 "/></g><g fill="black" stroke-linecap="round" font-size="12px" dominant-baseline="hanging" text-anchor="middle" stroke="black" stroke-width="2px" font-family="sans-serif" stroke-linejoin="round" font-style="normal" transform="translate(80 520 )scale(1 1 )" font-weight="normal"><text stroke="none" vector-effect="non-scaling-stroke" x="64" y="10" dominant-baseline="hanging">1</text><text stroke="none" vector-effect="non-scaling-stroke" x="8.533333e+01" y="10" dominant-baseline="hanging">2</text><text dominant-baseline="hanging" stroke="none" vector-effect="non-scaling-stroke" x="1.066667e+02" y="10">3</text><text x="128" y="10" dominant-baseline="hanging" stroke="none" vector-effect="non-scaling-stroke">4</text><text dominant-baseline="hanging" stroke="none" vector-effect="non-scaling-stroke" x="1.493333e+02" y="10">5</text><text stroke="none" vector-effect="non-scaling-stroke" x="1.706667e+02" y="10" dominant-baseline="hanging">6</text><text stroke="none" vector-effect="non-scaling-stroke" x="192" y="10" dominant-baseline="hanging">7</text></g><g font-size="12px" stroke-linejoin="round" font-style="normal" dominant-baseline="baseline" text-anchor="middle" stroke="black" font-family="sans-serif" transform="translate(80 520 )scale(1 1 )rotate(0 0 0 )" font-weight="bold" fill="black" stroke-width="2px" stroke-linecap="round"><text stroke="none" vector-effect="non-scaling-stroke" x="320" y="-6" dominant-baseline="baseline">Day</text></g><g stroke="black" font-size="12px" font-weight="bold" fill="black" dominant-baseline="baseline" transform="translate(80 520 )scale(1 -1 )" stroke-width="2px" stroke-linecap="round" font-family="sans-serif" text-anchor="middle" font-style="normal" stroke-linejoin="round"><path d="M0,44 L-6,44 M0,1.149506e+02 L-6,1.149506e+02 M0,1.859012e+02 L-6,1.859012e+02 M0,2.568517e+02 L-6,2.568517e+02 M0,3.278023e+02 L-6,3.278023e+02 " vector-effect="non-scaling-stroke"/></g><g transform="translate(80 520 )scale(1 1 )" font-family="sans-serif" font-style="normal" dominant-baseline="middle" font-weight="normal" text-anchor="end" fill="black" stroke="black" stroke-width="2px" stroke-linecap="round" stroke-linejoin="round" font-size="12px"><text vector-effect="non-scaling-stroke" x="-10" y="-44" dominant-baseline="middle" stroke="none">0s</text><text y="-1.149506e+02" dominant-baseline="middle" stroke="none" vector-effect="non-scaling-stroke" x="-10">10µs</text><text stroke="none" vector-effect="non-scaling-stroke" x="-10" y="-1.859012e+02" dominant-baseline="middle">20µs</text><text stroke="none" vector-effect="non-scaling-stroke" x="-10" y="-2.568517e+02" dominant-baseline="middle">30µs</text><text stroke="none" vector-effect="non-scaling-stroke" x="-10" y="-3.278023e+02" dominant-baseline="middle">40µs</text></g><g stroke-width="2px" stroke-linecap="round" fill="black" font-style="normal" dominant-baseline="hanging" transform="translate(80 520 )scale(1 1 )rotate(-90 0 0 )" stroke-linejoin="round" stroke="black" font-family="sans-serif" font-size="12px" font-weight="bold" text-anchor="middle"><text x="220" y="6" dominant-baseline="hanging" stroke="none" vector-effect="non-scaling-stroke">Runtime</text></g></g></g></g></svg>