<svg preserveAspectRatio="xMidYMid meet" xmlns="http://www.w3.org/2000/svg" width="800" height="600" viewbox="0 0 800 600"><defs><marker refY="5" markerUnits="userSpaceOnUse" markerWidth="2%" markerHeight="2%" id="circle" viewBox="0 0 10 10 " refX="5"><circle fill="none" stroke="black" cx="5" cy="5" r="3"/></marker><marker markerUnits="userSpaceOnUse" markerWidth="2%" markerHeight="2%" id="filled-circle" viewBox="0 0 10 10 " refX="5" refY="5"><circle fill="black" stroke="none" cx="5" cy="5" r="3"/></marker><marker markerWidth="2%" markerHeight="2%" id="square" viewBox="0 0 10 10 " refX="5" refY="5" markerUnits="userSpaceOnUse"><rect height="6" fill="none" stroke="black" x="2" y="2" width="6"/></marker><marker markerUnits="userSpaceOnUse" markerWidth="2%" markerHeight="2%" id="filled-square" viewBox="0 0 10 10 " refX="5" refY="5"><rect y="2" width="6" height="6" fill="black" stroke="none" x="2"/></marker></defs><g stroke-linejoin="round" transform="translate(80 520 )scale(1 -1 )" fill="hsl(198, 47%, 65%)" stroke="hsl(198, 47%, 65%)" stroke-width="1px" stroke-linecap="round"><rect x="3.650000e+01" y="0" width="2.750000e+01" height="8.562038e+01" vector-effect="non-scaling-stroke"/><rect width="2.750000e+01" height="8.087589e+01" vector-effect="non-scaling-stroke" x="5.783333e+01" y="0"/><rect vector-effect="non-scaling-stroke" x="7.916667e+01" y="0" width="2.750000e+01" height="6.689459e+01"/><rect vector-effect="non-scaling-stroke" x="1.005000e+02" y="0" width="2.750000e+01" height="2.548904e+02"/><rect x="1.218333e+02" y="0" width="2.750000e+01" height="1.545222e+02" vector-effect="non-scaling-stroke"/></g><g fill="hsl(49, 88%, 65%)" stroke="hsl(49, 88%, 65%)" stroke-width="1px" stroke-linecap="round" stroke-linejoin="round" transform="translate(80 520 )scale(1 -1 )"><rect height="8.135616e+01" vector-effect="non-scaling-stroke" x="64" y="0" width="2.750000e+01"/><rect height="7.590485e+01" vector-effect="non-scaling-stroke" x="8.533333e+01" y="0" width="2.750000e+01"/><rect y="0" width="2.750000e+01" height="5.023573e+01" vector-effect="non-scaling-stroke" x="1.066667e+02"/><rect x="128" y="0" width="2.750000e+01" height="396" vector-effect="non-scaling-stroke"/></g><g fill="hsl(198, 47%, 65%)" stroke-linecap="round" stroke-linejoin="round" stroke-width="1px" font-weight="normal" text-anchor="start" dominant-baseline="hanging" font-size="12px" stroke="hsl(198, 47%, 65%)" font-family="sans-serif" font-style="normal"><rect y="484" width="12" height="12" vector-effect="non-scaling-stroke" x="736"/><g fill="black" stroke="black"><text dominant-baseline="hanging" stroke="none" vector-effect="non-scaling-stroke" x="752" y="484">Golang</text></g><g text-anchor="start" dominant-baseline="hanging" font-weight="normal" font-family="sans-serif" stroke="hsl(49, 88%, 65%)" stroke-width="1px" font-style="normal" stroke-linejoin="round" font-size="12px" fill="hsl(49, 88%, 65%)" stroke-linecap="round"><rect y="502" width="12" height="12" vector-effect="non-scaling-stroke" x="736"/><g fill="black" stroke="black"><text stroke="none" vector-effect="non-scaling-stroke" x="752" y="502" dominant-baseline="hanging">Rust</text><g font-family="sans-serif" stroke-linecap="round" stroke-width="2px" stroke-linejoin="round" text-anchor="start" fill="none" font-style="normal" dominant-baseline="hanging" font-weight="normal" font-size="12px"><rect y="80" width="640" height="440" vector-effect="non-scaling-stroke" x="80"/></g><g text-anchor="start" dominant-baseline="hanging" stroke-width="2px" font-style="normal" font-weight="normal" stroke-linejoin="round" transform="translate(80 520 )scale(1 -1 )" font-family="sans-serif" font-size="12px" fill="none" stroke="black" stroke-linecap="round"><path vector-effect="non-scaling-stroke" d="M64,0 L64,-6 M8.533333e+01,0 L8.533333e+01,-6 M1.066667e+02,0 L1.066667e+02,-6 M128,0 L128,-6 M1.493333e+02,0 L1.493333e+02,-6 "/></g><g text-anchor="middle" transform="translate(80 520 )scale(1 1 )" stroke-width="2px" font-family="sans-serif" font-size="12px" fill="black" font-style="normal" font-weight="normal" dominant-baseline="hanging" stroke="black" stroke-linecap="round" stroke-linejoin="round"><text vector-effect="non-scaling-stroke" x="64" y="10" dominant-baseline="hanging" stroke="none">1</text><text x="8.533333e+01" y="10" dominant-baseline="hanging" stroke="none" vector-effect="non-scaling-stroke">2</text><text stroke="none" vector-effect="non-scaling-stroke" x="1.066667e+02" y="10" dominant-baseline="hanging">3</text><text stroke="none" vector-effect="non-scaling-stroke" x="128" y="10" dominant-baseline="hanging">4</text><text y="10" dominant-baseline="hanging" stroke="none" vector-effect="non-scaling-stroke" x="1.493333e+02">5</text></g><g font-style="normal" text-anchor="middle" transform="translate(80 520 )scale(1 1 )rotate(0 0 0 )" stroke-width="2px" stroke-linecap="round" stroke-linejoin="round" fill="black" font-weight="bold" dominant-baseline="baseline" stroke="black" font-family="sans-serif" font-size="12px"><text x="320" y="-6" dominant-baseline="baseline" stroke="none" vector-effect="non-scaling-stroke">Day</text></g><g font-family="sans-serif" stroke="black" stroke-linejoin="round" font-size="12px" stroke-width="2px" font-style="normal" font-weight="bold" text-anchor="middle" dominant-baseline="baseline" fill="black" stroke-linecap="round" transform="translate(80 520 )scale(1 -1 )"><path vector-effect="non-scaling-stroke" d="M0,44 L-6,44 M0,1.215877e+02 L-6,1.215877e+02 M0,1.991755e+02 L-6,1.991755e+02 M0,2.767632e+02 L-6,2.767632e+02 M0,3.543509e+02 L-6,3.543509e+02 "/></g><g font-style="normal" font-weight="normal" dominant-baseline="middle" fill="black" stroke-linecap="round" stroke-linejoin="round" font-family="sans-serif" font-size="12px" stroke-width="2px" text-anchor="end" transform="translate(80 520 )scale(1 1 )" stroke="black"><text vector-effect="non-scaling-stroke" x="-10" y="-44" dominant-baseline="middle" stroke="none">0s</text><text vector-effect="non-scaling-stroke" x="-10" y="-1.215877e+02" dominant-baseline="middle" stroke="none">100µs</text><text x="-10" y="-1.991755e+02" dominant-baseline="middle" stroke="none" vector-effect="non-scaling-stroke">200µs</text><text x="-10" y="-2.767632e+02" dominant-baseline="middle" stroke="none" vector-effect="non-scaling-stroke">300µs</text><text stroke="none" vector-effect="non-scaling-stroke" x="-10" y="-3.543509e+02" dominant-baseline="middle">400µs</text></g><g font-family="sans-serif" fill="black" font-style="normal" font-weight="bold" dominant-baseline="hanging" transform="translate(80 520 )scale(1 1 )rotate(-90 0 0 )" stroke-width="2px" stroke-linejoin="round" text-anchor="middle" stroke="black" stroke-linecap="round" font-size="12px"><text vector-effect="non-scaling-stroke" x="220" y="6" dominant-baseline="hanging" stroke="none">Runtime</text></g></g></g></g></svg>