<svg width="800" height="600" viewbox="0 0 800 600" preserveAspectRatio="xMidYMid meet" xmlns="http://www.w3.org/2000/svg"><defs><marker markerHeight="2%" id="circle" viewBox="0 0 10 10 " refX="5" refY="5" markerUnits="userSpaceOnUse" markerWidth="2%"><circle fill="none" stroke="black" cx="5" cy="5" r="3"/></marker><marker markerUnits="userSpaceOnUse" markerWidth="2%" markerHeight="2%" id="filled-circle" viewBox="0 0 10 10 " refX="5" refY="5"><circle cy="5" r="3" fill="black" stroke="none" cx="5"/></marker><marker markerWidth="2%" markerHeight="2%" id="square" viewBox="0 0 10 10 " refX="5" refY="5" markerUnits="userSpaceOnUse"><rect y="2" width="6" height="6" fill="none" stroke="black" x="2"/></marker><marker refY="5" markerUnits="userSpaceOnUse" markerWidth="2%" markerHeight="2%" id="filled-square" viewBox="0 0 10 10 " refX="5"><rect height="6" fill="black" stroke="none" x="2" y="2" width="6"/></marker></defs><g stroke-linecap="round" stroke-linejoin="round" transform="translate(80 520 )scale(1 -1 )" fill="hsl(198, 47%, 65%)" stroke="hsl(198, 47%, 65%)" stroke-width="1px"><rect y="0" width="2.370370e+01" height="5.286771e+01" vector-effect="non-scaling-stroke" x="4.029630e+01"/><rect vector-effect="non-scaling-stroke" x="6.162963e+01" y="0" width="2.370370e+01" height="4.638089e+01"/><rect vector-effect="non-scaling-stroke" x="8.296296e+01" y="0" width="2.370370e+01" height="7.026067e+01"/><rect y="0" width="2.370370e+01" height="5.467111e+01" vector-effect="non-scaling-stroke" x="1.042963e+02"/><rect width="2.370370e+01" height="5.061863e+01" vector-effect="non-scaling-stroke" x="1.256296e+02" y="0"/><rect width="2.370370e+01" height="6.122304e+01" vector-effect="non-scaling-stroke" x="1.469630e+02" y="0"/><rect y="0" width="2.370370e+01" height="5.695037e+01" vector-effect="non-scaling-stroke" x="1.682963e+02"/><rect height="396" vector-effect="non-scaling-stroke" x="1.896296e+02" y="0" width="2.370370e+01"/><rect width="2.370370e+01" height="3.038452e+02" vector-effect="non-scaling-stroke" x="2.109630e+02" y="0"/></g><g stroke-width="1px" stroke-linecap="round" stroke-linejoin="round" transform="translate(80 520 )scale(1 -1 )" fill="hsl(49, 88%, 65%)" stroke="hsl(49, 88%, 65%)"><rect height="4.793338e+01" vector-effect="non-scaling-stroke" x="6.400000e+01" y="0" width="2.370370e+01"/><rect y="0" width="2.370370e+01" height="4.457696e+01" vector-effect="non-scaling-stroke" x="8.533333e+01"/><rect y="0" width="2.370370e+01" height="6.390353e+01" vector-effect="non-scaling-stroke" x="1.066667e+02"/><rect y="0" width="2.370370e+01" height="5.078907e+01" vector-effect="non-scaling-stroke" x="128"/><rect width="2.370370e+01" height="4.925139e+01" vector-effect="non-scaling-stroke" x="1.493333e+02" y="0"/><rect width="2.370370e+01" height="5.406504e+01" vector-effect="non-scaling-stroke" x="1.706667e+02" y="0"/><rect vector-effect="non-scaling-stroke" x="192" y="0" width="2.370370e+01" height="5.577104e+01"/><rect vector-effect="non-scaling-stroke" x="2.133333e+02" y="0" width="2.370370e+01" height="3.867835e+02"/><rect x="2.346667e+02" y="0" width="2.370370e+01" height="2.021293e+02" vector-effect="non-scaling-stroke"/></g><g stroke="hsl(198, 47%, 65%)" stroke-linejoin="round" font-family="sans-serif" font-size="12px" text-anchor="start" fill="hsl(198, 47%, 65%)" stroke-width="1px" stroke-linecap="round" font-style="normal" font-weight="normal" dominant-baseline="hanging"><rect width="12" height="12" vector-effect="non-scaling-stroke" x="736" y="484"/><g fill="black" stroke="black"><text vector-effect="non-scaling-stroke" x="752" y="484" dominant-baseline="hanging" stroke="none">Golang</text></g><g font-family="sans-serif" font-size="12px" stroke-width="1px" stroke-linecap="round" stroke-linejoin="round" fill="hsl(49, 88%, 65%)" text-anchor="start" dominant-baseline="hanging" stroke="hsl(49, 88%, 65%)" font-weight="normal" font-style="normal"><rect y="502" width="12" height="12" vector-effect="non-scaling-stroke" x="736"/><g fill="black" stroke="black"><text vector-effect="non-scaling-stroke" x="752" y="502" dominant-baseline="hanging" stroke="none">Rust</text><g font-weight="normal" text-anchor="start" stroke-linecap="round" stroke-linejoin="round" font-style="normal" stroke-width="2px" font-family="sans-serif" dominant-baseline="hanging" font-size="12px" fill="none"><rect width="640" height="440" vector-effect="non-scaling-stroke" x="80" y="80"/></g><g font-style="normal" stroke="black" font-family="sans-serif" font-size="12px" stroke-width="2px" stroke-linejoin="round" stroke-linecap="round" fill="none" font-weight="normal" text-anchor="start" dominant-baseline="hanging" transform="translate(80 520 )scale(1 -1 )"><path vector-effect="non-scaling-stroke" d="M64,0 L64,-6 M8.533333e+01,0 L8.533333e+01,-6 M1.066667e+02,0 L1.066667e+02,-6 M128,0 L128,-6 M1.493333e+02,0 L1.493333e+02,-6 M1.706667e+02,0 L1.706667e+02,-6 M192,0 L192,-6 M2.133333e+02,0 L2.133333e+02,-6 M2.346667e+02,0 L2.346667e+02,-6 "/></g><g text-anchor="middle" dominant-baseline="hanging" transform="translate(80 520 )scale(1 1 )" stroke="black" stroke-width="2px" stroke-linecap="round" font-size="12px" font-weight="normal" stroke-linejoin="round" font-style="normal" font-family="sans-serif" fill="black"><text stroke="none" vector-effect="non-scaling-stroke" x="64" y="10" dominant-baseline="hanging">1</text><text stroke="none" vector-effect="non-scaling-stroke" x="8.533333e+01" y="10" dominant-baseline="hanging">2</text><text y="10" dominant-baseline="hanging" stroke="none" vector-effect="non-scaling-stroke" x="1.066667e+02">3</text><text y="10" dominant-baseline="hanging" stroke="none" vector-effect="non-scaling-stroke" x="128">4</text><text stroke="none" vector-effect="non-scaling-stroke" x="1.493333e+02" y="10" dominant-baseline="hanging">5</text><text y="10" dominant-baseline="hanging" stroke="none" vector-effect="non-scaling-stroke" x="1.706667e+02">6</text><text x="192" y="10" dominant-baseline="hanging" stroke="none" vector-effect="non-scaling-stroke">7</text><text stroke="none" vector-effect="non-scaling-stroke" x="2.133333e+02" y="10" dominant-baseline="hanging">8</text><text dominant-baseline="hanging" stroke="none" vector-effect="non-scaling-stroke" x="2.346667e+02" y="10">9</text></g><g font-size="12px" font-weight="bold" stroke-linejoin="round" font-style="normal" stroke="black" text-anchor="middle" dominant-baseline="baseline" font-family="sans-serif" stroke-width="2px" transform="translate(80 520 )scale(1 1 )rotate(0 0 0 )" stroke-linecap="round" fill="black"><text vector-effect="non-scaling-stroke" x="320" y="-6" dominant-baseline="baseline" stroke="none">Day</text></g><g text-anchor="middle" transform="translate(80 520 )scale(1 -1 )" font-style="normal" font-weight="bold" dominant-baseline="baseline" font-family="sans-serif" font-size="12px" stroke-width="2px" stroke-linecap="round" stroke-linejoin="round" fill="black" stroke="black"><path vector-effect="non-scaling-stroke" d="M0,44 L-6,44 M0,9.693209e+01 L-6,9.693209e+01 M0,1.498642e+02 L-6,1.498642e+02 M0,2.027963e+02 L-6,2.027963e+02 M0,2.557284e+02 L-6,2.557284e+02 M0,3.086605e+02 L-6,3.086605e+02 M0,3.615926e+02 L-6,3.615926e+02 "/></g><g stroke-linejoin="round" text-anchor="end" dominant-baseline="middle" transform="translate(80 520 )scale(1 1 )" stroke="black" stroke-width="2px" stroke-linecap="round" font-style="normal" fill="black" font-size="12px" font-weight="normal" font-family="sans-serif"><text stroke="none" vector-effect="non-scaling-stroke" x="-10" y="-44" dominant-baseline="middle">0s</text><text stroke="none" vector-effect="non-scaling-stroke" x="-10" y="-9.693209e+01" dominant-baseline="middle">100µs</text><text y="-1.498642e+02" dominant-baseline="middle" stroke="none" vector-effect="non-scaling-stroke" x="-10">200µs</text><text stroke="none" vector-effect="non-scaling-stroke" x="-10" y="-2.027963e+02" dominant-baseline="middle">300µs</text><text dominant-baseline="middle" stroke="none" vector-effect="non-scaling-stroke" x="-10" y="-2.557284e+02">400µs</text><text x="-10" y="-3.086605e+02" dominant-baseline="middle" stroke="none" vector-effect="non-scaling-stroke">500µs</text><text stroke="none" vector-effect="non-scaling-stroke" x="-10" y="-3.615926e+02" dominant-baseline="middle">600µs</text></g><g fill="black" stroke="black" text-anchor="middle" transform="translate(80 520 )scale(1 1 )rotate(-90 0 0 )" font-family="sans-serif" stroke-width="2px" stroke-linecap="round" stroke-linejoin="round" font-size="12px" font-style="normal" font-weight="bold" dominant-baseline="hanging"><text stroke="none" vector-effect="non-scaling-stroke" x="220" y="6" dominant-baseline="hanging">Runtime</text></g></g></g></g></svg>