<svg preserveAspectRatio="xMidYMid meet" xmlns="http://www.w3.org/2000/svg" width="800" height="600" viewbox="0 0 800 600"><defs><marker markerWidth="2%" markerHeight="2%" id="circle" viewBox="0 0 10 10 " refX="5" refY="5" markerUnits="userSpaceOnUse"><circle stroke="black" cx="5" cy="5" r="3" fill="none"/></marker><marker markerUnits="userSpaceOnUse" markerWidth="2%" markerHeight="2%" id="filled-circle" viewBox="0 0 10 10 " refX="5" refY="5"><circle cy="5" r="3" fill="black" stroke="none" cx="5"/></marker><marker id="square" viewBox="0 0 10 10 " refX="5" refY="5" markerUnits="userSpaceOnUse" markerWidth="2%" markerHeight="2%"><rect width="6" height="6" fill="none" stroke="black" x="2" y="2"/></marker><marker refY="5" markerUnits="userSpaceOnUse" markerWidth="2%" markerHeight="2%" id="filled-square" viewBox="0 0 10 10 " refX="5"><rect height="6" fill="black" stroke="none" x="2" y="2" width="6"/></marker></defs><g stroke="hsl(198, 47%, 65%)" stroke-width="1px" stroke-linecap="round" stroke-linejoin="round" transform="translate(80 520 )scale(1 -1 )" fill="hsl(198, 47%, 65%)"><rect width="1.833333e+01" height="4.432046e+01" vector-effect="non-scaling-stroke" x="3.650000e+01" y="0"/><rect vector-effect="non-scaling-stroke" x="5.783333e+01" y="0" width="1.833333e+01" height="3.172647e+02"/><rect x="7.916667e+01" y="0" width="1.833333e+01" height="4.568665e+01" vector-effect="non-scaling-stroke"/><rect y="0" width="1.833333e+01" height="1.119387e+02" vector-effect="non-scaling-stroke" x="1.005000e+02"/><rect vector-effect="non-scaling-stroke" x="1.218333e+02" y="0" width="1.833333e+01" height="4.527785e+01"/><rect width="1.833333e+01" height="4.457066e+01" vector-effect="non-scaling-stroke" x="1.431667e+02" y="0"/><rect width="1.833333e+01" height="4.899226e+01" vector-effect="non-scaling-stroke" x="1.645000e+02" y="0"/></g><g stroke-width="1px" stroke-linecap="round" stroke-linejoin="round" transform="translate(80 520 )scale(1 -1 )" fill="hsl(49, 88%, 65%)" stroke="hsl(49, 88%, 65%)"><rect x="5.483333e+01" y="0" width="1.833333e+01" height="4.416216e+01" vector-effect="non-scaling-stroke"/><rect height="396" vector-effect="non-scaling-stroke" x="7.616667e+01" y="0" width="1.833333e+01"/><rect width="1.833333e+01" height="4.501873e+01" vector-effect="non-scaling-stroke" x="9.750000e+01" y="0"/><rect vector-effect="non-scaling-stroke" x="1.188333e+02" y="0" width="1.833333e+01" height="5.120911e+01"/><rect width="1.833333e+01" height="4.628371e+01" vector-effect="non-scaling-stroke" x="1.401667e+02" y="0"/><rect x="1.615000e+02" y="0" width="1.833333e+01" height="4.441070e+01" vector-effect="non-scaling-stroke"/></g><g stroke-linecap="round" stroke-linejoin="round" transform="translate(80 520 )scale(1 -1 )" fill="hsl(260, 76%, 65%)" stroke="hsl(260, 76%, 65%)" stroke-width="1px"><rect height="4.416834e+01" vector-effect="non-scaling-stroke" x="7.316667e+01" y="0" width="1.833333e+01"/><rect y="0" width="1.833333e+01" height="2.118906e+02" vector-effect="non-scaling-stroke" x="9.450000e+01"/><rect width="1.833333e+01" height="4.470181e+01" vector-effect="non-scaling-stroke" x="1.158333e+02" y="0"/><rect vector-effect="non-scaling-stroke" x="1.371667e+02" y="0" width="1.833333e+01" height="5.228081e+01"/><rect height="4.510883e+01" vector-effect="non-scaling-stroke" x="1.585000e+02" y="0" width="1.833333e+01"/><rect vector-effect="non-scaling-stroke" x="1.798333e+02" y="0" width="1.833333e+01" height="4.432239e+01"/></g><g fill="hsl(198, 47%, 65%)" stroke-linecap="round" font-size="12px" font-weight="normal" stroke="hsl(198, 47%, 65%)" font-family="sans-serif" font-style="normal" dominant-baseline="hanging" stroke-width="1px" text-anchor="start" stroke-linejoin="round"><rect x="736" y="466" width="12" height="12" vector-effect="non-scaling-stroke"/><g stroke="black" fill="black"><text x="752" y="466" dominant-baseline="hanging" stroke="none" vector-effect="non-scaling-stroke">Golang</text></g><g stroke-width="1px" stroke-linecap="round" font-size="12px" font-weight="normal" text-anchor="start" stroke="hsl(49, 88%, 65%)" stroke-linejoin="round" font-family="sans-serif" font-style="normal" dominant-baseline="hanging" fill="hsl(49, 88%, 65%)"><rect x="736" y="484" width="12" height="12" vector-effect="non-scaling-stroke"/><g fill="black" stroke="black"><text dominant-baseline="hanging" stroke="none" vector-effect="non-scaling-stroke" x="752" y="484">Rust</text></g><g stroke-width="1px" stroke-linecap="round" font-size="12px" font-weight="normal" text-anchor="start" stroke="hsl(260, 76%, 65%)" stroke-linejoin="round" font-family="sans-serif" font-style="normal" dominant-baseline="hanging" fill="hsl(260, 76%, 65%)"><rect vector-effect="non-scaling-stroke" x="736" y="502" width="12" height="12"/><g fill="black" stroke="black"><text y="502" dominant-baseline="hanging" stroke="none" vector-effect="non-scaling-stroke" x="752">Zig</text><g text-anchor="start" fill="none" stroke-linecap="round" font-size="12px" font-weight="normal" stroke-width="2px" stroke-linejoin="round" font-family="sans-serif" font-style="normal" dominant-baseline="hanging"><rect vector-effect="non-scaling-stroke" x="80" y="80" width="640" height="440"/></g><g stroke="black" font-style="normal" dominant-baseline="hanging" fill="none" font-size="12px" font-weight="normal" text-anchor="start" transform="translate(80 520 )scale(1 -1 )" stroke-linejoin="round" font-family="sans-serif" stroke-width="2px" stroke-linecap="round"><path vector-effect="non-scaling-stroke" d="M64,0 L64,-6 M8.533333e+01,0 L8.533333e+01,-6 M1.066667e+02,0 L1.066667e+02,-6 M128,0 L128,-6 M1.493333e+02,0 L1.493333e+02,-6 M1.706667e+02,0 L1.706667e+02,-6 M192,0 L192,-6 "/></g><g font-size="12px" text-anchor="middle" font-style="normal" font-weight="normal" transform="translate(80 520 )scale(1 1 )" stroke="black" stroke-linejoin="round" font-family="sans-serif" dominant-baseline="hanging" fill="black" stroke-width="2px" stroke-linecap="round"><text stroke="none" vector-effect="non-scaling-stroke" x="64" y="10" dominant-baseline="hanging">1</text><text dominant-baseline="hanging" stroke="none" vector-effect="non-scaling-stroke" x="8.533333e+01" y="10">2</text><text dominant-baseline="hanging" stroke="none" vector-effect="non-scaling-stroke" x="1.066667e+02" y="10">3</text><text vector-effect="non-scaling-stroke" x="128" y="10" dominant-baseline="hanging" stroke="none">4</text><text vector-effect="non-scaling-stroke" x="1.493333e+02" y="10" dominant-baseline="hanging" stroke="none">5</text><text x="1.706667e+02" y="10" dominant-baseline="hanging" stroke="none" vector-effect="non-scaling-stroke">6</text><text x="192" y="10" dominant-baseline="hanging" stroke="none" vector-effect="non-scaling-stroke">7</text></g><g dominant-baseline="baseline" fill="black" stroke-width="2px" stroke-linecap="round" font-weight="bold" text-anchor="middle" stroke-linejoin="round" font-family="sans-serif" font-style="normal" font-size="12px" transform="translate(80 520 )scale(1 1 )rotate(0 0 0 )" stroke="black"><text y="-6" dominant-baseline="baseline" stroke="none" vector-effect="non-scaling-stroke" x="320">Day</text></g><g text-anchor="middle" transform="translate(80 520 )scale(1 -1 )" font-family="sans-serif" font-style="normal" stroke-width="2px" font-size="12px" stroke="black" stroke-linejoin="round" dominant-baseline="baseline" fill="black" stroke-linecap="round" font-weight="bold"><path vector-effect="non-scaling-stroke" d="M0,44 L-6,44 M0,2.101119e+02 L-6,2.101119e+02 M0,3.762239e+02 L-6,3.762239e+02 "/></g><g font-weight="normal" stroke="black" stroke-linejoin="round" font-family="sans-serif" dominant-baseline="middle" stroke-linecap="round" text-anchor="end" transform="translate(80 520 )scale(1 1 )" font-style="normal" fill="black" stroke-width="2px" font-size="12px"><text x="-10" y="-44" dominant-baseline="middle" stroke="none" vector-effect="non-scaling-stroke">0s</text><text y="-2.101119e+02" dominant-baseline="middle" stroke="none" vector-effect="non-scaling-stroke" x="-10">10ms</text><text dominant-baseline="middle" stroke="none" vector-effect="non-scaling-stroke" x="-10" y="-3.762239e+02">20ms</text></g><g fill="black" stroke-width="2px" stroke-linecap="round" text-anchor="middle" stroke="black" font-family="sans-serif" font-style="normal" font-size="12px" font-weight="bold" transform="translate(80 520 )scale(1 1 )rotate(-90 0 0 )" stroke-linejoin="round" dominant-baseline="hanging"><text stroke="none" vector-effect="non-scaling-stroke" x="220" y="6" dominant-baseline="hanging">Runtime</text></g></g></g></g></g></svg>