<svg viewbox="0 0 800 600" preserveAspectRatio="xMidYMid meet" xmlns="http://www.w3.org/2000/svg" width="800" height="600"><defs><marker id="circle" viewBox="0 0 10 10 " refX="5" refY="5" markerUnits="userSpaceOnUse" markerWidth="2%" markerHeight="2%"><circle cx="5" cy="5" r="3" fill="none" stroke="black"/></marker><marker refY="5" markerUnits="userSpaceOnUse" markerWidth="2%" markerHeight="2%" id="filled-circle" viewBox="0 0 10 10 " refX="5"><circle cx="5" cy="5" r="3" fill="black" stroke="none"/></marker><marker refY="5" markerUnits="userSpaceOnUse" markerWidth="2%" markerHeight="2%" id="square" viewBox="0 0 10 10 " refX="5"><rect fill="none" stroke="black" x="2" y="2" width="6" height="6"/></marker><marker markerHeight="2%" id="filled-square" viewBox="0 0 10 10 " refX="5" refY="5" markerUnits="userSpaceOnUse" markerWidth="2%"><rect y="2" width="6" height="6" fill="black" stroke="none" x="2"/></marker></defs><g transform="translate(80 520 )scale(1 -1 )" fill="hsl(198, 47%, 65%)" stroke="hsl(198, 47%, 65%)" stroke-width="1px" stroke-linecap="round" stroke-linejoin="round"><rect vector-effect="non-scaling-stroke" x="3.650000e+01" y="0" width="2.750000e+01" height="396"/><rect width="2.750000e+01" height="3.558740e+02" vector-effect="non-scaling-stroke" x="5.783333e+01" y="0"/><rect height="2.376285e+02" vector-effect="non-scaling-stroke" x="7.916667e+01" y="0" width="2.750000e+01"/></g><g stroke="hsl(49, 88%, 65%)" stroke-width="1px" stroke-linecap="round" stroke-linejoin="round" transform="translate(80 520 )scale(1 -1 )" fill="hsl(49, 88%, 65%)"><rect y="0" width="2.750000e+01" height="3.599358e+02" vector-effect="non-scaling-stroke" x="64"/><rect vector-effect="non-scaling-stroke" x="8.533333e+01" y="0" width="2.750000e+01" height="3.138319e+02"/><rect y="0" width="2.750000e+01" height="9.673799e+01" vector-effect="non-scaling-stroke" x="1.066667e+02"/></g><g font-weight="normal" font-size="12px" text-anchor="start" stroke-linecap="round" stroke-width="1px" font-style="normal" stroke-linejoin="round" font-family="sans-serif" dominant-baseline="hanging" fill="hsl(198, 47%, 65%)" stroke="hsl(198, 47%, 65%)"><rect vector-effect="non-scaling-stroke" x="736" y="484" width="12" height="12"/><g stroke="black" fill="black"><text y="484" dominant-baseline="hanging" stroke="none" vector-effect="non-scaling-stroke" x="752">Golang</text></g><g dominant-baseline="hanging" font-size="12px" stroke-linecap="round" font-family="sans-serif" stroke-linejoin="round" text-anchor="start" stroke-width="1px" font-style="normal" font-weight="normal" fill="hsl(49, 88%, 65%)" stroke="hsl(49, 88%, 65%)"><rect width="12" height="12" vector-effect="non-scaling-stroke" x="736" y="502"/><g fill="black" stroke="black"><text dominant-baseline="hanging" stroke="none" vector-effect="non-scaling-stroke" x="752" y="502">Rust</text><g stroke-linecap="round" font-family="sans-serif" font-style="normal" stroke-width="2px" font-weight="normal" text-anchor="start" font-size="12px" stroke-linejoin="round" dominant-baseline="hanging" fill="none"><rect vector-effect="non-scaling-stroke" x="80" y="80" width="640" height="440"/></g><g font-size="12px" font-style="normal" stroke-linecap="round" stroke-linejoin="round" font-family="sans-serif" text-anchor="start" dominant-baseline="hanging" transform="translate(80 520 )scale(1 -1 )" fill="none" stroke="black" stroke-width="2px" font-weight="normal"><path d="M64,0 L64,-6 M8.533333e+01,0 L8.533333e+01,-6 M1.066667e+02,0 L1.066667e+02,-6 " vector-effect="non-scaling-stroke"/></g><g font-weight="normal" transform="translate(80 520 )scale(1 1 )" stroke-linejoin="round" text-anchor="middle" stroke-width="2px" font-style="normal" fill="black" stroke="black" stroke-linecap="round" font-family="sans-serif" font-size="12px" dominant-baseline="hanging"><text vector-effect="non-scaling-stroke" x="64" y="10" dominant-baseline="hanging" stroke="none">1</text><text x="8.533333e+01" y="10" dominant-baseline="hanging" stroke="none" vector-effect="non-scaling-stroke">2</text><text x="1.066667e+02" y="10" dominant-baseline="hanging" stroke="none" vector-effect="non-scaling-stroke">3</text></g><g font-weight="bold" fill="black" stroke="black" stroke-linejoin="round" font-size="12px" font-style="normal" stroke-width="2px" transform="translate(80 520 )scale(1 1 )rotate(0 0 0 )" stroke-linecap="round" font-family="sans-serif" text-anchor="middle" dominant-baseline="baseline"><text x="320" y="-6" dominant-baseline="baseline" stroke="none" vector-effect="non-scaling-stroke">Day</text></g><g text-anchor="middle" stroke-linecap="round" stroke-linejoin="round" font-size="12px" dominant-baseline="baseline" transform="translate(80 520 )scale(1 -1 )" fill="black" stroke="black" font-family="sans-serif" stroke-width="2px" font-style="normal" font-weight="bold"><path vector-effect="non-scaling-stroke" d="M0,44 L-6,44 M0,1.096190e+02 L-6,1.096190e+02 M0,1.752380e+02 L-6,1.752380e+02 M0,2.408570e+02 L-6,2.408570e+02 M0,3.064760e+02 L-6,3.064760e+02 M0,3.720950e+02 L-6,3.720950e+02 "/></g><g font-style="normal" transform="translate(80 520 )scale(1 1 )" stroke="black" font-family="sans-serif" text-anchor="end" dominant-baseline="middle" stroke-width="2px" font-size="12px" font-weight="normal" fill="black" stroke-linecap="round" stroke-linejoin="round"><text dominant-baseline="middle" stroke="none" vector-effect="non-scaling-stroke" x="-10" y="-44">0s</text><text x="-10" y="-1.096190e+02" dominant-baseline="middle" stroke="none" vector-effect="non-scaling-stroke">10µs</text><text vector-effect="non-scaling-stroke" x="-10" y="-1.752380e+02" dominant-baseline="middle" stroke="none">20µs</text><text vector-effect="non-scaling-stroke" x="-10" y="-2.408570e+02" dominant-baseline="middle" stroke="none">30µs</text><text x="-10" y="-3.064760e+02" dominant-baseline="middle" stroke="none" vector-effect="non-scaling-stroke">40µs</text><text y="-3.720950e+02" dominant-baseline="middle" stroke="none" vector-effect="non-scaling-stroke" x="-10">50µs</text></g><g text-anchor="middle" transform="translate(80 520 )scale(1 1 )rotate(-90 0 0 )" font-size="12px" font-weight="bold" stroke-linecap="round" stroke-linejoin="round" font-family="sans-serif" font-style="normal" stroke-width="2px" stroke="black" dominant-baseline="hanging" fill="black"><text dominant-baseline="hanging" stroke="none" vector-effect="non-scaling-stroke" x="220" y="6">Runtime</text></g></g></g></g></svg>