<svg height="600" viewbox="0 0 800 600" preserveAspectRatio="xMidYMid meet" xmlns="http://www.w3.org/2000/svg" width="800"><defs><marker id="circle" viewBox="0 0 10 10 " refX="5" refY="5" markerUnits="userSpaceOnUse" markerWidth="2%" markerHeight="2%"><circle r="3" fill="none" stroke="black" cx="5" cy="5"/></marker><marker viewBox="0 0 10 10 " refX="5" refY="5" markerUnits="userSpaceOnUse" markerWidth="2%" markerHeight="2%" id="filled-circle"><circle r="3" fill="black" stroke="none" cx="5" cy="5"/></marker><marker markerHeight="2%" id="square" viewBox="0 0 10 10 " refX="5" refY="5" markerUnits="userSpaceOnUse" markerWidth="2%"><rect fill="none" stroke="black" x="2" y="2" width="6" height="6"/></marker><marker id="filled-square" viewBox="0 0 10 10 " refX="5" refY="5" markerUnits="userSpaceOnUse" markerWidth="2%" markerHeight="2%"><rect x="2" y="2" width="6" height="6" fill="black" stroke="none"/></marker></defs><g stroke="hsl(198, 47%, 65%)" stroke-width="1px" stroke-linecap="round" stroke-linejoin="round" transform="translate(80 520 )scale(1 -1 )" fill="hsl(198, 47%, 65%)"><rect x="5.066667e+01" y="0" width="1.333333e+01" height="4.423525e+01" vector-effect="non-scaling-stroke"/><rect width="1.333333e+01" height="4.423326e+01" vector-effect="non-scaling-stroke" x="7.200000e+01" y="0"/><rect y="0" width="1.333333e+01" height="4.414482e+01" vector-effect="non-scaling-stroke" x="9.333333e+01"/><rect x="1.146667e+02" y="0" width="1.333333e+01" height="4.533401e+01" vector-effect="non-scaling-stroke"/><rect vector-effect="non-scaling-stroke" x="136" y="0" width="1.333333e+01" height="4.414970e+01"/><rect vector-effect="non-scaling-stroke" x="1.573333e+02" y="0" width="1.333333e+01" height="396"/><rect vector-effect="non-scaling-stroke" x="1.786667e+02" y="0" width="1.333333e+01" height="1.265206e+02"/><rect vector-effect="non-scaling-stroke" x="2.000000e+02" y="0" width="1.333333e+01" height="4.403414e+01"/><rect vector-effect="non-scaling-stroke" x="2.213333e+02" y="0" width="1.333333e+01" height="5.167989e+01"/><rect x="2.426667e+02" y="0" width="1.333333e+01" height="4.622438e+01" vector-effect="non-scaling-stroke"/><rect vector-effect="non-scaling-stroke" x="264" y="0" width="1.333333e+01" height="5.078807e+01"/><rect vector-effect="non-scaling-stroke" x="2.853333e+02" y="0" width="1.333333e+01" height="4.690133e+01"/><rect x="3.066667e+02" y="0" width="1.333333e+01" height="4.403436e+01" vector-effect="non-scaling-stroke"/><rect width="1.333333e+01" height="7.156957e+01" vector-effect="non-scaling-stroke" x="3.280000e+02" y="0"/><rect height="4.723968e+01" vector-effect="non-scaling-stroke" x="3.493333e+02" y="0" width="1.333333e+01"/><rect vector-effect="non-scaling-stroke" x="3.706667e+02" y="0" width="1.333333e+01" height="1.121467e+02"/></g><g stroke-linejoin="round" transform="translate(80 520 )scale(1 -1 )" fill="hsl(49, 88%, 65%)" stroke="hsl(49, 88%, 65%)" stroke-width="1px" stroke-linecap="round"><rect height="4.422948e+01" vector-effect="non-scaling-stroke" x="64" y="0" width="1.333333e+01"/><rect vector-effect="non-scaling-stroke" x="8.533333e+01" y="0" width="1.333333e+01" height="4.421116e+01"/><rect height="4.404346e+01" vector-effect="non-scaling-stroke" x="1.066667e+02" y="0" width="1.333333e+01"/><rect height="4.622662e+01" vector-effect="non-scaling-stroke" x="1.280000e+02" y="0" width="1.333333e+01"/><rect width="1.333333e+01" height="4.410670e+01" vector-effect="non-scaling-stroke" x="1.493333e+02" y="0"/><rect width="1.333333e+01" height="3.114004e+02" vector-effect="non-scaling-stroke" x="1.706667e+02" y="0"/><rect width="1.333333e+01" height="1.275011e+02" vector-effect="non-scaling-stroke" x="192" y="0"/><rect width="1.333333e+01" height="4.401625e+01" vector-effect="non-scaling-stroke" x="2.133333e+02" y="0"/><rect vector-effect="non-scaling-stroke" x="2.346667e+02" y="0" width="1.333333e+01" height="4.690768e+01"/><rect y="0" width="1.333333e+01" height="4.418291e+01" vector-effect="non-scaling-stroke" x="256"/><rect y="0" width="1.333333e+01" height="4.918509e+01" vector-effect="non-scaling-stroke" x="2.773333e+02"/><rect height="4.621178e+01" vector-effect="non-scaling-stroke" x="2.986667e+02" y="0" width="1.333333e+01"/><rect vector-effect="non-scaling-stroke" x="320" y="0" width="1.333333e+01" height="4.402768e+01"/><rect vector-effect="non-scaling-stroke" x="3.413333e+02" y="0" width="1.333333e+01" height="6.266067e+01"/><rect height="5.329766e+01" vector-effect="non-scaling-stroke" x="3.626667e+02" y="0" width="1.333333e+01"/></g><g stroke-linecap="round" stroke-linejoin="round" dominant-baseline="hanging" font-size="12px" font-weight="normal" font-family="sans-serif" font-style="normal" fill="hsl(198, 47%, 65%)" stroke-width="1px" text-anchor="start" stroke="hsl(198, 47%, 65%)"><rect vector-effect="non-scaling-stroke" x="736" y="484" width="12" height="12"/><g stroke="black" fill="black"><text y="484" dominant-baseline="hanging" stroke="none" vector-effect="non-scaling-stroke" x="752">Golang</text></g><g font-size="12px" text-anchor="start" dominant-baseline="hanging" stroke="hsl(49, 88%, 65%)" font-family="sans-serif" font-weight="normal" stroke-width="1px" stroke-linecap="round" stroke-linejoin="round" font-style="normal" fill="hsl(49, 88%, 65%)"><rect vector-effect="non-scaling-stroke" x="736" y="502" width="12" height="12"/><g stroke="black" fill="black"><text x="752" y="502" dominant-baseline="hanging" stroke="none" vector-effect="non-scaling-stroke">Rust</text><g stroke-width="2px" font-family="sans-serif" font-style="normal" dominant-baseline="hanging" stroke-linecap="round" text-anchor="start" font-size="12px" fill="none" font-weight="normal" stroke-linejoin="round"><rect width="640" height="440" vector-effect="non-scaling-stroke" x="80" y="80"/></g><g dominant-baseline="hanging" stroke="black" stroke-linejoin="round" font-style="normal" stroke-width="2px" font-weight="normal" transform="translate(80 520 )scale(1 -1 )" fill="none" stroke-linecap="round" font-family="sans-serif" font-size="12px" text-anchor="start"><path d="M64,0 L64,-6 M8.533333e+01,0 L8.533333e+01,-6 M1.066667e+02,0 L1.066667e+02,-6 M128,0 L128,-6 M1.493333e+02,0 L1.493333e+02,-6 M1.706667e+02,0 L1.706667e+02,-6 M192,0 L192,-6 M2.133333e+02,0 L2.133333e+02,-6 M2.346667e+02,0 L2.346667e+02,-6 M256,0 L256,-6 M2.773333e+02,0 L2.773333e+02,-6 M2.986667e+02,0 L2.986667e+02,-6 M320,0 L320,-6 M3.413333e+02,0 L3.413333e+02,-6 M3.626667e+02,0 L3.626667e+02,-6 M384,0 L384,-6 " vector-effect="non-scaling-stroke"/></g><g stroke-linecap="round" font-style="normal" stroke="black" stroke-linejoin="round" font-family="sans-serif" transform="translate(80 520 )scale(1 1 )" stroke-width="2px" font-size="12px" font-weight="normal" text-anchor="middle" fill="black" dominant-baseline="hanging"><text y="10" dominant-baseline="hanging" stroke="none" vector-effect="non-scaling-stroke" x="64">1</text><text dominant-baseline="hanging" stroke="none" vector-effect="non-scaling-stroke" x="8.533333e+01" y="10">2</text><text stroke="none" vector-effect="non-scaling-stroke" x="1.066667e+02" y="10" dominant-baseline="hanging">3</text><text stroke="none" vector-effect="non-scaling-stroke" x="128" y="10" dominant-baseline="hanging">4</text><text stroke="none" vector-effect="non-scaling-stroke" x="1.493333e+02" y="10" dominant-baseline="hanging">5</text><text x="1.706667e+02" y="10" dominant-baseline="hanging" stroke="none" vector-effect="non-scaling-stroke">6</text><text y="10" dominant-baseline="hanging" stroke="none" vector-effect="non-scaling-stroke" x="192">7</text><text vector-effect="non-scaling-stroke" x="2.133333e+02" y="10" dominant-baseline="hanging" stroke="none">8</text><text y="10" dominant-baseline="hanging" stroke="none" vector-effect="non-scaling-stroke" x="2.346667e+02">9</text><text x="256" y="10" dominant-baseline="hanging" stroke="none" vector-effect="non-scaling-stroke">10</text><text y="10" dominant-baseline="hanging" stroke="none" vector-effect="non-scaling-stroke" x="2.773333e+02">11</text><text vector-effect="non-scaling-stroke" x="2.986667e+02" y="10" dominant-baseline="hanging" stroke="none">12</text><text stroke="none" vector-effect="non-scaling-stroke" x="320" y="10" dominant-baseline="hanging">13</text><text vector-effect="non-scaling-stroke" x="3.413333e+02" y="10" dominant-baseline="hanging" stroke="none">14</text><text x="3.626667e+02" y="10" dominant-baseline="hanging" stroke="none" vector-effect="non-scaling-stroke">15</text><text x="384" y="10" dominant-baseline="hanging" stroke="none" vector-effect="non-scaling-stroke">16</text></g><g dominant-baseline="baseline" font-style="normal" transform="translate(80 520 )scale(1 1 )rotate(0 0 0 )" fill="black" stroke-linejoin="round" font-family="sans-serif" font-weight="bold" text-anchor="middle" stroke="black" stroke-linecap="round" stroke-width="2px" font-size="12px"><text x="320" y="-6" dominant-baseline="baseline" stroke="none" vector-effect="non-scaling-stroke">Day</text></g><g font-weight="bold" text-anchor="middle" dominant-baseline="baseline" stroke-linejoin="round" transform="translate(80 520 )scale(1 -1 )" stroke-width="2px" font-size="12px" stroke-linecap="round" font-family="sans-serif" font-style="normal" fill="black" stroke="black"><path vector-effect="non-scaling-stroke" d="M0,44 L-6,44 M0,9.307912e+01 L-6,9.307912e+01 M0,1.421582e+02 L-6,1.421582e+02 M0,1.912374e+02 L-6,1.912374e+02 M0,2.403165e+02 L-6,2.403165e+02 M0,2.893956e+02 L-6,2.893956e+02 M0,3.384747e+02 L-6,3.384747e+02 M0,3.875538e+02 L-6,3.875538e+02 "/></g><g font-weight="normal" text-anchor="end" dominant-baseline="middle" font-family="sans-serif" font-style="normal" transform="translate(80 520 )scale(1 1 )" stroke-width="2px" font-size="12px" fill="black" stroke="black" stroke-linecap="round" stroke-linejoin="round"><text stroke="none" vector-effect="non-scaling-stroke" x="-10" y="-44" dominant-baseline="middle">0s</text><text dominant-baseline="middle" stroke="none" vector-effect="non-scaling-stroke" x="-10" y="-9.307912e+01">10ms</text><text x="-10" y="-1.421582e+02" dominant-baseline="middle" stroke="none" vector-effect="non-scaling-stroke">20ms</text><text dominant-baseline="middle" stroke="none" vector-effect="non-scaling-stroke" x="-10" y="-1.912374e+02">30ms</text><text stroke="none" vector-effect="non-scaling-stroke" x="-10" y="-2.403165e+02" dominant-baseline="middle">40ms</text><text y="-2.893956e+02" dominant-baseline="middle" stroke="none" vector-effect="non-scaling-stroke" x="-10">50ms</text><text vector-effect="non-scaling-stroke" x="-10" y="-3.384747e+02" dominant-baseline="middle" stroke="none">60ms</text><text dominant-baseline="middle" stroke="none" vector-effect="non-scaling-stroke" x="-10" y="-3.875538e+02">70ms</text></g><g dominant-baseline="hanging" font-style="normal" transform="translate(80 520 )scale(1 1 )rotate(-90 0 0 )" font-family="sans-serif" font-weight="bold" text-anchor="middle" font-size="12px" fill="black" stroke="black" stroke-linecap="round" stroke-linejoin="round" stroke-width="2px"><text y="6" dominant-baseline="hanging" stroke="none" vector-effect="non-scaling-stroke" x="220">Runtime</text></g></g></g></g></svg>