<svg width="800" height="600" viewbox="0 0 800 600" preserveAspectRatio="xMidYMid meet" xmlns="http://www.w3.org/2000/svg"><defs><marker markerHeight="2%" id="circle" viewBox="0 0 10 10 " refX="5" refY="5" markerUnits="userSpaceOnUse" markerWidth="2%"><circle cx="5" cy="5" r="3" fill="none" stroke="black"/></marker><marker refY="5" markerUnits="userSpaceOnUse" markerWidth="2%" markerHeight="2%" id="filled-circle" viewBox="0 0 10 10 " refX="5"><circle fill="black" stroke="none" cx="5" cy="5" r="3"/></marker><marker refX="5" refY="5" markerUnits="userSpaceOnUse" markerWidth="2%" markerHeight="2%" id="square" viewBox="0 0 10 10 "><rect x="2" y="2" width="6" height="6" fill="none" stroke="black"/></marker><marker markerWidth="2%" markerHeight="2%" id="filled-square" viewBox="0 0 10 10 " refX="5" refY="5" markerUnits="userSpaceOnUse"><rect x="2" y="2" width="6" height="6" fill="black" stroke="none"/></marker></defs><g transform="translate(80 520 )scale(1 -1 )" fill="hsl(198, 47%, 65%)" stroke="hsl(198, 47%, 65%)" stroke-width="1px" stroke-linecap="round" stroke-linejoin="round"><rect vector-effect="non-scaling-stroke" x="4.758974e+01" y="0" width="1.094017e+01" height="4.416107e+01"/><rect y="0" width="1.094017e+01" height="4.400552e+01" vector-effect="non-scaling-stroke" x="6.892308e+01"/><rect vector-effect="non-scaling-stroke" x="9.025641e+01" y="0" width="1.094017e+01" height="4.402370e+01"/><rect vector-effect="non-scaling-stroke" x="1.115897e+02" y="0" width="1.094017e+01" height="4.403046e+01"/><rect x="1.329231e+02" y="0" width="1.094017e+01" height="4.404900e+01" vector-effect="non-scaling-stroke"/><rect vector-effect="non-scaling-stroke" x="1.542564e+02" y="0" width="1.094017e+01" height="4.400013e+01"/><rect height="4.433411e+01" vector-effect="non-scaling-stroke" x="1.755897e+02" y="0" width="1.094017e+01"/><rect width="1.094017e+01" height="4.488021e+01" vector-effect="non-scaling-stroke" x="1.969231e+02" y="0"/><rect height="4.407871e+01" vector-effect="non-scaling-stroke" x="2.182564e+02" y="0" width="1.094017e+01"/><rect width="1.094017e+01" height="4.504864e+01" vector-effect="non-scaling-stroke" x="2.395897e+02" y="0"/><rect vector-effect="non-scaling-stroke" x="2.609231e+02" y="0" width="1.094017e+01" height="4.424140e+01"/><rect vector-effect="non-scaling-stroke" x="2.822564e+02" y="0" width="1.094017e+01" height="396"/><rect x="3.035897e+02" y="0" width="1.094017e+01" height="4.410024e+01" vector-effect="non-scaling-stroke"/></g><g stroke="hsl(49, 88%, 65%)" stroke-width="1px" stroke-linecap="round" stroke-linejoin="round" transform="translate(80 520 )scale(1 -1 )" fill="hsl(49, 88%, 65%)"><rect y="0" width="1.094017e+01" height="4.408368e+01" vector-effect="non-scaling-stroke" x="5.852991e+01"/><rect y="0" width="1.094017e+01" height="4.400216e+01" vector-effect="non-scaling-stroke" x="7.986325e+01"/><rect x="1.011966e+02" y="0" width="1.094017e+01" height="4.401564e+01" vector-effect="non-scaling-stroke"/><rect vector-effect="non-scaling-stroke" x="1.225299e+02" y="0" width="1.094017e+01" height="4.401708e+01"/><rect width="1.094017e+01" height="4.400997e+01" vector-effect="non-scaling-stroke" x="1.438632e+02" y="0"/><rect vector-effect="non-scaling-stroke" x="1.651966e+02" y="0" width="1.094017e+01" height="4.400009e+01"/><rect height="4.651565e+01" vector-effect="non-scaling-stroke" x="2.078632e+02" y="0" width="1.094017e+01"/><rect x="2.291966e+02" y="0" width="1.094017e+01" height="4.404421e+01" vector-effect="non-scaling-stroke"/><rect y="0" width="1.094017e+01" height="4.407725e+01" vector-effect="non-scaling-stroke" x="2.505299e+02"/><rect vector-effect="non-scaling-stroke" x="2.718632e+02" y="0" width="1.094017e+01" height="4.422258e+01"/></g><g transform="translate(80 520 )scale(1 -1 )" fill="hsl(260, 76%, 65%)" stroke="hsl(260, 76%, 65%)" stroke-width="1px" stroke-linecap="round" stroke-linejoin="round"><rect vector-effect="non-scaling-stroke" x="6.947009e+01" y="0" width="1.094017e+01" height="4.406687e+01"/><rect width="1.094017e+01" height="4.400234e+01" vector-effect="non-scaling-stroke" x="9.080342e+01" y="0"/><rect vector-effect="non-scaling-stroke" x="1.121368e+02" y="0" width="1.094017e+01" height="4.401242e+01"/><rect x="1.334701e+02" y="0" width="1.094017e+01" height="4.404748e+01" vector-effect="non-scaling-stroke"/><rect vector-effect="non-scaling-stroke" x="1.548034e+02" y="0" width="1.094017e+01" height="4.575806e+01"/><rect x="1.761368e+02" y="0" width="1.094017e+01" height="4.400008e+01" vector-effect="non-scaling-stroke"/><rect y="0" width="1.094017e+01" height="4.403908e+01" vector-effect="non-scaling-stroke" x="1.974701e+02"/><rect x="2.188034e+02" y="0" width="1.094017e+01" height="4.419846e+01" vector-effect="non-scaling-stroke"/><rect x="2.401368e+02" y="0" width="1.094017e+01" height="4.404643e+01" vector-effect="non-scaling-stroke"/><rect y="0" width="1.094017e+01" height="4.407512e+01" vector-effect="non-scaling-stroke" x="2.614701e+02"/><rect width="1.094017e+01" height="6.137333e+01" vector-effect="non-scaling-stroke" x="2.828034e+02" y="0"/></g><g font-weight="normal" text-anchor="start" stroke-width="1px" stroke-linejoin="round" font-family="sans-serif" font-style="normal" fill="hsl(198, 47%, 65%)" stroke="hsl(198, 47%, 65%)" dominant-baseline="hanging" font-size="12px" stroke-linecap="round"><rect width="12" height="12" vector-effect="non-scaling-stroke" x="736" y="466"/><g fill="black" stroke="black"><text y="466" dominant-baseline="hanging" stroke="none" vector-effect="non-scaling-stroke" x="752">Golang</text></g><g stroke="hsl(49, 88%, 65%)" font-size="12px" stroke-width="1px" stroke-linecap="round" stroke-linejoin="round" font-family="sans-serif" font-style="normal" font-weight="normal" fill="hsl(49, 88%, 65%)" text-anchor="start" dominant-baseline="hanging"><rect x="736" y="484" width="12" height="12" vector-effect="non-scaling-stroke"/><g fill="black" stroke="black"><text stroke="none" vector-effect="non-scaling-stroke" x="752" y="484" dominant-baseline="hanging">Rust</text></g><g dominant-baseline="hanging" font-size="12px" font-style="normal" font-weight="normal" stroke="hsl(260, 76%, 65%)" stroke-linecap="round" stroke-linejoin="round" font-family="sans-serif" fill="hsl(260, 76%, 65%)" stroke-width="1px" text-anchor="start"><rect width="12" height="12" vector-effect="non-scaling-stroke" x="736" y="502"/><g fill="black" stroke="black"><text vector-effect="non-scaling-stroke" x="752" y="502" dominant-baseline="hanging" stroke="none">Zig</text><g font-weight="normal" fill="none" stroke-width="2px" text-anchor="start" stroke-linejoin="round" font-style="normal" dominant-baseline="hanging" stroke-linecap="round" font-family="sans-serif" font-size="12px"><rect y="80" width="640" height="440" vector-effect="non-scaling-stroke" x="80"/></g><g stroke="black" stroke-width="2px" text-anchor="start" dominant-baseline="hanging" stroke-linecap="round" stroke-linejoin="round" font-weight="normal" fill="none" transform="translate(80 520 )scale(1 -1 )" font-family="sans-serif" font-style="normal" font-size="12px"><path d="M64,0 L64,-6 M8.533333e+01,0 L8.533333e+01,-6 M1.066667e+02,0 L1.066667e+02,-6 M128,0 L128,-6 M1.493333e+02,0 L1.493333e+02,-6 M1.706667e+02,0 L1.706667e+02,-6 M192,0 L192,-6 M2.133333e+02,0 L2.133333e+02,-6 M2.346667e+02,0 L2.346667e+02,-6 M256,0 L256,-6 M2.773333e+02,0 L2.773333e+02,-6 M2.986667e+02,0 L2.986667e+02,-6 M320,0 L320,-6 " vector-effect="non-scaling-stroke"/></g><g font-size="12px" transform="translate(80 520 )scale(1 1 )" font-weight="normal" stroke-width="2px" font-style="normal" stroke-linejoin="round" font-family="sans-serif" text-anchor="middle" dominant-baseline="hanging" fill="black" stroke="black" stroke-linecap="round"><text x="64" y="10" dominant-baseline="hanging" stroke="none" vector-effect="non-scaling-stroke">1</text><text stroke="none" vector-effect="non-scaling-stroke" x="8.533333e+01" y="10" dominant-baseline="hanging">2</text><text x="1.066667e+02" y="10" dominant-baseline="hanging" stroke="none" vector-effect="non-scaling-stroke">3</text><text vector-effect="non-scaling-stroke" x="128" y="10" dominant-baseline="hanging" stroke="none">4</text><text stroke="none" vector-effect="non-scaling-stroke" x="1.493333e+02" y="10" dominant-baseline="hanging">5</text><text stroke="none" vector-effect="non-scaling-stroke" x="1.706667e+02" y="10" dominant-baseline="hanging">6</text><text x="192" y="10" dominant-baseline="hanging" stroke="none" vector-effect="non-scaling-stroke">7</text><text x="2.133333e+02" y="10" dominant-baseline="hanging" stroke="none" vector-effect="non-scaling-stroke">8</text><text vector-effect="non-scaling-stroke" x="2.346667e+02" y="10" dominant-baseline="hanging" stroke="none">9</text><text y="10" dominant-baseline="hanging" stroke="none" vector-effect="non-scaling-stroke" x="256">10</text><text dominant-baseline="hanging" stroke="none" vector-effect="non-scaling-stroke" x="2.773333e+02" y="10">11</text><text y="10" dominant-baseline="hanging" stroke="none" vector-effect="non-scaling-stroke" x="2.986667e+02">12</text><text vector-effect="non-scaling-stroke" x="320" y="10" dominant-baseline="hanging" stroke="none">13</text></g><g font-family="sans-serif" dominant-baseline="baseline" font-weight="bold" stroke-width="2px" stroke-linejoin="round" fill="black" stroke="black" stroke-linecap="round" text-anchor="middle" font-size="12px" transform="translate(80 520 )scale(1 1 )rotate(0 0 0 )" font-style="normal"><text stroke="none" vector-effect="non-scaling-stroke" x="320" y="-6" dominant-baseline="baseline">Day</text></g><g stroke-linejoin="round" font-family="sans-serif" font-weight="bold" fill="black" stroke-width="2px" dominant-baseline="baseline" stroke-linecap="round" font-style="normal" stroke="black" text-anchor="middle" font-size="12px" transform="translate(80 520 )scale(1 -1 )"><path vector-effect="non-scaling-stroke" d="M0,44 L-6,44 M0,1.341724e+02 L-6,1.341724e+02 M0,2.243448e+02 L-6,2.243448e+02 M0,3.145172e+02 L-6,3.145172e+02 "/></g><g font-size="12px" stroke-linecap="round" font-style="normal" font-weight="normal" stroke-width="2px" transform="translate(80 520 )scale(1 1 )" stroke-linejoin="round" font-family="sans-serif" fill="black" stroke="black" text-anchor="end" dominant-baseline="middle"><text y="-44" dominant-baseline="middle" stroke="none" vector-effect="non-scaling-stroke" x="-10">0s</text><text stroke="none" vector-effect="non-scaling-stroke" x="-10" y="-1.341724e+02" dominant-baseline="middle">100ms</text><text dominant-baseline="middle" stroke="none" vector-effect="non-scaling-stroke" x="-10" y="-2.243448e+02">200ms</text><text dominant-baseline="middle" stroke="none" vector-effect="non-scaling-stroke" x="-10" y="-3.145172e+02">300ms</text></g><g stroke-linejoin="round" text-anchor="middle" dominant-baseline="hanging" font-style="normal" font-weight="bold" fill="black" stroke="black" stroke-linecap="round" transform="translate(80 520 )scale(1 1 )rotate(-90 0 0 )" font-family="sans-serif" stroke-width="2px" font-size="12px"><text x="220" y="6" dominant-baseline="hanging" stroke="none" vector-effect="non-scaling-stroke">Runtime</text></g></g></g></g></g></svg>