<svg preserveAspectRatio="xMidYMid meet" xmlns="http://www.w3.org/2000/svg" width="800" height="600" viewbox="0 0 800 600"><defs><marker viewBox="0 0 10 10 " refX="5" refY="5" markerUnits="userSpaceOnUse" markerWidth="2%" markerHeight="2%" id="circle"><circle cy="5" r="3" fill="none" stroke="black" cx="5"/></marker><marker id="filled-circle" viewBox="0 0 10 10 " refX="5" refY="5" markerUnits="userSpaceOnUse" markerWidth="2%" markerHeight="2%"><circle cy="5" r="3" fill="black" stroke="none" cx="5"/></marker><marker id="square" viewBox="0 0 10 10 " refX="5" refY="5" markerUnits="userSpaceOnUse" markerWidth="2%" markerHeight="2%"><rect width="6" height="6" fill="none" stroke="black" x="2" y="2"/></marker><marker viewBox="0 0 10 10 " refX="5" refY="5" markerUnits="userSpaceOnUse" markerWidth="2%" markerHeight="2%" id="filled-square"><rect x="2" y="2" width="6" height="6" fill="black" stroke="none"/></marker></defs><g stroke="hsl(198, 47%, 65%)" stroke-width="1px" stroke-linecap="round" stroke-linejoin="round" transform="translate(80 520 )scale(1 -1 )" fill="hsl(198, 47%, 65%)"><rect y="0" width="2.750000e+01" height="4.426328e+01" vector-effect="non-scaling-stroke" x="3.650000e+01"/><rect vector-effect="non-scaling-stroke" x="5.783333e+01" y="0" width="2.750000e+01" height="4.423326e+01"/><rect height="4.414482e+01" vector-effect="non-scaling-stroke" x="7.916667e+01" y="0" width="2.750000e+01"/><rect x="1.005000e+02" y="0" width="2.750000e+01" height="4.533401e+01" vector-effect="non-scaling-stroke"/><rect width="2.750000e+01" height="4.414970e+01" vector-effect="non-scaling-stroke" x="1.218333e+02" y="0"/><rect width="2.750000e+01" height="396" vector-effect="non-scaling-stroke" x="1.431667e+02" y="0"/><rect width="2.750000e+01" height="1.653478e+02" vector-effect="non-scaling-stroke" x="1.645000e+02" y="0"/></g><g stroke-linecap="round" stroke-linejoin="round" transform="translate(80 520 )scale(1 -1 )" fill="hsl(49, 88%, 65%)" stroke="hsl(49, 88%, 65%)" stroke-width="1px"><rect width="2.750000e+01" height="4.423630e+01" vector-effect="non-scaling-stroke" x="64" y="0"/><rect y="0" width="2.750000e+01" height="4.420182e+01" vector-effect="non-scaling-stroke" x="8.533333e+01"/><rect vector-effect="non-scaling-stroke" x="1.066667e+02" y="0" width="2.750000e+01" height="4.403944e+01"/><rect vector-effect="non-scaling-stroke" x="128" y="0" width="2.750000e+01" height="4.622662e+01"/><rect vector-effect="non-scaling-stroke" x="1.493333e+02" y="0" width="2.750000e+01" height="4.410670e+01"/><rect width="2.750000e+01" height="2.968756e+02" vector-effect="non-scaling-stroke" x="1.706667e+02" y="0"/></g><g dominant-baseline="hanging" fill="hsl(198, 47%, 65%)" stroke-width="1px" stroke-linecap="round" font-family="sans-serif" font-size="12px" font-weight="normal" stroke="hsl(198, 47%, 65%)" font-style="normal" stroke-linejoin="round" text-anchor="start"><rect x="736" y="484" width="12" height="12" vector-effect="non-scaling-stroke"/><g stroke="black" fill="black"><text stroke="none" vector-effect="non-scaling-stroke" x="752" y="484" dominant-baseline="hanging">Golang</text></g><g font-style="normal" stroke-width="1px" stroke-linejoin="round" text-anchor="start" font-weight="normal" stroke="hsl(49, 88%, 65%)" stroke-linecap="round" font-family="sans-serif" font-size="12px" fill="hsl(49, 88%, 65%)" dominant-baseline="hanging"><rect vector-effect="non-scaling-stroke" x="736" y="502" width="12" height="12"/><g fill="black" stroke="black"><text stroke="none" vector-effect="non-scaling-stroke" x="752" y="502" dominant-baseline="hanging">Rust</text><g stroke-linejoin="round" text-anchor="start" stroke-width="2px" stroke-linecap="round" font-family="sans-serif" font-size="12px" font-style="normal" fill="none" dominant-baseline="hanging" font-weight="normal"><rect width="640" height="440" vector-effect="non-scaling-stroke" x="80" y="80"/></g><g transform="translate(80 520 )scale(1 -1 )" fill="none" stroke-width="2px" stroke-linecap="round" font-family="sans-serif" font-size="12px" font-style="normal" text-anchor="start" font-weight="normal" dominant-baseline="hanging" stroke="black" stroke-linejoin="round"><path d="M64,0 L64,-6 M8.533333e+01,0 L8.533333e+01,-6 M1.066667e+02,0 L1.066667e+02,-6 M128,0 L128,-6 M1.493333e+02,0 L1.493333e+02,-6 M1.706667e+02,0 L1.706667e+02,-6 M192,0 L192,-6 " vector-effect="non-scaling-stroke"/></g><g transform="translate(80 520 )scale(1 1 )" font-style="normal" font-weight="normal" stroke="black" font-family="sans-serif" stroke-linejoin="round" text-anchor="middle" stroke-width="2px" stroke-linecap="round" font-size="12px" fill="black" dominant-baseline="hanging"><text stroke="none" vector-effect="non-scaling-stroke" x="64" y="10" dominant-baseline="hanging">1</text><text stroke="none" vector-effect="non-scaling-stroke" x="8.533333e+01" y="10" dominant-baseline="hanging">2</text><text stroke="none" vector-effect="non-scaling-stroke" x="1.066667e+02" y="10" dominant-baseline="hanging">3</text><text vector-effect="non-scaling-stroke" x="128" y="10" dominant-baseline="hanging" stroke="none">4</text><text x="1.493333e+02" y="10" dominant-baseline="hanging" stroke="none" vector-effect="non-scaling-stroke">5</text><text stroke="none" vector-effect="non-scaling-stroke" x="1.706667e+02" y="10" dominant-baseline="hanging">6</text><text dominant-baseline="hanging" stroke="none" vector-effect="non-scaling-stroke" x="192" y="10">7</text></g><g transform="translate(80 520 )scale(1 1 )rotate(0 0 0 )" stroke="black" stroke-width="2px" font-size="12px" font-style="normal" text-anchor="middle" dominant-baseline="baseline" stroke-linecap="round" font-family="sans-serif" font-weight="bold" fill="black" stroke-linejoin="round"><text stroke="none" vector-effect="non-scaling-stroke" x="320" y="-6" dominant-baseline="baseline">Day</text></g><g transform="translate(80 520 )scale(1 -1 )" stroke-width="2px" font-family="sans-serif" font-size="12px" font-style="normal" font-weight="bold" fill="black" stroke-linejoin="round" stroke="black" stroke-linecap="round" text-anchor="middle" dominant-baseline="baseline"><path vector-effect="non-scaling-stroke" d="M0,44 L-6,44 M0,9.307912e+01 L-6,9.307912e+01 M0,1.421582e+02 L-6,1.421582e+02 M0,1.912374e+02 L-6,1.912374e+02 M0,2.403165e+02 L-6,2.403165e+02 M0,2.893956e+02 L-6,2.893956e+02 M0,3.384747e+02 L-6,3.384747e+02 M0,3.875538e+02 L-6,3.875538e+02 "/></g><g stroke-linecap="round" font-family="sans-serif" font-size="12px" fill="black" text-anchor="end" font-style="normal" stroke="black" stroke-width="2px" transform="translate(80 520 )scale(1 1 )" font-weight="normal" stroke-linejoin="round" dominant-baseline="middle"><text stroke="none" vector-effect="non-scaling-stroke" x="-10" y="-44" dominant-baseline="middle">0s</text><text y="-9.307912e+01" dominant-baseline="middle" stroke="none" vector-effect="non-scaling-stroke" x="-10">10ms</text><text vector-effect="non-scaling-stroke" x="-10" y="-1.421582e+02" dominant-baseline="middle" stroke="none">20ms</text><text vector-effect="non-scaling-stroke" x="-10" y="-1.912374e+02" dominant-baseline="middle" stroke="none">30ms</text><text y="-2.403165e+02" dominant-baseline="middle" stroke="none" vector-effect="non-scaling-stroke" x="-10">40ms</text><text y="-2.893956e+02" dominant-baseline="middle" stroke="none" vector-effect="non-scaling-stroke" x="-10">50ms</text><text dominant-baseline="middle" stroke="none" vector-effect="non-scaling-stroke" x="-10" y="-3.384747e+02">60ms</text><text x="-10" y="-3.875538e+02" dominant-baseline="middle" stroke="none" vector-effect="non-scaling-stroke">70ms</text></g><g font-weight="bold" stroke-linecap="round" font-family="sans-serif" font-size="12px" font-style="normal" fill="black" text-anchor="middle" stroke="black" stroke-width="2px" stroke-linejoin="round" dominant-baseline="hanging" transform="translate(80 520 )scale(1 1 )rotate(-90 0 0 )"><text dominant-baseline="hanging" stroke="none" vector-effect="non-scaling-stroke" x="220" y="6">Runtime</text></g></g></g></g></svg>