<svg viewbox="0 0 800 600" preserveAspectRatio="xMidYMid meet" xmlns="http://www.w3.org/2000/svg" width="800" height="600"><defs><marker refX="5" refY="5" markerUnits="userSpaceOnUse" markerWidth="2%" markerHeight="2%" id="circle" viewBox="0 0 10 10 "><circle cx="5" cy="5" r="3" fill="none" stroke="black"/></marker><marker refY="5" markerUnits="userSpaceOnUse" markerWidth="2%" markerHeight="2%" id="filled-circle" viewBox="0 0 10 10 " refX="5"><circle r="3" fill="black" stroke="none" cx="5" cy="5"/></marker><marker refX="5" refY="5" markerUnits="userSpaceOnUse" markerWidth="2%" markerHeight="2%" id="square" viewBox="0 0 10 10 "><rect y="2" width="6" height="6" fill="none" stroke="black" x="2"/></marker><marker markerHeight="2%" id="filled-square" viewBox="0 0 10 10 " refX="5" refY="5" markerUnits="userSpaceOnUse" markerWidth="2%"><rect stroke="none" x="2" y="2" width="6" height="6" fill="black"/></marker></defs><g fill="hsl(198, 47%, 65%)" stroke="hsl(198, 47%, 65%)" stroke-width="1px" stroke-linecap="round" stroke-linejoin="round" transform="translate(80 520 )scale(1 -1 )"><rect x="4.622222e+01" y="0" width="1.185185e+01" height="4.410760e+01" vector-effect="non-scaling-stroke"/><rect x="9.276768e+01" y="0" width="1.185185e+01" height="1.357531e+02" vector-effect="non-scaling-stroke"/><rect vector-effect="non-scaling-stroke" x="1.393131e+02" y="0" width="1.185185e+01" height="4.456632e+01"/><rect x="1.858586e+02" y="0" width="1.185185e+01" height="6.681151e+01" vector-effect="non-scaling-stroke"/><rect y="0" width="1.185185e+01" height="4.442906e+01" vector-effect="non-scaling-stroke" x="2.324040e+02"/><rect vector-effect="non-scaling-stroke" x="2.789495e+02" y="0" width="1.185185e+01" height="4.419161e+01"/><rect width="1.185185e+01" height="4.404994e+01" vector-effect="non-scaling-stroke" x="3.254949e+02" y="0"/><rect width="1.185185e+01" height="396" vector-effect="non-scaling-stroke" x="3.720404e+02" y="0"/><rect vector-effect="non-scaling-stroke" x="4.185859e+02" y="0" width="1.185185e+01" height="8.347082e+01"/><rect vector-effect="non-scaling-stroke" x="4.651313e+02" y="0" width="1.185185e+01" height="7.833864e+01"/><rect vector-effect="non-scaling-stroke" x="5.116768e+02" y="0" width="1.185185e+01" height="4.514517e+01"/><rect x="5.582222e+02" y="0" width="1.185185e+01" height="4.409738e+01" vector-effect="non-scaling-stroke"/></g><g fill="hsl(49, 88%, 65%)" stroke="hsl(49, 88%, 65%)" stroke-width="1px" stroke-linecap="round" stroke-linejoin="round" transform="translate(80 520 )scale(1 -1 )"><rect vector-effect="non-scaling-stroke" x="5.807407e+01" y="0" width="1.185185e+01" height="4.405445e+01"/><rect y="0" width="1.185185e+01" height="1.621897e+02" vector-effect="non-scaling-stroke" x="1.046195e+02"/><rect x="1.511650e+02" y="0" width="1.185185e+01" height="4.434206e+01" vector-effect="non-scaling-stroke"/><rect x="1.977104e+02" y="0" width="1.185185e+01" height="4.642057e+01" vector-effect="non-scaling-stroke"/><rect height="4.476679e+01" vector-effect="non-scaling-stroke" x="2.442559e+02" y="0" width="1.185185e+01"/><rect y="0" width="1.185185e+01" height="4.413790e+01" vector-effect="non-scaling-stroke" x="2.908013e+02"/><rect vector-effect="non-scaling-stroke" x="3.373468e+02" y="0" width="1.185185e+01" height="4.406232e+01"/><rect vector-effect="non-scaling-stroke" x="3.838923e+02" y="0" width="1.185185e+01" height="1.618717e+02"/><rect vector-effect="non-scaling-stroke" x="4.304377e+02" y="0" width="1.185185e+01" height="6.854051e+01"/><rect vector-effect="non-scaling-stroke" x="5.700741e+02" y="0" width="1.185185e+01" height="4.407277e+01"/></g><g transform="translate(80 520 )scale(1 -1 )" fill="hsl(260, 76%, 65%)" stroke="hsl(260, 76%, 65%)" stroke-width="1px" stroke-linecap="round" stroke-linejoin="round"><rect height="4.405652e+01" vector-effect="non-scaling-stroke" x="6.992593e+01" y="0" width="1.185185e+01"/><rect vector-effect="non-scaling-stroke" x="1.164714e+02" y="0" width="1.185185e+01" height="1.003720e+02"/><rect vector-effect="non-scaling-stroke" x="1.630168e+02" y="0" width="1.185185e+01" height="4.423564e+01"/><rect height="4.678042e+01" vector-effect="non-scaling-stroke" x="2.095623e+02" y="0" width="1.185185e+01"/><rect width="1.185185e+01" height="4.437231e+01" vector-effect="non-scaling-stroke" x="2.561077e+02" y="0"/><rect vector-effect="non-scaling-stroke" x="3.026532e+02" y="0" width="1.185185e+01" height="4.410825e+01"/><rect y="0" width="1.185185e+01" height="4.404004e+01" vector-effect="non-scaling-stroke" x="3.491987e+02"/><rect y="0" width="1.185185e+01" height="2.545900e+02" vector-effect="non-scaling-stroke" x="3.957441e+02"/><rect vector-effect="non-scaling-stroke" x="4.422896e+02" y="0" width="1.185185e+01" height="7.050048e+01"/><rect vector-effect="non-scaling-stroke" x="5.353805e+02" y="0" width="1.185185e+01" height="4.979123e+01"/><rect height="4.406382e+01" vector-effect="non-scaling-stroke" x="5.819259e+02" y="0" width="1.185185e+01"/></g><g font-style="normal" fill="hsl(198, 47%, 65%)" stroke-linejoin="round" font-size="12px" font-weight="normal" font-family="sans-serif" dominant-baseline="hanging" text-anchor="start" stroke="hsl(198, 47%, 65%)" stroke-width="1px" stroke-linecap="round"><rect vector-effect="non-scaling-stroke" x="736" y="466" width="12" height="12"/><g fill="black" stroke="black"><text stroke="none" vector-effect="non-scaling-stroke" x="752" y="466" dominant-baseline="hanging">Golang</text></g><g stroke="hsl(49, 88%, 65%)" stroke-width="1px" fill="hsl(49, 88%, 65%)" font-size="12px" font-weight="normal" text-anchor="start" stroke-linecap="round" font-family="sans-serif" font-style="normal" dominant-baseline="hanging" stroke-linejoin="round"><rect y="484" width="12" height="12" vector-effect="non-scaling-stroke" x="736"/><g fill="black" stroke="black"><text y="484" dominant-baseline="hanging" stroke="none" vector-effect="non-scaling-stroke" x="752">Rust</text></g><g fill="hsl(260, 76%, 65%)" font-size="12px" font-weight="normal" stroke-width="1px" font-family="sans-serif" dominant-baseline="hanging" stroke-linejoin="round" text-anchor="start" stroke="hsl(260, 76%, 65%)" stroke-linecap="round" font-style="normal"><rect vector-effect="non-scaling-stroke" x="736" y="502" width="12" height="12"/><g stroke="black" fill="black"><text x="752" y="502" dominant-baseline="hanging" stroke="none" vector-effect="non-scaling-stroke">Zig</text><g font-size="12px" stroke-width="2px" fill="none" text-anchor="start" font-family="sans-serif" font-style="normal" stroke-linejoin="round" font-weight="normal" stroke-linecap="round" dominant-baseline="hanging"><rect y="80" width="640" height="440" vector-effect="non-scaling-stroke" x="80"/></g><g stroke="black" font-family="sans-serif" font-style="normal" font-weight="normal" text-anchor="start" stroke-width="2px" stroke-linecap="round" dominant-baseline="hanging" transform="translate(80 520 )scale(1 -1 )" fill="none" stroke-linejoin="round" font-size="12px"><path d="M64,0 L64,-6 M1.105455e+02,0 L1.105455e+02,-6 M1.570909e+02,0 L1.570909e+02,-6 M2.036364e+02,0 L2.036364e+02,-6 M2.501818e+02,0 L2.501818e+02,-6 M2.967273e+02,0 L2.967273e+02,-6 M3.432727e+02,0 L3.432727e+02,-6 M3.898182e+02,0 L3.898182e+02,-6 M4.363636e+02,0 L4.363636e+02,-6 M4.829091e+02,0 L4.829091e+02,-6 M5.294545e+02,0 L5.294545e+02,-6 M576,0 L576,-6 " vector-effect="non-scaling-stroke"/></g><g text-anchor="middle" stroke="black" stroke-width="2px" stroke-linecap="round" dominant-baseline="hanging" transform="translate(80 520 )scale(1 1 )" fill="black" stroke-linejoin="round" font-size="12px" font-family="sans-serif" font-style="normal" font-weight="normal"><text y="10" dominant-baseline="hanging" stroke="none" vector-effect="non-scaling-stroke" x="64">1</text><text y="10" dominant-baseline="hanging" stroke="none" vector-effect="non-scaling-stroke" x="1.105455e+02">2</text><text stroke="none" vector-effect="non-scaling-stroke" x="1.570909e+02" y="10" dominant-baseline="hanging">3</text><text x="2.036364e+02" y="10" dominant-baseline="hanging" stroke="none" vector-effect="non-scaling-stroke">4</text><text stroke="none" vector-effect="non-scaling-stroke" x="2.501818e+02" y="10" dominant-baseline="hanging">5</text><text stroke="none" vector-effect="non-scaling-stroke" x="2.967273e+02" y="10" dominant-baseline="hanging">6</text><text y="10" dominant-baseline="hanging" stroke="none" vector-effect="non-scaling-stroke" x="3.432727e+02">7</text><text stroke="none" vector-effect="non-scaling-stroke" x="3.898182e+02" y="10" dominant-baseline="hanging">8</text><text stroke="none" vector-effect="non-scaling-stroke" x="4.363636e+02" y="10" dominant-baseline="hanging">9</text><text dominant-baseline="hanging" stroke="none" vector-effect="non-scaling-stroke" x="4.829091e+02" y="10">10</text><text stroke="none" vector-effect="non-scaling-stroke" x="5.294545e+02" y="10" dominant-baseline="hanging">11</text><text x="576" y="10" dominant-baseline="hanging" stroke="none" vector-effect="non-scaling-stroke">12</text></g><g stroke-linecap="round" fill="black" font-weight="bold" text-anchor="middle" font-family="sans-serif" font-style="normal" dominant-baseline="baseline" transform="translate(80 520 )scale(1 1 )rotate(0 0 0 )" stroke-linejoin="round" font-size="12px" stroke="black" stroke-width="2px"><text stroke="none" vector-effect="non-scaling-stroke" x="320" y="-6" dominant-baseline="baseline">Day</text></g><g font-family="sans-serif" font-style="normal" stroke-linejoin="round" font-weight="bold" stroke-width="2px" stroke-linecap="round" dominant-baseline="baseline" transform="translate(80 520 )scale(1 -1 )" fill="black" font-size="12px" text-anchor="middle" stroke="black"><path vector-effect="non-scaling-stroke" d="M0,44 L-6,44 M0,9.977477e+01 L-6,9.977477e+01 M0,1.555495e+02 L-6,1.555495e+02 M0,2.113243e+02 L-6,2.113243e+02 M0,2.670991e+02 L-6,2.670991e+02 M0,3.228738e+02 L-6,3.228738e+02 M0,3.786486e+02 L-6,3.786486e+02 "/></g><g font-size="12px" font-weight="normal" stroke="black" stroke-width="2px" stroke-linecap="round" font-style="normal" stroke-linejoin="round" text-anchor="end" font-family="sans-serif" dominant-baseline="middle" transform="translate(80 520 )scale(1 1 )" fill="black"><text stroke="none" vector-effect="non-scaling-stroke" x="-10" y="-44" dominant-baseline="middle">0s</text><text y="-9.977477e+01" dominant-baseline="middle" stroke="none" vector-effect="non-scaling-stroke" x="-10">10ms</text><text stroke="none" vector-effect="non-scaling-stroke" x="-10" y="-1.555495e+02" dominant-baseline="middle">20ms</text><text dominant-baseline="middle" stroke="none" vector-effect="non-scaling-stroke" x="-10" y="-2.113243e+02">30ms</text><text x="-10" y="-2.670991e+02" dominant-baseline="middle" stroke="none" vector-effect="non-scaling-stroke">40ms</text><text y="-3.228738e+02" dominant-baseline="middle" stroke="none" vector-effect="non-scaling-stroke" x="-10">50ms</text><text y="-3.786486e+02" dominant-baseline="middle" stroke="none" vector-effect="non-scaling-stroke" x="-10">60ms</text></g><g stroke="black" stroke-linecap="round" font-family="sans-serif" dominant-baseline="hanging" text-anchor="middle" stroke-width="2px" font-style="normal" transform="translate(80 520 )scale(1 1 )rotate(-90 0 0 )" fill="black" stroke-linejoin="round" font-size="12px" font-weight="bold"><text vector-effect="non-scaling-stroke" x="220" y="6" dominant-baseline="hanging" stroke="none">Runtime</text></g></g></g></g></g></svg>