<svg preserveAspectRatio="xMidYMid meet" xmlns="http://www.w3.org/2000/svg" width="800" height="600" viewbox="0 0 800 600"><defs><marker id="circle" viewBox="0 0 10 10 " refX="5" refY="5" markerUnits="userSpaceOnUse" markerWidth="2%" markerHeight="2%"><circle stroke="black" cx="5" cy="5" r="3" fill="none"/></marker><marker markerHeight="2%" id="filled-circle" viewBox="0 0 10 10 " refX="5" refY="5" markerUnits="userSpaceOnUse" markerWidth="2%"><circle cy="5" r="3" fill="black" stroke="none" cx="5"/></marker><marker id="square" viewBox="0 0 10 10 " refX="5" refY="5" markerUnits="userSpaceOnUse" markerWidth="2%" markerHeight="2%"><rect width="6" height="6" fill="none" stroke="black" x="2" y="2"/></marker><marker markerWidth="2%" markerHeight="2%" id="filled-square" viewBox="0 0 10 10 " refX="5" refY="5" markerUnits="userSpaceOnUse"><rect height="6" fill="black" stroke="none" x="2" y="2" width="6"/></marker></defs><g fill="hsl(198, 47%, 65%)" stroke="hsl(198, 47%, 65%)" stroke-width="1px" stroke-linecap="round" stroke-linejoin="round" transform="translate(80 520 )scale(1 -1 )"><rect width="2.133333e+01" height="5.286771e+01" vector-effect="non-scaling-stroke" x="4.266667e+01" y="0"/><rect x="6.400000e+01" y="0" width="2.133333e+01" height="4.638089e+01" vector-effect="non-scaling-stroke"/><rect width="2.133333e+01" height="7.026067e+01" vector-effect="non-scaling-stroke" x="8.533333e+01" y="0"/><rect vector-effect="non-scaling-stroke" x="1.066667e+02" y="0" width="2.133333e+01" height="5.467111e+01"/><rect width="2.133333e+01" height="5.061863e+01" vector-effect="non-scaling-stroke" x="1.280000e+02" y="0"/><rect height="6.122304e+01" vector-effect="non-scaling-stroke" x="1.493333e+02" y="0" width="2.133333e+01"/><rect width="2.133333e+01" height="5.695037e+01" vector-effect="non-scaling-stroke" x="1.706667e+02" y="0"/><rect y="0" width="2.133333e+01" height="396" vector-effect="non-scaling-stroke" x="1.920000e+02"/><rect vector-effect="non-scaling-stroke" x="2.133333e+02" y="0" width="2.133333e+01" height="2.564848e+02"/><rect vector-effect="non-scaling-stroke" x="2.346667e+02" y="0" width="2.133333e+01" height="4.631631e+01"/></g><g transform="translate(80 520 )scale(1 -1 )" fill="hsl(49, 88%, 65%)" stroke="hsl(49, 88%, 65%)" stroke-width="1px" stroke-linecap="round" stroke-linejoin="round"><rect height="4.793338e+01" vector-effect="non-scaling-stroke" x="64" y="0" width="2.133333e+01"/><rect height="4.457696e+01" vector-effect="non-scaling-stroke" x="8.533333e+01" y="0" width="2.133333e+01"/><rect y="0" width="2.133333e+01" height="6.390353e+01" vector-effect="non-scaling-stroke" x="1.066667e+02"/><rect height="5.078907e+01" vector-effect="non-scaling-stroke" x="1.280000e+02" y="0" width="2.133333e+01"/><rect x="1.493333e+02" y="0" width="2.133333e+01" height="4.925139e+01" vector-effect="non-scaling-stroke"/><rect vector-effect="non-scaling-stroke" x="1.706667e+02" y="0" width="2.133333e+01" height="5.406504e+01"/><rect vector-effect="non-scaling-stroke" x="192" y="0" width="2.133333e+01" height="5.577104e+01"/><rect width="2.133333e+01" height="3.867835e+02" vector-effect="non-scaling-stroke" x="2.133333e+02" y="0"/><rect vector-effect="non-scaling-stroke" x="2.346667e+02" y="0" width="2.133333e+01" height="2.487239e+02"/></g><g stroke-linecap="round" font-style="normal" text-anchor="start" fill="hsl(198, 47%, 65%)" stroke="hsl(198, 47%, 65%)" stroke-width="1px" stroke-linejoin="round" font-size="12px" font-weight="normal" dominant-baseline="hanging" font-family="sans-serif"><rect height="12" vector-effect="non-scaling-stroke" x="736" y="484" width="12"/><g fill="black" stroke="black"><text x="752" y="484" dominant-baseline="hanging" stroke="none" vector-effect="non-scaling-stroke">Golang</text></g><g font-family="sans-serif" stroke-linecap="round" font-size="12px" font-style="normal" font-weight="normal" dominant-baseline="hanging" stroke="hsl(49, 88%, 65%)" text-anchor="start" fill="hsl(49, 88%, 65%)" stroke-width="1px" stroke-linejoin="round"><rect height="12" vector-effect="non-scaling-stroke" x="736" y="502" width="12"/><g fill="black" stroke="black"><text dominant-baseline="hanging" stroke="none" vector-effect="non-scaling-stroke" x="752" y="502">Rust</text><g dominant-baseline="hanging" font-style="normal" font-weight="normal" stroke-linejoin="round" text-anchor="start" stroke-width="2px" stroke-linecap="round" fill="none" font-size="12px" font-family="sans-serif"><rect height="440" vector-effect="non-scaling-stroke" x="80" y="80" width="640"/></g><g fill="none" stroke-linejoin="round" text-anchor="start" dominant-baseline="hanging" font-size="12px" transform="translate(80 520 )scale(1 -1 )" stroke-width="2px" font-family="sans-serif" stroke-linecap="round" font-style="normal" font-weight="normal" stroke="black"><path vector-effect="non-scaling-stroke" d="M64,0 L64,-6 M8.533333e+01,0 L8.533333e+01,-6 M1.066667e+02,0 L1.066667e+02,-6 M128,0 L128,-6 M1.493333e+02,0 L1.493333e+02,-6 M1.706667e+02,0 L1.706667e+02,-6 M192,0 L192,-6 M2.133333e+02,0 L2.133333e+02,-6 M2.346667e+02,0 L2.346667e+02,-6 M256,0 L256,-6 "/></g><g font-size="12px" font-style="normal" transform="translate(80 520 )scale(1 1 )" stroke="black" stroke-width="2px" stroke-linejoin="round" font-family="sans-serif" stroke-linecap="round" font-weight="normal" dominant-baseline="hanging" fill="black" text-anchor="middle"><text dominant-baseline="hanging" stroke="none" vector-effect="non-scaling-stroke" x="64" y="10">1</text><text y="10" dominant-baseline="hanging" stroke="none" vector-effect="non-scaling-stroke" x="8.533333e+01">2</text><text stroke="none" vector-effect="non-scaling-stroke" x="1.066667e+02" y="10" dominant-baseline="hanging">3</text><text stroke="none" vector-effect="non-scaling-stroke" x="128" y="10" dominant-baseline="hanging">4</text><text vector-effect="non-scaling-stroke" x="1.493333e+02" y="10" dominant-baseline="hanging" stroke="none">5</text><text x="1.706667e+02" y="10" dominant-baseline="hanging" stroke="none" vector-effect="non-scaling-stroke">6</text><text stroke="none" vector-effect="non-scaling-stroke" x="192" y="10" dominant-baseline="hanging">7</text><text stroke="none" vector-effect="non-scaling-stroke" x="2.133333e+02" y="10" dominant-baseline="hanging">8</text><text vector-effect="non-scaling-stroke" x="2.346667e+02" y="10" dominant-baseline="hanging" stroke="none">9</text><text dominant-baseline="hanging" stroke="none" vector-effect="non-scaling-stroke" x="256" y="10">10</text></g><g stroke="black" stroke-width="2px" font-size="12px" font-style="normal" font-family="sans-serif" text-anchor="middle" dominant-baseline="baseline" fill="black" stroke-linecap="round" font-weight="bold" transform="translate(80 520 )scale(1 1 )rotate(0 0 0 )" stroke-linejoin="round"><text x="320" y="-6" dominant-baseline="baseline" stroke="none" vector-effect="non-scaling-stroke">Day</text></g><g text-anchor="middle" dominant-baseline="baseline" fill="black" stroke="black" font-weight="bold" font-size="12px" font-family="sans-serif" transform="translate(80 520 )scale(1 -1 )" stroke-width="2px" stroke-linecap="round" font-style="normal" stroke-linejoin="round"><path vector-effect="non-scaling-stroke" d="M0,44 L-6,44 M0,9.693209e+01 L-6,9.693209e+01 M0,1.498642e+02 L-6,1.498642e+02 M0,2.027963e+02 L-6,2.027963e+02 M0,2.557284e+02 L-6,2.557284e+02 M0,3.086605e+02 L-6,3.086605e+02 M0,3.615926e+02 L-6,3.615926e+02 "/></g><g stroke-linejoin="round" stroke-linecap="round" font-style="normal" text-anchor="end" dominant-baseline="middle" transform="translate(80 520 )scale(1 1 )" fill="black" stroke="black" font-weight="normal" font-family="sans-serif" stroke-width="2px" font-size="12px"><text stroke="none" vector-effect="non-scaling-stroke" x="-10" y="-44" dominant-baseline="middle">0s</text><text vector-effect="non-scaling-stroke" x="-10" y="-9.693209e+01" dominant-baseline="middle" stroke="none">100µs</text><text stroke="none" vector-effect="non-scaling-stroke" x="-10" y="-1.498642e+02" dominant-baseline="middle">200µs</text><text dominant-baseline="middle" stroke="none" vector-effect="non-scaling-stroke" x="-10" y="-2.027963e+02">300µs</text><text dominant-baseline="middle" stroke="none" vector-effect="non-scaling-stroke" x="-10" y="-2.557284e+02">400µs</text><text x="-10" y="-3.086605e+02" dominant-baseline="middle" stroke="none" vector-effect="non-scaling-stroke">500µs</text><text vector-effect="non-scaling-stroke" x="-10" y="-3.615926e+02" dominant-baseline="middle" stroke="none">600µs</text></g><g stroke-linecap="round" font-weight="bold" stroke="black" stroke-width="2px" stroke-linejoin="round" dominant-baseline="hanging" transform="translate(80 520 )scale(1 1 )rotate(-90 0 0 )" font-size="12px" font-style="normal" fill="black" font-family="sans-serif" text-anchor="middle"><text dominant-baseline="hanging" stroke="none" vector-effect="non-scaling-stroke" x="220" y="6">Runtime</text></g></g></g></g></svg>