<svg preserveAspectRatio="xMidYMid meet" xmlns="http://www.w3.org/2000/svg" width="800" height="600" viewbox="0 0 800 600"><defs><marker refX="5" refY="5" markerUnits="userSpaceOnUse" markerWidth="2%" markerHeight="2%" id="circle" viewBox="0 0 10 10 "><circle fill="none" stroke="black" cx="5" cy="5" r="3"/></marker><marker viewBox="0 0 10 10 " refX="5" refY="5" markerUnits="userSpaceOnUse" markerWidth="2%" markerHeight="2%" id="filled-circle"><circle r="3" fill="black" stroke="none" cx="5" cy="5"/></marker><marker id="square" viewBox="0 0 10 10 " refX="5" refY="5" markerUnits="userSpaceOnUse" markerWidth="2%" markerHeight="2%"><rect stroke="black" x="2" y="2" width="6" height="6" fill="none"/></marker><marker markerHeight="2%" id="filled-square" viewBox="0 0 10 10 " refX="5" refY="5" markerUnits="userSpaceOnUse" markerWidth="2%"><rect stroke="none" x="2" y="2" width="6" height="6" fill="black"/></marker></defs><g stroke-linejoin="round" transform="translate(80 520 )scale(1 -1 )" fill="hsl(198, 47%, 65%)" stroke="hsl(198, 47%, 65%)" stroke-width="1px" stroke-linecap="round"><rect x="4.758974e+01" y="0" width="1.094017e+01" height="4.403144e+01" vector-effect="non-scaling-stroke"/><rect y="0" width="1.094017e+01" height="4.400108e+01" vector-effect="non-scaling-stroke" x="6.892308e+01"/><rect y="0" width="1.094017e+01" height="4.400463e+01" vector-effect="non-scaling-stroke" x="9.025641e+01"/><rect height="4.400595e+01" vector-effect="non-scaling-stroke" x="1.115897e+02" y="0" width="1.094017e+01"/><rect vector-effect="non-scaling-stroke" x="1.329231e+02" y="0" width="1.094017e+01" height="7.476154e+02"/><rect width="1.094017e+01" height="4.400002e+01" vector-effect="non-scaling-stroke" x="1.542564e+02" y="0"/><rect x="1.755897e+02" y="0" width="1.094017e+01" height="4.406521e+01" vector-effect="non-scaling-stroke"/><rect x="1.969231e+02" y="0" width="1.094017e+01" height="4.417180e+01" vector-effect="non-scaling-stroke"/><rect vector-effect="non-scaling-stroke" x="2.182564e+02" y="0" width="1.094017e+01" height="4.401536e+01"/><rect x="2.395897e+02" y="0" width="1.094017e+01" height="4.420467e+01" vector-effect="non-scaling-stroke"/><rect width="1.094017e+01" height="4.404712e+01" vector-effect="non-scaling-stroke" x="2.609231e+02" y="0"/><rect width="1.094017e+01" height="1.126090e+02" vector-effect="non-scaling-stroke" x="2.822564e+02" y="0"/><rect width="1.094017e+01" height="4.401956e+01" vector-effect="non-scaling-stroke" x="3.035897e+02" y="0"/></g><g stroke="hsl(49, 88%, 65%)" stroke-width="1px" stroke-linecap="round" stroke-linejoin="round" transform="translate(80 520 )scale(1 -1 )" fill="hsl(49, 88%, 65%)"><rect y="0" width="1.094017e+01" height="4.401633e+01" vector-effect="non-scaling-stroke" x="5.852991e+01"/><rect vector-effect="non-scaling-stroke" x="7.986325e+01" y="0" width="1.094017e+01" height="4.400042e+01"/><rect vector-effect="non-scaling-stroke" x="1.011966e+02" y="0" width="1.094017e+01" height="4.400305e+01"/><rect vector-effect="non-scaling-stroke" x="1.225299e+02" y="0" width="1.094017e+01" height="4.400333e+01"/><rect y="0" width="1.094017e+01" height="4.400195e+01" vector-effect="non-scaling-stroke" x="1.438632e+02"/><rect y="0" width="1.094017e+01" height="4.400002e+01" vector-effect="non-scaling-stroke" x="1.651966e+02"/><rect vector-effect="non-scaling-stroke" x="2.078632e+02" y="0" width="1.094017e+01" height="4.449101e+01"/><rect x="2.291966e+02" y="0" width="1.094017e+01" height="4.400863e+01" vector-effect="non-scaling-stroke"/><rect height="4.401508e+01" vector-effect="non-scaling-stroke" x="2.505299e+02" y="0" width="1.094017e+01"/><rect x="2.718632e+02" y="0" width="1.094017e+01" height="4.404344e+01" vector-effect="non-scaling-stroke"/></g><g stroke="hsl(260, 76%, 65%)" stroke-width="1px" stroke-linecap="round" stroke-linejoin="round" transform="translate(80 520 )scale(1 -1 )" fill="hsl(260, 76%, 65%)"><rect y="0" width="1.094017e+01" height="4.401305e+01" vector-effect="non-scaling-stroke" x="6.947009e+01"/><rect vector-effect="non-scaling-stroke" x="9.080342e+01" y="0" width="1.094017e+01" height="4.400046e+01"/><rect vector-effect="non-scaling-stroke" x="1.121368e+02" y="0" width="1.094017e+01" height="4.400242e+01"/><rect height="4.400927e+01" vector-effect="non-scaling-stroke" x="1.334701e+02" y="0" width="1.094017e+01"/><rect y="0" width="1.094017e+01" height="4.434314e+01" vector-effect="non-scaling-stroke" x="1.548034e+02"/><rect vector-effect="non-scaling-stroke" x="1.761368e+02" y="0" width="1.094017e+01" height="4.400002e+01"/><rect vector-effect="non-scaling-stroke" x="1.974701e+02" y="0" width="1.094017e+01" height="4.400763e+01"/><rect vector-effect="non-scaling-stroke" x="2.188034e+02" y="0" width="1.094017e+01" height="4.403874e+01"/><rect x="2.401368e+02" y="0" width="1.094017e+01" height="4.400906e+01" vector-effect="non-scaling-stroke"/><rect vector-effect="non-scaling-stroke" x="2.614701e+02" y="0" width="1.094017e+01" height="4.401466e+01"/><rect height="4.739095e+01" vector-effect="non-scaling-stroke" x="2.828034e+02" y="0" width="1.094017e+01"/></g><g stroke-linecap="round" font-weight="normal" stroke-width="1px" stroke="hsl(198, 47%, 65%)" text-anchor="start" dominant-baseline="hanging" fill="hsl(198, 47%, 65%)" stroke-linejoin="round" font-family="sans-serif" font-size="12px" font-style="normal"><rect x="736" y="466" width="12" height="12" vector-effect="non-scaling-stroke"/><g fill="black" stroke="black"><text stroke="none" vector-effect="non-scaling-stroke" x="752" y="466" dominant-baseline="hanging">Golang</text></g><g font-family="sans-serif" font-weight="normal" text-anchor="start" fill="hsl(49, 88%, 65%)" font-style="normal" stroke-width="1px" font-size="12px" stroke-linecap="round" stroke="hsl(49, 88%, 65%)" stroke-linejoin="round" dominant-baseline="hanging"><rect width="12" height="12" vector-effect="non-scaling-stroke" x="736" y="484"/><g stroke="black" fill="black"><text vector-effect="non-scaling-stroke" x="752" y="484" dominant-baseline="hanging" stroke="none">Rust</text></g><g text-anchor="start" dominant-baseline="hanging" fill="hsl(260, 76%, 65%)" font-size="12px" stroke="hsl(260, 76%, 65%)" stroke-linejoin="round" font-family="sans-serif" font-weight="normal" font-style="normal" stroke-width="1px" stroke-linecap="round"><rect vector-effect="non-scaling-stroke" x="736" y="502" width="12" height="12"/><g stroke="black" fill="black"><text stroke="none" vector-effect="non-scaling-stroke" x="752" y="502" dominant-baseline="hanging">Zig</text><g stroke-linecap="round" fill="none" stroke-width="2px" font-size="12px" stroke-linejoin="round" font-style="normal" dominant-baseline="hanging" font-family="sans-serif" font-weight="normal" text-anchor="start"><rect height="440" vector-effect="non-scaling-stroke" x="80" y="80" width="640"/></g><g fill="none" stroke-linecap="round" stroke-linejoin="round" transform="translate(80 520 )scale(1 -1 )" font-size="12px" font-style="normal" dominant-baseline="hanging" stroke="black" font-family="sans-serif" font-weight="normal" stroke-width="2px" text-anchor="start"><path vector-effect="non-scaling-stroke" d="M64,0 L64,-6 M8.533333e+01,0 L8.533333e+01,-6 M1.066667e+02,0 L1.066667e+02,-6 M128,0 L128,-6 M1.493333e+02,0 L1.493333e+02,-6 M1.706667e+02,0 L1.706667e+02,-6 M192,0 L192,-6 M2.133333e+02,0 L2.133333e+02,-6 M2.346667e+02,0 L2.346667e+02,-6 M256,0 L256,-6 M2.773333e+02,0 L2.773333e+02,-6 M2.986667e+02,0 L2.986667e+02,-6 M320,0 L320,-6 "/></g><g text-anchor="middle" dominant-baseline="hanging" fill="black" stroke-width="2px" font-style="normal" font-weight="normal" stroke="black" stroke-linecap="round" stroke-linejoin="round" font-family="sans-serif" transform="translate(80 520 )scale(1 1 )" font-size="12px"><text stroke="none" vector-effect="non-scaling-stroke" x="64" y="10" dominant-baseline="hanging">1</text><text stroke="none" vector-effect="non-scaling-stroke" x="8.533333e+01" y="10" dominant-baseline="hanging">2</text><text dominant-baseline="hanging" stroke="none" vector-effect="non-scaling-stroke" x="1.066667e+02" y="10">3</text><text stroke="none" vector-effect="non-scaling-stroke" x="128" y="10" dominant-baseline="hanging">4</text><text dominant-baseline="hanging" stroke="none" vector-effect="non-scaling-stroke" x="1.493333e+02" y="10">5</text><text stroke="none" vector-effect="non-scaling-stroke" x="1.706667e+02" y="10" dominant-baseline="hanging">6</text><text stroke="none" vector-effect="non-scaling-stroke" x="192" y="10" dominant-baseline="hanging">7</text><text y="10" dominant-baseline="hanging" stroke="none" vector-effect="non-scaling-stroke" x="2.133333e+02">8</text><text x="2.346667e+02" y="10" dominant-baseline="hanging" stroke="none" vector-effect="non-scaling-stroke">9</text><text stroke="none" vector-effect="non-scaling-stroke" x="256" y="10" dominant-baseline="hanging">10</text><text dominant-baseline="hanging" stroke="none" vector-effect="non-scaling-stroke" x="2.773333e+02" y="10">11</text><text stroke="none" vector-effect="non-scaling-stroke" x="2.986667e+02" y="10" dominant-baseline="hanging">12</text><text vector-effect="non-scaling-stroke" x="320" y="10" dominant-baseline="hanging" stroke="none">13</text></g><g font-weight="bold" stroke-linecap="round" stroke-linejoin="round" font-family="sans-serif" transform="translate(80 520 )scale(1 1 )rotate(0 0 0 )" stroke-width="2px" font-style="normal" text-anchor="middle" dominant-baseline="baseline" fill="black" stroke="black" font-size="12px"><text y="-6" dominant-baseline="baseline" stroke="none" vector-effect="non-scaling-stroke" x="320">Day</text></g><g font-size="12px" font-family="sans-serif" dominant-baseline="baseline" stroke-linecap="round" transform="translate(80 520 )scale(1 -1 )" stroke-linejoin="round" stroke-width="2px" font-style="normal" font-weight="bold" text-anchor="middle" fill="black" stroke="black"><path vector-effect="non-scaling-stroke" d="M0,44 L-6,44 M0,7.920000e+01 L-6,7.920000e+01 M0,1.144000e+02 L-6,1.144000e+02 M0,1.496000e+02 L-6,1.496000e+02 M0,1.848000e+02 L-6,1.848000e+02 M0,220 L-6,220 M0,2.552000e+02 L-6,2.552000e+02 M0,2.904000e+02 L-6,2.904000e+02 M0,3.256000e+02 L-6,3.256000e+02 M0,3.608000e+02 L-6,3.608000e+02 M0,396 L-6,396 "/></g><g stroke-linejoin="round" font-family="sans-serif" text-anchor="end" dominant-baseline="middle" transform="translate(80 520 )scale(1 1 )" stroke-width="2px" fill="black" stroke-linecap="round" font-size="12px" font-style="normal" stroke="black" font-weight="normal"><text stroke="none" vector-effect="non-scaling-stroke" x="-10" y="-44" dominant-baseline="middle">0s</text><text y="-7.920000e+01" dominant-baseline="middle" stroke="none" vector-effect="non-scaling-stroke" x="-10">200ms</text><text x="-10" y="-1.144000e+02" dominant-baseline="middle" stroke="none" vector-effect="non-scaling-stroke">400ms</text><text vector-effect="non-scaling-stroke" x="-10" y="-1.496000e+02" dominant-baseline="middle" stroke="none">600ms</text><text dominant-baseline="middle" stroke="none" vector-effect="non-scaling-stroke" x="-10" y="-1.848000e+02">800ms</text><text stroke="none" vector-effect="non-scaling-stroke" x="-10" y="-220" dominant-baseline="middle">1s</text><text vector-effect="non-scaling-stroke" x="-10" y="-2.552000e+02" dominant-baseline="middle" stroke="none">1.2s</text><text vector-effect="non-scaling-stroke" x="-10" y="-2.904000e+02" dominant-baseline="middle" stroke="none">1.4s</text><text vector-effect="non-scaling-stroke" x="-10" y="-3.256000e+02" dominant-baseline="middle" stroke="none">1.6s</text><text vector-effect="non-scaling-stroke" x="-10" y="-3.608000e+02" dominant-baseline="middle" stroke="none">1.8s</text><text y="-396" dominant-baseline="middle" stroke="none" vector-effect="non-scaling-stroke" x="-10">2s</text></g><g font-style="normal" stroke="black" font-family="sans-serif" font-weight="bold" text-anchor="middle" transform="translate(80 520 )scale(1 1 )rotate(-90 0 0 )" font-size="12px" dominant-baseline="hanging" fill="black" stroke-linecap="round" stroke-linejoin="round" stroke-width="2px"><text stroke="none" vector-effect="non-scaling-stroke" x="220" y="6" dominant-baseline="hanging">Runtime</text></g></g></g></g></g></svg>