<svg height="600" viewbox="0 0 800 600" preserveAspectRatio="xMidYMid meet" xmlns="http://www.w3.org/2000/svg" width="800"><defs><marker markerUnits="userSpaceOnUse" markerWidth="2%" markerHeight="2%" id="circle" viewBox="0 0 10 10 " refX="5" refY="5"><circle stroke="black" cx="5" cy="5" r="3" fill="none"/></marker><marker refY="5" markerUnits="userSpaceOnUse" markerWidth="2%" markerHeight="2%" id="filled-circle" viewBox="0 0 10 10 " refX="5"><circle cx="5" cy="5" r="3" fill="black" stroke="none"/></marker><marker markerHeight="2%" id="square" viewBox="0 0 10 10 " refX="5" refY="5" markerUnits="userSpaceOnUse" markerWidth="2%"><rect height="6" fill="none" stroke="black" x="2" y="2" width="6"/></marker><marker viewBox="0 0 10 10 " refX="5" refY="5" markerUnits="userSpaceOnUse" markerWidth="2%" markerHeight="2%" id="filled-square"><rect fill="black" stroke="none" x="2" y="2" width="6" height="6"/></marker></defs><g transform="translate(80 520 )scale(1 -1 )" fill="hsl(198, 47%, 65%)" stroke="hsl(198, 47%, 65%)" stroke-width="1px" stroke-linecap="round" stroke-linejoin="round"><rect width="1.094017e+01" height="4.416107e+01" vector-effect="non-scaling-stroke" x="4.758974e+01" y="0"/><rect y="0" width="1.094017e+01" height="4.400552e+01" vector-effect="non-scaling-stroke" x="6.892308e+01"/><rect height="4.402370e+01" vector-effect="non-scaling-stroke" x="9.025641e+01" y="0" width="1.094017e+01"/><rect y="0" width="1.094017e+01" height="4.403046e+01" vector-effect="non-scaling-stroke" x="1.115897e+02"/><rect height="4.404900e+01" vector-effect="non-scaling-stroke" x="1.329231e+02" y="0" width="1.094017e+01"/><rect y="0" width="1.094017e+01" height="4.400013e+01" vector-effect="non-scaling-stroke" x="1.542564e+02"/><rect vector-effect="non-scaling-stroke" x="1.755897e+02" y="0" width="1.094017e+01" height="4.433411e+01"/><rect width="1.094017e+01" height="4.488021e+01" vector-effect="non-scaling-stroke" x="1.969231e+02" y="0"/><rect vector-effect="non-scaling-stroke" x="2.182564e+02" y="0" width="1.094017e+01" height="4.407871e+01"/><rect vector-effect="non-scaling-stroke" x="2.395897e+02" y="0" width="1.094017e+01" height="4.504864e+01"/><rect vector-effect="non-scaling-stroke" x="2.609231e+02" y="0" width="1.094017e+01" height="4.424140e+01"/><rect vector-effect="non-scaling-stroke" x="2.822564e+02" y="0" width="1.094017e+01" height="396"/><rect x="3.035897e+02" y="0" width="1.094017e+01" height="4.410024e+01" vector-effect="non-scaling-stroke"/></g><g stroke-linejoin="round" transform="translate(80 520 )scale(1 -1 )" fill="hsl(49, 88%, 65%)" stroke="hsl(49, 88%, 65%)" stroke-width="1px" stroke-linecap="round"><rect vector-effect="non-scaling-stroke" x="5.852991e+01" y="0" width="1.094017e+01" height="4.408368e+01"/><rect y="0" width="1.094017e+01" height="4.400216e+01" vector-effect="non-scaling-stroke" x="7.986325e+01"/><rect vector-effect="non-scaling-stroke" x="1.011966e+02" y="0" width="1.094017e+01" height="4.401564e+01"/><rect height="4.401708e+01" vector-effect="non-scaling-stroke" x="1.225299e+02" y="0" width="1.094017e+01"/><rect height="4.400997e+01" vector-effect="non-scaling-stroke" x="1.438632e+02" y="0" width="1.094017e+01"/><rect y="0" width="1.094017e+01" height="4.400009e+01" vector-effect="non-scaling-stroke" x="1.651966e+02"/><rect vector-effect="non-scaling-stroke" x="2.078632e+02" y="0" width="1.094017e+01" height="4.651565e+01"/><rect height="4.404421e+01" vector-effect="non-scaling-stroke" x="2.291966e+02" y="0" width="1.094017e+01"/><rect height="4.407725e+01" vector-effect="non-scaling-stroke" x="2.505299e+02" y="0" width="1.094017e+01"/><rect vector-effect="non-scaling-stroke" x="2.718632e+02" y="0" width="1.094017e+01" height="4.422258e+01"/><rect height="4.404709e+01" vector-effect="non-scaling-stroke" x="3.145299e+02" y="0" width="1.094017e+01"/></g><g stroke-linejoin="round" transform="translate(80 520 )scale(1 -1 )" fill="hsl(260, 76%, 65%)" stroke="hsl(260, 76%, 65%)" stroke-width="1px" stroke-linecap="round"><rect vector-effect="non-scaling-stroke" x="6.947009e+01" y="0" width="1.094017e+01" height="4.406687e+01"/><rect vector-effect="non-scaling-stroke" x="9.080342e+01" y="0" width="1.094017e+01" height="4.400234e+01"/><rect vector-effect="non-scaling-stroke" x="1.121368e+02" y="0" width="1.094017e+01" height="4.401242e+01"/><rect width="1.094017e+01" height="4.404748e+01" vector-effect="non-scaling-stroke" x="1.334701e+02" y="0"/><rect vector-effect="non-scaling-stroke" x="1.548034e+02" y="0" width="1.094017e+01" height="4.575806e+01"/><rect height="4.400008e+01" vector-effect="non-scaling-stroke" x="1.761368e+02" y="0" width="1.094017e+01"/><rect vector-effect="non-scaling-stroke" x="1.974701e+02" y="0" width="1.094017e+01" height="4.403908e+01"/><rect width="1.094017e+01" height="4.419846e+01" vector-effect="non-scaling-stroke" x="2.188034e+02" y="0"/><rect vector-effect="non-scaling-stroke" x="2.401368e+02" y="0" width="1.094017e+01" height="4.404643e+01"/><rect vector-effect="non-scaling-stroke" x="2.614701e+02" y="0" width="1.094017e+01" height="4.407512e+01"/><rect height="6.137333e+01" vector-effect="non-scaling-stroke" x="2.828034e+02" y="0" width="1.094017e+01"/></g><g stroke-linejoin="round" dominant-baseline="hanging" stroke-linecap="round" font-weight="normal" text-anchor="start" fill="hsl(198, 47%, 65%)" stroke="hsl(198, 47%, 65%)" stroke-width="1px" font-family="sans-serif" font-size="12px" font-style="normal"><rect width="12" height="12" vector-effect="non-scaling-stroke" x="736" y="466"/><g stroke="black" fill="black"><text y="466" dominant-baseline="hanging" stroke="none" vector-effect="non-scaling-stroke" x="752">Golang</text></g><g fill="hsl(49, 88%, 65%)" stroke="hsl(49, 88%, 65%)" text-anchor="start" dominant-baseline="hanging" stroke-linecap="round" font-size="12px" font-family="sans-serif" font-style="normal" font-weight="normal" stroke-width="1px" stroke-linejoin="round"><rect height="12" vector-effect="non-scaling-stroke" x="736" y="484" width="12"/><g stroke="black" fill="black"><text x="752" y="484" dominant-baseline="hanging" stroke="none" vector-effect="non-scaling-stroke">Rust</text></g><g font-weight="normal" text-anchor="start" stroke="hsl(260, 76%, 65%)" stroke-width="1px" font-family="sans-serif" stroke-linecap="round" dominant-baseline="hanging" fill="hsl(260, 76%, 65%)" stroke-linejoin="round" font-size="12px" font-style="normal"><rect vector-effect="non-scaling-stroke" x="736" y="502" width="12" height="12"/><g stroke="black" fill="black"><text stroke="none" vector-effect="non-scaling-stroke" x="752" y="502" dominant-baseline="hanging">Zig</text><g font-style="normal" dominant-baseline="hanging" stroke-width="2px" stroke-linecap="round" font-size="12px" stroke-linejoin="round" font-family="sans-serif" font-weight="normal" text-anchor="start" fill="none"><rect vector-effect="non-scaling-stroke" x="80" y="80" width="640" height="440"/></g><g stroke-linecap="round" font-weight="normal" text-anchor="start" transform="translate(80 520 )scale(1 -1 )" fill="none" stroke="black" stroke-width="2px" stroke-linejoin="round" font-family="sans-serif" font-size="12px" font-style="normal" dominant-baseline="hanging"><path vector-effect="non-scaling-stroke" d="M64,0 L64,-6 M8.533333e+01,0 L8.533333e+01,-6 M1.066667e+02,0 L1.066667e+02,-6 M128,0 L128,-6 M1.493333e+02,0 L1.493333e+02,-6 M1.706667e+02,0 L1.706667e+02,-6 M192,0 L192,-6 M2.133333e+02,0 L2.133333e+02,-6 M2.346667e+02,0 L2.346667e+02,-6 M256,0 L256,-6 M2.773333e+02,0 L2.773333e+02,-6 M2.986667e+02,0 L2.986667e+02,-6 M320,0 L320,-6 "/></g><g stroke-linecap="round" stroke-linejoin="round" font-family="sans-serif" dominant-baseline="hanging" font-style="normal" font-weight="normal" text-anchor="middle" transform="translate(80 520 )scale(1 1 )" font-size="12px" stroke-width="2px" fill="black" stroke="black"><text y="10" dominant-baseline="hanging" stroke="none" vector-effect="non-scaling-stroke" x="64">1</text><text x="8.533333e+01" y="10" dominant-baseline="hanging" stroke="none" vector-effect="non-scaling-stroke">2</text><text y="10" dominant-baseline="hanging" stroke="none" vector-effect="non-scaling-stroke" x="1.066667e+02">3</text><text vector-effect="non-scaling-stroke" x="128" y="10" dominant-baseline="hanging" stroke="none">4</text><text stroke="none" vector-effect="non-scaling-stroke" x="1.493333e+02" y="10" dominant-baseline="hanging">5</text><text x="1.706667e+02" y="10" dominant-baseline="hanging" stroke="none" vector-effect="non-scaling-stroke">6</text><text x="192" y="10" dominant-baseline="hanging" stroke="none" vector-effect="non-scaling-stroke">7</text><text dominant-baseline="hanging" stroke="none" vector-effect="non-scaling-stroke" x="2.133333e+02" y="10">8</text><text x="2.346667e+02" y="10" dominant-baseline="hanging" stroke="none" vector-effect="non-scaling-stroke">9</text><text x="256" y="10" dominant-baseline="hanging" stroke="none" vector-effect="non-scaling-stroke">10</text><text x="2.773333e+02" y="10" dominant-baseline="hanging" stroke="none" vector-effect="non-scaling-stroke">11</text><text vector-effect="non-scaling-stroke" x="2.986667e+02" y="10" dominant-baseline="hanging" stroke="none">12</text><text stroke="none" vector-effect="non-scaling-stroke" x="320" y="10" dominant-baseline="hanging">13</text></g><g stroke="black" stroke-width="2px" stroke-linecap="round" font-style="normal" font-weight="bold" text-anchor="middle" fill="black" stroke-linejoin="round" font-family="sans-serif" transform="translate(80 520 )scale(1 1 )rotate(0 0 0 )" font-size="12px" dominant-baseline="baseline"><text dominant-baseline="baseline" stroke="none" vector-effect="non-scaling-stroke" x="320" y="-6">Day</text></g><g font-family="sans-serif" stroke="black" text-anchor="middle" dominant-baseline="baseline" font-size="12px" font-weight="bold" fill="black" stroke-width="2px" stroke-linejoin="round" transform="translate(80 520 )scale(1 -1 )" stroke-linecap="round" font-style="normal"><path d="M0,44 L-6,44 M0,1.341724e+02 L-6,1.341724e+02 M0,2.243448e+02 L-6,2.243448e+02 M0,3.145172e+02 L-6,3.145172e+02 " vector-effect="non-scaling-stroke"/></g><g stroke-width="2px" stroke="black" font-weight="normal" dominant-baseline="middle" transform="translate(80 520 )scale(1 1 )" font-size="12px" stroke-linejoin="round" font-family="sans-serif" fill="black" font-style="normal" text-anchor="end" stroke-linecap="round"><text stroke="none" vector-effect="non-scaling-stroke" x="-10" y="-44" dominant-baseline="middle">0s</text><text y="-1.341724e+02" dominant-baseline="middle" stroke="none" vector-effect="non-scaling-stroke" x="-10">100ms</text><text vector-effect="non-scaling-stroke" x="-10" y="-2.243448e+02" dominant-baseline="middle" stroke="none">200ms</text><text stroke="none" vector-effect="non-scaling-stroke" x="-10" y="-3.145172e+02" dominant-baseline="middle">300ms</text></g><g stroke="black" stroke-width="2px" font-family="sans-serif" transform="translate(80 520 )scale(1 1 )rotate(-90 0 0 )" font-size="12px" font-style="normal" font-weight="bold" text-anchor="middle" fill="black" stroke-linejoin="round" dominant-baseline="hanging" stroke-linecap="round"><text vector-effect="non-scaling-stroke" x="220" y="6" dominant-baseline="hanging" stroke="none">Runtime</text></g></g></g></g></g></svg>