<svg width="800" height="600" viewbox="0 0 800 600" preserveAspectRatio="xMidYMid meet" xmlns="http://www.w3.org/2000/svg"><defs><marker viewBox="0 0 10 10 " refX="5" refY="5" markerUnits="userSpaceOnUse" markerWidth="2%" markerHeight="2%" id="circle"><circle stroke="black" cx="5" cy="5" r="3" fill="none"/></marker><marker markerWidth="2%" markerHeight="2%" id="filled-circle" viewBox="0 0 10 10 " refX="5" refY="5" markerUnits="userSpaceOnUse"><circle cx="5" cy="5" r="3" fill="black" stroke="none"/></marker><marker refY="5" markerUnits="userSpaceOnUse" markerWidth="2%" markerHeight="2%" id="square" viewBox="0 0 10 10 " refX="5"><rect width="6" height="6" fill="none" stroke="black" x="2" y="2"/></marker><marker refX="5" refY="5" markerUnits="userSpaceOnUse" markerWidth="2%" markerHeight="2%" id="filled-square" viewBox="0 0 10 10 "><rect x="2" y="2" width="6" height="6" fill="black" stroke="none"/></marker></defs><g stroke-width="1px" stroke-linecap="round" stroke-linejoin="round" transform="translate(80 520 )scale(1 -1 )" fill="hsl(198, 47%, 65%)" stroke="hsl(198, 47%, 65%)"><rect vector-effect="non-scaling-stroke" x="3.733333e+01" y="0" width="2.666667e+01" height="4.426328e+01"/><rect height="4.423326e+01" vector-effect="non-scaling-stroke" x="5.866667e+01" y="0" width="2.666667e+01"/><rect y="0" width="2.666667e+01" height="4.414482e+01" vector-effect="non-scaling-stroke" x="80"/><rect height="4.533401e+01" vector-effect="non-scaling-stroke" x="1.013333e+02" y="0" width="2.666667e+01"/><rect vector-effect="non-scaling-stroke" x="1.226667e+02" y="0" width="2.666667e+01" height="4.414970e+01"/><rect height="396" vector-effect="non-scaling-stroke" x="144" y="0" width="2.666667e+01"/><rect vector-effect="non-scaling-stroke" x="1.653333e+02" y="0" width="2.666667e+01" height="1.265206e+02"/><rect height="4.411129e+01" vector-effect="non-scaling-stroke" x="1.866667e+02" y="0" width="2.666667e+01"/></g><g stroke-width="1px" stroke-linecap="round" stroke-linejoin="round" transform="translate(80 520 )scale(1 -1 )" fill="hsl(49, 88%, 65%)" stroke="hsl(49, 88%, 65%)"><rect width="2.666667e+01" height="4.423630e+01" vector-effect="non-scaling-stroke" x="6.400000e+01" y="0"/><rect width="2.666667e+01" height="4.420182e+01" vector-effect="non-scaling-stroke" x="8.533333e+01" y="0"/><rect x="1.066667e+02" y="0" width="2.666667e+01" height="4.403944e+01" vector-effect="non-scaling-stroke"/><rect vector-effect="non-scaling-stroke" x="128" y="0" width="2.666667e+01" height="4.622662e+01"/><rect x="1.493333e+02" y="0" width="2.666667e+01" height="4.410670e+01" vector-effect="non-scaling-stroke"/><rect y="0" width="2.666667e+01" height="2.968756e+02" vector-effect="non-scaling-stroke" x="1.706667e+02"/><rect height="1.275011e+02" vector-effect="non-scaling-stroke" x="192" y="0" width="2.666667e+01"/><rect x="2.133333e+02" y="0" width="2.666667e+01" height="4.401859e+01" vector-effect="non-scaling-stroke"/></g><g dominant-baseline="hanging" fill="hsl(198, 47%, 65%)" stroke-linecap="round" font-style="normal" stroke-linejoin="round" font-family="sans-serif" font-size="12px" text-anchor="start" stroke="hsl(198, 47%, 65%)" stroke-width="1px" font-weight="normal"><rect y="484" width="12" height="12" vector-effect="non-scaling-stroke" x="736"/><g fill="black" stroke="black"><text stroke="none" vector-effect="non-scaling-stroke" x="752" y="484" dominant-baseline="hanging">Golang</text></g><g stroke-linejoin="round" font-family="sans-serif" font-style="normal" stroke="hsl(49, 88%, 65%)" stroke-width="1px" font-weight="normal" text-anchor="start" fill="hsl(49, 88%, 65%)" font-size="12px" dominant-baseline="hanging" stroke-linecap="round"><rect x="736" y="502" width="12" height="12" vector-effect="non-scaling-stroke"/><g stroke="black" fill="black"><text stroke="none" vector-effect="non-scaling-stroke" x="752" y="502" dominant-baseline="hanging">Rust</text><g stroke-width="2px" stroke-linejoin="round" dominant-baseline="hanging" font-weight="normal" font-family="sans-serif" font-size="12px" stroke-linecap="round" font-style="normal" text-anchor="start" fill="none"><rect vector-effect="non-scaling-stroke" x="80" y="80" width="640" height="440"/></g><g font-family="sans-serif" stroke="black" stroke-linecap="round" font-weight="normal" text-anchor="start" transform="translate(80 520 )scale(1 -1 )" fill="none" stroke-linejoin="round" font-size="12px" stroke-width="2px" dominant-baseline="hanging" font-style="normal"><path vector-effect="non-scaling-stroke" d="M64,0 L64,-6 M8.533333e+01,0 L8.533333e+01,-6 M1.066667e+02,0 L1.066667e+02,-6 M128,0 L128,-6 M1.493333e+02,0 L1.493333e+02,-6 M1.706667e+02,0 L1.706667e+02,-6 M192,0 L192,-6 M2.133333e+02,0 L2.133333e+02,-6 "/></g><g fill="black" stroke="black" font-weight="normal" stroke-linecap="round" text-anchor="middle" stroke-linejoin="round" font-family="sans-serif" font-size="12px" font-style="normal" dominant-baseline="hanging" stroke-width="2px" transform="translate(80 520 )scale(1 1 )"><text dominant-baseline="hanging" stroke="none" vector-effect="non-scaling-stroke" x="64" y="10">1</text><text stroke="none" vector-effect="non-scaling-stroke" x="8.533333e+01" y="10" dominant-baseline="hanging">2</text><text y="10" dominant-baseline="hanging" stroke="none" vector-effect="non-scaling-stroke" x="1.066667e+02">3</text><text stroke="none" vector-effect="non-scaling-stroke" x="128" y="10" dominant-baseline="hanging">4</text><text x="1.493333e+02" y="10" dominant-baseline="hanging" stroke="none" vector-effect="non-scaling-stroke">5</text><text dominant-baseline="hanging" stroke="none" vector-effect="non-scaling-stroke" x="1.706667e+02" y="10">6</text><text stroke="none" vector-effect="non-scaling-stroke" x="192" y="10" dominant-baseline="hanging">7</text><text y="10" dominant-baseline="hanging" stroke="none" vector-effect="non-scaling-stroke" x="2.133333e+02">8</text></g><g stroke="black" stroke-width="2px" dominant-baseline="baseline" stroke-linejoin="round" font-weight="bold" text-anchor="middle" transform="translate(80 520 )scale(1 1 )rotate(0 0 0 )" font-family="sans-serif" font-size="12px" font-style="normal" fill="black" stroke-linecap="round"><text y="-6" dominant-baseline="baseline" stroke="none" vector-effect="non-scaling-stroke" x="320">Day</text></g><g font-weight="bold" font-style="normal" dominant-baseline="baseline" fill="black" text-anchor="middle" stroke-width="2px" stroke-linecap="round" stroke-linejoin="round" font-family="sans-serif" font-size="12px" transform="translate(80 520 )scale(1 -1 )" stroke="black"><path vector-effect="non-scaling-stroke" d="M0,44 L-6,44 M0,9.307912e+01 L-6,9.307912e+01 M0,1.421582e+02 L-6,1.421582e+02 M0,1.912374e+02 L-6,1.912374e+02 M0,2.403165e+02 L-6,2.403165e+02 M0,2.893956e+02 L-6,2.893956e+02 M0,3.384747e+02 L-6,3.384747e+02 M0,3.875538e+02 L-6,3.875538e+02 "/></g><g text-anchor="end" font-family="sans-serif" font-size="12px" font-style="normal" stroke="black" stroke-width="2px" font-weight="normal" fill="black" stroke-linejoin="round" dominant-baseline="middle" stroke-linecap="round" transform="translate(80 520 )scale(1 1 )"><text y="-44" dominant-baseline="middle" stroke="none" vector-effect="non-scaling-stroke" x="-10">0s</text><text x="-10" y="-9.307912e+01" dominant-baseline="middle" stroke="none" vector-effect="non-scaling-stroke">10ms</text><text y="-1.421582e+02" dominant-baseline="middle" stroke="none" vector-effect="non-scaling-stroke" x="-10">20ms</text><text stroke="none" vector-effect="non-scaling-stroke" x="-10" y="-1.912374e+02" dominant-baseline="middle">30ms</text><text x="-10" y="-2.403165e+02" dominant-baseline="middle" stroke="none" vector-effect="non-scaling-stroke">40ms</text><text stroke="none" vector-effect="non-scaling-stroke" x="-10" y="-2.893956e+02" dominant-baseline="middle">50ms</text><text stroke="none" vector-effect="non-scaling-stroke" x="-10" y="-3.384747e+02" dominant-baseline="middle">60ms</text><text x="-10" y="-3.875538e+02" dominant-baseline="middle" stroke="none" vector-effect="non-scaling-stroke">70ms</text></g><g font-family="sans-serif" font-style="normal" transform="translate(80 520 )scale(1 1 )rotate(-90 0 0 )" stroke="black" stroke-linecap="round" text-anchor="middle" fill="black" stroke-linejoin="round" stroke-width="2px" font-weight="bold" dominant-baseline="hanging" font-size="12px"><text stroke="none" vector-effect="non-scaling-stroke" x="220" y="6" dominant-baseline="hanging">Runtime</text></g></g></g></g></svg>