<svg width="800" height="600" viewbox="0 0 800 600" preserveAspectRatio="xMidYMid meet" xmlns="http://www.w3.org/2000/svg"><defs><marker refY="5" markerUnits="userSpaceOnUse" markerWidth="2%" markerHeight="2%" id="circle" viewBox="0 0 10 10 " refX="5"><circle stroke="black" cx="5" cy="5" r="3" fill="none"/></marker><marker refX="5" refY="5" markerUnits="userSpaceOnUse" markerWidth="2%" markerHeight="2%" id="filled-circle" viewBox="0 0 10 10 "><circle r="3" fill="black" stroke="none" cx="5" cy="5"/></marker><marker refX="5" refY="5" markerUnits="userSpaceOnUse" markerWidth="2%" markerHeight="2%" id="square" viewBox="0 0 10 10 "><rect x="2" y="2" width="6" height="6" fill="none" stroke="black"/></marker><marker refX="5" refY="5" markerUnits="userSpaceOnUse" markerWidth="2%" markerHeight="2%" id="filled-square" viewBox="0 0 10 10 "><rect fill="black" stroke="none" x="2" y="2" width="6" height="6"/></marker></defs><g transform="translate(80 520 )scale(1 -1 )" fill="hsl(198, 47%, 65%)" stroke="hsl(198, 47%, 65%)" stroke-width="1px" stroke-linecap="round" stroke-linejoin="round"><rect vector-effect="non-scaling-stroke" x="4.977778e+01" y="0" width="1.422222e+01" height="4.401911e+01"/><rect vector-effect="non-scaling-stroke" x="7.111111e+01" y="0" width="1.422222e+01" height="4.400528e+01"/><rect height="4.405795e+01" vector-effect="non-scaling-stroke" x="9.244444e+01" y="0" width="1.422222e+01"/><rect width="1.422222e+01" height="4.402339e+01" vector-effect="non-scaling-stroke" x="1.137778e+02" y="0"/><rect height="4.401420e+01" vector-effect="non-scaling-stroke" x="1.351111e+02" y="0" width="1.422222e+01"/><rect width="1.422222e+01" height="4.403723e+01" vector-effect="non-scaling-stroke" x="1.564444e+02" y="0"/><rect y="0" width="1.422222e+01" height="4.402875e+01" vector-effect="non-scaling-stroke" x="1.777778e+02"/><rect width="1.422222e+01" height="4.477701e+01" vector-effect="non-scaling-stroke" x="1.991111e+02" y="0"/><rect y="0" width="1.422222e+01" height="4.445377e+01" vector-effect="non-scaling-stroke" x="2.204444e+02"/><rect y="0" width="1.422222e+01" height="4.400189e+01" vector-effect="non-scaling-stroke" x="2.417778e+02"/><rect vector-effect="non-scaling-stroke" x="2.631111e+02" y="0" width="1.422222e+01" height="6.030183e+01"/><rect y="0" width="1.422222e+01" height="4.458916e+01" vector-effect="non-scaling-stroke" x="2.844444e+02"/><rect height="4.492417e+01" vector-effect="non-scaling-stroke" x="3.057778e+02" y="0" width="1.422222e+01"/><rect vector-effect="non-scaling-stroke" x="3.271111e+02" y="0" width="1.422222e+01" height="5.091621e+01"/><rect vector-effect="non-scaling-stroke" x="3.484444e+02" y="0" width="1.422222e+01" height="396"/></g><g fill="hsl(49, 88%, 65%)" stroke="hsl(49, 88%, 65%)" stroke-width="1px" stroke-linecap="round" stroke-linejoin="round" transform="translate(80 520 )scale(1 -1 )"><rect y="0" width="1.422222e+01" height="4.400865e+01" vector-effect="non-scaling-stroke" x="64"/><rect width="1.422222e+01" height="4.400127e+01" vector-effect="non-scaling-stroke" x="8.533333e+01" y="0"/><rect vector-effect="non-scaling-stroke" x="1.066667e+02" y="0" width="1.422222e+01" height="4.404377e+01"/><rect height="4.401493e+01" vector-effect="non-scaling-stroke" x="128" y="0" width="1.422222e+01"/><rect y="0" width="1.422222e+01" height="4.401155e+01" vector-effect="non-scaling-stroke" x="1.493333e+02"/><rect vector-effect="non-scaling-stroke" x="1.706667e+02" y="0" width="1.422222e+01" height="4.402213e+01"/><rect y="0" width="1.422222e+01" height="4.402588e+01" vector-effect="non-scaling-stroke" x="192"/><rect x="2.133333e+02" y="0" width="1.422222e+01" height="4.475375e+01" vector-effect="non-scaling-stroke"/><rect x="2.346667e+02" y="0" width="1.422222e+01" height="4.445017e+01" vector-effect="non-scaling-stroke"/><rect x="2.560000e+02" y="0" width="1.422222e+01" height="4.400139e+01" vector-effect="non-scaling-stroke"/><rect x="2.773333e+02" y="0" width="1.422222e+01" height="5.012754e+01" vector-effect="non-scaling-stroke"/><rect vector-effect="non-scaling-stroke" x="2.986667e+02" y="0" width="1.422222e+01" height="4.436795e+01"/><rect x="320" y="0" width="1.422222e+01" height="4.479587e+01" vector-effect="non-scaling-stroke"/><rect vector-effect="non-scaling-stroke" x="3.413333e+02" y="0" width="1.422222e+01" height="5.163449e+01"/></g><g stroke-width="1px" text-anchor="start" font-weight="normal" dominant-baseline="hanging" font-family="sans-serif" font-style="normal" stroke-linecap="round" stroke-linejoin="round" font-size="12px" fill="hsl(198, 47%, 65%)" stroke="hsl(198, 47%, 65%)"><rect vector-effect="non-scaling-stroke" x="736" y="484" width="12" height="12"/><g fill="black" stroke="black"><text dominant-baseline="hanging" stroke="none" vector-effect="non-scaling-stroke" x="752" y="484">Golang</text></g><g stroke-linecap="round" stroke-linejoin="round" dominant-baseline="hanging" fill="hsl(49, 88%, 65%)" stroke="hsl(49, 88%, 65%)" font-family="sans-serif" font-style="normal" stroke-width="1px" font-size="12px" font-weight="normal" text-anchor="start"><rect vector-effect="non-scaling-stroke" x="736" y="502" width="12" height="12"/><g fill="black" stroke="black"><text y="502" dominant-baseline="hanging" stroke="none" vector-effect="non-scaling-stroke" x="752">Rust</text><g dominant-baseline="hanging" stroke-linejoin="round" font-size="12px" fill="none" font-weight="normal" stroke-width="2px" stroke-linecap="round" text-anchor="start" font-family="sans-serif" font-style="normal"><rect width="640" height="440" vector-effect="non-scaling-stroke" x="80" y="80"/></g><g fill="none" font-family="sans-serif" text-anchor="start" stroke-linecap="round" dominant-baseline="hanging" font-weight="normal" transform="translate(80 520 )scale(1 -1 )" stroke="black" font-style="normal" stroke-width="2px" stroke-linejoin="round" font-size="12px"><path vector-effect="non-scaling-stroke" d="M64,0 L64,-6 M8.533333e+01,0 L8.533333e+01,-6 M1.066667e+02,0 L1.066667e+02,-6 M128,0 L128,-6 M1.493333e+02,0 L1.493333e+02,-6 M1.706667e+02,0 L1.706667e+02,-6 M192,0 L192,-6 M2.133333e+02,0 L2.133333e+02,-6 M2.346667e+02,0 L2.346667e+02,-6 M256,0 L256,-6 M2.773333e+02,0 L2.773333e+02,-6 M2.986667e+02,0 L2.986667e+02,-6 M320,0 L320,-6 M3.413333e+02,0 L3.413333e+02,-6 M3.626667e+02,0 L3.626667e+02,-6 "/></g><g font-weight="normal" dominant-baseline="hanging" transform="translate(80 520 )scale(1 1 )" stroke="black" stroke-linejoin="round" text-anchor="middle" stroke-linecap="round" font-family="sans-serif" font-size="12px" stroke-width="2px" font-style="normal" fill="black"><text stroke="none" vector-effect="non-scaling-stroke" x="64" y="10" dominant-baseline="hanging">1</text><text stroke="none" vector-effect="non-scaling-stroke" x="8.533333e+01" y="10" dominant-baseline="hanging">2</text><text x="1.066667e+02" y="10" dominant-baseline="hanging" stroke="none" vector-effect="non-scaling-stroke">3</text><text stroke="none" vector-effect="non-scaling-stroke" x="128" y="10" dominant-baseline="hanging">4</text><text x="1.493333e+02" y="10" dominant-baseline="hanging" stroke="none" vector-effect="non-scaling-stroke">5</text><text x="1.706667e+02" y="10" dominant-baseline="hanging" stroke="none" vector-effect="non-scaling-stroke">6</text><text y="10" dominant-baseline="hanging" stroke="none" vector-effect="non-scaling-stroke" x="192">7</text><text vector-effect="non-scaling-stroke" x="2.133333e+02" y="10" dominant-baseline="hanging" stroke="none">8</text><text vector-effect="non-scaling-stroke" x="2.346667e+02" y="10" dominant-baseline="hanging" stroke="none">9</text><text stroke="none" vector-effect="non-scaling-stroke" x="256" y="10" dominant-baseline="hanging">10</text><text stroke="none" vector-effect="non-scaling-stroke" x="2.773333e+02" y="10" dominant-baseline="hanging">11</text><text y="10" dominant-baseline="hanging" stroke="none" vector-effect="non-scaling-stroke" x="2.986667e+02">12</text><text stroke="none" vector-effect="non-scaling-stroke" x="320" y="10" dominant-baseline="hanging">13</text><text stroke="none" vector-effect="non-scaling-stroke" x="3.413333e+02" y="10" dominant-baseline="hanging">14</text><text stroke="none" vector-effect="non-scaling-stroke" x="3.626667e+02" y="10" dominant-baseline="hanging">15</text></g><g text-anchor="middle" dominant-baseline="baseline" transform="translate(80 520 )scale(1 1 )rotate(0 0 0 )" fill="black" font-style="normal" stroke-width="2px" stroke-linejoin="round" font-size="12px" font-weight="bold" stroke-linecap="round" stroke="black" font-family="sans-serif"><text y="-6" dominant-baseline="baseline" stroke="none" vector-effect="non-scaling-stroke" x="320">Day</text></g><g stroke-linecap="round" font-family="sans-serif" stroke-linejoin="round" text-anchor="middle" stroke-width="2px" font-style="normal" font-weight="bold" dominant-baseline="baseline" transform="translate(80 520 )scale(1 -1 )" fill="black" font-size="12px" stroke="black"><path d="M0,44 L-6,44 M0,1.603936e+02 L-6,1.603936e+02 M0,2.767872e+02 L-6,2.767872e+02 M0,3.931809e+02 L-6,3.931809e+02 " vector-effect="non-scaling-stroke"/></g><g dominant-baseline="middle" transform="translate(80 520 )scale(1 1 )" stroke="black" text-anchor="end" stroke-linecap="round" font-weight="normal" font-family="sans-serif" font-style="normal" stroke-width="2px" stroke-linejoin="round" font-size="12px" fill="black"><text vector-effect="non-scaling-stroke" x="-10" y="-44" dominant-baseline="middle" stroke="none">0s</text><text x="-10" y="-1.603936e+02" dominant-baseline="middle" stroke="none" vector-effect="non-scaling-stroke">100ms</text><text dominant-baseline="middle" stroke="none" vector-effect="non-scaling-stroke" x="-10" y="-2.767872e+02">200ms</text><text x="-10" y="-3.931809e+02" dominant-baseline="middle" stroke="none" vector-effect="non-scaling-stroke">300ms</text></g><g fill="black" stroke="black" font-style="normal" dominant-baseline="hanging" stroke-width="2px" stroke-linejoin="round" font-family="sans-serif" font-weight="bold" transform="translate(80 520 )scale(1 1 )rotate(-90 0 0 )" stroke-linecap="round" font-size="12px" text-anchor="middle"><text x="220" y="6" dominant-baseline="hanging" stroke="none" vector-effect="non-scaling-stroke">Runtime</text></g></g></g></g></svg>