<svg preserveAspectRatio="xMidYMid meet" xmlns="http://www.w3.org/2000/svg" width="800" height="600" viewbox="0 0 800 600"><defs><marker refX="5" refY="5" markerUnits="userSpaceOnUse" markerWidth="2%" markerHeight="2%" id="circle" viewBox="0 0 10 10 "><circle cx="5" cy="5" r="3" fill="none" stroke="black"/></marker><marker markerWidth="2%" markerHeight="2%" id="filled-circle" viewBox="0 0 10 10 " refX="5" refY="5" markerUnits="userSpaceOnUse"><circle cx="5" cy="5" r="3" fill="black" stroke="none"/></marker><marker markerUnits="userSpaceOnUse" markerWidth="2%" markerHeight="2%" id="square" viewBox="0 0 10 10 " refX="5" refY="5"><rect width="6" height="6" fill="none" stroke="black" x="2" y="2"/></marker><marker viewBox="0 0 10 10 " refX="5" refY="5" markerUnits="userSpaceOnUse" markerWidth="2%" markerHeight="2%" id="filled-square"><rect x="2" y="2" width="6" height="6" fill="black" stroke="none"/></marker></defs><g fill="hsl(198, 47%, 65%)" stroke="hsl(198, 47%, 65%)" stroke-width="1px" stroke-linecap="round" stroke-linejoin="round" transform="translate(80 520 )scale(1 -1 )"><rect height="4.416107e+01" vector-effect="non-scaling-stroke" x="4.977778e+01" y="0" width="9.481481e+00"/><rect width="9.481481e+00" height="4.400552e+01" vector-effect="non-scaling-stroke" x="7.111111e+01" y="0"/><rect x="9.244444e+01" y="0" width="9.481481e+00" height="4.402370e+01" vector-effect="non-scaling-stroke"/><rect height="4.403046e+01" vector-effect="non-scaling-stroke" x="1.137778e+02" y="0" width="9.481481e+00"/><rect y="0" width="9.481481e+00" height="4.404900e+01" vector-effect="non-scaling-stroke" x="1.351111e+02"/><rect x="1.564444e+02" y="0" width="9.481481e+00" height="4.400013e+01" vector-effect="non-scaling-stroke"/><rect y="0" width="9.481481e+00" height="4.433411e+01" vector-effect="non-scaling-stroke" x="1.777778e+02"/><rect vector-effect="non-scaling-stroke" x="1.991111e+02" y="0" width="9.481481e+00" height="4.488021e+01"/><rect width="9.481481e+00" height="4.407871e+01" vector-effect="non-scaling-stroke" x="2.204444e+02" y="0"/><rect width="9.481481e+00" height="4.504864e+01" vector-effect="non-scaling-stroke" x="2.417778e+02" y="0"/><rect x="2.631111e+02" y="0" width="9.481481e+00" height="4.424140e+01" vector-effect="non-scaling-stroke"/><rect height="396" vector-effect="non-scaling-stroke" x="2.844444e+02" y="0" width="9.481481e+00"/><rect x="3.057778e+02" y="0" width="9.481481e+00" height="4.410024e+01" vector-effect="non-scaling-stroke"/><rect x="3.271111e+02" y="0" width="9.481481e+00" height="5.874573e+01" vector-effect="non-scaling-stroke"/><rect height="4.412710e+01" vector-effect="non-scaling-stroke" x="3.484444e+02" y="0" width="9.481481e+00"/></g><g stroke-linejoin="round" transform="translate(80 520 )scale(1 -1 )" fill="hsl(49, 88%, 65%)" stroke="hsl(49, 88%, 65%)" stroke-width="1px" stroke-linecap="round"><rect height="4.408368e+01" vector-effect="non-scaling-stroke" x="5.925926e+01" y="0" width="9.481481e+00"/><rect width="9.481481e+00" height="4.400216e+01" vector-effect="non-scaling-stroke" x="8.059259e+01" y="0"/><rect y="0" width="9.481481e+00" height="4.401564e+01" vector-effect="non-scaling-stroke" x="1.019259e+02"/><rect y="0" width="9.481481e+00" height="4.401708e+01" vector-effect="non-scaling-stroke" x="1.232593e+02"/><rect vector-effect="non-scaling-stroke" x="1.445926e+02" y="0" width="9.481481e+00" height="4.400997e+01"/><rect height="4.400009e+01" vector-effect="non-scaling-stroke" x="1.659259e+02" y="0" width="9.481481e+00"/><rect x="2.085926e+02" y="0" width="9.481481e+00" height="4.651565e+01" vector-effect="non-scaling-stroke"/><rect x="2.299259e+02" y="0" width="9.481481e+00" height="4.404421e+01" vector-effect="non-scaling-stroke"/><rect y="0" width="9.481481e+00" height="4.407725e+01" vector-effect="non-scaling-stroke" x="2.512593e+02"/><rect vector-effect="non-scaling-stroke" x="2.725926e+02" y="0" width="9.481481e+00" height="4.422258e+01"/><rect x="3.152593e+02" y="0" width="9.481481e+00" height="4.404709e+01" vector-effect="non-scaling-stroke"/></g><g stroke="hsl(260, 76%, 65%)" stroke-width="1px" stroke-linecap="round" stroke-linejoin="round" transform="translate(80 520 )scale(1 -1 )" fill="hsl(260, 76%, 65%)"><rect x="6.874074e+01" y="0" width="9.481481e+00" height="4.406687e+01" vector-effect="non-scaling-stroke"/><rect width="9.481481e+00" height="4.400234e+01" vector-effect="non-scaling-stroke" x="9.007407e+01" y="0"/><rect y="0" width="9.481481e+00" height="4.401242e+01" vector-effect="non-scaling-stroke" x="1.114074e+02"/><rect x="1.327407e+02" y="0" width="9.481481e+00" height="4.404748e+01" vector-effect="non-scaling-stroke"/><rect vector-effect="non-scaling-stroke" x="1.540741e+02" y="0" width="9.481481e+00" height="4.575806e+01"/><rect vector-effect="non-scaling-stroke" x="1.754074e+02" y="0" width="9.481481e+00" height="4.400008e+01"/><rect vector-effect="non-scaling-stroke" x="1.967407e+02" y="0" width="9.481481e+00" height="4.403908e+01"/><rect width="9.481481e+00" height="4.419846e+01" vector-effect="non-scaling-stroke" x="2.180741e+02" y="0"/><rect height="4.404643e+01" vector-effect="non-scaling-stroke" x="2.394074e+02" y="0" width="9.481481e+00"/><rect y="0" width="9.481481e+00" height="4.407512e+01" vector-effect="non-scaling-stroke" x="2.607407e+02"/><rect vector-effect="non-scaling-stroke" x="2.820741e+02" y="0" width="9.481481e+00" height="6.137333e+01"/></g><g font-family="sans-serif" font-size="12px" fill="hsl(198, 47%, 65%)" stroke-width="1px" stroke-linecap="round" dominant-baseline="hanging" font-weight="normal" text-anchor="start" stroke-linejoin="round" font-style="normal" stroke="hsl(198, 47%, 65%)"><rect vector-effect="non-scaling-stroke" x="736" y="466" width="12" height="12"/><g fill="black" stroke="black"><text vector-effect="non-scaling-stroke" x="752" y="466" dominant-baseline="hanging" stroke="none">Golang</text></g><g stroke-linecap="round" stroke-linejoin="round" text-anchor="start" dominant-baseline="hanging" fill="hsl(49, 88%, 65%)" stroke-width="1px" font-family="sans-serif" font-size="12px" font-weight="normal" stroke="hsl(49, 88%, 65%)" font-style="normal"><rect width="12" height="12" vector-effect="non-scaling-stroke" x="736" y="484"/><g stroke="black" fill="black"><text x="752" y="484" dominant-baseline="hanging" stroke="none" vector-effect="non-scaling-stroke">Rust</text></g><g stroke-width="1px" stroke-linecap="round" stroke-linejoin="round" font-style="normal" font-family="sans-serif" font-weight="normal" text-anchor="start" fill="hsl(260, 76%, 65%)" stroke="hsl(260, 76%, 65%)" font-size="12px" dominant-baseline="hanging"><rect height="12" vector-effect="non-scaling-stroke" x="736" y="502" width="12"/><g stroke="black" fill="black"><text y="502" dominant-baseline="hanging" stroke="none" vector-effect="non-scaling-stroke" x="752">Zig</text><g stroke-linecap="round" stroke-linejoin="round" font-style="normal" font-size="12px" fill="none" font-family="sans-serif" font-weight="normal" text-anchor="start" dominant-baseline="hanging" stroke-width="2px"><rect vector-effect="non-scaling-stroke" x="80" y="80" width="640" height="440"/></g><g stroke-linejoin="round" font-size="12px" stroke-width="2px" stroke-linecap="round" font-style="normal" font-family="sans-serif" font-weight="normal" transform="translate(80 520 )scale(1 -1 )" fill="none" stroke="black" text-anchor="start" dominant-baseline="hanging"><path vector-effect="non-scaling-stroke" d="M64,0 L64,-6 M8.533333e+01,0 L8.533333e+01,-6 M1.066667e+02,0 L1.066667e+02,-6 M128,0 L128,-6 M1.493333e+02,0 L1.493333e+02,-6 M1.706667e+02,0 L1.706667e+02,-6 M192,0 L192,-6 M2.133333e+02,0 L2.133333e+02,-6 M2.346667e+02,0 L2.346667e+02,-6 M256,0 L256,-6 M2.773333e+02,0 L2.773333e+02,-6 M2.986667e+02,0 L2.986667e+02,-6 M320,0 L320,-6 M3.413333e+02,0 L3.413333e+02,-6 M3.626667e+02,0 L3.626667e+02,-6 "/></g><g font-weight="normal" text-anchor="middle" font-family="sans-serif" font-size="12px" font-style="normal" fill="black" stroke="black" transform="translate(80 520 )scale(1 1 )" dominant-baseline="hanging" stroke-width="2px" stroke-linecap="round" stroke-linejoin="round"><text dominant-baseline="hanging" stroke="none" vector-effect="non-scaling-stroke" x="64" y="10">1</text><text y="10" dominant-baseline="hanging" stroke="none" vector-effect="non-scaling-stroke" x="8.533333e+01">2</text><text dominant-baseline="hanging" stroke="none" vector-effect="non-scaling-stroke" x="1.066667e+02" y="10">3</text><text dominant-baseline="hanging" stroke="none" vector-effect="non-scaling-stroke" x="128" y="10">4</text><text stroke="none" vector-effect="non-scaling-stroke" x="1.493333e+02" y="10" dominant-baseline="hanging">5</text><text stroke="none" vector-effect="non-scaling-stroke" x="1.706667e+02" y="10" dominant-baseline="hanging">6</text><text y="10" dominant-baseline="hanging" stroke="none" vector-effect="non-scaling-stroke" x="192">7</text><text y="10" dominant-baseline="hanging" stroke="none" vector-effect="non-scaling-stroke" x="2.133333e+02">8</text><text vector-effect="non-scaling-stroke" x="2.346667e+02" y="10" dominant-baseline="hanging" stroke="none">9</text><text vector-effect="non-scaling-stroke" x="256" y="10" dominant-baseline="hanging" stroke="none">10</text><text stroke="none" vector-effect="non-scaling-stroke" x="2.773333e+02" y="10" dominant-baseline="hanging">11</text><text y="10" dominant-baseline="hanging" stroke="none" vector-effect="non-scaling-stroke" x="2.986667e+02">12</text><text x="320" y="10" dominant-baseline="hanging" stroke="none" vector-effect="non-scaling-stroke">13</text><text vector-effect="non-scaling-stroke" x="3.413333e+02" y="10" dominant-baseline="hanging" stroke="none">14</text><text vector-effect="non-scaling-stroke" x="3.626667e+02" y="10" dominant-baseline="hanging" stroke="none">15</text></g><g stroke-width="2px" font-size="12px" font-weight="bold" stroke-linejoin="round" font-family="sans-serif" text-anchor="middle" font-style="normal" transform="translate(80 520 )scale(1 1 )rotate(0 0 0 )" fill="black" stroke="black" stroke-linecap="round" dominant-baseline="baseline"><text x="320" y="-6" dominant-baseline="baseline" stroke="none" vector-effect="non-scaling-stroke">Day</text></g><g text-anchor="middle" stroke-linejoin="round" fill="black" stroke="black" stroke-width="2px" dominant-baseline="baseline" font-family="sans-serif" font-style="normal" transform="translate(80 520 )scale(1 -1 )" stroke-linecap="round" font-size="12px" font-weight="bold"><path d="M0,44 L-6,44 M0,1.341724e+02 L-6,1.341724e+02 M0,2.243448e+02 L-6,2.243448e+02 M0,3.145172e+02 L-6,3.145172e+02 " vector-effect="non-scaling-stroke"/></g><g font-weight="normal" text-anchor="end" dominant-baseline="middle" font-style="normal" stroke-width="2px" stroke-linejoin="round" font-family="sans-serif" font-size="12px" transform="translate(80 520 )scale(1 1 )" fill="black" stroke="black" stroke-linecap="round"><text y="-44" dominant-baseline="middle" stroke="none" vector-effect="non-scaling-stroke" x="-10">0s</text><text dominant-baseline="middle" stroke="none" vector-effect="non-scaling-stroke" x="-10" y="-1.341724e+02">100ms</text><text vector-effect="non-scaling-stroke" x="-10" y="-2.243448e+02" dominant-baseline="middle" stroke="none">200ms</text><text x="-10" y="-3.145172e+02" dominant-baseline="middle" stroke="none" vector-effect="non-scaling-stroke">300ms</text></g><g text-anchor="middle" font-family="sans-serif" stroke-linecap="round" transform="translate(80 520 )scale(1 1 )rotate(-90 0 0 )" fill="black" stroke="black" font-weight="bold" dominant-baseline="hanging" font-size="12px" stroke-width="2px" stroke-linejoin="round" font-style="normal"><text x="220" y="6" dominant-baseline="hanging" stroke="none" vector-effect="non-scaling-stroke">Runtime</text></g></g></g></g></g></svg>