<svg preserveAspectRatio="xMidYMid meet" xmlns="http://www.w3.org/2000/svg" width="800" height="600" viewbox="0 0 800 600"><defs><marker refX="5" refY="5" markerUnits="userSpaceOnUse" markerWidth="2%" markerHeight="2%" id="circle" viewBox="0 0 10 10 "><circle cy="5" r="3" fill="none" stroke="black" cx="5"/></marker><marker markerWidth="2%" markerHeight="2%" id="filled-circle" viewBox="0 0 10 10 " refX="5" refY="5" markerUnits="userSpaceOnUse"><circle cx="5" cy="5" r="3" fill="black" stroke="none"/></marker><marker markerUnits="userSpaceOnUse" markerWidth="2%" markerHeight="2%" id="square" viewBox="0 0 10 10 " refX="5" refY="5"><rect width="6" height="6" fill="none" stroke="black" x="2" y="2"/></marker><marker refY="5" markerUnits="userSpaceOnUse" markerWidth="2%" markerHeight="2%" id="filled-square" viewBox="0 0 10 10 " refX="5"><rect y="2" width="6" height="6" fill="black" stroke="none" x="2"/></marker></defs><g fill="hsl(198, 47%, 65%)" stroke="hsl(198, 47%, 65%)" stroke-width="1px" stroke-linecap="round" stroke-linejoin="round" transform="translate(80 520 )scale(1 -1 )"><rect width="8.533333e+00" height="4.401252e+01" vector-effect="non-scaling-stroke" x="5.546667e+01" y="0"/><rect vector-effect="non-scaling-stroke" x="7.680000e+01" y="0" width="8.533333e+00" height="4.400346e+01"/><rect x="9.813333e+01" y="0" width="8.533333e+00" height="4.403669e+01" vector-effect="non-scaling-stroke"/><rect width="8.533333e+00" height="4.401376e+01" vector-effect="non-scaling-stroke" x="1.194667e+02" y="0"/><rect y="0" width="8.533333e+00" height="4.400930e+01" vector-effect="non-scaling-stroke" x="1.408000e+02"/><rect x="1.621333e+02" y="0" width="8.533333e+00" height="4.402315e+01" vector-effect="non-scaling-stroke"/><rect height="4.402151e+01" vector-effect="non-scaling-stroke" x="1.834667e+02" y="0" width="8.533333e+00"/><rect y="0" width="8.533333e+00" height="4.448941e+01" vector-effect="non-scaling-stroke" x="2.048000e+02"/><rect width="8.533333e+00" height="4.428613e+01" vector-effect="non-scaling-stroke" x="2.261333e+02" y="0"/><rect x="2.474667e+02" y="0" width="8.533333e+00" height="4.400117e+01" vector-effect="non-scaling-stroke"/><rect width="8.533333e+00" height="5.418060e+01" vector-effect="non-scaling-stroke" x="2.688000e+02" y="0"/><rect x="2.901333e+02" y="0" width="8.533333e+00" height="4.441195e+01" vector-effect="non-scaling-stroke"/><rect vector-effect="non-scaling-stroke" x="3.114667e+02" y="0" width="8.533333e+00" height="4.459405e+01"/><rect vector-effect="non-scaling-stroke" x="3.328000e+02" y="0" width="8.533333e+00" height="4.861341e+01"/><rect height="4.400416e+01" vector-effect="non-scaling-stroke" x="3.541333e+02" y="0" width="8.533333e+00"/><rect height="2.491492e+02" vector-effect="non-scaling-stroke" x="3.754667e+02" y="0" width="8.533333e+00"/><rect height="4.435469e+01" vector-effect="non-scaling-stroke" x="3.968000e+02" y="0" width="8.533333e+00"/><rect height="4.413772e+01" vector-effect="non-scaling-stroke" x="4.181333e+02" y="0" width="8.533333e+00"/><rect vector-effect="non-scaling-stroke" x="4.394667e+02" y="0" width="8.533333e+00" height="1.701414e+02"/><rect height="8.130208e+01" vector-effect="non-scaling-stroke" x="4.608000e+02" y="0" width="8.533333e+00"/><rect vector-effect="non-scaling-stroke" x="4.821333e+02" y="0" width="8.533333e+00" height="4.424564e+01"/><rect x="5.034667e+02" y="0" width="8.533333e+00" height="4.464604e+01" vector-effect="non-scaling-stroke"/><rect vector-effect="non-scaling-stroke" x="5.248000e+02" y="0" width="8.533333e+00" height="2.191183e+02"/><rect x="5.461333e+02" y="0" width="8.533333e+00" height="1.344676e+02" vector-effect="non-scaling-stroke"/><rect x="5.674667e+02" y="0" width="8.533333e+00" height="4.400215e+01" vector-effect="non-scaling-stroke"/></g><g stroke-linecap="round" stroke-linejoin="round" transform="translate(80 520 )scale(1 -1 )" fill="hsl(49, 88%, 65%)" stroke="hsl(49, 88%, 65%)" stroke-width="1px"><rect vector-effect="non-scaling-stroke" x="64" y="0" width="8.533333e+00" height="4.400535e+01"/><rect height="4.400078e+01" vector-effect="non-scaling-stroke" x="8.533333e+01" y="0" width="8.533333e+00"/><rect vector-effect="non-scaling-stroke" x="1.066667e+02" y="0" width="8.533333e+00" height="4.402708e+01"/><rect vector-effect="non-scaling-stroke" x="128" y="0" width="8.533333e+00" height="4.400924e+01"/><rect width="8.533333e+00" height="4.400714e+01" vector-effect="non-scaling-stroke" x="1.493333e+02" y="0"/><rect x="1.706667e+02" y="0" width="8.533333e+00" height="4.401369e+01" vector-effect="non-scaling-stroke"/><rect height="4.401601e+01" vector-effect="non-scaling-stroke" x="192" y="0" width="8.533333e+00"/><rect vector-effect="non-scaling-stroke" x="2.133333e+02" y="0" width="8.533333e+00" height="4.446634e+01"/><rect y="0" width="8.533333e+00" height="4.427852e+01" vector-effect="non-scaling-stroke" x="2.346667e+02"/><rect vector-effect="non-scaling-stroke" x="2.560000e+02" y="0" width="8.533333e+00" height="4.400086e+01"/><rect vector-effect="non-scaling-stroke" x="2.773333e+02" y="0" width="8.533333e+00" height="4.779104e+01"/><rect height="4.422765e+01" vector-effect="non-scaling-stroke" x="2.986667e+02" y="0" width="8.533333e+00"/><rect vector-effect="non-scaling-stroke" x="320" y="0" width="8.533333e+00" height="4.449239e+01"/><rect vector-effect="non-scaling-stroke" x="3.413333e+02" y="0" width="8.533333e+00" height="4.872338e+01"/><rect width="8.533333e+00" height="4.400154e+01" vector-effect="non-scaling-stroke" x="3.626667e+02" y="0"/><rect height="396" vector-effect="non-scaling-stroke" x="384" y="0" width="8.533333e+00"/><rect vector-effect="non-scaling-stroke" x="4.053333e+02" y="0" width="8.533333e+00" height="4.423797e+01"/><rect vector-effect="non-scaling-stroke" x="4.266667e+02" y="0" width="8.533333e+00" height="4.415990e+01"/><rect y="0" width="8.533333e+00" height="1.132244e+02" vector-effect="non-scaling-stroke" x="448"/><rect height="7.138520e+01" vector-effect="non-scaling-stroke" x="4.693333e+02" y="0" width="8.533333e+00"/><rect height="4.432535e+01" vector-effect="non-scaling-stroke" x="4.906667e+02" y="0" width="8.533333e+00"/><rect width="8.533333e+00" height="4.446958e+01" vector-effect="non-scaling-stroke" x="512" y="0"/><rect y="0" width="8.533333e+00" height="2.177979e+02" vector-effect="non-scaling-stroke" x="5.333333e+02"/><rect x="5.546667e+02" y="0" width="8.533333e+00" height="2.339950e+02" vector-effect="non-scaling-stroke"/><rect height="4.400496e+01" vector-effect="non-scaling-stroke" x="576" y="0" width="8.533333e+00"/></g><g font-style="normal" text-anchor="start" font-family="sans-serif" font-size="12px" font-weight="normal" fill="hsl(198, 47%, 65%)" stroke="hsl(198, 47%, 65%)" stroke-width="1px" stroke-linecap="round" stroke-linejoin="round" dominant-baseline="hanging"><rect height="12" vector-effect="non-scaling-stroke" x="736" y="484" width="12"/><g fill="black" stroke="black"><text stroke="none" vector-effect="non-scaling-stroke" x="752" y="484" dominant-baseline="hanging">Golang</text></g><g stroke="hsl(49, 88%, 65%)" font-size="12px" text-anchor="start" stroke-linejoin="round" stroke-linecap="round" font-style="normal" dominant-baseline="hanging" fill="hsl(49, 88%, 65%)" font-family="sans-serif" font-weight="normal" stroke-width="1px"><rect vector-effect="non-scaling-stroke" x="736" y="502" width="12" height="12"/><g fill="black" stroke="black"><text y="502" dominant-baseline="hanging" stroke="none" vector-effect="non-scaling-stroke" x="752">Rust</text><g dominant-baseline="hanging" font-size="12px" font-weight="normal" text-anchor="start" stroke-linecap="round" stroke-linejoin="round" font-style="normal" font-family="sans-serif" stroke-width="2px" fill="none"><rect vector-effect="non-scaling-stroke" x="80" y="80" width="640" height="440"/></g><g stroke-linejoin="round" font-size="12px" font-weight="normal" stroke="black" transform="translate(80 520 )scale(1 -1 )" fill="none" stroke-width="2px" stroke-linecap="round" text-anchor="start" font-family="sans-serif" font-style="normal" dominant-baseline="hanging"><path vector-effect="non-scaling-stroke" d="M64,0 L64,-6 M8.533333e+01,0 L8.533333e+01,-6 M1.066667e+02,0 L1.066667e+02,-6 M128,0 L128,-6 M1.493333e+02,0 L1.493333e+02,-6 M1.706667e+02,0 L1.706667e+02,-6 M192,0 L192,-6 M2.133333e+02,0 L2.133333e+02,-6 M2.346667e+02,0 L2.346667e+02,-6 M256,0 L256,-6 M2.773333e+02,0 L2.773333e+02,-6 M2.986667e+02,0 L2.986667e+02,-6 M320,0 L320,-6 M3.413333e+02,0 L3.413333e+02,-6 M3.626667e+02,0 L3.626667e+02,-6 M384,0 L384,-6 M4.053333e+02,0 L4.053333e+02,-6 M4.266667e+02,0 L4.266667e+02,-6 M448,0 L448,-6 M4.693333e+02,0 L4.693333e+02,-6 M4.906667e+02,0 L4.906667e+02,-6 M512,0 L512,-6 M5.333333e+02,0 L5.333333e+02,-6 M5.546667e+02,0 L5.546667e+02,-6 M576,0 L576,-6 "/></g><g dominant-baseline="hanging" stroke="black" stroke-linecap="round" font-style="normal" transform="translate(80 520 )scale(1 1 )" font-size="12px" text-anchor="middle" fill="black" stroke-width="2px" stroke-linejoin="round" font-family="sans-serif" font-weight="normal"><text x="64" y="10" dominant-baseline="hanging" stroke="none" vector-effect="non-scaling-stroke">1</text><text dominant-baseline="hanging" stroke="none" vector-effect="non-scaling-stroke" x="8.533333e+01" y="10">2</text><text dominant-baseline="hanging" stroke="none" vector-effect="non-scaling-stroke" x="1.066667e+02" y="10">3</text><text stroke="none" vector-effect="non-scaling-stroke" x="128" y="10" dominant-baseline="hanging">4</text><text y="10" dominant-baseline="hanging" stroke="none" vector-effect="non-scaling-stroke" x="1.493333e+02">5</text><text y="10" dominant-baseline="hanging" stroke="none" vector-effect="non-scaling-stroke" x="1.706667e+02">6</text><text stroke="none" vector-effect="non-scaling-stroke" x="192" y="10" dominant-baseline="hanging">7</text><text dominant-baseline="hanging" stroke="none" vector-effect="non-scaling-stroke" x="2.133333e+02" y="10">8</text><text vector-effect="non-scaling-stroke" x="2.346667e+02" y="10" dominant-baseline="hanging" stroke="none">9</text><text stroke="none" vector-effect="non-scaling-stroke" x="256" y="10" dominant-baseline="hanging">10</text><text stroke="none" vector-effect="non-scaling-stroke" x="2.773333e+02" y="10" dominant-baseline="hanging">11</text><text stroke="none" vector-effect="non-scaling-stroke" x="2.986667e+02" y="10" dominant-baseline="hanging">12</text><text dominant-baseline="hanging" stroke="none" vector-effect="non-scaling-stroke" x="320" y="10">13</text><text y="10" dominant-baseline="hanging" stroke="none" vector-effect="non-scaling-stroke" x="3.413333e+02">14</text><text dominant-baseline="hanging" stroke="none" vector-effect="non-scaling-stroke" x="3.626667e+02" y="10">15</text><text stroke="none" vector-effect="non-scaling-stroke" x="384" y="10" dominant-baseline="hanging">16</text><text y="10" dominant-baseline="hanging" stroke="none" vector-effect="non-scaling-stroke" x="4.053333e+02">17</text><text stroke="none" vector-effect="non-scaling-stroke" x="4.266667e+02" y="10" dominant-baseline="hanging">18</text><text x="448" y="10" dominant-baseline="hanging" stroke="none" vector-effect="non-scaling-stroke">19</text><text stroke="none" vector-effect="non-scaling-stroke" x="4.693333e+02" y="10" dominant-baseline="hanging">20</text><text vector-effect="non-scaling-stroke" x="4.906667e+02" y="10" dominant-baseline="hanging" stroke="none">21</text><text dominant-baseline="hanging" stroke="none" vector-effect="non-scaling-stroke" x="512" y="10">22</text><text x="5.333333e+02" y="10" dominant-baseline="hanging" stroke="none" vector-effect="non-scaling-stroke">23</text><text dominant-baseline="hanging" stroke="none" vector-effect="non-scaling-stroke" x="5.546667e+02" y="10">24</text><text y="10" dominant-baseline="hanging" stroke="none" vector-effect="non-scaling-stroke" x="576">25</text></g><g transform="translate(80 520 )scale(1 1 )rotate(0 0 0 )" stroke-linejoin="round" font-style="normal" fill="black" stroke="black" stroke-width="2px" stroke-linecap="round" text-anchor="middle" font-family="sans-serif" font-size="12px" font-weight="bold" dominant-baseline="baseline"><text stroke="none" vector-effect="non-scaling-stroke" x="320" y="-6" dominant-baseline="baseline">Day</text></g><g font-family="sans-serif" font-size="12px" stroke-width="2px" stroke-linecap="round" font-style="normal" stroke-linejoin="round" text-anchor="middle" transform="translate(80 520 )scale(1 -1 )" fill="black" stroke="black" dominant-baseline="baseline" font-weight="bold"><path vector-effect="non-scaling-stroke" d="M0,44 L-6,44 M0,1.160114e+02 L-6,1.160114e+02 M0,1.880228e+02 L-6,1.880228e+02 M0,2.600343e+02 L-6,2.600343e+02 M0,3.320457e+02 L-6,3.320457e+02 "/></g><g dominant-baseline="middle" font-size="12px" font-weight="normal" fill="black" stroke="black" stroke-width="2px" stroke-linecap="round" font-style="normal" text-anchor="end" stroke-linejoin="round" font-family="sans-serif" transform="translate(80 520 )scale(1 1 )"><text x="-10" y="-44" dominant-baseline="middle" stroke="none" vector-effect="non-scaling-stroke">0s</text><text vector-effect="non-scaling-stroke" x="-10" y="-1.160114e+02" dominant-baseline="middle" stroke="none">100ms</text><text stroke="none" vector-effect="non-scaling-stroke" x="-10" y="-1.880228e+02" dominant-baseline="middle">200ms</text><text stroke="none" vector-effect="non-scaling-stroke" x="-10" y="-2.600343e+02" dominant-baseline="middle">300ms</text><text stroke="none" vector-effect="non-scaling-stroke" x="-10" y="-3.320457e+02" dominant-baseline="middle">400ms</text></g><g transform="translate(80 520 )scale(1 1 )rotate(-90 0 0 )" dominant-baseline="hanging" font-weight="bold" text-anchor="middle" fill="black" stroke="black" stroke-width="2px" stroke-linejoin="round" font-family="sans-serif" font-size="12px" stroke-linecap="round" font-style="normal"><text y="6" dominant-baseline="hanging" stroke="none" vector-effect="non-scaling-stroke" x="220">Runtime</text></g></g></g></g></svg>