<svg height="600" viewbox="0 0 800 600" preserveAspectRatio="xMidYMid meet" xmlns="http://www.w3.org/2000/svg" width="800"><defs><marker viewBox="0 0 10 10 " refX="5" refY="5" markerUnits="userSpaceOnUse" markerWidth="2%" markerHeight="2%" id="circle"><circle fill="none" stroke="black" cx="5" cy="5" r="3"/></marker><marker refX="5" refY="5" markerUnits="userSpaceOnUse" markerWidth="2%" markerHeight="2%" id="filled-circle" viewBox="0 0 10 10 "><circle r="3" fill="black" stroke="none" cx="5" cy="5"/></marker><marker id="square" viewBox="0 0 10 10 " refX="5" refY="5" markerUnits="userSpaceOnUse" markerWidth="2%" markerHeight="2%"><rect y="2" width="6" height="6" fill="none" stroke="black" x="2"/></marker><marker refX="5" refY="5" markerUnits="userSpaceOnUse" markerWidth="2%" markerHeight="2%" id="filled-square" viewBox="0 0 10 10 "><rect height="6" fill="black" stroke="none" x="2" y="2" width="6"/></marker></defs><g fill="hsl(198, 47%, 65%)" stroke="hsl(198, 47%, 65%)" stroke-width="1px" stroke-linecap="round" stroke-linejoin="round" transform="translate(80 520 )scale(1 -1 )"><rect vector-effect="non-scaling-stroke" x="3.650000e+01" y="0" width="2.750000e+01" height="4.424229e+01"/><rect y="0" width="2.750000e+01" height="4.421467e+01" vector-effect="non-scaling-stroke" x="5.783333e+01"/><rect y="0" width="2.750000e+01" height="4.413328e+01" vector-effect="non-scaling-stroke" x="7.916667e+01"/><rect vector-effect="non-scaling-stroke" x="1.005000e+02" y="0" width="2.750000e+01" height="4.522766e+01"/><rect vector-effect="non-scaling-stroke" x="1.218333e+02" y="0" width="2.750000e+01" height="4.413777e+01"/><rect x="1.431667e+02" y="0" width="2.750000e+01" height="396" vector-effect="non-scaling-stroke"/></g><g stroke-linecap="round" stroke-linejoin="round" transform="translate(80 520 )scale(1 -1 )" fill="hsl(49, 88%, 65%)" stroke="hsl(49, 88%, 65%)" stroke-width="1px"><rect width="2.750000e+01" height="4.421746e+01" vector-effect="non-scaling-stroke" x="64" y="0"/><rect vector-effect="non-scaling-stroke" x="8.533333e+01" y="0" width="2.750000e+01" height="4.418573e+01"/><rect y="0" width="2.750000e+01" height="4.403630e+01" vector-effect="non-scaling-stroke" x="1.066667e+02"/><rect y="0" width="2.750000e+01" height="4.604910e+01" vector-effect="non-scaling-stroke" x="128"/><rect width="2.750000e+01" height="4.409820e+01" vector-effect="non-scaling-stroke" x="1.493333e+02" y="0"/><rect x="1.706667e+02" y="0" width="2.750000e+01" height="2.979180e+02" vector-effect="non-scaling-stroke"/></g><g font-style="normal" font-weight="normal" text-anchor="start" fill="hsl(198, 47%, 65%)" stroke-linecap="round" font-family="sans-serif" dominant-baseline="hanging" stroke-linejoin="round" font-size="12px" stroke="hsl(198, 47%, 65%)" stroke-width="1px"><rect height="12" vector-effect="non-scaling-stroke" x="736" y="484" width="12"/><g stroke="black" fill="black"><text stroke="none" vector-effect="non-scaling-stroke" x="752" y="484" dominant-baseline="hanging">Golang</text></g><g dominant-baseline="hanging" stroke-linecap="round" font-weight="normal" stroke="hsl(49, 88%, 65%)" stroke-width="1px" fill="hsl(49, 88%, 65%)" font-style="normal" text-anchor="start" stroke-linejoin="round" font-family="sans-serif" font-size="12px"><rect y="502" width="12" height="12" vector-effect="non-scaling-stroke" x="736"/><g fill="black" stroke="black"><text stroke="none" vector-effect="non-scaling-stroke" x="752" y="502" dominant-baseline="hanging">Rust</text><g stroke-linejoin="round" text-anchor="start" font-weight="normal" dominant-baseline="hanging" font-family="sans-serif" font-size="12px" stroke-width="2px" fill="none" stroke-linecap="round" font-style="normal"><rect y="80" width="640" height="440" vector-effect="non-scaling-stroke" x="80"/></g><g dominant-baseline="hanging" font-style="normal" font-size="12px" stroke-linejoin="round" stroke-linecap="round" font-family="sans-serif" stroke="black" stroke-width="2px" font-weight="normal" text-anchor="start" transform="translate(80 520 )scale(1 -1 )" fill="none"><path d="M64,0 L64,-6 M8.533333e+01,0 L8.533333e+01,-6 M1.066667e+02,0 L1.066667e+02,-6 M128,0 L128,-6 M1.493333e+02,0 L1.493333e+02,-6 M1.706667e+02,0 L1.706667e+02,-6 " vector-effect="non-scaling-stroke"/></g><g fill="black" font-family="sans-serif" font-size="12px" stroke-width="2px" stroke-linejoin="round" dominant-baseline="hanging" transform="translate(80 520 )scale(1 1 )" stroke="black" font-weight="normal" text-anchor="middle" stroke-linecap="round" font-style="normal"><text dominant-baseline="hanging" stroke="none" vector-effect="non-scaling-stroke" x="64" y="10">1</text><text vector-effect="non-scaling-stroke" x="8.533333e+01" y="10" dominant-baseline="hanging" stroke="none">2</text><text dominant-baseline="hanging" stroke="none" vector-effect="non-scaling-stroke" x="1.066667e+02" y="10">3</text><text dominant-baseline="hanging" stroke="none" vector-effect="non-scaling-stroke" x="128" y="10">4</text><text stroke="none" vector-effect="non-scaling-stroke" x="1.493333e+02" y="10" dominant-baseline="hanging">5</text><text vector-effect="non-scaling-stroke" x="1.706667e+02" y="10" dominant-baseline="hanging" stroke="none">6</text></g><g fill="black" stroke-linecap="round" font-size="12px" stroke="black" text-anchor="middle" font-weight="bold" dominant-baseline="baseline" transform="translate(80 520 )scale(1 1 )rotate(0 0 0 )" stroke-linejoin="round" font-family="sans-serif" stroke-width="2px" font-style="normal"><text vector-effect="non-scaling-stroke" x="320" y="-6" dominant-baseline="baseline" stroke="none">Day</text></g><g stroke-width="2px" fill="black" stroke-linecap="round" font-style="normal" font-weight="bold" stroke-linejoin="round" font-family="sans-serif" font-size="12px" text-anchor="middle" dominant-baseline="baseline" transform="translate(80 520 )scale(1 -1 )" stroke="black"><path vector-effect="non-scaling-stroke" d="M0,44 L-6,44 M0,8.916622e+01 L-6,8.916622e+01 M0,1.343324e+02 L-6,1.343324e+02 M0,1.794987e+02 L-6,1.794987e+02 M0,2.246649e+02 L-6,2.246649e+02 M0,2.698311e+02 L-6,2.698311e+02 M0,3.149973e+02 L-6,3.149973e+02 M0,3.601635e+02 L-6,3.601635e+02 "/></g><g fill="black" font-weight="normal" dominant-baseline="middle" stroke-width="2px" font-family="sans-serif" font-size="12px" font-style="normal" text-anchor="end" transform="translate(80 520 )scale(1 1 )" stroke="black" stroke-linejoin="round" stroke-linecap="round"><text stroke="none" vector-effect="non-scaling-stroke" x="-10" y="-44" dominant-baseline="middle">0s</text><text stroke="none" vector-effect="non-scaling-stroke" x="-10" y="-8.916622e+01" dominant-baseline="middle">10ms</text><text vector-effect="non-scaling-stroke" x="-10" y="-1.343324e+02" dominant-baseline="middle" stroke="none">20ms</text><text stroke="none" vector-effect="non-scaling-stroke" x="-10" y="-1.794987e+02" dominant-baseline="middle">30ms</text><text stroke="none" vector-effect="non-scaling-stroke" x="-10" y="-2.246649e+02" dominant-baseline="middle">40ms</text><text x="-10" y="-2.698311e+02" dominant-baseline="middle" stroke="none" vector-effect="non-scaling-stroke">50ms</text><text dominant-baseline="middle" stroke="none" vector-effect="non-scaling-stroke" x="-10" y="-3.149973e+02">60ms</text><text stroke="none" vector-effect="non-scaling-stroke" x="-10" y="-3.601635e+02" dominant-baseline="middle">70ms</text></g><g fill="black" stroke-linecap="round" font-style="normal" font-family="sans-serif" font-size="12px" stroke-linejoin="round" dominant-baseline="hanging" transform="translate(80 520 )scale(1 1 )rotate(-90 0 0 )" stroke="black" stroke-width="2px" font-weight="bold" text-anchor="middle"><text x="220" y="6" dominant-baseline="hanging" stroke="none" vector-effect="non-scaling-stroke">Runtime</text></g></g></g></g></svg>