<svg viewbox="0 0 800 600" preserveAspectRatio="xMidYMid meet" xmlns="http://www.w3.org/2000/svg" width="800" height="600"><defs><marker markerHeight="2%" id="circle" viewBox="0 0 10 10 " refX="5" refY="5" markerUnits="userSpaceOnUse" markerWidth="2%"><circle cy="5" r="3" fill="none" stroke="black" cx="5"/></marker><marker refY="5" markerUnits="userSpaceOnUse" markerWidth="2%" markerHeight="2%" id="filled-circle" viewBox="0 0 10 10 " refX="5"><circle stroke="none" cx="5" cy="5" r="3" fill="black"/></marker><marker refY="5" markerUnits="userSpaceOnUse" markerWidth="2%" markerHeight="2%" id="square" viewBox="0 0 10 10 " refX="5"><rect x="2" y="2" width="6" height="6" fill="none" stroke="black"/></marker><marker id="filled-square" viewBox="0 0 10 10 " refX="5" refY="5" markerUnits="userSpaceOnUse" markerWidth="2%" markerHeight="2%"><rect x="2" y="2" width="6" height="6" fill="black" stroke="none"/></marker></defs><g stroke-linecap="round" stroke-linejoin="round" transform="translate(80 520 )scale(1 -1 )" fill="hsl(198, 47%, 65%)" stroke="hsl(198, 47%, 65%)" stroke-width="1px"><rect x="5.066667e+01" y="0" width="1.333333e+01" height="4.400289e+01" vector-effect="non-scaling-stroke"/><rect vector-effect="non-scaling-stroke" x="7.200000e+01" y="0" width="1.333333e+01" height="4.400080e+01"/><rect x="9.333333e+01" y="0" width="1.333333e+01" height="4.400876e+01" vector-effect="non-scaling-stroke"/><rect height="4.400354e+01" vector-effect="non-scaling-stroke" x="1.146667e+02" y="0" width="1.333333e+01"/><rect x="136" y="0" width="1.333333e+01" height="4.400215e+01" vector-effect="non-scaling-stroke"/><rect width="1.333333e+01" height="4.400563e+01" vector-effect="non-scaling-stroke" x="1.573333e+02" y="0"/><rect vector-effect="non-scaling-stroke" x="1.786667e+02" y="0" width="1.333333e+01" height="4.400435e+01"/><rect vector-effect="non-scaling-stroke" x="2.000000e+02" y="0" width="1.333333e+01" height="4.411749e+01"/><rect y="0" width="1.333333e+01" height="4.406861e+01" vector-effect="non-scaling-stroke" x="2.213333e+02"/><rect width="1.333333e+01" height="4.400029e+01" vector-effect="non-scaling-stroke" x="2.426667e+02" y="0"/><rect height="4.646502e+01" vector-effect="non-scaling-stroke" x="264" y="0" width="1.333333e+01"/><rect width="1.333333e+01" height="4.408909e+01" vector-effect="non-scaling-stroke" x="2.853333e+02" y="0"/><rect x="3.066667e+02" y="0" width="1.333333e+01" height="4.413974e+01" vector-effect="non-scaling-stroke"/><rect vector-effect="non-scaling-stroke" x="3.280000e+02" y="0" width="1.333333e+01" height="4.504581e+01"/><rect x="3.493333e+02" y="0" width="1.333333e+01" height="9.746664e+01" vector-effect="non-scaling-stroke"/><rect width="1.333333e+01" height="8.283315e+02" vector-effect="non-scaling-stroke" x="3.706667e+02" y="0"/></g><g transform="translate(80 520 )scale(1 -1 )" fill="hsl(49, 88%, 65%)" stroke="hsl(49, 88%, 65%)" stroke-width="1px" stroke-linecap="round" stroke-linejoin="round"><rect height="4.400131e+01" vector-effect="non-scaling-stroke" x="64" y="0" width="1.333333e+01"/><rect y="0" width="1.333333e+01" height="4.400019e+01" vector-effect="non-scaling-stroke" x="8.533333e+01"/><rect vector-effect="non-scaling-stroke" x="1.066667e+02" y="0" width="1.333333e+01" height="4.400662e+01"/><rect vector-effect="non-scaling-stroke" x="1.280000e+02" y="0" width="1.333333e+01" height="4.400226e+01"/><rect vector-effect="non-scaling-stroke" x="1.493333e+02" y="0" width="1.333333e+01" height="4.400175e+01"/><rect x="1.706667e+02" y="0" width="1.333333e+01" height="4.400335e+01" vector-effect="non-scaling-stroke"/><rect width="1.333333e+01" height="4.400391e+01" vector-effect="non-scaling-stroke" x="192" y="0"/><rect y="0" width="1.333333e+01" height="4.411398e+01" vector-effect="non-scaling-stroke" x="2.133333e+02"/><rect height="4.406807e+01" vector-effect="non-scaling-stroke" x="2.346667e+02" y="0" width="1.333333e+01"/><rect width="1.333333e+01" height="4.400021e+01" vector-effect="non-scaling-stroke" x="256" y="0"/><rect vector-effect="non-scaling-stroke" x="2.773333e+02" y="0" width="1.333333e+01" height="4.492655e+01"/><rect width="1.333333e+01" height="4.405564e+01" vector-effect="non-scaling-stroke" x="2.986667e+02" y="0"/><rect y="0" width="1.333333e+01" height="4.412034e+01" vector-effect="non-scaling-stroke" x="320"/><rect y="0" width="1.333333e+01" height="4.515442e+01" vector-effect="non-scaling-stroke" x="3.413333e+02"/><rect vector-effect="non-scaling-stroke" x="3.626667e+02" y="0" width="1.333333e+01" height="4.400048e+01"/></g><g font-family="sans-serif" font-size="12px" text-anchor="start" stroke-linejoin="round" font-style="normal" stroke-width="1px" dominant-baseline="hanging" fill="hsl(198, 47%, 65%)" stroke="hsl(198, 47%, 65%)" stroke-linecap="round" font-weight="normal"><rect y="484" width="12" height="12" vector-effect="non-scaling-stroke" x="736"/><g fill="black" stroke="black"><text y="484" dominant-baseline="hanging" stroke="none" vector-effect="non-scaling-stroke" x="752">Golang</text></g><g stroke-width="1px" font-weight="normal" stroke="hsl(49, 88%, 65%)" stroke-linecap="round" font-style="normal" font-family="sans-serif" font-size="12px" text-anchor="start" dominant-baseline="hanging" fill="hsl(49, 88%, 65%)" stroke-linejoin="round"><rect y="502" width="12" height="12" vector-effect="non-scaling-stroke" x="736"/><g stroke="black" fill="black"><text x="752" y="502" dominant-baseline="hanging" stroke="none" vector-effect="non-scaling-stroke">Rust</text><g font-weight="normal" stroke-linejoin="round" font-family="sans-serif" dominant-baseline="hanging" stroke-width="2px" text-anchor="start" font-style="normal" stroke-linecap="round" font-size="12px" fill="none"><rect height="440" vector-effect="non-scaling-stroke" x="80" y="80" width="640"/></g><g fill="none" stroke="black" font-weight="normal" text-anchor="start" dominant-baseline="hanging" stroke-width="2px" font-family="sans-serif" transform="translate(80 520 )scale(1 -1 )" font-size="12px" stroke-linejoin="round" font-style="normal" stroke-linecap="round"><path d="M64,0 L64,-6 M8.533333e+01,0 L8.533333e+01,-6 M1.066667e+02,0 L1.066667e+02,-6 M128,0 L128,-6 M1.493333e+02,0 L1.493333e+02,-6 M1.706667e+02,0 L1.706667e+02,-6 M192,0 L192,-6 M2.133333e+02,0 L2.133333e+02,-6 M2.346667e+02,0 L2.346667e+02,-6 M256,0 L256,-6 M2.773333e+02,0 L2.773333e+02,-6 M2.986667e+02,0 L2.986667e+02,-6 M320,0 L320,-6 M3.413333e+02,0 L3.413333e+02,-6 M3.626667e+02,0 L3.626667e+02,-6 M384,0 L384,-6 " vector-effect="non-scaling-stroke"/></g><g font-weight="normal" dominant-baseline="hanging" fill="black" stroke-linecap="round" transform="translate(80 520 )scale(1 1 )" stroke-width="2px" font-family="sans-serif" font-size="12px" font-style="normal" text-anchor="middle" stroke="black" stroke-linejoin="round"><text y="10" dominant-baseline="hanging" stroke="none" vector-effect="non-scaling-stroke" x="64">1</text><text y="10" dominant-baseline="hanging" stroke="none" vector-effect="non-scaling-stroke" x="8.533333e+01">2</text><text y="10" dominant-baseline="hanging" stroke="none" vector-effect="non-scaling-stroke" x="1.066667e+02">3</text><text vector-effect="non-scaling-stroke" x="128" y="10" dominant-baseline="hanging" stroke="none">4</text><text dominant-baseline="hanging" stroke="none" vector-effect="non-scaling-stroke" x="1.493333e+02" y="10">5</text><text y="10" dominant-baseline="hanging" stroke="none" vector-effect="non-scaling-stroke" x="1.706667e+02">6</text><text y="10" dominant-baseline="hanging" stroke="none" vector-effect="non-scaling-stroke" x="192">7</text><text stroke="none" vector-effect="non-scaling-stroke" x="2.133333e+02" y="10" dominant-baseline="hanging">8</text><text dominant-baseline="hanging" stroke="none" vector-effect="non-scaling-stroke" x="2.346667e+02" y="10">9</text><text stroke="none" vector-effect="non-scaling-stroke" x="256" y="10" dominant-baseline="hanging">10</text><text stroke="none" vector-effect="non-scaling-stroke" x="2.773333e+02" y="10" dominant-baseline="hanging">11</text><text y="10" dominant-baseline="hanging" stroke="none" vector-effect="non-scaling-stroke" x="2.986667e+02">12</text><text stroke="none" vector-effect="non-scaling-stroke" x="320" y="10" dominant-baseline="hanging">13</text><text vector-effect="non-scaling-stroke" x="3.413333e+02" y="10" dominant-baseline="hanging" stroke="none">14</text><text dominant-baseline="hanging" stroke="none" vector-effect="non-scaling-stroke" x="3.626667e+02" y="10">15</text><text dominant-baseline="hanging" stroke="none" vector-effect="non-scaling-stroke" x="384" y="10">16</text></g><g stroke="black" fill="black" font-family="sans-serif" font-size="12px" text-anchor="middle" stroke-width="2px" stroke-linecap="round" stroke-linejoin="round" font-style="normal" transform="translate(80 520 )scale(1 1 )rotate(0 0 0 )" font-weight="bold" dominant-baseline="baseline"><text vector-effect="non-scaling-stroke" x="320" y="-6" dominant-baseline="baseline" stroke="none">Day</text></g><g font-weight="bold" dominant-baseline="baseline" stroke="black" stroke-linecap="round" stroke-linejoin="round" font-style="normal" stroke-width="2px" font-family="sans-serif" font-size="12px" text-anchor="middle" fill="black" transform="translate(80 520 )scale(1 -1 )"><path vector-effect="non-scaling-stroke" d="M0,44 L-6,44 M0,7.920000e+01 L-6,7.920000e+01 M0,1.144000e+02 L-6,1.144000e+02 M0,1.496000e+02 L-6,1.496000e+02 M0,1.848000e+02 L-6,1.848000e+02 M0,220 L-6,220 M0,2.552000e+02 L-6,2.552000e+02 M0,2.904000e+02 L-6,2.904000e+02 M0,3.256000e+02 L-6,3.256000e+02 M0,3.608000e+02 L-6,3.608000e+02 M0,396 L-6,396 "/></g><g font-size="12px" font-weight="normal" dominant-baseline="middle" font-family="sans-serif" stroke-linejoin="round" fill="black" text-anchor="end" stroke-width="2px" stroke-linecap="round" font-style="normal" transform="translate(80 520 )scale(1 1 )" stroke="black"><text vector-effect="non-scaling-stroke" x="-10" y="-44" dominant-baseline="middle" stroke="none">0s</text><text stroke="none" vector-effect="non-scaling-stroke" x="-10" y="-7.920000e+01" dominant-baseline="middle">200ms</text><text vector-effect="non-scaling-stroke" x="-10" y="-1.144000e+02" dominant-baseline="middle" stroke="none">400ms</text><text x="-10" y="-1.496000e+02" dominant-baseline="middle" stroke="none" vector-effect="non-scaling-stroke">600ms</text><text stroke="none" vector-effect="non-scaling-stroke" x="-10" y="-1.848000e+02" dominant-baseline="middle">800ms</text><text x="-10" y="-220" dominant-baseline="middle" stroke="none" vector-effect="non-scaling-stroke">1s</text><text dominant-baseline="middle" stroke="none" vector-effect="non-scaling-stroke" x="-10" y="-2.552000e+02">1.2s</text><text vector-effect="non-scaling-stroke" x="-10" y="-2.904000e+02" dominant-baseline="middle" stroke="none">1.4s</text><text vector-effect="non-scaling-stroke" x="-10" y="-3.256000e+02" dominant-baseline="middle" stroke="none">1.6s</text><text y="-3.608000e+02" dominant-baseline="middle" stroke="none" vector-effect="non-scaling-stroke" x="-10">1.8s</text><text dominant-baseline="middle" stroke="none" vector-effect="non-scaling-stroke" x="-10" y="-396">2s</text></g><g stroke-linecap="round" stroke-linejoin="round" transform="translate(80 520 )scale(1 1 )rotate(-90 0 0 )" stroke-width="2px" font-family="sans-serif" font-weight="bold" fill="black" stroke="black" text-anchor="middle" dominant-baseline="hanging" font-style="normal" font-size="12px"><text y="6" dominant-baseline="hanging" stroke="none" vector-effect="non-scaling-stroke" x="220">Runtime</text></g></g></g></g></svg>