<svg viewbox="0 0 800 600" preserveAspectRatio="xMidYMid meet" xmlns="http://www.w3.org/2000/svg" width="800" height="600"><defs><marker markerHeight="2%" id="circle" viewBox="0 0 10 10 " refX="5" refY="5" markerUnits="userSpaceOnUse" markerWidth="2%"><circle stroke="black" cx="5" cy="5" r="3" fill="none"/></marker><marker markerUnits="userSpaceOnUse" markerWidth="2%" markerHeight="2%" id="filled-circle" viewBox="0 0 10 10 " refX="5" refY="5"><circle fill="black" stroke="none" cx="5" cy="5" r="3"/></marker><marker markerUnits="userSpaceOnUse" markerWidth="2%" markerHeight="2%" id="square" viewBox="0 0 10 10 " refX="5" refY="5"><rect height="6" fill="none" stroke="black" x="2" y="2" width="6"/></marker><marker markerHeight="2%" id="filled-square" viewBox="0 0 10 10 " refX="5" refY="5" markerUnits="userSpaceOnUse" markerWidth="2%"><rect x="2" y="2" width="6" height="6" fill="black" stroke="none"/></marker></defs><g transform="translate(80 520 )scale(1 -1 )" fill="hsl(198, 47%, 65%)" stroke="hsl(198, 47%, 65%)" stroke-width="1px" stroke-linecap="round" stroke-linejoin="round"><rect y="0" width="7.485380e+00" height="4.428924e+01" vector-effect="non-scaling-stroke" x="5.277193e+01"/><rect x="7.410526e+01" y="0" width="7.485380e+00" height="4.401184e+01" vector-effect="non-scaling-stroke"/><rect width="7.485380e+00" height="4.404912e+01" vector-effect="non-scaling-stroke" x="9.543860e+01" y="0"/><rect x="1.167719e+02" y="0" width="7.485380e+00" height="4.405551e+01" vector-effect="non-scaling-stroke"/><rect vector-effect="non-scaling-stroke" x="1.381053e+02" y="0" width="7.485380e+00" height="4.409855e+01"/><rect height="4.400022e+01" vector-effect="non-scaling-stroke" x="1.594386e+02" y="0" width="7.485380e+00"/><rect y="0" width="7.485380e+00" height="4.460057e+01" vector-effect="non-scaling-stroke" x="1.807719e+02"/><rect y="0" width="7.485380e+00" height="4.552251e+01" vector-effect="non-scaling-stroke" x="2.021053e+02"/><rect height="4.406198e+01" vector-effect="non-scaling-stroke" x="2.234386e+02" y="0" width="7.485380e+00"/><rect width="7.485380e+00" height="4.593132e+01" vector-effect="non-scaling-stroke" x="2.447719e+02" y="0"/><rect x="2.661053e+02" y="0" width="7.485380e+00" height="4.402135e+01" vector-effect="non-scaling-stroke"/><rect vector-effect="non-scaling-stroke" x="2.874386e+02" y="0" width="7.485380e+00" height="1.882304e+02"/><rect height="4.418018e+01" vector-effect="non-scaling-stroke" x="3.087719e+02" y="0" width="7.485380e+00"/><rect y="0" width="7.485380e+00" height="7.050606e+01" vector-effect="non-scaling-stroke" x="3.301053e+02"/><rect height="4.422847e+01" vector-effect="non-scaling-stroke" x="3.514386e+02" y="0" width="7.485380e+00"/><rect width="7.485380e+00" height="1.889965e+02" vector-effect="non-scaling-stroke" x="3.727719e+02" y="0"/><rect vector-effect="non-scaling-stroke" x="3.941053e+02" y="0" width="7.485380e+00" height="396"/><rect y="0" width="7.485380e+00" height="4.401090e+01" vector-effect="non-scaling-stroke" x="4.154386e+02"/><rect width="7.485380e+00" height="4.467614e+01" vector-effect="non-scaling-stroke" x="4.367719e+02" y="0"/></g><g stroke-width="1px" stroke-linecap="round" stroke-linejoin="round" transform="translate(80 520 )scale(1 -1 )" fill="hsl(49, 88%, 65%)" stroke="hsl(49, 88%, 65%)"><rect y="0" width="7.485380e+00" height="4.415042e+01" vector-effect="non-scaling-stroke" x="6.025731e+01"/><rect vector-effect="non-scaling-stroke" x="8.159064e+01" y="0" width="7.485380e+00" height="4.400388e+01"/><rect x="1.029240e+02" y="0" width="7.485380e+00" height="4.402812e+01" vector-effect="non-scaling-stroke"/><rect x="1.242573e+02" y="0" width="7.485380e+00" height="4.403070e+01" vector-effect="non-scaling-stroke"/><rect x="1.455906e+02" y="0" width="7.485380e+00" height="4.401793e+01" vector-effect="non-scaling-stroke"/><rect height="4.400016e+01" vector-effect="non-scaling-stroke" x="1.669240e+02" y="0" width="7.485380e+00"/><rect vector-effect="non-scaling-stroke" x="1.882573e+02" y="0" width="7.485380e+00" height="4.411097e+01"/><rect height="4.852199e+01" vector-effect="non-scaling-stroke" x="2.095906e+02" y="0" width="7.485380e+00"/><rect width="7.485380e+00" height="4.403505e+01" vector-effect="non-scaling-stroke" x="2.309240e+02" y="0"/><rect height="4.413886e+01" vector-effect="non-scaling-stroke" x="2.522573e+02" y="0" width="7.485380e+00"/><rect vector-effect="non-scaling-stroke" x="2.735906e+02" y="0" width="7.485380e+00" height="4.401687e+01"/><rect x="2.949240e+02" y="0" width="7.485380e+00" height="6.862436e+01" vector-effect="non-scaling-stroke"/><rect x="3.162573e+02" y="0" width="7.485380e+00" height="4.408464e+01" vector-effect="non-scaling-stroke"/><rect vector-effect="non-scaling-stroke" x="3.589240e+02" y="0" width="7.485380e+00" height="4.410573e+01"/><rect height="5.968874e+01" vector-effect="non-scaling-stroke" x="3.802573e+02" y="0" width="7.485380e+00"/><rect vector-effect="non-scaling-stroke" x="4.229240e+02" y="0" width="7.485380e+00" height="4.400516e+01"/><rect vector-effect="non-scaling-stroke" x="4.442573e+02" y="0" width="7.485380e+00" height="4.420457e+01"/></g><g stroke-width="1px" stroke-linecap="round" stroke-linejoin="round" transform="translate(80 520 )scale(1 -1 )" fill="hsl(260, 76%, 65%)" stroke="hsl(260, 76%, 65%)"><rect x="6.774269e+01" y="0" width="7.485380e+00" height="4.412059e+01" vector-effect="non-scaling-stroke"/><rect vector-effect="non-scaling-stroke" x="8.907602e+01" y="0" width="7.485380e+00" height="4.400422e+01"/><rect height="4.402168e+01" vector-effect="non-scaling-stroke" x="1.104094e+02" y="0" width="7.485380e+00"/><rect width="7.485380e+00" height="4.408589e+01" vector-effect="non-scaling-stroke" x="1.317427e+02" y="0"/><rect x="1.530760e+02" y="0" width="7.485380e+00" height="4.719520e+01" vector-effect="non-scaling-stroke"/><rect vector-effect="non-scaling-stroke" x="1.744094e+02" y="0" width="7.485380e+00" height="4.400014e+01"/><rect vector-effect="non-scaling-stroke" x="1.957427e+02" y="0" width="7.485380e+00" height="4.407007e+01"/><rect vector-effect="non-scaling-stroke" x="2.170760e+02" y="0" width="7.485380e+00" height="4.435971e+01"/><rect height="4.403425e+01" vector-effect="non-scaling-stroke" x="2.384094e+02" y="0" width="7.485380e+00"/><rect width="7.485380e+00" height="4.412966e+01" vector-effect="non-scaling-stroke" x="2.597427e+02" y="0"/><rect width="7.485380e+00" height="4.401390e+01" vector-effect="non-scaling-stroke" x="2.810760e+02" y="0"/><rect vector-effect="non-scaling-stroke" x="3.664094e+02" y="0" width="7.485380e+00" height="4.410846e+01"/><rect y="0" width="7.485380e+00" height="1.271913e+02" vector-effect="non-scaling-stroke" x="3.877427e+02"/><rect x="4.304094e+02" y="0" width="7.485380e+00" height="4.400555e+01" vector-effect="non-scaling-stroke"/><rect vector-effect="non-scaling-stroke" x="4.517427e+02" y="0" width="7.485380e+00" height="4.794794e+01"/></g><g stroke="hsl(198, 47%, 65%)" text-anchor="start" stroke-width="1px" stroke-linecap="round" stroke-linejoin="round" font-family="sans-serif" font-weight="normal" dominant-baseline="hanging" font-size="12px" fill="hsl(198, 47%, 65%)" font-style="normal"><rect x="736" y="466" width="12" height="12" vector-effect="non-scaling-stroke"/><g fill="black" stroke="black"><text x="752" y="466" dominant-baseline="hanging" stroke="none" vector-effect="non-scaling-stroke">Golang</text></g><g dominant-baseline="hanging" fill="hsl(49, 88%, 65%)" stroke="hsl(49, 88%, 65%)" text-anchor="start" stroke-linecap="round" stroke-linejoin="round" font-family="sans-serif" font-weight="normal" font-style="normal" stroke-width="1px" font-size="12px"><rect height="12" vector-effect="non-scaling-stroke" x="736" y="484" width="12"/><g fill="black" stroke="black"><text vector-effect="non-scaling-stroke" x="752" y="484" dominant-baseline="hanging" stroke="none">Rust</text></g><g stroke-linejoin="round" font-family="sans-serif" dominant-baseline="hanging" stroke-width="1px" font-style="normal" text-anchor="start" stroke-linecap="round" stroke="hsl(260, 76%, 65%)" font-weight="normal" font-size="12px" fill="hsl(260, 76%, 65%)"><rect vector-effect="non-scaling-stroke" x="736" y="502" width="12" height="12"/><g fill="black" stroke="black"><text vector-effect="non-scaling-stroke" x="752" y="502" dominant-baseline="hanging" stroke="none">Zig</text><g dominant-baseline="hanging" font-family="sans-serif" font-size="12px" stroke-linecap="round" stroke-linejoin="round" text-anchor="start" stroke-width="2px" font-style="normal" fill="none" font-weight="normal"><rect y="80" width="640" height="440" vector-effect="non-scaling-stroke" x="80"/></g><g dominant-baseline="hanging" transform="translate(80 520 )scale(1 -1 )" stroke="black" stroke-linejoin="round" font-family="sans-serif" font-weight="normal" stroke-width="2px" font-style="normal" fill="none" stroke-linecap="round" font-size="12px" text-anchor="start"><path d="M64,0 L64,-6 M8.533333e+01,0 L8.533333e+01,-6 M1.066667e+02,0 L1.066667e+02,-6 M128,0 L128,-6 M1.493333e+02,0 L1.493333e+02,-6 M1.706667e+02,0 L1.706667e+02,-6 M192,0 L192,-6 M2.133333e+02,0 L2.133333e+02,-6 M2.346667e+02,0 L2.346667e+02,-6 M256,0 L256,-6 M2.773333e+02,0 L2.773333e+02,-6 M2.986667e+02,0 L2.986667e+02,-6 M320,0 L320,-6 M3.413333e+02,0 L3.413333e+02,-6 M3.626667e+02,0 L3.626667e+02,-6 M384,0 L384,-6 M4.053333e+02,0 L4.053333e+02,-6 M4.266667e+02,0 L4.266667e+02,-6 M448,0 L448,-6 " vector-effect="non-scaling-stroke"/></g><g dominant-baseline="hanging" transform="translate(80 520 )scale(1 1 )" fill="black" stroke="black" stroke-linecap="round" stroke-width="2px" text-anchor="middle" font-weight="normal" stroke-linejoin="round" font-family="sans-serif" font-size="12px" font-style="normal"><text vector-effect="non-scaling-stroke" x="64" y="10" dominant-baseline="hanging" stroke="none">1</text><text x="8.533333e+01" y="10" dominant-baseline="hanging" stroke="none" vector-effect="non-scaling-stroke">2</text><text x="1.066667e+02" y="10" dominant-baseline="hanging" stroke="none" vector-effect="non-scaling-stroke">3</text><text stroke="none" vector-effect="non-scaling-stroke" x="128" y="10" dominant-baseline="hanging">4</text><text stroke="none" vector-effect="non-scaling-stroke" x="1.493333e+02" y="10" dominant-baseline="hanging">5</text><text y="10" dominant-baseline="hanging" stroke="none" vector-effect="non-scaling-stroke" x="1.706667e+02">6</text><text y="10" dominant-baseline="hanging" stroke="none" vector-effect="non-scaling-stroke" x="192">7</text><text dominant-baseline="hanging" stroke="none" vector-effect="non-scaling-stroke" x="2.133333e+02" y="10">8</text><text stroke="none" vector-effect="non-scaling-stroke" x="2.346667e+02" y="10" dominant-baseline="hanging">9</text><text x="256" y="10" dominant-baseline="hanging" stroke="none" vector-effect="non-scaling-stroke">10</text><text dominant-baseline="hanging" stroke="none" vector-effect="non-scaling-stroke" x="2.773333e+02" y="10">11</text><text x="2.986667e+02" y="10" dominant-baseline="hanging" stroke="none" vector-effect="non-scaling-stroke">12</text><text dominant-baseline="hanging" stroke="none" vector-effect="non-scaling-stroke" x="320" y="10">13</text><text x="3.413333e+02" y="10" dominant-baseline="hanging" stroke="none" vector-effect="non-scaling-stroke">14</text><text vector-effect="non-scaling-stroke" x="3.626667e+02" y="10" dominant-baseline="hanging" stroke="none">15</text><text stroke="none" vector-effect="non-scaling-stroke" x="384" y="10" dominant-baseline="hanging">16</text><text stroke="none" vector-effect="non-scaling-stroke" x="4.053333e+02" y="10" dominant-baseline="hanging">17</text><text stroke="none" vector-effect="non-scaling-stroke" x="4.266667e+02" y="10" dominant-baseline="hanging">18</text><text vector-effect="non-scaling-stroke" x="448" y="10" dominant-baseline="hanging" stroke="none">19</text></g><g font-family="sans-serif" font-style="normal" transform="translate(80 520 )scale(1 1 )rotate(0 0 0 )" stroke="black" stroke-linecap="round" stroke-linejoin="round" font-weight="bold" dominant-baseline="baseline" stroke-width="2px" font-size="12px" fill="black" text-anchor="middle"><text y="-6" dominant-baseline="baseline" stroke="none" vector-effect="non-scaling-stroke" x="320">Day</text></g><g stroke-width="2px" font-size="12px" stroke="black" stroke-linejoin="round" dominant-baseline="baseline" font-family="sans-serif" font-weight="bold" font-style="normal" text-anchor="middle" transform="translate(80 520 )scale(1 -1 )" fill="black" stroke-linecap="round"><path vector-effect="non-scaling-stroke" d="M0,44 L-6,44 M0,2.060886e+02 L-6,2.060886e+02 M0,3.681773e+02 L-6,3.681773e+02 "/></g><g text-anchor="end" stroke-width="2px" font-size="12px" stroke-linecap="round" stroke-linejoin="round" font-weight="normal" stroke="black" font-style="normal" font-family="sans-serif" dominant-baseline="middle" transform="translate(80 520 )scale(1 1 )" fill="black"><text dominant-baseline="middle" stroke="none" vector-effect="non-scaling-stroke" x="-10" y="-44">0s</text><text y="-2.060886e+02" dominant-baseline="middle" stroke="none" vector-effect="non-scaling-stroke" x="-10">100ms</text><text vector-effect="non-scaling-stroke" x="-10" y="-3.681773e+02" dominant-baseline="middle" stroke="none">200ms</text></g><g font-weight="bold" dominant-baseline="hanging" stroke="black" text-anchor="middle" font-size="12px" font-family="sans-serif" stroke-linejoin="round" transform="translate(80 520 )scale(1 1 )rotate(-90 0 0 )" fill="black" font-style="normal" stroke-width="2px" stroke-linecap="round"><text stroke="none" vector-effect="non-scaling-stroke" x="220" y="6" dominant-baseline="hanging">Runtime</text></g></g></g></g></g></svg>