<svg height="600" viewbox="0 0 800 600" preserveAspectRatio="xMidYMid meet" xmlns="http://www.w3.org/2000/svg" width="800"><defs><marker markerWidth="2%" markerHeight="2%" id="circle" viewBox="0 0 10 10 " refX="5" refY="5" markerUnits="userSpaceOnUse"><circle cy="5" r="3" fill="none" stroke="black" cx="5"/></marker><marker refY="5" markerUnits="userSpaceOnUse" markerWidth="2%" markerHeight="2%" id="filled-circle" viewBox="0 0 10 10 " refX="5"><circle fill="black" stroke="none" cx="5" cy="5" r="3"/></marker><marker markerHeight="2%" id="square" viewBox="0 0 10 10 " refX="5" refY="5" markerUnits="userSpaceOnUse" markerWidth="2%"><rect x="2" y="2" width="6" height="6" fill="none" stroke="black"/></marker><marker refX="5" refY="5" markerUnits="userSpaceOnUse" markerWidth="2%" markerHeight="2%" id="filled-square" viewBox="0 0 10 10 "><rect y="2" width="6" height="6" fill="black" stroke="none" x="2"/></marker></defs><g stroke-width="1px" stroke-linecap="round" stroke-linejoin="round" transform="translate(80 520 )scale(1 -1 )" fill="hsl(198, 47%, 65%)" stroke="hsl(198, 47%, 65%)"><rect height="4.432046e+01" vector-effect="non-scaling-stroke" x="3.650000e+01" y="0" width="1.833333e+01"/><rect x="5.783333e+01" y="0" width="1.833333e+01" height="3.269573e+02" vector-effect="non-scaling-stroke"/><rect height="4.568665e+01" vector-effect="non-scaling-stroke" x="7.916667e+01" y="0" width="1.833333e+01"/><rect height="1.119387e+02" vector-effect="non-scaling-stroke" x="1.005000e+02" y="0" width="1.833333e+01"/><rect vector-effect="non-scaling-stroke" x="1.218333e+02" y="0" width="1.833333e+01" height="4.527785e+01"/><rect width="1.833333e+01" height="4.457066e+01" vector-effect="non-scaling-stroke" x="1.431667e+02" y="0"/></g><g stroke-linecap="round" stroke-linejoin="round" transform="translate(80 520 )scale(1 -1 )" fill="hsl(49, 88%, 65%)" stroke="hsl(49, 88%, 65%)" stroke-width="1px"><rect height="4.416216e+01" vector-effect="non-scaling-stroke" x="5.483333e+01" y="0" width="1.833333e+01"/><rect vector-effect="non-scaling-stroke" x="7.616667e+01" y="0" width="1.833333e+01" height="396"/><rect height="4.501873e+01" vector-effect="non-scaling-stroke" x="9.750000e+01" y="0" width="1.833333e+01"/><rect y="0" width="1.833333e+01" height="5.120911e+01" vector-effect="non-scaling-stroke" x="1.188333e+02"/><rect vector-effect="non-scaling-stroke" x="1.401667e+02" y="0" width="1.833333e+01" height="4.628371e+01"/><rect y="0" width="1.833333e+01" height="4.438767e+01" vector-effect="non-scaling-stroke" x="1.615000e+02"/></g><g stroke-width="1px" stroke-linecap="round" stroke-linejoin="round" transform="translate(80 520 )scale(1 -1 )" fill="hsl(260, 76%, 65%)" stroke="hsl(260, 76%, 65%)"><rect width="1.833333e+01" height="4.416834e+01" vector-effect="non-scaling-stroke" x="7.316667e+01" y="0"/><rect x="9.450000e+01" y="0" width="1.833333e+01" height="2.239032e+02" vector-effect="non-scaling-stroke"/><rect height="4.470181e+01" vector-effect="non-scaling-stroke" x="1.158333e+02" y="0" width="1.833333e+01"/><rect x="1.371667e+02" y="0" width="1.833333e+01" height="5.228081e+01" vector-effect="non-scaling-stroke"/><rect vector-effect="non-scaling-stroke" x="1.585000e+02" y="0" width="1.833333e+01" height="4.510883e+01"/><rect width="1.833333e+01" height="4.432239e+01" vector-effect="non-scaling-stroke" x="1.798333e+02" y="0"/></g><g text-anchor="start" stroke="hsl(198, 47%, 65%)" font-weight="normal" dominant-baseline="hanging" stroke-linecap="round" stroke-linejoin="round" font-size="12px" stroke-width="1px" fill="hsl(198, 47%, 65%)" font-family="sans-serif" font-style="normal"><rect width="12" height="12" vector-effect="non-scaling-stroke" x="736" y="466"/><g fill="black" stroke="black"><text stroke="none" vector-effect="non-scaling-stroke" x="752" y="466" dominant-baseline="hanging">Golang</text></g><g font-size="12px" text-anchor="start" stroke="hsl(49, 88%, 65%)" stroke-width="1px" font-weight="normal" dominant-baseline="hanging" fill="hsl(49, 88%, 65%)" font-style="normal" stroke-linecap="round" stroke-linejoin="round" font-family="sans-serif"><rect height="12" vector-effect="non-scaling-stroke" x="736" y="484" width="12"/><g stroke="black" fill="black"><text x="752" y="484" dominant-baseline="hanging" stroke="none" vector-effect="non-scaling-stroke">Rust</text></g><g fill="hsl(260, 76%, 65%)" font-family="sans-serif" font-size="12px" font-style="normal" stroke="hsl(260, 76%, 65%)" font-weight="normal" dominant-baseline="hanging" stroke-linecap="round" stroke-linejoin="round" text-anchor="start" stroke-width="1px"><rect height="12" vector-effect="non-scaling-stroke" x="736" y="502" width="12"/><g stroke="black" fill="black"><text vector-effect="non-scaling-stroke" x="752" y="502" dominant-baseline="hanging" stroke="none">Zig</text><g font-family="sans-serif" font-weight="normal" font-size="12px" font-style="normal" text-anchor="start" stroke-width="2px" fill="none" dominant-baseline="hanging" stroke-linecap="round" stroke-linejoin="round"><rect x="80" y="80" width="640" height="440" vector-effect="non-scaling-stroke"/></g><g stroke-linejoin="round" font-size="12px" text-anchor="start" font-weight="normal" transform="translate(80 520 )scale(1 -1 )" fill="none" stroke-linecap="round" font-family="sans-serif" font-style="normal" stroke="black" stroke-width="2px" dominant-baseline="hanging"><path vector-effect="non-scaling-stroke" d="M64,0 L64,-6 M8.533333e+01,0 L8.533333e+01,-6 M1.066667e+02,0 L1.066667e+02,-6 M128,0 L128,-6 M1.493333e+02,0 L1.493333e+02,-6 M1.706667e+02,0 L1.706667e+02,-6 "/></g><g fill="black" stroke-linecap="round" stroke-linejoin="round" font-size="12px" font-style="normal" stroke="black" stroke-width="2px" font-family="sans-serif" text-anchor="middle" font-weight="normal" dominant-baseline="hanging" transform="translate(80 520 )scale(1 1 )"><text y="10" dominant-baseline="hanging" stroke="none" vector-effect="non-scaling-stroke" x="64">1</text><text dominant-baseline="hanging" stroke="none" vector-effect="non-scaling-stroke" x="8.533333e+01" y="10">2</text><text stroke="none" vector-effect="non-scaling-stroke" x="1.066667e+02" y="10" dominant-baseline="hanging">3</text><text stroke="none" vector-effect="non-scaling-stroke" x="128" y="10" dominant-baseline="hanging">4</text><text vector-effect="non-scaling-stroke" x="1.493333e+02" y="10" dominant-baseline="hanging" stroke="none">5</text><text stroke="none" vector-effect="non-scaling-stroke" x="1.706667e+02" y="10" dominant-baseline="hanging">6</text></g><g fill="black" stroke-linecap="round" font-family="sans-serif" font-size="12px" text-anchor="middle" font-weight="bold" dominant-baseline="baseline" stroke-linejoin="round" font-style="normal" stroke="black" stroke-width="2px" transform="translate(80 520 )scale(1 1 )rotate(0 0 0 )"><text vector-effect="non-scaling-stroke" x="320" y="-6" dominant-baseline="baseline" stroke="none">Day</text></g><g font-family="sans-serif" font-size="12px" stroke="black" transform="translate(80 520 )scale(1 -1 )" fill="black" font-style="normal" text-anchor="middle" stroke-width="2px" font-weight="bold" dominant-baseline="baseline" stroke-linecap="round" stroke-linejoin="round"><path vector-effect="non-scaling-stroke" d="M0,44 L-6,44 M0,2.101119e+02 L-6,2.101119e+02 M0,3.762239e+02 L-6,3.762239e+02 "/></g><g font-weight="normal" fill="black" font-size="12px" text-anchor="end" stroke="black" dominant-baseline="middle" transform="translate(80 520 )scale(1 1 )" stroke-linecap="round" stroke-linejoin="round" font-family="sans-serif" font-style="normal" stroke-width="2px"><text dominant-baseline="middle" stroke="none" vector-effect="non-scaling-stroke" x="-10" y="-44">0s</text><text x="-10" y="-2.101119e+02" dominant-baseline="middle" stroke="none" vector-effect="non-scaling-stroke">10ms</text><text stroke="none" vector-effect="non-scaling-stroke" x="-10" y="-3.762239e+02" dominant-baseline="middle">20ms</text></g><g font-style="normal" stroke="black" dominant-baseline="hanging" transform="translate(80 520 )scale(1 1 )rotate(-90 0 0 )" fill="black" stroke-linecap="round" text-anchor="middle" stroke-width="2px" font-weight="bold" stroke-linejoin="round" font-family="sans-serif" font-size="12px"><text dominant-baseline="hanging" stroke="none" vector-effect="non-scaling-stroke" x="220" y="6">Runtime</text></g></g></g></g></g></svg>