<svg viewbox="0 0 800 600" preserveAspectRatio="xMidYMid meet" xmlns="http://www.w3.org/2000/svg" width="800" height="600"><defs><marker refY="5" markerUnits="userSpaceOnUse" markerWidth="2%" markerHeight="2%" id="circle" viewBox="0 0 10 10 " refX="5"><circle cy="5" r="3" fill="none" stroke="black" cx="5"/></marker><marker refX="5" refY="5" markerUnits="userSpaceOnUse" markerWidth="2%" markerHeight="2%" id="filled-circle" viewBox="0 0 10 10 "><circle fill="black" stroke="none" cx="5" cy="5" r="3"/></marker><marker refY="5" markerUnits="userSpaceOnUse" markerWidth="2%" markerHeight="2%" id="square" viewBox="0 0 10 10 " refX="5"><rect y="2" width="6" height="6" fill="none" stroke="black" x="2"/></marker><marker markerHeight="2%" id="filled-square" viewBox="0 0 10 10 " refX="5" refY="5" markerUnits="userSpaceOnUse" markerWidth="2%"><rect y="2" width="6" height="6" fill="black" stroke="none" x="2"/></marker></defs><g stroke-linecap="round" stroke-linejoin="round" transform="translate(80 520 )scale(1 -1 )" fill="hsl(198, 47%, 65%)" stroke="hsl(198, 47%, 65%)" stroke-width="1px"><rect height="4.423525e+01" vector-effect="non-scaling-stroke" x="5.214815e+01" y="0" width="1.185185e+01"/><rect width="1.185185e+01" height="4.423326e+01" vector-effect="non-scaling-stroke" x="7.348148e+01" y="0"/><rect y="0" width="1.185185e+01" height="4.414482e+01" vector-effect="non-scaling-stroke" x="9.481481e+01"/><rect width="1.185185e+01" height="4.533401e+01" vector-effect="non-scaling-stroke" x="1.161481e+02" y="0"/><rect x="1.374815e+02" y="0" width="1.185185e+01" height="4.414970e+01" vector-effect="non-scaling-stroke"/><rect x="1.588148e+02" y="0" width="1.185185e+01" height="396" vector-effect="non-scaling-stroke"/><rect x="1.801481e+02" y="0" width="1.185185e+01" height="1.265206e+02" vector-effect="non-scaling-stroke"/><rect height="4.403414e+01" vector-effect="non-scaling-stroke" x="2.014815e+02" y="0" width="1.185185e+01"/><rect y="0" width="1.185185e+01" height="4.626741e+01" vector-effect="non-scaling-stroke" x="2.228148e+02"/><rect x="2.441481e+02" y="0" width="1.185185e+01" height="4.622438e+01" vector-effect="non-scaling-stroke"/><rect x="2.654815e+02" y="0" width="1.185185e+01" height="5.078807e+01" vector-effect="non-scaling-stroke"/><rect height="4.690133e+01" vector-effect="non-scaling-stroke" x="2.868148e+02" y="0" width="1.185185e+01"/><rect vector-effect="non-scaling-stroke" x="3.081481e+02" y="0" width="1.185185e+01" height="4.403436e+01"/><rect width="1.185185e+01" height="7.156957e+01" vector-effect="non-scaling-stroke" x="3.294815e+02" y="0"/><rect width="1.185185e+01" height="4.723968e+01" vector-effect="non-scaling-stroke" x="3.508148e+02" y="0"/><rect width="1.185185e+01" height="1.121467e+02" vector-effect="non-scaling-stroke" x="3.721481e+02" y="0"/><rect vector-effect="non-scaling-stroke" x="3.934815e+02" y="0" width="1.185185e+01" height="4.411462e+01"/><rect vector-effect="non-scaling-stroke" x="4.148148e+02" y="0" width="1.185185e+01" height="4.501693e+01"/></g><g fill="hsl(49, 88%, 65%)" stroke="hsl(49, 88%, 65%)" stroke-width="1px" stroke-linecap="round" stroke-linejoin="round" transform="translate(80 520 )scale(1 -1 )"><rect width="1.185185e+01" height="4.422948e+01" vector-effect="non-scaling-stroke" x="64" y="0"/><rect y="0" width="1.185185e+01" height="4.421116e+01" vector-effect="non-scaling-stroke" x="8.533333e+01"/><rect x="1.066667e+02" y="0" width="1.185185e+01" height="4.404346e+01" vector-effect="non-scaling-stroke"/><rect y="0" width="1.185185e+01" height="4.622662e+01" vector-effect="non-scaling-stroke" x="128"/><rect x="1.493333e+02" y="0" width="1.185185e+01" height="4.408438e+01" vector-effect="non-scaling-stroke"/><rect vector-effect="non-scaling-stroke" x="1.706667e+02" y="0" width="1.185185e+01" height="3.114004e+02"/><rect width="1.185185e+01" height="1.275011e+02" vector-effect="non-scaling-stroke" x="192" y="0"/><rect vector-effect="non-scaling-stroke" x="2.133333e+02" y="0" width="1.185185e+01" height="4.401625e+01"/><rect x="2.346667e+02" y="0" width="1.185185e+01" height="4.690768e+01" vector-effect="non-scaling-stroke"/><rect height="4.418291e+01" vector-effect="non-scaling-stroke" x="256" y="0" width="1.185185e+01"/><rect height="4.918509e+01" vector-effect="non-scaling-stroke" x="2.773333e+02" y="0" width="1.185185e+01"/><rect width="1.185185e+01" height="4.621178e+01" vector-effect="non-scaling-stroke" x="2.986667e+02" y="0"/><rect x="320" y="0" width="1.185185e+01" height="4.402768e+01" vector-effect="non-scaling-stroke"/><rect vector-effect="non-scaling-stroke" x="3.413333e+02" y="0" width="1.185185e+01" height="6.266067e+01"/><rect vector-effect="non-scaling-stroke" x="3.626667e+02" y="0" width="1.185185e+01" height="5.329766e+01"/><rect x="384" y="0" width="1.185185e+01" height="9.482237e+01" vector-effect="non-scaling-stroke"/><rect width="1.185185e+01" height="4.487092e+01" vector-effect="non-scaling-stroke" x="4.053333e+02" y="0"/><rect y="0" width="1.185185e+01" height="4.460063e+01" vector-effect="non-scaling-stroke" x="4.266667e+02"/></g><g fill="hsl(198, 47%, 65%)" text-anchor="start" stroke="hsl(198, 47%, 65%)" stroke-width="1px" font-family="sans-serif" font-size="12px" dominant-baseline="hanging" stroke-linecap="round" stroke-linejoin="round" font-style="normal" font-weight="normal"><rect width="12" height="12" vector-effect="non-scaling-stroke" x="736" y="484"/><g fill="black" stroke="black"><text y="484" dominant-baseline="hanging" stroke="none" vector-effect="non-scaling-stroke" x="752">Golang</text></g><g font-style="normal" font-family="sans-serif" font-size="12px" stroke-linecap="round" stroke-linejoin="round" font-weight="normal" text-anchor="start" stroke="hsl(49, 88%, 65%)" stroke-width="1px" dominant-baseline="hanging" fill="hsl(49, 88%, 65%)"><rect x="736" y="502" width="12" height="12" vector-effect="non-scaling-stroke"/><g stroke="black" fill="black"><text x="752" y="502" dominant-baseline="hanging" stroke="none" vector-effect="non-scaling-stroke">Rust</text><g font-weight="normal" stroke-linecap="round" font-style="normal" text-anchor="start" fill="none" stroke-linejoin="round" dominant-baseline="hanging" stroke-width="2px" font-family="sans-serif" font-size="12px"><rect x="80" y="80" width="640" height="440" vector-effect="non-scaling-stroke"/></g><g stroke-width="2px" font-family="sans-serif" font-style="normal" text-anchor="start" stroke-linecap="round" font-size="12px" transform="translate(80 520 )scale(1 -1 )" stroke="black" font-weight="normal" fill="none" stroke-linejoin="round" dominant-baseline="hanging"><path vector-effect="non-scaling-stroke" d="M64,0 L64,-6 M8.533333e+01,0 L8.533333e+01,-6 M1.066667e+02,0 L1.066667e+02,-6 M128,0 L128,-6 M1.493333e+02,0 L1.493333e+02,-6 M1.706667e+02,0 L1.706667e+02,-6 M192,0 L192,-6 M2.133333e+02,0 L2.133333e+02,-6 M2.346667e+02,0 L2.346667e+02,-6 M256,0 L256,-6 M2.773333e+02,0 L2.773333e+02,-6 M2.986667e+02,0 L2.986667e+02,-6 M320,0 L320,-6 M3.413333e+02,0 L3.413333e+02,-6 M3.626667e+02,0 L3.626667e+02,-6 M384,0 L384,-6 M4.053333e+02,0 L4.053333e+02,-6 M4.266667e+02,0 L4.266667e+02,-6 "/></g><g fill="black" dominant-baseline="hanging" font-style="normal" transform="translate(80 520 )scale(1 1 )" font-family="sans-serif" font-weight="normal" text-anchor="middle" stroke-linecap="round" stroke-linejoin="round" font-size="12px" stroke="black" stroke-width="2px"><text y="10" dominant-baseline="hanging" stroke="none" vector-effect="non-scaling-stroke" x="64">1</text><text dominant-baseline="hanging" stroke="none" vector-effect="non-scaling-stroke" x="8.533333e+01" y="10">2</text><text dominant-baseline="hanging" stroke="none" vector-effect="non-scaling-stroke" x="1.066667e+02" y="10">3</text><text dominant-baseline="hanging" stroke="none" vector-effect="non-scaling-stroke" x="128" y="10">4</text><text vector-effect="non-scaling-stroke" x="1.493333e+02" y="10" dominant-baseline="hanging" stroke="none">5</text><text y="10" dominant-baseline="hanging" stroke="none" vector-effect="non-scaling-stroke" x="1.706667e+02">6</text><text x="192" y="10" dominant-baseline="hanging" stroke="none" vector-effect="non-scaling-stroke">7</text><text stroke="none" vector-effect="non-scaling-stroke" x="2.133333e+02" y="10" dominant-baseline="hanging">8</text><text stroke="none" vector-effect="non-scaling-stroke" x="2.346667e+02" y="10" dominant-baseline="hanging">9</text><text stroke="none" vector-effect="non-scaling-stroke" x="256" y="10" dominant-baseline="hanging">10</text><text stroke="none" vector-effect="non-scaling-stroke" x="2.773333e+02" y="10" dominant-baseline="hanging">11</text><text x="2.986667e+02" y="10" dominant-baseline="hanging" stroke="none" vector-effect="non-scaling-stroke">12</text><text stroke="none" vector-effect="non-scaling-stroke" x="320" y="10" dominant-baseline="hanging">13</text><text dominant-baseline="hanging" stroke="none" vector-effect="non-scaling-stroke" x="3.413333e+02" y="10">14</text><text x="3.626667e+02" y="10" dominant-baseline="hanging" stroke="none" vector-effect="non-scaling-stroke">15</text><text vector-effect="non-scaling-stroke" x="384" y="10" dominant-baseline="hanging" stroke="none">16</text><text x="4.053333e+02" y="10" dominant-baseline="hanging" stroke="none" vector-effect="non-scaling-stroke">17</text><text vector-effect="non-scaling-stroke" x="4.266667e+02" y="10" dominant-baseline="hanging" stroke="none">18</text></g><g font-weight="bold" transform="translate(80 520 )scale(1 1 )rotate(0 0 0 )" stroke="black" fill="black" stroke-linecap="round" dominant-baseline="baseline" font-family="sans-serif" font-style="normal" text-anchor="middle" stroke-width="2px" stroke-linejoin="round" font-size="12px"><text stroke="none" vector-effect="non-scaling-stroke" x="320" y="-6" dominant-baseline="baseline">Day</text></g><g stroke-linecap="round" stroke-linejoin="round" font-style="normal" font-weight="bold" text-anchor="middle" transform="translate(80 520 )scale(1 -1 )" font-family="sans-serif" stroke="black" stroke-width="2px" font-size="12px" dominant-baseline="baseline" fill="black"><path vector-effect="non-scaling-stroke" d="M0,44 L-6,44 M0,9.307912e+01 L-6,9.307912e+01 M0,1.421582e+02 L-6,1.421582e+02 M0,1.912374e+02 L-6,1.912374e+02 M0,2.403165e+02 L-6,2.403165e+02 M0,2.893956e+02 L-6,2.893956e+02 M0,3.384747e+02 L-6,3.384747e+02 M0,3.875538e+02 L-6,3.875538e+02 "/></g><g stroke-width="2px" fill="black" stroke-linecap="round" transform="translate(80 520 )scale(1 1 )" stroke="black" font-style="normal" font-weight="normal" text-anchor="end" stroke-linejoin="round" font-size="12px" dominant-baseline="middle" font-family="sans-serif"><text y="-44" dominant-baseline="middle" stroke="none" vector-effect="non-scaling-stroke" x="-10">0s</text><text stroke="none" vector-effect="non-scaling-stroke" x="-10" y="-9.307912e+01" dominant-baseline="middle">10ms</text><text stroke="none" vector-effect="non-scaling-stroke" x="-10" y="-1.421582e+02" dominant-baseline="middle">20ms</text><text x="-10" y="-1.912374e+02" dominant-baseline="middle" stroke="none" vector-effect="non-scaling-stroke">30ms</text><text y="-2.403165e+02" dominant-baseline="middle" stroke="none" vector-effect="non-scaling-stroke" x="-10">40ms</text><text stroke="none" vector-effect="non-scaling-stroke" x="-10" y="-2.893956e+02" dominant-baseline="middle">50ms</text><text stroke="none" vector-effect="non-scaling-stroke" x="-10" y="-3.384747e+02" dominant-baseline="middle">60ms</text><text stroke="none" vector-effect="non-scaling-stroke" x="-10" y="-3.875538e+02" dominant-baseline="middle">70ms</text></g><g stroke-linejoin="round" transform="translate(80 520 )scale(1 1 )rotate(-90 0 0 )" stroke="black" font-family="sans-serif" font-weight="bold" text-anchor="middle" stroke-linecap="round" font-size="12px" dominant-baseline="hanging" stroke-width="2px" font-style="normal" fill="black"><text stroke="none" vector-effect="non-scaling-stroke" x="220" y="6" dominant-baseline="hanging">Runtime</text></g></g></g></g></svg>