<svg viewbox="0 0 800 600" preserveAspectRatio="xMidYMid meet" xmlns="http://www.w3.org/2000/svg" width="800" height="600"><defs><marker markerUnits="userSpaceOnUse" markerWidth="2%" markerHeight="2%" id="circle" viewBox="0 0 10 10 " refX="5" refY="5"><circle cx="5" cy="5" r="3" fill="none" stroke="black"/></marker><marker refX="5" refY="5" markerUnits="userSpaceOnUse" markerWidth="2%" markerHeight="2%" id="filled-circle" viewBox="0 0 10 10 "><circle stroke="none" cx="5" cy="5" r="3" fill="black"/></marker><marker refY="5" markerUnits="userSpaceOnUse" markerWidth="2%" markerHeight="2%" id="square" viewBox="0 0 10 10 " refX="5"><rect height="6" fill="none" stroke="black" x="2" y="2" width="6"/></marker><marker viewBox="0 0 10 10 " refX="5" refY="5" markerUnits="userSpaceOnUse" markerWidth="2%" markerHeight="2%" id="filled-square"><rect height="6" fill="black" stroke="none" x="2" y="2" width="6"/></marker></defs><g stroke="hsl(198, 47%, 65%)" stroke-width="1px" stroke-linecap="round" stroke-linejoin="round" transform="translate(80 520 )scale(1 -1 )" fill="hsl(198, 47%, 65%)"><rect vector-effect="non-scaling-stroke" x="3.650000e+01" y="0" width="2.750000e+01" height="8.562038e+01"/><rect width="2.750000e+01" height="8.087589e+01" vector-effect="non-scaling-stroke" x="5.783333e+01" y="0"/><rect x="7.916667e+01" y="0" width="2.750000e+01" height="6.689459e+01" vector-effect="non-scaling-stroke"/><rect width="2.750000e+01" height="2.548904e+02" vector-effect="non-scaling-stroke" x="1.005000e+02" y="0"/><rect height="2.315939e+02" vector-effect="non-scaling-stroke" x="1.218333e+02" y="0" width="2.750000e+01"/></g><g stroke-width="1px" stroke-linecap="round" stroke-linejoin="round" transform="translate(80 520 )scale(1 -1 )" fill="hsl(49, 88%, 65%)" stroke="hsl(49, 88%, 65%)"><rect x="64" y="0" width="2.750000e+01" height="8.135616e+01" vector-effect="non-scaling-stroke"/><rect x="8.533333e+01" y="0" width="2.750000e+01" height="7.590485e+01" vector-effect="non-scaling-stroke"/><rect vector-effect="non-scaling-stroke" x="1.066667e+02" y="0" width="2.750000e+01" height="5.023573e+01"/><rect x="128" y="0" width="2.750000e+01" height="396" vector-effect="non-scaling-stroke"/></g><g fill="hsl(198, 47%, 65%)" stroke-width="1px" stroke-linecap="round" stroke-linejoin="round" font-style="normal" stroke="hsl(198, 47%, 65%)" font-family="sans-serif" font-size="12px" font-weight="normal" text-anchor="start" dominant-baseline="hanging"><rect width="12" height="12" vector-effect="non-scaling-stroke" x="736" y="484"/><g fill="black" stroke="black"><text dominant-baseline="hanging" stroke="none" vector-effect="non-scaling-stroke" x="752" y="484">Golang</text></g><g font-style="normal" font-family="sans-serif" font-size="12px" fill="hsl(49, 88%, 65%)" stroke-width="1px" stroke-linecap="round" stroke-linejoin="round" stroke="hsl(49, 88%, 65%)" dominant-baseline="hanging" font-weight="normal" text-anchor="start"><rect x="736" y="502" width="12" height="12" vector-effect="non-scaling-stroke"/><g fill="black" stroke="black"><text x="752" y="502" dominant-baseline="hanging" stroke="none" vector-effect="non-scaling-stroke">Rust</text><g font-size="12px" font-weight="normal" text-anchor="start" font-style="normal" font-family="sans-serif" stroke-width="2px" stroke-linecap="round" fill="none" stroke-linejoin="round" dominant-baseline="hanging"><rect y="80" width="640" height="440" vector-effect="non-scaling-stroke" x="80"/></g><g stroke-linecap="round" stroke-linejoin="round" stroke="black" fill="none" stroke-width="2px" font-style="normal" font-weight="normal" transform="translate(80 520 )scale(1 -1 )" font-family="sans-serif" font-size="12px" text-anchor="start" dominant-baseline="hanging"><path vector-effect="non-scaling-stroke" d="M64,0 L64,-6 M8.533333e+01,0 L8.533333e+01,-6 M1.066667e+02,0 L1.066667e+02,-6 M128,0 L128,-6 M1.493333e+02,0 L1.493333e+02,-6 "/></g><g text-anchor="middle" dominant-baseline="hanging" stroke-width="2px" font-size="12px" stroke-linecap="round" font-weight="normal" fill="black" transform="translate(80 520 )scale(1 1 )" stroke="black" font-family="sans-serif" stroke-linejoin="round" font-style="normal"><text dominant-baseline="hanging" stroke="none" vector-effect="non-scaling-stroke" x="64" y="10">1</text><text y="10" dominant-baseline="hanging" stroke="none" vector-effect="non-scaling-stroke" x="8.533333e+01">2</text><text vector-effect="non-scaling-stroke" x="1.066667e+02" y="10" dominant-baseline="hanging" stroke="none">3</text><text y="10" dominant-baseline="hanging" stroke="none" vector-effect="non-scaling-stroke" x="128">4</text><text y="10" dominant-baseline="hanging" stroke="none" vector-effect="non-scaling-stroke" x="1.493333e+02">5</text></g><g stroke="black" font-family="sans-serif" fill="black" stroke-linejoin="round" font-style="normal" text-anchor="middle" font-size="12px" stroke-width="2px" stroke-linecap="round" font-weight="bold" dominant-baseline="baseline" transform="translate(80 520 )scale(1 1 )rotate(0 0 0 )"><text y="-6" dominant-baseline="baseline" stroke="none" vector-effect="non-scaling-stroke" x="320">Day</text></g><g dominant-baseline="baseline" fill="black" stroke="black" font-family="sans-serif" font-style="normal" stroke-width="2px" stroke-linecap="round" stroke-linejoin="round" transform="translate(80 520 )scale(1 -1 )" font-size="12px" font-weight="bold" text-anchor="middle"><path vector-effect="non-scaling-stroke" d="M0,44 L-6,44 M0,1.215877e+02 L-6,1.215877e+02 M0,1.991755e+02 L-6,1.991755e+02 M0,2.767632e+02 L-6,2.767632e+02 M0,3.543509e+02 L-6,3.543509e+02 "/></g><g fill="black" stroke-linecap="round" font-weight="normal" font-size="12px" transform="translate(80 520 )scale(1 1 )" stroke="black" font-family="sans-serif" dominant-baseline="middle" stroke-width="2px" stroke-linejoin="round" font-style="normal" text-anchor="end"><text stroke="none" vector-effect="non-scaling-stroke" x="-10" y="-44" dominant-baseline="middle">0s</text><text dominant-baseline="middle" stroke="none" vector-effect="non-scaling-stroke" x="-10" y="-1.215877e+02">100µs</text><text y="-1.991755e+02" dominant-baseline="middle" stroke="none" vector-effect="non-scaling-stroke" x="-10">200µs</text><text x="-10" y="-2.767632e+02" dominant-baseline="middle" stroke="none" vector-effect="non-scaling-stroke">300µs</text><text vector-effect="non-scaling-stroke" x="-10" y="-3.543509e+02" dominant-baseline="middle" stroke="none">400µs</text></g><g stroke-linejoin="round" font-style="normal" transform="translate(80 520 )scale(1 1 )rotate(-90 0 0 )" font-family="sans-serif" font-size="12px" font-weight="bold" text-anchor="middle" dominant-baseline="hanging" fill="black" stroke-width="2px" stroke-linecap="round" stroke="black"><text stroke="none" vector-effect="non-scaling-stroke" x="220" y="6" dominant-baseline="hanging">Runtime</text></g></g></g></g></svg>