<svg height="600" viewbox="0 0 800 600" preserveAspectRatio="xMidYMid meet" xmlns="http://www.w3.org/2000/svg" width="800"><defs><marker viewBox="0 0 10 10 " refX="5" refY="5" markerUnits="userSpaceOnUse" markerWidth="2%" markerHeight="2%" id="circle"><circle r="3" fill="none" stroke="black" cx="5" cy="5"/></marker><marker markerHeight="2%" id="filled-circle" viewBox="0 0 10 10 " refX="5" refY="5" markerUnits="userSpaceOnUse" markerWidth="2%"><circle cy="5" r="3" fill="black" stroke="none" cx="5"/></marker><marker viewBox="0 0 10 10 " refX="5" refY="5" markerUnits="userSpaceOnUse" markerWidth="2%" markerHeight="2%" id="square"><rect height="6" fill="none" stroke="black" x="2" y="2" width="6"/></marker><marker markerHeight="2%" id="filled-square" viewBox="0 0 10 10 " refX="5" refY="5" markerUnits="userSpaceOnUse" markerWidth="2%"><rect width="6" height="6" fill="black" stroke="none" x="2" y="2"/></marker></defs><g stroke="hsl(198, 47%, 65%)" stroke-width="1px" stroke-linecap="round" stroke-linejoin="round" transform="translate(80 520 )scale(1 -1 )" fill="hsl(198, 47%, 65%)"><rect height="396" vector-effect="non-scaling-stroke" x="3.650000e+01" y="0" width="1.833333e+01"/><rect y="0" width="1.833333e+01" height="5.725043e+01" vector-effect="non-scaling-stroke" x="5.783333e+01"/></g><g stroke="hsl(49, 88%, 65%)" stroke-width="1px" stroke-linecap="round" stroke-linejoin="round" transform="translate(80 520 )scale(1 -1 )" fill="hsl(49, 88%, 65%)"><rect vector-effect="non-scaling-stroke" x="5.483333e+01" y="0" width="1.833333e+01" height="2.163614e+02"/></g><g stroke="hsl(260, 76%, 65%)" stroke-width="1px" stroke-linecap="round" stroke-linejoin="round" transform="translate(80 520 )scale(1 -1 )" fill="hsl(260, 76%, 65%)"><rect vector-effect="non-scaling-stroke" x="7.316667e+01" y="0" width="1.833333e+01" height="1.815823e+02"/></g><g dominant-baseline="hanging" font-size="12px" stroke-linecap="round" stroke-linejoin="round" font-style="normal" font-weight="normal" fill="hsl(198, 47%, 65%)" stroke-width="1px" text-anchor="start" stroke="hsl(198, 47%, 65%)" font-family="sans-serif"><rect width="12" height="12" vector-effect="non-scaling-stroke" x="736" y="466"/><g fill="black" stroke="black"><text vector-effect="non-scaling-stroke" x="752" y="466" dominant-baseline="hanging" stroke="none">Golang</text></g><g dominant-baseline="hanging" stroke-width="1px" font-size="12px" stroke-linecap="round" font-style="normal" stroke-linejoin="round" font-weight="normal" fill="hsl(49, 88%, 65%)" font-family="sans-serif" text-anchor="start" stroke="hsl(49, 88%, 65%)"><rect width="12" height="12" vector-effect="non-scaling-stroke" x="736" y="484"/><g fill="black" stroke="black"><text x="752" y="484" dominant-baseline="hanging" stroke="none" vector-effect="non-scaling-stroke">Rust</text></g><g stroke-linecap="round" font-weight="normal" stroke-width="1px" stroke-linejoin="round" font-style="normal" text-anchor="start" dominant-baseline="hanging" fill="hsl(260, 76%, 65%)" stroke="hsl(260, 76%, 65%)" font-family="sans-serif" font-size="12px"><rect vector-effect="non-scaling-stroke" x="736" y="502" width="12" height="12"/><g fill="black" stroke="black"><text y="502" dominant-baseline="hanging" stroke="none" vector-effect="non-scaling-stroke" x="752">Zig</text><g font-style="normal" stroke-linejoin="round" fill="none" stroke-linecap="round" font-weight="normal" font-family="sans-serif" text-anchor="start" font-size="12px" dominant-baseline="hanging" stroke-width="2px"><rect height="440" vector-effect="non-scaling-stroke" x="80" y="80" width="640"/></g><g font-style="normal" transform="translate(80 520 )scale(1 -1 )" font-size="12px" dominant-baseline="hanging" fill="none" stroke-linejoin="round" text-anchor="start" stroke="black" stroke-width="2px" font-family="sans-serif" font-weight="normal" stroke-linecap="round"><path vector-effect="non-scaling-stroke" d="M64,0 L64,-6 M8.533333e+01,0 L8.533333e+01,-6 "/></g><g font-weight="normal" transform="translate(80 520 )scale(1 1 )" stroke="black" font-style="normal" dominant-baseline="hanging" stroke-width="2px" font-size="12px" stroke-linecap="round" stroke-linejoin="round" text-anchor="middle" fill="black" font-family="sans-serif"><text y="10" dominant-baseline="hanging" stroke="none" vector-effect="non-scaling-stroke" x="64">1</text><text x="8.533333e+01" y="10" dominant-baseline="hanging" stroke="none" vector-effect="non-scaling-stroke">2</text></g><g dominant-baseline="baseline" fill="black" stroke-width="2px" stroke-linejoin="round" text-anchor="middle" stroke-linecap="round" font-family="sans-serif" font-size="12px" font-weight="bold" font-style="normal" transform="translate(80 520 )scale(1 1 )rotate(0 0 0 )" stroke="black"><text dominant-baseline="baseline" stroke="none" vector-effect="non-scaling-stroke" x="320" y="-6">Day</text></g><g stroke="black" font-family="sans-serif" dominant-baseline="baseline" fill="black" text-anchor="middle" transform="translate(80 520 )scale(1 -1 )" font-style="normal" stroke-width="2px" font-size="12px" font-weight="bold" stroke-linecap="round" stroke-linejoin="round"><path vector-effect="non-scaling-stroke" d="M0,44 L-6,44 M0,8.114726e+01 L-6,8.114726e+01 M0,1.182945e+02 L-6,1.182945e+02 M0,1.554418e+02 L-6,1.554418e+02 M0,1.925890e+02 L-6,1.925890e+02 M0,2.297363e+02 L-6,2.297363e+02 M0,2.668836e+02 L-6,2.668836e+02 M0,3.040308e+02 L-6,3.040308e+02 M0,3.411781e+02 L-6,3.411781e+02 M0,3.783253e+02 L-6,3.783253e+02 "/></g><g transform="translate(80 520 )scale(1 1 )" font-family="sans-serif" font-weight="normal" dominant-baseline="middle" stroke="black" stroke-linecap="round" stroke-linejoin="round" fill="black" stroke-width="2px" font-size="12px" font-style="normal" text-anchor="end"><text vector-effect="non-scaling-stroke" x="-10" y="-44" dominant-baseline="middle" stroke="none">0s</text><text stroke="none" vector-effect="non-scaling-stroke" x="-10" y="-8.114726e+01" dominant-baseline="middle">20µs</text><text y="-1.182945e+02" dominant-baseline="middle" stroke="none" vector-effect="non-scaling-stroke" x="-10">40µs</text><text dominant-baseline="middle" stroke="none" vector-effect="non-scaling-stroke" x="-10" y="-1.554418e+02">60µs</text><text x="-10" y="-1.925890e+02" dominant-baseline="middle" stroke="none" vector-effect="non-scaling-stroke">80µs</text><text dominant-baseline="middle" stroke="none" vector-effect="non-scaling-stroke" x="-10" y="-2.297363e+02">100µs</text><text stroke="none" vector-effect="non-scaling-stroke" x="-10" y="-2.668836e+02" dominant-baseline="middle">120µs</text><text y="-3.040308e+02" dominant-baseline="middle" stroke="none" vector-effect="non-scaling-stroke" x="-10">140µs</text><text x="-10" y="-3.411781e+02" dominant-baseline="middle" stroke="none" vector-effect="non-scaling-stroke">160µs</text><text x="-10" y="-3.783253e+02" dominant-baseline="middle" stroke="none" vector-effect="non-scaling-stroke">180µs</text></g><g stroke="black" text-anchor="middle" fill="black" font-family="sans-serif" font-weight="bold" dominant-baseline="hanging" stroke-linecap="round" stroke-linejoin="round" font-style="normal" transform="translate(80 520 )scale(1 1 )rotate(-90 0 0 )" stroke-width="2px" font-size="12px"><text dominant-baseline="hanging" stroke="none" vector-effect="non-scaling-stroke" x="220" y="6">Runtime</text></g></g></g></g></g></svg>