<svg height="600" viewbox="0 0 800 600" preserveAspectRatio="xMidYMid meet" xmlns="http://www.w3.org/2000/svg" width="800"><defs><marker viewBox="0 0 10 10 " refX="5" refY="5" markerUnits="userSpaceOnUse" markerWidth="2%" markerHeight="2%" id="circle"><circle cx="5" cy="5" r="3" fill="none" stroke="black"/></marker><marker markerWidth="2%" markerHeight="2%" id="filled-circle" viewBox="0 0 10 10 " refX="5" refY="5" markerUnits="userSpaceOnUse"><circle cy="5" r="3" fill="black" stroke="none" cx="5"/></marker><marker id="square" viewBox="0 0 10 10 " refX="5" refY="5" markerUnits="userSpaceOnUse" markerWidth="2%" markerHeight="2%"><rect fill="none" stroke="black" x="2" y="2" width="6" height="6"/></marker><marker refX="5" refY="5" markerUnits="userSpaceOnUse" markerWidth="2%" markerHeight="2%" id="filled-square" viewBox="0 0 10 10 "><rect y="2" width="6" height="6" fill="black" stroke="none" x="2"/></marker></defs><g stroke="hsl(198, 47%, 65%)" stroke-width="1px" stroke-linecap="round" stroke-linejoin="round" transform="translate(80 520 )scale(1 -1 )" fill="hsl(198, 47%, 65%)"><rect x="3.650000e+01" y="0" width="1.833333e+01" height="396" vector-effect="non-scaling-stroke"/><rect vector-effect="non-scaling-stroke" x="5.783333e+01" y="0" width="1.833333e+01" height="5.556620e+01"/><rect x="7.916667e+01" y="0" width="1.833333e+01" height="9.394572e+01" vector-effect="non-scaling-stroke"/></g><g fill="hsl(49, 88%, 65%)" stroke="hsl(49, 88%, 65%)" stroke-width="1px" stroke-linecap="round" stroke-linejoin="round" transform="translate(80 520 )scale(1 -1 )"><rect vector-effect="non-scaling-stroke" x="5.483333e+01" y="0" width="1.833333e+01" height="2.199848e+02"/><rect width="1.833333e+01" height="4.854190e+01" vector-effect="non-scaling-stroke" x="7.616667e+01" y="0"/><rect x="9.750000e+01" y="0" width="1.833333e+01" height="9.159986e+01" vector-effect="non-scaling-stroke"/></g><g stroke="hsl(260, 76%, 65%)" stroke-width="1px" stroke-linecap="round" stroke-linejoin="round" transform="translate(80 520 )scale(1 -1 )" fill="hsl(260, 76%, 65%)"><rect height="1.844746e+02" vector-effect="non-scaling-stroke" x="7.316667e+01" y="0" width="1.833333e+01"/><rect height="4.890411e+01" vector-effect="non-scaling-stroke" x="9.450000e+01" y="0" width="1.833333e+01"/><rect width="1.833333e+01" height="8.128719e+01" vector-effect="non-scaling-stroke" x="1.158333e+02" y="0"/></g><g stroke-width="1px" dominant-baseline="hanging" text-anchor="start" stroke-linecap="round" stroke-linejoin="round" font-style="normal" fill="hsl(198, 47%, 65%)" stroke="hsl(198, 47%, 65%)" font-weight="normal" font-family="sans-serif" font-size="12px"><rect x="736" y="466" width="12" height="12" vector-effect="non-scaling-stroke"/><g stroke="black" fill="black"><text dominant-baseline="hanging" stroke="none" vector-effect="non-scaling-stroke" x="752" y="466">Golang</text></g><g stroke-linecap="round" stroke="hsl(49, 88%, 65%)" stroke-linejoin="round" font-family="sans-serif" font-weight="normal" stroke-width="1px" dominant-baseline="hanging" fill="hsl(49, 88%, 65%)" font-size="12px" font-style="normal" text-anchor="start"><rect y="484" width="12" height="12" vector-effect="non-scaling-stroke" x="736"/><g fill="black" stroke="black"><text stroke="none" vector-effect="non-scaling-stroke" x="752" y="484" dominant-baseline="hanging">Rust</text></g><g stroke-linejoin="round" font-family="sans-serif" font-style="normal" fill="hsl(260, 76%, 65%)" stroke-width="1px" dominant-baseline="hanging" stroke-linecap="round" stroke="hsl(260, 76%, 65%)" font-weight="normal" text-anchor="start" font-size="12px"><rect x="736" y="502" width="12" height="12" vector-effect="non-scaling-stroke"/><g fill="black" stroke="black"><text stroke="none" vector-effect="non-scaling-stroke" x="752" y="502" dominant-baseline="hanging">Zig</text><g font-family="sans-serif" text-anchor="start" font-size="12px" fill="none" stroke-linejoin="round" dominant-baseline="hanging" font-weight="normal" stroke-linecap="round" stroke-width="2px" font-style="normal"><rect vector-effect="non-scaling-stroke" x="80" y="80" width="640" height="440"/></g><g fill="none" stroke-width="2px" dominant-baseline="hanging" transform="translate(80 520 )scale(1 -1 )" font-weight="normal" text-anchor="start" stroke="black" stroke-linecap="round" stroke-linejoin="round" font-family="sans-serif" font-size="12px" font-style="normal"><path vector-effect="non-scaling-stroke" d="M64,0 L64,-6 M8.533333e+01,0 L8.533333e+01,-6 M1.066667e+02,0 L1.066667e+02,-6 "/></g><g stroke-linecap="round" font-family="sans-serif" font-style="normal" font-weight="normal" text-anchor="middle" fill="black" stroke-width="2px" dominant-baseline="hanging" transform="translate(80 520 )scale(1 1 )" stroke-linejoin="round" font-size="12px" stroke="black"><text dominant-baseline="hanging" stroke="none" vector-effect="non-scaling-stroke" x="64" y="10">1</text><text x="8.533333e+01" y="10" dominant-baseline="hanging" stroke="none" vector-effect="non-scaling-stroke">2</text><text vector-effect="non-scaling-stroke" x="1.066667e+02" y="10" dominant-baseline="hanging" stroke="none">3</text></g><g font-weight="bold" fill="black" dominant-baseline="baseline" transform="translate(80 520 )scale(1 1 )rotate(0 0 0 )" text-anchor="middle" font-size="12px" font-family="sans-serif" font-style="normal" stroke="black" stroke-width="2px" stroke-linecap="round" stroke-linejoin="round"><text stroke="none" vector-effect="non-scaling-stroke" x="320" y="-6" dominant-baseline="baseline">Day</text></g><g stroke-linejoin="round" font-family="sans-serif" font-size="12px" fill="black" dominant-baseline="baseline" stroke-linecap="round" font-weight="bold" text-anchor="middle" transform="translate(80 520 )scale(1 -1 )" stroke="black" stroke-width="2px" font-style="normal"><path vector-effect="non-scaling-stroke" d="M0,44 L-6,44 M0,8.192817e+01 L-6,8.192817e+01 M0,1.198563e+02 L-6,1.198563e+02 M0,1.577845e+02 L-6,1.577845e+02 M0,1.957127e+02 L-6,1.957127e+02 M0,2.336409e+02 L-6,2.336409e+02 M0,2.715690e+02 L-6,2.715690e+02 M0,3.094972e+02 L-6,3.094972e+02 M0,3.474254e+02 L-6,3.474254e+02 M0,3.853536e+02 L-6,3.853536e+02 "/></g><g text-anchor="end" stroke="black" dominant-baseline="middle" transform="translate(80 520 )scale(1 1 )" fill="black" font-family="sans-serif" font-style="normal" font-weight="normal" stroke-linecap="round" stroke-width="2px" stroke-linejoin="round" font-size="12px"><text vector-effect="non-scaling-stroke" x="-10" y="-44" dominant-baseline="middle" stroke="none">0s</text><text stroke="none" vector-effect="non-scaling-stroke" x="-10" y="-8.192817e+01" dominant-baseline="middle">20µs</text><text dominant-baseline="middle" stroke="none" vector-effect="non-scaling-stroke" x="-10" y="-1.198563e+02">40µs</text><text vector-effect="non-scaling-stroke" x="-10" y="-1.577845e+02" dominant-baseline="middle" stroke="none">60µs</text><text vector-effect="non-scaling-stroke" x="-10" y="-1.957127e+02" dominant-baseline="middle" stroke="none">80µs</text><text stroke="none" vector-effect="non-scaling-stroke" x="-10" y="-2.336409e+02" dominant-baseline="middle">100µs</text><text y="-2.715690e+02" dominant-baseline="middle" stroke="none" vector-effect="non-scaling-stroke" x="-10">120µs</text><text y="-3.094972e+02" dominant-baseline="middle" stroke="none" vector-effect="non-scaling-stroke" x="-10">140µs</text><text y="-3.474254e+02" dominant-baseline="middle" stroke="none" vector-effect="non-scaling-stroke" x="-10">160µs</text><text dominant-baseline="middle" stroke="none" vector-effect="non-scaling-stroke" x="-10" y="-3.853536e+02">180µs</text></g><g stroke-linejoin="round" font-size="12px" font-style="normal" text-anchor="middle" stroke-linecap="round" dominant-baseline="hanging" transform="translate(80 520 )scale(1 1 )rotate(-90 0 0 )" fill="black" font-family="sans-serif" font-weight="bold" stroke="black" stroke-width="2px"><text stroke="none" vector-effect="non-scaling-stroke" x="220" y="6" dominant-baseline="hanging">Runtime</text></g></g></g></g></g></svg>