<svg preserveAspectRatio="xMidYMid meet" xmlns="http://www.w3.org/2000/svg" width="800" height="600" viewbox="0 0 800 600"><defs><marker refY="5" markerUnits="userSpaceOnUse" markerWidth="2%" markerHeight="2%" id="circle" viewBox="0 0 10 10 " refX="5"><circle r="3" fill="none" stroke="black" cx="5" cy="5"/></marker><marker markerWidth="2%" markerHeight="2%" id="filled-circle" viewBox="0 0 10 10 " refX="5" refY="5" markerUnits="userSpaceOnUse"><circle fill="black" stroke="none" cx="5" cy="5" r="3"/></marker><marker markerHeight="2%" id="square" viewBox="0 0 10 10 " refX="5" refY="5" markerUnits="userSpaceOnUse" markerWidth="2%"><rect height="6" fill="none" stroke="black" x="2" y="2" width="6"/></marker><marker viewBox="0 0 10 10 " refX="5" refY="5" markerUnits="userSpaceOnUse" markerWidth="2%" markerHeight="2%" id="filled-square"><rect stroke="none" x="2" y="2" width="6" height="6" fill="black"/></marker></defs><g stroke-linecap="round" stroke-linejoin="round" transform="translate(80 520 )scale(1 -1 )" fill="hsl(198, 47%, 65%)" stroke="hsl(198, 47%, 65%)" stroke-width="1px"><rect y="0" width="1.777778e+01" height="4.441257e+01" vector-effect="non-scaling-stroke" x="4.622222e+01"/><rect x="6.755556e+01" y="0" width="1.777778e+01" height="4.411410e+01" vector-effect="non-scaling-stroke"/><rect y="0" width="1.777778e+01" height="4.525135e+01" vector-effect="non-scaling-stroke" x="8.888889e+01"/><rect vector-effect="non-scaling-stroke" x="1.102222e+02" y="0" width="1.777778e+01" height="4.450511e+01"/><rect x="1.315556e+02" y="0" width="1.777778e+01" height="4.430672e+01" vector-effect="non-scaling-stroke"/><rect y="0" width="1.777778e+01" height="4.480381e+01" vector-effect="non-scaling-stroke" x="1.528889e+02"/><rect vector-effect="non-scaling-stroke" x="1.742222e+02" y="0" width="1.777778e+01" height="4.462087e+01"/><rect x="1.955556e+02" y="0" width="1.777778e+01" height="6.071526e+01" vector-effect="non-scaling-stroke"/><rect vector-effect="non-scaling-stroke" x="2.168889e+02" y="0" width="1.777778e+01" height="5.379807e+01"/><rect vector-effect="non-scaling-stroke" x="2.382222e+02" y="0" width="1.777778e+01" height="4.404087e+01"/><rect height="396" vector-effect="non-scaling-stroke" x="2.595556e+02" y="0" width="1.777778e+01"/><rect y="0" width="1.777778e+01" height="5.970408e+01" vector-effect="non-scaling-stroke" x="2.808889e+02"/></g><g fill="hsl(49, 88%, 65%)" stroke="hsl(49, 88%, 65%)" stroke-width="1px" stroke-linecap="round" stroke-linejoin="round" transform="translate(80 520 )scale(1 -1 )"><rect vector-effect="non-scaling-stroke" x="64" y="0" width="1.777778e+01" height="4.418676e+01"/><rect width="1.777778e+01" height="4.402739e+01" vector-effect="non-scaling-stroke" x="8.533333e+01" y="0"/><rect height="4.494503e+01" vector-effect="non-scaling-stroke" x="1.066667e+02" y="0" width="1.777778e+01"/><rect height="4.432235e+01" vector-effect="non-scaling-stroke" x="128" y="0" width="1.777778e+01"/><rect vector-effect="non-scaling-stroke" x="1.493333e+02" y="0" width="1.777778e+01" height="4.424934e+01"/><rect vector-effect="non-scaling-stroke" x="1.706667e+02" y="0" width="1.777778e+01" height="4.447789e+01"/><rect x="192" y="0" width="1.777778e+01" height="4.455890e+01" vector-effect="non-scaling-stroke"/><rect vector-effect="non-scaling-stroke" x="2.133333e+02" y="0" width="1.777778e+01" height="6.027557e+01"/><rect vector-effect="non-scaling-stroke" x="2.346667e+02" y="0" width="1.777778e+01" height="5.372041e+01"/><rect y="0" width="1.777778e+01" height="4.402996e+01" vector-effect="non-scaling-stroke" x="256"/><rect height="1.763100e+02" vector-effect="non-scaling-stroke" x="2.773333e+02" y="0" width="1.777778e+01"/><rect y="0" width="1.777778e+01" height="5.355796e+01" vector-effect="non-scaling-stroke" x="2.986667e+02"/></g><g font-size="12px" stroke-width="1px" stroke-linejoin="round" font-weight="normal" text-anchor="start" fill="hsl(198, 47%, 65%)" stroke-linecap="round" dominant-baseline="hanging" font-style="normal" stroke="hsl(198, 47%, 65%)" font-family="sans-serif"><rect x="736" y="484" width="12" height="12" vector-effect="non-scaling-stroke"/><g fill="black" stroke="black"><text stroke="none" vector-effect="non-scaling-stroke" x="752" y="484" dominant-baseline="hanging">Golang</text></g><g stroke-linejoin="round" fill="hsl(49, 88%, 65%)" font-size="12px" font-style="normal" stroke-width="1px" font-weight="normal" dominant-baseline="hanging" text-anchor="start" stroke="hsl(49, 88%, 65%)" stroke-linecap="round" font-family="sans-serif"><rect height="12" vector-effect="non-scaling-stroke" x="736" y="502" width="12"/><g stroke="black" fill="black"><text x="752" y="502" dominant-baseline="hanging" stroke="none" vector-effect="non-scaling-stroke">Rust</text><g font-family="sans-serif" fill="none" dominant-baseline="hanging" font-style="normal" stroke-width="2px" stroke-linejoin="round" font-weight="normal" text-anchor="start" stroke-linecap="round" font-size="12px"><rect y="80" width="640" height="440" vector-effect="non-scaling-stroke" x="80"/></g><g dominant-baseline="hanging" stroke-linecap="round" font-family="sans-serif" stroke-width="2px" font-weight="normal" text-anchor="start" fill="none" stroke="black" font-size="12px" font-style="normal" stroke-linejoin="round" transform="translate(80 520 )scale(1 -1 )"><path d="M64,0 L64,-6 M8.533333e+01,0 L8.533333e+01,-6 M1.066667e+02,0 L1.066667e+02,-6 M128,0 L128,-6 M1.493333e+02,0 L1.493333e+02,-6 M1.706667e+02,0 L1.706667e+02,-6 M192,0 L192,-6 M2.133333e+02,0 L2.133333e+02,-6 M2.346667e+02,0 L2.346667e+02,-6 M256,0 L256,-6 M2.773333e+02,0 L2.773333e+02,-6 M2.986667e+02,0 L2.986667e+02,-6 " vector-effect="non-scaling-stroke"/></g><g transform="translate(80 520 )scale(1 1 )" font-weight="normal" font-style="normal" fill="black" stroke-width="2px" stroke-linejoin="round" dominant-baseline="hanging" font-size="12px" text-anchor="middle" stroke="black" stroke-linecap="round" font-family="sans-serif"><text y="10" dominant-baseline="hanging" stroke="none" vector-effect="non-scaling-stroke" x="64">1</text><text vector-effect="non-scaling-stroke" x="8.533333e+01" y="10" dominant-baseline="hanging" stroke="none">2</text><text dominant-baseline="hanging" stroke="none" vector-effect="non-scaling-stroke" x="1.066667e+02" y="10">3</text><text stroke="none" vector-effect="non-scaling-stroke" x="128" y="10" dominant-baseline="hanging">4</text><text vector-effect="non-scaling-stroke" x="1.493333e+02" y="10" dominant-baseline="hanging" stroke="none">5</text><text dominant-baseline="hanging" stroke="none" vector-effect="non-scaling-stroke" x="1.706667e+02" y="10">6</text><text stroke="none" vector-effect="non-scaling-stroke" x="192" y="10" dominant-baseline="hanging">7</text><text dominant-baseline="hanging" stroke="none" vector-effect="non-scaling-stroke" x="2.133333e+02" y="10">8</text><text y="10" dominant-baseline="hanging" stroke="none" vector-effect="non-scaling-stroke" x="2.346667e+02">9</text><text y="10" dominant-baseline="hanging" stroke="none" vector-effect="non-scaling-stroke" x="256">10</text><text x="2.773333e+02" y="10" dominant-baseline="hanging" stroke="none" vector-effect="non-scaling-stroke">11</text><text y="10" dominant-baseline="hanging" stroke="none" vector-effect="non-scaling-stroke" x="2.986667e+02">12</text></g><g font-size="12px" stroke-width="2px" stroke-linejoin="round" font-weight="bold" stroke="black" font-family="sans-serif" fill="black" stroke-linecap="round" dominant-baseline="baseline" transform="translate(80 520 )scale(1 1 )rotate(0 0 0 )" font-style="normal" text-anchor="middle"><text stroke="none" vector-effect="non-scaling-stroke" x="320" y="-6" dominant-baseline="baseline">Day</text></g><g font-size="12px" font-style="normal" text-anchor="middle" font-weight="bold" fill="black" font-family="sans-serif" transform="translate(80 520 )scale(1 -1 )" stroke="black" stroke-linecap="round" stroke-width="2px" stroke-linejoin="round" dominant-baseline="baseline"><path vector-effect="non-scaling-stroke" d="M0,44 L-6,44 M0,9.426497e+01 L-6,9.426497e+01 M0,1.445299e+02 L-6,1.445299e+02 M0,1.947949e+02 L-6,1.947949e+02 M0,2.450599e+02 L-6,2.450599e+02 M0,2.953248e+02 L-6,2.953248e+02 M0,3.455898e+02 L-6,3.455898e+02 M0,3.958548e+02 L-6,3.958548e+02 "/></g><g font-weight="normal" dominant-baseline="middle" transform="translate(80 520 )scale(1 1 )" stroke="black" font-style="normal" stroke-width="2px" stroke-linejoin="round" text-anchor="end" fill="black" stroke-linecap="round" font-family="sans-serif" font-size="12px"><text vector-effect="non-scaling-stroke" x="-10" y="-44" dominant-baseline="middle" stroke="none">0s</text><text stroke="none" vector-effect="non-scaling-stroke" x="-10" y="-9.426497e+01" dominant-baseline="middle">2ms</text><text stroke="none" vector-effect="non-scaling-stroke" x="-10" y="-1.445299e+02" dominant-baseline="middle">4ms</text><text vector-effect="non-scaling-stroke" x="-10" y="-1.947949e+02" dominant-baseline="middle" stroke="none">6ms</text><text dominant-baseline="middle" stroke="none" vector-effect="non-scaling-stroke" x="-10" y="-2.450599e+02">8ms</text><text y="-2.953248e+02" dominant-baseline="middle" stroke="none" vector-effect="non-scaling-stroke" x="-10">10ms</text><text vector-effect="non-scaling-stroke" x="-10" y="-3.455898e+02" dominant-baseline="middle" stroke="none">12ms</text><text stroke="none" vector-effect="non-scaling-stroke" x="-10" y="-3.958548e+02" dominant-baseline="middle">14ms</text></g><g stroke-width="2px" stroke-linejoin="round" font-weight="bold" font-style="normal" text-anchor="middle" fill="black" stroke="black" dominant-baseline="hanging" font-size="12px" stroke-linecap="round" font-family="sans-serif" transform="translate(80 520 )scale(1 1 )rotate(-90 0 0 )"><text dominant-baseline="hanging" stroke="none" vector-effect="non-scaling-stroke" x="220" y="6">Runtime</text></g></g></g></g></svg>