<svg preserveAspectRatio="xMidYMid meet" xmlns="http://www.w3.org/2000/svg" width="800" height="600" viewbox="0 0 800 600"><defs><marker viewBox="0 0 10 10 " refX="5" refY="5" markerUnits="userSpaceOnUse" markerWidth="2%" markerHeight="2%" id="circle"><circle cx="5" cy="5" r="3" fill="none" stroke="black"/></marker><marker viewBox="0 0 10 10 " refX="5" refY="5" markerUnits="userSpaceOnUse" markerWidth="2%" markerHeight="2%" id="filled-circle"><circle r="3" fill="black" stroke="none" cx="5" cy="5"/></marker><marker markerHeight="2%" id="square" viewBox="0 0 10 10 " refX="5" refY="5" markerUnits="userSpaceOnUse" markerWidth="2%"><rect fill="none" stroke="black" x="2" y="2" width="6" height="6"/></marker><marker viewBox="0 0 10 10 " refX="5" refY="5" markerUnits="userSpaceOnUse" markerWidth="2%" markerHeight="2%" id="filled-square"><rect y="2" width="6" height="6" fill="black" stroke="none" x="2"/></marker></defs><g stroke-linecap="round" stroke-linejoin="round" transform="translate(80 520 )scale(1 -1 )" fill="hsl(198, 47%, 65%)" stroke="hsl(198, 47%, 65%)" stroke-width="1px"><rect width="1.939394e+01" height="4.440983e+01" vector-effect="non-scaling-stroke" x="4.460606e+01" y="0"/><rect x="6.593939e+01" y="0" width="1.939394e+01" height="4.411334e+01" vector-effect="non-scaling-stroke"/><rect vector-effect="non-scaling-stroke" x="8.727273e+01" y="0" width="1.939394e+01" height="4.524302e+01"/><rect x="1.086061e+02" y="0" width="1.939394e+01" height="4.450175e+01" vector-effect="non-scaling-stroke"/><rect vector-effect="non-scaling-stroke" x="1.299394e+02" y="0" width="1.939394e+01" height="4.430468e+01"/><rect y="0" width="1.939394e+01" height="4.479846e+01" vector-effect="non-scaling-stroke" x="1.512727e+02"/><rect width="1.939394e+01" height="4.461674e+01" vector-effect="non-scaling-stroke" x="1.726061e+02" y="0"/><rect vector-effect="non-scaling-stroke" x="1.939394e+02" y="0" width="1.939394e+01" height="6.060405e+01"/><rect vector-effect="non-scaling-stroke" x="2.152727e+02" y="0" width="1.939394e+01" height="5.373288e+01"/><rect vector-effect="non-scaling-stroke" x="2.366061e+02" y="0" width="1.939394e+01" height="4.404059e+01"/><rect x="2.579394e+02" y="0" width="1.939394e+01" height="396" vector-effect="non-scaling-stroke"/></g><g stroke-linecap="round" stroke-linejoin="round" transform="translate(80 520 )scale(1 -1 )" fill="hsl(49, 88%, 65%)" stroke="hsl(49, 88%, 65%)" stroke-width="1px"><rect width="1.939394e+01" height="4.418552e+01" vector-effect="non-scaling-stroke" x="64" y="0"/><rect vector-effect="non-scaling-stroke" x="8.533333e+01" y="0" width="1.939394e+01" height="4.402721e+01"/><rect x="1.066667e+02" y="0" width="1.939394e+01" height="4.493874e+01" vector-effect="non-scaling-stroke"/><rect y="0" width="1.939394e+01" height="4.432020e+01" vector-effect="non-scaling-stroke" x="1.280000e+02"/><rect x="1.493333e+02" y="0" width="1.939394e+01" height="4.424768e+01" vector-effect="non-scaling-stroke"/><rect vector-effect="non-scaling-stroke" x="1.706667e+02" y="0" width="1.939394e+01" height="4.447471e+01"/><rect vector-effect="non-scaling-stroke" x="192" y="0" width="1.939394e+01" height="4.455518e+01"/><rect vector-effect="non-scaling-stroke" x="2.133333e+02" y="0" width="1.939394e+01" height="6.016728e+01"/><rect x="2.346667e+02" y="0" width="1.939394e+01" height="5.365574e+01" vector-effect="non-scaling-stroke"/><rect vector-effect="non-scaling-stroke" x="256" y="0" width="1.939394e+01" height="4.402976e+01"/><rect y="0" width="1.939394e+01" height="1.754297e+02" vector-effect="non-scaling-stroke" x="2.773333e+02"/></g><g font-size="12px" stroke-linecap="round" font-family="sans-serif" text-anchor="start" stroke-width="1px" stroke="hsl(198, 47%, 65%)" font-weight="normal" dominant-baseline="hanging" fill="hsl(198, 47%, 65%)" stroke-linejoin="round" font-style="normal"><rect width="12" height="12" vector-effect="non-scaling-stroke" x="736" y="484"/><g fill="black" stroke="black"><text y="484" dominant-baseline="hanging" stroke="none" vector-effect="non-scaling-stroke" x="752">Golang</text></g><g stroke-width="1px" stroke-linecap="round" stroke-linejoin="round" font-style="normal" stroke="hsl(49, 88%, 65%)" font-weight="normal" dominant-baseline="hanging" font-family="sans-serif" text-anchor="start" fill="hsl(49, 88%, 65%)" font-size="12px"><rect height="12" vector-effect="non-scaling-stroke" x="736" y="502" width="12"/><g stroke="black" fill="black"><text x="752" y="502" dominant-baseline="hanging" stroke="none" vector-effect="non-scaling-stroke">Rust</text><g text-anchor="start" font-size="12px" font-family="sans-serif" stroke-width="2px" stroke-linecap="round" stroke-linejoin="round" font-style="normal" fill="none" font-weight="normal" dominant-baseline="hanging"><rect vector-effect="non-scaling-stroke" x="80" y="80" width="640" height="440"/></g><g stroke-linejoin="round" font-style="normal" text-anchor="start" font-size="12px" transform="translate(80 520 )scale(1 -1 )" stroke="black" stroke-width="2px" stroke-linecap="round" font-family="sans-serif" fill="none" font-weight="normal" dominant-baseline="hanging"><path vector-effect="non-scaling-stroke" d="M64,0 L64,-6 M8.533333e+01,0 L8.533333e+01,-6 M1.066667e+02,0 L1.066667e+02,-6 M128,0 L128,-6 M1.493333e+02,0 L1.493333e+02,-6 M1.706667e+02,0 L1.706667e+02,-6 M192,0 L192,-6 M2.133333e+02,0 L2.133333e+02,-6 M2.346667e+02,0 L2.346667e+02,-6 M256,0 L256,-6 M2.773333e+02,0 L2.773333e+02,-6 "/></g><g fill="black" font-weight="normal" stroke="black" stroke-linecap="round" font-style="normal" text-anchor="middle" stroke-width="2px" stroke-linejoin="round" transform="translate(80 520 )scale(1 1 )" font-size="12px" dominant-baseline="hanging" font-family="sans-serif"><text vector-effect="non-scaling-stroke" x="64" y="10" dominant-baseline="hanging" stroke="none">1</text><text vector-effect="non-scaling-stroke" x="8.533333e+01" y="10" dominant-baseline="hanging" stroke="none">2</text><text dominant-baseline="hanging" stroke="none" vector-effect="non-scaling-stroke" x="1.066667e+02" y="10">3</text><text dominant-baseline="hanging" stroke="none" vector-effect="non-scaling-stroke" x="128" y="10">4</text><text dominant-baseline="hanging" stroke="none" vector-effect="non-scaling-stroke" x="1.493333e+02" y="10">5</text><text vector-effect="non-scaling-stroke" x="1.706667e+02" y="10" dominant-baseline="hanging" stroke="none">6</text><text y="10" dominant-baseline="hanging" stroke="none" vector-effect="non-scaling-stroke" x="192">7</text><text stroke="none" vector-effect="non-scaling-stroke" x="2.133333e+02" y="10" dominant-baseline="hanging">8</text><text y="10" dominant-baseline="hanging" stroke="none" vector-effect="non-scaling-stroke" x="2.346667e+02">9</text><text vector-effect="non-scaling-stroke" x="256" y="10" dominant-baseline="hanging" stroke="none">10</text><text x="2.773333e+02" y="10" dominant-baseline="hanging" stroke="none" vector-effect="non-scaling-stroke">11</text></g><g stroke-width="2px" font-style="normal" text-anchor="middle" font-size="12px" dominant-baseline="baseline" transform="translate(80 520 )scale(1 1 )rotate(0 0 0 )" fill="black" stroke-linecap="round" stroke-linejoin="round" font-family="sans-serif" stroke="black" font-weight="bold"><text x="320" y="-6" dominant-baseline="baseline" stroke="none" vector-effect="non-scaling-stroke">Day</text></g><g text-anchor="middle" font-weight="bold" dominant-baseline="baseline" fill="black" stroke-linecap="round" stroke-linejoin="round" font-family="sans-serif" font-style="normal" stroke="black" stroke-width="2px" transform="translate(80 520 )scale(1 -1 )" font-size="12px"><path vector-effect="non-scaling-stroke" d="M0,44 L-6,44 M0,9.393054e+01 L-6,9.393054e+01 M0,1.438611e+02 L-6,1.438611e+02 M0,1.937916e+02 L-6,1.937916e+02 M0,2.437221e+02 L-6,2.437221e+02 M0,2.936527e+02 L-6,2.936527e+02 M0,3.435832e+02 L-6,3.435832e+02 M0,3.935138e+02 L-6,3.935138e+02 "/></g><g font-style="normal" text-anchor="end" dominant-baseline="middle" transform="translate(80 520 )scale(1 1 )" fill="black" font-size="12px" font-family="sans-serif" stroke="black" stroke-width="2px" stroke-linecap="round" stroke-linejoin="round" font-weight="normal"><text stroke="none" vector-effect="non-scaling-stroke" x="-10" y="-44" dominant-baseline="middle">0s</text><text stroke="none" vector-effect="non-scaling-stroke" x="-10" y="-9.393054e+01" dominant-baseline="middle">2ms</text><text y="-1.438611e+02" dominant-baseline="middle" stroke="none" vector-effect="non-scaling-stroke" x="-10">4ms</text><text stroke="none" vector-effect="non-scaling-stroke" x="-10" y="-1.937916e+02" dominant-baseline="middle">6ms</text><text stroke="none" vector-effect="non-scaling-stroke" x="-10" y="-2.437221e+02" dominant-baseline="middle">8ms</text><text y="-2.936527e+02" dominant-baseline="middle" stroke="none" vector-effect="non-scaling-stroke" x="-10">10ms</text><text vector-effect="non-scaling-stroke" x="-10" y="-3.435832e+02" dominant-baseline="middle" stroke="none">12ms</text><text vector-effect="non-scaling-stroke" x="-10" y="-3.935138e+02" dominant-baseline="middle" stroke="none">14ms</text></g><g fill="black" font-size="12px" font-family="sans-serif" text-anchor="middle" stroke-linecap="round" transform="translate(80 520 )scale(1 1 )rotate(-90 0 0 )" dominant-baseline="hanging" font-style="normal" stroke="black" stroke-width="2px" stroke-linejoin="round" font-weight="bold"><text vector-effect="non-scaling-stroke" x="220" y="6" dominant-baseline="hanging" stroke="none">Runtime</text></g></g></g></g></svg>