<svg preserveAspectRatio="xMidYMid meet" xmlns="http://www.w3.org/2000/svg" width="800" height="600" viewbox="0 0 800 600"><defs><marker markerWidth="2%" markerHeight="2%" id="circle" viewBox="0 0 10 10 " refX="5" refY="5" markerUnits="userSpaceOnUse"><circle cx="5" cy="5" r="3" fill="none" stroke="black"/></marker><marker refY="5" markerUnits="userSpaceOnUse" markerWidth="2%" markerHeight="2%" id="filled-circle" viewBox="0 0 10 10 " refX="5"><circle r="3" fill="black" stroke="none" cx="5" cy="5"/></marker><marker id="square" viewBox="0 0 10 10 " refX="5" refY="5" markerUnits="userSpaceOnUse" markerWidth="2%" markerHeight="2%"><rect stroke="black" x="2" y="2" width="6" height="6" fill="none"/></marker><marker refY="5" markerUnits="userSpaceOnUse" markerWidth="2%" markerHeight="2%" id="filled-square" viewBox="0 0 10 10 " refX="5"><rect fill="black" stroke="none" x="2" y="2" width="6" height="6"/></marker></defs><g fill="hsl(198, 47%, 65%)" stroke="hsl(198, 47%, 65%)" stroke-width="1px" stroke-linecap="round" stroke-linejoin="round" transform="translate(80 520 )scale(1 -1 )"><rect vector-effect="non-scaling-stroke" x="5.546667e+01" y="0" width="3.413333e+00" height="4.410585e+01"/><rect height="4.402472e+01" vector-effect="non-scaling-stroke" x="7.680000e+01" y="0" width="3.413333e+00"/><rect vector-effect="non-scaling-stroke" x="9.813333e+01" y="0" width="3.413333e+00" height="4.405754e+01"/></g><g transform="translate(80 520 )scale(1 -1 )" fill="hsl(49, 88%, 65%)" stroke="hsl(49, 88%, 65%)" stroke-width="1px" stroke-linecap="round" stroke-linejoin="round"><rect x="5.888000e+01" y="0" width="3.413333e+00" height="4.403052e+01" vector-effect="non-scaling-stroke"/><rect width="3.413333e+00" height="4.400044e+01" vector-effect="non-scaling-stroke" x="8.021333e+01" y="0"/><rect x="1.015467e+02" y="0" width="3.413333e+00" height="4.401220e+01" vector-effect="non-scaling-stroke"/><rect height="4.406251e+01" vector-effect="non-scaling-stroke" x="1.228800e+02" y="0" width="3.413333e+00"/><rect height="4.508927e+01" vector-effect="non-scaling-stroke" x="1.442133e+02" y="0" width="3.413333e+00"/><rect vector-effect="non-scaling-stroke" x="1.655467e+02" y="0" width="3.413333e+00" height="4.400051e+01"/><rect width="3.413333e+00" height="4.402498e+01" vector-effect="non-scaling-stroke" x="1.868800e+02" y="0"/><rect y="0" width="3.413333e+00" height="4.413281e+01" vector-effect="non-scaling-stroke" x="2.082133e+02"/><rect y="0" width="3.413333e+00" height="4.427518e+01" vector-effect="non-scaling-stroke" x="2.295467e+02"/><rect height="4.400682e+01" vector-effect="non-scaling-stroke" x="2.508800e+02" y="0" width="3.413333e+00"/><rect y="0" width="3.413333e+00" height="4.423802e+01" vector-effect="non-scaling-stroke" x="2.722133e+02"/><rect height="4.491362e+01" vector-effect="non-scaling-stroke" x="2.935467e+02" y="0" width="3.413333e+00"/><rect height="4.410464e+01" vector-effect="non-scaling-stroke" x="3.148800e+02" y="0" width="3.413333e+00"/><rect vector-effect="non-scaling-stroke" x="3.362133e+02" y="0" width="3.413333e+00" height="4.413796e+01"/><rect x="3.575467e+02" y="0" width="3.413333e+00" height="6.005092e+01" vector-effect="non-scaling-stroke"/><rect width="3.413333e+00" height="4.400500e+01" vector-effect="non-scaling-stroke" x="3.788800e+02" y="0"/><rect width="3.413333e+00" height="4.465910e+01" vector-effect="non-scaling-stroke" x="4.002133e+02" y="0"/><rect width="3.413333e+00" height="5.820003e+01" vector-effect="non-scaling-stroke" x="4.215467e+02" y="0"/><rect x="4.428800e+02" y="0" width="3.413333e+00" height="3.120484e+02" vector-effect="non-scaling-stroke"/><rect vector-effect="non-scaling-stroke" x="4.642133e+02" y="0" width="3.413333e+00" height="5.189396e+01"/><rect vector-effect="non-scaling-stroke" x="4.855467e+02" y="0" width="3.413333e+00" height="4.531949e+01"/><rect vector-effect="non-scaling-stroke" x="5.068800e+02" y="0" width="3.413333e+00" height="4.782139e+01"/><rect width="3.413333e+00" height="1.726404e+02" vector-effect="non-scaling-stroke" x="5.282133e+02" y="0"/><rect vector-effect="non-scaling-stroke" x="5.495467e+02" y="0" width="3.413333e+00" height="4.400088e+01"/><rect height="6.079170e+01" vector-effect="non-scaling-stroke" x="5.708800e+02" y="0" width="3.413333e+00"/></g><g fill="hsl(260, 76%, 65%)" stroke="hsl(260, 76%, 65%)" stroke-width="1px" stroke-linecap="round" stroke-linejoin="round" transform="translate(80 520 )scale(1 -1 )"><rect y="0" width="3.413333e+00" height="4.460048e+01" vector-effect="non-scaling-stroke" x="6.229333e+01"/><rect height="4.436391e+01" vector-effect="non-scaling-stroke" x="8.362667e+01" y="0" width="3.413333e+00"/><rect x="1.049600e+02" y="0" width="3.413333e+00" height="4.455350e+01" vector-effect="non-scaling-stroke"/></g><g transform="translate(80 520 )scale(1 -1 )" fill="hsl(111, 64%, 65%)" stroke="hsl(111, 64%, 65%)" stroke-width="1px" stroke-linecap="round" stroke-linejoin="round"><rect vector-effect="non-scaling-stroke" x="6.570667e+01" y="0" width="3.413333e+00" height="4.400900e+01"/><rect width="3.413333e+00" height="4.400042e+01" vector-effect="non-scaling-stroke" x="8.704000e+01" y="0"/><rect width="3.413333e+00" height="4.400959e+01" vector-effect="non-scaling-stroke" x="1.083733e+02" y="0"/><rect height="4.402786e+01" vector-effect="non-scaling-stroke" x="1.297067e+02" y="0" width="3.413333e+00"/><rect width="3.413333e+00" height="4.418077e+01" vector-effect="non-scaling-stroke" x="1.510400e+02" y="0"/><rect vector-effect="non-scaling-stroke" x="1.723733e+02" y="0" width="3.413333e+00" height="4.400046e+01"/><rect x="1.937067e+02" y="0" width="3.413333e+00" height="4.401162e+01" vector-effect="non-scaling-stroke"/><rect width="3.413333e+00" height="4.400836e+01" vector-effect="non-scaling-stroke" x="2.150400e+02" y="0"/><rect vector-effect="non-scaling-stroke" x="2.363733e+02" y="0" width="3.413333e+00" height="4.405064e+01"/><rect x="2.577067e+02" y="0" width="3.413333e+00" height="4.401441e+01" vector-effect="non-scaling-stroke"/><rect y="0" width="3.413333e+00" height="4.406238e+01" vector-effect="non-scaling-stroke" x="2.790400e+02"/><rect vector-effect="non-scaling-stroke" x="3.003733e+02" y="0" width="3.413333e+00" height="4.633411e+01"/><rect vector-effect="non-scaling-stroke" x="3.217067e+02" y="0" width="3.413333e+00" height="4.414147e+01"/><rect width="3.413333e+00" height="4.400797e+01" vector-effect="non-scaling-stroke" x="3.430400e+02" y="0"/><rect y="0" width="3.413333e+00" height="7.231552e+01" vector-effect="non-scaling-stroke" x="3.643733e+02"/><rect width="3.413333e+00" height="4.400316e+01" vector-effect="non-scaling-stroke" x="3.857067e+02" y="0"/><rect y="0" width="3.413333e+00" height="4.481472e+01" vector-effect="non-scaling-stroke" x="4.070400e+02"/><rect vector-effect="non-scaling-stroke" x="4.283733e+02" y="0" width="3.413333e+00" height="5.557822e+01"/><rect y="0" width="3.413333e+00" height="4.886054e+01" vector-effect="non-scaling-stroke" x="4.497067e+02"/><rect vector-effect="non-scaling-stroke" x="4.710400e+02" y="0" width="3.413333e+00" height="5.431987e+01"/><rect height="4.400057e+01" vector-effect="non-scaling-stroke" x="4.923733e+02" y="0" width="3.413333e+00"/><rect x="5.137067e+02" y="0" width="3.413333e+00" height="4.982739e+01" vector-effect="non-scaling-stroke"/><rect x="5.350400e+02" y="0" width="3.413333e+00" height="396" vector-effect="non-scaling-stroke"/><rect x="5.563733e+02" y="0" width="3.413333e+00" height="4.400479e+01" vector-effect="non-scaling-stroke"/><rect vector-effect="non-scaling-stroke" x="5.777067e+02" y="0" width="3.413333e+00" height="5.843428e+01"/></g><g stroke-linecap="round" stroke-linejoin="round" transform="translate(80 520 )scale(1 -1 )" fill="hsl(322, 52%, 65%)" stroke="hsl(322, 52%, 65%)" stroke-width="1px"><rect width="3.413333e+00" height="4.400296e+01" vector-effect="non-scaling-stroke" x="6.912000e+01" y="0"/><rect vector-effect="non-scaling-stroke" x="9.045333e+01" y="0" width="3.413333e+00" height="4.400038e+01"/><rect vector-effect="non-scaling-stroke" x="1.117867e+02" y="0" width="3.413333e+00" height="4.402434e+01"/><rect vector-effect="non-scaling-stroke" x="1.331200e+02" y="0" width="3.413333e+00" height="4.400353e+01"/><rect x="1.544533e+02" y="0" width="3.413333e+00" height="4.435914e+01" vector-effect="non-scaling-stroke"/><rect width="3.413333e+00" height="4.400023e+01" vector-effect="non-scaling-stroke" x="1.757867e+02" y="0"/><rect height="4.400545e+01" vector-effect="non-scaling-stroke" x="1.971200e+02" y="0" width="3.413333e+00"/><rect x="2.184533e+02" y="0" width="3.413333e+00" height="4.400717e+01" vector-effect="non-scaling-stroke"/><rect vector-effect="non-scaling-stroke" x="2.397867e+02" y="0" width="3.413333e+00" height="4.404485e+01"/><rect y="0" width="3.413333e+00" height="4.401297e+01" vector-effect="non-scaling-stroke" x="2.611200e+02"/><rect y="0" width="3.413333e+00" height="4.403422e+01" vector-effect="non-scaling-stroke" x="2.824533e+02"/><rect y="0" width="3.413333e+00" height="4.402396e+01" vector-effect="non-scaling-stroke" x="3.037867e+02"/><rect vector-effect="non-scaling-stroke" x="3.251200e+02" y="0" width="3.413333e+00" height="4.401710e+01"/><rect vector-effect="non-scaling-stroke" x="3.464533e+02" y="0" width="3.413333e+00" height="4.400684e+01"/><rect x="3.677867e+02" y="0" width="3.413333e+00" height="4.989453e+01" vector-effect="non-scaling-stroke"/><rect y="0" width="3.413333e+00" height="4.400209e+01" vector-effect="non-scaling-stroke" x="3.891200e+02"/><rect vector-effect="non-scaling-stroke" x="4.104533e+02" y="0" width="3.413333e+00" height="4.477508e+01"/><rect y="0" width="3.413333e+00" height="4.512840e+01" vector-effect="non-scaling-stroke" x="4.317867e+02"/><rect y="0" width="3.413333e+00" height="5.159233e+01" vector-effect="non-scaling-stroke" x="4.531200e+02"/><rect vector-effect="non-scaling-stroke" x="4.744533e+02" y="0" width="3.413333e+00" height="4.509224e+01"/><rect y="0" width="3.413333e+00" height="4.400054e+01" vector-effect="non-scaling-stroke" x="4.957867e+02"/><rect vector-effect="non-scaling-stroke" x="5.171200e+02" y="0" width="3.413333e+00" height="5.489978e+01"/><rect y="0" width="3.413333e+00" height="1.865177e+02" vector-effect="non-scaling-stroke" x="5.384533e+02"/><rect y="0" width="3.413333e+00" height="4.400028e+01" vector-effect="non-scaling-stroke" x="5.597867e+02"/><rect height="4.415068e+01" vector-effect="non-scaling-stroke" x="5.811200e+02" y="0" width="3.413333e+00"/></g><g fill="hsl(198, 47%, 65%)" stroke-linecap="round" font-size="12px" font-style="normal" dominant-baseline="hanging" stroke-width="1px" stroke-linejoin="round" font-weight="normal" stroke="hsl(198, 47%, 65%)" font-family="sans-serif" text-anchor="start"><rect vector-effect="non-scaling-stroke" x="736" y="430" width="12" height="12"/><g fill="black" stroke="black"><text stroke="none" vector-effect="non-scaling-stroke" x="752" y="430" dominant-baseline="hanging">Crystal</text></g><g font-weight="normal" stroke-width="1px" stroke-linecap="round" dominant-baseline="hanging" fill="hsl(49, 88%, 65%)" stroke-linejoin="round" font-family="sans-serif" font-size="12px" font-style="normal" text-anchor="start" stroke="hsl(49, 88%, 65%)"><rect vector-effect="non-scaling-stroke" x="736" y="448" width="12" height="12"/><g stroke="black" fill="black"><text y="448" dominant-baseline="hanging" stroke="none" vector-effect="non-scaling-stroke" x="752">Golang</text></g><g font-family="sans-serif" text-anchor="start" stroke-width="1px" stroke-linecap="round" dominant-baseline="hanging" stroke="hsl(260, 76%, 65%)" font-weight="normal" stroke-linejoin="round" font-size="12px" font-style="normal" fill="hsl(260, 76%, 65%)"><rect vector-effect="non-scaling-stroke" x="736" y="466" width="12" height="12"/><g stroke="black" fill="black"><text vector-effect="non-scaling-stroke" x="752" y="466" dominant-baseline="hanging" stroke="none">Haskell</text></g><g stroke-linejoin="round" stroke-linecap="round" stroke="hsl(111, 64%, 65%)" font-family="sans-serif" text-anchor="start" font-weight="normal" stroke-width="1px" font-size="12px" font-style="normal" dominant-baseline="hanging" fill="hsl(111, 64%, 65%)"><rect vector-effect="non-scaling-stroke" x="736" y="484" width="12" height="12"/><g fill="black" stroke="black"><text x="752" y="484" dominant-baseline="hanging" stroke="none" vector-effect="non-scaling-stroke">Rust</text></g><g stroke-width="1px" font-family="sans-serif" fill="hsl(322, 52%, 65%)" font-size="12px" font-style="normal" dominant-baseline="hanging" stroke-linejoin="round" font-weight="normal" text-anchor="start" stroke="hsl(322, 52%, 65%)" stroke-linecap="round"><rect vector-effect="non-scaling-stroke" x="736" y="502" width="12" height="12"/><g fill="black" stroke="black"><text stroke="none" vector-effect="non-scaling-stroke" x="752" y="502" dominant-baseline="hanging">Zig</text><g stroke-linecap="round" stroke-width="2px" fill="none" text-anchor="start" stroke-linejoin="round" font-family="sans-serif" font-style="normal" font-weight="normal" font-size="12px" dominant-baseline="hanging"><rect height="440" vector-effect="non-scaling-stroke" x="80" y="80" width="640"/></g><g fill="none" stroke="black" stroke-width="2px" stroke-linejoin="round" stroke-linecap="round" font-size="12px" font-style="normal" font-weight="normal" text-anchor="start" dominant-baseline="hanging" transform="translate(80 520 )scale(1 -1 )" font-family="sans-serif"><path d="M64,0 L64,-6 M8.533333e+01,0 L8.533333e+01,-6 M1.066667e+02,0 L1.066667e+02,-6 " vector-effect="non-scaling-stroke"/></g><g font-style="normal" dominant-baseline="hanging" stroke-width="2px" font-family="sans-serif" font-weight="normal" fill="black" stroke="black" stroke-linecap="round" stroke-linejoin="round" text-anchor="middle" transform="translate(80 520 )scale(1 1 )" font-size="12px"><text dominant-baseline="hanging" stroke="none" vector-effect="non-scaling-stroke" x="64" y="10">1</text><text y="10" dominant-baseline="hanging" stroke="none" vector-effect="non-scaling-stroke" x="8.533333e+01">2</text><text dominant-baseline="hanging" stroke="none" vector-effect="non-scaling-stroke" x="1.066667e+02" y="10">3</text></g><g transform="translate(80 520 )scale(1 1 )rotate(0 0 0 )" stroke-linecap="round" font-size="12px" dominant-baseline="baseline" font-weight="bold" text-anchor="middle" fill="black" stroke="black" font-style="normal" stroke-width="2px" stroke-linejoin="round" font-family="sans-serif"><text x="320" y="-6" dominant-baseline="baseline" stroke="none" vector-effect="non-scaling-stroke">Day</text></g><g transform="translate(80 520 )scale(1 -1 )" fill="black" stroke-linecap="round" font-size="12px" font-style="normal" dominant-baseline="baseline" stroke="black" stroke-width="2px" stroke-linejoin="round" font-family="sans-serif" font-weight="bold" text-anchor="middle"><path vector-effect="non-scaling-stroke" d="M0,44 L-6,44 M0,9.506087e+01 L-6,9.506087e+01 M0,1.461217e+02 L-6,1.461217e+02 M0,1.971826e+02 L-6,1.971826e+02 M0,2.482435e+02 L-6,2.482435e+02 M0,2.993044e+02 L-6,2.993044e+02 M0,3.503652e+02 L-6,3.503652e+02 "/></g><g stroke="black" stroke-linecap="round" text-anchor="end" stroke-width="2px" stroke-linejoin="round" font-style="normal" dominant-baseline="middle" fill="black" font-weight="normal" transform="translate(80 520 )scale(1 1 )" font-size="12px" font-family="sans-serif"><text stroke="none" vector-effect="non-scaling-stroke" x="-10" y="-44" dominant-baseline="middle">0s</text><text stroke="none" vector-effect="non-scaling-stroke" x="-10" y="-9.506087e+01" dominant-baseline="middle">100ms</text><text stroke="none" vector-effect="non-scaling-stroke" x="-10" y="-1.461217e+02" dominant-baseline="middle">200ms</text><text stroke="none" vector-effect="non-scaling-stroke" x="-10" y="-1.971826e+02" dominant-baseline="middle">300ms</text><text x="-10" y="-2.482435e+02" dominant-baseline="middle" stroke="none" vector-effect="non-scaling-stroke">400ms</text><text x="-10" y="-2.993044e+02" dominant-baseline="middle" stroke="none" vector-effect="non-scaling-stroke">500ms</text><text dominant-baseline="middle" stroke="none" vector-effect="non-scaling-stroke" x="-10" y="-3.503652e+02">600ms</text></g><g stroke-linejoin="round" font-family="sans-serif" font-weight="bold" font-size="12px" font-style="normal" stroke-width="2px" fill="black" stroke="black" stroke-linecap="round" dominant-baseline="hanging" transform="translate(80 520 )scale(1 1 )rotate(-90 0 0 )" text-anchor="middle"><text stroke="none" vector-effect="non-scaling-stroke" x="220" y="6" dominant-baseline="hanging">Runtime</text></g></g></g></g></g></g></g></svg>