<svg preserveAspectRatio="xMidYMid meet" xmlns="http://www.w3.org/2000/svg" width="800" height="600" viewbox="0 0 800 600"><defs><marker markerHeight="2%" id="circle" viewBox="0 0 10 10 " refX="5" refY="5" markerUnits="userSpaceOnUse" markerWidth="2%"><circle cy="5" r="3" fill="none" stroke="black" cx="5"/></marker><marker viewBox="0 0 10 10 " refX="5" refY="5" markerUnits="userSpaceOnUse" markerWidth="2%" markerHeight="2%" id="filled-circle"><circle stroke="none" cx="5" cy="5" r="3" fill="black"/></marker><marker viewBox="0 0 10 10 " refX="5" refY="5" markerUnits="userSpaceOnUse" markerWidth="2%" markerHeight="2%" id="square"><rect width="6" height="6" fill="none" stroke="black" x="2" y="2"/></marker><marker markerUnits="userSpaceOnUse" markerWidth="2%" markerHeight="2%" id="filled-square" viewBox="0 0 10 10 " refX="5" refY="5"><rect x="2" y="2" width="6" height="6" fill="black" stroke="none"/></marker></defs><g transform="translate(80 520 )scale(1 -1 )" fill="hsl(198, 47%, 65%)" stroke="hsl(198, 47%, 65%)" stroke-width="1px" stroke-linecap="round" stroke-linejoin="round"><rect height="4.403144e+01" vector-effect="non-scaling-stroke" x="4.460606e+01" y="0" width="1.292929e+01"/><rect vector-effect="non-scaling-stroke" x="6.593939e+01" y="0" width="1.292929e+01" height="4.400108e+01"/><rect width="1.292929e+01" height="4.400463e+01" vector-effect="non-scaling-stroke" x="8.727273e+01" y="0"/><rect vector-effect="non-scaling-stroke" x="1.086061e+02" y="0" width="1.292929e+01" height="4.400595e+01"/><rect height="7.476154e+02" vector-effect="non-scaling-stroke" x="1.299394e+02" y="0" width="1.292929e+01"/><rect width="1.292929e+01" height="4.400002e+01" vector-effect="non-scaling-stroke" x="1.512727e+02" y="0"/><rect height="4.406363e+01" vector-effect="non-scaling-stroke" x="1.726061e+02" y="0" width="1.292929e+01"/><rect x="1.939394e+02" y="0" width="1.292929e+01" height="4.417180e+01" vector-effect="non-scaling-stroke"/><rect vector-effect="non-scaling-stroke" x="2.152727e+02" y="0" width="1.292929e+01" height="4.401536e+01"/><rect height="4.420467e+01" vector-effect="non-scaling-stroke" x="2.366061e+02" y="0" width="1.292929e+01"/><rect vector-effect="non-scaling-stroke" x="2.579394e+02" y="0" width="1.292929e+01" height="4.404712e+01"/></g><g stroke-linecap="round" stroke-linejoin="round" transform="translate(80 520 )scale(1 -1 )" fill="hsl(49, 88%, 65%)" stroke="hsl(49, 88%, 65%)" stroke-width="1px"><rect vector-effect="non-scaling-stroke" x="5.753535e+01" y="0" width="1.292929e+01" height="4.401633e+01"/><rect height="4.400042e+01" vector-effect="non-scaling-stroke" x="7.886869e+01" y="0" width="1.292929e+01"/><rect vector-effect="non-scaling-stroke" x="1.002020e+02" y="0" width="1.292929e+01" height="4.400305e+01"/><rect vector-effect="non-scaling-stroke" x="1.215354e+02" y="0" width="1.292929e+01" height="4.400333e+01"/><rect vector-effect="non-scaling-stroke" x="1.428687e+02" y="0" width="1.292929e+01" height="4.400195e+01"/><rect width="1.292929e+01" height="4.400002e+01" vector-effect="non-scaling-stroke" x="1.642020e+02" y="0"/><rect width="1.292929e+01" height="4.449101e+01" vector-effect="non-scaling-stroke" x="2.068687e+02" y="0"/><rect x="2.282020e+02" y="0" width="1.292929e+01" height="4.400863e+01" vector-effect="non-scaling-stroke"/><rect vector-effect="non-scaling-stroke" x="2.495354e+02" y="0" width="1.292929e+01" height="4.401508e+01"/><rect width="1.292929e+01" height="4.404344e+01" vector-effect="non-scaling-stroke" x="2.708687e+02" y="0"/></g><g fill="hsl(260, 76%, 65%)" stroke="hsl(260, 76%, 65%)" stroke-width="1px" stroke-linecap="round" stroke-linejoin="round" transform="translate(80 520 )scale(1 -1 )"><rect vector-effect="non-scaling-stroke" x="7.046465e+01" y="0" width="1.292929e+01" height="4.401305e+01"/><rect y="0" width="1.292929e+01" height="4.400046e+01" vector-effect="non-scaling-stroke" x="9.179798e+01"/><rect x="1.131313e+02" y="0" width="1.292929e+01" height="4.400242e+01" vector-effect="non-scaling-stroke"/><rect vector-effect="non-scaling-stroke" x="1.344646e+02" y="0" width="1.292929e+01" height="4.400927e+01"/><rect vector-effect="non-scaling-stroke" x="1.557980e+02" y="0" width="1.292929e+01" height="4.434314e+01"/><rect x="1.771313e+02" y="0" width="1.292929e+01" height="4.400002e+01" vector-effect="non-scaling-stroke"/><rect width="1.292929e+01" height="4.400763e+01" vector-effect="non-scaling-stroke" x="1.984646e+02" y="0"/><rect height="4.403874e+01" vector-effect="non-scaling-stroke" x="2.197980e+02" y="0" width="1.292929e+01"/><rect width="1.292929e+01" height="4.400906e+01" vector-effect="non-scaling-stroke" x="2.411313e+02" y="0"/><rect vector-effect="non-scaling-stroke" x="2.624646e+02" y="0" width="1.292929e+01" height="4.401466e+01"/><rect height="4.739095e+01" vector-effect="non-scaling-stroke" x="2.837980e+02" y="0" width="1.292929e+01"/></g><g fill="hsl(198, 47%, 65%)" stroke="hsl(198, 47%, 65%)" dominant-baseline="hanging" stroke-width="1px" stroke-linecap="round" font-style="normal" stroke-linejoin="round" font-size="12px" font-family="sans-serif" font-weight="normal" text-anchor="start"><rect vector-effect="non-scaling-stroke" x="736" y="466" width="12" height="12"/><g stroke="black" fill="black"><text x="752" y="466" dominant-baseline="hanging" stroke="none" vector-effect="non-scaling-stroke">Golang</text></g><g stroke-linejoin="round" font-size="12px" stroke-linecap="round" font-family="sans-serif" font-weight="normal" fill="hsl(49, 88%, 65%)" stroke="hsl(49, 88%, 65%)" dominant-baseline="hanging" stroke-width="1px" font-style="normal" text-anchor="start"><rect y="484" width="12" height="12" vector-effect="non-scaling-stroke" x="736"/><g fill="black" stroke="black"><text x="752" y="484" dominant-baseline="hanging" stroke="none" vector-effect="non-scaling-stroke">Rust</text></g><g text-anchor="start" stroke-width="1px" stroke-linecap="round" font-size="12px" stroke-linejoin="round" font-style="normal" font-weight="normal" dominant-baseline="hanging" font-family="sans-serif" fill="hsl(260, 76%, 65%)" stroke="hsl(260, 76%, 65%)"><rect vector-effect="non-scaling-stroke" x="736" y="502" width="12" height="12"/><g stroke="black" fill="black"><text y="502" dominant-baseline="hanging" stroke="none" vector-effect="non-scaling-stroke" x="752">Zig</text><g font-weight="normal" font-size="12px" stroke-linejoin="round" stroke-linecap="round" text-anchor="start" dominant-baseline="hanging" stroke-width="2px" font-family="sans-serif" font-style="normal" fill="none"><rect vector-effect="non-scaling-stroke" x="80" y="80" width="640" height="440"/></g><g fill="none" stroke="black" stroke-linejoin="round" font-size="12px" font-weight="normal" stroke-width="2px" stroke-linecap="round" transform="translate(80 520 )scale(1 -1 )" dominant-baseline="hanging" font-family="sans-serif" font-style="normal" text-anchor="start"><path d="M64,0 L64,-6 M8.533333e+01,0 L8.533333e+01,-6 M1.066667e+02,0 L1.066667e+02,-6 M128,0 L128,-6 M1.493333e+02,0 L1.493333e+02,-6 M1.706667e+02,0 L1.706667e+02,-6 M192,0 L192,-6 M2.133333e+02,0 L2.133333e+02,-6 M2.346667e+02,0 L2.346667e+02,-6 M256,0 L256,-6 M2.773333e+02,0 L2.773333e+02,-6 " vector-effect="non-scaling-stroke"/></g><g font-weight="normal" stroke="black" stroke-linejoin="round" font-size="12px" stroke-width="2px" stroke-linecap="round" font-style="normal" fill="black" transform="translate(80 520 )scale(1 1 )" font-family="sans-serif" text-anchor="middle" dominant-baseline="hanging"><text y="10" dominant-baseline="hanging" stroke="none" vector-effect="non-scaling-stroke" x="64">1</text><text vector-effect="non-scaling-stroke" x="8.533333e+01" y="10" dominant-baseline="hanging" stroke="none">2</text><text x="1.066667e+02" y="10" dominant-baseline="hanging" stroke="none" vector-effect="non-scaling-stroke">3</text><text x="128" y="10" dominant-baseline="hanging" stroke="none" vector-effect="non-scaling-stroke">4</text><text dominant-baseline="hanging" stroke="none" vector-effect="non-scaling-stroke" x="1.493333e+02" y="10">5</text><text vector-effect="non-scaling-stroke" x="1.706667e+02" y="10" dominant-baseline="hanging" stroke="none">6</text><text vector-effect="non-scaling-stroke" x="192" y="10" dominant-baseline="hanging" stroke="none">7</text><text y="10" dominant-baseline="hanging" stroke="none" vector-effect="non-scaling-stroke" x="2.133333e+02">8</text><text vector-effect="non-scaling-stroke" x="2.346667e+02" y="10" dominant-baseline="hanging" stroke="none">9</text><text y="10" dominant-baseline="hanging" stroke="none" vector-effect="non-scaling-stroke" x="256">10</text><text y="10" dominant-baseline="hanging" stroke="none" vector-effect="non-scaling-stroke" x="2.773333e+02">11</text></g><g dominant-baseline="baseline" stroke-linejoin="round" font-size="12px" stroke-linecap="round" font-family="sans-serif" font-style="normal" text-anchor="middle" fill="black" stroke="black" transform="translate(80 520 )scale(1 1 )rotate(0 0 0 )" stroke-width="2px" font-weight="bold"><text y="-6" dominant-baseline="baseline" stroke="none" vector-effect="non-scaling-stroke" x="320">Day</text></g><g transform="translate(80 520 )scale(1 -1 )" stroke="black" font-weight="bold" text-anchor="middle" font-size="12px" fill="black" font-family="sans-serif" font-style="normal" dominant-baseline="baseline" stroke-width="2px" stroke-linecap="round" stroke-linejoin="round"><path vector-effect="non-scaling-stroke" d="M0,44 L-6,44 M0,7.920000e+01 L-6,7.920000e+01 M0,1.144000e+02 L-6,1.144000e+02 M0,1.496000e+02 L-6,1.496000e+02 M0,1.848000e+02 L-6,1.848000e+02 M0,220 L-6,220 M0,2.552000e+02 L-6,2.552000e+02 M0,2.904000e+02 L-6,2.904000e+02 M0,3.256000e+02 L-6,3.256000e+02 M0,3.608000e+02 L-6,3.608000e+02 M0,396 L-6,396 "/></g><g font-size="12px" font-weight="normal" font-family="sans-serif" font-style="normal" transform="translate(80 520 )scale(1 1 )" stroke-linejoin="round" stroke="black" text-anchor="end" dominant-baseline="middle" stroke-width="2px" stroke-linecap="round" fill="black"><text dominant-baseline="middle" stroke="none" vector-effect="non-scaling-stroke" x="-10" y="-44">0s</text><text stroke="none" vector-effect="non-scaling-stroke" x="-10" y="-7.920000e+01" dominant-baseline="middle">200ms</text><text vector-effect="non-scaling-stroke" x="-10" y="-1.144000e+02" dominant-baseline="middle" stroke="none">400ms</text><text dominant-baseline="middle" stroke="none" vector-effect="non-scaling-stroke" x="-10" y="-1.496000e+02">600ms</text><text stroke="none" vector-effect="non-scaling-stroke" x="-10" y="-1.848000e+02" dominant-baseline="middle">800ms</text><text stroke="none" vector-effect="non-scaling-stroke" x="-10" y="-220" dominant-baseline="middle">1s</text><text vector-effect="non-scaling-stroke" x="-10" y="-2.552000e+02" dominant-baseline="middle" stroke="none">1.2s</text><text vector-effect="non-scaling-stroke" x="-10" y="-2.904000e+02" dominant-baseline="middle" stroke="none">1.4s</text><text stroke="none" vector-effect="non-scaling-stroke" x="-10" y="-3.256000e+02" dominant-baseline="middle">1.6s</text><text x="-10" y="-3.608000e+02" dominant-baseline="middle" stroke="none" vector-effect="non-scaling-stroke">1.8s</text><text vector-effect="non-scaling-stroke" x="-10" y="-396" dominant-baseline="middle" stroke="none">2s</text></g><g font-weight="bold" text-anchor="middle" fill="black" stroke="black" stroke-width="2px" font-family="sans-serif" font-style="normal" stroke-linejoin="round" font-size="12px" transform="translate(80 520 )scale(1 1 )rotate(-90 0 0 )" dominant-baseline="hanging" stroke-linecap="round"><text y="6" dominant-baseline="hanging" stroke="none" vector-effect="non-scaling-stroke" x="220">Runtime</text></g></g></g></g></g></svg>