<svg viewbox="0 0 800 600" preserveAspectRatio="xMidYMid meet" xmlns="http://www.w3.org/2000/svg" width="800" height="600"><defs><marker markerWidth="2%" markerHeight="2%" id="circle" viewBox="0 0 10 10 " refX="5" refY="5" markerUnits="userSpaceOnUse"><circle cy="5" r="3" fill="none" stroke="black" cx="5"/></marker><marker refY="5" markerUnits="userSpaceOnUse" markerWidth="2%" markerHeight="2%" id="filled-circle" viewBox="0 0 10 10 " refX="5"><circle cx="5" cy="5" r="3" fill="black" stroke="none"/></marker><marker markerHeight="2%" id="square" viewBox="0 0 10 10 " refX="5" refY="5" markerUnits="userSpaceOnUse" markerWidth="2%"><rect fill="none" stroke="black" x="2" y="2" width="6" height="6"/></marker><marker markerWidth="2%" markerHeight="2%" id="filled-square" viewBox="0 0 10 10 " refX="5" refY="5" markerUnits="userSpaceOnUse"><rect x="2" y="2" width="6" height="6" fill="black" stroke="none"/></marker></defs><g transform="translate(80 520 )scale(1 -1 )" fill="hsl(198, 47%, 65%)" stroke="hsl(198, 47%, 65%)" stroke-width="1px" stroke-linecap="round" stroke-linejoin="round"><rect width="1.833333e+01" height="396" vector-effect="non-scaling-stroke" x="3.650000e+01" y="0"/><rect y="0" width="1.833333e+01" height="5.556620e+01" vector-effect="non-scaling-stroke" x="5.783333e+01"/><rect y="0" width="1.833333e+01" height="9.394572e+01" vector-effect="non-scaling-stroke" x="7.916667e+01"/></g><g stroke-linejoin="round" transform="translate(80 520 )scale(1 -1 )" fill="hsl(49, 88%, 65%)" stroke="hsl(49, 88%, 65%)" stroke-width="1px" stroke-linecap="round"><rect vector-effect="non-scaling-stroke" x="5.483333e+01" y="0" width="1.833333e+01" height="2.199848e+02"/><rect x="7.616667e+01" y="0" width="1.833333e+01" height="4.854190e+01" vector-effect="non-scaling-stroke"/><rect x="9.750000e+01" y="0" width="1.833333e+01" height="9.159986e+01" vector-effect="non-scaling-stroke"/></g><g stroke-linecap="round" stroke-linejoin="round" transform="translate(80 520 )scale(1 -1 )" fill="hsl(260, 76%, 65%)" stroke="hsl(260, 76%, 65%)" stroke-width="1px"><rect vector-effect="non-scaling-stroke" x="7.316667e+01" y="0" width="1.833333e+01" height="1.844746e+02"/><rect vector-effect="non-scaling-stroke" x="9.450000e+01" y="0" width="1.833333e+01" height="4.890411e+01"/></g><g dominant-baseline="hanging" fill="hsl(198, 47%, 65%)" stroke-width="1px" font-weight="normal" stroke="hsl(198, 47%, 65%)" font-size="12px" stroke-linejoin="round" font-family="sans-serif" text-anchor="start" stroke-linecap="round" font-style="normal"><rect vector-effect="non-scaling-stroke" x="736" y="466" width="12" height="12"/><g stroke="black" fill="black"><text x="752" y="466" dominant-baseline="hanging" stroke="none" vector-effect="non-scaling-stroke">Golang</text></g><g font-size="12px" font-style="normal" stroke="hsl(49, 88%, 65%)" stroke-width="1px" stroke-linejoin="round" font-family="sans-serif" stroke-linecap="round" dominant-baseline="hanging" font-weight="normal" text-anchor="start" fill="hsl(49, 88%, 65%)"><rect width="12" height="12" vector-effect="non-scaling-stroke" x="736" y="484"/><g stroke="black" fill="black"><text stroke="none" vector-effect="non-scaling-stroke" x="752" y="484" dominant-baseline="hanging">Rust</text></g><g font-style="normal" text-anchor="start" fill="hsl(260, 76%, 65%)" stroke-linejoin="round" font-weight="normal" stroke="hsl(260, 76%, 65%)" font-size="12px" dominant-baseline="hanging" stroke-width="1px" font-family="sans-serif" stroke-linecap="round"><rect vector-effect="non-scaling-stroke" x="736" y="502" width="12" height="12"/><g stroke="black" fill="black"><text vector-effect="non-scaling-stroke" x="752" y="502" dominant-baseline="hanging" stroke="none">Zig</text><g fill="none" font-size="12px" font-style="normal" dominant-baseline="hanging" stroke-linecap="round" stroke-linejoin="round" text-anchor="start" font-weight="normal" stroke-width="2px" font-family="sans-serif"><rect height="440" vector-effect="non-scaling-stroke" x="80" y="80" width="640"/></g><g dominant-baseline="hanging" stroke-linecap="round" font-family="sans-serif" font-weight="normal" text-anchor="start" stroke-width="2px" font-style="normal" fill="none" stroke-linejoin="round" transform="translate(80 520 )scale(1 -1 )" stroke="black" font-size="12px"><path vector-effect="non-scaling-stroke" d="M64,0 L64,-6 M8.533333e+01,0 L8.533333e+01,-6 M1.066667e+02,0 L1.066667e+02,-6 "/></g><g fill="black" stroke-linejoin="round" stroke-linecap="round" transform="translate(80 520 )scale(1 1 )" font-size="12px" font-style="normal" dominant-baseline="hanging" stroke-width="2px" font-family="sans-serif" font-weight="normal" text-anchor="middle" stroke="black"><text stroke="none" vector-effect="non-scaling-stroke" x="64" y="10" dominant-baseline="hanging">1</text><text vector-effect="non-scaling-stroke" x="8.533333e+01" y="10" dominant-baseline="hanging" stroke="none">2</text><text stroke="none" vector-effect="non-scaling-stroke" x="1.066667e+02" y="10" dominant-baseline="hanging">3</text></g><g stroke-linecap="round" font-size="12px" font-style="normal" dominant-baseline="baseline" transform="translate(80 520 )scale(1 1 )rotate(0 0 0 )" fill="black" stroke-linejoin="round" font-family="sans-serif" font-weight="bold" stroke="black" stroke-width="2px" text-anchor="middle"><text x="320" y="-6" dominant-baseline="baseline" stroke="none" vector-effect="non-scaling-stroke">Day</text></g><g fill="black" stroke-width="2px" font-weight="bold" transform="translate(80 520 )scale(1 -1 )" stroke="black" stroke-linecap="round" font-style="normal" text-anchor="middle" font-size="12px" dominant-baseline="baseline" stroke-linejoin="round" font-family="sans-serif"><path vector-effect="non-scaling-stroke" d="M0,44 L-6,44 M0,8.192817e+01 L-6,8.192817e+01 M0,1.198563e+02 L-6,1.198563e+02 M0,1.577845e+02 L-6,1.577845e+02 M0,1.957127e+02 L-6,1.957127e+02 M0,2.336409e+02 L-6,2.336409e+02 M0,2.715690e+02 L-6,2.715690e+02 M0,3.094972e+02 L-6,3.094972e+02 M0,3.474254e+02 L-6,3.474254e+02 M0,3.853536e+02 L-6,3.853536e+02 "/></g><g text-anchor="end" stroke-width="2px" transform="translate(80 520 )scale(1 1 )" font-size="12px" stroke="black" stroke-linecap="round" font-family="sans-serif" font-weight="normal" fill="black" stroke-linejoin="round" font-style="normal" dominant-baseline="middle"><text y="-44" dominant-baseline="middle" stroke="none" vector-effect="non-scaling-stroke" x="-10">0s</text><text x="-10" y="-8.192817e+01" dominant-baseline="middle" stroke="none" vector-effect="non-scaling-stroke">20µs</text><text x="-10" y="-1.198563e+02" dominant-baseline="middle" stroke="none" vector-effect="non-scaling-stroke">40µs</text><text x="-10" y="-1.577845e+02" dominant-baseline="middle" stroke="none" vector-effect="non-scaling-stroke">60µs</text><text stroke="none" vector-effect="non-scaling-stroke" x="-10" y="-1.957127e+02" dominant-baseline="middle">80µs</text><text vector-effect="non-scaling-stroke" x="-10" y="-2.336409e+02" dominant-baseline="middle" stroke="none">100µs</text><text dominant-baseline="middle" stroke="none" vector-effect="non-scaling-stroke" x="-10" y="-2.715690e+02">120µs</text><text stroke="none" vector-effect="non-scaling-stroke" x="-10" y="-3.094972e+02" dominant-baseline="middle">140µs</text><text vector-effect="non-scaling-stroke" x="-10" y="-3.474254e+02" dominant-baseline="middle" stroke="none">160µs</text><text y="-3.853536e+02" dominant-baseline="middle" stroke="none" vector-effect="non-scaling-stroke" x="-10">180µs</text></g><g font-weight="bold" transform="translate(80 520 )scale(1 1 )rotate(-90 0 0 )" stroke-linecap="round" font-style="normal" stroke-width="2px" fill="black" stroke-linejoin="round" font-family="sans-serif" stroke="black" font-size="12px" dominant-baseline="hanging" text-anchor="middle"><text vector-effect="non-scaling-stroke" x="220" y="6" dominant-baseline="hanging" stroke="none">Runtime</text></g></g></g></g></g></svg>