<svg preserveAspectRatio="xMidYMid meet" xmlns="http://www.w3.org/2000/svg" width="800" height="600" viewbox="0 0 800 600"><defs><marker viewBox="0 0 10 10 " refX="5" refY="5" markerUnits="userSpaceOnUse" markerWidth="2%" markerHeight="2%" id="circle"><circle cx="5" cy="5" r="3" fill="none" stroke="black"/></marker><marker markerUnits="userSpaceOnUse" markerWidth="2%" markerHeight="2%" id="filled-circle" viewBox="0 0 10 10 " refX="5" refY="5"><circle cy="5" r="3" fill="black" stroke="none" cx="5"/></marker><marker id="square" viewBox="0 0 10 10 " refX="5" refY="5" markerUnits="userSpaceOnUse" markerWidth="2%" markerHeight="2%"><rect height="6" fill="none" stroke="black" x="2" y="2" width="6"/></marker><marker markerUnits="userSpaceOnUse" markerWidth="2%" markerHeight="2%" id="filled-square" viewBox="0 0 10 10 " refX="5" refY="5"><rect height="6" fill="black" stroke="none" x="2" y="2" width="6"/></marker></defs><g fill="hsl(198, 47%, 65%)" stroke="hsl(198, 47%, 65%)" stroke-width="1px" stroke-linecap="round" stroke-linejoin="round" transform="translate(80 520 )scale(1 -1 )"><rect x="3.650000e+01" y="0" width="1.833333e+01" height="4.418910e+01" vector-effect="non-scaling-stroke"/><rect vector-effect="non-scaling-stroke" x="5.783333e+01" y="0" width="1.833333e+01" height="2.114597e+02"/></g><g stroke="hsl(49, 88%, 65%)" stroke-width="1px" stroke-linecap="round" stroke-linejoin="round" transform="translate(80 520 )scale(1 -1 )" fill="hsl(49, 88%, 65%)"><rect height="4.409569e+01" vector-effect="non-scaling-stroke" x="5.483333e+01" y="0" width="1.833333e+01"/></g><g transform="translate(80 520 )scale(1 -1 )" fill="hsl(260, 76%, 65%)" stroke="hsl(260, 76%, 65%)" stroke-width="1px" stroke-linecap="round" stroke-linejoin="round"><rect x="7.316667e+01" y="0" width="1.833333e+01" height="4.409934e+01" vector-effect="non-scaling-stroke"/><rect width="1.833333e+01" height="396" vector-effect="non-scaling-stroke" x="9.450000e+01" y="0"/></g><g font-family="sans-serif" font-style="normal" stroke-width="1px" font-weight="normal" text-anchor="start" dominant-baseline="hanging" fill="hsl(198, 47%, 65%)" stroke="hsl(198, 47%, 65%)" stroke-linejoin="round" font-size="12px" stroke-linecap="round"><rect height="12" vector-effect="non-scaling-stroke" x="736" y="466" width="12"/><g stroke="black" fill="black"><text vector-effect="non-scaling-stroke" x="752" y="466" dominant-baseline="hanging" stroke="none">Golang</text></g><g font-family="sans-serif" font-style="normal" text-anchor="start" stroke="hsl(49, 88%, 65%)" stroke-linejoin="round" font-size="12px" stroke-width="1px" stroke-linecap="round" font-weight="normal" dominant-baseline="hanging" fill="hsl(49, 88%, 65%)"><rect x="736" y="484" width="12" height="12" vector-effect="non-scaling-stroke"/><g fill="black" stroke="black"><text stroke="none" vector-effect="non-scaling-stroke" x="752" y="484" dominant-baseline="hanging">Rust</text></g><g fill="hsl(260, 76%, 65%)" stroke="hsl(260, 76%, 65%)" font-size="12px" stroke-width="1px" stroke-linecap="round" text-anchor="start" stroke-linejoin="round" font-family="sans-serif" font-style="normal" font-weight="normal" dominant-baseline="hanging"><rect y="502" width="12" height="12" vector-effect="non-scaling-stroke" x="736"/><g fill="black" stroke="black"><text vector-effect="non-scaling-stroke" x="752" y="502" dominant-baseline="hanging" stroke="none">Zig</text><g font-style="normal" font-weight="normal" dominant-baseline="hanging" font-size="12px" stroke-width="2px" stroke-linecap="round" stroke-linejoin="round" text-anchor="start" fill="none" font-family="sans-serif"><rect vector-effect="non-scaling-stroke" x="80" y="80" width="640" height="440"/></g><g stroke="black" stroke-width="2px" text-anchor="start" stroke-linejoin="round" font-size="12px" stroke-linecap="round" font-family="sans-serif" font-style="normal" font-weight="normal" dominant-baseline="hanging" transform="translate(80 520 )scale(1 -1 )" fill="none"><path vector-effect="non-scaling-stroke" d="M64,0 L64,-6 M8.533333e+01,0 L8.533333e+01,-6 "/></g><g stroke="black" stroke-linejoin="round" stroke-linecap="round" font-style="normal" text-anchor="middle" font-size="12px" stroke-width="2px" font-family="sans-serif" font-weight="normal" dominant-baseline="hanging" transform="translate(80 520 )scale(1 1 )" fill="black"><text stroke="none" vector-effect="non-scaling-stroke" x="64" y="10" dominant-baseline="hanging">1</text><text dominant-baseline="hanging" stroke="none" vector-effect="non-scaling-stroke" x="8.533333e+01" y="10">2</text></g><g font-weight="bold" dominant-baseline="baseline" transform="translate(80 520 )scale(1 1 )rotate(0 0 0 )" fill="black" stroke="black" stroke-linejoin="round" font-size="12px" stroke-width="2px" stroke-linecap="round" font-family="sans-serif" font-style="normal" text-anchor="middle"><text x="320" y="-6" dominant-baseline="baseline" stroke="none" vector-effect="non-scaling-stroke">Day</text></g><g fill="black" stroke="black" stroke-width="2px" font-weight="bold" text-anchor="middle" stroke-linejoin="round" font-size="12px" stroke-linecap="round" font-family="sans-serif" font-style="normal" dominant-baseline="baseline" transform="translate(80 520 )scale(1 -1 )"><path vector-effect="non-scaling-stroke" d="M0,44 L-6,44 M0,1.420220e+02 L-6,1.420220e+02 M0,2.400441e+02 L-6,2.400441e+02 M0,3.380661e+02 L-6,3.380661e+02 "/></g><g font-style="normal" text-anchor="end" transform="translate(80 520 )scale(1 1 )" fill="black" stroke-linejoin="round" stroke-width="2px" stroke-linecap="round" font-family="sans-serif" font-weight="normal" dominant-baseline="middle" stroke="black" font-size="12px"><text vector-effect="non-scaling-stroke" x="-10" y="-44" dominant-baseline="middle" stroke="none">0s</text><text stroke="none" vector-effect="non-scaling-stroke" x="-10" y="-1.420220e+02" dominant-baseline="middle">10ms</text><text x="-10" y="-2.400441e+02" dominant-baseline="middle" stroke="none" vector-effect="non-scaling-stroke">20ms</text><text stroke="none" vector-effect="non-scaling-stroke" x="-10" y="-3.380661e+02" dominant-baseline="middle">30ms</text></g><g stroke-linecap="round" font-style="normal" font-weight="bold" text-anchor="middle" dominant-baseline="hanging" transform="translate(80 520 )scale(1 1 )rotate(-90 0 0 )" stroke="black" stroke-linejoin="round" font-size="12px" stroke-width="2px" font-family="sans-serif" fill="black"><text y="6" dominant-baseline="hanging" stroke="none" vector-effect="non-scaling-stroke" x="220">Runtime</text></g></g></g></g></g></svg>