<svg preserveAspectRatio="xMidYMid meet" xmlns="http://www.w3.org/2000/svg" width="800" height="600" viewbox="0 0 800 600"><defs><marker markerWidth="2%" markerHeight="2%" id="circle" viewBox="0 0 10 10 " refX="5" refY="5" markerUnits="userSpaceOnUse"><circle cy="5" r="3" fill="none" stroke="black" cx="5"/></marker><marker markerWidth="2%" markerHeight="2%" id="filled-circle" viewBox="0 0 10 10 " refX="5" refY="5" markerUnits="userSpaceOnUse"><circle cx="5" cy="5" r="3" fill="black" stroke="none"/></marker><marker id="square" viewBox="0 0 10 10 " refX="5" refY="5" markerUnits="userSpaceOnUse" markerWidth="2%" markerHeight="2%"><rect height="6" fill="none" stroke="black" x="2" y="2" width="6"/></marker><marker id="filled-square" viewBox="0 0 10 10 " refX="5" refY="5" markerUnits="userSpaceOnUse" markerWidth="2%" markerHeight="2%"><rect height="6" fill="black" stroke="none" x="2" y="2" width="6"/></marker></defs><g fill="hsl(198, 47%, 65%)" stroke="hsl(198, 47%, 65%)" stroke-width="1px" stroke-linecap="round" stroke-linejoin="round" transform="translate(80 520 )scale(1 -1 )"><rect height="4.408139e+01" vector-effect="non-scaling-stroke" x="5.546667e+01" y="0" width="5.688889e+00"/><rect y="0" width="5.688889e+00" height="4.408196e+01" vector-effect="non-scaling-stroke" x="7.680000e+01"/><rect width="5.688889e+00" height="4.405015e+01" vector-effect="non-scaling-stroke" x="9.813333e+01" y="0"/><rect height="4.446870e+01" vector-effect="non-scaling-stroke" x="1.194667e+02" y="0" width="5.688889e+00"/><rect y="0" width="5.688889e+00" height="4.405260e+01" vector-effect="non-scaling-stroke" x="1.408000e+02"/><rect vector-effect="non-scaling-stroke" x="1.621333e+02" y="0" width="5.688889e+00" height="1.676747e+02"/><rect width="5.688889e+00" height="7.299352e+01" vector-effect="non-scaling-stroke" x="1.834667e+02" y="0"/><rect vector-effect="non-scaling-stroke" x="2.048000e+02" y="0" width="5.688889e+00" height="4.401200e+01"/><rect height="4.479665e+01" vector-effect="non-scaling-stroke" x="2.261333e+02" y="0" width="5.688889e+00"/><rect vector-effect="non-scaling-stroke" x="2.474667e+02" y="0" width="5.688889e+00" height="4.419673e+01"/><rect x="2.688000e+02" y="0" width="5.688889e+00" height="4.638498e+01" vector-effect="non-scaling-stroke"/><rect vector-effect="non-scaling-stroke" x="2.901333e+02" y="0" width="5.688889e+00" height="4.501938e+01"/><rect vector-effect="non-scaling-stroke" x="3.114667e+02" y="0" width="5.688889e+00" height="4.401207e+01"/><rect width="5.688889e+00" height="5.368653e+01" vector-effect="non-scaling-stroke" x="3.328000e+02" y="0"/><rect height="4.513826e+01" vector-effect="non-scaling-stroke" x="3.541333e+02" y="0" width="5.688889e+00"/><rect x="3.754667e+02" y="0" width="5.688889e+00" height="6.794324e+01" vector-effect="non-scaling-stroke"/><rect vector-effect="non-scaling-stroke" x="3.968000e+02" y="0" width="5.688889e+00" height="4.403368e+01"/><rect vector-effect="non-scaling-stroke" x="4.181333e+02" y="0" width="5.688889e+00" height="4.435730e+01"/><rect width="5.688889e+00" height="4.641211e+01" vector-effect="non-scaling-stroke" x="4.394667e+02" y="0"/><rect vector-effect="non-scaling-stroke" x="4.608000e+02" y="0" width="5.688889e+00" height="7.847029e+01"/><rect height="4.400010e+01" vector-effect="non-scaling-stroke" x="4.821333e+02" y="0" width="5.688889e+00"/><rect y="0" width="5.688889e+00" height="1.251727e+02" vector-effect="non-scaling-stroke" x="5.034667e+02"/><rect y="0" width="5.688889e+00" height="1.531087e+02" vector-effect="non-scaling-stroke" x="5.248000e+02"/><rect vector-effect="non-scaling-stroke" x="5.461333e+02" y="0" width="5.688889e+00" height="4.448159e+01"/><rect x="5.674667e+02" y="0" width="5.688889e+00" height="4.448066e+01" vector-effect="non-scaling-stroke"/></g><g stroke-linejoin="round" transform="translate(80 520 )scale(1 -1 )" fill="hsl(49, 88%, 65%)" stroke="hsl(49, 88%, 65%)" stroke-width="1px" stroke-linecap="round"><rect height="4.403192e+01" vector-effect="non-scaling-stroke" x="6.115556e+01" y="0" width="5.688889e+00"/><rect height="4.407419e+01" vector-effect="non-scaling-stroke" x="8.248889e+01" y="0" width="5.688889e+00"/><rect width="5.688889e+00" height="4.401527e+01" vector-effect="non-scaling-stroke" x="1.038222e+02" y="0"/><rect vector-effect="non-scaling-stroke" x="1.251556e+02" y="0" width="5.688889e+00" height="4.478232e+01"/><rect y="0" width="5.688889e+00" height="4.402965e+01" vector-effect="non-scaling-stroke" x="1.464889e+02"/><rect vector-effect="non-scaling-stroke" x="1.678222e+02" y="0" width="5.688889e+00" height="1.379508e+02"/><rect vector-effect="non-scaling-stroke" x="1.891556e+02" y="0" width="5.688889e+00" height="7.333799e+01"/><rect x="2.104889e+02" y="0" width="5.688889e+00" height="4.400571e+01" vector-effect="non-scaling-stroke"/><rect height="4.495170e+01" vector-effect="non-scaling-stroke" x="2.318222e+02" y="0" width="5.688889e+00"/><rect vector-effect="non-scaling-stroke" x="2.531556e+02" y="0" width="5.688889e+00" height="4.406728e+01"/><rect x="2.744889e+02" y="0" width="5.688889e+00" height="4.582177e+01" vector-effect="non-scaling-stroke"/><rect vector-effect="non-scaling-stroke" x="2.958222e+02" y="0" width="5.688889e+00" height="4.477711e+01"/><rect x="3.171556e+02" y="0" width="5.688889e+00" height="4.400973e+01" vector-effect="non-scaling-stroke"/><rect vector-effect="non-scaling-stroke" x="3.384889e+02" y="0" width="5.688889e+00" height="5.055640e+01"/><rect width="5.688889e+00" height="4.711601e+01" vector-effect="non-scaling-stroke" x="3.598222e+02" y="0"/><rect width="5.688889e+00" height="5.366698e+01" vector-effect="non-scaling-stroke" x="3.811556e+02" y="0"/><rect y="0" width="5.688889e+00" height="4.437240e+01" vector-effect="non-scaling-stroke" x="4.024889e+02"/><rect width="5.688889e+00" height="4.421326e+01" vector-effect="non-scaling-stroke" x="4.238222e+02" y="0"/><rect vector-effect="non-scaling-stroke" x="4.451556e+02" y="0" width="5.688889e+00" height="4.711187e+01"/><rect height="8.840898e+01" vector-effect="non-scaling-stroke" x="4.664889e+02" y="0" width="5.688889e+00"/><rect height="4.400005e+01" vector-effect="non-scaling-stroke" x="4.878222e+02" y="0" width="5.688889e+00"/><rect width="5.688889e+00" height="2.218956e+02" vector-effect="non-scaling-stroke" x="5.091556e+02" y="0"/><rect vector-effect="non-scaling-stroke" x="5.304889e+02" y="0" width="5.688889e+00" height="4.493664e+01"/><rect height="4.413517e+01" vector-effect="non-scaling-stroke" x="5.518222e+02" y="0" width="5.688889e+00"/><rect vector-effect="non-scaling-stroke" x="5.731556e+02" y="0" width="5.688889e+00" height="4.434290e+01"/></g><g fill="hsl(260, 76%, 65%)" stroke="hsl(260, 76%, 65%)" stroke-width="1px" stroke-linecap="round" stroke-linejoin="round" transform="translate(80 520 )scale(1 -1 )"><rect width="5.688889e+00" height="4.405432e+01" vector-effect="non-scaling-stroke" x="6.684444e+01" y="0"/><rect height="4.404062e+01" vector-effect="non-scaling-stroke" x="8.817778e+01" y="0" width="5.688889e+00"/><rect vector-effect="non-scaling-stroke" x="1.095111e+02" y="0" width="5.688889e+00" height="4.404221e+01"/><rect x="1.308444e+02" y="0" width="5.688889e+00" height="4.424780e+01" vector-effect="non-scaling-stroke"/><rect vector-effect="non-scaling-stroke" x="1.521778e+02" y="0" width="5.688889e+00" height="4.402243e+01"/><rect vector-effect="non-scaling-stroke" x="1.735111e+02" y="0" width="5.688889e+00" height="396"/><rect vector-effect="non-scaling-stroke" x="1.948444e+02" y="0" width="5.688889e+00" height="7.296160e+01"/><rect width="5.688889e+00" height="4.401023e+01" vector-effect="non-scaling-stroke" x="2.161778e+02" y="0"/><rect y="0" width="5.688889e+00" height="4.454160e+01" vector-effect="non-scaling-stroke" x="2.375111e+02"/><rect width="5.688889e+00" height="4.610742e+01" vector-effect="non-scaling-stroke" x="2.588444e+02" y="0"/><rect y="0" width="5.688889e+00" height="4.571518e+01" vector-effect="non-scaling-stroke" x="2.801778e+02"/><rect vector-effect="non-scaling-stroke" x="3.015111e+02" y="0" width="5.688889e+00" height="6.665981e+01"/><rect y="0" width="5.688889e+00" height="4.400824e+01" vector-effect="non-scaling-stroke" x="3.228444e+02"/><rect y="0" width="5.688889e+00" height="5.275300e+01" vector-effect="non-scaling-stroke" x="3.441778e+02"/><rect x="5.788444e+02" y="0" width="5.688889e+00" height="4.427005e+01" vector-effect="non-scaling-stroke"/></g><g stroke-linejoin="round" font-size="12px" text-anchor="start" font-style="normal" stroke-width="1px" stroke-linecap="round" dominant-baseline="hanging" fill="hsl(198, 47%, 65%)" stroke="hsl(198, 47%, 65%)" font-family="sans-serif" font-weight="normal"><rect vector-effect="non-scaling-stroke" x="736" y="466" width="12" height="12"/><g fill="black" stroke="black"><text x="752" y="466" dominant-baseline="hanging" stroke="none" vector-effect="non-scaling-stroke">Golang</text></g><g stroke-linecap="round" font-family="sans-serif" font-style="normal" fill="hsl(49, 88%, 65%)" text-anchor="start" stroke="hsl(49, 88%, 65%)" stroke-linejoin="round" font-size="12px" dominant-baseline="hanging" stroke-width="1px" font-weight="normal"><rect height="12" vector-effect="non-scaling-stroke" x="736" y="484" width="12"/><g fill="black" stroke="black"><text vector-effect="non-scaling-stroke" x="752" y="484" dominant-baseline="hanging" stroke="none">Rust</text></g><g font-style="normal" fill="hsl(260, 76%, 65%)" stroke-linecap="round" stroke-linejoin="round" font-size="12px" font-family="sans-serif" font-weight="normal" text-anchor="start" dominant-baseline="hanging" stroke-width="1px" stroke="hsl(260, 76%, 65%)"><rect x="736" y="502" width="12" height="12" vector-effect="non-scaling-stroke"/><g fill="black" stroke="black"><text x="752" y="502" dominant-baseline="hanging" stroke="none" vector-effect="non-scaling-stroke">Zig</text><g fill="none" text-anchor="start" stroke-linejoin="round" font-family="sans-serif" stroke-linecap="round" font-size="12px" stroke-width="2px" font-style="normal" dominant-baseline="hanging" font-weight="normal"><rect x="80" y="80" width="640" height="440" vector-effect="non-scaling-stroke"/></g><g stroke-width="2px" stroke-linecap="round" text-anchor="start" fill="none" font-family="sans-serif" font-weight="normal" transform="translate(80 520 )scale(1 -1 )" stroke="black" font-style="normal" stroke-linejoin="round" font-size="12px" dominant-baseline="hanging"><path vector-effect="non-scaling-stroke" d="M64,0 L64,-6 M8.533333e+01,0 L8.533333e+01,-6 M1.066667e+02,0 L1.066667e+02,-6 M128,0 L128,-6 M1.493333e+02,0 L1.493333e+02,-6 M1.706667e+02,0 L1.706667e+02,-6 M192,0 L192,-6 M2.133333e+02,0 L2.133333e+02,-6 M2.346667e+02,0 L2.346667e+02,-6 M256,0 L256,-6 M2.773333e+02,0 L2.773333e+02,-6 M2.986667e+02,0 L2.986667e+02,-6 M320,0 L320,-6 M3.413333e+02,0 L3.413333e+02,-6 M3.626667e+02,0 L3.626667e+02,-6 M384,0 L384,-6 M4.053333e+02,0 L4.053333e+02,-6 M4.266667e+02,0 L4.266667e+02,-6 M448,0 L448,-6 M4.693333e+02,0 L4.693333e+02,-6 M4.906667e+02,0 L4.906667e+02,-6 M512,0 L512,-6 M5.333333e+02,0 L5.333333e+02,-6 M5.546667e+02,0 L5.546667e+02,-6 M576,0 L576,-6 "/></g><g font-weight="normal" stroke-linecap="round" stroke-linejoin="round" font-size="12px" dominant-baseline="hanging" transform="translate(80 520 )scale(1 1 )" stroke-width="2px" stroke="black" font-family="sans-serif" font-style="normal" text-anchor="middle" fill="black"><text x="64" y="10" dominant-baseline="hanging" stroke="none" vector-effect="non-scaling-stroke">1</text><text dominant-baseline="hanging" stroke="none" vector-effect="non-scaling-stroke" x="8.533333e+01" y="10">2</text><text vector-effect="non-scaling-stroke" x="1.066667e+02" y="10" dominant-baseline="hanging" stroke="none">3</text><text x="128" y="10" dominant-baseline="hanging" stroke="none" vector-effect="non-scaling-stroke">4</text><text vector-effect="non-scaling-stroke" x="1.493333e+02" y="10" dominant-baseline="hanging" stroke="none">5</text><text stroke="none" vector-effect="non-scaling-stroke" x="1.706667e+02" y="10" dominant-baseline="hanging">6</text><text x="192" y="10" dominant-baseline="hanging" stroke="none" vector-effect="non-scaling-stroke">7</text><text dominant-baseline="hanging" stroke="none" vector-effect="non-scaling-stroke" x="2.133333e+02" y="10">8</text><text dominant-baseline="hanging" stroke="none" vector-effect="non-scaling-stroke" x="2.346667e+02" y="10">9</text><text stroke="none" vector-effect="non-scaling-stroke" x="256" y="10" dominant-baseline="hanging">10</text><text vector-effect="non-scaling-stroke" x="2.773333e+02" y="10" dominant-baseline="hanging" stroke="none">11</text><text x="2.986667e+02" y="10" dominant-baseline="hanging" stroke="none" vector-effect="non-scaling-stroke">12</text><text stroke="none" vector-effect="non-scaling-stroke" x="320" y="10" dominant-baseline="hanging">13</text><text dominant-baseline="hanging" stroke="none" vector-effect="non-scaling-stroke" x="3.413333e+02" y="10">14</text><text vector-effect="non-scaling-stroke" x="3.626667e+02" y="10" dominant-baseline="hanging" stroke="none">15</text><text stroke="none" vector-effect="non-scaling-stroke" x="384" y="10" dominant-baseline="hanging">16</text><text vector-effect="non-scaling-stroke" x="4.053333e+02" y="10" dominant-baseline="hanging" stroke="none">17</text><text y="10" dominant-baseline="hanging" stroke="none" vector-effect="non-scaling-stroke" x="4.266667e+02">18</text><text x="448" y="10" dominant-baseline="hanging" stroke="none" vector-effect="non-scaling-stroke">19</text><text stroke="none" vector-effect="non-scaling-stroke" x="4.693333e+02" y="10" dominant-baseline="hanging">20</text><text vector-effect="non-scaling-stroke" x="4.906667e+02" y="10" dominant-baseline="hanging" stroke="none">21</text><text stroke="none" vector-effect="non-scaling-stroke" x="512" y="10" dominant-baseline="hanging">22</text><text x="5.333333e+02" y="10" dominant-baseline="hanging" stroke="none" vector-effect="non-scaling-stroke">23</text><text vector-effect="non-scaling-stroke" x="5.546667e+02" y="10" dominant-baseline="hanging" stroke="none">24</text><text vector-effect="non-scaling-stroke" x="576" y="10" dominant-baseline="hanging" stroke="none">25</text></g><g font-family="sans-serif" font-style="normal" font-weight="bold" transform="translate(80 520 )scale(1 1 )rotate(0 0 0 )" dominant-baseline="baseline" text-anchor="middle" fill="black" stroke="black" stroke-width="2px" stroke-linecap="round" stroke-linejoin="round" font-size="12px"><text y="-6" dominant-baseline="baseline" stroke="none" vector-effect="non-scaling-stroke" x="320">Day</text></g><g text-anchor="middle" dominant-baseline="baseline" transform="translate(80 520 )scale(1 -1 )" font-family="sans-serif" font-style="normal" font-weight="bold" fill="black" stroke-linecap="round" stroke-linejoin="round" font-size="12px" stroke-width="2px" stroke="black"><path d="M0,44 L-6,44 M0,2.164388e+02 L-6,2.164388e+02 M0,3.888777e+02 L-6,3.888777e+02 " vector-effect="non-scaling-stroke"/></g><g fill="black" font-family="sans-serif" stroke-linecap="round" stroke-linejoin="round" dominant-baseline="middle" transform="translate(80 520 )scale(1 1 )" stroke="black" font-style="normal" font-weight="normal" text-anchor="end" stroke-width="2px" font-size="12px"><text vector-effect="non-scaling-stroke" x="-10" y="-44" dominant-baseline="middle" stroke="none">0s</text><text vector-effect="non-scaling-stroke" x="-10" y="-2.164388e+02" dominant-baseline="middle" stroke="none">100ms</text><text dominant-baseline="middle" stroke="none" vector-effect="non-scaling-stroke" x="-10" y="-3.888777e+02">200ms</text></g><g stroke-linejoin="round" font-size="12px" fill="black" stroke="black" font-style="normal" font-weight="bold" dominant-baseline="hanging" transform="translate(80 520 )scale(1 1 )rotate(-90 0 0 )" font-family="sans-serif" text-anchor="middle" stroke-width="2px" stroke-linecap="round"><text x="220" y="6" dominant-baseline="hanging" stroke="none" vector-effect="non-scaling-stroke">Runtime</text></g></g></g></g></g></svg>