<svg width="800" height="600" viewbox="0 0 800 600" preserveAspectRatio="xMidYMid meet" xmlns="http://www.w3.org/2000/svg"><defs><marker viewBox="0 0 10 10 " refX="5" refY="5" markerUnits="userSpaceOnUse" markerWidth="2%" markerHeight="2%" id="circle"><circle cx="5" cy="5" r="3" fill="none" stroke="black"/></marker><marker markerWidth="2%" markerHeight="2%" id="filled-circle" viewBox="0 0 10 10 " refX="5" refY="5" markerUnits="userSpaceOnUse"><circle cy="5" r="3" fill="black" stroke="none" cx="5"/></marker><marker markerWidth="2%" markerHeight="2%" id="square" viewBox="0 0 10 10 " refX="5" refY="5" markerUnits="userSpaceOnUse"><rect width="6" height="6" fill="none" stroke="black" x="2" y="2"/></marker><marker refY="5" markerUnits="userSpaceOnUse" markerWidth="2%" markerHeight="2%" id="filled-square" viewBox="0 0 10 10 " refX="5"><rect x="2" y="2" width="6" height="6" fill="black" stroke="none"/></marker></defs><g stroke="hsl(198, 47%, 65%)" stroke-width="1px" stroke-linecap="round" stroke-linejoin="round" transform="translate(80 520 )scale(1 -1 )" fill="hsl(198, 47%, 65%)"><rect vector-effect="non-scaling-stroke" x="3.650000e+01" y="0" width="2.750000e+01" height="1.599474e+02"/><rect y="0" width="2.750000e+01" height="7.591357e+01" vector-effect="non-scaling-stroke" x="5.783333e+01"/><rect y="0" width="2.750000e+01" height="396" vector-effect="non-scaling-stroke" x="7.916667e+01"/></g><g stroke-width="1px" stroke-linecap="round" stroke-linejoin="round" transform="translate(80 520 )scale(1 -1 )" fill="hsl(49, 88%, 65%)" stroke="hsl(49, 88%, 65%)"><rect y="0" width="2.750000e+01" height="4.424123e+01" vector-effect="non-scaling-stroke" x="64"/><rect x="8.533333e+01" y="0" width="2.750000e+01" height="5.420269e+01" vector-effect="non-scaling-stroke"/><rect width="2.750000e+01" height="3.119449e+02" vector-effect="non-scaling-stroke" x="1.066667e+02" y="0"/></g><g font-weight="normal" text-anchor="start" stroke-width="1px" stroke-linejoin="round" fill="hsl(198, 47%, 65%)" stroke-linecap="round" stroke="hsl(198, 47%, 65%)" font-family="sans-serif" font-size="12px" font-style="normal" dominant-baseline="hanging"><rect vector-effect="non-scaling-stroke" x="736" y="484" width="12" height="12"/><g stroke="black" fill="black"><text stroke="none" vector-effect="non-scaling-stroke" x="752" y="484" dominant-baseline="hanging">Golang</text></g><g font-style="normal" stroke="hsl(49, 88%, 65%)" stroke-width="1px" stroke-linecap="round" font-weight="normal" font-size="12px" dominant-baseline="hanging" fill="hsl(49, 88%, 65%)" stroke-linejoin="round" text-anchor="start" font-family="sans-serif"><rect y="502" width="12" height="12" vector-effect="non-scaling-stroke" x="736"/><g fill="black" stroke="black"><text dominant-baseline="hanging" stroke="none" vector-effect="non-scaling-stroke" x="752" y="502">Rust</text><g fill="none" stroke-linecap="round" text-anchor="start" font-size="12px" font-weight="normal" stroke-linejoin="round" stroke-width="2px" font-style="normal" dominant-baseline="hanging" font-family="sans-serif"><rect width="640" height="440" vector-effect="non-scaling-stroke" x="80" y="80"/></g><g font-size="12px" font-style="normal" font-weight="normal" dominant-baseline="hanging" fill="none" stroke-linejoin="round" stroke-linecap="round" text-anchor="start" transform="translate(80 520 )scale(1 -1 )" stroke="black" stroke-width="2px" font-family="sans-serif"><path d="M64,0 L64,-6 M8.533333e+01,0 L8.533333e+01,-6 M1.066667e+02,0 L1.066667e+02,-6 " vector-effect="non-scaling-stroke"/></g><g stroke="black" font-family="sans-serif" dominant-baseline="hanging" stroke-linecap="round" font-weight="normal" text-anchor="middle" transform="translate(80 520 )scale(1 1 )" fill="black" stroke-width="2px" stroke-linejoin="round" font-size="12px" font-style="normal"><text stroke="none" vector-effect="non-scaling-stroke" x="64" y="10" dominant-baseline="hanging">1</text><text dominant-baseline="hanging" stroke="none" vector-effect="non-scaling-stroke" x="8.533333e+01" y="10">2</text><text dominant-baseline="hanging" stroke="none" vector-effect="non-scaling-stroke" x="1.066667e+02" y="10">3</text></g><g stroke-linejoin="round" text-anchor="middle" transform="translate(80 520 )scale(1 1 )rotate(0 0 0 )" font-family="sans-serif" font-size="12px" font-style="normal" stroke-width="2px" stroke-linecap="round" font-weight="bold" dominant-baseline="baseline" fill="black" stroke="black"><text vector-effect="non-scaling-stroke" x="320" y="-6" dominant-baseline="baseline" stroke="none">Day</text></g><g stroke-linejoin="round" font-family="sans-serif" fill="black" stroke="black" stroke-width="2px" transform="translate(80 520 )scale(1 -1 )" stroke-linecap="round" font-weight="bold" font-size="12px" font-style="normal" dominant-baseline="baseline" text-anchor="middle"><path vector-effect="non-scaling-stroke" d="M0,44 L-6,44 M0,1.149506e+02 L-6,1.149506e+02 M0,1.859012e+02 L-6,1.859012e+02 M0,2.568517e+02 L-6,2.568517e+02 M0,3.278023e+02 L-6,3.278023e+02 "/></g><g font-weight="normal" font-size="12px" text-anchor="end" font-family="sans-serif" font-style="normal" dominant-baseline="middle" fill="black" stroke="black" transform="translate(80 520 )scale(1 1 )" stroke-width="2px" stroke-linejoin="round" stroke-linecap="round"><text stroke="none" vector-effect="non-scaling-stroke" x="-10" y="-44" dominant-baseline="middle">0s</text><text x="-10" y="-1.149506e+02" dominant-baseline="middle" stroke="none" vector-effect="non-scaling-stroke">10µs</text><text stroke="none" vector-effect="non-scaling-stroke" x="-10" y="-1.859012e+02" dominant-baseline="middle">20µs</text><text y="-2.568517e+02" dominant-baseline="middle" stroke="none" vector-effect="non-scaling-stroke" x="-10">30µs</text><text y="-3.278023e+02" dominant-baseline="middle" stroke="none" vector-effect="non-scaling-stroke" x="-10">40µs</text></g><g stroke-linejoin="round" font-family="sans-serif" font-weight="bold" dominant-baseline="hanging" fill="black" font-style="normal" stroke="black" stroke-width="2px" font-size="12px" stroke-linecap="round" text-anchor="middle" transform="translate(80 520 )scale(1 1 )rotate(-90 0 0 )"><text stroke="none" vector-effect="non-scaling-stroke" x="220" y="6" dominant-baseline="hanging">Runtime</text></g></g></g></g></svg>