<svg xmlns="http://www.w3.org/2000/svg" width="800" height="600" viewbox="0 0 800 600" preserveAspectRatio="xMidYMid meet"><defs><marker markerUnits="userSpaceOnUse" markerWidth="2%" markerHeight="2%" id="circle" viewBox="0 0 10 10 " refX="5" refY="5"><circle cx="5" cy="5" r="3" fill="none" stroke="black"/></marker><marker refY="5" markerUnits="userSpaceOnUse" markerWidth="2%" markerHeight="2%" id="filled-circle" viewBox="0 0 10 10 " refX="5"><circle cx="5" cy="5" r="3" fill="black" stroke="none"/></marker><marker viewBox="0 0 10 10 " refX="5" refY="5" markerUnits="userSpaceOnUse" markerWidth="2%" markerHeight="2%" id="square"><rect width="6" height="6" fill="none" stroke="black" x="2" y="2"/></marker><marker markerHeight="2%" id="filled-square" viewBox="0 0 10 10 " refX="5" refY="5" markerUnits="userSpaceOnUse" markerWidth="2%"><rect width="6" height="6" fill="black" stroke="none" x="2" y="2"/></marker></defs><g transform="translate(80 520 )scale(1 -1 )" fill="hsl(198, 47%, 65%)" stroke="hsl(198, 47%, 65%)" stroke-width="1px" stroke-linecap="round" stroke-linejoin="round"><rect vector-effect="non-scaling-stroke" x="4.460606e+01" y="0" width="1.939394e+01" height="4.426779e+01"/><rect vector-effect="non-scaling-stroke" x="6.593939e+01" y="0" width="1.939394e+01" height="4.407190e+01"/><rect y="0" width="1.939394e+01" height="4.479302e+01" vector-effect="non-scaling-stroke" x="8.727273e+01"/><rect vector-effect="non-scaling-stroke" x="1.086061e+02" y="0" width="1.939394e+01" height="4.432225e+01"/><rect height="4.419987e+01" vector-effect="non-scaling-stroke" x="1.299394e+02" y="0" width="1.939394e+01"/><rect width="1.939394e+01" height="4.452010e+01" vector-effect="non-scaling-stroke" x="1.512727e+02" y="0"/><rect x="1.726061e+02" y="0" width="1.939394e+01" height="4.439108e+01" vector-effect="non-scaling-stroke"/><rect width="1.939394e+01" height="5.462975e+01" vector-effect="non-scaling-stroke" x="1.939394e+02" y="0"/><rect vector-effect="non-scaling-stroke" x="2.152727e+02" y="0" width="1.939394e+01" height="5.041665e+01"/><rect vector-effect="non-scaling-stroke" x="2.366061e+02" y="0" width="1.939394e+01" height="4.402569e+01"/><rect height="396" vector-effect="non-scaling-stroke" x="2.579394e+02" y="0" width="1.939394e+01"/></g><g stroke-linecap="round" stroke-linejoin="round" transform="translate(80 520 )scale(1 -1 )" fill="hsl(49, 88%, 65%)" stroke="hsl(49, 88%, 65%)" stroke-width="1px"><rect width="1.939394e+01" height="4.411878e+01" vector-effect="non-scaling-stroke" x="64" y="0"/><rect y="0" width="1.939394e+01" height="4.401742e+01" vector-effect="non-scaling-stroke" x="8.533333e+01"/><rect x="1.066667e+02" y="0" width="1.939394e+01" height="4.460105e+01" vector-effect="non-scaling-stroke"/><rect x="1.280000e+02" y="0" width="1.939394e+01" height="4.420502e+01" vector-effect="non-scaling-stroke"/><rect x="1.493333e+02" y="0" width="1.939394e+01" height="4.415858e+01" vector-effect="non-scaling-stroke"/><rect y="0" width="1.939394e+01" height="4.430395e+01" vector-effect="non-scaling-stroke" x="1.706667e+02"/><rect vector-effect="non-scaling-stroke" x="192" y="0" width="1.939394e+01" height="4.435546e+01"/><rect width="1.939394e+01" height="5.435143e+01" vector-effect="non-scaling-stroke" x="2.133333e+02" y="0"/><rect vector-effect="non-scaling-stroke" x="2.346667e+02" y="0" width="1.939394e+01" height="5.018228e+01"/><rect vector-effect="non-scaling-stroke" x="256" y="0" width="1.939394e+01" height="4.401905e+01"/></g><g stroke-width="1px" dominant-baseline="hanging" stroke="hsl(198, 47%, 65%)" text-anchor="start" stroke-linecap="round" stroke-linejoin="round" font-family="sans-serif" font-size="12px" font-weight="normal" fill="hsl(198, 47%, 65%)" font-style="normal"><rect height="12" vector-effect="non-scaling-stroke" x="736" y="484" width="12"/><g fill="black" stroke="black"><text y="484" dominant-baseline="hanging" stroke="none" vector-effect="non-scaling-stroke" x="752">Golang</text></g><g fill="hsl(49, 88%, 65%)" stroke-width="1px" stroke-linejoin="round" font-style="normal" font-family="sans-serif" font-size="12px" font-weight="normal" stroke="hsl(49, 88%, 65%)" text-anchor="start" dominant-baseline="hanging" stroke-linecap="round"><rect y="502" width="12" height="12" vector-effect="non-scaling-stroke" x="736"/><g stroke="black" fill="black"><text stroke="none" vector-effect="non-scaling-stroke" x="752" y="502" dominant-baseline="hanging">Rust</text><g stroke-linecap="round" stroke-linejoin="round" font-weight="normal" dominant-baseline="hanging" font-size="12px" fill="none" font-style="normal" text-anchor="start" stroke-width="2px" font-family="sans-serif"><rect vector-effect="non-scaling-stroke" x="80" y="80" width="640" height="440"/></g><g font-weight="normal" fill="none" text-anchor="start" dominant-baseline="hanging" transform="translate(80 520 )scale(1 -1 )" stroke-linejoin="round" font-style="normal" font-size="12px" stroke="black" stroke-width="2px" stroke-linecap="round" font-family="sans-serif"><path vector-effect="non-scaling-stroke" d="M64,0 L64,-6 M8.533333e+01,0 L8.533333e+01,-6 M1.066667e+02,0 L1.066667e+02,-6 M128,0 L128,-6 M1.493333e+02,0 L1.493333e+02,-6 M1.706667e+02,0 L1.706667e+02,-6 M192,0 L192,-6 M2.133333e+02,0 L2.133333e+02,-6 M2.346667e+02,0 L2.346667e+02,-6 M256,0 L256,-6 M2.773333e+02,0 L2.773333e+02,-6 "/></g><g dominant-baseline="hanging" stroke-linejoin="round" font-family="sans-serif" stroke="black" text-anchor="middle" transform="translate(80 520 )scale(1 1 )" stroke-linecap="round" stroke-width="2px" font-size="12px" font-weight="normal" fill="black" font-style="normal"><text stroke="none" vector-effect="non-scaling-stroke" x="64" y="10" dominant-baseline="hanging">1</text><text stroke="none" vector-effect="non-scaling-stroke" x="8.533333e+01" y="10" dominant-baseline="hanging">2</text><text stroke="none" vector-effect="non-scaling-stroke" x="1.066667e+02" y="10" dominant-baseline="hanging">3</text><text x="128" y="10" dominant-baseline="hanging" stroke="none" vector-effect="non-scaling-stroke">4</text><text y="10" dominant-baseline="hanging" stroke="none" vector-effect="non-scaling-stroke" x="1.493333e+02">5</text><text dominant-baseline="hanging" stroke="none" vector-effect="non-scaling-stroke" x="1.706667e+02" y="10">6</text><text stroke="none" vector-effect="non-scaling-stroke" x="192" y="10" dominant-baseline="hanging">7</text><text y="10" dominant-baseline="hanging" stroke="none" vector-effect="non-scaling-stroke" x="2.133333e+02">8</text><text vector-effect="non-scaling-stroke" x="2.346667e+02" y="10" dominant-baseline="hanging" stroke="none">9</text><text dominant-baseline="hanging" stroke="none" vector-effect="non-scaling-stroke" x="256" y="10">10</text><text y="10" dominant-baseline="hanging" stroke="none" vector-effect="non-scaling-stroke" x="2.773333e+02">11</text></g><g stroke-width="2px" font-family="sans-serif" font-size="12px" font-weight="bold" text-anchor="middle" transform="translate(80 520 )scale(1 1 )rotate(0 0 0 )" fill="black" stroke-linecap="round" stroke-linejoin="round" font-style="normal" dominant-baseline="baseline" stroke="black"><text dominant-baseline="baseline" stroke="none" vector-effect="non-scaling-stroke" x="320" y="-6">Day</text></g><g text-anchor="middle" fill="black" stroke-width="2px" font-family="sans-serif" font-weight="bold" stroke-linecap="round" transform="translate(80 520 )scale(1 -1 )" stroke="black" font-size="12px" stroke-linejoin="round" font-style="normal" dominant-baseline="baseline"><path vector-effect="non-scaling-stroke" d="M0,44 L-6,44 M0,2.038451e+02 L-6,2.038451e+02 M0,3.636902e+02 L-6,3.636902e+02 "/></g><g stroke="black" stroke-width="2px" font-family="sans-serif" stroke-linecap="round" text-anchor="end" dominant-baseline="middle" transform="translate(80 520 )scale(1 1 )" fill="black" font-weight="normal" stroke-linejoin="round" font-style="normal" font-size="12px"><text stroke="none" vector-effect="non-scaling-stroke" x="-10" y="-44" dominant-baseline="middle">0s</text><text dominant-baseline="middle" stroke="none" vector-effect="non-scaling-stroke" x="-10" y="-2.038451e+02">10ms</text><text stroke="none" vector-effect="non-scaling-stroke" x="-10" y="-3.636902e+02" dominant-baseline="middle">20ms</text></g><g fill="black" stroke-linejoin="round" text-anchor="middle" stroke="black" stroke-width="2px" font-family="sans-serif" font-size="12px" font-weight="bold" stroke-linecap="round" font-style="normal" dominant-baseline="hanging" transform="translate(80 520 )scale(1 1 )rotate(-90 0 0 )"><text stroke="none" vector-effect="non-scaling-stroke" x="220" y="6" dominant-baseline="hanging">Runtime</text></g></g></g></g></svg>