<svg height="600" viewbox="0 0 800 600" preserveAspectRatio="xMidYMid meet" xmlns="http://www.w3.org/2000/svg" width="800"><defs><marker id="circle" viewBox="0 0 10 10 " refX="5" refY="5" markerUnits="userSpaceOnUse" markerWidth="2%" markerHeight="2%"><circle cx="5" cy="5" r="3" fill="none" stroke="black"/></marker><marker refX="5" refY="5" markerUnits="userSpaceOnUse" markerWidth="2%" markerHeight="2%" id="filled-circle" viewBox="0 0 10 10 "><circle fill="black" stroke="none" cx="5" cy="5" r="3"/></marker><marker refX="5" refY="5" markerUnits="userSpaceOnUse" markerWidth="2%" markerHeight="2%" id="square" viewBox="0 0 10 10 "><rect x="2" y="2" width="6" height="6" fill="none" stroke="black"/></marker><marker refY="5" markerUnits="userSpaceOnUse" markerWidth="2%" markerHeight="2%" id="filled-square" viewBox="0 0 10 10 " refX="5"><rect stroke="none" x="2" y="2" width="6" height="6" fill="black"/></marker></defs><g stroke-linejoin="round" transform="translate(80 520 )scale(1 -1 )" fill="hsl(198, 47%, 65%)" stroke="hsl(198, 47%, 65%)" stroke-width="1px" stroke-linecap="round"><rect vector-effect="non-scaling-stroke" x="5.546667e+01" y="0" width="8.533333e+00" height="4.401689e+01"/><rect y="0" width="8.533333e+00" height="4.400356e+01" vector-effect="non-scaling-stroke" x="7.680000e+01"/><rect x="9.813333e+01" y="0" width="8.533333e+00" height="4.404459e+01" vector-effect="non-scaling-stroke"/><rect x="1.194667e+02" y="0" width="8.533333e+00" height="4.401671e+01" vector-effect="non-scaling-stroke"/><rect y="0" width="8.533333e+00" height="4.400898e+01" vector-effect="non-scaling-stroke" x="1.408000e+02"/><rect y="0" width="8.533333e+00" height="4.400892e+01" vector-effect="non-scaling-stroke" x="1.621333e+02"/><rect vector-effect="non-scaling-stroke" x="1.834667e+02" y="0" width="8.533333e+00" height="4.402678e+01"/><rect x="2.048000e+02" y="0" width="8.533333e+00" height="4.473151e+01" vector-effect="non-scaling-stroke"/><rect y="0" width="8.533333e+00" height="4.443999e+01" vector-effect="non-scaling-stroke" x="2.261333e+02"/><rect vector-effect="non-scaling-stroke" x="2.474667e+02" y="0" width="8.533333e+00" height="4.400153e+01"/><rect x="2.688000e+02" y="0" width="8.533333e+00" height="5.095271e+01" vector-effect="non-scaling-stroke"/><rect vector-effect="non-scaling-stroke" x="2.901333e+02" y="0" width="8.533333e+00" height="4.439114e+01"/><rect height="4.543929e+01" vector-effect="non-scaling-stroke" x="3.114667e+02" y="0" width="8.533333e+00"/><rect vector-effect="non-scaling-stroke" x="3.328000e+02" y="0" width="8.533333e+00" height="4.985724e+01"/><rect width="8.533333e+00" height="4.400358e+01" vector-effect="non-scaling-stroke" x="3.541333e+02" y="0"/><rect x="3.754667e+02" y="0" width="8.533333e+00" height="3.088002e+02" vector-effect="non-scaling-stroke"/><rect y="0" width="8.533333e+00" height="4.488220e+01" vector-effect="non-scaling-stroke" x="3.968000e+02"/><rect width="8.533333e+00" height="4.416521e+01" vector-effect="non-scaling-stroke" x="4.181333e+02" y="0"/><rect vector-effect="non-scaling-stroke" x="4.394667e+02" y="0" width="8.533333e+00" height="2.621683e+02"/><rect vector-effect="non-scaling-stroke" x="4.608000e+02" y="0" width="8.533333e+00" height="1.145600e+02"/><rect vector-effect="non-scaling-stroke" x="4.821333e+02" y="0" width="8.533333e+00" height="4.462035e+01"/><rect y="0" width="8.533333e+00" height="4.451818e+01" vector-effect="non-scaling-stroke" x="5.034667e+02"/><rect width="8.533333e+00" height="1.588472e+02" vector-effect="non-scaling-stroke" x="5.248000e+02" y="0"/><rect height="1.884421e+02" vector-effect="non-scaling-stroke" x="5.461333e+02" y="0" width="8.533333e+00"/><rect vector-effect="non-scaling-stroke" x="5.674667e+02" y="0" width="8.533333e+00" height="4.400312e+01"/></g><g fill="hsl(49, 88%, 65%)" stroke="hsl(49, 88%, 65%)" stroke-width="1px" stroke-linecap="round" stroke-linejoin="round" transform="translate(80 520 )scale(1 -1 )"><rect vector-effect="non-scaling-stroke" x="64" y="0" width="8.533333e+00" height="4.400713e+01"/><rect vector-effect="non-scaling-stroke" x="8.533333e+01" y="0" width="8.533333e+00" height="4.400121e+01"/><rect height="4.403615e+01" vector-effect="non-scaling-stroke" x="1.066667e+02" y="0" width="8.533333e+00"/><rect width="8.533333e+00" height="4.401063e+01" vector-effect="non-scaling-stroke" x="128" y="0"/><rect vector-effect="non-scaling-stroke" x="1.493333e+02" y="0" width="8.533333e+00" height="4.400669e+01"/><rect width="8.533333e+00" height="4.401098e+01" vector-effect="non-scaling-stroke" x="1.706667e+02" y="0"/><rect y="0" width="8.533333e+00" height="4.401823e+01" vector-effect="non-scaling-stroke" x="192"/><rect x="2.133333e+02" y="0" width="8.533333e+00" height="4.452837e+01" vector-effect="non-scaling-stroke"/><rect vector-effect="non-scaling-stroke" x="2.346667e+02" y="0" width="8.533333e+00" height="4.437196e+01"/><rect vector-effect="non-scaling-stroke" x="2.560000e+02" y="0" width="8.533333e+00" height="4.400097e+01"/><rect vector-effect="non-scaling-stroke" x="2.773333e+02" y="0" width="8.533333e+00" height="4.845632e+01"/><rect y="0" width="8.533333e+00" height="4.422809e+01" vector-effect="non-scaling-stroke" x="2.986667e+02"/><rect height="4.447271e+01" vector-effect="non-scaling-stroke" x="320" y="0" width="8.533333e+00"/><rect width="8.533333e+00" height="5.134573e+01" vector-effect="non-scaling-stroke" x="3.413333e+02" y="0"/><rect x="3.626667e+02" y="0" width="8.533333e+00" height="4.400210e+01" vector-effect="non-scaling-stroke"/><rect width="8.533333e+00" height="396" vector-effect="non-scaling-stroke" x="384" y="0"/><rect x="4.053333e+02" y="0" width="8.533333e+00" height="4.438650e+01" vector-effect="non-scaling-stroke"/><rect x="4.266667e+02" y="0" width="8.533333e+00" height="4.416392e+01" vector-effect="non-scaling-stroke"/><rect vector-effect="non-scaling-stroke" x="448" y="0" width="8.533333e+00" height="1.431778e+02"/><rect vector-effect="non-scaling-stroke" x="4.693333e+02" y="0" width="8.533333e+00" height="9.230925e+01"/><rect vector-effect="non-scaling-stroke" x="4.906667e+02" y="0" width="8.533333e+00" height="4.440558e+01"/><rect height="4.461582e+01" vector-effect="non-scaling-stroke" x="512" y="0" width="8.533333e+00"/><rect y="0" width="8.533333e+00" height="1.361731e+02" vector-effect="non-scaling-stroke" x="5.333333e+02"/><rect vector-effect="non-scaling-stroke" x="5.546667e+02" y="0" width="8.533333e+00" height="2.038345e+02"/><rect height="4.400235e+01" vector-effect="non-scaling-stroke" x="576" y="0" width="8.533333e+00"/></g><g font-weight="normal" stroke-linecap="round" font-style="normal" fill="hsl(198, 47%, 65%)" stroke-linejoin="round" font-family="sans-serif" text-anchor="start" stroke-width="1px" font-size="12px" dominant-baseline="hanging" stroke="hsl(198, 47%, 65%)"><rect vector-effect="non-scaling-stroke" x="736" y="484" width="12" height="12"/><g fill="black" stroke="black"><text dominant-baseline="hanging" stroke="none" vector-effect="non-scaling-stroke" x="752" y="484">Golang</text></g><g stroke-width="1px" font-style="normal" font-weight="normal" stroke-linejoin="round" font-family="sans-serif" dominant-baseline="hanging" font-size="12px" text-anchor="start" fill="hsl(49, 88%, 65%)" stroke="hsl(49, 88%, 65%)" stroke-linecap="round"><rect vector-effect="non-scaling-stroke" x="736" y="502" width="12" height="12"/><g fill="black" stroke="black"><text stroke="none" vector-effect="non-scaling-stroke" x="752" y="502" dominant-baseline="hanging">Rust</text><g stroke-linecap="round" stroke-linejoin="round" dominant-baseline="hanging" font-size="12px" font-weight="normal" fill="none" font-style="normal" stroke-width="2px" text-anchor="start" font-family="sans-serif"><rect width="640" height="440" vector-effect="non-scaling-stroke" x="80" y="80"/></g><g stroke="black" stroke-linejoin="round" font-family="sans-serif" dominant-baseline="hanging" stroke-linecap="round" font-weight="normal" text-anchor="start" transform="translate(80 520 )scale(1 -1 )" fill="none" font-size="12px" font-style="normal" stroke-width="2px"><path vector-effect="non-scaling-stroke" d="M64,0 L64,-6 M8.533333e+01,0 L8.533333e+01,-6 M1.066667e+02,0 L1.066667e+02,-6 M128,0 L128,-6 M1.493333e+02,0 L1.493333e+02,-6 M1.706667e+02,0 L1.706667e+02,-6 M192,0 L192,-6 M2.133333e+02,0 L2.133333e+02,-6 M2.346667e+02,0 L2.346667e+02,-6 M256,0 L256,-6 M2.773333e+02,0 L2.773333e+02,-6 M2.986667e+02,0 L2.986667e+02,-6 M320,0 L320,-6 M3.413333e+02,0 L3.413333e+02,-6 M3.626667e+02,0 L3.626667e+02,-6 M384,0 L384,-6 M4.053333e+02,0 L4.053333e+02,-6 M4.266667e+02,0 L4.266667e+02,-6 M448,0 L448,-6 M4.693333e+02,0 L4.693333e+02,-6 M4.906667e+02,0 L4.906667e+02,-6 M512,0 L512,-6 M5.333333e+02,0 L5.333333e+02,-6 M5.546667e+02,0 L5.546667e+02,-6 M576,0 L576,-6 "/></g><g stroke-linejoin="round" dominant-baseline="hanging" text-anchor="middle" stroke-linecap="round" font-style="normal" font-weight="normal" fill="black" stroke="black" font-family="sans-serif" transform="translate(80 520 )scale(1 1 )" stroke-width="2px" font-size="12px"><text x="64" y="10" dominant-baseline="hanging" stroke="none" vector-effect="non-scaling-stroke">1</text><text x="8.533333e+01" y="10" dominant-baseline="hanging" stroke="none" vector-effect="non-scaling-stroke">2</text><text stroke="none" vector-effect="non-scaling-stroke" x="1.066667e+02" y="10" dominant-baseline="hanging">3</text><text vector-effect="non-scaling-stroke" x="128" y="10" dominant-baseline="hanging" stroke="none">4</text><text stroke="none" vector-effect="non-scaling-stroke" x="1.493333e+02" y="10" dominant-baseline="hanging">5</text><text x="1.706667e+02" y="10" dominant-baseline="hanging" stroke="none" vector-effect="non-scaling-stroke">6</text><text x="192" y="10" dominant-baseline="hanging" stroke="none" vector-effect="non-scaling-stroke">7</text><text vector-effect="non-scaling-stroke" x="2.133333e+02" y="10" dominant-baseline="hanging" stroke="none">8</text><text y="10" dominant-baseline="hanging" stroke="none" vector-effect="non-scaling-stroke" x="2.346667e+02">9</text><text stroke="none" vector-effect="non-scaling-stroke" x="256" y="10" dominant-baseline="hanging">10</text><text stroke="none" vector-effect="non-scaling-stroke" x="2.773333e+02" y="10" dominant-baseline="hanging">11</text><text x="2.986667e+02" y="10" dominant-baseline="hanging" stroke="none" vector-effect="non-scaling-stroke">12</text><text stroke="none" vector-effect="non-scaling-stroke" x="320" y="10" dominant-baseline="hanging">13</text><text stroke="none" vector-effect="non-scaling-stroke" x="3.413333e+02" y="10" dominant-baseline="hanging">14</text><text x="3.626667e+02" y="10" dominant-baseline="hanging" stroke="none" vector-effect="non-scaling-stroke">15</text><text x="384" y="10" dominant-baseline="hanging" stroke="none" vector-effect="non-scaling-stroke">16</text><text stroke="none" vector-effect="non-scaling-stroke" x="4.053333e+02" y="10" dominant-baseline="hanging">17</text><text dominant-baseline="hanging" stroke="none" vector-effect="non-scaling-stroke" x="4.266667e+02" y="10">18</text><text x="448" y="10" dominant-baseline="hanging" stroke="none" vector-effect="non-scaling-stroke">19</text><text y="10" dominant-baseline="hanging" stroke="none" vector-effect="non-scaling-stroke" x="4.693333e+02">20</text><text x="4.906667e+02" y="10" dominant-baseline="hanging" stroke="none" vector-effect="non-scaling-stroke">21</text><text dominant-baseline="hanging" stroke="none" vector-effect="non-scaling-stroke" x="512" y="10">22</text><text vector-effect="non-scaling-stroke" x="5.333333e+02" y="10" dominant-baseline="hanging" stroke="none">23</text><text y="10" dominant-baseline="hanging" stroke="none" vector-effect="non-scaling-stroke" x="5.546667e+02">24</text><text x="576" y="10" dominant-baseline="hanging" stroke="none" vector-effect="non-scaling-stroke">25</text></g><g stroke-linecap="round" fill="black" stroke="black" stroke-linejoin="round" dominant-baseline="baseline" text-anchor="middle" transform="translate(80 520 )scale(1 1 )rotate(0 0 0 )" stroke-width="2px" font-style="normal" font-family="sans-serif" font-size="12px" font-weight="bold"><text stroke="none" vector-effect="non-scaling-stroke" x="320" y="-6" dominant-baseline="baseline">Day</text></g><g stroke="black" font-family="sans-serif" transform="translate(80 520 )scale(1 -1 )" font-size="12px" text-anchor="middle" stroke-width="2px" stroke-linecap="round" font-style="normal" dominant-baseline="baseline" fill="black" stroke-linejoin="round" font-weight="bold"><path vector-effect="non-scaling-stroke" d="M0,44 L-6,44 M0,8.170153e+01 L-6,8.170153e+01 M0,1.194031e+02 L-6,1.194031e+02 M0,1.571046e+02 L-6,1.571046e+02 M0,1.948061e+02 L-6,1.948061e+02 M0,2.325077e+02 L-6,2.325077e+02 M0,2.702092e+02 L-6,2.702092e+02 M0,3.079107e+02 L-6,3.079107e+02 M0,3.456123e+02 L-6,3.456123e+02 M0,3.833138e+02 L-6,3.833138e+02 "/></g><g dominant-baseline="middle" font-weight="normal" transform="translate(80 520 )scale(1 1 )" stroke-width="2px" stroke-linecap="round" font-size="12px" fill="black" stroke="black" stroke-linejoin="round" font-family="sans-serif" text-anchor="end" font-style="normal"><text vector-effect="non-scaling-stroke" x="-10" y="-44" dominant-baseline="middle" stroke="none">0s</text><text stroke="none" vector-effect="non-scaling-stroke" x="-10" y="-8.170153e+01" dominant-baseline="middle">20ms</text><text vector-effect="non-scaling-stroke" x="-10" y="-1.194031e+02" dominant-baseline="middle" stroke="none">40ms</text><text x="-10" y="-1.571046e+02" dominant-baseline="middle" stroke="none" vector-effect="non-scaling-stroke">60ms</text><text stroke="none" vector-effect="non-scaling-stroke" x="-10" y="-1.948061e+02" dominant-baseline="middle">80ms</text><text vector-effect="non-scaling-stroke" x="-10" y="-2.325077e+02" dominant-baseline="middle" stroke="none">100ms</text><text vector-effect="non-scaling-stroke" x="-10" y="-2.702092e+02" dominant-baseline="middle" stroke="none">120ms</text><text x="-10" y="-3.079107e+02" dominant-baseline="middle" stroke="none" vector-effect="non-scaling-stroke">140ms</text><text dominant-baseline="middle" stroke="none" vector-effect="non-scaling-stroke" x="-10" y="-3.456123e+02">160ms</text><text stroke="none" vector-effect="non-scaling-stroke" x="-10" y="-3.833138e+02" dominant-baseline="middle">180ms</text></g><g dominant-baseline="hanging" font-style="normal" transform="translate(80 520 )scale(1 1 )rotate(-90 0 0 )" font-family="sans-serif" font-weight="bold" text-anchor="middle" fill="black" stroke="black" stroke-linejoin="round" stroke-width="2px" stroke-linecap="round" font-size="12px"><text stroke="none" vector-effect="non-scaling-stroke" x="220" y="6" dominant-baseline="hanging">Runtime</text></g></g></g></g></svg>