<svg width="800" height="600" viewbox="0 0 800 600" preserveAspectRatio="xMidYMid meet" xmlns="http://www.w3.org/2000/svg"><defs><marker refY="5" markerUnits="userSpaceOnUse" markerWidth="2%" markerHeight="2%" id="circle" viewBox="0 0 10 10 " refX="5"><circle cx="5" cy="5" r="3" fill="none" stroke="black"/></marker><marker markerUnits="userSpaceOnUse" markerWidth="2%" markerHeight="2%" id="filled-circle" viewBox="0 0 10 10 " refX="5" refY="5"><circle cx="5" cy="5" r="3" fill="black" stroke="none"/></marker><marker refY="5" markerUnits="userSpaceOnUse" markerWidth="2%" markerHeight="2%" id="square" viewBox="0 0 10 10 " refX="5"><rect x="2" y="2" width="6" height="6" fill="none" stroke="black"/></marker><marker markerWidth="2%" markerHeight="2%" id="filled-square" viewBox="0 0 10 10 " refX="5" refY="5" markerUnits="userSpaceOnUse"><rect y="2" width="6" height="6" fill="black" stroke="none" x="2"/></marker></defs><g stroke-width="1px" stroke-linecap="round" stroke-linejoin="round" transform="translate(80 520 )scale(1 -1 )" fill="hsl(198, 47%, 65%)" stroke="hsl(198, 47%, 65%)"><rect vector-effect="non-scaling-stroke" x="5.472464e+01" y="0" width="9.275362e+00" height="4.400775e+01"/><rect vector-effect="non-scaling-stroke" x="7.605797e+01" y="0" width="9.275362e+00" height="4.400214e+01"/><rect vector-effect="non-scaling-stroke" x="9.739130e+01" y="0" width="9.275362e+00" height="4.402350e+01"/><rect x="1.187246e+02" y="0" width="9.275362e+00" height="4.401013e+01" vector-effect="non-scaling-stroke"/><rect vector-effect="non-scaling-stroke" x="1.400580e+02" y="0" width="9.275362e+00" height="4.400580e+01"/><rect width="9.275362e+00" height="4.401509e+01" vector-effect="non-scaling-stroke" x="1.613913e+02" y="0"/><rect y="0" width="9.275362e+00" height="4.401174e+01" vector-effect="non-scaling-stroke" x="1.827246e+02"/><rect vector-effect="non-scaling-stroke" x="2.040580e+02" y="0" width="9.275362e+00" height="4.431504e+01"/><rect x="2.253913e+02" y="0" width="9.275362e+00" height="4.418882e+01" vector-effect="non-scaling-stroke"/><rect vector-effect="non-scaling-stroke" x="2.467246e+02" y="0" width="9.275362e+00" height="4.400074e+01"/><rect y="0" width="9.275362e+00" height="5.065464e+01" vector-effect="non-scaling-stroke" x="2.680580e+02"/><rect height="4.423888e+01" vector-effect="non-scaling-stroke" x="2.893913e+02" y="0" width="9.275362e+00"/><rect x="3.107246e+02" y="0" width="9.275362e+00" height="4.438058e+01" vector-effect="non-scaling-stroke"/><rect vector-effect="non-scaling-stroke" x="3.320580e+02" y="0" width="9.275362e+00" height="4.681037e+01"/><rect vector-effect="non-scaling-stroke" x="3.533913e+02" y="0" width="9.275362e+00" height="4.400239e+01"/><rect vector-effect="non-scaling-stroke" x="3.747246e+02" y="0" width="9.275362e+00" height="396"/><rect height="4.422812e+01" vector-effect="non-scaling-stroke" x="3.960580e+02" y="0" width="9.275362e+00"/><rect height="4.408930e+01" vector-effect="non-scaling-stroke" x="4.173913e+02" y="0" width="9.275362e+00"/><rect width="9.275362e+00" height="2.053979e+02" vector-effect="non-scaling-stroke" x="4.387246e+02" y="0"/><rect y="0" width="9.275362e+00" height="6.554127e+01" vector-effect="non-scaling-stroke" x="4.600580e+02"/><rect width="9.275362e+00" height="4.417172e+01" vector-effect="non-scaling-stroke" x="4.813913e+02" y="0"/><rect x="5.027246e+02" y="0" width="9.275362e+00" height="4.446440e+01" vector-effect="non-scaling-stroke"/><rect height="1.654661e+02" vector-effect="non-scaling-stroke" x="5.240580e+02" y="0" width="9.275362e+00"/></g><g fill="hsl(49, 88%, 65%)" stroke="hsl(49, 88%, 65%)" stroke-width="1px" stroke-linecap="round" stroke-linejoin="round" transform="translate(80 520 )scale(1 -1 )"><rect x="64" y="0" width="9.275362e+00" height="4.400351e+01" vector-effect="non-scaling-stroke"/><rect width="9.275362e+00" height="4.400051e+01" vector-effect="non-scaling-stroke" x="8.533333e+01" y="0"/><rect width="9.275362e+00" height="4.401775e+01" vector-effect="non-scaling-stroke" x="1.066667e+02" y="0"/><rect x="1.280000e+02" y="0" width="9.275362e+00" height="4.400605e+01" vector-effect="non-scaling-stroke"/><rect width="9.275362e+00" height="4.400468e+01" vector-effect="non-scaling-stroke" x="1.493333e+02" y="0"/><rect vector-effect="non-scaling-stroke" x="1.706667e+02" y="0" width="9.275362e+00" height="4.400897e+01"/><rect x="192" y="0" width="9.275362e+00" height="4.401049e+01" vector-effect="non-scaling-stroke"/><rect y="0" width="9.275362e+00" height="4.430561e+01" vector-effect="non-scaling-stroke" x="2.133333e+02"/><rect x="2.346667e+02" y="0" width="9.275362e+00" height="4.418252e+01" vector-effect="non-scaling-stroke"/><rect height="4.400056e+01" vector-effect="non-scaling-stroke" x="256" y="0" width="9.275362e+00"/><rect height="4.648442e+01" vector-effect="non-scaling-stroke" x="2.773333e+02" y="0" width="9.275362e+00"/><rect width="9.275362e+00" height="4.414919e+01" vector-effect="non-scaling-stroke" x="2.986667e+02" y="0"/><rect x="320" y="0" width="9.275362e+00" height="4.432268e+01" vector-effect="non-scaling-stroke"/><rect vector-effect="non-scaling-stroke" x="3.413333e+02" y="0" width="9.275362e+00" height="4.709541e+01"/><rect width="9.275362e+00" height="4.400101e+01" vector-effect="non-scaling-stroke" x="3.626667e+02" y="0"/><rect width="9.275362e+00" height="4.415595e+01" vector-effect="non-scaling-stroke" x="4.053333e+02" y="0"/><rect vector-effect="non-scaling-stroke" x="4.266667e+02" y="0" width="9.275362e+00" height="4.410479e+01"/><rect x="4.693333e+02" y="0" width="9.275362e+00" height="6.194657e+01" vector-effect="non-scaling-stroke"/><rect y="0" width="9.275362e+00" height="4.421322e+01" vector-effect="non-scaling-stroke" x="4.906667e+02"/></g><g font-size="12px" stroke="hsl(198, 47%, 65%)" stroke-width="1px" font-family="sans-serif" font-weight="normal" dominant-baseline="hanging" fill="hsl(198, 47%, 65%)" stroke-linecap="round" stroke-linejoin="round" font-style="normal" text-anchor="start"><rect vector-effect="non-scaling-stroke" x="736" y="484" width="12" height="12"/><g stroke="black" fill="black"><text stroke="none" vector-effect="non-scaling-stroke" x="752" y="484" dominant-baseline="hanging">Golang</text></g><g stroke-linecap="round" font-style="normal" font-weight="normal" dominant-baseline="hanging" stroke-linejoin="round" stroke-width="1px" fill="hsl(49, 88%, 65%)" font-size="12px" font-family="sans-serif" text-anchor="start" stroke="hsl(49, 88%, 65%)"><rect vector-effect="non-scaling-stroke" x="736" y="502" width="12" height="12"/><g stroke="black" fill="black"><text vector-effect="non-scaling-stroke" x="752" y="502" dominant-baseline="hanging" stroke="none">Rust</text><g dominant-baseline="hanging" stroke-width="2px" fill="none" stroke-linecap="round" font-size="12px" text-anchor="start" stroke-linejoin="round" font-style="normal" font-family="sans-serif" font-weight="normal"><rect vector-effect="non-scaling-stroke" x="80" y="80" width="640" height="440"/></g><g font-size="12px" transform="translate(80 520 )scale(1 -1 )" fill="none" stroke-linecap="round" font-family="sans-serif" font-weight="normal" text-anchor="start" stroke="black" stroke-width="2px" stroke-linejoin="round" font-style="normal" dominant-baseline="hanging"><path vector-effect="non-scaling-stroke" d="M64,0 L64,-6 M8.533333e+01,0 L8.533333e+01,-6 M1.066667e+02,0 L1.066667e+02,-6 M128,0 L128,-6 M1.493333e+02,0 L1.493333e+02,-6 M1.706667e+02,0 L1.706667e+02,-6 M192,0 L192,-6 M2.133333e+02,0 L2.133333e+02,-6 M2.346667e+02,0 L2.346667e+02,-6 M256,0 L256,-6 M2.773333e+02,0 L2.773333e+02,-6 M2.986667e+02,0 L2.986667e+02,-6 M320,0 L320,-6 M3.413333e+02,0 L3.413333e+02,-6 M3.626667e+02,0 L3.626667e+02,-6 M384,0 L384,-6 M4.053333e+02,0 L4.053333e+02,-6 M4.266667e+02,0 L4.266667e+02,-6 M448,0 L448,-6 M4.693333e+02,0 L4.693333e+02,-6 M4.906667e+02,0 L4.906667e+02,-6 M512,0 L512,-6 M5.333333e+02,0 L5.333333e+02,-6 "/></g><g fill="black" transform="translate(80 520 )scale(1 1 )" text-anchor="middle" dominant-baseline="hanging" font-family="sans-serif" font-style="normal" stroke-linecap="round" font-size="12px" font-weight="normal" stroke="black" stroke-width="2px" stroke-linejoin="round"><text x="64" y="10" dominant-baseline="hanging" stroke="none" vector-effect="non-scaling-stroke">1</text><text dominant-baseline="hanging" stroke="none" vector-effect="non-scaling-stroke" x="8.533333e+01" y="10">2</text><text stroke="none" vector-effect="non-scaling-stroke" x="1.066667e+02" y="10" dominant-baseline="hanging">3</text><text stroke="none" vector-effect="non-scaling-stroke" x="128" y="10" dominant-baseline="hanging">4</text><text stroke="none" vector-effect="non-scaling-stroke" x="1.493333e+02" y="10" dominant-baseline="hanging">5</text><text dominant-baseline="hanging" stroke="none" vector-effect="non-scaling-stroke" x="1.706667e+02" y="10">6</text><text vector-effect="non-scaling-stroke" x="192" y="10" dominant-baseline="hanging" stroke="none">7</text><text y="10" dominant-baseline="hanging" stroke="none" vector-effect="non-scaling-stroke" x="2.133333e+02">8</text><text stroke="none" vector-effect="non-scaling-stroke" x="2.346667e+02" y="10" dominant-baseline="hanging">9</text><text x="256" y="10" dominant-baseline="hanging" stroke="none" vector-effect="non-scaling-stroke">10</text><text stroke="none" vector-effect="non-scaling-stroke" x="2.773333e+02" y="10" dominant-baseline="hanging">11</text><text dominant-baseline="hanging" stroke="none" vector-effect="non-scaling-stroke" x="2.986667e+02" y="10">12</text><text vector-effect="non-scaling-stroke" x="320" y="10" dominant-baseline="hanging" stroke="none">13</text><text x="3.413333e+02" y="10" dominant-baseline="hanging" stroke="none" vector-effect="non-scaling-stroke">14</text><text stroke="none" vector-effect="non-scaling-stroke" x="3.626667e+02" y="10" dominant-baseline="hanging">15</text><text y="10" dominant-baseline="hanging" stroke="none" vector-effect="non-scaling-stroke" x="384">16</text><text y="10" dominant-baseline="hanging" stroke="none" vector-effect="non-scaling-stroke" x="4.053333e+02">17</text><text dominant-baseline="hanging" stroke="none" vector-effect="non-scaling-stroke" x="4.266667e+02" y="10">18</text><text y="10" dominant-baseline="hanging" stroke="none" vector-effect="non-scaling-stroke" x="448">19</text><text y="10" dominant-baseline="hanging" stroke="none" vector-effect="non-scaling-stroke" x="4.693333e+02">20</text><text dominant-baseline="hanging" stroke="none" vector-effect="non-scaling-stroke" x="4.906667e+02" y="10">21</text><text stroke="none" vector-effect="non-scaling-stroke" x="512" y="10" dominant-baseline="hanging">22</text><text vector-effect="non-scaling-stroke" x="5.333333e+02" y="10" dominant-baseline="hanging" stroke="none">23</text></g><g stroke-width="2px" fill="black" stroke-linecap="round" font-size="12px" font-weight="bold" text-anchor="middle" dominant-baseline="baseline" stroke="black" font-family="sans-serif" transform="translate(80 520 )scale(1 1 )rotate(0 0 0 )" font-style="normal" stroke-linejoin="round"><text y="-6" dominant-baseline="baseline" stroke="none" vector-effect="non-scaling-stroke" x="320">Day</text></g><g stroke-linecap="round" stroke="black" stroke-width="2px" font-style="normal" font-family="sans-serif" fill="black" font-size="12px" transform="translate(80 520 )scale(1 -1 )" font-weight="bold" text-anchor="middle" dominant-baseline="baseline" stroke-linejoin="round"><path vector-effect="non-scaling-stroke" d="M0,44 L-6,44 M0,9.119185e+01 L-6,9.119185e+01 M0,1.383837e+02 L-6,1.383837e+02 M0,1.855756e+02 L-6,1.855756e+02 M0,2.327674e+02 L-6,2.327674e+02 M0,2.799593e+02 L-6,2.799593e+02 M0,3.271511e+02 L-6,3.271511e+02 M0,3.743430e+02 L-6,3.743430e+02 "/></g><g transform="translate(80 520 )scale(1 1 )" stroke="black" fill="black" stroke-linecap="round" font-size="12px" font-family="sans-serif" font-style="normal" font-weight="normal" text-anchor="end" dominant-baseline="middle" stroke-width="2px" stroke-linejoin="round"><text dominant-baseline="middle" stroke="none" vector-effect="non-scaling-stroke" x="-10" y="-44">0s</text><text stroke="none" vector-effect="non-scaling-stroke" x="-10" y="-9.119185e+01" dominant-baseline="middle">100ms</text><text stroke="none" vector-effect="non-scaling-stroke" x="-10" y="-1.383837e+02" dominant-baseline="middle">200ms</text><text stroke="none" vector-effect="non-scaling-stroke" x="-10" y="-1.855756e+02" dominant-baseline="middle">300ms</text><text dominant-baseline="middle" stroke="none" vector-effect="non-scaling-stroke" x="-10" y="-2.327674e+02">400ms</text><text stroke="none" vector-effect="non-scaling-stroke" x="-10" y="-2.799593e+02" dominant-baseline="middle">500ms</text><text x="-10" y="-3.271511e+02" dominant-baseline="middle" stroke="none" vector-effect="non-scaling-stroke">600ms</text><text y="-3.743430e+02" dominant-baseline="middle" stroke="none" vector-effect="non-scaling-stroke" x="-10">700ms</text></g><g dominant-baseline="hanging" fill="black" stroke-linecap="round" transform="translate(80 520 )scale(1 1 )rotate(-90 0 0 )" stroke="black" font-weight="bold" text-anchor="middle" font-size="12px" stroke-width="2px" stroke-linejoin="round" font-family="sans-serif" font-style="normal"><text stroke="none" vector-effect="non-scaling-stroke" x="220" y="6" dominant-baseline="hanging">Runtime</text></g></g></g></g></svg>