<svg height="600" viewbox="0 0 800 600" preserveAspectRatio="xMidYMid meet" xmlns="http://www.w3.org/2000/svg" width="800"><defs><marker markerUnits="userSpaceOnUse" markerWidth="2%" markerHeight="2%" id="circle" viewBox="0 0 10 10 " refX="5" refY="5"><circle cx="5" cy="5" r="3" fill="none" stroke="black"/></marker><marker viewBox="0 0 10 10 " refX="5" refY="5" markerUnits="userSpaceOnUse" markerWidth="2%" markerHeight="2%" id="filled-circle"><circle r="3" fill="black" stroke="none" cx="5" cy="5"/></marker><marker markerHeight="2%" id="square" viewBox="0 0 10 10 " refX="5" refY="5" markerUnits="userSpaceOnUse" markerWidth="2%"><rect height="6" fill="none" stroke="black" x="2" y="2" width="6"/></marker><marker markerUnits="userSpaceOnUse" markerWidth="2%" markerHeight="2%" id="filled-square" viewBox="0 0 10 10 " refX="5" refY="5"><rect height="6" fill="black" stroke="none" x="2" y="2" width="6"/></marker></defs><g stroke="hsl(198, 47%, 65%)" stroke-width="1px" stroke-linecap="round" stroke-linejoin="round" transform="translate(80 520 )scale(1 -1 )" fill="hsl(198, 47%, 65%)"><rect y="0" width="8.533333e+00" height="396" vector-effect="non-scaling-stroke" x="5.546667e+01"/><rect vector-effect="non-scaling-stroke" x="7.680000e+01" y="0" width="8.533333e+00" height="1.457686e+02"/><rect width="8.533333e+00" height="44" vector-effect="non-scaling-stroke" x="9.813333e+01" y="0"/><rect y="0" width="8.533333e+00" height="44" vector-effect="non-scaling-stroke" x="1.194667e+02"/><rect height="44" vector-effect="non-scaling-stroke" x="1.408000e+02" y="0" width="8.533333e+00"/><rect x="1.621333e+02" y="0" width="8.533333e+00" height="44" vector-effect="non-scaling-stroke"/><rect height="44" vector-effect="non-scaling-stroke" x="1.834667e+02" y="0" width="8.533333e+00"/><rect y="0" width="8.533333e+00" height="44" vector-effect="non-scaling-stroke" x="2.048000e+02"/><rect y="0" width="8.533333e+00" height="44" vector-effect="non-scaling-stroke" x="2.261333e+02"/><rect y="0" width="8.533333e+00" height="44" vector-effect="non-scaling-stroke" x="2.474667e+02"/><rect y="0" width="8.533333e+00" height="44" vector-effect="non-scaling-stroke" x="2.688000e+02"/><rect height="44" vector-effect="non-scaling-stroke" x="2.901333e+02" y="0" width="8.533333e+00"/><rect width="8.533333e+00" height="44" vector-effect="non-scaling-stroke" x="3.114667e+02" y="0"/><rect vector-effect="non-scaling-stroke" x="3.328000e+02" y="0" width="8.533333e+00" height="44"/><rect y="0" width="8.533333e+00" height="44" vector-effect="non-scaling-stroke" x="3.541333e+02"/><rect vector-effect="non-scaling-stroke" x="3.754667e+02" y="0" width="8.533333e+00" height="44"/><rect y="0" width="8.533333e+00" height="44" vector-effect="non-scaling-stroke" x="3.968000e+02"/><rect y="0" width="8.533333e+00" height="44" vector-effect="non-scaling-stroke" x="4.181333e+02"/><rect y="0" width="8.533333e+00" height="44" vector-effect="non-scaling-stroke" x="4.394667e+02"/><rect y="0" width="8.533333e+00" height="44" vector-effect="non-scaling-stroke" x="4.608000e+02"/><rect width="8.533333e+00" height="44" vector-effect="non-scaling-stroke" x="4.821333e+02" y="0"/><rect vector-effect="non-scaling-stroke" x="5.034667e+02" y="0" width="8.533333e+00" height="44"/><rect vector-effect="non-scaling-stroke" x="5.248000e+02" y="0" width="8.533333e+00" height="44"/><rect width="8.533333e+00" height="44" vector-effect="non-scaling-stroke" x="5.461333e+02" y="0"/><rect vector-effect="non-scaling-stroke" x="5.674667e+02" y="0" width="8.533333e+00" height="44"/></g><g stroke="hsl(49, 88%, 65%)" stroke-width="1px" stroke-linecap="round" stroke-linejoin="round" transform="translate(80 520 )scale(1 -1 )" fill="hsl(49, 88%, 65%)"><rect vector-effect="non-scaling-stroke" x="64" y="0" width="8.533333e+00" height="4.473432e+01"/><rect x="8.533333e+01" y="0" width="8.533333e+00" height="7.505755e+01" vector-effect="non-scaling-stroke"/><rect y="0" width="8.533333e+00" height="44" vector-effect="non-scaling-stroke" x="1.066667e+02"/><rect y="0" width="8.533333e+00" height="44" vector-effect="non-scaling-stroke" x="128"/><rect x="1.493333e+02" y="0" width="8.533333e+00" height="44" vector-effect="non-scaling-stroke"/><rect x="1.706667e+02" y="0" width="8.533333e+00" height="44" vector-effect="non-scaling-stroke"/><rect height="44" vector-effect="non-scaling-stroke" x="192" y="0" width="8.533333e+00"/><rect vector-effect="non-scaling-stroke" x="2.133333e+02" y="0" width="8.533333e+00" height="44"/><rect y="0" width="8.533333e+00" height="44" vector-effect="non-scaling-stroke" x="2.346667e+02"/><rect vector-effect="non-scaling-stroke" x="2.560000e+02" y="0" width="8.533333e+00" height="44"/><rect vector-effect="non-scaling-stroke" x="2.773333e+02" y="0" width="8.533333e+00" height="44"/><rect y="0" width="8.533333e+00" height="44" vector-effect="non-scaling-stroke" x="2.986667e+02"/><rect height="44" vector-effect="non-scaling-stroke" x="320" y="0" width="8.533333e+00"/><rect vector-effect="non-scaling-stroke" x="3.413333e+02" y="0" width="8.533333e+00" height="44"/><rect vector-effect="non-scaling-stroke" x="3.626667e+02" y="0" width="8.533333e+00" height="44"/><rect width="8.533333e+00" height="44" vector-effect="non-scaling-stroke" x="384" y="0"/><rect x="4.053333e+02" y="0" width="8.533333e+00" height="44" vector-effect="non-scaling-stroke"/><rect width="8.533333e+00" height="44" vector-effect="non-scaling-stroke" x="4.266667e+02" y="0"/><rect x="448" y="0" width="8.533333e+00" height="44" vector-effect="non-scaling-stroke"/><rect width="8.533333e+00" height="44" vector-effect="non-scaling-stroke" x="4.693333e+02" y="0"/><rect width="8.533333e+00" height="44" vector-effect="non-scaling-stroke" x="4.906667e+02" y="0"/><rect width="8.533333e+00" height="44" vector-effect="non-scaling-stroke" x="512" y="0"/><rect height="44" vector-effect="non-scaling-stroke" x="5.333333e+02" y="0" width="8.533333e+00"/><rect vector-effect="non-scaling-stroke" x="5.546667e+02" y="0" width="8.533333e+00" height="44"/><rect vector-effect="non-scaling-stroke" x="576" y="0" width="8.533333e+00" height="44"/></g><g stroke-linejoin="round" font-size="12px" font-weight="normal" fill="hsl(198, 47%, 65%)" font-family="sans-serif" text-anchor="start" dominant-baseline="hanging" stroke-width="1px" font-style="normal" stroke="hsl(198, 47%, 65%)" stroke-linecap="round"><rect vector-effect="non-scaling-stroke" x="736" y="484" width="12" height="12"/><g fill="black" stroke="black"><text dominant-baseline="hanging" stroke="none" vector-effect="non-scaling-stroke" x="752" y="484">Golang</text></g><g text-anchor="start" dominant-baseline="hanging" font-family="sans-serif" font-size="12px" stroke-linecap="round" font-style="normal" font-weight="normal" stroke-width="1px" stroke-linejoin="round" stroke="hsl(49, 88%, 65%)" fill="hsl(49, 88%, 65%)"><rect width="12" height="12" vector-effect="non-scaling-stroke" x="736" y="502"/><g fill="black" stroke="black"><text dominant-baseline="hanging" stroke="none" vector-effect="non-scaling-stroke" x="752" y="502">Rust</text><g stroke-linecap="round" font-style="normal" font-weight="normal" fill="none" stroke-width="2px" font-size="12px" dominant-baseline="hanging" stroke-linejoin="round" text-anchor="start" font-family="sans-serif"><rect width="640" height="440" vector-effect="non-scaling-stroke" x="80" y="80"/></g><g transform="translate(80 520 )scale(1 -1 )" stroke="black" stroke-linecap="round" text-anchor="start" fill="none" stroke-linejoin="round" font-style="normal" font-family="sans-serif" font-size="12px" font-weight="normal" dominant-baseline="hanging" stroke-width="2px"><path vector-effect="non-scaling-stroke" d="M64,0 L64,-6 M8.533333e+01,0 L8.533333e+01,-6 M1.066667e+02,0 L1.066667e+02,-6 M128,0 L128,-6 M1.493333e+02,0 L1.493333e+02,-6 M1.706667e+02,0 L1.706667e+02,-6 M192,0 L192,-6 M2.133333e+02,0 L2.133333e+02,-6 M2.346667e+02,0 L2.346667e+02,-6 M256,0 L256,-6 M2.773333e+02,0 L2.773333e+02,-6 M2.986667e+02,0 L2.986667e+02,-6 M320,0 L320,-6 M3.413333e+02,0 L3.413333e+02,-6 M3.626667e+02,0 L3.626667e+02,-6 M384,0 L384,-6 M4.053333e+02,0 L4.053333e+02,-6 M4.266667e+02,0 L4.266667e+02,-6 M448,0 L448,-6 M4.693333e+02,0 L4.693333e+02,-6 M4.906667e+02,0 L4.906667e+02,-6 M512,0 L512,-6 M5.333333e+02,0 L5.333333e+02,-6 M5.546667e+02,0 L5.546667e+02,-6 M576,0 L576,-6 "/></g><g font-style="normal" text-anchor="middle" dominant-baseline="hanging" fill="black" stroke-width="2px" stroke="black" stroke-linecap="round" transform="translate(80 520 )scale(1 1 )" stroke-linejoin="round" font-family="sans-serif" font-size="12px" font-weight="normal"><text stroke="none" vector-effect="non-scaling-stroke" x="64" y="10" dominant-baseline="hanging">1</text><text stroke="none" vector-effect="non-scaling-stroke" x="8.533333e+01" y="10" dominant-baseline="hanging">2</text><text x="1.066667e+02" y="10" dominant-baseline="hanging" stroke="none" vector-effect="non-scaling-stroke">3</text><text y="10" dominant-baseline="hanging" stroke="none" vector-effect="non-scaling-stroke" x="128">4</text><text dominant-baseline="hanging" stroke="none" vector-effect="non-scaling-stroke" x="1.493333e+02" y="10">5</text><text dominant-baseline="hanging" stroke="none" vector-effect="non-scaling-stroke" x="1.706667e+02" y="10">6</text><text stroke="none" vector-effect="non-scaling-stroke" x="192" y="10" dominant-baseline="hanging">7</text><text vector-effect="non-scaling-stroke" x="2.133333e+02" y="10" dominant-baseline="hanging" stroke="none">8</text><text y="10" dominant-baseline="hanging" stroke="none" vector-effect="non-scaling-stroke" x="2.346667e+02">9</text><text x="256" y="10" dominant-baseline="hanging" stroke="none" vector-effect="non-scaling-stroke">10</text><text vector-effect="non-scaling-stroke" x="2.773333e+02" y="10" dominant-baseline="hanging" stroke="none">11</text><text dominant-baseline="hanging" stroke="none" vector-effect="non-scaling-stroke" x="2.986667e+02" y="10">12</text><text dominant-baseline="hanging" stroke="none" vector-effect="non-scaling-stroke" x="320" y="10">13</text><text vector-effect="non-scaling-stroke" x="3.413333e+02" y="10" dominant-baseline="hanging" stroke="none">14</text><text x="3.626667e+02" y="10" dominant-baseline="hanging" stroke="none" vector-effect="non-scaling-stroke">15</text><text stroke="none" vector-effect="non-scaling-stroke" x="384" y="10" dominant-baseline="hanging">16</text><text x="4.053333e+02" y="10" dominant-baseline="hanging" stroke="none" vector-effect="non-scaling-stroke">17</text><text stroke="none" vector-effect="non-scaling-stroke" x="4.266667e+02" y="10" dominant-baseline="hanging">18</text><text vector-effect="non-scaling-stroke" x="448" y="10" dominant-baseline="hanging" stroke="none">19</text><text vector-effect="non-scaling-stroke" x="4.693333e+02" y="10" dominant-baseline="hanging" stroke="none">20</text><text y="10" dominant-baseline="hanging" stroke="none" vector-effect="non-scaling-stroke" x="4.906667e+02">21</text><text vector-effect="non-scaling-stroke" x="512" y="10" dominant-baseline="hanging" stroke="none">22</text><text y="10" dominant-baseline="hanging" stroke="none" vector-effect="non-scaling-stroke" x="5.333333e+02">23</text><text x="5.546667e+02" y="10" dominant-baseline="hanging" stroke="none" vector-effect="non-scaling-stroke">24</text><text y="10" dominant-baseline="hanging" stroke="none" vector-effect="non-scaling-stroke" x="576">25</text></g><g font-style="normal" stroke-linecap="round" stroke-linejoin="round" font-weight="bold" fill="black" dominant-baseline="baseline" stroke-width="2px" transform="translate(80 520 )scale(1 1 )rotate(0 0 0 )" stroke="black" font-family="sans-serif" font-size="12px" text-anchor="middle"><text dominant-baseline="baseline" stroke="none" vector-effect="non-scaling-stroke" x="320" y="-6">Day</text></g><g transform="translate(80 520 )scale(1 -1 )" stroke-linecap="round" font-family="sans-serif" font-weight="bold" fill="black" stroke-width="2px" font-style="normal" stroke="black" stroke-linejoin="round" font-size="12px" text-anchor="middle" dominant-baseline="baseline"><path vector-effect="non-scaling-stroke" d="M0,44 L-6,44 M0,8.719548e+01 L-6,8.719548e+01 M0,1.303910e+02 L-6,1.303910e+02 M0,1.735865e+02 L-6,1.735865e+02 M0,2.167819e+02 L-6,2.167819e+02 M0,2.599774e+02 L-6,2.599774e+02 M0,3.031729e+02 L-6,3.031729e+02 M0,3.463684e+02 L-6,3.463684e+02 M0,3.895639e+02 L-6,3.895639e+02 "/></g><g stroke="black" font-style="normal" transform="translate(80 520 )scale(1 1 )" stroke-linejoin="round" font-weight="normal" text-anchor="end" dominant-baseline="middle" fill="black" stroke-width="2px" font-family="sans-serif" stroke-linecap="round" font-size="12px"><text y="-44" dominant-baseline="middle" stroke="none" vector-effect="non-scaling-stroke" x="-10">0s</text><text dominant-baseline="middle" stroke="none" vector-effect="non-scaling-stroke" x="-10" y="-8.719548e+01">2µs</text><text y="-1.303910e+02" dominant-baseline="middle" stroke="none" vector-effect="non-scaling-stroke" x="-10">4µs</text><text stroke="none" vector-effect="non-scaling-stroke" x="-10" y="-1.735865e+02" dominant-baseline="middle">6µs</text><text vector-effect="non-scaling-stroke" x="-10" y="-2.167819e+02" dominant-baseline="middle" stroke="none">8µs</text><text dominant-baseline="middle" stroke="none" vector-effect="non-scaling-stroke" x="-10" y="-2.599774e+02">10µs</text><text x="-10" y="-3.031729e+02" dominant-baseline="middle" stroke="none" vector-effect="non-scaling-stroke">12µs</text><text dominant-baseline="middle" stroke="none" vector-effect="non-scaling-stroke" x="-10" y="-3.463684e+02">14µs</text><text stroke="none" vector-effect="non-scaling-stroke" x="-10" y="-3.895639e+02" dominant-baseline="middle">16µs</text></g><g stroke-linecap="round" font-family="sans-serif" font-size="12px" font-weight="bold" text-anchor="middle" stroke-linejoin="round" transform="translate(80 520 )scale(1 1 )rotate(-90 0 0 )" font-style="normal" dominant-baseline="hanging" fill="black" stroke-width="2px" stroke="black"><text vector-effect="non-scaling-stroke" x="220" y="6" dominant-baseline="hanging" stroke="none">Runtime</text></g></g></g></g></svg>