<svg width="800" height="600" viewbox="0 0 800 600" preserveAspectRatio="xMidYMid meet" xmlns="http://www.w3.org/2000/svg"><defs><marker refX="5" refY="5" markerUnits="userSpaceOnUse" markerWidth="2%" markerHeight="2%" id="circle" viewBox="0 0 10 10 "><circle fill="none" stroke="black" cx="5" cy="5" r="3"/></marker><marker refX="5" refY="5" markerUnits="userSpaceOnUse" markerWidth="2%" markerHeight="2%" id="filled-circle" viewBox="0 0 10 10 "><circle cy="5" r="3" fill="black" stroke="none" cx="5"/></marker><marker markerUnits="userSpaceOnUse" markerWidth="2%" markerHeight="2%" id="square" viewBox="0 0 10 10 " refX="5" refY="5"><rect fill="none" stroke="black" x="2" y="2" width="6" height="6"/></marker><marker markerWidth="2%" markerHeight="2%" id="filled-square" viewBox="0 0 10 10 " refX="5" refY="5" markerUnits="userSpaceOnUse"><rect stroke="none" x="2" y="2" width="6" height="6" fill="black"/></marker></defs><g fill="hsl(198, 47%, 65%)" stroke="hsl(198, 47%, 65%)" stroke-width="1px" stroke-linecap="round" stroke-linejoin="round" transform="translate(80 520 )scale(1 -1 )"><rect width="1.833333e+01" height="4.418910e+01" vector-effect="non-scaling-stroke" x="3.650000e+01" y="0"/><rect y="0" width="1.833333e+01" height="2.109720e+02" vector-effect="non-scaling-stroke" x="5.783333e+01"/><rect height="4.483797e+01" vector-effect="non-scaling-stroke" x="7.916667e+01" y="0" width="1.833333e+01"/></g><g stroke-width="1px" stroke-linecap="round" stroke-linejoin="round" transform="translate(80 520 )scale(1 -1 )" fill="hsl(49, 88%, 65%)" stroke="hsl(49, 88%, 65%)"><rect height="4.409569e+01" vector-effect="non-scaling-stroke" x="5.483333e+01" y="0" width="1.833333e+01"/><rect height="2.517139e+02" vector-effect="non-scaling-stroke" x="7.616667e+01" y="0" width="1.833333e+01"/><rect x="9.750000e+01" y="0" width="1.833333e+01" height="4.460462e+01" vector-effect="non-scaling-stroke"/></g><g fill="hsl(260, 76%, 65%)" stroke="hsl(260, 76%, 65%)" stroke-width="1px" stroke-linecap="round" stroke-linejoin="round" transform="translate(80 520 )scale(1 -1 )"><rect vector-effect="non-scaling-stroke" x="7.316667e+01" y="0" width="1.833333e+01" height="4.409934e+01"/><rect width="1.833333e+01" height="396" vector-effect="non-scaling-stroke" x="9.450000e+01" y="0"/><rect width="1.833333e+01" height="4.441413e+01" vector-effect="non-scaling-stroke" x="1.158333e+02" y="0"/></g><g stroke-width="1px" stroke-linecap="round" stroke-linejoin="round" font-size="12px" font-style="normal" text-anchor="start" fill="hsl(198, 47%, 65%)" font-weight="normal" font-family="sans-serif" dominant-baseline="hanging" stroke="hsl(198, 47%, 65%)"><rect x="736" y="466" width="12" height="12" vector-effect="non-scaling-stroke"/><g stroke="black" fill="black"><text x="752" y="466" dominant-baseline="hanging" stroke="none" vector-effect="non-scaling-stroke">Golang</text></g><g fill="hsl(49, 88%, 65%)" stroke="hsl(49, 88%, 65%)" stroke-width="1px" stroke-linejoin="round" font-size="12px" font-family="sans-serif" stroke-linecap="round" font-style="normal" font-weight="normal" text-anchor="start" dominant-baseline="hanging"><rect vector-effect="non-scaling-stroke" x="736" y="484" width="12" height="12"/><g stroke="black" fill="black"><text y="484" dominant-baseline="hanging" stroke="none" vector-effect="non-scaling-stroke" x="752">Rust</text></g><g font-style="normal" text-anchor="start" dominant-baseline="hanging" stroke="hsl(260, 76%, 65%)" stroke-width="1px" stroke-linecap="round" font-weight="normal" font-family="sans-serif" fill="hsl(260, 76%, 65%)" stroke-linejoin="round" font-size="12px"><rect height="12" vector-effect="non-scaling-stroke" x="736" y="502" width="12"/><g fill="black" stroke="black"><text dominant-baseline="hanging" stroke="none" vector-effect="non-scaling-stroke" x="752" y="502">Zig</text><g font-weight="normal" font-family="sans-serif" font-style="normal" text-anchor="start" dominant-baseline="hanging" stroke-width="2px" stroke-linejoin="round" fill="none" stroke-linecap="round" font-size="12px"><rect width="640" height="440" vector-effect="non-scaling-stroke" x="80" y="80"/></g><g dominant-baseline="hanging" fill="none" stroke="black" stroke-width="2px" stroke-linecap="round" stroke-linejoin="round" font-style="normal" font-family="sans-serif" text-anchor="start" transform="translate(80 520 )scale(1 -1 )" font-size="12px" font-weight="normal"><path vector-effect="non-scaling-stroke" d="M64,0 L64,-6 M8.533333e+01,0 L8.533333e+01,-6 M1.066667e+02,0 L1.066667e+02,-6 "/></g><g text-anchor="middle" dominant-baseline="hanging" stroke="black" stroke-linecap="round" stroke-linejoin="round" font-weight="normal" transform="translate(80 520 )scale(1 1 )" fill="black" stroke-width="2px" font-size="12px" font-style="normal" font-family="sans-serif"><text dominant-baseline="hanging" stroke="none" vector-effect="non-scaling-stroke" x="64" y="10">1</text><text dominant-baseline="hanging" stroke="none" vector-effect="non-scaling-stroke" x="8.533333e+01" y="10">2</text><text x="1.066667e+02" y="10" dominant-baseline="hanging" stroke="none" vector-effect="non-scaling-stroke">3</text></g><g transform="translate(80 520 )scale(1 1 )rotate(0 0 0 )" stroke="black" font-weight="bold" font-family="sans-serif" fill="black" stroke-width="2px" stroke-linecap="round" stroke-linejoin="round" font-size="12px" font-style="normal" text-anchor="middle" dominant-baseline="baseline"><text vector-effect="non-scaling-stroke" x="320" y="-6" dominant-baseline="baseline" stroke="none">Day</text></g><g stroke-linecap="round" font-size="12px" font-style="normal" font-family="sans-serif" text-anchor="middle" transform="translate(80 520 )scale(1 -1 )" stroke-width="2px" stroke-linejoin="round" font-weight="bold" dominant-baseline="baseline" fill="black" stroke="black"><path d="M0,44 L-6,44 M0,1.420220e+02 L-6,1.420220e+02 M0,2.400441e+02 L-6,2.400441e+02 M0,3.380661e+02 L-6,3.380661e+02 " vector-effect="non-scaling-stroke"/></g><g stroke-linejoin="round" font-family="sans-serif" text-anchor="end" dominant-baseline="middle" fill="black" font-size="12px" font-style="normal" font-weight="normal" transform="translate(80 520 )scale(1 1 )" stroke="black" stroke-width="2px" stroke-linecap="round"><text x="-10" y="-44" dominant-baseline="middle" stroke="none" vector-effect="non-scaling-stroke">0s</text><text vector-effect="non-scaling-stroke" x="-10" y="-1.420220e+02" dominant-baseline="middle" stroke="none">10ms</text><text stroke="none" vector-effect="non-scaling-stroke" x="-10" y="-2.400441e+02" dominant-baseline="middle">20ms</text><text stroke="none" vector-effect="non-scaling-stroke" x="-10" y="-3.380661e+02" dominant-baseline="middle">30ms</text></g><g transform="translate(80 520 )scale(1 1 )rotate(-90 0 0 )" stroke="black" font-size="12px" font-weight="bold" font-family="sans-serif" fill="black" stroke-width="2px" stroke-linecap="round" stroke-linejoin="round" font-style="normal" text-anchor="middle" dominant-baseline="hanging"><text vector-effect="non-scaling-stroke" x="220" y="6" dominant-baseline="hanging" stroke="none">Runtime</text></g></g></g></g></g></svg>