<svg width="800" height="600" viewbox="0 0 800 600" preserveAspectRatio="xMidYMid meet" xmlns="http://www.w3.org/2000/svg"><defs><marker markerUnits="userSpaceOnUse" markerWidth="2%" markerHeight="2%" id="circle" viewBox="0 0 10 10 " refX="5" refY="5"><circle stroke="black" cx="5" cy="5" r="3" fill="none"/></marker><marker markerWidth="2%" markerHeight="2%" id="filled-circle" viewBox="0 0 10 10 " refX="5" refY="5" markerUnits="userSpaceOnUse"><circle r="3" fill="black" stroke="none" cx="5" cy="5"/></marker><marker refX="5" refY="5" markerUnits="userSpaceOnUse" markerWidth="2%" markerHeight="2%" id="square" viewBox="0 0 10 10 "><rect width="6" height="6" fill="none" stroke="black" x="2" y="2"/></marker><marker markerHeight="2%" id="filled-square" viewBox="0 0 10 10 " refX="5" refY="5" markerUnits="userSpaceOnUse" markerWidth="2%"><rect height="6" fill="black" stroke="none" x="2" y="2" width="6"/></marker></defs><g stroke-width="1px" stroke-linecap="round" stroke-linejoin="round" transform="translate(80 520 )scale(1 -1 )" fill="hsl(198, 47%, 65%)" stroke="hsl(198, 47%, 65%)"><rect x="4.622222e+01" y="0" width="1.777778e+01" height="4.441257e+01" vector-effect="non-scaling-stroke"/><rect y="0" width="1.777778e+01" height="4.411410e+01" vector-effect="non-scaling-stroke" x="6.755556e+01"/><rect x="8.888889e+01" y="0" width="1.777778e+01" height="4.525135e+01" vector-effect="non-scaling-stroke"/><rect vector-effect="non-scaling-stroke" x="1.102222e+02" y="0" width="1.777778e+01" height="4.450511e+01"/><rect vector-effect="non-scaling-stroke" x="1.315556e+02" y="0" width="1.777778e+01" height="4.430672e+01"/><rect width="1.777778e+01" height="4.480381e+01" vector-effect="non-scaling-stroke" x="1.528889e+02" y="0"/><rect vector-effect="non-scaling-stroke" x="1.742222e+02" y="0" width="1.777778e+01" height="4.462087e+01"/><rect vector-effect="non-scaling-stroke" x="1.955556e+02" y="0" width="1.777778e+01" height="6.071526e+01"/><rect x="2.168889e+02" y="0" width="1.777778e+01" height="5.379807e+01" vector-effect="non-scaling-stroke"/><rect width="1.777778e+01" height="4.404087e+01" vector-effect="non-scaling-stroke" x="2.382222e+02" y="0"/><rect width="1.777778e+01" height="396" vector-effect="non-scaling-stroke" x="2.595556e+02" y="0"/><rect width="1.777778e+01" height="8.387643e+01" vector-effect="non-scaling-stroke" x="2.808889e+02" y="0"/></g><g stroke="hsl(49, 88%, 65%)" stroke-width="1px" stroke-linecap="round" stroke-linejoin="round" transform="translate(80 520 )scale(1 -1 )" fill="hsl(49, 88%, 65%)"><rect width="1.777778e+01" height="4.418676e+01" vector-effect="non-scaling-stroke" x="64" y="0"/><rect vector-effect="non-scaling-stroke" x="8.533333e+01" y="0" width="1.777778e+01" height="4.402739e+01"/><rect vector-effect="non-scaling-stroke" x="1.066667e+02" y="0" width="1.777778e+01" height="4.494503e+01"/><rect vector-effect="non-scaling-stroke" x="128" y="0" width="1.777778e+01" height="4.432235e+01"/><rect x="1.493333e+02" y="0" width="1.777778e+01" height="4.424934e+01" vector-effect="non-scaling-stroke"/><rect height="4.447789e+01" vector-effect="non-scaling-stroke" x="1.706667e+02" y="0" width="1.777778e+01"/><rect width="1.777778e+01" height="4.455890e+01" vector-effect="non-scaling-stroke" x="192" y="0"/><rect vector-effect="non-scaling-stroke" x="2.133333e+02" y="0" width="1.777778e+01" height="6.027557e+01"/><rect vector-effect="non-scaling-stroke" x="2.346667e+02" y="0" width="1.777778e+01" height="5.372041e+01"/><rect height="4.402996e+01" vector-effect="non-scaling-stroke" x="256" y="0" width="1.777778e+01"/><rect width="1.777778e+01" height="1.763100e+02" vector-effect="non-scaling-stroke" x="2.773333e+02" y="0"/></g><g font-style="normal" stroke-width="1px" fill="hsl(198, 47%, 65%)" stroke-linecap="round" stroke-linejoin="round" dominant-baseline="hanging" text-anchor="start" stroke="hsl(198, 47%, 65%)" font-family="sans-serif" font-size="12px" font-weight="normal"><rect vector-effect="non-scaling-stroke" x="736" y="484" width="12" height="12"/><g stroke="black" fill="black"><text stroke="none" vector-effect="non-scaling-stroke" x="752" y="484" dominant-baseline="hanging">Golang</text></g><g stroke-linecap="round" dominant-baseline="hanging" stroke-width="1px" font-style="normal" fill="hsl(49, 88%, 65%)" font-size="12px" font-weight="normal" stroke="hsl(49, 88%, 65%)" font-family="sans-serif" text-anchor="start" stroke-linejoin="round"><rect x="736" y="502" width="12" height="12" vector-effect="non-scaling-stroke"/><g fill="black" stroke="black"><text stroke="none" vector-effect="non-scaling-stroke" x="752" y="502" dominant-baseline="hanging">Rust</text><g dominant-baseline="hanging" text-anchor="start" font-size="12px" stroke-width="2px" font-style="normal" font-weight="normal" fill="none" stroke-linejoin="round" stroke-linecap="round" font-family="sans-serif"><rect vector-effect="non-scaling-stroke" x="80" y="80" width="640" height="440"/></g><g stroke-linejoin="round" stroke="black" font-size="12px" dominant-baseline="hanging" fill="none" stroke-linecap="round" font-style="normal" text-anchor="start" stroke-width="2px" font-family="sans-serif" font-weight="normal" transform="translate(80 520 )scale(1 -1 )"><path vector-effect="non-scaling-stroke" d="M64,0 L64,-6 M8.533333e+01,0 L8.533333e+01,-6 M1.066667e+02,0 L1.066667e+02,-6 M128,0 L128,-6 M1.493333e+02,0 L1.493333e+02,-6 M1.706667e+02,0 L1.706667e+02,-6 M192,0 L192,-6 M2.133333e+02,0 L2.133333e+02,-6 M2.346667e+02,0 L2.346667e+02,-6 M256,0 L256,-6 M2.773333e+02,0 L2.773333e+02,-6 M2.986667e+02,0 L2.986667e+02,-6 "/></g><g dominant-baseline="hanging" stroke-linejoin="round" font-style="normal" font-family="sans-serif" font-size="12px" stroke-width="2px" font-weight="normal" transform="translate(80 520 )scale(1 1 )" fill="black" stroke-linecap="round" text-anchor="middle" stroke="black"><text x="64" y="10" dominant-baseline="hanging" stroke="none" vector-effect="non-scaling-stroke">1</text><text dominant-baseline="hanging" stroke="none" vector-effect="non-scaling-stroke" x="8.533333e+01" y="10">2</text><text x="1.066667e+02" y="10" dominant-baseline="hanging" stroke="none" vector-effect="non-scaling-stroke">3</text><text dominant-baseline="hanging" stroke="none" vector-effect="non-scaling-stroke" x="128" y="10">4</text><text vector-effect="non-scaling-stroke" x="1.493333e+02" y="10" dominant-baseline="hanging" stroke="none">5</text><text stroke="none" vector-effect="non-scaling-stroke" x="1.706667e+02" y="10" dominant-baseline="hanging">6</text><text stroke="none" vector-effect="non-scaling-stroke" x="192" y="10" dominant-baseline="hanging">7</text><text x="2.133333e+02" y="10" dominant-baseline="hanging" stroke="none" vector-effect="non-scaling-stroke">8</text><text stroke="none" vector-effect="non-scaling-stroke" x="2.346667e+02" y="10" dominant-baseline="hanging">9</text><text dominant-baseline="hanging" stroke="none" vector-effect="non-scaling-stroke" x="256" y="10">10</text><text stroke="none" vector-effect="non-scaling-stroke" x="2.773333e+02" y="10" dominant-baseline="hanging">11</text><text y="10" dominant-baseline="hanging" stroke="none" vector-effect="non-scaling-stroke" x="2.986667e+02">12</text></g><g transform="translate(80 520 )scale(1 1 )rotate(0 0 0 )" font-size="12px" stroke-linejoin="round" text-anchor="middle" fill="black" stroke-linecap="round" font-style="normal" dominant-baseline="baseline" stroke="black" stroke-width="2px" font-family="sans-serif" font-weight="bold"><text x="320" y="-6" dominant-baseline="baseline" stroke="none" vector-effect="non-scaling-stroke">Day</text></g><g dominant-baseline="baseline" stroke="black" font-size="12px" font-weight="bold" fill="black" stroke-linecap="round" font-style="normal" stroke-width="2px" font-family="sans-serif" stroke-linejoin="round" text-anchor="middle" transform="translate(80 520 )scale(1 -1 )"><path vector-effect="non-scaling-stroke" d="M0,44 L-6,44 M0,9.426497e+01 L-6,9.426497e+01 M0,1.445299e+02 L-6,1.445299e+02 M0,1.947949e+02 L-6,1.947949e+02 M0,2.450599e+02 L-6,2.450599e+02 M0,2.953248e+02 L-6,2.953248e+02 M0,3.455898e+02 L-6,3.455898e+02 M0,3.958548e+02 L-6,3.958548e+02 "/></g><g font-weight="normal" stroke-linejoin="round" font-style="normal" transform="translate(80 520 )scale(1 1 )" font-family="sans-serif" font-size="12px" stroke-width="2px" fill="black" stroke-linecap="round" text-anchor="end" dominant-baseline="middle" stroke="black"><text stroke="none" vector-effect="non-scaling-stroke" x="-10" y="-44" dominant-baseline="middle">0s</text><text stroke="none" vector-effect="non-scaling-stroke" x="-10" y="-9.426497e+01" dominant-baseline="middle">2ms</text><text x="-10" y="-1.445299e+02" dominant-baseline="middle" stroke="none" vector-effect="non-scaling-stroke">4ms</text><text stroke="none" vector-effect="non-scaling-stroke" x="-10" y="-1.947949e+02" dominant-baseline="middle">6ms</text><text stroke="none" vector-effect="non-scaling-stroke" x="-10" y="-2.450599e+02" dominant-baseline="middle">8ms</text><text vector-effect="non-scaling-stroke" x="-10" y="-2.953248e+02" dominant-baseline="middle" stroke="none">10ms</text><text stroke="none" vector-effect="non-scaling-stroke" x="-10" y="-3.455898e+02" dominant-baseline="middle">12ms</text><text x="-10" y="-3.958548e+02" dominant-baseline="middle" stroke="none" vector-effect="non-scaling-stroke">14ms</text></g><g stroke-linejoin="round" text-anchor="middle" fill="black" stroke-linecap="round" dominant-baseline="hanging" transform="translate(80 520 )scale(1 1 )rotate(-90 0 0 )" stroke="black" font-style="normal" font-family="sans-serif" font-size="12px" font-weight="bold" stroke-width="2px"><text stroke="none" vector-effect="non-scaling-stroke" x="220" y="6" dominant-baseline="hanging">Runtime</text></g></g></g></g></svg>