<svg height="600" viewbox="0 0 800 600" preserveAspectRatio="xMidYMid meet" xmlns="http://www.w3.org/2000/svg" width="800"><defs><marker refY="5" markerUnits="userSpaceOnUse" markerWidth="2%" markerHeight="2%" id="circle" viewBox="0 0 10 10 " refX="5"><circle r="3" fill="none" stroke="black" cx="5" cy="5"/></marker><marker refY="5" markerUnits="userSpaceOnUse" markerWidth="2%" markerHeight="2%" id="filled-circle" viewBox="0 0 10 10 " refX="5"><circle fill="black" stroke="none" cx="5" cy="5" r="3"/></marker><marker refX="5" refY="5" markerUnits="userSpaceOnUse" markerWidth="2%" markerHeight="2%" id="square" viewBox="0 0 10 10 "><rect x="2" y="2" width="6" height="6" fill="none" stroke="black"/></marker><marker id="filled-square" viewBox="0 0 10 10 " refX="5" refY="5" markerUnits="userSpaceOnUse" markerWidth="2%" markerHeight="2%"><rect fill="black" stroke="none" x="2" y="2" width="6" height="6"/></marker></defs><g stroke-linecap="round" stroke-linejoin="round" transform="translate(80 520 )scale(1 -1 )" fill="hsl(198, 47%, 65%)" stroke="hsl(198, 47%, 65%)" stroke-width="1px"><rect x="5.214815e+01" y="0" width="1.185185e+01" height="4.400289e+01" vector-effect="non-scaling-stroke"/><rect y="0" width="1.185185e+01" height="4.400080e+01" vector-effect="non-scaling-stroke" x="7.348148e+01"/><rect vector-effect="non-scaling-stroke" x="9.481481e+01" y="0" width="1.185185e+01" height="4.400876e+01"/><rect x="1.161481e+02" y="0" width="1.185185e+01" height="4.400354e+01" vector-effect="non-scaling-stroke"/><rect x="1.374815e+02" y="0" width="1.185185e+01" height="4.400215e+01" vector-effect="non-scaling-stroke"/><rect vector-effect="non-scaling-stroke" x="1.588148e+02" y="0" width="1.185185e+01" height="4.400563e+01"/><rect width="1.185185e+01" height="4.400435e+01" vector-effect="non-scaling-stroke" x="1.801481e+02" y="0"/><rect y="0" width="1.185185e+01" height="4.411749e+01" vector-effect="non-scaling-stroke" x="2.014815e+02"/><rect x="2.228148e+02" y="0" width="1.185185e+01" height="4.406861e+01" vector-effect="non-scaling-stroke"/><rect vector-effect="non-scaling-stroke" x="2.441481e+02" y="0" width="1.185185e+01" height="4.400029e+01"/><rect x="2.654815e+02" y="0" width="1.185185e+01" height="4.646502e+01" vector-effect="non-scaling-stroke"/><rect y="0" width="1.185185e+01" height="4.408909e+01" vector-effect="non-scaling-stroke" x="2.868148e+02"/><rect x="3.081481e+02" y="0" width="1.185185e+01" height="4.413974e+01" vector-effect="non-scaling-stroke"/><rect vector-effect="non-scaling-stroke" x="3.294815e+02" y="0" width="1.185185e+01" height="4.504581e+01"/><rect width="1.185185e+01" height="4.400097e+01" vector-effect="non-scaling-stroke" x="3.508148e+02" y="0"/><rect x="3.721481e+02" y="0" width="1.185185e+01" height="8.283315e+02" vector-effect="non-scaling-stroke"/><rect vector-effect="non-scaling-stroke" x="3.934815e+02" y="0" width="1.185185e+01" height="4.408508e+01"/><rect vector-effect="non-scaling-stroke" x="4.148148e+02" y="0" width="1.185185e+01" height="4.403402e+01"/></g><g stroke-linejoin="round" transform="translate(80 520 )scale(1 -1 )" fill="hsl(49, 88%, 65%)" stroke="hsl(49, 88%, 65%)" stroke-width="1px" stroke-linecap="round"><rect width="1.185185e+01" height="4.400131e+01" vector-effect="non-scaling-stroke" x="64" y="0"/><rect y="0" width="1.185185e+01" height="4.400019e+01" vector-effect="non-scaling-stroke" x="8.533333e+01"/><rect height="4.400662e+01" vector-effect="non-scaling-stroke" x="1.066667e+02" y="0" width="1.185185e+01"/><rect y="0" width="1.185185e+01" height="4.400226e+01" vector-effect="non-scaling-stroke" x="128"/><rect y="0" width="1.185185e+01" height="4.400175e+01" vector-effect="non-scaling-stroke" x="1.493333e+02"/><rect height="4.400335e+01" vector-effect="non-scaling-stroke" x="1.706667e+02" y="0" width="1.185185e+01"/><rect x="192" y="0" width="1.185185e+01" height="4.400391e+01" vector-effect="non-scaling-stroke"/><rect vector-effect="non-scaling-stroke" x="2.133333e+02" y="0" width="1.185185e+01" height="4.411398e+01"/><rect vector-effect="non-scaling-stroke" x="2.346667e+02" y="0" width="1.185185e+01" height="4.406807e+01"/><rect y="0" width="1.185185e+01" height="4.400021e+01" vector-effect="non-scaling-stroke" x="256"/><rect width="1.185185e+01" height="4.492655e+01" vector-effect="non-scaling-stroke" x="2.773333e+02" y="0"/><rect vector-effect="non-scaling-stroke" x="2.986667e+02" y="0" width="1.185185e+01" height="4.405564e+01"/><rect y="0" width="1.185185e+01" height="4.412034e+01" vector-effect="non-scaling-stroke" x="320"/><rect x="3.413333e+02" y="0" width="1.185185e+01" height="4.515442e+01" vector-effect="non-scaling-stroke"/><rect y="0" width="1.185185e+01" height="4.400038e+01" vector-effect="non-scaling-stroke" x="3.626667e+02"/><rect x="4.053333e+02" y="0" width="1.185185e+01" height="4.405816e+01" vector-effect="non-scaling-stroke"/><rect x="4.266667e+02" y="0" width="1.185185e+01" height="4.403877e+01" vector-effect="non-scaling-stroke"/></g><g fill="hsl(198, 47%, 65%)" font-family="sans-serif" font-weight="normal" font-size="12px" font-style="normal" text-anchor="start" stroke-width="1px" stroke-linecap="round" stroke-linejoin="round" dominant-baseline="hanging" stroke="hsl(198, 47%, 65%)"><rect width="12" height="12" vector-effect="non-scaling-stroke" x="736" y="484"/><g fill="black" stroke="black"><text dominant-baseline="hanging" stroke="none" vector-effect="non-scaling-stroke" x="752" y="484">Golang</text></g><g font-family="sans-serif" font-size="12px" font-style="normal" text-anchor="start" dominant-baseline="hanging" stroke-width="1px" stroke-linecap="round" font-weight="normal" fill="hsl(49, 88%, 65%)" stroke="hsl(49, 88%, 65%)" stroke-linejoin="round"><rect y="502" width="12" height="12" vector-effect="non-scaling-stroke" x="736"/><g stroke="black" fill="black"><text stroke="none" vector-effect="non-scaling-stroke" x="752" y="502" dominant-baseline="hanging">Rust</text><g stroke-linejoin="round" font-family="sans-serif" fill="none" font-size="12px" font-style="normal" dominant-baseline="hanging" stroke-linecap="round" font-weight="normal" text-anchor="start" stroke-width="2px"><rect y="80" width="640" height="440" vector-effect="non-scaling-stroke" x="80"/></g><g font-style="normal" text-anchor="start" fill="none" stroke="black" transform="translate(80 520 )scale(1 -1 )" font-size="12px" font-family="sans-serif" stroke-width="2px" stroke-linejoin="round" dominant-baseline="hanging" font-weight="normal" stroke-linecap="round"><path vector-effect="non-scaling-stroke" d="M64,0 L64,-6 M8.533333e+01,0 L8.533333e+01,-6 M1.066667e+02,0 L1.066667e+02,-6 M128,0 L128,-6 M1.493333e+02,0 L1.493333e+02,-6 M1.706667e+02,0 L1.706667e+02,-6 M192,0 L192,-6 M2.133333e+02,0 L2.133333e+02,-6 M2.346667e+02,0 L2.346667e+02,-6 M256,0 L256,-6 M2.773333e+02,0 L2.773333e+02,-6 M2.986667e+02,0 L2.986667e+02,-6 M320,0 L320,-6 M3.413333e+02,0 L3.413333e+02,-6 M3.626667e+02,0 L3.626667e+02,-6 M384,0 L384,-6 M4.053333e+02,0 L4.053333e+02,-6 M4.266667e+02,0 L4.266667e+02,-6 "/></g><g font-size="12px" text-anchor="middle" stroke-linecap="round" font-family="sans-serif" stroke-linejoin="round" fill="black" stroke="black" stroke-width="2px" font-style="normal" font-weight="normal" transform="translate(80 520 )scale(1 1 )" dominant-baseline="hanging"><text x="64" y="10" dominant-baseline="hanging" stroke="none" vector-effect="non-scaling-stroke">1</text><text stroke="none" vector-effect="non-scaling-stroke" x="8.533333e+01" y="10" dominant-baseline="hanging">2</text><text vector-effect="non-scaling-stroke" x="1.066667e+02" y="10" dominant-baseline="hanging" stroke="none">3</text><text x="128" y="10" dominant-baseline="hanging" stroke="none" vector-effect="non-scaling-stroke">4</text><text stroke="none" vector-effect="non-scaling-stroke" x="1.493333e+02" y="10" dominant-baseline="hanging">5</text><text dominant-baseline="hanging" stroke="none" vector-effect="non-scaling-stroke" x="1.706667e+02" y="10">6</text><text x="192" y="10" dominant-baseline="hanging" stroke="none" vector-effect="non-scaling-stroke">7</text><text stroke="none" vector-effect="non-scaling-stroke" x="2.133333e+02" y="10" dominant-baseline="hanging">8</text><text stroke="none" vector-effect="non-scaling-stroke" x="2.346667e+02" y="10" dominant-baseline="hanging">9</text><text vector-effect="non-scaling-stroke" x="256" y="10" dominant-baseline="hanging" stroke="none">10</text><text vector-effect="non-scaling-stroke" x="2.773333e+02" y="10" dominant-baseline="hanging" stroke="none">11</text><text vector-effect="non-scaling-stroke" x="2.986667e+02" y="10" dominant-baseline="hanging" stroke="none">12</text><text y="10" dominant-baseline="hanging" stroke="none" vector-effect="non-scaling-stroke" x="320">13</text><text y="10" dominant-baseline="hanging" stroke="none" vector-effect="non-scaling-stroke" x="3.413333e+02">14</text><text vector-effect="non-scaling-stroke" x="3.626667e+02" y="10" dominant-baseline="hanging" stroke="none">15</text><text stroke="none" vector-effect="non-scaling-stroke" x="384" y="10" dominant-baseline="hanging">16</text><text stroke="none" vector-effect="non-scaling-stroke" x="4.053333e+02" y="10" dominant-baseline="hanging">17</text><text dominant-baseline="hanging" stroke="none" vector-effect="non-scaling-stroke" x="4.266667e+02" y="10">18</text></g><g font-style="normal" stroke-linejoin="round" font-weight="bold" transform="translate(80 520 )scale(1 1 )rotate(0 0 0 )" stroke-width="2px" font-size="12px" stroke-linecap="round" font-family="sans-serif" text-anchor="middle" dominant-baseline="baseline" fill="black" stroke="black"><text dominant-baseline="baseline" stroke="none" vector-effect="non-scaling-stroke" x="320" y="-6">Day</text></g><g font-size="12px" font-style="normal" dominant-baseline="baseline" font-family="sans-serif" transform="translate(80 520 )scale(1 -1 )" stroke-linecap="round" font-weight="bold" fill="black" stroke="black" stroke-width="2px" stroke-linejoin="round" text-anchor="middle"><path vector-effect="non-scaling-stroke" d="M0,44 L-6,44 M0,7.920000e+01 L-6,7.920000e+01 M0,1.144000e+02 L-6,1.144000e+02 M0,1.496000e+02 L-6,1.496000e+02 M0,1.848000e+02 L-6,1.848000e+02 M0,220 L-6,220 M0,2.552000e+02 L-6,2.552000e+02 M0,2.904000e+02 L-6,2.904000e+02 M0,3.256000e+02 L-6,3.256000e+02 M0,3.608000e+02 L-6,3.608000e+02 M0,396 L-6,396 "/></g><g font-family="sans-serif" font-weight="normal" transform="translate(80 520 )scale(1 1 )" dominant-baseline="middle" stroke-width="2px" stroke-linejoin="round" font-size="12px" text-anchor="end" stroke-linecap="round" fill="black" stroke="black" font-style="normal"><text vector-effect="non-scaling-stroke" x="-10" y="-44" dominant-baseline="middle" stroke="none">0s</text><text stroke="none" vector-effect="non-scaling-stroke" x="-10" y="-7.920000e+01" dominant-baseline="middle">200ms</text><text stroke="none" vector-effect="non-scaling-stroke" x="-10" y="-1.144000e+02" dominant-baseline="middle">400ms</text><text x="-10" y="-1.496000e+02" dominant-baseline="middle" stroke="none" vector-effect="non-scaling-stroke">600ms</text><text x="-10" y="-1.848000e+02" dominant-baseline="middle" stroke="none" vector-effect="non-scaling-stroke">800ms</text><text x="-10" y="-220" dominant-baseline="middle" stroke="none" vector-effect="non-scaling-stroke">1s</text><text stroke="none" vector-effect="non-scaling-stroke" x="-10" y="-2.552000e+02" dominant-baseline="middle">1.2s</text><text y="-2.904000e+02" dominant-baseline="middle" stroke="none" vector-effect="non-scaling-stroke" x="-10">1.4s</text><text x="-10" y="-3.256000e+02" dominant-baseline="middle" stroke="none" vector-effect="non-scaling-stroke">1.6s</text><text dominant-baseline="middle" stroke="none" vector-effect="non-scaling-stroke" x="-10" y="-3.608000e+02">1.8s</text><text x="-10" y="-396" dominant-baseline="middle" stroke="none" vector-effect="non-scaling-stroke">2s</text></g><g stroke-width="2px" stroke-linejoin="round" font-style="normal" font-weight="bold" fill="black" font-family="sans-serif" transform="translate(80 520 )scale(1 1 )rotate(-90 0 0 )" stroke-linecap="round" stroke="black" font-size="12px" text-anchor="middle" dominant-baseline="hanging"><text vector-effect="non-scaling-stroke" x="220" y="6" dominant-baseline="hanging" stroke="none">Runtime</text></g></g></g></g></svg>