<svg height="600" viewbox="0 0 800 600" preserveAspectRatio="xMidYMid meet" xmlns="http://www.w3.org/2000/svg" width="800"><defs><marker markerWidth="2%" markerHeight="2%" id="circle" viewBox="0 0 10 10 " refX="5" refY="5" markerUnits="userSpaceOnUse"><circle cy="5" r="3" fill="none" stroke="black" cx="5"/></marker><marker markerHeight="2%" id="filled-circle" viewBox="0 0 10 10 " refX="5" refY="5" markerUnits="userSpaceOnUse" markerWidth="2%"><circle cy="5" r="3" fill="black" stroke="none" cx="5"/></marker><marker viewBox="0 0 10 10 " refX="5" refY="5" markerUnits="userSpaceOnUse" markerWidth="2%" markerHeight="2%" id="square"><rect y="2" width="6" height="6" fill="none" stroke="black" x="2"/></marker><marker markerHeight="2%" id="filled-square" viewBox="0 0 10 10 " refX="5" refY="5" markerUnits="userSpaceOnUse" markerWidth="2%"><rect fill="black" stroke="none" x="2" y="2" width="6" height="6"/></marker></defs><g fill="hsl(198, 47%, 65%)" stroke="hsl(198, 47%, 65%)" stroke-width="1px" stroke-linecap="round" stroke-linejoin="round" transform="translate(80 520 )scale(1 -1 )"><rect y="0" width="2.750000e+01" height="2.832744e+02" vector-effect="non-scaling-stroke" x="3.650000e+01"/><rect y="0" width="2.750000e+01" height="2.559984e+02" vector-effect="non-scaling-stroke" x="5.783333e+01"/><rect vector-effect="non-scaling-stroke" x="7.916667e+01" y="0" width="2.750000e+01" height="396"/></g><g fill="hsl(49, 88%, 65%)" stroke="hsl(49, 88%, 65%)" stroke-width="1px" stroke-linecap="round" stroke-linejoin="round" transform="translate(80 520 )scale(1 -1 )"><rect vector-effect="non-scaling-stroke" x="64" y="0" width="2.750000e+01" height="2.587595e+02"/><rect vector-effect="non-scaling-stroke" x="8.533333e+01" y="0" width="2.750000e+01" height="2.274200e+02"/><rect y="0" width="2.750000e+01" height="7.984900e+01" vector-effect="non-scaling-stroke" x="1.066667e+02"/></g><g dominant-baseline="hanging" stroke="hsl(198, 47%, 65%)" font-family="sans-serif" font-weight="normal" stroke-linecap="round" stroke-linejoin="round" font-style="normal" text-anchor="start" fill="hsl(198, 47%, 65%)" font-size="12px" stroke-width="1px"><rect x="736" y="484" width="12" height="12" vector-effect="non-scaling-stroke"/><g fill="black" stroke="black"><text stroke="none" vector-effect="non-scaling-stroke" x="752" y="484" dominant-baseline="hanging">Golang</text></g><g font-family="sans-serif" stroke-width="1px" font-size="12px" text-anchor="start" fill="hsl(49, 88%, 65%)" stroke="hsl(49, 88%, 65%)" font-weight="normal" stroke-linecap="round" stroke-linejoin="round" font-style="normal" dominant-baseline="hanging"><rect y="502" width="12" height="12" vector-effect="non-scaling-stroke" x="736"/><g stroke="black" fill="black"><text vector-effect="non-scaling-stroke" x="752" y="502" dominant-baseline="hanging" stroke="none">Rust</text><g stroke-linecap="round" stroke-linejoin="round" font-size="12px" dominant-baseline="hanging" font-style="normal" font-family="sans-serif" stroke-width="2px" fill="none" font-weight="normal" text-anchor="start"><rect x="80" y="80" width="640" height="440" vector-effect="non-scaling-stroke"/></g><g font-weight="normal" stroke-width="2px" stroke-linecap="round" font-style="normal" dominant-baseline="hanging" transform="translate(80 520 )scale(1 -1 )" fill="none" stroke="black" font-family="sans-serif" stroke-linejoin="round" font-size="12px" text-anchor="start"><path vector-effect="non-scaling-stroke" d="M64,0 L64,-6 M8.533333e+01,0 L8.533333e+01,-6 M1.066667e+02,0 L1.066667e+02,-6 "/></g><g fill="black" stroke="black" font-family="sans-serif" stroke-width="2px" stroke-linecap="round" font-style="normal" transform="translate(80 520 )scale(1 1 )" font-weight="normal" stroke-linejoin="round" font-size="12px" text-anchor="middle" dominant-baseline="hanging"><text dominant-baseline="hanging" stroke="none" vector-effect="non-scaling-stroke" x="64" y="10">1</text><text y="10" dominant-baseline="hanging" stroke="none" vector-effect="non-scaling-stroke" x="8.533333e+01">2</text><text stroke="none" vector-effect="non-scaling-stroke" x="1.066667e+02" y="10" dominant-baseline="hanging">3</text></g><g stroke-width="2px" stroke="black" font-family="sans-serif" font-weight="bold" fill="black" stroke-linecap="round" font-style="normal" stroke-linejoin="round" font-size="12px" text-anchor="middle" dominant-baseline="baseline" transform="translate(80 520 )scale(1 1 )rotate(0 0 0 )"><text stroke="none" vector-effect="non-scaling-stroke" x="320" y="-6" dominant-baseline="baseline">Day</text></g><g stroke-linejoin="round" text-anchor="middle" dominant-baseline="baseline" stroke-width="2px" fill="black" font-weight="bold" stroke="black" font-size="12px" font-style="normal" transform="translate(80 520 )scale(1 -1 )" stroke-linecap="round" font-family="sans-serif"><path vector-effect="non-scaling-stroke" d="M0,44 L-6,44 M0,8.860495e+01 L-6,8.860495e+01 M0,1.332099e+02 L-6,1.332099e+02 M0,1.778149e+02 L-6,1.778149e+02 M0,2.224198e+02 L-6,2.224198e+02 M0,2.670248e+02 L-6,2.670248e+02 M0,3.116297e+02 L-6,3.116297e+02 M0,3.562347e+02 L-6,3.562347e+02 "/></g><g font-family="sans-serif" stroke-width="2px" stroke-linejoin="round" font-size="12px" font-style="normal" text-anchor="end" dominant-baseline="middle" font-weight="normal" fill="black" stroke="black" transform="translate(80 520 )scale(1 1 )" stroke-linecap="round"><text y="-44" dominant-baseline="middle" stroke="none" vector-effect="non-scaling-stroke" x="-10">0s</text><text dominant-baseline="middle" stroke="none" vector-effect="non-scaling-stroke" x="-10" y="-8.860495e+01">10µs</text><text stroke="none" vector-effect="non-scaling-stroke" x="-10" y="-1.332099e+02" dominant-baseline="middle">20µs</text><text x="-10" y="-1.778149e+02" dominant-baseline="middle" stroke="none" vector-effect="non-scaling-stroke">30µs</text><text vector-effect="non-scaling-stroke" x="-10" y="-2.224198e+02" dominant-baseline="middle" stroke="none">40µs</text><text stroke="none" vector-effect="non-scaling-stroke" x="-10" y="-2.670248e+02" dominant-baseline="middle">50µs</text><text stroke="none" vector-effect="non-scaling-stroke" x="-10" y="-3.116297e+02" dominant-baseline="middle">60µs</text><text stroke="none" vector-effect="non-scaling-stroke" x="-10" y="-3.562347e+02" dominant-baseline="middle">70µs</text></g><g fill="black" text-anchor="middle" transform="translate(80 520 )scale(1 1 )rotate(-90 0 0 )" stroke-linecap="round" stroke-linejoin="round" stroke="black" font-family="sans-serif" font-weight="bold" font-style="normal" dominant-baseline="hanging" stroke-width="2px" font-size="12px"><text y="6" dominant-baseline="hanging" stroke="none" vector-effect="non-scaling-stroke" x="220">Runtime</text></g></g></g></g></svg>