<svg width="800" height="600" viewbox="0 0 800 600" preserveAspectRatio="xMidYMid meet" xmlns="http://www.w3.org/2000/svg"><defs><marker refX="5" refY="5" markerUnits="userSpaceOnUse" markerWidth="2%" markerHeight="2%" id="circle" viewBox="0 0 10 10 "><circle fill="none" stroke="black" cx="5" cy="5" r="3"/></marker><marker viewBox="0 0 10 10 " refX="5" refY="5" markerUnits="userSpaceOnUse" markerWidth="2%" markerHeight="2%" id="filled-circle"><circle cy="5" r="3" fill="black" stroke="none" cx="5"/></marker><marker viewBox="0 0 10 10 " refX="5" refY="5" markerUnits="userSpaceOnUse" markerWidth="2%" markerHeight="2%" id="square"><rect y="2" width="6" height="6" fill="none" stroke="black" x="2"/></marker><marker refY="5" markerUnits="userSpaceOnUse" markerWidth="2%" markerHeight="2%" id="filled-square" viewBox="0 0 10 10 " refX="5"><rect x="2" y="2" width="6" height="6" fill="black" stroke="none"/></marker></defs><g stroke-linecap="round" stroke-linejoin="round" transform="translate(80 520 )scale(1 -1 )" fill="hsl(198, 47%, 65%)" stroke="hsl(198, 47%, 65%)" stroke-width="1px"><rect vector-effect="non-scaling-stroke" x="3.650000e+01" y="0" width="2.750000e+01" height="1.628635e+02"/><rect vector-effect="non-scaling-stroke" x="5.783333e+01" y="0" width="2.750000e+01" height="7.591357e+01"/><rect height="396" vector-effect="non-scaling-stroke" x="7.916667e+01" y="0" width="2.750000e+01"/><rect x="1.005000e+02" y="0" width="2.750000e+01" height="1.870364e+02" vector-effect="non-scaling-stroke"/><rect height="1.327166e+02" vector-effect="non-scaling-stroke" x="1.218333e+02" y="0" width="2.750000e+01"/><rect vector-effect="non-scaling-stroke" x="1.431667e+02" y="0" width="2.750000e+01" height="2.748590e+02"/><rect y="0" width="2.750000e+01" height="2.656496e+02" vector-effect="non-scaling-stroke" x="1.645000e+02"/></g><g stroke-linecap="round" stroke-linejoin="round" transform="translate(80 520 )scale(1 -1 )" fill="hsl(49, 88%, 65%)" stroke="hsl(49, 88%, 65%)" stroke-width="1px"><rect height="9.697880e+01" vector-effect="non-scaling-stroke" x="64" y="0" width="2.750000e+01"/><rect width="2.750000e+01" height="5.173361e+01" vector-effect="non-scaling-stroke" x="8.533333e+01" y="0"/><rect width="2.750000e+01" height="3.107884e+02" vector-effect="non-scaling-stroke" x="1.066667e+02" y="0"/><rect x="128" y="0" width="2.750000e+01" height="1.253306e+02" vector-effect="non-scaling-stroke"/><rect y="0" width="2.750000e+01" height="9.720584e+01" vector-effect="non-scaling-stroke" x="1.493333e+02"/><rect width="2.750000e+01" height="1.703417e+02" vector-effect="non-scaling-stroke" x="1.706667e+02" y="0"/><rect vector-effect="non-scaling-stroke" x="192" y="0" width="2.750000e+01" height="2.367301e+02"/></g><g fill="hsl(198, 47%, 65%)" stroke="hsl(198, 47%, 65%)" dominant-baseline="hanging" font-style="normal" font-weight="normal" stroke-linecap="round" font-family="sans-serif" text-anchor="start" stroke-width="1px" stroke-linejoin="round" font-size="12px"><rect x="736" y="484" width="12" height="12" vector-effect="non-scaling-stroke"/><g fill="black" stroke="black"><text x="752" y="484" dominant-baseline="hanging" stroke="none" vector-effect="non-scaling-stroke">Golang</text></g><g stroke-linejoin="round" font-style="normal" stroke-width="1px" stroke-linecap="round" font-size="12px" font-weight="normal" text-anchor="start" stroke="hsl(49, 88%, 65%)" dominant-baseline="hanging" fill="hsl(49, 88%, 65%)" font-family="sans-serif"><rect height="12" vector-effect="non-scaling-stroke" x="736" y="502" width="12"/><g fill="black" stroke="black"><text stroke="none" vector-effect="non-scaling-stroke" x="752" y="502" dominant-baseline="hanging">Rust</text><g font-family="sans-serif" font-style="normal" dominant-baseline="hanging" font-weight="normal" stroke-linejoin="round" fill="none" stroke-width="2px" font-size="12px" text-anchor="start" stroke-linecap="round"><rect height="440" vector-effect="non-scaling-stroke" x="80" y="80" width="640"/></g><g stroke-linejoin="round" font-family="sans-serif" font-size="12px" stroke-width="2px" stroke="black" dominant-baseline="hanging" font-style="normal" font-weight="normal" text-anchor="start" transform="translate(80 520 )scale(1 -1 )" fill="none" stroke-linecap="round"><path d="M64,0 L64,-6 M8.533333e+01,0 L8.533333e+01,-6 M1.066667e+02,0 L1.066667e+02,-6 M128,0 L128,-6 M1.493333e+02,0 L1.493333e+02,-6 M1.706667e+02,0 L1.706667e+02,-6 M192,0 L192,-6 " vector-effect="non-scaling-stroke"/></g><g fill="black" stroke="black" dominant-baseline="hanging" text-anchor="middle" stroke-linejoin="round" transform="translate(80 520 )scale(1 1 )" font-family="sans-serif" font-size="12px" font-style="normal" font-weight="normal" stroke-width="2px" stroke-linecap="round"><text stroke="none" vector-effect="non-scaling-stroke" x="64" y="10" dominant-baseline="hanging">1</text><text vector-effect="non-scaling-stroke" x="8.533333e+01" y="10" dominant-baseline="hanging" stroke="none">2</text><text dominant-baseline="hanging" stroke="none" vector-effect="non-scaling-stroke" x="1.066667e+02" y="10">3</text><text vector-effect="non-scaling-stroke" x="128" y="10" dominant-baseline="hanging" stroke="none">4</text><text y="10" dominant-baseline="hanging" stroke="none" vector-effect="non-scaling-stroke" x="1.493333e+02">5</text><text vector-effect="non-scaling-stroke" x="1.706667e+02" y="10" dominant-baseline="hanging" stroke="none">6</text><text y="10" dominant-baseline="hanging" stroke="none" vector-effect="non-scaling-stroke" x="192">7</text></g><g font-family="sans-serif" font-size="12px" font-weight="bold" stroke="black" dominant-baseline="baseline" stroke-width="2px" stroke-linecap="round" stroke-linejoin="round" fill="black" font-style="normal" text-anchor="middle" transform="translate(80 520 )scale(1 1 )rotate(0 0 0 )"><text y="-6" dominant-baseline="baseline" stroke="none" vector-effect="non-scaling-stroke" x="320">Day</text></g><g font-weight="bold" stroke-linejoin="round" transform="translate(80 520 )scale(1 -1 )" stroke="black" dominant-baseline="baseline" font-family="sans-serif" fill="black" font-size="12px" font-style="normal" text-anchor="middle" stroke-width="2px" stroke-linecap="round"><path vector-effect="non-scaling-stroke" d="M0,44 L-6,44 M0,1.149506e+02 L-6,1.149506e+02 M0,1.859012e+02 L-6,1.859012e+02 M0,2.568517e+02 L-6,2.568517e+02 M0,3.278023e+02 L-6,3.278023e+02 "/></g><g dominant-baseline="middle" stroke-width="2px" stroke-linecap="round" font-size="12px" stroke="black" text-anchor="end" transform="translate(80 520 )scale(1 1 )" fill="black" stroke-linejoin="round" font-family="sans-serif" font-style="normal" font-weight="normal"><text y="-44" dominant-baseline="middle" stroke="none" vector-effect="non-scaling-stroke" x="-10">0s</text><text vector-effect="non-scaling-stroke" x="-10" y="-1.149506e+02" dominant-baseline="middle" stroke="none">10µs</text><text stroke="none" vector-effect="non-scaling-stroke" x="-10" y="-1.859012e+02" dominant-baseline="middle">20µs</text><text stroke="none" vector-effect="non-scaling-stroke" x="-10" y="-2.568517e+02" dominant-baseline="middle">30µs</text><text stroke="none" vector-effect="non-scaling-stroke" x="-10" y="-3.278023e+02" dominant-baseline="middle">40µs</text></g><g stroke="black" dominant-baseline="hanging" text-anchor="middle" font-family="sans-serif" font-style="normal" fill="black" font-weight="bold" stroke-width="2px" stroke-linecap="round" stroke-linejoin="round" font-size="12px" transform="translate(80 520 )scale(1 1 )rotate(-90 0 0 )"><text stroke="none" vector-effect="non-scaling-stroke" x="220" y="6" dominant-baseline="hanging">Runtime</text></g></g></g></g></svg>