<svg viewbox="0 0 800 600" preserveAspectRatio="xMidYMid meet" xmlns="http://www.w3.org/2000/svg" width="800" height="600"><defs><marker id="circle" viewBox="0 0 10 10 " refX="5" refY="5" markerUnits="userSpaceOnUse" markerWidth="2%" markerHeight="2%"><circle r="3" fill="none" stroke="black" cx="5" cy="5"/></marker><marker markerWidth="2%" markerHeight="2%" id="filled-circle" viewBox="0 0 10 10 " refX="5" refY="5" markerUnits="userSpaceOnUse"><circle r="3" fill="black" stroke="none" cx="5" cy="5"/></marker><marker refX="5" refY="5" markerUnits="userSpaceOnUse" markerWidth="2%" markerHeight="2%" id="square" viewBox="0 0 10 10 "><rect stroke="black" x="2" y="2" width="6" height="6" fill="none"/></marker><marker markerUnits="userSpaceOnUse" markerWidth="2%" markerHeight="2%" id="filled-square" viewBox="0 0 10 10 " refX="5" refY="5"><rect y="2" width="6" height="6" fill="black" stroke="none" x="2"/></marker></defs><g stroke="hsl(198, 47%, 65%)" stroke-width="1px" stroke-linecap="round" stroke-linejoin="round" transform="translate(80 520 )scale(1 -1 )" fill="hsl(198, 47%, 65%)"><rect y="0" width="1.777778e+01" height="4.426328e+01" vector-effect="non-scaling-stroke" x="4.622222e+01"/><rect y="0" width="1.777778e+01" height="4.423326e+01" vector-effect="non-scaling-stroke" x="6.755556e+01"/><rect vector-effect="non-scaling-stroke" x="8.888889e+01" y="0" width="1.777778e+01" height="4.414482e+01"/><rect height="4.533401e+01" vector-effect="non-scaling-stroke" x="1.102222e+02" y="0" width="1.777778e+01"/><rect x="1.315556e+02" y="0" width="1.777778e+01" height="4.414970e+01" vector-effect="non-scaling-stroke"/><rect height="396" vector-effect="non-scaling-stroke" x="1.528889e+02" y="0" width="1.777778e+01"/><rect vector-effect="non-scaling-stroke" x="1.742222e+02" y="0" width="1.777778e+01" height="1.265206e+02"/><rect vector-effect="non-scaling-stroke" x="1.955556e+02" y="0" width="1.777778e+01" height="4.403414e+01"/><rect y="0" width="1.777778e+01" height="4.785299e+01" vector-effect="non-scaling-stroke" x="2.168889e+02"/><rect vector-effect="non-scaling-stroke" x="2.382222e+02" y="0" width="1.777778e+01" height="4.622438e+01"/><rect height="5.060634e+01" vector-effect="non-scaling-stroke" x="2.595556e+02" y="0" width="1.777778e+01"/><rect vector-effect="non-scaling-stroke" x="2.808889e+02" y="0" width="1.777778e+01" height="7.530438e+01"/></g><g stroke="hsl(49, 88%, 65%)" stroke-width="1px" stroke-linecap="round" stroke-linejoin="round" transform="translate(80 520 )scale(1 -1 )" fill="hsl(49, 88%, 65%)"><rect vector-effect="non-scaling-stroke" x="64" y="0" width="1.777778e+01" height="4.422948e+01"/><rect vector-effect="non-scaling-stroke" x="8.533333e+01" y="0" width="1.777778e+01" height="4.421116e+01"/><rect height="4.404346e+01" vector-effect="non-scaling-stroke" x="1.066667e+02" y="0" width="1.777778e+01"/><rect y="0" width="1.777778e+01" height="4.622662e+01" vector-effect="non-scaling-stroke" x="128"/><rect width="1.777778e+01" height="4.410670e+01" vector-effect="non-scaling-stroke" x="1.493333e+02" y="0"/><rect width="1.777778e+01" height="3.114004e+02" vector-effect="non-scaling-stroke" x="1.706667e+02" y="0"/><rect vector-effect="non-scaling-stroke" x="192" y="0" width="1.777778e+01" height="1.275011e+02"/><rect vector-effect="non-scaling-stroke" x="2.133333e+02" y="0" width="1.777778e+01" height="4.401625e+01"/><rect vector-effect="non-scaling-stroke" x="256" y="0" width="1.777778e+01" height="4.418291e+01"/><rect width="1.777778e+01" height="4.918509e+01" vector-effect="non-scaling-stroke" x="2.773333e+02" y="0"/></g><g stroke="hsl(198, 47%, 65%)" text-anchor="start" fill="hsl(198, 47%, 65%)" stroke-linecap="round" stroke-linejoin="round" font-size="12px" stroke-width="1px" font-style="normal" font-weight="normal" dominant-baseline="hanging" font-family="sans-serif"><rect height="12" vector-effect="non-scaling-stroke" x="736" y="484" width="12"/><g fill="black" stroke="black"><text x="752" y="484" dominant-baseline="hanging" stroke="none" vector-effect="non-scaling-stroke">Golang</text></g><g stroke-linecap="round" font-family="sans-serif" dominant-baseline="hanging" fill="hsl(49, 88%, 65%)" font-style="normal" stroke="hsl(49, 88%, 65%)" stroke-linejoin="round" font-size="12px" font-weight="normal" text-anchor="start" stroke-width="1px"><rect height="12" vector-effect="non-scaling-stroke" x="736" y="502" width="12"/><g stroke="black" fill="black"><text x="752" y="502" dominant-baseline="hanging" stroke="none" vector-effect="non-scaling-stroke">Rust</text><g fill="none" stroke-linejoin="round" font-style="normal" stroke-linecap="round" text-anchor="start" dominant-baseline="hanging" font-family="sans-serif" font-size="12px" stroke-width="2px" font-weight="normal"><rect height="440" vector-effect="non-scaling-stroke" x="80" y="80" width="640"/></g><g transform="translate(80 520 )scale(1 -1 )" font-style="normal" stroke="black" font-size="12px" font-weight="normal" text-anchor="start" dominant-baseline="hanging" fill="none" stroke-width="2px" stroke-linecap="round" stroke-linejoin="round" font-family="sans-serif"><path d="M64,0 L64,-6 M8.533333e+01,0 L8.533333e+01,-6 M1.066667e+02,0 L1.066667e+02,-6 M128,0 L128,-6 M1.493333e+02,0 L1.493333e+02,-6 M1.706667e+02,0 L1.706667e+02,-6 M192,0 L192,-6 M2.133333e+02,0 L2.133333e+02,-6 M2.346667e+02,0 L2.346667e+02,-6 M256,0 L256,-6 M2.773333e+02,0 L2.773333e+02,-6 M2.986667e+02,0 L2.986667e+02,-6 " vector-effect="non-scaling-stroke"/></g><g stroke-linejoin="round" font-size="12px" stroke="black" text-anchor="middle" dominant-baseline="hanging" fill="black" stroke-linecap="round" font-style="normal" font-family="sans-serif" font-weight="normal" transform="translate(80 520 )scale(1 1 )" stroke-width="2px"><text y="10" dominant-baseline="hanging" stroke="none" vector-effect="non-scaling-stroke" x="64">1</text><text dominant-baseline="hanging" stroke="none" vector-effect="non-scaling-stroke" x="8.533333e+01" y="10">2</text><text x="1.066667e+02" y="10" dominant-baseline="hanging" stroke="none" vector-effect="non-scaling-stroke">3</text><text x="128" y="10" dominant-baseline="hanging" stroke="none" vector-effect="non-scaling-stroke">4</text><text dominant-baseline="hanging" stroke="none" vector-effect="non-scaling-stroke" x="1.493333e+02" y="10">5</text><text y="10" dominant-baseline="hanging" stroke="none" vector-effect="non-scaling-stroke" x="1.706667e+02">6</text><text vector-effect="non-scaling-stroke" x="192" y="10" dominant-baseline="hanging" stroke="none">7</text><text dominant-baseline="hanging" stroke="none" vector-effect="non-scaling-stroke" x="2.133333e+02" y="10">8</text><text x="2.346667e+02" y="10" dominant-baseline="hanging" stroke="none" vector-effect="non-scaling-stroke">9</text><text x="256" y="10" dominant-baseline="hanging" stroke="none" vector-effect="non-scaling-stroke">10</text><text vector-effect="non-scaling-stroke" x="2.773333e+02" y="10" dominant-baseline="hanging" stroke="none">11</text><text x="2.986667e+02" y="10" dominant-baseline="hanging" stroke="none" vector-effect="non-scaling-stroke">12</text></g><g stroke-width="2px" stroke-linecap="round" font-family="sans-serif" font-size="12px" text-anchor="middle" dominant-baseline="baseline" fill="black" transform="translate(80 520 )scale(1 1 )rotate(0 0 0 )" font-style="normal" stroke-linejoin="round" font-weight="bold" stroke="black"><text vector-effect="non-scaling-stroke" x="320" y="-6" dominant-baseline="baseline" stroke="none">Day</text></g><g fill="black" font-size="12px" font-weight="bold" stroke="black" stroke-width="2px" stroke-linecap="round" stroke-linejoin="round" font-family="sans-serif" text-anchor="middle" dominant-baseline="baseline" transform="translate(80 520 )scale(1 -1 )" font-style="normal"><path vector-effect="non-scaling-stroke" d="M0,44 L-6,44 M0,9.307912e+01 L-6,9.307912e+01 M0,1.421582e+02 L-6,1.421582e+02 M0,1.912374e+02 L-6,1.912374e+02 M0,2.403165e+02 L-6,2.403165e+02 M0,2.893956e+02 L-6,2.893956e+02 M0,3.384747e+02 L-6,3.384747e+02 M0,3.875538e+02 L-6,3.875538e+02 "/></g><g dominant-baseline="middle" fill="black" stroke="black" stroke-width="2px" font-style="normal" font-size="12px" font-weight="normal" text-anchor="end" stroke-linejoin="round" font-family="sans-serif" stroke-linecap="round" transform="translate(80 520 )scale(1 1 )"><text dominant-baseline="middle" stroke="none" vector-effect="non-scaling-stroke" x="-10" y="-44">0s</text><text stroke="none" vector-effect="non-scaling-stroke" x="-10" y="-9.307912e+01" dominant-baseline="middle">10ms</text><text stroke="none" vector-effect="non-scaling-stroke" x="-10" y="-1.421582e+02" dominant-baseline="middle">20ms</text><text stroke="none" vector-effect="non-scaling-stroke" x="-10" y="-1.912374e+02" dominant-baseline="middle">30ms</text><text stroke="none" vector-effect="non-scaling-stroke" x="-10" y="-2.403165e+02" dominant-baseline="middle">40ms</text><text x="-10" y="-2.893956e+02" dominant-baseline="middle" stroke="none" vector-effect="non-scaling-stroke">50ms</text><text vector-effect="non-scaling-stroke" x="-10" y="-3.384747e+02" dominant-baseline="middle" stroke="none">60ms</text><text dominant-baseline="middle" stroke="none" vector-effect="non-scaling-stroke" x="-10" y="-3.875538e+02">70ms</text></g><g stroke-linejoin="round" font-family="sans-serif" font-size="12px" font-weight="bold" text-anchor="middle" fill="black" font-style="normal" dominant-baseline="hanging" stroke-linecap="round" transform="translate(80 520 )scale(1 1 )rotate(-90 0 0 )" stroke="black" stroke-width="2px"><text dominant-baseline="hanging" stroke="none" vector-effect="non-scaling-stroke" x="220" y="6">Runtime</text></g></g></g></g></svg>