<svg preserveAspectRatio="xMidYMid meet" xmlns="http://www.w3.org/2000/svg" width="800" height="600" viewbox="0 0 800 600"><defs><marker id="circle" viewBox="0 0 10 10 " refX="5" refY="5" markerUnits="userSpaceOnUse" markerWidth="2%" markerHeight="2%"><circle cx="5" cy="5" r="3" fill="none" stroke="black"/></marker><marker viewBox="0 0 10 10 " refX="5" refY="5" markerUnits="userSpaceOnUse" markerWidth="2%" markerHeight="2%" id="filled-circle"><circle cx="5" cy="5" r="3" fill="black" stroke="none"/></marker><marker markerHeight="2%" id="square" viewBox="0 0 10 10 " refX="5" refY="5" markerUnits="userSpaceOnUse" markerWidth="2%"><rect fill="none" stroke="black" x="2" y="2" width="6" height="6"/></marker><marker viewBox="0 0 10 10 " refX="5" refY="5" markerUnits="userSpaceOnUse" markerWidth="2%" markerHeight="2%" id="filled-square"><rect y="2" width="6" height="6" fill="black" stroke="none" x="2"/></marker></defs><g stroke-linejoin="round" transform="translate(80 520 )scale(1 -1 )" fill="hsl(198, 47%, 65%)" stroke="hsl(198, 47%, 65%)" stroke-width="1px" stroke-linecap="round"><rect x="5.384127e+01" y="0" width="1.015873e+01" height="4.423525e+01" vector-effect="non-scaling-stroke"/><rect width="1.015873e+01" height="4.423326e+01" vector-effect="non-scaling-stroke" x="7.517460e+01" y="0"/><rect vector-effect="non-scaling-stroke" x="9.650794e+01" y="0" width="1.015873e+01" height="4.414482e+01"/><rect y="0" width="1.015873e+01" height="4.533401e+01" vector-effect="non-scaling-stroke" x="1.178413e+02"/><rect width="1.015873e+01" height="4.414970e+01" vector-effect="non-scaling-stroke" x="1.391746e+02" y="0"/><rect width="1.015873e+01" height="396" vector-effect="non-scaling-stroke" x="1.605079e+02" y="0"/><rect width="1.015873e+01" height="1.265206e+02" vector-effect="non-scaling-stroke" x="1.818413e+02" y="0"/><rect y="0" width="1.015873e+01" height="4.403414e+01" vector-effect="non-scaling-stroke" x="2.031746e+02"/><rect height="4.626741e+01" vector-effect="non-scaling-stroke" x="2.245079e+02" y="0" width="1.015873e+01"/><rect x="2.458413e+02" y="0" width="1.015873e+01" height="4.455961e+01" vector-effect="non-scaling-stroke"/><rect y="0" width="1.015873e+01" height="5.078807e+01" vector-effect="non-scaling-stroke" x="2.671746e+02"/><rect vector-effect="non-scaling-stroke" x="2.885079e+02" y="0" width="1.015873e+01" height="4.690133e+01"/><rect vector-effect="non-scaling-stroke" x="3.098413e+02" y="0" width="1.015873e+01" height="4.403436e+01"/><rect width="1.015873e+01" height="7.156957e+01" vector-effect="non-scaling-stroke" x="3.311746e+02" y="0"/><rect y="0" width="1.015873e+01" height="4.723968e+01" vector-effect="non-scaling-stroke" x="3.525079e+02"/><rect y="0" width="1.015873e+01" height="1.121467e+02" vector-effect="non-scaling-stroke" x="3.738413e+02"/><rect height="4.409585e+01" vector-effect="non-scaling-stroke" x="3.951746e+02" y="0" width="1.015873e+01"/><rect vector-effect="non-scaling-stroke" x="4.165079e+02" y="0" width="1.015873e+01" height="4.501693e+01"/><rect width="1.015873e+01" height="5.086528e+01" vector-effect="non-scaling-stroke" x="4.378413e+02" y="0"/><rect y="0" width="1.015873e+01" height="1.421085e+02" vector-effect="non-scaling-stroke" x="4.591746e+02"/><rect vector-effect="non-scaling-stroke" x="4.805079e+02" y="0" width="1.015873e+01" height="4.400029e+01"/></g><g fill="hsl(49, 88%, 65%)" stroke="hsl(49, 88%, 65%)" stroke-width="1px" stroke-linecap="round" stroke-linejoin="round" transform="translate(80 520 )scale(1 -1 )"><rect vector-effect="non-scaling-stroke" x="64" y="0" width="1.015873e+01" height="4.422948e+01"/><rect width="1.015873e+01" height="4.421116e+01" vector-effect="non-scaling-stroke" x="8.533333e+01" y="0"/><rect x="1.066667e+02" y="0" width="1.015873e+01" height="4.404346e+01" vector-effect="non-scaling-stroke"/><rect width="1.015873e+01" height="4.622662e+01" vector-effect="non-scaling-stroke" x="128" y="0"/><rect height="4.408438e+01" vector-effect="non-scaling-stroke" x="1.493333e+02" y="0" width="1.015873e+01"/><rect x="1.706667e+02" y="0" width="1.015873e+01" height="3.114004e+02" vector-effect="non-scaling-stroke"/><rect height="1.275011e+02" vector-effect="non-scaling-stroke" x="192" y="0" width="1.015873e+01"/><rect vector-effect="non-scaling-stroke" x="2.133333e+02" y="0" width="1.015873e+01" height="4.401625e+01"/><rect y="0" width="1.015873e+01" height="4.690768e+01" vector-effect="non-scaling-stroke" x="2.346667e+02"/><rect height="4.418291e+01" vector-effect="non-scaling-stroke" x="2.560000e+02" y="0" width="1.015873e+01"/><rect height="4.918509e+01" vector-effect="non-scaling-stroke" x="2.773333e+02" y="0" width="1.015873e+01"/><rect vector-effect="non-scaling-stroke" x="2.986667e+02" y="0" width="1.015873e+01" height="4.621178e+01"/><rect vector-effect="non-scaling-stroke" x="320" y="0" width="1.015873e+01" height="4.402768e+01"/><rect y="0" width="1.015873e+01" height="6.266067e+01" vector-effect="non-scaling-stroke" x="3.413333e+02"/><rect width="1.015873e+01" height="5.329766e+01" vector-effect="non-scaling-stroke" x="3.626667e+02" y="0"/><rect x="384" y="0" width="1.015873e+01" height="9.482237e+01" vector-effect="non-scaling-stroke"/><rect y="0" width="1.015873e+01" height="4.487092e+01" vector-effect="non-scaling-stroke" x="4.053333e+02"/><rect width="1.015873e+01" height="4.460063e+01" vector-effect="non-scaling-stroke" x="4.266667e+02" y="0"/><rect vector-effect="non-scaling-stroke" x="448" y="0" width="1.015873e+01" height="5.337299e+01"/><rect vector-effect="non-scaling-stroke" x="4.693333e+02" y="0" width="1.015873e+01" height="1.703957e+02"/></g><g stroke-width="1px" font-style="normal" text-anchor="start" stroke="hsl(198, 47%, 65%)" dominant-baseline="hanging" fill="hsl(198, 47%, 65%)" stroke-linejoin="round" font-family="sans-serif" font-weight="normal" stroke-linecap="round" font-size="12px"><rect vector-effect="non-scaling-stroke" x="736" y="484" width="12" height="12"/><g fill="black" stroke="black"><text dominant-baseline="hanging" stroke="none" vector-effect="non-scaling-stroke" x="752" y="484">Golang</text></g><g font-size="12px" font-style="normal" dominant-baseline="hanging" stroke-linecap="round" stroke-linejoin="round" font-family="sans-serif" text-anchor="start" font-weight="normal" fill="hsl(49, 88%, 65%)" stroke="hsl(49, 88%, 65%)" stroke-width="1px"><rect height="12" vector-effect="non-scaling-stroke" x="736" y="502" width="12"/><g fill="black" stroke="black"><text dominant-baseline="hanging" stroke="none" vector-effect="non-scaling-stroke" x="752" y="502">Rust</text><g stroke-linecap="round" dominant-baseline="hanging" font-family="sans-serif" fill="none" font-size="12px" font-style="normal" stroke-linejoin="round" font-weight="normal" text-anchor="start" stroke-width="2px"><rect width="640" height="440" vector-effect="non-scaling-stroke" x="80" y="80"/></g><g dominant-baseline="hanging" transform="translate(80 520 )scale(1 -1 )" stroke="black" font-size="12px" text-anchor="start" stroke-linejoin="round" font-family="sans-serif" font-style="normal" stroke-linecap="round" font-weight="normal" fill="none" stroke-width="2px"><path vector-effect="non-scaling-stroke" d="M64,0 L64,-6 M8.533333e+01,0 L8.533333e+01,-6 M1.066667e+02,0 L1.066667e+02,-6 M128,0 L128,-6 M1.493333e+02,0 L1.493333e+02,-6 M1.706667e+02,0 L1.706667e+02,-6 M192,0 L192,-6 M2.133333e+02,0 L2.133333e+02,-6 M2.346667e+02,0 L2.346667e+02,-6 M256,0 L256,-6 M2.773333e+02,0 L2.773333e+02,-6 M2.986667e+02,0 L2.986667e+02,-6 M320,0 L320,-6 M3.413333e+02,0 L3.413333e+02,-6 M3.626667e+02,0 L3.626667e+02,-6 M384,0 L384,-6 M4.053333e+02,0 L4.053333e+02,-6 M4.266667e+02,0 L4.266667e+02,-6 M448,0 L448,-6 M4.693333e+02,0 L4.693333e+02,-6 M4.906667e+02,0 L4.906667e+02,-6 "/></g><g stroke-linejoin="round" stroke-linecap="round" stroke="black" font-size="12px" font-style="normal" transform="translate(80 520 )scale(1 1 )" fill="black" font-family="sans-serif" font-weight="normal" text-anchor="middle" stroke-width="2px" dominant-baseline="hanging"><text vector-effect="non-scaling-stroke" x="64" y="10" dominant-baseline="hanging" stroke="none">1</text><text vector-effect="non-scaling-stroke" x="8.533333e+01" y="10" dominant-baseline="hanging" stroke="none">2</text><text stroke="none" vector-effect="non-scaling-stroke" x="1.066667e+02" y="10" dominant-baseline="hanging">3</text><text vector-effect="non-scaling-stroke" x="128" y="10" dominant-baseline="hanging" stroke="none">4</text><text y="10" dominant-baseline="hanging" stroke="none" vector-effect="non-scaling-stroke" x="1.493333e+02">5</text><text y="10" dominant-baseline="hanging" stroke="none" vector-effect="non-scaling-stroke" x="1.706667e+02">6</text><text y="10" dominant-baseline="hanging" stroke="none" vector-effect="non-scaling-stroke" x="192">7</text><text x="2.133333e+02" y="10" dominant-baseline="hanging" stroke="none" vector-effect="non-scaling-stroke">8</text><text dominant-baseline="hanging" stroke="none" vector-effect="non-scaling-stroke" x="2.346667e+02" y="10">9</text><text x="256" y="10" dominant-baseline="hanging" stroke="none" vector-effect="non-scaling-stroke">10</text><text stroke="none" vector-effect="non-scaling-stroke" x="2.773333e+02" y="10" dominant-baseline="hanging">11</text><text vector-effect="non-scaling-stroke" x="2.986667e+02" y="10" dominant-baseline="hanging" stroke="none">12</text><text stroke="none" vector-effect="non-scaling-stroke" x="320" y="10" dominant-baseline="hanging">13</text><text x="3.413333e+02" y="10" dominant-baseline="hanging" stroke="none" vector-effect="non-scaling-stroke">14</text><text x="3.626667e+02" y="10" dominant-baseline="hanging" stroke="none" vector-effect="non-scaling-stroke">15</text><text x="384" y="10" dominant-baseline="hanging" stroke="none" vector-effect="non-scaling-stroke">16</text><text dominant-baseline="hanging" stroke="none" vector-effect="non-scaling-stroke" x="4.053333e+02" y="10">17</text><text vector-effect="non-scaling-stroke" x="4.266667e+02" y="10" dominant-baseline="hanging" stroke="none">18</text><text dominant-baseline="hanging" stroke="none" vector-effect="non-scaling-stroke" x="448" y="10">19</text><text stroke="none" vector-effect="non-scaling-stroke" x="4.693333e+02" y="10" dominant-baseline="hanging">20</text><text vector-effect="non-scaling-stroke" x="4.906667e+02" y="10" dominant-baseline="hanging" stroke="none">21</text></g><g transform="translate(80 520 )scale(1 1 )rotate(0 0 0 )" fill="black" stroke="black" font-style="normal" stroke-linecap="round" stroke-linejoin="round" font-weight="bold" font-size="12px" dominant-baseline="baseline" font-family="sans-serif" text-anchor="middle" stroke-width="2px"><text stroke="none" vector-effect="non-scaling-stroke" x="320" y="-6" dominant-baseline="baseline">Day</text></g><g text-anchor="middle" font-style="normal" transform="translate(80 520 )scale(1 -1 )" stroke-linejoin="round" font-family="sans-serif" dominant-baseline="baseline" stroke-linecap="round" font-weight="bold" fill="black" stroke="black" stroke-width="2px" font-size="12px"><path vector-effect="non-scaling-stroke" d="M0,44 L-6,44 M0,9.307912e+01 L-6,9.307912e+01 M0,1.421582e+02 L-6,1.421582e+02 M0,1.912374e+02 L-6,1.912374e+02 M0,2.403165e+02 L-6,2.403165e+02 M0,2.893956e+02 L-6,2.893956e+02 M0,3.384747e+02 L-6,3.384747e+02 M0,3.875538e+02 L-6,3.875538e+02 "/></g><g stroke-width="2px" font-weight="normal" stroke-linecap="round" font-family="sans-serif" font-size="12px" font-style="normal" fill="black" stroke="black" dominant-baseline="middle" transform="translate(80 520 )scale(1 1 )" text-anchor="end" stroke-linejoin="round"><text x="-10" y="-44" dominant-baseline="middle" stroke="none" vector-effect="non-scaling-stroke">0s</text><text vector-effect="non-scaling-stroke" x="-10" y="-9.307912e+01" dominant-baseline="middle" stroke="none">10ms</text><text stroke="none" vector-effect="non-scaling-stroke" x="-10" y="-1.421582e+02" dominant-baseline="middle">20ms</text><text stroke="none" vector-effect="non-scaling-stroke" x="-10" y="-1.912374e+02" dominant-baseline="middle">30ms</text><text y="-2.403165e+02" dominant-baseline="middle" stroke="none" vector-effect="non-scaling-stroke" x="-10">40ms</text><text y="-2.893956e+02" dominant-baseline="middle" stroke="none" vector-effect="non-scaling-stroke" x="-10">50ms</text><text vector-effect="non-scaling-stroke" x="-10" y="-3.384747e+02" dominant-baseline="middle" stroke="none">60ms</text><text x="-10" y="-3.875538e+02" dominant-baseline="middle" stroke="none" vector-effect="non-scaling-stroke">70ms</text></g><g font-family="sans-serif" stroke-linecap="round" stroke="black" font-size="12px" transform="translate(80 520 )scale(1 1 )rotate(-90 0 0 )" stroke-linejoin="round" text-anchor="middle" stroke-width="2px" font-style="normal" dominant-baseline="hanging" fill="black" font-weight="bold"><text vector-effect="non-scaling-stroke" x="220" y="6" dominant-baseline="hanging" stroke="none">Runtime</text></g></g></g></g></svg>