<svg width="800" height="600" viewbox="0 0 800 600" preserveAspectRatio="xMidYMid meet" xmlns="http://www.w3.org/2000/svg"><defs><marker markerWidth="2%" markerHeight="2%" id="circle" viewBox="0 0 10 10 " refX="5" refY="5" markerUnits="userSpaceOnUse"><circle cy="5" r="3" fill="none" stroke="black" cx="5"/></marker><marker refY="5" markerUnits="userSpaceOnUse" markerWidth="2%" markerHeight="2%" id="filled-circle" viewBox="0 0 10 10 " refX="5"><circle cx="5" cy="5" r="3" fill="black" stroke="none"/></marker><marker markerHeight="2%" id="square" viewBox="0 0 10 10 " refX="5" refY="5" markerUnits="userSpaceOnUse" markerWidth="2%"><rect stroke="black" x="2" y="2" width="6" height="6" fill="none"/></marker><marker markerUnits="userSpaceOnUse" markerWidth="2%" markerHeight="2%" id="filled-square" viewBox="0 0 10 10 " refX="5" refY="5"><rect x="2" y="2" width="6" height="6" fill="black" stroke="none"/></marker></defs><g stroke-linejoin="round" transform="translate(80 520 )scale(1 -1 )" fill="hsl(198, 47%, 65%)" stroke="hsl(198, 47%, 65%)" stroke-width="1px" stroke-linecap="round"><rect vector-effect="non-scaling-stroke" x="3.650000e+01" y="0" width="2.750000e+01" height="4.426922e+01"/><rect vector-effect="non-scaling-stroke" x="5.783333e+01" y="0" width="2.750000e+01" height="4.423853e+01"/><rect height="4.414809e+01" vector-effect="non-scaling-stroke" x="7.916667e+01" y="0" width="2.750000e+01"/><rect y="0" width="2.750000e+01" height="4.536412e+01" vector-effect="non-scaling-stroke" x="1.005000e+02"/><rect height="4.415308e+01" vector-effect="non-scaling-stroke" x="1.218333e+02" y="0" width="2.750000e+01"/><rect vector-effect="non-scaling-stroke" x="1.431667e+02" y="0" width="2.750000e+01" height="396"/></g><g fill="hsl(49, 88%, 65%)" stroke="hsl(49, 88%, 65%)" stroke-width="1px" stroke-linecap="round" stroke-linejoin="round" transform="translate(80 520 )scale(1 -1 )"><rect vector-effect="non-scaling-stroke" x="64" y="0" width="2.750000e+01" height="4.424163e+01"/><rect vector-effect="non-scaling-stroke" x="8.533333e+01" y="0" width="2.750000e+01" height="4.420637e+01"/><rect vector-effect="non-scaling-stroke" x="1.066667e+02" y="0" width="2.750000e+01" height="4.404033e+01"/><rect width="2.750000e+01" height="4.627686e+01" vector-effect="non-scaling-stroke" x="128" y="0"/><rect y="0" width="2.750000e+01" height="4.410911e+01" vector-effect="non-scaling-stroke" x="1.493333e+02"/><rect height="3.025816e+02" vector-effect="non-scaling-stroke" x="1.706667e+02" y="0" width="2.750000e+01"/></g><g fill="hsl(198, 47%, 65%)" stroke-width="1px" font-family="sans-serif" font-style="normal" font-weight="normal" text-anchor="start" dominant-baseline="hanging" stroke="hsl(198, 47%, 65%)" stroke-linejoin="round" stroke-linecap="round" font-size="12px"><rect vector-effect="non-scaling-stroke" x="736" y="484" width="12" height="12"/><g stroke="black" fill="black"><text stroke="none" vector-effect="non-scaling-stroke" x="752" y="484" dominant-baseline="hanging">Golang</text></g><g font-style="normal" text-anchor="start" stroke="hsl(49, 88%, 65%)" font-size="12px" font-weight="normal" dominant-baseline="hanging" fill="hsl(49, 88%, 65%)" stroke-linejoin="round" font-family="sans-serif" stroke-width="1px" stroke-linecap="round"><rect vector-effect="non-scaling-stroke" x="736" y="502" width="12" height="12"/><g fill="black" stroke="black"><text y="502" dominant-baseline="hanging" stroke="none" vector-effect="non-scaling-stroke" x="752">Rust</text><g text-anchor="start" dominant-baseline="hanging" stroke-linecap="round" font-style="normal" font-family="sans-serif" font-size="12px" font-weight="normal" stroke-linejoin="round" stroke-width="2px" fill="none"><rect vector-effect="non-scaling-stroke" x="80" y="80" width="640" height="440"/></g><g font-style="normal" text-anchor="start" stroke="black" stroke-width="2px" font-family="sans-serif" stroke-linejoin="round" stroke-linecap="round" font-size="12px" font-weight="normal" dominant-baseline="hanging" transform="translate(80 520 )scale(1 -1 )" fill="none"><path vector-effect="non-scaling-stroke" d="M64,0 L64,-6 M8.533333e+01,0 L8.533333e+01,-6 M1.066667e+02,0 L1.066667e+02,-6 M128,0 L128,-6 M1.493333e+02,0 L1.493333e+02,-6 M1.706667e+02,0 L1.706667e+02,-6 "/></g><g stroke-linejoin="round" font-style="normal" font-weight="normal" dominant-baseline="hanging" stroke="black" stroke-linecap="round" transform="translate(80 520 )scale(1 1 )" font-family="sans-serif" font-size="12px" text-anchor="middle" stroke-width="2px" fill="black"><text dominant-baseline="hanging" stroke="none" vector-effect="non-scaling-stroke" x="64" y="10">1</text><text x="8.533333e+01" y="10" dominant-baseline="hanging" stroke="none" vector-effect="non-scaling-stroke">2</text><text y="10" dominant-baseline="hanging" stroke="none" vector-effect="non-scaling-stroke" x="1.066667e+02">3</text><text vector-effect="non-scaling-stroke" x="128" y="10" dominant-baseline="hanging" stroke="none">4</text><text y="10" dominant-baseline="hanging" stroke="none" vector-effect="non-scaling-stroke" x="1.493333e+02">5</text><text stroke="none" vector-effect="non-scaling-stroke" x="1.706667e+02" y="10" dominant-baseline="hanging">6</text></g><g stroke-width="2px" stroke-linecap="round" fill="black" font-family="sans-serif" font-weight="bold" text-anchor="middle" dominant-baseline="baseline" stroke-linejoin="round" transform="translate(80 520 )scale(1 1 )rotate(0 0 0 )" font-style="normal" stroke="black" font-size="12px"><text x="320" y="-6" dominant-baseline="baseline" stroke="none" vector-effect="non-scaling-stroke">Day</text></g><g text-anchor="middle" dominant-baseline="baseline" stroke="black" stroke-width="2px" font-family="sans-serif" font-style="normal" font-weight="bold" transform="translate(80 520 )scale(1 -1 )" fill="black" stroke-linejoin="round" font-size="12px" stroke-linecap="round"><path d="M0,44 L-6,44 M0,9.418656e+01 L-6,9.418656e+01 M0,1.443731e+02 L-6,1.443731e+02 M0,1.945597e+02 L-6,1.945597e+02 M0,2.447462e+02 L-6,2.447462e+02 M0,2.949328e+02 L-6,2.949328e+02 M0,3.451193e+02 L-6,3.451193e+02 M0,3.953059e+02 L-6,3.953059e+02 " vector-effect="non-scaling-stroke"/></g><g stroke-linejoin="round" font-family="sans-serif" transform="translate(80 520 )scale(1 1 )" text-anchor="end" stroke-linecap="round" font-size="12px" font-style="normal" fill="black" dominant-baseline="middle" stroke="black" stroke-width="2px" font-weight="normal"><text y="-44" dominant-baseline="middle" stroke="none" vector-effect="non-scaling-stroke" x="-10">0s</text><text stroke="none" vector-effect="non-scaling-stroke" x="-10" y="-9.418656e+01" dominant-baseline="middle">10ms</text><text stroke="none" vector-effect="non-scaling-stroke" x="-10" y="-1.443731e+02" dominant-baseline="middle">20ms</text><text x="-10" y="-1.945597e+02" dominant-baseline="middle" stroke="none" vector-effect="non-scaling-stroke">30ms</text><text y="-2.447462e+02" dominant-baseline="middle" stroke="none" vector-effect="non-scaling-stroke" x="-10">40ms</text><text dominant-baseline="middle" stroke="none" vector-effect="non-scaling-stroke" x="-10" y="-2.949328e+02">50ms</text><text dominant-baseline="middle" stroke="none" vector-effect="non-scaling-stroke" x="-10" y="-3.451193e+02">60ms</text><text vector-effect="non-scaling-stroke" x="-10" y="-3.953059e+02" dominant-baseline="middle" stroke="none">70ms</text></g><g fill="black" font-family="sans-serif" font-size="12px" font-weight="bold" dominant-baseline="hanging" stroke="black" stroke-width="2px" transform="translate(80 520 )scale(1 1 )rotate(-90 0 0 )" font-style="normal" text-anchor="middle" stroke-linecap="round" stroke-linejoin="round"><text vector-effect="non-scaling-stroke" x="220" y="6" dominant-baseline="hanging" stroke="none">Runtime</text></g></g></g></g></svg>