<svg preserveAspectRatio="xMidYMid meet" xmlns="http://www.w3.org/2000/svg" width="800" height="600" viewbox="0 0 800 600"><defs><marker markerWidth="2%" markerHeight="2%" id="circle" viewBox="0 0 10 10 " refX="5" refY="5" markerUnits="userSpaceOnUse"><circle stroke="black" cx="5" cy="5" r="3" fill="none"/></marker><marker refY="5" markerUnits="userSpaceOnUse" markerWidth="2%" markerHeight="2%" id="filled-circle" viewBox="0 0 10 10 " refX="5"><circle cx="5" cy="5" r="3" fill="black" stroke="none"/></marker><marker refY="5" markerUnits="userSpaceOnUse" markerWidth="2%" markerHeight="2%" id="square" viewBox="0 0 10 10 " refX="5"><rect y="2" width="6" height="6" fill="none" stroke="black" x="2"/></marker><marker viewBox="0 0 10 10 " refX="5" refY="5" markerUnits="userSpaceOnUse" markerWidth="2%" markerHeight="2%" id="filled-square"><rect stroke="none" x="2" y="2" width="6" height="6" fill="black"/></marker></defs><g stroke-linejoin="round" transform="translate(80 520 )scale(1 -1 )" fill="hsl(198, 47%, 65%)" stroke="hsl(198, 47%, 65%)" stroke-width="1px" stroke-linecap="round"><rect x="3.650000e+01" y="0" width="1.833333e+01" height="4.403267e+01" vector-effect="non-scaling-stroke"/><rect vector-effect="non-scaling-stroke" x="5.783333e+01" y="0" width="1.833333e+01" height="4.400104e+01"/><rect width="1.833333e+01" height="4.400471e+01" vector-effect="non-scaling-stroke" x="7.916667e+01" y="0"/><rect y="0" width="1.833333e+01" height="4.400597e+01" vector-effect="non-scaling-stroke" x="1.005000e+02"/><rect vector-effect="non-scaling-stroke" x="1.218333e+02" y="0" width="1.833333e+01" height="7.832963e+02"/></g><g stroke-width="1px" stroke-linecap="round" stroke-linejoin="round" transform="translate(80 520 )scale(1 -1 )" fill="hsl(49, 88%, 65%)" stroke="hsl(49, 88%, 65%)"><rect height="4.401633e+01" vector-effect="non-scaling-stroke" x="5.483333e+01" y="0" width="1.833333e+01"/><rect y="0" width="1.833333e+01" height="4.400042e+01" vector-effect="non-scaling-stroke" x="7.616667e+01"/><rect x="9.750000e+01" y="0" width="1.833333e+01" height="4.400305e+01" vector-effect="non-scaling-stroke"/></g><g stroke-width="1px" stroke-linecap="round" stroke-linejoin="round" transform="translate(80 520 )scale(1 -1 )" fill="hsl(260, 76%, 65%)" stroke="hsl(260, 76%, 65%)"><rect height="4.401304e+01" vector-effect="non-scaling-stroke" x="7.316667e+01" y="0" width="1.833333e+01"/><rect vector-effect="non-scaling-stroke" x="9.450000e+01" y="0" width="1.833333e+01" height="4.400046e+01"/><rect vector-effect="non-scaling-stroke" x="1.158333e+02" y="0" width="1.833333e+01" height="4.400245e+01"/><rect vector-effect="non-scaling-stroke" x="1.371667e+02" y="0" width="1.833333e+01" height="4.400930e+01"/></g><g stroke="hsl(198, 47%, 65%)" fill="hsl(198, 47%, 65%)" font-family="sans-serif" font-size="12px" font-style="normal" font-weight="normal" text-anchor="start" dominant-baseline="hanging" stroke-width="1px" stroke-linecap="round" stroke-linejoin="round"><rect height="12" vector-effect="non-scaling-stroke" x="736" y="466" width="12"/><g stroke="black" fill="black"><text y="466" dominant-baseline="hanging" stroke="none" vector-effect="non-scaling-stroke" x="752">Golang</text></g><g fill="hsl(49, 88%, 65%)" stroke-linecap="round" font-weight="normal" text-anchor="start" dominant-baseline="hanging" stroke="hsl(49, 88%, 65%)" stroke-linejoin="round" font-family="sans-serif" font-size="12px" stroke-width="1px" font-style="normal"><rect width="12" height="12" vector-effect="non-scaling-stroke" x="736" y="484"/><g fill="black" stroke="black"><text stroke="none" vector-effect="non-scaling-stroke" x="752" y="484" dominant-baseline="hanging">Rust</text></g><g stroke="hsl(260, 76%, 65%)" font-family="sans-serif" font-weight="normal" fill="hsl(260, 76%, 65%)" stroke-width="1px" stroke-linecap="round" dominant-baseline="hanging" stroke-linejoin="round" font-size="12px" font-style="normal" text-anchor="start"><rect y="502" width="12" height="12" vector-effect="non-scaling-stroke" x="736"/><g fill="black" stroke="black"><text y="502" dominant-baseline="hanging" stroke="none" vector-effect="non-scaling-stroke" x="752">Zig</text><g stroke-linejoin="round" font-weight="normal" font-family="sans-serif" font-size="12px" dominant-baseline="hanging" fill="none" stroke-width="2px" stroke-linecap="round" font-style="normal" text-anchor="start"><rect vector-effect="non-scaling-stroke" x="80" y="80" width="640" height="440"/></g><g fill="none" stroke-linejoin="round" font-family="sans-serif" font-size="12px" font-style="normal" font-weight="normal" transform="translate(80 520 )scale(1 -1 )" stroke-width="2px" stroke-linecap="round" text-anchor="start" dominant-baseline="hanging" stroke="black"><path vector-effect="non-scaling-stroke" d="M64,0 L64,-6 M8.533333e+01,0 L8.533333e+01,-6 M1.066667e+02,0 L1.066667e+02,-6 M128,0 L128,-6 M1.493333e+02,0 L1.493333e+02,-6 "/></g><g stroke-linejoin="round" fill="black" font-family="sans-serif" font-size="12px" font-weight="normal" stroke="black" stroke-linecap="round" stroke-width="2px" font-style="normal" text-anchor="middle" dominant-baseline="hanging" transform="translate(80 520 )scale(1 1 )"><text vector-effect="non-scaling-stroke" x="64" y="10" dominant-baseline="hanging" stroke="none">1</text><text x="8.533333e+01" y="10" dominant-baseline="hanging" stroke="none" vector-effect="non-scaling-stroke">2</text><text stroke="none" vector-effect="non-scaling-stroke" x="1.066667e+02" y="10" dominant-baseline="hanging">3</text><text x="128" y="10" dominant-baseline="hanging" stroke="none" vector-effect="non-scaling-stroke">4</text><text x="1.493333e+02" y="10" dominant-baseline="hanging" stroke="none" vector-effect="non-scaling-stroke">5</text></g><g font-weight="bold" stroke="black" font-family="sans-serif" stroke-linecap="round" transform="translate(80 520 )scale(1 1 )rotate(0 0 0 )" fill="black" stroke-width="2px" font-style="normal" text-anchor="middle" dominant-baseline="baseline" stroke-linejoin="round" font-size="12px"><text stroke="none" vector-effect="non-scaling-stroke" x="320" y="-6" dominant-baseline="baseline">Day</text></g><g transform="translate(80 520 )scale(1 -1 )" stroke-linecap="round" stroke="black" stroke-linejoin="round" font-family="sans-serif" font-style="normal" font-size="12px" fill="black" stroke-width="2px" font-weight="bold" text-anchor="middle" dominant-baseline="baseline"><path vector-effect="non-scaling-stroke" d="M0,44 L-6,44 M0,7.920000e+01 L-6,7.920000e+01 M0,1.144000e+02 L-6,1.144000e+02 M0,1.496000e+02 L-6,1.496000e+02 M0,1.848000e+02 L-6,1.848000e+02 M0,220 L-6,220 M0,2.552000e+02 L-6,2.552000e+02 M0,2.904000e+02 L-6,2.904000e+02 M0,3.256000e+02 L-6,3.256000e+02 M0,3.608000e+02 L-6,3.608000e+02 M0,396 L-6,396 "/></g><g stroke-linecap="round" fill="black" font-family="sans-serif" font-size="12px" font-weight="normal" dominant-baseline="middle" stroke="black" stroke-width="2px" transform="translate(80 520 )scale(1 1 )" font-style="normal" text-anchor="end" stroke-linejoin="round"><text x="-10" y="-44" dominant-baseline="middle" stroke="none" vector-effect="non-scaling-stroke">0s</text><text stroke="none" vector-effect="non-scaling-stroke" x="-10" y="-7.920000e+01" dominant-baseline="middle">200ms</text><text dominant-baseline="middle" stroke="none" vector-effect="non-scaling-stroke" x="-10" y="-1.144000e+02">400ms</text><text stroke="none" vector-effect="non-scaling-stroke" x="-10" y="-1.496000e+02" dominant-baseline="middle">600ms</text><text stroke="none" vector-effect="non-scaling-stroke" x="-10" y="-1.848000e+02" dominant-baseline="middle">800ms</text><text stroke="none" vector-effect="non-scaling-stroke" x="-10" y="-220" dominant-baseline="middle">1s</text><text stroke="none" vector-effect="non-scaling-stroke" x="-10" y="-2.552000e+02" dominant-baseline="middle">1.2s</text><text x="-10" y="-2.904000e+02" dominant-baseline="middle" stroke="none" vector-effect="non-scaling-stroke">1.4s</text><text dominant-baseline="middle" stroke="none" vector-effect="non-scaling-stroke" x="-10" y="-3.256000e+02">1.6s</text><text y="-3.608000e+02" dominant-baseline="middle" stroke="none" vector-effect="non-scaling-stroke" x="-10">1.8s</text><text x="-10" y="-396" dominant-baseline="middle" stroke="none" vector-effect="non-scaling-stroke">2s</text></g><g dominant-baseline="hanging" font-weight="bold" transform="translate(80 520 )scale(1 1 )rotate(-90 0 0 )" font-style="normal" fill="black" stroke-width="2px" stroke-linecap="round" stroke="black" stroke-linejoin="round" font-family="sans-serif" font-size="12px" text-anchor="middle"><text y="6" dominant-baseline="hanging" stroke="none" vector-effect="non-scaling-stroke" x="220">Runtime</text></g></g></g></g></g></svg>