<svg height="600" viewbox="0 0 800 600" preserveAspectRatio="xMidYMid meet" xmlns="http://www.w3.org/2000/svg" width="800"><defs><marker markerHeight="2%" id="circle" viewBox="0 0 10 10 " refX="5" refY="5" markerUnits="userSpaceOnUse" markerWidth="2%"><circle fill="none" stroke="black" cx="5" cy="5" r="3"/></marker><marker markerUnits="userSpaceOnUse" markerWidth="2%" markerHeight="2%" id="filled-circle" viewBox="0 0 10 10 " refX="5" refY="5"><circle fill="black" stroke="none" cx="5" cy="5" r="3"/></marker><marker markerUnits="userSpaceOnUse" markerWidth="2%" markerHeight="2%" id="square" viewBox="0 0 10 10 " refX="5" refY="5"><rect fill="none" stroke="black" x="2" y="2" width="6" height="6"/></marker><marker refX="5" refY="5" markerUnits="userSpaceOnUse" markerWidth="2%" markerHeight="2%" id="filled-square" viewBox="0 0 10 10 "><rect y="2" width="6" height="6" fill="black" stroke="none" x="2"/></marker></defs><g stroke-width="1px" stroke-linecap="round" stroke-linejoin="round" transform="translate(80 520 )scale(1 -1 )" fill="hsl(198, 47%, 65%)" stroke="hsl(198, 47%, 65%)"><rect height="4.408139e+01" vector-effect="non-scaling-stroke" x="5.546667e+01" y="0" width="5.688889e+00"/><rect y="0" width="5.688889e+00" height="4.408196e+01" vector-effect="non-scaling-stroke" x="7.680000e+01"/><rect vector-effect="non-scaling-stroke" x="9.813333e+01" y="0" width="5.688889e+00" height="4.405015e+01"/><rect width="5.688889e+00" height="4.446870e+01" vector-effect="non-scaling-stroke" x="1.194667e+02" y="0"/><rect height="4.405260e+01" vector-effect="non-scaling-stroke" x="1.408000e+02" y="0" width="5.688889e+00"/><rect y="0" width="5.688889e+00" height="1.676747e+02" vector-effect="non-scaling-stroke" x="1.621333e+02"/><rect vector-effect="non-scaling-stroke" x="1.834667e+02" y="0" width="5.688889e+00" height="7.299352e+01"/><rect vector-effect="non-scaling-stroke" x="2.048000e+02" y="0" width="5.688889e+00" height="4.401200e+01"/><rect x="2.261333e+02" y="0" width="5.688889e+00" height="4.479665e+01" vector-effect="non-scaling-stroke"/><rect vector-effect="non-scaling-stroke" x="2.474667e+02" y="0" width="5.688889e+00" height="4.419673e+01"/><rect vector-effect="non-scaling-stroke" x="2.688000e+02" y="0" width="5.688889e+00" height="4.638498e+01"/><rect y="0" width="5.688889e+00" height="4.501938e+01" vector-effect="non-scaling-stroke" x="2.901333e+02"/><rect y="0" width="5.688889e+00" height="4.401207e+01" vector-effect="non-scaling-stroke" x="3.114667e+02"/><rect vector-effect="non-scaling-stroke" x="3.328000e+02" y="0" width="5.688889e+00" height="5.368653e+01"/><rect vector-effect="non-scaling-stroke" x="3.541333e+02" y="0" width="5.688889e+00" height="4.513826e+01"/><rect y="0" width="5.688889e+00" height="6.794324e+01" vector-effect="non-scaling-stroke" x="3.754667e+02"/><rect vector-effect="non-scaling-stroke" x="3.968000e+02" y="0" width="5.688889e+00" height="4.403368e+01"/><rect vector-effect="non-scaling-stroke" x="4.181333e+02" y="0" width="5.688889e+00" height="4.435730e+01"/><rect height="4.641211e+01" vector-effect="non-scaling-stroke" x="4.394667e+02" y="0" width="5.688889e+00"/><rect y="0" width="5.688889e+00" height="7.847029e+01" vector-effect="non-scaling-stroke" x="4.608000e+02"/><rect vector-effect="non-scaling-stroke" x="4.821333e+02" y="0" width="5.688889e+00" height="4.400010e+01"/><rect vector-effect="non-scaling-stroke" x="5.034667e+02" y="0" width="5.688889e+00" height="1.251727e+02"/><rect y="0" width="5.688889e+00" height="1.531087e+02" vector-effect="non-scaling-stroke" x="5.248000e+02"/><rect y="0" width="5.688889e+00" height="4.448159e+01" vector-effect="non-scaling-stroke" x="5.461333e+02"/><rect x="5.674667e+02" y="0" width="5.688889e+00" height="4.448066e+01" vector-effect="non-scaling-stroke"/></g><g fill="hsl(49, 88%, 65%)" stroke="hsl(49, 88%, 65%)" stroke-width="1px" stroke-linecap="round" stroke-linejoin="round" transform="translate(80 520 )scale(1 -1 )"><rect vector-effect="non-scaling-stroke" x="6.115556e+01" y="0" width="5.688889e+00" height="4.403192e+01"/><rect height="4.407419e+01" vector-effect="non-scaling-stroke" x="8.248889e+01" y="0" width="5.688889e+00"/><rect height="4.401527e+01" vector-effect="non-scaling-stroke" x="1.038222e+02" y="0" width="5.688889e+00"/><rect vector-effect="non-scaling-stroke" x="1.251556e+02" y="0" width="5.688889e+00" height="4.478232e+01"/><rect x="1.464889e+02" y="0" width="5.688889e+00" height="4.402965e+01" vector-effect="non-scaling-stroke"/><rect width="5.688889e+00" height="1.379508e+02" vector-effect="non-scaling-stroke" x="1.678222e+02" y="0"/><rect x="1.891556e+02" y="0" width="5.688889e+00" height="7.333799e+01" vector-effect="non-scaling-stroke"/><rect y="0" width="5.688889e+00" height="4.400571e+01" vector-effect="non-scaling-stroke" x="2.104889e+02"/><rect vector-effect="non-scaling-stroke" x="2.318222e+02" y="0" width="5.688889e+00" height="4.495170e+01"/><rect vector-effect="non-scaling-stroke" x="2.531556e+02" y="0" width="5.688889e+00" height="4.406728e+01"/><rect width="5.688889e+00" height="4.582177e+01" vector-effect="non-scaling-stroke" x="2.744889e+02" y="0"/><rect y="0" width="5.688889e+00" height="4.477711e+01" vector-effect="non-scaling-stroke" x="2.958222e+02"/><rect height="4.400973e+01" vector-effect="non-scaling-stroke" x="3.171556e+02" y="0" width="5.688889e+00"/><rect y="0" width="5.688889e+00" height="5.055640e+01" vector-effect="non-scaling-stroke" x="3.384889e+02"/><rect height="4.711601e+01" vector-effect="non-scaling-stroke" x="3.598222e+02" y="0" width="5.688889e+00"/><rect x="3.811556e+02" y="0" width="5.688889e+00" height="5.366698e+01" vector-effect="non-scaling-stroke"/><rect width="5.688889e+00" height="4.437240e+01" vector-effect="non-scaling-stroke" x="4.024889e+02" y="0"/><rect height="4.421326e+01" vector-effect="non-scaling-stroke" x="4.238222e+02" y="0" width="5.688889e+00"/><rect y="0" width="5.688889e+00" height="4.711187e+01" vector-effect="non-scaling-stroke" x="4.451556e+02"/><rect x="4.664889e+02" y="0" width="5.688889e+00" height="8.840898e+01" vector-effect="non-scaling-stroke"/><rect height="4.400005e+01" vector-effect="non-scaling-stroke" x="4.878222e+02" y="0" width="5.688889e+00"/><rect y="0" width="5.688889e+00" height="2.218956e+02" vector-effect="non-scaling-stroke" x="5.091556e+02"/><rect width="5.688889e+00" height="4.493664e+01" vector-effect="non-scaling-stroke" x="5.304889e+02" y="0"/><rect y="0" width="5.688889e+00" height="4.413517e+01" vector-effect="non-scaling-stroke" x="5.518222e+02"/><rect x="5.731556e+02" y="0" width="5.688889e+00" height="4.434290e+01" vector-effect="non-scaling-stroke"/></g><g fill="hsl(260, 76%, 65%)" stroke="hsl(260, 76%, 65%)" stroke-width="1px" stroke-linecap="round" stroke-linejoin="round" transform="translate(80 520 )scale(1 -1 )"><rect vector-effect="non-scaling-stroke" x="6.684444e+01" y="0" width="5.688889e+00" height="4.405432e+01"/><rect x="8.817778e+01" y="0" width="5.688889e+00" height="4.404062e+01" vector-effect="non-scaling-stroke"/><rect vector-effect="non-scaling-stroke" x="1.095111e+02" y="0" width="5.688889e+00" height="4.404221e+01"/><rect width="5.688889e+00" height="4.424780e+01" vector-effect="non-scaling-stroke" x="1.308444e+02" y="0"/><rect width="5.688889e+00" height="4.402243e+01" vector-effect="non-scaling-stroke" x="1.521778e+02" y="0"/><rect width="5.688889e+00" height="396" vector-effect="non-scaling-stroke" x="1.735111e+02" y="0"/><rect vector-effect="non-scaling-stroke" x="1.948444e+02" y="0" width="5.688889e+00" height="7.296160e+01"/><rect y="0" width="5.688889e+00" height="4.401023e+01" vector-effect="non-scaling-stroke" x="2.161778e+02"/><rect vector-effect="non-scaling-stroke" x="2.375111e+02" y="0" width="5.688889e+00" height="4.454160e+01"/><rect vector-effect="non-scaling-stroke" x="2.588444e+02" y="0" width="5.688889e+00" height="4.610742e+01"/><rect width="5.688889e+00" height="4.571518e+01" vector-effect="non-scaling-stroke" x="2.801778e+02" y="0"/><rect width="5.688889e+00" height="6.665981e+01" vector-effect="non-scaling-stroke" x="3.015111e+02" y="0"/><rect vector-effect="non-scaling-stroke" x="3.228444e+02" y="0" width="5.688889e+00" height="4.400824e+01"/></g><g stroke-width="1px" dominant-baseline="hanging" fill="hsl(198, 47%, 65%)" stroke="hsl(198, 47%, 65%)" stroke-linecap="round" font-size="12px" font-weight="normal" stroke-linejoin="round" font-style="normal" text-anchor="start" font-family="sans-serif"><rect x="736" y="466" width="12" height="12" vector-effect="non-scaling-stroke"/><g stroke="black" fill="black"><text vector-effect="non-scaling-stroke" x="752" y="466" dominant-baseline="hanging" stroke="none">Golang</text></g><g stroke-linejoin="round" font-style="normal" font-weight="normal" stroke="hsl(49, 88%, 65%)" stroke-linecap="round" font-family="sans-serif" dominant-baseline="hanging" font-size="12px" text-anchor="start" fill="hsl(49, 88%, 65%)" stroke-width="1px"><rect height="12" vector-effect="non-scaling-stroke" x="736" y="484" width="12"/><g fill="black" stroke="black"><text vector-effect="non-scaling-stroke" x="752" y="484" dominant-baseline="hanging" stroke="none">Rust</text></g><g font-size="12px" font-weight="normal" text-anchor="start" font-family="sans-serif" stroke-width="1px" stroke-linecap="round" stroke-linejoin="round" font-style="normal" fill="hsl(260, 76%, 65%)" dominant-baseline="hanging" stroke="hsl(260, 76%, 65%)"><rect vector-effect="non-scaling-stroke" x="736" y="502" width="12" height="12"/><g stroke="black" fill="black"><text y="502" dominant-baseline="hanging" stroke="none" vector-effect="non-scaling-stroke" x="752">Zig</text><g stroke-linejoin="round" font-style="normal" dominant-baseline="hanging" font-family="sans-serif" stroke-width="2px" stroke-linecap="round" font-weight="normal" text-anchor="start" font-size="12px" fill="none"><rect x="80" y="80" width="640" height="440" vector-effect="non-scaling-stroke"/></g><g fill="none" transform="translate(80 520 )scale(1 -1 )" dominant-baseline="hanging" stroke-width="2px" font-family="sans-serif" font-size="12px" font-weight="normal" stroke-linecap="round" stroke-linejoin="round" font-style="normal" text-anchor="start" stroke="black"><path vector-effect="non-scaling-stroke" d="M64,0 L64,-6 M8.533333e+01,0 L8.533333e+01,-6 M1.066667e+02,0 L1.066667e+02,-6 M128,0 L128,-6 M1.493333e+02,0 L1.493333e+02,-6 M1.706667e+02,0 L1.706667e+02,-6 M192,0 L192,-6 M2.133333e+02,0 L2.133333e+02,-6 M2.346667e+02,0 L2.346667e+02,-6 M256,0 L256,-6 M2.773333e+02,0 L2.773333e+02,-6 M2.986667e+02,0 L2.986667e+02,-6 M320,0 L320,-6 M3.413333e+02,0 L3.413333e+02,-6 M3.626667e+02,0 L3.626667e+02,-6 M384,0 L384,-6 M4.053333e+02,0 L4.053333e+02,-6 M4.266667e+02,0 L4.266667e+02,-6 M448,0 L448,-6 M4.693333e+02,0 L4.693333e+02,-6 M4.906667e+02,0 L4.906667e+02,-6 M512,0 L512,-6 M5.333333e+02,0 L5.333333e+02,-6 M5.546667e+02,0 L5.546667e+02,-6 M576,0 L576,-6 "/></g><g font-style="normal" fill="black" stroke-linecap="round" stroke-linejoin="round" stroke-width="2px" font-family="sans-serif" font-size="12px" font-weight="normal" text-anchor="middle" stroke="black" transform="translate(80 520 )scale(1 1 )" dominant-baseline="hanging"><text stroke="none" vector-effect="non-scaling-stroke" x="64" y="10" dominant-baseline="hanging">1</text><text x="8.533333e+01" y="10" dominant-baseline="hanging" stroke="none" vector-effect="non-scaling-stroke">2</text><text y="10" dominant-baseline="hanging" stroke="none" vector-effect="non-scaling-stroke" x="1.066667e+02">3</text><text stroke="none" vector-effect="non-scaling-stroke" x="128" y="10" dominant-baseline="hanging">4</text><text stroke="none" vector-effect="non-scaling-stroke" x="1.493333e+02" y="10" dominant-baseline="hanging">5</text><text stroke="none" vector-effect="non-scaling-stroke" x="1.706667e+02" y="10" dominant-baseline="hanging">6</text><text vector-effect="non-scaling-stroke" x="192" y="10" dominant-baseline="hanging" stroke="none">7</text><text stroke="none" vector-effect="non-scaling-stroke" x="2.133333e+02" y="10" dominant-baseline="hanging">8</text><text x="2.346667e+02" y="10" dominant-baseline="hanging" stroke="none" vector-effect="non-scaling-stroke">9</text><text stroke="none" vector-effect="non-scaling-stroke" x="256" y="10" dominant-baseline="hanging">10</text><text y="10" dominant-baseline="hanging" stroke="none" vector-effect="non-scaling-stroke" x="2.773333e+02">11</text><text y="10" dominant-baseline="hanging" stroke="none" vector-effect="non-scaling-stroke" x="2.986667e+02">12</text><text dominant-baseline="hanging" stroke="none" vector-effect="non-scaling-stroke" x="320" y="10">13</text><text stroke="none" vector-effect="non-scaling-stroke" x="3.413333e+02" y="10" dominant-baseline="hanging">14</text><text stroke="none" vector-effect="non-scaling-stroke" x="3.626667e+02" y="10" dominant-baseline="hanging">15</text><text x="384" y="10" dominant-baseline="hanging" stroke="none" vector-effect="non-scaling-stroke">16</text><text stroke="none" vector-effect="non-scaling-stroke" x="4.053333e+02" y="10" dominant-baseline="hanging">17</text><text vector-effect="non-scaling-stroke" x="4.266667e+02" y="10" dominant-baseline="hanging" stroke="none">18</text><text stroke="none" vector-effect="non-scaling-stroke" x="448" y="10" dominant-baseline="hanging">19</text><text vector-effect="non-scaling-stroke" x="4.693333e+02" y="10" dominant-baseline="hanging" stroke="none">20</text><text stroke="none" vector-effect="non-scaling-stroke" x="4.906667e+02" y="10" dominant-baseline="hanging">21</text><text x="512" y="10" dominant-baseline="hanging" stroke="none" vector-effect="non-scaling-stroke">22</text><text vector-effect="non-scaling-stroke" x="5.333333e+02" y="10" dominant-baseline="hanging" stroke="none">23</text><text x="5.546667e+02" y="10" dominant-baseline="hanging" stroke="none" vector-effect="non-scaling-stroke">24</text><text vector-effect="non-scaling-stroke" x="576" y="10" dominant-baseline="hanging" stroke="none">25</text></g><g font-family="sans-serif" stroke-linecap="round" font-size="12px" stroke="black" transform="translate(80 520 )scale(1 1 )rotate(0 0 0 )" dominant-baseline="baseline" stroke-width="2px" stroke-linejoin="round" font-style="normal" font-weight="bold" text-anchor="middle" fill="black"><text stroke="none" vector-effect="non-scaling-stroke" x="320" y="-6" dominant-baseline="baseline">Day</text></g><g font-style="normal" fill="black" dominant-baseline="baseline" stroke-width="2px" font-family="sans-serif" stroke-linecap="round" stroke-linejoin="round" font-size="12px" transform="translate(80 520 )scale(1 -1 )" font-weight="bold" text-anchor="middle" stroke="black"><path d="M0,44 L-6,44 M0,2.164388e+02 L-6,2.164388e+02 M0,3.888777e+02 L-6,3.888777e+02 " vector-effect="non-scaling-stroke"/></g><g fill="black" stroke="black" stroke-linecap="round" stroke-linejoin="round" transform="translate(80 520 )scale(1 1 )" dominant-baseline="middle" font-size="12px" font-style="normal" font-weight="normal" text-anchor="end" stroke-width="2px" font-family="sans-serif"><text vector-effect="non-scaling-stroke" x="-10" y="-44" dominant-baseline="middle" stroke="none">0s</text><text vector-effect="non-scaling-stroke" x="-10" y="-2.164388e+02" dominant-baseline="middle" stroke="none">100ms</text><text x="-10" y="-3.888777e+02" dominant-baseline="middle" stroke="none" vector-effect="non-scaling-stroke">200ms</text></g><g dominant-baseline="hanging" font-size="12px" fill="black" stroke="black" stroke-linecap="round" stroke-linejoin="round" font-family="sans-serif" font-style="normal" font-weight="bold" text-anchor="middle" transform="translate(80 520 )scale(1 1 )rotate(-90 0 0 )" stroke-width="2px"><text dominant-baseline="hanging" stroke="none" vector-effect="non-scaling-stroke" x="220" y="6">Runtime</text></g></g></g></g></g></svg>