<svg viewbox="0 0 800 600" preserveAspectRatio="xMidYMid meet" xmlns="http://www.w3.org/2000/svg" width="800" height="600"><defs><marker markerUnits="userSpaceOnUse" markerWidth="2%" markerHeight="2%" id="circle" viewBox="0 0 10 10 " refX="5" refY="5"><circle cx="5" cy="5" r="3" fill="none" stroke="black"/></marker><marker id="filled-circle" viewBox="0 0 10 10 " refX="5" refY="5" markerUnits="userSpaceOnUse" markerWidth="2%" markerHeight="2%"><circle fill="black" stroke="none" cx="5" cy="5" r="3"/></marker><marker markerWidth="2%" markerHeight="2%" id="square" viewBox="0 0 10 10 " refX="5" refY="5" markerUnits="userSpaceOnUse"><rect x="2" y="2" width="6" height="6" fill="none" stroke="black"/></marker><marker markerUnits="userSpaceOnUse" markerWidth="2%" markerHeight="2%" id="filled-square" viewBox="0 0 10 10 " refX="5" refY="5"><rect x="2" y="2" width="6" height="6" fill="black" stroke="none"/></marker></defs><g stroke="hsl(198, 47%, 65%)" stroke-width="1px" stroke-linecap="round" stroke-linejoin="round" transform="translate(80 520 )scale(1 -1 )" fill="hsl(198, 47%, 65%)"><rect x="4.876190e+01" y="0" width="1.523810e+01" height="4.423525e+01" vector-effect="non-scaling-stroke"/><rect x="7.009524e+01" y="0" width="1.523810e+01" height="4.423326e+01" vector-effect="non-scaling-stroke"/><rect height="4.414482e+01" vector-effect="non-scaling-stroke" x="9.142857e+01" y="0" width="1.523810e+01"/><rect vector-effect="non-scaling-stroke" x="1.127619e+02" y="0" width="1.523810e+01" height="4.533401e+01"/><rect x="1.340952e+02" y="0" width="1.523810e+01" height="4.414970e+01" vector-effect="non-scaling-stroke"/><rect y="0" width="1.523810e+01" height="396" vector-effect="non-scaling-stroke" x="1.554286e+02"/><rect width="1.523810e+01" height="1.265206e+02" vector-effect="non-scaling-stroke" x="1.767619e+02" y="0"/><rect y="0" width="1.523810e+01" height="4.403414e+01" vector-effect="non-scaling-stroke" x="1.980952e+02"/><rect width="1.523810e+01" height="5.167989e+01" vector-effect="non-scaling-stroke" x="2.194286e+02" y="0"/><rect y="0" width="1.523810e+01" height="4.622438e+01" vector-effect="non-scaling-stroke" x="2.407619e+02"/><rect x="2.620952e+02" y="0" width="1.523810e+01" height="5.073232e+01" vector-effect="non-scaling-stroke"/><rect vector-effect="non-scaling-stroke" x="2.834286e+02" y="0" width="1.523810e+01" height="4.690133e+01"/><rect width="1.523810e+01" height="4.403436e+01" vector-effect="non-scaling-stroke" x="3.047619e+02" y="0"/><rect vector-effect="non-scaling-stroke" x="3.260952e+02" y="0" width="1.523810e+01" height="3.900794e+02"/></g><g transform="translate(80 520 )scale(1 -1 )" fill="hsl(49, 88%, 65%)" stroke="hsl(49, 88%, 65%)" stroke-width="1px" stroke-linecap="round" stroke-linejoin="round"><rect height="4.422948e+01" vector-effect="non-scaling-stroke" x="64" y="0" width="1.523810e+01"/><rect width="1.523810e+01" height="4.421116e+01" vector-effect="non-scaling-stroke" x="8.533333e+01" y="0"/><rect vector-effect="non-scaling-stroke" x="1.066667e+02" y="0" width="1.523810e+01" height="4.404346e+01"/><rect x="128" y="0" width="1.523810e+01" height="4.622662e+01" vector-effect="non-scaling-stroke"/><rect vector-effect="non-scaling-stroke" x="1.493333e+02" y="0" width="1.523810e+01" height="4.410670e+01"/><rect vector-effect="non-scaling-stroke" x="1.706667e+02" y="0" width="1.523810e+01" height="3.114004e+02"/><rect y="0" width="1.523810e+01" height="1.275011e+02" vector-effect="non-scaling-stroke" x="192"/><rect height="4.401625e+01" vector-effect="non-scaling-stroke" x="2.133333e+02" y="0" width="1.523810e+01"/><rect x="2.346667e+02" y="0" width="1.523810e+01" height="4.690768e+01" vector-effect="non-scaling-stroke"/><rect height="4.418291e+01" vector-effect="non-scaling-stroke" x="2.560000e+02" y="0" width="1.523810e+01"/><rect width="1.523810e+01" height="4.918509e+01" vector-effect="non-scaling-stroke" x="2.773333e+02" y="0"/><rect vector-effect="non-scaling-stroke" x="2.986667e+02" y="0" width="1.523810e+01" height="4.621178e+01"/><rect vector-effect="non-scaling-stroke" x="320" y="0" width="1.523810e+01" height="4.402768e+01"/><rect vector-effect="non-scaling-stroke" x="3.413333e+02" y="0" width="1.523810e+01" height="1.129941e+02"/></g><g stroke-linejoin="round" font-size="12px" font-style="normal" fill="hsl(198, 47%, 65%)" stroke="hsl(198, 47%, 65%)" font-weight="normal" dominant-baseline="hanging" stroke-width="1px" stroke-linecap="round" font-family="sans-serif" text-anchor="start"><rect width="12" height="12" vector-effect="non-scaling-stroke" x="736" y="484"/><g fill="black" stroke="black"><text stroke="none" vector-effect="non-scaling-stroke" x="752" y="484" dominant-baseline="hanging">Golang</text></g><g font-weight="normal" font-family="sans-serif" stroke-width="1px" dominant-baseline="hanging" stroke-linecap="round" stroke-linejoin="round" text-anchor="start" fill="hsl(49, 88%, 65%)" stroke="hsl(49, 88%, 65%)" font-size="12px" font-style="normal"><rect y="502" width="12" height="12" vector-effect="non-scaling-stroke" x="736"/><g stroke="black" fill="black"><text x="752" y="502" dominant-baseline="hanging" stroke="none" vector-effect="non-scaling-stroke">Rust</text><g text-anchor="start" font-style="normal" dominant-baseline="hanging" stroke-linecap="round" font-family="sans-serif" stroke-width="2px" stroke-linejoin="round" fill="none" font-weight="normal" font-size="12px"><rect y="80" width="640" height="440" vector-effect="non-scaling-stroke" x="80"/></g><g font-weight="normal" text-anchor="start" stroke-linejoin="round" font-family="sans-serif" dominant-baseline="hanging" stroke-width="2px" fill="none" stroke="black" font-size="12px" font-style="normal" transform="translate(80 520 )scale(1 -1 )" stroke-linecap="round"><path vector-effect="non-scaling-stroke" d="M64,0 L64,-6 M8.533333e+01,0 L8.533333e+01,-6 M1.066667e+02,0 L1.066667e+02,-6 M128,0 L128,-6 M1.493333e+02,0 L1.493333e+02,-6 M1.706667e+02,0 L1.706667e+02,-6 M192,0 L192,-6 M2.133333e+02,0 L2.133333e+02,-6 M2.346667e+02,0 L2.346667e+02,-6 M256,0 L256,-6 M2.773333e+02,0 L2.773333e+02,-6 M2.986667e+02,0 L2.986667e+02,-6 M320,0 L320,-6 M3.413333e+02,0 L3.413333e+02,-6 "/></g><g fill="black" font-weight="normal" transform="translate(80 520 )scale(1 1 )" stroke-linecap="round" stroke-linejoin="round" font-family="sans-serif" stroke="black" text-anchor="middle" dominant-baseline="hanging" stroke-width="2px" font-size="12px" font-style="normal"><text dominant-baseline="hanging" stroke="none" vector-effect="non-scaling-stroke" x="64" y="10">1</text><text dominant-baseline="hanging" stroke="none" vector-effect="non-scaling-stroke" x="8.533333e+01" y="10">2</text><text y="10" dominant-baseline="hanging" stroke="none" vector-effect="non-scaling-stroke" x="1.066667e+02">3</text><text stroke="none" vector-effect="non-scaling-stroke" x="128" y="10" dominant-baseline="hanging">4</text><text stroke="none" vector-effect="non-scaling-stroke" x="1.493333e+02" y="10" dominant-baseline="hanging">5</text><text vector-effect="non-scaling-stroke" x="1.706667e+02" y="10" dominant-baseline="hanging" stroke="none">6</text><text y="10" dominant-baseline="hanging" stroke="none" vector-effect="non-scaling-stroke" x="192">7</text><text stroke="none" vector-effect="non-scaling-stroke" x="2.133333e+02" y="10" dominant-baseline="hanging">8</text><text stroke="none" vector-effect="non-scaling-stroke" x="2.346667e+02" y="10" dominant-baseline="hanging">9</text><text vector-effect="non-scaling-stroke" x="256" y="10" dominant-baseline="hanging" stroke="none">10</text><text stroke="none" vector-effect="non-scaling-stroke" x="2.773333e+02" y="10" dominant-baseline="hanging">11</text><text x="2.986667e+02" y="10" dominant-baseline="hanging" stroke="none" vector-effect="non-scaling-stroke">12</text><text y="10" dominant-baseline="hanging" stroke="none" vector-effect="non-scaling-stroke" x="320">13</text><text dominant-baseline="hanging" stroke="none" vector-effect="non-scaling-stroke" x="3.413333e+02" y="10">14</text></g><g fill="black" font-family="sans-serif" font-style="normal" stroke-width="2px" stroke-linecap="round" stroke-linejoin="round" font-size="12px" dominant-baseline="baseline" stroke="black" font-weight="bold" text-anchor="middle" transform="translate(80 520 )scale(1 1 )rotate(0 0 0 )"><text dominant-baseline="baseline" stroke="none" vector-effect="non-scaling-stroke" x="320" y="-6">Day</text></g><g stroke-width="2px" stroke-linecap="round" fill="black" stroke="black" font-weight="bold" text-anchor="middle" dominant-baseline="baseline" transform="translate(80 520 )scale(1 -1 )" font-size="12px" font-style="normal" stroke-linejoin="round" font-family="sans-serif"><path vector-effect="non-scaling-stroke" d="M0,44 L-6,44 M0,9.307912e+01 L-6,9.307912e+01 M0,1.421582e+02 L-6,1.421582e+02 M0,1.912374e+02 L-6,1.912374e+02 M0,2.403165e+02 L-6,2.403165e+02 M0,2.893956e+02 L-6,2.893956e+02 M0,3.384747e+02 L-6,3.384747e+02 M0,3.875538e+02 L-6,3.875538e+02 "/></g><g stroke-linejoin="round" font-family="sans-serif" dominant-baseline="middle" font-weight="normal" fill="black" font-size="12px" font-style="normal" transform="translate(80 520 )scale(1 1 )" stroke-width="2px" stroke-linecap="round" text-anchor="end" stroke="black"><text stroke="none" vector-effect="non-scaling-stroke" x="-10" y="-44" dominant-baseline="middle">0s</text><text x="-10" y="-9.307912e+01" dominant-baseline="middle" stroke="none" vector-effect="non-scaling-stroke">10ms</text><text x="-10" y="-1.421582e+02" dominant-baseline="middle" stroke="none" vector-effect="non-scaling-stroke">20ms</text><text y="-1.912374e+02" dominant-baseline="middle" stroke="none" vector-effect="non-scaling-stroke" x="-10">30ms</text><text vector-effect="non-scaling-stroke" x="-10" y="-2.403165e+02" dominant-baseline="middle" stroke="none">40ms</text><text stroke="none" vector-effect="non-scaling-stroke" x="-10" y="-2.893956e+02" dominant-baseline="middle">50ms</text><text y="-3.384747e+02" dominant-baseline="middle" stroke="none" vector-effect="non-scaling-stroke" x="-10">60ms</text><text x="-10" y="-3.875538e+02" dominant-baseline="middle" stroke="none" vector-effect="non-scaling-stroke">70ms</text></g><g fill="black" stroke="black" transform="translate(80 520 )scale(1 1 )rotate(-90 0 0 )" stroke-width="2px" stroke-linecap="round" stroke-linejoin="round" font-size="12px" font-style="normal" font-weight="bold" text-anchor="middle" font-family="sans-serif" dominant-baseline="hanging"><text vector-effect="non-scaling-stroke" x="220" y="6" dominant-baseline="hanging" stroke="none">Runtime</text></g></g></g></g></svg>