<svg height="600" viewbox="0 0 800 600" preserveAspectRatio="xMidYMid meet" xmlns="http://www.w3.org/2000/svg" width="800"><defs><marker markerUnits="userSpaceOnUse" markerWidth="2%" markerHeight="2%" id="circle" viewBox="0 0 10 10 " refX="5" refY="5"><circle cy="5" r="3" fill="none" stroke="black" cx="5"/></marker><marker id="filled-circle" viewBox="0 0 10 10 " refX="5" refY="5" markerUnits="userSpaceOnUse" markerWidth="2%" markerHeight="2%"><circle stroke="none" cx="5" cy="5" r="3" fill="black"/></marker><marker markerWidth="2%" markerHeight="2%" id="square" viewBox="0 0 10 10 " refX="5" refY="5" markerUnits="userSpaceOnUse"><rect height="6" fill="none" stroke="black" x="2" y="2" width="6"/></marker><marker markerHeight="2%" id="filled-square" viewBox="0 0 10 10 " refX="5" refY="5" markerUnits="userSpaceOnUse" markerWidth="2%"><rect y="2" width="6" height="6" fill="black" stroke="none" x="2"/></marker></defs><g stroke-width="1px" stroke-linecap="round" stroke-linejoin="round" transform="translate(80 520 )scale(1 -1 )" fill="hsl(198, 47%, 65%)" stroke="hsl(198, 47%, 65%)"><rect width="4.266667e+00" height="4.408256e+01" vector-effect="non-scaling-stroke" x="5.546667e+01" y="0"/><rect x="7.680000e+01" y="0" width="4.266667e+00" height="4.415475e+01" vector-effect="non-scaling-stroke"/><rect width="4.266667e+00" height="4.411218e+01" vector-effect="non-scaling-stroke" x="9.813333e+01" y="0"/><rect vector-effect="non-scaling-stroke" x="1.194667e+02" y="0" width="4.266667e+00" height="4.426854e+01"/><rect y="0" width="4.266667e+00" height="4.426180e+01" vector-effect="non-scaling-stroke" x="1.408000e+02"/><rect x="1.621333e+02" y="0" width="4.266667e+00" height="4.464271e+01" vector-effect="non-scaling-stroke"/><rect vector-effect="non-scaling-stroke" x="1.834667e+02" y="0" width="4.266667e+00" height="4.428456e+01"/><rect vector-effect="non-scaling-stroke" x="2.048000e+02" y="0" width="4.266667e+00" height="4.420306e+01"/><rect x="2.261333e+02" y="0" width="4.266667e+00" height="4.406832e+01" vector-effect="non-scaling-stroke"/><rect height="4.400416e+01" vector-effect="non-scaling-stroke" x="2.474667e+02" y="0" width="4.266667e+00"/><rect x="2.688000e+02" y="0" width="4.266667e+00" height="5.999259e+01" vector-effect="non-scaling-stroke"/><rect height="4.402345e+01" vector-effect="non-scaling-stroke" x="2.901333e+02" y="0" width="4.266667e+00"/><rect vector-effect="non-scaling-stroke" x="3.114667e+02" y="0" width="4.266667e+00" height="4.402857e+01"/><rect vector-effect="non-scaling-stroke" x="3.328000e+02" y="0" width="4.266667e+00" height="4.513911e+01"/><rect vector-effect="non-scaling-stroke" x="3.541333e+02" y="0" width="4.266667e+00" height="1.726224e+02"/><rect x="3.754667e+02" y="0" width="4.266667e+00" height="4.423295e+01" vector-effect="non-scaling-stroke"/><rect vector-effect="non-scaling-stroke" x="3.968000e+02" y="0" width="4.266667e+00" height="9.646746e+01"/><rect vector-effect="non-scaling-stroke" x="4.181333e+02" y="0" width="4.266667e+00" height="4.422347e+01"/><rect width="4.266667e+00" height="4.548853e+01" vector-effect="non-scaling-stroke" x="4.394667e+02" y="0"/><rect vector-effect="non-scaling-stroke" x="4.608000e+02" y="0" width="4.266667e+00" height="4.639883e+01"/><rect height="4.432615e+01" vector-effect="non-scaling-stroke" x="4.821333e+02" y="0" width="4.266667e+00"/><rect height="8.594844e+01" vector-effect="non-scaling-stroke" x="5.034667e+02" y="0" width="4.266667e+00"/><rect width="4.266667e+00" height="3.103649e+02" vector-effect="non-scaling-stroke" x="5.248000e+02" y="0"/><rect vector-effect="non-scaling-stroke" x="5.461333e+02" y="0" width="4.266667e+00" height="2.241284e+03"/><rect vector-effect="non-scaling-stroke" x="5.674667e+02" y="0" width="4.266667e+00" height="5.247088e+01"/></g><g stroke-width="1px" stroke-linecap="round" stroke-linejoin="round" transform="translate(80 520 )scale(1 -1 )" fill="hsl(49, 88%, 65%)" stroke="hsl(49, 88%, 65%)"><rect y="0" width="4.266667e+00" height="4.986680e+01" vector-effect="non-scaling-stroke" x="5.973333e+01"/><rect y="0" width="4.266667e+00" height="4.422315e+01" vector-effect="non-scaling-stroke" x="8.106667e+01"/><rect height="4.401116e+01" vector-effect="non-scaling-stroke" x="1.024000e+02" y="0" width="4.266667e+00"/><rect vector-effect="non-scaling-stroke" x="1.237333e+02" y="0" width="4.266667e+00" height="4.414493e+01"/><rect width="4.266667e+00" height="4.402714e+01" vector-effect="non-scaling-stroke" x="1.450667e+02" y="0"/><rect height="4.446124e+01" vector-effect="non-scaling-stroke" x="1.664000e+02" y="0" width="4.266667e+00"/><rect vector-effect="non-scaling-stroke" x="1.877333e+02" y="0" width="4.266667e+00" height="4.452885e+01"/><rect x="2.090667e+02" y="0" width="4.266667e+00" height="4.466480e+01" vector-effect="non-scaling-stroke"/><rect y="0" width="4.266667e+00" height="4.674578e+01" vector-effect="non-scaling-stroke" x="2.304000e+02"/><rect width="4.266667e+00" height="4.402194e+01" vector-effect="non-scaling-stroke" x="2.517333e+02" y="0"/><rect width="4.266667e+00" height="6.129470e+01" vector-effect="non-scaling-stroke" x="2.730667e+02" y="0"/><rect x="2.944000e+02" y="0" width="4.266667e+00" height="4.404288e+01" vector-effect="non-scaling-stroke"/><rect width="4.266667e+00" height="4.400270e+01" vector-effect="non-scaling-stroke" x="3.157333e+02" y="0"/><rect height="4.787746e+01" vector-effect="non-scaling-stroke" x="3.370667e+02" y="0" width="4.266667e+00"/><rect x="3.584000e+02" y="0" width="4.266667e+00" height="2.638474e+02" vector-effect="non-scaling-stroke"/><rect height="4.463387e+01" vector-effect="non-scaling-stroke" x="3.797333e+02" y="0" width="4.266667e+00"/><rect height="2.603162e+02" vector-effect="non-scaling-stroke" x="4.010667e+02" y="0" width="4.266667e+00"/><rect vector-effect="non-scaling-stroke" x="4.224000e+02" y="0" width="4.266667e+00" height="4.890153e+01"/><rect height="4.987763e+01" vector-effect="non-scaling-stroke" x="4.437333e+02" y="0" width="4.266667e+00"/><rect vector-effect="non-scaling-stroke" x="4.650667e+02" y="0" width="4.266667e+00" height="4.727447e+01"/><rect x="4.864000e+02" y="0" width="4.266667e+00" height="4.485239e+01" vector-effect="non-scaling-stroke"/><rect vector-effect="non-scaling-stroke" x="5.077333e+02" y="0" width="4.266667e+00" height="6.949666e+01"/><rect x="5.290667e+02" y="0" width="4.266667e+00" height="2.903638e+02" vector-effect="non-scaling-stroke"/><rect vector-effect="non-scaling-stroke" x="5.504000e+02" y="0" width="4.266667e+00" height="8.695136e+01"/><rect height="5.211244e+01" vector-effect="non-scaling-stroke" x="5.717333e+02" y="0" width="4.266667e+00"/></g><g stroke-linejoin="round" transform="translate(80 520 )scale(1 -1 )" fill="hsl(260, 76%, 65%)" stroke="hsl(260, 76%, 65%)" stroke-width="1px" stroke-linecap="round"><rect x="6.400000e+01" y="0" width="4.266667e+00" height="4.409192e+01" vector-effect="non-scaling-stroke"/><rect width="4.266667e+00" height="4.412853e+01" vector-effect="non-scaling-stroke" x="8.533333e+01" y="0"/><rect vector-effect="non-scaling-stroke" x="1.066667e+02" y="0" width="4.266667e+00" height="4.402147e+01"/><rect width="4.266667e+00" height="4.677229e+01" vector-effect="non-scaling-stroke" x="1.280000e+02" y="0"/><rect width="4.266667e+00" height="4.405557e+01" vector-effect="non-scaling-stroke" x="1.493333e+02" y="0"/><rect y="0" width="4.266667e+00" height="4.430997e+01" vector-effect="non-scaling-stroke" x="1.706667e+02"/><rect x="192" y="0" width="4.266667e+00" height="4.443288e+01" vector-effect="non-scaling-stroke"/><rect vector-effect="non-scaling-stroke" x="2.133333e+02" y="0" width="4.266667e+00" height="4.420974e+01"/><rect vector-effect="non-scaling-stroke" x="2.346667e+02" y="0" width="4.266667e+00" height="4.428012e+01"/><rect y="0" width="4.266667e+00" height="4.400500e+01" vector-effect="non-scaling-stroke" x="256"/><rect y="0" width="4.266667e+00" height="5.042518e+01" vector-effect="non-scaling-stroke" x="2.773333e+02"/><rect width="4.266667e+00" height="4.401989e+01" vector-effect="non-scaling-stroke" x="2.986667e+02" y="0"/><rect vector-effect="non-scaling-stroke" x="320" y="0" width="4.266667e+00" height="4.400438e+01"/><rect y="0" width="4.266667e+00" height="4.612829e+01" vector-effect="non-scaling-stroke" x="3.413333e+02"/><rect y="0" width="4.266667e+00" height="1.912625e+02" vector-effect="non-scaling-stroke" x="3.626667e+02"/><rect x="384" y="0" width="4.266667e+00" height="4.427698e+01" vector-effect="non-scaling-stroke"/><rect width="4.266667e+00" height="6.392483e+01" vector-effect="non-scaling-stroke" x="4.053333e+02" y="0"/><rect y="0" width="4.266667e+00" height="4.421189e+01" vector-effect="non-scaling-stroke" x="4.266667e+02"/><rect width="4.266667e+00" height="8.137639e+01" vector-effect="non-scaling-stroke" x="448" y="0"/><rect vector-effect="non-scaling-stroke" x="4.693333e+02" y="0" width="4.266667e+00" height="4.495803e+01"/><rect y="0" width="4.266667e+00" height="4.440513e+01" vector-effect="non-scaling-stroke" x="4.906667e+02"/><rect width="4.266667e+00" height="1.009267e+02" vector-effect="non-scaling-stroke" x="512" y="0"/><rect y="0" width="4.266667e+00" height="2.374575e+02" vector-effect="non-scaling-stroke" x="5.333333e+02"/><rect x="5.546667e+02" y="0" width="4.266667e+00" height="7.586216e+01" vector-effect="non-scaling-stroke"/><rect x="576" y="0" width="4.266667e+00" height="5.256654e+01" vector-effect="non-scaling-stroke"/></g><g transform="translate(80 520 )scale(1 -1 )" fill="hsl(111, 64%, 65%)" stroke="hsl(111, 64%, 65%)" stroke-width="1px" stroke-linecap="round" stroke-linejoin="round"><rect vector-effect="non-scaling-stroke" x="6.826667e+01" y="0" width="4.266667e+00" height="4.409611e+01"/><rect x="8.960000e+01" y="0" width="4.266667e+00" height="4.402840e+01" vector-effect="non-scaling-stroke"/><rect height="4.400514e+01" vector-effect="non-scaling-stroke" x="1.109333e+02" y="0" width="4.266667e+00"/><rect height="4.441601e+01" vector-effect="non-scaling-stroke" x="1.322667e+02" y="0" width="4.266667e+00"/><rect y="0" width="4.266667e+00" height="4.404058e+01" vector-effect="non-scaling-stroke" x="1.536000e+02"/><rect width="4.266667e+00" height="4.599666e+01" vector-effect="non-scaling-stroke" x="1.749333e+02" y="0"/><rect vector-effect="non-scaling-stroke" x="1.962667e+02" y="0" width="4.266667e+00" height="4.416558e+01"/><rect height="4.503370e+01" vector-effect="non-scaling-stroke" x="2.176000e+02" y="0" width="4.266667e+00"/><rect vector-effect="non-scaling-stroke" x="2.389333e+02" y="0" width="4.266667e+00" height="4.405795e+01"/><rect y="0" width="4.266667e+00" height="4.400819e+01" vector-effect="non-scaling-stroke" x="2.602667e+02"/><rect height="5.107946e+01" vector-effect="non-scaling-stroke" x="2.816000e+02" y="0" width="4.266667e+00"/><rect x="3.029333e+02" y="0" width="4.266667e+00" height="4.436497e+01" vector-effect="non-scaling-stroke"/><rect height="4.400284e+01" vector-effect="non-scaling-stroke" x="3.242667e+02" y="0" width="4.266667e+00"/><rect width="4.266667e+00" height="4.544519e+01" vector-effect="non-scaling-stroke" x="3.456000e+02" y="0"/><rect vector-effect="non-scaling-stroke" x="3.669333e+02" y="0" width="4.266667e+00" height="1.856128e+02"/><rect vector-effect="non-scaling-stroke" x="3.882667e+02" y="0" width="4.266667e+00" height="4.427930e+01"/><rect width="4.266667e+00" height="4.610164e+01" vector-effect="non-scaling-stroke" x="4.096000e+02" y="0"/><rect vector-effect="non-scaling-stroke" x="4.309333e+02" y="0" width="4.266667e+00" height="4.586401e+01"/><rect height="4.714661e+01" vector-effect="non-scaling-stroke" x="4.522667e+02" y="0" width="4.266667e+00"/><rect vector-effect="non-scaling-stroke" x="4.736000e+02" y="0" width="4.266667e+00" height="4.633540e+01"/><rect width="4.266667e+00" height="4.465016e+01" vector-effect="non-scaling-stroke" x="4.949333e+02" y="0"/><rect vector-effect="non-scaling-stroke" x="5.162667e+02" y="0" width="4.266667e+00" height="6.999925e+01"/><rect x="5.376000e+02" y="0" width="4.266667e+00" height="1.176397e+03" vector-effect="non-scaling-stroke"/><rect x="5.589333e+02" y="0" width="4.266667e+00" height="6.279416e+01" vector-effect="non-scaling-stroke"/><rect x="5.802667e+02" y="0" width="4.266667e+00" height="5.132691e+01" vector-effect="non-scaling-stroke"/></g><g text-anchor="start" stroke="hsl(198, 47%, 65%)" stroke-linejoin="round" dominant-baseline="hanging" stroke-width="1px" stroke-linecap="round" font-weight="normal" fill="hsl(198, 47%, 65%)" font-family="sans-serif" font-style="normal" font-size="12px"><rect y="448" width="12" height="12" vector-effect="non-scaling-stroke" x="736"/><g fill="black" stroke="black"><text dominant-baseline="hanging" stroke="none" vector-effect="non-scaling-stroke" x="752" y="448">Crystal</text></g><g font-family="sans-serif" font-weight="normal" dominant-baseline="hanging" fill="hsl(49, 88%, 65%)" stroke="hsl(49, 88%, 65%)" stroke-linecap="round" font-style="normal" text-anchor="start" stroke-width="1px" font-size="12px" stroke-linejoin="round"><rect x="736" y="466" width="12" height="12" vector-effect="non-scaling-stroke"/><g stroke="black" fill="black"><text dominant-baseline="hanging" stroke="none" vector-effect="non-scaling-stroke" x="752" y="466">Golang</text></g><g stroke="hsl(260, 76%, 65%)" font-size="12px" font-weight="normal" fill="hsl(260, 76%, 65%)" stroke-width="1px" stroke-linejoin="round" text-anchor="start" dominant-baseline="hanging" stroke-linecap="round" font-family="sans-serif" font-style="normal"><rect height="12" vector-effect="non-scaling-stroke" x="736" y="484" width="12"/><g fill="black" stroke="black"><text vector-effect="non-scaling-stroke" x="752" y="484" dominant-baseline="hanging" stroke="none">Nim</text></g><g text-anchor="start" dominant-baseline="hanging" stroke-width="1px" stroke="hsl(111, 64%, 65%)" stroke-linejoin="round" font-size="12px" font-weight="normal" fill="hsl(111, 64%, 65%)" stroke-linecap="round" font-family="sans-serif" font-style="normal"><rect vector-effect="non-scaling-stroke" x="736" y="502" width="12" height="12"/><g stroke="black" fill="black"><text y="502" dominant-baseline="hanging" stroke="none" vector-effect="non-scaling-stroke" x="752">Zig</text><g stroke-width="2px" font-size="12px" font-weight="normal" dominant-baseline="hanging" font-family="sans-serif" stroke-linecap="round" fill="none" text-anchor="start" font-style="normal" stroke-linejoin="round"><rect y="80" width="640" height="440" vector-effect="non-scaling-stroke" x="80"/></g><g fill="none" stroke-width="2px" stroke-linecap="round" font-style="normal" dominant-baseline="hanging" stroke="black" font-size="12px" font-weight="normal" text-anchor="start" transform="translate(80 520 )scale(1 -1 )" stroke-linejoin="round" font-family="sans-serif"><path d="M64,0 L64,-6 M8.533333e+01,0 L8.533333e+01,-6 M1.066667e+02,0 L1.066667e+02,-6 M128,0 L128,-6 M1.493333e+02,0 L1.493333e+02,-6 M1.706667e+02,0 L1.706667e+02,-6 M192,0 L192,-6 M2.133333e+02,0 L2.133333e+02,-6 M2.346667e+02,0 L2.346667e+02,-6 M256,0 L256,-6 M2.773333e+02,0 L2.773333e+02,-6 M2.986667e+02,0 L2.986667e+02,-6 M320,0 L320,-6 M3.413333e+02,0 L3.413333e+02,-6 M3.626667e+02,0 L3.626667e+02,-6 M384,0 L384,-6 M4.053333e+02,0 L4.053333e+02,-6 M4.266667e+02,0 L4.266667e+02,-6 M448,0 L448,-6 M4.693333e+02,0 L4.693333e+02,-6 M4.906667e+02,0 L4.906667e+02,-6 M512,0 L512,-6 M5.333333e+02,0 L5.333333e+02,-6 M5.546667e+02,0 L5.546667e+02,-6 M576,0 L576,-6 " vector-effect="non-scaling-stroke"/></g><g stroke="black" stroke-linejoin="round" font-weight="normal" text-anchor="middle" stroke-linecap="round" font-family="sans-serif" transform="translate(80 520 )scale(1 1 )" font-size="12px" font-style="normal" dominant-baseline="hanging" fill="black" stroke-width="2px"><text y="10" dominant-baseline="hanging" stroke="none" vector-effect="non-scaling-stroke" x="64">1</text><text x="8.533333e+01" y="10" dominant-baseline="hanging" stroke="none" vector-effect="non-scaling-stroke">2</text><text dominant-baseline="hanging" stroke="none" vector-effect="non-scaling-stroke" x="1.066667e+02" y="10">3</text><text stroke="none" vector-effect="non-scaling-stroke" x="128" y="10" dominant-baseline="hanging">4</text><text x="1.493333e+02" y="10" dominant-baseline="hanging" stroke="none" vector-effect="non-scaling-stroke">5</text><text stroke="none" vector-effect="non-scaling-stroke" x="1.706667e+02" y="10" dominant-baseline="hanging">6</text><text stroke="none" vector-effect="non-scaling-stroke" x="192" y="10" dominant-baseline="hanging">7</text><text dominant-baseline="hanging" stroke="none" vector-effect="non-scaling-stroke" x="2.133333e+02" y="10">8</text><text dominant-baseline="hanging" stroke="none" vector-effect="non-scaling-stroke" x="2.346667e+02" y="10">9</text><text x="256" y="10" dominant-baseline="hanging" stroke="none" vector-effect="non-scaling-stroke">10</text><text stroke="none" vector-effect="non-scaling-stroke" x="2.773333e+02" y="10" dominant-baseline="hanging">11</text><text y="10" dominant-baseline="hanging" stroke="none" vector-effect="non-scaling-stroke" x="2.986667e+02">12</text><text y="10" dominant-baseline="hanging" stroke="none" vector-effect="non-scaling-stroke" x="320">13</text><text vector-effect="non-scaling-stroke" x="3.413333e+02" y="10" dominant-baseline="hanging" stroke="none">14</text><text x="3.626667e+02" y="10" dominant-baseline="hanging" stroke="none" vector-effect="non-scaling-stroke">15</text><text stroke="none" vector-effect="non-scaling-stroke" x="384" y="10" dominant-baseline="hanging">16</text><text stroke="none" vector-effect="non-scaling-stroke" x="4.053333e+02" y="10" dominant-baseline="hanging">17</text><text x="4.266667e+02" y="10" dominant-baseline="hanging" stroke="none" vector-effect="non-scaling-stroke">18</text><text dominant-baseline="hanging" stroke="none" vector-effect="non-scaling-stroke" x="448" y="10">19</text><text vector-effect="non-scaling-stroke" x="4.693333e+02" y="10" dominant-baseline="hanging" stroke="none">20</text><text x="4.906667e+02" y="10" dominant-baseline="hanging" stroke="none" vector-effect="non-scaling-stroke">21</text><text y="10" dominant-baseline="hanging" stroke="none" vector-effect="non-scaling-stroke" x="512">22</text><text y="10" dominant-baseline="hanging" stroke="none" vector-effect="non-scaling-stroke" x="5.333333e+02">23</text><text x="5.546667e+02" y="10" dominant-baseline="hanging" stroke="none" vector-effect="non-scaling-stroke">24</text><text y="10" dominant-baseline="hanging" stroke="none" vector-effect="non-scaling-stroke" x="576">25</text></g><g font-style="normal" text-anchor="middle" fill="black" stroke-linecap="round" font-family="sans-serif" stroke="black" stroke-linejoin="round" font-size="12px" font-weight="bold" dominant-baseline="baseline" stroke-width="2px" transform="translate(80 520 )scale(1 1 )rotate(0 0 0 )"><text dominant-baseline="baseline" stroke="none" vector-effect="non-scaling-stroke" x="320" y="-6">Day</text></g><g stroke-linecap="round" font-style="normal" fill="black" stroke-width="2px" font-family="sans-serif" font-weight="bold" text-anchor="middle" dominant-baseline="baseline" transform="translate(80 520 )scale(1 -1 )" stroke="black" stroke-linejoin="round" font-size="12px"><path vector-effect="non-scaling-stroke" d="M0,44 L-6,44 M0,7.920000e+01 L-6,7.920000e+01 M0,1.144000e+02 L-6,1.144000e+02 M0,1.496000e+02 L-6,1.496000e+02 M0,1.848000e+02 L-6,1.848000e+02 M0,220 L-6,220 M0,2.552000e+02 L-6,2.552000e+02 M0,2.904000e+02 L-6,2.904000e+02 M0,3.256000e+02 L-6,3.256000e+02 M0,3.608000e+02 L-6,3.608000e+02 M0,396 L-6,396 "/></g><g stroke="black" stroke-linejoin="round" font-size="12px" text-anchor="end" fill="black" stroke-linecap="round" transform="translate(80 520 )scale(1 1 )" dominant-baseline="middle" stroke-width="2px" font-family="sans-serif" font-style="normal" font-weight="normal"><text dominant-baseline="middle" stroke="none" vector-effect="non-scaling-stroke" x="-10" y="-44">0s</text><text stroke="none" vector-effect="non-scaling-stroke" x="-10" y="-7.920000e+01" dominant-baseline="middle">200ms</text><text y="-1.144000e+02" dominant-baseline="middle" stroke="none" vector-effect="non-scaling-stroke" x="-10">400ms</text><text y="-1.496000e+02" dominant-baseline="middle" stroke="none" vector-effect="non-scaling-stroke" x="-10">600ms</text><text x="-10" y="-1.848000e+02" dominant-baseline="middle" stroke="none" vector-effect="non-scaling-stroke">800ms</text><text vector-effect="non-scaling-stroke" x="-10" y="-220" dominant-baseline="middle" stroke="none">1s</text><text dominant-baseline="middle" stroke="none" vector-effect="non-scaling-stroke" x="-10" y="-2.552000e+02">1.2s</text><text x="-10" y="-2.904000e+02" dominant-baseline="middle" stroke="none" vector-effect="non-scaling-stroke">1.4s</text><text dominant-baseline="middle" stroke="none" vector-effect="non-scaling-stroke" x="-10" y="-3.256000e+02">1.6s</text><text y="-3.608000e+02" dominant-baseline="middle" stroke="none" vector-effect="non-scaling-stroke" x="-10">1.8s</text><text dominant-baseline="middle" stroke="none" vector-effect="non-scaling-stroke" x="-10" y="-396">2s</text></g><g stroke="black" stroke-linejoin="round" font-weight="bold" font-style="normal" transform="translate(80 520 )scale(1 1 )rotate(-90 0 0 )" font-family="sans-serif" font-size="12px" text-anchor="middle" dominant-baseline="hanging" fill="black" stroke-width="2px" stroke-linecap="round"><text y="6" dominant-baseline="hanging" stroke="none" vector-effect="non-scaling-stroke" x="220">Runtime</text></g></g></g></g></g></g></svg>