<svg width="800" height="600" viewbox="0 0 800 600" preserveAspectRatio="xMidYMid meet" xmlns="http://www.w3.org/2000/svg"><defs><marker markerHeight="2%" id="circle" viewBox="0 0 10 10 " refX="5" refY="5" markerUnits="userSpaceOnUse" markerWidth="2%"><circle cx="5" cy="5" r="3" fill="none" stroke="black"/></marker><marker markerHeight="2%" id="filled-circle" viewBox="0 0 10 10 " refX="5" refY="5" markerUnits="userSpaceOnUse" markerWidth="2%"><circle stroke="none" cx="5" cy="5" r="3" fill="black"/></marker><marker id="square" viewBox="0 0 10 10 " refX="5" refY="5" markerUnits="userSpaceOnUse" markerWidth="2%" markerHeight="2%"><rect x="2" y="2" width="6" height="6" fill="none" stroke="black"/></marker><marker id="filled-square" viewBox="0 0 10 10 " refX="5" refY="5" markerUnits="userSpaceOnUse" markerWidth="2%" markerHeight="2%"><rect x="2" y="2" width="6" height="6" fill="black" stroke="none"/></marker></defs><g stroke-width="1px" stroke-linecap="round" stroke-linejoin="round" transform="translate(80 520 )scale(1 -1 )" fill="hsl(198, 47%, 65%)" stroke="hsl(198, 47%, 65%)"><rect width="1.833333e+01" height="396" vector-effect="non-scaling-stroke" x="3.650000e+01" y="0"/><rect vector-effect="non-scaling-stroke" x="5.783333e+01" y="0" width="1.833333e+01" height="5.515657e+01"/><rect y="0" width="1.833333e+01" height="9.394572e+01" vector-effect="non-scaling-stroke" x="7.916667e+01"/></g><g stroke="hsl(49, 88%, 65%)" stroke-width="1px" stroke-linecap="round" stroke-linejoin="round" transform="translate(80 520 )scale(1 -1 )" fill="hsl(49, 88%, 65%)"><rect width="1.833333e+01" height="2.199848e+02" vector-effect="non-scaling-stroke" x="5.483333e+01" y="0"/><rect height="4.854190e+01" vector-effect="non-scaling-stroke" x="7.616667e+01" y="0" width="1.833333e+01"/><rect y="0" width="1.833333e+01" height="9.159986e+01" vector-effect="non-scaling-stroke" x="9.750000e+01"/></g><g stroke-linecap="round" stroke-linejoin="round" transform="translate(80 520 )scale(1 -1 )" fill="hsl(260, 76%, 65%)" stroke="hsl(260, 76%, 65%)" stroke-width="1px"><rect vector-effect="non-scaling-stroke" x="7.316667e+01" y="0" width="1.833333e+01" height="1.845258e+02"/><rect width="1.833333e+01" height="4.890411e+01" vector-effect="non-scaling-stroke" x="9.450000e+01" y="0"/><rect width="1.833333e+01" height="8.128719e+01" vector-effect="non-scaling-stroke" x="1.158333e+02" y="0"/></g><g stroke-linejoin="round" font-weight="normal" stroke-linecap="round" font-style="normal" dominant-baseline="hanging" fill="hsl(198, 47%, 65%)" stroke="hsl(198, 47%, 65%)" font-family="sans-serif" text-anchor="start" stroke-width="1px" font-size="12px"><rect width="12" height="12" vector-effect="non-scaling-stroke" x="736" y="466"/><g fill="black" stroke="black"><text stroke="none" vector-effect="non-scaling-stroke" x="752" y="466" dominant-baseline="hanging">Golang</text></g><g stroke-width="1px" font-size="12px" font-style="normal" fill="hsl(49, 88%, 65%)" stroke="hsl(49, 88%, 65%)" text-anchor="start" stroke-linecap="round" dominant-baseline="hanging" stroke-linejoin="round" font-family="sans-serif" font-weight="normal"><rect vector-effect="non-scaling-stroke" x="736" y="484" width="12" height="12"/><g fill="black" stroke="black"><text vector-effect="non-scaling-stroke" x="752" y="484" dominant-baseline="hanging" stroke="none">Rust</text></g><g fill="hsl(260, 76%, 65%)" stroke-linejoin="round" font-size="12px" font-style="normal" dominant-baseline="hanging" stroke="hsl(260, 76%, 65%)" font-family="sans-serif" font-weight="normal" text-anchor="start" stroke-width="1px" stroke-linecap="round"><rect y="502" width="12" height="12" vector-effect="non-scaling-stroke" x="736"/><g fill="black" stroke="black"><text y="502" dominant-baseline="hanging" stroke="none" vector-effect="non-scaling-stroke" x="752">Zig</text><g font-weight="normal" stroke-width="2px" stroke-linecap="round" font-family="sans-serif" fill="none" font-style="normal" dominant-baseline="hanging" font-size="12px" text-anchor="start" stroke-linejoin="round"><rect x="80" y="80" width="640" height="440" vector-effect="non-scaling-stroke"/></g><g stroke-width="2px" font-size="12px" text-anchor="start" fill="none" stroke="black" stroke-linejoin="round" dominant-baseline="hanging" stroke-linecap="round" font-style="normal" font-weight="normal" transform="translate(80 520 )scale(1 -1 )" font-family="sans-serif"><path d="M64,0 L64,-6 M8.533333e+01,0 L8.533333e+01,-6 M1.066667e+02,0 L1.066667e+02,-6 " vector-effect="non-scaling-stroke"/></g><g stroke-linejoin="round" dominant-baseline="hanging" stroke-width="2px" stroke-linecap="round" font-style="normal" font-weight="normal" text-anchor="middle" transform="translate(80 520 )scale(1 1 )" font-family="sans-serif" font-size="12px" fill="black" stroke="black"><text stroke="none" vector-effect="non-scaling-stroke" x="64" y="10" dominant-baseline="hanging">1</text><text y="10" dominant-baseline="hanging" stroke="none" vector-effect="non-scaling-stroke" x="8.533333e+01">2</text><text stroke="none" vector-effect="non-scaling-stroke" x="1.066667e+02" y="10" dominant-baseline="hanging">3</text></g><g dominant-baseline="baseline" stroke-width="2px" stroke-linecap="round" font-weight="bold" text-anchor="middle" transform="translate(80 520 )scale(1 1 )rotate(0 0 0 )" stroke="black" stroke-linejoin="round" font-style="normal" font-size="12px" font-family="sans-serif" fill="black"><text stroke="none" vector-effect="non-scaling-stroke" x="320" y="-6" dominant-baseline="baseline">Day</text></g><g font-weight="bold" text-anchor="middle" transform="translate(80 520 )scale(1 -1 )" stroke="black" dominant-baseline="baseline" stroke-width="2px" font-family="sans-serif" fill="black" stroke-linejoin="round" font-style="normal" stroke-linecap="round" font-size="12px"><path d="M0,44 L-6,44 M0,8.192817e+01 L-6,8.192817e+01 M0,1.198563e+02 L-6,1.198563e+02 M0,1.577845e+02 L-6,1.577845e+02 M0,1.957127e+02 L-6,1.957127e+02 M0,2.336409e+02 L-6,2.336409e+02 M0,2.715690e+02 L-6,2.715690e+02 M0,3.094972e+02 L-6,3.094972e+02 M0,3.474254e+02 L-6,3.474254e+02 M0,3.853536e+02 L-6,3.853536e+02 " vector-effect="non-scaling-stroke"/></g><g stroke-linecap="round" font-size="12px" dominant-baseline="middle" fill="black" text-anchor="end" font-weight="normal" stroke-width="2px" font-style="normal" transform="translate(80 520 )scale(1 1 )" stroke="black" stroke-linejoin="round" font-family="sans-serif"><text stroke="none" vector-effect="non-scaling-stroke" x="-10" y="-44" dominant-baseline="middle">0s</text><text dominant-baseline="middle" stroke="none" vector-effect="non-scaling-stroke" x="-10" y="-8.192817e+01">20µs</text><text dominant-baseline="middle" stroke="none" vector-effect="non-scaling-stroke" x="-10" y="-1.198563e+02">40µs</text><text y="-1.577845e+02" dominant-baseline="middle" stroke="none" vector-effect="non-scaling-stroke" x="-10">60µs</text><text y="-1.957127e+02" dominant-baseline="middle" stroke="none" vector-effect="non-scaling-stroke" x="-10">80µs</text><text stroke="none" vector-effect="non-scaling-stroke" x="-10" y="-2.336409e+02" dominant-baseline="middle">100µs</text><text y="-2.715690e+02" dominant-baseline="middle" stroke="none" vector-effect="non-scaling-stroke" x="-10">120µs</text><text stroke="none" vector-effect="non-scaling-stroke" x="-10" y="-3.094972e+02" dominant-baseline="middle">140µs</text><text stroke="none" vector-effect="non-scaling-stroke" x="-10" y="-3.474254e+02" dominant-baseline="middle">160µs</text><text vector-effect="non-scaling-stroke" x="-10" y="-3.853536e+02" dominant-baseline="middle" stroke="none">180µs</text></g><g stroke-linejoin="round" font-weight="bold" fill="black" font-size="12px" font-style="normal" stroke-width="2px" stroke="black" font-family="sans-serif" text-anchor="middle" transform="translate(80 520 )scale(1 1 )rotate(-90 0 0 )" stroke-linecap="round" dominant-baseline="hanging"><text x="220" y="6" dominant-baseline="hanging" stroke="none" vector-effect="non-scaling-stroke">Runtime</text></g></g></g></g></g></svg>