<svg xmlns="http://www.w3.org/2000/svg" width="800" height="600" viewbox="0 0 800 600" preserveAspectRatio="xMidYMid meet"><defs><marker markerHeight="2%" id="circle" viewBox="0 0 10 10 " refX="5" refY="5" markerUnits="userSpaceOnUse" markerWidth="2%"><circle cx="5" cy="5" r="3" fill="none" stroke="black"/></marker><marker id="filled-circle" viewBox="0 0 10 10 " refX="5" refY="5" markerUnits="userSpaceOnUse" markerWidth="2%" markerHeight="2%"><circle cy="5" r="3" fill="black" stroke="none" cx="5"/></marker><marker viewBox="0 0 10 10 " refX="5" refY="5" markerUnits="userSpaceOnUse" markerWidth="2%" markerHeight="2%" id="square"><rect x="2" y="2" width="6" height="6" fill="none" stroke="black"/></marker><marker refY="5" markerUnits="userSpaceOnUse" markerWidth="2%" markerHeight="2%" id="filled-square" viewBox="0 0 10 10 " refX="5"><rect fill="black" stroke="none" x="2" y="2" width="6" height="6"/></marker></defs><g fill="hsl(198, 47%, 65%)" stroke="hsl(198, 47%, 65%)" stroke-width="1px" stroke-linecap="round" stroke-linejoin="round" transform="translate(80 520 )scale(1 -1 )"><rect height="1.628635e+02" vector-effect="non-scaling-stroke" x="3.650000e+01" y="0" width="2.750000e+01"/><rect vector-effect="non-scaling-stroke" x="5.783333e+01" y="0" width="2.750000e+01" height="7.591357e+01"/><rect y="0" width="2.750000e+01" height="396" vector-effect="non-scaling-stroke" x="7.916667e+01"/><rect y="0" width="2.750000e+01" height="1.870364e+02" vector-effect="non-scaling-stroke" x="1.005000e+02"/><rect y="0" width="2.750000e+01" height="1.327166e+02" vector-effect="non-scaling-stroke" x="1.218333e+02"/><rect height="2.748590e+02" vector-effect="non-scaling-stroke" x="1.431667e+02" y="0" width="2.750000e+01"/><rect height="2.188222e+02" vector-effect="non-scaling-stroke" x="1.645000e+02" y="0" width="2.750000e+01"/></g><g transform="translate(80 520 )scale(1 -1 )" fill="hsl(49, 88%, 65%)" stroke="hsl(49, 88%, 65%)" stroke-width="1px" stroke-linecap="round" stroke-linejoin="round"><rect vector-effect="non-scaling-stroke" x="64" y="0" width="2.750000e+01" height="9.697880e+01"/><rect vector-effect="non-scaling-stroke" x="8.533333e+01" y="0" width="2.750000e+01" height="5.173361e+01"/><rect y="0" width="2.750000e+01" height="3.107884e+02" vector-effect="non-scaling-stroke" x="1.066667e+02"/><rect vector-effect="non-scaling-stroke" x="128" y="0" width="2.750000e+01" height="1.253306e+02"/><rect vector-effect="non-scaling-stroke" x="1.493333e+02" y="0" width="2.750000e+01" height="9.720584e+01"/><rect height="1.703417e+02" vector-effect="non-scaling-stroke" x="1.706667e+02" y="0" width="2.750000e+01"/><rect vector-effect="non-scaling-stroke" x="192" y="0" width="2.750000e+01" height="2.090594e+02"/></g><g font-family="sans-serif" text-anchor="start" fill="hsl(198, 47%, 65%)" font-weight="normal" dominant-baseline="hanging" stroke-width="1px" stroke-linecap="round" stroke-linejoin="round" font-size="12px" font-style="normal" stroke="hsl(198, 47%, 65%)"><rect vector-effect="non-scaling-stroke" x="736" y="484" width="12" height="12"/><g stroke="black" fill="black"><text x="752" y="484" dominant-baseline="hanging" stroke="none" vector-effect="non-scaling-stroke">Golang</text></g><g font-family="sans-serif" font-size="12px" dominant-baseline="hanging" font-weight="normal" stroke-width="1px" stroke-linecap="round" stroke-linejoin="round" font-style="normal" text-anchor="start" fill="hsl(49, 88%, 65%)" stroke="hsl(49, 88%, 65%)"><rect y="502" width="12" height="12" vector-effect="non-scaling-stroke" x="736"/><g fill="black" stroke="black"><text x="752" y="502" dominant-baseline="hanging" stroke="none" vector-effect="non-scaling-stroke">Rust</text><g font-style="normal" stroke-linejoin="round" font-family="sans-serif" font-size="12px" text-anchor="start" stroke-linecap="round" stroke-width="2px" fill="none" font-weight="normal" dominant-baseline="hanging"><rect width="640" height="440" vector-effect="non-scaling-stroke" x="80" y="80"/></g><g transform="translate(80 520 )scale(1 -1 )" font-size="12px" font-style="normal" text-anchor="start" stroke-linecap="round" dominant-baseline="hanging" stroke-width="2px" stroke="black" stroke-linejoin="round" font-family="sans-serif" fill="none" font-weight="normal"><path vector-effect="non-scaling-stroke" d="M64,0 L64,-6 M8.533333e+01,0 L8.533333e+01,-6 M1.066667e+02,0 L1.066667e+02,-6 M128,0 L128,-6 M1.493333e+02,0 L1.493333e+02,-6 M1.706667e+02,0 L1.706667e+02,-6 M192,0 L192,-6 "/></g><g stroke-linejoin="round" font-family="sans-serif" font-size="12px" text-anchor="middle" fill="black" stroke-width="2px" stroke="black" font-style="normal" stroke-linecap="round" font-weight="normal" dominant-baseline="hanging" transform="translate(80 520 )scale(1 1 )"><text x="64" y="10" dominant-baseline="hanging" stroke="none" vector-effect="non-scaling-stroke">1</text><text vector-effect="non-scaling-stroke" x="8.533333e+01" y="10" dominant-baseline="hanging" stroke="none">2</text><text y="10" dominant-baseline="hanging" stroke="none" vector-effect="non-scaling-stroke" x="1.066667e+02">3</text><text dominant-baseline="hanging" stroke="none" vector-effect="non-scaling-stroke" x="128" y="10">4</text><text stroke="none" vector-effect="non-scaling-stroke" x="1.493333e+02" y="10" dominant-baseline="hanging">5</text><text stroke="none" vector-effect="non-scaling-stroke" x="1.706667e+02" y="10" dominant-baseline="hanging">6</text><text stroke="none" vector-effect="non-scaling-stroke" x="192" y="10" dominant-baseline="hanging">7</text></g><g transform="translate(80 520 )scale(1 1 )rotate(0 0 0 )" stroke="black" stroke-linejoin="round" font-family="sans-serif" font-style="normal" text-anchor="middle" dominant-baseline="baseline" font-size="12px" fill="black" stroke-linecap="round" font-weight="bold" stroke-width="2px"><text x="320" y="-6" dominant-baseline="baseline" stroke="none" vector-effect="non-scaling-stroke">Day</text></g><g transform="translate(80 520 )scale(1 -1 )" dominant-baseline="baseline" font-size="12px" font-style="normal" fill="black" stroke-linejoin="round" font-family="sans-serif" stroke-width="2px" stroke-linecap="round" font-weight="bold" text-anchor="middle" stroke="black"><path d="M0,44 L-6,44 M0,1.149506e+02 L-6,1.149506e+02 M0,1.859012e+02 L-6,1.859012e+02 M0,2.568517e+02 L-6,2.568517e+02 M0,3.278023e+02 L-6,3.278023e+02 " vector-effect="non-scaling-stroke"/></g><g stroke-width="2px" font-weight="normal" dominant-baseline="middle" font-size="12px" font-style="normal" text-anchor="end" fill="black" transform="translate(80 520 )scale(1 1 )" font-family="sans-serif" stroke="black" stroke-linejoin="round" stroke-linecap="round"><text y="-44" dominant-baseline="middle" stroke="none" vector-effect="non-scaling-stroke" x="-10">0s</text><text x="-10" y="-1.149506e+02" dominant-baseline="middle" stroke="none" vector-effect="non-scaling-stroke">10µs</text><text y="-1.859012e+02" dominant-baseline="middle" stroke="none" vector-effect="non-scaling-stroke" x="-10">20µs</text><text y="-2.568517e+02" dominant-baseline="middle" stroke="none" vector-effect="non-scaling-stroke" x="-10">30µs</text><text y="-3.278023e+02" dominant-baseline="middle" stroke="none" vector-effect="non-scaling-stroke" x="-10">40µs</text></g><g font-style="normal" fill="black" dominant-baseline="hanging" stroke-width="2px" stroke-linejoin="round" stroke="black" font-family="sans-serif" font-size="12px" text-anchor="middle" stroke-linecap="round" font-weight="bold" transform="translate(80 520 )scale(1 1 )rotate(-90 0 0 )"><text stroke="none" vector-effect="non-scaling-stroke" x="220" y="6" dominant-baseline="hanging">Runtime</text></g></g></g></g></svg>