<svg preserveAspectRatio="xMidYMid meet" xmlns="http://www.w3.org/2000/svg" width="800" height="600" viewbox="0 0 800 600"><defs><marker refY="5" markerUnits="userSpaceOnUse" markerWidth="2%" markerHeight="2%" id="circle" viewBox="0 0 10 10 " refX="5"><circle cx="5" cy="5" r="3" fill="none" stroke="black"/></marker><marker markerUnits="userSpaceOnUse" markerWidth="2%" markerHeight="2%" id="filled-circle" viewBox="0 0 10 10 " refX="5" refY="5"><circle cy="5" r="3" fill="black" stroke="none" cx="5"/></marker><marker id="square" viewBox="0 0 10 10 " refX="5" refY="5" markerUnits="userSpaceOnUse" markerWidth="2%" markerHeight="2%"><rect fill="none" stroke="black" x="2" y="2" width="6" height="6"/></marker><marker viewBox="0 0 10 10 " refX="5" refY="5" markerUnits="userSpaceOnUse" markerWidth="2%" markerHeight="2%" id="filled-square"><rect fill="black" stroke="none" x="2" y="2" width="6" height="6"/></marker></defs><g stroke-width="1px" stroke-linecap="round" stroke-linejoin="round" transform="translate(80 520 )scale(1 -1 )" fill="hsl(198, 47%, 65%)" stroke="hsl(198, 47%, 65%)"><rect vector-effect="non-scaling-stroke" x="3.650000e+01" y="0" width="2.750000e+01" height="2.832744e+02"/><rect x="5.783333e+01" y="0" width="2.750000e+01" height="2.559984e+02" vector-effect="non-scaling-stroke"/><rect vector-effect="non-scaling-stroke" x="7.916667e+01" y="0" width="2.750000e+01" height="396"/></g><g stroke-linecap="round" stroke-linejoin="round" transform="translate(80 520 )scale(1 -1 )" fill="hsl(49, 88%, 65%)" stroke="hsl(49, 88%, 65%)" stroke-width="1px"><rect width="2.750000e+01" height="2.587595e+02" vector-effect="non-scaling-stroke" x="64" y="0"/><rect width="2.750000e+01" height="2.274200e+02" vector-effect="non-scaling-stroke" x="8.533333e+01" y="0"/></g><g font-weight="normal" text-anchor="start" dominant-baseline="hanging" stroke="hsl(198, 47%, 65%)" stroke-width="1px" stroke-linejoin="round" font-style="normal" fill="hsl(198, 47%, 65%)" font-size="12px" stroke-linecap="round" font-family="sans-serif"><rect vector-effect="non-scaling-stroke" x="736" y="484" width="12" height="12"/><g fill="black" stroke="black"><text stroke="none" vector-effect="non-scaling-stroke" x="752" y="484" dominant-baseline="hanging">Golang</text></g><g stroke-linejoin="round" font-size="12px" dominant-baseline="hanging" font-family="sans-serif" font-style="normal" font-weight="normal" fill="hsl(49, 88%, 65%)" stroke-width="1px" text-anchor="start" stroke="hsl(49, 88%, 65%)" stroke-linecap="round"><rect width="12" height="12" vector-effect="non-scaling-stroke" x="736" y="502"/><g fill="black" stroke="black"><text stroke="none" vector-effect="non-scaling-stroke" x="752" y="502" dominant-baseline="hanging">Rust</text><g dominant-baseline="hanging" font-weight="normal" stroke-linejoin="round" font-size="12px" stroke-linecap="round" font-family="sans-serif" font-style="normal" text-anchor="start" stroke-width="2px" fill="none"><rect x="80" y="80" width="640" height="440" vector-effect="non-scaling-stroke"/></g><g font-size="12px" dominant-baseline="hanging" stroke="black" font-weight="normal" transform="translate(80 520 )scale(1 -1 )" stroke-linecap="round" font-family="sans-serif" font-style="normal" stroke-linejoin="round" fill="none" stroke-width="2px" text-anchor="start"><path vector-effect="non-scaling-stroke" d="M64,0 L64,-6 M8.533333e+01,0 L8.533333e+01,-6 M1.066667e+02,0 L1.066667e+02,-6 "/></g><g dominant-baseline="hanging" stroke-linecap="round" font-weight="normal" text-anchor="middle" transform="translate(80 520 )scale(1 1 )" fill="black" stroke="black" font-size="12px" font-style="normal" stroke-width="2px" stroke-linejoin="round" font-family="sans-serif"><text y="10" dominant-baseline="hanging" stroke="none" vector-effect="non-scaling-stroke" x="64">1</text><text dominant-baseline="hanging" stroke="none" vector-effect="non-scaling-stroke" x="8.533333e+01" y="10">2</text><text x="1.066667e+02" y="10" dominant-baseline="hanging" stroke="none" vector-effect="non-scaling-stroke">3</text></g><g stroke-linecap="round" font-size="12px" stroke="black" stroke-width="2px" font-weight="bold" text-anchor="middle" font-style="normal" stroke-linejoin="round" dominant-baseline="baseline" fill="black" transform="translate(80 520 )scale(1 1 )rotate(0 0 0 )" font-family="sans-serif"><text y="-6" dominant-baseline="baseline" stroke="none" vector-effect="non-scaling-stroke" x="320">Day</text></g><g text-anchor="middle" transform="translate(80 520 )scale(1 -1 )" stroke-width="2px" stroke-linejoin="round" dominant-baseline="baseline" font-family="sans-serif" font-style="normal" font-weight="bold" fill="black" stroke-linecap="round" stroke="black" font-size="12px"><path vector-effect="non-scaling-stroke" d="M0,2.224198e+02 L-6,2.224198e+02 M0,2.670248e+02 L-6,2.670248e+02 M0,3.116297e+02 L-6,3.116297e+02 M0,3.562347e+02 L-6,3.562347e+02 "/></g><g text-anchor="end" font-family="sans-serif" font-style="normal" fill="black" stroke-linejoin="round" transform="translate(80 520 )scale(1 1 )" stroke-linecap="round" font-weight="normal" font-size="12px" dominant-baseline="middle" stroke="black" stroke-width="2px"><text y="-2.224198e+02" dominant-baseline="middle" stroke="none" vector-effect="non-scaling-stroke" x="-10">40µs</text><text vector-effect="non-scaling-stroke" x="-10" y="-2.670248e+02" dominant-baseline="middle" stroke="none">50µs</text><text x="-10" y="-3.116297e+02" dominant-baseline="middle" stroke="none" vector-effect="non-scaling-stroke">60µs</text><text vector-effect="non-scaling-stroke" x="-10" y="-3.562347e+02" dominant-baseline="middle" stroke="none">70µs</text></g><g stroke-linecap="round" stroke-width="2px" stroke-linejoin="round" font-size="12px" dominant-baseline="hanging" font-style="normal" font-weight="bold" text-anchor="middle" fill="black" stroke="black" transform="translate(80 520 )scale(1 1 )rotate(-90 0 0 )" font-family="sans-serif"><text vector-effect="non-scaling-stroke" x="220" y="6" dominant-baseline="hanging" stroke="none">Runtime</text></g></g></g></g></svg>