<svg preserveAspectRatio="xMidYMid meet" xmlns="http://www.w3.org/2000/svg" width="800" height="600" viewbox="0 0 800 600"><defs><marker viewBox="0 0 10 10 " refX="5" refY="5" markerUnits="userSpaceOnUse" markerWidth="2%" markerHeight="2%" id="circle"><circle cx="5" cy="5" r="3" fill="none" stroke="black"/></marker><marker markerWidth="2%" markerHeight="2%" id="filled-circle" viewBox="0 0 10 10 " refX="5" refY="5" markerUnits="userSpaceOnUse"><circle cx="5" cy="5" r="3" fill="black" stroke="none"/></marker><marker markerHeight="2%" id="square" viewBox="0 0 10 10 " refX="5" refY="5" markerUnits="userSpaceOnUse" markerWidth="2%"><rect width="6" height="6" fill="none" stroke="black" x="2" y="2"/></marker><marker markerUnits="userSpaceOnUse" markerWidth="2%" markerHeight="2%" id="filled-square" viewBox="0 0 10 10 " refX="5" refY="5"><rect y="2" width="6" height="6" fill="black" stroke="none" x="2"/></marker></defs><g stroke-linecap="round" stroke-linejoin="round" transform="translate(80 520 )scale(1 -1 )" fill="hsl(198, 47%, 65%)" stroke="hsl(198, 47%, 65%)" stroke-width="1px"><rect y="0" width="2.750000e+01" height="396" vector-effect="non-scaling-stroke" x="3.650000e+01"/></g><g stroke="hsl(49, 88%, 65%)" stroke-width="1px" stroke-linecap="round" stroke-linejoin="round" transform="translate(80 520 )scale(1 -1 )" fill="hsl(49, 88%, 65%)"><rect x="64" y="0" width="2.750000e+01" height="3.286619e+02" vector-effect="non-scaling-stroke"/></g><g stroke="hsl(198, 47%, 65%)" stroke-linecap="round" dominant-baseline="hanging" font-family="sans-serif" font-style="normal" font-weight="normal" stroke-width="1px" font-size="12px" fill="hsl(198, 47%, 65%)" stroke-linejoin="round" text-anchor="start"><rect x="736" y="484" width="12" height="12" vector-effect="non-scaling-stroke"/><g fill="black" stroke="black"><text stroke="none" vector-effect="non-scaling-stroke" x="752" y="484" dominant-baseline="hanging">Golang</text></g><g stroke-linejoin="round" font-style="normal" font-weight="normal" text-anchor="start" stroke="hsl(49, 88%, 65%)" dominant-baseline="hanging" fill="hsl(49, 88%, 65%)" stroke-linecap="round" font-size="12px" font-family="sans-serif" stroke-width="1px"><rect vector-effect="non-scaling-stroke" x="736" y="502" width="12" height="12"/><g stroke="black" fill="black"><text vector-effect="non-scaling-stroke" x="752" y="502" dominant-baseline="hanging" stroke="none">Rust</text><g font-weight="normal" text-anchor="start" fill="none" font-style="normal" stroke-width="2px" font-size="12px" stroke-linejoin="round" stroke-linecap="round" font-family="sans-serif" dominant-baseline="hanging"><rect y="80" width="640" height="440" vector-effect="non-scaling-stroke" x="80"/></g><g stroke="black" stroke-linecap="round" transform="translate(80 520 )scale(1 -1 )" fill="none" font-style="normal" dominant-baseline="hanging" text-anchor="start" stroke-width="2px" font-size="12px" font-weight="normal" stroke-linejoin="round" font-family="sans-serif"><path vector-effect="non-scaling-stroke" d="M64,0 L64,-6 "/></g><g font-style="normal" font-size="12px" font-weight="normal" text-anchor="middle" fill="black" stroke-linejoin="round" transform="translate(80 520 )scale(1 1 )" stroke="black" stroke-width="2px" stroke-linecap="round" font-family="sans-serif" dominant-baseline="hanging"><text stroke="none" vector-effect="non-scaling-stroke" x="64" y="10" dominant-baseline="hanging">1</text></g><g font-weight="bold" font-style="normal" dominant-baseline="baseline" transform="translate(80 520 )scale(1 1 )rotate(0 0 0 )" fill="black" stroke-width="2px" stroke-linecap="round" stroke-linejoin="round" font-family="sans-serif" stroke="black" font-size="12px" text-anchor="middle"><text vector-effect="non-scaling-stroke" x="320" y="-6" dominant-baseline="baseline" stroke="none">Day</text></g><g stroke-linecap="round" font-size="12px" stroke="black" stroke-linejoin="round" font-style="normal" fill="black" stroke-width="2px" font-weight="bold" text-anchor="middle" font-family="sans-serif" dominant-baseline="baseline" transform="translate(80 520 )scale(1 -1 )"><path vector-effect="non-scaling-stroke" d="M0,3.189195e+02 L-6,3.189195e+02 M0,3.303744e+02 L-6,3.303744e+02 M0,3.418294e+02 L-6,3.418294e+02 M0,3.532844e+02 L-6,3.532844e+02 M0,3.647394e+02 L-6,3.647394e+02 M0,3.761943e+02 L-6,3.761943e+02 M0,3.876493e+02 L-6,3.876493e+02 "/></g><g fill="black" font-family="sans-serif" font-style="normal" dominant-baseline="middle" text-anchor="end" stroke-linejoin="round" transform="translate(80 520 )scale(1 1 )" stroke="black" stroke-width="2px" stroke-linecap="round" font-size="12px" font-weight="normal"><text y="-3.189195e+02" dominant-baseline="middle" stroke="none" vector-effect="non-scaling-stroke" x="-10">48µs</text><text y="-3.418294e+02" dominant-baseline="middle" stroke="none" vector-effect="non-scaling-stroke" x="-10">52µs</text><text x="-10" y="-3.647394e+02" dominant-baseline="middle" stroke="none" vector-effect="non-scaling-stroke">56µs</text><text stroke="none" vector-effect="non-scaling-stroke" x="-10" y="-3.876493e+02" dominant-baseline="middle">60µs</text></g><g stroke-width="2px" stroke-linejoin="round" font-family="sans-serif" text-anchor="middle" stroke="black" stroke-linecap="round" font-size="12px" font-weight="bold" transform="translate(80 520 )scale(1 1 )rotate(-90 0 0 )" fill="black" font-style="normal" dominant-baseline="hanging"><text vector-effect="non-scaling-stroke" x="220" y="6" dominant-baseline="hanging" stroke="none">Runtime</text></g></g></g></g></svg>