<svg preserveAspectRatio="xMidYMid meet" xmlns="http://www.w3.org/2000/svg" width="800" height="600" viewbox="0 0 800 600"><defs><marker refX="5" refY="5" markerUnits="userSpaceOnUse" markerWidth="2%" markerHeight="2%" id="circle" viewBox="0 0 10 10 "><circle r="3" fill="none" stroke="black" cx="5" cy="5"/></marker><marker viewBox="0 0 10 10 " refX="5" refY="5" markerUnits="userSpaceOnUse" markerWidth="2%" markerHeight="2%" id="filled-circle"><circle r="3" fill="black" stroke="none" cx="5" cy="5"/></marker><marker markerWidth="2%" markerHeight="2%" id="square" viewBox="0 0 10 10 " refX="5" refY="5" markerUnits="userSpaceOnUse"><rect fill="none" stroke="black" x="2" y="2" width="6" height="6"/></marker><marker viewBox="0 0 10 10 " refX="5" refY="5" markerUnits="userSpaceOnUse" markerWidth="2%" markerHeight="2%" id="filled-square"><rect fill="black" stroke="none" x="2" y="2" width="6" height="6"/></marker></defs><g stroke-width="1px" stroke-linecap="round" stroke-linejoin="round" transform="translate(80 520 )scale(1 -1 )" fill="hsl(198, 47%, 65%)" stroke="hsl(198, 47%, 65%)"><rect height="4.418910e+01" vector-effect="non-scaling-stroke" x="3.650000e+01" y="0" width="1.833333e+01"/><rect y="0" width="1.833333e+01" height="2.109720e+02" vector-effect="non-scaling-stroke" x="5.783333e+01"/><rect x="7.916667e+01" y="0" width="1.833333e+01" height="4.499529e+01" vector-effect="non-scaling-stroke"/><rect x="1.005000e+02" y="0" width="1.833333e+01" height="8.409037e+01" vector-effect="non-scaling-stroke"/><rect x="1.218333e+02" y="0" width="1.833333e+01" height="4.475405e+01" vector-effect="non-scaling-stroke"/></g><g stroke-linecap="round" stroke-linejoin="round" transform="translate(80 520 )scale(1 -1 )" fill="hsl(49, 88%, 65%)" stroke="hsl(49, 88%, 65%)" stroke-width="1px"><rect height="4.409569e+01" vector-effect="non-scaling-stroke" x="5.483333e+01" y="0" width="1.833333e+01"/><rect y="0" width="1.833333e+01" height="2.517139e+02" vector-effect="non-scaling-stroke" x="7.616667e+01"/><rect vector-effect="non-scaling-stroke" x="9.750000e+01" y="0" width="1.833333e+01" height="4.460115e+01"/><rect height="4.825407e+01" vector-effect="non-scaling-stroke" x="1.188333e+02" y="0" width="1.833333e+01"/><rect y="0" width="1.833333e+01" height="4.534761e+01" vector-effect="non-scaling-stroke" x="1.401667e+02"/></g><g transform="translate(80 520 )scale(1 -1 )" fill="hsl(260, 76%, 65%)" stroke="hsl(260, 76%, 65%)" stroke-width="1px" stroke-linecap="round" stroke-linejoin="round"><rect width="1.833333e+01" height="4.409934e+01" vector-effect="non-scaling-stroke" x="7.316667e+01" y="0"/><rect width="1.833333e+01" height="396" vector-effect="non-scaling-stroke" x="9.450000e+01" y="0"/><rect vector-effect="non-scaling-stroke" x="1.158333e+02" y="0" width="1.833333e+01" height="4.441413e+01"/><rect width="1.833333e+01" height="5.134806e+01" vector-effect="non-scaling-stroke" x="1.371667e+02" y="0"/><rect x="1.585000e+02" y="0" width="1.833333e+01" height="4.465432e+01" vector-effect="non-scaling-stroke"/></g><g font-style="normal" fill="hsl(198, 47%, 65%)" font-weight="normal" text-anchor="start" stroke-width="1px" stroke-linecap="round" font-family="sans-serif" dominant-baseline="hanging" stroke="hsl(198, 47%, 65%)" stroke-linejoin="round" font-size="12px"><rect vector-effect="non-scaling-stroke" x="736" y="466" width="12" height="12"/><g fill="black" stroke="black"><text x="752" y="466" dominant-baseline="hanging" stroke="none" vector-effect="non-scaling-stroke">Golang</text></g><g font-weight="normal" text-anchor="start" stroke-linecap="round" stroke-linejoin="round" font-style="normal" stroke="hsl(49, 88%, 65%)" stroke-width="1px" font-family="sans-serif" font-size="12px" dominant-baseline="hanging" fill="hsl(49, 88%, 65%)"><rect width="12" height="12" vector-effect="non-scaling-stroke" x="736" y="484"/><g fill="black" stroke="black"><text x="752" y="484" dominant-baseline="hanging" stroke="none" vector-effect="non-scaling-stroke">Rust</text></g><g fill="hsl(260, 76%, 65%)" font-weight="normal" text-anchor="start" font-size="12px" font-style="normal" dominant-baseline="hanging" stroke="hsl(260, 76%, 65%)" stroke-width="1px" stroke-linecap="round" stroke-linejoin="round" font-family="sans-serif"><rect width="12" height="12" vector-effect="non-scaling-stroke" x="736" y="502"/><g fill="black" stroke="black"><text stroke="none" vector-effect="non-scaling-stroke" x="752" y="502" dominant-baseline="hanging">Zig</text><g stroke-linecap="round" font-family="sans-serif" font-size="12px" font-style="normal" fill="none" font-weight="normal" dominant-baseline="hanging" stroke-linejoin="round" text-anchor="start" stroke-width="2px"><rect x="80" y="80" width="640" height="440" vector-effect="non-scaling-stroke"/></g><g dominant-baseline="hanging" fill="none" stroke="black" stroke-width="2px" stroke-linecap="round" stroke-linejoin="round" font-family="sans-serif" font-weight="normal" text-anchor="start" transform="translate(80 520 )scale(1 -1 )" font-size="12px" font-style="normal"><path vector-effect="non-scaling-stroke" d="M64,0 L64,-6 M8.533333e+01,0 L8.533333e+01,-6 M1.066667e+02,0 L1.066667e+02,-6 M128,0 L128,-6 M1.493333e+02,0 L1.493333e+02,-6 "/></g><g dominant-baseline="hanging" fill="black" stroke-width="2px" stroke-linecap="round" stroke-linejoin="round" font-family="sans-serif" font-size="12px" stroke="black" font-weight="normal" text-anchor="middle" transform="translate(80 520 )scale(1 1 )" font-style="normal"><text dominant-baseline="hanging" stroke="none" vector-effect="non-scaling-stroke" x="64" y="10">1</text><text stroke="none" vector-effect="non-scaling-stroke" x="8.533333e+01" y="10" dominant-baseline="hanging">2</text><text y="10" dominant-baseline="hanging" stroke="none" vector-effect="non-scaling-stroke" x="1.066667e+02">3</text><text x="128" y="10" dominant-baseline="hanging" stroke="none" vector-effect="non-scaling-stroke">4</text><text x="1.493333e+02" y="10" dominant-baseline="hanging" stroke="none" vector-effect="non-scaling-stroke">5</text></g><g fill="black" stroke="black" transform="translate(80 520 )scale(1 1 )rotate(0 0 0 )" stroke-width="2px" stroke-linecap="round" stroke-linejoin="round" font-size="12px" font-style="normal" font-weight="bold" text-anchor="middle" font-family="sans-serif" dominant-baseline="baseline"><text x="320" y="-6" dominant-baseline="baseline" stroke="none" vector-effect="non-scaling-stroke">Day</text></g><g transform="translate(80 520 )scale(1 -1 )" stroke-linejoin="round" font-family="sans-serif" stroke-width="2px" stroke-linecap="round" font-size="12px" font-style="normal" dominant-baseline="baseline" fill="black" stroke="black" font-weight="bold" text-anchor="middle"><path vector-effect="non-scaling-stroke" d="M0,44 L-6,44 M0,1.420220e+02 L-6,1.420220e+02 M0,2.400441e+02 L-6,2.400441e+02 M0,3.380661e+02 L-6,3.380661e+02 "/></g><g font-family="sans-serif" fill="black" stroke="black" font-weight="normal" transform="translate(80 520 )scale(1 1 )" stroke-linecap="round" font-size="12px" font-style="normal" dominant-baseline="middle" text-anchor="end" stroke-width="2px" stroke-linejoin="round"><text x="-10" y="-44" dominant-baseline="middle" stroke="none" vector-effect="non-scaling-stroke">0s</text><text y="-1.420220e+02" dominant-baseline="middle" stroke="none" vector-effect="non-scaling-stroke" x="-10">10ms</text><text y="-2.400441e+02" dominant-baseline="middle" stroke="none" vector-effect="non-scaling-stroke" x="-10">20ms</text><text vector-effect="non-scaling-stroke" x="-10" y="-3.380661e+02" dominant-baseline="middle" stroke="none">30ms</text></g><g fill="black" stroke="black" font-weight="bold" stroke-linejoin="round" text-anchor="middle" transform="translate(80 520 )scale(1 1 )rotate(-90 0 0 )" stroke-width="2px" stroke-linecap="round" font-family="sans-serif" font-size="12px" font-style="normal" dominant-baseline="hanging"><text dominant-baseline="hanging" stroke="none" vector-effect="non-scaling-stroke" x="220" y="6">Runtime</text></g></g></g></g></g></svg>