<svg viewbox="0 0 800 600" preserveAspectRatio="xMidYMid meet" xmlns="http://www.w3.org/2000/svg" width="800" height="600"><defs><marker markerWidth="2%" markerHeight="2%" id="circle" viewBox="0 0 10 10 " refX="5" refY="5" markerUnits="userSpaceOnUse"><circle cy="5" r="3" fill="none" stroke="black" cx="5"/></marker><marker refY="5" markerUnits="userSpaceOnUse" markerWidth="2%" markerHeight="2%" id="filled-circle" viewBox="0 0 10 10 " refX="5"><circle cy="5" r="3" fill="black" stroke="none" cx="5"/></marker><marker markerHeight="2%" id="square" viewBox="0 0 10 10 " refX="5" refY="5" markerUnits="userSpaceOnUse" markerWidth="2%"><rect y="2" width="6" height="6" fill="none" stroke="black" x="2"/></marker><marker refX="5" refY="5" markerUnits="userSpaceOnUse" markerWidth="2%" markerHeight="2%" id="filled-square" viewBox="0 0 10 10 "><rect x="2" y="2" width="6" height="6" fill="black" stroke="none"/></marker></defs><g stroke="hsl(198, 47%, 65%)" stroke-width="1px" stroke-linecap="round" stroke-linejoin="round" transform="translate(80 520 )scale(1 -1 )" fill="hsl(198, 47%, 65%)"><rect vector-effect="non-scaling-stroke" x="5.214815e+01" y="0" width="7.901235e+00" height="4.428698e+01"/><rect y="0" width="7.901235e+00" height="4.401175e+01" vector-effect="non-scaling-stroke" x="7.348148e+01"/><rect vector-effect="non-scaling-stroke" x="9.481481e+01" y="0" width="7.901235e+00" height="4.404873e+01"/><rect y="0" width="7.901235e+00" height="4.405508e+01" vector-effect="non-scaling-stroke" x="1.161481e+02"/><rect vector-effect="non-scaling-stroke" x="1.374815e+02" y="0" width="7.901235e+00" height="4.409778e+01"/><rect width="7.901235e+00" height="4.400022e+01" vector-effect="non-scaling-stroke" x="1.588148e+02" y="0"/><rect vector-effect="non-scaling-stroke" x="1.801481e+02" y="0" width="7.901235e+00" height="4.459589e+01"/><rect vector-effect="non-scaling-stroke" x="2.014815e+02" y="0" width="7.901235e+00" height="4.551062e+01"/><rect y="0" width="7.901235e+00" height="4.406150e+01" vector-effect="non-scaling-stroke" x="2.228148e+02"/><rect vector-effect="non-scaling-stroke" x="2.441481e+02" y="0" width="7.901235e+00" height="4.591624e+01"/><rect y="0" width="7.901235e+00" height="4.443054e+01" vector-effect="non-scaling-stroke" x="2.654815e+02"/><rect width="7.901235e+00" height="1.871043e+02" vector-effect="non-scaling-stroke" x="2.868148e+02" y="0"/><rect vector-effect="non-scaling-stroke" x="3.081481e+02" y="0" width="7.901235e+00" height="4.417878e+01"/><rect width="7.901235e+00" height="7.029912e+01" vector-effect="non-scaling-stroke" x="3.294815e+02" y="0"/><rect width="7.901235e+00" height="4.422669e+01" vector-effect="non-scaling-stroke" x="3.508148e+02" y="0"/><rect width="7.901235e+00" height="1.878644e+02" vector-effect="non-scaling-stroke" x="3.721481e+02" y="0"/><rect width="7.901235e+00" height="396" vector-effect="non-scaling-stroke" x="3.934815e+02" y="0"/><rect width="7.901235e+00" height="4.401142e+01" vector-effect="non-scaling-stroke" x="4.148148e+02" y="0"/></g><g stroke="hsl(49, 88%, 65%)" stroke-width="1px" stroke-linecap="round" stroke-linejoin="round" transform="translate(80 520 )scale(1 -1 )" fill="hsl(49, 88%, 65%)"><rect x="6.004938e+01" y="0" width="7.901235e+00" height="4.414924e+01" vector-effect="non-scaling-stroke"/><rect width="7.901235e+00" height="4.400385e+01" vector-effect="non-scaling-stroke" x="8.138272e+01" y="0"/><rect width="7.901235e+00" height="4.402790e+01" vector-effect="non-scaling-stroke" x="1.027160e+02" y="0"/><rect vector-effect="non-scaling-stroke" x="1.240494e+02" y="0" width="7.901235e+00" height="4.403046e+01"/><rect width="7.901235e+00" height="4.401779e+01" vector-effect="non-scaling-stroke" x="1.453827e+02" y="0"/><rect x="1.667160e+02" y="0" width="7.901235e+00" height="4.400016e+01" vector-effect="non-scaling-stroke"/><rect y="0" width="7.901235e+00" height="4.411010e+01" vector-effect="non-scaling-stroke" x="1.880494e+02"/><rect x="2.093827e+02" y="0" width="7.901235e+00" height="4.848668e+01" vector-effect="non-scaling-stroke"/><rect height="4.403478e+01" vector-effect="non-scaling-stroke" x="2.307160e+02" y="0" width="7.901235e+00"/><rect vector-effect="non-scaling-stroke" x="2.520494e+02" y="0" width="7.901235e+00" height="4.413778e+01"/><rect width="7.901235e+00" height="4.439698e+01" vector-effect="non-scaling-stroke" x="2.733827e+02" y="0"/><rect y="0" width="7.901235e+00" height="6.843211e+01" vector-effect="non-scaling-stroke" x="2.947160e+02"/><rect x="3.160494e+02" y="0" width="7.901235e+00" height="4.408398e+01" vector-effect="non-scaling-stroke"/><rect y="0" width="7.901235e+00" height="4.410490e+01" vector-effect="non-scaling-stroke" x="3.587160e+02"/><rect x="3.800494e+02" y="0" width="7.901235e+00" height="5.956625e+01" vector-effect="non-scaling-stroke"/><rect x="4.227160e+02" y="0" width="7.901235e+00" height="4.400512e+01" vector-effect="non-scaling-stroke"/></g><g stroke-linecap="round" stroke-linejoin="round" transform="translate(80 520 )scale(1 -1 )" fill="hsl(260, 76%, 65%)" stroke="hsl(260, 76%, 65%)" stroke-width="1px"><rect vector-effect="non-scaling-stroke" x="6.795062e+01" y="0" width="7.901235e+00" height="4.411965e+01"/><rect y="0" width="7.901235e+00" height="4.400419e+01" vector-effect="non-scaling-stroke" x="8.928395e+01"/><rect vector-effect="non-scaling-stroke" x="1.106173e+02" y="0" width="7.901235e+00" height="4.402151e+01"/><rect x="1.319506e+02" y="0" width="7.901235e+00" height="4.408522e+01" vector-effect="non-scaling-stroke"/><rect vector-effect="non-scaling-stroke" x="1.532840e+02" y="0" width="7.901235e+00" height="4.717025e+01"/><rect height="4.400014e+01" vector-effect="non-scaling-stroke" x="1.746173e+02" y="0" width="7.901235e+00"/><rect height="4.406952e+01" vector-effect="non-scaling-stroke" x="1.959506e+02" y="0" width="7.901235e+00"/><rect x="2.172840e+02" y="0" width="7.901235e+00" height="4.435691e+01" vector-effect="non-scaling-stroke"/><rect y="0" width="7.901235e+00" height="4.403398e+01" vector-effect="non-scaling-stroke" x="2.386173e+02"/><rect y="0" width="7.901235e+00" height="4.412865e+01" vector-effect="non-scaling-stroke" x="2.599506e+02"/><rect width="7.901235e+00" height="7.504404e+01" vector-effect="non-scaling-stroke" x="2.812840e+02" y="0"/><rect vector-effect="non-scaling-stroke" x="3.666173e+02" y="0" width="7.901235e+00" height="4.410762e+01"/><rect vector-effect="non-scaling-stroke" x="3.879506e+02" y="0" width="7.901235e+00" height="1.265418e+02"/></g><g font-family="sans-serif" font-style="normal" font-weight="normal" dominant-baseline="hanging" fill="hsl(198, 47%, 65%)" stroke-width="1px" stroke-linecap="round" stroke-linejoin="round" font-size="12px" text-anchor="start" stroke="hsl(198, 47%, 65%)"><rect vector-effect="non-scaling-stroke" x="736" y="466" width="12" height="12"/><g fill="black" stroke="black"><text x="752" y="466" dominant-baseline="hanging" stroke="none" vector-effect="non-scaling-stroke">Golang</text></g><g stroke-linejoin="round" font-size="12px" fill="hsl(49, 88%, 65%)" font-style="normal" font-family="sans-serif" text-anchor="start" stroke="hsl(49, 88%, 65%)" stroke-width="1px" stroke-linecap="round" dominant-baseline="hanging" font-weight="normal"><rect width="12" height="12" vector-effect="non-scaling-stroke" x="736" y="484"/><g stroke="black" fill="black"><text vector-effect="non-scaling-stroke" x="752" y="484" dominant-baseline="hanging" stroke="none">Rust</text></g><g stroke="hsl(260, 76%, 65%)" stroke-width="1px" stroke-linejoin="round" font-style="normal" stroke-linecap="round" font-family="sans-serif" font-size="12px" text-anchor="start" fill="hsl(260, 76%, 65%)" font-weight="normal" dominant-baseline="hanging"><rect vector-effect="non-scaling-stroke" x="736" y="502" width="12" height="12"/><g fill="black" stroke="black"><text vector-effect="non-scaling-stroke" x="752" y="502" dominant-baseline="hanging" stroke="none">Zig</text><g fill="none" stroke-linejoin="round" font-family="sans-serif" text-anchor="start" font-style="normal" dominant-baseline="hanging" stroke-linecap="round" font-weight="normal" font-size="12px" stroke-width="2px"><rect height="440" vector-effect="non-scaling-stroke" x="80" y="80" width="640"/></g><g font-size="12px" stroke="black" font-style="normal" dominant-baseline="hanging" transform="translate(80 520 )scale(1 -1 )" fill="none" font-family="sans-serif" text-anchor="start" font-weight="normal" stroke-width="2px" stroke-linecap="round" stroke-linejoin="round"><path vector-effect="non-scaling-stroke" d="M64,0 L64,-6 M8.533333e+01,0 L8.533333e+01,-6 M1.066667e+02,0 L1.066667e+02,-6 M128,0 L128,-6 M1.493333e+02,0 L1.493333e+02,-6 M1.706667e+02,0 L1.706667e+02,-6 M192,0 L192,-6 M2.133333e+02,0 L2.133333e+02,-6 M2.346667e+02,0 L2.346667e+02,-6 M256,0 L256,-6 M2.773333e+02,0 L2.773333e+02,-6 M2.986667e+02,0 L2.986667e+02,-6 M320,0 L320,-6 M3.413333e+02,0 L3.413333e+02,-6 M3.626667e+02,0 L3.626667e+02,-6 M384,0 L384,-6 M4.053333e+02,0 L4.053333e+02,-6 M4.266667e+02,0 L4.266667e+02,-6 "/></g><g stroke-linecap="round" font-family="sans-serif" dominant-baseline="hanging" transform="translate(80 520 )scale(1 1 )" fill="black" stroke-width="2px" stroke-linejoin="round" font-size="12px" text-anchor="middle" stroke="black" font-style="normal" font-weight="normal"><text y="10" dominant-baseline="hanging" stroke="none" vector-effect="non-scaling-stroke" x="64">1</text><text x="8.533333e+01" y="10" dominant-baseline="hanging" stroke="none" vector-effect="non-scaling-stroke">2</text><text dominant-baseline="hanging" stroke="none" vector-effect="non-scaling-stroke" x="1.066667e+02" y="10">3</text><text dominant-baseline="hanging" stroke="none" vector-effect="non-scaling-stroke" x="128" y="10">4</text><text x="1.493333e+02" y="10" dominant-baseline="hanging" stroke="none" vector-effect="non-scaling-stroke">5</text><text x="1.706667e+02" y="10" dominant-baseline="hanging" stroke="none" vector-effect="non-scaling-stroke">6</text><text stroke="none" vector-effect="non-scaling-stroke" x="192" y="10" dominant-baseline="hanging">7</text><text x="2.133333e+02" y="10" dominant-baseline="hanging" stroke="none" vector-effect="non-scaling-stroke">8</text><text stroke="none" vector-effect="non-scaling-stroke" x="2.346667e+02" y="10" dominant-baseline="hanging">9</text><text y="10" dominant-baseline="hanging" stroke="none" vector-effect="non-scaling-stroke" x="256">10</text><text stroke="none" vector-effect="non-scaling-stroke" x="2.773333e+02" y="10" dominant-baseline="hanging">11</text><text dominant-baseline="hanging" stroke="none" vector-effect="non-scaling-stroke" x="2.986667e+02" y="10">12</text><text dominant-baseline="hanging" stroke="none" vector-effect="non-scaling-stroke" x="320" y="10">13</text><text stroke="none" vector-effect="non-scaling-stroke" x="3.413333e+02" y="10" dominant-baseline="hanging">14</text><text vector-effect="non-scaling-stroke" x="3.626667e+02" y="10" dominant-baseline="hanging" stroke="none">15</text><text stroke="none" vector-effect="non-scaling-stroke" x="384" y="10" dominant-baseline="hanging">16</text><text x="4.053333e+02" y="10" dominant-baseline="hanging" stroke="none" vector-effect="non-scaling-stroke">17</text><text stroke="none" vector-effect="non-scaling-stroke" x="4.266667e+02" y="10" dominant-baseline="hanging">18</text></g><g font-size="12px" text-anchor="middle" stroke-width="2px" transform="translate(80 520 )scale(1 1 )rotate(0 0 0 )" fill="black" font-style="normal" stroke-linecap="round" stroke-linejoin="round" font-family="sans-serif" stroke="black" font-weight="bold" dominant-baseline="baseline"><text dominant-baseline="baseline" stroke="none" vector-effect="non-scaling-stroke" x="320" y="-6">Day</text></g><g stroke="black" dominant-baseline="baseline" transform="translate(80 520 )scale(1 -1 )" font-style="normal" font-weight="bold" font-size="12px" text-anchor="middle" stroke-width="2px" stroke-linecap="round" fill="black" stroke-linejoin="round" font-family="sans-serif"><path d="M0,44 L-6,44 M0,2.048232e+02 L-6,2.048232e+02 M0,3.656463e+02 L-6,3.656463e+02 " vector-effect="non-scaling-stroke"/></g><g stroke="black" dominant-baseline="middle" fill="black" stroke-linecap="round" font-family="sans-serif" font-size="12px" text-anchor="end" transform="translate(80 520 )scale(1 1 )" stroke-width="2px" stroke-linejoin="round" font-style="normal" font-weight="normal"><text stroke="none" vector-effect="non-scaling-stroke" x="-10" y="-44" dominant-baseline="middle">0s</text><text x="-10" y="-2.048232e+02" dominant-baseline="middle" stroke="none" vector-effect="non-scaling-stroke">100ms</text><text vector-effect="non-scaling-stroke" x="-10" y="-3.656463e+02" dominant-baseline="middle" stroke="none">200ms</text></g><g font-size="12px" fill="black" font-style="normal" stroke="black" stroke-width="2px" stroke-linecap="round" stroke-linejoin="round" font-family="sans-serif" font-weight="bold" dominant-baseline="hanging" transform="translate(80 520 )scale(1 1 )rotate(-90 0 0 )" text-anchor="middle"><text dominant-baseline="hanging" stroke="none" vector-effect="non-scaling-stroke" x="220" y="6">Runtime</text></g></g></g></g></g></svg>