<svg viewbox="0 0 800 600" preserveAspectRatio="xMidYMid meet" xmlns="http://www.w3.org/2000/svg" width="800" height="600"><defs><marker markerUnits="userSpaceOnUse" markerWidth="2%" markerHeight="2%" id="circle" viewBox="0 0 10 10 " refX="5" refY="5"><circle cx="5" cy="5" r="3" fill="none" stroke="black"/></marker><marker id="filled-circle" viewBox="0 0 10 10 " refX="5" refY="5" markerUnits="userSpaceOnUse" markerWidth="2%" markerHeight="2%"><circle fill="black" stroke="none" cx="5" cy="5" r="3"/></marker><marker markerHeight="2%" id="square" viewBox="0 0 10 10 " refX="5" refY="5" markerUnits="userSpaceOnUse" markerWidth="2%"><rect y="2" width="6" height="6" fill="none" stroke="black" x="2"/></marker><marker refX="5" refY="5" markerUnits="userSpaceOnUse" markerWidth="2%" markerHeight="2%" id="filled-square" viewBox="0 0 10 10 "><rect fill="black" stroke="none" x="2" y="2" width="6" height="6"/></marker></defs><g fill="hsl(198, 47%, 65%)" stroke="hsl(198, 47%, 65%)" stroke-width="1px" stroke-linecap="round" stroke-linejoin="round" transform="translate(80 520 )scale(1 -1 )"><rect width="2.666667e+01" height="5.034771e+01" vector-effect="non-scaling-stroke" x="3.733333e+01" y="0"/><rect vector-effect="non-scaling-stroke" x="5.866667e+01" y="0" width="2.666667e+01" height="4.570429e+01"/><rect vector-effect="non-scaling-stroke" x="80" y="0" width="2.666667e+01" height="6.279799e+01"/><rect height="5.163862e+01" vector-effect="non-scaling-stroke" x="1.013333e+02" y="0" width="2.666667e+01"/><rect vector-effect="non-scaling-stroke" x="1.226667e+02" y="0" width="2.666667e+01" height="4.873777e+01"/><rect y="0" width="2.666667e+01" height="5.632865e+01" vector-effect="non-scaling-stroke" x="144"/><rect x="1.653333e+02" y="0" width="2.666667e+01" height="5.327017e+01" vector-effect="non-scaling-stroke"/><rect vector-effect="non-scaling-stroke" x="1.866667e+02" y="0" width="2.666667e+01" height="2.959696e+02"/></g><g stroke-linejoin="round" transform="translate(80 520 )scale(1 -1 )" fill="hsl(49, 88%, 65%)" stroke="hsl(49, 88%, 65%)" stroke-width="1px" stroke-linecap="round"><rect y="0" width="2.666667e+01" height="4.681561e+01" vector-effect="non-scaling-stroke" x="6.400000e+01"/><rect width="2.666667e+01" height="4.441300e+01" vector-effect="non-scaling-stroke" x="8.533333e+01" y="0"/><rect vector-effect="non-scaling-stroke" x="1.066667e+02" y="0" width="2.666667e+01" height="5.824740e+01"/><rect y="0" width="2.666667e+01" height="4.885977e+01" vector-effect="non-scaling-stroke" x="128"/><rect y="0" width="2.666667e+01" height="4.697929e+01" vector-effect="non-scaling-stroke" x="1.493333e+02"/><rect y="0" width="2.666667e+01" height="5.078989e+01" vector-effect="non-scaling-stroke" x="1.706667e+02"/><rect height="5.120744e+01" vector-effect="non-scaling-stroke" x="192" y="0" width="2.666667e+01"/><rect x="2.133333e+02" y="0" width="2.666667e+01" height="396" vector-effect="non-scaling-stroke"/></g><g stroke="hsl(198, 47%, 65%)" stroke-linejoin="round" font-weight="normal" font-style="normal" dominant-baseline="hanging" stroke-width="1px" font-size="12px" text-anchor="start" fill="hsl(198, 47%, 65%)" stroke-linecap="round" font-family="sans-serif"><rect y="484" width="12" height="12" vector-effect="non-scaling-stroke" x="736"/><g stroke="black" fill="black"><text x="752" y="484" dominant-baseline="hanging" stroke="none" vector-effect="non-scaling-stroke">Golang</text></g><g font-style="normal" text-anchor="start" fill="hsl(49, 88%, 65%)" stroke="hsl(49, 88%, 65%)" stroke-linecap="round" font-weight="normal" stroke-linejoin="round" font-family="sans-serif" dominant-baseline="hanging" stroke-width="1px" font-size="12px"><rect y="502" width="12" height="12" vector-effect="non-scaling-stroke" x="736"/><g fill="black" stroke="black"><text y="502" dominant-baseline="hanging" stroke="none" vector-effect="non-scaling-stroke" x="752">Rust</text><g font-weight="normal" stroke-linejoin="round" stroke-linecap="round" font-family="sans-serif" font-size="12px" text-anchor="start" font-style="normal" stroke-width="2px" fill="none" dominant-baseline="hanging"><rect x="80" y="80" width="640" height="440" vector-effect="non-scaling-stroke"/></g><g stroke-linejoin="round" font-style="normal" font-weight="normal" text-anchor="start" font-size="12px" stroke-linecap="round" font-family="sans-serif" fill="none" dominant-baseline="hanging" transform="translate(80 520 )scale(1 -1 )" stroke-width="2px" stroke="black"><path vector-effect="non-scaling-stroke" d="M64,0 L64,-6 M8.533333e+01,0 L8.533333e+01,-6 M1.066667e+02,0 L1.066667e+02,-6 M128,0 L128,-6 M1.493333e+02,0 L1.493333e+02,-6 M1.706667e+02,0 L1.706667e+02,-6 M192,0 L192,-6 M2.133333e+02,0 L2.133333e+02,-6 "/></g><g stroke="black" stroke-linecap="round" font-family="sans-serif" font-style="normal" dominant-baseline="hanging" text-anchor="middle" fill="black" stroke-width="2px" font-size="12px" transform="translate(80 520 )scale(1 1 )" font-weight="normal" stroke-linejoin="round"><text y="10" dominant-baseline="hanging" stroke="none" vector-effect="non-scaling-stroke" x="64">1</text><text y="10" dominant-baseline="hanging" stroke="none" vector-effect="non-scaling-stroke" x="8.533333e+01">2</text><text dominant-baseline="hanging" stroke="none" vector-effect="non-scaling-stroke" x="1.066667e+02" y="10">3</text><text x="128" y="10" dominant-baseline="hanging" stroke="none" vector-effect="non-scaling-stroke">4</text><text dominant-baseline="hanging" stroke="none" vector-effect="non-scaling-stroke" x="1.493333e+02" y="10">5</text><text stroke="none" vector-effect="non-scaling-stroke" x="1.706667e+02" y="10" dominant-baseline="hanging">6</text><text stroke="none" vector-effect="non-scaling-stroke" x="192" y="10" dominant-baseline="hanging">7</text><text stroke="none" vector-effect="non-scaling-stroke" x="2.133333e+02" y="10" dominant-baseline="hanging">8</text></g><g font-style="normal" font-weight="bold" fill="black" stroke="black" font-size="12px" transform="translate(80 520 )scale(1 1 )rotate(0 0 0 )" stroke-linejoin="round" font-family="sans-serif" dominant-baseline="baseline" stroke-width="2px" text-anchor="middle" stroke-linecap="round"><text dominant-baseline="baseline" stroke="none" vector-effect="non-scaling-stroke" x="320" y="-6">Day</text></g><g transform="translate(80 520 )scale(1 -1 )" font-weight="bold" font-family="sans-serif" dominant-baseline="baseline" fill="black" stroke="black" stroke-linecap="round" stroke-linejoin="round" stroke-width="2px" font-size="12px" font-style="normal" text-anchor="middle"><path vector-effect="non-scaling-stroke" d="M0,44 L-6,44 M0,8.189000e+01 L-6,8.189000e+01 M0,1.197800e+02 L-6,1.197800e+02 M0,1.576700e+02 L-6,1.576700e+02 M0,1.955600e+02 L-6,1.955600e+02 M0,2.334500e+02 L-6,2.334500e+02 M0,2.713400e+02 L-6,2.713400e+02 M0,3.092300e+02 L-6,3.092300e+02 M0,3.471200e+02 L-6,3.471200e+02 M0,3.850100e+02 L-6,3.850100e+02 "/></g><g stroke-linecap="round" stroke-linejoin="round" font-family="sans-serif" font-weight="normal" fill="black" stroke="black" text-anchor="end" dominant-baseline="middle" font-size="12px" transform="translate(80 520 )scale(1 1 )" stroke-width="2px" font-style="normal"><text y="-44" dominant-baseline="middle" stroke="none" vector-effect="non-scaling-stroke" x="-10">0s</text><text y="-8.189000e+01" dominant-baseline="middle" stroke="none" vector-effect="non-scaling-stroke" x="-10">100µs</text><text dominant-baseline="middle" stroke="none" vector-effect="non-scaling-stroke" x="-10" y="-1.197800e+02">200µs</text><text stroke="none" vector-effect="non-scaling-stroke" x="-10" y="-1.576700e+02" dominant-baseline="middle">300µs</text><text y="-1.955600e+02" dominant-baseline="middle" stroke="none" vector-effect="non-scaling-stroke" x="-10">400µs</text><text vector-effect="non-scaling-stroke" x="-10" y="-2.334500e+02" dominant-baseline="middle" stroke="none">500µs</text><text y="-2.713400e+02" dominant-baseline="middle" stroke="none" vector-effect="non-scaling-stroke" x="-10">600µs</text><text y="-3.092300e+02" dominant-baseline="middle" stroke="none" vector-effect="non-scaling-stroke" x="-10">700µs</text><text x="-10" y="-3.471200e+02" dominant-baseline="middle" stroke="none" vector-effect="non-scaling-stroke">800µs</text><text x="-10" y="-3.850100e+02" dominant-baseline="middle" stroke="none" vector-effect="non-scaling-stroke">900µs</text></g><g fill="black" dominant-baseline="hanging" font-size="12px" transform="translate(80 520 )scale(1 1 )rotate(-90 0 0 )" stroke="black" stroke-linecap="round" font-family="sans-serif" font-weight="bold" stroke-linejoin="round" font-style="normal" text-anchor="middle" stroke-width="2px"><text vector-effect="non-scaling-stroke" x="220" y="6" dominant-baseline="hanging" stroke="none">Runtime</text></g></g></g></g></svg>