<svg preserveAspectRatio="xMidYMid meet" xmlns="http://www.w3.org/2000/svg" width="800" height="600" viewbox="0 0 800 600"><defs><marker refY="5" markerUnits="userSpaceOnUse" markerWidth="2%" markerHeight="2%" id="circle" viewBox="0 0 10 10 " refX="5"><circle stroke="black" cx="5" cy="5" r="3" fill="none"/></marker><marker markerHeight="2%" id="filled-circle" viewBox="0 0 10 10 " refX="5" refY="5" markerUnits="userSpaceOnUse" markerWidth="2%"><circle cx="5" cy="5" r="3" fill="black" stroke="none"/></marker><marker markerWidth="2%" markerHeight="2%" id="square" viewBox="0 0 10 10 " refX="5" refY="5" markerUnits="userSpaceOnUse"><rect stroke="black" x="2" y="2" width="6" height="6" fill="none"/></marker><marker id="filled-square" viewBox="0 0 10 10 " refX="5" refY="5" markerUnits="userSpaceOnUse" markerWidth="2%" markerHeight="2%"><rect height="6" fill="black" stroke="none" x="2" y="2" width="6"/></marker></defs><g stroke-linecap="round" stroke-linejoin="round" transform="translate(80 520 )scale(1 -1 )" fill="hsl(198, 47%, 65%)" stroke="hsl(198, 47%, 65%)" stroke-width="1px"><rect vector-effect="non-scaling-stroke" x="5.546667e+01" y="0" width="3.413333e+00" height="4.408422e+01"/><rect vector-effect="non-scaling-stroke" x="7.680000e+01" y="0" width="3.413333e+00" height="4.402387e+01"/><rect y="0" width="3.413333e+00" height="4.405183e+01" vector-effect="non-scaling-stroke" x="9.813333e+01"/></g><g stroke="hsl(49, 88%, 65%)" stroke-width="1px" stroke-linecap="round" stroke-linejoin="round" transform="translate(80 520 )scale(1 -1 )" fill="hsl(49, 88%, 65%)"><rect width="3.413333e+00" height="4.400620e+01" vector-effect="non-scaling-stroke" x="5.888000e+01" y="0"/><rect vector-effect="non-scaling-stroke" x="8.021333e+01" y="0" width="3.413333e+00" height="4.400030e+01"/><rect width="3.413333e+00" height="4.401084e+01" vector-effect="non-scaling-stroke" x="1.015467e+02" y="0"/><rect width="3.413333e+00" height="4.401633e+01" vector-effect="non-scaling-stroke" x="1.228800e+02" y="0"/><rect vector-effect="non-scaling-stroke" x="1.442133e+02" y="0" width="3.413333e+00" height="4.423034e+01"/><rect vector-effect="non-scaling-stroke" x="1.655467e+02" y="0" width="3.413333e+00" height="4.400048e+01"/><rect x="1.868800e+02" y="0" width="3.413333e+00" height="4.402153e+01" vector-effect="non-scaling-stroke"/><rect vector-effect="non-scaling-stroke" x="2.082133e+02" y="0" width="3.413333e+00" height="4.405083e+01"/><rect vector-effect="non-scaling-stroke" x="2.295467e+02" y="0" width="3.413333e+00" height="4.419339e+01"/><rect vector-effect="non-scaling-stroke" x="2.508800e+02" y="0" width="3.413333e+00" height="4.401334e+01"/><rect vector-effect="non-scaling-stroke" x="2.722133e+02" y="0" width="3.413333e+00" height="4.416069e+01"/><rect height="4.421784e+01" vector-effect="non-scaling-stroke" x="2.935467e+02" y="0" width="3.413333e+00"/><rect height="4.407619e+01" vector-effect="non-scaling-stroke" x="3.148800e+02" y="0" width="3.413333e+00"/><rect width="3.413333e+00" height="4.407610e+01" vector-effect="non-scaling-stroke" x="3.362133e+02" y="0"/><rect vector-effect="non-scaling-stroke" x="3.575467e+02" y="0" width="3.413333e+00" height="5.574658e+01"/><rect x="3.788800e+02" y="0" width="3.413333e+00" height="4.400557e+01" vector-effect="non-scaling-stroke"/><rect width="3.413333e+00" height="4.453816e+01" vector-effect="non-scaling-stroke" x="4.002133e+02" y="0"/><rect vector-effect="non-scaling-stroke" x="4.215467e+02" y="0" width="3.413333e+00" height="5.495637e+01"/><rect width="3.413333e+00" height="2.514660e+02" vector-effect="non-scaling-stroke" x="4.428800e+02" y="0"/><rect vector-effect="non-scaling-stroke" x="4.642133e+02" y="0" width="3.413333e+00" height="4.997594e+01"/><rect vector-effect="non-scaling-stroke" x="4.855467e+02" y="0" width="3.413333e+00" height="4.442944e+01"/><rect x="5.068800e+02" y="0" width="3.413333e+00" height="4.605650e+01" vector-effect="non-scaling-stroke"/><rect x="5.282133e+02" y="0" width="3.413333e+00" height="1.577098e+02" vector-effect="non-scaling-stroke"/><rect y="0" width="3.413333e+00" height="4.400083e+01" vector-effect="non-scaling-stroke" x="5.495467e+02"/><rect height="5.539124e+01" vector-effect="non-scaling-stroke" x="5.708800e+02" y="0" width="3.413333e+00"/></g><g stroke-linecap="round" stroke-linejoin="round" transform="translate(80 520 )scale(1 -1 )" fill="hsl(260, 76%, 65%)" stroke="hsl(260, 76%, 65%)" stroke-width="1px"><rect vector-effect="non-scaling-stroke" x="6.229333e+01" y="0" width="3.413333e+00" height="4.455488e+01"/><rect width="3.413333e+00" height="4.440753e+01" vector-effect="non-scaling-stroke" x="8.362667e+01" y="0"/><rect vector-effect="non-scaling-stroke" x="1.049600e+02" y="0" width="3.413333e+00" height="4.466792e+01"/></g><g stroke-linecap="round" stroke-linejoin="round" transform="translate(80 520 )scale(1 -1 )" fill="hsl(111, 64%, 65%)" stroke="hsl(111, 64%, 65%)" stroke-width="1px"><rect x="6.570667e+01" y="0" width="3.413333e+00" height="4.400602e+01" vector-effect="non-scaling-stroke"/><rect height="4.400034e+01" vector-effect="non-scaling-stroke" x="8.704000e+01" y="0" width="3.413333e+00"/><rect width="3.413333e+00" height="4.401126e+01" vector-effect="non-scaling-stroke" x="1.083733e+02" y="0"/><rect y="0" width="3.413333e+00" height="4.402508e+01" vector-effect="non-scaling-stroke" x="1.297067e+02"/><rect width="3.413333e+00" height="4.423456e+01" vector-effect="non-scaling-stroke" x="1.510400e+02" y="0"/><rect vector-effect="non-scaling-stroke" x="1.723733e+02" y="0" width="3.413333e+00" height="4.400032e+01"/><rect vector-effect="non-scaling-stroke" x="1.937067e+02" y="0" width="3.413333e+00" height="4.400765e+01"/><rect x="2.150400e+02" y="0" width="3.413333e+00" height="4.400987e+01" vector-effect="non-scaling-stroke"/><rect height="4.404946e+01" vector-effect="non-scaling-stroke" x="2.363733e+02" y="0" width="3.413333e+00"/><rect height="4.401822e+01" vector-effect="non-scaling-stroke" x="2.577067e+02" y="0" width="3.413333e+00"/><rect height="4.406171e+01" vector-effect="non-scaling-stroke" x="2.790400e+02" y="0" width="3.413333e+00"/><rect x="3.003733e+02" y="0" width="3.413333e+00" height="4.616739e+01" vector-effect="non-scaling-stroke"/><rect x="3.217067e+02" y="0" width="3.413333e+00" height="4.410590e+01" vector-effect="non-scaling-stroke"/><rect vector-effect="non-scaling-stroke" x="3.430400e+02" y="0" width="3.413333e+00" height="4.400712e+01"/><rect y="0" width="3.413333e+00" height="6.911282e+01" vector-effect="non-scaling-stroke" x="3.643733e+02"/><rect width="3.413333e+00" height="4.400302e+01" vector-effect="non-scaling-stroke" x="3.857067e+02" y="0"/><rect width="3.413333e+00" height="4.461325e+01" vector-effect="non-scaling-stroke" x="4.070400e+02" y="0"/><rect vector-effect="non-scaling-stroke" x="4.283733e+02" y="0" width="3.413333e+00" height="5.363064e+01"/><rect height="4.857884e+01" vector-effect="non-scaling-stroke" x="4.497067e+02" y="0" width="3.413333e+00"/><rect x="4.710400e+02" y="0" width="3.413333e+00" height="5.270000e+01" vector-effect="non-scaling-stroke"/><rect height="4.400037e+01" vector-effect="non-scaling-stroke" x="4.923733e+02" y="0" width="3.413333e+00"/><rect vector-effect="non-scaling-stroke" x="5.137067e+02" y="0" width="3.413333e+00" height="4.828699e+01"/><rect vector-effect="non-scaling-stroke" x="5.350400e+02" y="0" width="3.413333e+00" height="396"/><rect height="4.400366e+01" vector-effect="non-scaling-stroke" x="5.563733e+02" y="0" width="3.413333e+00"/><rect height="5.263723e+01" vector-effect="non-scaling-stroke" x="5.777067e+02" y="0" width="3.413333e+00"/></g><g stroke-linejoin="round" transform="translate(80 520 )scale(1 -1 )" fill="hsl(322, 52%, 65%)" stroke="hsl(322, 52%, 65%)" stroke-width="1px" stroke-linecap="round"><rect height="4.400336e+01" vector-effect="non-scaling-stroke" x="6.912000e+01" y="0" width="3.413333e+00"/><rect width="3.413333e+00" height="4.400024e+01" vector-effect="non-scaling-stroke" x="9.045333e+01" y="0"/><rect x="1.117867e+02" y="0" width="3.413333e+00" height="4.401862e+01" vector-effect="non-scaling-stroke"/><rect width="3.413333e+00" height="4.401235e+01" vector-effect="non-scaling-stroke" x="1.331200e+02" y="0"/><rect width="3.413333e+00" height="4.424434e+01" vector-effect="non-scaling-stroke" x="1.544533e+02" y="0"/><rect vector-effect="non-scaling-stroke" x="1.757867e+02" y="0" width="3.413333e+00" height="4.400024e+01"/><rect height="4.401240e+01" vector-effect="non-scaling-stroke" x="1.971200e+02" y="0" width="3.413333e+00"/><rect height="4.443869e+01" vector-effect="non-scaling-stroke" x="2.184533e+02" y="0" width="3.413333e+00"/><rect height="4.406278e+01" vector-effect="non-scaling-stroke" x="2.397867e+02" y="0" width="3.413333e+00"/><rect height="4.401203e+01" vector-effect="non-scaling-stroke" x="2.611200e+02" y="0" width="3.413333e+00"/><rect width="3.413333e+00" height="4.404783e+01" vector-effect="non-scaling-stroke" x="2.824533e+02" y="0"/><rect vector-effect="non-scaling-stroke" x="3.037867e+02" y="0" width="3.413333e+00" height="4.405568e+01"/><rect width="3.413333e+00" height="4.408893e+01" vector-effect="non-scaling-stroke" x="3.251200e+02" y="0"/><rect y="0" width="3.413333e+00" height="4.402949e+01" vector-effect="non-scaling-stroke" x="3.464533e+02"/><rect vector-effect="non-scaling-stroke" x="3.677867e+02" y="0" width="3.413333e+00" height="4.897439e+01"/><rect y="0" width="3.413333e+00" height="4.411674e+01" vector-effect="non-scaling-stroke" x="3.891200e+02"/><rect x="4.104533e+02" y="0" width="3.413333e+00" height="4.438405e+01" vector-effect="non-scaling-stroke"/><rect y="0" width="3.413333e+00" height="4.770337e+01" vector-effect="non-scaling-stroke" x="4.317867e+02"/><rect width="3.413333e+00" height="4.409476e+01" vector-effect="non-scaling-stroke" x="4.957867e+02" y="0"/></g><g font-style="normal" text-anchor="start" stroke-linejoin="round" dominant-baseline="hanging" font-family="sans-serif" font-weight="normal" stroke-width="1px" stroke="hsl(198, 47%, 65%)" font-size="12px" fill="hsl(198, 47%, 65%)" stroke-linecap="round"><rect width="12" height="12" vector-effect="non-scaling-stroke" x="736" y="430"/><g fill="black" stroke="black"><text dominant-baseline="hanging" stroke="none" vector-effect="non-scaling-stroke" x="752" y="430">Crystal</text></g><g font-style="normal" font-weight="normal" text-anchor="start" stroke="hsl(49, 88%, 65%)" dominant-baseline="hanging" font-size="12px" stroke-width="1px" stroke-linecap="round" font-family="sans-serif" fill="hsl(49, 88%, 65%)" stroke-linejoin="round"><rect x="736" y="448" width="12" height="12" vector-effect="non-scaling-stroke"/><g fill="black" stroke="black"><text vector-effect="non-scaling-stroke" x="752" y="448" dominant-baseline="hanging" stroke="none">Golang</text></g><g stroke-width="1px" stroke-linecap="round" font-family="sans-serif" font-style="normal" text-anchor="start" stroke="hsl(260, 76%, 65%)" dominant-baseline="hanging" font-weight="normal" fill="hsl(260, 76%, 65%)" stroke-linejoin="round" font-size="12px"><rect width="12" height="12" vector-effect="non-scaling-stroke" x="736" y="466"/><g stroke="black" fill="black"><text y="466" dominant-baseline="hanging" stroke="none" vector-effect="non-scaling-stroke" x="752">Haskell</text></g><g font-style="normal" font-weight="normal" stroke-linecap="round" font-size="12px" dominant-baseline="hanging" stroke="hsl(111, 64%, 65%)" stroke-width="1px" font-family="sans-serif" fill="hsl(111, 64%, 65%)" stroke-linejoin="round" text-anchor="start"><rect x="736" y="484" width="12" height="12" vector-effect="non-scaling-stroke"/><g stroke="black" fill="black"><text x="752" y="484" dominant-baseline="hanging" stroke="none" vector-effect="non-scaling-stroke">Rust</text></g><g stroke="hsl(322, 52%, 65%)" stroke-width="1px" font-weight="normal" text-anchor="start" font-family="sans-serif" font-style="normal" fill="hsl(322, 52%, 65%)" stroke-linejoin="round" font-size="12px" dominant-baseline="hanging" stroke-linecap="round"><rect height="12" vector-effect="non-scaling-stroke" x="736" y="502" width="12"/><g stroke="black" fill="black"><text y="502" dominant-baseline="hanging" stroke="none" vector-effect="non-scaling-stroke" x="752">Zig</text><g font-style="normal" font-family="sans-serif" fill="none" dominant-baseline="hanging" stroke-linejoin="round" stroke-linecap="round" font-size="12px" font-weight="normal" text-anchor="start" stroke-width="2px"><rect width="640" height="440" vector-effect="non-scaling-stroke" x="80" y="80"/></g><g stroke="black" stroke-linejoin="round" font-size="12px" stroke-linecap="round" stroke-width="2px" font-family="sans-serif" font-style="normal" font-weight="normal" transform="translate(80 520 )scale(1 -1 )" fill="none" dominant-baseline="hanging" text-anchor="start"><path vector-effect="non-scaling-stroke" d="M64,0 L64,-6 M8.533333e+01,0 L8.533333e+01,-6 M1.066667e+02,0 L1.066667e+02,-6 "/></g><g stroke-width="2px" stroke-linecap="round" stroke="black" stroke-linejoin="round" fill="black" font-style="normal" font-weight="normal" text-anchor="middle" font-family="sans-serif" font-size="12px" dominant-baseline="hanging" transform="translate(80 520 )scale(1 1 )"><text x="64" y="10" dominant-baseline="hanging" stroke="none" vector-effect="non-scaling-stroke">1</text><text vector-effect="non-scaling-stroke" x="8.533333e+01" y="10" dominant-baseline="hanging" stroke="none">2</text><text vector-effect="non-scaling-stroke" x="1.066667e+02" y="10" dominant-baseline="hanging" stroke="none">3</text></g><g stroke-width="2px" font-family="sans-serif" font-style="normal" transform="translate(80 520 )scale(1 1 )rotate(0 0 0 )" stroke="black" stroke-linejoin="round" dominant-baseline="baseline" text-anchor="middle" stroke-linecap="round" font-weight="bold" fill="black" font-size="12px"><text stroke="none" vector-effect="non-scaling-stroke" x="320" y="-6" dominant-baseline="baseline">Day</text></g><g font-size="12px" text-anchor="middle" stroke-width="2px" font-style="normal" font-weight="bold" transform="translate(80 520 )scale(1 -1 )" stroke-linejoin="round" stroke-linecap="round" font-family="sans-serif" fill="black" stroke="black" dominant-baseline="baseline"><path vector-effect="non-scaling-stroke" d="M0,44 L-6,44 M0,8.772606e+01 L-6,8.772606e+01 M0,1.314521e+02 L-6,1.314521e+02 M0,1.751782e+02 L-6,1.751782e+02 M0,2.189042e+02 L-6,2.189042e+02 M0,2.626303e+02 L-6,2.626303e+02 M0,3.063563e+02 L-6,3.063563e+02 M0,3.500824e+02 L-6,3.500824e+02 M0,3.938085e+02 L-6,3.938085e+02 "/></g><g stroke="black" stroke-linejoin="round" stroke-width="2px" stroke-linecap="round" font-family="sans-serif" font-weight="normal" text-anchor="end" font-size="12px" dominant-baseline="middle" transform="translate(80 520 )scale(1 1 )" fill="black" font-style="normal"><text dominant-baseline="middle" stroke="none" vector-effect="non-scaling-stroke" x="-10" y="-44">0s</text><text x="-10" y="-8.772606e+01" dominant-baseline="middle" stroke="none" vector-effect="non-scaling-stroke">200ms</text><text x="-10" y="-1.314521e+02" dominant-baseline="middle" stroke="none" vector-effect="non-scaling-stroke">400ms</text><text x="-10" y="-1.751782e+02" dominant-baseline="middle" stroke="none" vector-effect="non-scaling-stroke">600ms</text><text vector-effect="non-scaling-stroke" x="-10" y="-2.189042e+02" dominant-baseline="middle" stroke="none">800ms</text><text stroke="none" vector-effect="non-scaling-stroke" x="-10" y="-2.626303e+02" dominant-baseline="middle">1s</text><text x="-10" y="-3.063563e+02" dominant-baseline="middle" stroke="none" vector-effect="non-scaling-stroke">1.2s</text><text vector-effect="non-scaling-stroke" x="-10" y="-3.500824e+02" dominant-baseline="middle" stroke="none">1.4s</text><text dominant-baseline="middle" stroke="none" vector-effect="non-scaling-stroke" x="-10" y="-3.938085e+02">1.6s</text></g><g stroke-linecap="round" font-family="sans-serif" font-style="normal" text-anchor="middle" stroke="black" stroke-linejoin="round" transform="translate(80 520 )scale(1 1 )rotate(-90 0 0 )" stroke-width="2px" font-weight="bold" fill="black" font-size="12px" dominant-baseline="hanging"><text dominant-baseline="hanging" stroke="none" vector-effect="non-scaling-stroke" x="220" y="6">Runtime</text></g></g></g></g></g></g></g></svg>