<svg viewbox="0 0 800 600" preserveAspectRatio="xMidYMid meet" xmlns="http://www.w3.org/2000/svg" width="800" height="600"><defs><marker refY="5" markerUnits="userSpaceOnUse" markerWidth="2%" markerHeight="2%" id="circle" viewBox="0 0 10 10 " refX="5"><circle cx="5" cy="5" r="3" fill="none" stroke="black"/></marker><marker refY="5" markerUnits="userSpaceOnUse" markerWidth="2%" markerHeight="2%" id="filled-circle" viewBox="0 0 10 10 " refX="5"><circle stroke="none" cx="5" cy="5" r="3" fill="black"/></marker><marker viewBox="0 0 10 10 " refX="5" refY="5" markerUnits="userSpaceOnUse" markerWidth="2%" markerHeight="2%" id="square"><rect height="6" fill="none" stroke="black" x="2" y="2" width="6"/></marker><marker markerUnits="userSpaceOnUse" markerWidth="2%" markerHeight="2%" id="filled-square" viewBox="0 0 10 10 " refX="5" refY="5"><rect height="6" fill="black" stroke="none" x="2" y="2" width="6"/></marker></defs><g stroke-linecap="round" stroke-linejoin="round" transform="translate(80 520 )scale(1 -1 )" fill="hsl(198, 47%, 65%)" stroke="hsl(198, 47%, 65%)" stroke-width="1px"><rect width="1.422222e+01" height="4.423525e+01" vector-effect="non-scaling-stroke" x="4.977778e+01" y="0"/><rect y="0" width="1.422222e+01" height="4.423326e+01" vector-effect="non-scaling-stroke" x="7.111111e+01"/><rect y="0" width="1.422222e+01" height="4.414482e+01" vector-effect="non-scaling-stroke" x="9.244444e+01"/><rect height="4.533401e+01" vector-effect="non-scaling-stroke" x="1.137778e+02" y="0" width="1.422222e+01"/><rect vector-effect="non-scaling-stroke" x="1.351111e+02" y="0" width="1.422222e+01" height="4.414970e+01"/><rect height="396" vector-effect="non-scaling-stroke" x="1.564444e+02" y="0" width="1.422222e+01"/><rect vector-effect="non-scaling-stroke" x="1.777778e+02" y="0" width="1.422222e+01" height="1.265206e+02"/><rect width="1.422222e+01" height="4.403414e+01" vector-effect="non-scaling-stroke" x="1.991111e+02" y="0"/><rect x="2.204444e+02" y="0" width="1.422222e+01" height="5.167989e+01" vector-effect="non-scaling-stroke"/><rect vector-effect="non-scaling-stroke" x="2.417778e+02" y="0" width="1.422222e+01" height="4.622438e+01"/><rect y="0" width="1.422222e+01" height="5.088639e+01" vector-effect="non-scaling-stroke" x="2.631111e+02"/><rect width="1.422222e+01" height="4.690133e+01" vector-effect="non-scaling-stroke" x="2.844444e+02" y="0"/><rect vector-effect="non-scaling-stroke" x="3.057778e+02" y="0" width="1.422222e+01" height="4.403436e+01"/><rect vector-effect="non-scaling-stroke" x="3.271111e+02" y="0" width="1.422222e+01" height="7.156957e+01"/><rect x="3.484444e+02" y="0" width="1.422222e+01" height="4.723968e+01" vector-effect="non-scaling-stroke"/></g><g stroke-linecap="round" stroke-linejoin="round" transform="translate(80 520 )scale(1 -1 )" fill="hsl(49, 88%, 65%)" stroke="hsl(49, 88%, 65%)" stroke-width="1px"><rect height="4.422948e+01" vector-effect="non-scaling-stroke" x="64" y="0" width="1.422222e+01"/><rect x="8.533333e+01" y="0" width="1.422222e+01" height="4.421116e+01" vector-effect="non-scaling-stroke"/><rect vector-effect="non-scaling-stroke" x="1.066667e+02" y="0" width="1.422222e+01" height="4.404346e+01"/><rect width="1.422222e+01" height="4.622662e+01" vector-effect="non-scaling-stroke" x="128" y="0"/><rect width="1.422222e+01" height="4.410670e+01" vector-effect="non-scaling-stroke" x="1.493333e+02" y="0"/><rect height="3.114004e+02" vector-effect="non-scaling-stroke" x="1.706667e+02" y="0" width="1.422222e+01"/><rect y="0" width="1.422222e+01" height="1.275011e+02" vector-effect="non-scaling-stroke" x="192"/><rect vector-effect="non-scaling-stroke" x="2.133333e+02" y="0" width="1.422222e+01" height="4.401625e+01"/><rect x="2.346667e+02" y="0" width="1.422222e+01" height="4.690768e+01" vector-effect="non-scaling-stroke"/><rect x="2.560000e+02" y="0" width="1.422222e+01" height="4.418291e+01" vector-effect="non-scaling-stroke"/><rect y="0" width="1.422222e+01" height="4.918509e+01" vector-effect="non-scaling-stroke" x="2.773333e+02"/><rect x="2.986667e+02" y="0" width="1.422222e+01" height="4.621178e+01" vector-effect="non-scaling-stroke"/><rect y="0" width="1.422222e+01" height="4.402768e+01" vector-effect="non-scaling-stroke" x="320"/><rect width="1.422222e+01" height="6.266067e+01" vector-effect="non-scaling-stroke" x="3.413333e+02" y="0"/><rect height="5.329766e+01" vector-effect="non-scaling-stroke" x="3.626667e+02" y="0" width="1.422222e+01"/></g><g stroke="hsl(198, 47%, 65%)" stroke-linejoin="round" stroke-width="1px" stroke-linecap="round" font-size="12px" font-family="sans-serif" font-weight="normal" text-anchor="start" font-style="normal" fill="hsl(198, 47%, 65%)" dominant-baseline="hanging"><rect x="736" y="484" width="12" height="12" vector-effect="non-scaling-stroke"/><g fill="black" stroke="black"><text dominant-baseline="hanging" stroke="none" vector-effect="non-scaling-stroke" x="752" y="484">Golang</text></g><g font-weight="normal" stroke-linecap="round" font-size="12px" stroke="hsl(49, 88%, 65%)" text-anchor="start" dominant-baseline="hanging" font-style="normal" fill="hsl(49, 88%, 65%)" stroke-width="1px" stroke-linejoin="round" font-family="sans-serif"><rect y="502" width="12" height="12" vector-effect="non-scaling-stroke" x="736"/><g fill="black" stroke="black"><text vector-effect="non-scaling-stroke" x="752" y="502" dominant-baseline="hanging" stroke="none">Rust</text><g font-weight="normal" font-style="normal" fill="none" stroke-width="2px" font-family="sans-serif" stroke-linejoin="round" text-anchor="start" dominant-baseline="hanging" stroke-linecap="round" font-size="12px"><rect width="640" height="440" vector-effect="non-scaling-stroke" x="80" y="80"/></g><g transform="translate(80 520 )scale(1 -1 )" font-family="sans-serif" text-anchor="start" dominant-baseline="hanging" font-style="normal" fill="none" stroke="black" stroke-linejoin="round" font-weight="normal" stroke-width="2px" stroke-linecap="round" font-size="12px"><path vector-effect="non-scaling-stroke" d="M64,0 L64,-6 M8.533333e+01,0 L8.533333e+01,-6 M1.066667e+02,0 L1.066667e+02,-6 M128,0 L128,-6 M1.493333e+02,0 L1.493333e+02,-6 M1.706667e+02,0 L1.706667e+02,-6 M192,0 L192,-6 M2.133333e+02,0 L2.133333e+02,-6 M2.346667e+02,0 L2.346667e+02,-6 M256,0 L256,-6 M2.773333e+02,0 L2.773333e+02,-6 M2.986667e+02,0 L2.986667e+02,-6 M320,0 L320,-6 M3.413333e+02,0 L3.413333e+02,-6 M3.626667e+02,0 L3.626667e+02,-6 "/></g><g font-family="sans-serif" text-anchor="middle" fill="black" stroke-width="2px" stroke-linecap="round" font-style="normal" stroke-linejoin="round" stroke="black" font-size="12px" font-weight="normal" dominant-baseline="hanging" transform="translate(80 520 )scale(1 1 )"><text stroke="none" vector-effect="non-scaling-stroke" x="64" y="10" dominant-baseline="hanging">1</text><text x="8.533333e+01" y="10" dominant-baseline="hanging" stroke="none" vector-effect="non-scaling-stroke">2</text><text x="1.066667e+02" y="10" dominant-baseline="hanging" stroke="none" vector-effect="non-scaling-stroke">3</text><text stroke="none" vector-effect="non-scaling-stroke" x="128" y="10" dominant-baseline="hanging">4</text><text stroke="none" vector-effect="non-scaling-stroke" x="1.493333e+02" y="10" dominant-baseline="hanging">5</text><text y="10" dominant-baseline="hanging" stroke="none" vector-effect="non-scaling-stroke" x="1.706667e+02">6</text><text stroke="none" vector-effect="non-scaling-stroke" x="192" y="10" dominant-baseline="hanging">7</text><text vector-effect="non-scaling-stroke" x="2.133333e+02" y="10" dominant-baseline="hanging" stroke="none">8</text><text vector-effect="non-scaling-stroke" x="2.346667e+02" y="10" dominant-baseline="hanging" stroke="none">9</text><text stroke="none" vector-effect="non-scaling-stroke" x="256" y="10" dominant-baseline="hanging">10</text><text stroke="none" vector-effect="non-scaling-stroke" x="2.773333e+02" y="10" dominant-baseline="hanging">11</text><text vector-effect="non-scaling-stroke" x="2.986667e+02" y="10" dominant-baseline="hanging" stroke="none">12</text><text dominant-baseline="hanging" stroke="none" vector-effect="non-scaling-stroke" x="320" y="10">13</text><text dominant-baseline="hanging" stroke="none" vector-effect="non-scaling-stroke" x="3.413333e+02" y="10">14</text><text y="10" dominant-baseline="hanging" stroke="none" vector-effect="non-scaling-stroke" x="3.626667e+02">15</text></g><g stroke-linecap="round" font-style="normal" stroke="black" stroke-width="2px" dominant-baseline="baseline" font-weight="bold" font-size="12px" fill="black" text-anchor="middle" transform="translate(80 520 )scale(1 1 )rotate(0 0 0 )" stroke-linejoin="round" font-family="sans-serif"><text vector-effect="non-scaling-stroke" x="320" y="-6" dominant-baseline="baseline" stroke="none">Day</text></g><g stroke-width="2px" stroke-linecap="round" transform="translate(80 520 )scale(1 -1 )" stroke-linejoin="round" font-family="sans-serif" font-weight="bold" font-style="normal" fill="black" dominant-baseline="baseline" text-anchor="middle" font-size="12px" stroke="black"><path d="M0,44 L-6,44 M0,9.307912e+01 L-6,9.307912e+01 M0,1.421582e+02 L-6,1.421582e+02 M0,1.912374e+02 L-6,1.912374e+02 M0,2.403165e+02 L-6,2.403165e+02 M0,2.893956e+02 L-6,2.893956e+02 M0,3.384747e+02 L-6,3.384747e+02 M0,3.875538e+02 L-6,3.875538e+02 " vector-effect="non-scaling-stroke"/></g><g stroke="black" stroke-width="2px" font-size="12px" stroke-linejoin="round" dominant-baseline="middle" text-anchor="end" transform="translate(80 520 )scale(1 1 )" fill="black" stroke-linecap="round" font-style="normal" font-family="sans-serif" font-weight="normal"><text vector-effect="non-scaling-stroke" x="-10" y="-44" dominant-baseline="middle" stroke="none">0s</text><text dominant-baseline="middle" stroke="none" vector-effect="non-scaling-stroke" x="-10" y="-9.307912e+01">10ms</text><text dominant-baseline="middle" stroke="none" vector-effect="non-scaling-stroke" x="-10" y="-1.421582e+02">20ms</text><text y="-1.912374e+02" dominant-baseline="middle" stroke="none" vector-effect="non-scaling-stroke" x="-10">30ms</text><text dominant-baseline="middle" stroke="none" vector-effect="non-scaling-stroke" x="-10" y="-2.403165e+02">40ms</text><text stroke="none" vector-effect="non-scaling-stroke" x="-10" y="-2.893956e+02" dominant-baseline="middle">50ms</text><text vector-effect="non-scaling-stroke" x="-10" y="-3.384747e+02" dominant-baseline="middle" stroke="none">60ms</text><text stroke="none" vector-effect="non-scaling-stroke" x="-10" y="-3.875538e+02" dominant-baseline="middle">70ms</text></g><g font-family="sans-serif" text-anchor="middle" stroke="black" stroke-linecap="round" font-size="12px" stroke-linejoin="round" dominant-baseline="hanging" transform="translate(80 520 )scale(1 1 )rotate(-90 0 0 )" fill="black" stroke-width="2px" font-style="normal" font-weight="bold"><text dominant-baseline="hanging" stroke="none" vector-effect="non-scaling-stroke" x="220" y="6">Runtime</text></g></g></g></g></svg>