<svg preserveAspectRatio="xMidYMid meet" xmlns="http://www.w3.org/2000/svg" width="800" height="600" viewbox="0 0 800 600"><defs><marker refY="5" markerUnits="userSpaceOnUse" markerWidth="2%" markerHeight="2%" id="circle" viewBox="0 0 10 10 " refX="5"><circle r="3" fill="none" stroke="black" cx="5" cy="5"/></marker><marker viewBox="0 0 10 10 " refX="5" refY="5" markerUnits="userSpaceOnUse" markerWidth="2%" markerHeight="2%" id="filled-circle"><circle r="3" fill="black" stroke="none" cx="5" cy="5"/></marker><marker refX="5" refY="5" markerUnits="userSpaceOnUse" markerWidth="2%" markerHeight="2%" id="square" viewBox="0 0 10 10 "><rect x="2" y="2" width="6" height="6" fill="none" stroke="black"/></marker><marker markerHeight="2%" id="filled-square" viewBox="0 0 10 10 " refX="5" refY="5" markerUnits="userSpaceOnUse" markerWidth="2%"><rect y="2" width="6" height="6" fill="black" stroke="none" x="2"/></marker></defs><g stroke-linecap="round" stroke-linejoin="round" transform="translate(80 520 )scale(1 -1 )" fill="hsl(198, 47%, 65%)" stroke="hsl(198, 47%, 65%)" stroke-width="1px"><rect width="2.750000e+01" height="396" vector-effect="non-scaling-stroke" x="3.650000e+01" y="0"/></g><g transform="translate(80 520 )scale(1 -1 )" fill="hsl(49, 88%, 65%)" stroke="hsl(49, 88%, 65%)" stroke-width="1px" stroke-linecap="round" stroke-linejoin="round"><rect y="0" width="2.750000e+01" height="3.155621e+02" vector-effect="non-scaling-stroke" x="64"/></g><g fill="hsl(198, 47%, 65%)" stroke="hsl(198, 47%, 65%)" stroke-width="1px" font-style="normal" stroke-linecap="round" stroke-linejoin="round" font-family="sans-serif" font-size="12px" font-weight="normal" dominant-baseline="hanging" text-anchor="start"><rect vector-effect="non-scaling-stroke" x="736" y="484" width="12" height="12"/><g fill="black" stroke="black"><text stroke="none" vector-effect="non-scaling-stroke" x="752" y="484" dominant-baseline="hanging">Golang</text></g><g font-size="12px" font-weight="normal" fill="hsl(49, 88%, 65%)" stroke-linecap="round" font-family="sans-serif" font-style="normal" stroke="hsl(49, 88%, 65%)" stroke-width="1px" dominant-baseline="hanging" text-anchor="start" stroke-linejoin="round"><rect vector-effect="non-scaling-stroke" x="736" y="502" width="12" height="12"/><g fill="black" stroke="black"><text dominant-baseline="hanging" stroke="none" vector-effect="non-scaling-stroke" x="752" y="502">Rust</text><g font-family="sans-serif" font-size="12px" text-anchor="start" stroke-width="2px" dominant-baseline="hanging" stroke-linejoin="round" fill="none" stroke-linecap="round" font-style="normal" font-weight="normal"><rect x="80" y="80" width="640" height="440" vector-effect="non-scaling-stroke"/></g><g stroke-width="2px" font-size="12px" font-style="normal" fill="none" transform="translate(80 520 )scale(1 -1 )" dominant-baseline="hanging" stroke="black" stroke-linecap="round" stroke-linejoin="round" font-family="sans-serif" font-weight="normal" text-anchor="start"><path vector-effect="non-scaling-stroke" d="M64,0 L64,-6 "/></g><g transform="translate(80 520 )scale(1 1 )" dominant-baseline="hanging" stroke-linecap="round" stroke-width="2px" font-weight="normal" font-family="sans-serif" font-size="12px" font-style="normal" fill="black" text-anchor="middle" stroke="black" stroke-linejoin="round"><text stroke="none" vector-effect="non-scaling-stroke" x="64" y="10" dominant-baseline="hanging">1</text></g><g font-size="12px" font-style="normal" stroke-linecap="round" text-anchor="middle" stroke-width="2px" stroke-linejoin="round" font-family="sans-serif" fill="black" stroke="black" font-weight="bold" dominant-baseline="baseline" transform="translate(80 520 )scale(1 1 )rotate(0 0 0 )"><text vector-effect="non-scaling-stroke" x="320" y="-6" dominant-baseline="baseline" stroke="none">Day</text></g><g font-size="12px" dominant-baseline="baseline" stroke-linecap="round" font-style="normal" fill="black" font-family="sans-serif" stroke-linejoin="round" transform="translate(80 520 )scale(1 -1 )" text-anchor="middle" font-weight="bold" stroke="black" stroke-width="2px"><path vector-effect="non-scaling-stroke" d="M0,3.133233e+02 L-6,3.133233e+02 M0,3.245452e+02 L-6,3.245452e+02 M0,3.357670e+02 L-6,3.357670e+02 M0,3.469888e+02 L-6,3.469888e+02 M0,3.582106e+02 L-6,3.582106e+02 M0,3.694324e+02 L-6,3.694324e+02 M0,3.806542e+02 L-6,3.806542e+02 M0,3.918760e+02 L-6,3.918760e+02 "/></g><g text-anchor="end" font-weight="normal" fill="black" stroke-width="2px" font-family="sans-serif" dominant-baseline="middle" transform="translate(80 520 )scale(1 1 )" stroke-linecap="round" stroke="black" stroke-linejoin="round" font-size="12px" font-style="normal"><text y="-3.133233e+02" dominant-baseline="middle" stroke="none" vector-effect="non-scaling-stroke" x="-10">48µs</text><text y="-3.357670e+02" dominant-baseline="middle" stroke="none" vector-effect="non-scaling-stroke" x="-10">52µs</text><text stroke="none" vector-effect="non-scaling-stroke" x="-10" y="-3.582106e+02" dominant-baseline="middle">56µs</text><text stroke="none" vector-effect="non-scaling-stroke" x="-10" y="-3.806542e+02" dominant-baseline="middle">60µs</text></g><g fill="black" stroke-width="2px" font-family="sans-serif" dominant-baseline="hanging" font-size="12px" transform="translate(80 520 )scale(1 1 )rotate(-90 0 0 )" stroke-linecap="round" text-anchor="middle" font-style="normal" font-weight="bold" stroke="black" stroke-linejoin="round"><text x="220" y="6" dominant-baseline="hanging" stroke="none" vector-effect="non-scaling-stroke">Runtime</text></g></g></g></g></svg>