<svg preserveAspectRatio="xMidYMid meet" xmlns="http://www.w3.org/2000/svg" width="800" height="600" viewbox="0 0 800 600"><defs><marker refX="5" refY="5" markerUnits="userSpaceOnUse" markerWidth="2%" markerHeight="2%" id="circle" viewBox="0 0 10 10 "><circle cx="5" cy="5" r="3" fill="none" stroke="black"/></marker><marker viewBox="0 0 10 10 " refX="5" refY="5" markerUnits="userSpaceOnUse" markerWidth="2%" markerHeight="2%" id="filled-circle"><circle r="3" fill="black" stroke="none" cx="5" cy="5"/></marker><marker viewBox="0 0 10 10 " refX="5" refY="5" markerUnits="userSpaceOnUse" markerWidth="2%" markerHeight="2%" id="square"><rect y="2" width="6" height="6" fill="none" stroke="black" x="2"/></marker><marker markerUnits="userSpaceOnUse" markerWidth="2%" markerHeight="2%" id="filled-square" viewBox="0 0 10 10 " refX="5" refY="5"><rect stroke="none" x="2" y="2" width="6" height="6" fill="black"/></marker></defs><g transform="translate(80 520 )scale(1 -1 )" fill="hsl(198, 47%, 65%)" stroke="hsl(198, 47%, 65%)" stroke-width="1px" stroke-linecap="round" stroke-linejoin="round"><rect x="5.511111e+01" y="0" width="5.925926e+00" height="4.413509e+01" vector-effect="non-scaling-stroke"/><rect width="5.925926e+00" height="4.400498e+01" vector-effect="non-scaling-stroke" x="7.644444e+01" y="0"/><rect height="4.402067e+01" vector-effect="non-scaling-stroke" x="9.777778e+01" y="0" width="5.925926e+00"/><rect height="4.402336e+01" vector-effect="non-scaling-stroke" x="1.191111e+02" y="0" width="5.925926e+00"/><rect x="1.404444e+02" y="0" width="5.925926e+00" height="4.404148e+01" vector-effect="non-scaling-stroke"/><rect vector-effect="non-scaling-stroke" x="1.617778e+02" y="0" width="5.925926e+00" height="4.400009e+01"/><rect vector-effect="non-scaling-stroke" x="1.831111e+02" y="0" width="5.925926e+00" height="4.425278e+01"/><rect vector-effect="non-scaling-stroke" x="2.044444e+02" y="0" width="5.925926e+00" height="4.464081e+01"/><rect height="4.402609e+01" vector-effect="non-scaling-stroke" x="2.257778e+02" y="0" width="5.925926e+00"/><rect width="5.925926e+00" height="4.481287e+01" vector-effect="non-scaling-stroke" x="2.471111e+02" y="0"/><rect width="5.925926e+00" height="4.400899e+01" vector-effect="non-scaling-stroke" x="2.684444e+02" y="0"/><rect x="2.897778e+02" y="0" width="5.925926e+00" height="5.160957e+01" vector-effect="non-scaling-stroke"/><rect y="0" width="5.925926e+00" height="4.407584e+01" vector-effect="non-scaling-stroke" x="3.111111e+02"/><rect vector-effect="non-scaling-stroke" x="3.324444e+02" y="0" width="5.925926e+00" height="5.514317e+01"/><rect x="3.537778e+02" y="0" width="5.925926e+00" height="4.409616e+01" vector-effect="non-scaling-stroke"/><rect height="5.886315e+01" vector-effect="non-scaling-stroke" x="3.751111e+02" y="0" width="5.925926e+00"/><rect height="1.963930e+02" vector-effect="non-scaling-stroke" x="3.964444e+02" y="0" width="5.925926e+00"/><rect height="4.400459e+01" vector-effect="non-scaling-stroke" x="4.177778e+02" y="0" width="5.925926e+00"/><rect x="4.391111e+02" y="0" width="5.925926e+00" height="4.419636e+01" vector-effect="non-scaling-stroke"/><rect x="4.604444e+02" y="0" width="5.925926e+00" height="4.487038e+01" vector-effect="non-scaling-stroke"/><rect y="0" width="5.925926e+00" height="6.368420e+01" vector-effect="non-scaling-stroke" x="4.817778e+02"/><rect vector-effect="non-scaling-stroke" x="5.031111e+02" y="0" width="5.925926e+00" height="4.749782e+01"/><rect vector-effect="non-scaling-stroke" x="5.244444e+02" y="0" width="5.925926e+00" height="396"/><rect vector-effect="non-scaling-stroke" x="5.671111e+02" y="0" width="5.925926e+00" height="7.612503e+01"/></g><g stroke-linejoin="round" transform="translate(80 520 )scale(1 -1 )" fill="hsl(49, 88%, 65%)" stroke="hsl(49, 88%, 65%)" stroke-width="1px" stroke-linecap="round"><rect height="4.406238e+01" vector-effect="non-scaling-stroke" x="6.103704e+01" y="0" width="5.925926e+00"/><rect y="0" width="5.925926e+00" height="4.400167e+01" vector-effect="non-scaling-stroke" x="8.237037e+01"/><rect height="4.401651e+01" vector-effect="non-scaling-stroke" x="1.037037e+02" y="0" width="5.925926e+00"/><rect x="1.250370e+02" y="0" width="5.925926e+00" height="4.401166e+01" vector-effect="non-scaling-stroke"/><rect width="5.925926e+00" height="4.400865e+01" vector-effect="non-scaling-stroke" x="1.463704e+02" y="0"/><rect vector-effect="non-scaling-stroke" x="1.677037e+02" y="0" width="5.925926e+00" height="4.400007e+01"/><rect vector-effect="non-scaling-stroke" x="1.890370e+02" y="0" width="5.925926e+00" height="4.404799e+01"/><rect vector-effect="non-scaling-stroke" x="2.103704e+02" y="0" width="5.925926e+00" height="4.561821e+01"/><rect vector-effect="non-scaling-stroke" x="2.317037e+02" y="0" width="5.925926e+00" height="4.401578e+01"/><rect vector-effect="non-scaling-stroke" x="2.530370e+02" y="0" width="5.925926e+00" height="4.406912e+01"/><rect vector-effect="non-scaling-stroke" x="2.743704e+02" y="0" width="5.925926e+00" height="4.400811e+01"/><rect y="0" width="5.925926e+00" height="5.494164e+01" vector-effect="non-scaling-stroke" x="2.957037e+02"/><rect width="5.925926e+00" height="4.404161e+01" vector-effect="non-scaling-stroke" x="3.170370e+02" y="0"/><rect vector-effect="non-scaling-stroke" x="3.383704e+02" y="0" width="5.925926e+00" height="5.553061e+01"/><rect y="0" width="5.925926e+00" height="4.404246e+01" vector-effect="non-scaling-stroke" x="3.597037e+02"/><rect vector-effect="non-scaling-stroke" x="3.810370e+02" y="0" width="5.925926e+00" height="5.668094e+01"/><rect vector-effect="non-scaling-stroke" x="4.023704e+02" y="0" width="5.925926e+00" height="2.379999e+02"/><rect height="4.400203e+01" vector-effect="non-scaling-stroke" x="4.237037e+02" y="0" width="5.925926e+00"/><rect x="4.450370e+02" y="0" width="5.925926e+00" height="4.409737e+01" vector-effect="non-scaling-stroke"/><rect width="5.925926e+00" height="4.612546e+01" vector-effect="non-scaling-stroke" x="4.663704e+02" y="0"/><rect vector-effect="non-scaling-stroke" x="4.877037e+02" y="0" width="5.925926e+00" height="5.291718e+01"/><rect y="0" width="5.925926e+00" height="4.489231e+01" vector-effect="non-scaling-stroke" x="5.090370e+02"/><rect y="0" width="5.925926e+00" height="2.423926e+02" vector-effect="non-scaling-stroke" x="5.303704e+02"/><rect height="4.877518e+01" vector-effect="non-scaling-stroke" x="5.730370e+02" y="0" width="5.925926e+00"/></g><g transform="translate(80 520 )scale(1 -1 )" fill="hsl(260, 76%, 65%)" stroke="hsl(260, 76%, 65%)" stroke-width="1px" stroke-linecap="round" stroke-linejoin="round"><rect height="4.405134e+01" vector-effect="non-scaling-stroke" x="6.696296e+01" y="0" width="5.925926e+00"/><rect vector-effect="non-scaling-stroke" x="8.829630e+01" y="0" width="5.925926e+00" height="4.400163e+01"/><rect x="1.096296e+02" y="0" width="5.925926e+00" height="4.401253e+01" vector-effect="non-scaling-stroke"/><rect width="5.925926e+00" height="4.403381e+01" vector-effect="non-scaling-stroke" x="1.309630e+02" y="0"/><rect vector-effect="non-scaling-stroke" x="1.522963e+02" y="0" width="5.925926e+00" height="4.534114e+01"/><rect x="1.736296e+02" y="0" width="5.925926e+00" height="4.400006e+01" vector-effect="non-scaling-stroke"/><rect width="5.925926e+00" height="4.407397e+01" vector-effect="non-scaling-stroke" x="1.949630e+02" y="0"/><rect x="2.162963e+02" y="0" width="5.925926e+00" height="4.415193e+01" vector-effect="non-scaling-stroke"/><rect height="4.401360e+01" vector-effect="non-scaling-stroke" x="2.376296e+02" y="0" width="5.925926e+00"/><rect x="2.589630e+02" y="0" width="5.925926e+00" height="4.406030e+01" vector-effect="non-scaling-stroke"/><rect vector-effect="non-scaling-stroke" x="2.802963e+02" y="0" width="5.925926e+00" height="4.400736e+01"/><rect y="0" width="5.925926e+00" height="5.546774e+01" vector-effect="non-scaling-stroke" x="3.016296e+02"/><rect x="3.229630e+02" y="0" width="5.925926e+00" height="4.406355e+01" vector-effect="non-scaling-stroke"/><rect x="3.656296e+02" y="0" width="5.925926e+00" height="4.404290e+01" vector-effect="non-scaling-stroke"/><rect x="3.869630e+02" y="0" width="5.925926e+00" height="7.342245e+01" vector-effect="non-scaling-stroke"/><rect y="0" width="5.925926e+00" height="4.400257e+01" vector-effect="non-scaling-stroke" x="4.296296e+02"/><rect vector-effect="non-scaling-stroke" x="4.509630e+02" y="0" width="5.925926e+00" height="4.640678e+01"/></g><g font-family="sans-serif" font-weight="normal" stroke-linecap="round" font-size="12px" dominant-baseline="hanging" fill="hsl(198, 47%, 65%)" stroke-width="1px" stroke-linejoin="round" text-anchor="start" font-style="normal" stroke="hsl(198, 47%, 65%)"><rect y="466" width="12" height="12" vector-effect="non-scaling-stroke" x="736"/><g fill="black" stroke="black"><text stroke="none" vector-effect="non-scaling-stroke" x="752" y="466" dominant-baseline="hanging">Golang</text></g><g font-style="normal" dominant-baseline="hanging" stroke="hsl(49, 88%, 65%)" stroke-width="1px" stroke-linecap="round" font-family="sans-serif" font-weight="normal" font-size="12px" text-anchor="start" fill="hsl(49, 88%, 65%)" stroke-linejoin="round"><rect y="484" width="12" height="12" vector-effect="non-scaling-stroke" x="736"/><g fill="black" stroke="black"><text vector-effect="non-scaling-stroke" x="752" y="484" dominant-baseline="hanging" stroke="none">Rust</text></g><g stroke-linecap="round" fill="hsl(260, 76%, 65%)" font-weight="normal" stroke="hsl(260, 76%, 65%)" stroke-width="1px" stroke-linejoin="round" font-family="sans-serif" font-size="12px" font-style="normal" dominant-baseline="hanging" text-anchor="start"><rect height="12" vector-effect="non-scaling-stroke" x="736" y="502" width="12"/><g fill="black" stroke="black"><text vector-effect="non-scaling-stroke" x="752" y="502" dominant-baseline="hanging" stroke="none">Zig</text><g font-size="12px" stroke-width="2px" text-anchor="start" fill="none" font-weight="normal" font-style="normal" dominant-baseline="hanging" font-family="sans-serif" stroke-linecap="round" stroke-linejoin="round"><rect vector-effect="non-scaling-stroke" x="80" y="80" width="640" height="440"/></g><g stroke-linecap="round" font-style="normal" dominant-baseline="hanging" stroke="black" stroke-linejoin="round" font-family="sans-serif" font-weight="normal" text-anchor="start" font-size="12px" transform="translate(80 520 )scale(1 -1 )" fill="none" stroke-width="2px"><path vector-effect="non-scaling-stroke" d="M64,0 L64,-6 M8.533333e+01,0 L8.533333e+01,-6 M1.066667e+02,0 L1.066667e+02,-6 M128,0 L128,-6 M1.493333e+02,0 L1.493333e+02,-6 M1.706667e+02,0 L1.706667e+02,-6 M192,0 L192,-6 M2.133333e+02,0 L2.133333e+02,-6 M2.346667e+02,0 L2.346667e+02,-6 M256,0 L256,-6 M2.773333e+02,0 L2.773333e+02,-6 M2.986667e+02,0 L2.986667e+02,-6 M320,0 L320,-6 M3.413333e+02,0 L3.413333e+02,-6 M3.626667e+02,0 L3.626667e+02,-6 M384,0 L384,-6 M4.053333e+02,0 L4.053333e+02,-6 M4.266667e+02,0 L4.266667e+02,-6 M448,0 L448,-6 M4.693333e+02,0 L4.693333e+02,-6 M4.906667e+02,0 L4.906667e+02,-6 M512,0 L512,-6 M5.333333e+02,0 L5.333333e+02,-6 M576,0 L576,-6 "/></g><g transform="translate(80 520 )scale(1 1 )" font-size="12px" stroke-width="2px" font-family="sans-serif" text-anchor="middle" stroke="black" font-style="normal" stroke-linecap="round" stroke-linejoin="round" font-weight="normal" fill="black" dominant-baseline="hanging"><text dominant-baseline="hanging" stroke="none" vector-effect="non-scaling-stroke" x="64" y="10">1</text><text y="10" dominant-baseline="hanging" stroke="none" vector-effect="non-scaling-stroke" x="8.533333e+01">2</text><text stroke="none" vector-effect="non-scaling-stroke" x="1.066667e+02" y="10" dominant-baseline="hanging">3</text><text stroke="none" vector-effect="non-scaling-stroke" x="128" y="10" dominant-baseline="hanging">4</text><text dominant-baseline="hanging" stroke="none" vector-effect="non-scaling-stroke" x="1.493333e+02" y="10">5</text><text x="1.706667e+02" y="10" dominant-baseline="hanging" stroke="none" vector-effect="non-scaling-stroke">6</text><text y="10" dominant-baseline="hanging" stroke="none" vector-effect="non-scaling-stroke" x="192">7</text><text stroke="none" vector-effect="non-scaling-stroke" x="2.133333e+02" y="10" dominant-baseline="hanging">8</text><text stroke="none" vector-effect="non-scaling-stroke" x="2.346667e+02" y="10" dominant-baseline="hanging">9</text><text x="256" y="10" dominant-baseline="hanging" stroke="none" vector-effect="non-scaling-stroke">10</text><text y="10" dominant-baseline="hanging" stroke="none" vector-effect="non-scaling-stroke" x="2.773333e+02">11</text><text stroke="none" vector-effect="non-scaling-stroke" x="2.986667e+02" y="10" dominant-baseline="hanging">12</text><text y="10" dominant-baseline="hanging" stroke="none" vector-effect="non-scaling-stroke" x="320">13</text><text y="10" dominant-baseline="hanging" stroke="none" vector-effect="non-scaling-stroke" x="3.413333e+02">14</text><text vector-effect="non-scaling-stroke" x="3.626667e+02" y="10" dominant-baseline="hanging" stroke="none">15</text><text vector-effect="non-scaling-stroke" x="384" y="10" dominant-baseline="hanging" stroke="none">16</text><text y="10" dominant-baseline="hanging" stroke="none" vector-effect="non-scaling-stroke" x="4.053333e+02">17</text><text x="4.266667e+02" y="10" dominant-baseline="hanging" stroke="none" vector-effect="non-scaling-stroke">18</text><text vector-effect="non-scaling-stroke" x="448" y="10" dominant-baseline="hanging" stroke="none">19</text><text dominant-baseline="hanging" stroke="none" vector-effect="non-scaling-stroke" x="4.693333e+02" y="10">20</text><text stroke="none" vector-effect="non-scaling-stroke" x="4.906667e+02" y="10" dominant-baseline="hanging">21</text><text vector-effect="non-scaling-stroke" x="512" y="10" dominant-baseline="hanging" stroke="none">22</text><text x="5.333333e+02" y="10" dominant-baseline="hanging" stroke="none" vector-effect="non-scaling-stroke">23</text><text x="576" y="10" dominant-baseline="hanging" stroke="none" vector-effect="non-scaling-stroke">25</text></g><g font-size="12px" transform="translate(80 520 )scale(1 1 )rotate(0 0 0 )" text-anchor="middle" fill="black" stroke="black" stroke-linejoin="round" font-style="normal" dominant-baseline="baseline" font-weight="bold" stroke-width="2px" font-family="sans-serif" stroke-linecap="round"><text x="320" y="-6" dominant-baseline="baseline" stroke="none" vector-effect="non-scaling-stroke">Day</text></g><g stroke-linecap="round" font-size="12px" stroke="black" stroke-linejoin="round" text-anchor="middle" font-family="sans-serif" font-weight="bold" font-style="normal" dominant-baseline="baseline" transform="translate(80 520 )scale(1 -1 )" fill="black" stroke-width="2px"><path vector-effect="non-scaling-stroke" d="M0,44 L-6,44 M0,1.122217e+02 L-6,1.122217e+02 M0,1.804435e+02 L-6,1.804435e+02 M0,2.486652e+02 L-6,2.486652e+02 M0,3.168869e+02 L-6,3.168869e+02 M0,3.851087e+02 L-6,3.851087e+02 "/></g><g dominant-baseline="middle" transform="translate(80 520 )scale(1 1 )" font-family="sans-serif" stroke-width="2px" fill="black" stroke="black" stroke-linecap="round" font-size="12px" font-style="normal" stroke-linejoin="round" font-weight="normal" text-anchor="end"><text y="-44" dominant-baseline="middle" stroke="none" vector-effect="non-scaling-stroke" x="-10">0s</text><text stroke="none" vector-effect="non-scaling-stroke" x="-10" y="-1.122217e+02" dominant-baseline="middle">100ms</text><text vector-effect="non-scaling-stroke" x="-10" y="-1.804435e+02" dominant-baseline="middle" stroke="none">200ms</text><text dominant-baseline="middle" stroke="none" vector-effect="non-scaling-stroke" x="-10" y="-2.486652e+02">300ms</text><text dominant-baseline="middle" stroke="none" vector-effect="non-scaling-stroke" x="-10" y="-3.168869e+02">400ms</text><text stroke="none" vector-effect="non-scaling-stroke" x="-10" y="-3.851087e+02" dominant-baseline="middle">500ms</text></g><g font-style="normal" stroke="black" font-weight="bold" stroke-linecap="round" dominant-baseline="hanging" transform="translate(80 520 )scale(1 1 )rotate(-90 0 0 )" fill="black" stroke-width="2px" stroke-linejoin="round" font-family="sans-serif" text-anchor="middle" font-size="12px"><text x="220" y="6" dominant-baseline="hanging" stroke="none" vector-effect="non-scaling-stroke">Runtime</text></g></g></g></g></g></svg>