<svg preserveAspectRatio="xMidYMid meet" xmlns="http://www.w3.org/2000/svg" width="800" height="600" viewbox="0 0 800 600"><defs><marker markerHeight="2%" id="circle" viewBox="0 0 10 10 " refX="5" refY="5" markerUnits="userSpaceOnUse" markerWidth="2%"><circle cx="5" cy="5" r="3" fill="none" stroke="black"/></marker><marker refY="5" markerUnits="userSpaceOnUse" markerWidth="2%" markerHeight="2%" id="filled-circle" viewBox="0 0 10 10 " refX="5"><circle cx="5" cy="5" r="3" fill="black" stroke="none"/></marker><marker markerWidth="2%" markerHeight="2%" id="square" viewBox="0 0 10 10 " refX="5" refY="5" markerUnits="userSpaceOnUse"><rect height="6" fill="none" stroke="black" x="2" y="2" width="6"/></marker><marker markerHeight="2%" id="filled-square" viewBox="0 0 10 10 " refX="5" refY="5" markerUnits="userSpaceOnUse" markerWidth="2%"><rect y="2" width="6" height="6" fill="black" stroke="none" x="2"/></marker></defs><g stroke="hsl(198, 47%, 65%)" stroke-width="1px" stroke-linecap="round" stroke-linejoin="round" transform="translate(80 520 )scale(1 -1 )" fill="hsl(198, 47%, 65%)"><rect y="0" width="9.696970e+00" height="4.400775e+01" vector-effect="non-scaling-stroke" x="5.430303e+01"/><rect x="7.563636e+01" y="0" width="9.696970e+00" height="4.400214e+01" vector-effect="non-scaling-stroke"/><rect width="9.696970e+00" height="4.402350e+01" vector-effect="non-scaling-stroke" x="9.696970e+01" y="0"/><rect x="1.183030e+02" y="0" width="9.696970e+00" height="4.401013e+01" vector-effect="non-scaling-stroke"/><rect width="9.696970e+00" height="4.400580e+01" vector-effect="non-scaling-stroke" x="1.396364e+02" y="0"/><rect vector-effect="non-scaling-stroke" x="1.609697e+02" y="0" width="9.696970e+00" height="4.401509e+01"/><rect x="1.823030e+02" y="0" width="9.696970e+00" height="4.401174e+01" vector-effect="non-scaling-stroke"/><rect height="4.431504e+01" vector-effect="non-scaling-stroke" x="2.036364e+02" y="0" width="9.696970e+00"/><rect x="2.249697e+02" y="0" width="9.696970e+00" height="4.418882e+01" vector-effect="non-scaling-stroke"/><rect vector-effect="non-scaling-stroke" x="2.463030e+02" y="0" width="9.696970e+00" height="4.400074e+01"/><rect x="2.676364e+02" y="0" width="9.696970e+00" height="5.065464e+01" vector-effect="non-scaling-stroke"/><rect y="0" width="9.696970e+00" height="4.423888e+01" vector-effect="non-scaling-stroke" x="2.889697e+02"/><rect width="9.696970e+00" height="4.438058e+01" vector-effect="non-scaling-stroke" x="3.103030e+02" y="0"/><rect width="9.696970e+00" height="4.681037e+01" vector-effect="non-scaling-stroke" x="3.316364e+02" y="0"/><rect height="4.400239e+01" vector-effect="non-scaling-stroke" x="3.529697e+02" y="0" width="9.696970e+00"/><rect height="396" vector-effect="non-scaling-stroke" x="3.743030e+02" y="0" width="9.696970e+00"/><rect height="4.422812e+01" vector-effect="non-scaling-stroke" x="3.956364e+02" y="0" width="9.696970e+00"/><rect y="0" width="9.696970e+00" height="4.408930e+01" vector-effect="non-scaling-stroke" x="4.169697e+02"/><rect height="2.053979e+02" vector-effect="non-scaling-stroke" x="4.383030e+02" y="0" width="9.696970e+00"/><rect y="0" width="9.696970e+00" height="6.554127e+01" vector-effect="non-scaling-stroke" x="4.596364e+02"/><rect height="4.415492e+01" vector-effect="non-scaling-stroke" x="4.809697e+02" y="0" width="9.696970e+00"/><rect y="0" width="9.696970e+00" height="4.515252e+01" vector-effect="non-scaling-stroke" x="5.023030e+02"/></g><g stroke-linecap="round" stroke-linejoin="round" transform="translate(80 520 )scale(1 -1 )" fill="hsl(49, 88%, 65%)" stroke="hsl(49, 88%, 65%)" stroke-width="1px"><rect x="6.400000e+01" y="0" width="9.696970e+00" height="4.400351e+01" vector-effect="non-scaling-stroke"/><rect vector-effect="non-scaling-stroke" x="8.533333e+01" y="0" width="9.696970e+00" height="4.400051e+01"/><rect y="0" width="9.696970e+00" height="4.401775e+01" vector-effect="non-scaling-stroke" x="1.066667e+02"/><rect vector-effect="non-scaling-stroke" x="128" y="0" width="9.696970e+00" height="4.400605e+01"/><rect vector-effect="non-scaling-stroke" x="1.493333e+02" y="0" width="9.696970e+00" height="4.400468e+01"/><rect vector-effect="non-scaling-stroke" x="1.706667e+02" y="0" width="9.696970e+00" height="4.400897e+01"/><rect vector-effect="non-scaling-stroke" x="192" y="0" width="9.696970e+00" height="4.401049e+01"/><rect vector-effect="non-scaling-stroke" x="2.133333e+02" y="0" width="9.696970e+00" height="4.430561e+01"/><rect y="0" width="9.696970e+00" height="4.418252e+01" vector-effect="non-scaling-stroke" x="2.346667e+02"/><rect x="256" y="0" width="9.696970e+00" height="4.400056e+01" vector-effect="non-scaling-stroke"/><rect height="4.648442e+01" vector-effect="non-scaling-stroke" x="2.773333e+02" y="0" width="9.696970e+00"/><rect y="0" width="9.696970e+00" height="4.414919e+01" vector-effect="non-scaling-stroke" x="2.986667e+02"/><rect width="9.696970e+00" height="4.432268e+01" vector-effect="non-scaling-stroke" x="320" y="0"/><rect height="4.709541e+01" vector-effect="non-scaling-stroke" x="3.413333e+02" y="0" width="9.696970e+00"/><rect x="3.626667e+02" y="0" width="9.696970e+00" height="4.400101e+01" vector-effect="non-scaling-stroke"/><rect height="4.415595e+01" vector-effect="non-scaling-stroke" x="4.053333e+02" y="0" width="9.696970e+00"/><rect vector-effect="non-scaling-stroke" x="4.266667e+02" y="0" width="9.696970e+00" height="4.410479e+01"/><rect vector-effect="non-scaling-stroke" x="4.693333e+02" y="0" width="9.696970e+00" height="6.194657e+01"/><rect width="9.696970e+00" height="4.421322e+01" vector-effect="non-scaling-stroke" x="4.906667e+02" y="0"/></g><g font-weight="normal" stroke="hsl(198, 47%, 65%)" stroke-width="1px" stroke-linejoin="round" stroke-linecap="round" text-anchor="start" font-size="12px" fill="hsl(198, 47%, 65%)" font-family="sans-serif" font-style="normal" dominant-baseline="hanging"><rect width="12" height="12" vector-effect="non-scaling-stroke" x="736" y="484"/><g fill="black" stroke="black"><text stroke="none" vector-effect="non-scaling-stroke" x="752" y="484" dominant-baseline="hanging">Golang</text></g><g font-weight="normal" font-style="normal" text-anchor="start" dominant-baseline="hanging" font-family="sans-serif" font-size="12px" fill="hsl(49, 88%, 65%)" stroke="hsl(49, 88%, 65%)" stroke-width="1px" stroke-linejoin="round" stroke-linecap="round"><rect vector-effect="non-scaling-stroke" x="736" y="502" width="12" height="12"/><g fill="black" stroke="black"><text vector-effect="non-scaling-stroke" x="752" y="502" dominant-baseline="hanging" stroke="none">Rust</text><g font-weight="normal" font-style="normal" fill="none" stroke-linecap="round" text-anchor="start" dominant-baseline="hanging" stroke-width="2px" stroke-linejoin="round" font-family="sans-serif" font-size="12px"><rect y="80" width="640" height="440" vector-effect="non-scaling-stroke" x="80"/></g><g text-anchor="start" dominant-baseline="hanging" transform="translate(80 520 )scale(1 -1 )" stroke="black" stroke-linejoin="round" font-family="sans-serif" font-size="12px" stroke-linecap="round" font-weight="normal" fill="none" stroke-width="2px" font-style="normal"><path vector-effect="non-scaling-stroke" d="M64,0 L64,-6 M8.533333e+01,0 L8.533333e+01,-6 M1.066667e+02,0 L1.066667e+02,-6 M128,0 L128,-6 M1.493333e+02,0 L1.493333e+02,-6 M1.706667e+02,0 L1.706667e+02,-6 M192,0 L192,-6 M2.133333e+02,0 L2.133333e+02,-6 M2.346667e+02,0 L2.346667e+02,-6 M256,0 L256,-6 M2.773333e+02,0 L2.773333e+02,-6 M2.986667e+02,0 L2.986667e+02,-6 M320,0 L320,-6 M3.413333e+02,0 L3.413333e+02,-6 M3.626667e+02,0 L3.626667e+02,-6 M384,0 L384,-6 M4.053333e+02,0 L4.053333e+02,-6 M4.266667e+02,0 L4.266667e+02,-6 M448,0 L448,-6 M4.693333e+02,0 L4.693333e+02,-6 M4.906667e+02,0 L4.906667e+02,-6 M512,0 L512,-6 "/></g><g font-style="normal" font-size="12px" stroke-linejoin="round" transform="translate(80 520 )scale(1 1 )" fill="black" stroke="black" stroke-linecap="round" text-anchor="middle" dominant-baseline="hanging" font-family="sans-serif" font-weight="normal" stroke-width="2px"><text dominant-baseline="hanging" stroke="none" vector-effect="non-scaling-stroke" x="64" y="10">1</text><text stroke="none" vector-effect="non-scaling-stroke" x="8.533333e+01" y="10" dominant-baseline="hanging">2</text><text dominant-baseline="hanging" stroke="none" vector-effect="non-scaling-stroke" x="1.066667e+02" y="10">3</text><text x="128" y="10" dominant-baseline="hanging" stroke="none" vector-effect="non-scaling-stroke">4</text><text vector-effect="non-scaling-stroke" x="1.493333e+02" y="10" dominant-baseline="hanging" stroke="none">5</text><text vector-effect="non-scaling-stroke" x="1.706667e+02" y="10" dominant-baseline="hanging" stroke="none">6</text><text dominant-baseline="hanging" stroke="none" vector-effect="non-scaling-stroke" x="192" y="10">7</text><text stroke="none" vector-effect="non-scaling-stroke" x="2.133333e+02" y="10" dominant-baseline="hanging">8</text><text vector-effect="non-scaling-stroke" x="2.346667e+02" y="10" dominant-baseline="hanging" stroke="none">9</text><text y="10" dominant-baseline="hanging" stroke="none" vector-effect="non-scaling-stroke" x="256">10</text><text stroke="none" vector-effect="non-scaling-stroke" x="2.773333e+02" y="10" dominant-baseline="hanging">11</text><text y="10" dominant-baseline="hanging" stroke="none" vector-effect="non-scaling-stroke" x="2.986667e+02">12</text><text x="320" y="10" dominant-baseline="hanging" stroke="none" vector-effect="non-scaling-stroke">13</text><text stroke="none" vector-effect="non-scaling-stroke" x="3.413333e+02" y="10" dominant-baseline="hanging">14</text><text y="10" dominant-baseline="hanging" stroke="none" vector-effect="non-scaling-stroke" x="3.626667e+02">15</text><text dominant-baseline="hanging" stroke="none" vector-effect="non-scaling-stroke" x="384" y="10">16</text><text vector-effect="non-scaling-stroke" x="4.053333e+02" y="10" dominant-baseline="hanging" stroke="none">17</text><text dominant-baseline="hanging" stroke="none" vector-effect="non-scaling-stroke" x="4.266667e+02" y="10">18</text><text y="10" dominant-baseline="hanging" stroke="none" vector-effect="non-scaling-stroke" x="448">19</text><text vector-effect="non-scaling-stroke" x="4.693333e+02" y="10" dominant-baseline="hanging" stroke="none">20</text><text x="4.906667e+02" y="10" dominant-baseline="hanging" stroke="none" vector-effect="non-scaling-stroke">21</text><text y="10" dominant-baseline="hanging" stroke="none" vector-effect="non-scaling-stroke" x="512">22</text></g><g font-size="12px" font-weight="bold" transform="translate(80 520 )scale(1 1 )rotate(0 0 0 )" stroke-linecap="round" font-style="normal" text-anchor="middle" fill="black" stroke="black" stroke-width="2px" stroke-linejoin="round" font-family="sans-serif" dominant-baseline="baseline"><text dominant-baseline="baseline" stroke="none" vector-effect="non-scaling-stroke" x="320" y="-6">Day</text></g><g dominant-baseline="baseline" stroke-linecap="round" font-style="normal" stroke-width="2px" text-anchor="middle" stroke-linejoin="round" font-family="sans-serif" font-size="12px" font-weight="bold" transform="translate(80 520 )scale(1 -1 )" fill="black" stroke="black"><path d="M0,44 L-6,44 M0,9.119185e+01 L-6,9.119185e+01 M0,1.383837e+02 L-6,1.383837e+02 M0,1.855756e+02 L-6,1.855756e+02 M0,2.327674e+02 L-6,2.327674e+02 M0,2.799593e+02 L-6,2.799593e+02 M0,3.271511e+02 L-6,3.271511e+02 M0,3.743430e+02 L-6,3.743430e+02 " vector-effect="non-scaling-stroke"/></g><g stroke-linejoin="round" font-family="sans-serif" font-size="12px" transform="translate(80 520 )scale(1 1 )" dominant-baseline="middle" stroke-linecap="round" font-style="normal" stroke-width="2px" fill="black" stroke="black" text-anchor="end" font-weight="normal"><text stroke="none" vector-effect="non-scaling-stroke" x="-10" y="-44" dominant-baseline="middle">0s</text><text x="-10" y="-9.119185e+01" dominant-baseline="middle" stroke="none" vector-effect="non-scaling-stroke">100ms</text><text stroke="none" vector-effect="non-scaling-stroke" x="-10" y="-1.383837e+02" dominant-baseline="middle">200ms</text><text vector-effect="non-scaling-stroke" x="-10" y="-1.855756e+02" dominant-baseline="middle" stroke="none">300ms</text><text stroke="none" vector-effect="non-scaling-stroke" x="-10" y="-2.327674e+02" dominant-baseline="middle">400ms</text><text vector-effect="non-scaling-stroke" x="-10" y="-2.799593e+02" dominant-baseline="middle" stroke="none">500ms</text><text stroke="none" vector-effect="non-scaling-stroke" x="-10" y="-3.271511e+02" dominant-baseline="middle">600ms</text><text stroke="none" vector-effect="non-scaling-stroke" x="-10" y="-3.743430e+02" dominant-baseline="middle">700ms</text></g><g font-family="sans-serif" font-weight="bold" dominant-baseline="hanging" stroke-linecap="round" text-anchor="middle" stroke-width="2px" font-style="normal" stroke-linejoin="round" font-size="12px" transform="translate(80 520 )scale(1 1 )rotate(-90 0 0 )" fill="black" stroke="black"><text vector-effect="non-scaling-stroke" x="220" y="6" dominant-baseline="hanging" stroke="none">Runtime</text></g></g></g></g></svg>