<svg preserveAspectRatio="xMidYMid meet" xmlns="http://www.w3.org/2000/svg" width="800" height="600" viewbox="0 0 800 600"><defs><marker markerHeight="2%" id="circle" viewBox="0 0 10 10 " refX="5" refY="5" markerUnits="userSpaceOnUse" markerWidth="2%"><circle r="3" fill="none" stroke="black" cx="5" cy="5"/></marker><marker refY="5" markerUnits="userSpaceOnUse" markerWidth="2%" markerHeight="2%" id="filled-circle" viewBox="0 0 10 10 " refX="5"><circle cx="5" cy="5" r="3" fill="black" stroke="none"/></marker><marker refX="5" refY="5" markerUnits="userSpaceOnUse" markerWidth="2%" markerHeight="2%" id="square" viewBox="0 0 10 10 "><rect width="6" height="6" fill="none" stroke="black" x="2" y="2"/></marker><marker refX="5" refY="5" markerUnits="userSpaceOnUse" markerWidth="2%" markerHeight="2%" id="filled-square" viewBox="0 0 10 10 "><rect height="6" fill="black" stroke="none" x="2" y="2" width="6"/></marker></defs><g stroke-width="1px" stroke-linecap="round" stroke-linejoin="round" transform="translate(80 520 )scale(1 -1 )" fill="hsl(198, 47%, 65%)" stroke="hsl(198, 47%, 65%)"><rect width="5.688889e+00" height="4.409955e+01" vector-effect="non-scaling-stroke" x="5.546667e+01" y="0"/><rect vector-effect="non-scaling-stroke" x="7.680000e+01" y="0" width="5.688889e+00" height="4.410024e+01"/><rect height="4.406134e+01" vector-effect="non-scaling-stroke" x="9.813333e+01" y="0" width="5.688889e+00"/><rect width="5.688889e+00" height="4.457326e+01" vector-effect="non-scaling-stroke" x="1.194667e+02" y="0"/><rect x="1.408000e+02" y="0" width="5.688889e+00" height="4.406433e+01" vector-effect="non-scaling-stroke"/><rect y="0" width="5.688889e+00" height="1.952622e+02" vector-effect="non-scaling-stroke" x="1.621333e+02"/><rect height="7.946096e+01" vector-effect="non-scaling-stroke" x="1.834667e+02" y="0" width="5.688889e+00"/><rect height="4.401467e+01" vector-effect="non-scaling-stroke" x="2.048000e+02" y="0" width="5.688889e+00"/><rect width="5.688889e+00" height="4.497435e+01" vector-effect="non-scaling-stroke" x="2.261333e+02" y="0"/><rect y="0" width="5.688889e+00" height="4.424061e+01" vector-effect="non-scaling-stroke" x="2.474667e+02"/><rect y="0" width="5.688889e+00" height="4.691699e+01" vector-effect="non-scaling-stroke" x="2.688000e+02"/><rect y="0" width="5.688889e+00" height="4.524677e+01" vector-effect="non-scaling-stroke" x="2.901333e+02"/><rect height="4.401477e+01" vector-effect="non-scaling-stroke" x="3.114667e+02" y="0" width="5.688889e+00"/><rect vector-effect="non-scaling-stroke" x="3.328000e+02" y="0" width="5.688889e+00" height="5.584726e+01"/><rect vector-effect="non-scaling-stroke" x="3.541333e+02" y="0" width="5.688889e+00" height="4.527802e+01"/><rect vector-effect="non-scaling-stroke" x="3.754667e+02" y="0" width="5.688889e+00" height="7.122072e+01"/><rect height="4.404065e+01" vector-effect="non-scaling-stroke" x="3.968000e+02" y="0" width="5.688889e+00"/><rect y="0" width="5.688889e+00" height="4.441025e+01" vector-effect="non-scaling-stroke" x="4.181333e+02"/><rect x="4.394667e+02" y="0" width="5.688889e+00" height="4.695016e+01" vector-effect="non-scaling-stroke"/><rect height="8.615940e+01" vector-effect="non-scaling-stroke" x="4.608000e+02" y="0" width="5.688889e+00"/><rect vector-effect="non-scaling-stroke" x="4.821333e+02" y="0" width="5.688889e+00" height="4.400013e+01"/><rect y="0" width="5.688889e+00" height="1.432794e+02" vector-effect="non-scaling-stroke" x="5.034667e+02"/><rect vector-effect="non-scaling-stroke" x="5.248000e+02" y="0" width="5.688889e+00" height="1.774471e+02"/><rect height="4.458902e+01" vector-effect="non-scaling-stroke" x="5.461333e+02" y="0" width="5.688889e+00"/><rect y="0" width="5.688889e+00" height="4.458787e+01" vector-effect="non-scaling-stroke" x="5.674667e+02"/></g><g fill="hsl(49, 88%, 65%)" stroke="hsl(49, 88%, 65%)" stroke-width="1px" stroke-linecap="round" stroke-linejoin="round" transform="translate(80 520 )scale(1 -1 )"><rect width="5.688889e+00" height="4.403904e+01" vector-effect="non-scaling-stroke" x="6.115556e+01" y="0"/><rect x="8.248889e+01" y="0" width="5.688889e+00" height="4.409074e+01" vector-effect="non-scaling-stroke"/><rect vector-effect="non-scaling-stroke" x="1.038222e+02" y="0" width="5.688889e+00" height="4.401868e+01"/><rect y="0" width="5.688889e+00" height="4.495683e+01" vector-effect="non-scaling-stroke" x="1.251556e+02"/><rect x="1.464889e+02" y="0" width="5.688889e+00" height="4.403626e+01" vector-effect="non-scaling-stroke"/><rect height="1.589079e+02" vector-effect="non-scaling-stroke" x="1.678222e+02" y="0" width="5.688889e+00"/><rect height="7.988226e+01" vector-effect="non-scaling-stroke" x="1.891556e+02" y="0" width="5.688889e+00"/><rect y="0" width="5.688889e+00" height="4.400698e+01" vector-effect="non-scaling-stroke" x="2.104889e+02"/><rect x="2.318222e+02" y="0" width="5.688889e+00" height="4.516399e+01" vector-effect="non-scaling-stroke"/><rect width="5.688889e+00" height="4.408229e+01" vector-effect="non-scaling-stroke" x="2.531556e+02" y="0"/><rect vector-effect="non-scaling-stroke" x="2.744889e+02" y="0" width="5.688889e+00" height="4.622815e+01"/><rect width="5.688889e+00" height="4.495045e+01" vector-effect="non-scaling-stroke" x="2.958222e+02" y="0"/><rect vector-effect="non-scaling-stroke" x="3.171556e+02" y="0" width="5.688889e+00" height="4.401189e+01"/><rect vector-effect="non-scaling-stroke" x="3.384889e+02" y="0" width="5.688889e+00" height="5.201890e+01"/><rect width="5.688889e+00" height="4.781109e+01" vector-effect="non-scaling-stroke" x="3.598222e+02" y="0"/><rect width="5.688889e+00" height="5.582335e+01" vector-effect="non-scaling-stroke" x="3.811556e+02" y="0"/><rect y="0" width="5.688889e+00" height="4.445546e+01" vector-effect="non-scaling-stroke" x="4.024889e+02"/><rect vector-effect="non-scaling-stroke" x="4.238222e+02" y="0" width="5.688889e+00" height="4.426083e+01"/><rect vector-effect="non-scaling-stroke" x="4.451556e+02" y="0" width="5.688889e+00" height="4.780602e+01"/><rect width="5.688889e+00" height="9.831507e+01" vector-effect="non-scaling-stroke" x="4.664889e+02" y="0"/><rect height="4.400006e+01" vector-effect="non-scaling-stroke" x="4.878222e+02" y="0" width="5.688889e+00"/><rect width="5.688889e+00" height="2.485826e+02" vector-effect="non-scaling-stroke" x="5.091556e+02" y="0"/><rect vector-effect="non-scaling-stroke" x="5.304889e+02" y="0" width="5.688889e+00" height="4.514557e+01"/><rect height="4.416532e+01" vector-effect="non-scaling-stroke" x="5.518222e+02" y="0" width="5.688889e+00"/><rect height="4.441939e+01" vector-effect="non-scaling-stroke" x="5.731556e+02" y="0" width="5.688889e+00"/></g><g fill="hsl(260, 76%, 65%)" stroke="hsl(260, 76%, 65%)" stroke-width="1px" stroke-linecap="round" stroke-linejoin="round" transform="translate(80 520 )scale(1 -1 )"><rect height="4.407976e+01" vector-effect="non-scaling-stroke" x="6.684444e+01" y="0" width="5.688889e+00"/><rect width="5.688889e+00" height="4.405047e+01" vector-effect="non-scaling-stroke" x="8.817778e+01" y="0"/><rect x="1.095111e+02" y="0" width="5.688889e+00" height="4.406008e+01" vector-effect="non-scaling-stroke"/><rect y="0" width="5.688889e+00" height="4.429375e+01" vector-effect="non-scaling-stroke" x="1.308444e+02"/><rect vector-effect="non-scaling-stroke" x="1.521778e+02" y="0" width="5.688889e+00" height="4.402872e+01"/><rect width="5.688889e+00" height="396" vector-effect="non-scaling-stroke" x="1.735111e+02" y="0"/><rect vector-effect="non-scaling-stroke" x="1.948444e+02" y="0" width="5.688889e+00" height="7.783912e+01"/><rect vector-effect="non-scaling-stroke" x="2.161778e+02" y="0" width="5.688889e+00" height="4.400866e+01"/><rect height="4.466007e+01" vector-effect="non-scaling-stroke" x="2.375111e+02" y="0" width="5.688889e+00"/><rect vector-effect="non-scaling-stroke" x="2.588444e+02" y="0" width="5.688889e+00" height="4.657119e+01"/><rect height="4.609000e+01" vector-effect="non-scaling-stroke" x="2.801778e+02" y="0" width="5.688889e+00"/><rect x="3.015111e+02" y="0" width="5.688889e+00" height="7.220168e+01" vector-effect="non-scaling-stroke"/><rect vector-effect="non-scaling-stroke" x="3.228444e+02" y="0" width="5.688889e+00" height="4.400957e+01"/><rect x="3.441778e+02" y="0" width="5.688889e+00" height="5.376774e+01" vector-effect="non-scaling-stroke"/><rect y="0" width="5.688889e+00" height="4.638337e+01" vector-effect="non-scaling-stroke" x="3.655111e+02"/><rect y="0" width="5.688889e+00" height="6.212819e+01" vector-effect="non-scaling-stroke" x="3.868444e+02"/><rect y="0" width="5.688889e+00" height="4.415515e+01" vector-effect="non-scaling-stroke" x="4.081778e+02"/><rect height="4.437020e+01" vector-effect="non-scaling-stroke" x="4.295111e+02" y="0" width="5.688889e+00"/><rect width="5.688889e+00" height="4.854868e+01" vector-effect="non-scaling-stroke" x="4.508444e+02" y="0"/><rect y="0" width="5.688889e+00" height="8.968840e+01" vector-effect="non-scaling-stroke" x="4.721778e+02"/><rect vector-effect="non-scaling-stroke" x="4.935111e+02" y="0" width="5.688889e+00" height="4.409404e+01"/><rect vector-effect="non-scaling-stroke" x="5.788444e+02" y="0" width="5.688889e+00" height="4.433013e+01"/></g><g fill="hsl(198, 47%, 65%)" stroke-width="1px" font-size="12px" font-family="sans-serif" stroke="hsl(198, 47%, 65%)" stroke-linecap="round" stroke-linejoin="round" font-style="normal" font-weight="normal" text-anchor="start" dominant-baseline="hanging"><rect y="466" width="12" height="12" vector-effect="non-scaling-stroke" x="736"/><g fill="black" stroke="black"><text stroke="none" vector-effect="non-scaling-stroke" x="752" y="466" dominant-baseline="hanging">Golang</text></g><g stroke="hsl(49, 88%, 65%)" font-style="normal" font-weight="normal" stroke-width="1px" dominant-baseline="hanging" font-family="sans-serif" stroke-linecap="round" font-size="12px" text-anchor="start" fill="hsl(49, 88%, 65%)" stroke-linejoin="round"><rect y="484" width="12" height="12" vector-effect="non-scaling-stroke" x="736"/><g stroke="black" fill="black"><text stroke="none" vector-effect="non-scaling-stroke" x="752" y="484" dominant-baseline="hanging">Rust</text></g><g font-size="12px" font-weight="normal" text-anchor="start" font-family="sans-serif" stroke="hsl(260, 76%, 65%)" stroke-width="1px" font-style="normal" fill="hsl(260, 76%, 65%)" stroke-linecap="round" stroke-linejoin="round" dominant-baseline="hanging"><rect x="736" y="502" width="12" height="12" vector-effect="non-scaling-stroke"/><g stroke="black" fill="black"><text stroke="none" vector-effect="non-scaling-stroke" x="752" y="502" dominant-baseline="hanging">Zig</text><g font-weight="normal" stroke-linecap="round" font-family="sans-serif" fill="none" text-anchor="start" font-size="12px" stroke-width="2px" font-style="normal" dominant-baseline="hanging" stroke-linejoin="round"><rect x="80" y="80" width="640" height="440" vector-effect="non-scaling-stroke"/></g><g stroke-width="2px" font-style="normal" font-weight="normal" stroke="black" stroke-linecap="round" stroke-linejoin="round" fill="none" font-size="12px" font-family="sans-serif" dominant-baseline="hanging" text-anchor="start" transform="translate(80 520 )scale(1 -1 )"><path d="M64,0 L64,-6 M8.533333e+01,0 L8.533333e+01,-6 M1.066667e+02,0 L1.066667e+02,-6 M128,0 L128,-6 M1.493333e+02,0 L1.493333e+02,-6 M1.706667e+02,0 L1.706667e+02,-6 M192,0 L192,-6 M2.133333e+02,0 L2.133333e+02,-6 M2.346667e+02,0 L2.346667e+02,-6 M256,0 L256,-6 M2.773333e+02,0 L2.773333e+02,-6 M2.986667e+02,0 L2.986667e+02,-6 M320,0 L320,-6 M3.413333e+02,0 L3.413333e+02,-6 M3.626667e+02,0 L3.626667e+02,-6 M384,0 L384,-6 M4.053333e+02,0 L4.053333e+02,-6 M4.266667e+02,0 L4.266667e+02,-6 M448,0 L448,-6 M4.693333e+02,0 L4.693333e+02,-6 M4.906667e+02,0 L4.906667e+02,-6 M512,0 L512,-6 M5.333333e+02,0 L5.333333e+02,-6 M5.546667e+02,0 L5.546667e+02,-6 M576,0 L576,-6 " vector-effect="non-scaling-stroke"/></g><g stroke-linejoin="round" font-weight="normal" font-size="12px" stroke="black" stroke-linecap="round" font-family="sans-serif" dominant-baseline="hanging" transform="translate(80 520 )scale(1 1 )" fill="black" stroke-width="2px" font-style="normal" text-anchor="middle"><text x="64" y="10" dominant-baseline="hanging" stroke="none" vector-effect="non-scaling-stroke">1</text><text stroke="none" vector-effect="non-scaling-stroke" x="8.533333e+01" y="10" dominant-baseline="hanging">2</text><text vector-effect="non-scaling-stroke" x="1.066667e+02" y="10" dominant-baseline="hanging" stroke="none">3</text><text dominant-baseline="hanging" stroke="none" vector-effect="non-scaling-stroke" x="128" y="10">4</text><text stroke="none" vector-effect="non-scaling-stroke" x="1.493333e+02" y="10" dominant-baseline="hanging">5</text><text stroke="none" vector-effect="non-scaling-stroke" x="1.706667e+02" y="10" dominant-baseline="hanging">6</text><text y="10" dominant-baseline="hanging" stroke="none" vector-effect="non-scaling-stroke" x="192">7</text><text dominant-baseline="hanging" stroke="none" vector-effect="non-scaling-stroke" x="2.133333e+02" y="10">8</text><text vector-effect="non-scaling-stroke" x="2.346667e+02" y="10" dominant-baseline="hanging" stroke="none">9</text><text stroke="none" vector-effect="non-scaling-stroke" x="256" y="10" dominant-baseline="hanging">10</text><text dominant-baseline="hanging" stroke="none" vector-effect="non-scaling-stroke" x="2.773333e+02" y="10">11</text><text y="10" dominant-baseline="hanging" stroke="none" vector-effect="non-scaling-stroke" x="2.986667e+02">12</text><text dominant-baseline="hanging" stroke="none" vector-effect="non-scaling-stroke" x="320" y="10">13</text><text dominant-baseline="hanging" stroke="none" vector-effect="non-scaling-stroke" x="3.413333e+02" y="10">14</text><text y="10" dominant-baseline="hanging" stroke="none" vector-effect="non-scaling-stroke" x="3.626667e+02">15</text><text vector-effect="non-scaling-stroke" x="384" y="10" dominant-baseline="hanging" stroke="none">16</text><text x="4.053333e+02" y="10" dominant-baseline="hanging" stroke="none" vector-effect="non-scaling-stroke">17</text><text stroke="none" vector-effect="non-scaling-stroke" x="4.266667e+02" y="10" dominant-baseline="hanging">18</text><text y="10" dominant-baseline="hanging" stroke="none" vector-effect="non-scaling-stroke" x="448">19</text><text y="10" dominant-baseline="hanging" stroke="none" vector-effect="non-scaling-stroke" x="4.693333e+02">20</text><text dominant-baseline="hanging" stroke="none" vector-effect="non-scaling-stroke" x="4.906667e+02" y="10">21</text><text y="10" dominant-baseline="hanging" stroke="none" vector-effect="non-scaling-stroke" x="512">22</text><text y="10" dominant-baseline="hanging" stroke="none" vector-effect="non-scaling-stroke" x="5.333333e+02">23</text><text x="5.546667e+02" y="10" dominant-baseline="hanging" stroke="none" vector-effect="non-scaling-stroke">24</text><text stroke="none" vector-effect="non-scaling-stroke" x="576" y="10" dominant-baseline="hanging">25</text></g><g stroke-linecap="round" stroke-linejoin="round" font-family="sans-serif" stroke-width="2px" font-size="12px" font-style="normal" font-weight="bold" transform="translate(80 520 )scale(1 1 )rotate(0 0 0 )" dominant-baseline="baseline" stroke="black" text-anchor="middle" fill="black"><text x="320" y="-6" dominant-baseline="baseline" stroke="none" vector-effect="non-scaling-stroke">Day</text></g><g stroke="black" stroke-linecap="round" fill="black" stroke-width="2px" font-size="12px" font-style="normal" font-weight="bold" stroke-linejoin="round" font-family="sans-serif" dominant-baseline="baseline" text-anchor="middle" transform="translate(80 520 )scale(1 -1 )"><path vector-effect="non-scaling-stroke" d="M0,44 L-6,44 M0,8.618078e+01 L-6,8.618078e+01 M0,1.283616e+02 L-6,1.283616e+02 M0,1.705423e+02 L-6,1.705423e+02 M0,2.127231e+02 L-6,2.127231e+02 M0,2.549039e+02 L-6,2.549039e+02 M0,2.970847e+02 L-6,2.970847e+02 M0,3.392655e+02 L-6,3.392655e+02 M0,3.814462e+02 L-6,3.814462e+02 "/></g><g text-anchor="end" stroke-linejoin="round" font-family="sans-serif" dominant-baseline="middle" font-size="12px" font-style="normal" transform="translate(80 520 )scale(1 1 )" stroke="black" stroke-linecap="round" fill="black" stroke-width="2px" font-weight="normal"><text stroke="none" vector-effect="non-scaling-stroke" x="-10" y="-44" dominant-baseline="middle">0s</text><text stroke="none" vector-effect="non-scaling-stroke" x="-10" y="-8.618078e+01" dominant-baseline="middle">20ms</text><text y="-1.283616e+02" dominant-baseline="middle" stroke="none" vector-effect="non-scaling-stroke" x="-10">40ms</text><text y="-1.705423e+02" dominant-baseline="middle" stroke="none" vector-effect="non-scaling-stroke" x="-10">60ms</text><text vector-effect="non-scaling-stroke" x="-10" y="-2.127231e+02" dominant-baseline="middle" stroke="none">80ms</text><text x="-10" y="-2.549039e+02" dominant-baseline="middle" stroke="none" vector-effect="non-scaling-stroke">100ms</text><text stroke="none" vector-effect="non-scaling-stroke" x="-10" y="-2.970847e+02" dominant-baseline="middle">120ms</text><text vector-effect="non-scaling-stroke" x="-10" y="-3.392655e+02" dominant-baseline="middle" stroke="none">140ms</text><text vector-effect="non-scaling-stroke" x="-10" y="-3.814462e+02" dominant-baseline="middle" stroke="none">160ms</text></g><g stroke="black" stroke-linejoin="round" font-family="sans-serif" fill="black" stroke-width="2px" stroke-linecap="round" dominant-baseline="hanging" font-size="12px" font-style="normal" font-weight="bold" text-anchor="middle" transform="translate(80 520 )scale(1 1 )rotate(-90 0 0 )"><text stroke="none" vector-effect="non-scaling-stroke" x="220" y="6" dominant-baseline="hanging">Runtime</text></g></g></g></g></g></svg>