<svg xmlns="http://www.w3.org/2000/svg" width="800" height="600" viewbox="0 0 800 600" preserveAspectRatio="xMidYMid meet"><defs><marker markerUnits="userSpaceOnUse" markerWidth="2%" markerHeight="2%" id="circle" viewBox="0 0 10 10 " refX="5" refY="5"><circle cx="5" cy="5" r="3" fill="none" stroke="black"/></marker><marker id="filled-circle" viewBox="0 0 10 10 " refX="5" refY="5" markerUnits="userSpaceOnUse" markerWidth="2%" markerHeight="2%"><circle cy="5" r="3" fill="black" stroke="none" cx="5"/></marker><marker refY="5" markerUnits="userSpaceOnUse" markerWidth="2%" markerHeight="2%" id="square" viewBox="0 0 10 10 " refX="5"><rect y="2" width="6" height="6" fill="none" stroke="black" x="2"/></marker><marker markerHeight="2%" id="filled-square" viewBox="0 0 10 10 " refX="5" refY="5" markerUnits="userSpaceOnUse" markerWidth="2%"><rect x="2" y="2" width="6" height="6" fill="black" stroke="none"/></marker></defs><g fill="hsl(198, 47%, 65%)" stroke="hsl(198, 47%, 65%)" stroke-width="1px" stroke-linecap="round" stroke-linejoin="round" transform="translate(80 520 )scale(1 -1 )"><rect height="8.448207e+01" vector-effect="non-scaling-stroke" x="3.650000e+01" y="0" width="2.750000e+01"/><rect x="5.783333e+01" y="0" width="2.750000e+01" height="7.986734e+01" vector-effect="non-scaling-stroke"/><rect vector-effect="non-scaling-stroke" x="7.916667e+01" y="0" width="2.750000e+01" height="6.626842e+01"/><rect y="0" width="2.750000e+01" height="2.491226e+02" vector-effect="non-scaling-stroke" x="1.005000e+02"/></g><g stroke-width="1px" stroke-linecap="round" stroke-linejoin="round" transform="translate(80 520 )scale(1 -1 )" fill="hsl(49, 88%, 65%)" stroke="hsl(49, 88%, 65%)"><rect width="2.750000e+01" height="8.033448e+01" vector-effect="non-scaling-stroke" x="64" y="0"/><rect width="2.750000e+01" height="7.503226e+01" vector-effect="non-scaling-stroke" x="8.533333e+01" y="0"/><rect vector-effect="non-scaling-stroke" x="1.066667e+02" y="0" width="2.750000e+01" height="5.006518e+01"/><rect width="2.750000e+01" height="396" vector-effect="non-scaling-stroke" x="128" y="0"/></g><g stroke="hsl(198, 47%, 65%)" stroke-linecap="round" stroke-width="1px" font-size="12px" text-anchor="start" fill="hsl(198, 47%, 65%)" stroke-linejoin="round" font-weight="normal" dominant-baseline="hanging" font-family="sans-serif" font-style="normal"><rect x="736" y="484" width="12" height="12" vector-effect="non-scaling-stroke"/><g stroke="black" fill="black"><text y="484" dominant-baseline="hanging" stroke="none" vector-effect="non-scaling-stroke" x="752">Golang</text></g><g stroke="hsl(49, 88%, 65%)" font-size="12px" text-anchor="start" stroke-linejoin="round" font-weight="normal" dominant-baseline="hanging" fill="hsl(49, 88%, 65%)" stroke-linecap="round" font-style="normal" stroke-width="1px" font-family="sans-serif"><rect y="502" width="12" height="12" vector-effect="non-scaling-stroke" x="736"/><g fill="black" stroke="black"><text dominant-baseline="hanging" stroke="none" vector-effect="non-scaling-stroke" x="752" y="502">Rust</text><g stroke-linejoin="round" fill="none" font-weight="normal" font-style="normal" text-anchor="start" stroke-linecap="round" dominant-baseline="hanging" font-family="sans-serif" font-size="12px" stroke-width="2px"><rect height="440" vector-effect="non-scaling-stroke" x="80" y="80" width="640"/></g><g font-family="sans-serif" fill="none" stroke="black" stroke-linecap="round" stroke-linejoin="round" font-weight="normal" stroke-width="2px" font-size="12px" font-style="normal" text-anchor="start" dominant-baseline="hanging" transform="translate(80 520 )scale(1 -1 )"><path vector-effect="non-scaling-stroke" d="M64,0 L64,-6 M8.533333e+01,0 L8.533333e+01,-6 M1.066667e+02,0 L1.066667e+02,-6 M128,0 L128,-6 "/></g><g font-size="12px" transform="translate(80 520 )scale(1 1 )" fill="black" text-anchor="middle" stroke="black" stroke-linecap="round" stroke-linejoin="round" font-weight="normal" stroke-width="2px" font-family="sans-serif" font-style="normal" dominant-baseline="hanging"><text x="64" y="10" dominant-baseline="hanging" stroke="none" vector-effect="non-scaling-stroke">1</text><text dominant-baseline="hanging" stroke="none" vector-effect="non-scaling-stroke" x="8.533333e+01" y="10">2</text><text dominant-baseline="hanging" stroke="none" vector-effect="non-scaling-stroke" x="1.066667e+02" y="10">3</text><text stroke="none" vector-effect="non-scaling-stroke" x="128" y="10" dominant-baseline="hanging">4</text></g><g transform="translate(80 520 )scale(1 1 )rotate(0 0 0 )" fill="black" stroke-linecap="round" font-size="12px" text-anchor="middle" font-style="normal" stroke="black" stroke-linejoin="round" font-weight="bold" dominant-baseline="baseline" stroke-width="2px" font-family="sans-serif"><text stroke="none" vector-effect="non-scaling-stroke" x="320" y="-6" dominant-baseline="baseline">Day</text></g><g dominant-baseline="baseline" transform="translate(80 520 )scale(1 -1 )" font-size="12px" font-style="normal" text-anchor="middle" stroke-width="2px" stroke-linejoin="round" font-weight="bold" font-family="sans-serif" stroke="black" stroke-linecap="round" fill="black"><path vector-effect="non-scaling-stroke" d="M0,44 L-6,44 M0,1.194657e+02 L-6,1.194657e+02 M0,1.949314e+02 L-6,1.949314e+02 M0,2.703971e+02 L-6,2.703971e+02 M0,3.458628e+02 L-6,3.458628e+02 "/></g><g font-style="normal" text-anchor="end" fill="black" stroke="black" stroke-linecap="round" font-weight="normal" dominant-baseline="middle" font-size="12px" transform="translate(80 520 )scale(1 1 )" font-family="sans-serif" stroke-linejoin="round" stroke-width="2px"><text x="-10" y="-44" dominant-baseline="middle" stroke="none" vector-effect="non-scaling-stroke">0s</text><text x="-10" y="-1.194657e+02" dominant-baseline="middle" stroke="none" vector-effect="non-scaling-stroke">100µs</text><text vector-effect="non-scaling-stroke" x="-10" y="-1.949314e+02" dominant-baseline="middle" stroke="none">200µs</text><text vector-effect="non-scaling-stroke" x="-10" y="-2.703971e+02" dominant-baseline="middle" stroke="none">300µs</text><text stroke="none" vector-effect="non-scaling-stroke" x="-10" y="-3.458628e+02" dominant-baseline="middle">400µs</text></g><g font-style="normal" transform="translate(80 520 )scale(1 1 )rotate(-90 0 0 )" stroke="black" font-weight="bold" stroke-width="2px" font-size="12px" fill="black" stroke-linecap="round" stroke-linejoin="round" dominant-baseline="hanging" font-family="sans-serif" text-anchor="middle"><text vector-effect="non-scaling-stroke" x="220" y="6" dominant-baseline="hanging" stroke="none">Runtime</text></g></g></g></g></svg>