<svg viewbox="0 0 800 600" preserveAspectRatio="xMidYMid meet" xmlns="http://www.w3.org/2000/svg" width="800" height="600"><defs><marker markerUnits="userSpaceOnUse" markerWidth="2%" markerHeight="2%" id="circle" viewBox="0 0 10 10 " refX="5" refY="5"><circle cx="5" cy="5" r="3" fill="none" stroke="black"/></marker><marker markerHeight="2%" id="filled-circle" viewBox="0 0 10 10 " refX="5" refY="5" markerUnits="userSpaceOnUse" markerWidth="2%"><circle stroke="none" cx="5" cy="5" r="3" fill="black"/></marker><marker refX="5" refY="5" markerUnits="userSpaceOnUse" markerWidth="2%" markerHeight="2%" id="square" viewBox="0 0 10 10 "><rect x="2" y="2" width="6" height="6" fill="none" stroke="black"/></marker><marker refY="5" markerUnits="userSpaceOnUse" markerWidth="2%" markerHeight="2%" id="filled-square" viewBox="0 0 10 10 " refX="5"><rect fill="black" stroke="none" x="2" y="2" width="6" height="6"/></marker></defs><g stroke-linejoin="round" transform="translate(80 520 )scale(1 -1 )" fill="hsl(198, 47%, 65%)" stroke="hsl(198, 47%, 65%)" stroke-width="1px" stroke-linecap="round"><rect y="0" width="1.066667e+01" height="4.400289e+01" vector-effect="non-scaling-stroke" x="5.333333e+01"/><rect vector-effect="non-scaling-stroke" x="7.466667e+01" y="0" width="1.066667e+01" height="4.400080e+01"/><rect x="96" y="0" width="1.066667e+01" height="4.400876e+01" vector-effect="non-scaling-stroke"/><rect width="1.066667e+01" height="4.400378e+01" vector-effect="non-scaling-stroke" x="1.173333e+02" y="0"/><rect x="1.386667e+02" y="0" width="1.066667e+01" height="4.400216e+01" vector-effect="non-scaling-stroke"/><rect vector-effect="non-scaling-stroke" x="160" y="0" width="1.066667e+01" height="4.400563e+01"/><rect width="1.066667e+01" height="4.400438e+01" vector-effect="non-scaling-stroke" x="1.813333e+02" y="0"/><rect width="1.066667e+01" height="4.411749e+01" vector-effect="non-scaling-stroke" x="2.026667e+02" y="0"/><rect vector-effect="non-scaling-stroke" x="2.240000e+02" y="0" width="1.066667e+01" height="4.407042e+01"/><rect width="1.066667e+01" height="4.400028e+01" vector-effect="non-scaling-stroke" x="2.453333e+02" y="0"/><rect height="4.648182e+01" vector-effect="non-scaling-stroke" x="2.666667e+02" y="0" width="1.066667e+01"/><rect x="288" y="0" width="1.066667e+01" height="4.408909e+01" vector-effect="non-scaling-stroke"/><rect height="4.414194e+01" vector-effect="non-scaling-stroke" x="3.093333e+02" y="0" width="1.066667e+01"/><rect x="3.306667e+02" y="0" width="1.066667e+01" height="4.504811e+01" vector-effect="non-scaling-stroke"/><rect x="3.520000e+02" y="0" width="1.066667e+01" height="4.400089e+01" vector-effect="non-scaling-stroke"/><rect x="3.733333e+02" y="0" width="1.066667e+01" height="8.201469e+02" vector-effect="non-scaling-stroke"/><rect height="4.408508e+01" vector-effect="non-scaling-stroke" x="3.946667e+02" y="0" width="1.066667e+01"/><rect vector-effect="non-scaling-stroke" x="4.160000e+02" y="0" width="1.066667e+01" height="4.403330e+01"/><rect vector-effect="non-scaling-stroke" x="4.373333e+02" y="0" width="1.066667e+01" height="1.041927e+02"/><rect width="1.066667e+01" height="5.297986e+01" vector-effect="non-scaling-stroke" x="4.586667e+02" y="0"/></g><g stroke="hsl(49, 88%, 65%)" stroke-width="1px" stroke-linecap="round" stroke-linejoin="round" transform="translate(80 520 )scale(1 -1 )" fill="hsl(49, 88%, 65%)"><rect x="6.400000e+01" y="0" width="1.066667e+01" height="4.400131e+01" vector-effect="non-scaling-stroke"/><rect width="1.066667e+01" height="4.400019e+01" vector-effect="non-scaling-stroke" x="8.533333e+01" y="0"/><rect width="1.066667e+01" height="4.400662e+01" vector-effect="non-scaling-stroke" x="1.066667e+02" y="0"/><rect x="128" y="0" width="1.066667e+01" height="4.400226e+01" vector-effect="non-scaling-stroke"/><rect vector-effect="non-scaling-stroke" x="1.493333e+02" y="0" width="1.066667e+01" height="4.400175e+01"/><rect width="1.066667e+01" height="4.400335e+01" vector-effect="non-scaling-stroke" x="1.706667e+02" y="0"/><rect y="0" width="1.066667e+01" height="4.400391e+01" vector-effect="non-scaling-stroke" x="192"/><rect width="1.066667e+01" height="4.411398e+01" vector-effect="non-scaling-stroke" x="2.133333e+02" y="0"/><rect y="0" width="1.066667e+01" height="4.406807e+01" vector-effect="non-scaling-stroke" x="2.346667e+02"/><rect height="4.400021e+01" vector-effect="non-scaling-stroke" x="2.560000e+02" y="0" width="1.066667e+01"/><rect vector-effect="non-scaling-stroke" x="2.773333e+02" y="0" width="1.066667e+01" height="4.492655e+01"/><rect y="0" width="1.066667e+01" height="4.405564e+01" vector-effect="non-scaling-stroke" x="2.986667e+02"/><rect x="320" y="0" width="1.066667e+01" height="4.412034e+01" vector-effect="non-scaling-stroke"/><rect height="4.515442e+01" vector-effect="non-scaling-stroke" x="3.413333e+02" y="0" width="1.066667e+01"/><rect y="0" width="1.066667e+01" height="4.400038e+01" vector-effect="non-scaling-stroke" x="3.626667e+02"/><rect y="0" width="1.066667e+01" height="4.405816e+01" vector-effect="non-scaling-stroke" x="4.053333e+02"/><rect height="4.403908e+01" vector-effect="non-scaling-stroke" x="4.266667e+02" y="0" width="1.066667e+01"/><rect vector-effect="non-scaling-stroke" x="4.693333e+02" y="0" width="1.066667e+01" height="6.468697e+01"/></g><g stroke-width="1px" stroke-linejoin="round" font-style="normal" text-anchor="start" dominant-baseline="hanging" stroke="hsl(198, 47%, 65%)" fill="hsl(198, 47%, 65%)" font-family="sans-serif" stroke-linecap="round" font-size="12px" font-weight="normal"><rect height="12" vector-effect="non-scaling-stroke" x="736" y="484" width="12"/><g stroke="black" fill="black"><text vector-effect="non-scaling-stroke" x="752" y="484" dominant-baseline="hanging" stroke="none">Golang</text></g><g dominant-baseline="hanging" font-style="normal" font-weight="normal" fill="hsl(49, 88%, 65%)" stroke-linejoin="round" font-family="sans-serif" stroke-linecap="round" text-anchor="start" stroke="hsl(49, 88%, 65%)" stroke-width="1px" font-size="12px"><rect x="736" y="502" width="12" height="12" vector-effect="non-scaling-stroke"/><g fill="black" stroke="black"><text stroke="none" vector-effect="non-scaling-stroke" x="752" y="502" dominant-baseline="hanging">Rust</text><g font-style="normal" font-weight="normal" stroke-width="2px" stroke-linejoin="round" fill="none" stroke-linecap="round" font-family="sans-serif" text-anchor="start" font-size="12px" dominant-baseline="hanging"><rect vector-effect="non-scaling-stroke" x="80" y="80" width="640" height="440"/></g><g transform="translate(80 520 )scale(1 -1 )" fill="none" stroke="black" font-family="sans-serif" font-style="normal" font-weight="normal" font-size="12px" text-anchor="start" dominant-baseline="hanging" stroke-width="2px" stroke-linejoin="round" stroke-linecap="round"><path vector-effect="non-scaling-stroke" d="M64,0 L64,-6 M8.533333e+01,0 L8.533333e+01,-6 M1.066667e+02,0 L1.066667e+02,-6 M128,0 L128,-6 M1.493333e+02,0 L1.493333e+02,-6 M1.706667e+02,0 L1.706667e+02,-6 M192,0 L192,-6 M2.133333e+02,0 L2.133333e+02,-6 M2.346667e+02,0 L2.346667e+02,-6 M256,0 L256,-6 M2.773333e+02,0 L2.773333e+02,-6 M2.986667e+02,0 L2.986667e+02,-6 M320,0 L320,-6 M3.413333e+02,0 L3.413333e+02,-6 M3.626667e+02,0 L3.626667e+02,-6 M384,0 L384,-6 M4.053333e+02,0 L4.053333e+02,-6 M4.266667e+02,0 L4.266667e+02,-6 M448,0 L448,-6 M4.693333e+02,0 L4.693333e+02,-6 "/></g><g text-anchor="middle" dominant-baseline="hanging" stroke-linecap="round" font-size="12px" stroke-width="2px" stroke-linejoin="round" font-weight="normal" transform="translate(80 520 )scale(1 1 )" font-family="sans-serif" font-style="normal" fill="black" stroke="black"><text stroke="none" vector-effect="non-scaling-stroke" x="64" y="10" dominant-baseline="hanging">1</text><text stroke="none" vector-effect="non-scaling-stroke" x="8.533333e+01" y="10" dominant-baseline="hanging">2</text><text stroke="none" vector-effect="non-scaling-stroke" x="1.066667e+02" y="10" dominant-baseline="hanging">3</text><text stroke="none" vector-effect="non-scaling-stroke" x="128" y="10" dominant-baseline="hanging">4</text><text stroke="none" vector-effect="non-scaling-stroke" x="1.493333e+02" y="10" dominant-baseline="hanging">5</text><text x="1.706667e+02" y="10" dominant-baseline="hanging" stroke="none" vector-effect="non-scaling-stroke">6</text><text x="192" y="10" dominant-baseline="hanging" stroke="none" vector-effect="non-scaling-stroke">7</text><text x="2.133333e+02" y="10" dominant-baseline="hanging" stroke="none" vector-effect="non-scaling-stroke">8</text><text y="10" dominant-baseline="hanging" stroke="none" vector-effect="non-scaling-stroke" x="2.346667e+02">9</text><text y="10" dominant-baseline="hanging" stroke="none" vector-effect="non-scaling-stroke" x="256">10</text><text y="10" dominant-baseline="hanging" stroke="none" vector-effect="non-scaling-stroke" x="2.773333e+02">11</text><text dominant-baseline="hanging" stroke="none" vector-effect="non-scaling-stroke" x="2.986667e+02" y="10">12</text><text x="320" y="10" dominant-baseline="hanging" stroke="none" vector-effect="non-scaling-stroke">13</text><text stroke="none" vector-effect="non-scaling-stroke" x="3.413333e+02" y="10" dominant-baseline="hanging">14</text><text vector-effect="non-scaling-stroke" x="3.626667e+02" y="10" dominant-baseline="hanging" stroke="none">15</text><text vector-effect="non-scaling-stroke" x="384" y="10" dominant-baseline="hanging" stroke="none">16</text><text dominant-baseline="hanging" stroke="none" vector-effect="non-scaling-stroke" x="4.053333e+02" y="10">17</text><text stroke="none" vector-effect="non-scaling-stroke" x="4.266667e+02" y="10" dominant-baseline="hanging">18</text><text x="448" y="10" dominant-baseline="hanging" stroke="none" vector-effect="non-scaling-stroke">19</text><text x="4.693333e+02" y="10" dominant-baseline="hanging" stroke="none" vector-effect="non-scaling-stroke">20</text></g><g fill="black" font-family="sans-serif" stroke-linecap="round" text-anchor="middle" stroke-linejoin="round" font-size="12px" dominant-baseline="baseline" transform="translate(80 520 )scale(1 1 )rotate(0 0 0 )" font-style="normal" font-weight="bold" stroke="black" stroke-width="2px"><text stroke="none" vector-effect="non-scaling-stroke" x="320" y="-6" dominant-baseline="baseline">Day</text></g><g stroke-width="2px" dominant-baseline="baseline" transform="translate(80 520 )scale(1 -1 )" font-size="12px" text-anchor="middle" fill="black" stroke="black" font-style="normal" font-weight="bold" stroke-linecap="round" stroke-linejoin="round" font-family="sans-serif"><path vector-effect="non-scaling-stroke" d="M0,44 L-6,44 M0,7.920000e+01 L-6,7.920000e+01 M0,1.144000e+02 L-6,1.144000e+02 M0,1.496000e+02 L-6,1.496000e+02 M0,1.848000e+02 L-6,1.848000e+02 M0,220 L-6,220 M0,2.552000e+02 L-6,2.552000e+02 M0,2.904000e+02 L-6,2.904000e+02 M0,3.256000e+02 L-6,3.256000e+02 M0,3.608000e+02 L-6,3.608000e+02 M0,396 L-6,396 "/></g><g stroke-linecap="round" dominant-baseline="middle" font-family="sans-serif" font-weight="normal" fill="black" stroke="black" transform="translate(80 520 )scale(1 1 )" font-size="12px" text-anchor="end" font-style="normal" stroke-width="2px" stroke-linejoin="round"><text vector-effect="non-scaling-stroke" x="-10" y="-44" dominant-baseline="middle" stroke="none">0s</text><text stroke="none" vector-effect="non-scaling-stroke" x="-10" y="-7.920000e+01" dominant-baseline="middle">200ms</text><text stroke="none" vector-effect="non-scaling-stroke" x="-10" y="-1.144000e+02" dominant-baseline="middle">400ms</text><text stroke="none" vector-effect="non-scaling-stroke" x="-10" y="-1.496000e+02" dominant-baseline="middle">600ms</text><text stroke="none" vector-effect="non-scaling-stroke" x="-10" y="-1.848000e+02" dominant-baseline="middle">800ms</text><text vector-effect="non-scaling-stroke" x="-10" y="-220" dominant-baseline="middle" stroke="none">1s</text><text vector-effect="non-scaling-stroke" x="-10" y="-2.552000e+02" dominant-baseline="middle" stroke="none">1.2s</text><text dominant-baseline="middle" stroke="none" vector-effect="non-scaling-stroke" x="-10" y="-2.904000e+02">1.4s</text><text stroke="none" vector-effect="non-scaling-stroke" x="-10" y="-3.256000e+02" dominant-baseline="middle">1.6s</text><text vector-effect="non-scaling-stroke" x="-10" y="-3.608000e+02" dominant-baseline="middle" stroke="none">1.8s</text><text x="-10" y="-396" dominant-baseline="middle" stroke="none" vector-effect="non-scaling-stroke">2s</text></g><g stroke-linecap="round" font-size="12px" dominant-baseline="hanging" transform="translate(80 520 )scale(1 1 )rotate(-90 0 0 )" stroke-width="2px" font-style="normal" font-weight="bold" text-anchor="middle" fill="black" stroke="black" stroke-linejoin="round" font-family="sans-serif"><text stroke="none" vector-effect="non-scaling-stroke" x="220" y="6" dominant-baseline="hanging">Runtime</text></g></g></g></g></svg>