<svg viewbox="0 0 800 600" preserveAspectRatio="xMidYMid meet" xmlns="http://www.w3.org/2000/svg" width="800" height="600"><defs><marker viewBox="0 0 10 10 " refX="5" refY="5" markerUnits="userSpaceOnUse" markerWidth="2%" markerHeight="2%" id="circle"><circle r="3" fill="none" stroke="black" cx="5" cy="5"/></marker><marker refY="5" markerUnits="userSpaceOnUse" markerWidth="2%" markerHeight="2%" id="filled-circle" viewBox="0 0 10 10 " refX="5"><circle r="3" fill="black" stroke="none" cx="5" cy="5"/></marker><marker markerWidth="2%" markerHeight="2%" id="square" viewBox="0 0 10 10 " refX="5" refY="5" markerUnits="userSpaceOnUse"><rect height="6" fill="none" stroke="black" x="2" y="2" width="6"/></marker><marker viewBox="0 0 10 10 " refX="5" refY="5" markerUnits="userSpaceOnUse" markerWidth="2%" markerHeight="2%" id="filled-square"><rect fill="black" stroke="none" x="2" y="2" width="6" height="6"/></marker></defs><g stroke="hsl(198, 47%, 65%)" stroke-width="1px" stroke-linecap="round" stroke-linejoin="round" transform="translate(80 520 )scale(1 -1 )" fill="hsl(198, 47%, 65%)"><rect vector-effect="non-scaling-stroke" x="4.622222e+01" y="0" width="1.185185e+01" height="4.410760e+01"/><rect width="1.185185e+01" height="1.357531e+02" vector-effect="non-scaling-stroke" x="9.276768e+01" y="0"/><rect vector-effect="non-scaling-stroke" x="1.393131e+02" y="0" width="1.185185e+01" height="4.456632e+01"/><rect width="1.185185e+01" height="6.681151e+01" vector-effect="non-scaling-stroke" x="1.858586e+02" y="0"/><rect vector-effect="non-scaling-stroke" x="2.324040e+02" y="0" width="1.185185e+01" height="4.442906e+01"/><rect y="0" width="1.185185e+01" height="4.419161e+01" vector-effect="non-scaling-stroke" x="2.789495e+02"/><rect x="3.254949e+02" y="0" width="1.185185e+01" height="4.404994e+01" vector-effect="non-scaling-stroke"/><rect vector-effect="non-scaling-stroke" x="3.720404e+02" y="0" width="1.185185e+01" height="396"/><rect x="4.185859e+02" y="0" width="1.185185e+01" height="8.347082e+01" vector-effect="non-scaling-stroke"/><rect y="0" width="1.185185e+01" height="7.833864e+01" vector-effect="non-scaling-stroke" x="4.651313e+02"/><rect vector-effect="non-scaling-stroke" x="5.116768e+02" y="0" width="1.185185e+01" height="4.514039e+01"/><rect y="0" width="1.185185e+01" height="4.409738e+01" vector-effect="non-scaling-stroke" x="5.582222e+02"/></g><g stroke-linejoin="round" transform="translate(80 520 )scale(1 -1 )" fill="hsl(49, 88%, 65%)" stroke="hsl(49, 88%, 65%)" stroke-width="1px" stroke-linecap="round"><rect vector-effect="non-scaling-stroke" x="5.807407e+01" y="0" width="1.185185e+01" height="4.405445e+01"/><rect height="1.621897e+02" vector-effect="non-scaling-stroke" x="1.046195e+02" y="0" width="1.185185e+01"/><rect y="0" width="1.185185e+01" height="4.434206e+01" vector-effect="non-scaling-stroke" x="1.511650e+02"/><rect vector-effect="non-scaling-stroke" x="1.977104e+02" y="0" width="1.185185e+01" height="4.642057e+01"/><rect height="4.476679e+01" vector-effect="non-scaling-stroke" x="2.442559e+02" y="0" width="1.185185e+01"/><rect y="0" width="1.185185e+01" height="4.413790e+01" vector-effect="non-scaling-stroke" x="2.908013e+02"/><rect vector-effect="non-scaling-stroke" x="3.373468e+02" y="0" width="1.185185e+01" height="4.406232e+01"/><rect height="1.618717e+02" vector-effect="non-scaling-stroke" x="3.838923e+02" y="0" width="1.185185e+01"/><rect y="0" width="1.185185e+01" height="6.854051e+01" vector-effect="non-scaling-stroke" x="4.304377e+02"/><rect vector-effect="non-scaling-stroke" x="5.700741e+02" y="0" width="1.185185e+01" height="4.407277e+01"/></g><g stroke-linejoin="round" transform="translate(80 520 )scale(1 -1 )" fill="hsl(260, 76%, 65%)" stroke="hsl(260, 76%, 65%)" stroke-width="1px" stroke-linecap="round"><rect vector-effect="non-scaling-stroke" x="6.992593e+01" y="0" width="1.185185e+01" height="4.405652e+01"/><rect x="1.164714e+02" y="0" width="1.185185e+01" height="1.003720e+02" vector-effect="non-scaling-stroke"/><rect vector-effect="non-scaling-stroke" x="1.630168e+02" y="0" width="1.185185e+01" height="4.423564e+01"/><rect vector-effect="non-scaling-stroke" x="2.095623e+02" y="0" width="1.185185e+01" height="4.678042e+01"/><rect width="1.185185e+01" height="4.437231e+01" vector-effect="non-scaling-stroke" x="2.561077e+02" y="0"/><rect x="3.026532e+02" y="0" width="1.185185e+01" height="4.410825e+01" vector-effect="non-scaling-stroke"/><rect vector-effect="non-scaling-stroke" x="3.491987e+02" y="0" width="1.185185e+01" height="4.404004e+01"/><rect vector-effect="non-scaling-stroke" x="3.957441e+02" y="0" width="1.185185e+01" height="2.545900e+02"/><rect height="7.050048e+01" vector-effect="non-scaling-stroke" x="4.422896e+02" y="0" width="1.185185e+01"/><rect vector-effect="non-scaling-stroke" x="5.353805e+02" y="0" width="1.185185e+01" height="5.094216e+01"/><rect x="5.819259e+02" y="0" width="1.185185e+01" height="4.406382e+01" vector-effect="non-scaling-stroke"/></g><g dominant-baseline="hanging" stroke-width="1px" stroke-linecap="round" font-size="12px" font-style="normal" font-weight="normal" fill="hsl(198, 47%, 65%)" stroke-linejoin="round" text-anchor="start" stroke="hsl(198, 47%, 65%)" font-family="sans-serif"><rect y="466" width="12" height="12" vector-effect="non-scaling-stroke" x="736"/><g fill="black" stroke="black"><text stroke="none" vector-effect="non-scaling-stroke" x="752" y="466" dominant-baseline="hanging">Golang</text></g><g font-size="12px" text-anchor="start" stroke="hsl(49, 88%, 65%)" font-style="normal" dominant-baseline="hanging" fill="hsl(49, 88%, 65%)" stroke-width="1px" stroke-linejoin="round" font-family="sans-serif" font-weight="normal" stroke-linecap="round"><rect height="12" vector-effect="non-scaling-stroke" x="736" y="484" width="12"/><g stroke="black" fill="black"><text vector-effect="non-scaling-stroke" x="752" y="484" dominant-baseline="hanging" stroke="none">Rust</text></g><g stroke-width="1px" stroke-linecap="round" text-anchor="start" font-style="normal" dominant-baseline="hanging" fill="hsl(260, 76%, 65%)" stroke-linejoin="round" font-size="12px" stroke="hsl(260, 76%, 65%)" font-family="sans-serif" font-weight="normal"><rect y="502" width="12" height="12" vector-effect="non-scaling-stroke" x="736"/><g stroke="black" fill="black"><text stroke="none" vector-effect="non-scaling-stroke" x="752" y="502" dominant-baseline="hanging">Zig</text><g font-size="12px" fill="none" stroke-linejoin="round" font-style="normal" stroke-width="2px" dominant-baseline="hanging" stroke-linecap="round" text-anchor="start" font-family="sans-serif" font-weight="normal"><rect y="80" width="640" height="440" vector-effect="non-scaling-stroke" x="80"/></g><g stroke-width="2px" text-anchor="start" font-family="sans-serif" font-weight="normal" dominant-baseline="hanging" fill="none" stroke-linecap="round" stroke-linejoin="round" font-size="12px" transform="translate(80 520 )scale(1 -1 )" stroke="black" font-style="normal"><path d="M64,0 L64,-6 M1.105455e+02,0 L1.105455e+02,-6 M1.570909e+02,0 L1.570909e+02,-6 M2.036364e+02,0 L2.036364e+02,-6 M2.501818e+02,0 L2.501818e+02,-6 M2.967273e+02,0 L2.967273e+02,-6 M3.432727e+02,0 L3.432727e+02,-6 M3.898182e+02,0 L3.898182e+02,-6 M4.363636e+02,0 L4.363636e+02,-6 M4.829091e+02,0 L4.829091e+02,-6 M5.294545e+02,0 L5.294545e+02,-6 M576,0 L576,-6 " vector-effect="non-scaling-stroke"/></g><g stroke-linecap="round" stroke-linejoin="round" font-size="12px" text-anchor="middle" transform="translate(80 520 )scale(1 1 )" font-style="normal" dominant-baseline="hanging" stroke-width="2px" stroke="black" font-family="sans-serif" font-weight="normal" fill="black"><text stroke="none" vector-effect="non-scaling-stroke" x="64" y="10" dominant-baseline="hanging">1</text><text vector-effect="non-scaling-stroke" x="1.105455e+02" y="10" dominant-baseline="hanging" stroke="none">2</text><text x="1.570909e+02" y="10" dominant-baseline="hanging" stroke="none" vector-effect="non-scaling-stroke">3</text><text y="10" dominant-baseline="hanging" stroke="none" vector-effect="non-scaling-stroke" x="2.036364e+02">4</text><text stroke="none" vector-effect="non-scaling-stroke" x="2.501818e+02" y="10" dominant-baseline="hanging">5</text><text x="2.967273e+02" y="10" dominant-baseline="hanging" stroke="none" vector-effect="non-scaling-stroke">6</text><text dominant-baseline="hanging" stroke="none" vector-effect="non-scaling-stroke" x="3.432727e+02" y="10">7</text><text vector-effect="non-scaling-stroke" x="3.898182e+02" y="10" dominant-baseline="hanging" stroke="none">8</text><text y="10" dominant-baseline="hanging" stroke="none" vector-effect="non-scaling-stroke" x="4.363636e+02">9</text><text dominant-baseline="hanging" stroke="none" vector-effect="non-scaling-stroke" x="4.829091e+02" y="10">10</text><text dominant-baseline="hanging" stroke="none" vector-effect="non-scaling-stroke" x="5.294545e+02" y="10">11</text><text dominant-baseline="hanging" stroke="none" vector-effect="non-scaling-stroke" x="576" y="10">12</text></g><g stroke="black" font-style="normal" fill="black" stroke-width="2px" stroke-linecap="round" text-anchor="middle" font-family="sans-serif" font-weight="bold" dominant-baseline="baseline" stroke-linejoin="round" font-size="12px" transform="translate(80 520 )scale(1 1 )rotate(0 0 0 )"><text dominant-baseline="baseline" stroke="none" vector-effect="non-scaling-stroke" x="320" y="-6">Day</text></g><g font-style="normal" dominant-baseline="baseline" stroke-linecap="round" stroke-linejoin="round" text-anchor="middle" stroke="black" font-family="sans-serif" font-weight="bold" fill="black" stroke-width="2px" font-size="12px" transform="translate(80 520 )scale(1 -1 )"><path vector-effect="non-scaling-stroke" d="M0,44 L-6,44 M0,9.977477e+01 L-6,9.977477e+01 M0,1.555495e+02 L-6,1.555495e+02 M0,2.113243e+02 L-6,2.113243e+02 M0,2.670991e+02 L-6,2.670991e+02 M0,3.228738e+02 L-6,3.228738e+02 M0,3.786486e+02 L-6,3.786486e+02 "/></g><g font-weight="normal" dominant-baseline="middle" fill="black" stroke-width="2px" stroke-linecap="round" stroke-linejoin="round" font-size="12px" transform="translate(80 520 )scale(1 1 )" stroke="black" font-family="sans-serif" font-style="normal" text-anchor="end"><text x="-10" y="-44" dominant-baseline="middle" stroke="none" vector-effect="non-scaling-stroke">0s</text><text x="-10" y="-9.977477e+01" dominant-baseline="middle" stroke="none" vector-effect="non-scaling-stroke">10ms</text><text x="-10" y="-1.555495e+02" dominant-baseline="middle" stroke="none" vector-effect="non-scaling-stroke">20ms</text><text stroke="none" vector-effect="non-scaling-stroke" x="-10" y="-2.113243e+02" dominant-baseline="middle">30ms</text><text vector-effect="non-scaling-stroke" x="-10" y="-2.670991e+02" dominant-baseline="middle" stroke="none">40ms</text><text y="-3.228738e+02" dominant-baseline="middle" stroke="none" vector-effect="non-scaling-stroke" x="-10">50ms</text><text y="-3.786486e+02" dominant-baseline="middle" stroke="none" vector-effect="non-scaling-stroke" x="-10">60ms</text></g><g font-family="sans-serif" font-weight="bold" stroke-width="2px" stroke-linecap="round" transform="translate(80 520 )scale(1 1 )rotate(-90 0 0 )" stroke="black" font-style="normal" dominant-baseline="hanging" fill="black" stroke-linejoin="round" font-size="12px" text-anchor="middle"><text stroke="none" vector-effect="non-scaling-stroke" x="220" y="6" dominant-baseline="hanging">Runtime</text></g></g></g></g></g></svg>