<svg preserveAspectRatio="xMidYMid meet" xmlns="http://www.w3.org/2000/svg" width="800" height="600" viewbox="0 0 800 600"><defs><marker markerHeight="2%" id="circle" viewBox="0 0 10 10 " refX="5" refY="5" markerUnits="userSpaceOnUse" markerWidth="2%"><circle stroke="black" cx="5" cy="5" r="3" fill="none"/></marker><marker refX="5" refY="5" markerUnits="userSpaceOnUse" markerWidth="2%" markerHeight="2%" id="filled-circle" viewBox="0 0 10 10 "><circle cx="5" cy="5" r="3" fill="black" stroke="none"/></marker><marker refY="5" markerUnits="userSpaceOnUse" markerWidth="2%" markerHeight="2%" id="square" viewBox="0 0 10 10 " refX="5"><rect y="2" width="6" height="6" fill="none" stroke="black" x="2"/></marker><marker refY="5" markerUnits="userSpaceOnUse" markerWidth="2%" markerHeight="2%" id="filled-square" viewBox="0 0 10 10 " refX="5"><rect x="2" y="2" width="6" height="6" fill="black" stroke="none"/></marker></defs><g transform="translate(80 520 )scale(1 -1 )" fill="hsl(198, 47%, 65%)" stroke="hsl(198, 47%, 65%)" stroke-width="1px" stroke-linecap="round" stroke-linejoin="round"><rect vector-effect="non-scaling-stroke" x="5.546667e+01" y="0" width="8.533333e+00" height="1.590693e+02"/><rect width="8.533333e+00" height="7.726829e+01" vector-effect="non-scaling-stroke" x="7.680000e+01" y="0"/><rect vector-effect="non-scaling-stroke" x="9.813333e+01" y="0" width="8.533333e+00" height="396"/><rect vector-effect="non-scaling-stroke" x="1.194667e+02" y="0" width="8.533333e+00" height="44"/><rect x="1.408000e+02" y="0" width="8.533333e+00" height="44" vector-effect="non-scaling-stroke"/><rect vector-effect="non-scaling-stroke" x="1.621333e+02" y="0" width="8.533333e+00" height="44"/><rect height="44" vector-effect="non-scaling-stroke" x="1.834667e+02" y="0" width="8.533333e+00"/><rect vector-effect="non-scaling-stroke" x="2.048000e+02" y="0" width="8.533333e+00" height="44"/><rect vector-effect="non-scaling-stroke" x="2.261333e+02" y="0" width="8.533333e+00" height="44"/><rect height="44" vector-effect="non-scaling-stroke" x="2.474667e+02" y="0" width="8.533333e+00"/><rect vector-effect="non-scaling-stroke" x="2.688000e+02" y="0" width="8.533333e+00" height="44"/><rect height="44" vector-effect="non-scaling-stroke" x="2.901333e+02" y="0" width="8.533333e+00"/><rect x="3.114667e+02" y="0" width="8.533333e+00" height="44" vector-effect="non-scaling-stroke"/><rect height="44" vector-effect="non-scaling-stroke" x="3.328000e+02" y="0" width="8.533333e+00"/><rect x="3.541333e+02" y="0" width="8.533333e+00" height="44" vector-effect="non-scaling-stroke"/><rect vector-effect="non-scaling-stroke" x="3.754667e+02" y="0" width="8.533333e+00" height="44"/><rect x="3.968000e+02" y="0" width="8.533333e+00" height="44" vector-effect="non-scaling-stroke"/><rect height="44" vector-effect="non-scaling-stroke" x="4.181333e+02" y="0" width="8.533333e+00"/><rect width="8.533333e+00" height="44" vector-effect="non-scaling-stroke" x="4.394667e+02" y="0"/><rect x="4.608000e+02" y="0" width="8.533333e+00" height="44" vector-effect="non-scaling-stroke"/><rect height="44" vector-effect="non-scaling-stroke" x="4.821333e+02" y="0" width="8.533333e+00"/><rect vector-effect="non-scaling-stroke" x="5.034667e+02" y="0" width="8.533333e+00" height="44"/><rect width="8.533333e+00" height="44" vector-effect="non-scaling-stroke" x="5.248000e+02" y="0"/><rect y="0" width="8.533333e+00" height="44" vector-effect="non-scaling-stroke" x="5.461333e+02"/><rect width="8.533333e+00" height="44" vector-effect="non-scaling-stroke" x="5.674667e+02" y="0"/></g><g stroke-linejoin="round" transform="translate(80 520 )scale(1 -1 )" fill="hsl(49, 88%, 65%)" stroke="hsl(49, 88%, 65%)" stroke-width="1px" stroke-linecap="round"><rect vector-effect="non-scaling-stroke" x="64" y="0" width="8.533333e+00" height="4.424005e+01"/><rect x="8.533333e+01" y="0" width="8.533333e+00" height="5.415276e+01" vector-effect="non-scaling-stroke"/><rect width="8.533333e+00" height="3.094827e+02" vector-effect="non-scaling-stroke" x="1.066667e+02" y="0"/><rect vector-effect="non-scaling-stroke" x="128" y="0" width="8.533333e+00" height="44"/><rect width="8.533333e+00" height="44" vector-effect="non-scaling-stroke" x="1.493333e+02" y="0"/><rect vector-effect="non-scaling-stroke" x="1.706667e+02" y="0" width="8.533333e+00" height="44"/><rect x="192" y="0" width="8.533333e+00" height="44" vector-effect="non-scaling-stroke"/><rect x="2.133333e+02" y="0" width="8.533333e+00" height="44" vector-effect="non-scaling-stroke"/><rect vector-effect="non-scaling-stroke" x="2.346667e+02" y="0" width="8.533333e+00" height="44"/><rect width="8.533333e+00" height="44" vector-effect="non-scaling-stroke" x="2.560000e+02" y="0"/><rect vector-effect="non-scaling-stroke" x="2.773333e+02" y="0" width="8.533333e+00" height="44"/><rect width="8.533333e+00" height="44" vector-effect="non-scaling-stroke" x="2.986667e+02" y="0"/><rect height="44" vector-effect="non-scaling-stroke" x="320" y="0" width="8.533333e+00"/><rect y="0" width="8.533333e+00" height="44" vector-effect="non-scaling-stroke" x="3.413333e+02"/><rect x="3.626667e+02" y="0" width="8.533333e+00" height="44" vector-effect="non-scaling-stroke"/><rect y="0" width="8.533333e+00" height="44" vector-effect="non-scaling-stroke" x="384"/><rect width="8.533333e+00" height="44" vector-effect="non-scaling-stroke" x="4.053333e+02" y="0"/><rect vector-effect="non-scaling-stroke" x="4.266667e+02" y="0" width="8.533333e+00" height="44"/><rect vector-effect="non-scaling-stroke" x="448" y="0" width="8.533333e+00" height="44"/><rect y="0" width="8.533333e+00" height="44" vector-effect="non-scaling-stroke" x="4.693333e+02"/><rect width="8.533333e+00" height="44" vector-effect="non-scaling-stroke" x="4.906667e+02" y="0"/><rect height="44" vector-effect="non-scaling-stroke" x="512" y="0" width="8.533333e+00"/><rect vector-effect="non-scaling-stroke" x="5.333333e+02" y="0" width="8.533333e+00" height="44"/><rect y="0" width="8.533333e+00" height="44" vector-effect="non-scaling-stroke" x="5.546667e+02"/><rect x="576" y="0" width="8.533333e+00" height="44" vector-effect="non-scaling-stroke"/></g><g font-family="sans-serif" stroke="hsl(198, 47%, 65%)" stroke-linecap="round" stroke-linejoin="round" font-weight="normal" dominant-baseline="hanging" fill="hsl(198, 47%, 65%)" font-size="12px" font-style="normal" text-anchor="start" stroke-width="1px"><rect y="484" width="12" height="12" vector-effect="non-scaling-stroke" x="736"/><g fill="black" stroke="black"><text dominant-baseline="hanging" stroke="none" vector-effect="non-scaling-stroke" x="752" y="484">Golang</text></g><g stroke-linejoin="round" font-weight="normal" stroke-linecap="round" font-style="normal" stroke="hsl(49, 88%, 65%)" font-size="12px" dominant-baseline="hanging" fill="hsl(49, 88%, 65%)" stroke-width="1px" text-anchor="start" font-family="sans-serif"><rect height="12" vector-effect="non-scaling-stroke" x="736" y="502" width="12"/><g fill="black" stroke="black"><text x="752" y="502" dominant-baseline="hanging" stroke="none" vector-effect="non-scaling-stroke">Rust</text><g stroke-linecap="round" stroke-width="2px" stroke-linejoin="round" fill="none" font-style="normal" font-weight="normal" font-family="sans-serif" dominant-baseline="hanging" text-anchor="start" font-size="12px"><rect vector-effect="non-scaling-stroke" x="80" y="80" width="640" height="440"/></g><g fill="none" stroke-width="2px" stroke-linecap="round" dominant-baseline="hanging" text-anchor="start" font-family="sans-serif" font-size="12px" font-style="normal" transform="translate(80 520 )scale(1 -1 )" stroke-linejoin="round" font-weight="normal" stroke="black"><path vector-effect="non-scaling-stroke" d="M64,0 L64,-6 M8.533333e+01,0 L8.533333e+01,-6 M1.066667e+02,0 L1.066667e+02,-6 M128,0 L128,-6 M1.493333e+02,0 L1.493333e+02,-6 M1.706667e+02,0 L1.706667e+02,-6 M192,0 L192,-6 M2.133333e+02,0 L2.133333e+02,-6 M2.346667e+02,0 L2.346667e+02,-6 M256,0 L256,-6 M2.773333e+02,0 L2.773333e+02,-6 M2.986667e+02,0 L2.986667e+02,-6 M320,0 L320,-6 M3.413333e+02,0 L3.413333e+02,-6 M3.626667e+02,0 L3.626667e+02,-6 M384,0 L384,-6 M4.053333e+02,0 L4.053333e+02,-6 M4.266667e+02,0 L4.266667e+02,-6 M448,0 L448,-6 M4.693333e+02,0 L4.693333e+02,-6 M4.906667e+02,0 L4.906667e+02,-6 M512,0 L512,-6 M5.333333e+02,0 L5.333333e+02,-6 M5.546667e+02,0 L5.546667e+02,-6 M576,0 L576,-6 "/></g><g stroke-linejoin="round" font-weight="normal" dominant-baseline="hanging" stroke-width="2px" text-anchor="middle" stroke="black" font-family="sans-serif" fill="black" stroke-linecap="round" font-style="normal" font-size="12px" transform="translate(80 520 )scale(1 1 )"><text x="64" y="10" dominant-baseline="hanging" stroke="none" vector-effect="non-scaling-stroke">1</text><text stroke="none" vector-effect="non-scaling-stroke" x="8.533333e+01" y="10" dominant-baseline="hanging">2</text><text x="1.066667e+02" y="10" dominant-baseline="hanging" stroke="none" vector-effect="non-scaling-stroke">3</text><text stroke="none" vector-effect="non-scaling-stroke" x="128" y="10" dominant-baseline="hanging">4</text><text y="10" dominant-baseline="hanging" stroke="none" vector-effect="non-scaling-stroke" x="1.493333e+02">5</text><text vector-effect="non-scaling-stroke" x="1.706667e+02" y="10" dominant-baseline="hanging" stroke="none">6</text><text vector-effect="non-scaling-stroke" x="192" y="10" dominant-baseline="hanging" stroke="none">7</text><text y="10" dominant-baseline="hanging" stroke="none" vector-effect="non-scaling-stroke" x="2.133333e+02">8</text><text stroke="none" vector-effect="non-scaling-stroke" x="2.346667e+02" y="10" dominant-baseline="hanging">9</text><text dominant-baseline="hanging" stroke="none" vector-effect="non-scaling-stroke" x="256" y="10">10</text><text stroke="none" vector-effect="non-scaling-stroke" x="2.773333e+02" y="10" dominant-baseline="hanging">11</text><text stroke="none" vector-effect="non-scaling-stroke" x="2.986667e+02" y="10" dominant-baseline="hanging">12</text><text x="320" y="10" dominant-baseline="hanging" stroke="none" vector-effect="non-scaling-stroke">13</text><text dominant-baseline="hanging" stroke="none" vector-effect="non-scaling-stroke" x="3.413333e+02" y="10">14</text><text stroke="none" vector-effect="non-scaling-stroke" x="3.626667e+02" y="10" dominant-baseline="hanging">15</text><text x="384" y="10" dominant-baseline="hanging" stroke="none" vector-effect="non-scaling-stroke">16</text><text stroke="none" vector-effect="non-scaling-stroke" x="4.053333e+02" y="10" dominant-baseline="hanging">17</text><text stroke="none" vector-effect="non-scaling-stroke" x="4.266667e+02" y="10" dominant-baseline="hanging">18</text><text dominant-baseline="hanging" stroke="none" vector-effect="non-scaling-stroke" x="448" y="10">19</text><text stroke="none" vector-effect="non-scaling-stroke" x="4.693333e+02" y="10" dominant-baseline="hanging">20</text><text vector-effect="non-scaling-stroke" x="4.906667e+02" y="10" dominant-baseline="hanging" stroke="none">21</text><text vector-effect="non-scaling-stroke" x="512" y="10" dominant-baseline="hanging" stroke="none">22</text><text vector-effect="non-scaling-stroke" x="5.333333e+02" y="10" dominant-baseline="hanging" stroke="none">23</text><text stroke="none" vector-effect="non-scaling-stroke" x="5.546667e+02" y="10" dominant-baseline="hanging">24</text><text stroke="none" vector-effect="non-scaling-stroke" x="576" y="10" dominant-baseline="hanging">25</text></g><g text-anchor="middle" fill="black" stroke-width="2px" dominant-baseline="baseline" font-family="sans-serif" font-style="normal" font-size="12px" stroke-linecap="round" stroke-linejoin="round" font-weight="bold" transform="translate(80 520 )scale(1 1 )rotate(0 0 0 )" stroke="black"><text y="-6" dominant-baseline="baseline" stroke="none" vector-effect="non-scaling-stroke" x="320">Day</text></g><g transform="translate(80 520 )scale(1 -1 )" stroke-width="2px" stroke="black" text-anchor="middle" font-size="12px" font-style="normal" fill="black" stroke-linecap="round" stroke-linejoin="round" font-weight="bold" dominant-baseline="baseline" font-family="sans-serif"><path d="M0,44 L-6,44 M0,1.146033e+02 L-6,1.146033e+02 M0,1.852067e+02 L-6,1.852067e+02 M0,2.558100e+02 L-6,2.558100e+02 M0,3.264134e+02 L-6,3.264134e+02 " vector-effect="non-scaling-stroke"/></g><g text-anchor="end" stroke-linecap="round" stroke-linejoin="round" dominant-baseline="middle" transform="translate(80 520 )scale(1 1 )" stroke="black" font-family="sans-serif" fill="black" stroke-width="2px" font-weight="normal" font-size="12px" font-style="normal"><text vector-effect="non-scaling-stroke" x="-10" y="-44" dominant-baseline="middle" stroke="none">0s</text><text stroke="none" vector-effect="non-scaling-stroke" x="-10" y="-1.146033e+02" dominant-baseline="middle">10µs</text><text dominant-baseline="middle" stroke="none" vector-effect="non-scaling-stroke" x="-10" y="-1.852067e+02">20µs</text><text dominant-baseline="middle" stroke="none" vector-effect="non-scaling-stroke" x="-10" y="-2.558100e+02">30µs</text><text stroke="none" vector-effect="non-scaling-stroke" x="-10" y="-3.264134e+02" dominant-baseline="middle">40µs</text></g><g stroke-linecap="round" stroke-linejoin="round" dominant-baseline="hanging" transform="translate(80 520 )scale(1 1 )rotate(-90 0 0 )" stroke="black" font-family="sans-serif" font-weight="bold" fill="black" stroke-width="2px" font-size="12px" font-style="normal" text-anchor="middle"><text x="220" y="6" dominant-baseline="hanging" stroke="none" vector-effect="non-scaling-stroke">Runtime</text></g></g></g></g></svg>