<svg preserveAspectRatio="xMidYMid meet" xmlns="http://www.w3.org/2000/svg" width="800" height="600" viewbox="0 0 800 600"><defs><marker markerHeight="2%" id="circle" viewBox="0 0 10 10 " refX="5" refY="5" markerUnits="userSpaceOnUse" markerWidth="2%"><circle stroke="black" cx="5" cy="5" r="3" fill="none"/></marker><marker viewBox="0 0 10 10 " refX="5" refY="5" markerUnits="userSpaceOnUse" markerWidth="2%" markerHeight="2%" id="filled-circle"><circle fill="black" stroke="none" cx="5" cy="5" r="3"/></marker><marker id="square" viewBox="0 0 10 10 " refX="5" refY="5" markerUnits="userSpaceOnUse" markerWidth="2%" markerHeight="2%"><rect y="2" width="6" height="6" fill="none" stroke="black" x="2"/></marker><marker id="filled-square" viewBox="0 0 10 10 " refX="5" refY="5" markerUnits="userSpaceOnUse" markerWidth="2%" markerHeight="2%"><rect stroke="none" x="2" y="2" width="6" height="6" fill="black"/></marker></defs><g stroke-linecap="round" stroke-linejoin="round" transform="translate(80 520 )scale(1 -1 )" fill="hsl(198, 47%, 65%)" stroke="hsl(198, 47%, 65%)" stroke-width="1px"><rect y="0" width="1.580247e+01" height="4.410760e+01" vector-effect="non-scaling-stroke" x="4.029630e+01"/><rect width="1.580247e+01" height="1.357531e+02" vector-effect="non-scaling-stroke" x="8.684175e+01" y="0"/><rect width="1.580247e+01" height="4.456632e+01" vector-effect="non-scaling-stroke" x="1.333872e+02" y="0"/><rect height="6.681151e+01" vector-effect="non-scaling-stroke" x="1.799327e+02" y="0" width="1.580247e+01"/><rect vector-effect="non-scaling-stroke" x="2.264781e+02" y="0" width="1.580247e+01" height="4.442906e+01"/><rect width="1.580247e+01" height="4.419161e+01" vector-effect="non-scaling-stroke" x="2.730236e+02" y="0"/><rect height="4.404994e+01" vector-effect="non-scaling-stroke" x="3.195690e+02" y="0" width="1.580247e+01"/><rect x="3.661145e+02" y="0" width="1.580247e+01" height="396" vector-effect="non-scaling-stroke"/><rect width="1.580247e+01" height="8.366922e+01" vector-effect="non-scaling-stroke" x="4.126599e+02" y="0"/></g><g fill="hsl(49, 88%, 65%)" stroke="hsl(49, 88%, 65%)" stroke-width="1px" stroke-linecap="round" stroke-linejoin="round" transform="translate(80 520 )scale(1 -1 )"><rect vector-effect="non-scaling-stroke" x="5.609877e+01" y="0" width="1.580247e+01" height="4.405445e+01"/><rect width="1.580247e+01" height="1.621897e+02" vector-effect="non-scaling-stroke" x="1.026442e+02" y="0"/><rect width="1.580247e+01" height="4.434206e+01" vector-effect="non-scaling-stroke" x="1.491897e+02" y="0"/><rect x="1.957351e+02" y="0" width="1.580247e+01" height="4.642057e+01" vector-effect="non-scaling-stroke"/><rect vector-effect="non-scaling-stroke" x="2.422806e+02" y="0" width="1.580247e+01" height="4.476679e+01"/><rect x="2.888260e+02" y="0" width="1.580247e+01" height="4.413790e+01" vector-effect="non-scaling-stroke"/><rect vector-effect="non-scaling-stroke" x="3.353715e+02" y="0" width="1.580247e+01" height="4.406232e+01"/><rect x="3.819169e+02" y="0" width="1.580247e+01" height="1.618717e+02" vector-effect="non-scaling-stroke"/><rect x="4.284624e+02" y="0" width="1.580247e+01" height="6.854051e+01" vector-effect="non-scaling-stroke"/></g><g transform="translate(80 520 )scale(1 -1 )" fill="hsl(260, 76%, 65%)" stroke="hsl(260, 76%, 65%)" stroke-width="1px" stroke-linecap="round" stroke-linejoin="round"><rect width="1.580247e+01" height="4.405652e+01" vector-effect="non-scaling-stroke" x="7.190123e+01" y="0"/><rect vector-effect="non-scaling-stroke" x="1.184467e+02" y="0" width="1.580247e+01" height="1.003720e+02"/><rect height="4.423564e+01" vector-effect="non-scaling-stroke" x="1.649921e+02" y="0" width="1.580247e+01"/><rect x="2.115376e+02" y="0" width="1.580247e+01" height="4.678042e+01" vector-effect="non-scaling-stroke"/><rect height="4.437231e+01" vector-effect="non-scaling-stroke" x="2.580831e+02" y="0" width="1.580247e+01"/><rect vector-effect="non-scaling-stroke" x="3.046285e+02" y="0" width="1.580247e+01" height="4.410825e+01"/><rect height="4.404004e+01" vector-effect="non-scaling-stroke" x="3.511740e+02" y="0" width="1.580247e+01"/><rect vector-effect="non-scaling-stroke" x="3.977194e+02" y="0" width="1.580247e+01" height="2.545900e+02"/><rect vector-effect="non-scaling-stroke" x="4.442649e+02" y="0" width="1.580247e+01" height="7.050048e+01"/></g><g font-size="12px" font-weight="normal" stroke="hsl(198, 47%, 65%)" stroke-width="1px" stroke-linejoin="round" font-family="sans-serif" text-anchor="start" font-style="normal" dominant-baseline="hanging" fill="hsl(198, 47%, 65%)" stroke-linecap="round"><rect vector-effect="non-scaling-stroke" x="736" y="466" width="12" height="12"/><g fill="black" stroke="black"><text dominant-baseline="hanging" stroke="none" vector-effect="non-scaling-stroke" x="752" y="466">Golang</text></g><g fill="hsl(49, 88%, 65%)" font-size="12px" font-style="normal" font-weight="normal" stroke-width="1px" font-family="sans-serif" text-anchor="start" stroke-linecap="round" dominant-baseline="hanging" stroke="hsl(49, 88%, 65%)" stroke-linejoin="round"><rect y="484" width="12" height="12" vector-effect="non-scaling-stroke" x="736"/><g fill="black" stroke="black"><text x="752" y="484" dominant-baseline="hanging" stroke="none" vector-effect="non-scaling-stroke">Rust</text></g><g text-anchor="start" font-style="normal" stroke="hsl(260, 76%, 65%)" stroke-width="1px" stroke-linejoin="round" font-family="sans-serif" fill="hsl(260, 76%, 65%)" stroke-linecap="round" font-size="12px" font-weight="normal" dominant-baseline="hanging"><rect vector-effect="non-scaling-stroke" x="736" y="502" width="12" height="12"/><g stroke="black" fill="black"><text y="502" dominant-baseline="hanging" stroke="none" vector-effect="non-scaling-stroke" x="752">Zig</text><g stroke-linejoin="round" font-weight="normal" font-family="sans-serif" font-size="12px" font-style="normal" stroke-width="2px" text-anchor="start" fill="none" stroke-linecap="round" dominant-baseline="hanging"><rect vector-effect="non-scaling-stroke" x="80" y="80" width="640" height="440"/></g><g font-style="normal" font-weight="normal" dominant-baseline="hanging" stroke="black" stroke-width="2px" font-family="sans-serif" text-anchor="start" fill="none" stroke-linecap="round" stroke-linejoin="round" transform="translate(80 520 )scale(1 -1 )" font-size="12px"><path vector-effect="non-scaling-stroke" d="M64,0 L64,-6 M1.105455e+02,0 L1.105455e+02,-6 M1.570909e+02,0 L1.570909e+02,-6 M2.036364e+02,0 L2.036364e+02,-6 M2.501818e+02,0 L2.501818e+02,-6 M2.967273e+02,0 L2.967273e+02,-6 M3.432727e+02,0 L3.432727e+02,-6 M3.898182e+02,0 L3.898182e+02,-6 M4.363636e+02,0 L4.363636e+02,-6 "/></g><g font-weight="normal" dominant-baseline="hanging" stroke="black" stroke-linejoin="round" font-family="sans-serif" text-anchor="middle" transform="translate(80 520 )scale(1 1 )" font-size="12px" stroke-width="2px" fill="black" stroke-linecap="round" font-style="normal"><text y="10" dominant-baseline="hanging" stroke="none" vector-effect="non-scaling-stroke" x="64">1</text><text vector-effect="non-scaling-stroke" x="1.105455e+02" y="10" dominant-baseline="hanging" stroke="none">2</text><text vector-effect="non-scaling-stroke" x="1.570909e+02" y="10" dominant-baseline="hanging" stroke="none">3</text><text x="2.036364e+02" y="10" dominant-baseline="hanging" stroke="none" vector-effect="non-scaling-stroke">4</text><text stroke="none" vector-effect="non-scaling-stroke" x="2.501818e+02" y="10" dominant-baseline="hanging">5</text><text x="2.967273e+02" y="10" dominant-baseline="hanging" stroke="none" vector-effect="non-scaling-stroke">6</text><text vector-effect="non-scaling-stroke" x="3.432727e+02" y="10" dominant-baseline="hanging" stroke="none">7</text><text x="3.898182e+02" y="10" dominant-baseline="hanging" stroke="none" vector-effect="non-scaling-stroke">8</text><text vector-effect="non-scaling-stroke" x="4.363636e+02" y="10" dominant-baseline="hanging" stroke="none">9</text></g><g stroke-linejoin="round" font-style="normal" font-weight="bold" dominant-baseline="baseline" stroke-width="2px" font-family="sans-serif" text-anchor="middle" transform="translate(80 520 )scale(1 1 )rotate(0 0 0 )" fill="black" stroke-linecap="round" font-size="12px" stroke="black"><text y="-6" dominant-baseline="baseline" stroke="none" vector-effect="non-scaling-stroke" x="320">Day</text></g><g stroke="black" stroke-linejoin="round" text-anchor="middle" fill="black" font-size="12px" font-style="normal" stroke-width="2px" font-family="sans-serif" transform="translate(80 520 )scale(1 -1 )" stroke-linecap="round" font-weight="bold" dominant-baseline="baseline"><path vector-effect="non-scaling-stroke" d="M0,44 L-6,44 M0,9.977477e+01 L-6,9.977477e+01 M0,1.555495e+02 L-6,1.555495e+02 M0,2.113243e+02 L-6,2.113243e+02 M0,2.670991e+02 L-6,2.670991e+02 M0,3.228738e+02 L-6,3.228738e+02 M0,3.786486e+02 L-6,3.786486e+02 "/></g><g dominant-baseline="middle" font-family="sans-serif" text-anchor="end" font-style="normal" stroke="black" stroke-width="2px" stroke-linejoin="round" transform="translate(80 520 )scale(1 1 )" fill="black" stroke-linecap="round" font-size="12px" font-weight="normal"><text x="-10" y="-44" dominant-baseline="middle" stroke="none" vector-effect="non-scaling-stroke">0s</text><text vector-effect="non-scaling-stroke" x="-10" y="-9.977477e+01" dominant-baseline="middle" stroke="none">10ms</text><text x="-10" y="-1.555495e+02" dominant-baseline="middle" stroke="none" vector-effect="non-scaling-stroke">20ms</text><text x="-10" y="-2.113243e+02" dominant-baseline="middle" stroke="none" vector-effect="non-scaling-stroke">30ms</text><text y="-2.670991e+02" dominant-baseline="middle" stroke="none" vector-effect="non-scaling-stroke" x="-10">40ms</text><text dominant-baseline="middle" stroke="none" vector-effect="non-scaling-stroke" x="-10" y="-3.228738e+02">50ms</text><text vector-effect="non-scaling-stroke" x="-10" y="-3.786486e+02" dominant-baseline="middle" stroke="none">60ms</text></g><g font-family="sans-serif" text-anchor="middle" transform="translate(80 520 )scale(1 1 )rotate(-90 0 0 )" fill="black" font-style="normal" font-weight="bold" stroke="black" stroke-linecap="round" font-size="12px" dominant-baseline="hanging" stroke-width="2px" stroke-linejoin="round"><text stroke="none" vector-effect="non-scaling-stroke" x="220" y="6" dominant-baseline="hanging">Runtime</text></g></g></g></g></g></svg>