<svg width="800" height="600" viewbox="0 0 800 600" preserveAspectRatio="xMidYMid meet" xmlns="http://www.w3.org/2000/svg"><defs><marker refY="5" markerUnits="userSpaceOnUse" markerWidth="2%" markerHeight="2%" id="circle" viewBox="0 0 10 10 " refX="5"><circle cx="5" cy="5" r="3" fill="none" stroke="black"/></marker><marker id="filled-circle" viewBox="0 0 10 10 " refX="5" refY="5" markerUnits="userSpaceOnUse" markerWidth="2%" markerHeight="2%"><circle stroke="none" cx="5" cy="5" r="3" fill="black"/></marker><marker markerWidth="2%" markerHeight="2%" id="square" viewBox="0 0 10 10 " refX="5" refY="5" markerUnits="userSpaceOnUse"><rect x="2" y="2" width="6" height="6" fill="none" stroke="black"/></marker><marker markerWidth="2%" markerHeight="2%" id="filled-square" viewBox="0 0 10 10 " refX="5" refY="5" markerUnits="userSpaceOnUse"><rect y="2" width="6" height="6" fill="black" stroke="none" x="2"/></marker></defs><g fill="hsl(198, 47%, 65%)" stroke="hsl(198, 47%, 65%)" stroke-width="1px" stroke-linecap="round" stroke-linejoin="round" transform="translate(80 520 )scale(1 -1 )"><rect vector-effect="non-scaling-stroke" x="4.758974e+01" y="0" width="1.641026e+01" height="4.413748e+01"/><rect x="6.892308e+01" y="0" width="1.641026e+01" height="4.423326e+01" vector-effect="non-scaling-stroke"/><rect vector-effect="non-scaling-stroke" x="9.025641e+01" y="0" width="1.641026e+01" height="4.414482e+01"/><rect y="0" width="1.641026e+01" height="4.533401e+01" vector-effect="non-scaling-stroke" x="1.115897e+02"/><rect vector-effect="non-scaling-stroke" x="1.329231e+02" y="0" width="1.641026e+01" height="4.414970e+01"/><rect vector-effect="non-scaling-stroke" x="1.542564e+02" y="0" width="1.641026e+01" height="396"/><rect height="1.265206e+02" vector-effect="non-scaling-stroke" x="1.755897e+02" y="0" width="1.641026e+01"/><rect vector-effect="non-scaling-stroke" x="1.969231e+02" y="0" width="1.641026e+01" height="4.403414e+01"/><rect y="0" width="1.641026e+01" height="5.167989e+01" vector-effect="non-scaling-stroke" x="2.182564e+02"/><rect vector-effect="non-scaling-stroke" x="2.395897e+02" y="0" width="1.641026e+01" height="4.622438e+01"/><rect vector-effect="non-scaling-stroke" x="2.609231e+02" y="0" width="1.641026e+01" height="5.060396e+01"/><rect width="1.641026e+01" height="4.690133e+01" vector-effect="non-scaling-stroke" x="2.822564e+02" y="0"/><rect vector-effect="non-scaling-stroke" x="3.035897e+02" y="0" width="1.641026e+01" height="4.403436e+01"/></g><g stroke-linecap="round" stroke-linejoin="round" transform="translate(80 520 )scale(1 -1 )" fill="hsl(49, 88%, 65%)" stroke="hsl(49, 88%, 65%)" stroke-width="1px"><rect height="4.422948e+01" vector-effect="non-scaling-stroke" x="64" y="0" width="1.641026e+01"/><rect vector-effect="non-scaling-stroke" x="8.533333e+01" y="0" width="1.641026e+01" height="4.421116e+01"/><rect x="1.066667e+02" y="0" width="1.641026e+01" height="4.404346e+01" vector-effect="non-scaling-stroke"/><rect vector-effect="non-scaling-stroke" x="128" y="0" width="1.641026e+01" height="4.622662e+01"/><rect width="1.641026e+01" height="4.410670e+01" vector-effect="non-scaling-stroke" x="1.493333e+02" y="0"/><rect x="1.706667e+02" y="0" width="1.641026e+01" height="3.114004e+02" vector-effect="non-scaling-stroke"/><rect vector-effect="non-scaling-stroke" x="192" y="0" width="1.641026e+01" height="1.275011e+02"/><rect x="2.133333e+02" y="0" width="1.641026e+01" height="4.401625e+01" vector-effect="non-scaling-stroke"/><rect x="2.346667e+02" y="0" width="1.641026e+01" height="4.690768e+01" vector-effect="non-scaling-stroke"/><rect vector-effect="non-scaling-stroke" x="256" y="0" width="1.641026e+01" height="4.418291e+01"/><rect height="4.918509e+01" vector-effect="non-scaling-stroke" x="2.773333e+02" y="0" width="1.641026e+01"/><rect width="1.641026e+01" height="4.621178e+01" vector-effect="non-scaling-stroke" x="2.986667e+02" y="0"/><rect height="4.402768e+01" vector-effect="non-scaling-stroke" x="320" y="0" width="1.641026e+01"/></g><g stroke="hsl(198, 47%, 65%)" stroke-linecap="round" font-family="sans-serif" stroke-linejoin="round" font-size="12px" font-weight="normal" fill="hsl(198, 47%, 65%)" text-anchor="start" dominant-baseline="hanging" stroke-width="1px" font-style="normal"><rect y="484" width="12" height="12" vector-effect="non-scaling-stroke" x="736"/><g fill="black" stroke="black"><text dominant-baseline="hanging" stroke="none" vector-effect="non-scaling-stroke" x="752" y="484">Golang</text></g><g stroke="hsl(49, 88%, 65%)" stroke-linecap="round" font-family="sans-serif" font-size="12px" dominant-baseline="hanging" text-anchor="start" stroke-linejoin="round" stroke-width="1px" font-weight="normal" fill="hsl(49, 88%, 65%)" font-style="normal"><rect vector-effect="non-scaling-stroke" x="736" y="502" width="12" height="12"/><g fill="black" stroke="black"><text dominant-baseline="hanging" stroke="none" vector-effect="non-scaling-stroke" x="752" y="502">Rust</text><g stroke-linecap="round" font-weight="normal" dominant-baseline="hanging" stroke-width="2px" stroke-linejoin="round" text-anchor="start" font-style="normal" fill="none" font-family="sans-serif" font-size="12px"><rect height="440" vector-effect="non-scaling-stroke" x="80" y="80" width="640"/></g><g font-size="12px" font-weight="normal" font-family="sans-serif" transform="translate(80 520 )scale(1 -1 )" stroke-linejoin="round" text-anchor="start" dominant-baseline="hanging" fill="none" stroke="black" stroke-width="2px" stroke-linecap="round" font-style="normal"><path d="M64,0 L64,-6 M8.533333e+01,0 L8.533333e+01,-6 M1.066667e+02,0 L1.066667e+02,-6 M128,0 L128,-6 M1.493333e+02,0 L1.493333e+02,-6 M1.706667e+02,0 L1.706667e+02,-6 M192,0 L192,-6 M2.133333e+02,0 L2.133333e+02,-6 M2.346667e+02,0 L2.346667e+02,-6 M256,0 L256,-6 M2.773333e+02,0 L2.773333e+02,-6 M2.986667e+02,0 L2.986667e+02,-6 M320,0 L320,-6 " vector-effect="non-scaling-stroke"/></g><g stroke-linecap="round" font-family="sans-serif" font-size="12px" transform="translate(80 520 )scale(1 1 )" stroke-linejoin="round" stroke="black" stroke-width="2px" fill="black" font-style="normal" text-anchor="middle" font-weight="normal" dominant-baseline="hanging"><text vector-effect="non-scaling-stroke" x="64" y="10" dominant-baseline="hanging" stroke="none">1</text><text stroke="none" vector-effect="non-scaling-stroke" x="8.533333e+01" y="10" dominant-baseline="hanging">2</text><text stroke="none" vector-effect="non-scaling-stroke" x="1.066667e+02" y="10" dominant-baseline="hanging">3</text><text x="128" y="10" dominant-baseline="hanging" stroke="none" vector-effect="non-scaling-stroke">4</text><text x="1.493333e+02" y="10" dominant-baseline="hanging" stroke="none" vector-effect="non-scaling-stroke">5</text><text stroke="none" vector-effect="non-scaling-stroke" x="1.706667e+02" y="10" dominant-baseline="hanging">6</text><text y="10" dominant-baseline="hanging" stroke="none" vector-effect="non-scaling-stroke" x="192">7</text><text stroke="none" vector-effect="non-scaling-stroke" x="2.133333e+02" y="10" dominant-baseline="hanging">8</text><text vector-effect="non-scaling-stroke" x="2.346667e+02" y="10" dominant-baseline="hanging" stroke="none">9</text><text vector-effect="non-scaling-stroke" x="256" y="10" dominant-baseline="hanging" stroke="none">10</text><text vector-effect="non-scaling-stroke" x="2.773333e+02" y="10" dominant-baseline="hanging" stroke="none">11</text><text stroke="none" vector-effect="non-scaling-stroke" x="2.986667e+02" y="10" dominant-baseline="hanging">12</text><text dominant-baseline="hanging" stroke="none" vector-effect="non-scaling-stroke" x="320" y="10">13</text></g><g transform="translate(80 520 )scale(1 1 )rotate(0 0 0 )" stroke-linejoin="round" stroke-width="2px" stroke-linecap="round" font-size="12px" fill="black" font-style="normal" text-anchor="middle" stroke="black" font-family="sans-serif" font-weight="bold" dominant-baseline="baseline"><text vector-effect="non-scaling-stroke" x="320" y="-6" dominant-baseline="baseline" stroke="none">Day</text></g><g fill="black" stroke-width="2px" font-size="12px" text-anchor="middle" font-style="normal" dominant-baseline="baseline" stroke="black" stroke-linecap="round" font-family="sans-serif" font-weight="bold" transform="translate(80 520 )scale(1 -1 )" stroke-linejoin="round"><path vector-effect="non-scaling-stroke" d="M0,44 L-6,44 M0,9.307912e+01 L-6,9.307912e+01 M0,1.421582e+02 L-6,1.421582e+02 M0,1.912374e+02 L-6,1.912374e+02 M0,2.403165e+02 L-6,2.403165e+02 M0,2.893956e+02 L-6,2.893956e+02 M0,3.384747e+02 L-6,3.384747e+02 M0,3.875538e+02 L-6,3.875538e+02 "/></g><g font-style="normal" stroke="black" stroke-width="2px" stroke-linecap="round" font-weight="normal" transform="translate(80 520 )scale(1 1 )" text-anchor="end" stroke-linejoin="round" font-family="sans-serif" font-size="12px" dominant-baseline="middle" fill="black"><text x="-10" y="-44" dominant-baseline="middle" stroke="none" vector-effect="non-scaling-stroke">0s</text><text dominant-baseline="middle" stroke="none" vector-effect="non-scaling-stroke" x="-10" y="-9.307912e+01">10ms</text><text dominant-baseline="middle" stroke="none" vector-effect="non-scaling-stroke" x="-10" y="-1.421582e+02">20ms</text><text y="-1.912374e+02" dominant-baseline="middle" stroke="none" vector-effect="non-scaling-stroke" x="-10">30ms</text><text y="-2.403165e+02" dominant-baseline="middle" stroke="none" vector-effect="non-scaling-stroke" x="-10">40ms</text><text vector-effect="non-scaling-stroke" x="-10" y="-2.893956e+02" dominant-baseline="middle" stroke="none">50ms</text><text dominant-baseline="middle" stroke="none" vector-effect="non-scaling-stroke" x="-10" y="-3.384747e+02">60ms</text><text x="-10" y="-3.875538e+02" dominant-baseline="middle" stroke="none" vector-effect="non-scaling-stroke">70ms</text></g><g font-weight="bold" transform="translate(80 520 )scale(1 1 )rotate(-90 0 0 )" font-style="normal" fill="black" stroke="black" font-family="sans-serif" stroke-linecap="round" font-size="12px" stroke-linejoin="round" text-anchor="middle" dominant-baseline="hanging" stroke-width="2px"><text vector-effect="non-scaling-stroke" x="220" y="6" dominant-baseline="hanging" stroke="none">Runtime</text></g></g></g></g></svg>