<svg preserveAspectRatio="xMidYMid meet" xmlns="http://www.w3.org/2000/svg" width="800" height="600" viewbox="0 0 800 600"><defs><marker markerWidth="2%" markerHeight="2%" id="circle" viewBox="0 0 10 10 " refX="5" refY="5" markerUnits="userSpaceOnUse"><circle cx="5" cy="5" r="3" fill="none" stroke="black"/></marker><marker id="filled-circle" viewBox="0 0 10 10 " refX="5" refY="5" markerUnits="userSpaceOnUse" markerWidth="2%" markerHeight="2%"><circle cx="5" cy="5" r="3" fill="black" stroke="none"/></marker><marker markerHeight="2%" id="square" viewBox="0 0 10 10 " refX="5" refY="5" markerUnits="userSpaceOnUse" markerWidth="2%"><rect fill="none" stroke="black" x="2" y="2" width="6" height="6"/></marker><marker markerUnits="userSpaceOnUse" markerWidth="2%" markerHeight="2%" id="filled-square" viewBox="0 0 10 10 " refX="5" refY="5"><rect width="6" height="6" fill="black" stroke="none" x="2" y="2"/></marker></defs><g stroke="hsl(198, 47%, 65%)" stroke-width="1px" stroke-linecap="round" stroke-linejoin="round" transform="translate(80 520 )scale(1 -1 )" fill="hsl(198, 47%, 65%)"><rect y="0" width="8.533333e+00" height="4.401621e+01" vector-effect="non-scaling-stroke" x="5.546667e+01"/><rect y="0" width="8.533333e+00" height="4.400417e+01" vector-effect="non-scaling-stroke" x="7.680000e+01"/><rect width="8.533333e+00" height="4.404750e+01" vector-effect="non-scaling-stroke" x="9.813333e+01" y="0"/><rect x="1.194667e+02" y="0" width="8.533333e+00" height="4.401781e+01" vector-effect="non-scaling-stroke"/><rect y="0" width="8.533333e+00" height="4.401205e+01" vector-effect="non-scaling-stroke" x="1.408000e+02"/><rect vector-effect="non-scaling-stroke" x="1.621333e+02" y="0" width="8.533333e+00" height="4.400657e+01"/><rect height="4.402785e+01" vector-effect="non-scaling-stroke" x="1.834667e+02" y="0" width="8.533333e+00"/><rect y="0" width="8.533333e+00" height="4.463364e+01" vector-effect="non-scaling-stroke" x="2.048000e+02"/><rect y="0" width="8.533333e+00" height="4.436760e+01" vector-effect="non-scaling-stroke" x="2.261333e+02"/><rect width="8.533333e+00" height="4.400158e+01" vector-effect="non-scaling-stroke" x="2.474667e+02" y="0"/><rect width="8.533333e+00" height="5.718099e+01" vector-effect="non-scaling-stroke" x="2.688000e+02" y="0"/><rect x="2.901333e+02" y="0" width="8.533333e+00" height="4.453335e+01" vector-effect="non-scaling-stroke"/><rect height="4.451587e+01" vector-effect="non-scaling-stroke" x="3.114667e+02" y="0" width="8.533333e+00"/><rect vector-effect="non-scaling-stroke" x="3.328000e+02" y="0" width="8.533333e+00" height="4.997305e+01"/><rect y="0" width="8.533333e+00" height="4.400498e+01" vector-effect="non-scaling-stroke" x="3.541333e+02"/><rect width="8.533333e+00" height="3.096100e+02" vector-effect="non-scaling-stroke" x="3.754667e+02" y="0"/><rect vector-effect="non-scaling-stroke" x="3.968000e+02" y="0" width="8.533333e+00" height="4.445922e+01"/><rect x="4.181333e+02" y="0" width="8.533333e+00" height="4.417830e+01" vector-effect="non-scaling-stroke"/><rect y="0" width="8.533333e+00" height="2.073173e+02" vector-effect="non-scaling-stroke" x="4.394667e+02"/><rect vector-effect="non-scaling-stroke" x="4.608000e+02" y="0" width="8.533333e+00" height="8.654738e+01"/><rect y="0" width="8.533333e+00" height="4.437663e+01" vector-effect="non-scaling-stroke" x="4.821333e+02"/><rect width="8.533333e+00" height="4.483644e+01" vector-effect="non-scaling-stroke" x="5.034667e+02" y="0"/><rect y="0" width="8.533333e+00" height="1.371295e+02" vector-effect="non-scaling-stroke" x="5.248000e+02"/><rect vector-effect="non-scaling-stroke" x="5.461333e+02" y="0" width="8.533333e+00" height="1.623528e+02"/><rect x="5.674667e+02" y="0" width="8.533333e+00" height="4.400279e+01" vector-effect="non-scaling-stroke"/></g><g stroke-width="1px" stroke-linecap="round" stroke-linejoin="round" transform="translate(80 520 )scale(1 -1 )" fill="hsl(49, 88%, 65%)" stroke="hsl(49, 88%, 65%)"><rect width="8.533333e+00" height="4.400693e+01" vector-effect="non-scaling-stroke" x="64" y="0"/><rect vector-effect="non-scaling-stroke" x="8.533333e+01" y="0" width="8.533333e+00" height="4.400106e+01"/><rect width="8.533333e+00" height="4.403551e+01" vector-effect="non-scaling-stroke" x="1.066667e+02" y="0"/><rect height="4.401196e+01" vector-effect="non-scaling-stroke" x="128" y="0" width="8.533333e+00"/><rect vector-effect="non-scaling-stroke" x="1.493333e+02" y="0" width="8.533333e+00" height="4.400925e+01"/><rect vector-effect="non-scaling-stroke" x="1.706667e+02" y="0" width="8.533333e+00" height="4.401054e+01"/><rect vector-effect="non-scaling-stroke" x="192" y="0" width="8.533333e+00" height="4.402073e+01"/><rect vector-effect="non-scaling-stroke" x="2.133333e+02" y="0" width="8.533333e+00" height="4.460378e+01"/><rect vector-effect="non-scaling-stroke" x="2.346667e+02" y="0" width="8.533333e+00" height="4.439051e+01"/><rect x="2.560000e+02" y="0" width="8.533333e+00" height="4.400111e+01" vector-effect="non-scaling-stroke"/><rect height="4.933238e+01" vector-effect="non-scaling-stroke" x="2.773333e+02" y="0" width="8.533333e+00"/><rect vector-effect="non-scaling-stroke" x="2.986667e+02" y="0" width="8.533333e+00" height="4.429364e+01"/><rect width="8.533333e+00" height="4.442308e+01" vector-effect="non-scaling-stroke" x="320" y="0"/><rect x="3.413333e+02" y="0" width="8.533333e+00" height="5.011543e+01" vector-effect="non-scaling-stroke"/><rect height="4.400207e+01" vector-effect="non-scaling-stroke" x="3.626667e+02" y="0" width="8.533333e+00"/><rect height="396" vector-effect="non-scaling-stroke" x="384" y="0" width="8.533333e+00"/><rect vector-effect="non-scaling-stroke" x="4.053333e+02" y="0" width="8.533333e+00" height="4.432364e+01"/><rect vector-effect="non-scaling-stroke" x="4.266667e+02" y="0" width="8.533333e+00" height="4.420702e+01"/><rect width="8.533333e+00" height="1.033720e+02" vector-effect="non-scaling-stroke" x="448" y="0"/><rect vector-effect="non-scaling-stroke" x="4.693333e+02" y="0" width="8.533333e+00" height="7.967368e+01"/><rect height="4.443162e+01" vector-effect="non-scaling-stroke" x="4.906667e+02" y="0" width="8.533333e+00"/><rect vector-effect="non-scaling-stroke" x="512" y="0" width="8.533333e+00" height="4.461319e+01"/><rect width="8.533333e+00" height="1.257143e+02" vector-effect="non-scaling-stroke" x="5.333333e+02" y="0"/><rect y="0" width="8.533333e+00" height="1.816159e+02" vector-effect="non-scaling-stroke" x="5.546667e+02"/><rect x="576" y="0" width="8.533333e+00" height="4.400679e+01" vector-effect="non-scaling-stroke"/></g><g stroke-linecap="round" font-size="12px" font-family="sans-serif" dominant-baseline="hanging" stroke-width="1px" font-weight="normal" text-anchor="start" fill="hsl(198, 47%, 65%)" stroke-linejoin="round" font-style="normal" stroke="hsl(198, 47%, 65%)"><rect width="12" height="12" vector-effect="non-scaling-stroke" x="736" y="484"/><g fill="black" stroke="black"><text dominant-baseline="hanging" stroke="none" vector-effect="non-scaling-stroke" x="752" y="484">Golang</text></g><g stroke-width="1px" stroke-linejoin="round" font-weight="normal" stroke-linecap="round" font-family="sans-serif" dominant-baseline="hanging" stroke="hsl(49, 88%, 65%)" fill="hsl(49, 88%, 65%)" font-size="12px" font-style="normal" text-anchor="start"><rect width="12" height="12" vector-effect="non-scaling-stroke" x="736" y="502"/><g fill="black" stroke="black"><text dominant-baseline="hanging" stroke="none" vector-effect="non-scaling-stroke" x="752" y="502">Rust</text><g stroke-width="2px" font-family="sans-serif" dominant-baseline="hanging" font-weight="normal" font-size="12px" text-anchor="start" stroke-linejoin="round" font-style="normal" stroke-linecap="round" fill="none"><rect vector-effect="non-scaling-stroke" x="80" y="80" width="640" height="440"/></g><g font-style="normal" font-weight="normal" text-anchor="start" font-family="sans-serif" stroke-linecap="round" stroke-linejoin="round" transform="translate(80 520 )scale(1 -1 )" stroke="black" stroke-width="2px" dominant-baseline="hanging" fill="none" font-size="12px"><path d="M64,0 L64,-6 M8.533333e+01,0 L8.533333e+01,-6 M1.066667e+02,0 L1.066667e+02,-6 M128,0 L128,-6 M1.493333e+02,0 L1.493333e+02,-6 M1.706667e+02,0 L1.706667e+02,-6 M192,0 L192,-6 M2.133333e+02,0 L2.133333e+02,-6 M2.346667e+02,0 L2.346667e+02,-6 M256,0 L256,-6 M2.773333e+02,0 L2.773333e+02,-6 M2.986667e+02,0 L2.986667e+02,-6 M320,0 L320,-6 M3.413333e+02,0 L3.413333e+02,-6 M3.626667e+02,0 L3.626667e+02,-6 M384,0 L384,-6 M4.053333e+02,0 L4.053333e+02,-6 M4.266667e+02,0 L4.266667e+02,-6 M448,0 L448,-6 M4.693333e+02,0 L4.693333e+02,-6 M4.906667e+02,0 L4.906667e+02,-6 M512,0 L512,-6 M5.333333e+02,0 L5.333333e+02,-6 M5.546667e+02,0 L5.546667e+02,-6 M576,0 L576,-6 " vector-effect="non-scaling-stroke"/></g><g stroke-width="2px" font-family="sans-serif" font-size="12px" transform="translate(80 520 )scale(1 1 )" dominant-baseline="hanging" stroke="black" stroke-linecap="round" stroke-linejoin="round" font-style="normal" font-weight="normal" text-anchor="middle" fill="black"><text dominant-baseline="hanging" stroke="none" vector-effect="non-scaling-stroke" x="64" y="10">1</text><text stroke="none" vector-effect="non-scaling-stroke" x="8.533333e+01" y="10" dominant-baseline="hanging">2</text><text stroke="none" vector-effect="non-scaling-stroke" x="1.066667e+02" y="10" dominant-baseline="hanging">3</text><text vector-effect="non-scaling-stroke" x="128" y="10" dominant-baseline="hanging" stroke="none">4</text><text y="10" dominant-baseline="hanging" stroke="none" vector-effect="non-scaling-stroke" x="1.493333e+02">5</text><text x="1.706667e+02" y="10" dominant-baseline="hanging" stroke="none" vector-effect="non-scaling-stroke">6</text><text y="10" dominant-baseline="hanging" stroke="none" vector-effect="non-scaling-stroke" x="192">7</text><text dominant-baseline="hanging" stroke="none" vector-effect="non-scaling-stroke" x="2.133333e+02" y="10">8</text><text y="10" dominant-baseline="hanging" stroke="none" vector-effect="non-scaling-stroke" x="2.346667e+02">9</text><text stroke="none" vector-effect="non-scaling-stroke" x="256" y="10" dominant-baseline="hanging">10</text><text vector-effect="non-scaling-stroke" x="2.773333e+02" y="10" dominant-baseline="hanging" stroke="none">11</text><text dominant-baseline="hanging" stroke="none" vector-effect="non-scaling-stroke" x="2.986667e+02" y="10">12</text><text y="10" dominant-baseline="hanging" stroke="none" vector-effect="non-scaling-stroke" x="320">13</text><text x="3.413333e+02" y="10" dominant-baseline="hanging" stroke="none" vector-effect="non-scaling-stroke">14</text><text x="3.626667e+02" y="10" dominant-baseline="hanging" stroke="none" vector-effect="non-scaling-stroke">15</text><text y="10" dominant-baseline="hanging" stroke="none" vector-effect="non-scaling-stroke" x="384">16</text><text vector-effect="non-scaling-stroke" x="4.053333e+02" y="10" dominant-baseline="hanging" stroke="none">17</text><text y="10" dominant-baseline="hanging" stroke="none" vector-effect="non-scaling-stroke" x="4.266667e+02">18</text><text vector-effect="non-scaling-stroke" x="448" y="10" dominant-baseline="hanging" stroke="none">19</text><text dominant-baseline="hanging" stroke="none" vector-effect="non-scaling-stroke" x="4.693333e+02" y="10">20</text><text dominant-baseline="hanging" stroke="none" vector-effect="non-scaling-stroke" x="4.906667e+02" y="10">21</text><text stroke="none" vector-effect="non-scaling-stroke" x="512" y="10" dominant-baseline="hanging">22</text><text y="10" dominant-baseline="hanging" stroke="none" vector-effect="non-scaling-stroke" x="5.333333e+02">23</text><text vector-effect="non-scaling-stroke" x="5.546667e+02" y="10" dominant-baseline="hanging" stroke="none">24</text><text x="576" y="10" dominant-baseline="hanging" stroke="none" vector-effect="non-scaling-stroke">25</text></g><g stroke="black" stroke-width="2px" dominant-baseline="baseline" transform="translate(80 520 )scale(1 1 )rotate(0 0 0 )" stroke-linecap="round" font-weight="bold" text-anchor="middle" font-family="sans-serif" fill="black" stroke-linejoin="round" font-size="12px" font-style="normal"><text y="-6" dominant-baseline="baseline" stroke="none" vector-effect="non-scaling-stroke" x="320">Day</text></g><g stroke-linejoin="round" font-size="12px" stroke="black" stroke-width="2px" font-style="normal" font-weight="bold" fill="black" stroke-linecap="round" font-family="sans-serif" dominant-baseline="baseline" text-anchor="middle" transform="translate(80 520 )scale(1 -1 )"><path d="M0,44 L-6,44 M0,1.372344e+02 L-6,1.372344e+02 M0,2.304687e+02 L-6,2.304687e+02 M0,3.237031e+02 L-6,3.237031e+02 " vector-effect="non-scaling-stroke"/></g><g font-size="12px" font-style="normal" font-weight="normal" stroke="black" dominant-baseline="middle" fill="black" stroke-linecap="round" stroke-linejoin="round" text-anchor="end" transform="translate(80 520 )scale(1 1 )" stroke-width="2px" font-family="sans-serif"><text stroke="none" vector-effect="non-scaling-stroke" x="-10" y="-44" dominant-baseline="middle">0s</text><text vector-effect="non-scaling-stroke" x="-10" y="-1.372344e+02" dominant-baseline="middle" stroke="none">100ms</text><text vector-effect="non-scaling-stroke" x="-10" y="-2.304687e+02" dominant-baseline="middle" stroke="none">200ms</text><text vector-effect="non-scaling-stroke" x="-10" y="-3.237031e+02" dominant-baseline="middle" stroke="none">300ms</text></g><g font-family="sans-serif" transform="translate(80 520 )scale(1 1 )rotate(-90 0 0 )" font-style="normal" stroke-linecap="round" stroke-linejoin="round" font-size="12px" stroke="black" stroke-width="2px" dominant-baseline="hanging" text-anchor="middle" fill="black" font-weight="bold"><text dominant-baseline="hanging" stroke="none" vector-effect="non-scaling-stroke" x="220" y="6">Runtime</text></g></g></g></g></svg>