<svg xmlns="http://www.w3.org/2000/svg" width="800" height="600" viewbox="0 0 800 600" preserveAspectRatio="xMidYMid meet"><defs><marker markerUnits="userSpaceOnUse" markerWidth="2%" markerHeight="2%" id="circle" viewBox="0 0 10 10 " refX="5" refY="5"><circle fill="none" stroke="black" cx="5" cy="5" r="3"/></marker><marker refX="5" refY="5" markerUnits="userSpaceOnUse" markerWidth="2%" markerHeight="2%" id="filled-circle" viewBox="0 0 10 10 "><circle cx="5" cy="5" r="3" fill="black" stroke="none"/></marker><marker viewBox="0 0 10 10 " refX="5" refY="5" markerUnits="userSpaceOnUse" markerWidth="2%" markerHeight="2%" id="square"><rect width="6" height="6" fill="none" stroke="black" x="2" y="2"/></marker><marker refY="5" markerUnits="userSpaceOnUse" markerWidth="2%" markerHeight="2%" id="filled-square" viewBox="0 0 10 10 " refX="5"><rect width="6" height="6" fill="black" stroke="none" x="2" y="2"/></marker></defs><g stroke-linejoin="round" transform="translate(80 520 )scale(1 -1 )" fill="hsl(198, 47%, 65%)" stroke="hsl(198, 47%, 65%)" stroke-width="1px" stroke-linecap="round"><rect height="4.403267e+01" vector-effect="non-scaling-stroke" x="4.029630e+01" y="0" width="1.580247e+01"/><rect vector-effect="non-scaling-stroke" x="6.162963e+01" y="0" width="1.580247e+01" height="4.400104e+01"/><rect height="4.400471e+01" vector-effect="non-scaling-stroke" x="8.296296e+01" y="0" width="1.580247e+01"/><rect x="1.042963e+02" y="0" width="1.580247e+01" height="4.400597e+01" vector-effect="non-scaling-stroke"/><rect width="1.580247e+01" height="7.832963e+02" vector-effect="non-scaling-stroke" x="1.256296e+02" y="0"/><rect y="0" width="1.580247e+01" height="4.400002e+01" vector-effect="non-scaling-stroke" x="1.469630e+02"/><rect width="1.580247e+01" height="4.406514e+01" vector-effect="non-scaling-stroke" x="1.682963e+02" y="0"/><rect vector-effect="non-scaling-stroke" x="1.896296e+02" y="0" width="1.580247e+01" height="4.417566e+01"/><rect vector-effect="non-scaling-stroke" x="2.109630e+02" y="0" width="1.580247e+01" height="4.401569e+01"/></g><g stroke="hsl(49, 88%, 65%)" stroke-width="1px" stroke-linecap="round" stroke-linejoin="round" transform="translate(80 520 )scale(1 -1 )" fill="hsl(49, 88%, 65%)"><rect y="0" width="1.580247e+01" height="4.401633e+01" vector-effect="non-scaling-stroke" x="5.609877e+01"/><rect x="7.743210e+01" y="0" width="1.580247e+01" height="4.400042e+01" vector-effect="non-scaling-stroke"/><rect height="4.400305e+01" vector-effect="non-scaling-stroke" x="9.876543e+01" y="0" width="1.580247e+01"/><rect y="0" width="1.580247e+01" height="4.400333e+01" vector-effect="non-scaling-stroke" x="1.200988e+02"/><rect vector-effect="non-scaling-stroke" x="1.414321e+02" y="0" width="1.580247e+01" height="4.400210e+01"/><rect height="4.400002e+01" vector-effect="non-scaling-stroke" x="1.627654e+02" y="0" width="1.580247e+01"/><rect height="4.449101e+01" vector-effect="non-scaling-stroke" x="2.054321e+02" y="0" width="1.580247e+01"/><rect height="4.400863e+01" vector-effect="non-scaling-stroke" x="2.267654e+02" y="0" width="1.580247e+01"/></g><g stroke-width="1px" stroke-linecap="round" stroke-linejoin="round" transform="translate(80 520 )scale(1 -1 )" fill="hsl(260, 76%, 65%)" stroke="hsl(260, 76%, 65%)"><rect vector-effect="non-scaling-stroke" x="7.190123e+01" y="0" width="1.580247e+01" height="4.401306e+01"/><rect height="4.400046e+01" vector-effect="non-scaling-stroke" x="9.323457e+01" y="0" width="1.580247e+01"/><rect y="0" width="1.580247e+01" height="4.400244e+01" vector-effect="non-scaling-stroke" x="1.145679e+02"/><rect x="1.359012e+02" y="0" width="1.580247e+01" height="4.400926e+01" vector-effect="non-scaling-stroke"/><rect vector-effect="non-scaling-stroke" x="1.785679e+02" y="0" width="1.580247e+01" height="4.400002e+01"/><rect vector-effect="non-scaling-stroke" x="2.212346e+02" y="0" width="1.580247e+01" height="4.403898e+01"/><rect width="1.580247e+01" height="4.400962e+01" vector-effect="non-scaling-stroke" x="2.425679e+02" y="0"/></g><g font-family="sans-serif" font-style="normal" font-weight="normal" fill="hsl(198, 47%, 65%)" stroke-linecap="round" stroke-linejoin="round" text-anchor="start" dominant-baseline="hanging" stroke-width="1px" font-size="12px" stroke="hsl(198, 47%, 65%)"><rect y="466" width="12" height="12" vector-effect="non-scaling-stroke" x="736"/><g fill="black" stroke="black"><text stroke="none" vector-effect="non-scaling-stroke" x="752" y="466" dominant-baseline="hanging">Golang</text></g><g stroke="hsl(49, 88%, 65%)" font-family="sans-serif" stroke-width="1px" stroke-linecap="round" font-size="12px" fill="hsl(49, 88%, 65%)" font-style="normal" font-weight="normal" text-anchor="start" dominant-baseline="hanging" stroke-linejoin="round"><rect height="12" vector-effect="non-scaling-stroke" x="736" y="484" width="12"/><g stroke="black" fill="black"><text dominant-baseline="hanging" stroke="none" vector-effect="non-scaling-stroke" x="752" y="484">Rust</text></g><g stroke="hsl(260, 76%, 65%)" stroke-linejoin="round" font-size="12px" stroke-width="1px" stroke-linecap="round" font-family="sans-serif" font-style="normal" font-weight="normal" text-anchor="start" dominant-baseline="hanging" fill="hsl(260, 76%, 65%)"><rect height="12" vector-effect="non-scaling-stroke" x="736" y="502" width="12"/><g fill="black" stroke="black"><text dominant-baseline="hanging" stroke="none" vector-effect="non-scaling-stroke" x="752" y="502">Zig</text><g fill="none" text-anchor="start" stroke-width="2px" font-style="normal" dominant-baseline="hanging" font-size="12px" font-family="sans-serif" stroke-linejoin="round" stroke-linecap="round" font-weight="normal"><rect height="440" vector-effect="non-scaling-stroke" x="80" y="80" width="640"/></g><g fill="none" stroke-linecap="round" stroke="black" font-family="sans-serif" font-weight="normal" dominant-baseline="hanging" stroke-width="2px" font-size="12px" transform="translate(80 520 )scale(1 -1 )" stroke-linejoin="round" font-style="normal" text-anchor="start"><path d="M64,0 L64,-6 M8.533333e+01,0 L8.533333e+01,-6 M1.066667e+02,0 L1.066667e+02,-6 M128,0 L128,-6 M1.493333e+02,0 L1.493333e+02,-6 M1.706667e+02,0 L1.706667e+02,-6 M192,0 L192,-6 M2.133333e+02,0 L2.133333e+02,-6 M2.346667e+02,0 L2.346667e+02,-6 " vector-effect="non-scaling-stroke"/></g><g fill="black" stroke-width="2px" stroke-linecap="round" dominant-baseline="hanging" font-family="sans-serif" font-weight="normal" stroke-linejoin="round" font-style="normal" font-size="12px" text-anchor="middle" transform="translate(80 520 )scale(1 1 )" stroke="black"><text dominant-baseline="hanging" stroke="none" vector-effect="non-scaling-stroke" x="64" y="10">1</text><text stroke="none" vector-effect="non-scaling-stroke" x="8.533333e+01" y="10" dominant-baseline="hanging">2</text><text vector-effect="non-scaling-stroke" x="1.066667e+02" y="10" dominant-baseline="hanging" stroke="none">3</text><text stroke="none" vector-effect="non-scaling-stroke" x="128" y="10" dominant-baseline="hanging">4</text><text stroke="none" vector-effect="non-scaling-stroke" x="1.493333e+02" y="10" dominant-baseline="hanging">5</text><text y="10" dominant-baseline="hanging" stroke="none" vector-effect="non-scaling-stroke" x="1.706667e+02">6</text><text y="10" dominant-baseline="hanging" stroke="none" vector-effect="non-scaling-stroke" x="192">7</text><text dominant-baseline="hanging" stroke="none" vector-effect="non-scaling-stroke" x="2.133333e+02" y="10">8</text><text stroke="none" vector-effect="non-scaling-stroke" x="2.346667e+02" y="10" dominant-baseline="hanging">9</text></g><g fill="black" font-size="12px" text-anchor="middle" font-family="sans-serif" stroke="black" stroke-linejoin="round" font-style="normal" font-weight="bold" stroke-width="2px" stroke-linecap="round" dominant-baseline="baseline" transform="translate(80 520 )scale(1 1 )rotate(0 0 0 )"><text vector-effect="non-scaling-stroke" x="320" y="-6" dominant-baseline="baseline" stroke="none">Day</text></g><g fill="black" stroke-linecap="round" font-style="normal" dominant-baseline="baseline" transform="translate(80 520 )scale(1 -1 )" stroke="black" stroke-linejoin="round" font-size="12px" stroke-width="2px" font-weight="bold" text-anchor="middle" font-family="sans-serif"><path vector-effect="non-scaling-stroke" d="M0,44 L-6,44 M0,7.920000e+01 L-6,7.920000e+01 M0,1.144000e+02 L-6,1.144000e+02 M0,1.496000e+02 L-6,1.496000e+02 M0,1.848000e+02 L-6,1.848000e+02 M0,220 L-6,220 M0,2.552000e+02 L-6,2.552000e+02 M0,2.904000e+02 L-6,2.904000e+02 M0,3.256000e+02 L-6,3.256000e+02 M0,3.608000e+02 L-6,3.608000e+02 M0,396 L-6,396 "/></g><g transform="translate(80 520 )scale(1 1 )" stroke="black" fill="black" stroke-width="2px" stroke-linecap="round" text-anchor="end" dominant-baseline="middle" stroke-linejoin="round" font-family="sans-serif" font-style="normal" font-weight="normal" font-size="12px"><text y="-44" dominant-baseline="middle" stroke="none" vector-effect="non-scaling-stroke" x="-10">0s</text><text vector-effect="non-scaling-stroke" x="-10" y="-7.920000e+01" dominant-baseline="middle" stroke="none">200ms</text><text vector-effect="non-scaling-stroke" x="-10" y="-1.144000e+02" dominant-baseline="middle" stroke="none">400ms</text><text stroke="none" vector-effect="non-scaling-stroke" x="-10" y="-1.496000e+02" dominant-baseline="middle">600ms</text><text stroke="none" vector-effect="non-scaling-stroke" x="-10" y="-1.848000e+02" dominant-baseline="middle">800ms</text><text stroke="none" vector-effect="non-scaling-stroke" x="-10" y="-220" dominant-baseline="middle">1s</text><text y="-2.552000e+02" dominant-baseline="middle" stroke="none" vector-effect="non-scaling-stroke" x="-10">1.2s</text><text dominant-baseline="middle" stroke="none" vector-effect="non-scaling-stroke" x="-10" y="-2.904000e+02">1.4s</text><text vector-effect="non-scaling-stroke" x="-10" y="-3.256000e+02" dominant-baseline="middle" stroke="none">1.6s</text><text stroke="none" vector-effect="non-scaling-stroke" x="-10" y="-3.608000e+02" dominant-baseline="middle">1.8s</text><text y="-396" dominant-baseline="middle" stroke="none" vector-effect="non-scaling-stroke" x="-10">2s</text></g><g text-anchor="middle" stroke-width="2px" stroke-linecap="round" font-size="12px" dominant-baseline="hanging" font-family="sans-serif" font-style="normal" font-weight="bold" transform="translate(80 520 )scale(1 1 )rotate(-90 0 0 )" stroke="black" stroke-linejoin="round" fill="black"><text stroke="none" vector-effect="non-scaling-stroke" x="220" y="6" dominant-baseline="hanging">Runtime</text></g></g></g></g></g></svg>