<svg preserveAspectRatio="xMidYMid meet" xmlns="http://www.w3.org/2000/svg" width="800" height="600" viewbox="0 0 800 600"><defs><marker refX="5" refY="5" markerUnits="userSpaceOnUse" markerWidth="2%" markerHeight="2%" id="circle" viewBox="0 0 10 10 "><circle cy="5" r="3" fill="none" stroke="black" cx="5"/></marker><marker refY="5" markerUnits="userSpaceOnUse" markerWidth="2%" markerHeight="2%" id="filled-circle" viewBox="0 0 10 10 " refX="5"><circle stroke="none" cx="5" cy="5" r="3" fill="black"/></marker><marker viewBox="0 0 10 10 " refX="5" refY="5" markerUnits="userSpaceOnUse" markerWidth="2%" markerHeight="2%" id="square"><rect fill="none" stroke="black" x="2" y="2" width="6" height="6"/></marker><marker markerWidth="2%" markerHeight="2%" id="filled-square" viewBox="0 0 10 10 " refX="5" refY="5" markerUnits="userSpaceOnUse"><rect width="6" height="6" fill="black" stroke="none" x="2" y="2"/></marker></defs><g stroke-width="1px" stroke-linecap="round" stroke-linejoin="round" transform="translate(80 520 )scale(1 -1 )" fill="hsl(198, 47%, 65%)" stroke="hsl(198, 47%, 65%)"><rect height="4.434024e+01" vector-effect="non-scaling-stroke" x="5.546667e+01" y="0" width="5.688889e+00"/><rect vector-effect="non-scaling-stroke" x="7.680000e+01" y="0" width="5.688889e+00" height="4.434260e+01"/><rect x="9.813333e+01" y="0" width="5.688889e+00" height="4.420963e+01" vector-effect="non-scaling-stroke"/><rect vector-effect="non-scaling-stroke" x="1.194667e+02" y="0" width="5.688889e+00" height="4.595929e+01"/><rect x="1.408000e+02" y="0" width="5.688889e+00" height="4.421987e+01" vector-effect="non-scaling-stroke"/><rect height="7.962626e+01" vector-effect="non-scaling-stroke" x="1.621333e+02" y="0" width="5.688889e+00"/><rect x="1.834667e+02" y="0" width="5.688889e+00" height="4.607668e+01" vector-effect="non-scaling-stroke"/><rect y="0" width="5.688889e+00" height="4.404891e+01" vector-effect="non-scaling-stroke" x="2.048000e+02"/><rect y="0" width="5.688889e+00" height="4.733019e+01" vector-effect="non-scaling-stroke" x="2.261333e+02"/><rect width="5.688889e+00" height="4.482237e+01" vector-effect="non-scaling-stroke" x="2.474667e+02" y="0"/><rect vector-effect="non-scaling-stroke" x="2.688000e+02" y="0" width="5.688889e+00" height="5.394247e+01"/><rect width="5.688889e+00" height="4.826125e+01" vector-effect="non-scaling-stroke" x="2.901333e+02" y="0"/><rect y="0" width="5.688889e+00" height="4.405202e+01" vector-effect="non-scaling-stroke" x="3.114667e+02"/><rect height="4.593313e+01" vector-effect="non-scaling-stroke" x="3.328000e+02" y="0" width="5.688889e+00"/><rect width="5.688889e+00" height="4.836807e+01" vector-effect="non-scaling-stroke" x="3.541333e+02" y="0"/><rect vector-effect="non-scaling-stroke" x="3.754667e+02" y="0" width="5.688889e+00" height="4.807357e+01"/><rect y="0" width="5.688889e+00" height="4.413991e+01" vector-effect="non-scaling-stroke" x="3.968000e+02"/><rect width="5.688889e+00" height="4.548364e+01" vector-effect="non-scaling-stroke" x="4.181333e+02" y="0"/><rect vector-effect="non-scaling-stroke" x="4.394667e+02" y="0" width="5.688889e+00" height="5.408317e+01"/><rect x="4.608000e+02" y="0" width="5.688889e+00" height="1.876414e+02" vector-effect="non-scaling-stroke"/><rect height="4.400045e+01" vector-effect="non-scaling-stroke" x="4.821333e+02" y="0" width="5.688889e+00"/><rect vector-effect="non-scaling-stroke" x="5.034667e+02" y="0" width="5.688889e+00" height="1.247928e+02"/><rect vector-effect="non-scaling-stroke" x="5.248000e+02" y="0" width="5.688889e+00" height="1.355243e+02"/><rect x="5.461333e+02" y="0" width="5.688889e+00" height="4.430629e+01" vector-effect="non-scaling-stroke"/><rect vector-effect="non-scaling-stroke" x="5.674667e+02" y="0" width="5.688889e+00" height="4.600926e+01"/></g><g stroke-linecap="round" stroke-linejoin="round" transform="translate(80 520 )scale(1 -1 )" fill="hsl(49, 88%, 65%)" stroke="hsl(49, 88%, 65%)" stroke-width="1px"><rect x="6.115556e+01" y="0" width="5.688889e+00" height="4.413684e+01" vector-effect="non-scaling-stroke"/><rect x="8.248889e+01" y="0" width="5.688889e+00" height="4.429206e+01" vector-effect="non-scaling-stroke"/><rect vector-effect="non-scaling-stroke" x="1.038222e+02" y="0" width="5.688889e+00" height="4.407353e+01"/><rect y="0" width="5.688889e+00" height="4.701346e+01" vector-effect="non-scaling-stroke" x="1.251556e+02"/><rect height="4.412548e+01" vector-effect="non-scaling-stroke" x="1.464889e+02" y="0" width="5.688889e+00"/><rect x="1.678222e+02" y="0" width="5.688889e+00" height="7.366695e+01" vector-effect="non-scaling-stroke"/><rect x="1.891556e+02" y="0" width="5.688889e+00" height="4.581106e+01" vector-effect="non-scaling-stroke"/><rect x="2.104889e+02" y="0" width="5.688889e+00" height="4.403174e+01" vector-effect="non-scaling-stroke"/><rect height="4.828635e+01" vector-effect="non-scaling-stroke" x="2.318222e+02" y="0" width="5.688889e+00"/><rect vector-effect="non-scaling-stroke" x="2.531556e+02" y="0" width="5.688889e+00" height="4.458194e+01"/><rect vector-effect="non-scaling-stroke" x="2.744889e+02" y="0" width="5.688889e+00" height="5.193968e+01"/><rect height="4.689833e+01" vector-effect="non-scaling-stroke" x="2.958222e+02" y="0" width="5.688889e+00"/><rect y="0" width="5.688889e+00" height="4.403885e+01" vector-effect="non-scaling-stroke" x="3.171556e+02"/><rect vector-effect="non-scaling-stroke" x="3.384889e+02" y="0" width="5.688889e+00" height="6.878091e+01"/><rect width="5.688889e+00" height="5.360860e+01" vector-effect="non-scaling-stroke" x="3.598222e+02" y="0"/><rect width="5.688889e+00" height="8.388133e+01" vector-effect="non-scaling-stroke" x="3.811556e+02" y="0"/><rect vector-effect="non-scaling-stroke" x="4.024889e+02" y="0" width="5.688889e+00" height="4.547648e+01"/><rect x="4.238222e+02" y="0" width="5.688889e+00" height="4.486413e+01" vector-effect="non-scaling-stroke"/><rect vector-effect="non-scaling-stroke" x="4.451556e+02" y="0" width="5.688889e+00" height="5.692960e+01"/><rect y="0" width="5.688889e+00" height="2.539716e+02" vector-effect="non-scaling-stroke" x="4.664889e+02"/><rect vector-effect="non-scaling-stroke" x="4.878222e+02" y="0" width="5.688889e+00" height="4.400021e+01"/><rect width="5.688889e+00" height="396" vector-effect="non-scaling-stroke" x="5.091556e+02" y="0"/><rect vector-effect="non-scaling-stroke" x="5.304889e+02" y="0" width="5.688889e+00" height="4.783383e+01"/><rect vector-effect="non-scaling-stroke" x="5.518222e+02" y="0" width="5.688889e+00" height="4.460861e+01"/><rect width="5.688889e+00" height="4.585385e+01" vector-effect="non-scaling-stroke" x="5.731556e+02" y="0"/></g><g stroke-linejoin="round" transform="translate(80 520 )scale(1 -1 )" fill="hsl(260, 76%, 65%)" stroke="hsl(260, 76%, 65%)" stroke-width="1px" stroke-linecap="round"><rect x="6.684444e+01" y="0" width="5.688889e+00" height="4.423524e+01" vector-effect="non-scaling-stroke"/><rect vector-effect="non-scaling-stroke" x="8.817778e+01" y="0" width="5.688889e+00" height="4.421313e+01"/><rect vector-effect="non-scaling-stroke" x="1.095111e+02" y="0" width="5.688889e+00" height="4.419418e+01"/><rect vector-effect="non-scaling-stroke" x="1.308444e+02" y="0" width="5.688889e+00" height="4.519196e+01"/><rect height="4.410518e+01" vector-effect="non-scaling-stroke" x="1.521778e+02" y="0" width="5.688889e+00"/><rect x="1.735111e+02" y="0" width="5.688889e+00" height="7.766004e+01" vector-effect="non-scaling-stroke"/><rect vector-effect="non-scaling-stroke" x="1.948444e+02" y="0" width="5.688889e+00" height="4.571017e+01"/><rect height="4.402919e+01" vector-effect="non-scaling-stroke" x="2.161778e+02" y="0" width="5.688889e+00"/><rect vector-effect="non-scaling-stroke" x="2.375111e+02" y="0" width="5.688889e+00" height="4.695654e+01"/><rect height="5.816407e+01" vector-effect="non-scaling-stroke" x="2.588444e+02" y="0" width="5.688889e+00"/><rect x="2.801778e+02" y="0" width="5.688889e+00" height="5.274199e+01" vector-effect="non-scaling-stroke"/><rect y="0" width="5.688889e+00" height="1.433821e+02" vector-effect="non-scaling-stroke" x="3.015111e+02"/><rect height="4.403628e+01" vector-effect="non-scaling-stroke" x="3.228444e+02" y="0" width="5.688889e+00"/><rect x="3.441778e+02" y="0" width="5.688889e+00" height="8.123280e+01" vector-effect="non-scaling-stroke"/><rect y="0" width="5.688889e+00" height="5.301897e+01" vector-effect="non-scaling-stroke" x="3.655111e+02"/><rect vector-effect="non-scaling-stroke" x="3.868444e+02" y="0" width="5.688889e+00" height="1.110925e+02"/><rect x="4.081778e+02" y="0" width="5.688889e+00" height="4.459918e+01" vector-effect="non-scaling-stroke"/><rect vector-effect="non-scaling-stroke" x="4.295111e+02" y="0" width="5.688889e+00" height="4.498857e+01"/><rect height="6.026692e+01" vector-effect="non-scaling-stroke" x="4.508444e+02" y="0" width="5.688889e+00"/><rect x="4.721778e+02" y="0" width="5.688889e+00" height="2.077459e+02" vector-effect="non-scaling-stroke"/><rect height="4.414820e+01" vector-effect="non-scaling-stroke" x="4.935111e+02" y="0" width="5.688889e+00"/><rect width="5.688889e+00" height="2.999486e+02" vector-effect="non-scaling-stroke" x="5.148444e+02" y="0"/><rect y="0" width="5.688889e+00" height="4.774681e+01" vector-effect="non-scaling-stroke" x="5.361778e+02"/><rect y="0" width="5.688889e+00" height="4.480555e+01" vector-effect="non-scaling-stroke" x="5.575111e+02"/><rect height="4.542635e+01" vector-effect="non-scaling-stroke" x="5.788444e+02" y="0" width="5.688889e+00"/></g><g stroke="hsl(198, 47%, 65%)" stroke-linecap="round" font-family="sans-serif" font-size="12px" font-weight="normal" text-anchor="start" dominant-baseline="hanging" fill="hsl(198, 47%, 65%)" stroke-width="1px" stroke-linejoin="round" font-style="normal"><rect x="736" y="466" width="12" height="12" vector-effect="non-scaling-stroke"/><g fill="black" stroke="black"><text x="752" y="466" dominant-baseline="hanging" stroke="none" vector-effect="non-scaling-stroke">Golang</text></g><g stroke="hsl(49, 88%, 65%)" stroke-width="1px" stroke-linecap="round" font-family="sans-serif" font-size="12px" font-weight="normal" dominant-baseline="hanging" stroke-linejoin="round" font-style="normal" text-anchor="start" fill="hsl(49, 88%, 65%)"><rect x="736" y="484" width="12" height="12" vector-effect="non-scaling-stroke"/><g stroke="black" fill="black"><text dominant-baseline="hanging" stroke="none" vector-effect="non-scaling-stroke" x="752" y="484">Rust</text></g><g stroke-width="1px" stroke-linejoin="round" font-weight="normal" font-style="normal" fill="hsl(260, 76%, 65%)" stroke="hsl(260, 76%, 65%)" stroke-linecap="round" font-family="sans-serif" font-size="12px" text-anchor="start" dominant-baseline="hanging"><rect height="12" vector-effect="non-scaling-stroke" x="736" y="502" width="12"/><g fill="black" stroke="black"><text x="752" y="502" dominant-baseline="hanging" stroke="none" vector-effect="non-scaling-stroke">Zig</text><g stroke-linecap="round" stroke-linejoin="round" font-weight="normal" font-style="normal" fill="none" stroke-width="2px" font-family="sans-serif" font-size="12px" text-anchor="start" dominant-baseline="hanging"><rect vector-effect="non-scaling-stroke" x="80" y="80" width="640" height="440"/></g><g font-size="12px" font-weight="normal" font-style="normal" text-anchor="start" transform="translate(80 520 )scale(1 -1 )" fill="none" stroke="black" stroke-width="2px" font-family="sans-serif" dominant-baseline="hanging" stroke-linecap="round" stroke-linejoin="round"><path vector-effect="non-scaling-stroke" d="M64,0 L64,-6 M8.533333e+01,0 L8.533333e+01,-6 M1.066667e+02,0 L1.066667e+02,-6 M128,0 L128,-6 M1.493333e+02,0 L1.493333e+02,-6 M1.706667e+02,0 L1.706667e+02,-6 M192,0 L192,-6 M2.133333e+02,0 L2.133333e+02,-6 M2.346667e+02,0 L2.346667e+02,-6 M256,0 L256,-6 M2.773333e+02,0 L2.773333e+02,-6 M2.986667e+02,0 L2.986667e+02,-6 M320,0 L320,-6 M3.413333e+02,0 L3.413333e+02,-6 M3.626667e+02,0 L3.626667e+02,-6 M384,0 L384,-6 M4.053333e+02,0 L4.053333e+02,-6 M4.266667e+02,0 L4.266667e+02,-6 M448,0 L448,-6 M4.693333e+02,0 L4.693333e+02,-6 M4.906667e+02,0 L4.906667e+02,-6 M512,0 L512,-6 M5.333333e+02,0 L5.333333e+02,-6 M5.546667e+02,0 L5.546667e+02,-6 M576,0 L576,-6 "/></g><g transform="translate(80 520 )scale(1 1 )" stroke="black" stroke-linecap="round" stroke-linejoin="round" font-family="sans-serif" font-weight="normal" font-style="normal" fill="black" stroke-width="2px" font-size="12px" text-anchor="middle" dominant-baseline="hanging"><text stroke="none" vector-effect="non-scaling-stroke" x="64" y="10" dominant-baseline="hanging">1</text><text stroke="none" vector-effect="non-scaling-stroke" x="8.533333e+01" y="10" dominant-baseline="hanging">2</text><text stroke="none" vector-effect="non-scaling-stroke" x="1.066667e+02" y="10" dominant-baseline="hanging">3</text><text dominant-baseline="hanging" stroke="none" vector-effect="non-scaling-stroke" x="128" y="10">4</text><text y="10" dominant-baseline="hanging" stroke="none" vector-effect="non-scaling-stroke" x="1.493333e+02">5</text><text x="1.706667e+02" y="10" dominant-baseline="hanging" stroke="none" vector-effect="non-scaling-stroke">6</text><text dominant-baseline="hanging" stroke="none" vector-effect="non-scaling-stroke" x="192" y="10">7</text><text stroke="none" vector-effect="non-scaling-stroke" x="2.133333e+02" y="10" dominant-baseline="hanging">8</text><text vector-effect="non-scaling-stroke" x="2.346667e+02" y="10" dominant-baseline="hanging" stroke="none">9</text><text x="256" y="10" dominant-baseline="hanging" stroke="none" vector-effect="non-scaling-stroke">10</text><text vector-effect="non-scaling-stroke" x="2.773333e+02" y="10" dominant-baseline="hanging" stroke="none">11</text><text x="2.986667e+02" y="10" dominant-baseline="hanging" stroke="none" vector-effect="non-scaling-stroke">12</text><text dominant-baseline="hanging" stroke="none" vector-effect="non-scaling-stroke" x="320" y="10">13</text><text stroke="none" vector-effect="non-scaling-stroke" x="3.413333e+02" y="10" dominant-baseline="hanging">14</text><text stroke="none" vector-effect="non-scaling-stroke" x="3.626667e+02" y="10" dominant-baseline="hanging">15</text><text x="384" y="10" dominant-baseline="hanging" stroke="none" vector-effect="non-scaling-stroke">16</text><text vector-effect="non-scaling-stroke" x="4.053333e+02" y="10" dominant-baseline="hanging" stroke="none">17</text><text y="10" dominant-baseline="hanging" stroke="none" vector-effect="non-scaling-stroke" x="4.266667e+02">18</text><text y="10" dominant-baseline="hanging" stroke="none" vector-effect="non-scaling-stroke" x="448">19</text><text x="4.693333e+02" y="10" dominant-baseline="hanging" stroke="none" vector-effect="non-scaling-stroke">20</text><text stroke="none" vector-effect="non-scaling-stroke" x="4.906667e+02" y="10" dominant-baseline="hanging">21</text><text stroke="none" vector-effect="non-scaling-stroke" x="512" y="10" dominant-baseline="hanging">22</text><text stroke="none" vector-effect="non-scaling-stroke" x="5.333333e+02" y="10" dominant-baseline="hanging">23</text><text dominant-baseline="hanging" stroke="none" vector-effect="non-scaling-stroke" x="5.546667e+02" y="10">24</text><text vector-effect="non-scaling-stroke" x="576" y="10" dominant-baseline="hanging" stroke="none">25</text></g><g font-style="normal" transform="translate(80 520 )scale(1 1 )rotate(0 0 0 )" stroke-linecap="round" font-family="sans-serif" font-weight="bold" text-anchor="middle" dominant-baseline="baseline" fill="black" stroke="black" stroke-width="2px" stroke-linejoin="round" font-size="12px"><text vector-effect="non-scaling-stroke" x="320" y="-6" dominant-baseline="baseline" stroke="none">Day</text></g><g transform="translate(80 520 )scale(1 -1 )" fill="black" stroke="black" stroke-linejoin="round" font-family="sans-serif" text-anchor="middle" dominant-baseline="baseline" stroke-width="2px" stroke-linecap="round" font-size="12px" font-weight="bold" font-style="normal"><path vector-effect="non-scaling-stroke" d="M0,44 L-6,44 M0,1.160835e+02 L-6,1.160835e+02 M0,1.881670e+02 L-6,1.881670e+02 M0,2.602506e+02 L-6,2.602506e+02 M0,3.323341e+02 L-6,3.323341e+02 "/></g><g transform="translate(80 520 )scale(1 1 )" stroke="black" stroke-linejoin="round" font-family="sans-serif" font-size="12px" font-weight="normal" font-style="normal" text-anchor="end" fill="black" stroke-width="2px" stroke-linecap="round" dominant-baseline="middle"><text x="-10" y="-44" dominant-baseline="middle" stroke="none" vector-effect="non-scaling-stroke">0s</text><text stroke="none" vector-effect="non-scaling-stroke" x="-10" y="-1.160835e+02" dominant-baseline="middle">10ms</text><text x="-10" y="-1.881670e+02" dominant-baseline="middle" stroke="none" vector-effect="non-scaling-stroke">20ms</text><text vector-effect="non-scaling-stroke" x="-10" y="-2.602506e+02" dominant-baseline="middle" stroke="none">30ms</text><text y="-3.323341e+02" dominant-baseline="middle" stroke="none" vector-effect="non-scaling-stroke" x="-10">40ms</text></g><g text-anchor="middle" stroke="black" stroke-width="2px" font-size="12px" font-style="normal" dominant-baseline="hanging" transform="translate(80 520 )scale(1 1 )rotate(-90 0 0 )" fill="black" stroke-linecap="round" stroke-linejoin="round" font-family="sans-serif" font-weight="bold"><text y="6" dominant-baseline="hanging" stroke="none" vector-effect="non-scaling-stroke" x="220">Runtime</text></g></g></g></g></g></svg>