<svg xmlns="http://www.w3.org/2000/svg" width="800" height="600" viewbox="0 0 800 600" preserveAspectRatio="xMidYMid meet"><defs><marker markerHeight="2%" id="circle" viewBox="0 0 10 10 " refX="5" refY="5" markerUnits="userSpaceOnUse" markerWidth="2%"><circle cy="5" r="3" fill="none" stroke="black" cx="5"/></marker><marker markerUnits="userSpaceOnUse" markerWidth="2%" markerHeight="2%" id="filled-circle" viewBox="0 0 10 10 " refX="5" refY="5"><circle cy="5" r="3" fill="black" stroke="none" cx="5"/></marker><marker refY="5" markerUnits="userSpaceOnUse" markerWidth="2%" markerHeight="2%" id="square" viewBox="0 0 10 10 " refX="5"><rect y="2" width="6" height="6" fill="none" stroke="black" x="2"/></marker><marker id="filled-square" viewBox="0 0 10 10 " refX="5" refY="5" markerUnits="userSpaceOnUse" markerWidth="2%" markerHeight="2%"><rect width="6" height="6" fill="black" stroke="none" x="2" y="2"/></marker></defs><g transform="translate(80 520 )scale(1 -1 )" fill="hsl(198, 47%, 65%)" stroke="hsl(198, 47%, 65%)" stroke-width="1px" stroke-linecap="round" stroke-linejoin="round"><rect width="1.580247e+01" height="4.403267e+01" vector-effect="non-scaling-stroke" x="4.029630e+01" y="0"/><rect height="4.400104e+01" vector-effect="non-scaling-stroke" x="6.162963e+01" y="0" width="1.580247e+01"/><rect vector-effect="non-scaling-stroke" x="8.296296e+01" y="0" width="1.580247e+01" height="4.400471e+01"/><rect y="0" width="1.580247e+01" height="4.400597e+01" vector-effect="non-scaling-stroke" x="1.042963e+02"/><rect x="1.256296e+02" y="0" width="1.580247e+01" height="7.832963e+02" vector-effect="non-scaling-stroke"/><rect height="4.400002e+01" vector-effect="non-scaling-stroke" x="1.469630e+02" y="0" width="1.580247e+01"/><rect width="1.580247e+01" height="4.406514e+01" vector-effect="non-scaling-stroke" x="1.682963e+02" y="0"/><rect y="0" width="1.580247e+01" height="4.417566e+01" vector-effect="non-scaling-stroke" x="1.896296e+02"/><rect vector-effect="non-scaling-stroke" x="2.109630e+02" y="0" width="1.580247e+01" height="4.401588e+01"/></g><g fill="hsl(49, 88%, 65%)" stroke="hsl(49, 88%, 65%)" stroke-width="1px" stroke-linecap="round" stroke-linejoin="round" transform="translate(80 520 )scale(1 -1 )"><rect vector-effect="non-scaling-stroke" x="5.609877e+01" y="0" width="1.580247e+01" height="4.401633e+01"/><rect vector-effect="non-scaling-stroke" x="7.743210e+01" y="0" width="1.580247e+01" height="4.400042e+01"/><rect vector-effect="non-scaling-stroke" x="9.876543e+01" y="0" width="1.580247e+01" height="4.400305e+01"/><rect vector-effect="non-scaling-stroke" x="1.200988e+02" y="0" width="1.580247e+01" height="4.400333e+01"/><rect y="0" width="1.580247e+01" height="4.400002e+01" vector-effect="non-scaling-stroke" x="1.627654e+02"/><rect y="0" width="1.580247e+01" height="4.449101e+01" vector-effect="non-scaling-stroke" x="2.054321e+02"/></g><g transform="translate(80 520 )scale(1 -1 )" fill="hsl(260, 76%, 65%)" stroke="hsl(260, 76%, 65%)" stroke-width="1px" stroke-linecap="round" stroke-linejoin="round"><rect vector-effect="non-scaling-stroke" x="7.190123e+01" y="0" width="1.580247e+01" height="4.401300e+01"/><rect height="4.400047e+01" vector-effect="non-scaling-stroke" x="9.323457e+01" y="0" width="1.580247e+01"/><rect width="1.580247e+01" height="4.400239e+01" vector-effect="non-scaling-stroke" x="1.145679e+02" y="0"/><rect width="1.580247e+01" height="4.400927e+01" vector-effect="non-scaling-stroke" x="1.359012e+02" y="0"/><rect y="0" width="1.580247e+01" height="4.400002e+01" vector-effect="non-scaling-stroke" x="1.785679e+02"/><rect vector-effect="non-scaling-stroke" x="2.212346e+02" y="0" width="1.580247e+01" height="4.403887e+01"/></g><g text-anchor="start" fill="hsl(198, 47%, 65%)" stroke="hsl(198, 47%, 65%)" font-family="sans-serif" font-size="12px" stroke-linecap="round" stroke-linejoin="round" font-style="normal" font-weight="normal" dominant-baseline="hanging" stroke-width="1px"><rect width="12" height="12" vector-effect="non-scaling-stroke" x="736" y="466"/><g fill="black" stroke="black"><text dominant-baseline="hanging" stroke="none" vector-effect="non-scaling-stroke" x="752" y="466">Golang</text></g><g font-weight="normal" stroke-width="1px" stroke-linejoin="round" font-size="12px" text-anchor="start" dominant-baseline="hanging" fill="hsl(49, 88%, 65%)" stroke="hsl(49, 88%, 65%)" stroke-linecap="round" font-style="normal" font-family="sans-serif"><rect vector-effect="non-scaling-stroke" x="736" y="484" width="12" height="12"/><g stroke="black" fill="black"><text stroke="none" vector-effect="non-scaling-stroke" x="752" y="484" dominant-baseline="hanging">Rust</text></g><g stroke-linecap="round" stroke-linejoin="round" font-style="normal" font-size="12px" dominant-baseline="hanging" font-weight="normal" fill="hsl(260, 76%, 65%)" font-family="sans-serif" text-anchor="start" stroke="hsl(260, 76%, 65%)" stroke-width="1px"><rect width="12" height="12" vector-effect="non-scaling-stroke" x="736" y="502"/><g stroke="black" fill="black"><text stroke="none" vector-effect="non-scaling-stroke" x="752" y="502" dominant-baseline="hanging">Zig</text><g dominant-baseline="hanging" text-anchor="start" font-style="normal" font-weight="normal" stroke-linejoin="round" font-size="12px" stroke-linecap="round" font-family="sans-serif" fill="none" stroke-width="2px"><rect y="80" width="640" height="440" vector-effect="non-scaling-stroke" x="80"/></g><g stroke="black" font-family="sans-serif" text-anchor="start" dominant-baseline="hanging" font-style="normal" font-weight="normal" fill="none" font-size="12px" transform="translate(80 520 )scale(1 -1 )" stroke-width="2px" stroke-linecap="round" stroke-linejoin="round"><path vector-effect="non-scaling-stroke" d="M64,0 L64,-6 M8.533333e+01,0 L8.533333e+01,-6 M1.066667e+02,0 L1.066667e+02,-6 M128,0 L128,-6 M1.493333e+02,0 L1.493333e+02,-6 M1.706667e+02,0 L1.706667e+02,-6 M192,0 L192,-6 M2.133333e+02,0 L2.133333e+02,-6 M2.346667e+02,0 L2.346667e+02,-6 "/></g><g fill="black" font-size="12px" font-family="sans-serif" stroke-linecap="round" stroke-linejoin="round" font-style="normal" font-weight="normal" transform="translate(80 520 )scale(1 1 )" stroke="black" stroke-width="2px" text-anchor="middle" dominant-baseline="hanging"><text stroke="none" vector-effect="non-scaling-stroke" x="64" y="10" dominant-baseline="hanging">1</text><text stroke="none" vector-effect="non-scaling-stroke" x="8.533333e+01" y="10" dominant-baseline="hanging">2</text><text vector-effect="non-scaling-stroke" x="1.066667e+02" y="10" dominant-baseline="hanging" stroke="none">3</text><text vector-effect="non-scaling-stroke" x="128" y="10" dominant-baseline="hanging" stroke="none">4</text><text x="1.493333e+02" y="10" dominant-baseline="hanging" stroke="none" vector-effect="non-scaling-stroke">5</text><text x="1.706667e+02" y="10" dominant-baseline="hanging" stroke="none" vector-effect="non-scaling-stroke">6</text><text vector-effect="non-scaling-stroke" x="192" y="10" dominant-baseline="hanging" stroke="none">7</text><text vector-effect="non-scaling-stroke" x="2.133333e+02" y="10" dominant-baseline="hanging" stroke="none">8</text><text dominant-baseline="hanging" stroke="none" vector-effect="non-scaling-stroke" x="2.346667e+02" y="10">9</text></g><g stroke-width="2px" font-size="12px" transform="translate(80 520 )scale(1 1 )rotate(0 0 0 )" fill="black" font-weight="bold" stroke="black" stroke-linecap="round" stroke-linejoin="round" font-family="sans-serif" text-anchor="middle" dominant-baseline="baseline" font-style="normal"><text stroke="none" vector-effect="non-scaling-stroke" x="320" y="-6" dominant-baseline="baseline">Day</text></g><g dominant-baseline="baseline" stroke-width="2px" stroke-linecap="round" stroke-linejoin="round" font-family="sans-serif" font-size="12px" text-anchor="middle" stroke="black" font-style="normal" transform="translate(80 520 )scale(1 -1 )" font-weight="bold" fill="black"><path vector-effect="non-scaling-stroke" d="M0,44 L-6,44 M0,7.920000e+01 L-6,7.920000e+01 M0,1.144000e+02 L-6,1.144000e+02 M0,1.496000e+02 L-6,1.496000e+02 M0,1.848000e+02 L-6,1.848000e+02 M0,220 L-6,220 M0,2.552000e+02 L-6,2.552000e+02 M0,2.904000e+02 L-6,2.904000e+02 M0,3.256000e+02 L-6,3.256000e+02 M0,3.608000e+02 L-6,3.608000e+02 M0,396 L-6,396 "/></g><g stroke-linejoin="round" font-weight="normal" fill="black" text-anchor="end" transform="translate(80 520 )scale(1 1 )" font-family="sans-serif" stroke="black" stroke-linecap="round" font-size="12px" dominant-baseline="middle" stroke-width="2px" font-style="normal"><text dominant-baseline="middle" stroke="none" vector-effect="non-scaling-stroke" x="-10" y="-44">0s</text><text vector-effect="non-scaling-stroke" x="-10" y="-7.920000e+01" dominant-baseline="middle" stroke="none">200ms</text><text x="-10" y="-1.144000e+02" dominant-baseline="middle" stroke="none" vector-effect="non-scaling-stroke">400ms</text><text y="-1.496000e+02" dominant-baseline="middle" stroke="none" vector-effect="non-scaling-stroke" x="-10">600ms</text><text stroke="none" vector-effect="non-scaling-stroke" x="-10" y="-1.848000e+02" dominant-baseline="middle">800ms</text><text x="-10" y="-220" dominant-baseline="middle" stroke="none" vector-effect="non-scaling-stroke">1s</text><text dominant-baseline="middle" stroke="none" vector-effect="non-scaling-stroke" x="-10" y="-2.552000e+02">1.2s</text><text stroke="none" vector-effect="non-scaling-stroke" x="-10" y="-2.904000e+02" dominant-baseline="middle">1.4s</text><text y="-3.256000e+02" dominant-baseline="middle" stroke="none" vector-effect="non-scaling-stroke" x="-10">1.6s</text><text y="-3.608000e+02" dominant-baseline="middle" stroke="none" vector-effect="non-scaling-stroke" x="-10">1.8s</text><text stroke="none" vector-effect="non-scaling-stroke" x="-10" y="-396" dominant-baseline="middle">2s</text></g><g stroke-linecap="round" font-weight="bold" text-anchor="middle" dominant-baseline="hanging" transform="translate(80 520 )scale(1 1 )rotate(-90 0 0 )" font-family="sans-serif" font-size="12px" stroke-width="2px" font-style="normal" fill="black" stroke="black" stroke-linejoin="round"><text stroke="none" vector-effect="non-scaling-stroke" x="220" y="6" dominant-baseline="hanging">Runtime</text></g></g></g></g></g></svg>