<svg width="800" height="600" viewbox="0 0 800 600" preserveAspectRatio="xMidYMid meet" xmlns="http://www.w3.org/2000/svg"><defs><marker markerUnits="userSpaceOnUse" markerWidth="2%" markerHeight="2%" id="circle" viewBox="0 0 10 10 " refX="5" refY="5"><circle cx="5" cy="5" r="3" fill="none" stroke="black"/></marker><marker refY="5" markerUnits="userSpaceOnUse" markerWidth="2%" markerHeight="2%" id="filled-circle" viewBox="0 0 10 10 " refX="5"><circle cx="5" cy="5" r="3" fill="black" stroke="none"/></marker><marker viewBox="0 0 10 10 " refX="5" refY="5" markerUnits="userSpaceOnUse" markerWidth="2%" markerHeight="2%" id="square"><rect height="6" fill="none" stroke="black" x="2" y="2" width="6"/></marker><marker markerWidth="2%" markerHeight="2%" id="filled-square" viewBox="0 0 10 10 " refX="5" refY="5" markerUnits="userSpaceOnUse"><rect height="6" fill="black" stroke="none" x="2" y="2" width="6"/></marker></defs><g stroke="hsl(198, 47%, 65%)" stroke-width="1px" stroke-linecap="round" stroke-linejoin="round" transform="translate(80 520 )scale(1 -1 )" fill="hsl(198, 47%, 65%)"><rect vector-effect="non-scaling-stroke" x="3.650000e+01" y="0" width="1.833333e+01" height="396"/></g><g fill="hsl(49, 88%, 65%)" stroke="hsl(49, 88%, 65%)" stroke-width="1px" stroke-linecap="round" stroke-linejoin="round" transform="translate(80 520 )scale(1 -1 )"><rect vector-effect="non-scaling-stroke" x="5.483333e+01" y="0" width="1.833333e+01" height="2.287730e+02"/></g><g fill="hsl(260, 76%, 65%)" stroke="hsl(260, 76%, 65%)" stroke-width="1px" stroke-linecap="round" stroke-linejoin="round" transform="translate(80 520 )scale(1 -1 )"><rect vector-effect="non-scaling-stroke" x="7.316667e+01" y="0" width="1.833333e+01" height="2.349056e+02"/></g><g font-family="sans-serif" dominant-baseline="hanging" stroke="hsl(198, 47%, 65%)" font-style="normal" font-weight="normal" text-anchor="start" stroke-width="1px" stroke-linecap="round" font-size="12px" fill="hsl(198, 47%, 65%)" stroke-linejoin="round"><rect vector-effect="non-scaling-stroke" x="736" y="466" width="12" height="12"/><g stroke="black" fill="black"><text dominant-baseline="hanging" stroke="none" vector-effect="non-scaling-stroke" x="752" y="466">Golang</text></g><g stroke-linecap="round" stroke="hsl(49, 88%, 65%)" font-style="normal" font-weight="normal" stroke-width="1px" font-family="sans-serif" font-size="12px" dominant-baseline="hanging" fill="hsl(49, 88%, 65%)" stroke-linejoin="round" text-anchor="start"><rect x="736" y="484" width="12" height="12" vector-effect="non-scaling-stroke"/><g stroke="black" fill="black"><text stroke="none" vector-effect="non-scaling-stroke" x="752" y="484" dominant-baseline="hanging">Rust</text></g><g stroke="hsl(260, 76%, 65%)" font-style="normal" text-anchor="start" stroke-width="1px" stroke-linecap="round" font-family="sans-serif" font-size="12px" fill="hsl(260, 76%, 65%)" stroke-linejoin="round" font-weight="normal" dominant-baseline="hanging"><rect y="502" width="12" height="12" vector-effect="non-scaling-stroke" x="736"/><g fill="black" stroke="black"><text stroke="none" vector-effect="non-scaling-stroke" x="752" y="502" dominant-baseline="hanging">Zig</text><g font-weight="normal" text-anchor="start" stroke-width="2px" font-size="12px" fill="none" stroke-linejoin="round" font-family="sans-serif" dominant-baseline="hanging" stroke-linecap="round" font-style="normal"><rect x="80" y="80" width="640" height="440" vector-effect="non-scaling-stroke"/></g><g stroke-linecap="round" font-family="sans-serif" font-size="12px" fill="none" stroke="black" stroke-linejoin="round" font-weight="normal" stroke-width="2px" dominant-baseline="hanging" transform="translate(80 520 )scale(1 -1 )" font-style="normal" text-anchor="start"><path d="M64,0 L64,-6 " vector-effect="non-scaling-stroke"/></g><g stroke="black" stroke-linejoin="round" text-anchor="middle" stroke-width="2px" font-family="sans-serif" font-size="12px" transform="translate(80 520 )scale(1 1 )" fill="black" font-style="normal" font-weight="normal" stroke-linecap="round" dominant-baseline="hanging"><text vector-effect="non-scaling-stroke" x="64" y="10" dominant-baseline="hanging" stroke="none">1</text></g><g font-size="12px" dominant-baseline="baseline" fill="black" stroke="black" font-weight="bold" text-anchor="middle" stroke-width="2px" font-family="sans-serif" transform="translate(80 520 )scale(1 1 )rotate(0 0 0 )" stroke-linejoin="round" font-style="normal" stroke-linecap="round"><text stroke="none" vector-effect="non-scaling-stroke" x="320" y="-6" dominant-baseline="baseline">Day</text></g><g font-family="sans-serif" dominant-baseline="baseline" text-anchor="middle" stroke-width="2px" stroke-linecap="round" font-size="12px" transform="translate(80 520 )scale(1 -1 )" fill="black" stroke="black" stroke-linejoin="round" font-style="normal" font-weight="bold"><path vector-effect="non-scaling-stroke" d="M0,2.143501e+02 L-6,2.143501e+02 M0,2.332778e+02 L-6,2.332778e+02 M0,2.522056e+02 L-6,2.522056e+02 M0,2.711334e+02 L-6,2.711334e+02 M0,2.900612e+02 L-6,2.900612e+02 M0,3.089890e+02 L-6,3.089890e+02 M0,3.279168e+02 L-6,3.279168e+02 M0,3.468445e+02 L-6,3.468445e+02 M0,3.657723e+02 L-6,3.657723e+02 M0,3.847001e+02 L-6,3.847001e+02 "/></g><g fill="black" stroke="black" stroke-linejoin="round" font-style="normal" stroke-width="2px" font-family="sans-serif" font-weight="normal" text-anchor="end" stroke-linecap="round" font-size="12px" dominant-baseline="middle" transform="translate(80 520 )scale(1 1 )"><text y="-2.143501e+02" dominant-baseline="middle" stroke="none" vector-effect="non-scaling-stroke" x="-10">9µs</text><text stroke="none" vector-effect="non-scaling-stroke" x="-10" y="-2.332778e+02" dominant-baseline="middle">10µs</text><text vector-effect="non-scaling-stroke" x="-10" y="-2.522056e+02" dominant-baseline="middle" stroke="none">11µs</text><text y="-2.711334e+02" dominant-baseline="middle" stroke="none" vector-effect="non-scaling-stroke" x="-10">12µs</text><text vector-effect="non-scaling-stroke" x="-10" y="-2.900612e+02" dominant-baseline="middle" stroke="none">13µs</text><text stroke="none" vector-effect="non-scaling-stroke" x="-10" y="-3.089890e+02" dominant-baseline="middle">14µs</text><text x="-10" y="-3.279168e+02" dominant-baseline="middle" stroke="none" vector-effect="non-scaling-stroke">15µs</text><text vector-effect="non-scaling-stroke" x="-10" y="-3.468445e+02" dominant-baseline="middle" stroke="none">16µs</text><text stroke="none" vector-effect="non-scaling-stroke" x="-10" y="-3.657723e+02" dominant-baseline="middle">17µs</text><text dominant-baseline="middle" stroke="none" vector-effect="non-scaling-stroke" x="-10" y="-3.847001e+02">18µs</text></g><g fill="black" stroke="black" stroke-linejoin="round" text-anchor="middle" stroke-width="2px" font-family="sans-serif" font-size="12px" dominant-baseline="hanging" font-style="normal" font-weight="bold" stroke-linecap="round" transform="translate(80 520 )scale(1 1 )rotate(-90 0 0 )"><text vector-effect="non-scaling-stroke" x="220" y="6" dominant-baseline="hanging" stroke="none">Runtime</text></g></g></g></g></g></svg>