<svg xmlns="http://www.w3.org/2000/svg" width="800" height="600" viewbox="0 0 800 600" preserveAspectRatio="xMidYMid meet"><defs><marker refX="5" refY="5" markerUnits="userSpaceOnUse" markerWidth="2%" markerHeight="2%" id="circle" viewBox="0 0 10 10 "><circle cx="5" cy="5" r="3" fill="none" stroke="black"/></marker><marker viewBox="0 0 10 10 " refX="5" refY="5" markerUnits="userSpaceOnUse" markerWidth="2%" markerHeight="2%" id="filled-circle"><circle cx="5" cy="5" r="3" fill="black" stroke="none"/></marker><marker markerUnits="userSpaceOnUse" markerWidth="2%" markerHeight="2%" id="square" viewBox="0 0 10 10 " refX="5" refY="5"><rect height="6" fill="none" stroke="black" x="2" y="2" width="6"/></marker><marker markerUnits="userSpaceOnUse" markerWidth="2%" markerHeight="2%" id="filled-square" viewBox="0 0 10 10 " refX="5" refY="5"><rect height="6" fill="black" stroke="none" x="2" y="2" width="6"/></marker></defs><g transform="translate(80 520 )scale(1 -1 )" fill="hsl(198, 47%, 65%)" stroke="hsl(198, 47%, 65%)" stroke-width="1px" stroke-linecap="round" stroke-linejoin="round"><rect y="0" width="1.641026e+01" height="4.426328e+01" vector-effect="non-scaling-stroke" x="4.758974e+01"/><rect height="4.423326e+01" vector-effect="non-scaling-stroke" x="6.892308e+01" y="0" width="1.641026e+01"/><rect vector-effect="non-scaling-stroke" x="9.025641e+01" y="0" width="1.641026e+01" height="4.414482e+01"/><rect x="1.115897e+02" y="0" width="1.641026e+01" height="4.533401e+01" vector-effect="non-scaling-stroke"/><rect width="1.641026e+01" height="4.414970e+01" vector-effect="non-scaling-stroke" x="1.329231e+02" y="0"/><rect y="0" width="1.641026e+01" height="396" vector-effect="non-scaling-stroke" x="1.542564e+02"/><rect x="1.755897e+02" y="0" width="1.641026e+01" height="1.265206e+02" vector-effect="non-scaling-stroke"/><rect vector-effect="non-scaling-stroke" x="1.969231e+02" y="0" width="1.641026e+01" height="4.403414e+01"/><rect vector-effect="non-scaling-stroke" x="2.182564e+02" y="0" width="1.641026e+01" height="5.167989e+01"/><rect x="2.395897e+02" y="0" width="1.641026e+01" height="4.622438e+01" vector-effect="non-scaling-stroke"/><rect x="2.609231e+02" y="0" width="1.641026e+01" height="5.060396e+01" vector-effect="non-scaling-stroke"/><rect width="1.641026e+01" height="4.690133e+01" vector-effect="non-scaling-stroke" x="2.822564e+02" y="0"/><rect vector-effect="non-scaling-stroke" x="3.035897e+02" y="0" width="1.641026e+01" height="4.403436e+01"/></g><g transform="translate(80 520 )scale(1 -1 )" fill="hsl(49, 88%, 65%)" stroke="hsl(49, 88%, 65%)" stroke-width="1px" stroke-linecap="round" stroke-linejoin="round"><rect height="4.422948e+01" vector-effect="non-scaling-stroke" x="64" y="0" width="1.641026e+01"/><rect y="0" width="1.641026e+01" height="4.421116e+01" vector-effect="non-scaling-stroke" x="8.533333e+01"/><rect vector-effect="non-scaling-stroke" x="1.066667e+02" y="0" width="1.641026e+01" height="4.404346e+01"/><rect width="1.641026e+01" height="4.622662e+01" vector-effect="non-scaling-stroke" x="128" y="0"/><rect x="1.493333e+02" y="0" width="1.641026e+01" height="4.410670e+01" vector-effect="non-scaling-stroke"/><rect x="1.706667e+02" y="0" width="1.641026e+01" height="3.114004e+02" vector-effect="non-scaling-stroke"/><rect height="1.275011e+02" vector-effect="non-scaling-stroke" x="192" y="0" width="1.641026e+01"/><rect height="4.401625e+01" vector-effect="non-scaling-stroke" x="2.133333e+02" y="0" width="1.641026e+01"/><rect width="1.641026e+01" height="4.690768e+01" vector-effect="non-scaling-stroke" x="2.346667e+02" y="0"/><rect vector-effect="non-scaling-stroke" x="256" y="0" width="1.641026e+01" height="4.418291e+01"/><rect height="4.918509e+01" vector-effect="non-scaling-stroke" x="2.773333e+02" y="0" width="1.641026e+01"/><rect width="1.641026e+01" height="4.621178e+01" vector-effect="non-scaling-stroke" x="2.986667e+02" y="0"/></g><g dominant-baseline="hanging" font-size="12px" fill="hsl(198, 47%, 65%)" stroke-width="1px" stroke-linecap="round" stroke-linejoin="round" stroke="hsl(198, 47%, 65%)" font-family="sans-serif" font-style="normal" font-weight="normal" text-anchor="start"><rect width="12" height="12" vector-effect="non-scaling-stroke" x="736" y="484"/><g stroke="black" fill="black"><text x="752" y="484" dominant-baseline="hanging" stroke="none" vector-effect="non-scaling-stroke">Golang</text></g><g font-weight="normal" text-anchor="start" font-size="12px" fill="hsl(49, 88%, 65%)" stroke-width="1px" stroke-linecap="round" stroke-linejoin="round" font-style="normal" dominant-baseline="hanging" stroke="hsl(49, 88%, 65%)" font-family="sans-serif"><rect height="12" vector-effect="non-scaling-stroke" x="736" y="502" width="12"/><g fill="black" stroke="black"><text stroke="none" vector-effect="non-scaling-stroke" x="752" y="502" dominant-baseline="hanging">Rust</text><g fill="none" font-size="12px" stroke-linecap="round" dominant-baseline="hanging" text-anchor="start" font-family="sans-serif" font-style="normal" font-weight="normal" stroke-width="2px" stroke-linejoin="round"><rect x="80" y="80" width="640" height="440" vector-effect="non-scaling-stroke"/></g><g stroke="black" font-weight="normal" fill="none" stroke-linecap="round" stroke-linejoin="round" font-size="12px" transform="translate(80 520 )scale(1 -1 )" text-anchor="start" stroke-width="2px" font-style="normal" dominant-baseline="hanging" font-family="sans-serif"><path vector-effect="non-scaling-stroke" d="M64,0 L64,-6 M8.533333e+01,0 L8.533333e+01,-6 M1.066667e+02,0 L1.066667e+02,-6 M128,0 L128,-6 M1.493333e+02,0 L1.493333e+02,-6 M1.706667e+02,0 L1.706667e+02,-6 M192,0 L192,-6 M2.133333e+02,0 L2.133333e+02,-6 M2.346667e+02,0 L2.346667e+02,-6 M256,0 L256,-6 M2.773333e+02,0 L2.773333e+02,-6 M2.986667e+02,0 L2.986667e+02,-6 M320,0 L320,-6 "/></g><g font-size="12px" font-weight="normal" font-family="sans-serif" transform="translate(80 520 )scale(1 1 )" stroke-linejoin="round" stroke-width="2px" stroke-linecap="round" font-style="normal" dominant-baseline="hanging" stroke="black" text-anchor="middle" fill="black"><text stroke="none" vector-effect="non-scaling-stroke" x="64" y="10" dominant-baseline="hanging">1</text><text x="8.533333e+01" y="10" dominant-baseline="hanging" stroke="none" vector-effect="non-scaling-stroke">2</text><text y="10" dominant-baseline="hanging" stroke="none" vector-effect="non-scaling-stroke" x="1.066667e+02">3</text><text stroke="none" vector-effect="non-scaling-stroke" x="128" y="10" dominant-baseline="hanging">4</text><text dominant-baseline="hanging" stroke="none" vector-effect="non-scaling-stroke" x="1.493333e+02" y="10">5</text><text x="1.706667e+02" y="10" dominant-baseline="hanging" stroke="none" vector-effect="non-scaling-stroke">6</text><text x="192" y="10" dominant-baseline="hanging" stroke="none" vector-effect="non-scaling-stroke">7</text><text x="2.133333e+02" y="10" dominant-baseline="hanging" stroke="none" vector-effect="non-scaling-stroke">8</text><text stroke="none" vector-effect="non-scaling-stroke" x="2.346667e+02" y="10" dominant-baseline="hanging">9</text><text dominant-baseline="hanging" stroke="none" vector-effect="non-scaling-stroke" x="256" y="10">10</text><text y="10" dominant-baseline="hanging" stroke="none" vector-effect="non-scaling-stroke" x="2.773333e+02">11</text><text vector-effect="non-scaling-stroke" x="2.986667e+02" y="10" dominant-baseline="hanging" stroke="none">12</text><text y="10" dominant-baseline="hanging" stroke="none" vector-effect="non-scaling-stroke" x="320">13</text></g><g stroke="black" stroke-width="2px" font-style="normal" text-anchor="middle" dominant-baseline="baseline" font-family="sans-serif" transform="translate(80 520 )scale(1 1 )rotate(0 0 0 )" fill="black" stroke-linecap="round" stroke-linejoin="round" font-size="12px" font-weight="bold"><text vector-effect="non-scaling-stroke" x="320" y="-6" dominant-baseline="baseline" stroke="none">Day</text></g><g font-style="normal" font-weight="bold" stroke-width="2px" dominant-baseline="baseline" text-anchor="middle" fill="black" stroke-linecap="round" stroke="black" font-family="sans-serif" transform="translate(80 520 )scale(1 -1 )" stroke-linejoin="round" font-size="12px"><path vector-effect="non-scaling-stroke" d="M0,44 L-6,44 M0,9.307912e+01 L-6,9.307912e+01 M0,1.421582e+02 L-6,1.421582e+02 M0,1.912374e+02 L-6,1.912374e+02 M0,2.403165e+02 L-6,2.403165e+02 M0,2.893956e+02 L-6,2.893956e+02 M0,3.384747e+02 L-6,3.384747e+02 M0,3.875538e+02 L-6,3.875538e+02 "/></g><g stroke-linecap="round" stroke-linejoin="round" fill="black" stroke-width="2px" dominant-baseline="middle" stroke="black" font-family="sans-serif" font-size="12px" font-style="normal" font-weight="normal" text-anchor="end" transform="translate(80 520 )scale(1 1 )"><text x="-10" y="-44" dominant-baseline="middle" stroke="none" vector-effect="non-scaling-stroke">0s</text><text stroke="none" vector-effect="non-scaling-stroke" x="-10" y="-9.307912e+01" dominant-baseline="middle">10ms</text><text stroke="none" vector-effect="non-scaling-stroke" x="-10" y="-1.421582e+02" dominant-baseline="middle">20ms</text><text vector-effect="non-scaling-stroke" x="-10" y="-1.912374e+02" dominant-baseline="middle" stroke="none">30ms</text><text stroke="none" vector-effect="non-scaling-stroke" x="-10" y="-2.403165e+02" dominant-baseline="middle">40ms</text><text stroke="none" vector-effect="non-scaling-stroke" x="-10" y="-2.893956e+02" dominant-baseline="middle">50ms</text><text stroke="none" vector-effect="non-scaling-stroke" x="-10" y="-3.384747e+02" dominant-baseline="middle">60ms</text><text stroke="none" vector-effect="non-scaling-stroke" x="-10" y="-3.875538e+02" dominant-baseline="middle">70ms</text></g><g font-style="normal" text-anchor="middle" fill="black" font-family="sans-serif" transform="translate(80 520 )scale(1 1 )rotate(-90 0 0 )" stroke-width="2px" stroke-linejoin="round" dominant-baseline="hanging" stroke="black" stroke-linecap="round" font-size="12px" font-weight="bold"><text vector-effect="non-scaling-stroke" x="220" y="6" dominant-baseline="hanging" stroke="none">Runtime</text></g></g></g></g></svg>