<svg preserveAspectRatio="xMidYMid meet" xmlns="http://www.w3.org/2000/svg" width="800" height="600" viewbox="0 0 800 600"><defs><marker markerWidth="2%" markerHeight="2%" id="circle" viewBox="0 0 10 10 " refX="5" refY="5" markerUnits="userSpaceOnUse"><circle r="3" fill="none" stroke="black" cx="5" cy="5"/></marker><marker viewBox="0 0 10 10 " refX="5" refY="5" markerUnits="userSpaceOnUse" markerWidth="2%" markerHeight="2%" id="filled-circle"><circle cx="5" cy="5" r="3" fill="black" stroke="none"/></marker><marker markerHeight="2%" id="square" viewBox="0 0 10 10 " refX="5" refY="5" markerUnits="userSpaceOnUse" markerWidth="2%"><rect stroke="black" x="2" y="2" width="6" height="6" fill="none"/></marker><marker id="filled-square" viewBox="0 0 10 10 " refX="5" refY="5" markerUnits="userSpaceOnUse" markerWidth="2%" markerHeight="2%"><rect y="2" width="6" height="6" fill="black" stroke="none" x="2"/></marker></defs><g stroke-width="1px" stroke-linecap="round" stroke-linejoin="round" transform="translate(80 520 )scale(1 -1 )" fill="hsl(198, 47%, 65%)" stroke="hsl(198, 47%, 65%)"><rect vector-effect="non-scaling-stroke" x="3.650000e+01" y="0" width="2.750000e+01" height="8.686710e+01"/><rect vector-effect="non-scaling-stroke" x="5.783333e+01" y="0" width="2.750000e+01" height="5.550936e+01"/><rect height="1.709458e+02" vector-effect="non-scaling-stroke" x="7.916667e+01" y="0" width="2.750000e+01"/><rect x="1.005000e+02" y="0" width="2.750000e+01" height="9.558484e+01" vector-effect="non-scaling-stroke"/><rect vector-effect="non-scaling-stroke" x="1.218333e+02" y="0" width="2.750000e+01" height="7.599488e+01"/><rect height="1.272573e+02" vector-effect="non-scaling-stroke" x="1.431667e+02" y="0" width="2.750000e+01"/><rect x="1.645000e+02" y="0" width="2.750000e+01" height="396" vector-effect="non-scaling-stroke"/></g><g fill="hsl(49, 88%, 65%)" stroke="hsl(49, 88%, 65%)" stroke-width="1px" stroke-linecap="round" stroke-linejoin="round" transform="translate(80 520 )scale(1 -1 )"><rect vector-effect="non-scaling-stroke" x="64" y="0" width="2.750000e+01" height="6.310635e+01"/><rect y="0" width="2.750000e+01" height="4.678906e+01" vector-effect="non-scaling-stroke" x="8.533333e+01"/><rect vector-effect="non-scaling-stroke" x="1.066667e+02" y="0" width="2.750000e+01" height="1.402149e+02"/><rect width="2.750000e+01" height="7.333120e+01" vector-effect="non-scaling-stroke" x="128" y="0"/><rect width="2.750000e+01" height="6.318823e+01" vector-effect="non-scaling-stroke" x="1.493333e+02" y="0"/><rect width="2.750000e+01" height="8.956405e+01" vector-effect="non-scaling-stroke" x="1.706667e+02" y="0"/></g><g font-style="normal" dominant-baseline="hanging" font-weight="normal" fill="hsl(198, 47%, 65%)" font-family="sans-serif" stroke-linecap="round" stroke-linejoin="round" font-size="12px" text-anchor="start" stroke="hsl(198, 47%, 65%)" stroke-width="1px"><rect y="484" width="12" height="12" vector-effect="non-scaling-stroke" x="736"/><g fill="black" stroke="black"><text stroke="none" vector-effect="non-scaling-stroke" x="752" y="484" dominant-baseline="hanging">Golang</text></g><g font-style="normal" stroke-width="1px" stroke-linecap="round" text-anchor="start" fill="hsl(49, 88%, 65%)" font-family="sans-serif" stroke-linejoin="round" font-size="12px" dominant-baseline="hanging" font-weight="normal" stroke="hsl(49, 88%, 65%)"><rect vector-effect="non-scaling-stroke" x="736" y="502" width="12" height="12"/><g stroke="black" fill="black"><text vector-effect="non-scaling-stroke" x="752" y="502" dominant-baseline="hanging" stroke="none">Rust</text><g stroke-linejoin="round" stroke-width="2px" fill="none" font-style="normal" stroke-linecap="round" font-size="12px" text-anchor="start" dominant-baseline="hanging" font-family="sans-serif" font-weight="normal"><rect x="80" y="80" width="640" height="440" vector-effect="non-scaling-stroke"/></g><g stroke="black" stroke-linecap="round" font-size="12px" fill="none" font-style="normal" font-family="sans-serif" font-weight="normal" stroke-width="2px" stroke-linejoin="round" text-anchor="start" dominant-baseline="hanging" transform="translate(80 520 )scale(1 -1 )"><path vector-effect="non-scaling-stroke" d="M64,0 L64,-6 M8.533333e+01,0 L8.533333e+01,-6 M1.066667e+02,0 L1.066667e+02,-6 M128,0 L128,-6 M1.493333e+02,0 L1.493333e+02,-6 M1.706667e+02,0 L1.706667e+02,-6 M192,0 L192,-6 "/></g><g dominant-baseline="hanging" fill="black" font-style="normal" text-anchor="middle" stroke-width="2px" stroke-linecap="round" stroke-linejoin="round" font-size="12px" transform="translate(80 520 )scale(1 1 )" font-family="sans-serif" font-weight="normal" stroke="black"><text y="10" dominant-baseline="hanging" stroke="none" vector-effect="non-scaling-stroke" x="64">1</text><text y="10" dominant-baseline="hanging" stroke="none" vector-effect="non-scaling-stroke" x="8.533333e+01">2</text><text dominant-baseline="hanging" stroke="none" vector-effect="non-scaling-stroke" x="1.066667e+02" y="10">3</text><text stroke="none" vector-effect="non-scaling-stroke" x="128" y="10" dominant-baseline="hanging">4</text><text stroke="none" vector-effect="non-scaling-stroke" x="1.493333e+02" y="10" dominant-baseline="hanging">5</text><text y="10" dominant-baseline="hanging" stroke="none" vector-effect="non-scaling-stroke" x="1.706667e+02">6</text><text vector-effect="non-scaling-stroke" x="192" y="10" dominant-baseline="hanging" stroke="none">7</text></g><g text-anchor="middle" transform="translate(80 520 )scale(1 1 )rotate(0 0 0 )" stroke="black" stroke-width="2px" font-style="normal" font-family="sans-serif" stroke-linecap="round" stroke-linejoin="round" font-weight="bold" fill="black" font-size="12px" dominant-baseline="baseline"><text y="-6" dominant-baseline="baseline" stroke="none" vector-effect="non-scaling-stroke" x="320">Day</text></g><g stroke="black" stroke-width="2px" stroke-linejoin="round" fill="black" font-family="sans-serif" font-style="normal" font-size="12px" text-anchor="middle" dominant-baseline="baseline" transform="translate(80 520 )scale(1 -1 )" stroke-linecap="round" font-weight="bold"><path vector-effect="non-scaling-stroke" d="M0,44 L-6,44 M0,9.517544e+01 L-6,9.517544e+01 M0,1.463509e+02 L-6,1.463509e+02 M0,1.975263e+02 L-6,1.975263e+02 M0,2.487017e+02 L-6,2.487017e+02 M0,2.998772e+02 L-6,2.998772e+02 M0,3.510526e+02 L-6,3.510526e+02 "/></g><g fill="black" font-family="sans-serif" stroke-linejoin="round" text-anchor="end" stroke="black" transform="translate(80 520 )scale(1 1 )" stroke-width="2px" font-style="normal" font-weight="normal" stroke-linecap="round" font-size="12px" dominant-baseline="middle"><text stroke="none" vector-effect="non-scaling-stroke" x="-10" y="-44" dominant-baseline="middle">0s</text><text y="-9.517544e+01" dominant-baseline="middle" stroke="none" vector-effect="non-scaling-stroke" x="-10">20µs</text><text x="-10" y="-1.463509e+02" dominant-baseline="middle" stroke="none" vector-effect="non-scaling-stroke">40µs</text><text stroke="none" vector-effect="non-scaling-stroke" x="-10" y="-1.975263e+02" dominant-baseline="middle">60µs</text><text vector-effect="non-scaling-stroke" x="-10" y="-2.487017e+02" dominant-baseline="middle" stroke="none">80µs</text><text stroke="none" vector-effect="non-scaling-stroke" x="-10" y="-2.998772e+02" dominant-baseline="middle">100µs</text><text stroke="none" vector-effect="non-scaling-stroke" x="-10" y="-3.510526e+02" dominant-baseline="middle">120µs</text></g><g dominant-baseline="hanging" fill="black" font-style="normal" transform="translate(80 520 )scale(1 1 )rotate(-90 0 0 )" stroke="black" stroke-width="2px" text-anchor="middle" font-family="sans-serif" font-weight="bold" stroke-linecap="round" stroke-linejoin="round" font-size="12px"><text stroke="none" vector-effect="non-scaling-stroke" x="220" y="6" dominant-baseline="hanging">Runtime</text></g></g></g></g></svg>