<svg viewbox="0 0 800 600" preserveAspectRatio="xMidYMid meet" xmlns="http://www.w3.org/2000/svg" width="800" height="600"><defs><marker refY="5" markerUnits="userSpaceOnUse" markerWidth="2%" markerHeight="2%" id="circle" viewBox="0 0 10 10 " refX="5"><circle cy="5" r="3" fill="none" stroke="black" cx="5"/></marker><marker viewBox="0 0 10 10 " refX="5" refY="5" markerUnits="userSpaceOnUse" markerWidth="2%" markerHeight="2%" id="filled-circle"><circle cx="5" cy="5" r="3" fill="black" stroke="none"/></marker><marker id="square" viewBox="0 0 10 10 " refX="5" refY="5" markerUnits="userSpaceOnUse" markerWidth="2%" markerHeight="2%"><rect fill="none" stroke="black" x="2" y="2" width="6" height="6"/></marker><marker refX="5" refY="5" markerUnits="userSpaceOnUse" markerWidth="2%" markerHeight="2%" id="filled-square" viewBox="0 0 10 10 "><rect height="6" fill="black" stroke="none" x="2" y="2" width="6"/></marker></defs><g stroke-linejoin="round" transform="translate(80 520 )scale(1 -1 )" fill="hsl(198, 47%, 65%)" stroke="hsl(198, 47%, 65%)" stroke-width="1px" stroke-linecap="round"><rect y="0" width="6.464646e+00" height="4.403874e+01" vector-effect="non-scaling-stroke" x="5.430303e+01"/><rect y="0" width="6.464646e+00" height="4.400159e+01" vector-effect="non-scaling-stroke" x="7.563636e+01"/><rect y="0" width="6.464646e+00" height="4.400658e+01" vector-effect="non-scaling-stroke" x="9.696970e+01"/><rect x="1.183030e+02" y="0" width="6.464646e+00" height="4.400744e+01" vector-effect="non-scaling-stroke"/><rect width="6.464646e+00" height="4.401320e+01" vector-effect="non-scaling-stroke" x="1.396364e+02" y="0"/><rect width="6.464646e+00" height="4.400003e+01" vector-effect="non-scaling-stroke" x="1.609697e+02" y="0"/><rect width="6.464646e+00" height="4.408045e+01" vector-effect="non-scaling-stroke" x="1.823030e+02" y="0"/><rect height="4.420395e+01" vector-effect="non-scaling-stroke" x="2.036364e+02" y="0" width="6.464646e+00"/><rect vector-effect="non-scaling-stroke" x="2.249697e+02" y="0" width="6.464646e+00" height="4.400830e+01"/><rect height="4.425871e+01" vector-effect="non-scaling-stroke" x="2.463030e+02" y="0" width="6.464646e+00"/><rect y="0" width="6.464646e+00" height="4.400286e+01" vector-effect="non-scaling-stroke" x="2.676364e+02"/><rect height="4.642182e+01" vector-effect="non-scaling-stroke" x="2.889697e+02" y="0" width="6.464646e+00"/><rect y="0" width="6.464646e+00" height="4.402414e+01" vector-effect="non-scaling-stroke" x="3.103030e+02"/><rect vector-effect="non-scaling-stroke" x="3.316364e+02" y="0" width="6.464646e+00" height="4.754643e+01"/><rect width="6.464646e+00" height="4.403060e+01" vector-effect="non-scaling-stroke" x="3.529697e+02" y="0"/><rect vector-effect="non-scaling-stroke" x="3.743030e+02" y="0" width="6.464646e+00" height="5.129216e+01"/><rect width="6.464646e+00" height="9.551111e+01" vector-effect="non-scaling-stroke" x="3.956364e+02" y="0"/><rect height="4.400146e+01" vector-effect="non-scaling-stroke" x="4.169697e+02" y="0" width="6.464646e+00"/><rect y="0" width="6.464646e+00" height="4.406249e+01" vector-effect="non-scaling-stroke" x="4.383030e+02"/><rect vector-effect="non-scaling-stroke" x="4.596364e+02" y="0" width="6.464646e+00" height="4.427701e+01"/><rect height="396" vector-effect="non-scaling-stroke" x="4.809697e+02" y="0" width="6.464646e+00"/><rect vector-effect="non-scaling-stroke" x="5.023030e+02" y="0" width="6.464646e+00" height="4.509710e+01"/></g><g transform="translate(80 520 )scale(1 -1 )" fill="hsl(49, 88%, 65%)" stroke="hsl(49, 88%, 65%)" stroke-width="1px" stroke-linecap="round" stroke-linejoin="round"><rect vector-effect="non-scaling-stroke" x="6.076768e+01" y="0" width="6.464646e+00" height="4.401528e+01"/><rect width="6.464646e+00" height="4.400052e+01" vector-effect="non-scaling-stroke" x="8.210101e+01" y="0"/><rect y="0" width="6.464646e+00" height="4.400395e+01" vector-effect="non-scaling-stroke" x="1.034343e+02"/><rect vector-effect="non-scaling-stroke" x="1.247677e+02" y="0" width="6.464646e+00" height="4.400411e+01"/><rect x="1.461010e+02" y="0" width="6.464646e+00" height="4.400240e+01" vector-effect="non-scaling-stroke"/><rect x="1.674343e+02" y="0" width="6.464646e+00" height="4.400002e+01" vector-effect="non-scaling-stroke"/><rect width="6.464646e+00" height="4.401496e+01" vector-effect="non-scaling-stroke" x="1.887677e+02" y="0"/><rect vector-effect="non-scaling-stroke" x="2.101010e+02" y="0" width="6.464646e+00" height="4.461517e+01"/><rect y="0" width="6.464646e+00" height="4.400453e+01" vector-effect="non-scaling-stroke" x="2.314343e+02"/><rect vector-effect="non-scaling-stroke" x="2.527677e+02" y="0" width="6.464646e+00" height="4.402062e+01"/><rect width="6.464646e+00" height="4.400256e+01" vector-effect="non-scaling-stroke" x="2.741010e+02" y="0"/><rect vector-effect="non-scaling-stroke" x="2.954343e+02" y="0" width="6.464646e+00" height="4.738619e+01"/><rect width="6.464646e+00" height="4.401035e+01" vector-effect="non-scaling-stroke" x="3.167677e+02" y="0"/><rect width="6.464646e+00" height="4.753947e+01" vector-effect="non-scaling-stroke" x="3.381010e+02" y="0"/><rect x="3.594343e+02" y="0" width="6.464646e+00" height="4.401490e+01" vector-effect="non-scaling-stroke"/><rect width="6.464646e+00" height="4.624313e+01" vector-effect="non-scaling-stroke" x="3.807677e+02" y="0"/><rect y="0" width="6.464646e+00" height="1.090834e+02" vector-effect="non-scaling-stroke" x="4.021010e+02"/><rect vector-effect="non-scaling-stroke" x="4.234343e+02" y="0" width="6.464646e+00" height="4.400069e+01"/><rect width="6.464646e+00" height="4.403002e+01" vector-effect="non-scaling-stroke" x="4.447677e+02" y="0"/><rect height="4.533271e+01" vector-effect="non-scaling-stroke" x="4.661010e+02" y="0" width="6.464646e+00"/><rect height="1.568714e+02" vector-effect="non-scaling-stroke" x="4.874343e+02" y="0" width="6.464646e+00"/><rect x="5.087677e+02" y="0" width="6.464646e+00" height="4.431334e+01" vector-effect="non-scaling-stroke"/></g><g stroke-linejoin="round" transform="translate(80 520 )scale(1 -1 )" fill="hsl(260, 76%, 65%)" stroke="hsl(260, 76%, 65%)" stroke-width="1px" stroke-linecap="round"><rect vector-effect="non-scaling-stroke" x="6.723232e+01" y="0" width="6.464646e+00" height="4.401615e+01"/><rect y="0" width="6.464646e+00" height="4.400057e+01" vector-effect="non-scaling-stroke" x="8.856566e+01"/><rect y="0" width="6.464646e+00" height="4.400290e+01" vector-effect="non-scaling-stroke" x="1.098990e+02"/><rect width="6.464646e+00" height="4.401151e+01" vector-effect="non-scaling-stroke" x="1.312323e+02" y="0"/><rect y="0" width="6.464646e+00" height="4.442801e+01" vector-effect="non-scaling-stroke" x="1.525657e+02"/><rect height="4.400002e+01" vector-effect="non-scaling-stroke" x="1.738990e+02" y="0" width="6.464646e+00"/><rect y="0" width="6.464646e+00" height="4.400939e+01" vector-effect="non-scaling-stroke" x="1.952323e+02"/><rect vector-effect="non-scaling-stroke" x="2.165657e+02" y="0" width="6.464646e+00" height="4.404818e+01"/><rect y="0" width="6.464646e+00" height="4.400459e+01" vector-effect="non-scaling-stroke" x="2.378990e+02"/><rect width="6.464646e+00" height="4.401737e+01" vector-effect="non-scaling-stroke" x="2.592323e+02" y="0"/><rect vector-effect="non-scaling-stroke" x="2.805657e+02" y="0" width="6.464646e+00" height="4.400186e+01"/><rect x="3.018990e+02" y="0" width="6.464646e+00" height="4.772667e+01" vector-effect="non-scaling-stroke"/><rect vector-effect="non-scaling-stroke" x="3.232323e+02" y="0" width="6.464646e+00" height="4.401932e+01"/><rect width="6.464646e+00" height="4.401453e+01" vector-effect="non-scaling-stroke" x="3.658990e+02" y="0"/><rect x="3.872323e+02" y="0" width="6.464646e+00" height="5.514372e+01" vector-effect="non-scaling-stroke"/><rect vector-effect="non-scaling-stroke" x="4.298990e+02" y="0" width="6.464646e+00" height="4.400074e+01"/><rect y="0" width="6.464646e+00" height="4.452884e+01" vector-effect="non-scaling-stroke" x="4.512323e+02"/></g><g font-size="12px" dominant-baseline="hanging" fill="hsl(198, 47%, 65%)" stroke-linecap="round" font-family="sans-serif" font-style="normal" text-anchor="start" stroke-linejoin="round" font-weight="normal" stroke-width="1px" stroke="hsl(198, 47%, 65%)"><rect width="12" height="12" vector-effect="non-scaling-stroke" x="736" y="466"/><g stroke="black" fill="black"><text stroke="none" vector-effect="non-scaling-stroke" x="752" y="466" dominant-baseline="hanging">Golang</text></g><g dominant-baseline="hanging" stroke-linejoin="round" font-style="normal" stroke-width="1px" stroke-linecap="round" font-weight="normal" fill="hsl(49, 88%, 65%)" font-size="12px" font-family="sans-serif" text-anchor="start" stroke="hsl(49, 88%, 65%)"><rect width="12" height="12" vector-effect="non-scaling-stroke" x="736" y="484"/><g stroke="black" fill="black"><text vector-effect="non-scaling-stroke" x="752" y="484" dominant-baseline="hanging" stroke="none">Rust</text></g><g stroke="hsl(260, 76%, 65%)" stroke-linecap="round" font-family="sans-serif" dominant-baseline="hanging" fill="hsl(260, 76%, 65%)" stroke-linejoin="round" font-style="normal" text-anchor="start" font-size="12px" stroke-width="1px" font-weight="normal"><rect width="12" height="12" vector-effect="non-scaling-stroke" x="736" y="502"/><g stroke="black" fill="black"><text x="752" y="502" dominant-baseline="hanging" stroke="none" vector-effect="non-scaling-stroke">Zig</text><g font-weight="normal" text-anchor="start" font-style="normal" font-family="sans-serif" fill="none" font-size="12px" stroke-width="2px" stroke-linecap="round" dominant-baseline="hanging" stroke-linejoin="round"><rect vector-effect="non-scaling-stroke" x="80" y="80" width="640" height="440"/></g><g text-anchor="start" stroke="black" dominant-baseline="hanging" font-family="sans-serif" stroke-width="2px" stroke-linecap="round" font-weight="normal" transform="translate(80 520 )scale(1 -1 )" fill="none" stroke-linejoin="round" font-size="12px" font-style="normal"><path vector-effect="non-scaling-stroke" d="M64,0 L64,-6 M8.533333e+01,0 L8.533333e+01,-6 M1.066667e+02,0 L1.066667e+02,-6 M128,0 L128,-6 M1.493333e+02,0 L1.493333e+02,-6 M1.706667e+02,0 L1.706667e+02,-6 M192,0 L192,-6 M2.133333e+02,0 L2.133333e+02,-6 M2.346667e+02,0 L2.346667e+02,-6 M256,0 L256,-6 M2.773333e+02,0 L2.773333e+02,-6 M2.986667e+02,0 L2.986667e+02,-6 M320,0 L320,-6 M3.413333e+02,0 L3.413333e+02,-6 M3.626667e+02,0 L3.626667e+02,-6 M384,0 L384,-6 M4.053333e+02,0 L4.053333e+02,-6 M4.266667e+02,0 L4.266667e+02,-6 M448,0 L448,-6 M4.693333e+02,0 L4.693333e+02,-6 M4.906667e+02,0 L4.906667e+02,-6 M512,0 L512,-6 "/></g><g font-weight="normal" transform="translate(80 520 )scale(1 1 )" font-style="normal" text-anchor="middle" font-size="12px" stroke="black" stroke-linejoin="round" dominant-baseline="hanging" fill="black" stroke-width="2px" stroke-linecap="round" font-family="sans-serif"><text dominant-baseline="hanging" stroke="none" vector-effect="non-scaling-stroke" x="64" y="10">1</text><text stroke="none" vector-effect="non-scaling-stroke" x="8.533333e+01" y="10" dominant-baseline="hanging">2</text><text stroke="none" vector-effect="non-scaling-stroke" x="1.066667e+02" y="10" dominant-baseline="hanging">3</text><text stroke="none" vector-effect="non-scaling-stroke" x="128" y="10" dominant-baseline="hanging">4</text><text vector-effect="non-scaling-stroke" x="1.493333e+02" y="10" dominant-baseline="hanging" stroke="none">5</text><text stroke="none" vector-effect="non-scaling-stroke" x="1.706667e+02" y="10" dominant-baseline="hanging">6</text><text stroke="none" vector-effect="non-scaling-stroke" x="192" y="10" dominant-baseline="hanging">7</text><text stroke="none" vector-effect="non-scaling-stroke" x="2.133333e+02" y="10" dominant-baseline="hanging">8</text><text stroke="none" vector-effect="non-scaling-stroke" x="2.346667e+02" y="10" dominant-baseline="hanging">9</text><text x="256" y="10" dominant-baseline="hanging" stroke="none" vector-effect="non-scaling-stroke">10</text><text stroke="none" vector-effect="non-scaling-stroke" x="2.773333e+02" y="10" dominant-baseline="hanging">11</text><text y="10" dominant-baseline="hanging" stroke="none" vector-effect="non-scaling-stroke" x="2.986667e+02">12</text><text vector-effect="non-scaling-stroke" x="320" y="10" dominant-baseline="hanging" stroke="none">13</text><text y="10" dominant-baseline="hanging" stroke="none" vector-effect="non-scaling-stroke" x="3.413333e+02">14</text><text dominant-baseline="hanging" stroke="none" vector-effect="non-scaling-stroke" x="3.626667e+02" y="10">15</text><text vector-effect="non-scaling-stroke" x="384" y="10" dominant-baseline="hanging" stroke="none">16</text><text x="4.053333e+02" y="10" dominant-baseline="hanging" stroke="none" vector-effect="non-scaling-stroke">17</text><text x="4.266667e+02" y="10" dominant-baseline="hanging" stroke="none" vector-effect="non-scaling-stroke">18</text><text stroke="none" vector-effect="non-scaling-stroke" x="448" y="10" dominant-baseline="hanging">19</text><text vector-effect="non-scaling-stroke" x="4.693333e+02" y="10" dominant-baseline="hanging" stroke="none">20</text><text stroke="none" vector-effect="non-scaling-stroke" x="4.906667e+02" y="10" dominant-baseline="hanging">21</text><text stroke="none" vector-effect="non-scaling-stroke" x="512" y="10" dominant-baseline="hanging">22</text></g><g font-size="12px" fill="black" stroke-linejoin="round" text-anchor="middle" stroke-width="2px" font-weight="bold" dominant-baseline="baseline" transform="translate(80 520 )scale(1 1 )rotate(0 0 0 )" stroke-linecap="round" font-family="sans-serif" font-style="normal" stroke="black"><text stroke="none" vector-effect="non-scaling-stroke" x="320" y="-6" dominant-baseline="baseline">Day</text></g><g font-size="12px" font-weight="bold" dominant-baseline="baseline" stroke="black" font-family="sans-serif" transform="translate(80 520 )scale(1 -1 )" stroke-linejoin="round" stroke-width="2px" stroke-linecap="round" font-style="normal" fill="black" text-anchor="middle"><path vector-effect="non-scaling-stroke" d="M0,44 L-6,44 M0,8.742452e+01 L-6,8.742452e+01 M0,1.308490e+02 L-6,1.308490e+02 M0,1.742736e+02 L-6,1.742736e+02 M0,2.176981e+02 L-6,2.176981e+02 M0,2.611226e+02 L-6,2.611226e+02 M0,3.045471e+02 L-6,3.045471e+02 M0,3.479717e+02 L-6,3.479717e+02 M0,3.913962e+02 L-6,3.913962e+02 "/></g><g stroke-linejoin="round" font-size="12px" font-weight="normal" dominant-baseline="middle" stroke-width="2px" stroke-linecap="round" transform="translate(80 520 )scale(1 1 )" fill="black" font-family="sans-serif" font-style="normal" text-anchor="end" stroke="black"><text stroke="none" vector-effect="non-scaling-stroke" x="-10" y="-44" dominant-baseline="middle">0s</text><text stroke="none" vector-effect="non-scaling-stroke" x="-10" y="-8.742452e+01" dominant-baseline="middle">200ms</text><text x="-10" y="-1.308490e+02" dominant-baseline="middle" stroke="none" vector-effect="non-scaling-stroke">400ms</text><text vector-effect="non-scaling-stroke" x="-10" y="-1.742736e+02" dominant-baseline="middle" stroke="none">600ms</text><text x="-10" y="-2.176981e+02" dominant-baseline="middle" stroke="none" vector-effect="non-scaling-stroke">800ms</text><text dominant-baseline="middle" stroke="none" vector-effect="non-scaling-stroke" x="-10" y="-2.611226e+02">1s</text><text vector-effect="non-scaling-stroke" x="-10" y="-3.045471e+02" dominant-baseline="middle" stroke="none">1.2s</text><text stroke="none" vector-effect="non-scaling-stroke" x="-10" y="-3.479717e+02" dominant-baseline="middle">1.4s</text><text stroke="none" vector-effect="non-scaling-stroke" x="-10" y="-3.913962e+02" dominant-baseline="middle">1.6s</text></g><g stroke-width="2px" stroke-linecap="round" font-family="sans-serif" fill="black" font-size="12px" stroke="black" transform="translate(80 520 )scale(1 1 )rotate(-90 0 0 )" font-style="normal" text-anchor="middle" stroke-linejoin="round" font-weight="bold" dominant-baseline="hanging"><text vector-effect="non-scaling-stroke" x="220" y="6" dominant-baseline="hanging" stroke="none">Runtime</text></g></g></g></g></g></svg>