<svg preserveAspectRatio="xMidYMid meet" xmlns="http://www.w3.org/2000/svg" width="800" height="600" viewbox="0 0 800 600"><defs><marker id="circle" viewBox="0 0 10 10 " refX="5" refY="5" markerUnits="userSpaceOnUse" markerWidth="2%" markerHeight="2%"><circle cx="5" cy="5" r="3" fill="none" stroke="black"/></marker><marker markerHeight="2%" id="filled-circle" viewBox="0 0 10 10 " refX="5" refY="5" markerUnits="userSpaceOnUse" markerWidth="2%"><circle r="3" fill="black" stroke="none" cx="5" cy="5"/></marker><marker viewBox="0 0 10 10 " refX="5" refY="5" markerUnits="userSpaceOnUse" markerWidth="2%" markerHeight="2%" id="square"><rect height="6" fill="none" stroke="black" x="2" y="2" width="6"/></marker><marker refX="5" refY="5" markerUnits="userSpaceOnUse" markerWidth="2%" markerHeight="2%" id="filled-square" viewBox="0 0 10 10 "><rect width="6" height="6" fill="black" stroke="none" x="2" y="2"/></marker></defs><g stroke-width="1px" stroke-linecap="round" stroke-linejoin="round" transform="translate(80 520 )scale(1 -1 )" fill="hsl(198, 47%, 65%)" stroke="hsl(198, 47%, 65%)"><rect vector-effect="non-scaling-stroke" x="5.546667e+01" y="0" width="4.266667e+00" height="4.404221e+01"/><rect x="7.680000e+01" y="0" width="4.266667e+00" height="4.406900e+01" vector-effect="non-scaling-stroke"/><rect vector-effect="non-scaling-stroke" x="9.813333e+01" y="0" width="4.266667e+00" height="4.405087e+01"/><rect height="4.413081e+01" vector-effect="non-scaling-stroke" x="1.194667e+02" y="0" width="4.266667e+00"/><rect width="4.266667e+00" height="4.408582e+01" vector-effect="non-scaling-stroke" x="1.408000e+02" y="0"/><rect vector-effect="non-scaling-stroke" x="1.621333e+02" y="0" width="4.266667e+00" height="4.433093e+01"/><rect width="4.266667e+00" height="4.412148e+01" vector-effect="non-scaling-stroke" x="1.834667e+02" y="0"/><rect vector-effect="non-scaling-stroke" x="2.048000e+02" y="0" width="4.266667e+00" height="4.408386e+01"/><rect height="4.402602e+01" vector-effect="non-scaling-stroke" x="2.261333e+02" y="0" width="4.266667e+00"/><rect y="0" width="4.266667e+00" height="4.400182e+01" vector-effect="non-scaling-stroke" x="2.474667e+02"/><rect vector-effect="non-scaling-stroke" x="2.688000e+02" y="0" width="4.266667e+00" height="5.087414e+01"/><rect vector-effect="non-scaling-stroke" x="2.901333e+02" y="0" width="4.266667e+00" height="4.400851e+01"/><rect y="0" width="4.266667e+00" height="4.401620e+01" vector-effect="non-scaling-stroke" x="3.114667e+02"/><rect vector-effect="non-scaling-stroke" x="3.328000e+02" y="0" width="4.266667e+00" height="4.452515e+01"/><rect vector-effect="non-scaling-stroke" x="3.541333e+02" y="0" width="4.266667e+00" height="1.085304e+02"/><rect vector-effect="non-scaling-stroke" x="3.754667e+02" y="0" width="4.266667e+00" height="4.410806e+01"/><rect width="4.266667e+00" height="7.250111e+01" vector-effect="non-scaling-stroke" x="3.968000e+02" y="0"/><rect width="4.266667e+00" height="4.410437e+01" vector-effect="non-scaling-stroke" x="4.181333e+02" y="0"/><rect x="4.394667e+02" y="0" width="4.266667e+00" height="4.468070e+01" vector-effect="non-scaling-stroke"/><rect vector-effect="non-scaling-stroke" x="4.608000e+02" y="0" width="4.266667e+00" height="4.482503e+01"/><rect width="4.266667e+00" height="4.414954e+01" vector-effect="non-scaling-stroke" x="4.821333e+02" y="0"/><rect y="0" width="4.266667e+00" height="6.484280e+01" vector-effect="non-scaling-stroke" x="5.034667e+02"/><rect height="2.219617e+02" vector-effect="non-scaling-stroke" x="5.248000e+02" y="0" width="4.266667e+00"/><rect width="4.266667e+00" height="1.117597e+03" vector-effect="non-scaling-stroke" x="5.461333e+02" y="0"/><rect width="4.266667e+00" height="5.085107e+01" vector-effect="non-scaling-stroke" x="5.674667e+02" y="0"/></g><g stroke="hsl(49, 88%, 65%)" stroke-width="1px" stroke-linecap="round" stroke-linejoin="round" transform="translate(80 520 )scale(1 -1 )" fill="hsl(49, 88%, 65%)"><rect width="4.266667e+00" height="4.718375e+01" vector-effect="non-scaling-stroke" x="5.973333e+01" y="0"/><rect width="4.266667e+00" height="4.408992e+01" vector-effect="non-scaling-stroke" x="8.106667e+01" y="0"/><rect height="4.400396e+01" vector-effect="non-scaling-stroke" x="1.024000e+02" y="0" width="4.266667e+00"/><rect x="1.237333e+02" y="0" width="4.266667e+00" height="4.407553e+01" vector-effect="non-scaling-stroke"/><rect y="0" width="4.266667e+00" height="4.401764e+01" vector-effect="non-scaling-stroke" x="1.450667e+02"/><rect width="4.266667e+00" height="4.463710e+01" vector-effect="non-scaling-stroke" x="1.664000e+02" y="0"/><rect height="4.423185e+01" vector-effect="non-scaling-stroke" x="1.877333e+02" y="0" width="4.266667e+00"/><rect height="4.477661e+01" vector-effect="non-scaling-stroke" x="2.090667e+02" y="0" width="4.266667e+00"/><rect height="4.738664e+01" vector-effect="non-scaling-stroke" x="2.304000e+02" y="0" width="4.266667e+00"/><rect x="2.517333e+02" y="0" width="4.266667e+00" height="4.401639e+01" vector-effect="non-scaling-stroke"/><rect x="2.730667e+02" y="0" width="4.266667e+00" height="5.191409e+01" vector-effect="non-scaling-stroke"/><rect y="0" width="4.266667e+00" height="4.402293e+01" vector-effect="non-scaling-stroke" x="2.944000e+02"/><rect height="4.400145e+01" vector-effect="non-scaling-stroke" x="3.157333e+02" y="0" width="4.266667e+00"/><rect height="4.587172e+01" vector-effect="non-scaling-stroke" x="3.370667e+02" y="0" width="4.266667e+00"/><rect x="3.584000e+02" y="0" width="4.266667e+00" height="1.137965e+02" vector-effect="non-scaling-stroke"/><rect y="0" width="4.266667e+00" height="4.431700e+01" vector-effect="non-scaling-stroke" x="3.797333e+02"/><rect y="0" width="4.266667e+00" height="1.390713e+02" vector-effect="non-scaling-stroke" x="4.010667e+02"/><rect height="4.592130e+01" vector-effect="non-scaling-stroke" x="4.224000e+02" y="0" width="4.266667e+00"/><rect height="4.713891e+01" vector-effect="non-scaling-stroke" x="4.437333e+02" y="0" width="4.266667e+00"/><rect y="0" width="4.266667e+00" height="4.540524e+01" vector-effect="non-scaling-stroke" x="4.650667e+02"/><rect vector-effect="non-scaling-stroke" x="4.864000e+02" y="0" width="4.266667e+00" height="4.439521e+01"/><rect vector-effect="non-scaling-stroke" x="5.077333e+02" y="0" width="4.266667e+00" height="5.749515e+01"/><rect y="0" width="4.266667e+00" height="1.630966e+02" vector-effect="non-scaling-stroke" x="5.290667e+02"/><rect x="5.504000e+02" y="0" width="4.266667e+00" height="6.701788e+01" vector-effect="non-scaling-stroke"/><rect width="4.266667e+00" height="5.104296e+01" vector-effect="non-scaling-stroke" x="5.717333e+02" y="0"/></g><g stroke-linecap="round" stroke-linejoin="round" transform="translate(80 520 )scale(1 -1 )" fill="hsl(260, 76%, 65%)" stroke="hsl(260, 76%, 65%)" stroke-width="1px"><rect height="4.402663e+01" vector-effect="non-scaling-stroke" x="6.400000e+01" y="0" width="4.266667e+00"/><rect width="4.266667e+00" height="4.400530e+01" vector-effect="non-scaling-stroke" x="8.533333e+01" y="0"/><rect x="1.066667e+02" y="0" width="4.266667e+00" height="4.400048e+01" vector-effect="non-scaling-stroke"/><rect vector-effect="non-scaling-stroke" x="1.280000e+02" y="0" width="4.266667e+00" height="4.400818e+01"/><rect width="4.266667e+00" height="4.401138e+01" vector-effect="non-scaling-stroke" x="1.493333e+02" y="0"/><rect width="4.266667e+00" height="4.400352e+01" vector-effect="non-scaling-stroke" x="1.706667e+02" y="0"/><rect width="4.266667e+00" height="4.404313e+01" vector-effect="non-scaling-stroke" x="192" y="0"/><rect vector-effect="non-scaling-stroke" x="2.133333e+02" y="0" width="4.266667e+00" height="4.401337e+01"/><rect width="4.266667e+00" height="4.401154e+01" vector-effect="non-scaling-stroke" x="2.346667e+02" y="0"/><rect y="0" width="4.266667e+00" height="4.400013e+01" vector-effect="non-scaling-stroke" x="256"/><rect vector-effect="non-scaling-stroke" x="2.773333e+02" y="0" width="4.266667e+00" height="4.664964e+01"/><rect vector-effect="non-scaling-stroke" x="2.986667e+02" y="0" width="4.266667e+00" height="4.400043e+01"/><rect vector-effect="non-scaling-stroke" x="3.413333e+02" y="0" width="4.266667e+00" height="4.458843e+01"/><rect vector-effect="non-scaling-stroke" x="3.626667e+02" y="0" width="4.266667e+00" height="1.174998e+02"/><rect x="384" y="0" width="4.266667e+00" height="4.404503e+01" vector-effect="non-scaling-stroke"/><rect height="4.997730e+01" vector-effect="non-scaling-stroke" x="4.053333e+02" y="0" width="4.266667e+00"/><rect y="0" width="4.266667e+00" height="4.402543e+01" vector-effect="non-scaling-stroke" x="4.266667e+02"/><rect y="0" width="4.266667e+00" height="4.969831e+01" vector-effect="non-scaling-stroke" x="448"/><rect vector-effect="non-scaling-stroke" x="4.693333e+02" y="0" width="4.266667e+00" height="4.402243e+01"/><rect vector-effect="non-scaling-stroke" x="4.906667e+02" y="0" width="4.266667e+00" height="4.404119e+01"/><rect y="0" width="4.266667e+00" height="5.019465e+01" vector-effect="non-scaling-stroke" x="512"/><rect vector-effect="non-scaling-stroke" x="5.333333e+02" y="0" width="4.266667e+00" height="7.563278e+01"/><rect height="5.204423e+01" vector-effect="non-scaling-stroke" x="5.546667e+02" y="0" width="4.266667e+00"/><rect y="0" width="4.266667e+00" height="5.038657e+01" vector-effect="non-scaling-stroke" x="576"/></g><g stroke-linejoin="round" transform="translate(80 520 )scale(1 -1 )" fill="hsl(111, 64%, 65%)" stroke="hsl(111, 64%, 65%)" stroke-width="1px" stroke-linecap="round"><rect height="4.406720e+01" vector-effect="non-scaling-stroke" x="6.826667e+01" y="0" width="4.266667e+00"/><rect width="4.266667e+00" height="4.401056e+01" vector-effect="non-scaling-stroke" x="8.960000e+01" y="0"/><rect vector-effect="non-scaling-stroke" x="1.109333e+02" y="0" width="4.266667e+00" height="4.400227e+01"/><rect y="0" width="4.266667e+00" height="4.434049e+01" vector-effect="non-scaling-stroke" x="1.322667e+02"/><rect vector-effect="non-scaling-stroke" x="1.536000e+02" y="0" width="4.266667e+00" height="4.403303e+01"/><rect vector-effect="non-scaling-stroke" x="1.749333e+02" y="0" width="4.266667e+00" height="4.535987e+01"/><rect vector-effect="non-scaling-stroke" x="1.962667e+02" y="0" width="4.266667e+00" height="4.409000e+01"/><rect y="0" width="4.266667e+00" height="4.482020e+01" vector-effect="non-scaling-stroke" x="2.176000e+02"/><rect height="4.402864e+01" vector-effect="non-scaling-stroke" x="2.389333e+02" y="0" width="4.266667e+00"/><rect x="2.602667e+02" y="0" width="4.266667e+00" height="4.400554e+01" vector-effect="non-scaling-stroke"/><rect height="4.701751e+01" vector-effect="non-scaling-stroke" x="2.816000e+02" y="0" width="4.266667e+00"/><rect height="4.427674e+01" vector-effect="non-scaling-stroke" x="3.029333e+02" y="0" width="4.266667e+00"/><rect vector-effect="non-scaling-stroke" x="3.242667e+02" y="0" width="4.266667e+00" height="4.400162e+01"/><rect width="4.266667e+00" height="1.394576e+02" vector-effect="non-scaling-stroke" x="3.669333e+02" y="0"/><rect vector-effect="non-scaling-stroke" x="3.882667e+02" y="0" width="4.266667e+00" height="4.421726e+01"/><rect height="4.488382e+01" vector-effect="non-scaling-stroke" x="4.096000e+02" y="0" width="4.266667e+00"/><rect vector-effect="non-scaling-stroke" x="4.309333e+02" y="0" width="4.266667e+00" height="4.526394e+01"/><rect x="4.522667e+02" y="0" width="4.266667e+00" height="4.621328e+01" vector-effect="non-scaling-stroke"/><rect vector-effect="non-scaling-stroke" x="4.736000e+02" y="0" width="4.266667e+00" height="4.603190e+01"/><rect vector-effect="non-scaling-stroke" x="4.949333e+02" y="0" width="4.266667e+00" height="4.458235e+01"/><rect x="5.162667e+02" y="0" width="4.266667e+00" height="6.353697e+01" vector-effect="non-scaling-stroke"/><rect vector-effect="non-scaling-stroke" x="5.376000e+02" y="0" width="4.266667e+00" height="8.521744e+02"/><rect vector-effect="non-scaling-stroke" x="5.589333e+02" y="0" width="4.266667e+00" height="5.760404e+01"/><rect x="5.802667e+02" y="0" width="4.266667e+00" height="4.999549e+01" vector-effect="non-scaling-stroke"/></g><g font-weight="normal" dominant-baseline="hanging" stroke-linecap="round" stroke-linejoin="round" font-family="sans-serif" font-size="12px" stroke="hsl(198, 47%, 65%)" stroke-width="1px" font-style="normal" fill="hsl(198, 47%, 65%)" text-anchor="start"><rect height="12" vector-effect="non-scaling-stroke" x="736" y="448" width="12"/><g fill="black" stroke="black"><text stroke="none" vector-effect="non-scaling-stroke" x="752" y="448" dominant-baseline="hanging">Crystal</text></g><g text-anchor="start" fill="hsl(49, 88%, 65%)" stroke-width="1px" dominant-baseline="hanging" stroke-linecap="round" font-size="12px" font-style="normal" stroke-linejoin="round" font-family="sans-serif" font-weight="normal" stroke="hsl(49, 88%, 65%)"><rect x="736" y="466" width="12" height="12" vector-effect="non-scaling-stroke"/><g fill="black" stroke="black"><text y="466" dominant-baseline="hanging" stroke="none" vector-effect="non-scaling-stroke" x="752">Golang</text></g><g stroke-width="1px" dominant-baseline="hanging" stroke-linecap="round" stroke-linejoin="round" stroke="hsl(260, 76%, 65%)" font-size="12px" font-style="normal" font-weight="normal" text-anchor="start" font-family="sans-serif" fill="hsl(260, 76%, 65%)"><rect x="736" y="484" width="12" height="12" vector-effect="non-scaling-stroke"/><g fill="black" stroke="black"><text dominant-baseline="hanging" stroke="none" vector-effect="non-scaling-stroke" x="752" y="484">Rust</text></g><g stroke-linejoin="round" fill="hsl(111, 64%, 65%)" stroke="hsl(111, 64%, 65%)" font-family="sans-serif" font-weight="normal" text-anchor="start" dominant-baseline="hanging" font-size="12px" font-style="normal" stroke-linecap="round" stroke-width="1px"><rect vector-effect="non-scaling-stroke" x="736" y="502" width="12" height="12"/><g stroke="black" fill="black"><text x="752" y="502" dominant-baseline="hanging" stroke="none" vector-effect="non-scaling-stroke">Zig</text><g font-weight="normal" dominant-baseline="hanging" fill="none" stroke-linejoin="round" font-style="normal" text-anchor="start" stroke-width="2px" stroke-linecap="round" font-size="12px" font-family="sans-serif"><rect height="440" vector-effect="non-scaling-stroke" x="80" y="80" width="640"/></g><g font-style="normal" font-weight="normal" text-anchor="start" transform="translate(80 520 )scale(1 -1 )" stroke="black" fill="none" stroke-linejoin="round" font-size="12px" stroke-width="2px" font-family="sans-serif" dominant-baseline="hanging" stroke-linecap="round"><path vector-effect="non-scaling-stroke" d="M64,0 L64,-6 M8.533333e+01,0 L8.533333e+01,-6 M1.066667e+02,0 L1.066667e+02,-6 M128,0 L128,-6 M1.493333e+02,0 L1.493333e+02,-6 M1.706667e+02,0 L1.706667e+02,-6 M192,0 L192,-6 M2.133333e+02,0 L2.133333e+02,-6 M2.346667e+02,0 L2.346667e+02,-6 M256,0 L256,-6 M2.773333e+02,0 L2.773333e+02,-6 M2.986667e+02,0 L2.986667e+02,-6 M320,0 L320,-6 M3.413333e+02,0 L3.413333e+02,-6 M3.626667e+02,0 L3.626667e+02,-6 M384,0 L384,-6 M4.053333e+02,0 L4.053333e+02,-6 M4.266667e+02,0 L4.266667e+02,-6 M448,0 L448,-6 M4.693333e+02,0 L4.693333e+02,-6 M4.906667e+02,0 L4.906667e+02,-6 M512,0 L512,-6 M5.333333e+02,0 L5.333333e+02,-6 M5.546667e+02,0 L5.546667e+02,-6 M576,0 L576,-6 "/></g><g stroke="black" stroke-linecap="round" font-family="sans-serif" font-size="12px" text-anchor="middle" dominant-baseline="hanging" fill="black" stroke-width="2px" stroke-linejoin="round" font-style="normal" font-weight="normal" transform="translate(80 520 )scale(1 1 )"><text y="10" dominant-baseline="hanging" stroke="none" vector-effect="non-scaling-stroke" x="64">1</text><text stroke="none" vector-effect="non-scaling-stroke" x="8.533333e+01" y="10" dominant-baseline="hanging">2</text><text stroke="none" vector-effect="non-scaling-stroke" x="1.066667e+02" y="10" dominant-baseline="hanging">3</text><text y="10" dominant-baseline="hanging" stroke="none" vector-effect="non-scaling-stroke" x="128">4</text><text dominant-baseline="hanging" stroke="none" vector-effect="non-scaling-stroke" x="1.493333e+02" y="10">5</text><text stroke="none" vector-effect="non-scaling-stroke" x="1.706667e+02" y="10" dominant-baseline="hanging">6</text><text stroke="none" vector-effect="non-scaling-stroke" x="192" y="10" dominant-baseline="hanging">7</text><text y="10" dominant-baseline="hanging" stroke="none" vector-effect="non-scaling-stroke" x="2.133333e+02">8</text><text y="10" dominant-baseline="hanging" stroke="none" vector-effect="non-scaling-stroke" x="2.346667e+02">9</text><text stroke="none" vector-effect="non-scaling-stroke" x="256" y="10" dominant-baseline="hanging">10</text><text dominant-baseline="hanging" stroke="none" vector-effect="non-scaling-stroke" x="2.773333e+02" y="10">11</text><text dominant-baseline="hanging" stroke="none" vector-effect="non-scaling-stroke" x="2.986667e+02" y="10">12</text><text vector-effect="non-scaling-stroke" x="320" y="10" dominant-baseline="hanging" stroke="none">13</text><text dominant-baseline="hanging" stroke="none" vector-effect="non-scaling-stroke" x="3.413333e+02" y="10">14</text><text stroke="none" vector-effect="non-scaling-stroke" x="3.626667e+02" y="10" dominant-baseline="hanging">15</text><text y="10" dominant-baseline="hanging" stroke="none" vector-effect="non-scaling-stroke" x="384">16</text><text stroke="none" vector-effect="non-scaling-stroke" x="4.053333e+02" y="10" dominant-baseline="hanging">17</text><text vector-effect="non-scaling-stroke" x="4.266667e+02" y="10" dominant-baseline="hanging" stroke="none">18</text><text stroke="none" vector-effect="non-scaling-stroke" x="448" y="10" dominant-baseline="hanging">19</text><text stroke="none" vector-effect="non-scaling-stroke" x="4.693333e+02" y="10" dominant-baseline="hanging">20</text><text vector-effect="non-scaling-stroke" x="4.906667e+02" y="10" dominant-baseline="hanging" stroke="none">21</text><text y="10" dominant-baseline="hanging" stroke="none" vector-effect="non-scaling-stroke" x="512">22</text><text vector-effect="non-scaling-stroke" x="5.333333e+02" y="10" dominant-baseline="hanging" stroke="none">23</text><text x="5.546667e+02" y="10" dominant-baseline="hanging" stroke="none" vector-effect="non-scaling-stroke">24</text><text y="10" dominant-baseline="hanging" stroke="none" vector-effect="non-scaling-stroke" x="576">25</text></g><g font-size="12px" font-style="normal" font-weight="bold" dominant-baseline="baseline" stroke-linecap="round" stroke-linejoin="round" text-anchor="middle" transform="translate(80 520 )scale(1 1 )rotate(0 0 0 )" stroke="black" stroke-width="2px" fill="black" font-family="sans-serif"><text y="-6" dominant-baseline="baseline" stroke="none" vector-effect="non-scaling-stroke" x="320">Day</text></g><g stroke-linecap="round" stroke-linejoin="round" font-family="sans-serif" stroke="black" stroke-width="2px" font-style="normal" text-anchor="middle" dominant-baseline="baseline" font-size="12px" transform="translate(80 520 )scale(1 -1 )" fill="black" font-weight="bold"><path vector-effect="non-scaling-stroke" d="M0,44 L-6,44 M0,7.920000e+01 L-6,7.920000e+01 M0,1.144000e+02 L-6,1.144000e+02 M0,1.496000e+02 L-6,1.496000e+02 M0,1.848000e+02 L-6,1.848000e+02 M0,220 L-6,220 M0,2.552000e+02 L-6,2.552000e+02 M0,2.904000e+02 L-6,2.904000e+02 M0,3.256000e+02 L-6,3.256000e+02 M0,3.608000e+02 L-6,3.608000e+02 M0,396 L-6,396 "/></g><g fill="black" text-anchor="end" dominant-baseline="middle" stroke-linecap="round" stroke-linejoin="round" font-size="12px" stroke-width="2px" font-weight="normal" font-family="sans-serif" font-style="normal" transform="translate(80 520 )scale(1 1 )" stroke="black"><text dominant-baseline="middle" stroke="none" vector-effect="non-scaling-stroke" x="-10" y="-44">0s</text><text vector-effect="non-scaling-stroke" x="-10" y="-7.920000e+01" dominant-baseline="middle" stroke="none">200ms</text><text y="-1.144000e+02" dominant-baseline="middle" stroke="none" vector-effect="non-scaling-stroke" x="-10">400ms</text><text stroke="none" vector-effect="non-scaling-stroke" x="-10" y="-1.496000e+02" dominant-baseline="middle">600ms</text><text stroke="none" vector-effect="non-scaling-stroke" x="-10" y="-1.848000e+02" dominant-baseline="middle">800ms</text><text stroke="none" vector-effect="non-scaling-stroke" x="-10" y="-220" dominant-baseline="middle">1s</text><text x="-10" y="-2.552000e+02" dominant-baseline="middle" stroke="none" vector-effect="non-scaling-stroke">1.2s</text><text stroke="none" vector-effect="non-scaling-stroke" x="-10" y="-2.904000e+02" dominant-baseline="middle">1.4s</text><text x="-10" y="-3.256000e+02" dominant-baseline="middle" stroke="none" vector-effect="non-scaling-stroke">1.6s</text><text dominant-baseline="middle" stroke="none" vector-effect="non-scaling-stroke" x="-10" y="-3.608000e+02">1.8s</text><text stroke="none" vector-effect="non-scaling-stroke" x="-10" y="-396" dominant-baseline="middle">2s</text></g><g stroke="black" stroke-width="2px" stroke-linecap="round" stroke-linejoin="round" font-family="sans-serif" font-size="12px" font-weight="bold" transform="translate(80 520 )scale(1 1 )rotate(-90 0 0 )" dominant-baseline="hanging" font-style="normal" text-anchor="middle" fill="black"><text x="220" y="6" dominant-baseline="hanging" stroke="none" vector-effect="non-scaling-stroke">Runtime</text></g></g></g></g></g></g></svg>