<svg preserveAspectRatio="xMidYMid meet" xmlns="http://www.w3.org/2000/svg" width="800" height="600" viewbox="0 0 800 600"><defs><marker refY="5" markerUnits="userSpaceOnUse" markerWidth="2%" markerHeight="2%" id="circle" viewBox="0 0 10 10 " refX="5"><circle cx="5" cy="5" r="3" fill="none" stroke="black"/></marker><marker markerWidth="2%" markerHeight="2%" id="filled-circle" viewBox="0 0 10 10 " refX="5" refY="5" markerUnits="userSpaceOnUse"><circle stroke="none" cx="5" cy="5" r="3" fill="black"/></marker><marker refX="5" refY="5" markerUnits="userSpaceOnUse" markerWidth="2%" markerHeight="2%" id="square" viewBox="0 0 10 10 "><rect height="6" fill="none" stroke="black" x="2" y="2" width="6"/></marker><marker viewBox="0 0 10 10 " refX="5" refY="5" markerUnits="userSpaceOnUse" markerWidth="2%" markerHeight="2%" id="filled-square"><rect fill="black" stroke="none" x="2" y="2" width="6" height="6"/></marker></defs><g stroke-width="1px" stroke-linecap="round" stroke-linejoin="round" transform="translate(80 520 )scale(1 -1 )" fill="hsl(198, 47%, 65%)" stroke="hsl(198, 47%, 65%)"><rect width="3.413333e+00" height="4.407159e+01" vector-effect="non-scaling-stroke" x="5.546667e+01" y="0"/><rect vector-effect="non-scaling-stroke" x="7.680000e+01" y="0" width="3.413333e+00" height="4.413805e+01"/><rect x="9.813333e+01" y="0" width="3.413333e+00" height="4.409232e+01" vector-effect="non-scaling-stroke"/><rect x="1.194667e+02" y="0" width="3.413333e+00" height="4.422816e+01" vector-effect="non-scaling-stroke"/><rect y="0" width="3.413333e+00" height="4.419171e+01" vector-effect="non-scaling-stroke" x="1.408000e+02"/><rect width="3.413333e+00" height="4.464100e+01" vector-effect="non-scaling-stroke" x="1.621333e+02" y="0"/><rect vector-effect="non-scaling-stroke" x="1.834667e+02" y="0" width="3.413333e+00" height="4.425987e+01"/><rect width="3.413333e+00" height="4.416421e+01" vector-effect="non-scaling-stroke" x="2.048000e+02" y="0"/><rect vector-effect="non-scaling-stroke" x="2.261333e+02" y="0" width="3.413333e+00" height="4.405774e+01"/><rect y="0" width="3.413333e+00" height="4.400402e+01" vector-effect="non-scaling-stroke" x="2.474667e+02"/><rect y="0" width="3.413333e+00" height="6.216708e+01" vector-effect="non-scaling-stroke" x="2.688000e+02"/><rect x="2.901333e+02" y="0" width="3.413333e+00" height="4.402016e+01" vector-effect="non-scaling-stroke"/><rect y="0" width="3.413333e+00" height="4.402212e+01" vector-effect="non-scaling-stroke" x="3.114667e+02"/><rect y="0" width="3.413333e+00" height="4.505898e+01" vector-effect="non-scaling-stroke" x="3.328000e+02"/><rect y="0" width="3.413333e+00" height="1.870944e+02" vector-effect="non-scaling-stroke" x="3.541333e+02"/><rect y="0" width="3.413333e+00" height="4.417647e+01" vector-effect="non-scaling-stroke" x="3.754667e+02"/><rect width="3.413333e+00" height="9.117941e+01" vector-effect="non-scaling-stroke" x="3.968000e+02" y="0"/><rect y="0" width="3.413333e+00" height="4.419386e+01" vector-effect="non-scaling-stroke" x="4.181333e+02"/><rect x="4.394667e+02" y="0" width="3.413333e+00" height="4.535405e+01" vector-effect="non-scaling-stroke"/><rect x="4.608000e+02" y="0" width="3.413333e+00" height="4.542936e+01" vector-effect="non-scaling-stroke"/><rect x="4.821333e+02" y="0" width="3.413333e+00" height="4.425618e+01" vector-effect="non-scaling-stroke"/><rect vector-effect="non-scaling-stroke" x="5.034667e+02" y="0" width="3.413333e+00" height="7.575359e+01"/><rect width="3.413333e+00" height="3.203016e+02" vector-effect="non-scaling-stroke" x="5.248000e+02" y="0"/><rect x="5.461333e+02" y="0" width="3.413333e+00" height="2.490366e+03" vector-effect="non-scaling-stroke"/><rect height="5.292987e+01" vector-effect="non-scaling-stroke" x="5.674667e+02" y="0" width="3.413333e+00"/></g><g transform="translate(80 520 )scale(1 -1 )" fill="hsl(49, 88%, 65%)" stroke="hsl(49, 88%, 65%)" stroke-width="1px" stroke-linecap="round" stroke-linejoin="round"><rect vector-effect="non-scaling-stroke" x="5.888000e+01" y="0" width="3.413333e+00" height="4.777441e+01"/><rect height="4.414405e+01" vector-effect="non-scaling-stroke" x="8.021333e+01" y="0" width="3.413333e+00"/><rect x="1.015467e+02" y="0" width="3.413333e+00" height="4.400763e+01" vector-effect="non-scaling-stroke"/><rect vector-effect="non-scaling-stroke" x="1.228800e+02" y="0" width="3.413333e+00" height="4.410469e+01"/><rect height="4.402127e+01" vector-effect="non-scaling-stroke" x="1.442133e+02" y="0" width="3.413333e+00"/><rect height="4.430918e+01" vector-effect="non-scaling-stroke" x="1.655467e+02" y="0" width="3.413333e+00"/><rect y="0" width="3.413333e+00" height="4.434998e+01" vector-effect="non-scaling-stroke" x="1.868800e+02"/><rect height="4.443332e+01" vector-effect="non-scaling-stroke" x="2.082133e+02" y="0" width="3.413333e+00"/><rect height="4.594920e+01" vector-effect="non-scaling-stroke" x="2.295467e+02" y="0" width="3.413333e+00"/><rect y="0" width="3.413333e+00" height="4.401347e+01" vector-effect="non-scaling-stroke" x="2.508800e+02"/><rect width="3.413333e+00" height="5.796962e+01" vector-effect="non-scaling-stroke" x="2.722133e+02" y="0"/><rect vector-effect="non-scaling-stroke" x="2.935467e+02" y="0" width="3.413333e+00" height="4.403179e+01"/><rect vector-effect="non-scaling-stroke" x="3.148800e+02" y="0" width="3.413333e+00" height="4.400181e+01"/><rect width="3.413333e+00" height="4.685157e+01" vector-effect="non-scaling-stroke" x="3.362133e+02" y="0"/><rect y="0" width="3.413333e+00" height="1.618531e+02" vector-effect="non-scaling-stroke" x="3.575467e+02"/><rect width="3.413333e+00" height="4.438034e+01" vector-effect="non-scaling-stroke" x="3.788800e+02" y="0"/><rect vector-effect="non-scaling-stroke" x="4.002133e+02" y="0" width="3.413333e+00" height="1.908855e+02"/><rect y="0" width="3.413333e+00" height="4.759025e+01" vector-effect="non-scaling-stroke" x="4.215467e+02"/><rect vector-effect="non-scaling-stroke" x="4.428800e+02" y="0" width="3.413333e+00" height="4.891960e+01"/><rect height="4.613527e+01" vector-effect="non-scaling-stroke" x="4.642133e+02" y="0" width="3.413333e+00"/><rect y="0" width="3.413333e+00" height="4.465721e+01" vector-effect="non-scaling-stroke" x="4.855467e+02"/><rect y="0" width="3.413333e+00" height="6.037593e+01" vector-effect="non-scaling-stroke" x="5.068800e+02"/><rect x="5.282133e+02" y="0" width="3.413333e+00" height="3.166994e+02" vector-effect="non-scaling-stroke"/><rect vector-effect="non-scaling-stroke" x="5.495467e+02" y="0" width="3.413333e+00" height="7.984671e+01"/><rect width="3.413333e+00" height="5.252294e+01" vector-effect="non-scaling-stroke" x="5.708800e+02" y="0"/></g><g stroke-linejoin="round" transform="translate(80 520 )scale(1 -1 )" fill="hsl(260, 76%, 65%)" stroke="hsl(260, 76%, 65%)" stroke-width="1px" stroke-linecap="round"><rect width="3.413333e+00" height="4.409192e+01" vector-effect="non-scaling-stroke" x="6.229333e+01" y="0"/><rect vector-effect="non-scaling-stroke" x="8.362667e+01" y="0" width="3.413333e+00" height="4.412853e+01"/><rect width="3.413333e+00" height="4.402147e+01" vector-effect="non-scaling-stroke" x="1.049600e+02" y="0"/><rect vector-effect="non-scaling-stroke" x="1.262933e+02" y="0" width="3.413333e+00" height="4.677229e+01"/><rect width="3.413333e+00" height="4.405557e+01" vector-effect="non-scaling-stroke" x="1.476267e+02" y="0"/><rect vector-effect="non-scaling-stroke" x="1.689600e+02" y="0" width="3.413333e+00" height="4.430997e+01"/><rect vector-effect="non-scaling-stroke" x="1.902933e+02" y="0" width="3.413333e+00" height="4.443288e+01"/><rect x="2.116267e+02" y="0" width="3.413333e+00" height="4.420974e+01" vector-effect="non-scaling-stroke"/><rect vector-effect="non-scaling-stroke" x="2.329600e+02" y="0" width="3.413333e+00" height="4.428012e+01"/><rect height="4.400500e+01" vector-effect="non-scaling-stroke" x="2.542933e+02" y="0" width="3.413333e+00"/><rect height="5.042518e+01" vector-effect="non-scaling-stroke" x="2.756267e+02" y="0" width="3.413333e+00"/><rect y="0" width="3.413333e+00" height="4.401989e+01" vector-effect="non-scaling-stroke" x="2.969600e+02"/><rect width="3.413333e+00" height="4.400438e+01" vector-effect="non-scaling-stroke" x="3.182933e+02" y="0"/><rect height="4.612829e+01" vector-effect="non-scaling-stroke" x="3.396267e+02" y="0" width="3.413333e+00"/><rect width="3.413333e+00" height="1.912625e+02" vector-effect="non-scaling-stroke" x="3.609600e+02" y="0"/><rect x="3.822933e+02" y="0" width="3.413333e+00" height="4.427698e+01" vector-effect="non-scaling-stroke"/><rect vector-effect="non-scaling-stroke" x="4.036267e+02" y="0" width="3.413333e+00" height="6.392483e+01"/><rect height="4.421189e+01" vector-effect="non-scaling-stroke" x="4.249600e+02" y="0" width="3.413333e+00"/><rect x="4.462933e+02" y="0" width="3.413333e+00" height="8.137639e+01" vector-effect="non-scaling-stroke"/><rect width="3.413333e+00" height="4.495803e+01" vector-effect="non-scaling-stroke" x="4.676267e+02" y="0"/><rect y="0" width="3.413333e+00" height="4.440513e+01" vector-effect="non-scaling-stroke" x="4.889600e+02"/><rect height="1.009267e+02" vector-effect="non-scaling-stroke" x="5.102933e+02" y="0" width="3.413333e+00"/><rect x="5.316267e+02" y="0" width="3.413333e+00" height="2.374575e+02" vector-effect="non-scaling-stroke"/><rect height="7.586216e+01" vector-effect="non-scaling-stroke" x="5.529600e+02" y="0" width="3.413333e+00"/><rect width="3.413333e+00" height="5.256654e+01" vector-effect="non-scaling-stroke" x="5.742933e+02" y="0"/></g><g stroke-linecap="round" stroke-linejoin="round" transform="translate(80 520 )scale(1 -1 )" fill="hsl(111, 64%, 65%)" stroke="hsl(111, 64%, 65%)" stroke-width="1px"><rect vector-effect="non-scaling-stroke" x="6.570667e+01" y="0" width="3.413333e+00" height="4.404408e+01"/><rect vector-effect="non-scaling-stroke" x="8.704000e+01" y="0" width="3.413333e+00" height="4.401296e+01"/><rect height="4.400105e+01" vector-effect="non-scaling-stroke" x="1.083733e+02" y="0" width="3.413333e+00"/><rect vector-effect="non-scaling-stroke" x="1.297067e+02" y="0" width="3.413333e+00" height="4.401512e+01"/><rect vector-effect="non-scaling-stroke" x="1.510400e+02" y="0" width="3.413333e+00" height="4.401749e+01"/><rect width="3.413333e+00" height="4.400499e+01" vector-effect="non-scaling-stroke" x="1.723733e+02" y="0"/><rect vector-effect="non-scaling-stroke" x="1.937067e+02" y="0" width="3.413333e+00" height="4.407633e+01"/><rect width="3.413333e+00" height="4.401654e+01" vector-effect="non-scaling-stroke" x="2.150400e+02" y="0"/><rect y="0" width="3.413333e+00" height="4.403591e+01" vector-effect="non-scaling-stroke" x="2.363733e+02"/><rect vector-effect="non-scaling-stroke" x="2.577067e+02" y="0" width="3.413333e+00" height="4.400018e+01"/><rect vector-effect="non-scaling-stroke" x="2.790400e+02" y="0" width="3.413333e+00" height="4.917717e+01"/><rect x="3.003733e+02" y="0" width="3.413333e+00" height="4.400134e+01" vector-effect="non-scaling-stroke"/><rect vector-effect="non-scaling-stroke" x="3.217067e+02" y="0" width="3.413333e+00" height="4.400024e+01"/><rect width="3.413333e+00" height="4.519019e+01" vector-effect="non-scaling-stroke" x="3.430400e+02" y="0"/><rect y="0" width="3.413333e+00" height="1.608922e+02" vector-effect="non-scaling-stroke" x="3.643733e+02"/><rect height="4.408043e+01" vector-effect="non-scaling-stroke" x="3.857067e+02" y="0" width="3.413333e+00"/><rect vector-effect="non-scaling-stroke" x="4.070400e+02" y="0" width="3.413333e+00" height="5.688816e+01"/><rect y="0" width="3.413333e+00" height="4.404863e+01" vector-effect="non-scaling-stroke" x="4.283733e+02"/><rect vector-effect="non-scaling-stroke" x="4.497067e+02" y="0" width="3.413333e+00" height="5.401265e+01"/><rect width="3.413333e+00" height="4.406757e+01" vector-effect="non-scaling-stroke" x="4.710400e+02" y="0"/><rect vector-effect="non-scaling-stroke" x="4.923733e+02" y="0" width="3.413333e+00" height="4.407444e+01"/><rect height="5.388346e+01" vector-effect="non-scaling-stroke" x="5.137067e+02" y="0" width="3.413333e+00"/><rect y="0" width="3.413333e+00" height="1.244603e+02" vector-effect="non-scaling-stroke" x="5.350400e+02"/><rect y="0" width="3.413333e+00" height="6.590286e+01" vector-effect="non-scaling-stroke" x="5.563733e+02"/><rect x="5.777067e+02" y="0" width="3.413333e+00" height="5.171795e+01" vector-effect="non-scaling-stroke"/></g><g transform="translate(80 520 )scale(1 -1 )" fill="hsl(322, 52%, 65%)" stroke="hsl(322, 52%, 65%)" stroke-width="1px" stroke-linecap="round" stroke-linejoin="round"><rect x="6.912000e+01" y="0" width="3.413333e+00" height="4.410322e+01" vector-effect="non-scaling-stroke"/><rect y="0" width="3.413333e+00" height="4.403146e+01" vector-effect="non-scaling-stroke" x="9.045333e+01"/><rect y="0" width="3.413333e+00" height="4.400480e+01" vector-effect="non-scaling-stroke" x="1.117867e+02"/><rect height="4.453592e+01" vector-effect="non-scaling-stroke" x="1.331200e+02" y="0" width="3.413333e+00"/><rect vector-effect="non-scaling-stroke" x="1.544533e+02" y="0" width="3.413333e+00" height="4.404594e+01"/><rect vector-effect="non-scaling-stroke" x="1.757867e+02" y="0" width="3.413333e+00" height="4.638646e+01"/><rect vector-effect="non-scaling-stroke" x="1.971200e+02" y="0" width="3.413333e+00" height="4.421101e+01"/><rect vector-effect="non-scaling-stroke" x="2.184533e+02" y="0" width="3.413333e+00" height="4.534272e+01"/><rect height="4.404507e+01" vector-effect="non-scaling-stroke" x="2.397867e+02" y="0" width="3.413333e+00"/><rect vector-effect="non-scaling-stroke" x="2.611200e+02" y="0" width="3.413333e+00" height="4.400954e+01"/><rect height="5.083354e+01" vector-effect="non-scaling-stroke" x="2.824533e+02" y="0" width="3.413333e+00"/><rect vector-effect="non-scaling-stroke" x="3.037867e+02" y="0" width="3.413333e+00" height="4.441371e+01"/><rect vector-effect="non-scaling-stroke" x="3.251200e+02" y="0" width="3.413333e+00" height="4.400324e+01"/><rect vector-effect="non-scaling-stroke" x="3.464533e+02" y="0" width="3.413333e+00" height="4.568693e+01"/><rect vector-effect="non-scaling-stroke" x="3.677867e+02" y="0" width="3.413333e+00" height="1.996402e+02"/><rect vector-effect="non-scaling-stroke" x="3.891200e+02" y="0" width="3.413333e+00" height="4.434736e+01"/><rect x="4.104533e+02" y="0" width="3.413333e+00" height="2.623136e+04" vector-effect="non-scaling-stroke"/><rect vector-effect="non-scaling-stroke" x="4.317867e+02" y="0" width="3.413333e+00" height="4.618984e+01"/><rect x="4.531200e+02" y="0" width="3.413333e+00" height="4.833531e+01" vector-effect="non-scaling-stroke"/><rect vector-effect="non-scaling-stroke" x="4.744533e+02" y="0" width="3.413333e+00" height="4.714850e+01"/><rect height="4.476307e+01" vector-effect="non-scaling-stroke" x="4.957867e+02" y="0" width="3.413333e+00"/><rect vector-effect="non-scaling-stroke" x="5.171200e+02" y="0" width="3.413333e+00" height="7.956725e+01"/><rect vector-effect="non-scaling-stroke" x="5.384533e+02" y="0" width="3.413333e+00" height="1.568281e+03"/><rect width="3.413333e+00" height="6.627102e+01" vector-effect="non-scaling-stroke" x="5.597867e+02" y="0"/><rect x="5.811200e+02" y="0" width="3.413333e+00" height="5.167605e+01" vector-effect="non-scaling-stroke"/></g><g font-weight="normal" dominant-baseline="hanging" text-anchor="start" stroke="hsl(198, 47%, 65%)" font-family="sans-serif" stroke-width="1px" font-style="normal" fill="hsl(198, 47%, 65%)" stroke-linecap="round" stroke-linejoin="round" font-size="12px"><rect x="736" y="430" width="12" height="12" vector-effect="non-scaling-stroke"/><g fill="black" stroke="black"><text vector-effect="non-scaling-stroke" x="752" y="430" dominant-baseline="hanging" stroke="none">Crystal</text></g><g stroke-linejoin="round" font-family="sans-serif" font-size="12px" text-anchor="start" fill="hsl(49, 88%, 65%)" stroke="hsl(49, 88%, 65%)" font-weight="normal" dominant-baseline="hanging" stroke-width="1px" font-style="normal" stroke-linecap="round"><rect y="448" width="12" height="12" vector-effect="non-scaling-stroke" x="736"/><g fill="black" stroke="black"><text stroke="none" vector-effect="non-scaling-stroke" x="752" y="448" dominant-baseline="hanging">Golang</text></g><g text-anchor="start" stroke-width="1px" font-style="normal" stroke-linecap="round" font-size="12px" stroke-linejoin="round" font-family="sans-serif" font-weight="normal" dominant-baseline="hanging" fill="hsl(260, 76%, 65%)" stroke="hsl(260, 76%, 65%)"><rect vector-effect="non-scaling-stroke" x="736" y="466" width="12" height="12"/><g fill="black" stroke="black"><text vector-effect="non-scaling-stroke" x="752" y="466" dominant-baseline="hanging" stroke="none">Nim</text></g><g font-size="12px" stroke="hsl(111, 64%, 65%)" stroke-linejoin="round" font-family="sans-serif" dominant-baseline="hanging" fill="hsl(111, 64%, 65%)" stroke-linecap="round" text-anchor="start" stroke-width="1px" font-style="normal" font-weight="normal"><rect width="12" height="12" vector-effect="non-scaling-stroke" x="736" y="484"/><g fill="black" stroke="black"><text stroke="none" vector-effect="non-scaling-stroke" x="752" y="484" dominant-baseline="hanging">Rust</text></g><g stroke-linecap="round" font-family="sans-serif" font-size="12px" stroke="hsl(322, 52%, 65%)" stroke-width="1px" dominant-baseline="hanging" font-style="normal" stroke-linejoin="round" text-anchor="start" fill="hsl(322, 52%, 65%)" font-weight="normal"><rect x="736" y="502" width="12" height="12" vector-effect="non-scaling-stroke"/><g fill="black" stroke="black"><text x="752" y="502" dominant-baseline="hanging" stroke="none" vector-effect="non-scaling-stroke">Zig</text><g text-anchor="start" stroke-linejoin="round" font-family="sans-serif" fill="none" stroke-linecap="round" font-size="12px" font-weight="normal" dominant-baseline="hanging" stroke-width="2px" font-style="normal"><rect vector-effect="non-scaling-stroke" x="80" y="80" width="640" height="440"/></g><g text-anchor="start" font-weight="normal" dominant-baseline="hanging" transform="translate(80 520 )scale(1 -1 )" stroke-linecap="round" stroke-linejoin="round" font-family="sans-serif" stroke-width="2px" font-style="normal" fill="none" stroke="black" font-size="12px"><path vector-effect="non-scaling-stroke" d="M64,0 L64,-6 M8.533333e+01,0 L8.533333e+01,-6 M1.066667e+02,0 L1.066667e+02,-6 M128,0 L128,-6 M1.493333e+02,0 L1.493333e+02,-6 M1.706667e+02,0 L1.706667e+02,-6 M192,0 L192,-6 M2.133333e+02,0 L2.133333e+02,-6 M2.346667e+02,0 L2.346667e+02,-6 M256,0 L256,-6 M2.773333e+02,0 L2.773333e+02,-6 M2.986667e+02,0 L2.986667e+02,-6 M320,0 L320,-6 M3.413333e+02,0 L3.413333e+02,-6 M3.626667e+02,0 L3.626667e+02,-6 M384,0 L384,-6 M4.053333e+02,0 L4.053333e+02,-6 M4.266667e+02,0 L4.266667e+02,-6 M448,0 L448,-6 M4.693333e+02,0 L4.693333e+02,-6 M4.906667e+02,0 L4.906667e+02,-6 M512,0 L512,-6 M5.333333e+02,0 L5.333333e+02,-6 M5.546667e+02,0 L5.546667e+02,-6 M576,0 L576,-6 "/></g><g text-anchor="middle" transform="translate(80 520 )scale(1 1 )" font-style="normal" font-weight="normal" dominant-baseline="hanging" stroke="black" stroke-linecap="round" stroke-linejoin="round" stroke-width="2px" font-family="sans-serif" font-size="12px" fill="black"><text dominant-baseline="hanging" stroke="none" vector-effect="non-scaling-stroke" x="64" y="10">1</text><text y="10" dominant-baseline="hanging" stroke="none" vector-effect="non-scaling-stroke" x="8.533333e+01">2</text><text stroke="none" vector-effect="non-scaling-stroke" x="1.066667e+02" y="10" dominant-baseline="hanging">3</text><text x="128" y="10" dominant-baseline="hanging" stroke="none" vector-effect="non-scaling-stroke">4</text><text dominant-baseline="hanging" stroke="none" vector-effect="non-scaling-stroke" x="1.493333e+02" y="10">5</text><text stroke="none" vector-effect="non-scaling-stroke" x="1.706667e+02" y="10" dominant-baseline="hanging">6</text><text stroke="none" vector-effect="non-scaling-stroke" x="192" y="10" dominant-baseline="hanging">7</text><text y="10" dominant-baseline="hanging" stroke="none" vector-effect="non-scaling-stroke" x="2.133333e+02">8</text><text vector-effect="non-scaling-stroke" x="2.346667e+02" y="10" dominant-baseline="hanging" stroke="none">9</text><text x="256" y="10" dominant-baseline="hanging" stroke="none" vector-effect="non-scaling-stroke">10</text><text y="10" dominant-baseline="hanging" stroke="none" vector-effect="non-scaling-stroke" x="2.773333e+02">11</text><text y="10" dominant-baseline="hanging" stroke="none" vector-effect="non-scaling-stroke" x="2.986667e+02">12</text><text dominant-baseline="hanging" stroke="none" vector-effect="non-scaling-stroke" x="320" y="10">13</text><text x="3.413333e+02" y="10" dominant-baseline="hanging" stroke="none" vector-effect="non-scaling-stroke">14</text><text y="10" dominant-baseline="hanging" stroke="none" vector-effect="non-scaling-stroke" x="3.626667e+02">15</text><text dominant-baseline="hanging" stroke="none" vector-effect="non-scaling-stroke" x="384" y="10">16</text><text stroke="none" vector-effect="non-scaling-stroke" x="4.053333e+02" y="10" dominant-baseline="hanging">17</text><text stroke="none" vector-effect="non-scaling-stroke" x="4.266667e+02" y="10" dominant-baseline="hanging">18</text><text dominant-baseline="hanging" stroke="none" vector-effect="non-scaling-stroke" x="448" y="10">19</text><text stroke="none" vector-effect="non-scaling-stroke" x="4.693333e+02" y="10" dominant-baseline="hanging">20</text><text stroke="none" vector-effect="non-scaling-stroke" x="4.906667e+02" y="10" dominant-baseline="hanging">21</text><text y="10" dominant-baseline="hanging" stroke="none" vector-effect="non-scaling-stroke" x="512">22</text><text x="5.333333e+02" y="10" dominant-baseline="hanging" stroke="none" vector-effect="non-scaling-stroke">23</text><text dominant-baseline="hanging" stroke="none" vector-effect="non-scaling-stroke" x="5.546667e+02" y="10">24</text><text x="576" y="10" dominant-baseline="hanging" stroke="none" vector-effect="non-scaling-stroke">25</text></g><g stroke-linejoin="round" font-family="sans-serif" text-anchor="middle" font-style="normal" stroke-linecap="round" stroke="black" font-size="12px" stroke-width="2px" font-weight="bold" dominant-baseline="baseline" transform="translate(80 520 )scale(1 1 )rotate(0 0 0 )" fill="black"><text y="-6" dominant-baseline="baseline" stroke="none" vector-effect="non-scaling-stroke" x="320">Day</text></g><g font-family="sans-serif" font-size="12px" stroke-width="2px" font-style="normal" font-weight="bold" stroke="black" stroke-linecap="round" text-anchor="middle" dominant-baseline="baseline" transform="translate(80 520 )scale(1 -1 )" fill="black" stroke-linejoin="round"><path vector-effect="non-scaling-stroke" d="M0,44 L-6,44 M0,7.920000e+01 L-6,7.920000e+01 M0,1.144000e+02 L-6,1.144000e+02 M0,1.496000e+02 L-6,1.496000e+02 M0,1.848000e+02 L-6,1.848000e+02 M0,220 L-6,220 M0,2.552000e+02 L-6,2.552000e+02 M0,2.904000e+02 L-6,2.904000e+02 M0,3.256000e+02 L-6,3.256000e+02 M0,3.608000e+02 L-6,3.608000e+02 M0,396 L-6,396 "/></g><g stroke-linecap="round" fill="black" font-weight="normal" stroke-width="2px" text-anchor="end" font-style="normal" dominant-baseline="middle" transform="translate(80 520 )scale(1 1 )" stroke="black" stroke-linejoin="round" font-family="sans-serif" font-size="12px"><text y="-44" dominant-baseline="middle" stroke="none" vector-effect="non-scaling-stroke" x="-10">0s</text><text x="-10" y="-7.920000e+01" dominant-baseline="middle" stroke="none" vector-effect="non-scaling-stroke">200ms</text><text dominant-baseline="middle" stroke="none" vector-effect="non-scaling-stroke" x="-10" y="-1.144000e+02">400ms</text><text stroke="none" vector-effect="non-scaling-stroke" x="-10" y="-1.496000e+02" dominant-baseline="middle">600ms</text><text x="-10" y="-1.848000e+02" dominant-baseline="middle" stroke="none" vector-effect="non-scaling-stroke">800ms</text><text x="-10" y="-220" dominant-baseline="middle" stroke="none" vector-effect="non-scaling-stroke">1s</text><text y="-2.552000e+02" dominant-baseline="middle" stroke="none" vector-effect="non-scaling-stroke" x="-10">1.2s</text><text stroke="none" vector-effect="non-scaling-stroke" x="-10" y="-2.904000e+02" dominant-baseline="middle">1.4s</text><text stroke="none" vector-effect="non-scaling-stroke" x="-10" y="-3.256000e+02" dominant-baseline="middle">1.6s</text><text vector-effect="non-scaling-stroke" x="-10" y="-3.608000e+02" dominant-baseline="middle" stroke="none">1.8s</text><text stroke="none" vector-effect="non-scaling-stroke" x="-10" y="-396" dominant-baseline="middle">2s</text></g><g font-weight="bold" stroke-linecap="round" stroke-linejoin="round" font-size="12px" text-anchor="middle" fill="black" stroke="black" dominant-baseline="hanging" transform="translate(80 520 )scale(1 1 )rotate(-90 0 0 )" stroke-width="2px" font-style="normal" font-family="sans-serif"><text dominant-baseline="hanging" stroke="none" vector-effect="non-scaling-stroke" x="220" y="6">Runtime</text></g></g></g></g></g></g></g></svg>