<svg preserveAspectRatio="xMidYMid meet" xmlns="http://www.w3.org/2000/svg" width="800" height="600" viewbox="0 0 800 600"><defs><marker viewBox="0 0 10 10 " refX="5" refY="5" markerUnits="userSpaceOnUse" markerWidth="2%" markerHeight="2%" id="circle"><circle cx="5" cy="5" r="3" fill="none" stroke="black"/></marker><marker viewBox="0 0 10 10 " refX="5" refY="5" markerUnits="userSpaceOnUse" markerWidth="2%" markerHeight="2%" id="filled-circle"><circle stroke="none" cx="5" cy="5" r="3" fill="black"/></marker><marker viewBox="0 0 10 10 " refX="5" refY="5" markerUnits="userSpaceOnUse" markerWidth="2%" markerHeight="2%" id="square"><rect fill="none" stroke="black" x="2" y="2" width="6" height="6"/></marker><marker refX="5" refY="5" markerUnits="userSpaceOnUse" markerWidth="2%" markerHeight="2%" id="filled-square" viewBox="0 0 10 10 "><rect height="6" fill="black" stroke="none" x="2" y="2" width="6"/></marker></defs><g fill="hsl(198, 47%, 65%)" stroke="hsl(198, 47%, 65%)" stroke-width="1px" stroke-linecap="round" stroke-linejoin="round" transform="translate(80 520 )scale(1 -1 )"><rect vector-effect="non-scaling-stroke" x="5.430303e+01" y="0" width="6.464646e+00" height="4.415896e+01"/><rect vector-effect="non-scaling-stroke" x="7.563636e+01" y="0" width="6.464646e+00" height="4.416006e+01"/><rect vector-effect="non-scaling-stroke" x="9.696970e+01" y="0" width="6.464646e+00" height="4.409794e+01"/><rect width="6.464646e+00" height="4.491539e+01" vector-effect="non-scaling-stroke" x="1.183030e+02" y="0"/><rect x="1.396364e+02" y="0" width="6.464646e+00" height="4.410272e+01" vector-effect="non-scaling-stroke"/><rect height="2.855407e+02" vector-effect="non-scaling-stroke" x="1.609697e+02" y="0" width="6.464646e+00"/><rect vector-effect="non-scaling-stroke" x="1.823030e+02" y="0" width="6.464646e+00" height="1.006253e+02"/><rect height="4.402343e+01" vector-effect="non-scaling-stroke" x="2.036364e+02" y="0" width="6.464646e+00"/><rect width="6.464646e+00" height="4.555588e+01" vector-effect="non-scaling-stroke" x="2.249697e+02" y="0"/><rect vector-effect="non-scaling-stroke" x="2.463030e+02" y="0" width="6.464646e+00" height="4.438401e+01"/><rect vector-effect="non-scaling-stroke" x="2.676364e+02" y="0" width="6.464646e+00" height="4.865794e+01"/><rect vector-effect="non-scaling-stroke" x="2.889697e+02" y="0" width="6.464646e+00" height="4.599088e+01"/><rect width="6.464646e+00" height="4.402358e+01" vector-effect="non-scaling-stroke" x="3.103030e+02" y="0"/><rect vector-effect="non-scaling-stroke" x="3.316364e+02" y="0" width="6.464646e+00" height="6.291811e+01"/><rect width="6.464646e+00" height="4.622305e+01" vector-effect="non-scaling-stroke" x="3.529697e+02" y="0"/><rect vector-effect="non-scaling-stroke" x="3.743030e+02" y="0" width="6.464646e+00" height="9.076192e+01"/><rect height="4.406577e+01" vector-effect="non-scaling-stroke" x="3.956364e+02" y="0" width="6.464646e+00"/><rect vector-effect="non-scaling-stroke" x="4.169697e+02" y="0" width="6.464646e+00" height="4.469781e+01"/><rect width="6.464646e+00" height="4.871092e+01" vector-effect="non-scaling-stroke" x="4.383030e+02" y="0"/><rect x="4.596364e+02" y="0" width="6.464646e+00" height="1.113216e+02" vector-effect="non-scaling-stroke"/><rect vector-effect="non-scaling-stroke" x="4.809697e+02" y="0" width="6.464646e+00" height="4.400020e+01"/><rect y="0" width="6.464646e+00" height="2.025328e+02" vector-effect="non-scaling-stroke" x="5.023030e+02"/></g><g stroke-linecap="round" stroke-linejoin="round" transform="translate(80 520 )scale(1 -1 )" fill="hsl(49, 88%, 65%)" stroke="hsl(49, 88%, 65%)" stroke-width="1px"><rect x="6.076768e+01" y="0" width="6.464646e+00" height="4.406233e+01" vector-effect="non-scaling-stroke"/><rect width="6.464646e+00" height="4.414490e+01" vector-effect="non-scaling-stroke" x="8.210101e+01" y="0"/><rect y="0" width="6.464646e+00" height="4.402982e+01" vector-effect="non-scaling-stroke" x="1.034343e+02"/><rect vector-effect="non-scaling-stroke" x="1.247677e+02" y="0" width="6.464646e+00" height="4.552790e+01"/><rect width="6.464646e+00" height="4.405790e+01" vector-effect="non-scaling-stroke" x="1.461010e+02" y="0"/><rect width="6.464646e+00" height="2.274889e+02" vector-effect="non-scaling-stroke" x="1.674343e+02" y="0"/><rect vector-effect="non-scaling-stroke" x="1.887677e+02" y="0" width="6.464646e+00" height="1.012980e+02"/><rect height="4.401115e+01" vector-effect="non-scaling-stroke" x="2.101010e+02" y="0" width="6.464646e+00"/><rect y="0" width="6.464646e+00" height="4.599524e+01" vector-effect="non-scaling-stroke" x="2.314343e+02"/><rect x="2.527677e+02" y="0" width="6.464646e+00" height="4.412551e+01" vector-effect="non-scaling-stroke"/><rect vector-effect="non-scaling-stroke" x="2.741010e+02" y="0" width="6.464646e+00" height="4.755798e+01"/><rect vector-effect="non-scaling-stroke" x="2.954343e+02" y="0" width="6.464646e+00" height="4.551771e+01"/><rect x="3.167677e+02" y="0" width="6.464646e+00" height="4.401899e+01" vector-effect="non-scaling-stroke"/><rect width="6.464646e+00" height="5.680486e+01" vector-effect="non-scaling-stroke" x="3.381010e+02" y="0"/><rect height="5.038001e+01" vector-effect="non-scaling-stroke" x="3.594343e+02" y="0" width="6.464646e+00"/><rect width="6.464646e+00" height="6.314708e+01" vector-effect="non-scaling-stroke" x="3.807677e+02" y="0"/><rect height="4.459762e+01" vector-effect="non-scaling-stroke" x="4.021010e+02" y="0" width="6.464646e+00"/><rect x="4.234343e+02" y="0" width="6.464646e+00" height="4.441215e+01" vector-effect="non-scaling-stroke"/><rect y="0" width="6.464646e+00" height="5.043170e+01" vector-effect="non-scaling-stroke" x="4.447677e+02"/><rect x="4.661010e+02" y="0" width="6.464646e+00" height="1.307322e+02" vector-effect="non-scaling-stroke"/><rect y="0" width="6.464646e+00" height="4.400010e+01" vector-effect="non-scaling-stroke" x="4.874343e+02"/><rect width="6.464646e+00" height="396" vector-effect="non-scaling-stroke" x="5.087677e+02" y="0"/></g><g transform="translate(80 520 )scale(1 -1 )" fill="hsl(260, 76%, 65%)" stroke="hsl(260, 76%, 65%)" stroke-width="1px" stroke-linecap="round" stroke-linejoin="round"><rect x="6.723232e+01" y="0" width="6.464646e+00" height="4.410647e+01" vector-effect="non-scaling-stroke"/><rect y="0" width="6.464646e+00" height="4.407947e+01" vector-effect="non-scaling-stroke" x="8.856566e+01"/><rect vector-effect="non-scaling-stroke" x="1.098990e+02" y="0" width="6.464646e+00" height="4.408071e+01"/></g><g stroke="hsl(198, 47%, 65%)" font-weight="normal" text-anchor="start" stroke-linejoin="round" font-size="12px" fill="hsl(198, 47%, 65%)" stroke-linecap="round" font-family="sans-serif" dominant-baseline="hanging" stroke-width="1px" font-style="normal"><rect height="12" vector-effect="non-scaling-stroke" x="736" y="466" width="12"/><g stroke="black" fill="black"><text x="752" y="466" dominant-baseline="hanging" stroke="none" vector-effect="non-scaling-stroke">Golang</text></g><g stroke-width="1px" fill="hsl(49, 88%, 65%)" stroke-linecap="round" font-family="sans-serif" font-weight="normal" stroke-linejoin="round" font-size="12px" font-style="normal" stroke="hsl(49, 88%, 65%)" text-anchor="start" dominant-baseline="hanging"><rect x="736" y="484" width="12" height="12" vector-effect="non-scaling-stroke"/><g fill="black" stroke="black"><text dominant-baseline="hanging" stroke="none" vector-effect="non-scaling-stroke" x="752" y="484">Rust</text></g><g stroke-linecap="round" font-family="sans-serif" stroke-width="1px" font-size="12px" dominant-baseline="hanging" text-anchor="start" fill="hsl(260, 76%, 65%)" stroke="hsl(260, 76%, 65%)" stroke-linejoin="round" font-style="normal" font-weight="normal"><rect y="502" width="12" height="12" vector-effect="non-scaling-stroke" x="736"/><g fill="black" stroke="black"><text y="502" dominant-baseline="hanging" stroke="none" vector-effect="non-scaling-stroke" x="752">Zig</text><g stroke-linecap="round" fill="none" font-style="normal" stroke-linejoin="round" font-size="12px" text-anchor="start" dominant-baseline="hanging" font-weight="normal" stroke-width="2px" font-family="sans-serif"><rect y="80" width="640" height="440" vector-effect="non-scaling-stroke" x="80"/></g><g fill="none" stroke-linecap="round" font-size="12px" dominant-baseline="hanging" transform="translate(80 520 )scale(1 -1 )" font-family="sans-serif" font-weight="normal" text-anchor="start" stroke="black" font-style="normal" stroke-width="2px" stroke-linejoin="round"><path vector-effect="non-scaling-stroke" d="M64,0 L64,-6 M8.533333e+01,0 L8.533333e+01,-6 M1.066667e+02,0 L1.066667e+02,-6 M128,0 L128,-6 M1.493333e+02,0 L1.493333e+02,-6 M1.706667e+02,0 L1.706667e+02,-6 M192,0 L192,-6 M2.133333e+02,0 L2.133333e+02,-6 M2.346667e+02,0 L2.346667e+02,-6 M256,0 L256,-6 M2.773333e+02,0 L2.773333e+02,-6 M2.986667e+02,0 L2.986667e+02,-6 M320,0 L320,-6 M3.413333e+02,0 L3.413333e+02,-6 M3.626667e+02,0 L3.626667e+02,-6 M384,0 L384,-6 M4.053333e+02,0 L4.053333e+02,-6 M4.266667e+02,0 L4.266667e+02,-6 M448,0 L448,-6 M4.693333e+02,0 L4.693333e+02,-6 M4.906667e+02,0 L4.906667e+02,-6 M512,0 L512,-6 "/></g><g fill="black" stroke="black" font-family="sans-serif" stroke-linejoin="round" font-size="12px" font-style="normal" transform="translate(80 520 )scale(1 1 )" stroke-linecap="round" font-weight="normal" text-anchor="middle" dominant-baseline="hanging" stroke-width="2px"><text dominant-baseline="hanging" stroke="none" vector-effect="non-scaling-stroke" x="64" y="10">1</text><text stroke="none" vector-effect="non-scaling-stroke" x="8.533333e+01" y="10" dominant-baseline="hanging">2</text><text dominant-baseline="hanging" stroke="none" vector-effect="non-scaling-stroke" x="1.066667e+02" y="10">3</text><text stroke="none" vector-effect="non-scaling-stroke" x="128" y="10" dominant-baseline="hanging">4</text><text vector-effect="non-scaling-stroke" x="1.493333e+02" y="10" dominant-baseline="hanging" stroke="none">5</text><text dominant-baseline="hanging" stroke="none" vector-effect="non-scaling-stroke" x="1.706667e+02" y="10">6</text><text y="10" dominant-baseline="hanging" stroke="none" vector-effect="non-scaling-stroke" x="192">7</text><text y="10" dominant-baseline="hanging" stroke="none" vector-effect="non-scaling-stroke" x="2.133333e+02">8</text><text vector-effect="non-scaling-stroke" x="2.346667e+02" y="10" dominant-baseline="hanging" stroke="none">9</text><text dominant-baseline="hanging" stroke="none" vector-effect="non-scaling-stroke" x="256" y="10">10</text><text stroke="none" vector-effect="non-scaling-stroke" x="2.773333e+02" y="10" dominant-baseline="hanging">11</text><text vector-effect="non-scaling-stroke" x="2.986667e+02" y="10" dominant-baseline="hanging" stroke="none">12</text><text stroke="none" vector-effect="non-scaling-stroke" x="320" y="10" dominant-baseline="hanging">13</text><text dominant-baseline="hanging" stroke="none" vector-effect="non-scaling-stroke" x="3.413333e+02" y="10">14</text><text x="3.626667e+02" y="10" dominant-baseline="hanging" stroke="none" vector-effect="non-scaling-stroke">15</text><text dominant-baseline="hanging" stroke="none" vector-effect="non-scaling-stroke" x="384" y="10">16</text><text stroke="none" vector-effect="non-scaling-stroke" x="4.053333e+02" y="10" dominant-baseline="hanging">17</text><text dominant-baseline="hanging" stroke="none" vector-effect="non-scaling-stroke" x="4.266667e+02" y="10">18</text><text dominant-baseline="hanging" stroke="none" vector-effect="non-scaling-stroke" x="448" y="10">19</text><text y="10" dominant-baseline="hanging" stroke="none" vector-effect="non-scaling-stroke" x="4.693333e+02">20</text><text y="10" dominant-baseline="hanging" stroke="none" vector-effect="non-scaling-stroke" x="4.906667e+02">21</text><text dominant-baseline="hanging" stroke="none" vector-effect="non-scaling-stroke" x="512" y="10">22</text></g><g font-family="sans-serif" text-anchor="middle" dominant-baseline="baseline" transform="translate(80 520 )scale(1 1 )rotate(0 0 0 )" stroke-width="2px" stroke="black" stroke-linecap="round" font-weight="bold" fill="black" stroke-linejoin="round" font-size="12px" font-style="normal"><text x="320" y="-6" dominant-baseline="baseline" stroke="none" vector-effect="non-scaling-stroke">Day</text></g><g font-size="12px" stroke-linecap="round" font-weight="bold" dominant-baseline="baseline" fill="black" stroke="black" font-style="normal" stroke-width="2px" stroke-linejoin="round" font-family="sans-serif" text-anchor="middle" transform="translate(80 520 )scale(1 -1 )"><path vector-effect="non-scaling-stroke" d="M0,44 L-6,44 M0,1.113557e+02 L-6,1.113557e+02 M0,1.787114e+02 L-6,1.787114e+02 M0,2.460672e+02 L-6,2.460672e+02 M0,3.134229e+02 L-6,3.134229e+02 M0,3.807786e+02 L-6,3.807786e+02 "/></g><g stroke-width="2px" font-style="normal" fill="black" stroke="black" font-weight="normal" dominant-baseline="middle" stroke-linejoin="round" font-size="12px" transform="translate(80 520 )scale(1 1 )" stroke-linecap="round" font-family="sans-serif" text-anchor="end"><text stroke="none" vector-effect="non-scaling-stroke" x="-10" y="-44" dominant-baseline="middle">0s</text><text x="-10" y="-1.113557e+02" dominant-baseline="middle" stroke="none" vector-effect="non-scaling-stroke">20ms</text><text dominant-baseline="middle" stroke="none" vector-effect="non-scaling-stroke" x="-10" y="-1.787114e+02">40ms</text><text stroke="none" vector-effect="non-scaling-stroke" x="-10" y="-2.460672e+02" dominant-baseline="middle">60ms</text><text dominant-baseline="middle" stroke="none" vector-effect="non-scaling-stroke" x="-10" y="-3.134229e+02">80ms</text><text x="-10" y="-3.807786e+02" dominant-baseline="middle" stroke="none" vector-effect="non-scaling-stroke">100ms</text></g><g font-style="normal" stroke-linejoin="round" stroke-linecap="round" dominant-baseline="hanging" fill="black" stroke="black" font-size="12px" stroke-width="2px" font-family="sans-serif" font-weight="bold" text-anchor="middle" transform="translate(80 520 )scale(1 1 )rotate(-90 0 0 )"><text stroke="none" vector-effect="non-scaling-stroke" x="220" y="6" dominant-baseline="hanging">Runtime</text></g></g></g></g></g></svg>