<svg height="600" viewbox="0 0 800 600" preserveAspectRatio="xMidYMid meet" xmlns="http://www.w3.org/2000/svg" width="800"><defs><marker id="circle" viewBox="0 0 10 10 " refX="5" refY="5" markerUnits="userSpaceOnUse" markerWidth="2%" markerHeight="2%"><circle stroke="black" cx="5" cy="5" r="3" fill="none"/></marker><marker refX="5" refY="5" markerUnits="userSpaceOnUse" markerWidth="2%" markerHeight="2%" id="filled-circle" viewBox="0 0 10 10 "><circle stroke="none" cx="5" cy="5" r="3" fill="black"/></marker><marker refY="5" markerUnits="userSpaceOnUse" markerWidth="2%" markerHeight="2%" id="square" viewBox="0 0 10 10 " refX="5"><rect stroke="black" x="2" y="2" width="6" height="6" fill="none"/></marker><marker refY="5" markerUnits="userSpaceOnUse" markerWidth="2%" markerHeight="2%" id="filled-square" viewBox="0 0 10 10 " refX="5"><rect x="2" y="2" width="6" height="6" fill="black" stroke="none"/></marker></defs><g fill="hsl(198, 47%, 65%)" stroke="hsl(198, 47%, 65%)" stroke-width="1px" stroke-linecap="round" stroke-linejoin="round" transform="translate(80 520 )scale(1 -1 )"><rect vector-effect="non-scaling-stroke" x="3.650000e+01" y="0" width="2.750000e+01" height="1.599474e+02"/><rect y="0" width="2.750000e+01" height="7.591357e+01" vector-effect="non-scaling-stroke" x="5.783333e+01"/><rect x="7.916667e+01" y="0" width="2.750000e+01" height="396" vector-effect="non-scaling-stroke"/></g><g stroke-width="1px" stroke-linecap="round" stroke-linejoin="round" transform="translate(80 520 )scale(1 -1 )" fill="hsl(49, 88%, 65%)" stroke="hsl(49, 88%, 65%)"><rect vector-effect="non-scaling-stroke" x="64" y="0" width="2.750000e+01" height="4.423414e+01"/><rect vector-effect="non-scaling-stroke" x="8.533333e+01" y="0" width="2.750000e+01" height="5.173361e+01"/><rect y="0" width="2.750000e+01" height="3.120442e+02" vector-effect="non-scaling-stroke" x="1.066667e+02"/></g><g font-weight="normal" stroke="hsl(198, 47%, 65%)" text-anchor="start" dominant-baseline="hanging" stroke-linecap="round" stroke-linejoin="round" font-style="normal" fill="hsl(198, 47%, 65%)" stroke-width="1px" font-family="sans-serif" font-size="12px"><rect x="736" y="484" width="12" height="12" vector-effect="non-scaling-stroke"/><g stroke="black" fill="black"><text stroke="none" vector-effect="non-scaling-stroke" x="752" y="484" dominant-baseline="hanging">Golang</text></g><g font-size="12px" font-weight="normal" dominant-baseline="hanging" fill="hsl(49, 88%, 65%)" stroke-linecap="round" text-anchor="start" stroke-linejoin="round" font-style="normal" stroke="hsl(49, 88%, 65%)" stroke-width="1px" font-family="sans-serif"><rect height="12" vector-effect="non-scaling-stroke" x="736" y="502" width="12"/><g fill="black" stroke="black"><text x="752" y="502" dominant-baseline="hanging" stroke="none" vector-effect="non-scaling-stroke">Rust</text><g stroke-width="2px" font-weight="normal" dominant-baseline="hanging" fill="none" font-style="normal" font-family="sans-serif" font-size="12px" text-anchor="start" stroke-linecap="round" stroke-linejoin="round"><rect height="440" vector-effect="non-scaling-stroke" x="80" y="80" width="640"/></g><g font-weight="normal" dominant-baseline="hanging" stroke="black" stroke-width="2px" font-size="12px" stroke-linecap="round" stroke-linejoin="round" transform="translate(80 520 )scale(1 -1 )" font-family="sans-serif" text-anchor="start" fill="none" font-style="normal"><path vector-effect="non-scaling-stroke" d="M64,0 L64,-6 M8.533333e+01,0 L8.533333e+01,-6 M1.066667e+02,0 L1.066667e+02,-6 "/></g><g font-style="normal" transform="translate(80 520 )scale(1 1 )" fill="black" stroke="black" font-weight="normal" dominant-baseline="hanging" stroke-linecap="round" stroke-linejoin="round" font-size="12px" text-anchor="middle" stroke-width="2px" font-family="sans-serif"><text stroke="none" vector-effect="non-scaling-stroke" x="64" y="10" dominant-baseline="hanging">1</text><text stroke="none" vector-effect="non-scaling-stroke" x="8.533333e+01" y="10" dominant-baseline="hanging">2</text><text vector-effect="non-scaling-stroke" x="1.066667e+02" y="10" dominant-baseline="hanging" stroke="none">3</text></g><g font-style="normal" font-weight="bold" transform="translate(80 520 )scale(1 1 )rotate(0 0 0 )" font-family="sans-serif" font-size="12px" fill="black" stroke-linecap="round" stroke-linejoin="round" dominant-baseline="baseline" stroke="black" stroke-width="2px" text-anchor="middle"><text stroke="none" vector-effect="non-scaling-stroke" x="320" y="-6" dominant-baseline="baseline">Day</text></g><g font-size="12px" stroke-linecap="round" font-style="normal" font-weight="bold" dominant-baseline="baseline" font-family="sans-serif" text-anchor="middle" stroke="black" stroke-linejoin="round" transform="translate(80 520 )scale(1 -1 )" fill="black" stroke-width="2px"><path d="M0,44 L-6,44 M0,1.149506e+02 L-6,1.149506e+02 M0,1.859012e+02 L-6,1.859012e+02 M0,2.568517e+02 L-6,2.568517e+02 M0,3.278023e+02 L-6,3.278023e+02 " vector-effect="non-scaling-stroke"/></g><g font-style="normal" transform="translate(80 520 )scale(1 1 )" fill="black" stroke-width="2px" font-family="sans-serif" font-size="12px" stroke-linecap="round" font-weight="normal" dominant-baseline="middle" text-anchor="end" stroke="black" stroke-linejoin="round"><text dominant-baseline="middle" stroke="none" vector-effect="non-scaling-stroke" x="-10" y="-44">0s</text><text stroke="none" vector-effect="non-scaling-stroke" x="-10" y="-1.149506e+02" dominant-baseline="middle">10µs</text><text y="-1.859012e+02" dominant-baseline="middle" stroke="none" vector-effect="non-scaling-stroke" x="-10">20µs</text><text dominant-baseline="middle" stroke="none" vector-effect="non-scaling-stroke" x="-10" y="-2.568517e+02">30µs</text><text x="-10" y="-3.278023e+02" dominant-baseline="middle" stroke="none" vector-effect="non-scaling-stroke">40µs</text></g><g stroke="black" font-style="normal" dominant-baseline="hanging" text-anchor="middle" stroke-linecap="round" stroke-linejoin="round" font-weight="bold" transform="translate(80 520 )scale(1 1 )rotate(-90 0 0 )" stroke-width="2px" font-family="sans-serif" font-size="12px" fill="black"><text x="220" y="6" dominant-baseline="hanging" stroke="none" vector-effect="non-scaling-stroke">Runtime</text></g></g></g></g></svg>