<svg height="600" viewbox="0 0 800 600" preserveAspectRatio="xMidYMid meet" xmlns="http://www.w3.org/2000/svg" width="800"><defs><marker id="circle" viewBox="0 0 10 10 " refX="5" refY="5" markerUnits="userSpaceOnUse" markerWidth="2%" markerHeight="2%"><circle r="3" fill="none" stroke="black" cx="5" cy="5"/></marker><marker refY="5" markerUnits="userSpaceOnUse" markerWidth="2%" markerHeight="2%" id="filled-circle" viewBox="0 0 10 10 " refX="5"><circle cy="5" r="3" fill="black" stroke="none" cx="5"/></marker><marker id="square" viewBox="0 0 10 10 " refX="5" refY="5" markerUnits="userSpaceOnUse" markerWidth="2%" markerHeight="2%"><rect width="6" height="6" fill="none" stroke="black" x="2" y="2"/></marker><marker markerWidth="2%" markerHeight="2%" id="filled-square" viewBox="0 0 10 10 " refX="5" refY="5" markerUnits="userSpaceOnUse"><rect y="2" width="6" height="6" fill="black" stroke="none" x="2"/></marker></defs><g transform="translate(80 520 )scale(1 -1 )" fill="hsl(198, 47%, 65%)" stroke="hsl(198, 47%, 65%)" stroke-width="1px" stroke-linecap="round" stroke-linejoin="round"><rect x="3.650000e+01" y="0" width="1.833333e+01" height="4.431317e+01" vector-effect="non-scaling-stroke"/><rect width="1.833333e+01" height="3.205195e+02" vector-effect="non-scaling-stroke" x="5.783333e+01" y="0"/><rect vector-effect="non-scaling-stroke" x="7.916667e+01" y="0" width="1.833333e+01" height="4.564828e+01"/><rect vector-effect="non-scaling-stroke" x="1.005000e+02" y="0" width="1.833333e+01" height="1.103930e+02"/><rect y="0" width="1.833333e+01" height="4.524878e+01" vector-effect="non-scaling-stroke" x="1.218333e+02"/></g><g fill="hsl(49, 88%, 65%)" stroke="hsl(49, 88%, 65%)" stroke-width="1px" stroke-linecap="round" stroke-linejoin="round" transform="translate(80 520 )scale(1 -1 )"><rect x="5.483333e+01" y="0" width="1.833333e+01" height="4.415847e+01" vector-effect="non-scaling-stroke"/><rect x="7.616667e+01" y="0" width="1.833333e+01" height="3.879914e+02" vector-effect="non-scaling-stroke"/><rect y="0" width="1.833333e+01" height="4.499555e+01" vector-effect="non-scaling-stroke" x="9.750000e+01"/><rect width="1.833333e+01" height="5.104509e+01" vector-effect="non-scaling-stroke" x="1.188333e+02" y="0"/><rect vector-effect="non-scaling-stroke" x="1.401667e+02" y="0" width="1.833333e+01" height="4.623175e+01"/></g><g stroke-linecap="round" stroke-linejoin="round" transform="translate(80 520 )scale(1 -1 )" fill="hsl(260, 76%, 65%)" stroke="hsl(260, 76%, 65%)" stroke-width="1px"><rect x="7.316667e+01" y="0" width="1.833333e+01" height="4.416451e+01" vector-effect="non-scaling-stroke"/><rect height="396" vector-effect="non-scaling-stroke" x="9.450000e+01" y="0" width="1.833333e+01"/><rect width="1.833333e+01" height="4.468584e+01" vector-effect="non-scaling-stroke" x="1.158333e+02" y="0"/><rect vector-effect="non-scaling-stroke" x="1.371667e+02" y="0" width="1.833333e+01" height="5.616899e+01"/><rect width="1.833333e+01" height="4.508360e+01" vector-effect="non-scaling-stroke" x="1.585000e+02" y="0"/></g><g font-size="12px" font-style="normal" font-weight="normal" text-anchor="start" fill="hsl(198, 47%, 65%)" stroke="hsl(198, 47%, 65%)" dominant-baseline="hanging" stroke-width="1px" stroke-linejoin="round" stroke-linecap="round" font-family="sans-serif"><rect y="466" width="12" height="12" vector-effect="non-scaling-stroke" x="736"/><g fill="black" stroke="black"><text stroke="none" vector-effect="non-scaling-stroke" x="752" y="466" dominant-baseline="hanging">Golang</text></g><g font-style="normal" font-weight="normal" stroke="hsl(49, 88%, 65%)" dominant-baseline="hanging" stroke-linecap="round" font-family="sans-serif" font-size="12px" text-anchor="start" fill="hsl(49, 88%, 65%)" stroke-width="1px" stroke-linejoin="round"><rect height="12" vector-effect="non-scaling-stroke" x="736" y="484" width="12"/><g fill="black" stroke="black"><text x="752" y="484" dominant-baseline="hanging" stroke="none" vector-effect="non-scaling-stroke">Rust</text></g><g text-anchor="start" fill="hsl(260, 76%, 65%)" stroke="hsl(260, 76%, 65%)" stroke-linejoin="round" stroke-linecap="round" font-family="sans-serif" font-size="12px" stroke-width="1px" dominant-baseline="hanging" font-style="normal" font-weight="normal"><rect vector-effect="non-scaling-stroke" x="736" y="502" width="12" height="12"/><g fill="black" stroke="black"><text stroke="none" vector-effect="non-scaling-stroke" x="752" y="502" dominant-baseline="hanging">Zig</text><g font-family="sans-serif" font-size="12px" text-anchor="start" stroke-linecap="round" font-weight="normal" stroke-width="2px" dominant-baseline="hanging" font-style="normal" fill="none" stroke-linejoin="round"><rect vector-effect="non-scaling-stroke" x="80" y="80" width="640" height="440"/></g><g fill="none" stroke-linejoin="round" dominant-baseline="hanging" font-family="sans-serif" font-style="normal" transform="translate(80 520 )scale(1 -1 )" stroke="black" stroke-width="2px" stroke-linecap="round" font-size="12px" font-weight="normal" text-anchor="start"><path d="M64,0 L64,-6 M8.533333e+01,0 L8.533333e+01,-6 M1.066667e+02,0 L1.066667e+02,-6 M128,0 L128,-6 M1.493333e+02,0 L1.493333e+02,-6 " vector-effect="non-scaling-stroke"/></g><g font-size="12px" font-weight="normal" text-anchor="middle" transform="translate(80 520 )scale(1 1 )" stroke-linejoin="round" dominant-baseline="hanging" font-style="normal" fill="black" stroke="black" stroke-width="2px" stroke-linecap="round" font-family="sans-serif"><text y="10" dominant-baseline="hanging" stroke="none" vector-effect="non-scaling-stroke" x="64">1</text><text x="8.533333e+01" y="10" dominant-baseline="hanging" stroke="none" vector-effect="non-scaling-stroke">2</text><text y="10" dominant-baseline="hanging" stroke="none" vector-effect="non-scaling-stroke" x="1.066667e+02">3</text><text x="128" y="10" dominant-baseline="hanging" stroke="none" vector-effect="non-scaling-stroke">4</text><text stroke="none" vector-effect="non-scaling-stroke" x="1.493333e+02" y="10" dominant-baseline="hanging">5</text></g><g font-family="sans-serif" transform="translate(80 520 )scale(1 1 )rotate(0 0 0 )" stroke="black" stroke-linejoin="round" dominant-baseline="baseline" font-size="12px" font-style="normal" font-weight="bold" text-anchor="middle" fill="black" stroke-width="2px" stroke-linecap="round"><text stroke="none" vector-effect="non-scaling-stroke" x="320" y="-6" dominant-baseline="baseline">Day</text></g><g font-style="normal" font-weight="bold" fill="black" stroke="black" stroke-width="2px" stroke-linecap="round" font-family="sans-serif" text-anchor="middle" transform="translate(80 520 )scale(1 -1 )" stroke-linejoin="round" dominant-baseline="baseline" font-size="12px"><path vector-effect="non-scaling-stroke" d="M0,44 L-6,44 M0,2.063326e+02 L-6,2.063326e+02 M0,3.686652e+02 L-6,3.686652e+02 "/></g><g font-style="normal" transform="translate(80 520 )scale(1 1 )" fill="black" stroke="black" stroke-width="2px" stroke-linecap="round" font-size="12px" font-weight="normal" text-anchor="end" stroke-linejoin="round" dominant-baseline="middle" font-family="sans-serif"><text vector-effect="non-scaling-stroke" x="-10" y="-44" dominant-baseline="middle" stroke="none">0s</text><text stroke="none" vector-effect="non-scaling-stroke" x="-10" y="-2.063326e+02" dominant-baseline="middle">10ms</text><text stroke="none" vector-effect="non-scaling-stroke" x="-10" y="-3.686652e+02" dominant-baseline="middle">20ms</text></g><g dominant-baseline="hanging" font-style="normal" text-anchor="middle" transform="translate(80 520 )scale(1 1 )rotate(-90 0 0 )" stroke-width="2px" stroke-linejoin="round" stroke-linecap="round" font-family="sans-serif" font-size="12px" font-weight="bold" fill="black" stroke="black"><text y="6" dominant-baseline="hanging" stroke="none" vector-effect="non-scaling-stroke" x="220">Runtime</text></g></g></g></g></g></svg>