<svg viewbox="0 0 800 600" preserveAspectRatio="xMidYMid meet" xmlns="http://www.w3.org/2000/svg" width="800" height="600"><defs><marker viewBox="0 0 10 10 " refX="5" refY="5" markerUnits="userSpaceOnUse" markerWidth="2%" markerHeight="2%" id="circle"><circle r="3" fill="none" stroke="black" cx="5" cy="5"/></marker><marker markerHeight="2%" id="filled-circle" viewBox="0 0 10 10 " refX="5" refY="5" markerUnits="userSpaceOnUse" markerWidth="2%"><circle cx="5" cy="5" r="3" fill="black" stroke="none"/></marker><marker markerUnits="userSpaceOnUse" markerWidth="2%" markerHeight="2%" id="square" viewBox="0 0 10 10 " refX="5" refY="5"><rect x="2" y="2" width="6" height="6" fill="none" stroke="black"/></marker><marker viewBox="0 0 10 10 " refX="5" refY="5" markerUnits="userSpaceOnUse" markerWidth="2%" markerHeight="2%" id="filled-square"><rect stroke="none" x="2" y="2" width="6" height="6" fill="black"/></marker></defs><g transform="translate(80 520 )scale(1 -1 )" fill="hsl(198, 47%, 65%)" stroke="hsl(198, 47%, 65%)" stroke-width="1px" stroke-linecap="round" stroke-linejoin="round"><rect height="4.439488e+01" vector-effect="non-scaling-stroke" x="3.650000e+01" y="0" width="1.833333e+01"/><rect y="0" width="1.833333e+01" height="396" vector-effect="non-scaling-stroke" x="5.783333e+01"/></g><g stroke="hsl(49, 88%, 65%)" stroke-width="1px" stroke-linecap="round" stroke-linejoin="round" transform="translate(80 520 )scale(1 -1 )" fill="hsl(49, 88%, 65%)"><rect height="4.419981e+01" vector-effect="non-scaling-stroke" x="5.483333e+01" y="0" width="1.833333e+01"/></g><g stroke-linecap="round" stroke-linejoin="round" transform="translate(80 520 )scale(1 -1 )" fill="hsl(260, 76%, 65%)" stroke="hsl(260, 76%, 65%)" stroke-width="1px"><rect height="4.420743e+01" vector-effect="non-scaling-stroke" x="7.316667e+01" y="0" width="1.833333e+01"/></g><g fill="hsl(198, 47%, 65%)" font-family="sans-serif" font-size="12px" font-style="normal" dominant-baseline="hanging" stroke-width="1px" stroke-linecap="round" stroke-linejoin="round" stroke="hsl(198, 47%, 65%)" text-anchor="start" font-weight="normal"><rect width="12" height="12" vector-effect="non-scaling-stroke" x="736" y="466"/><g fill="black" stroke="black"><text stroke="none" vector-effect="non-scaling-stroke" x="752" y="466" dominant-baseline="hanging">Golang</text></g><g text-anchor="start" stroke-linecap="round" stroke-linejoin="round" font-weight="normal" fill="hsl(49, 88%, 65%)" font-family="sans-serif" dominant-baseline="hanging" stroke-width="1px" stroke="hsl(49, 88%, 65%)" font-size="12px" font-style="normal"><rect width="12" height="12" vector-effect="non-scaling-stroke" x="736" y="484"/><g fill="black" stroke="black"><text dominant-baseline="hanging" stroke="none" vector-effect="non-scaling-stroke" x="752" y="484">Rust</text></g><g font-size="12px" dominant-baseline="hanging" stroke-width="1px" stroke-linecap="round" stroke-linejoin="round" stroke="hsl(260, 76%, 65%)" font-style="normal" text-anchor="start" font-weight="normal" fill="hsl(260, 76%, 65%)" font-family="sans-serif"><rect vector-effect="non-scaling-stroke" x="736" y="502" width="12" height="12"/><g fill="black" stroke="black"><text x="752" y="502" dominant-baseline="hanging" stroke="none" vector-effect="non-scaling-stroke">Zig</text><g font-family="sans-serif" font-size="12px" stroke-linecap="round" font-style="normal" text-anchor="start" dominant-baseline="hanging" stroke-width="2px" stroke-linejoin="round" fill="none" font-weight="normal"><rect y="80" width="640" height="440" vector-effect="non-scaling-stroke" x="80"/></g><g stroke-width="2px" stroke-linecap="round" font-weight="normal" fill="none" stroke="black" font-family="sans-serif" font-size="12px" text-anchor="start" dominant-baseline="hanging" stroke-linejoin="round" transform="translate(80 520 )scale(1 -1 )" font-style="normal"><path vector-effect="non-scaling-stroke" d="M64,0 L64,-6 M8.533333e+01,0 L8.533333e+01,-6 "/></g><g font-weight="normal" transform="translate(80 520 )scale(1 1 )" fill="black" stroke="black" font-family="sans-serif" dominant-baseline="hanging" stroke-width="2px" stroke-linejoin="round" font-size="12px" font-style="normal" text-anchor="middle" stroke-linecap="round"><text vector-effect="non-scaling-stroke" x="64" y="10" dominant-baseline="hanging" stroke="none">1</text><text dominant-baseline="hanging" stroke="none" vector-effect="non-scaling-stroke" x="8.533333e+01" y="10">2</text></g><g stroke-linejoin="round" transform="translate(80 520 )scale(1 1 )rotate(0 0 0 )" fill="black" font-family="sans-serif" font-size="12px" font-style="normal" text-anchor="middle" dominant-baseline="baseline" font-weight="bold" stroke="black" stroke-width="2px" stroke-linecap="round"><text x="320" y="-6" dominant-baseline="baseline" stroke="none" vector-effect="non-scaling-stroke">Day</text></g><g text-anchor="middle" dominant-baseline="baseline" fill="black" stroke="black" font-family="sans-serif" font-size="12px" stroke-width="2px" stroke-linecap="round" stroke-linejoin="round" font-weight="bold" transform="translate(80 520 )scale(1 -1 )" font-style="normal"><path vector-effect="non-scaling-stroke" d="M0,44 L-6,44 M0,8.493730e+01 L-6,8.493730e+01 M0,1.258746e+02 L-6,1.258746e+02 M0,1.668119e+02 L-6,1.668119e+02 M0,2.077492e+02 L-6,2.077492e+02 M0,2.486865e+02 L-6,2.486865e+02 M0,2.896238e+02 L-6,2.896238e+02 M0,3.305611e+02 L-6,3.305611e+02 M0,3.714984e+02 L-6,3.714984e+02 "/></g><g stroke-width="2px" stroke-linecap="round" stroke-linejoin="round" font-weight="normal" transform="translate(80 520 )scale(1 1 )" font-family="sans-serif" font-size="12px" font-style="normal" text-anchor="end" fill="black" stroke="black" dominant-baseline="middle"><text vector-effect="non-scaling-stroke" x="-10" y="-44" dominant-baseline="middle" stroke="none">0s</text><text x="-10" y="-8.493730e+01" dominant-baseline="middle" stroke="none" vector-effect="non-scaling-stroke">2ms</text><text stroke="none" vector-effect="non-scaling-stroke" x="-10" y="-1.258746e+02" dominant-baseline="middle">4ms</text><text x="-10" y="-1.668119e+02" dominant-baseline="middle" stroke="none" vector-effect="non-scaling-stroke">6ms</text><text x="-10" y="-2.077492e+02" dominant-baseline="middle" stroke="none" vector-effect="non-scaling-stroke">8ms</text><text stroke="none" vector-effect="non-scaling-stroke" x="-10" y="-2.486865e+02" dominant-baseline="middle">10ms</text><text stroke="none" vector-effect="non-scaling-stroke" x="-10" y="-2.896238e+02" dominant-baseline="middle">12ms</text><text dominant-baseline="middle" stroke="none" vector-effect="non-scaling-stroke" x="-10" y="-3.305611e+02">14ms</text><text vector-effect="non-scaling-stroke" x="-10" y="-3.714984e+02" dominant-baseline="middle" stroke="none">16ms</text></g><g stroke-linecap="round" stroke-linejoin="round" font-weight="bold" transform="translate(80 520 )scale(1 1 )rotate(-90 0 0 )" stroke="black" font-size="12px" text-anchor="middle" dominant-baseline="hanging" stroke-width="2px" fill="black" font-family="sans-serif" font-style="normal"><text vector-effect="non-scaling-stroke" x="220" y="6" dominant-baseline="hanging" stroke="none">Runtime</text></g></g></g></g></g></svg>