<svg preserveAspectRatio="xMidYMid meet" xmlns="http://www.w3.org/2000/svg" width="800" height="600" viewbox="0 0 800 600"><defs><marker markerUnits="userSpaceOnUse" markerWidth="2%" markerHeight="2%" id="circle" viewBox="0 0 10 10 " refX="5" refY="5"><circle cx="5" cy="5" r="3" fill="none" stroke="black"/></marker><marker id="filled-circle" viewBox="0 0 10 10 " refX="5" refY="5" markerUnits="userSpaceOnUse" markerWidth="2%" markerHeight="2%"><circle stroke="none" cx="5" cy="5" r="3" fill="black"/></marker><marker viewBox="0 0 10 10 " refX="5" refY="5" markerUnits="userSpaceOnUse" markerWidth="2%" markerHeight="2%" id="square"><rect y="2" width="6" height="6" fill="none" stroke="black" x="2"/></marker><marker refX="5" refY="5" markerUnits="userSpaceOnUse" markerWidth="2%" markerHeight="2%" id="filled-square" viewBox="0 0 10 10 "><rect width="6" height="6" fill="black" stroke="none" x="2" y="2"/></marker></defs><g stroke-linecap="round" stroke-linejoin="round" transform="translate(80 520 )scale(1 -1 )" fill="hsl(198, 47%, 65%)" stroke="hsl(198, 47%, 65%)" stroke-width="1px"><rect vector-effect="non-scaling-stroke" x="5.546667e+01" y="0" width="3.413333e+00" height="4.411420e+01"/><rect x="7.680000e+01" y="0" width="3.413333e+00" height="4.402666e+01" vector-effect="non-scaling-stroke"/><rect height="4.406208e+01" vector-effect="non-scaling-stroke" x="9.813333e+01" y="0" width="3.413333e+00"/></g><g transform="translate(80 520 )scale(1 -1 )" fill="hsl(49, 88%, 65%)" stroke="hsl(49, 88%, 65%)" stroke-width="1px" stroke-linecap="round" stroke-linejoin="round"><rect y="0" width="3.413333e+00" height="4.403292e+01" vector-effect="non-scaling-stroke" x="5.888000e+01"/><rect y="0" width="3.413333e+00" height="4.400047e+01" vector-effect="non-scaling-stroke" x="8.021333e+01"/><rect y="0" width="3.413333e+00" height="4.401317e+01" vector-effect="non-scaling-stroke" x="1.015467e+02"/><rect y="0" width="3.413333e+00" height="4.406744e+01" vector-effect="non-scaling-stroke" x="1.228800e+02"/><rect y="0" width="3.413333e+00" height="4.517518e+01" vector-effect="non-scaling-stroke" x="1.442133e+02"/><rect vector-effect="non-scaling-stroke" x="1.655467e+02" y="0" width="3.413333e+00" height="4.400055e+01"/><rect y="0" width="3.413333e+00" height="4.402696e+01" vector-effect="non-scaling-stroke" x="1.868800e+02"/><rect width="3.413333e+00" height="4.414328e+01" vector-effect="non-scaling-stroke" x="2.082133e+02" y="0"/><rect height="4.430863e+01" vector-effect="non-scaling-stroke" x="2.295467e+02" y="0" width="3.413333e+00"/><rect vector-effect="non-scaling-stroke" x="2.508800e+02" y="0" width="3.413333e+00" height="4.400735e+01"/><rect y="0" width="3.413333e+00" height="4.425178e+01" vector-effect="non-scaling-stroke" x="2.722133e+02"/><rect vector-effect="non-scaling-stroke" x="2.935467e+02" y="0" width="3.413333e+00" height="4.498568e+01"/><rect x="3.148800e+02" y="0" width="3.413333e+00" height="4.411289e+01" vector-effect="non-scaling-stroke"/><rect vector-effect="non-scaling-stroke" x="3.362133e+02" y="0" width="3.413333e+00" height="4.414884e+01"/><rect vector-effect="non-scaling-stroke" x="3.575467e+02" y="0" width="3.413333e+00" height="6.131684e+01"/><rect y="0" width="3.413333e+00" height="4.400540e+01" vector-effect="non-scaling-stroke" x="3.788800e+02"/><rect y="0" width="3.413333e+00" height="4.471108e+01" vector-effect="non-scaling-stroke" x="4.002133e+02"/><rect height="5.951003e+01" vector-effect="non-scaling-stroke" x="4.215467e+02" y="0" width="3.413333e+00"/><rect x="4.428800e+02" y="0" width="3.413333e+00" height="3.331892e+02" vector-effect="non-scaling-stroke"/><rect vector-effect="non-scaling-stroke" x="4.642133e+02" y="0" width="3.413333e+00" height="5.251655e+01"/><rect y="0" width="3.413333e+00" height="4.542355e+01" vector-effect="non-scaling-stroke" x="4.855467e+02"/><rect height="4.812278e+01" vector-effect="non-scaling-stroke" x="5.068800e+02" y="0" width="3.413333e+00"/><rect width="3.413333e+00" height="2.070705e+02" vector-effect="non-scaling-stroke" x="5.282133e+02" y="0"/><rect y="0" width="3.413333e+00" height="4.400089e+01" vector-effect="non-scaling-stroke" x="5.495467e+02"/><rect y="0" width="3.413333e+00" height="6.211604e+01" vector-effect="non-scaling-stroke" x="5.708800e+02"/></g><g stroke-width="1px" stroke-linecap="round" stroke-linejoin="round" transform="translate(80 520 )scale(1 -1 )" fill="hsl(260, 76%, 65%)" stroke="hsl(260, 76%, 65%)"><rect width="3.413333e+00" height="4.464783e+01" vector-effect="non-scaling-stroke" x="6.229333e+01" y="0"/><rect x="8.362667e+01" y="0" width="3.413333e+00" height="4.439261e+01" vector-effect="non-scaling-stroke"/><rect height="4.459715e+01" vector-effect="non-scaling-stroke" x="1.049600e+02" y="0" width="3.413333e+00"/></g><g stroke="hsl(111, 64%, 65%)" stroke-width="1px" stroke-linecap="round" stroke-linejoin="round" transform="translate(80 520 )scale(1 -1 )" fill="hsl(111, 64%, 65%)"><rect y="0" width="3.413333e+00" height="4.401025e+01" vector-effect="non-scaling-stroke" x="6.570667e+01"/><rect height="4.400042e+01" vector-effect="non-scaling-stroke" x="8.704000e+01" y="0" width="3.413333e+00"/><rect width="3.413333e+00" height="4.401039e+01" vector-effect="non-scaling-stroke" x="1.083733e+02" y="0"/><rect vector-effect="non-scaling-stroke" x="1.297067e+02" y="0" width="3.413333e+00" height="4.403045e+01"/><rect height="4.425205e+01" vector-effect="non-scaling-stroke" x="1.510400e+02" y="0" width="3.413333e+00"/><rect vector-effect="non-scaling-stroke" x="1.723733e+02" y="0" width="3.413333e+00" height="4.400039e+01"/><rect width="3.413333e+00" height="4.401124e+01" vector-effect="non-scaling-stroke" x="1.937067e+02" y="0"/><rect vector-effect="non-scaling-stroke" x="2.150400e+02" y="0" width="3.413333e+00" height="4.400680e+01"/><rect height="4.405486e+01" vector-effect="non-scaling-stroke" x="2.363733e+02" y="0" width="3.413333e+00"/><rect x="2.577067e+02" y="0" width="3.413333e+00" height="4.401724e+01" vector-effect="non-scaling-stroke"/><rect height="4.405614e+01" vector-effect="non-scaling-stroke" x="2.790400e+02" y="0" width="3.413333e+00"/><rect width="3.413333e+00" height="4.637596e+01" vector-effect="non-scaling-stroke" x="3.003733e+02" y="0"/><rect width="3.413333e+00" height="4.414503e+01" vector-effect="non-scaling-stroke" x="3.217067e+02" y="0"/><rect vector-effect="non-scaling-stroke" x="3.430400e+02" y="0" width="3.413333e+00" height="4.400884e+01"/><rect vector-effect="non-scaling-stroke" x="3.643733e+02" y="0" width="3.413333e+00" height="7.130218e+01"/><rect vector-effect="non-scaling-stroke" x="3.857067e+02" y="0" width="3.413333e+00" height="4.400330e+01"/><rect height="4.485739e+01" vector-effect="non-scaling-stroke" x="4.070400e+02" y="0" width="3.413333e+00"/><rect y="0" width="3.413333e+00" height="5.671173e+01" vector-effect="non-scaling-stroke" x="4.283733e+02"/><rect width="3.413333e+00" height="4.972386e+01" vector-effect="non-scaling-stroke" x="4.497067e+02" y="0"/><rect x="4.710400e+02" y="0" width="3.413333e+00" height="5.523564e+01" vector-effect="non-scaling-stroke"/><rect width="3.413333e+00" height="4.400056e+01" vector-effect="non-scaling-stroke" x="4.923733e+02" y="0"/><rect vector-effect="non-scaling-stroke" x="5.137067e+02" y="0" width="3.413333e+00" height="4.980910e+01"/><rect x="5.350400e+02" y="0" width="3.413333e+00" height="396" vector-effect="non-scaling-stroke"/><rect vector-effect="non-scaling-stroke" x="5.563733e+02" y="0" width="3.413333e+00" height="4.400411e+01"/><rect y="0" width="3.413333e+00" height="5.871607e+01" vector-effect="non-scaling-stroke" x="5.777067e+02"/></g><g stroke-linecap="round" stroke-linejoin="round" transform="translate(80 520 )scale(1 -1 )" fill="hsl(322, 52%, 65%)" stroke="hsl(322, 52%, 65%)" stroke-width="1px"><rect vector-effect="non-scaling-stroke" x="6.912000e+01" y="0" width="3.413333e+00" height="4.400650e+01"/><rect vector-effect="non-scaling-stroke" x="9.045333e+01" y="0" width="3.413333e+00" height="4.400040e+01"/><rect height="4.402770e+01" vector-effect="non-scaling-stroke" x="1.117867e+02" y="0" width="3.413333e+00"/><rect height="4.402922e+01" vector-effect="non-scaling-stroke" x="1.331200e+02" y="0" width="3.413333e+00"/><rect height="4.437994e+01" vector-effect="non-scaling-stroke" x="1.544533e+02" y="0" width="3.413333e+00"/><rect width="3.413333e+00" height="4.400048e+01" vector-effect="non-scaling-stroke" x="1.757867e+02" y="0"/><rect vector-effect="non-scaling-stroke" x="1.971200e+02" y="0" width="3.413333e+00" height="4.401455e+01"/><rect vector-effect="non-scaling-stroke" x="2.184533e+02" y="0" width="3.413333e+00" height="4.457431e+01"/><rect vector-effect="non-scaling-stroke" x="2.397867e+02" y="0" width="3.413333e+00" height="4.406512e+01"/><rect y="0" width="3.413333e+00" height="4.401437e+01" vector-effect="non-scaling-stroke" x="2.611200e+02"/><rect x="2.824533e+02" y="0" width="3.413333e+00" height="4.403877e+01" vector-effect="non-scaling-stroke"/><rect x="3.037867e+02" y="0" width="3.413333e+00" height="4.408167e+01" vector-effect="non-scaling-stroke"/><rect y="0" width="3.413333e+00" height="4.414259e+01" vector-effect="non-scaling-stroke" x="3.251200e+02"/><rect y="0" width="3.413333e+00" height="4.403560e+01" vector-effect="non-scaling-stroke" x="3.464533e+02"/><rect vector-effect="non-scaling-stroke" x="3.677867e+02" y="0" width="3.413333e+00" height="4.984513e+01"/><rect y="0" width="3.413333e+00" height="4.417087e+01" vector-effect="non-scaling-stroke" x="3.891200e+02"/><rect vector-effect="non-scaling-stroke" x="4.104533e+02" y="0" width="3.413333e+00" height="4.479573e+01"/><rect y="0" width="3.413333e+00" height="4.735014e+01" vector-effect="non-scaling-stroke" x="4.317867e+02"/><rect y="0" width="3.413333e+00" height="4.411174e+01" vector-effect="non-scaling-stroke" x="4.957867e+02"/></g><g stroke-linejoin="round" font-family="sans-serif" text-anchor="start" dominant-baseline="hanging" fill="hsl(198, 47%, 65%)" font-size="12px" stroke="hsl(198, 47%, 65%)" stroke-linecap="round" font-style="normal" font-weight="normal" stroke-width="1px"><rect vector-effect="non-scaling-stroke" x="736" y="430" width="12" height="12"/><g stroke="black" fill="black"><text x="752" y="430" dominant-baseline="hanging" stroke="none" vector-effect="non-scaling-stroke">Crystal</text></g><g font-size="12px" font-style="normal" stroke-width="1px" stroke-linejoin="round" font-family="sans-serif" stroke="hsl(49, 88%, 65%)" fill="hsl(49, 88%, 65%)" stroke-linecap="round" text-anchor="start" dominant-baseline="hanging" font-weight="normal"><rect y="448" width="12" height="12" vector-effect="non-scaling-stroke" x="736"/><g stroke="black" fill="black"><text y="448" dominant-baseline="hanging" stroke="none" vector-effect="non-scaling-stroke" x="752">Golang</text></g><g font-size="12px" font-style="normal" font-weight="normal" stroke-width="1px" font-family="sans-serif" stroke-linejoin="round" text-anchor="start" dominant-baseline="hanging" fill="hsl(260, 76%, 65%)" stroke="hsl(260, 76%, 65%)" stroke-linecap="round"><rect width="12" height="12" vector-effect="non-scaling-stroke" x="736" y="466"/><g stroke="black" fill="black"><text dominant-baseline="hanging" stroke="none" vector-effect="non-scaling-stroke" x="752" y="466">Haskell</text></g><g fill="hsl(111, 64%, 65%)" text-anchor="start" dominant-baseline="hanging" font-family="sans-serif" stroke-linejoin="round" font-size="12px" font-style="normal" font-weight="normal" stroke="hsl(111, 64%, 65%)" stroke-width="1px" stroke-linecap="round"><rect x="736" y="484" width="12" height="12" vector-effect="non-scaling-stroke"/><g fill="black" stroke="black"><text y="484" dominant-baseline="hanging" stroke="none" vector-effect="non-scaling-stroke" x="752">Rust</text></g><g fill="hsl(322, 52%, 65%)" font-style="normal" font-family="sans-serif" font-size="12px" font-weight="normal" text-anchor="start" dominant-baseline="hanging" stroke="hsl(322, 52%, 65%)" stroke-width="1px" stroke-linecap="round" stroke-linejoin="round"><rect vector-effect="non-scaling-stroke" x="736" y="502" width="12" height="12"/><g stroke="black" fill="black"><text vector-effect="non-scaling-stroke" x="752" y="502" dominant-baseline="hanging" stroke="none">Zig</text><g stroke-linecap="round" font-family="sans-serif" fill="none" text-anchor="start" font-weight="normal" font-size="12px" font-style="normal" stroke-width="2px" stroke-linejoin="round" dominant-baseline="hanging"><rect x="80" y="80" width="640" height="440" vector-effect="non-scaling-stroke"/></g><g font-family="sans-serif" text-anchor="start" dominant-baseline="hanging" font-weight="normal" fill="none" font-size="12px" stroke-linecap="round" stroke-linejoin="round" stroke="black" stroke-width="2px" font-style="normal" transform="translate(80 520 )scale(1 -1 )"><path vector-effect="non-scaling-stroke" d="M64,0 L64,-6 M8.533333e+01,0 L8.533333e+01,-6 M1.066667e+02,0 L1.066667e+02,-6 "/></g><g stroke-linecap="round" font-family="sans-serif" text-anchor="middle" fill="black" font-size="12px" dominant-baseline="hanging" stroke="black" stroke-width="2px" transform="translate(80 520 )scale(1 1 )" stroke-linejoin="round" font-style="normal" font-weight="normal"><text vector-effect="non-scaling-stroke" x="64" y="10" dominant-baseline="hanging" stroke="none">1</text><text vector-effect="non-scaling-stroke" x="8.533333e+01" y="10" dominant-baseline="hanging" stroke="none">2</text><text y="10" dominant-baseline="hanging" stroke="none" vector-effect="non-scaling-stroke" x="1.066667e+02">3</text></g><g dominant-baseline="baseline" stroke="black" stroke-width="2px" font-family="sans-serif" font-style="normal" font-weight="bold" transform="translate(80 520 )scale(1 1 )rotate(0 0 0 )" text-anchor="middle" stroke-linejoin="round" fill="black" font-size="12px" stroke-linecap="round"><text vector-effect="non-scaling-stroke" x="320" y="-6" dominant-baseline="baseline" stroke="none">Day</text></g><g fill="black" stroke-width="2px" text-anchor="middle" stroke-linejoin="round" font-family="sans-serif" dominant-baseline="baseline" font-size="12px" font-style="normal" font-weight="bold" stroke="black" stroke-linecap="round" transform="translate(80 520 )scale(1 -1 )"><path vector-effect="non-scaling-stroke" d="M0,44 L-6,44 M0,9.908800e+01 L-6,9.908800e+01 M0,1.541760e+02 L-6,1.541760e+02 M0,2.092640e+02 L-6,2.092640e+02 M0,2.643520e+02 L-6,2.643520e+02 M0,3.194400e+02 L-6,3.194400e+02 M0,3.745280e+02 L-6,3.745280e+02 "/></g><g font-style="normal" font-weight="normal" transform="translate(80 520 )scale(1 1 )" fill="black" stroke-linejoin="round" stroke="black" text-anchor="end" dominant-baseline="middle" stroke-width="2px" font-size="12px" stroke-linecap="round" font-family="sans-serif"><text vector-effect="non-scaling-stroke" x="-10" y="-44" dominant-baseline="middle" stroke="none">0s</text><text stroke="none" vector-effect="non-scaling-stroke" x="-10" y="-9.908800e+01" dominant-baseline="middle">100ms</text><text stroke="none" vector-effect="non-scaling-stroke" x="-10" y="-1.541760e+02" dominant-baseline="middle">200ms</text><text stroke="none" vector-effect="non-scaling-stroke" x="-10" y="-2.092640e+02" dominant-baseline="middle">300ms</text><text stroke="none" vector-effect="non-scaling-stroke" x="-10" y="-2.643520e+02" dominant-baseline="middle">400ms</text><text stroke="none" vector-effect="non-scaling-stroke" x="-10" y="-3.194400e+02" dominant-baseline="middle">500ms</text><text stroke="none" vector-effect="non-scaling-stroke" x="-10" y="-3.745280e+02" dominant-baseline="middle">600ms</text></g><g dominant-baseline="hanging" stroke="black" font-size="12px" font-style="normal" fill="black" stroke-linejoin="round" text-anchor="middle" font-family="sans-serif" font-weight="bold" transform="translate(80 520 )scale(1 1 )rotate(-90 0 0 )" stroke-width="2px" stroke-linecap="round"><text y="6" dominant-baseline="hanging" stroke="none" vector-effect="non-scaling-stroke" x="220">Runtime</text></g></g></g></g></g></g></g></svg>