<svg preserveAspectRatio="xMidYMid meet" xmlns="http://www.w3.org/2000/svg" width="800" height="600" viewbox="0 0 800 600"><defs><marker refX="5" refY="5" markerUnits="userSpaceOnUse" markerWidth="2%" markerHeight="2%" id="circle" viewBox="0 0 10 10 "><circle cx="5" cy="5" r="3" fill="none" stroke="black"/></marker><marker markerUnits="userSpaceOnUse" markerWidth="2%" markerHeight="2%" id="filled-circle" viewBox="0 0 10 10 " refX="5" refY="5"><circle cx="5" cy="5" r="3" fill="black" stroke="none"/></marker><marker id="square" viewBox="0 0 10 10 " refX="5" refY="5" markerUnits="userSpaceOnUse" markerWidth="2%" markerHeight="2%"><rect x="2" y="2" width="6" height="6" fill="none" stroke="black"/></marker><marker markerUnits="userSpaceOnUse" markerWidth="2%" markerHeight="2%" id="filled-square" viewBox="0 0 10 10 " refX="5" refY="5"><rect x="2" y="2" width="6" height="6" fill="black" stroke="none"/></marker></defs><g stroke="hsl(198, 47%, 65%)" stroke-width="1px" stroke-linecap="round" stroke-linejoin="round" transform="translate(80 520 )scale(1 -1 )" fill="hsl(198, 47%, 65%)"><rect height="4.426328e+01" vector-effect="non-scaling-stroke" x="4.029630e+01" y="0" width="2.370370e+01"/><rect x="6.162963e+01" y="0" width="2.370370e+01" height="4.423326e+01" vector-effect="non-scaling-stroke"/><rect vector-effect="non-scaling-stroke" x="8.296296e+01" y="0" width="2.370370e+01" height="4.414482e+01"/><rect height="4.533401e+01" vector-effect="non-scaling-stroke" x="1.042963e+02" y="0" width="2.370370e+01"/><rect vector-effect="non-scaling-stroke" x="1.256296e+02" y="0" width="2.370370e+01" height="4.414970e+01"/><rect height="396" vector-effect="non-scaling-stroke" x="1.469630e+02" y="0" width="2.370370e+01"/><rect y="0" width="2.370370e+01" height="1.265206e+02" vector-effect="non-scaling-stroke" x="1.682963e+02"/><rect width="2.370370e+01" height="4.403414e+01" vector-effect="non-scaling-stroke" x="1.896296e+02" y="0"/><rect x="2.109630e+02" y="0" width="2.370370e+01" height="4.949956e+01" vector-effect="non-scaling-stroke"/></g><g stroke-linecap="round" stroke-linejoin="round" transform="translate(80 520 )scale(1 -1 )" fill="hsl(49, 88%, 65%)" stroke="hsl(49, 88%, 65%)" stroke-width="1px"><rect height="4.422948e+01" vector-effect="non-scaling-stroke" x="6.400000e+01" y="0" width="2.370370e+01"/><rect vector-effect="non-scaling-stroke" x="8.533333e+01" y="0" width="2.370370e+01" height="4.421116e+01"/><rect vector-effect="non-scaling-stroke" x="1.066667e+02" y="0" width="2.370370e+01" height="4.404346e+01"/><rect width="2.370370e+01" height="4.622662e+01" vector-effect="non-scaling-stroke" x="128" y="0"/><rect vector-effect="non-scaling-stroke" x="1.493333e+02" y="0" width="2.370370e+01" height="4.410670e+01"/><rect y="0" width="2.370370e+01" height="3.114004e+02" vector-effect="non-scaling-stroke" x="1.706667e+02"/><rect y="0" width="2.370370e+01" height="1.275011e+02" vector-effect="non-scaling-stroke" x="192"/><rect height="4.401625e+01" vector-effect="non-scaling-stroke" x="2.133333e+02" y="0" width="2.370370e+01"/></g><g stroke-linecap="round" stroke-width="1px" stroke="hsl(198, 47%, 65%)" font-size="12px" font-weight="normal" dominant-baseline="hanging" text-anchor="start" fill="hsl(198, 47%, 65%)" stroke-linejoin="round" font-family="sans-serif" font-style="normal"><rect width="12" height="12" vector-effect="non-scaling-stroke" x="736" y="484"/><g fill="black" stroke="black"><text y="484" dominant-baseline="hanging" stroke="none" vector-effect="non-scaling-stroke" x="752">Golang</text></g><g font-style="normal" stroke-width="1px" stroke-linejoin="round" dominant-baseline="hanging" font-size="12px" font-weight="normal" text-anchor="start" fill="hsl(49, 88%, 65%)" font-family="sans-serif" stroke="hsl(49, 88%, 65%)" stroke-linecap="round"><rect y="502" width="12" height="12" vector-effect="non-scaling-stroke" x="736"/><g fill="black" stroke="black"><text x="752" y="502" dominant-baseline="hanging" stroke="none" vector-effect="non-scaling-stroke">Rust</text><g text-anchor="start" font-weight="normal" stroke-linejoin="round" font-style="normal" font-family="sans-serif" fill="none" dominant-baseline="hanging" stroke-linecap="round" stroke-width="2px" font-size="12px"><rect x="80" y="80" width="640" height="440" vector-effect="non-scaling-stroke"/></g><g font-family="sans-serif" text-anchor="start" transform="translate(80 520 )scale(1 -1 )" stroke="black" stroke-linecap="round" stroke-linejoin="round" font-style="normal" fill="none" stroke-width="2px" font-size="12px" font-weight="normal" dominant-baseline="hanging"><path vector-effect="non-scaling-stroke" d="M64,0 L64,-6 M8.533333e+01,0 L8.533333e+01,-6 M1.066667e+02,0 L1.066667e+02,-6 M128,0 L128,-6 M1.493333e+02,0 L1.493333e+02,-6 M1.706667e+02,0 L1.706667e+02,-6 M192,0 L192,-6 M2.133333e+02,0 L2.133333e+02,-6 M2.346667e+02,0 L2.346667e+02,-6 "/></g><g stroke-width="2px" stroke-linejoin="round" font-style="normal" transform="translate(80 520 )scale(1 1 )" stroke="black" stroke-linecap="round" font-weight="normal" fill="black" font-family="sans-serif" text-anchor="middle" font-size="12px" dominant-baseline="hanging"><text stroke="none" vector-effect="non-scaling-stroke" x="64" y="10" dominant-baseline="hanging">1</text><text dominant-baseline="hanging" stroke="none" vector-effect="non-scaling-stroke" x="8.533333e+01" y="10">2</text><text stroke="none" vector-effect="non-scaling-stroke" x="1.066667e+02" y="10" dominant-baseline="hanging">3</text><text dominant-baseline="hanging" stroke="none" vector-effect="non-scaling-stroke" x="128" y="10">4</text><text stroke="none" vector-effect="non-scaling-stroke" x="1.493333e+02" y="10" dominant-baseline="hanging">5</text><text y="10" dominant-baseline="hanging" stroke="none" vector-effect="non-scaling-stroke" x="1.706667e+02">6</text><text vector-effect="non-scaling-stroke" x="192" y="10" dominant-baseline="hanging" stroke="none">7</text><text x="2.133333e+02" y="10" dominant-baseline="hanging" stroke="none" vector-effect="non-scaling-stroke">8</text><text stroke="none" vector-effect="non-scaling-stroke" x="2.346667e+02" y="10" dominant-baseline="hanging">9</text></g><g font-family="sans-serif" stroke="black" font-weight="bold" dominant-baseline="baseline" transform="translate(80 520 )scale(1 1 )rotate(0 0 0 )" stroke-linejoin="round" font-style="normal" stroke-linecap="round" font-size="12px" text-anchor="middle" fill="black" stroke-width="2px"><text stroke="none" vector-effect="non-scaling-stroke" x="320" y="-6" dominant-baseline="baseline">Day</text></g><g transform="translate(80 520 )scale(1 -1 )" stroke="black" font-size="12px" dominant-baseline="baseline" stroke-linejoin="round" stroke-width="2px" font-family="sans-serif" font-style="normal" text-anchor="middle" stroke-linecap="round" font-weight="bold" fill="black"><path vector-effect="non-scaling-stroke" d="M0,44 L-6,44 M0,9.307912e+01 L-6,9.307912e+01 M0,1.421582e+02 L-6,1.421582e+02 M0,1.912374e+02 L-6,1.912374e+02 M0,2.403165e+02 L-6,2.403165e+02 M0,2.893956e+02 L-6,2.893956e+02 M0,3.384747e+02 L-6,3.384747e+02 M0,3.875538e+02 L-6,3.875538e+02 "/></g><g font-family="sans-serif" transform="translate(80 520 )scale(1 1 )" stroke-linejoin="round" stroke="black" font-size="12px" font-style="normal" text-anchor="end" fill="black" stroke-width="2px" font-weight="normal" dominant-baseline="middle" stroke-linecap="round"><text y="-44" dominant-baseline="middle" stroke="none" vector-effect="non-scaling-stroke" x="-10">0s</text><text stroke="none" vector-effect="non-scaling-stroke" x="-10" y="-9.307912e+01" dominant-baseline="middle">10ms</text><text y="-1.421582e+02" dominant-baseline="middle" stroke="none" vector-effect="non-scaling-stroke" x="-10">20ms</text><text dominant-baseline="middle" stroke="none" vector-effect="non-scaling-stroke" x="-10" y="-1.912374e+02">30ms</text><text y="-2.403165e+02" dominant-baseline="middle" stroke="none" vector-effect="non-scaling-stroke" x="-10">40ms</text><text x="-10" y="-2.893956e+02" dominant-baseline="middle" stroke="none" vector-effect="non-scaling-stroke">50ms</text><text x="-10" y="-3.384747e+02" dominant-baseline="middle" stroke="none" vector-effect="non-scaling-stroke">60ms</text><text stroke="none" vector-effect="non-scaling-stroke" x="-10" y="-3.875538e+02" dominant-baseline="middle">70ms</text></g><g fill="black" text-anchor="middle" stroke="black" stroke-linecap="round" font-size="12px" font-weight="bold" dominant-baseline="hanging" stroke-width="2px" stroke-linejoin="round" font-family="sans-serif" font-style="normal" transform="translate(80 520 )scale(1 1 )rotate(-90 0 0 )"><text vector-effect="non-scaling-stroke" x="220" y="6" dominant-baseline="hanging" stroke="none">Runtime</text></g></g></g></g></svg>