<svg height="600" viewbox="0 0 800 600" preserveAspectRatio="xMidYMid meet" xmlns="http://www.w3.org/2000/svg" width="800"><defs><marker refY="5" markerUnits="userSpaceOnUse" markerWidth="2%" markerHeight="2%" id="circle" viewBox="0 0 10 10 " refX="5"><circle fill="none" stroke="black" cx="5" cy="5" r="3"/></marker><marker markerWidth="2%" markerHeight="2%" id="filled-circle" viewBox="0 0 10 10 " refX="5" refY="5" markerUnits="userSpaceOnUse"><circle cx="5" cy="5" r="3" fill="black" stroke="none"/></marker><marker refX="5" refY="5" markerUnits="userSpaceOnUse" markerWidth="2%" markerHeight="2%" id="square" viewBox="0 0 10 10 "><rect height="6" fill="none" stroke="black" x="2" y="2" width="6"/></marker><marker refY="5" markerUnits="userSpaceOnUse" markerWidth="2%" markerHeight="2%" id="filled-square" viewBox="0 0 10 10 " refX="5"><rect y="2" width="6" height="6" fill="black" stroke="none" x="2"/></marker></defs><g stroke-linecap="round" stroke-linejoin="round" transform="translate(80 520 )scale(1 -1 )" fill="hsl(198, 47%, 65%)" stroke="hsl(198, 47%, 65%)" stroke-width="1px"><rect y="0" width="2.750000e+01" height="1.628635e+02" vector-effect="non-scaling-stroke" x="3.650000e+01"/><rect vector-effect="non-scaling-stroke" x="5.783333e+01" y="0" width="2.750000e+01" height="7.591357e+01"/><rect vector-effect="non-scaling-stroke" x="7.916667e+01" y="0" width="2.750000e+01" height="396"/><rect vector-effect="non-scaling-stroke" x="1.005000e+02" y="0" width="2.750000e+01" height="1.870364e+02"/><rect width="2.750000e+01" height="3.462353e+02" vector-effect="non-scaling-stroke" x="1.218333e+02" y="0"/></g><g stroke-linecap="round" stroke-linejoin="round" transform="translate(80 520 )scale(1 -1 )" fill="hsl(49, 88%, 65%)" stroke="hsl(49, 88%, 65%)" stroke-width="1px"><rect width="2.750000e+01" height="9.697880e+01" vector-effect="non-scaling-stroke" x="64" y="0"/><rect y="0" width="2.750000e+01" height="5.173361e+01" vector-effect="non-scaling-stroke" x="8.533333e+01"/><rect width="2.750000e+01" height="3.107884e+02" vector-effect="non-scaling-stroke" x="1.066667e+02" y="0"/><rect height="1.255364e+02" vector-effect="non-scaling-stroke" x="128" y="0" width="2.750000e+01"/></g><g font-weight="normal" text-anchor="start" font-size="12px" stroke-width="1px" dominant-baseline="hanging" fill="hsl(198, 47%, 65%)" font-style="normal" stroke-linejoin="round" font-family="sans-serif" stroke="hsl(198, 47%, 65%)" stroke-linecap="round"><rect vector-effect="non-scaling-stroke" x="736" y="484" width="12" height="12"/><g fill="black" stroke="black"><text y="484" dominant-baseline="hanging" stroke="none" vector-effect="non-scaling-stroke" x="752">Golang</text></g><g fill="hsl(49, 88%, 65%)" font-style="normal" stroke="hsl(49, 88%, 65%)" stroke-width="1px" font-family="sans-serif" font-size="12px" stroke-linecap="round" text-anchor="start" dominant-baseline="hanging" font-weight="normal" stroke-linejoin="round"><rect vector-effect="non-scaling-stroke" x="736" y="502" width="12" height="12"/><g stroke="black" fill="black"><text stroke="none" vector-effect="non-scaling-stroke" x="752" y="502" dominant-baseline="hanging">Rust</text><g font-size="12px" font-family="sans-serif" stroke-width="2px" stroke-linejoin="round" fill="none" font-weight="normal" dominant-baseline="hanging" stroke-linecap="round" text-anchor="start" font-style="normal"><rect vector-effect="non-scaling-stroke" x="80" y="80" width="640" height="440"/></g><g stroke-width="2px" font-family="sans-serif" fill="none" font-weight="normal" dominant-baseline="hanging" stroke="black" stroke-linecap="round" stroke-linejoin="round" font-size="12px" transform="translate(80 520 )scale(1 -1 )" font-style="normal" text-anchor="start"><path vector-effect="non-scaling-stroke" d="M64,0 L64,-6 M8.533333e+01,0 L8.533333e+01,-6 M1.066667e+02,0 L1.066667e+02,-6 M128,0 L128,-6 M1.493333e+02,0 L1.493333e+02,-6 "/></g><g stroke-linejoin="round" font-size="12px" transform="translate(80 520 )scale(1 1 )" font-weight="normal" stroke="black" stroke-width="2px" stroke-linecap="round" text-anchor="middle" dominant-baseline="hanging" font-family="sans-serif" fill="black" font-style="normal"><text x="64" y="10" dominant-baseline="hanging" stroke="none" vector-effect="non-scaling-stroke">1</text><text stroke="none" vector-effect="non-scaling-stroke" x="8.533333e+01" y="10" dominant-baseline="hanging">2</text><text y="10" dominant-baseline="hanging" stroke="none" vector-effect="non-scaling-stroke" x="1.066667e+02">3</text><text vector-effect="non-scaling-stroke" x="128" y="10" dominant-baseline="hanging" stroke="none">4</text><text y="10" dominant-baseline="hanging" stroke="none" vector-effect="non-scaling-stroke" x="1.493333e+02">5</text></g><g stroke-linejoin="round" font-size="12px" transform="translate(80 520 )scale(1 1 )rotate(0 0 0 )" stroke="black" stroke-linecap="round" font-style="normal" font-weight="bold" font-family="sans-serif" stroke-width="2px" text-anchor="middle" dominant-baseline="baseline" fill="black"><text stroke="none" vector-effect="non-scaling-stroke" x="320" y="-6" dominant-baseline="baseline">Day</text></g><g stroke-width="2px" font-weight="bold" font-style="normal" stroke-linejoin="round" transform="translate(80 520 )scale(1 -1 )" stroke="black" text-anchor="middle" dominant-baseline="baseline" fill="black" stroke-linecap="round" font-family="sans-serif" font-size="12px"><path vector-effect="non-scaling-stroke" d="M0,44 L-6,44 M0,1.149506e+02 L-6,1.149506e+02 M0,1.859012e+02 L-6,1.859012e+02 M0,2.568517e+02 L-6,2.568517e+02 M0,3.278023e+02 L-6,3.278023e+02 "/></g><g fill="black" font-style="normal" font-weight="normal" text-anchor="end" transform="translate(80 520 )scale(1 1 )" stroke-linejoin="round" dominant-baseline="middle" font-size="12px" stroke="black" stroke-width="2px" stroke-linecap="round" font-family="sans-serif"><text dominant-baseline="middle" stroke="none" vector-effect="non-scaling-stroke" x="-10" y="-44">0s</text><text stroke="none" vector-effect="non-scaling-stroke" x="-10" y="-1.149506e+02" dominant-baseline="middle">10µs</text><text vector-effect="non-scaling-stroke" x="-10" y="-1.859012e+02" dominant-baseline="middle" stroke="none">20µs</text><text y="-2.568517e+02" dominant-baseline="middle" stroke="none" vector-effect="non-scaling-stroke" x="-10">30µs</text><text y="-3.278023e+02" dominant-baseline="middle" stroke="none" vector-effect="non-scaling-stroke" x="-10">40µs</text></g><g stroke="black" stroke-linecap="round" dominant-baseline="hanging" text-anchor="middle" font-family="sans-serif" font-size="12px" transform="translate(80 520 )scale(1 1 )rotate(-90 0 0 )" fill="black" font-style="normal" font-weight="bold" stroke-width="2px" stroke-linejoin="round"><text stroke="none" vector-effect="non-scaling-stroke" x="220" y="6" dominant-baseline="hanging">Runtime</text></g></g></g></g></svg>