<svg xmlns="http://www.w3.org/2000/svg" width="800" height="600" viewbox="0 0 800 600" preserveAspectRatio="xMidYMid meet"><defs><marker refX="5" refY="5" markerUnits="userSpaceOnUse" markerWidth="2%" markerHeight="2%" id="circle" viewBox="0 0 10 10 "><circle cy="5" r="3" fill="none" stroke="black" cx="5"/></marker><marker id="filled-circle" viewBox="0 0 10 10 " refX="5" refY="5" markerUnits="userSpaceOnUse" markerWidth="2%" markerHeight="2%"><circle fill="black" stroke="none" cx="5" cy="5" r="3"/></marker><marker markerHeight="2%" id="square" viewBox="0 0 10 10 " refX="5" refY="5" markerUnits="userSpaceOnUse" markerWidth="2%"><rect fill="none" stroke="black" x="2" y="2" width="6" height="6"/></marker><marker markerWidth="2%" markerHeight="2%" id="filled-square" viewBox="0 0 10 10 " refX="5" refY="5" markerUnits="userSpaceOnUse"><rect stroke="none" x="2" y="2" width="6" height="6" fill="black"/></marker></defs><g stroke="hsl(198, 47%, 65%)" stroke-width="1px" stroke-linecap="round" stroke-linejoin="round" transform="translate(80 520 )scale(1 -1 )" fill="hsl(198, 47%, 65%)"><rect y="0" width="6.183575e+00" height="4.408139e+01" vector-effect="non-scaling-stroke" x="5.472464e+01"/><rect y="0" width="6.183575e+00" height="4.408196e+01" vector-effect="non-scaling-stroke" x="7.605797e+01"/><rect vector-effect="non-scaling-stroke" x="9.739130e+01" y="0" width="6.183575e+00" height="4.405015e+01"/><rect width="6.183575e+00" height="4.446870e+01" vector-effect="non-scaling-stroke" x="1.187246e+02" y="0"/><rect width="6.183575e+00" height="4.405260e+01" vector-effect="non-scaling-stroke" x="1.400580e+02" y="0"/><rect vector-effect="non-scaling-stroke" x="1.613913e+02" y="0" width="6.183575e+00" height="1.676747e+02"/><rect x="1.827246e+02" y="0" width="6.183575e+00" height="7.299352e+01" vector-effect="non-scaling-stroke"/><rect x="2.040580e+02" y="0" width="6.183575e+00" height="4.401200e+01" vector-effect="non-scaling-stroke"/><rect height="4.479665e+01" vector-effect="non-scaling-stroke" x="2.253913e+02" y="0" width="6.183575e+00"/><rect x="2.467246e+02" y="0" width="6.183575e+00" height="4.419662e+01" vector-effect="non-scaling-stroke"/><rect y="0" width="6.183575e+00" height="4.638498e+01" vector-effect="non-scaling-stroke" x="2.680580e+02"/><rect vector-effect="non-scaling-stroke" x="2.893913e+02" y="0" width="6.183575e+00" height="4.501938e+01"/><rect height="4.401207e+01" vector-effect="non-scaling-stroke" x="3.107246e+02" y="0" width="6.183575e+00"/><rect width="6.183575e+00" height="5.368653e+01" vector-effect="non-scaling-stroke" x="3.320580e+02" y="0"/><rect y="0" width="6.183575e+00" height="4.513826e+01" vector-effect="non-scaling-stroke" x="3.533913e+02"/><rect y="0" width="6.183575e+00" height="6.794324e+01" vector-effect="non-scaling-stroke" x="3.747246e+02"/><rect width="6.183575e+00" height="4.403368e+01" vector-effect="non-scaling-stroke" x="3.960580e+02" y="0"/><rect height="4.435730e+01" vector-effect="non-scaling-stroke" x="4.173913e+02" y="0" width="6.183575e+00"/><rect width="6.183575e+00" height="4.641211e+01" vector-effect="non-scaling-stroke" x="4.387246e+02" y="0"/><rect height="7.847029e+01" vector-effect="non-scaling-stroke" x="4.600580e+02" y="0" width="6.183575e+00"/><rect vector-effect="non-scaling-stroke" x="4.813913e+02" y="0" width="6.183575e+00" height="4.400010e+01"/><rect vector-effect="non-scaling-stroke" x="5.027246e+02" y="0" width="6.183575e+00" height="1.251727e+02"/><rect height="1.531087e+02" vector-effect="non-scaling-stroke" x="5.240580e+02" y="0" width="6.183575e+00"/></g><g stroke-width="1px" stroke-linecap="round" stroke-linejoin="round" transform="translate(80 520 )scale(1 -1 )" fill="hsl(49, 88%, 65%)" stroke="hsl(49, 88%, 65%)"><rect vector-effect="non-scaling-stroke" x="6.090821e+01" y="0" width="6.183575e+00" height="4.403192e+01"/><rect width="6.183575e+00" height="4.407419e+01" vector-effect="non-scaling-stroke" x="8.224155e+01" y="0"/><rect width="6.183575e+00" height="4.401527e+01" vector-effect="non-scaling-stroke" x="1.035749e+02" y="0"/><rect y="0" width="6.183575e+00" height="4.478232e+01" vector-effect="non-scaling-stroke" x="1.249082e+02"/><rect height="4.402965e+01" vector-effect="non-scaling-stroke" x="1.462415e+02" y="0" width="6.183575e+00"/><rect vector-effect="non-scaling-stroke" x="1.675749e+02" y="0" width="6.183575e+00" height="1.379508e+02"/><rect x="1.889082e+02" y="0" width="6.183575e+00" height="7.333799e+01" vector-effect="non-scaling-stroke"/><rect x="2.102415e+02" y="0" width="6.183575e+00" height="4.400571e+01" vector-effect="non-scaling-stroke"/><rect y="0" width="6.183575e+00" height="4.500481e+01" vector-effect="non-scaling-stroke" x="2.315749e+02"/><rect x="2.529082e+02" y="0" width="6.183575e+00" height="4.406728e+01" vector-effect="non-scaling-stroke"/><rect width="6.183575e+00" height="4.582177e+01" vector-effect="non-scaling-stroke" x="2.742415e+02" y="0"/><rect y="0" width="6.183575e+00" height="4.477711e+01" vector-effect="non-scaling-stroke" x="2.955749e+02"/><rect height="4.400973e+01" vector-effect="non-scaling-stroke" x="3.169082e+02" y="0" width="6.183575e+00"/><rect width="6.183575e+00" height="5.055640e+01" vector-effect="non-scaling-stroke" x="3.382415e+02" y="0"/><rect y="0" width="6.183575e+00" height="4.711601e+01" vector-effect="non-scaling-stroke" x="3.595749e+02"/><rect x="3.809082e+02" y="0" width="6.183575e+00" height="5.366698e+01" vector-effect="non-scaling-stroke"/><rect width="6.183575e+00" height="4.437240e+01" vector-effect="non-scaling-stroke" x="4.022415e+02" y="0"/><rect vector-effect="non-scaling-stroke" x="4.235749e+02" y="0" width="6.183575e+00" height="4.421326e+01"/><rect vector-effect="non-scaling-stroke" x="4.449082e+02" y="0" width="6.183575e+00" height="4.711187e+01"/><rect vector-effect="non-scaling-stroke" x="4.662415e+02" y="0" width="6.183575e+00" height="8.840898e+01"/><rect vector-effect="non-scaling-stroke" x="4.875749e+02" y="0" width="6.183575e+00" height="4.400005e+01"/><rect height="2.218956e+02" vector-effect="non-scaling-stroke" x="5.089082e+02" y="0" width="6.183575e+00"/></g><g stroke="hsl(260, 76%, 65%)" stroke-width="1px" stroke-linecap="round" stroke-linejoin="round" transform="translate(80 520 )scale(1 -1 )" fill="hsl(260, 76%, 65%)"><rect vector-effect="non-scaling-stroke" x="6.709179e+01" y="0" width="6.183575e+00" height="4.405432e+01"/><rect height="4.404062e+01" vector-effect="non-scaling-stroke" x="8.842512e+01" y="0" width="6.183575e+00"/><rect width="6.183575e+00" height="4.404221e+01" vector-effect="non-scaling-stroke" x="1.097585e+02" y="0"/><rect vector-effect="non-scaling-stroke" x="1.310918e+02" y="0" width="6.183575e+00" height="4.424780e+01"/><rect height="4.402243e+01" vector-effect="non-scaling-stroke" x="1.524251e+02" y="0" width="6.183575e+00"/><rect y="0" width="6.183575e+00" height="396" vector-effect="non-scaling-stroke" x="1.737585e+02"/><rect y="0" width="6.183575e+00" height="7.296160e+01" vector-effect="non-scaling-stroke" x="1.950918e+02"/><rect width="6.183575e+00" height="4.401023e+01" vector-effect="non-scaling-stroke" x="2.164251e+02" y="0"/></g><g stroke-linecap="round" font-weight="normal" stroke="hsl(198, 47%, 65%)" text-anchor="start" fill="hsl(198, 47%, 65%)" font-family="sans-serif" dominant-baseline="hanging" font-size="12px" font-style="normal" stroke-width="1px" stroke-linejoin="round"><rect y="466" width="12" height="12" vector-effect="non-scaling-stroke" x="736"/><g stroke="black" fill="black"><text vector-effect="non-scaling-stroke" x="752" y="466" dominant-baseline="hanging" stroke="none">Golang</text></g><g font-family="sans-serif" text-anchor="start" dominant-baseline="hanging" fill="hsl(49, 88%, 65%)" stroke-width="1px" stroke-linejoin="round" font-style="normal" font-weight="normal" font-size="12px" stroke="hsl(49, 88%, 65%)" stroke-linecap="round"><rect y="484" width="12" height="12" vector-effect="non-scaling-stroke" x="736"/><g stroke="black" fill="black"><text y="484" dominant-baseline="hanging" stroke="none" vector-effect="non-scaling-stroke" x="752">Rust</text></g><g font-style="normal" stroke-width="1px" font-family="sans-serif" text-anchor="start" dominant-baseline="hanging" font-size="12px" fill="hsl(260, 76%, 65%)" stroke-linejoin="round" stroke="hsl(260, 76%, 65%)" stroke-linecap="round" font-weight="normal"><rect height="12" vector-effect="non-scaling-stroke" x="736" y="502" width="12"/><g fill="black" stroke="black"><text x="752" y="502" dominant-baseline="hanging" stroke="none" vector-effect="non-scaling-stroke">Zig</text><g font-size="12px" stroke-width="2px" stroke-linejoin="round" font-weight="normal" fill="none" dominant-baseline="hanging" font-family="sans-serif" font-style="normal" text-anchor="start" stroke-linecap="round"><rect vector-effect="non-scaling-stroke" x="80" y="80" width="640" height="440"/></g><g font-size="12px" font-style="normal" transform="translate(80 520 )scale(1 -1 )" stroke="black" stroke-linejoin="round" text-anchor="start" dominant-baseline="hanging" fill="none" font-weight="normal" stroke-linecap="round" font-family="sans-serif" stroke-width="2px"><path vector-effect="non-scaling-stroke" d="M64,0 L64,-6 M8.533333e+01,0 L8.533333e+01,-6 M1.066667e+02,0 L1.066667e+02,-6 M128,0 L128,-6 M1.493333e+02,0 L1.493333e+02,-6 M1.706667e+02,0 L1.706667e+02,-6 M192,0 L192,-6 M2.133333e+02,0 L2.133333e+02,-6 M2.346667e+02,0 L2.346667e+02,-6 M256,0 L256,-6 M2.773333e+02,0 L2.773333e+02,-6 M2.986667e+02,0 L2.986667e+02,-6 M320,0 L320,-6 M3.413333e+02,0 L3.413333e+02,-6 M3.626667e+02,0 L3.626667e+02,-6 M384,0 L384,-6 M4.053333e+02,0 L4.053333e+02,-6 M4.266667e+02,0 L4.266667e+02,-6 M448,0 L448,-6 M4.693333e+02,0 L4.693333e+02,-6 M4.906667e+02,0 L4.906667e+02,-6 M512,0 L512,-6 M5.333333e+02,0 L5.333333e+02,-6 "/></g><g fill="black" transform="translate(80 520 )scale(1 1 )" font-style="normal" text-anchor="middle" font-size="12px" dominant-baseline="hanging" stroke-width="2px" stroke-linejoin="round" font-family="sans-serif" font-weight="normal" stroke="black" stroke-linecap="round"><text stroke="none" vector-effect="non-scaling-stroke" x="64" y="10" dominant-baseline="hanging">1</text><text x="8.533333e+01" y="10" dominant-baseline="hanging" stroke="none" vector-effect="non-scaling-stroke">2</text><text x="1.066667e+02" y="10" dominant-baseline="hanging" stroke="none" vector-effect="non-scaling-stroke">3</text><text x="128" y="10" dominant-baseline="hanging" stroke="none" vector-effect="non-scaling-stroke">4</text><text y="10" dominant-baseline="hanging" stroke="none" vector-effect="non-scaling-stroke" x="1.493333e+02">5</text><text vector-effect="non-scaling-stroke" x="1.706667e+02" y="10" dominant-baseline="hanging" stroke="none">6</text><text vector-effect="non-scaling-stroke" x="192" y="10" dominant-baseline="hanging" stroke="none">7</text><text stroke="none" vector-effect="non-scaling-stroke" x="2.133333e+02" y="10" dominant-baseline="hanging">8</text><text stroke="none" vector-effect="non-scaling-stroke" x="2.346667e+02" y="10" dominant-baseline="hanging">9</text><text vector-effect="non-scaling-stroke" x="256" y="10" dominant-baseline="hanging" stroke="none">10</text><text vector-effect="non-scaling-stroke" x="2.773333e+02" y="10" dominant-baseline="hanging" stroke="none">11</text><text y="10" dominant-baseline="hanging" stroke="none" vector-effect="non-scaling-stroke" x="2.986667e+02">12</text><text vector-effect="non-scaling-stroke" x="320" y="10" dominant-baseline="hanging" stroke="none">13</text><text stroke="none" vector-effect="non-scaling-stroke" x="3.413333e+02" y="10" dominant-baseline="hanging">14</text><text dominant-baseline="hanging" stroke="none" vector-effect="non-scaling-stroke" x="3.626667e+02" y="10">15</text><text stroke="none" vector-effect="non-scaling-stroke" x="384" y="10" dominant-baseline="hanging">16</text><text stroke="none" vector-effect="non-scaling-stroke" x="4.053333e+02" y="10" dominant-baseline="hanging">17</text><text x="4.266667e+02" y="10" dominant-baseline="hanging" stroke="none" vector-effect="non-scaling-stroke">18</text><text dominant-baseline="hanging" stroke="none" vector-effect="non-scaling-stroke" x="448" y="10">19</text><text stroke="none" vector-effect="non-scaling-stroke" x="4.693333e+02" y="10" dominant-baseline="hanging">20</text><text x="4.906667e+02" y="10" dominant-baseline="hanging" stroke="none" vector-effect="non-scaling-stroke">21</text><text stroke="none" vector-effect="non-scaling-stroke" x="512" y="10" dominant-baseline="hanging">22</text><text x="5.333333e+02" y="10" dominant-baseline="hanging" stroke="none" vector-effect="non-scaling-stroke">23</text></g><g font-family="sans-serif" stroke="black" stroke-linecap="round" font-size="12px" font-style="normal" font-weight="bold" fill="black" stroke-linejoin="round" transform="translate(80 520 )scale(1 1 )rotate(0 0 0 )" stroke-width="2px" text-anchor="middle" dominant-baseline="baseline"><text x="320" y="-6" dominant-baseline="baseline" stroke="none" vector-effect="non-scaling-stroke">Day</text></g><g stroke="black" stroke-linecap="round" font-family="sans-serif" dominant-baseline="baseline" stroke-linejoin="round" text-anchor="middle" font-size="12px" font-style="normal" font-weight="bold" transform="translate(80 520 )scale(1 -1 )" fill="black" stroke-width="2px"><path vector-effect="non-scaling-stroke" d="M0,44 L-6,44 M0,2.164388e+02 L-6,2.164388e+02 M0,3.888777e+02 L-6,3.888777e+02 "/></g><g font-weight="normal" transform="translate(80 520 )scale(1 1 )" fill="black" stroke-linejoin="round" text-anchor="end" stroke="black" stroke-linecap="round" font-size="12px" dominant-baseline="middle" font-style="normal" stroke-width="2px" font-family="sans-serif"><text dominant-baseline="middle" stroke="none" vector-effect="non-scaling-stroke" x="-10" y="-44">0s</text><text vector-effect="non-scaling-stroke" x="-10" y="-2.164388e+02" dominant-baseline="middle" stroke="none">100ms</text><text dominant-baseline="middle" stroke="none" vector-effect="non-scaling-stroke" x="-10" y="-3.888777e+02">200ms</text></g><g text-anchor="middle" stroke-width="2px" transform="translate(80 520 )scale(1 1 )rotate(-90 0 0 )" font-size="12px" font-family="sans-serif" stroke-linecap="round" dominant-baseline="hanging" fill="black" stroke-linejoin="round" font-style="normal" font-weight="bold" stroke="black"><text dominant-baseline="hanging" stroke="none" vector-effect="non-scaling-stroke" x="220" y="6">Runtime</text></g></g></g></g></g></svg>