<svg height="600" viewbox="0 0 800 600" preserveAspectRatio="xMidYMid meet" xmlns="http://www.w3.org/2000/svg" width="800"><defs><marker id="circle" viewBox="0 0 10 10 " refX="5" refY="5" markerUnits="userSpaceOnUse" markerWidth="2%" markerHeight="2%"><circle stroke="black" cx="5" cy="5" r="3" fill="none"/></marker><marker refY="5" markerUnits="userSpaceOnUse" markerWidth="2%" markerHeight="2%" id="filled-circle" viewBox="0 0 10 10 " refX="5"><circle fill="black" stroke="none" cx="5" cy="5" r="3"/></marker><marker refY="5" markerUnits="userSpaceOnUse" markerWidth="2%" markerHeight="2%" id="square" viewBox="0 0 10 10 " refX="5"><rect height="6" fill="none" stroke="black" x="2" y="2" width="6"/></marker><marker viewBox="0 0 10 10 " refX="5" refY="5" markerUnits="userSpaceOnUse" markerWidth="2%" markerHeight="2%" id="filled-square"><rect height="6" fill="black" stroke="none" x="2" y="2" width="6"/></marker></defs><g stroke="hsl(198, 47%, 65%)" stroke-width="1px" stroke-linecap="round" stroke-linejoin="round" transform="translate(80 520 )scale(1 -1 )" fill="hsl(198, 47%, 65%)"><rect width="1.015873e+01" height="4.423525e+01" vector-effect="non-scaling-stroke" x="5.384127e+01" y="0"/><rect height="4.423326e+01" vector-effect="non-scaling-stroke" x="7.517460e+01" y="0" width="1.015873e+01"/><rect vector-effect="non-scaling-stroke" x="9.650794e+01" y="0" width="1.015873e+01" height="4.414482e+01"/><rect height="4.533401e+01" vector-effect="non-scaling-stroke" x="1.178413e+02" y="0" width="1.015873e+01"/><rect width="1.015873e+01" height="4.414970e+01" vector-effect="non-scaling-stroke" x="1.391746e+02" y="0"/><rect x="1.605079e+02" y="0" width="1.015873e+01" height="396" vector-effect="non-scaling-stroke"/><rect height="1.265206e+02" vector-effect="non-scaling-stroke" x="1.818413e+02" y="0" width="1.015873e+01"/><rect y="0" width="1.015873e+01" height="4.403414e+01" vector-effect="non-scaling-stroke" x="2.031746e+02"/><rect height="4.626741e+01" vector-effect="non-scaling-stroke" x="2.245079e+02" y="0" width="1.015873e+01"/><rect height="4.455961e+01" vector-effect="non-scaling-stroke" x="2.458413e+02" y="0" width="1.015873e+01"/><rect height="5.078807e+01" vector-effect="non-scaling-stroke" x="2.671746e+02" y="0" width="1.015873e+01"/><rect width="1.015873e+01" height="4.690133e+01" vector-effect="non-scaling-stroke" x="2.885079e+02" y="0"/><rect width="1.015873e+01" height="4.403436e+01" vector-effect="non-scaling-stroke" x="3.098413e+02" y="0"/><rect width="1.015873e+01" height="7.156957e+01" vector-effect="non-scaling-stroke" x="3.311746e+02" y="0"/><rect y="0" width="1.015873e+01" height="4.723968e+01" vector-effect="non-scaling-stroke" x="3.525079e+02"/><rect height="1.121467e+02" vector-effect="non-scaling-stroke" x="3.738413e+02" y="0" width="1.015873e+01"/><rect y="0" width="1.015873e+01" height="4.409585e+01" vector-effect="non-scaling-stroke" x="3.951746e+02"/><rect y="0" width="1.015873e+01" height="4.501693e+01" vector-effect="non-scaling-stroke" x="4.165079e+02"/><rect y="0" width="1.015873e+01" height="5.086528e+01" vector-effect="non-scaling-stroke" x="4.378413e+02"/><rect y="0" width="1.015873e+01" height="1.421085e+02" vector-effect="non-scaling-stroke" x="4.591746e+02"/><rect height="4.607812e+01" vector-effect="non-scaling-stroke" x="4.805079e+02" y="0" width="1.015873e+01"/></g><g fill="hsl(49, 88%, 65%)" stroke="hsl(49, 88%, 65%)" stroke-width="1px" stroke-linecap="round" stroke-linejoin="round" transform="translate(80 520 )scale(1 -1 )"><rect y="0" width="1.015873e+01" height="4.422948e+01" vector-effect="non-scaling-stroke" x="64"/><rect height="4.421116e+01" vector-effect="non-scaling-stroke" x="8.533333e+01" y="0" width="1.015873e+01"/><rect y="0" width="1.015873e+01" height="4.404346e+01" vector-effect="non-scaling-stroke" x="1.066667e+02"/><rect vector-effect="non-scaling-stroke" x="128" y="0" width="1.015873e+01" height="4.622662e+01"/><rect vector-effect="non-scaling-stroke" x="1.493333e+02" y="0" width="1.015873e+01" height="4.408438e+01"/><rect width="1.015873e+01" height="3.114004e+02" vector-effect="non-scaling-stroke" x="1.706667e+02" y="0"/><rect height="1.275011e+02" vector-effect="non-scaling-stroke" x="192" y="0" width="1.015873e+01"/><rect vector-effect="non-scaling-stroke" x="2.133333e+02" y="0" width="1.015873e+01" height="4.401625e+01"/><rect height="4.690768e+01" vector-effect="non-scaling-stroke" x="2.346667e+02" y="0" width="1.015873e+01"/><rect height="4.418291e+01" vector-effect="non-scaling-stroke" x="2.560000e+02" y="0" width="1.015873e+01"/><rect height="4.918509e+01" vector-effect="non-scaling-stroke" x="2.773333e+02" y="0" width="1.015873e+01"/><rect height="4.621178e+01" vector-effect="non-scaling-stroke" x="2.986667e+02" y="0" width="1.015873e+01"/><rect height="4.402768e+01" vector-effect="non-scaling-stroke" x="320" y="0" width="1.015873e+01"/><rect width="1.015873e+01" height="6.266067e+01" vector-effect="non-scaling-stroke" x="3.413333e+02" y="0"/><rect vector-effect="non-scaling-stroke" x="3.626667e+02" y="0" width="1.015873e+01" height="5.329766e+01"/><rect height="9.482237e+01" vector-effect="non-scaling-stroke" x="384" y="0" width="1.015873e+01"/><rect height="4.487092e+01" vector-effect="non-scaling-stroke" x="4.053333e+02" y="0" width="1.015873e+01"/><rect x="4.266667e+02" y="0" width="1.015873e+01" height="4.460063e+01" vector-effect="non-scaling-stroke"/><rect vector-effect="non-scaling-stroke" x="448" y="0" width="1.015873e+01" height="5.337299e+01"/><rect width="1.015873e+01" height="1.703957e+02" vector-effect="non-scaling-stroke" x="4.693333e+02" y="0"/></g><g stroke-linejoin="round" font-family="sans-serif" font-weight="normal" dominant-baseline="hanging" fill="hsl(198, 47%, 65%)" stroke="hsl(198, 47%, 65%)" font-size="12px" text-anchor="start" stroke-width="1px" font-style="normal" stroke-linecap="round"><rect vector-effect="non-scaling-stroke" x="736" y="484" width="12" height="12"/><g stroke="black" fill="black"><text stroke="none" vector-effect="non-scaling-stroke" x="752" y="484" dominant-baseline="hanging">Golang</text></g><g fill="hsl(49, 88%, 65%)" stroke-width="1px" font-style="normal" font-size="12px" text-anchor="start" font-weight="normal" dominant-baseline="hanging" font-family="sans-serif" stroke="hsl(49, 88%, 65%)" stroke-linecap="round" stroke-linejoin="round"><rect x="736" y="502" width="12" height="12" vector-effect="non-scaling-stroke"/><g fill="black" stroke="black"><text stroke="none" vector-effect="non-scaling-stroke" x="752" y="502" dominant-baseline="hanging">Rust</text><g stroke-linejoin="round" font-size="12px" font-weight="normal" stroke-linecap="round" dominant-baseline="hanging" fill="none" stroke-width="2px" font-style="normal" text-anchor="start" font-family="sans-serif"><rect y="80" width="640" height="440" vector-effect="non-scaling-stroke" x="80"/></g><g stroke="black" font-size="12px" transform="translate(80 520 )scale(1 -1 )" dominant-baseline="hanging" stroke-width="2px" stroke-linecap="round" stroke-linejoin="round" font-family="sans-serif" text-anchor="start" fill="none" font-style="normal" font-weight="normal"><path d="M64,0 L64,-6 M8.533333e+01,0 L8.533333e+01,-6 M1.066667e+02,0 L1.066667e+02,-6 M128,0 L128,-6 M1.493333e+02,0 L1.493333e+02,-6 M1.706667e+02,0 L1.706667e+02,-6 M192,0 L192,-6 M2.133333e+02,0 L2.133333e+02,-6 M2.346667e+02,0 L2.346667e+02,-6 M256,0 L256,-6 M2.773333e+02,0 L2.773333e+02,-6 M2.986667e+02,0 L2.986667e+02,-6 M320,0 L320,-6 M3.413333e+02,0 L3.413333e+02,-6 M3.626667e+02,0 L3.626667e+02,-6 M384,0 L384,-6 M4.053333e+02,0 L4.053333e+02,-6 M4.266667e+02,0 L4.266667e+02,-6 M448,0 L448,-6 M4.693333e+02,0 L4.693333e+02,-6 M4.906667e+02,0 L4.906667e+02,-6 " vector-effect="non-scaling-stroke"/></g><g stroke-width="2px" stroke-linecap="round" font-family="sans-serif" font-style="normal" font-weight="normal" fill="black" stroke="black" text-anchor="middle" transform="translate(80 520 )scale(1 1 )" stroke-linejoin="round" dominant-baseline="hanging" font-size="12px"><text vector-effect="non-scaling-stroke" x="64" y="10" dominant-baseline="hanging" stroke="none">1</text><text x="8.533333e+01" y="10" dominant-baseline="hanging" stroke="none" vector-effect="non-scaling-stroke">2</text><text stroke="none" vector-effect="non-scaling-stroke" x="1.066667e+02" y="10" dominant-baseline="hanging">3</text><text y="10" dominant-baseline="hanging" stroke="none" vector-effect="non-scaling-stroke" x="128">4</text><text stroke="none" vector-effect="non-scaling-stroke" x="1.493333e+02" y="10" dominant-baseline="hanging">5</text><text y="10" dominant-baseline="hanging" stroke="none" vector-effect="non-scaling-stroke" x="1.706667e+02">6</text><text dominant-baseline="hanging" stroke="none" vector-effect="non-scaling-stroke" x="192" y="10">7</text><text dominant-baseline="hanging" stroke="none" vector-effect="non-scaling-stroke" x="2.133333e+02" y="10">8</text><text dominant-baseline="hanging" stroke="none" vector-effect="non-scaling-stroke" x="2.346667e+02" y="10">9</text><text y="10" dominant-baseline="hanging" stroke="none" vector-effect="non-scaling-stroke" x="256">10</text><text vector-effect="non-scaling-stroke" x="2.773333e+02" y="10" dominant-baseline="hanging" stroke="none">11</text><text stroke="none" vector-effect="non-scaling-stroke" x="2.986667e+02" y="10" dominant-baseline="hanging">12</text><text vector-effect="non-scaling-stroke" x="320" y="10" dominant-baseline="hanging" stroke="none">13</text><text x="3.413333e+02" y="10" dominant-baseline="hanging" stroke="none" vector-effect="non-scaling-stroke">14</text><text x="3.626667e+02" y="10" dominant-baseline="hanging" stroke="none" vector-effect="non-scaling-stroke">15</text><text stroke="none" vector-effect="non-scaling-stroke" x="384" y="10" dominant-baseline="hanging">16</text><text stroke="none" vector-effect="non-scaling-stroke" x="4.053333e+02" y="10" dominant-baseline="hanging">17</text><text vector-effect="non-scaling-stroke" x="4.266667e+02" y="10" dominant-baseline="hanging" stroke="none">18</text><text y="10" dominant-baseline="hanging" stroke="none" vector-effect="non-scaling-stroke" x="448">19</text><text x="4.693333e+02" y="10" dominant-baseline="hanging" stroke="none" vector-effect="non-scaling-stroke">20</text><text stroke="none" vector-effect="non-scaling-stroke" x="4.906667e+02" y="10" dominant-baseline="hanging">21</text></g><g font-weight="bold" stroke="black" dominant-baseline="baseline" fill="black" stroke-width="2px" stroke-linecap="round" stroke-linejoin="round" font-family="sans-serif" font-size="12px" text-anchor="middle" font-style="normal" transform="translate(80 520 )scale(1 1 )rotate(0 0 0 )"><text x="320" y="-6" dominant-baseline="baseline" stroke="none" vector-effect="non-scaling-stroke">Day</text></g><g font-weight="bold" dominant-baseline="baseline" fill="black" stroke-linecap="round" stroke-linejoin="round" stroke="black" font-style="normal" stroke-width="2px" font-family="sans-serif" font-size="12px" text-anchor="middle" transform="translate(80 520 )scale(1 -1 )"><path d="M0,44 L-6,44 M0,9.307912e+01 L-6,9.307912e+01 M0,1.421582e+02 L-6,1.421582e+02 M0,1.912374e+02 L-6,1.912374e+02 M0,2.403165e+02 L-6,2.403165e+02 M0,2.893956e+02 L-6,2.893956e+02 M0,3.384747e+02 L-6,3.384747e+02 M0,3.875538e+02 L-6,3.875538e+02 " vector-effect="non-scaling-stroke"/></g><g font-family="sans-serif" stroke="black" font-size="12px" transform="translate(80 520 )scale(1 1 )" dominant-baseline="middle" fill="black" stroke-linecap="round" font-style="normal" text-anchor="end" font-weight="normal" stroke-width="2px" stroke-linejoin="round"><text vector-effect="non-scaling-stroke" x="-10" y="-44" dominant-baseline="middle" stroke="none">0s</text><text y="-9.307912e+01" dominant-baseline="middle" stroke="none" vector-effect="non-scaling-stroke" x="-10">10ms</text><text stroke="none" vector-effect="non-scaling-stroke" x="-10" y="-1.421582e+02" dominant-baseline="middle">20ms</text><text dominant-baseline="middle" stroke="none" vector-effect="non-scaling-stroke" x="-10" y="-1.912374e+02">30ms</text><text dominant-baseline="middle" stroke="none" vector-effect="non-scaling-stroke" x="-10" y="-2.403165e+02">40ms</text><text vector-effect="non-scaling-stroke" x="-10" y="-2.893956e+02" dominant-baseline="middle" stroke="none">50ms</text><text dominant-baseline="middle" stroke="none" vector-effect="non-scaling-stroke" x="-10" y="-3.384747e+02">60ms</text><text vector-effect="non-scaling-stroke" x="-10" y="-3.875538e+02" dominant-baseline="middle" stroke="none">70ms</text></g><g text-anchor="middle" transform="translate(80 520 )scale(1 1 )rotate(-90 0 0 )" stroke-width="2px" stroke-linejoin="round" font-weight="bold" dominant-baseline="hanging" stroke="black" font-size="12px" font-family="sans-serif" font-style="normal" fill="black" stroke-linecap="round"><text stroke="none" vector-effect="non-scaling-stroke" x="220" y="6" dominant-baseline="hanging">Runtime</text></g></g></g></g></svg>