<svg height="600" viewbox="0 0 800 600" preserveAspectRatio="xMidYMid meet" xmlns="http://www.w3.org/2000/svg" width="800"><defs><marker markerHeight="2%" id="circle" viewBox="0 0 10 10 " refX="5" refY="5" markerUnits="userSpaceOnUse" markerWidth="2%"><circle cx="5" cy="5" r="3" fill="none" stroke="black"/></marker><marker viewBox="0 0 10 10 " refX="5" refY="5" markerUnits="userSpaceOnUse" markerWidth="2%" markerHeight="2%" id="filled-circle"><circle stroke="none" cx="5" cy="5" r="3" fill="black"/></marker><marker refX="5" refY="5" markerUnits="userSpaceOnUse" markerWidth="2%" markerHeight="2%" id="square" viewBox="0 0 10 10 "><rect width="6" height="6" fill="none" stroke="black" x="2" y="2"/></marker><marker viewBox="0 0 10 10 " refX="5" refY="5" markerUnits="userSpaceOnUse" markerWidth="2%" markerHeight="2%" id="filled-square"><rect height="6" fill="black" stroke="none" x="2" y="2" width="6"/></marker></defs><g stroke-linecap="round" stroke-linejoin="round" transform="translate(80 520 )scale(1 -1 )" fill="hsl(198, 47%, 65%)" stroke="hsl(198, 47%, 65%)" stroke-width="1px"><rect y="0" width="3.413333e+00" height="4.410585e+01" vector-effect="non-scaling-stroke" x="5.546667e+01"/><rect height="4.402472e+01" vector-effect="non-scaling-stroke" x="7.680000e+01" y="0" width="3.413333e+00"/><rect vector-effect="non-scaling-stroke" x="9.813333e+01" y="0" width="3.413333e+00" height="4.405754e+01"/></g><g stroke-width="1px" stroke-linecap="round" stroke-linejoin="round" transform="translate(80 520 )scale(1 -1 )" fill="hsl(49, 88%, 65%)" stroke="hsl(49, 88%, 65%)"><rect height="4.403052e+01" vector-effect="non-scaling-stroke" x="5.888000e+01" y="0" width="3.413333e+00"/><rect y="0" width="3.413333e+00" height="4.400044e+01" vector-effect="non-scaling-stroke" x="8.021333e+01"/><rect height="4.401220e+01" vector-effect="non-scaling-stroke" x="1.015467e+02" y="0" width="3.413333e+00"/><rect width="3.413333e+00" height="4.406251e+01" vector-effect="non-scaling-stroke" x="1.228800e+02" y="0"/><rect x="1.442133e+02" y="0" width="3.413333e+00" height="4.508927e+01" vector-effect="non-scaling-stroke"/><rect y="0" width="3.413333e+00" height="4.400051e+01" vector-effect="non-scaling-stroke" x="1.655467e+02"/><rect x="1.868800e+02" y="0" width="3.413333e+00" height="4.402498e+01" vector-effect="non-scaling-stroke"/><rect vector-effect="non-scaling-stroke" x="2.082133e+02" y="0" width="3.413333e+00" height="4.413281e+01"/><rect y="0" width="3.413333e+00" height="4.427518e+01" vector-effect="non-scaling-stroke" x="2.295467e+02"/><rect height="4.400682e+01" vector-effect="non-scaling-stroke" x="2.508800e+02" y="0" width="3.413333e+00"/><rect width="3.413333e+00" height="4.423802e+01" vector-effect="non-scaling-stroke" x="2.722133e+02" y="0"/><rect width="3.413333e+00" height="4.491362e+01" vector-effect="non-scaling-stroke" x="2.935467e+02" y="0"/><rect vector-effect="non-scaling-stroke" x="3.148800e+02" y="0" width="3.413333e+00" height="4.410464e+01"/><rect y="0" width="3.413333e+00" height="4.413796e+01" vector-effect="non-scaling-stroke" x="3.362133e+02"/><rect vector-effect="non-scaling-stroke" x="3.575467e+02" y="0" width="3.413333e+00" height="6.005092e+01"/><rect vector-effect="non-scaling-stroke" x="3.788800e+02" y="0" width="3.413333e+00" height="4.400500e+01"/><rect y="0" width="3.413333e+00" height="4.465910e+01" vector-effect="non-scaling-stroke" x="4.002133e+02"/><rect vector-effect="non-scaling-stroke" x="4.215467e+02" y="0" width="3.413333e+00" height="5.820003e+01"/><rect width="3.413333e+00" height="3.120484e+02" vector-effect="non-scaling-stroke" x="4.428800e+02" y="0"/><rect width="3.413333e+00" height="5.189396e+01" vector-effect="non-scaling-stroke" x="4.642133e+02" y="0"/><rect vector-effect="non-scaling-stroke" x="4.855467e+02" y="0" width="3.413333e+00" height="4.531949e+01"/><rect vector-effect="non-scaling-stroke" x="5.068800e+02" y="0" width="3.413333e+00" height="4.782139e+01"/><rect vector-effect="non-scaling-stroke" x="5.282133e+02" y="0" width="3.413333e+00" height="1.951494e+02"/><rect height="4.400083e+01" vector-effect="non-scaling-stroke" x="5.495467e+02" y="0" width="3.413333e+00"/><rect vector-effect="non-scaling-stroke" x="5.708800e+02" y="0" width="3.413333e+00" height="6.079170e+01"/></g><g fill="hsl(260, 76%, 65%)" stroke="hsl(260, 76%, 65%)" stroke-width="1px" stroke-linecap="round" stroke-linejoin="round" transform="translate(80 520 )scale(1 -1 )"><rect vector-effect="non-scaling-stroke" x="6.229333e+01" y="0" width="3.413333e+00" height="4.460048e+01"/><rect vector-effect="non-scaling-stroke" x="8.362667e+01" y="0" width="3.413333e+00" height="4.436391e+01"/><rect width="3.413333e+00" height="4.455350e+01" vector-effect="non-scaling-stroke" x="1.049600e+02" y="0"/></g><g fill="hsl(111, 64%, 65%)" stroke="hsl(111, 64%, 65%)" stroke-width="1px" stroke-linecap="round" stroke-linejoin="round" transform="translate(80 520 )scale(1 -1 )"><rect vector-effect="non-scaling-stroke" x="6.570667e+01" y="0" width="3.413333e+00" height="4.400900e+01"/><rect y="0" width="3.413333e+00" height="4.400042e+01" vector-effect="non-scaling-stroke" x="8.704000e+01"/><rect x="1.083733e+02" y="0" width="3.413333e+00" height="4.400959e+01" vector-effect="non-scaling-stroke"/><rect height="4.402786e+01" vector-effect="non-scaling-stroke" x="1.297067e+02" y="0" width="3.413333e+00"/><rect vector-effect="non-scaling-stroke" x="1.510400e+02" y="0" width="3.413333e+00" height="4.418077e+01"/><rect x="1.723733e+02" y="0" width="3.413333e+00" height="4.400046e+01" vector-effect="non-scaling-stroke"/><rect height="4.401162e+01" vector-effect="non-scaling-stroke" x="1.937067e+02" y="0" width="3.413333e+00"/><rect y="0" width="3.413333e+00" height="4.400836e+01" vector-effect="non-scaling-stroke" x="2.150400e+02"/><rect vector-effect="non-scaling-stroke" x="2.363733e+02" y="0" width="3.413333e+00" height="4.405064e+01"/><rect y="0" width="3.413333e+00" height="4.401441e+01" vector-effect="non-scaling-stroke" x="2.577067e+02"/><rect height="4.406238e+01" vector-effect="non-scaling-stroke" x="2.790400e+02" y="0" width="3.413333e+00"/><rect width="3.413333e+00" height="4.633411e+01" vector-effect="non-scaling-stroke" x="3.003733e+02" y="0"/><rect height="4.414147e+01" vector-effect="non-scaling-stroke" x="3.217067e+02" y="0" width="3.413333e+00"/><rect y="0" width="3.413333e+00" height="4.400797e+01" vector-effect="non-scaling-stroke" x="3.430400e+02"/><rect x="3.643733e+02" y="0" width="3.413333e+00" height="7.231552e+01" vector-effect="non-scaling-stroke"/><rect width="3.413333e+00" height="4.400313e+01" vector-effect="non-scaling-stroke" x="3.857067e+02" y="0"/><rect y="0" width="3.413333e+00" height="4.481472e+01" vector-effect="non-scaling-stroke" x="4.070400e+02"/><rect vector-effect="non-scaling-stroke" x="4.283733e+02" y="0" width="3.413333e+00" height="5.610757e+01"/><rect height="4.934652e+01" vector-effect="non-scaling-stroke" x="4.497067e+02" y="0" width="3.413333e+00"/><rect y="0" width="3.413333e+00" height="5.437970e+01" vector-effect="non-scaling-stroke" x="4.710400e+02"/><rect y="0" width="3.413333e+00" height="4.400057e+01" vector-effect="non-scaling-stroke" x="4.923733e+02"/><rect height="4.982739e+01" vector-effect="non-scaling-stroke" x="5.137067e+02" y="0" width="3.413333e+00"/><rect y="0" width="3.413333e+00" height="396" vector-effect="non-scaling-stroke" x="5.350400e+02"/><rect vector-effect="non-scaling-stroke" x="5.563733e+02" y="0" width="3.413333e+00" height="4.400479e+01"/><rect height="5.843428e+01" vector-effect="non-scaling-stroke" x="5.777067e+02" y="0" width="3.413333e+00"/></g><g stroke-linecap="round" stroke-linejoin="round" transform="translate(80 520 )scale(1 -1 )" fill="hsl(322, 52%, 65%)" stroke="hsl(322, 52%, 65%)" stroke-width="1px"><rect x="6.912000e+01" y="0" width="3.413333e+00" height="4.400265e+01" vector-effect="non-scaling-stroke"/><rect y="0" width="3.413333e+00" height="4.400037e+01" vector-effect="non-scaling-stroke" x="9.045333e+01"/><rect y="0" width="3.413333e+00" height="4.402567e+01" vector-effect="non-scaling-stroke" x="1.117867e+02"/><rect height="4.402708e+01" vector-effect="non-scaling-stroke" x="1.331200e+02" y="0" width="3.413333e+00"/><rect y="0" width="3.413333e+00" height="4.433611e+01" vector-effect="non-scaling-stroke" x="1.544533e+02"/><rect y="0" width="3.413333e+00" height="4.400045e+01" vector-effect="non-scaling-stroke" x="1.757867e+02"/><rect width="3.413333e+00" height="4.401349e+01" vector-effect="non-scaling-stroke" x="1.971200e+02" y="0"/><rect x="2.184533e+02" y="0" width="3.413333e+00" height="4.453233e+01" vector-effect="non-scaling-stroke"/><rect x="2.397867e+02" y="0" width="3.413333e+00" height="4.406036e+01" vector-effect="non-scaling-stroke"/><rect width="3.413333e+00" height="4.401332e+01" vector-effect="non-scaling-stroke" x="2.611200e+02" y="0"/><rect height="4.403594e+01" vector-effect="non-scaling-stroke" x="2.824533e+02" y="0" width="3.413333e+00"/><rect width="3.413333e+00" height="4.407570e+01" vector-effect="non-scaling-stroke" x="3.037867e+02" y="0"/><rect vector-effect="non-scaling-stroke" x="3.251200e+02" y="0" width="3.413333e+00" height="4.413216e+01"/><rect vector-effect="non-scaling-stroke" x="3.464533e+02" y="0" width="3.413333e+00" height="4.403300e+01"/><rect width="3.413333e+00" height="4.941783e+01" vector-effect="non-scaling-stroke" x="3.677867e+02" y="0"/><rect height="4.415838e+01" vector-effect="non-scaling-stroke" x="3.891200e+02" y="0" width="3.413333e+00"/><rect height="4.473756e+01" vector-effect="non-scaling-stroke" x="4.104533e+02" y="0" width="3.413333e+00"/><rect width="3.413333e+00" height="4.710524e+01" vector-effect="non-scaling-stroke" x="4.317867e+02" y="0"/><rect x="4.957867e+02" y="0" width="3.413333e+00" height="4.410357e+01" vector-effect="non-scaling-stroke"/></g><g stroke-width="1px" dominant-baseline="hanging" font-family="sans-serif" font-size="12px" fill="hsl(198, 47%, 65%)" stroke="hsl(198, 47%, 65%)" font-style="normal" text-anchor="start" stroke-linecap="round" stroke-linejoin="round" font-weight="normal"><rect vector-effect="non-scaling-stroke" x="736" y="430" width="12" height="12"/><g fill="black" stroke="black"><text vector-effect="non-scaling-stroke" x="752" y="430" dominant-baseline="hanging" stroke="none">Crystal</text></g><g stroke-width="1px" font-family="sans-serif" font-size="12px" stroke="hsl(49, 88%, 65%)" text-anchor="start" fill="hsl(49, 88%, 65%)" stroke-linejoin="round" font-weight="normal" dominant-baseline="hanging" stroke-linecap="round" font-style="normal"><rect vector-effect="non-scaling-stroke" x="736" y="448" width="12" height="12"/><g fill="black" stroke="black"><text vector-effect="non-scaling-stroke" x="752" y="448" dominant-baseline="hanging" stroke="none">Golang</text></g><g stroke-width="1px" stroke-linejoin="round" fill="hsl(260, 76%, 65%)" stroke="hsl(260, 76%, 65%)" stroke-linecap="round" font-family="sans-serif" font-size="12px" font-weight="normal" dominant-baseline="hanging" font-style="normal" text-anchor="start"><rect width="12" height="12" vector-effect="non-scaling-stroke" x="736" y="466"/><g fill="black" stroke="black"><text x="752" y="466" dominant-baseline="hanging" stroke="none" vector-effect="non-scaling-stroke">Haskell</text></g><g stroke-linecap="round" font-family="sans-serif" fill="hsl(111, 64%, 65%)" stroke-width="1px" font-style="normal" font-weight="normal" stroke-linejoin="round" font-size="12px" text-anchor="start" stroke="hsl(111, 64%, 65%)" dominant-baseline="hanging"><rect vector-effect="non-scaling-stroke" x="736" y="484" width="12" height="12"/><g fill="black" stroke="black"><text stroke="none" vector-effect="non-scaling-stroke" x="752" y="484" dominant-baseline="hanging">Rust</text></g><g dominant-baseline="hanging" stroke-linecap="round" font-style="normal" text-anchor="start" fill="hsl(322, 52%, 65%)" stroke="hsl(322, 52%, 65%)" font-family="sans-serif" font-size="12px" font-weight="normal" stroke-linejoin="round" stroke-width="1px"><rect vector-effect="non-scaling-stroke" x="736" y="502" width="12" height="12"/><g fill="black" stroke="black"><text x="752" y="502" dominant-baseline="hanging" stroke="none" vector-effect="non-scaling-stroke">Zig</text><g text-anchor="start" stroke-linecap="round" font-style="normal" font-weight="normal" fill="none" font-size="12px" stroke-width="2px" dominant-baseline="hanging" stroke-linejoin="round" font-family="sans-serif"><rect x="80" y="80" width="640" height="440" vector-effect="non-scaling-stroke"/></g><g stroke-linejoin="round" font-family="sans-serif" font-size="12px" dominant-baseline="hanging" stroke-width="2px" stroke-linecap="round" font-weight="normal" fill="none" stroke="black" font-style="normal" text-anchor="start" transform="translate(80 520 )scale(1 -1 )"><path vector-effect="non-scaling-stroke" d="M64,0 L64,-6 M8.533333e+01,0 L8.533333e+01,-6 M1.066667e+02,0 L1.066667e+02,-6 "/></g><g fill="black" font-family="sans-serif" dominant-baseline="hanging" transform="translate(80 520 )scale(1 1 )" stroke-linecap="round" font-style="normal" stroke-width="2px" text-anchor="middle" stroke-linejoin="round" font-size="12px" font-weight="normal" stroke="black"><text vector-effect="non-scaling-stroke" x="64" y="10" dominant-baseline="hanging" stroke="none">1</text><text y="10" dominant-baseline="hanging" stroke="none" vector-effect="non-scaling-stroke" x="8.533333e+01">2</text><text x="1.066667e+02" y="10" dominant-baseline="hanging" stroke="none" vector-effect="non-scaling-stroke">3</text></g><g stroke="black" text-anchor="middle" stroke-linecap="round" font-family="sans-serif" fill="black" dominant-baseline="baseline" transform="translate(80 520 )scale(1 1 )rotate(0 0 0 )" stroke-width="2px" font-style="normal" stroke-linejoin="round" font-size="12px" font-weight="bold"><text vector-effect="non-scaling-stroke" x="320" y="-6" dominant-baseline="baseline" stroke="none">Day</text></g><g stroke="black" stroke-width="2px" font-style="normal" font-weight="bold" stroke-linejoin="round" font-family="sans-serif" font-size="12px" text-anchor="middle" dominant-baseline="baseline" transform="translate(80 520 )scale(1 -1 )" stroke-linecap="round" fill="black"><path vector-effect="non-scaling-stroke" d="M0,44 L-6,44 M0,9.506087e+01 L-6,9.506087e+01 M0,1.461217e+02 L-6,1.461217e+02 M0,1.971826e+02 L-6,1.971826e+02 M0,2.482435e+02 L-6,2.482435e+02 M0,2.993044e+02 L-6,2.993044e+02 M0,3.503652e+02 L-6,3.503652e+02 "/></g><g fill="black" stroke-width="2px" font-style="normal" font-size="12px" font-weight="normal" dominant-baseline="middle" transform="translate(80 520 )scale(1 1 )" text-anchor="end" stroke-linecap="round" stroke-linejoin="round" font-family="sans-serif" stroke="black"><text stroke="none" vector-effect="non-scaling-stroke" x="-10" y="-44" dominant-baseline="middle">0s</text><text x="-10" y="-9.506087e+01" dominant-baseline="middle" stroke="none" vector-effect="non-scaling-stroke">100ms</text><text vector-effect="non-scaling-stroke" x="-10" y="-1.461217e+02" dominant-baseline="middle" stroke="none">200ms</text><text x="-10" y="-1.971826e+02" dominant-baseline="middle" stroke="none" vector-effect="non-scaling-stroke">300ms</text><text stroke="none" vector-effect="non-scaling-stroke" x="-10" y="-2.482435e+02" dominant-baseline="middle">400ms</text><text x="-10" y="-2.993044e+02" dominant-baseline="middle" stroke="none" vector-effect="non-scaling-stroke">500ms</text><text stroke="none" vector-effect="non-scaling-stroke" x="-10" y="-3.503652e+02" dominant-baseline="middle">600ms</text></g><g stroke="black" font-style="normal" text-anchor="middle" stroke-linecap="round" fill="black" stroke-width="2px" stroke-linejoin="round" font-family="sans-serif" font-size="12px" font-weight="bold" dominant-baseline="hanging" transform="translate(80 520 )scale(1 1 )rotate(-90 0 0 )"><text vector-effect="non-scaling-stroke" x="220" y="6" dominant-baseline="hanging" stroke="none">Runtime</text></g></g></g></g></g></g></g></svg>