<svg height="600" viewbox="0 0 800 600" preserveAspectRatio="xMidYMid meet" xmlns="http://www.w3.org/2000/svg" width="800"><defs><marker markerWidth="2%" markerHeight="2%" id="circle" viewBox="0 0 10 10 " refX="5" refY="5" markerUnits="userSpaceOnUse"><circle fill="none" stroke="black" cx="5" cy="5" r="3"/></marker><marker id="filled-circle" viewBox="0 0 10 10 " refX="5" refY="5" markerUnits="userSpaceOnUse" markerWidth="2%" markerHeight="2%"><circle fill="black" stroke="none" cx="5" cy="5" r="3"/></marker><marker id="square" viewBox="0 0 10 10 " refX="5" refY="5" markerUnits="userSpaceOnUse" markerWidth="2%" markerHeight="2%"><rect x="2" y="2" width="6" height="6" fill="none" stroke="black"/></marker><marker viewBox="0 0 10 10 " refX="5" refY="5" markerUnits="userSpaceOnUse" markerWidth="2%" markerHeight="2%" id="filled-square"><rect height="6" fill="black" stroke="none" x="2" y="2" width="6"/></marker></defs><g fill="hsl(198, 47%, 65%)" stroke="hsl(198, 47%, 65%)" stroke-width="1px" stroke-linecap="round" stroke-linejoin="round" transform="translate(80 520 )scale(1 -1 )"><rect x="5.546667e+01" y="0" width="5.688889e+00" height="4.417128e+01" vector-effect="non-scaling-stroke"/><rect vector-effect="non-scaling-stroke" x="7.680000e+01" y="0" width="5.688889e+00" height="4.417247e+01"/><rect vector-effect="non-scaling-stroke" x="9.813333e+01" y="0" width="5.688889e+00" height="4.410553e+01"/><rect vector-effect="non-scaling-stroke" x="1.194667e+02" y="0" width="5.688889e+00" height="4.498633e+01"/><rect vector-effect="non-scaling-stroke" x="1.408000e+02" y="0" width="5.688889e+00" height="4.411068e+01"/><rect y="0" width="5.688889e+00" height="6.193465e+01" vector-effect="non-scaling-stroke" x="1.621333e+02"/><rect width="5.688889e+00" height="4.504542e+01" vector-effect="non-scaling-stroke" x="1.834667e+02" y="0"/><rect width="5.688889e+00" height="4.402462e+01" vector-effect="non-scaling-stroke" x="2.048000e+02" y="0"/><rect height="4.567645e+01" vector-effect="non-scaling-stroke" x="2.261333e+02" y="0" width="5.688889e+00"/><rect height="4.441399e+01" vector-effect="non-scaling-stroke" x="2.474667e+02" y="0" width="5.688889e+00"/><rect vector-effect="non-scaling-stroke" x="2.688000e+02" y="0" width="5.688889e+00" height="4.888943e+01"/><rect vector-effect="non-scaling-stroke" x="2.901333e+02" y="0" width="5.688889e+00" height="4.614516e+01"/><rect height="4.402619e+01" vector-effect="non-scaling-stroke" x="3.114667e+02" y="0" width="5.688889e+00"/><rect width="5.688889e+00" height="4.497316e+01" vector-effect="non-scaling-stroke" x="3.328000e+02" y="0"/><rect width="5.688889e+00" height="4.619893e+01" vector-effect="non-scaling-stroke" x="3.541333e+02" y="0"/><rect width="5.688889e+00" height="4.605068e+01" vector-effect="non-scaling-stroke" x="3.754667e+02" y="0"/><rect height="4.407043e+01" vector-effect="non-scaling-stroke" x="3.968000e+02" y="0" width="5.688889e+00"/><rect vector-effect="non-scaling-stroke" x="4.181333e+02" y="0" width="5.688889e+00" height="4.474688e+01"/><rect y="0" width="5.688889e+00" height="4.907598e+01" vector-effect="non-scaling-stroke" x="4.394667e+02"/><rect height="1.163107e+02" vector-effect="non-scaling-stroke" x="4.608000e+02" y="0" width="5.688889e+00"/><rect x="4.821333e+02" y="0" width="5.688889e+00" height="4.400023e+01" vector-effect="non-scaling-stroke"/><rect vector-effect="non-scaling-stroke" x="5.034667e+02" y="0" width="5.688889e+00" height="8.467199e+01"/><rect vector-effect="non-scaling-stroke" x="5.248000e+02" y="0" width="5.688889e+00" height="9.007431e+01"/><rect y="0" width="5.688889e+00" height="4.415419e+01" vector-effect="non-scaling-stroke" x="5.461333e+02"/><rect height="4.501148e+01" vector-effect="non-scaling-stroke" x="5.674667e+02" y="0" width="5.688889e+00"/></g><g fill="hsl(49, 88%, 65%)" stroke="hsl(49, 88%, 65%)" stroke-width="1px" stroke-linecap="round" stroke-linejoin="round" transform="translate(80 520 )scale(1 -1 )"><rect x="6.115556e+01" y="0" width="5.688889e+00" height="4.406716e+01" vector-effect="non-scaling-stroke"/><rect width="5.688889e+00" height="4.415613e+01" vector-effect="non-scaling-stroke" x="8.248889e+01" y="0"/><rect x="1.038222e+02" y="0" width="5.688889e+00" height="4.403213e+01" vector-effect="non-scaling-stroke"/><rect height="4.564630e+01" vector-effect="non-scaling-stroke" x="1.251556e+02" y="0" width="5.688889e+00"/><rect height="4.406239e+01" vector-effect="non-scaling-stroke" x="1.464889e+02" y="0" width="5.688889e+00"/><rect vector-effect="non-scaling-stroke" x="1.678222e+02" y="0" width="5.688889e+00" height="5.773154e+01"/><rect height="4.488096e+01" vector-effect="non-scaling-stroke" x="1.891556e+02" y="0" width="5.688889e+00"/><rect height="4.401201e+01" vector-effect="non-scaling-stroke" x="2.104889e+02" y="0" width="5.688889e+00"/><rect vector-effect="non-scaling-stroke" x="2.318222e+02" y="0" width="5.688889e+00" height="4.600273e+01"/><rect width="5.688889e+00" height="4.414159e+01" vector-effect="non-scaling-stroke" x="2.531556e+02" y="0"/><rect y="0" width="5.688889e+00" height="4.783370e+01" vector-effect="non-scaling-stroke" x="2.744889e+02"/><rect width="5.688889e+00" height="4.563532e+01" vector-effect="non-scaling-stroke" x="2.958222e+02" y="0"/><rect width="5.688889e+00" height="4.402047e+01" vector-effect="non-scaling-stroke" x="3.171556e+02" y="0"/><rect height="5.779714e+01" vector-effect="non-scaling-stroke" x="3.384889e+02" y="0" width="5.688889e+00"/><rect vector-effect="non-scaling-stroke" x="3.598222e+02" y="0" width="5.688889e+00" height="5.055727e+01"/><rect height="6.434297e+01" vector-effect="non-scaling-stroke" x="3.811556e+02" y="0" width="5.688889e+00"/><rect vector-effect="non-scaling-stroke" x="4.024889e+02" y="0" width="5.688889e+00" height="4.478366e+01"/><rect x="4.238222e+02" y="0" width="5.688889e+00" height="4.444878e+01" vector-effect="non-scaling-stroke"/><rect vector-effect="non-scaling-stroke" x="4.451556e+02" y="0" width="5.688889e+00" height="5.054855e+01"/><rect height="1.374532e+02" vector-effect="non-scaling-stroke" x="4.664889e+02" y="0" width="5.688889e+00"/><rect height="4.400010e+01" vector-effect="non-scaling-stroke" x="4.878222e+02" y="0" width="5.688889e+00"/><rect vector-effect="non-scaling-stroke" x="5.091556e+02" y="0" width="5.688889e+00" height="396"/><rect width="5.688889e+00" height="4.597104e+01" vector-effect="non-scaling-stroke" x="5.304889e+02" y="0"/><rect vector-effect="non-scaling-stroke" x="5.518222e+02" y="0" width="5.688889e+00" height="4.428445e+01"/><rect vector-effect="non-scaling-stroke" x="5.731556e+02" y="0" width="5.688889e+00" height="4.472159e+01"/></g><g transform="translate(80 520 )scale(1 -1 )" fill="hsl(260, 76%, 65%)" stroke="hsl(260, 76%, 65%)" stroke-width="1px" stroke-linecap="round" stroke-linejoin="round"><rect vector-effect="non-scaling-stroke" x="6.684444e+01" y="0" width="5.688889e+00" height="4.413723e+01"/><rect x="8.817778e+01" y="0" width="5.688889e+00" height="4.408684e+01" vector-effect="non-scaling-stroke"/><rect x="1.095111e+02" y="0" width="5.688889e+00" height="4.410338e+01" vector-effect="non-scaling-stroke"/><rect height="4.450542e+01" vector-effect="non-scaling-stroke" x="1.308444e+02" y="0" width="5.688889e+00"/><rect x="1.521778e+02" y="0" width="5.688889e+00" height="4.404942e+01" vector-effect="non-scaling-stroke"/><rect width="5.688889e+00" height="5.970639e+01" vector-effect="non-scaling-stroke" x="1.735111e+02" y="0"/><rect height="4.475323e+01" vector-effect="non-scaling-stroke" x="1.948444e+02" y="0" width="5.688889e+00"/><rect y="0" width="5.688889e+00" height="4.401489e+01" vector-effect="non-scaling-stroke" x="2.161778e+02"/><rect height="4.513569e+01" vector-effect="non-scaling-stroke" x="2.375111e+02" y="0" width="5.688889e+00"/><rect y="0" width="5.688889e+00" height="4.842392e+01" vector-effect="non-scaling-stroke" x="2.588444e+02"/><rect x="2.801778e+02" y="0" width="5.688889e+00" height="4.759601e+01" vector-effect="non-scaling-stroke"/><rect x="3.015111e+02" y="0" width="5.688889e+00" height="9.252314e+01" vector-effect="non-scaling-stroke"/><rect x="3.228444e+02" y="0" width="5.688889e+00" height="4.401646e+01" vector-effect="non-scaling-stroke"/><rect width="5.688889e+00" height="6.080615e+01" vector-effect="non-scaling-stroke" x="3.441778e+02" y="0"/><rect x="3.655111e+02" y="0" width="5.688889e+00" height="4.810077e+01" vector-effect="non-scaling-stroke"/><rect vector-effect="non-scaling-stroke" x="3.868444e+02" y="0" width="5.688889e+00" height="7.519094e+01"/><rect vector-effect="non-scaling-stroke" x="4.081778e+02" y="0" width="5.688889e+00" height="4.426694e+01"/><rect y="0" width="5.688889e+00" height="4.463696e+01" vector-effect="non-scaling-stroke" x="4.295111e+02"/><rect height="5.182635e+01" vector-effect="non-scaling-stroke" x="4.508444e+02" y="0" width="5.688889e+00"/><rect height="1.226104e+02" vector-effect="non-scaling-stroke" x="4.721778e+02" y="0" width="5.688889e+00"/><rect vector-effect="non-scaling-stroke" x="4.935111e+02" y="0" width="5.688889e+00" height="4.405908e+01"/><rect vector-effect="non-scaling-stroke" x="5.148444e+02" y="0" width="5.688889e+00" height="2.764051e+02"/><rect y="0" width="5.688889e+00" height="4.573417e+01" vector-effect="non-scaling-stroke" x="5.361778e+02"/><rect vector-effect="non-scaling-stroke" x="5.575111e+02" y="0" width="5.688889e+00" height="4.433205e+01"/><rect vector-effect="non-scaling-stroke" x="5.788444e+02" y="0" width="5.688889e+00" height="4.456801e+01"/></g><g font-family="sans-serif" font-size="12px" font-weight="normal" fill="hsl(198, 47%, 65%)" stroke-width="1px" stroke-linecap="round" dominant-baseline="hanging" stroke="hsl(198, 47%, 65%)" stroke-linejoin="round" font-style="normal" text-anchor="start"><rect vector-effect="non-scaling-stroke" x="736" y="466" width="12" height="12"/><g stroke="black" fill="black"><text y="466" dominant-baseline="hanging" stroke="none" vector-effect="non-scaling-stroke" x="752">Golang</text></g><g stroke-width="1px" stroke-linecap="round" dominant-baseline="hanging" stroke="hsl(49, 88%, 65%)" fill="hsl(49, 88%, 65%)" stroke-linejoin="round" font-family="sans-serif" font-size="12px" font-style="normal" font-weight="normal" text-anchor="start"><rect vector-effect="non-scaling-stroke" x="736" y="484" width="12" height="12"/><g fill="black" stroke="black"><text vector-effect="non-scaling-stroke" x="752" y="484" dominant-baseline="hanging" stroke="none">Rust</text></g><g stroke-linecap="round" dominant-baseline="hanging" stroke="hsl(260, 76%, 65%)" font-style="normal" stroke-width="1px" font-weight="normal" text-anchor="start" stroke-linejoin="round" font-family="sans-serif" font-size="12px" fill="hsl(260, 76%, 65%)"><rect x="736" y="502" width="12" height="12" vector-effect="non-scaling-stroke"/><g fill="black" stroke="black"><text dominant-baseline="hanging" stroke="none" vector-effect="non-scaling-stroke" x="752" y="502">Zig</text><g fill="none" font-family="sans-serif" stroke-linejoin="round" font-style="normal" font-weight="normal" stroke-linecap="round" font-size="12px" stroke-width="2px" dominant-baseline="hanging" text-anchor="start"><rect width="640" height="440" vector-effect="non-scaling-stroke" x="80" y="80"/></g><g stroke-width="2px" stroke-linecap="round" font-style="normal" font-weight="normal" font-family="sans-serif" font-size="12px" fill="none" dominant-baseline="hanging" text-anchor="start" transform="translate(80 520 )scale(1 -1 )" stroke="black" stroke-linejoin="round"><path d="M64,0 L64,-6 M8.533333e+01,0 L8.533333e+01,-6 M1.066667e+02,0 L1.066667e+02,-6 M128,0 L128,-6 M1.493333e+02,0 L1.493333e+02,-6 M1.706667e+02,0 L1.706667e+02,-6 M192,0 L192,-6 M2.133333e+02,0 L2.133333e+02,-6 M2.346667e+02,0 L2.346667e+02,-6 M256,0 L256,-6 M2.773333e+02,0 L2.773333e+02,-6 M2.986667e+02,0 L2.986667e+02,-6 M320,0 L320,-6 M3.413333e+02,0 L3.413333e+02,-6 M3.626667e+02,0 L3.626667e+02,-6 M384,0 L384,-6 M4.053333e+02,0 L4.053333e+02,-6 M4.266667e+02,0 L4.266667e+02,-6 M448,0 L448,-6 M4.693333e+02,0 L4.693333e+02,-6 M4.906667e+02,0 L4.906667e+02,-6 M512,0 L512,-6 M5.333333e+02,0 L5.333333e+02,-6 M5.546667e+02,0 L5.546667e+02,-6 M576,0 L576,-6 " vector-effect="non-scaling-stroke"/></g><g stroke-linejoin="round" font-style="normal" fill="black" dominant-baseline="hanging" transform="translate(80 520 )scale(1 1 )" stroke="black" font-weight="normal" text-anchor="middle" stroke-width="2px" stroke-linecap="round" font-family="sans-serif" font-size="12px"><text vector-effect="non-scaling-stroke" x="64" y="10" dominant-baseline="hanging" stroke="none">1</text><text dominant-baseline="hanging" stroke="none" vector-effect="non-scaling-stroke" x="8.533333e+01" y="10">2</text><text vector-effect="non-scaling-stroke" x="1.066667e+02" y="10" dominant-baseline="hanging" stroke="none">3</text><text y="10" dominant-baseline="hanging" stroke="none" vector-effect="non-scaling-stroke" x="128">4</text><text stroke="none" vector-effect="non-scaling-stroke" x="1.493333e+02" y="10" dominant-baseline="hanging">5</text><text vector-effect="non-scaling-stroke" x="1.706667e+02" y="10" dominant-baseline="hanging" stroke="none">6</text><text stroke="none" vector-effect="non-scaling-stroke" x="192" y="10" dominant-baseline="hanging">7</text><text vector-effect="non-scaling-stroke" x="2.133333e+02" y="10" dominant-baseline="hanging" stroke="none">8</text><text stroke="none" vector-effect="non-scaling-stroke" x="2.346667e+02" y="10" dominant-baseline="hanging">9</text><text stroke="none" vector-effect="non-scaling-stroke" x="256" y="10" dominant-baseline="hanging">10</text><text y="10" dominant-baseline="hanging" stroke="none" vector-effect="non-scaling-stroke" x="2.773333e+02">11</text><text stroke="none" vector-effect="non-scaling-stroke" x="2.986667e+02" y="10" dominant-baseline="hanging">12</text><text vector-effect="non-scaling-stroke" x="320" y="10" dominant-baseline="hanging" stroke="none">13</text><text dominant-baseline="hanging" stroke="none" vector-effect="non-scaling-stroke" x="3.413333e+02" y="10">14</text><text stroke="none" vector-effect="non-scaling-stroke" x="3.626667e+02" y="10" dominant-baseline="hanging">15</text><text vector-effect="non-scaling-stroke" x="384" y="10" dominant-baseline="hanging" stroke="none">16</text><text y="10" dominant-baseline="hanging" stroke="none" vector-effect="non-scaling-stroke" x="4.053333e+02">17</text><text stroke="none" vector-effect="non-scaling-stroke" x="4.266667e+02" y="10" dominant-baseline="hanging">18</text><text y="10" dominant-baseline="hanging" stroke="none" vector-effect="non-scaling-stroke" x="448">19</text><text stroke="none" vector-effect="non-scaling-stroke" x="4.693333e+02" y="10" dominant-baseline="hanging">20</text><text stroke="none" vector-effect="non-scaling-stroke" x="4.906667e+02" y="10" dominant-baseline="hanging">21</text><text stroke="none" vector-effect="non-scaling-stroke" x="512" y="10" dominant-baseline="hanging">22</text><text x="5.333333e+02" y="10" dominant-baseline="hanging" stroke="none" vector-effect="non-scaling-stroke">23</text><text dominant-baseline="hanging" stroke="none" vector-effect="non-scaling-stroke" x="5.546667e+02" y="10">24</text><text y="10" dominant-baseline="hanging" stroke="none" vector-effect="non-scaling-stroke" x="576">25</text></g><g stroke="black" stroke-linejoin="round" font-size="12px" font-weight="bold" stroke-width="2px" dominant-baseline="baseline" transform="translate(80 520 )scale(1 1 )rotate(0 0 0 )" font-family="sans-serif" font-style="normal" text-anchor="middle" fill="black" stroke-linecap="round"><text stroke="none" vector-effect="non-scaling-stroke" x="320" y="-6" dominant-baseline="baseline">Day</text></g><g text-anchor="middle" transform="translate(80 520 )scale(1 -1 )" stroke-linejoin="round" stroke-linecap="round" font-family="sans-serif" font-size="12px" font-style="normal" font-weight="bold" stroke="black" dominant-baseline="baseline" fill="black" stroke-width="2px"><path vector-effect="non-scaling-stroke" d="M0,44 L-6,44 M0,8.028762e+01 L-6,8.028762e+01 M0,1.165752e+02 L-6,1.165752e+02 M0,1.528629e+02 L-6,1.528629e+02 M0,1.891505e+02 L-6,1.891505e+02 M0,2.254381e+02 L-6,2.254381e+02 M0,2.617257e+02 L-6,2.617257e+02 M0,2.980134e+02 L-6,2.980134e+02 M0,3.343010e+02 L-6,3.343010e+02 M0,3.705886e+02 L-6,3.705886e+02 "/></g><g font-style="normal" font-weight="normal" fill="black" stroke-width="2px" dominant-baseline="middle" stroke-linejoin="round" font-size="12px" stroke="black" font-family="sans-serif" stroke-linecap="round" text-anchor="end" transform="translate(80 520 )scale(1 1 )"><text stroke="none" vector-effect="non-scaling-stroke" x="-10" y="-44" dominant-baseline="middle">0s</text><text dominant-baseline="middle" stroke="none" vector-effect="non-scaling-stroke" x="-10" y="-8.028762e+01">10ms</text><text x="-10" y="-1.165752e+02" dominant-baseline="middle" stroke="none" vector-effect="non-scaling-stroke">20ms</text><text stroke="none" vector-effect="non-scaling-stroke" x="-10" y="-1.528629e+02" dominant-baseline="middle">30ms</text><text x="-10" y="-1.891505e+02" dominant-baseline="middle" stroke="none" vector-effect="non-scaling-stroke">40ms</text><text stroke="none" vector-effect="non-scaling-stroke" x="-10" y="-2.254381e+02" dominant-baseline="middle">50ms</text><text vector-effect="non-scaling-stroke" x="-10" y="-2.617257e+02" dominant-baseline="middle" stroke="none">60ms</text><text x="-10" y="-2.980134e+02" dominant-baseline="middle" stroke="none" vector-effect="non-scaling-stroke">70ms</text><text dominant-baseline="middle" stroke="none" vector-effect="non-scaling-stroke" x="-10" y="-3.343010e+02">80ms</text><text dominant-baseline="middle" stroke="none" vector-effect="non-scaling-stroke" x="-10" y="-3.705886e+02">90ms</text></g><g dominant-baseline="hanging" font-style="normal" stroke="black" stroke-linejoin="round" font-family="sans-serif" font-size="12px" stroke-width="2px" stroke-linecap="round" font-weight="bold" text-anchor="middle" transform="translate(80 520 )scale(1 1 )rotate(-90 0 0 )" fill="black"><text vector-effect="non-scaling-stroke" x="220" y="6" dominant-baseline="hanging" stroke="none">Runtime</text></g></g></g></g></g></svg>