<svg xmlns="http://www.w3.org/2000/svg" width="800" height="600" viewbox="0 0 800 600" preserveAspectRatio="xMidYMid meet"><defs><marker markerWidth="2%" markerHeight="2%" id="circle" viewBox="0 0 10 10 " refX="5" refY="5" markerUnits="userSpaceOnUse"><circle cx="5" cy="5" r="3" fill="none" stroke="black"/></marker><marker id="filled-circle" viewBox="0 0 10 10 " refX="5" refY="5" markerUnits="userSpaceOnUse" markerWidth="2%" markerHeight="2%"><circle cy="5" r="3" fill="black" stroke="none" cx="5"/></marker><marker markerWidth="2%" markerHeight="2%" id="square" viewBox="0 0 10 10 " refX="5" refY="5" markerUnits="userSpaceOnUse"><rect fill="none" stroke="black" x="2" y="2" width="6" height="6"/></marker><marker id="filled-square" viewBox="0 0 10 10 " refX="5" refY="5" markerUnits="userSpaceOnUse" markerWidth="2%" markerHeight="2%"><rect fill="black" stroke="none" x="2" y="2" width="6" height="6"/></marker></defs><g stroke="hsl(198, 47%, 65%)" stroke-width="1px" stroke-linecap="round" stroke-linejoin="round" transform="translate(80 520 )scale(1 -1 )" fill="hsl(198, 47%, 65%)"><rect x="5.333333e+01" y="0" width="7.111111e+00" height="4.428924e+01" vector-effect="non-scaling-stroke"/><rect vector-effect="non-scaling-stroke" x="7.466667e+01" y="0" width="7.111111e+00" height="4.401184e+01"/><rect height="4.404912e+01" vector-effect="non-scaling-stroke" x="9.600000e+01" y="0" width="7.111111e+00"/><rect width="7.111111e+00" height="4.405551e+01" vector-effect="non-scaling-stroke" x="1.173333e+02" y="0"/><rect vector-effect="non-scaling-stroke" x="1.386667e+02" y="0" width="7.111111e+00" height="4.409855e+01"/><rect vector-effect="non-scaling-stroke" x="1.600000e+02" y="0" width="7.111111e+00" height="4.400022e+01"/><rect x="1.813333e+02" y="0" width="7.111111e+00" height="4.460057e+01" vector-effect="non-scaling-stroke"/><rect vector-effect="non-scaling-stroke" x="2.026667e+02" y="0" width="7.111111e+00" height="4.552251e+01"/><rect vector-effect="non-scaling-stroke" x="224" y="0" width="7.111111e+00" height="4.406198e+01"/><rect y="0" width="7.111111e+00" height="4.593132e+01" vector-effect="non-scaling-stroke" x="2.453333e+02"/><rect height="4.402135e+01" vector-effect="non-scaling-stroke" x="2.666667e+02" y="0" width="7.111111e+00"/><rect y="0" width="7.111111e+00" height="6.183642e+01" vector-effect="non-scaling-stroke" x="288"/><rect vector-effect="non-scaling-stroke" x="3.093333e+02" y="0" width="7.111111e+00" height="4.418018e+01"/><rect height="7.050606e+01" vector-effect="non-scaling-stroke" x="3.306667e+02" y="0" width="7.111111e+00"/><rect x="3.520000e+02" y="0" width="7.111111e+00" height="4.422847e+01" vector-effect="non-scaling-stroke"/><rect x="3.733333e+02" y="0" width="7.111111e+00" height="1.889965e+02" vector-effect="non-scaling-stroke"/><rect y="0" width="7.111111e+00" height="396" vector-effect="non-scaling-stroke" x="3.946667e+02"/><rect x="4.160000e+02" y="0" width="7.111111e+00" height="4.401090e+01" vector-effect="non-scaling-stroke"/><rect height="4.446653e+01" vector-effect="non-scaling-stroke" x="4.373333e+02" y="0" width="7.111111e+00"/><rect width="7.111111e+00" height="4.606795e+01" vector-effect="non-scaling-stroke" x="4.586667e+02" y="0"/></g><g fill="hsl(49, 88%, 65%)" stroke="hsl(49, 88%, 65%)" stroke-width="1px" stroke-linecap="round" stroke-linejoin="round" transform="translate(80 520 )scale(1 -1 )"><rect vector-effect="non-scaling-stroke" x="6.044444e+01" y="0" width="7.111111e+00" height="4.415042e+01"/><rect vector-effect="non-scaling-stroke" x="8.177778e+01" y="0" width="7.111111e+00" height="4.400388e+01"/><rect vector-effect="non-scaling-stroke" x="1.031111e+02" y="0" width="7.111111e+00" height="4.402812e+01"/><rect height="4.403070e+01" vector-effect="non-scaling-stroke" x="1.244444e+02" y="0" width="7.111111e+00"/><rect height="4.401793e+01" vector-effect="non-scaling-stroke" x="1.457778e+02" y="0" width="7.111111e+00"/><rect height="4.400016e+01" vector-effect="non-scaling-stroke" x="1.671111e+02" y="0" width="7.111111e+00"/><rect vector-effect="non-scaling-stroke" x="1.884444e+02" y="0" width="7.111111e+00" height="4.411097e+01"/><rect y="0" width="7.111111e+00" height="4.852199e+01" vector-effect="non-scaling-stroke" x="2.097778e+02"/><rect y="0" width="7.111111e+00" height="4.403505e+01" vector-effect="non-scaling-stroke" x="2.311111e+02"/><rect y="0" width="7.111111e+00" height="4.413886e+01" vector-effect="non-scaling-stroke" x="2.524444e+02"/><rect y="0" width="7.111111e+00" height="4.401687e+01" vector-effect="non-scaling-stroke" x="2.737778e+02"/><rect vector-effect="non-scaling-stroke" x="2.951111e+02" y="0" width="7.111111e+00" height="6.862436e+01"/><rect height="4.408464e+01" vector-effect="non-scaling-stroke" x="3.164444e+02" y="0" width="7.111111e+00"/><rect width="7.111111e+00" height="4.410573e+01" vector-effect="non-scaling-stroke" x="3.591111e+02" y="0"/><rect vector-effect="non-scaling-stroke" x="3.804444e+02" y="0" width="7.111111e+00" height="5.968874e+01"/><rect vector-effect="non-scaling-stroke" x="4.231111e+02" y="0" width="7.111111e+00" height="4.400516e+01"/><rect vector-effect="non-scaling-stroke" x="4.444444e+02" y="0" width="7.111111e+00" height="4.420457e+01"/></g><g stroke="hsl(260, 76%, 65%)" stroke-width="1px" stroke-linecap="round" stroke-linejoin="round" transform="translate(80 520 )scale(1 -1 )" fill="hsl(260, 76%, 65%)"><rect vector-effect="non-scaling-stroke" x="6.755556e+01" y="0" width="7.111111e+00" height="4.412059e+01"/><rect width="7.111111e+00" height="4.400422e+01" vector-effect="non-scaling-stroke" x="8.888889e+01" y="0"/><rect height="4.402168e+01" vector-effect="non-scaling-stroke" x="1.102222e+02" y="0" width="7.111111e+00"/><rect y="0" width="7.111111e+00" height="4.408589e+01" vector-effect="non-scaling-stroke" x="1.315556e+02"/><rect y="0" width="7.111111e+00" height="4.719520e+01" vector-effect="non-scaling-stroke" x="1.528889e+02"/><rect vector-effect="non-scaling-stroke" x="1.742222e+02" y="0" width="7.111111e+00" height="4.400014e+01"/><rect width="7.111111e+00" height="4.407007e+01" vector-effect="non-scaling-stroke" x="1.955556e+02" y="0"/><rect height="4.435971e+01" vector-effect="non-scaling-stroke" x="2.168889e+02" y="0" width="7.111111e+00"/><rect vector-effect="non-scaling-stroke" x="2.382222e+02" y="0" width="7.111111e+00" height="4.403425e+01"/><rect height="4.412966e+01" vector-effect="non-scaling-stroke" x="2.595556e+02" y="0" width="7.111111e+00"/><rect vector-effect="non-scaling-stroke" x="2.808889e+02" y="0" width="7.111111e+00" height="4.401390e+01"/><rect x="3.662222e+02" y="0" width="7.111111e+00" height="4.410846e+01" vector-effect="non-scaling-stroke"/><rect vector-effect="non-scaling-stroke" x="3.875556e+02" y="0" width="7.111111e+00" height="1.271913e+02"/><rect x="4.302222e+02" y="0" width="7.111111e+00" height="4.400555e+01" vector-effect="non-scaling-stroke"/><rect y="0" width="7.111111e+00" height="4.794794e+01" vector-effect="non-scaling-stroke" x="4.515556e+02"/></g><g stroke="hsl(198, 47%, 65%)" font-style="normal" font-weight="normal" dominant-baseline="hanging" stroke-width="1px" stroke-linecap="round" stroke-linejoin="round" fill="hsl(198, 47%, 65%)" font-family="sans-serif" font-size="12px" text-anchor="start"><rect height="12" vector-effect="non-scaling-stroke" x="736" y="466" width="12"/><g stroke="black" fill="black"><text dominant-baseline="hanging" stroke="none" vector-effect="non-scaling-stroke" x="752" y="466">Golang</text></g><g font-weight="normal" text-anchor="start" dominant-baseline="hanging" stroke-linejoin="round" font-style="normal" fill="hsl(49, 88%, 65%)" stroke="hsl(49, 88%, 65%)" stroke-linecap="round" stroke-width="1px" font-family="sans-serif" font-size="12px"><rect vector-effect="non-scaling-stroke" x="736" y="484" width="12" height="12"/><g stroke="black" fill="black"><text vector-effect="non-scaling-stroke" x="752" y="484" dominant-baseline="hanging" stroke="none">Rust</text></g><g font-size="12px" font-weight="normal" font-style="normal" stroke-linecap="round" stroke-linejoin="round" fill="hsl(260, 76%, 65%)" font-family="sans-serif" text-anchor="start" dominant-baseline="hanging" stroke-width="1px" stroke="hsl(260, 76%, 65%)"><rect x="736" y="502" width="12" height="12" vector-effect="non-scaling-stroke"/><g fill="black" stroke="black"><text x="752" y="502" dominant-baseline="hanging" stroke="none" vector-effect="non-scaling-stroke">Zig</text><g stroke-linecap="round" stroke-linejoin="round" dominant-baseline="hanging" font-style="normal" font-family="sans-serif" text-anchor="start" fill="none" font-size="12px" stroke-width="2px" font-weight="normal"><rect width="640" height="440" vector-effect="non-scaling-stroke" x="80" y="80"/></g><g stroke-width="2px" font-family="sans-serif" font-weight="normal" text-anchor="start" fill="none" stroke-linecap="round" font-style="normal" transform="translate(80 520 )scale(1 -1 )" stroke="black" stroke-linejoin="round" font-size="12px" dominant-baseline="hanging"><path vector-effect="non-scaling-stroke" d="M64,0 L64,-6 M8.533333e+01,0 L8.533333e+01,-6 M1.066667e+02,0 L1.066667e+02,-6 M128,0 L128,-6 M1.493333e+02,0 L1.493333e+02,-6 M1.706667e+02,0 L1.706667e+02,-6 M192,0 L192,-6 M2.133333e+02,0 L2.133333e+02,-6 M2.346667e+02,0 L2.346667e+02,-6 M256,0 L256,-6 M2.773333e+02,0 L2.773333e+02,-6 M2.986667e+02,0 L2.986667e+02,-6 M320,0 L320,-6 M3.413333e+02,0 L3.413333e+02,-6 M3.626667e+02,0 L3.626667e+02,-6 M384,0 L384,-6 M4.053333e+02,0 L4.053333e+02,-6 M4.266667e+02,0 L4.266667e+02,-6 M448,0 L448,-6 M4.693333e+02,0 L4.693333e+02,-6 "/></g><g stroke-width="2px" font-family="sans-serif" font-weight="normal" fill="black" stroke="black" stroke-linecap="round" font-style="normal" font-size="12px" text-anchor="middle" dominant-baseline="hanging" stroke-linejoin="round" transform="translate(80 520 )scale(1 1 )"><text stroke="none" vector-effect="non-scaling-stroke" x="64" y="10" dominant-baseline="hanging">1</text><text vector-effect="non-scaling-stroke" x="8.533333e+01" y="10" dominant-baseline="hanging" stroke="none">2</text><text stroke="none" vector-effect="non-scaling-stroke" x="1.066667e+02" y="10" dominant-baseline="hanging">3</text><text stroke="none" vector-effect="non-scaling-stroke" x="128" y="10" dominant-baseline="hanging">4</text><text x="1.493333e+02" y="10" dominant-baseline="hanging" stroke="none" vector-effect="non-scaling-stroke">5</text><text x="1.706667e+02" y="10" dominant-baseline="hanging" stroke="none" vector-effect="non-scaling-stroke">6</text><text x="192" y="10" dominant-baseline="hanging" stroke="none" vector-effect="non-scaling-stroke">7</text><text vector-effect="non-scaling-stroke" x="2.133333e+02" y="10" dominant-baseline="hanging" stroke="none">8</text><text stroke="none" vector-effect="non-scaling-stroke" x="2.346667e+02" y="10" dominant-baseline="hanging">9</text><text vector-effect="non-scaling-stroke" x="256" y="10" dominant-baseline="hanging" stroke="none">10</text><text dominant-baseline="hanging" stroke="none" vector-effect="non-scaling-stroke" x="2.773333e+02" y="10">11</text><text stroke="none" vector-effect="non-scaling-stroke" x="2.986667e+02" y="10" dominant-baseline="hanging">12</text><text stroke="none" vector-effect="non-scaling-stroke" x="320" y="10" dominant-baseline="hanging">13</text><text stroke="none" vector-effect="non-scaling-stroke" x="3.413333e+02" y="10" dominant-baseline="hanging">14</text><text x="3.626667e+02" y="10" dominant-baseline="hanging" stroke="none" vector-effect="non-scaling-stroke">15</text><text y="10" dominant-baseline="hanging" stroke="none" vector-effect="non-scaling-stroke" x="384">16</text><text dominant-baseline="hanging" stroke="none" vector-effect="non-scaling-stroke" x="4.053333e+02" y="10">17</text><text dominant-baseline="hanging" stroke="none" vector-effect="non-scaling-stroke" x="4.266667e+02" y="10">18</text><text stroke="none" vector-effect="non-scaling-stroke" x="448" y="10" dominant-baseline="hanging">19</text><text stroke="none" vector-effect="non-scaling-stroke" x="4.693333e+02" y="10" dominant-baseline="hanging">20</text></g><g font-family="sans-serif" font-size="12px" dominant-baseline="baseline" stroke-width="2px" font-weight="bold" text-anchor="middle" fill="black" stroke="black" stroke-linecap="round" stroke-linejoin="round" font-style="normal" transform="translate(80 520 )scale(1 1 )rotate(0 0 0 )"><text x="320" y="-6" dominant-baseline="baseline" stroke="none" vector-effect="non-scaling-stroke">Day</text></g><g font-style="normal" stroke="black" stroke-linecap="round" dominant-baseline="baseline" font-weight="bold" transform="translate(80 520 )scale(1 -1 )" fill="black" stroke-linejoin="round" text-anchor="middle" stroke-width="2px" font-family="sans-serif" font-size="12px"><path vector-effect="non-scaling-stroke" d="M0,44 L-6,44 M0,2.060886e+02 L-6,2.060886e+02 M0,3.681773e+02 L-6,3.681773e+02 "/></g><g stroke-linejoin="round" font-style="normal" transform="translate(80 520 )scale(1 1 )" stroke-width="2px" font-family="sans-serif" font-size="12px" stroke="black" stroke-linecap="round" text-anchor="end" dominant-baseline="middle" fill="black" font-weight="normal"><text y="-44" dominant-baseline="middle" stroke="none" vector-effect="non-scaling-stroke" x="-10">0s</text><text x="-10" y="-2.060886e+02" dominant-baseline="middle" stroke="none" vector-effect="non-scaling-stroke">100ms</text><text x="-10" y="-3.681773e+02" dominant-baseline="middle" stroke="none" vector-effect="non-scaling-stroke">200ms</text></g><g stroke-linejoin="round" fill="black" font-family="sans-serif" font-size="12px" font-weight="bold" text-anchor="middle" dominant-baseline="hanging" stroke="black" font-style="normal" transform="translate(80 520 )scale(1 1 )rotate(-90 0 0 )" stroke-width="2px" stroke-linecap="round"><text y="6" dominant-baseline="hanging" stroke="none" vector-effect="non-scaling-stroke" x="220">Runtime</text></g></g></g></g></g></svg>