<svg preserveAspectRatio="xMidYMid meet" xmlns="http://www.w3.org/2000/svg" width="800" height="600" viewbox="0 0 800 600"><defs><marker viewBox="0 0 10 10 " refX="5" refY="5" markerUnits="userSpaceOnUse" markerWidth="2%" markerHeight="2%" id="circle"><circle r="3" fill="none" stroke="black" cx="5" cy="5"/></marker><marker refX="5" refY="5" markerUnits="userSpaceOnUse" markerWidth="2%" markerHeight="2%" id="filled-circle" viewBox="0 0 10 10 "><circle fill="black" stroke="none" cx="5" cy="5" r="3"/></marker><marker id="square" viewBox="0 0 10 10 " refX="5" refY="5" markerUnits="userSpaceOnUse" markerWidth="2%" markerHeight="2%"><rect x="2" y="2" width="6" height="6" fill="none" stroke="black"/></marker><marker id="filled-square" viewBox="0 0 10 10 " refX="5" refY="5" markerUnits="userSpaceOnUse" markerWidth="2%" markerHeight="2%"><rect height="6" fill="black" stroke="none" x="2" y="2" width="6"/></marker></defs><g stroke-linejoin="round" transform="translate(80 520 )scale(1 -1 )" fill="hsl(198, 47%, 65%)" stroke="hsl(198, 47%, 65%)" stroke-width="1px" stroke-linecap="round"><rect height="4.410760e+01" vector-effect="non-scaling-stroke" x="3.733333e+01" y="0" width="1.777778e+01"/><rect x="8.387879e+01" y="0" width="1.777778e+01" height="1.357531e+02" vector-effect="non-scaling-stroke"/><rect vector-effect="non-scaling-stroke" x="1.304242e+02" y="0" width="1.777778e+01" height="4.456632e+01"/><rect width="1.777778e+01" height="6.681151e+01" vector-effect="non-scaling-stroke" x="1.769697e+02" y="0"/><rect height="4.442906e+01" vector-effect="non-scaling-stroke" x="2.235152e+02" y="0" width="1.777778e+01"/><rect y="0" width="1.777778e+01" height="4.419161e+01" vector-effect="non-scaling-stroke" x="2.700606e+02"/><rect vector-effect="non-scaling-stroke" x="3.166061e+02" y="0" width="1.777778e+01" height="4.404994e+01"/><rect y="0" width="1.777778e+01" height="396" vector-effect="non-scaling-stroke" x="3.631515e+02"/></g><g stroke="hsl(49, 88%, 65%)" stroke-width="1px" stroke-linecap="round" stroke-linejoin="round" transform="translate(80 520 )scale(1 -1 )" fill="hsl(49, 88%, 65%)"><rect y="0" width="1.777778e+01" height="4.405445e+01" vector-effect="non-scaling-stroke" x="5.511111e+01"/><rect y="0" width="1.777778e+01" height="1.621897e+02" vector-effect="non-scaling-stroke" x="1.016566e+02"/><rect x="1.482020e+02" y="0" width="1.777778e+01" height="4.434206e+01" vector-effect="non-scaling-stroke"/><rect y="0" width="1.777778e+01" height="4.642057e+01" vector-effect="non-scaling-stroke" x="1.947475e+02"/><rect vector-effect="non-scaling-stroke" x="2.412929e+02" y="0" width="1.777778e+01" height="4.476679e+01"/><rect width="1.777778e+01" height="4.413790e+01" vector-effect="non-scaling-stroke" x="2.878384e+02" y="0"/><rect height="4.406232e+01" vector-effect="non-scaling-stroke" x="3.343838e+02" y="0" width="1.777778e+01"/><rect y="0" width="1.777778e+01" height="1.618717e+02" vector-effect="non-scaling-stroke" x="3.809293e+02"/></g><g stroke-linecap="round" stroke-linejoin="round" transform="translate(80 520 )scale(1 -1 )" fill="hsl(260, 76%, 65%)" stroke="hsl(260, 76%, 65%)" stroke-width="1px"><rect y="0" width="1.777778e+01" height="4.405652e+01" vector-effect="non-scaling-stroke" x="7.288889e+01"/><rect vector-effect="non-scaling-stroke" x="1.194343e+02" y="0" width="1.777778e+01" height="1.003720e+02"/><rect x="1.659798e+02" y="0" width="1.777778e+01" height="4.423564e+01" vector-effect="non-scaling-stroke"/><rect vector-effect="non-scaling-stroke" x="2.125253e+02" y="0" width="1.777778e+01" height="4.678042e+01"/><rect y="0" width="1.777778e+01" height="4.437231e+01" vector-effect="non-scaling-stroke" x="2.590707e+02"/><rect y="0" width="1.777778e+01" height="4.410825e+01" vector-effect="non-scaling-stroke" x="3.056162e+02"/><rect width="1.777778e+01" height="4.404004e+01" vector-effect="non-scaling-stroke" x="3.521616e+02" y="0"/><rect y="0" width="1.777778e+01" height="2.545900e+02" vector-effect="non-scaling-stroke" x="3.987071e+02"/></g><g stroke-width="1px" font-family="sans-serif" font-size="12px" text-anchor="start" dominant-baseline="hanging" stroke="hsl(198, 47%, 65%)" font-style="normal" font-weight="normal" stroke-linecap="round" stroke-linejoin="round" fill="hsl(198, 47%, 65%)"><rect width="12" height="12" vector-effect="non-scaling-stroke" x="736" y="466"/><g fill="black" stroke="black"><text vector-effect="non-scaling-stroke" x="752" y="466" dominant-baseline="hanging" stroke="none">Golang</text></g><g font-family="sans-serif" text-anchor="start" stroke="hsl(49, 88%, 65%)" font-size="12px" dominant-baseline="hanging" fill="hsl(49, 88%, 65%)" font-style="normal" font-weight="normal" stroke-width="1px" stroke-linecap="round" stroke-linejoin="round"><rect vector-effect="non-scaling-stroke" x="736" y="484" width="12" height="12"/><g stroke="black" fill="black"><text y="484" dominant-baseline="hanging" stroke="none" vector-effect="non-scaling-stroke" x="752">Rust</text></g><g dominant-baseline="hanging" stroke="hsl(260, 76%, 65%)" font-style="normal" stroke-width="1px" fill="hsl(260, 76%, 65%)" font-weight="normal" stroke-linecap="round" stroke-linejoin="round" font-family="sans-serif" font-size="12px" text-anchor="start"><rect vector-effect="non-scaling-stroke" x="736" y="502" width="12" height="12"/><g fill="black" stroke="black"><text stroke="none" vector-effect="non-scaling-stroke" x="752" y="502" dominant-baseline="hanging">Zig</text><g stroke-width="2px" stroke-linejoin="round" font-size="12px" stroke-linecap="round" text-anchor="start" font-family="sans-serif" dominant-baseline="hanging" fill="none" font-style="normal" font-weight="normal"><rect height="440" vector-effect="non-scaling-stroke" x="80" y="80" width="640"/></g><g font-style="normal" font-weight="normal" stroke-width="2px" font-size="12px" dominant-baseline="hanging" transform="translate(80 520 )scale(1 -1 )" stroke="black" stroke-linecap="round" stroke-linejoin="round" font-family="sans-serif" text-anchor="start" fill="none"><path d="M64,0 L64,-6 M1.105455e+02,0 L1.105455e+02,-6 M1.570909e+02,0 L1.570909e+02,-6 M2.036364e+02,0 L2.036364e+02,-6 M2.501818e+02,0 L2.501818e+02,-6 M2.967273e+02,0 L2.967273e+02,-6 M3.432727e+02,0 L3.432727e+02,-6 M3.898182e+02,0 L3.898182e+02,-6 " vector-effect="non-scaling-stroke"/></g><g stroke-linecap="round" font-family="sans-serif" dominant-baseline="hanging" fill="black" font-weight="normal" stroke-width="2px" stroke-linejoin="round" font-size="12px" text-anchor="middle" transform="translate(80 520 )scale(1 1 )" stroke="black" font-style="normal"><text x="64" y="10" dominant-baseline="hanging" stroke="none" vector-effect="non-scaling-stroke">1</text><text vector-effect="non-scaling-stroke" x="1.105455e+02" y="10" dominant-baseline="hanging" stroke="none">2</text><text dominant-baseline="hanging" stroke="none" vector-effect="non-scaling-stroke" x="1.570909e+02" y="10">3</text><text stroke="none" vector-effect="non-scaling-stroke" x="2.036364e+02" y="10" dominant-baseline="hanging">4</text><text x="2.501818e+02" y="10" dominant-baseline="hanging" stroke="none" vector-effect="non-scaling-stroke">5</text><text x="2.967273e+02" y="10" dominant-baseline="hanging" stroke="none" vector-effect="non-scaling-stroke">6</text><text stroke="none" vector-effect="non-scaling-stroke" x="3.432727e+02" y="10" dominant-baseline="hanging">7</text><text stroke="none" vector-effect="non-scaling-stroke" x="3.898182e+02" y="10" dominant-baseline="hanging">8</text></g><g stroke="black" font-weight="bold" stroke-width="2px" stroke-linecap="round" font-family="sans-serif" dominant-baseline="baseline" font-style="normal" stroke-linejoin="round" font-size="12px" text-anchor="middle" transform="translate(80 520 )scale(1 1 )rotate(0 0 0 )" fill="black"><text y="-6" dominant-baseline="baseline" stroke="none" vector-effect="non-scaling-stroke" x="320">Day</text></g><g font-weight="bold" font-family="sans-serif" fill="black" font-style="normal" stroke-width="2px" stroke-linecap="round" stroke-linejoin="round" font-size="12px" text-anchor="middle" dominant-baseline="baseline" transform="translate(80 520 )scale(1 -1 )" stroke="black"><path vector-effect="non-scaling-stroke" d="M0,44 L-6,44 M0,9.977477e+01 L-6,9.977477e+01 M0,1.555495e+02 L-6,1.555495e+02 M0,2.113243e+02 L-6,2.113243e+02 M0,2.670991e+02 L-6,2.670991e+02 M0,3.228738e+02 L-6,3.228738e+02 M0,3.786486e+02 L-6,3.786486e+02 "/></g><g font-size="12px" dominant-baseline="middle" font-weight="normal" stroke-linecap="round" text-anchor="end" transform="translate(80 520 )scale(1 1 )" fill="black" stroke="black" font-style="normal" stroke-width="2px" stroke-linejoin="round" font-family="sans-serif"><text x="-10" y="-44" dominant-baseline="middle" stroke="none" vector-effect="non-scaling-stroke">0s</text><text stroke="none" vector-effect="non-scaling-stroke" x="-10" y="-9.977477e+01" dominant-baseline="middle">10ms</text><text x="-10" y="-1.555495e+02" dominant-baseline="middle" stroke="none" vector-effect="non-scaling-stroke">20ms</text><text x="-10" y="-2.113243e+02" dominant-baseline="middle" stroke="none" vector-effect="non-scaling-stroke">30ms</text><text stroke="none" vector-effect="non-scaling-stroke" x="-10" y="-2.670991e+02" dominant-baseline="middle">40ms</text><text stroke="none" vector-effect="non-scaling-stroke" x="-10" y="-3.228738e+02" dominant-baseline="middle">50ms</text><text stroke="none" vector-effect="non-scaling-stroke" x="-10" y="-3.786486e+02" dominant-baseline="middle">60ms</text></g><g stroke-linecap="round" stroke-linejoin="round" text-anchor="middle" dominant-baseline="hanging" font-style="normal" font-family="sans-serif" font-size="12px" transform="translate(80 520 )scale(1 1 )rotate(-90 0 0 )" fill="black" stroke="black" font-weight="bold" stroke-width="2px"><text vector-effect="non-scaling-stroke" x="220" y="6" dominant-baseline="hanging" stroke="none">Runtime</text></g></g></g></g></g></svg>