<svg preserveAspectRatio="xMidYMid meet" xmlns="http://www.w3.org/2000/svg" width="800" height="600" viewbox="0 0 800 600"><defs><marker id="circle" viewBox="0 0 10 10 " refX="5" refY="5" markerUnits="userSpaceOnUse" markerWidth="2%" markerHeight="2%"><circle stroke="black" cx="5" cy="5" r="3" fill="none"/></marker><marker markerUnits="userSpaceOnUse" markerWidth="2%" markerHeight="2%" id="filled-circle" viewBox="0 0 10 10 " refX="5" refY="5"><circle r="3" fill="black" stroke="none" cx="5" cy="5"/></marker><marker viewBox="0 0 10 10 " refX="5" refY="5" markerUnits="userSpaceOnUse" markerWidth="2%" markerHeight="2%" id="square"><rect stroke="black" x="2" y="2" width="6" height="6" fill="none"/></marker><marker id="filled-square" viewBox="0 0 10 10 " refX="5" refY="5" markerUnits="userSpaceOnUse" markerWidth="2%" markerHeight="2%"><rect x="2" y="2" width="6" height="6" fill="black" stroke="none"/></marker></defs><g stroke-linejoin="round" transform="translate(80 520 )scale(1 -1 )" fill="hsl(198, 47%, 65%)" stroke="hsl(198, 47%, 65%)" stroke-width="1px" stroke-linecap="round"><rect y="0" width="8.533333e+00" height="4.401614e+01" vector-effect="non-scaling-stroke" x="5.546667e+01"/><rect y="0" width="8.533333e+00" height="4.400415e+01" vector-effect="non-scaling-stroke" x="7.680000e+01"/><rect width="8.533333e+00" height="4.404729e+01" vector-effect="non-scaling-stroke" x="9.813333e+01" y="0"/><rect vector-effect="non-scaling-stroke" x="1.194667e+02" y="0" width="8.533333e+00" height="4.401773e+01"/><rect width="8.533333e+00" height="4.401199e+01" vector-effect="non-scaling-stroke" x="1.408000e+02" y="0"/><rect height="4.400654e+01" vector-effect="non-scaling-stroke" x="1.621333e+02" y="0" width="8.533333e+00"/><rect height="4.402772e+01" vector-effect="non-scaling-stroke" x="1.834667e+02" y="0" width="8.533333e+00"/><rect x="2.048000e+02" y="0" width="8.533333e+00" height="4.463078e+01" vector-effect="non-scaling-stroke"/><rect y="0" width="8.533333e+00" height="4.436593e+01" vector-effect="non-scaling-stroke" x="2.261333e+02"/><rect x="2.474667e+02" y="0" width="8.533333e+00" height="4.400158e+01" vector-effect="non-scaling-stroke"/><rect width="8.533333e+00" height="5.712138e+01" vector-effect="non-scaling-stroke" x="2.688000e+02" y="0"/><rect x="2.901333e+02" y="0" width="8.533333e+00" height="4.453094e+01" vector-effect="non-scaling-stroke"/><rect height="4.451354e+01" vector-effect="non-scaling-stroke" x="3.114667e+02" y="0" width="8.533333e+00"/><rect x="3.328000e+02" y="0" width="8.533333e+00" height="4.994604e+01" vector-effect="non-scaling-stroke"/><rect y="0" width="8.533333e+00" height="4.400496e+01" vector-effect="non-scaling-stroke" x="3.541333e+02"/><rect vector-effect="non-scaling-stroke" x="3.754667e+02" y="0" width="8.533333e+00" height="3.084086e+02"/><rect width="8.533333e+00" height="4.445715e+01" vector-effect="non-scaling-stroke" x="3.968000e+02" y="0"/><rect x="4.181333e+02" y="0" width="8.533333e+00" height="4.417750e+01" vector-effect="non-scaling-stroke"/><rect x="4.394667e+02" y="0" width="8.533333e+00" height="2.065786e+02" vector-effect="non-scaling-stroke"/><rect x="4.608000e+02" y="0" width="8.533333e+00" height="8.635494e+01" vector-effect="non-scaling-stroke"/><rect width="8.533333e+00" height="4.437493e+01" vector-effect="non-scaling-stroke" x="4.821333e+02" y="0"/><rect vector-effect="non-scaling-stroke" x="5.034667e+02" y="0" width="8.533333e+00" height="4.483266e+01"/><rect width="8.533333e+00" height="1.367082e+02" vector-effect="non-scaling-stroke" x="5.248000e+02" y="0"/><rect vector-effect="non-scaling-stroke" x="5.461333e+02" y="0" width="8.533333e+00" height="1.618175e+02"/><rect x="5.674667e+02" y="0" width="8.533333e+00" height="4.400278e+01" vector-effect="non-scaling-stroke"/></g><g stroke="hsl(49, 88%, 65%)" stroke-width="1px" stroke-linecap="round" stroke-linejoin="round" transform="translate(80 520 )scale(1 -1 )" fill="hsl(49, 88%, 65%)"><rect y="0" width="8.533333e+00" height="4.400690e+01" vector-effect="non-scaling-stroke" x="64"/><rect vector-effect="non-scaling-stroke" x="8.533333e+01" y="0" width="8.533333e+00" height="4.400106e+01"/><rect width="8.533333e+00" height="4.403490e+01" vector-effect="non-scaling-stroke" x="1.066667e+02" y="0"/><rect vector-effect="non-scaling-stroke" x="128" y="0" width="8.533333e+00" height="4.401190e+01"/><rect y="0" width="8.533333e+00" height="4.400921e+01" vector-effect="non-scaling-stroke" x="1.493333e+02"/><rect vector-effect="non-scaling-stroke" x="1.706667e+02" y="0" width="8.533333e+00" height="4.401049e+01"/><rect width="8.533333e+00" height="4.402064e+01" vector-effect="non-scaling-stroke" x="192" y="0"/><rect x="2.133333e+02" y="0" width="8.533333e+00" height="4.460105e+01" vector-effect="non-scaling-stroke"/><rect vector-effect="non-scaling-stroke" x="2.346667e+02" y="0" width="8.533333e+00" height="4.435897e+01"/><rect height="4.400111e+01" vector-effect="non-scaling-stroke" x="2.560000e+02" y="0" width="8.533333e+00"/><rect vector-effect="non-scaling-stroke" x="2.773333e+02" y="0" width="8.533333e+00" height="4.888612e+01"/><rect width="8.533333e+00" height="4.429340e+01" vector-effect="non-scaling-stroke" x="2.986667e+02" y="0"/><rect width="8.533333e+00" height="4.442116e+01" vector-effect="non-scaling-stroke" x="320" y="0"/><rect height="5.008777e+01" vector-effect="non-scaling-stroke" x="3.413333e+02" y="0" width="8.533333e+00"/><rect width="8.533333e+00" height="4.400217e+01" vector-effect="non-scaling-stroke" x="3.626667e+02" y="0"/><rect vector-effect="non-scaling-stroke" x="384" y="0" width="8.533333e+00" height="396"/><rect vector-effect="non-scaling-stroke" x="4.053333e+02" y="0" width="8.533333e+00" height="4.434586e+01"/><rect height="4.420608e+01" vector-effect="non-scaling-stroke" x="4.266667e+02" y="0" width="8.533333e+00"/><rect width="8.533333e+00" height="1.035770e+02" vector-effect="non-scaling-stroke" x="448" y="0"/><rect y="0" width="8.533333e+00" height="7.929570e+01" vector-effect="non-scaling-stroke" x="4.693333e+02"/><rect width="8.533333e+00" height="4.441237e+01" vector-effect="non-scaling-stroke" x="4.906667e+02" y="0"/><rect y="0" width="8.533333e+00" height="4.460522e+01" vector-effect="non-scaling-stroke" x="512"/><rect height="1.253448e+02" vector-effect="non-scaling-stroke" x="5.333333e+02" y="0" width="8.533333e+00"/><rect y="0" width="8.533333e+00" height="1.978465e+02" vector-effect="non-scaling-stroke" x="5.546667e+02"/><rect width="8.533333e+00" height="4.400639e+01" vector-effect="non-scaling-stroke" x="576" y="0"/></g><g text-anchor="start" stroke="hsl(198, 47%, 65%)" stroke-width="1px" font-style="normal" font-size="12px" dominant-baseline="hanging" fill="hsl(198, 47%, 65%)" stroke-linejoin="round" font-family="sans-serif" stroke-linecap="round" font-weight="normal"><rect y="484" width="12" height="12" vector-effect="non-scaling-stroke" x="736"/><g fill="black" stroke="black"><text stroke="none" vector-effect="non-scaling-stroke" x="752" y="484" dominant-baseline="hanging">Golang</text></g><g stroke-linecap="round" stroke-linejoin="round" font-family="sans-serif" text-anchor="start" stroke-width="1px" fill="hsl(49, 88%, 65%)" stroke="hsl(49, 88%, 65%)" font-size="12px" font-style="normal" dominant-baseline="hanging" font-weight="normal"><rect width="12" height="12" vector-effect="non-scaling-stroke" x="736" y="502"/><g fill="black" stroke="black"><text stroke="none" vector-effect="non-scaling-stroke" x="752" y="502" dominant-baseline="hanging">Rust</text><g stroke-linecap="round" font-weight="normal" text-anchor="start" font-style="normal" fill="none" font-family="sans-serif" font-size="12px" stroke-width="2px" dominant-baseline="hanging" stroke-linejoin="round"><rect height="440" vector-effect="non-scaling-stroke" x="80" y="80" width="640"/></g><g stroke-linejoin="round" font-style="normal" dominant-baseline="hanging" transform="translate(80 520 )scale(1 -1 )" font-weight="normal" stroke-linecap="round" stroke-width="2px" stroke="black" font-family="sans-serif" font-size="12px" text-anchor="start" fill="none"><path vector-effect="non-scaling-stroke" d="M64,0 L64,-6 M8.533333e+01,0 L8.533333e+01,-6 M1.066667e+02,0 L1.066667e+02,-6 M128,0 L128,-6 M1.493333e+02,0 L1.493333e+02,-6 M1.706667e+02,0 L1.706667e+02,-6 M192,0 L192,-6 M2.133333e+02,0 L2.133333e+02,-6 M2.346667e+02,0 L2.346667e+02,-6 M256,0 L256,-6 M2.773333e+02,0 L2.773333e+02,-6 M2.986667e+02,0 L2.986667e+02,-6 M320,0 L320,-6 M3.413333e+02,0 L3.413333e+02,-6 M3.626667e+02,0 L3.626667e+02,-6 M384,0 L384,-6 M4.053333e+02,0 L4.053333e+02,-6 M4.266667e+02,0 L4.266667e+02,-6 M448,0 L448,-6 M4.693333e+02,0 L4.693333e+02,-6 M4.906667e+02,0 L4.906667e+02,-6 M512,0 L512,-6 M5.333333e+02,0 L5.333333e+02,-6 M5.546667e+02,0 L5.546667e+02,-6 M576,0 L576,-6 "/></g><g text-anchor="middle" dominant-baseline="hanging" font-weight="normal" font-family="sans-serif" font-size="12px" stroke="black" stroke-linejoin="round" transform="translate(80 520 )scale(1 1 )" stroke-width="2px" stroke-linecap="round" font-style="normal" fill="black"><text vector-effect="non-scaling-stroke" x="64" y="10" dominant-baseline="hanging" stroke="none">1</text><text stroke="none" vector-effect="non-scaling-stroke" x="8.533333e+01" y="10" dominant-baseline="hanging">2</text><text vector-effect="non-scaling-stroke" x="1.066667e+02" y="10" dominant-baseline="hanging" stroke="none">3</text><text stroke="none" vector-effect="non-scaling-stroke" x="128" y="10" dominant-baseline="hanging">4</text><text y="10" dominant-baseline="hanging" stroke="none" vector-effect="non-scaling-stroke" x="1.493333e+02">5</text><text vector-effect="non-scaling-stroke" x="1.706667e+02" y="10" dominant-baseline="hanging" stroke="none">6</text><text stroke="none" vector-effect="non-scaling-stroke" x="192" y="10" dominant-baseline="hanging">7</text><text x="2.133333e+02" y="10" dominant-baseline="hanging" stroke="none" vector-effect="non-scaling-stroke">8</text><text x="2.346667e+02" y="10" dominant-baseline="hanging" stroke="none" vector-effect="non-scaling-stroke">9</text><text stroke="none" vector-effect="non-scaling-stroke" x="256" y="10" dominant-baseline="hanging">10</text><text vector-effect="non-scaling-stroke" x="2.773333e+02" y="10" dominant-baseline="hanging" stroke="none">11</text><text y="10" dominant-baseline="hanging" stroke="none" vector-effect="non-scaling-stroke" x="2.986667e+02">12</text><text y="10" dominant-baseline="hanging" stroke="none" vector-effect="non-scaling-stroke" x="320">13</text><text stroke="none" vector-effect="non-scaling-stroke" x="3.413333e+02" y="10" dominant-baseline="hanging">14</text><text stroke="none" vector-effect="non-scaling-stroke" x="3.626667e+02" y="10" dominant-baseline="hanging">15</text><text y="10" dominant-baseline="hanging" stroke="none" vector-effect="non-scaling-stroke" x="384">16</text><text stroke="none" vector-effect="non-scaling-stroke" x="4.053333e+02" y="10" dominant-baseline="hanging">17</text><text x="4.266667e+02" y="10" dominant-baseline="hanging" stroke="none" vector-effect="non-scaling-stroke">18</text><text stroke="none" vector-effect="non-scaling-stroke" x="448" y="10" dominant-baseline="hanging">19</text><text dominant-baseline="hanging" stroke="none" vector-effect="non-scaling-stroke" x="4.693333e+02" y="10">20</text><text dominant-baseline="hanging" stroke="none" vector-effect="non-scaling-stroke" x="4.906667e+02" y="10">21</text><text stroke="none" vector-effect="non-scaling-stroke" x="512" y="10" dominant-baseline="hanging">22</text><text x="5.333333e+02" y="10" dominant-baseline="hanging" stroke="none" vector-effect="non-scaling-stroke">23</text><text vector-effect="non-scaling-stroke" x="5.546667e+02" y="10" dominant-baseline="hanging" stroke="none">24</text><text stroke="none" vector-effect="non-scaling-stroke" x="576" y="10" dominant-baseline="hanging">25</text></g><g font-family="sans-serif" font-size="12px" font-style="normal" text-anchor="middle" dominant-baseline="baseline" stroke-width="2px" stroke-linecap="round" fill="black" stroke-linejoin="round" transform="translate(80 520 )scale(1 1 )rotate(0 0 0 )" font-weight="bold" stroke="black"><text x="320" y="-6" dominant-baseline="baseline" stroke="none" vector-effect="non-scaling-stroke">Day</text></g><g font-weight="bold" font-family="sans-serif" font-size="12px" font-style="normal" text-anchor="middle" dominant-baseline="baseline" fill="black" stroke-width="2px" transform="translate(80 520 )scale(1 -1 )" stroke-linejoin="round" stroke="black" stroke-linecap="round"><path vector-effect="non-scaling-stroke" d="M0,44 L-6,44 M0,1.368127e+02 L-6,1.368127e+02 M0,2.296253e+02 L-6,2.296253e+02 M0,3.224380e+02 L-6,3.224380e+02 "/></g><g stroke-linejoin="round" font-family="sans-serif" transform="translate(80 520 )scale(1 1 )" font-weight="normal" stroke="black" font-size="12px" font-style="normal" text-anchor="end" dominant-baseline="middle" fill="black" stroke-linecap="round" stroke-width="2px"><text dominant-baseline="middle" stroke="none" vector-effect="non-scaling-stroke" x="-10" y="-44">0s</text><text y="-1.368127e+02" dominant-baseline="middle" stroke="none" vector-effect="non-scaling-stroke" x="-10">100ms</text><text dominant-baseline="middle" stroke="none" vector-effect="non-scaling-stroke" x="-10" y="-2.296253e+02">200ms</text><text y="-3.224380e+02" dominant-baseline="middle" stroke="none" vector-effect="non-scaling-stroke" x="-10">300ms</text></g><g stroke-width="2px" font-weight="bold" fill="black" font-style="normal" text-anchor="middle" dominant-baseline="hanging" stroke-linecap="round" stroke="black" stroke-linejoin="round" font-family="sans-serif" font-size="12px" transform="translate(80 520 )scale(1 1 )rotate(-90 0 0 )"><text vector-effect="non-scaling-stroke" x="220" y="6" dominant-baseline="hanging" stroke="none">Runtime</text></g></g></g></g></svg>