<svg width="800" height="600" viewbox="0 0 800 600" preserveAspectRatio="xMidYMid meet" xmlns="http://www.w3.org/2000/svg"><defs><marker refX="5" refY="5" markerUnits="userSpaceOnUse" markerWidth="2%" markerHeight="2%" id="circle" viewBox="0 0 10 10 "><circle r="3" fill="none" stroke="black" cx="5" cy="5"/></marker><marker markerHeight="2%" id="filled-circle" viewBox="0 0 10 10 " refX="5" refY="5" markerUnits="userSpaceOnUse" markerWidth="2%"><circle r="3" fill="black" stroke="none" cx="5" cy="5"/></marker><marker viewBox="0 0 10 10 " refX="5" refY="5" markerUnits="userSpaceOnUse" markerWidth="2%" markerHeight="2%" id="square"><rect width="6" height="6" fill="none" stroke="black" x="2" y="2"/></marker><marker viewBox="0 0 10 10 " refX="5" refY="5" markerUnits="userSpaceOnUse" markerWidth="2%" markerHeight="2%" id="filled-square"><rect x="2" y="2" width="6" height="6" fill="black" stroke="none"/></marker></defs><g stroke="hsl(198, 47%, 65%)" stroke-width="1px" stroke-linecap="round" stroke-linejoin="round" transform="translate(80 520 )scale(1 -1 )" fill="hsl(198, 47%, 65%)"><rect x="3.650000e+01" y="0" width="2.750000e+01" height="2.349969e+02" vector-effect="non-scaling-stroke"/><rect y="0" width="2.750000e+01" height="2.132243e+02" vector-effect="non-scaling-stroke" x="5.783333e+01"/><rect y="0" width="2.750000e+01" height="396" vector-effect="non-scaling-stroke" x="7.916667e+01"/></g><g stroke="hsl(49, 88%, 65%)" stroke-width="1px" stroke-linecap="round" stroke-linejoin="round" transform="translate(80 520 )scale(1 -1 )" fill="hsl(49, 88%, 65%)"><rect vector-effect="non-scaling-stroke" x="64" y="0" width="2.750000e+01" height="2.154283e+02"/><rect width="2.750000e+01" height="1.904121e+02" vector-effect="non-scaling-stroke" x="8.533333e+01" y="0"/></g><g fill="hsl(198, 47%, 65%)" stroke="hsl(198, 47%, 65%)" text-anchor="start" dominant-baseline="hanging" stroke-width="1px" font-weight="normal" stroke-linecap="round" stroke-linejoin="round" font-family="sans-serif" font-size="12px" font-style="normal"><rect y="484" width="12" height="12" vector-effect="non-scaling-stroke" x="736"/><g fill="black" stroke="black"><text y="484" dominant-baseline="hanging" stroke="none" vector-effect="non-scaling-stroke" x="752">Golang</text></g><g font-family="sans-serif" fill="hsl(49, 88%, 65%)" stroke="hsl(49, 88%, 65%)" stroke-width="1px" stroke-linejoin="round" stroke-linecap="round" font-size="12px" font-weight="normal" text-anchor="start" dominant-baseline="hanging" font-style="normal"><rect height="12" vector-effect="non-scaling-stroke" x="736" y="502" width="12"/><g fill="black" stroke="black"><text vector-effect="non-scaling-stroke" x="752" y="502" dominant-baseline="hanging" stroke="none">Rust</text><g stroke-linejoin="round" stroke-linecap="round" font-size="12px" fill="none" font-weight="normal" text-anchor="start" dominant-baseline="hanging" stroke-width="2px" font-family="sans-serif" font-style="normal"><rect vector-effect="non-scaling-stroke" x="80" y="80" width="640" height="440"/></g><g fill="none" stroke="black" font-size="12px" font-style="normal" transform="translate(80 520 )scale(1 -1 )" stroke-width="2px" stroke-linejoin="round" dominant-baseline="hanging" font-weight="normal" font-family="sans-serif" stroke-linecap="round" text-anchor="start"><path vector-effect="non-scaling-stroke" d="M64,0 L64,-6 M8.533333e+01,0 L8.533333e+01,-6 M1.066667e+02,0 L1.066667e+02,-6 "/></g><g dominant-baseline="hanging" font-family="sans-serif" stroke-linejoin="round" font-size="12px" font-style="normal" transform="translate(80 520 )scale(1 1 )" font-weight="normal" text-anchor="middle" fill="black" stroke="black" stroke-width="2px" stroke-linecap="round"><text dominant-baseline="hanging" stroke="none" vector-effect="non-scaling-stroke" x="64" y="10">1</text><text stroke="none" vector-effect="non-scaling-stroke" x="8.533333e+01" y="10" dominant-baseline="hanging">2</text><text stroke="none" vector-effect="non-scaling-stroke" x="1.066667e+02" y="10" dominant-baseline="hanging">3</text></g><g dominant-baseline="baseline" stroke-width="2px" stroke-linecap="round" font-weight="bold" text-anchor="middle" transform="translate(80 520 )scale(1 1 )rotate(0 0 0 )" stroke-linejoin="round" font-family="sans-serif" font-size="12px" font-style="normal" fill="black" stroke="black"><text x="320" y="-6" dominant-baseline="baseline" stroke="none" vector-effect="non-scaling-stroke">Day</text></g><g font-size="12px" fill="black" font-weight="bold" text-anchor="middle" dominant-baseline="baseline" font-style="normal" transform="translate(80 520 )scale(1 -1 )" stroke-linejoin="round" stroke="black" stroke-width="2px" stroke-linecap="round" font-family="sans-serif"><path vector-effect="non-scaling-stroke" d="M0,1.864207e+02 L-6,1.864207e+02 M0,2.220259e+02 L-6,2.220259e+02 M0,2.576311e+02 L-6,2.576311e+02 M0,2.932363e+02 L-6,2.932363e+02 M0,3.288415e+02 L-6,3.288415e+02 M0,3.644467e+02 L-6,3.644467e+02 "/></g><g font-weight="normal" text-anchor="end" font-size="12px" stroke-width="2px" stroke-linejoin="round" font-family="sans-serif" fill="black" font-style="normal" transform="translate(80 520 )scale(1 1 )" stroke-linecap="round" dominant-baseline="middle" stroke="black"><text stroke="none" vector-effect="non-scaling-stroke" x="-10" y="-1.864207e+02" dominant-baseline="middle">40µs</text><text stroke="none" vector-effect="non-scaling-stroke" x="-10" y="-2.220259e+02" dominant-baseline="middle">50µs</text><text y="-2.576311e+02" dominant-baseline="middle" stroke="none" vector-effect="non-scaling-stroke" x="-10">60µs</text><text y="-2.932363e+02" dominant-baseline="middle" stroke="none" vector-effect="non-scaling-stroke" x="-10">70µs</text><text y="-3.288415e+02" dominant-baseline="middle" stroke="none" vector-effect="non-scaling-stroke" x="-10">80µs</text><text vector-effect="non-scaling-stroke" x="-10" y="-3.644467e+02" dominant-baseline="middle" stroke="none">90µs</text></g><g font-weight="bold" font-size="12px" stroke-linecap="round" stroke-linejoin="round" dominant-baseline="hanging" fill="black" stroke="black" font-family="sans-serif" font-style="normal" transform="translate(80 520 )scale(1 1 )rotate(-90 0 0 )" stroke-width="2px" text-anchor="middle"><text vector-effect="non-scaling-stroke" x="220" y="6" dominant-baseline="hanging" stroke="none">Runtime</text></g></g></g></g></svg>