<svg viewbox="0 0 800 600" preserveAspectRatio="xMidYMid meet" xmlns="http://www.w3.org/2000/svg" width="800" height="600"><defs><marker refX="5" refY="5" markerUnits="userSpaceOnUse" markerWidth="2%" markerHeight="2%" id="circle" viewBox="0 0 10 10 "><circle r="3" fill="none" stroke="black" cx="5" cy="5"/></marker><marker viewBox="0 0 10 10 " refX="5" refY="5" markerUnits="userSpaceOnUse" markerWidth="2%" markerHeight="2%" id="filled-circle"><circle cx="5" cy="5" r="3" fill="black" stroke="none"/></marker><marker viewBox="0 0 10 10 " refX="5" refY="5" markerUnits="userSpaceOnUse" markerWidth="2%" markerHeight="2%" id="square"><rect fill="none" stroke="black" x="2" y="2" width="6" height="6"/></marker><marker refY="5" markerUnits="userSpaceOnUse" markerWidth="2%" markerHeight="2%" id="filled-square" viewBox="0 0 10 10 " refX="5"><rect height="6" fill="black" stroke="none" x="2" y="2" width="6"/></marker></defs><g transform="translate(80 520 )scale(1 -1 )" fill="hsl(198, 47%, 65%)" stroke="hsl(198, 47%, 65%)" stroke-width="1px" stroke-linecap="round" stroke-linejoin="round"><rect y="0" width="9.275362e+00" height="4.400340e+01" vector-effect="non-scaling-stroke" x="5.472464e+01"/><rect width="9.275362e+00" height="4.400094e+01" vector-effect="non-scaling-stroke" x="7.605797e+01" y="0"/><rect x="9.739130e+01" y="0" width="9.275362e+00" height="4.401031e+01" vector-effect="non-scaling-stroke"/><rect x="1.187246e+02" y="0" width="9.275362e+00" height="4.400445e+01" vector-effect="non-scaling-stroke"/><rect x="1.400580e+02" y="0" width="9.275362e+00" height="4.400254e+01" vector-effect="non-scaling-stroke"/><rect y="0" width="9.275362e+00" height="4.400662e+01" vector-effect="non-scaling-stroke" x="1.613913e+02"/><rect y="0" width="9.275362e+00" height="4.400515e+01" vector-effect="non-scaling-stroke" x="1.827246e+02"/><rect width="9.275362e+00" height="4.413827e+01" vector-effect="non-scaling-stroke" x="2.040580e+02" y="0"/><rect vector-effect="non-scaling-stroke" x="2.253913e+02" y="0" width="9.275362e+00" height="4.408287e+01"/><rect width="9.275362e+00" height="4.400033e+01" vector-effect="non-scaling-stroke" x="2.467246e+02" y="0"/><rect y="0" width="9.275362e+00" height="4.692071e+01" vector-effect="non-scaling-stroke" x="2.680580e+02"/><rect width="9.275362e+00" height="4.410484e+01" vector-effect="non-scaling-stroke" x="2.893913e+02" y="0"/><rect height="4.416704e+01" vector-effect="non-scaling-stroke" x="3.107246e+02" y="0" width="9.275362e+00"/><rect x="3.320580e+02" y="0" width="9.275362e+00" height="4.523347e+01" vector-effect="non-scaling-stroke"/><rect width="9.275362e+00" height="4.400105e+01" vector-effect="non-scaling-stroke" x="3.533913e+02" y="0"/><rect x="3.747246e+02" y="0" width="9.275362e+00" height="1.984923e+02" vector-effect="non-scaling-stroke"/><rect width="9.275362e+00" height="4.410012e+01" vector-effect="non-scaling-stroke" x="3.960580e+02" y="0"/><rect y="0" width="9.275362e+00" height="4.403919e+01" vector-effect="non-scaling-stroke" x="4.173913e+02"/><rect width="9.275362e+00" height="1.148373e+02" vector-effect="non-scaling-stroke" x="4.387246e+02" y="0"/><rect width="9.275362e+00" height="5.345443e+01" vector-effect="non-scaling-stroke" x="4.600580e+02" y="0"/><rect height="4.407537e+01" vector-effect="non-scaling-stroke" x="4.813913e+02" y="0" width="9.275362e+00"/><rect y="0" width="9.275362e+00" height="4.420383e+01" vector-effect="non-scaling-stroke" x="5.027246e+02"/><rect y="0" width="9.275362e+00" height="396" vector-effect="non-scaling-stroke" x="5.240580e+02"/></g><g stroke="hsl(49, 88%, 65%)" stroke-width="1px" stroke-linecap="round" stroke-linejoin="round" transform="translate(80 520 )scale(1 -1 )" fill="hsl(49, 88%, 65%)"><rect height="4.400154e+01" vector-effect="non-scaling-stroke" x="64" y="0" width="9.275362e+00"/><rect x="8.533333e+01" y="0" width="9.275362e+00" height="4.400023e+01" vector-effect="non-scaling-stroke"/><rect vector-effect="non-scaling-stroke" x="1.066667e+02" y="0" width="9.275362e+00" height="4.400779e+01"/><rect x="1.280000e+02" y="0" width="9.275362e+00" height="4.400266e+01" vector-effect="non-scaling-stroke"/><rect width="9.275362e+00" height="4.400205e+01" vector-effect="non-scaling-stroke" x="1.493333e+02" y="0"/><rect vector-effect="non-scaling-stroke" x="1.706667e+02" y="0" width="9.275362e+00" height="4.400394e+01"/><rect x="192" y="0" width="9.275362e+00" height="4.400461e+01" vector-effect="non-scaling-stroke"/><rect width="9.275362e+00" height="4.413413e+01" vector-effect="non-scaling-stroke" x="2.133333e+02" y="0"/><rect height="4.408011e+01" vector-effect="non-scaling-stroke" x="2.346667e+02" y="0" width="9.275362e+00"/><rect x="256" y="0" width="9.275362e+00" height="4.400025e+01" vector-effect="non-scaling-stroke"/><rect vector-effect="non-scaling-stroke" x="2.773333e+02" y="0" width="9.275362e+00" height="4.509041e+01"/><rect x="2.986667e+02" y="0" width="9.275362e+00" height="4.406548e+01" vector-effect="non-scaling-stroke"/><rect x="320" y="0" width="9.275362e+00" height="4.414163e+01" vector-effect="non-scaling-stroke"/><rect x="3.413333e+02" y="0" width="9.275362e+00" height="4.535857e+01" vector-effect="non-scaling-stroke"/><rect vector-effect="non-scaling-stroke" x="3.626667e+02" y="0" width="9.275362e+00" height="4.400044e+01"/><rect height="4.406845e+01" vector-effect="non-scaling-stroke" x="4.053333e+02" y="0" width="9.275362e+00"/><rect x="4.266667e+02" y="0" width="9.275362e+00" height="4.404599e+01" vector-effect="non-scaling-stroke"/><rect width="9.275362e+00" height="5.187673e+01" vector-effect="non-scaling-stroke" x="4.693333e+02" y="0"/><rect y="0" width="9.275362e+00" height="4.409358e+01" vector-effect="non-scaling-stroke" x="4.906667e+02"/></g><g font-weight="normal" stroke-width="1px" stroke-linecap="round" font-style="normal" fill="hsl(198, 47%, 65%)" stroke="hsl(198, 47%, 65%)" text-anchor="start" stroke-linejoin="round" dominant-baseline="hanging" font-family="sans-serif" font-size="12px"><rect width="12" height="12" vector-effect="non-scaling-stroke" x="736" y="484"/><g fill="black" stroke="black"><text x="752" y="484" dominant-baseline="hanging" stroke="none" vector-effect="non-scaling-stroke">Golang</text></g><g stroke-linejoin="round" stroke="hsl(49, 88%, 65%)" stroke-width="1px" font-family="sans-serif" text-anchor="start" font-weight="normal" dominant-baseline="hanging" fill="hsl(49, 88%, 65%)" stroke-linecap="round" font-size="12px" font-style="normal"><rect vector-effect="non-scaling-stroke" x="736" y="502" width="12" height="12"/><g fill="black" stroke="black"><text stroke="none" vector-effect="non-scaling-stroke" x="752" y="502" dominant-baseline="hanging">Rust</text><g font-size="12px" font-weight="normal" text-anchor="start" font-family="sans-serif" stroke-width="2px" font-style="normal" fill="none" dominant-baseline="hanging" stroke-linejoin="round" stroke-linecap="round"><rect vector-effect="non-scaling-stroke" x="80" y="80" width="640" height="440"/></g><g stroke-linejoin="round" font-weight="normal" fill="none" font-size="12px" text-anchor="start" transform="translate(80 520 )scale(1 -1 )" dominant-baseline="hanging" stroke="black" stroke-width="2px" stroke-linecap="round" font-family="sans-serif" font-style="normal"><path vector-effect="non-scaling-stroke" d="M64,0 L64,-6 M8.533333e+01,0 L8.533333e+01,-6 M1.066667e+02,0 L1.066667e+02,-6 M128,0 L128,-6 M1.493333e+02,0 L1.493333e+02,-6 M1.706667e+02,0 L1.706667e+02,-6 M192,0 L192,-6 M2.133333e+02,0 L2.133333e+02,-6 M2.346667e+02,0 L2.346667e+02,-6 M256,0 L256,-6 M2.773333e+02,0 L2.773333e+02,-6 M2.986667e+02,0 L2.986667e+02,-6 M320,0 L320,-6 M3.413333e+02,0 L3.413333e+02,-6 M3.626667e+02,0 L3.626667e+02,-6 M384,0 L384,-6 M4.053333e+02,0 L4.053333e+02,-6 M4.266667e+02,0 L4.266667e+02,-6 M448,0 L448,-6 M4.693333e+02,0 L4.693333e+02,-6 M4.906667e+02,0 L4.906667e+02,-6 M512,0 L512,-6 M5.333333e+02,0 L5.333333e+02,-6 "/></g><g font-weight="normal" stroke-linejoin="round" fill="black" stroke="black" stroke-width="2px" stroke-linecap="round" font-size="12px" font-style="normal" dominant-baseline="hanging" font-family="sans-serif" text-anchor="middle" transform="translate(80 520 )scale(1 1 )"><text vector-effect="non-scaling-stroke" x="64" y="10" dominant-baseline="hanging" stroke="none">1</text><text vector-effect="non-scaling-stroke" x="8.533333e+01" y="10" dominant-baseline="hanging" stroke="none">2</text><text vector-effect="non-scaling-stroke" x="1.066667e+02" y="10" dominant-baseline="hanging" stroke="none">3</text><text dominant-baseline="hanging" stroke="none" vector-effect="non-scaling-stroke" x="128" y="10">4</text><text y="10" dominant-baseline="hanging" stroke="none" vector-effect="non-scaling-stroke" x="1.493333e+02">5</text><text stroke="none" vector-effect="non-scaling-stroke" x="1.706667e+02" y="10" dominant-baseline="hanging">6</text><text x="192" y="10" dominant-baseline="hanging" stroke="none" vector-effect="non-scaling-stroke">7</text><text stroke="none" vector-effect="non-scaling-stroke" x="2.133333e+02" y="10" dominant-baseline="hanging">8</text><text y="10" dominant-baseline="hanging" stroke="none" vector-effect="non-scaling-stroke" x="2.346667e+02">9</text><text vector-effect="non-scaling-stroke" x="256" y="10" dominant-baseline="hanging" stroke="none">10</text><text y="10" dominant-baseline="hanging" stroke="none" vector-effect="non-scaling-stroke" x="2.773333e+02">11</text><text vector-effect="non-scaling-stroke" x="2.986667e+02" y="10" dominant-baseline="hanging" stroke="none">12</text><text dominant-baseline="hanging" stroke="none" vector-effect="non-scaling-stroke" x="320" y="10">13</text><text vector-effect="non-scaling-stroke" x="3.413333e+02" y="10" dominant-baseline="hanging" stroke="none">14</text><text vector-effect="non-scaling-stroke" x="3.626667e+02" y="10" dominant-baseline="hanging" stroke="none">15</text><text vector-effect="non-scaling-stroke" x="384" y="10" dominant-baseline="hanging" stroke="none">16</text><text dominant-baseline="hanging" stroke="none" vector-effect="non-scaling-stroke" x="4.053333e+02" y="10">17</text><text x="4.266667e+02" y="10" dominant-baseline="hanging" stroke="none" vector-effect="non-scaling-stroke">18</text><text stroke="none" vector-effect="non-scaling-stroke" x="448" y="10" dominant-baseline="hanging">19</text><text y="10" dominant-baseline="hanging" stroke="none" vector-effect="non-scaling-stroke" x="4.693333e+02">20</text><text dominant-baseline="hanging" stroke="none" vector-effect="non-scaling-stroke" x="4.906667e+02" y="10">21</text><text stroke="none" vector-effect="non-scaling-stroke" x="512" y="10" dominant-baseline="hanging">22</text><text dominant-baseline="hanging" stroke="none" vector-effect="non-scaling-stroke" x="5.333333e+02" y="10">23</text></g><g transform="translate(80 520 )scale(1 1 )rotate(0 0 0 )" dominant-baseline="baseline" font-weight="bold" fill="black" stroke-linecap="round" text-anchor="middle" font-size="12px" stroke-linejoin="round" font-style="normal" stroke="black" stroke-width="2px" font-family="sans-serif"><text y="-6" dominant-baseline="baseline" stroke="none" vector-effect="non-scaling-stroke" x="320">Day</text></g><g stroke-linejoin="round" dominant-baseline="baseline" font-style="normal" font-size="12px" font-weight="bold" fill="black" stroke="black" stroke-width="2px" stroke-linecap="round" font-family="sans-serif" text-anchor="middle" transform="translate(80 520 )scale(1 -1 )"><path vector-effect="non-scaling-stroke" d="M0,44 L-6,44 M0,8.542487e+01 L-6,8.542487e+01 M0,1.268497e+02 L-6,1.268497e+02 M0,1.682746e+02 L-6,1.682746e+02 M0,2.096995e+02 L-6,2.096995e+02 M0,2.511243e+02 L-6,2.511243e+02 M0,2.925492e+02 L-6,2.925492e+02 M0,3.339741e+02 L-6,3.339741e+02 M0,3.753989e+02 L-6,3.753989e+02 "/></g><g stroke-width="2px" transform="translate(80 520 )scale(1 1 )" stroke-linejoin="round" font-size="12px" font-style="normal" fill="black" stroke="black" dominant-baseline="middle" font-weight="normal" stroke-linecap="round" font-family="sans-serif" text-anchor="end"><text stroke="none" vector-effect="non-scaling-stroke" x="-10" y="-44" dominant-baseline="middle">0s</text><text x="-10" y="-8.542487e+01" dominant-baseline="middle" stroke="none" vector-effect="non-scaling-stroke">200ms</text><text y="-1.268497e+02" dominant-baseline="middle" stroke="none" vector-effect="non-scaling-stroke" x="-10">400ms</text><text y="-1.682746e+02" dominant-baseline="middle" stroke="none" vector-effect="non-scaling-stroke" x="-10">600ms</text><text x="-10" y="-2.096995e+02" dominant-baseline="middle" stroke="none" vector-effect="non-scaling-stroke">800ms</text><text y="-2.511243e+02" dominant-baseline="middle" stroke="none" vector-effect="non-scaling-stroke" x="-10">1s</text><text x="-10" y="-2.925492e+02" dominant-baseline="middle" stroke="none" vector-effect="non-scaling-stroke">1.2s</text><text x="-10" y="-3.339741e+02" dominant-baseline="middle" stroke="none" vector-effect="non-scaling-stroke">1.4s</text><text dominant-baseline="middle" stroke="none" vector-effect="non-scaling-stroke" x="-10" y="-3.753989e+02">1.6s</text></g><g text-anchor="middle" transform="translate(80 520 )scale(1 1 )rotate(-90 0 0 )" stroke-linejoin="round" dominant-baseline="hanging" font-family="sans-serif" font-size="12px" font-style="normal" font-weight="bold" fill="black" stroke="black" stroke-width="2px" stroke-linecap="round"><text vector-effect="non-scaling-stroke" x="220" y="6" dominant-baseline="hanging" stroke="none">Runtime</text></g></g></g></g></svg>