<svg preserveAspectRatio="xMidYMid meet" xmlns="http://www.w3.org/2000/svg" width="800" height="600" viewbox="0 0 800 600"><defs><marker markerWidth="2%" markerHeight="2%" id="circle" viewBox="0 0 10 10 " refX="5" refY="5" markerUnits="userSpaceOnUse"><circle cx="5" cy="5" r="3" fill="none" stroke="black"/></marker><marker id="filled-circle" viewBox="0 0 10 10 " refX="5" refY="5" markerUnits="userSpaceOnUse" markerWidth="2%" markerHeight="2%"><circle cx="5" cy="5" r="3" fill="black" stroke="none"/></marker><marker refY="5" markerUnits="userSpaceOnUse" markerWidth="2%" markerHeight="2%" id="square" viewBox="0 0 10 10 " refX="5"><rect x="2" y="2" width="6" height="6" fill="none" stroke="black"/></marker><marker id="filled-square" viewBox="0 0 10 10 " refX="5" refY="5" markerUnits="userSpaceOnUse" markerWidth="2%" markerHeight="2%"><rect width="6" height="6" fill="black" stroke="none" x="2" y="2"/></marker></defs><g stroke-width="1px" stroke-linecap="round" stroke-linejoin="round" transform="translate(80 520 )scale(1 -1 )" fill="hsl(198, 47%, 65%)" stroke="hsl(198, 47%, 65%)"><rect width="1.523810e+01" height="4.441257e+01" vector-effect="non-scaling-stroke" x="4.876190e+01" y="0"/><rect y="0" width="1.523810e+01" height="4.411410e+01" vector-effect="non-scaling-stroke" x="7.009524e+01"/><rect y="0" width="1.523810e+01" height="4.525135e+01" vector-effect="non-scaling-stroke" x="9.142857e+01"/><rect vector-effect="non-scaling-stroke" x="1.127619e+02" y="0" width="1.523810e+01" height="4.450511e+01"/><rect y="0" width="1.523810e+01" height="4.430672e+01" vector-effect="non-scaling-stroke" x="1.340952e+02"/><rect width="1.523810e+01" height="4.480381e+01" vector-effect="non-scaling-stroke" x="1.554286e+02" y="0"/><rect width="1.523810e+01" height="4.462087e+01" vector-effect="non-scaling-stroke" x="1.767619e+02" y="0"/><rect vector-effect="non-scaling-stroke" x="1.980952e+02" y="0" width="1.523810e+01" height="6.077772e+01"/><rect vector-effect="non-scaling-stroke" x="2.194286e+02" y="0" width="1.523810e+01" height="5.379807e+01"/><rect x="2.407619e+02" y="0" width="1.523810e+01" height="4.404087e+01" vector-effect="non-scaling-stroke"/><rect height="396" vector-effect="non-scaling-stroke" x="2.620952e+02" y="0" width="1.523810e+01"/><rect height="5.837093e+01" vector-effect="non-scaling-stroke" x="2.834286e+02" y="0" width="1.523810e+01"/><rect width="1.523810e+01" height="6.395524e+01" vector-effect="non-scaling-stroke" x="3.047619e+02" y="0"/><rect height="1.933623e+02" vector-effect="non-scaling-stroke" x="3.260952e+02" y="0" width="1.523810e+01"/></g><g stroke-width="1px" stroke-linecap="round" stroke-linejoin="round" transform="translate(80 520 )scale(1 -1 )" fill="hsl(49, 88%, 65%)" stroke="hsl(49, 88%, 65%)"><rect width="1.523810e+01" height="4.418676e+01" vector-effect="non-scaling-stroke" x="64" y="0"/><rect y="0" width="1.523810e+01" height="4.402739e+01" vector-effect="non-scaling-stroke" x="8.533333e+01"/><rect x="1.066667e+02" y="0" width="1.523810e+01" height="4.494503e+01" vector-effect="non-scaling-stroke"/><rect y="0" width="1.523810e+01" height="4.432235e+01" vector-effect="non-scaling-stroke" x="128"/><rect height="4.424934e+01" vector-effect="non-scaling-stroke" x="1.493333e+02" y="0" width="1.523810e+01"/><rect vector-effect="non-scaling-stroke" x="1.706667e+02" y="0" width="1.523810e+01" height="4.447789e+01"/><rect x="192" y="0" width="1.523810e+01" height="4.455890e+01" vector-effect="non-scaling-stroke"/><rect height="6.027557e+01" vector-effect="non-scaling-stroke" x="2.133333e+02" y="0" width="1.523810e+01"/><rect height="5.372041e+01" vector-effect="non-scaling-stroke" x="2.346667e+02" y="0" width="1.523810e+01"/><rect width="1.523810e+01" height="4.402996e+01" vector-effect="non-scaling-stroke" x="2.560000e+02" y="0"/><rect y="0" width="1.523810e+01" height="1.763100e+02" vector-effect="non-scaling-stroke" x="2.773333e+02"/><rect width="1.523810e+01" height="5.355796e+01" vector-effect="non-scaling-stroke" x="2.986667e+02" y="0"/><rect y="0" width="1.523810e+01" height="6.118486e+01" vector-effect="non-scaling-stroke" x="320"/><rect y="0" width="1.523810e+01" height="2.088491e+02" vector-effect="non-scaling-stroke" x="3.413333e+02"/></g><g text-anchor="start" font-size="12px" stroke-width="1px" font-style="normal" fill="hsl(198, 47%, 65%)" stroke="hsl(198, 47%, 65%)" stroke-linecap="round" stroke-linejoin="round" font-family="sans-serif" font-weight="normal" dominant-baseline="hanging"><rect y="484" width="12" height="12" vector-effect="non-scaling-stroke" x="736"/><g fill="black" stroke="black"><text stroke="none" vector-effect="non-scaling-stroke" x="752" y="484" dominant-baseline="hanging">Golang</text></g><g font-weight="normal" dominant-baseline="hanging" stroke-width="1px" text-anchor="start" fill="hsl(49, 88%, 65%)" font-size="12px" font-family="sans-serif" font-style="normal" stroke="hsl(49, 88%, 65%)" stroke-linecap="round" stroke-linejoin="round"><rect width="12" height="12" vector-effect="non-scaling-stroke" x="736" y="502"/><g fill="black" stroke="black"><text vector-effect="non-scaling-stroke" x="752" y="502" dominant-baseline="hanging" stroke="none">Rust</text><g font-family="sans-serif" font-size="12px" text-anchor="start" fill="none" dominant-baseline="hanging" stroke-linecap="round" font-style="normal" stroke-width="2px" stroke-linejoin="round" font-weight="normal"><rect vector-effect="non-scaling-stroke" x="80" y="80" width="640" height="440"/></g><g font-family="sans-serif" fill="none" transform="translate(80 520 )scale(1 -1 )" stroke-width="2px" font-style="normal" text-anchor="start" stroke="black" stroke-linecap="round" stroke-linejoin="round" dominant-baseline="hanging" font-size="12px" font-weight="normal"><path d="M64,0 L64,-6 M8.533333e+01,0 L8.533333e+01,-6 M1.066667e+02,0 L1.066667e+02,-6 M128,0 L128,-6 M1.493333e+02,0 L1.493333e+02,-6 M1.706667e+02,0 L1.706667e+02,-6 M192,0 L192,-6 M2.133333e+02,0 L2.133333e+02,-6 M2.346667e+02,0 L2.346667e+02,-6 M256,0 L256,-6 M2.773333e+02,0 L2.773333e+02,-6 M2.986667e+02,0 L2.986667e+02,-6 M320,0 L320,-6 M3.413333e+02,0 L3.413333e+02,-6 " vector-effect="non-scaling-stroke"/></g><g stroke-width="2px" text-anchor="middle" stroke-linejoin="round" font-family="sans-serif" transform="translate(80 520 )scale(1 1 )" font-weight="normal" dominant-baseline="hanging" font-style="normal" fill="black" stroke="black" stroke-linecap="round" font-size="12px"><text vector-effect="non-scaling-stroke" x="64" y="10" dominant-baseline="hanging" stroke="none">1</text><text stroke="none" vector-effect="non-scaling-stroke" x="8.533333e+01" y="10" dominant-baseline="hanging">2</text><text x="1.066667e+02" y="10" dominant-baseline="hanging" stroke="none" vector-effect="non-scaling-stroke">3</text><text y="10" dominant-baseline="hanging" stroke="none" vector-effect="non-scaling-stroke" x="128">4</text><text x="1.493333e+02" y="10" dominant-baseline="hanging" stroke="none" vector-effect="non-scaling-stroke">5</text><text y="10" dominant-baseline="hanging" stroke="none" vector-effect="non-scaling-stroke" x="1.706667e+02">6</text><text stroke="none" vector-effect="non-scaling-stroke" x="192" y="10" dominant-baseline="hanging">7</text><text vector-effect="non-scaling-stroke" x="2.133333e+02" y="10" dominant-baseline="hanging" stroke="none">8</text><text x="2.346667e+02" y="10" dominant-baseline="hanging" stroke="none" vector-effect="non-scaling-stroke">9</text><text dominant-baseline="hanging" stroke="none" vector-effect="non-scaling-stroke" x="256" y="10">10</text><text x="2.773333e+02" y="10" dominant-baseline="hanging" stroke="none" vector-effect="non-scaling-stroke">11</text><text x="2.986667e+02" y="10" dominant-baseline="hanging" stroke="none" vector-effect="non-scaling-stroke">12</text><text x="320" y="10" dominant-baseline="hanging" stroke="none" vector-effect="non-scaling-stroke">13</text><text dominant-baseline="hanging" stroke="none" vector-effect="non-scaling-stroke" x="3.413333e+02" y="10">14</text></g><g text-anchor="middle" fill="black" stroke="black" stroke-linecap="round" stroke-linejoin="round" font-size="12px" font-weight="bold" font-style="normal" stroke-width="2px" font-family="sans-serif" transform="translate(80 520 )scale(1 1 )rotate(0 0 0 )" dominant-baseline="baseline"><text x="320" y="-6" dominant-baseline="baseline" stroke="none" vector-effect="non-scaling-stroke">Day</text></g><g text-anchor="middle" font-family="sans-serif" font-weight="bold" transform="translate(80 520 )scale(1 -1 )" stroke-linejoin="round" font-size="12px" dominant-baseline="baseline" stroke-width="2px" font-style="normal" fill="black" stroke="black" stroke-linecap="round"><path vector-effect="non-scaling-stroke" d="M0,44 L-6,44 M0,9.426497e+01 L-6,9.426497e+01 M0,1.445299e+02 L-6,1.445299e+02 M0,1.947949e+02 L-6,1.947949e+02 M0,2.450599e+02 L-6,2.450599e+02 M0,2.953248e+02 L-6,2.953248e+02 M0,3.455898e+02 L-6,3.455898e+02 M0,3.958548e+02 L-6,3.958548e+02 "/></g><g stroke-width="2px" font-style="normal" font-family="sans-serif" font-size="12px" font-weight="normal" text-anchor="end" dominant-baseline="middle" fill="black" stroke="black" stroke-linecap="round" stroke-linejoin="round" transform="translate(80 520 )scale(1 1 )"><text y="-44" dominant-baseline="middle" stroke="none" vector-effect="non-scaling-stroke" x="-10">0s</text><text stroke="none" vector-effect="non-scaling-stroke" x="-10" y="-9.426497e+01" dominant-baseline="middle">2ms</text><text vector-effect="non-scaling-stroke" x="-10" y="-1.445299e+02" dominant-baseline="middle" stroke="none">4ms</text><text vector-effect="non-scaling-stroke" x="-10" y="-1.947949e+02" dominant-baseline="middle" stroke="none">6ms</text><text y="-2.450599e+02" dominant-baseline="middle" stroke="none" vector-effect="non-scaling-stroke" x="-10">8ms</text><text dominant-baseline="middle" stroke="none" vector-effect="non-scaling-stroke" x="-10" y="-2.953248e+02">10ms</text><text y="-3.455898e+02" dominant-baseline="middle" stroke="none" vector-effect="non-scaling-stroke" x="-10">12ms</text><text dominant-baseline="middle" stroke="none" vector-effect="non-scaling-stroke" x="-10" y="-3.958548e+02">14ms</text></g><g font-style="normal" text-anchor="middle" stroke="black" stroke-linecap="round" font-size="12px" dominant-baseline="hanging" stroke-width="2px" stroke-linejoin="round" font-family="sans-serif" font-weight="bold" transform="translate(80 520 )scale(1 1 )rotate(-90 0 0 )" fill="black"><text y="6" dominant-baseline="hanging" stroke="none" vector-effect="non-scaling-stroke" x="220">Runtime</text></g></g></g></g></svg>