<svg xmlns="http://www.w3.org/2000/svg" width="800" height="600" viewbox="0 0 800 600" preserveAspectRatio="xMidYMid meet"><defs><marker viewBox="0 0 10 10 " refX="5" refY="5" markerUnits="userSpaceOnUse" markerWidth="2%" markerHeight="2%" id="circle"><circle cx="5" cy="5" r="3" fill="none" stroke="black"/></marker><marker markerWidth="2%" markerHeight="2%" id="filled-circle" viewBox="0 0 10 10 " refX="5" refY="5" markerUnits="userSpaceOnUse"><circle fill="black" stroke="none" cx="5" cy="5" r="3"/></marker><marker markerUnits="userSpaceOnUse" markerWidth="2%" markerHeight="2%" id="square" viewBox="0 0 10 10 " refX="5" refY="5"><rect fill="none" stroke="black" x="2" y="2" width="6" height="6"/></marker><marker refY="5" markerUnits="userSpaceOnUse" markerWidth="2%" markerHeight="2%" id="filled-square" viewBox="0 0 10 10 " refX="5"><rect height="6" fill="black" stroke="none" x="2" y="2" width="6"/></marker></defs><g transform="translate(80 520 )scale(1 -1 )" fill="hsl(198, 47%, 65%)" stroke="hsl(198, 47%, 65%)" stroke-width="1px" stroke-linecap="round" stroke-linejoin="round"><rect vector-effect="non-scaling-stroke" x="4.876190e+01" y="0" width="1.015873e+01" height="4.416107e+01"/><rect y="0" width="1.015873e+01" height="4.400552e+01" vector-effect="non-scaling-stroke" x="7.009524e+01"/><rect width="1.015873e+01" height="4.402370e+01" vector-effect="non-scaling-stroke" x="9.142857e+01" y="0"/><rect width="1.015873e+01" height="4.403046e+01" vector-effect="non-scaling-stroke" x="1.127619e+02" y="0"/><rect x="1.340952e+02" y="0" width="1.015873e+01" height="4.404900e+01" vector-effect="non-scaling-stroke"/><rect x="1.554286e+02" y="0" width="1.015873e+01" height="4.400013e+01" vector-effect="non-scaling-stroke"/><rect x="1.767619e+02" y="0" width="1.015873e+01" height="4.433411e+01" vector-effect="non-scaling-stroke"/><rect height="4.488021e+01" vector-effect="non-scaling-stroke" x="1.980952e+02" y="0" width="1.015873e+01"/><rect y="0" width="1.015873e+01" height="4.407871e+01" vector-effect="non-scaling-stroke" x="2.194286e+02"/><rect width="1.015873e+01" height="4.504864e+01" vector-effect="non-scaling-stroke" x="2.407619e+02" y="0"/><rect width="1.015873e+01" height="4.424140e+01" vector-effect="non-scaling-stroke" x="2.620952e+02" y="0"/><rect y="0" width="1.015873e+01" height="396" vector-effect="non-scaling-stroke" x="2.834286e+02"/><rect y="0" width="1.015873e+01" height="4.410024e+01" vector-effect="non-scaling-stroke" x="3.047619e+02"/><rect width="1.015873e+01" height="5.788626e+01" vector-effect="non-scaling-stroke" x="3.260952e+02" y="0"/></g><g stroke-linejoin="round" transform="translate(80 520 )scale(1 -1 )" fill="hsl(49, 88%, 65%)" stroke="hsl(49, 88%, 65%)" stroke-width="1px" stroke-linecap="round"><rect height="4.408368e+01" vector-effect="non-scaling-stroke" x="5.892063e+01" y="0" width="1.015873e+01"/><rect y="0" width="1.015873e+01" height="4.400216e+01" vector-effect="non-scaling-stroke" x="8.025397e+01"/><rect width="1.015873e+01" height="4.401564e+01" vector-effect="non-scaling-stroke" x="1.015873e+02" y="0"/><rect x="1.229206e+02" y="0" width="1.015873e+01" height="4.401708e+01" vector-effect="non-scaling-stroke"/><rect vector-effect="non-scaling-stroke" x="1.442540e+02" y="0" width="1.015873e+01" height="4.400997e+01"/><rect x="1.655873e+02" y="0" width="1.015873e+01" height="4.400009e+01" vector-effect="non-scaling-stroke"/><rect y="0" width="1.015873e+01" height="4.651565e+01" vector-effect="non-scaling-stroke" x="2.082540e+02"/><rect vector-effect="non-scaling-stroke" x="2.295873e+02" y="0" width="1.015873e+01" height="4.404421e+01"/><rect width="1.015873e+01" height="4.407725e+01" vector-effect="non-scaling-stroke" x="2.509206e+02" y="0"/><rect vector-effect="non-scaling-stroke" x="2.722540e+02" y="0" width="1.015873e+01" height="4.422258e+01"/><rect height="4.404709e+01" vector-effect="non-scaling-stroke" x="3.149206e+02" y="0" width="1.015873e+01"/></g><g stroke="hsl(260, 76%, 65%)" stroke-width="1px" stroke-linecap="round" stroke-linejoin="round" transform="translate(80 520 )scale(1 -1 )" fill="hsl(260, 76%, 65%)"><rect vector-effect="non-scaling-stroke" x="6.907937e+01" y="0" width="1.015873e+01" height="4.406687e+01"/><rect x="9.041270e+01" y="0" width="1.015873e+01" height="4.400234e+01" vector-effect="non-scaling-stroke"/><rect height="4.401242e+01" vector-effect="non-scaling-stroke" x="1.117460e+02" y="0" width="1.015873e+01"/><rect x="1.330794e+02" y="0" width="1.015873e+01" height="4.404748e+01" vector-effect="non-scaling-stroke"/><rect vector-effect="non-scaling-stroke" x="1.544127e+02" y="0" width="1.015873e+01" height="4.575806e+01"/><rect y="0" width="1.015873e+01" height="4.400008e+01" vector-effect="non-scaling-stroke" x="1.757460e+02"/><rect vector-effect="non-scaling-stroke" x="1.970794e+02" y="0" width="1.015873e+01" height="4.403908e+01"/><rect x="2.184127e+02" y="0" width="1.015873e+01" height="4.419846e+01" vector-effect="non-scaling-stroke"/><rect vector-effect="non-scaling-stroke" x="2.397460e+02" y="0" width="1.015873e+01" height="4.404643e+01"/><rect x="2.610794e+02" y="0" width="1.015873e+01" height="4.407512e+01" vector-effect="non-scaling-stroke"/><rect vector-effect="non-scaling-stroke" x="2.824127e+02" y="0" width="1.015873e+01" height="6.137333e+01"/></g><g stroke-width="1px" stroke-linecap="round" font-size="12px" font-style="normal" dominant-baseline="hanging" stroke="hsl(198, 47%, 65%)" stroke-linejoin="round" fill="hsl(198, 47%, 65%)" font-weight="normal" text-anchor="start" font-family="sans-serif"><rect height="12" vector-effect="non-scaling-stroke" x="736" y="466" width="12"/><g stroke="black" fill="black"><text vector-effect="non-scaling-stroke" x="752" y="466" dominant-baseline="hanging" stroke="none">Golang</text></g><g stroke="hsl(49, 88%, 65%)" font-weight="normal" dominant-baseline="hanging" fill="hsl(49, 88%, 65%)" stroke-width="1px" stroke-linecap="round" font-family="sans-serif" font-style="normal" font-size="12px" text-anchor="start" stroke-linejoin="round"><rect width="12" height="12" vector-effect="non-scaling-stroke" x="736" y="484"/><g fill="black" stroke="black"><text stroke="none" vector-effect="non-scaling-stroke" x="752" y="484" dominant-baseline="hanging">Rust</text></g><g stroke-linecap="round" font-weight="normal" text-anchor="start" font-size="12px" dominant-baseline="hanging" fill="hsl(260, 76%, 65%)" stroke-width="1px" stroke="hsl(260, 76%, 65%)" stroke-linejoin="round" font-family="sans-serif" font-style="normal"><rect width="12" height="12" vector-effect="non-scaling-stroke" x="736" y="502"/><g stroke="black" fill="black"><text x="752" y="502" dominant-baseline="hanging" stroke="none" vector-effect="non-scaling-stroke">Zig</text><g stroke-linejoin="round" font-family="sans-serif" stroke-width="2px" stroke-linecap="round" font-size="12px" font-style="normal" dominant-baseline="hanging" fill="none" font-weight="normal" text-anchor="start"><rect vector-effect="non-scaling-stroke" x="80" y="80" width="640" height="440"/></g><g transform="translate(80 520 )scale(1 -1 )" stroke="black" font-style="normal" dominant-baseline="hanging" fill="none" font-weight="normal" text-anchor="start" font-size="12px" stroke-width="2px" stroke-linecap="round" stroke-linejoin="round" font-family="sans-serif"><path vector-effect="non-scaling-stroke" d="M64,0 L64,-6 M8.533333e+01,0 L8.533333e+01,-6 M1.066667e+02,0 L1.066667e+02,-6 M128,0 L128,-6 M1.493333e+02,0 L1.493333e+02,-6 M1.706667e+02,0 L1.706667e+02,-6 M192,0 L192,-6 M2.133333e+02,0 L2.133333e+02,-6 M2.346667e+02,0 L2.346667e+02,-6 M256,0 L256,-6 M2.773333e+02,0 L2.773333e+02,-6 M2.986667e+02,0 L2.986667e+02,-6 M320,0 L320,-6 M3.413333e+02,0 L3.413333e+02,-6 "/></g><g font-style="normal" fill="black" stroke-linejoin="round" font-family="sans-serif" text-anchor="middle" stroke-width="2px" stroke-linecap="round" font-weight="normal" transform="translate(80 520 )scale(1 1 )" stroke="black" font-size="12px" dominant-baseline="hanging"><text stroke="none" vector-effect="non-scaling-stroke" x="64" y="10" dominant-baseline="hanging">1</text><text stroke="none" vector-effect="non-scaling-stroke" x="8.533333e+01" y="10" dominant-baseline="hanging">2</text><text dominant-baseline="hanging" stroke="none" vector-effect="non-scaling-stroke" x="1.066667e+02" y="10">3</text><text x="128" y="10" dominant-baseline="hanging" stroke="none" vector-effect="non-scaling-stroke">4</text><text vector-effect="non-scaling-stroke" x="1.493333e+02" y="10" dominant-baseline="hanging" stroke="none">5</text><text stroke="none" vector-effect="non-scaling-stroke" x="1.706667e+02" y="10" dominant-baseline="hanging">6</text><text x="192" y="10" dominant-baseline="hanging" stroke="none" vector-effect="non-scaling-stroke">7</text><text dominant-baseline="hanging" stroke="none" vector-effect="non-scaling-stroke" x="2.133333e+02" y="10">8</text><text dominant-baseline="hanging" stroke="none" vector-effect="non-scaling-stroke" x="2.346667e+02" y="10">9</text><text dominant-baseline="hanging" stroke="none" vector-effect="non-scaling-stroke" x="256" y="10">10</text><text vector-effect="non-scaling-stroke" x="2.773333e+02" y="10" dominant-baseline="hanging" stroke="none">11</text><text stroke="none" vector-effect="non-scaling-stroke" x="2.986667e+02" y="10" dominant-baseline="hanging">12</text><text vector-effect="non-scaling-stroke" x="320" y="10" dominant-baseline="hanging" stroke="none">13</text><text stroke="none" vector-effect="non-scaling-stroke" x="3.413333e+02" y="10" dominant-baseline="hanging">14</text></g><g stroke-linecap="round" font-style="normal" font-family="sans-serif" font-weight="bold" text-anchor="middle" stroke="black" stroke-linejoin="round" transform="translate(80 520 )scale(1 1 )rotate(0 0 0 )" font-size="12px" dominant-baseline="baseline" fill="black" stroke-width="2px"><text x="320" y="-6" dominant-baseline="baseline" stroke="none" vector-effect="non-scaling-stroke">Day</text></g><g transform="translate(80 520 )scale(1 -1 )" stroke="black" stroke-width="2px" font-size="12px" dominant-baseline="baseline" fill="black" stroke-linejoin="round" font-family="sans-serif" stroke-linecap="round" font-style="normal" font-weight="bold" text-anchor="middle"><path vector-effect="non-scaling-stroke" d="M0,44 L-6,44 M0,1.341724e+02 L-6,1.341724e+02 M0,2.243448e+02 L-6,2.243448e+02 M0,3.145172e+02 L-6,3.145172e+02 "/></g><g transform="translate(80 520 )scale(1 1 )" fill="black" stroke-linecap="round" font-size="12px" dominant-baseline="middle" stroke="black" stroke-linejoin="round" text-anchor="end" font-style="normal" font-family="sans-serif" font-weight="normal" stroke-width="2px"><text stroke="none" vector-effect="non-scaling-stroke" x="-10" y="-44" dominant-baseline="middle">0s</text><text stroke="none" vector-effect="non-scaling-stroke" x="-10" y="-1.341724e+02" dominant-baseline="middle">100ms</text><text y="-2.243448e+02" dominant-baseline="middle" stroke="none" vector-effect="non-scaling-stroke" x="-10">200ms</text><text y="-3.145172e+02" dominant-baseline="middle" stroke="none" vector-effect="non-scaling-stroke" x="-10">300ms</text></g><g font-style="normal" dominant-baseline="hanging" stroke-width="2px" font-weight="bold" text-anchor="middle" stroke-linejoin="round" stroke-linecap="round" font-size="12px" fill="black" font-family="sans-serif" transform="translate(80 520 )scale(1 1 )rotate(-90 0 0 )" stroke="black"><text dominant-baseline="hanging" stroke="none" vector-effect="non-scaling-stroke" x="220" y="6">Runtime</text></g></g></g></g></g></svg>