<svg preserveAspectRatio="xMidYMid meet" xmlns="http://www.w3.org/2000/svg" width="800" height="600" viewbox="0 0 800 600"><defs><marker markerWidth="2%" markerHeight="2%" id="circle" viewBox="0 0 10 10 " refX="5" refY="5" markerUnits="userSpaceOnUse"><circle fill="none" stroke="black" cx="5" cy="5" r="3"/></marker><marker markerHeight="2%" id="filled-circle" viewBox="0 0 10 10 " refX="5" refY="5" markerUnits="userSpaceOnUse" markerWidth="2%"><circle cy="5" r="3" fill="black" stroke="none" cx="5"/></marker><marker markerWidth="2%" markerHeight="2%" id="square" viewBox="0 0 10 10 " refX="5" refY="5" markerUnits="userSpaceOnUse"><rect x="2" y="2" width="6" height="6" fill="none" stroke="black"/></marker><marker refY="5" markerUnits="userSpaceOnUse" markerWidth="2%" markerHeight="2%" id="filled-square" viewBox="0 0 10 10 " refX="5"><rect height="6" fill="black" stroke="none" x="2" y="2" width="6"/></marker></defs><g stroke-linecap="round" stroke-linejoin="round" transform="translate(80 520 )scale(1 -1 )" fill="hsl(198, 47%, 65%)" stroke="hsl(198, 47%, 65%)" stroke-width="1px"><rect height="4.403144e+01" vector-effect="non-scaling-stroke" x="4.460606e+01" y="0" width="1.292929e+01"/><rect height="4.400108e+01" vector-effect="non-scaling-stroke" x="6.593939e+01" y="0" width="1.292929e+01"/><rect y="0" width="1.292929e+01" height="4.400463e+01" vector-effect="non-scaling-stroke" x="8.727273e+01"/><rect width="1.292929e+01" height="4.400595e+01" vector-effect="non-scaling-stroke" x="1.086061e+02" y="0"/><rect y="0" width="1.292929e+01" height="7.476154e+02" vector-effect="non-scaling-stroke" x="1.299394e+02"/><rect x="1.512727e+02" y="0" width="1.292929e+01" height="4.400002e+01" vector-effect="non-scaling-stroke"/><rect width="1.292929e+01" height="4.406498e+01" vector-effect="non-scaling-stroke" x="1.726061e+02" y="0"/><rect x="1.939394e+02" y="0" width="1.292929e+01" height="4.417180e+01" vector-effect="non-scaling-stroke"/><rect width="1.292929e+01" height="4.401536e+01" vector-effect="non-scaling-stroke" x="2.152727e+02" y="0"/><rect x="2.366061e+02" y="0" width="1.292929e+01" height="4.420467e+01" vector-effect="non-scaling-stroke"/><rect vector-effect="non-scaling-stroke" x="2.579394e+02" y="0" width="1.292929e+01" height="4.404654e+01"/></g><g fill="hsl(49, 88%, 65%)" stroke="hsl(49, 88%, 65%)" stroke-width="1px" stroke-linecap="round" stroke-linejoin="round" transform="translate(80 520 )scale(1 -1 )"><rect vector-effect="non-scaling-stroke" x="5.753535e+01" y="0" width="1.292929e+01" height="4.401633e+01"/><rect width="1.292929e+01" height="4.400042e+01" vector-effect="non-scaling-stroke" x="7.886869e+01" y="0"/><rect vector-effect="non-scaling-stroke" x="1.002020e+02" y="0" width="1.292929e+01" height="4.400305e+01"/><rect y="0" width="1.292929e+01" height="4.400333e+01" vector-effect="non-scaling-stroke" x="1.215354e+02"/><rect width="1.292929e+01" height="4.400195e+01" vector-effect="non-scaling-stroke" x="1.428687e+02" y="0"/><rect vector-effect="non-scaling-stroke" x="1.642020e+02" y="0" width="1.292929e+01" height="4.400002e+01"/><rect y="0" width="1.292929e+01" height="4.449101e+01" vector-effect="non-scaling-stroke" x="2.068687e+02"/><rect vector-effect="non-scaling-stroke" x="2.282020e+02" y="0" width="1.292929e+01" height="4.400863e+01"/><rect height="4.401508e+01" vector-effect="non-scaling-stroke" x="2.495354e+02" y="0" width="1.292929e+01"/><rect y="0" width="1.292929e+01" height="4.404344e+01" vector-effect="non-scaling-stroke" x="2.708687e+02"/></g><g transform="translate(80 520 )scale(1 -1 )" fill="hsl(260, 76%, 65%)" stroke="hsl(260, 76%, 65%)" stroke-width="1px" stroke-linecap="round" stroke-linejoin="round"><rect width="1.292929e+01" height="4.401305e+01" vector-effect="non-scaling-stroke" x="7.046465e+01" y="0"/><rect vector-effect="non-scaling-stroke" x="9.179798e+01" y="0" width="1.292929e+01" height="4.400046e+01"/><rect x="1.131313e+02" y="0" width="1.292929e+01" height="4.400242e+01" vector-effect="non-scaling-stroke"/><rect height="4.400927e+01" vector-effect="non-scaling-stroke" x="1.344646e+02" y="0" width="1.292929e+01"/><rect y="0" width="1.292929e+01" height="4.434314e+01" vector-effect="non-scaling-stroke" x="1.557980e+02"/><rect vector-effect="non-scaling-stroke" x="1.771313e+02" y="0" width="1.292929e+01" height="4.400002e+01"/><rect vector-effect="non-scaling-stroke" x="1.984646e+02" y="0" width="1.292929e+01" height="4.400580e+01"/><rect vector-effect="non-scaling-stroke" x="2.197980e+02" y="0" width="1.292929e+01" height="4.403874e+01"/><rect x="2.411313e+02" y="0" width="1.292929e+01" height="4.400906e+01" vector-effect="non-scaling-stroke"/><rect x="2.624646e+02" y="0" width="1.292929e+01" height="4.401466e+01" vector-effect="non-scaling-stroke"/></g><g dominant-baseline="hanging" font-size="12px" font-style="normal" text-anchor="start" stroke="hsl(198, 47%, 65%)" stroke-linejoin="round" stroke-linecap="round" font-family="sans-serif" font-weight="normal" stroke-width="1px" fill="hsl(198, 47%, 65%)"><rect height="12" vector-effect="non-scaling-stroke" x="736" y="466" width="12"/><g fill="black" stroke="black"><text stroke="none" vector-effect="non-scaling-stroke" x="752" y="466" dominant-baseline="hanging">Golang</text></g><g fill="hsl(49, 88%, 65%)" dominant-baseline="hanging" text-anchor="start" stroke="hsl(49, 88%, 65%)" stroke-width="1px" stroke-linejoin="round" font-family="sans-serif" stroke-linecap="round" font-size="12px" font-style="normal" font-weight="normal"><rect height="12" vector-effect="non-scaling-stroke" x="736" y="484" width="12"/><g stroke="black" fill="black"><text stroke="none" vector-effect="non-scaling-stroke" x="752" y="484" dominant-baseline="hanging">Rust</text></g><g text-anchor="start" stroke-width="1px" dominant-baseline="hanging" stroke-linejoin="round" font-family="sans-serif" font-weight="normal" fill="hsl(260, 76%, 65%)" stroke-linecap="round" font-style="normal" stroke="hsl(260, 76%, 65%)" font-size="12px"><rect x="736" y="502" width="12" height="12" vector-effect="non-scaling-stroke"/><g stroke="black" fill="black"><text vector-effect="non-scaling-stroke" x="752" y="502" dominant-baseline="hanging" stroke="none">Zig</text><g font-size="12px" stroke-linejoin="round" font-style="normal" stroke-linecap="round" stroke-width="2px" font-family="sans-serif" text-anchor="start" dominant-baseline="hanging" fill="none" font-weight="normal"><rect width="640" height="440" vector-effect="non-scaling-stroke" x="80" y="80"/></g><g text-anchor="start" transform="translate(80 520 )scale(1 -1 )" stroke="black" stroke-width="2px" font-size="12px" stroke-linecap="round" dominant-baseline="hanging" font-style="normal" font-weight="normal" stroke-linejoin="round" font-family="sans-serif" fill="none"><path vector-effect="non-scaling-stroke" d="M64,0 L64,-6 M8.533333e+01,0 L8.533333e+01,-6 M1.066667e+02,0 L1.066667e+02,-6 M128,0 L128,-6 M1.493333e+02,0 L1.493333e+02,-6 M1.706667e+02,0 L1.706667e+02,-6 M192,0 L192,-6 M2.133333e+02,0 L2.133333e+02,-6 M2.346667e+02,0 L2.346667e+02,-6 M256,0 L256,-6 M2.773333e+02,0 L2.773333e+02,-6 "/></g><g stroke="black" stroke-linejoin="round" font-style="normal" stroke-linecap="round" dominant-baseline="hanging" font-weight="normal" transform="translate(80 520 )scale(1 1 )" stroke-width="2px" font-family="sans-serif" fill="black" font-size="12px" text-anchor="middle"><text stroke="none" vector-effect="non-scaling-stroke" x="64" y="10" dominant-baseline="hanging">1</text><text y="10" dominant-baseline="hanging" stroke="none" vector-effect="non-scaling-stroke" x="8.533333e+01">2</text><text dominant-baseline="hanging" stroke="none" vector-effect="non-scaling-stroke" x="1.066667e+02" y="10">3</text><text x="128" y="10" dominant-baseline="hanging" stroke="none" vector-effect="non-scaling-stroke">4</text><text dominant-baseline="hanging" stroke="none" vector-effect="non-scaling-stroke" x="1.493333e+02" y="10">5</text><text stroke="none" vector-effect="non-scaling-stroke" x="1.706667e+02" y="10" dominant-baseline="hanging">6</text><text stroke="none" vector-effect="non-scaling-stroke" x="192" y="10" dominant-baseline="hanging">7</text><text vector-effect="non-scaling-stroke" x="2.133333e+02" y="10" dominant-baseline="hanging" stroke="none">8</text><text y="10" dominant-baseline="hanging" stroke="none" vector-effect="non-scaling-stroke" x="2.346667e+02">9</text><text stroke="none" vector-effect="non-scaling-stroke" x="256" y="10" dominant-baseline="hanging">10</text><text x="2.773333e+02" y="10" dominant-baseline="hanging" stroke="none" vector-effect="non-scaling-stroke">11</text></g><g font-size="12px" text-anchor="middle" transform="translate(80 520 )scale(1 1 )rotate(0 0 0 )" stroke-width="2px" stroke-linejoin="round" fill="black" dominant-baseline="baseline" font-weight="bold" stroke="black" font-family="sans-serif" font-style="normal" stroke-linecap="round"><text stroke="none" vector-effect="non-scaling-stroke" x="320" y="-6" dominant-baseline="baseline">Day</text></g><g transform="translate(80 520 )scale(1 -1 )" stroke-linecap="round" font-size="12px" font-weight="bold" text-anchor="middle" stroke-linejoin="round" font-family="sans-serif" font-style="normal" fill="black" dominant-baseline="baseline" stroke="black" stroke-width="2px"><path vector-effect="non-scaling-stroke" d="M0,44 L-6,44 M0,7.920000e+01 L-6,7.920000e+01 M0,1.144000e+02 L-6,1.144000e+02 M0,1.496000e+02 L-6,1.496000e+02 M0,1.848000e+02 L-6,1.848000e+02 M0,220 L-6,220 M0,2.552000e+02 L-6,2.552000e+02 M0,2.904000e+02 L-6,2.904000e+02 M0,3.256000e+02 L-6,3.256000e+02 M0,3.608000e+02 L-6,3.608000e+02 M0,396 L-6,396 "/></g><g stroke="black" font-weight="normal" dominant-baseline="middle" stroke-linecap="round" font-size="12px" transform="translate(80 520 )scale(1 1 )" stroke-width="2px" stroke-linejoin="round" font-family="sans-serif" font-style="normal" fill="black" text-anchor="end"><text dominant-baseline="middle" stroke="none" vector-effect="non-scaling-stroke" x="-10" y="-44">0s</text><text dominant-baseline="middle" stroke="none" vector-effect="non-scaling-stroke" x="-10" y="-7.920000e+01">200ms</text><text dominant-baseline="middle" stroke="none" vector-effect="non-scaling-stroke" x="-10" y="-1.144000e+02">400ms</text><text dominant-baseline="middle" stroke="none" vector-effect="non-scaling-stroke" x="-10" y="-1.496000e+02">600ms</text><text vector-effect="non-scaling-stroke" x="-10" y="-1.848000e+02" dominant-baseline="middle" stroke="none">800ms</text><text dominant-baseline="middle" stroke="none" vector-effect="non-scaling-stroke" x="-10" y="-220">1s</text><text stroke="none" vector-effect="non-scaling-stroke" x="-10" y="-2.552000e+02" dominant-baseline="middle">1.2s</text><text dominant-baseline="middle" stroke="none" vector-effect="non-scaling-stroke" x="-10" y="-2.904000e+02">1.4s</text><text stroke="none" vector-effect="non-scaling-stroke" x="-10" y="-3.256000e+02" dominant-baseline="middle">1.6s</text><text stroke="none" vector-effect="non-scaling-stroke" x="-10" y="-3.608000e+02" dominant-baseline="middle">1.8s</text><text stroke="none" vector-effect="non-scaling-stroke" x="-10" y="-396" dominant-baseline="middle">2s</text></g><g fill="black" stroke-linecap="round" stroke-linejoin="round" transform="translate(80 520 )scale(1 1 )rotate(-90 0 0 )" stroke="black" stroke-width="2px" dominant-baseline="hanging" font-family="sans-serif" font-style="normal" font-weight="bold" text-anchor="middle" font-size="12px"><text dominant-baseline="hanging" stroke="none" vector-effect="non-scaling-stroke" x="220" y="6">Runtime</text></g></g></g></g></g></svg>