<svg preserveAspectRatio="xMidYMid meet" xmlns="http://www.w3.org/2000/svg" width="800" height="600" viewbox="0 0 800 600"><defs><marker markerHeight="2%" id="circle" viewBox="0 0 10 10 " refX="5" refY="5" markerUnits="userSpaceOnUse" markerWidth="2%"><circle cy="5" r="3" fill="none" stroke="black" cx="5"/></marker><marker refY="5" markerUnits="userSpaceOnUse" markerWidth="2%" markerHeight="2%" id="filled-circle" viewBox="0 0 10 10 " refX="5"><circle stroke="none" cx="5" cy="5" r="3" fill="black"/></marker><marker markerHeight="2%" id="square" viewBox="0 0 10 10 " refX="5" refY="5" markerUnits="userSpaceOnUse" markerWidth="2%"><rect x="2" y="2" width="6" height="6" fill="none" stroke="black"/></marker><marker markerWidth="2%" markerHeight="2%" id="filled-square" viewBox="0 0 10 10 " refX="5" refY="5" markerUnits="userSpaceOnUse"><rect fill="black" stroke="none" x="2" y="2" width="6" height="6"/></marker></defs><g fill="hsl(198, 47%, 65%)" stroke="hsl(198, 47%, 65%)" stroke-width="1px" stroke-linecap="round" stroke-linejoin="round" transform="translate(80 520 )scale(1 -1 )"><rect height="4.401500e+01" vector-effect="non-scaling-stroke" x="5.546667e+01" y="0" width="5.688889e+00"/><rect x="7.680000e+01" y="0" width="5.688889e+00" height="4.400316e+01" vector-effect="non-scaling-stroke"/><rect y="0" width="5.688889e+00" height="4.403959e+01" vector-effect="non-scaling-stroke" x="9.813333e+01"/><rect x="1.194667e+02" y="0" width="5.688889e+00" height="4.401484e+01" vector-effect="non-scaling-stroke"/><rect width="5.688889e+00" height="4.400797e+01" vector-effect="non-scaling-stroke" x="1.408000e+02" y="0"/><rect width="5.688889e+00" height="4.400792e+01" vector-effect="non-scaling-stroke" x="1.621333e+02" y="0"/><rect width="5.688889e+00" height="4.402377e+01" vector-effect="non-scaling-stroke" x="1.834667e+02" y="0"/><rect vector-effect="non-scaling-stroke" x="2.048000e+02" y="0" width="5.688889e+00" height="4.464939e+01"/><rect width="5.688889e+00" height="4.439059e+01" vector-effect="non-scaling-stroke" x="2.261333e+02" y="0"/><rect width="5.688889e+00" height="4.400135e+01" vector-effect="non-scaling-stroke" x="2.474667e+02" y="0"/><rect width="5.688889e+00" height="5.017217e+01" vector-effect="non-scaling-stroke" x="2.688000e+02" y="0"/><rect height="4.434723e+01" vector-effect="non-scaling-stroke" x="2.901333e+02" y="0" width="5.688889e+00"/><rect width="5.688889e+00" height="4.527771e+01" vector-effect="non-scaling-stroke" x="3.114667e+02" y="0"/><rect x="3.328000e+02" y="0" width="5.688889e+00" height="4.919968e+01" vector-effect="non-scaling-stroke"/><rect width="5.688889e+00" height="4.400318e+01" vector-effect="non-scaling-stroke" x="3.541333e+02" y="0"/><rect vector-effect="non-scaling-stroke" x="3.754667e+02" y="0" width="5.688889e+00" height="2.790727e+02"/><rect width="5.688889e+00" height="4.478316e+01" vector-effect="non-scaling-stroke" x="3.968000e+02" y="0"/><rect y="0" width="5.688889e+00" height="4.415800e+01" vector-effect="non-scaling-stroke" x="4.181333e+02"/><rect height="2.617311e+02" vector-effect="non-scaling-stroke" x="4.394667e+02" y="0" width="5.688889e+00"/><rect width="5.688889e+00" height="1.066387e+02" vector-effect="non-scaling-stroke" x="4.608000e+02" y="0"/><rect vector-effect="non-scaling-stroke" x="4.821333e+02" y="0" width="5.688889e+00" height="4.447461e+01"/><rect width="5.688889e+00" height="4.446000e+01" vector-effect="non-scaling-stroke" x="5.034667e+02" y="0"/><rect vector-effect="non-scaling-stroke" x="5.248000e+02" y="0" width="5.688889e+00" height="1.459540e+02"/><rect height="1.758079e+02" vector-effect="non-scaling-stroke" x="5.461333e+02" y="0" width="5.688889e+00"/><rect vector-effect="non-scaling-stroke" x="5.674667e+02" y="0" width="5.688889e+00" height="4.400277e+01"/></g><g stroke-linejoin="round" transform="translate(80 520 )scale(1 -1 )" fill="hsl(49, 88%, 65%)" stroke="hsl(49, 88%, 65%)" stroke-width="1px" stroke-linecap="round"><rect width="5.688889e+00" height="4.401044e+01" vector-effect="non-scaling-stroke" x="6.115556e+01" y="0"/><rect vector-effect="non-scaling-stroke" x="8.248889e+01" y="0" width="5.688889e+00" height="4.400108e+01"/><rect width="5.688889e+00" height="4.407698e+01" vector-effect="non-scaling-stroke" x="1.038222e+02" y="0"/><rect vector-effect="non-scaling-stroke" x="1.251556e+02" y="0" width="5.688889e+00" height="4.401004e+01"/><rect vector-effect="non-scaling-stroke" x="1.464889e+02" y="0" width="5.688889e+00" height="4.400549e+01"/><rect vector-effect="non-scaling-stroke" x="1.678222e+02" y="0" width="5.688889e+00" height="4.400939e+01"/><rect vector-effect="non-scaling-stroke" x="1.891556e+02" y="0" width="5.688889e+00" height="4.401331e+01"/><rect x="2.104889e+02" y="0" width="5.688889e+00" height="4.449438e+01" vector-effect="non-scaling-stroke"/><rect width="5.688889e+00" height="4.431395e+01" vector-effect="non-scaling-stroke" x="2.318222e+02" y="0"/><rect y="0" width="5.688889e+00" height="4.400109e+01" vector-effect="non-scaling-stroke" x="2.531556e+02"/><rect y="0" width="5.688889e+00" height="4.798292e+01" vector-effect="non-scaling-stroke" x="2.744889e+02"/><rect width="5.688889e+00" height="4.420626e+01" vector-effect="non-scaling-stroke" x="2.958222e+02" y="0"/><rect y="0" width="5.688889e+00" height="4.442430e+01" vector-effect="non-scaling-stroke" x="3.171556e+02"/><rect height="4.990916e+01" vector-effect="non-scaling-stroke" x="3.384889e+02" y="0" width="5.688889e+00"/><rect x="3.598222e+02" y="0" width="5.688889e+00" height="4.400151e+01" vector-effect="non-scaling-stroke"/><rect x="3.811556e+02" y="0" width="5.688889e+00" height="3.014721e+02" vector-effect="non-scaling-stroke"/><rect x="4.024889e+02" y="0" width="5.688889e+00" height="4.427923e+01" vector-effect="non-scaling-stroke"/><rect x="4.238222e+02" y="0" width="5.688889e+00" height="4.414558e+01" vector-effect="non-scaling-stroke"/><rect vector-effect="non-scaling-stroke" x="4.451556e+02" y="0" width="5.688889e+00" height="8.662990e+01"/><rect height="8.489053e+01" vector-effect="non-scaling-stroke" x="4.664889e+02" y="0" width="5.688889e+00"/><rect vector-effect="non-scaling-stroke" x="4.878222e+02" y="0" width="5.688889e+00" height="4.431043e+01"/><rect x="5.091556e+02" y="0" width="5.688889e+00" height="4.451066e+01" vector-effect="non-scaling-stroke"/><rect y="0" width="5.688889e+00" height="1.234536e+02" vector-effect="non-scaling-stroke" x="5.304889e+02"/><rect x="5.518222e+02" y="0" width="5.688889e+00" height="1.805942e+02" vector-effect="non-scaling-stroke"/><rect vector-effect="non-scaling-stroke" x="5.731556e+02" y="0" width="5.688889e+00" height="4.400237e+01"/></g><g stroke-linecap="round" stroke-linejoin="round" transform="translate(80 520 )scale(1 -1 )" fill="hsl(260, 76%, 65%)" stroke="hsl(260, 76%, 65%)" stroke-width="1px"><rect y="0" width="5.688889e+00" height="4.401048e+01" vector-effect="non-scaling-stroke" x="6.684444e+01"/><rect x="8.817778e+01" y="0" width="5.688889e+00" height="4.400317e+01" vector-effect="non-scaling-stroke"/><rect vector-effect="non-scaling-stroke" x="1.095111e+02" y="0" width="5.688889e+00" height="4.401824e+01"/><rect y="0" width="5.688889e+00" height="4.401016e+01" vector-effect="non-scaling-stroke" x="1.308444e+02"/><rect height="4.400478e+01" vector-effect="non-scaling-stroke" x="1.521778e+02" y="0" width="5.688889e+00"/><rect y="0" width="5.688889e+00" height="4.400739e+01" vector-effect="non-scaling-stroke" x="1.735111e+02"/><rect width="5.688889e+00" height="4.401595e+01" vector-effect="non-scaling-stroke" x="1.948444e+02" y="0"/><rect vector-effect="non-scaling-stroke" x="2.161778e+02" y="0" width="5.688889e+00" height="4.441958e+01"/><rect y="0" width="5.688889e+00" height="4.440517e+01" vector-effect="non-scaling-stroke" x="2.375111e+02"/><rect y="0" width="5.688889e+00" height="4.400094e+01" vector-effect="non-scaling-stroke" x="2.588444e+02"/><rect vector-effect="non-scaling-stroke" x="2.801778e+02" y="0" width="5.688889e+00" height="4.800546e+01"/><rect y="0" width="5.688889e+00" height="4.411699e+01" vector-effect="non-scaling-stroke" x="3.015111e+02"/><rect y="0" width="5.688889e+00" height="4.401173e+01" vector-effect="non-scaling-stroke" x="3.228444e+02"/><rect x="3.441778e+02" y="0" width="5.688889e+00" height="4.833789e+01" vector-effect="non-scaling-stroke"/><rect vector-effect="non-scaling-stroke" x="3.655111e+02" y="0" width="5.688889e+00" height="4.400152e+01"/><rect height="396" vector-effect="non-scaling-stroke" x="3.868444e+02" y="0" width="5.688889e+00"/><rect y="0" width="5.688889e+00" height="4.428209e+01" vector-effect="non-scaling-stroke" x="4.081778e+02"/><rect width="5.688889e+00" height="4.413577e+01" vector-effect="non-scaling-stroke" x="4.295111e+02" y="0"/><rect height="6.292091e+01" vector-effect="non-scaling-stroke" x="4.508444e+02" y="0" width="5.688889e+00"/><rect vector-effect="non-scaling-stroke" x="4.721778e+02" y="0" width="5.688889e+00" height="1.011279e+02"/><rect y="0" width="5.688889e+00" height="4.411074e+01" vector-effect="non-scaling-stroke" x="4.935111e+02"/><rect y="0" width="5.688889e+00" height="4.534344e+01" vector-effect="non-scaling-stroke" x="5.148444e+02"/><rect x="5.361778e+02" y="0" width="5.688889e+00" height="1.440161e+02" vector-effect="non-scaling-stroke"/><rect width="5.688889e+00" height="1.788949e+02" vector-effect="non-scaling-stroke" x="5.575111e+02" y="0"/><rect width="5.688889e+00" height="4.400187e+01" vector-effect="non-scaling-stroke" x="5.788444e+02" y="0"/></g><g stroke-linecap="round" stroke-linejoin="round" font-weight="normal" stroke="hsl(198, 47%, 65%)" font-style="normal" text-anchor="start" dominant-baseline="hanging" font-family="sans-serif" fill="hsl(198, 47%, 65%)" stroke-width="1px" font-size="12px"><rect width="12" height="12" vector-effect="non-scaling-stroke" x="736" y="466"/><g stroke="black" fill="black"><text vector-effect="non-scaling-stroke" x="752" y="466" dominant-baseline="hanging" stroke="none">Golang</text></g><g font-size="12px" dominant-baseline="hanging" stroke-linecap="round" fill="hsl(49, 88%, 65%)" stroke-width="1px" font-style="normal" text-anchor="start" stroke-linejoin="round" font-family="sans-serif" font-weight="normal" stroke="hsl(49, 88%, 65%)"><rect width="12" height="12" vector-effect="non-scaling-stroke" x="736" y="484"/><g stroke="black" fill="black"><text x="752" y="484" dominant-baseline="hanging" stroke="none" vector-effect="non-scaling-stroke">Rust</text></g><g text-anchor="start" stroke="hsl(260, 76%, 65%)" stroke-width="1px" font-size="12px" stroke-linecap="round" font-style="normal" font-weight="normal" dominant-baseline="hanging" fill="hsl(260, 76%, 65%)" stroke-linejoin="round" font-family="sans-serif"><rect width="12" height="12" vector-effect="non-scaling-stroke" x="736" y="502"/><g fill="black" stroke="black"><text x="752" y="502" dominant-baseline="hanging" stroke="none" vector-effect="non-scaling-stroke">Zig</text><g stroke-width="2px" font-style="normal" font-size="12px" stroke-linejoin="round" font-family="sans-serif" font-weight="normal" dominant-baseline="hanging" fill="none" stroke-linecap="round" text-anchor="start"><rect vector-effect="non-scaling-stroke" x="80" y="80" width="640" height="440"/></g><g dominant-baseline="hanging" stroke="black" font-size="12px" font-style="normal" stroke-linecap="round" font-family="sans-serif" transform="translate(80 520 )scale(1 -1 )" fill="none" stroke-width="2px" text-anchor="start" stroke-linejoin="round" font-weight="normal"><path vector-effect="non-scaling-stroke" d="M64,0 L64,-6 M8.533333e+01,0 L8.533333e+01,-6 M1.066667e+02,0 L1.066667e+02,-6 M128,0 L128,-6 M1.493333e+02,0 L1.493333e+02,-6 M1.706667e+02,0 L1.706667e+02,-6 M192,0 L192,-6 M2.133333e+02,0 L2.133333e+02,-6 M2.346667e+02,0 L2.346667e+02,-6 M256,0 L256,-6 M2.773333e+02,0 L2.773333e+02,-6 M2.986667e+02,0 L2.986667e+02,-6 M320,0 L320,-6 M3.413333e+02,0 L3.413333e+02,-6 M3.626667e+02,0 L3.626667e+02,-6 M384,0 L384,-6 M4.053333e+02,0 L4.053333e+02,-6 M4.266667e+02,0 L4.266667e+02,-6 M448,0 L448,-6 M4.693333e+02,0 L4.693333e+02,-6 M4.906667e+02,0 L4.906667e+02,-6 M512,0 L512,-6 M5.333333e+02,0 L5.333333e+02,-6 M5.546667e+02,0 L5.546667e+02,-6 M576,0 L576,-6 "/></g><g font-family="sans-serif" transform="translate(80 520 )scale(1 1 )" dominant-baseline="hanging" fill="black" font-size="12px" stroke-linecap="round" stroke-linejoin="round" stroke="black" stroke-width="2px" font-style="normal" font-weight="normal" text-anchor="middle"><text dominant-baseline="hanging" stroke="none" vector-effect="non-scaling-stroke" x="64" y="10">1</text><text stroke="none" vector-effect="non-scaling-stroke" x="8.533333e+01" y="10" dominant-baseline="hanging">2</text><text dominant-baseline="hanging" stroke="none" vector-effect="non-scaling-stroke" x="1.066667e+02" y="10">3</text><text dominant-baseline="hanging" stroke="none" vector-effect="non-scaling-stroke" x="128" y="10">4</text><text stroke="none" vector-effect="non-scaling-stroke" x="1.493333e+02" y="10" dominant-baseline="hanging">5</text><text x="1.706667e+02" y="10" dominant-baseline="hanging" stroke="none" vector-effect="non-scaling-stroke">6</text><text stroke="none" vector-effect="non-scaling-stroke" x="192" y="10" dominant-baseline="hanging">7</text><text stroke="none" vector-effect="non-scaling-stroke" x="2.133333e+02" y="10" dominant-baseline="hanging">8</text><text vector-effect="non-scaling-stroke" x="2.346667e+02" y="10" dominant-baseline="hanging" stroke="none">9</text><text dominant-baseline="hanging" stroke="none" vector-effect="non-scaling-stroke" x="256" y="10">10</text><text stroke="none" vector-effect="non-scaling-stroke" x="2.773333e+02" y="10" dominant-baseline="hanging">11</text><text stroke="none" vector-effect="non-scaling-stroke" x="2.986667e+02" y="10" dominant-baseline="hanging">12</text><text stroke="none" vector-effect="non-scaling-stroke" x="320" y="10" dominant-baseline="hanging">13</text><text stroke="none" vector-effect="non-scaling-stroke" x="3.413333e+02" y="10" dominant-baseline="hanging">14</text><text stroke="none" vector-effect="non-scaling-stroke" x="3.626667e+02" y="10" dominant-baseline="hanging">15</text><text vector-effect="non-scaling-stroke" x="384" y="10" dominant-baseline="hanging" stroke="none">16</text><text vector-effect="non-scaling-stroke" x="4.053333e+02" y="10" dominant-baseline="hanging" stroke="none">17</text><text vector-effect="non-scaling-stroke" x="4.266667e+02" y="10" dominant-baseline="hanging" stroke="none">18</text><text stroke="none" vector-effect="non-scaling-stroke" x="448" y="10" dominant-baseline="hanging">19</text><text vector-effect="non-scaling-stroke" x="4.693333e+02" y="10" dominant-baseline="hanging" stroke="none">20</text><text dominant-baseline="hanging" stroke="none" vector-effect="non-scaling-stroke" x="4.906667e+02" y="10">21</text><text vector-effect="non-scaling-stroke" x="512" y="10" dominant-baseline="hanging" stroke="none">22</text><text vector-effect="non-scaling-stroke" x="5.333333e+02" y="10" dominant-baseline="hanging" stroke="none">23</text><text dominant-baseline="hanging" stroke="none" vector-effect="non-scaling-stroke" x="5.546667e+02" y="10">24</text><text vector-effect="non-scaling-stroke" x="576" y="10" dominant-baseline="hanging" stroke="none">25</text></g><g font-weight="bold" font-style="normal" fill="black" text-anchor="middle" dominant-baseline="baseline" stroke="black" font-family="sans-serif" transform="translate(80 520 )scale(1 1 )rotate(0 0 0 )" stroke-linecap="round" stroke-width="2px" font-size="12px" stroke-linejoin="round"><text vector-effect="non-scaling-stroke" x="320" y="-6" dominant-baseline="baseline" stroke="none">Day</text></g><g font-family="sans-serif" stroke-width="2px" font-size="12px" dominant-baseline="baseline" fill="black" stroke="black" transform="translate(80 520 )scale(1 -1 )" stroke-linecap="round" stroke-linejoin="round" font-style="normal" text-anchor="middle" font-weight="bold"><path vector-effect="non-scaling-stroke" d="M0,44 L-6,44 M0,2.113451e+02 L-6,2.113451e+02 M0,3.786901e+02 L-6,3.786901e+02 "/></g><g transform="translate(80 520 )scale(1 1 )" stroke-linecap="round" font-size="12px" font-style="normal" dominant-baseline="middle" stroke-linejoin="round" font-weight="normal" stroke="black" stroke-width="2px" text-anchor="end" fill="black" font-family="sans-serif"><text stroke="none" vector-effect="non-scaling-stroke" x="-10" y="-44" dominant-baseline="middle">0s</text><text stroke="none" vector-effect="non-scaling-stroke" x="-10" y="-2.113451e+02" dominant-baseline="middle">100ms</text><text x="-10" y="-3.786901e+02" dominant-baseline="middle" stroke="none" vector-effect="non-scaling-stroke">200ms</text></g><g font-size="12px" fill="black" font-weight="bold" transform="translate(80 520 )scale(1 1 )rotate(-90 0 0 )" stroke-linecap="round" stroke-linejoin="round" font-family="sans-serif" font-style="normal" text-anchor="middle" dominant-baseline="hanging" stroke="black" stroke-width="2px"><text vector-effect="non-scaling-stroke" x="220" y="6" dominant-baseline="hanging" stroke="none">Runtime</text></g></g></g></g></g></svg>