<svg preserveAspectRatio="xMidYMid meet" xmlns="http://www.w3.org/2000/svg" width="800" height="600" viewbox="0 0 800 600"><defs><marker markerWidth="2%" markerHeight="2%" id="circle" viewBox="0 0 10 10 " refX="5" refY="5" markerUnits="userSpaceOnUse"><circle cx="5" cy="5" r="3" fill="none" stroke="black"/></marker><marker viewBox="0 0 10 10 " refX="5" refY="5" markerUnits="userSpaceOnUse" markerWidth="2%" markerHeight="2%" id="filled-circle"><circle fill="black" stroke="none" cx="5" cy="5" r="3"/></marker><marker refY="5" markerUnits="userSpaceOnUse" markerWidth="2%" markerHeight="2%" id="square" viewBox="0 0 10 10 " refX="5"><rect y="2" width="6" height="6" fill="none" stroke="black" x="2"/></marker><marker markerUnits="userSpaceOnUse" markerWidth="2%" markerHeight="2%" id="filled-square" viewBox="0 0 10 10 " refX="5" refY="5"><rect stroke="none" x="2" y="2" width="6" height="6" fill="black"/></marker></defs><g fill="hsl(198, 47%, 65%)" stroke="hsl(198, 47%, 65%)" stroke-width="1px" stroke-linecap="round" stroke-linejoin="round" transform="translate(80 520 )scale(1 -1 )"><rect x="3.650000e+01" y="0" width="2.750000e+01" height="396" vector-effect="non-scaling-stroke"/><rect vector-effect="non-scaling-stroke" x="5.783333e+01" y="0" width="2.750000e+01" height="3.558740e+02"/></g><g stroke-width="1px" stroke-linecap="round" stroke-linejoin="round" transform="translate(80 520 )scale(1 -1 )" fill="hsl(49, 88%, 65%)" stroke="hsl(49, 88%, 65%)"><rect vector-effect="non-scaling-stroke" x="64" y="0" width="2.750000e+01" height="3.599358e+02"/></g><g stroke="hsl(198, 47%, 65%)" stroke-width="1px" text-anchor="start" stroke-linecap="round" stroke-linejoin="round" font-family="sans-serif" font-style="normal" font-weight="normal" fill="hsl(198, 47%, 65%)" font-size="12px" dominant-baseline="hanging"><rect width="12" height="12" vector-effect="non-scaling-stroke" x="736" y="484"/><g fill="black" stroke="black"><text stroke="none" vector-effect="non-scaling-stroke" x="752" y="484" dominant-baseline="hanging">Golang</text></g><g font-style="normal" dominant-baseline="hanging" fill="hsl(49, 88%, 65%)" stroke-width="1px" text-anchor="start" font-family="sans-serif" stroke-linejoin="round" font-weight="normal" stroke="hsl(49, 88%, 65%)" font-size="12px" stroke-linecap="round"><rect height="12" vector-effect="non-scaling-stroke" x="736" y="502" width="12"/><g fill="black" stroke="black"><text vector-effect="non-scaling-stroke" x="752" y="502" dominant-baseline="hanging" stroke="none">Rust</text><g stroke-width="2px" stroke-linejoin="round" text-anchor="start" font-family="sans-serif" stroke-linecap="round" font-size="12px" fill="none" font-style="normal" font-weight="normal" dominant-baseline="hanging"><rect height="440" vector-effect="non-scaling-stroke" x="80" y="80" width="640"/></g><g font-size="12px" fill="none" stroke="black" font-style="normal" font-weight="normal" stroke-linejoin="round" stroke-width="2px" text-anchor="start" transform="translate(80 520 )scale(1 -1 )" font-family="sans-serif" dominant-baseline="hanging" stroke-linecap="round"><path vector-effect="non-scaling-stroke" d="M64,0 L64,-6 M8.533333e+01,0 L8.533333e+01,-6 "/></g><g transform="translate(80 520 )scale(1 1 )" stroke-linecap="round" stroke-linejoin="round" font-weight="normal" font-family="sans-serif" font-style="normal" dominant-baseline="hanging" fill="black" stroke="black" stroke-width="2px" font-size="12px" text-anchor="middle"><text stroke="none" vector-effect="non-scaling-stroke" x="64" y="10" dominant-baseline="hanging">1</text><text stroke="none" vector-effect="non-scaling-stroke" x="8.533333e+01" y="10" dominant-baseline="hanging">2</text></g><g stroke-linecap="round" stroke-linejoin="round" font-style="normal" font-weight="bold" stroke="black" font-family="sans-serif" dominant-baseline="baseline" fill="black" stroke-width="2px" font-size="12px" text-anchor="middle" transform="translate(80 520 )scale(1 1 )rotate(0 0 0 )"><text dominant-baseline="baseline" stroke="none" vector-effect="non-scaling-stroke" x="320" y="-6">Day</text></g><g stroke-linecap="round" stroke-linejoin="round" font-family="sans-serif" font-style="normal" transform="translate(80 520 )scale(1 -1 )" font-size="12px" text-anchor="middle" dominant-baseline="baseline" font-weight="bold" fill="black" stroke="black" stroke-width="2px"><path vector-effect="non-scaling-stroke" d="M0,3.524093e+02 L-6,3.524093e+02 M0,3.589712e+02 L-6,3.589712e+02 M0,3.655331e+02 L-6,3.655331e+02 M0,3.720950e+02 L-6,3.720950e+02 M0,3.786569e+02 L-6,3.786569e+02 M0,3.852188e+02 L-6,3.852188e+02 M0,3.917807e+02 L-6,3.917807e+02 "/></g><g font-style="normal" dominant-baseline="middle" stroke="black" transform="translate(80 520 )scale(1 1 )" fill="black" stroke-linejoin="round" font-family="sans-serif" font-weight="normal" stroke-linecap="round" stroke-width="2px" font-size="12px" text-anchor="end"><text stroke="none" vector-effect="non-scaling-stroke" x="-10" y="-3.524093e+02" dominant-baseline="middle">47µs</text><text x="-10" y="-3.655331e+02" dominant-baseline="middle" stroke="none" vector-effect="non-scaling-stroke">49µs</text><text x="-10" y="-3.786569e+02" dominant-baseline="middle" stroke="none" vector-effect="non-scaling-stroke">51µs</text><text x="-10" y="-3.917807e+02" dominant-baseline="middle" stroke="none" vector-effect="non-scaling-stroke">53µs</text></g><g font-family="sans-serif" font-style="normal" dominant-baseline="hanging" stroke="black" stroke-width="2px" font-size="12px" text-anchor="middle" stroke-linecap="round" stroke-linejoin="round" font-weight="bold" fill="black" transform="translate(80 520 )scale(1 1 )rotate(-90 0 0 )"><text dominant-baseline="hanging" stroke="none" vector-effect="non-scaling-stroke" x="220" y="6">Runtime</text></g></g></g></g></svg>