<svg viewbox="0 0 800 600" preserveAspectRatio="xMidYMid meet" xmlns="http://www.w3.org/2000/svg" width="800" height="600"><defs><marker id="circle" viewBox="0 0 10 10 " refX="5" refY="5" markerUnits="userSpaceOnUse" markerWidth="2%" markerHeight="2%"><circle stroke="black" cx="5" cy="5" r="3" fill="none"/></marker><marker refY="5" markerUnits="userSpaceOnUse" markerWidth="2%" markerHeight="2%" id="filled-circle" viewBox="0 0 10 10 " refX="5"><circle cx="5" cy="5" r="3" fill="black" stroke="none"/></marker><marker refY="5" markerUnits="userSpaceOnUse" markerWidth="2%" markerHeight="2%" id="square" viewBox="0 0 10 10 " refX="5"><rect height="6" fill="none" stroke="black" x="2" y="2" width="6"/></marker><marker refX="5" refY="5" markerUnits="userSpaceOnUse" markerWidth="2%" markerHeight="2%" id="filled-square" viewBox="0 0 10 10 "><rect width="6" height="6" fill="black" stroke="none" x="2" y="2"/></marker></defs><g stroke-linecap="round" stroke-linejoin="round" transform="translate(80 520 )scale(1 -1 )" fill="hsl(198, 47%, 65%)" stroke="hsl(198, 47%, 65%)" stroke-width="1px"><rect height="4.418910e+01" vector-effect="non-scaling-stroke" x="3.650000e+01" y="0" width="1.833333e+01"/><rect y="0" width="1.833333e+01" height="2.109720e+02" vector-effect="non-scaling-stroke" x="5.783333e+01"/><rect width="1.833333e+01" height="4.483797e+01" vector-effect="non-scaling-stroke" x="7.916667e+01" y="0"/><rect x="1.005000e+02" y="0" width="1.833333e+01" height="8.409037e+01" vector-effect="non-scaling-stroke"/><rect vector-effect="non-scaling-stroke" x="1.218333e+02" y="0" width="1.833333e+01" height="4.475405e+01"/></g><g fill="hsl(49, 88%, 65%)" stroke="hsl(49, 88%, 65%)" stroke-width="1px" stroke-linecap="round" stroke-linejoin="round" transform="translate(80 520 )scale(1 -1 )"><rect width="1.833333e+01" height="4.409569e+01" vector-effect="non-scaling-stroke" x="5.483333e+01" y="0"/><rect y="0" width="1.833333e+01" height="2.517139e+02" vector-effect="non-scaling-stroke" x="7.616667e+01"/><rect y="0" width="1.833333e+01" height="4.460115e+01" vector-effect="non-scaling-stroke" x="9.750000e+01"/><rect y="0" width="1.833333e+01" height="4.825407e+01" vector-effect="non-scaling-stroke" x="1.188333e+02"/><rect height="4.534761e+01" vector-effect="non-scaling-stroke" x="1.401667e+02" y="0" width="1.833333e+01"/></g><g stroke-linecap="round" stroke-linejoin="round" transform="translate(80 520 )scale(1 -1 )" fill="hsl(260, 76%, 65%)" stroke="hsl(260, 76%, 65%)" stroke-width="1px"><rect vector-effect="non-scaling-stroke" x="7.316667e+01" y="0" width="1.833333e+01" height="4.409934e+01"/><rect vector-effect="non-scaling-stroke" x="9.450000e+01" y="0" width="1.833333e+01" height="396"/><rect y="0" width="1.833333e+01" height="4.441413e+01" vector-effect="non-scaling-stroke" x="1.158333e+02"/><rect height="5.134806e+01" vector-effect="non-scaling-stroke" x="1.371667e+02" y="0" width="1.833333e+01"/><rect vector-effect="non-scaling-stroke" x="1.585000e+02" y="0" width="1.833333e+01" height="4.465432e+01"/></g><g font-style="normal" stroke-linecap="round" font-family="sans-serif" text-anchor="start" stroke="hsl(198, 47%, 65%)" font-weight="normal" stroke-linejoin="round" font-size="12px" dominant-baseline="hanging" fill="hsl(198, 47%, 65%)" stroke-width="1px"><rect vector-effect="non-scaling-stroke" x="736" y="466" width="12" height="12"/><g fill="black" stroke="black"><text stroke="none" vector-effect="non-scaling-stroke" x="752" y="466" dominant-baseline="hanging">Golang</text></g><g stroke-linecap="round" stroke-linejoin="round" font-family="sans-serif" text-anchor="start" dominant-baseline="hanging" fill="hsl(49, 88%, 65%)" stroke="hsl(49, 88%, 65%)" font-style="normal" font-weight="normal" font-size="12px" stroke-width="1px"><rect vector-effect="non-scaling-stroke" x="736" y="484" width="12" height="12"/><g fill="black" stroke="black"><text stroke="none" vector-effect="non-scaling-stroke" x="752" y="484" dominant-baseline="hanging">Rust</text></g><g fill="hsl(260, 76%, 65%)" stroke="hsl(260, 76%, 65%)" font-style="normal" font-weight="normal" stroke-linejoin="round" font-family="sans-serif" text-anchor="start" stroke-width="1px" stroke-linecap="round" font-size="12px" dominant-baseline="hanging"><rect vector-effect="non-scaling-stroke" x="736" y="502" width="12" height="12"/><g fill="black" stroke="black"><text dominant-baseline="hanging" stroke="none" vector-effect="non-scaling-stroke" x="752" y="502">Zig</text><g font-family="sans-serif" dominant-baseline="hanging" font-weight="normal" font-size="12px" stroke-width="2px" stroke-linecap="round" font-style="normal" text-anchor="start" fill="none" stroke-linejoin="round"><rect height="440" vector-effect="non-scaling-stroke" x="80" y="80" width="640"/></g><g font-size="12px" dominant-baseline="hanging" stroke="black" font-style="normal" transform="translate(80 520 )scale(1 -1 )" stroke-linecap="round" text-anchor="start" fill="none" stroke-width="2px" font-weight="normal" stroke-linejoin="round" font-family="sans-serif"><path vector-effect="non-scaling-stroke" d="M64,0 L64,-6 M8.533333e+01,0 L8.533333e+01,-6 M1.066667e+02,0 L1.066667e+02,-6 M128,0 L128,-6 M1.493333e+02,0 L1.493333e+02,-6 "/></g><g text-anchor="middle" dominant-baseline="hanging" fill="black" stroke="black" font-style="normal" stroke-linecap="round" stroke-linejoin="round" font-family="sans-serif" font-size="12px" stroke-width="2px" font-weight="normal" transform="translate(80 520 )scale(1 1 )"><text vector-effect="non-scaling-stroke" x="64" y="10" dominant-baseline="hanging" stroke="none">1</text><text x="8.533333e+01" y="10" dominant-baseline="hanging" stroke="none" vector-effect="non-scaling-stroke">2</text><text y="10" dominant-baseline="hanging" stroke="none" vector-effect="non-scaling-stroke" x="1.066667e+02">3</text><text stroke="none" vector-effect="non-scaling-stroke" x="128" y="10" dominant-baseline="hanging">4</text><text dominant-baseline="hanging" stroke="none" vector-effect="non-scaling-stroke" x="1.493333e+02" y="10">5</text></g><g stroke-linejoin="round" dominant-baseline="baseline" stroke="black" font-weight="bold" stroke-linecap="round" font-family="sans-serif" font-size="12px" text-anchor="middle" fill="black" stroke-width="2px" font-style="normal" transform="translate(80 520 )scale(1 1 )rotate(0 0 0 )"><text stroke="none" vector-effect="non-scaling-stroke" x="320" y="-6" dominant-baseline="baseline">Day</text></g><g text-anchor="middle" dominant-baseline="baseline" stroke="black" font-style="normal" font-weight="bold" stroke-linejoin="round" font-family="sans-serif" fill="black" stroke-width="2px" transform="translate(80 520 )scale(1 -1 )" stroke-linecap="round" font-size="12px"><path d="M0,44 L-6,44 M0,1.420220e+02 L-6,1.420220e+02 M0,2.400441e+02 L-6,2.400441e+02 M0,3.380661e+02 L-6,3.380661e+02 " vector-effect="non-scaling-stroke"/></g><g font-family="sans-serif" font-size="12px" text-anchor="end" stroke-width="2px" font-style="normal" font-weight="normal" stroke-linejoin="round" dominant-baseline="middle" fill="black" stroke="black" transform="translate(80 520 )scale(1 1 )" stroke-linecap="round"><text x="-10" y="-44" dominant-baseline="middle" stroke="none" vector-effect="non-scaling-stroke">0s</text><text x="-10" y="-1.420220e+02" dominant-baseline="middle" stroke="none" vector-effect="non-scaling-stroke">10ms</text><text stroke="none" vector-effect="non-scaling-stroke" x="-10" y="-2.400441e+02" dominant-baseline="middle">20ms</text><text y="-3.380661e+02" dominant-baseline="middle" stroke="none" vector-effect="non-scaling-stroke" x="-10">30ms</text></g><g fill="black" stroke="black" stroke-width="2px" font-style="normal" font-weight="bold" font-family="sans-serif" transform="translate(80 520 )scale(1 1 )rotate(-90 0 0 )" stroke-linecap="round" stroke-linejoin="round" font-size="12px" text-anchor="middle" dominant-baseline="hanging"><text y="6" dominant-baseline="hanging" stroke="none" vector-effect="non-scaling-stroke" x="220">Runtime</text></g></g></g></g></g></svg>