<svg preserveAspectRatio="xMidYMid meet" xmlns="http://www.w3.org/2000/svg" width="800" height="600" viewbox="0 0 800 600"><defs><marker viewBox="0 0 10 10 " refX="5" refY="5" markerUnits="userSpaceOnUse" markerWidth="2%" markerHeight="2%" id="circle"><circle cx="5" cy="5" r="3" fill="none" stroke="black"/></marker><marker refX="5" refY="5" markerUnits="userSpaceOnUse" markerWidth="2%" markerHeight="2%" id="filled-circle" viewBox="0 0 10 10 "><circle r="3" fill="black" stroke="none" cx="5" cy="5"/></marker><marker markerUnits="userSpaceOnUse" markerWidth="2%" markerHeight="2%" id="square" viewBox="0 0 10 10 " refX="5" refY="5"><rect stroke="black" x="2" y="2" width="6" height="6" fill="none"/></marker><marker markerWidth="2%" markerHeight="2%" id="filled-square" viewBox="0 0 10 10 " refX="5" refY="5" markerUnits="userSpaceOnUse"><rect x="2" y="2" width="6" height="6" fill="black" stroke="none"/></marker></defs><g fill="hsl(198, 47%, 65%)" stroke="hsl(198, 47%, 65%)" stroke-width="1px" stroke-linecap="round" stroke-linejoin="round" transform="translate(80 520 )scale(1 -1 )"><rect vector-effect="non-scaling-stroke" x="5.277193e+01" y="0" width="1.122807e+01" height="4.423525e+01"/><rect height="4.423326e+01" vector-effect="non-scaling-stroke" x="7.410526e+01" y="0" width="1.122807e+01"/><rect height="4.414482e+01" vector-effect="non-scaling-stroke" x="9.543860e+01" y="0" width="1.122807e+01"/><rect height="4.533401e+01" vector-effect="non-scaling-stroke" x="1.167719e+02" y="0" width="1.122807e+01"/><rect y="0" width="1.122807e+01" height="4.414970e+01" vector-effect="non-scaling-stroke" x="1.381053e+02"/><rect width="1.122807e+01" height="396" vector-effect="non-scaling-stroke" x="1.594386e+02" y="0"/><rect x="1.807719e+02" y="0" width="1.122807e+01" height="1.265206e+02" vector-effect="non-scaling-stroke"/><rect vector-effect="non-scaling-stroke" x="2.021053e+02" y="0" width="1.122807e+01" height="4.403414e+01"/><rect width="1.122807e+01" height="4.626741e+01" vector-effect="non-scaling-stroke" x="2.234386e+02" y="0"/><rect width="1.122807e+01" height="4.455961e+01" vector-effect="non-scaling-stroke" x="2.447719e+02" y="0"/><rect vector-effect="non-scaling-stroke" x="2.661053e+02" y="0" width="1.122807e+01" height="5.078807e+01"/><rect vector-effect="non-scaling-stroke" x="2.874386e+02" y="0" width="1.122807e+01" height="4.690133e+01"/><rect vector-effect="non-scaling-stroke" x="3.087719e+02" y="0" width="1.122807e+01" height="4.403436e+01"/><rect width="1.122807e+01" height="7.156957e+01" vector-effect="non-scaling-stroke" x="3.301053e+02" y="0"/><rect height="4.723968e+01" vector-effect="non-scaling-stroke" x="3.514386e+02" y="0" width="1.122807e+01"/><rect width="1.122807e+01" height="1.121467e+02" vector-effect="non-scaling-stroke" x="3.727719e+02" y="0"/><rect y="0" width="1.122807e+01" height="4.409585e+01" vector-effect="non-scaling-stroke" x="3.941053e+02"/><rect width="1.122807e+01" height="4.501693e+01" vector-effect="non-scaling-stroke" x="4.154386e+02" y="0"/><rect vector-effect="non-scaling-stroke" x="4.367719e+02" y="0" width="1.122807e+01" height="1.488249e+02"/></g><g stroke="hsl(49, 88%, 65%)" stroke-width="1px" stroke-linecap="round" stroke-linejoin="round" transform="translate(80 520 )scale(1 -1 )" fill="hsl(49, 88%, 65%)"><rect vector-effect="non-scaling-stroke" x="64" y="0" width="1.122807e+01" height="4.422948e+01"/><rect vector-effect="non-scaling-stroke" x="8.533333e+01" y="0" width="1.122807e+01" height="4.421116e+01"/><rect x="1.066667e+02" y="0" width="1.122807e+01" height="4.404346e+01" vector-effect="non-scaling-stroke"/><rect y="0" width="1.122807e+01" height="4.622662e+01" vector-effect="non-scaling-stroke" x="1.280000e+02"/><rect height="4.408438e+01" vector-effect="non-scaling-stroke" x="1.493333e+02" y="0" width="1.122807e+01"/><rect width="1.122807e+01" height="3.114004e+02" vector-effect="non-scaling-stroke" x="1.706667e+02" y="0"/><rect height="1.275011e+02" vector-effect="non-scaling-stroke" x="192" y="0" width="1.122807e+01"/><rect width="1.122807e+01" height="4.401625e+01" vector-effect="non-scaling-stroke" x="2.133333e+02" y="0"/><rect height="4.690768e+01" vector-effect="non-scaling-stroke" x="2.346667e+02" y="0" width="1.122807e+01"/><rect y="0" width="1.122807e+01" height="4.418291e+01" vector-effect="non-scaling-stroke" x="256"/><rect vector-effect="non-scaling-stroke" x="2.773333e+02" y="0" width="1.122807e+01" height="4.918509e+01"/><rect height="4.621178e+01" vector-effect="non-scaling-stroke" x="2.986667e+02" y="0" width="1.122807e+01"/><rect vector-effect="non-scaling-stroke" x="320" y="0" width="1.122807e+01" height="4.402768e+01"/><rect height="6.266067e+01" vector-effect="non-scaling-stroke" x="3.413333e+02" y="0" width="1.122807e+01"/><rect width="1.122807e+01" height="5.329766e+01" vector-effect="non-scaling-stroke" x="3.626667e+02" y="0"/><rect x="384" y="0" width="1.122807e+01" height="9.482237e+01" vector-effect="non-scaling-stroke"/><rect height="4.487092e+01" vector-effect="non-scaling-stroke" x="4.053333e+02" y="0" width="1.122807e+01"/><rect vector-effect="non-scaling-stroke" x="4.266667e+02" y="0" width="1.122807e+01" height="4.460063e+01"/><rect height="1.391692e+02" vector-effect="non-scaling-stroke" x="448" y="0" width="1.122807e+01"/></g><g stroke-width="1px" font-style="normal" font-size="12px" font-weight="normal" font-family="sans-serif" text-anchor="start" fill="hsl(198, 47%, 65%)" stroke-linecap="round" stroke-linejoin="round" dominant-baseline="hanging" stroke="hsl(198, 47%, 65%)"><rect width="12" height="12" vector-effect="non-scaling-stroke" x="736" y="484"/><g fill="black" stroke="black"><text stroke="none" vector-effect="non-scaling-stroke" x="752" y="484" dominant-baseline="hanging">Golang</text></g><g font-weight="normal" fill="hsl(49, 88%, 65%)" stroke-width="1px" font-style="normal" text-anchor="start" stroke="hsl(49, 88%, 65%)" stroke-linecap="round" dominant-baseline="hanging" font-family="sans-serif" stroke-linejoin="round" font-size="12px"><rect width="12" height="12" vector-effect="non-scaling-stroke" x="736" y="502"/><g fill="black" stroke="black"><text stroke="none" vector-effect="non-scaling-stroke" x="752" y="502" dominant-baseline="hanging">Rust</text><g font-family="sans-serif" stroke-linecap="round" font-style="normal" text-anchor="start" font-weight="normal" dominant-baseline="hanging" fill="none" stroke-width="2px" stroke-linejoin="round" font-size="12px"><rect vector-effect="non-scaling-stroke" x="80" y="80" width="640" height="440"/></g><g font-weight="normal" transform="translate(80 520 )scale(1 -1 )" fill="none" font-style="normal" stroke-linecap="round" stroke-linejoin="round" font-size="12px" stroke-width="2px" font-family="sans-serif" text-anchor="start" stroke="black" dominant-baseline="hanging"><path vector-effect="non-scaling-stroke" d="M64,0 L64,-6 M8.533333e+01,0 L8.533333e+01,-6 M1.066667e+02,0 L1.066667e+02,-6 M128,0 L128,-6 M1.493333e+02,0 L1.493333e+02,-6 M1.706667e+02,0 L1.706667e+02,-6 M192,0 L192,-6 M2.133333e+02,0 L2.133333e+02,-6 M2.346667e+02,0 L2.346667e+02,-6 M256,0 L256,-6 M2.773333e+02,0 L2.773333e+02,-6 M2.986667e+02,0 L2.986667e+02,-6 M320,0 L320,-6 M3.413333e+02,0 L3.413333e+02,-6 M3.626667e+02,0 L3.626667e+02,-6 M384,0 L384,-6 M4.053333e+02,0 L4.053333e+02,-6 M4.266667e+02,0 L4.266667e+02,-6 M448,0 L448,-6 "/></g><g stroke="black" font-family="sans-serif" dominant-baseline="hanging" transform="translate(80 520 )scale(1 1 )" font-style="normal" font-weight="normal" stroke-linecap="round" stroke-linejoin="round" font-size="12px" text-anchor="middle" fill="black" stroke-width="2px"><text dominant-baseline="hanging" stroke="none" vector-effect="non-scaling-stroke" x="64" y="10">1</text><text dominant-baseline="hanging" stroke="none" vector-effect="non-scaling-stroke" x="8.533333e+01" y="10">2</text><text x="1.066667e+02" y="10" dominant-baseline="hanging" stroke="none" vector-effect="non-scaling-stroke">3</text><text stroke="none" vector-effect="non-scaling-stroke" x="128" y="10" dominant-baseline="hanging">4</text><text y="10" dominant-baseline="hanging" stroke="none" vector-effect="non-scaling-stroke" x="1.493333e+02">5</text><text vector-effect="non-scaling-stroke" x="1.706667e+02" y="10" dominant-baseline="hanging" stroke="none">6</text><text x="192" y="10" dominant-baseline="hanging" stroke="none" vector-effect="non-scaling-stroke">7</text><text x="2.133333e+02" y="10" dominant-baseline="hanging" stroke="none" vector-effect="non-scaling-stroke">8</text><text stroke="none" vector-effect="non-scaling-stroke" x="2.346667e+02" y="10" dominant-baseline="hanging">9</text><text y="10" dominant-baseline="hanging" stroke="none" vector-effect="non-scaling-stroke" x="256">10</text><text x="2.773333e+02" y="10" dominant-baseline="hanging" stroke="none" vector-effect="non-scaling-stroke">11</text><text vector-effect="non-scaling-stroke" x="2.986667e+02" y="10" dominant-baseline="hanging" stroke="none">12</text><text stroke="none" vector-effect="non-scaling-stroke" x="320" y="10" dominant-baseline="hanging">13</text><text y="10" dominant-baseline="hanging" stroke="none" vector-effect="non-scaling-stroke" x="3.413333e+02">14</text><text stroke="none" vector-effect="non-scaling-stroke" x="3.626667e+02" y="10" dominant-baseline="hanging">15</text><text y="10" dominant-baseline="hanging" stroke="none" vector-effect="non-scaling-stroke" x="384">16</text><text y="10" dominant-baseline="hanging" stroke="none" vector-effect="non-scaling-stroke" x="4.053333e+02">17</text><text stroke="none" vector-effect="non-scaling-stroke" x="4.266667e+02" y="10" dominant-baseline="hanging">18</text><text y="10" dominant-baseline="hanging" stroke="none" vector-effect="non-scaling-stroke" x="448">19</text></g><g font-family="sans-serif" font-style="normal" text-anchor="middle" stroke-width="2px" stroke-linejoin="round" font-size="12px" font-weight="bold" dominant-baseline="baseline" stroke-linecap="round" fill="black" transform="translate(80 520 )scale(1 1 )rotate(0 0 0 )" stroke="black"><text stroke="none" vector-effect="non-scaling-stroke" x="320" y="-6" dominant-baseline="baseline">Day</text></g><g font-size="12px" stroke-width="2px" font-family="sans-serif" stroke="black" stroke-linejoin="round" font-weight="bold" dominant-baseline="baseline" transform="translate(80 520 )scale(1 -1 )" fill="black" font-style="normal" text-anchor="middle" stroke-linecap="round"><path vector-effect="non-scaling-stroke" d="M0,44 L-6,44 M0,9.307912e+01 L-6,9.307912e+01 M0,1.421582e+02 L-6,1.421582e+02 M0,1.912374e+02 L-6,1.912374e+02 M0,2.403165e+02 L-6,2.403165e+02 M0,2.893956e+02 L-6,2.893956e+02 M0,3.384747e+02 L-6,3.384747e+02 M0,3.875538e+02 L-6,3.875538e+02 "/></g><g font-style="normal" text-anchor="end" stroke-linecap="round" font-weight="normal" transform="translate(80 520 )scale(1 1 )" stroke-width="2px" font-family="sans-serif" font-size="12px" dominant-baseline="middle" stroke="black" fill="black" stroke-linejoin="round"><text x="-10" y="-44" dominant-baseline="middle" stroke="none" vector-effect="non-scaling-stroke">0s</text><text vector-effect="non-scaling-stroke" x="-10" y="-9.307912e+01" dominant-baseline="middle" stroke="none">10ms</text><text dominant-baseline="middle" stroke="none" vector-effect="non-scaling-stroke" x="-10" y="-1.421582e+02">20ms</text><text vector-effect="non-scaling-stroke" x="-10" y="-1.912374e+02" dominant-baseline="middle" stroke="none">30ms</text><text y="-2.403165e+02" dominant-baseline="middle" stroke="none" vector-effect="non-scaling-stroke" x="-10">40ms</text><text dominant-baseline="middle" stroke="none" vector-effect="non-scaling-stroke" x="-10" y="-2.893956e+02">50ms</text><text x="-10" y="-3.384747e+02" dominant-baseline="middle" stroke="none" vector-effect="non-scaling-stroke">60ms</text><text x="-10" y="-3.875538e+02" dominant-baseline="middle" stroke="none" vector-effect="non-scaling-stroke">70ms</text></g><g text-anchor="middle" stroke-width="2px" font-family="sans-serif" font-style="normal" font-size="12px" dominant-baseline="hanging" transform="translate(80 520 )scale(1 1 )rotate(-90 0 0 )" stroke="black" stroke-linecap="round" stroke-linejoin="round" fill="black" font-weight="bold"><text dominant-baseline="hanging" stroke="none" vector-effect="non-scaling-stroke" x="220" y="6">Runtime</text></g></g></g></g></svg>