<svg xmlns="http://www.w3.org/2000/svg" width="800" height="600" viewbox="0 0 800 600" preserveAspectRatio="xMidYMid meet"><defs><marker viewBox="0 0 10 10 " refX="5" refY="5" markerUnits="userSpaceOnUse" markerWidth="2%" markerHeight="2%" id="circle"><circle stroke="black" cx="5" cy="5" r="3" fill="none"/></marker><marker markerUnits="userSpaceOnUse" markerWidth="2%" markerHeight="2%" id="filled-circle" viewBox="0 0 10 10 " refX="5" refY="5"><circle cx="5" cy="5" r="3" fill="black" stroke="none"/></marker><marker id="square" viewBox="0 0 10 10 " refX="5" refY="5" markerUnits="userSpaceOnUse" markerWidth="2%" markerHeight="2%"><rect y="2" width="6" height="6" fill="none" stroke="black" x="2"/></marker><marker refY="5" markerUnits="userSpaceOnUse" markerWidth="2%" markerHeight="2%" id="filled-square" viewBox="0 0 10 10 " refX="5"><rect y="2" width="6" height="6" fill="black" stroke="none" x="2"/></marker></defs><g stroke-width="1px" stroke-linecap="round" stroke-linejoin="round" transform="translate(80 520 )scale(1 -1 )" fill="hsl(198, 47%, 65%)" stroke="hsl(198, 47%, 65%)"><rect vector-effect="non-scaling-stroke" x="5.511111e+01" y="0" width="5.925926e+00" height="4.406586e+01"/><rect width="5.925926e+00" height="4.400243e+01" vector-effect="non-scaling-stroke" x="7.644444e+01" y="0"/><rect x="9.777778e+01" y="0" width="5.925926e+00" height="4.401008e+01" vector-effect="non-scaling-stroke"/><rect height="4.401139e+01" vector-effect="non-scaling-stroke" x="1.191111e+02" y="0" width="5.925926e+00"/><rect vector-effect="non-scaling-stroke" x="1.404444e+02" y="0" width="5.925926e+00" height="4.402022e+01"/><rect width="5.925926e+00" height="4.400004e+01" vector-effect="non-scaling-stroke" x="1.617778e+02" y="0"/><rect width="5.925926e+00" height="4.412324e+01" vector-effect="non-scaling-stroke" x="1.831111e+02" y="0"/><rect vector-effect="non-scaling-stroke" x="2.044444e+02" y="0" width="5.925926e+00" height="4.431243e+01"/><rect y="0" width="5.925926e+00" height="4.401272e+01" vector-effect="non-scaling-stroke" x="2.257778e+02"/><rect vector-effect="non-scaling-stroke" x="2.471111e+02" y="0" width="5.925926e+00" height="4.439632e+01"/><rect vector-effect="non-scaling-stroke" x="2.684444e+02" y="0" width="5.925926e+00" height="4.400438e+01"/><rect vector-effect="non-scaling-stroke" x="2.897778e+02" y="0" width="5.925926e+00" height="4.771010e+01"/><rect x="3.111111e+02" y="0" width="5.925926e+00" height="4.403698e+01" vector-effect="non-scaling-stroke"/><rect vector-effect="non-scaling-stroke" x="3.324444e+02" y="0" width="5.925926e+00" height="4.988932e+01"/><rect vector-effect="non-scaling-stroke" x="3.537778e+02" y="0" width="5.925926e+00" height="4.404688e+01"/><rect vector-effect="non-scaling-stroke" x="3.751111e+02" y="0" width="5.925926e+00" height="5.124663e+01"/><rect x="3.964444e+02" y="0" width="5.925926e+00" height="1.183002e+02" vector-effect="non-scaling-stroke"/><rect vector-effect="non-scaling-stroke" x="4.177778e+02" y="0" width="5.925926e+00" height="4.400224e+01"/><rect x="4.391111e+02" y="0" width="5.925926e+00" height="4.409574e+01" vector-effect="non-scaling-stroke"/><rect vector-effect="non-scaling-stroke" x="4.604444e+02" y="0" width="5.925926e+00" height="4.447781e+01"/><rect vector-effect="non-scaling-stroke" x="4.817778e+02" y="0" width="5.925926e+00" height="5.359717e+01"/><rect vector-effect="non-scaling-stroke" x="5.031111e+02" y="0" width="5.925926e+00" height="4.570539e+01"/><rect height="2.157414e+02" vector-effect="non-scaling-stroke" x="5.244444e+02" y="0" width="5.925926e+00"/><rect y="0" width="5.925926e+00" height="5.966278e+01" vector-effect="non-scaling-stroke" x="5.671111e+02"/></g><g transform="translate(80 520 )scale(1 -1 )" fill="hsl(49, 88%, 65%)" stroke="hsl(49, 88%, 65%)" stroke-width="1px" stroke-linecap="round" stroke-linejoin="round"><rect y="0" width="5.925926e+00" height="4.403041e+01" vector-effect="non-scaling-stroke" x="6.103704e+01"/><rect vector-effect="non-scaling-stroke" x="8.237037e+01" y="0" width="5.925926e+00" height="4.400081e+01"/><rect width="5.925926e+00" height="4.400805e+01" vector-effect="non-scaling-stroke" x="1.037037e+02" y="0"/><rect y="0" width="5.925926e+00" height="4.400569e+01" vector-effect="non-scaling-stroke" x="1.250370e+02"/><rect y="0" width="5.925926e+00" height="4.400422e+01" vector-effect="non-scaling-stroke" x="1.463704e+02"/><rect vector-effect="non-scaling-stroke" x="1.677037e+02" y="0" width="5.925926e+00" height="4.400004e+01"/><rect vector-effect="non-scaling-stroke" x="1.890370e+02" y="0" width="5.925926e+00" height="4.402340e+01"/><rect x="2.103704e+02" y="0" width="5.925926e+00" height="4.478897e+01" vector-effect="non-scaling-stroke"/><rect vector-effect="non-scaling-stroke" x="2.317037e+02" y="0" width="5.925926e+00" height="4.400769e+01"/><rect x="2.530370e+02" y="0" width="5.925926e+00" height="4.403370e+01" vector-effect="non-scaling-stroke"/><rect x="2.743704e+02" y="0" width="5.925926e+00" height="4.400396e+01" vector-effect="non-scaling-stroke"/><rect width="5.925926e+00" height="4.933467e+01" vector-effect="non-scaling-stroke" x="2.957037e+02" y="0"/><rect y="0" width="5.925926e+00" height="4.402029e+01" vector-effect="non-scaling-stroke" x="3.170370e+02"/><rect height="4.962183e+01" vector-effect="non-scaling-stroke" x="3.383704e+02" y="0" width="5.925926e+00"/><rect height="4.402070e+01" vector-effect="non-scaling-stroke" x="3.597037e+02" y="0" width="5.925926e+00"/><rect height="5.018268e+01" vector-effect="non-scaling-stroke" x="3.810370e+02" y="0" width="5.925926e+00"/><rect width="5.925926e+00" height="1.385860e+02" vector-effect="non-scaling-stroke" x="4.023704e+02" y="0"/><rect width="5.925926e+00" height="4.400099e+01" vector-effect="non-scaling-stroke" x="4.237037e+02" y="0"/><rect width="5.925926e+00" height="4.404747e+01" vector-effect="non-scaling-stroke" x="4.450370e+02" y="0"/><rect height="4.496839e+01" vector-effect="non-scaling-stroke" x="4.663704e+02" y="0" width="5.925926e+00"/><rect y="0" width="5.925926e+00" height="4.834763e+01" vector-effect="non-scaling-stroke" x="4.877037e+02"/><rect vector-effect="non-scaling-stroke" x="5.090370e+02" y="0" width="5.925926e+00" height="4.441737e+01"/><rect width="5.925926e+00" height="1.407277e+02" vector-effect="non-scaling-stroke" x="5.303704e+02" y="0"/><rect width="5.925926e+00" height="4.632817e+01" vector-effect="non-scaling-stroke" x="5.730370e+02" y="0"/></g><g fill="hsl(260, 76%, 65%)" stroke="hsl(260, 76%, 65%)" stroke-width="1px" stroke-linecap="round" stroke-linejoin="round" transform="translate(80 520 )scale(1 -1 )"><rect vector-effect="non-scaling-stroke" x="6.696296e+01" y="0" width="5.925926e+00" height="4.402634e+01"/><rect height="4.400092e+01" vector-effect="non-scaling-stroke" x="8.829630e+01" y="0" width="5.925926e+00"/><rect vector-effect="non-scaling-stroke" x="1.096296e+02" y="0" width="5.925926e+00" height="4.400555e+01"/><rect width="5.925926e+00" height="4.401748e+01" vector-effect="non-scaling-stroke" x="1.309630e+02" y="0"/><rect vector-effect="non-scaling-stroke" x="1.522963e+02" y="0" width="5.925926e+00" height="4.469285e+01"/><rect width="5.925926e+00" height="4.400003e+01" vector-effect="non-scaling-stroke" x="1.736296e+02" y="0"/><rect width="5.925926e+00" height="4.404056e+01" vector-effect="non-scaling-stroke" x="1.949630e+02" y="0"/><rect width="5.925926e+00" height="4.407884e+01" vector-effect="non-scaling-stroke" x="2.162963e+02" y="0"/><rect vector-effect="non-scaling-stroke" x="2.376296e+02" y="0" width="5.925926e+00" height="4.400678e+01"/><rect x="2.589630e+02" y="0" width="5.925926e+00" height="4.403152e+01" vector-effect="non-scaling-stroke"/><rect height="4.400311e+01" vector-effect="non-scaling-stroke" x="2.802963e+02" y="0" width="5.925926e+00"/><rect vector-effect="non-scaling-stroke" x="3.016296e+02" y="0" width="5.925926e+00" height="5.002241e+01"/><rect y="0" width="5.925926e+00" height="4.402842e+01" vector-effect="non-scaling-stroke" x="3.229630e+02"/><rect height="4.858756e+01" vector-effect="non-scaling-stroke" x="3.442963e+02" y="0" width="5.925926e+00"/><rect vector-effect="non-scaling-stroke" x="3.656296e+02" y="0" width="5.925926e+00" height="4.402191e+01"/><rect vector-effect="non-scaling-stroke" x="3.869630e+02" y="0" width="5.925926e+00" height="6.112356e+01"/><rect width="5.925926e+00" height="4.477269e+01" vector-effect="non-scaling-stroke" x="4.082963e+02" y="0"/><rect height="4.400150e+01" vector-effect="non-scaling-stroke" x="4.296296e+02" y="0" width="5.925926e+00"/><rect vector-effect="non-scaling-stroke" x="4.509630e+02" y="0" width="5.925926e+00" height="4.442254e+01"/><rect vector-effect="non-scaling-stroke" x="4.722963e+02" y="0" width="5.925926e+00" height="4.400093e+01"/><rect vector-effect="non-scaling-stroke" x="4.936296e+02" y="0" width="5.925926e+00" height="4.419941e+01"/><rect x="5.149630e+02" y="0" width="5.925926e+00" height="4.437250e+01" vector-effect="non-scaling-stroke"/><rect x="5.362963e+02" y="0" width="5.925926e+00" height="396" vector-effect="non-scaling-stroke"/></g><g stroke-width="1px" dominant-baseline="hanging" stroke="hsl(198, 47%, 65%)" text-anchor="start" stroke-linejoin="round" font-size="12px" font-weight="normal" fill="hsl(198, 47%, 65%)" stroke-linecap="round" font-family="sans-serif" font-style="normal"><rect height="12" vector-effect="non-scaling-stroke" x="736" y="466" width="12"/><g stroke="black" fill="black"><text vector-effect="non-scaling-stroke" x="752" y="466" dominant-baseline="hanging" stroke="none">Golang</text></g><g stroke="hsl(49, 88%, 65%)" stroke-width="1px" font-style="normal" dominant-baseline="hanging" stroke-linecap="round" text-anchor="start" stroke-linejoin="round" font-weight="normal" fill="hsl(49, 88%, 65%)" font-family="sans-serif" font-size="12px"><rect height="12" vector-effect="non-scaling-stroke" x="736" y="484" width="12"/><g fill="black" stroke="black"><text stroke="none" vector-effect="non-scaling-stroke" x="752" y="484" dominant-baseline="hanging">Rust</text></g><g fill="hsl(260, 76%, 65%)" font-style="normal" text-anchor="start" stroke="hsl(260, 76%, 65%)" font-size="12px" dominant-baseline="hanging" stroke-linecap="round" stroke-linejoin="round" stroke-width="1px" font-family="sans-serif" font-weight="normal"><rect vector-effect="non-scaling-stroke" x="736" y="502" width="12" height="12"/><g fill="black" stroke="black"><text y="502" dominant-baseline="hanging" stroke="none" vector-effect="non-scaling-stroke" x="752">Zig</text><g font-size="12px" dominant-baseline="hanging" text-anchor="start" font-family="sans-serif" stroke-linecap="round" font-weight="normal" stroke-linejoin="round" fill="none" stroke-width="2px" font-style="normal"><rect vector-effect="non-scaling-stroke" x="80" y="80" width="640" height="440"/></g><g stroke-width="2px" font-weight="normal" fill="none" font-family="sans-serif" text-anchor="start" stroke="black" dominant-baseline="hanging" transform="translate(80 520 )scale(1 -1 )" stroke-linecap="round" font-size="12px" stroke-linejoin="round" font-style="normal"><path vector-effect="non-scaling-stroke" d="M64,0 L64,-6 M8.533333e+01,0 L8.533333e+01,-6 M1.066667e+02,0 L1.066667e+02,-6 M128,0 L128,-6 M1.493333e+02,0 L1.493333e+02,-6 M1.706667e+02,0 L1.706667e+02,-6 M192,0 L192,-6 M2.133333e+02,0 L2.133333e+02,-6 M2.346667e+02,0 L2.346667e+02,-6 M256,0 L256,-6 M2.773333e+02,0 L2.773333e+02,-6 M2.986667e+02,0 L2.986667e+02,-6 M320,0 L320,-6 M3.413333e+02,0 L3.413333e+02,-6 M3.626667e+02,0 L3.626667e+02,-6 M384,0 L384,-6 M4.053333e+02,0 L4.053333e+02,-6 M4.266667e+02,0 L4.266667e+02,-6 M448,0 L448,-6 M4.693333e+02,0 L4.693333e+02,-6 M4.906667e+02,0 L4.906667e+02,-6 M512,0 L512,-6 M5.333333e+02,0 L5.333333e+02,-6 M576,0 L576,-6 "/></g><g stroke-linejoin="round" text-anchor="middle" font-family="sans-serif" font-weight="normal" stroke="black" stroke-width="2px" fill="black" stroke-linecap="round" font-size="12px" dominant-baseline="hanging" font-style="normal" transform="translate(80 520 )scale(1 1 )"><text stroke="none" vector-effect="non-scaling-stroke" x="64" y="10" dominant-baseline="hanging">1</text><text vector-effect="non-scaling-stroke" x="8.533333e+01" y="10" dominant-baseline="hanging" stroke="none">2</text><text y="10" dominant-baseline="hanging" stroke="none" vector-effect="non-scaling-stroke" x="1.066667e+02">3</text><text y="10" dominant-baseline="hanging" stroke="none" vector-effect="non-scaling-stroke" x="128">4</text><text stroke="none" vector-effect="non-scaling-stroke" x="1.493333e+02" y="10" dominant-baseline="hanging">5</text><text vector-effect="non-scaling-stroke" x="1.706667e+02" y="10" dominant-baseline="hanging" stroke="none">6</text><text vector-effect="non-scaling-stroke" x="192" y="10" dominant-baseline="hanging" stroke="none">7</text><text dominant-baseline="hanging" stroke="none" vector-effect="non-scaling-stroke" x="2.133333e+02" y="10">8</text><text x="2.346667e+02" y="10" dominant-baseline="hanging" stroke="none" vector-effect="non-scaling-stroke">9</text><text dominant-baseline="hanging" stroke="none" vector-effect="non-scaling-stroke" x="256" y="10">10</text><text x="2.773333e+02" y="10" dominant-baseline="hanging" stroke="none" vector-effect="non-scaling-stroke">11</text><text x="2.986667e+02" y="10" dominant-baseline="hanging" stroke="none" vector-effect="non-scaling-stroke">12</text><text stroke="none" vector-effect="non-scaling-stroke" x="320" y="10" dominant-baseline="hanging">13</text><text x="3.413333e+02" y="10" dominant-baseline="hanging" stroke="none" vector-effect="non-scaling-stroke">14</text><text y="10" dominant-baseline="hanging" stroke="none" vector-effect="non-scaling-stroke" x="3.626667e+02">15</text><text vector-effect="non-scaling-stroke" x="384" y="10" dominant-baseline="hanging" stroke="none">16</text><text stroke="none" vector-effect="non-scaling-stroke" x="4.053333e+02" y="10" dominant-baseline="hanging">17</text><text stroke="none" vector-effect="non-scaling-stroke" x="4.266667e+02" y="10" dominant-baseline="hanging">18</text><text y="10" dominant-baseline="hanging" stroke="none" vector-effect="non-scaling-stroke" x="448">19</text><text x="4.693333e+02" y="10" dominant-baseline="hanging" stroke="none" vector-effect="non-scaling-stroke">20</text><text y="10" dominant-baseline="hanging" stroke="none" vector-effect="non-scaling-stroke" x="4.906667e+02">21</text><text stroke="none" vector-effect="non-scaling-stroke" x="512" y="10" dominant-baseline="hanging">22</text><text stroke="none" vector-effect="non-scaling-stroke" x="5.333333e+02" y="10" dominant-baseline="hanging">23</text><text y="10" dominant-baseline="hanging" stroke="none" vector-effect="non-scaling-stroke" x="576">25</text></g><g stroke-linejoin="round" font-style="normal" fill="black" font-family="sans-serif" font-weight="bold" dominant-baseline="baseline" transform="translate(80 520 )scale(1 1 )rotate(0 0 0 )" stroke-linecap="round" font-size="12px" stroke="black" stroke-width="2px" text-anchor="middle"><text x="320" y="-6" dominant-baseline="baseline" stroke="none" vector-effect="non-scaling-stroke">Day</text></g><g stroke-linecap="round" font-family="sans-serif" font-size="12px" font-weight="bold" stroke-width="2px" font-style="normal" dominant-baseline="baseline" transform="translate(80 520 )scale(1 -1 )" fill="black" stroke="black" stroke-linejoin="round" text-anchor="middle"><path d="M0,44 L-6,44 M0,1.105239e+02 L-6,1.105239e+02 M0,1.770479e+02 L-6,1.770479e+02 M0,2.435718e+02 L-6,2.435718e+02 M0,3.100958e+02 L-6,3.100958e+02 M0,3.766197e+02 L-6,3.766197e+02 " vector-effect="non-scaling-stroke"/></g><g stroke-width="2px" font-weight="normal" dominant-baseline="middle" font-style="normal" stroke-linecap="round" font-family="sans-serif" text-anchor="end" stroke="black" stroke-linejoin="round" font-size="12px" transform="translate(80 520 )scale(1 1 )" fill="black"><text dominant-baseline="middle" stroke="none" vector-effect="non-scaling-stroke" x="-10" y="-44">0s</text><text stroke="none" vector-effect="non-scaling-stroke" x="-10" y="-1.105239e+02" dominant-baseline="middle">200ms</text><text stroke="none" vector-effect="non-scaling-stroke" x="-10" y="-1.770479e+02" dominant-baseline="middle">400ms</text><text dominant-baseline="middle" stroke="none" vector-effect="non-scaling-stroke" x="-10" y="-2.435718e+02">600ms</text><text x="-10" y="-3.100958e+02" dominant-baseline="middle" stroke="none" vector-effect="non-scaling-stroke">800ms</text><text y="-3.766197e+02" dominant-baseline="middle" stroke="none" vector-effect="non-scaling-stroke" x="-10">1s</text></g><g transform="translate(80 520 )scale(1 1 )rotate(-90 0 0 )" fill="black" stroke-linecap="round" stroke-linejoin="round" font-style="normal" font-family="sans-serif" font-size="12px" dominant-baseline="hanging" stroke="black" stroke-width="2px" font-weight="bold" text-anchor="middle"><text stroke="none" vector-effect="non-scaling-stroke" x="220" y="6" dominant-baseline="hanging">Runtime</text></g></g></g></g></g></svg>