<svg height="600" viewbox="0 0 800 600" preserveAspectRatio="xMidYMid meet" xmlns="http://www.w3.org/2000/svg" width="800"><defs><marker markerWidth="2%" markerHeight="2%" id="circle" viewBox="0 0 10 10 " refX="5" refY="5" markerUnits="userSpaceOnUse"><circle cx="5" cy="5" r="3" fill="none" stroke="black"/></marker><marker viewBox="0 0 10 10 " refX="5" refY="5" markerUnits="userSpaceOnUse" markerWidth="2%" markerHeight="2%" id="filled-circle"><circle cx="5" cy="5" r="3" fill="black" stroke="none"/></marker><marker markerHeight="2%" id="square" viewBox="0 0 10 10 " refX="5" refY="5" markerUnits="userSpaceOnUse" markerWidth="2%"><rect stroke="black" x="2" y="2" width="6" height="6" fill="none"/></marker><marker id="filled-square" viewBox="0 0 10 10 " refX="5" refY="5" markerUnits="userSpaceOnUse" markerWidth="2%" markerHeight="2%"><rect y="2" width="6" height="6" fill="black" stroke="none" x="2"/></marker></defs><g stroke-width="1px" stroke-linecap="round" stroke-linejoin="round" transform="translate(80 520 )scale(1 -1 )" fill="hsl(198, 47%, 65%)" stroke="hsl(198, 47%, 65%)"><rect x="3.650000e+01" y="0" width="1.833333e+01" height="4.432046e+01" vector-effect="non-scaling-stroke"/><rect height="3.269573e+02" vector-effect="non-scaling-stroke" x="5.783333e+01" y="0" width="1.833333e+01"/><rect x="7.916667e+01" y="0" width="1.833333e+01" height="4.568665e+01" vector-effect="non-scaling-stroke"/><rect vector-effect="non-scaling-stroke" x="1.005000e+02" y="0" width="1.833333e+01" height="1.119387e+02"/><rect vector-effect="non-scaling-stroke" x="1.218333e+02" y="0" width="1.833333e+01" height="4.527785e+01"/></g><g stroke="hsl(49, 88%, 65%)" stroke-width="1px" stroke-linecap="round" stroke-linejoin="round" transform="translate(80 520 )scale(1 -1 )" fill="hsl(49, 88%, 65%)"><rect width="1.833333e+01" height="4.416216e+01" vector-effect="non-scaling-stroke" x="5.483333e+01" y="0"/><rect vector-effect="non-scaling-stroke" x="7.616667e+01" y="0" width="1.833333e+01" height="396"/><rect width="1.833333e+01" height="4.501873e+01" vector-effect="non-scaling-stroke" x="9.750000e+01" y="0"/><rect height="5.120911e+01" vector-effect="non-scaling-stroke" x="1.188333e+02" y="0" width="1.833333e+01"/><rect y="0" width="1.833333e+01" height="4.628371e+01" vector-effect="non-scaling-stroke" x="1.401667e+02"/></g><g stroke-linejoin="round" transform="translate(80 520 )scale(1 -1 )" fill="hsl(260, 76%, 65%)" stroke="hsl(260, 76%, 65%)" stroke-width="1px" stroke-linecap="round"><rect x="7.316667e+01" y="0" width="1.833333e+01" height="4.416834e+01" vector-effect="non-scaling-stroke"/><rect vector-effect="non-scaling-stroke" x="9.450000e+01" y="0" width="1.833333e+01" height="2.239032e+02"/><rect height="4.470181e+01" vector-effect="non-scaling-stroke" x="1.158333e+02" y="0" width="1.833333e+01"/><rect height="5.228081e+01" vector-effect="non-scaling-stroke" x="1.371667e+02" y="0" width="1.833333e+01"/><rect x="1.585000e+02" y="0" width="1.833333e+01" height="4.510883e+01" vector-effect="non-scaling-stroke"/></g><g stroke-width="1px" font-size="12px" font-style="normal" font-weight="normal" text-anchor="start" stroke-linejoin="round" dominant-baseline="hanging" fill="hsl(198, 47%, 65%)" stroke="hsl(198, 47%, 65%)" stroke-linecap="round" font-family="sans-serif"><rect y="466" width="12" height="12" vector-effect="non-scaling-stroke" x="736"/><g stroke="black" fill="black"><text y="466" dominant-baseline="hanging" stroke="none" vector-effect="non-scaling-stroke" x="752">Golang</text></g><g dominant-baseline="hanging" stroke="hsl(49, 88%, 65%)" font-family="sans-serif" font-style="normal" font-weight="normal" text-anchor="start" stroke-linejoin="round" font-size="12px" fill="hsl(49, 88%, 65%)" stroke-linecap="round" stroke-width="1px"><rect vector-effect="non-scaling-stroke" x="736" y="484" width="12" height="12"/><g fill="black" stroke="black"><text dominant-baseline="hanging" stroke="none" vector-effect="non-scaling-stroke" x="752" y="484">Rust</text></g><g fill="hsl(260, 76%, 65%)" font-family="sans-serif" font-weight="normal" stroke-width="1px" dominant-baseline="hanging" stroke="hsl(260, 76%, 65%)" stroke-linecap="round" font-style="normal" text-anchor="start" stroke-linejoin="round" font-size="12px"><rect x="736" y="502" width="12" height="12" vector-effect="non-scaling-stroke"/><g fill="black" stroke="black"><text stroke="none" vector-effect="non-scaling-stroke" x="752" y="502" dominant-baseline="hanging">Zig</text><g fill="none" font-family="sans-serif" text-anchor="start" font-size="12px" stroke-linecap="round" font-weight="normal" dominant-baseline="hanging" font-style="normal" stroke-width="2px" stroke-linejoin="round"><rect vector-effect="non-scaling-stroke" x="80" y="80" width="640" height="440"/></g><g fill="none" stroke="black" stroke-linecap="round" font-style="normal" font-weight="normal" stroke-width="2px" stroke-linejoin="round" font-size="12px" transform="translate(80 520 )scale(1 -1 )" font-family="sans-serif" text-anchor="start" dominant-baseline="hanging"><path vector-effect="non-scaling-stroke" d="M64,0 L64,-6 M8.533333e+01,0 L8.533333e+01,-6 M1.066667e+02,0 L1.066667e+02,-6 M128,0 L128,-6 M1.493333e+02,0 L1.493333e+02,-6 "/></g><g fill="black" stroke-linecap="round" font-style="normal" text-anchor="middle" stroke-width="2px" transform="translate(80 520 )scale(1 1 )" stroke="black" font-family="sans-serif" font-weight="normal" stroke-linejoin="round" font-size="12px" dominant-baseline="hanging"><text vector-effect="non-scaling-stroke" x="64" y="10" dominant-baseline="hanging" stroke="none">1</text><text stroke="none" vector-effect="non-scaling-stroke" x="8.533333e+01" y="10" dominant-baseline="hanging">2</text><text vector-effect="non-scaling-stroke" x="1.066667e+02" y="10" dominant-baseline="hanging" stroke="none">3</text><text dominant-baseline="hanging" stroke="none" vector-effect="non-scaling-stroke" x="128" y="10">4</text><text y="10" dominant-baseline="hanging" stroke="none" vector-effect="non-scaling-stroke" x="1.493333e+02">5</text></g><g stroke-linecap="round" font-weight="bold" font-size="12px" font-family="sans-serif" font-style="normal" text-anchor="middle" stroke-width="2px" stroke-linejoin="round" dominant-baseline="baseline" transform="translate(80 520 )scale(1 1 )rotate(0 0 0 )" fill="black" stroke="black"><text stroke="none" vector-effect="non-scaling-stroke" x="320" y="-6" dominant-baseline="baseline">Day</text></g><g stroke="black" stroke-linecap="round" font-family="sans-serif" font-style="normal" font-weight="bold" text-anchor="middle" stroke-width="2px" stroke-linejoin="round" font-size="12px" dominant-baseline="baseline" transform="translate(80 520 )scale(1 -1 )" fill="black"><path vector-effect="non-scaling-stroke" d="M0,44 L-6,44 M0,2.101119e+02 L-6,2.101119e+02 M0,3.762239e+02 L-6,3.762239e+02 "/></g><g stroke-width="2px" font-size="12px" transform="translate(80 520 )scale(1 1 )" fill="black" stroke="black" stroke-linecap="round" font-family="sans-serif" font-style="normal" font-weight="normal" text-anchor="end" stroke-linejoin="round" dominant-baseline="middle"><text stroke="none" vector-effect="non-scaling-stroke" x="-10" y="-44" dominant-baseline="middle">0s</text><text vector-effect="non-scaling-stroke" x="-10" y="-2.101119e+02" dominant-baseline="middle" stroke="none">10ms</text><text dominant-baseline="middle" stroke="none" vector-effect="non-scaling-stroke" x="-10" y="-3.762239e+02">20ms</text></g><g stroke="black" font-family="sans-serif" text-anchor="middle" stroke-width="2px" stroke-linejoin="round" font-size="12px" transform="translate(80 520 )scale(1 1 )rotate(-90 0 0 )" fill="black" stroke-linecap="round" font-style="normal" font-weight="bold" dominant-baseline="hanging"><text stroke="none" vector-effect="non-scaling-stroke" x="220" y="6" dominant-baseline="hanging">Runtime</text></g></g></g></g></g></svg>