<svg width="800" height="600" viewbox="0 0 800 600" preserveAspectRatio="xMidYMid meet" xmlns="http://www.w3.org/2000/svg"><defs><marker refX="5" refY="5" markerUnits="userSpaceOnUse" markerWidth="2%" markerHeight="2%" id="circle" viewBox="0 0 10 10 "><circle cx="5" cy="5" r="3" fill="none" stroke="black"/></marker><marker markerUnits="userSpaceOnUse" markerWidth="2%" markerHeight="2%" id="filled-circle" viewBox="0 0 10 10 " refX="5" refY="5"><circle cx="5" cy="5" r="3" fill="black" stroke="none"/></marker><marker id="square" viewBox="0 0 10 10 " refX="5" refY="5" markerUnits="userSpaceOnUse" markerWidth="2%" markerHeight="2%"><rect stroke="black" x="2" y="2" width="6" height="6" fill="none"/></marker><marker markerUnits="userSpaceOnUse" markerWidth="2%" markerHeight="2%" id="filled-square" viewBox="0 0 10 10 " refX="5" refY="5"><rect height="6" fill="black" stroke="none" x="2" y="2" width="6"/></marker></defs><g stroke-width="1px" stroke-linecap="round" stroke-linejoin="round" transform="translate(80 520 )scale(1 -1 )" fill="hsl(198, 47%, 65%)" stroke="hsl(198, 47%, 65%)"><rect vector-effect="non-scaling-stroke" x="5.145098e+01" y="0" width="1.254902e+01" height="4.423525e+01"/><rect height="4.423326e+01" vector-effect="non-scaling-stroke" x="7.278431e+01" y="0" width="1.254902e+01"/><rect vector-effect="non-scaling-stroke" x="9.411765e+01" y="0" width="1.254902e+01" height="4.414482e+01"/><rect width="1.254902e+01" height="4.533401e+01" vector-effect="non-scaling-stroke" x="1.154510e+02" y="0"/><rect vector-effect="non-scaling-stroke" x="1.367843e+02" y="0" width="1.254902e+01" height="4.414970e+01"/><rect height="396" vector-effect="non-scaling-stroke" x="1.581176e+02" y="0" width="1.254902e+01"/><rect y="0" width="1.254902e+01" height="1.265206e+02" vector-effect="non-scaling-stroke" x="1.794510e+02"/><rect y="0" width="1.254902e+01" height="4.403414e+01" vector-effect="non-scaling-stroke" x="2.007843e+02"/><rect height="5.167989e+01" vector-effect="non-scaling-stroke" x="2.221176e+02" y="0" width="1.254902e+01"/><rect y="0" width="1.254902e+01" height="4.622438e+01" vector-effect="non-scaling-stroke" x="2.434510e+02"/><rect y="0" width="1.254902e+01" height="5.078807e+01" vector-effect="non-scaling-stroke" x="2.647843e+02"/><rect vector-effect="non-scaling-stroke" x="2.861176e+02" y="0" width="1.254902e+01" height="4.690133e+01"/><rect x="3.074510e+02" y="0" width="1.254902e+01" height="4.403436e+01" vector-effect="non-scaling-stroke"/><rect vector-effect="non-scaling-stroke" x="3.287843e+02" y="0" width="1.254902e+01" height="7.156957e+01"/><rect vector-effect="non-scaling-stroke" x="3.501176e+02" y="0" width="1.254902e+01" height="4.723968e+01"/><rect y="0" width="1.254902e+01" height="1.121467e+02" vector-effect="non-scaling-stroke" x="3.714510e+02"/><rect x="3.927843e+02" y="0" width="1.254902e+01" height="4.508299e+01" vector-effect="non-scaling-stroke"/></g><g stroke-linejoin="round" transform="translate(80 520 )scale(1 -1 )" fill="hsl(49, 88%, 65%)" stroke="hsl(49, 88%, 65%)" stroke-width="1px" stroke-linecap="round"><rect height="4.422948e+01" vector-effect="non-scaling-stroke" x="64" y="0" width="1.254902e+01"/><rect y="0" width="1.254902e+01" height="4.421116e+01" vector-effect="non-scaling-stroke" x="8.533333e+01"/><rect x="1.066667e+02" y="0" width="1.254902e+01" height="4.404346e+01" vector-effect="non-scaling-stroke"/><rect y="0" width="1.254902e+01" height="4.622662e+01" vector-effect="non-scaling-stroke" x="128"/><rect y="0" width="1.254902e+01" height="4.410670e+01" vector-effect="non-scaling-stroke" x="1.493333e+02"/><rect vector-effect="non-scaling-stroke" x="1.706667e+02" y="0" width="1.254902e+01" height="3.114004e+02"/><rect vector-effect="non-scaling-stroke" x="192" y="0" width="1.254902e+01" height="1.275011e+02"/><rect height="4.401625e+01" vector-effect="non-scaling-stroke" x="2.133333e+02" y="0" width="1.254902e+01"/><rect vector-effect="non-scaling-stroke" x="2.346667e+02" y="0" width="1.254902e+01" height="4.690768e+01"/><rect y="0" width="1.254902e+01" height="4.418291e+01" vector-effect="non-scaling-stroke" x="2.560000e+02"/><rect height="4.918509e+01" vector-effect="non-scaling-stroke" x="2.773333e+02" y="0" width="1.254902e+01"/><rect x="2.986667e+02" y="0" width="1.254902e+01" height="4.621178e+01" vector-effect="non-scaling-stroke"/><rect height="4.402768e+01" vector-effect="non-scaling-stroke" x="320" y="0" width="1.254902e+01"/><rect height="6.266067e+01" vector-effect="non-scaling-stroke" x="3.413333e+02" y="0" width="1.254902e+01"/><rect height="5.329766e+01" vector-effect="non-scaling-stroke" x="3.626667e+02" y="0" width="1.254902e+01"/></g><g stroke="hsl(198, 47%, 65%)" stroke-linejoin="round" font-size="12px" font-family="sans-serif" dominant-baseline="hanging" font-style="normal" font-weight="normal" fill="hsl(198, 47%, 65%)" stroke-linecap="round" text-anchor="start" stroke-width="1px"><rect vector-effect="non-scaling-stroke" x="736" y="484" width="12" height="12"/><g fill="black" stroke="black"><text stroke="none" vector-effect="non-scaling-stroke" x="752" y="484" dominant-baseline="hanging">Golang</text></g><g font-style="normal" stroke-linejoin="round" font-size="12px" stroke-width="1px" text-anchor="start" font-family="sans-serif" font-weight="normal" fill="hsl(49, 88%, 65%)" stroke="hsl(49, 88%, 65%)" dominant-baseline="hanging" stroke-linecap="round"><rect y="502" width="12" height="12" vector-effect="non-scaling-stroke" x="736"/><g fill="black" stroke="black"><text y="502" dominant-baseline="hanging" stroke="none" vector-effect="non-scaling-stroke" x="752">Rust</text><g stroke-width="2px" font-style="normal" font-weight="normal" font-size="12px" stroke-linecap="round" font-family="sans-serif" stroke-linejoin="round" text-anchor="start" dominant-baseline="hanging" fill="none"><rect height="440" vector-effect="non-scaling-stroke" x="80" y="80" width="640"/></g><g font-style="normal" stroke-linejoin="round" text-anchor="start" stroke-width="2px" font-family="sans-serif" font-weight="normal" transform="translate(80 520 )scale(1 -1 )" fill="none" stroke="black" dominant-baseline="hanging" stroke-linecap="round" font-size="12px"><path d="M64,0 L64,-6 M8.533333e+01,0 L8.533333e+01,-6 M1.066667e+02,0 L1.066667e+02,-6 M128,0 L128,-6 M1.493333e+02,0 L1.493333e+02,-6 M1.706667e+02,0 L1.706667e+02,-6 M192,0 L192,-6 M2.133333e+02,0 L2.133333e+02,-6 M2.346667e+02,0 L2.346667e+02,-6 M256,0 L256,-6 M2.773333e+02,0 L2.773333e+02,-6 M2.986667e+02,0 L2.986667e+02,-6 M320,0 L320,-6 M3.413333e+02,0 L3.413333e+02,-6 M3.626667e+02,0 L3.626667e+02,-6 M384,0 L384,-6 M4.053333e+02,0 L4.053333e+02,-6 " vector-effect="non-scaling-stroke"/></g><g stroke-linecap="round" font-family="sans-serif" dominant-baseline="hanging" stroke="black" font-size="12px" font-style="normal" stroke-width="2px" text-anchor="middle" font-weight="normal" transform="translate(80 520 )scale(1 1 )" fill="black" stroke-linejoin="round"><text dominant-baseline="hanging" stroke="none" vector-effect="non-scaling-stroke" x="64" y="10">1</text><text vector-effect="non-scaling-stroke" x="8.533333e+01" y="10" dominant-baseline="hanging" stroke="none">2</text><text stroke="none" vector-effect="non-scaling-stroke" x="1.066667e+02" y="10" dominant-baseline="hanging">3</text><text y="10" dominant-baseline="hanging" stroke="none" vector-effect="non-scaling-stroke" x="128">4</text><text stroke="none" vector-effect="non-scaling-stroke" x="1.493333e+02" y="10" dominant-baseline="hanging">5</text><text y="10" dominant-baseline="hanging" stroke="none" vector-effect="non-scaling-stroke" x="1.706667e+02">6</text><text x="192" y="10" dominant-baseline="hanging" stroke="none" vector-effect="non-scaling-stroke">7</text><text dominant-baseline="hanging" stroke="none" vector-effect="non-scaling-stroke" x="2.133333e+02" y="10">8</text><text y="10" dominant-baseline="hanging" stroke="none" vector-effect="non-scaling-stroke" x="2.346667e+02">9</text><text dominant-baseline="hanging" stroke="none" vector-effect="non-scaling-stroke" x="256" y="10">10</text><text vector-effect="non-scaling-stroke" x="2.773333e+02" y="10" dominant-baseline="hanging" stroke="none">11</text><text stroke="none" vector-effect="non-scaling-stroke" x="2.986667e+02" y="10" dominant-baseline="hanging">12</text><text vector-effect="non-scaling-stroke" x="320" y="10" dominant-baseline="hanging" stroke="none">13</text><text y="10" dominant-baseline="hanging" stroke="none" vector-effect="non-scaling-stroke" x="3.413333e+02">14</text><text stroke="none" vector-effect="non-scaling-stroke" x="3.626667e+02" y="10" dominant-baseline="hanging">15</text><text stroke="none" vector-effect="non-scaling-stroke" x="384" y="10" dominant-baseline="hanging">16</text><text y="10" dominant-baseline="hanging" stroke="none" vector-effect="non-scaling-stroke" x="4.053333e+02">17</text></g><g dominant-baseline="baseline" transform="translate(80 520 )scale(1 1 )rotate(0 0 0 )" stroke-linejoin="round" font-size="12px" stroke-width="2px" stroke-linecap="round" font-family="sans-serif" text-anchor="middle" font-style="normal" font-weight="bold" fill="black" stroke="black"><text y="-6" dominant-baseline="baseline" stroke="none" vector-effect="non-scaling-stroke" x="320">Day</text></g><g stroke-linejoin="round" font-size="12px" transform="translate(80 520 )scale(1 -1 )" stroke-linecap="round" stroke-width="2px" stroke="black" font-style="normal" font-weight="bold" fill="black" font-family="sans-serif" text-anchor="middle" dominant-baseline="baseline"><path vector-effect="non-scaling-stroke" d="M0,44 L-6,44 M0,9.307912e+01 L-6,9.307912e+01 M0,1.421582e+02 L-6,1.421582e+02 M0,1.912374e+02 L-6,1.912374e+02 M0,2.403165e+02 L-6,2.403165e+02 M0,2.893956e+02 L-6,2.893956e+02 M0,3.384747e+02 L-6,3.384747e+02 M0,3.875538e+02 L-6,3.875538e+02 "/></g><g font-style="normal" font-weight="normal" fill="black" text-anchor="end" dominant-baseline="middle" stroke-width="2px" stroke="black" stroke-linejoin="round" font-size="12px" transform="translate(80 520 )scale(1 1 )" stroke-linecap="round" font-family="sans-serif"><text x="-10" y="-44" dominant-baseline="middle" stroke="none" vector-effect="non-scaling-stroke">0s</text><text dominant-baseline="middle" stroke="none" vector-effect="non-scaling-stroke" x="-10" y="-9.307912e+01">10ms</text><text y="-1.421582e+02" dominant-baseline="middle" stroke="none" vector-effect="non-scaling-stroke" x="-10">20ms</text><text dominant-baseline="middle" stroke="none" vector-effect="non-scaling-stroke" x="-10" y="-1.912374e+02">30ms</text><text stroke="none" vector-effect="non-scaling-stroke" x="-10" y="-2.403165e+02" dominant-baseline="middle">40ms</text><text x="-10" y="-2.893956e+02" dominant-baseline="middle" stroke="none" vector-effect="non-scaling-stroke">50ms</text><text stroke="none" vector-effect="non-scaling-stroke" x="-10" y="-3.384747e+02" dominant-baseline="middle">60ms</text><text y="-3.875538e+02" dominant-baseline="middle" stroke="none" vector-effect="non-scaling-stroke" x="-10">70ms</text></g><g dominant-baseline="hanging" fill="black" stroke="black" stroke-linejoin="round" font-size="12px" font-weight="bold" font-family="sans-serif" font-style="normal" transform="translate(80 520 )scale(1 1 )rotate(-90 0 0 )" stroke-width="2px" stroke-linecap="round" text-anchor="middle"><text stroke="none" vector-effect="non-scaling-stroke" x="220" y="6" dominant-baseline="hanging">Runtime</text></g></g></g></g></svg>