<svg viewbox="0 0 800 600" preserveAspectRatio="xMidYMid meet" xmlns="http://www.w3.org/2000/svg" width="800" height="600"><defs><marker markerWidth="2%" markerHeight="2%" id="circle" viewBox="0 0 10 10 " refX="5" refY="5" markerUnits="userSpaceOnUse"><circle cx="5" cy="5" r="3" fill="none" stroke="black"/></marker><marker markerWidth="2%" markerHeight="2%" id="filled-circle" viewBox="0 0 10 10 " refX="5" refY="5" markerUnits="userSpaceOnUse"><circle stroke="none" cx="5" cy="5" r="3" fill="black"/></marker><marker viewBox="0 0 10 10 " refX="5" refY="5" markerUnits="userSpaceOnUse" markerWidth="2%" markerHeight="2%" id="square"><rect fill="none" stroke="black" x="2" y="2" width="6" height="6"/></marker><marker markerUnits="userSpaceOnUse" markerWidth="2%" markerHeight="2%" id="filled-square" viewBox="0 0 10 10 " refX="5" refY="5"><rect width="6" height="6" fill="black" stroke="none" x="2" y="2"/></marker></defs><g stroke-linecap="round" stroke-linejoin="round" transform="translate(80 520 )scale(1 -1 )" fill="hsl(198, 47%, 65%)" stroke="hsl(198, 47%, 65%)" stroke-width="1px"><rect y="0" width="2.666667e+01" height="4.426328e+01" vector-effect="non-scaling-stroke" x="3.733333e+01"/><rect x="5.866667e+01" y="0" width="2.666667e+01" height="4.423326e+01" vector-effect="non-scaling-stroke"/><rect vector-effect="non-scaling-stroke" x="80" y="0" width="2.666667e+01" height="4.414482e+01"/><rect width="2.666667e+01" height="4.533401e+01" vector-effect="non-scaling-stroke" x="1.013333e+02" y="0"/><rect height="4.414970e+01" vector-effect="non-scaling-stroke" x="1.226667e+02" y="0" width="2.666667e+01"/><rect width="2.666667e+01" height="396" vector-effect="non-scaling-stroke" x="144" y="0"/><rect y="0" width="2.666667e+01" height="1.265206e+02" vector-effect="non-scaling-stroke" x="1.653333e+02"/><rect vector-effect="non-scaling-stroke" x="1.866667e+02" y="0" width="2.666667e+01" height="4.403414e+01"/></g><g stroke-linecap="round" stroke-linejoin="round" transform="translate(80 520 )scale(1 -1 )" fill="hsl(49, 88%, 65%)" stroke="hsl(49, 88%, 65%)" stroke-width="1px"><rect x="6.400000e+01" y="0" width="2.666667e+01" height="4.422948e+01" vector-effect="non-scaling-stroke"/><rect x="8.533333e+01" y="0" width="2.666667e+01" height="4.421116e+01" vector-effect="non-scaling-stroke"/><rect vector-effect="non-scaling-stroke" x="1.066667e+02" y="0" width="2.666667e+01" height="4.404346e+01"/><rect vector-effect="non-scaling-stroke" x="128" y="0" width="2.666667e+01" height="4.622662e+01"/><rect y="0" width="2.666667e+01" height="4.410670e+01" vector-effect="non-scaling-stroke" x="1.493333e+02"/><rect x="1.706667e+02" y="0" width="2.666667e+01" height="3.114004e+02" vector-effect="non-scaling-stroke"/><rect vector-effect="non-scaling-stroke" x="192" y="0" width="2.666667e+01" height="1.275011e+02"/><rect y="0" width="2.666667e+01" height="4.401625e+01" vector-effect="non-scaling-stroke" x="2.133333e+02"/></g><g stroke-linejoin="round" font-family="sans-serif" font-size="12px" font-style="normal" text-anchor="start" fill="hsl(198, 47%, 65%)" stroke="hsl(198, 47%, 65%)" stroke-linecap="round" font-weight="normal" stroke-width="1px" dominant-baseline="hanging"><rect vector-effect="non-scaling-stroke" x="736" y="484" width="12" height="12"/><g stroke="black" fill="black"><text vector-effect="non-scaling-stroke" x="752" y="484" dominant-baseline="hanging" stroke="none">Golang</text></g><g text-anchor="start" stroke-width="1px" stroke-linejoin="round" font-family="sans-serif" font-style="normal" stroke-linecap="round" font-weight="normal" stroke="hsl(49, 88%, 65%)" font-size="12px" dominant-baseline="hanging" fill="hsl(49, 88%, 65%)"><rect vector-effect="non-scaling-stroke" x="736" y="502" width="12" height="12"/><g fill="black" stroke="black"><text stroke="none" vector-effect="non-scaling-stroke" x="752" y="502" dominant-baseline="hanging">Rust</text><g stroke-linejoin="round" font-size="12px" stroke-linecap="round" text-anchor="start" stroke-width="2px" fill="none" font-weight="normal" dominant-baseline="hanging" font-family="sans-serif" font-style="normal"><rect height="440" vector-effect="non-scaling-stroke" x="80" y="80" width="640"/></g><g stroke-linecap="round" text-anchor="start" transform="translate(80 520 )scale(1 -1 )" stroke-linejoin="round" font-family="sans-serif" font-size="12px" font-style="normal" stroke-width="2px" dominant-baseline="hanging" fill="none" stroke="black" font-weight="normal"><path d="M64,0 L64,-6 M8.533333e+01,0 L8.533333e+01,-6 M1.066667e+02,0 L1.066667e+02,-6 M128,0 L128,-6 M1.493333e+02,0 L1.493333e+02,-6 M1.706667e+02,0 L1.706667e+02,-6 M192,0 L192,-6 M2.133333e+02,0 L2.133333e+02,-6 " vector-effect="non-scaling-stroke"/></g><g font-family="sans-serif" stroke-linecap="round" font-weight="normal" stroke-width="2px" stroke-linejoin="round" font-size="12px" font-style="normal" transform="translate(80 520 )scale(1 1 )" fill="black" stroke="black" text-anchor="middle" dominant-baseline="hanging"><text y="10" dominant-baseline="hanging" stroke="none" vector-effect="non-scaling-stroke" x="64">1</text><text stroke="none" vector-effect="non-scaling-stroke" x="8.533333e+01" y="10" dominant-baseline="hanging">2</text><text vector-effect="non-scaling-stroke" x="1.066667e+02" y="10" dominant-baseline="hanging" stroke="none">3</text><text vector-effect="non-scaling-stroke" x="128" y="10" dominant-baseline="hanging" stroke="none">4</text><text x="1.493333e+02" y="10" dominant-baseline="hanging" stroke="none" vector-effect="non-scaling-stroke">5</text><text x="1.706667e+02" y="10" dominant-baseline="hanging" stroke="none" vector-effect="non-scaling-stroke">6</text><text stroke="none" vector-effect="non-scaling-stroke" x="192" y="10" dominant-baseline="hanging">7</text><text x="2.133333e+02" y="10" dominant-baseline="hanging" stroke="none" vector-effect="non-scaling-stroke">8</text></g><g font-style="normal" transform="translate(80 520 )scale(1 1 )rotate(0 0 0 )" stroke-width="2px" font-size="12px" text-anchor="middle" fill="black" stroke="black" font-weight="bold" stroke-linejoin="round" font-family="sans-serif" dominant-baseline="baseline" stroke-linecap="round"><text stroke="none" vector-effect="non-scaling-stroke" x="320" y="-6" dominant-baseline="baseline">Day</text></g><g stroke-linecap="round" text-anchor="middle" dominant-baseline="baseline" stroke-width="2px" font-style="normal" stroke="black" transform="translate(80 520 )scale(1 -1 )" fill="black" font-weight="bold" stroke-linejoin="round" font-family="sans-serif" font-size="12px"><path vector-effect="non-scaling-stroke" d="M0,44 L-6,44 M0,9.307912e+01 L-6,9.307912e+01 M0,1.421582e+02 L-6,1.421582e+02 M0,1.912374e+02 L-6,1.912374e+02 M0,2.403165e+02 L-6,2.403165e+02 M0,2.893956e+02 L-6,2.893956e+02 M0,3.384747e+02 L-6,3.384747e+02 M0,3.875538e+02 L-6,3.875538e+02 "/></g><g stroke="black" stroke-linecap="round" font-size="12px" font-style="normal" stroke-linejoin="round" font-weight="normal" text-anchor="end" dominant-baseline="middle" fill="black" transform="translate(80 520 )scale(1 1 )" stroke-width="2px" font-family="sans-serif"><text y="-44" dominant-baseline="middle" stroke="none" vector-effect="non-scaling-stroke" x="-10">0s</text><text dominant-baseline="middle" stroke="none" vector-effect="non-scaling-stroke" x="-10" y="-9.307912e+01">10ms</text><text x="-10" y="-1.421582e+02" dominant-baseline="middle" stroke="none" vector-effect="non-scaling-stroke">20ms</text><text x="-10" y="-1.912374e+02" dominant-baseline="middle" stroke="none" vector-effect="non-scaling-stroke">30ms</text><text stroke="none" vector-effect="non-scaling-stroke" x="-10" y="-2.403165e+02" dominant-baseline="middle">40ms</text><text y="-2.893956e+02" dominant-baseline="middle" stroke="none" vector-effect="non-scaling-stroke" x="-10">50ms</text><text dominant-baseline="middle" stroke="none" vector-effect="non-scaling-stroke" x="-10" y="-3.384747e+02">60ms</text><text x="-10" y="-3.875538e+02" dominant-baseline="middle" stroke="none" vector-effect="non-scaling-stroke">70ms</text></g><g stroke="black" font-weight="bold" text-anchor="middle" stroke-width="2px" font-style="normal" transform="translate(80 520 )scale(1 1 )rotate(-90 0 0 )" fill="black" stroke-linecap="round" dominant-baseline="hanging" stroke-linejoin="round" font-family="sans-serif" font-size="12px"><text y="6" dominant-baseline="hanging" stroke="none" vector-effect="non-scaling-stroke" x="220">Runtime</text></g></g></g></g></svg>