<svg preserveAspectRatio="xMidYMid meet" xmlns="http://www.w3.org/2000/svg" width="800" height="600" viewbox="0 0 800 600"><defs><marker refX="5" refY="5" markerUnits="userSpaceOnUse" markerWidth="2%" markerHeight="2%" id="circle" viewBox="0 0 10 10 "><circle fill="none" stroke="black" cx="5" cy="5" r="3"/></marker><marker id="filled-circle" viewBox="0 0 10 10 " refX="5" refY="5" markerUnits="userSpaceOnUse" markerWidth="2%" markerHeight="2%"><circle cy="5" r="3" fill="black" stroke="none" cx="5"/></marker><marker refY="5" markerUnits="userSpaceOnUse" markerWidth="2%" markerHeight="2%" id="square" viewBox="0 0 10 10 " refX="5"><rect width="6" height="6" fill="none" stroke="black" x="2" y="2"/></marker><marker markerHeight="2%" id="filled-square" viewBox="0 0 10 10 " refX="5" refY="5" markerUnits="userSpaceOnUse" markerWidth="2%"><rect width="6" height="6" fill="black" stroke="none" x="2" y="2"/></marker></defs><g stroke="hsl(198, 47%, 65%)" stroke-width="1px" stroke-linecap="round" stroke-linejoin="round" transform="translate(80 520 )scale(1 -1 )" fill="hsl(198, 47%, 65%)"><rect width="9.275362e+00" height="4.400289e+01" vector-effect="non-scaling-stroke" x="5.472464e+01" y="0"/><rect vector-effect="non-scaling-stroke" x="7.605797e+01" y="0" width="9.275362e+00" height="4.400080e+01"/><rect width="9.275362e+00" height="4.400876e+01" vector-effect="non-scaling-stroke" x="9.739130e+01" y="0"/><rect height="4.400378e+01" vector-effect="non-scaling-stroke" x="1.187246e+02" y="0" width="9.275362e+00"/><rect height="4.400216e+01" vector-effect="non-scaling-stroke" x="1.400580e+02" y="0" width="9.275362e+00"/><rect vector-effect="non-scaling-stroke" x="1.613913e+02" y="0" width="9.275362e+00" height="4.400563e+01"/><rect x="1.827246e+02" y="0" width="9.275362e+00" height="4.400438e+01" vector-effect="non-scaling-stroke"/><rect vector-effect="non-scaling-stroke" x="2.040580e+02" y="0" width="9.275362e+00" height="4.411749e+01"/><rect vector-effect="non-scaling-stroke" x="2.253913e+02" y="0" width="9.275362e+00" height="4.407042e+01"/><rect vector-effect="non-scaling-stroke" x="2.467246e+02" y="0" width="9.275362e+00" height="4.400028e+01"/><rect width="9.275362e+00" height="4.648182e+01" vector-effect="non-scaling-stroke" x="2.680580e+02" y="0"/><rect x="2.893913e+02" y="0" width="9.275362e+00" height="4.408909e+01" vector-effect="non-scaling-stroke"/><rect y="0" width="9.275362e+00" height="4.414194e+01" vector-effect="non-scaling-stroke" x="3.107246e+02"/><rect vector-effect="non-scaling-stroke" x="3.320580e+02" y="0" width="9.275362e+00" height="4.504811e+01"/><rect y="0" width="9.275362e+00" height="4.400089e+01" vector-effect="non-scaling-stroke" x="3.533913e+02"/><rect height="1.752769e+02" vector-effect="non-scaling-stroke" x="3.747246e+02" y="0" width="9.275362e+00"/><rect y="0" width="9.275362e+00" height="4.408508e+01" vector-effect="non-scaling-stroke" x="3.960580e+02"/><rect y="0" width="9.275362e+00" height="4.403330e+01" vector-effect="non-scaling-stroke" x="4.173913e+02"/><rect x="4.387246e+02" y="0" width="9.275362e+00" height="1.041927e+02" vector-effect="non-scaling-stroke"/><rect vector-effect="non-scaling-stroke" x="4.600580e+02" y="0" width="9.275362e+00" height="5.203372e+01"/><rect vector-effect="non-scaling-stroke" x="4.813913e+02" y="0" width="9.275362e+00" height="4.406404e+01"/><rect vector-effect="non-scaling-stroke" x="5.027246e+02" y="0" width="9.275362e+00" height="4.417320e+01"/><rect x="5.240580e+02" y="0" width="9.275362e+00" height="8.930025e+01" vector-effect="non-scaling-stroke"/></g><g fill="hsl(49, 88%, 65%)" stroke="hsl(49, 88%, 65%)" stroke-width="1px" stroke-linecap="round" stroke-linejoin="round" transform="translate(80 520 )scale(1 -1 )"><rect x="64" y="0" width="9.275362e+00" height="4.400131e+01" vector-effect="non-scaling-stroke"/><rect y="0" width="9.275362e+00" height="4.400019e+01" vector-effect="non-scaling-stroke" x="8.533333e+01"/><rect vector-effect="non-scaling-stroke" x="1.066667e+02" y="0" width="9.275362e+00" height="4.400662e+01"/><rect vector-effect="non-scaling-stroke" x="1.280000e+02" y="0" width="9.275362e+00" height="4.400226e+01"/><rect vector-effect="non-scaling-stroke" x="1.493333e+02" y="0" width="9.275362e+00" height="4.400175e+01"/><rect x="1.706667e+02" y="0" width="9.275362e+00" height="4.400335e+01" vector-effect="non-scaling-stroke"/><rect height="4.400391e+01" vector-effect="non-scaling-stroke" x="192" y="0" width="9.275362e+00"/><rect width="9.275362e+00" height="4.411398e+01" vector-effect="non-scaling-stroke" x="2.133333e+02" y="0"/><rect x="2.346667e+02" y="0" width="9.275362e+00" height="4.406807e+01" vector-effect="non-scaling-stroke"/><rect vector-effect="non-scaling-stroke" x="256" y="0" width="9.275362e+00" height="4.400021e+01"/><rect vector-effect="non-scaling-stroke" x="2.773333e+02" y="0" width="9.275362e+00" height="4.492655e+01"/><rect y="0" width="9.275362e+00" height="4.405564e+01" vector-effect="non-scaling-stroke" x="2.986667e+02"/><rect y="0" width="9.275362e+00" height="4.412034e+01" vector-effect="non-scaling-stroke" x="320"/><rect vector-effect="non-scaling-stroke" x="3.413333e+02" y="0" width="9.275362e+00" height="4.515442e+01"/><rect vector-effect="non-scaling-stroke" x="3.626667e+02" y="0" width="9.275362e+00" height="4.400038e+01"/><rect width="9.275362e+00" height="4.405816e+01" vector-effect="non-scaling-stroke" x="4.053333e+02" y="0"/><rect x="4.266667e+02" y="0" width="9.275362e+00" height="4.403908e+01" vector-effect="non-scaling-stroke"/><rect height="3.384146e+03" vector-effect="non-scaling-stroke" x="448" y="0" width="9.275362e+00"/><rect y="0" width="9.275362e+00" height="5.069310e+01" vector-effect="non-scaling-stroke" x="4.693333e+02"/><rect vector-effect="non-scaling-stroke" x="4.906667e+02" y="0" width="9.275362e+00" height="4.407952e+01"/><rect vector-effect="non-scaling-stroke" x="5.120000e+02" y="0" width="9.275362e+00" height="4.411477e+01"/><rect y="0" width="9.275362e+00" height="8.647720e+01" vector-effect="non-scaling-stroke" x="5.333333e+02"/></g><g font-size="12px" font-weight="normal" fill="hsl(198, 47%, 65%)" stroke-width="1px" font-family="sans-serif" stroke-linecap="round" dominant-baseline="hanging" stroke="hsl(198, 47%, 65%)" font-style="normal" text-anchor="start" stroke-linejoin="round"><rect y="484" width="12" height="12" vector-effect="non-scaling-stroke" x="736"/><g fill="black" stroke="black"><text vector-effect="non-scaling-stroke" x="752" y="484" dominant-baseline="hanging" stroke="none">Golang</text></g><g font-size="12px" stroke-linejoin="round" stroke-width="1px" font-style="normal" fill="hsl(49, 88%, 65%)" font-weight="normal" dominant-baseline="hanging" stroke-linecap="round" font-family="sans-serif" text-anchor="start" stroke="hsl(49, 88%, 65%)"><rect y="502" width="12" height="12" vector-effect="non-scaling-stroke" x="736"/><g fill="black" stroke="black"><text y="502" dominant-baseline="hanging" stroke="none" vector-effect="non-scaling-stroke" x="752">Rust</text><g stroke-width="2px" font-family="sans-serif" stroke-linejoin="round" font-weight="normal" font-style="normal" font-size="12px" dominant-baseline="hanging" fill="none" text-anchor="start" stroke-linecap="round"><rect vector-effect="non-scaling-stroke" x="80" y="80" width="640" height="440"/></g><g stroke-linejoin="round" font-weight="normal" transform="translate(80 520 )scale(1 -1 )" stroke="black" text-anchor="start" fill="none" font-size="12px" dominant-baseline="hanging" stroke-linecap="round" stroke-width="2px" font-family="sans-serif" font-style="normal"><path vector-effect="non-scaling-stroke" d="M64,0 L64,-6 M8.533333e+01,0 L8.533333e+01,-6 M1.066667e+02,0 L1.066667e+02,-6 M128,0 L128,-6 M1.493333e+02,0 L1.493333e+02,-6 M1.706667e+02,0 L1.706667e+02,-6 M192,0 L192,-6 M2.133333e+02,0 L2.133333e+02,-6 M2.346667e+02,0 L2.346667e+02,-6 M256,0 L256,-6 M2.773333e+02,0 L2.773333e+02,-6 M2.986667e+02,0 L2.986667e+02,-6 M320,0 L320,-6 M3.413333e+02,0 L3.413333e+02,-6 M3.626667e+02,0 L3.626667e+02,-6 M384,0 L384,-6 M4.053333e+02,0 L4.053333e+02,-6 M4.266667e+02,0 L4.266667e+02,-6 M448,0 L448,-6 M4.693333e+02,0 L4.693333e+02,-6 M4.906667e+02,0 L4.906667e+02,-6 M512,0 L512,-6 M5.333333e+02,0 L5.333333e+02,-6 "/></g><g stroke-linecap="round" font-weight="normal" dominant-baseline="hanging" text-anchor="middle" stroke-width="2px" font-family="sans-serif" font-style="normal" stroke-linejoin="round" font-size="12px" transform="translate(80 520 )scale(1 1 )" fill="black" stroke="black"><text stroke="none" vector-effect="non-scaling-stroke" x="64" y="10" dominant-baseline="hanging">1</text><text stroke="none" vector-effect="non-scaling-stroke" x="8.533333e+01" y="10" dominant-baseline="hanging">2</text><text y="10" dominant-baseline="hanging" stroke="none" vector-effect="non-scaling-stroke" x="1.066667e+02">3</text><text y="10" dominant-baseline="hanging" stroke="none" vector-effect="non-scaling-stroke" x="128">4</text><text stroke="none" vector-effect="non-scaling-stroke" x="1.493333e+02" y="10" dominant-baseline="hanging">5</text><text vector-effect="non-scaling-stroke" x="1.706667e+02" y="10" dominant-baseline="hanging" stroke="none">6</text><text dominant-baseline="hanging" stroke="none" vector-effect="non-scaling-stroke" x="192" y="10">7</text><text y="10" dominant-baseline="hanging" stroke="none" vector-effect="non-scaling-stroke" x="2.133333e+02">8</text><text vector-effect="non-scaling-stroke" x="2.346667e+02" y="10" dominant-baseline="hanging" stroke="none">9</text><text dominant-baseline="hanging" stroke="none" vector-effect="non-scaling-stroke" x="256" y="10">10</text><text dominant-baseline="hanging" stroke="none" vector-effect="non-scaling-stroke" x="2.773333e+02" y="10">11</text><text y="10" dominant-baseline="hanging" stroke="none" vector-effect="non-scaling-stroke" x="2.986667e+02">12</text><text x="320" y="10" dominant-baseline="hanging" stroke="none" vector-effect="non-scaling-stroke">13</text><text y="10" dominant-baseline="hanging" stroke="none" vector-effect="non-scaling-stroke" x="3.413333e+02">14</text><text y="10" dominant-baseline="hanging" stroke="none" vector-effect="non-scaling-stroke" x="3.626667e+02">15</text><text vector-effect="non-scaling-stroke" x="384" y="10" dominant-baseline="hanging" stroke="none">16</text><text dominant-baseline="hanging" stroke="none" vector-effect="non-scaling-stroke" x="4.053333e+02" y="10">17</text><text dominant-baseline="hanging" stroke="none" vector-effect="non-scaling-stroke" x="4.266667e+02" y="10">18</text><text y="10" dominant-baseline="hanging" stroke="none" vector-effect="non-scaling-stroke" x="448">19</text><text x="4.693333e+02" y="10" dominant-baseline="hanging" stroke="none" vector-effect="non-scaling-stroke">20</text><text stroke="none" vector-effect="non-scaling-stroke" x="4.906667e+02" y="10" dominant-baseline="hanging">21</text><text dominant-baseline="hanging" stroke="none" vector-effect="non-scaling-stroke" x="512" y="10">22</text><text y="10" dominant-baseline="hanging" stroke="none" vector-effect="non-scaling-stroke" x="5.333333e+02">23</text></g><g stroke="black" stroke-width="2px" font-style="normal" stroke-linecap="round" dominant-baseline="baseline" transform="translate(80 520 )scale(1 1 )rotate(0 0 0 )" fill="black" font-family="sans-serif" text-anchor="middle" stroke-linejoin="round" font-size="12px" font-weight="bold"><text x="320" y="-6" dominant-baseline="baseline" stroke="none" vector-effect="non-scaling-stroke">Day</text></g><g font-weight="bold" stroke-linecap="round" font-style="normal" text-anchor="middle" fill="black" stroke-width="2px" dominant-baseline="baseline" transform="translate(80 520 )scale(1 -1 )" stroke-linejoin="round" font-size="12px" font-family="sans-serif" stroke="black"><path d="M0,44 L-6,44 M0,7.920000e+01 L-6,7.920000e+01 M0,1.144000e+02 L-6,1.144000e+02 M0,1.496000e+02 L-6,1.496000e+02 M0,1.848000e+02 L-6,1.848000e+02 M0,220 L-6,220 M0,2.552000e+02 L-6,2.552000e+02 M0,2.904000e+02 L-6,2.904000e+02 M0,3.256000e+02 L-6,3.256000e+02 M0,3.608000e+02 L-6,3.608000e+02 M0,396 L-6,396 " vector-effect="non-scaling-stroke"/></g><g fill="black" stroke="black" font-size="12px" stroke-linecap="round" stroke-width="2px" font-family="sans-serif" font-style="normal" text-anchor="end" font-weight="normal" dominant-baseline="middle" transform="translate(80 520 )scale(1 1 )" stroke-linejoin="round"><text stroke="none" vector-effect="non-scaling-stroke" x="-10" y="-44" dominant-baseline="middle">0s</text><text dominant-baseline="middle" stroke="none" vector-effect="non-scaling-stroke" x="-10" y="-7.920000e+01">200ms</text><text stroke="none" vector-effect="non-scaling-stroke" x="-10" y="-1.144000e+02" dominant-baseline="middle">400ms</text><text x="-10" y="-1.496000e+02" dominant-baseline="middle" stroke="none" vector-effect="non-scaling-stroke">600ms</text><text vector-effect="non-scaling-stroke" x="-10" y="-1.848000e+02" dominant-baseline="middle" stroke="none">800ms</text><text x="-10" y="-220" dominant-baseline="middle" stroke="none" vector-effect="non-scaling-stroke">1s</text><text vector-effect="non-scaling-stroke" x="-10" y="-2.552000e+02" dominant-baseline="middle" stroke="none">1.2s</text><text x="-10" y="-2.904000e+02" dominant-baseline="middle" stroke="none" vector-effect="non-scaling-stroke">1.4s</text><text y="-3.256000e+02" dominant-baseline="middle" stroke="none" vector-effect="non-scaling-stroke" x="-10">1.6s</text><text y="-3.608000e+02" dominant-baseline="middle" stroke="none" vector-effect="non-scaling-stroke" x="-10">1.8s</text><text x="-10" y="-396" dominant-baseline="middle" stroke="none" vector-effect="non-scaling-stroke">2s</text></g><g fill="black" stroke="black" font-size="12px" stroke-linejoin="round" font-weight="bold" dominant-baseline="hanging" transform="translate(80 520 )scale(1 1 )rotate(-90 0 0 )" stroke-width="2px" font-family="sans-serif" font-style="normal" stroke-linecap="round" text-anchor="middle"><text stroke="none" vector-effect="non-scaling-stroke" x="220" y="6" dominant-baseline="hanging">Runtime</text></g></g></g></g></svg>