<svg xmlns="http://www.w3.org/2000/svg" width="800" height="600" viewbox="0 0 800 600" preserveAspectRatio="xMidYMid meet"><defs><marker viewBox="0 0 10 10 " refX="5" refY="5" markerUnits="userSpaceOnUse" markerWidth="2%" markerHeight="2%" id="circle"><circle cx="5" cy="5" r="3" fill="none" stroke="black"/></marker><marker id="filled-circle" viewBox="0 0 10 10 " refX="5" refY="5" markerUnits="userSpaceOnUse" markerWidth="2%" markerHeight="2%"><circle cx="5" cy="5" r="3" fill="black" stroke="none"/></marker><marker refY="5" markerUnits="userSpaceOnUse" markerWidth="2%" markerHeight="2%" id="square" viewBox="0 0 10 10 " refX="5"><rect x="2" y="2" width="6" height="6" fill="none" stroke="black"/></marker><marker viewBox="0 0 10 10 " refX="5" refY="5" markerUnits="userSpaceOnUse" markerWidth="2%" markerHeight="2%" id="filled-square"><rect width="6" height="6" fill="black" stroke="none" x="2" y="2"/></marker></defs><g fill="hsl(198, 47%, 65%)" stroke="hsl(198, 47%, 65%)" stroke-width="1px" stroke-linecap="round" stroke-linejoin="round" transform="translate(80 520 )scale(1 -1 )"><rect vector-effect="non-scaling-stroke" x="5.546667e+01" y="0" width="3.413333e+00" height="4.409752e+01"/><rect x="7.680000e+01" y="0" width="3.413333e+00" height="4.402277e+01" vector-effect="non-scaling-stroke"/><rect vector-effect="non-scaling-stroke" x="9.813333e+01" y="0" width="3.413333e+00" height="4.405301e+01"/></g><g stroke-width="1px" stroke-linecap="round" stroke-linejoin="round" transform="translate(80 520 )scale(1 -1 )" fill="hsl(49, 88%, 65%)" stroke="hsl(49, 88%, 65%)"><rect y="0" width="3.413333e+00" height="4.402812e+01" vector-effect="non-scaling-stroke" x="5.888000e+01"/><rect vector-effect="non-scaling-stroke" x="8.021333e+01" y="0" width="3.413333e+00" height="4.400040e+01"/><rect y="0" width="3.413333e+00" height="4.401124e+01" vector-effect="non-scaling-stroke" x="1.015467e+02"/><rect y="0" width="3.413333e+00" height="4.405759e+01" vector-effect="non-scaling-stroke" x="1.228800e+02"/><rect vector-effect="non-scaling-stroke" x="1.442133e+02" y="0" width="3.413333e+00" height="4.500355e+01"/><rect vector-effect="non-scaling-stroke" x="1.655467e+02" y="0" width="3.413333e+00" height="4.400047e+01"/><rect y="0" width="3.413333e+00" height="4.402302e+01" vector-effect="non-scaling-stroke" x="1.868800e+02"/><rect y="0" width="3.413333e+00" height="4.412235e+01" vector-effect="non-scaling-stroke" x="2.082133e+02"/><rect height="4.425353e+01" vector-effect="non-scaling-stroke" x="2.295467e+02" y="0" width="3.413333e+00"/><rect y="0" width="3.413333e+00" height="4.400628e+01" vector-effect="non-scaling-stroke" x="2.508800e+02"/><rect x="2.722133e+02" y="0" width="3.413333e+00" height="4.421929e+01" vector-effect="non-scaling-stroke"/><rect vector-effect="non-scaling-stroke" x="2.935467e+02" y="0" width="3.413333e+00" height="4.484172e+01"/><rect y="0" width="3.413333e+00" height="4.409640e+01" vector-effect="non-scaling-stroke" x="3.148800e+02"/><rect height="4.412710e+01" vector-effect="non-scaling-stroke" x="3.362133e+02" y="0" width="3.413333e+00"/><rect vector-effect="non-scaling-stroke" x="3.575467e+02" y="0" width="3.413333e+00" height="5.878770e+01"/><rect height="4.400461e+01" vector-effect="non-scaling-stroke" x="3.788800e+02" y="0" width="3.413333e+00"/><rect width="3.413333e+00" height="4.460723e+01" vector-effect="non-scaling-stroke" x="4.002133e+02" y="0"/><rect x="4.215467e+02" y="0" width="3.413333e+00" height="5.708247e+01" vector-effect="non-scaling-stroke"/><rect x="4.428800e+02" y="0" width="3.413333e+00" height="2.909528e+02" vector-effect="non-scaling-stroke"/><rect width="3.413333e+00" height="5.127269e+01" vector-effect="non-scaling-stroke" x="4.642133e+02" y="0"/><rect width="3.413333e+00" height="4.521564e+01" vector-effect="non-scaling-stroke" x="4.855467e+02" y="0"/><rect x="5.068800e+02" y="0" width="3.413333e+00" height="4.752064e+01" vector-effect="non-scaling-stroke"/><rect vector-effect="non-scaling-stroke" x="5.282133e+02" y="0" width="3.413333e+00" height="1.832538e+02"/><rect width="3.413333e+00" height="4.400076e+01" vector-effect="non-scaling-stroke" x="5.495467e+02" y="0"/><rect vector-effect="non-scaling-stroke" x="5.708800e+02" y="0" width="3.413333e+00" height="5.947018e+01"/></g><g fill="hsl(260, 76%, 65%)" stroke="hsl(260, 76%, 65%)" stroke-width="1px" stroke-linecap="round" stroke-linejoin="round" transform="translate(80 520 )scale(1 -1 )"><rect y="0" width="3.413333e+00" height="4.455322e+01" vector-effect="non-scaling-stroke" x="6.229333e+01"/><rect vector-effect="non-scaling-stroke" x="8.362667e+01" y="0" width="3.413333e+00" height="4.433527e+01"/><rect width="3.413333e+00" height="4.450994e+01" vector-effect="non-scaling-stroke" x="1.049600e+02" y="0"/></g><g stroke-linejoin="round" transform="translate(80 520 )scale(1 -1 )" fill="hsl(111, 64%, 65%)" stroke="hsl(111, 64%, 65%)" stroke-width="1px" stroke-linecap="round"><rect y="0" width="3.413333e+00" height="4.400638e+01" vector-effect="non-scaling-stroke" x="6.570667e+01"/><rect width="3.413333e+00" height="4.400042e+01" vector-effect="non-scaling-stroke" x="8.704000e+01" y="0"/><rect height="4.400908e+01" vector-effect="non-scaling-stroke" x="1.083733e+02" y="0" width="3.413333e+00"/><rect vector-effect="non-scaling-stroke" x="1.297067e+02" y="0" width="3.413333e+00" height="4.402556e+01"/><rect vector-effect="non-scaling-stroke" x="1.510400e+02" y="0" width="3.413333e+00" height="4.420754e+01"/><rect width="3.413333e+00" height="4.400035e+01" vector-effect="non-scaling-stroke" x="1.723733e+02" y="0"/><rect x="1.937067e+02" y="0" width="3.413333e+00" height="4.401082e+01" vector-effect="non-scaling-stroke"/><rect width="3.413333e+00" height="4.400685e+01" vector-effect="non-scaling-stroke" x="2.150400e+02" y="0"/><rect y="0" width="3.413333e+00" height="4.404913e+01" vector-effect="non-scaling-stroke" x="2.363733e+02"/><rect y="0" width="3.413333e+00" height="4.400683e+01" vector-effect="non-scaling-stroke" x="2.577067e+02"/><rect x="2.790400e+02" y="0" width="3.413333e+00" height="4.403754e+01" vector-effect="non-scaling-stroke"/><rect vector-effect="non-scaling-stroke" x="3.003733e+02" y="0" width="3.413333e+00" height="4.605899e+01"/><rect y="0" width="3.413333e+00" height="4.412846e+01" vector-effect="non-scaling-stroke" x="3.217067e+02"/><rect x="3.430400e+02" y="0" width="3.413333e+00" height="4.400736e+01" vector-effect="non-scaling-stroke"/><rect width="3.413333e+00" height="7.200869e+01" vector-effect="non-scaling-stroke" x="3.643733e+02" y="0"/><rect width="3.413333e+00" height="4.400281e+01" vector-effect="non-scaling-stroke" x="3.857067e+02" y="0"/><rect width="3.413333e+00" height="4.475065e+01" vector-effect="non-scaling-stroke" x="4.070400e+02" y="0"/><rect x="4.283733e+02" y="0" width="3.413333e+00" height="5.478685e+01" vector-effect="non-scaling-stroke"/><rect height="4.897991e+01" vector-effect="non-scaling-stroke" x="4.497067e+02" y="0" width="3.413333e+00"/><rect x="4.710400e+02" y="0" width="3.413333e+00" height="5.323180e+01" vector-effect="non-scaling-stroke"/><rect y="0" width="3.413333e+00" height="4.400052e+01" vector-effect="non-scaling-stroke" x="4.923733e+02"/><rect height="5.002996e+01" vector-effect="non-scaling-stroke" x="5.137067e+02" y="0" width="3.413333e+00"/><rect height="396" vector-effect="non-scaling-stroke" x="5.350400e+02" y="0" width="3.413333e+00"/><rect y="0" width="3.413333e+00" height="4.400379e+01" vector-effect="non-scaling-stroke" x="5.563733e+02"/><rect width="3.413333e+00" height="5.778026e+01" vector-effect="non-scaling-stroke" x="5.777067e+02" y="0"/></g><g fill="hsl(322, 52%, 65%)" stroke="hsl(322, 52%, 65%)" stroke-width="1px" stroke-linecap="round" stroke-linejoin="round" transform="translate(80 520 )scale(1 -1 )"><rect height="4.400574e+01" vector-effect="non-scaling-stroke" x="6.912000e+01" y="0" width="3.413333e+00"/><rect x="9.045333e+01" y="0" width="3.413333e+00" height="4.400034e+01" vector-effect="non-scaling-stroke"/><rect y="0" width="3.413333e+00" height="4.402365e+01" vector-effect="non-scaling-stroke" x="1.117867e+02"/><rect height="4.402495e+01" vector-effect="non-scaling-stroke" x="1.331200e+02" y="0" width="3.413333e+00"/><rect y="0" width="3.413333e+00" height="4.433384e+01" vector-effect="non-scaling-stroke" x="1.544533e+02"/><rect x="1.757867e+02" y="0" width="3.413333e+00" height="4.400041e+01" vector-effect="non-scaling-stroke"/><rect vector-effect="non-scaling-stroke" x="1.971200e+02" y="0" width="3.413333e+00" height="4.401243e+01"/><rect width="3.413333e+00" height="4.449044e+01" vector-effect="non-scaling-stroke" x="2.184533e+02" y="0"/><rect height="4.405561e+01" vector-effect="non-scaling-stroke" x="2.397867e+02" y="0" width="3.413333e+00"/><rect vector-effect="non-scaling-stroke" x="2.611200e+02" y="0" width="3.413333e+00" height="4.401227e+01"/><rect width="3.413333e+00" height="4.403311e+01" vector-effect="non-scaling-stroke" x="2.824533e+02" y="0"/><rect height="4.406974e+01" vector-effect="non-scaling-stroke" x="3.037867e+02" y="0" width="3.413333e+00"/><rect x="3.251200e+02" y="0" width="3.413333e+00" height="4.412176e+01" vector-effect="non-scaling-stroke"/><rect width="3.413333e+00" height="4.403040e+01" vector-effect="non-scaling-stroke" x="3.464533e+02" y="0"/><rect height="4.899144e+01" vector-effect="non-scaling-stroke" x="3.677867e+02" y="0" width="3.413333e+00"/><rect y="0" width="3.413333e+00" height="4.414591e+01" vector-effect="non-scaling-stroke" x="3.891200e+02"/><rect height="4.467952e+01" vector-effect="non-scaling-stroke" x="4.104533e+02" y="0" width="3.413333e+00"/><rect y="0" width="3.413333e+00" height="4.686085e+01" vector-effect="non-scaling-stroke" x="4.317867e+02"/><rect height="4.409542e+01" vector-effect="non-scaling-stroke" x="4.957867e+02" y="0" width="3.413333e+00"/></g><g fill="hsl(198, 47%, 65%)" font-family="sans-serif" font-size="12px" font-weight="normal" stroke="hsl(198, 47%, 65%)" stroke-linecap="round" dominant-baseline="hanging" font-style="normal" text-anchor="start" stroke-width="1px" stroke-linejoin="round"><rect width="12" height="12" vector-effect="non-scaling-stroke" x="736" y="430"/><g fill="black" stroke="black"><text x="752" y="430" dominant-baseline="hanging" stroke="none" vector-effect="non-scaling-stroke">Crystal</text></g><g dominant-baseline="hanging" font-size="12px" font-weight="normal" text-anchor="start" stroke-width="1px" stroke-linecap="round" font-style="normal" stroke="hsl(49, 88%, 65%)" stroke-linejoin="round" fill="hsl(49, 88%, 65%)" font-family="sans-serif"><rect x="736" y="448" width="12" height="12" vector-effect="non-scaling-stroke"/><g fill="black" stroke="black"><text dominant-baseline="hanging" stroke="none" vector-effect="non-scaling-stroke" x="752" y="448">Golang</text></g><g fill="hsl(260, 76%, 65%)" font-family="sans-serif" stroke-linecap="round" font-weight="normal" text-anchor="start" stroke-width="1px" dominant-baseline="hanging" font-style="normal" stroke-linejoin="round" stroke="hsl(260, 76%, 65%)" font-size="12px"><rect x="736" y="466" width="12" height="12" vector-effect="non-scaling-stroke"/><g stroke="black" fill="black"><text stroke="none" vector-effect="non-scaling-stroke" x="752" y="466" dominant-baseline="hanging">Haskell</text></g><g dominant-baseline="hanging" font-family="sans-serif" font-weight="normal" stroke-linecap="round" stroke-width="1px" stroke-linejoin="round" fill="hsl(111, 64%, 65%)" font-size="12px" font-style="normal" text-anchor="start" stroke="hsl(111, 64%, 65%)"><rect width="12" height="12" vector-effect="non-scaling-stroke" x="736" y="484"/><g fill="black" stroke="black"><text y="484" dominant-baseline="hanging" stroke="none" vector-effect="non-scaling-stroke" x="752">Rust</text></g><g dominant-baseline="hanging" font-family="sans-serif" stroke-linecap="round" font-weight="normal" text-anchor="start" font-style="normal" fill="hsl(322, 52%, 65%)" stroke-linejoin="round" stroke="hsl(322, 52%, 65%)" stroke-width="1px" font-size="12px"><rect height="12" vector-effect="non-scaling-stroke" x="736" y="502" width="12"/><g fill="black" stroke="black"><text dominant-baseline="hanging" stroke="none" vector-effect="non-scaling-stroke" x="752" y="502">Zig</text><g font-family="sans-serif" font-size="12px" font-style="normal" dominant-baseline="hanging" fill="none" stroke-linejoin="round" font-weight="normal" text-anchor="start" stroke-width="2px" stroke-linecap="round"><rect x="80" y="80" width="640" height="440" vector-effect="non-scaling-stroke"/></g><g stroke="black" stroke-linecap="round" stroke-linejoin="round" font-family="sans-serif" font-size="12px" font-style="normal" dominant-baseline="hanging" font-weight="normal" transform="translate(80 520 )scale(1 -1 )" fill="none" text-anchor="start" stroke-width="2px"><path d="M64,0 L64,-6 M8.533333e+01,0 L8.533333e+01,-6 M1.066667e+02,0 L1.066667e+02,-6 " vector-effect="non-scaling-stroke"/></g><g font-style="normal" dominant-baseline="hanging" transform="translate(80 520 )scale(1 1 )" font-family="sans-serif" stroke-linecap="round" stroke-linejoin="round" stroke="black" stroke-width="2px" font-size="12px" fill="black" font-weight="normal" text-anchor="middle"><text stroke="none" vector-effect="non-scaling-stroke" x="64" y="10" dominant-baseline="hanging">1</text><text y="10" dominant-baseline="hanging" stroke="none" vector-effect="non-scaling-stroke" x="8.533333e+01">2</text><text stroke="none" vector-effect="non-scaling-stroke" x="1.066667e+02" y="10" dominant-baseline="hanging">3</text></g><g fill="black" font-size="12px" dominant-baseline="baseline" transform="translate(80 520 )scale(1 1 )rotate(0 0 0 )" stroke="black" stroke-width="2px" stroke-linejoin="round" font-weight="bold" stroke-linecap="round" text-anchor="middle" font-family="sans-serif" font-style="normal"><text stroke="none" vector-effect="non-scaling-stroke" x="320" y="-6" dominant-baseline="baseline">Day</text></g><g font-size="12px" font-style="normal" stroke="black" stroke-linecap="round" transform="translate(80 520 )scale(1 -1 )" font-family="sans-serif" text-anchor="middle" stroke-width="2px" stroke-linejoin="round" font-weight="bold" fill="black" dominant-baseline="baseline"><path vector-effect="non-scaling-stroke" d="M0,44 L-6,44 M0,9.104234e+01 L-6,9.104234e+01 M0,1.380847e+02 L-6,1.380847e+02 M0,1.851270e+02 L-6,1.851270e+02 M0,2.321693e+02 L-6,2.321693e+02 M0,2.792117e+02 L-6,2.792117e+02 M0,3.262540e+02 L-6,3.262540e+02 M0,3.732964e+02 L-6,3.732964e+02 "/></g><g text-anchor="end" fill="black" font-family="sans-serif" font-size="12px" stroke="black" stroke-linecap="round" stroke-linejoin="round" font-style="normal" dominant-baseline="middle" transform="translate(80 520 )scale(1 1 )" stroke-width="2px" font-weight="normal"><text stroke="none" vector-effect="non-scaling-stroke" x="-10" y="-44" dominant-baseline="middle">0s</text><text stroke="none" vector-effect="non-scaling-stroke" x="-10" y="-9.104234e+01" dominant-baseline="middle">100ms</text><text stroke="none" vector-effect="non-scaling-stroke" x="-10" y="-1.380847e+02" dominant-baseline="middle">200ms</text><text stroke="none" vector-effect="non-scaling-stroke" x="-10" y="-1.851270e+02" dominant-baseline="middle">300ms</text><text stroke="none" vector-effect="non-scaling-stroke" x="-10" y="-2.321693e+02" dominant-baseline="middle">400ms</text><text y="-2.792117e+02" dominant-baseline="middle" stroke="none" vector-effect="non-scaling-stroke" x="-10">500ms</text><text dominant-baseline="middle" stroke="none" vector-effect="non-scaling-stroke" x="-10" y="-3.262540e+02">600ms</text><text x="-10" y="-3.732964e+02" dominant-baseline="middle" stroke="none" vector-effect="non-scaling-stroke">700ms</text></g><g stroke-linecap="round" dominant-baseline="hanging" transform="translate(80 520 )scale(1 1 )rotate(-90 0 0 )" font-style="normal" stroke="black" text-anchor="middle" stroke-width="2px" stroke-linejoin="round" fill="black" font-family="sans-serif" font-size="12px" font-weight="bold"><text vector-effect="non-scaling-stroke" x="220" y="6" dominant-baseline="hanging" stroke="none">Runtime</text></g></g></g></g></g></g></g></svg>