<svg height="600" viewbox="0 0 800 600" preserveAspectRatio="xMidYMid meet" xmlns="http://www.w3.org/2000/svg" width="800"><defs><marker markerUnits="userSpaceOnUse" markerWidth="2%" markerHeight="2%" id="circle" viewBox="0 0 10 10 " refX="5" refY="5"><circle cy="5" r="3" fill="none" stroke="black" cx="5"/></marker><marker markerWidth="2%" markerHeight="2%" id="filled-circle" viewBox="0 0 10 10 " refX="5" refY="5" markerUnits="userSpaceOnUse"><circle cx="5" cy="5" r="3" fill="black" stroke="none"/></marker><marker viewBox="0 0 10 10 " refX="5" refY="5" markerUnits="userSpaceOnUse" markerWidth="2%" markerHeight="2%" id="square"><rect stroke="black" x="2" y="2" width="6" height="6" fill="none"/></marker><marker viewBox="0 0 10 10 " refX="5" refY="5" markerUnits="userSpaceOnUse" markerWidth="2%" markerHeight="2%" id="filled-square"><rect y="2" width="6" height="6" fill="black" stroke="none" x="2"/></marker></defs><g fill="hsl(198, 47%, 65%)" stroke="hsl(198, 47%, 65%)" stroke-width="1px" stroke-linecap="round" stroke-linejoin="round" transform="translate(80 520 )scale(1 -1 )"><rect width="5.688889e+00" height="4.401417e+01" vector-effect="non-scaling-stroke" x="5.546667e+01" y="0"/><rect vector-effect="non-scaling-stroke" x="7.680000e+01" y="0" width="5.688889e+00" height="4.400299e+01"/><rect y="0" width="5.688889e+00" height="4.403740e+01" vector-effect="non-scaling-stroke" x="9.813333e+01"/><rect height="4.401402e+01" vector-effect="non-scaling-stroke" x="1.194667e+02" y="0" width="5.688889e+00"/><rect y="0" width="5.688889e+00" height="4.400753e+01" vector-effect="non-scaling-stroke" x="1.408000e+02"/><rect y="0" width="5.688889e+00" height="4.400748e+01" vector-effect="non-scaling-stroke" x="1.621333e+02"/><rect vector-effect="non-scaling-stroke" x="1.834667e+02" y="0" width="5.688889e+00" height="4.402246e+01"/><rect vector-effect="non-scaling-stroke" x="2.048000e+02" y="0" width="5.688889e+00" height="4.461350e+01"/><rect y="0" width="5.688889e+00" height="4.436901e+01" vector-effect="non-scaling-stroke" x="2.261333e+02"/><rect vector-effect="non-scaling-stroke" x="2.474667e+02" y="0" width="5.688889e+00" height="4.400128e+01"/><rect height="4.983108e+01" vector-effect="non-scaling-stroke" x="2.688000e+02" y="0" width="5.688889e+00"/><rect height="4.432804e+01" vector-effect="non-scaling-stroke" x="2.901333e+02" y="0" width="5.688889e+00"/><rect vector-effect="non-scaling-stroke" x="3.114667e+02" y="0" width="5.688889e+00" height="4.520710e+01"/><rect width="5.688889e+00" height="4.891233e+01" vector-effect="non-scaling-stroke" x="3.328000e+02" y="0"/><rect height="4.400301e+01" vector-effect="non-scaling-stroke" x="3.541333e+02" y="0" width="5.688889e+00"/><rect width="5.688889e+00" height="2.660819e+02" vector-effect="non-scaling-stroke" x="3.754667e+02" y="0"/><rect height="4.473988e+01" vector-effect="non-scaling-stroke" x="3.968000e+02" y="0" width="5.688889e+00"/><rect x="4.181333e+02" y="0" width="5.688889e+00" height="4.414926e+01" vector-effect="non-scaling-stroke"/><rect width="5.688889e+00" height="2.496986e+02" vector-effect="non-scaling-stroke" x="4.394667e+02" y="0"/><rect x="4.608000e+02" y="0" width="5.688889e+00" height="1.031771e+02" vector-effect="non-scaling-stroke"/><rect y="0" width="5.688889e+00" height="4.444838e+01" vector-effect="non-scaling-stroke" x="4.821333e+02"/><rect vector-effect="non-scaling-stroke" x="5.034667e+02" y="0" width="5.688889e+00" height="4.443458e+01"/><rect vector-effect="non-scaling-stroke" x="5.248000e+02" y="0" width="5.688889e+00" height="1.403197e+02"/><rect x="5.461333e+02" y="0" width="5.688889e+00" height="1.685238e+02" vector-effect="non-scaling-stroke"/><rect width="5.688889e+00" height="4.400262e+01" vector-effect="non-scaling-stroke" x="5.674667e+02" y="0"/></g><g stroke-width="1px" stroke-linecap="round" stroke-linejoin="round" transform="translate(80 520 )scale(1 -1 )" fill="hsl(49, 88%, 65%)" stroke="hsl(49, 88%, 65%)"><rect y="0" width="5.688889e+00" height="4.401155e+01" vector-effect="non-scaling-stroke" x="6.115556e+01"/><rect height="4.400100e+01" vector-effect="non-scaling-stroke" x="8.248889e+01" y="0" width="5.688889e+00"/><rect x="1.038222e+02" y="0" width="5.688889e+00" height="4.403062e+01" vector-effect="non-scaling-stroke"/><rect vector-effect="non-scaling-stroke" x="1.251556e+02" y="0" width="5.688889e+00" height="4.400932e+01"/><rect vector-effect="non-scaling-stroke" x="1.464889e+02" y="0" width="5.688889e+00" height="4.400566e+01"/><rect height="4.400866e+01" vector-effect="non-scaling-stroke" x="1.678222e+02" y="0" width="5.688889e+00"/><rect vector-effect="non-scaling-stroke" x="1.891556e+02" y="0" width="5.688889e+00" height="4.401343e+01"/><rect width="5.688889e+00" height="4.446280e+01" vector-effect="non-scaling-stroke" x="2.104889e+02" y="0"/><rect y="0" width="5.688889e+00" height="4.430452e+01" vector-effect="non-scaling-stroke" x="2.318222e+02"/><rect width="5.688889e+00" height="4.400088e+01" vector-effect="non-scaling-stroke" x="2.531556e+02" y="0"/><rect x="2.744889e+02" y="0" width="5.688889e+00" height="4.729405e+01" vector-effect="non-scaling-stroke"/><rect y="0" width="5.688889e+00" height="4.419858e+01" vector-effect="non-scaling-stroke" x="2.958222e+02"/><rect vector-effect="non-scaling-stroke" x="3.171556e+02" y="0" width="5.688889e+00" height="4.441714e+01"/><rect height="4.933667e+01" vector-effect="non-scaling-stroke" x="3.384889e+02" y="0" width="5.688889e+00"/><rect height="4.400171e+01" vector-effect="non-scaling-stroke" x="3.598222e+02" y="0" width="5.688889e+00"/><rect height="3.119722e+02" vector-effect="non-scaling-stroke" x="3.811556e+02" y="0" width="5.688889e+00"/><rect vector-effect="non-scaling-stroke" x="4.024889e+02" y="0" width="5.688889e+00" height="4.425927e+01"/><rect width="5.688889e+00" height="4.413494e+01" vector-effect="non-scaling-stroke" x="4.238222e+02" y="0"/><rect height="8.688179e+01" vector-effect="non-scaling-stroke" x="4.451556e+02" y="0" width="5.688889e+00"/><rect x="4.664889e+02" y="0" width="5.688889e+00" height="8.236382e+01" vector-effect="non-scaling-stroke"/><rect y="0" width="5.688889e+00" height="4.431995e+01" vector-effect="non-scaling-stroke" x="4.878222e+02"/><rect x="5.091556e+02" y="0" width="5.688889e+00" height="4.450921e+01" vector-effect="non-scaling-stroke"/><rect y="0" width="5.688889e+00" height="1.166288e+02" vector-effect="non-scaling-stroke" x="5.304889e+02"/><rect x="5.518222e+02" y="0" width="5.688889e+00" height="1.618969e+02" vector-effect="non-scaling-stroke"/><rect vector-effect="non-scaling-stroke" x="5.731556e+02" y="0" width="5.688889e+00" height="4.400196e+01"/></g><g stroke="hsl(260, 76%, 65%)" stroke-width="1px" stroke-linecap="round" stroke-linejoin="round" transform="translate(80 520 )scale(1 -1 )" fill="hsl(260, 76%, 65%)"><rect height="4.400859e+01" vector-effect="non-scaling-stroke" x="6.684444e+01" y="0" width="5.688889e+00"/><rect width="5.688889e+00" height="4.400165e+01" vector-effect="non-scaling-stroke" x="8.817778e+01" y="0"/><rect width="5.688889e+00" height="4.401318e+01" vector-effect="non-scaling-stroke" x="1.095111e+02" y="0"/><rect vector-effect="non-scaling-stroke" x="1.308444e+02" y="0" width="5.688889e+00" height="4.400946e+01"/><rect width="5.688889e+00" height="4.400496e+01" vector-effect="non-scaling-stroke" x="1.521778e+02" y="0"/><rect x="1.735111e+02" y="0" width="5.688889e+00" height="4.400717e+01" vector-effect="non-scaling-stroke"/><rect x="1.948444e+02" y="0" width="5.688889e+00" height="4.401228e+01" vector-effect="non-scaling-stroke"/><rect vector-effect="non-scaling-stroke" x="2.161778e+02" y="0" width="5.688889e+00" height="4.442547e+01"/><rect width="5.688889e+00" height="4.434931e+01" vector-effect="non-scaling-stroke" x="2.375111e+02" y="0"/><rect width="5.688889e+00" height="4.400097e+01" vector-effect="non-scaling-stroke" x="2.588444e+02" y="0"/><rect height="4.811478e+01" vector-effect="non-scaling-stroke" x="2.801778e+02" y="0" width="5.688889e+00"/><rect height="4.410265e+01" vector-effect="non-scaling-stroke" x="3.015111e+02" y="0" width="5.688889e+00"/><rect x="3.228444e+02" y="0" width="5.688889e+00" height="4.400797e+01" vector-effect="non-scaling-stroke"/><rect vector-effect="non-scaling-stroke" x="3.441778e+02" y="0" width="5.688889e+00" height="4.821536e+01"/><rect height="4.400145e+01" vector-effect="non-scaling-stroke" x="3.655111e+02" y="0" width="5.688889e+00"/><rect width="5.688889e+00" height="396" vector-effect="non-scaling-stroke" x="3.868444e+02" y="0"/><rect x="4.081778e+02" y="0" width="5.688889e+00" height="4.426752e+01" vector-effect="non-scaling-stroke"/><rect y="0" width="5.688889e+00" height="4.413317e+01" vector-effect="non-scaling-stroke" x="4.295111e+02"/><rect width="5.688889e+00" height="6.335628e+01" vector-effect="non-scaling-stroke" x="4.508444e+02" y="0"/><rect x="4.721778e+02" y="0" width="5.688889e+00" height="1.074159e+02" vector-effect="non-scaling-stroke"/><rect vector-effect="non-scaling-stroke" x="4.935111e+02" y="0" width="5.688889e+00" height="4.411922e+01"/><rect vector-effect="non-scaling-stroke" x="5.148444e+02" y="0" width="5.688889e+00" height="4.543482e+01"/><rect height="1.496616e+02" vector-effect="non-scaling-stroke" x="5.361778e+02" y="0" width="5.688889e+00"/><rect height="1.656855e+02" vector-effect="non-scaling-stroke" x="5.575111e+02" y="0" width="5.688889e+00"/><rect width="5.688889e+00" height="4.400187e+01" vector-effect="non-scaling-stroke" x="5.788444e+02" y="0"/></g><g dominant-baseline="hanging" stroke-width="1px" stroke-linejoin="round" font-size="12px" fill="hsl(198, 47%, 65%)" stroke-linecap="round" font-family="sans-serif" text-anchor="start" stroke="hsl(198, 47%, 65%)" font-style="normal" font-weight="normal"><rect y="466" width="12" height="12" vector-effect="non-scaling-stroke" x="736"/><g stroke="black" fill="black"><text stroke="none" vector-effect="non-scaling-stroke" x="752" y="466" dominant-baseline="hanging">Golang</text></g><g text-anchor="start" dominant-baseline="hanging" font-style="normal" stroke="hsl(49, 88%, 65%)" stroke-width="1px" stroke-linejoin="round" font-size="12px" font-weight="normal" fill="hsl(49, 88%, 65%)" stroke-linecap="round" font-family="sans-serif"><rect height="12" vector-effect="non-scaling-stroke" x="736" y="484" width="12"/><g fill="black" stroke="black"><text x="752" y="484" dominant-baseline="hanging" stroke="none" vector-effect="non-scaling-stroke">Rust</text></g><g fill="hsl(260, 76%, 65%)" stroke="hsl(260, 76%, 65%)" stroke-width="1px" stroke-linejoin="round" font-style="normal" stroke-linecap="round" font-family="sans-serif" text-anchor="start" dominant-baseline="hanging" font-size="12px" font-weight="normal"><rect vector-effect="non-scaling-stroke" x="736" y="502" width="12" height="12"/><g fill="black" stroke="black"><text x="752" y="502" dominant-baseline="hanging" stroke="none" vector-effect="non-scaling-stroke">Zig</text><g font-weight="normal" fill="none" stroke-linecap="round" stroke-width="2px" font-size="12px" font-style="normal" font-family="sans-serif" dominant-baseline="hanging" stroke-linejoin="round" text-anchor="start"><rect y="80" width="640" height="440" vector-effect="non-scaling-stroke" x="80"/></g><g dominant-baseline="hanging" stroke-width="2px" font-weight="normal" transform="translate(80 520 )scale(1 -1 )" fill="none" text-anchor="start" stroke="black" stroke-linejoin="round" font-size="12px" font-style="normal" stroke-linecap="round" font-family="sans-serif"><path vector-effect="non-scaling-stroke" d="M64,0 L64,-6 M8.533333e+01,0 L8.533333e+01,-6 M1.066667e+02,0 L1.066667e+02,-6 M128,0 L128,-6 M1.493333e+02,0 L1.493333e+02,-6 M1.706667e+02,0 L1.706667e+02,-6 M192,0 L192,-6 M2.133333e+02,0 L2.133333e+02,-6 M2.346667e+02,0 L2.346667e+02,-6 M256,0 L256,-6 M2.773333e+02,0 L2.773333e+02,-6 M2.986667e+02,0 L2.986667e+02,-6 M320,0 L320,-6 M3.413333e+02,0 L3.413333e+02,-6 M3.626667e+02,0 L3.626667e+02,-6 M384,0 L384,-6 M4.053333e+02,0 L4.053333e+02,-6 M4.266667e+02,0 L4.266667e+02,-6 M448,0 L448,-6 M4.693333e+02,0 L4.693333e+02,-6 M4.906667e+02,0 L4.906667e+02,-6 M512,0 L512,-6 M5.333333e+02,0 L5.333333e+02,-6 M5.546667e+02,0 L5.546667e+02,-6 M576,0 L576,-6 "/></g><g font-size="12px" font-style="normal" font-weight="normal" transform="translate(80 520 )scale(1 1 )" fill="black" stroke-linecap="round" text-anchor="middle" stroke-width="2px" font-family="sans-serif" dominant-baseline="hanging" stroke="black" stroke-linejoin="round"><text y="10" dominant-baseline="hanging" stroke="none" vector-effect="non-scaling-stroke" x="64">1</text><text stroke="none" vector-effect="non-scaling-stroke" x="8.533333e+01" y="10" dominant-baseline="hanging">2</text><text y="10" dominant-baseline="hanging" stroke="none" vector-effect="non-scaling-stroke" x="1.066667e+02">3</text><text vector-effect="non-scaling-stroke" x="128" y="10" dominant-baseline="hanging" stroke="none">4</text><text stroke="none" vector-effect="non-scaling-stroke" x="1.493333e+02" y="10" dominant-baseline="hanging">5</text><text stroke="none" vector-effect="non-scaling-stroke" x="1.706667e+02" y="10" dominant-baseline="hanging">6</text><text stroke="none" vector-effect="non-scaling-stroke" x="192" y="10" dominant-baseline="hanging">7</text><text vector-effect="non-scaling-stroke" x="2.133333e+02" y="10" dominant-baseline="hanging" stroke="none">8</text><text y="10" dominant-baseline="hanging" stroke="none" vector-effect="non-scaling-stroke" x="2.346667e+02">9</text><text stroke="none" vector-effect="non-scaling-stroke" x="256" y="10" dominant-baseline="hanging">10</text><text y="10" dominant-baseline="hanging" stroke="none" vector-effect="non-scaling-stroke" x="2.773333e+02">11</text><text vector-effect="non-scaling-stroke" x="2.986667e+02" y="10" dominant-baseline="hanging" stroke="none">12</text><text stroke="none" vector-effect="non-scaling-stroke" x="320" y="10" dominant-baseline="hanging">13</text><text vector-effect="non-scaling-stroke" x="3.413333e+02" y="10" dominant-baseline="hanging" stroke="none">14</text><text stroke="none" vector-effect="non-scaling-stroke" x="3.626667e+02" y="10" dominant-baseline="hanging">15</text><text vector-effect="non-scaling-stroke" x="384" y="10" dominant-baseline="hanging" stroke="none">16</text><text y="10" dominant-baseline="hanging" stroke="none" vector-effect="non-scaling-stroke" x="4.053333e+02">17</text><text y="10" dominant-baseline="hanging" stroke="none" vector-effect="non-scaling-stroke" x="4.266667e+02">18</text><text vector-effect="non-scaling-stroke" x="448" y="10" dominant-baseline="hanging" stroke="none">19</text><text dominant-baseline="hanging" stroke="none" vector-effect="non-scaling-stroke" x="4.693333e+02" y="10">20</text><text stroke="none" vector-effect="non-scaling-stroke" x="4.906667e+02" y="10" dominant-baseline="hanging">21</text><text vector-effect="non-scaling-stroke" x="512" y="10" dominant-baseline="hanging" stroke="none">22</text><text vector-effect="non-scaling-stroke" x="5.333333e+02" y="10" dominant-baseline="hanging" stroke="none">23</text><text stroke="none" vector-effect="non-scaling-stroke" x="5.546667e+02" y="10" dominant-baseline="hanging">24</text><text y="10" dominant-baseline="hanging" stroke="none" vector-effect="non-scaling-stroke" x="576">25</text></g><g font-family="sans-serif" dominant-baseline="baseline" font-style="normal" font-weight="bold" text-anchor="middle" stroke="black" stroke-width="2px" stroke-linejoin="round" font-size="12px" transform="translate(80 520 )scale(1 1 )rotate(0 0 0 )" fill="black" stroke-linecap="round"><text dominant-baseline="baseline" stroke="none" vector-effect="non-scaling-stroke" x="320" y="-6">Day</text></g><g stroke-linecap="round" font-family="sans-serif" text-anchor="middle" stroke-linejoin="round" font-size="12px" dominant-baseline="baseline" stroke="black" stroke-width="2px" font-style="normal" font-weight="bold" transform="translate(80 520 )scale(1 -1 )" fill="black"><path vector-effect="non-scaling-stroke" d="M0,44 L-6,44 M0,2.020971e+02 L-6,2.020971e+02 M0,3.601942e+02 L-6,3.601942e+02 "/></g><g stroke-linecap="round" dominant-baseline="middle" stroke="black" stroke-width="2px" font-size="12px" font-weight="normal" transform="translate(80 520 )scale(1 1 )" fill="black" font-family="sans-serif" text-anchor="end" stroke-linejoin="round" font-style="normal"><text stroke="none" vector-effect="non-scaling-stroke" x="-10" y="-44" dominant-baseline="middle">0s</text><text x="-10" y="-2.020971e+02" dominant-baseline="middle" stroke="none" vector-effect="non-scaling-stroke">100ms</text><text stroke="none" vector-effect="non-scaling-stroke" x="-10" y="-3.601942e+02" dominant-baseline="middle">200ms</text></g><g font-family="sans-serif" stroke="black" font-style="normal" font-weight="bold" transform="translate(80 520 )scale(1 1 )rotate(-90 0 0 )" fill="black" stroke-linecap="round" text-anchor="middle" dominant-baseline="hanging" stroke-width="2px" stroke-linejoin="round" font-size="12px"><text stroke="none" vector-effect="non-scaling-stroke" x="220" y="6" dominant-baseline="hanging">Runtime</text></g></g></g></g></g></svg>