<svg xmlns="http://www.w3.org/2000/svg" width="800" height="600" viewbox="0 0 800 600" preserveAspectRatio="xMidYMid meet"><defs><marker id="circle" viewBox="0 0 10 10 " refX="5" refY="5" markerUnits="userSpaceOnUse" markerWidth="2%" markerHeight="2%"><circle stroke="black" cx="5" cy="5" r="3" fill="none"/></marker><marker refX="5" refY="5" markerUnits="userSpaceOnUse" markerWidth="2%" markerHeight="2%" id="filled-circle" viewBox="0 0 10 10 "><circle cy="5" r="3" fill="black" stroke="none" cx="5"/></marker><marker viewBox="0 0 10 10 " refX="5" refY="5" markerUnits="userSpaceOnUse" markerWidth="2%" markerHeight="2%" id="square"><rect fill="none" stroke="black" x="2" y="2" width="6" height="6"/></marker><marker markerWidth="2%" markerHeight="2%" id="filled-square" viewBox="0 0 10 10 " refX="5" refY="5" markerUnits="userSpaceOnUse"><rect y="2" width="6" height="6" fill="black" stroke="none" x="2"/></marker></defs><g stroke-linecap="round" stroke-linejoin="round" transform="translate(80 520 )scale(1 -1 )" fill="hsl(198, 47%, 65%)" stroke="hsl(198, 47%, 65%)" stroke-width="1px"><rect height="4.441257e+01" vector-effect="non-scaling-stroke" x="4.876190e+01" y="0" width="1.523810e+01"/><rect x="7.009524e+01" y="0" width="1.523810e+01" height="4.411410e+01" vector-effect="non-scaling-stroke"/><rect vector-effect="non-scaling-stroke" x="9.142857e+01" y="0" width="1.523810e+01" height="4.525135e+01"/><rect vector-effect="non-scaling-stroke" x="1.127619e+02" y="0" width="1.523810e+01" height="4.450511e+01"/><rect x="1.340952e+02" y="0" width="1.523810e+01" height="4.430672e+01" vector-effect="non-scaling-stroke"/><rect height="4.480381e+01" vector-effect="non-scaling-stroke" x="1.554286e+02" y="0" width="1.523810e+01"/><rect vector-effect="non-scaling-stroke" x="1.767619e+02" y="0" width="1.523810e+01" height="4.462087e+01"/><rect y="0" width="1.523810e+01" height="6.077772e+01" vector-effect="non-scaling-stroke" x="1.980952e+02"/><rect y="0" width="1.523810e+01" height="5.379807e+01" vector-effect="non-scaling-stroke" x="2.194286e+02"/><rect width="1.523810e+01" height="4.404087e+01" vector-effect="non-scaling-stroke" x="2.407619e+02" y="0"/><rect vector-effect="non-scaling-stroke" x="2.620952e+02" y="0" width="1.523810e+01" height="396"/><rect vector-effect="non-scaling-stroke" x="2.834286e+02" y="0" width="1.523810e+01" height="5.837093e+01"/><rect x="3.047619e+02" y="0" width="1.523810e+01" height="6.395524e+01" vector-effect="non-scaling-stroke"/><rect y="0" width="1.523810e+01" height="1.924009e+02" vector-effect="non-scaling-stroke" x="3.260952e+02"/></g><g transform="translate(80 520 )scale(1 -1 )" fill="hsl(49, 88%, 65%)" stroke="hsl(49, 88%, 65%)" stroke-width="1px" stroke-linecap="round" stroke-linejoin="round"><rect width="1.523810e+01" height="4.418676e+01" vector-effect="non-scaling-stroke" x="64" y="0"/><rect vector-effect="non-scaling-stroke" x="8.533333e+01" y="0" width="1.523810e+01" height="4.402739e+01"/><rect width="1.523810e+01" height="4.494503e+01" vector-effect="non-scaling-stroke" x="1.066667e+02" y="0"/><rect x="128" y="0" width="1.523810e+01" height="4.432235e+01" vector-effect="non-scaling-stroke"/><rect height="4.424934e+01" vector-effect="non-scaling-stroke" x="1.493333e+02" y="0" width="1.523810e+01"/><rect vector-effect="non-scaling-stroke" x="1.706667e+02" y="0" width="1.523810e+01" height="4.447789e+01"/><rect y="0" width="1.523810e+01" height="4.455890e+01" vector-effect="non-scaling-stroke" x="192"/><rect height="6.027557e+01" vector-effect="non-scaling-stroke" x="2.133333e+02" y="0" width="1.523810e+01"/><rect width="1.523810e+01" height="5.372041e+01" vector-effect="non-scaling-stroke" x="2.346667e+02" y="0"/><rect height="4.402996e+01" vector-effect="non-scaling-stroke" x="2.560000e+02" y="0" width="1.523810e+01"/><rect height="1.763100e+02" vector-effect="non-scaling-stroke" x="2.773333e+02" y="0" width="1.523810e+01"/><rect width="1.523810e+01" height="5.355796e+01" vector-effect="non-scaling-stroke" x="2.986667e+02" y="0"/><rect height="6.118486e+01" vector-effect="non-scaling-stroke" x="320" y="0" width="1.523810e+01"/></g><g font-style="normal" stroke="hsl(198, 47%, 65%)" text-anchor="start" stroke-linejoin="round" font-weight="normal" dominant-baseline="hanging" fill="hsl(198, 47%, 65%)" stroke-width="1px" font-family="sans-serif" font-size="12px" stroke-linecap="round"><rect y="484" width="12" height="12" vector-effect="non-scaling-stroke" x="736"/><g stroke="black" fill="black"><text y="484" dominant-baseline="hanging" stroke="none" vector-effect="non-scaling-stroke" x="752">Golang</text></g><g stroke-linecap="round" font-size="12px" font-style="normal" dominant-baseline="hanging" fill="hsl(49, 88%, 65%)" stroke-linejoin="round" text-anchor="start" stroke="hsl(49, 88%, 65%)" font-family="sans-serif" font-weight="normal" stroke-width="1px"><rect height="12" vector-effect="non-scaling-stroke" x="736" y="502" width="12"/><g fill="black" stroke="black"><text stroke="none" vector-effect="non-scaling-stroke" x="752" y="502" dominant-baseline="hanging">Rust</text><g font-size="12px" stroke-linecap="round" dominant-baseline="hanging" font-style="normal" text-anchor="start" font-family="sans-serif" stroke-width="2px" font-weight="normal" stroke-linejoin="round" fill="none"><rect x="80" y="80" width="640" height="440" vector-effect="non-scaling-stroke"/></g><g font-family="sans-serif" font-size="12px" font-style="normal" font-weight="normal" stroke-linecap="round" stroke-linejoin="round" fill="none" stroke-width="2px" stroke="black" text-anchor="start" dominant-baseline="hanging" transform="translate(80 520 )scale(1 -1 )"><path vector-effect="non-scaling-stroke" d="M64,0 L64,-6 M8.533333e+01,0 L8.533333e+01,-6 M1.066667e+02,0 L1.066667e+02,-6 M128,0 L128,-6 M1.493333e+02,0 L1.493333e+02,-6 M1.706667e+02,0 L1.706667e+02,-6 M192,0 L192,-6 M2.133333e+02,0 L2.133333e+02,-6 M2.346667e+02,0 L2.346667e+02,-6 M256,0 L256,-6 M2.773333e+02,0 L2.773333e+02,-6 M2.986667e+02,0 L2.986667e+02,-6 M320,0 L320,-6 M3.413333e+02,0 L3.413333e+02,-6 "/></g><g font-style="normal" dominant-baseline="hanging" transform="translate(80 520 )scale(1 1 )" fill="black" stroke-width="2px" text-anchor="middle" stroke-linecap="round" font-family="sans-serif" font-size="12px" font-weight="normal" stroke-linejoin="round" stroke="black"><text x="64" y="10" dominant-baseline="hanging" stroke="none" vector-effect="non-scaling-stroke">1</text><text y="10" dominant-baseline="hanging" stroke="none" vector-effect="non-scaling-stroke" x="8.533333e+01">2</text><text vector-effect="non-scaling-stroke" x="1.066667e+02" y="10" dominant-baseline="hanging" stroke="none">3</text><text y="10" dominant-baseline="hanging" stroke="none" vector-effect="non-scaling-stroke" x="128">4</text><text x="1.493333e+02" y="10" dominant-baseline="hanging" stroke="none" vector-effect="non-scaling-stroke">5</text><text vector-effect="non-scaling-stroke" x="1.706667e+02" y="10" dominant-baseline="hanging" stroke="none">6</text><text y="10" dominant-baseline="hanging" stroke="none" vector-effect="non-scaling-stroke" x="192">7</text><text vector-effect="non-scaling-stroke" x="2.133333e+02" y="10" dominant-baseline="hanging" stroke="none">8</text><text dominant-baseline="hanging" stroke="none" vector-effect="non-scaling-stroke" x="2.346667e+02" y="10">9</text><text dominant-baseline="hanging" stroke="none" vector-effect="non-scaling-stroke" x="256" y="10">10</text><text y="10" dominant-baseline="hanging" stroke="none" vector-effect="non-scaling-stroke" x="2.773333e+02">11</text><text dominant-baseline="hanging" stroke="none" vector-effect="non-scaling-stroke" x="2.986667e+02" y="10">12</text><text stroke="none" vector-effect="non-scaling-stroke" x="320" y="10" dominant-baseline="hanging">13</text><text stroke="none" vector-effect="non-scaling-stroke" x="3.413333e+02" y="10" dominant-baseline="hanging">14</text></g><g stroke-linejoin="round" font-style="normal" font-weight="bold" fill="black" font-family="sans-serif" stroke-width="2px" font-size="12px" stroke="black" stroke-linecap="round" text-anchor="middle" dominant-baseline="baseline" transform="translate(80 520 )scale(1 1 )rotate(0 0 0 )"><text stroke="none" vector-effect="non-scaling-stroke" x="320" y="-6" dominant-baseline="baseline">Day</text></g><g stroke="black" stroke-linecap="round" text-anchor="middle" dominant-baseline="baseline" transform="translate(80 520 )scale(1 -1 )" font-family="sans-serif" font-size="12px" stroke-linejoin="round" fill="black" stroke-width="2px" font-style="normal" font-weight="bold"><path d="M0,44 L-6,44 M0,9.426497e+01 L-6,9.426497e+01 M0,1.445299e+02 L-6,1.445299e+02 M0,1.947949e+02 L-6,1.947949e+02 M0,2.450599e+02 L-6,2.450599e+02 M0,2.953248e+02 L-6,2.953248e+02 M0,3.455898e+02 L-6,3.455898e+02 M0,3.958548e+02 L-6,3.958548e+02 " vector-effect="non-scaling-stroke"/></g><g stroke-width="2px" font-family="sans-serif" font-style="normal" font-weight="normal" dominant-baseline="middle" fill="black" stroke-linejoin="round" text-anchor="end" font-size="12px" transform="translate(80 520 )scale(1 1 )" stroke-linecap="round" stroke="black"><text stroke="none" vector-effect="non-scaling-stroke" x="-10" y="-44" dominant-baseline="middle">0s</text><text stroke="none" vector-effect="non-scaling-stroke" x="-10" y="-9.426497e+01" dominant-baseline="middle">2ms</text><text dominant-baseline="middle" stroke="none" vector-effect="non-scaling-stroke" x="-10" y="-1.445299e+02">4ms</text><text x="-10" y="-1.947949e+02" dominant-baseline="middle" stroke="none" vector-effect="non-scaling-stroke">6ms</text><text vector-effect="non-scaling-stroke" x="-10" y="-2.450599e+02" dominant-baseline="middle" stroke="none">8ms</text><text y="-2.953248e+02" dominant-baseline="middle" stroke="none" vector-effect="non-scaling-stroke" x="-10">10ms</text><text stroke="none" vector-effect="non-scaling-stroke" x="-10" y="-3.455898e+02" dominant-baseline="middle">12ms</text><text stroke="none" vector-effect="non-scaling-stroke" x="-10" y="-3.958548e+02" dominant-baseline="middle">14ms</text></g><g fill="black" stroke-linecap="round" stroke="black" stroke-width="2px" font-family="sans-serif" font-size="12px" font-style="normal" transform="translate(80 520 )scale(1 1 )rotate(-90 0 0 )" stroke-linejoin="round" text-anchor="middle" font-weight="bold" dominant-baseline="hanging"><text stroke="none" vector-effect="non-scaling-stroke" x="220" y="6" dominant-baseline="hanging">Runtime</text></g></g></g></g></svg>