<svg height="600" viewbox="0 0 800 600" preserveAspectRatio="xMidYMid meet" xmlns="http://www.w3.org/2000/svg" width="800"><defs><marker markerWidth="2%" markerHeight="2%" id="circle" viewBox="0 0 10 10 " refX="5" refY="5" markerUnits="userSpaceOnUse"><circle cx="5" cy="5" r="3" fill="none" stroke="black"/></marker><marker viewBox="0 0 10 10 " refX="5" refY="5" markerUnits="userSpaceOnUse" markerWidth="2%" markerHeight="2%" id="filled-circle"><circle fill="black" stroke="none" cx="5" cy="5" r="3"/></marker><marker viewBox="0 0 10 10 " refX="5" refY="5" markerUnits="userSpaceOnUse" markerWidth="2%" markerHeight="2%" id="square"><rect height="6" fill="none" stroke="black" x="2" y="2" width="6"/></marker><marker markerHeight="2%" id="filled-square" viewBox="0 0 10 10 " refX="5" refY="5" markerUnits="userSpaceOnUse" markerWidth="2%"><rect fill="black" stroke="none" x="2" y="2" width="6" height="6"/></marker></defs><g stroke="hsl(198, 47%, 65%)" stroke-width="1px" stroke-linecap="round" stroke-linejoin="round" transform="translate(80 520 )scale(1 -1 )" fill="hsl(198, 47%, 65%)"><rect vector-effect="non-scaling-stroke" x="5.277193e+01" y="0" width="1.122807e+01" height="4.400289e+01"/><rect width="1.122807e+01" height="4.400080e+01" vector-effect="non-scaling-stroke" x="7.410526e+01" y="0"/><rect vector-effect="non-scaling-stroke" x="9.543860e+01" y="0" width="1.122807e+01" height="4.400876e+01"/><rect y="0" width="1.122807e+01" height="4.400354e+01" vector-effect="non-scaling-stroke" x="1.167719e+02"/><rect width="1.122807e+01" height="4.400215e+01" vector-effect="non-scaling-stroke" x="1.381053e+02" y="0"/><rect vector-effect="non-scaling-stroke" x="1.594386e+02" y="0" width="1.122807e+01" height="4.400563e+01"/><rect width="1.122807e+01" height="4.400435e+01" vector-effect="non-scaling-stroke" x="1.807719e+02" y="0"/><rect x="2.021053e+02" y="0" width="1.122807e+01" height="4.411749e+01" vector-effect="non-scaling-stroke"/><rect x="2.234386e+02" y="0" width="1.122807e+01" height="4.406861e+01" vector-effect="non-scaling-stroke"/><rect height="4.400029e+01" vector-effect="non-scaling-stroke" x="2.447719e+02" y="0" width="1.122807e+01"/><rect vector-effect="non-scaling-stroke" x="2.661053e+02" y="0" width="1.122807e+01" height="4.646502e+01"/><rect x="2.874386e+02" y="0" width="1.122807e+01" height="4.408909e+01" vector-effect="non-scaling-stroke"/><rect width="1.122807e+01" height="4.413974e+01" vector-effect="non-scaling-stroke" x="3.087719e+02" y="0"/><rect y="0" width="1.122807e+01" height="4.504581e+01" vector-effect="non-scaling-stroke" x="3.301053e+02"/><rect vector-effect="non-scaling-stroke" x="3.514386e+02" y="0" width="1.122807e+01" height="4.400090e+01"/><rect height="8.459920e+02" vector-effect="non-scaling-stroke" x="3.727719e+02" y="0" width="1.122807e+01"/><rect vector-effect="non-scaling-stroke" x="3.941053e+02" y="0" width="1.122807e+01" height="4.408508e+01"/><rect vector-effect="non-scaling-stroke" x="4.154386e+02" y="0" width="1.122807e+01" height="4.403402e+01"/><rect height="2.678098e+02" vector-effect="non-scaling-stroke" x="4.367719e+02" y="0" width="1.122807e+01"/></g><g stroke-linejoin="round" transform="translate(80 520 )scale(1 -1 )" fill="hsl(49, 88%, 65%)" stroke="hsl(49, 88%, 65%)" stroke-width="1px" stroke-linecap="round"><rect width="1.122807e+01" height="4.400131e+01" vector-effect="non-scaling-stroke" x="64" y="0"/><rect vector-effect="non-scaling-stroke" x="8.533333e+01" y="0" width="1.122807e+01" height="4.400019e+01"/><rect y="0" width="1.122807e+01" height="4.400662e+01" vector-effect="non-scaling-stroke" x="1.066667e+02"/><rect vector-effect="non-scaling-stroke" x="1.280000e+02" y="0" width="1.122807e+01" height="4.400226e+01"/><rect vector-effect="non-scaling-stroke" x="1.493333e+02" y="0" width="1.122807e+01" height="4.400175e+01"/><rect vector-effect="non-scaling-stroke" x="1.706667e+02" y="0" width="1.122807e+01" height="4.400335e+01"/><rect vector-effect="non-scaling-stroke" x="192" y="0" width="1.122807e+01" height="4.400391e+01"/><rect y="0" width="1.122807e+01" height="4.411398e+01" vector-effect="non-scaling-stroke" x="2.133333e+02"/><rect width="1.122807e+01" height="4.406807e+01" vector-effect="non-scaling-stroke" x="2.346667e+02" y="0"/><rect y="0" width="1.122807e+01" height="4.400021e+01" vector-effect="non-scaling-stroke" x="256"/><rect vector-effect="non-scaling-stroke" x="2.773333e+02" y="0" width="1.122807e+01" height="4.492655e+01"/><rect x="2.986667e+02" y="0" width="1.122807e+01" height="4.405564e+01" vector-effect="non-scaling-stroke"/><rect vector-effect="non-scaling-stroke" x="320" y="0" width="1.122807e+01" height="4.412034e+01"/><rect height="4.515442e+01" vector-effect="non-scaling-stroke" x="3.413333e+02" y="0" width="1.122807e+01"/><rect width="1.122807e+01" height="4.400038e+01" vector-effect="non-scaling-stroke" x="3.626667e+02" y="0"/><rect x="4.053333e+02" y="0" width="1.122807e+01" height="4.405816e+01" vector-effect="non-scaling-stroke"/><rect vector-effect="non-scaling-stroke" x="4.266667e+02" y="0" width="1.122807e+01" height="4.403908e+01"/></g><g stroke-linecap="round" stroke="hsl(198, 47%, 65%)" stroke-width="1px" fill="hsl(198, 47%, 65%)" font-size="12px" text-anchor="start" dominant-baseline="hanging" font-family="sans-serif" stroke-linejoin="round" font-style="normal" font-weight="normal"><rect y="484" width="12" height="12" vector-effect="non-scaling-stroke" x="736"/><g stroke="black" fill="black"><text stroke="none" vector-effect="non-scaling-stroke" x="752" y="484" dominant-baseline="hanging">Golang</text></g><g stroke-width="1px" font-size="12px" stroke-linejoin="round" font-weight="normal" fill="hsl(49, 88%, 65%)" text-anchor="start" dominant-baseline="hanging" font-family="sans-serif" font-style="normal" stroke="hsl(49, 88%, 65%)" stroke-linecap="round"><rect x="736" y="502" width="12" height="12" vector-effect="non-scaling-stroke"/><g fill="black" stroke="black"><text y="502" dominant-baseline="hanging" stroke="none" vector-effect="non-scaling-stroke" x="752">Rust</text><g dominant-baseline="hanging" font-family="sans-serif" font-weight="normal" fill="none" stroke-linejoin="round" stroke-width="2px" font-size="12px" font-style="normal" text-anchor="start" stroke-linecap="round"><rect x="80" y="80" width="640" height="440" vector-effect="non-scaling-stroke"/></g><g stroke="black" stroke-linecap="round" stroke-linejoin="round" stroke-width="2px" font-family="sans-serif" text-anchor="start" dominant-baseline="hanging" transform="translate(80 520 )scale(1 -1 )" font-style="normal" font-size="12px" font-weight="normal" fill="none"><path vector-effect="non-scaling-stroke" d="M64,0 L64,-6 M8.533333e+01,0 L8.533333e+01,-6 M1.066667e+02,0 L1.066667e+02,-6 M128,0 L128,-6 M1.493333e+02,0 L1.493333e+02,-6 M1.706667e+02,0 L1.706667e+02,-6 M192,0 L192,-6 M2.133333e+02,0 L2.133333e+02,-6 M2.346667e+02,0 L2.346667e+02,-6 M256,0 L256,-6 M2.773333e+02,0 L2.773333e+02,-6 M2.986667e+02,0 L2.986667e+02,-6 M320,0 L320,-6 M3.413333e+02,0 L3.413333e+02,-6 M3.626667e+02,0 L3.626667e+02,-6 M384,0 L384,-6 M4.053333e+02,0 L4.053333e+02,-6 M4.266667e+02,0 L4.266667e+02,-6 M448,0 L448,-6 "/></g><g stroke="black" stroke-linecap="round" stroke-linejoin="round" stroke-width="2px" text-anchor="middle" transform="translate(80 520 )scale(1 1 )" fill="black" font-weight="normal" dominant-baseline="hanging" font-family="sans-serif" font-size="12px" font-style="normal"><text y="10" dominant-baseline="hanging" stroke="none" vector-effect="non-scaling-stroke" x="64">1</text><text vector-effect="non-scaling-stroke" x="8.533333e+01" y="10" dominant-baseline="hanging" stroke="none">2</text><text stroke="none" vector-effect="non-scaling-stroke" x="1.066667e+02" y="10" dominant-baseline="hanging">3</text><text y="10" dominant-baseline="hanging" stroke="none" vector-effect="non-scaling-stroke" x="128">4</text><text stroke="none" vector-effect="non-scaling-stroke" x="1.493333e+02" y="10" dominant-baseline="hanging">5</text><text vector-effect="non-scaling-stroke" x="1.706667e+02" y="10" dominant-baseline="hanging" stroke="none">6</text><text vector-effect="non-scaling-stroke" x="192" y="10" dominant-baseline="hanging" stroke="none">7</text><text dominant-baseline="hanging" stroke="none" vector-effect="non-scaling-stroke" x="2.133333e+02" y="10">8</text><text vector-effect="non-scaling-stroke" x="2.346667e+02" y="10" dominant-baseline="hanging" stroke="none">9</text><text dominant-baseline="hanging" stroke="none" vector-effect="non-scaling-stroke" x="256" y="10">10</text><text vector-effect="non-scaling-stroke" x="2.773333e+02" y="10" dominant-baseline="hanging" stroke="none">11</text><text vector-effect="non-scaling-stroke" x="2.986667e+02" y="10" dominant-baseline="hanging" stroke="none">12</text><text vector-effect="non-scaling-stroke" x="320" y="10" dominant-baseline="hanging" stroke="none">13</text><text dominant-baseline="hanging" stroke="none" vector-effect="non-scaling-stroke" x="3.413333e+02" y="10">14</text><text vector-effect="non-scaling-stroke" x="3.626667e+02" y="10" dominant-baseline="hanging" stroke="none">15</text><text dominant-baseline="hanging" stroke="none" vector-effect="non-scaling-stroke" x="384" y="10">16</text><text dominant-baseline="hanging" stroke="none" vector-effect="non-scaling-stroke" x="4.053333e+02" y="10">17</text><text vector-effect="non-scaling-stroke" x="4.266667e+02" y="10" dominant-baseline="hanging" stroke="none">18</text><text y="10" dominant-baseline="hanging" stroke="none" vector-effect="non-scaling-stroke" x="448">19</text></g><g fill="black" stroke-linecap="round" stroke-width="2px" font-family="sans-serif" stroke-linejoin="round" font-style="normal" transform="translate(80 520 )scale(1 1 )rotate(0 0 0 )" dominant-baseline="baseline" font-size="12px" font-weight="bold" stroke="black" text-anchor="middle"><text x="320" y="-6" dominant-baseline="baseline" stroke="none" vector-effect="non-scaling-stroke">Day</text></g><g font-weight="bold" font-family="sans-serif" dominant-baseline="baseline" stroke-linecap="round" stroke-linejoin="round" font-style="normal" stroke-width="2px" font-size="12px" text-anchor="middle" transform="translate(80 520 )scale(1 -1 )" fill="black" stroke="black"><path vector-effect="non-scaling-stroke" d="M0,44 L-6,44 M0,7.920000e+01 L-6,7.920000e+01 M0,1.144000e+02 L-6,1.144000e+02 M0,1.496000e+02 L-6,1.496000e+02 M0,1.848000e+02 L-6,1.848000e+02 M0,220 L-6,220 M0,2.552000e+02 L-6,2.552000e+02 M0,2.904000e+02 L-6,2.904000e+02 M0,3.256000e+02 L-6,3.256000e+02 M0,3.608000e+02 L-6,3.608000e+02 M0,396 L-6,396 "/></g><g font-size="12px" stroke-linecap="round" stroke-linejoin="round" font-style="normal" font-weight="normal" transform="translate(80 520 )scale(1 1 )" fill="black" font-family="sans-serif" text-anchor="end" dominant-baseline="middle" stroke-width="2px" stroke="black"><text y="-44" dominant-baseline="middle" stroke="none" vector-effect="non-scaling-stroke" x="-10">0s</text><text dominant-baseline="middle" stroke="none" vector-effect="non-scaling-stroke" x="-10" y="-7.920000e+01">200ms</text><text y="-1.144000e+02" dominant-baseline="middle" stroke="none" vector-effect="non-scaling-stroke" x="-10">400ms</text><text stroke="none" vector-effect="non-scaling-stroke" x="-10" y="-1.496000e+02" dominant-baseline="middle">600ms</text><text dominant-baseline="middle" stroke="none" vector-effect="non-scaling-stroke" x="-10" y="-1.848000e+02">800ms</text><text stroke="none" vector-effect="non-scaling-stroke" x="-10" y="-220" dominant-baseline="middle">1s</text><text dominant-baseline="middle" stroke="none" vector-effect="non-scaling-stroke" x="-10" y="-2.552000e+02">1.2s</text><text x="-10" y="-2.904000e+02" dominant-baseline="middle" stroke="none" vector-effect="non-scaling-stroke">1.4s</text><text vector-effect="non-scaling-stroke" x="-10" y="-3.256000e+02" dominant-baseline="middle" stroke="none">1.6s</text><text x="-10" y="-3.608000e+02" dominant-baseline="middle" stroke="none" vector-effect="non-scaling-stroke">1.8s</text><text y="-396" dominant-baseline="middle" stroke="none" vector-effect="non-scaling-stroke" x="-10">2s</text></g><g fill="black" stroke="black" stroke-linecap="round" font-style="normal" text-anchor="middle" transform="translate(80 520 )scale(1 1 )rotate(-90 0 0 )" stroke-linejoin="round" stroke-width="2px" font-family="sans-serif" font-size="12px" dominant-baseline="hanging" font-weight="bold"><text dominant-baseline="hanging" stroke="none" vector-effect="non-scaling-stroke" x="220" y="6">Runtime</text></g></g></g></g></svg>