<svg height="600" viewbox="0 0 800 600" preserveAspectRatio="xMidYMid meet" xmlns="http://www.w3.org/2000/svg" width="800"><defs><marker id="circle" viewBox="0 0 10 10 " refX="5" refY="5" markerUnits="userSpaceOnUse" markerWidth="2%" markerHeight="2%"><circle cx="5" cy="5" r="3" fill="none" stroke="black"/></marker><marker viewBox="0 0 10 10 " refX="5" refY="5" markerUnits="userSpaceOnUse" markerWidth="2%" markerHeight="2%" id="filled-circle"><circle r="3" fill="black" stroke="none" cx="5" cy="5"/></marker><marker markerUnits="userSpaceOnUse" markerWidth="2%" markerHeight="2%" id="square" viewBox="0 0 10 10 " refX="5" refY="5"><rect y="2" width="6" height="6" fill="none" stroke="black" x="2"/></marker><marker markerUnits="userSpaceOnUse" markerWidth="2%" markerHeight="2%" id="filled-square" viewBox="0 0 10 10 " refX="5" refY="5"><rect y="2" width="6" height="6" fill="black" stroke="none" x="2"/></marker></defs><g stroke="hsl(198, 47%, 65%)" stroke-width="1px" stroke-linecap="round" stroke-linejoin="round" transform="translate(80 520 )scale(1 -1 )" fill="hsl(198, 47%, 65%)"><rect y="0" width="1.833333e+01" height="4.418910e+01" vector-effect="non-scaling-stroke" x="3.650000e+01"/><rect vector-effect="non-scaling-stroke" x="5.783333e+01" y="0" width="1.833333e+01" height="2.109720e+02"/><rect width="1.833333e+01" height="4.483797e+01" vector-effect="non-scaling-stroke" x="7.916667e+01" y="0"/><rect width="1.833333e+01" height="8.409037e+01" vector-effect="non-scaling-stroke" x="1.005000e+02" y="0"/></g><g stroke-width="1px" stroke-linecap="round" stroke-linejoin="round" transform="translate(80 520 )scale(1 -1 )" fill="hsl(49, 88%, 65%)" stroke="hsl(49, 88%, 65%)"><rect vector-effect="non-scaling-stroke" x="5.483333e+01" y="0" width="1.833333e+01" height="4.409569e+01"/><rect vector-effect="non-scaling-stroke" x="7.616667e+01" y="0" width="1.833333e+01" height="2.517139e+02"/><rect width="1.833333e+01" height="4.460115e+01" vector-effect="non-scaling-stroke" x="9.750000e+01" y="0"/></g><g fill="hsl(260, 76%, 65%)" stroke="hsl(260, 76%, 65%)" stroke-width="1px" stroke-linecap="round" stroke-linejoin="round" transform="translate(80 520 )scale(1 -1 )"><rect height="4.409934e+01" vector-effect="non-scaling-stroke" x="7.316667e+01" y="0" width="1.833333e+01"/><rect height="396" vector-effect="non-scaling-stroke" x="9.450000e+01" y="0" width="1.833333e+01"/><rect vector-effect="non-scaling-stroke" x="1.158333e+02" y="0" width="1.833333e+01" height="4.441413e+01"/></g><g text-anchor="start" fill="hsl(198, 47%, 65%)" font-family="sans-serif" stroke="hsl(198, 47%, 65%)" stroke-linecap="round" font-size="12px" font-style="normal" dominant-baseline="hanging" stroke-width="1px" stroke-linejoin="round" font-weight="normal"><rect vector-effect="non-scaling-stroke" x="736" y="466" width="12" height="12"/><g fill="black" stroke="black"><text stroke="none" vector-effect="non-scaling-stroke" x="752" y="466" dominant-baseline="hanging">Golang</text></g><g dominant-baseline="hanging" stroke-width="1px" stroke-linejoin="round" font-family="sans-serif" stroke-linecap="round" font-size="12px" font-style="normal" font-weight="normal" text-anchor="start" fill="hsl(49, 88%, 65%)" stroke="hsl(49, 88%, 65%)"><rect vector-effect="non-scaling-stroke" x="736" y="484" width="12" height="12"/><g fill="black" stroke="black"><text y="484" dominant-baseline="hanging" stroke="none" vector-effect="non-scaling-stroke" x="752">Rust</text></g><g font-style="normal" font-weight="normal" dominant-baseline="hanging" fill="hsl(260, 76%, 65%)" font-family="sans-serif" stroke="hsl(260, 76%, 65%)" text-anchor="start" stroke-width="1px" stroke-linejoin="round" stroke-linecap="round" font-size="12px"><rect y="502" width="12" height="12" vector-effect="non-scaling-stroke" x="736"/><g fill="black" stroke="black"><text dominant-baseline="hanging" stroke="none" vector-effect="non-scaling-stroke" x="752" y="502">Zig</text><g font-size="12px" font-style="normal" dominant-baseline="hanging" stroke-width="2px" font-family="sans-serif" font-weight="normal" text-anchor="start" stroke-linejoin="round" stroke-linecap="round" fill="none"><rect y="80" width="640" height="440" vector-effect="non-scaling-stroke" x="80"/></g><g font-weight="normal" text-anchor="start" stroke-width="2px" font-family="sans-serif" transform="translate(80 520 )scale(1 -1 )" font-size="12px" font-style="normal" dominant-baseline="hanging" fill="none" stroke-linejoin="round" stroke="black" stroke-linecap="round"><path d="M64,0 L64,-6 M8.533333e+01,0 L8.533333e+01,-6 M1.066667e+02,0 L1.066667e+02,-6 M128,0 L128,-6 " vector-effect="non-scaling-stroke"/></g><g stroke="black" font-size="12px" font-weight="normal" stroke-linejoin="round" font-family="sans-serif" transform="translate(80 520 )scale(1 1 )" stroke-linecap="round" font-style="normal" text-anchor="middle" dominant-baseline="hanging" fill="black" stroke-width="2px"><text x="64" y="10" dominant-baseline="hanging" stroke="none" vector-effect="non-scaling-stroke">1</text><text stroke="none" vector-effect="non-scaling-stroke" x="8.533333e+01" y="10" dominant-baseline="hanging">2</text><text dominant-baseline="hanging" stroke="none" vector-effect="non-scaling-stroke" x="1.066667e+02" y="10">3</text><text dominant-baseline="hanging" stroke="none" vector-effect="non-scaling-stroke" x="128" y="10">4</text></g><g font-style="normal" font-weight="bold" text-anchor="middle" stroke-width="2px" stroke-linejoin="round" stroke-linecap="round" font-size="12px" dominant-baseline="baseline" fill="black" font-family="sans-serif" transform="translate(80 520 )scale(1 1 )rotate(0 0 0 )" stroke="black"><text stroke="none" vector-effect="non-scaling-stroke" x="320" y="-6" dominant-baseline="baseline">Day</text></g><g fill="black" stroke-linejoin="round" font-family="sans-serif" stroke="black" font-size="12px" font-style="normal" text-anchor="middle" stroke-width="2px" transform="translate(80 520 )scale(1 -1 )" stroke-linecap="round" font-weight="bold" dominant-baseline="baseline"><path vector-effect="non-scaling-stroke" d="M0,44 L-6,44 M0,1.420220e+02 L-6,1.420220e+02 M0,2.400441e+02 L-6,2.400441e+02 M0,3.380661e+02 L-6,3.380661e+02 "/></g><g stroke-linejoin="round" transform="translate(80 520 )scale(1 1 )" stroke-linecap="round" font-weight="normal" fill="black" font-family="sans-serif" stroke="black" font-size="12px" font-style="normal" text-anchor="end" dominant-baseline="middle" stroke-width="2px"><text x="-10" y="-44" dominant-baseline="middle" stroke="none" vector-effect="non-scaling-stroke">0s</text><text stroke="none" vector-effect="non-scaling-stroke" x="-10" y="-1.420220e+02" dominant-baseline="middle">10ms</text><text dominant-baseline="middle" stroke="none" vector-effect="non-scaling-stroke" x="-10" y="-2.400441e+02">20ms</text><text y="-3.380661e+02" dominant-baseline="middle" stroke="none" vector-effect="non-scaling-stroke" x="-10">30ms</text></g><g transform="translate(80 520 )scale(1 1 )rotate(-90 0 0 )" font-size="12px" font-style="normal" text-anchor="middle" fill="black" stroke-linejoin="round" stroke="black" stroke-linecap="round" font-weight="bold" dominant-baseline="hanging" stroke-width="2px" font-family="sans-serif"><text y="6" dominant-baseline="hanging" stroke="none" vector-effect="non-scaling-stroke" x="220">Runtime</text></g></g></g></g></g></svg>