<svg xmlns="http://www.w3.org/2000/svg" width="800" height="600" viewbox="0 0 800 600" preserveAspectRatio="xMidYMid meet"><defs><marker markerUnits="userSpaceOnUse" markerWidth="2%" markerHeight="2%" id="circle" viewBox="0 0 10 10 " refX="5" refY="5"><circle cx="5" cy="5" r="3" fill="none" stroke="black"/></marker><marker refX="5" refY="5" markerUnits="userSpaceOnUse" markerWidth="2%" markerHeight="2%" id="filled-circle" viewBox="0 0 10 10 "><circle stroke="none" cx="5" cy="5" r="3" fill="black"/></marker><marker markerHeight="2%" id="square" viewBox="0 0 10 10 " refX="5" refY="5" markerUnits="userSpaceOnUse" markerWidth="2%"><rect fill="none" stroke="black" x="2" y="2" width="6" height="6"/></marker><marker refX="5" refY="5" markerUnits="userSpaceOnUse" markerWidth="2%" markerHeight="2%" id="filled-square" viewBox="0 0 10 10 "><rect x="2" y="2" width="6" height="6" fill="black" stroke="none"/></marker></defs><g stroke="hsl(198, 47%, 65%)" stroke-width="1px" stroke-linecap="round" stroke-linejoin="round" transform="translate(80 520 )scale(1 -1 )" fill="hsl(198, 47%, 65%)"><rect vector-effect="non-scaling-stroke" x="5.430303e+01" y="0" width="6.464646e+00" height="4.416105e+01"/><rect height="4.416217e+01" vector-effect="non-scaling-stroke" x="7.563636e+01" y="0" width="6.464646e+00"/><rect x="9.696970e+01" y="0" width="6.464646e+00" height="4.409923e+01" vector-effect="non-scaling-stroke"/><rect x="1.183030e+02" y="0" width="6.464646e+00" height="4.492742e+01" vector-effect="non-scaling-stroke"/><rect vector-effect="non-scaling-stroke" x="1.396364e+02" y="0" width="6.464646e+00" height="4.410407e+01"/><rect x="1.609697e+02" y="0" width="6.464646e+00" height="2.887138e+02" vector-effect="non-scaling-stroke"/><rect x="1.823030e+02" y="0" width="6.464646e+00" height="1.013691e+02" vector-effect="non-scaling-stroke"/><rect width="6.464646e+00" height="4.402374e+01" vector-effect="non-scaling-stroke" x="2.036364e+02" y="0"/><rect vector-effect="non-scaling-stroke" x="2.249697e+02" y="0" width="6.464646e+00" height="4.557632e+01"/><rect height="4.438905e+01" vector-effect="non-scaling-stroke" x="2.463030e+02" y="0" width="6.464646e+00"/><rect vector-effect="non-scaling-stroke" x="2.676364e+02" y="0" width="6.464646e+00" height="4.871913e+01"/><rect vector-effect="non-scaling-stroke" x="2.889697e+02" y="0" width="6.464646e+00" height="4.601703e+01"/><rect x="3.103030e+02" y="0" width="6.464646e+00" height="4.402389e+01" vector-effect="non-scaling-stroke"/><rect y="0" width="6.464646e+00" height="6.316663e+01" vector-effect="non-scaling-stroke" x="3.316364e+02"/><rect height="4.625226e+01" vector-effect="non-scaling-stroke" x="3.529697e+02" y="0" width="6.464646e+00"/><rect y="0" width="6.464646e+00" height="9.137622e+01" vector-effect="non-scaling-stroke" x="3.743030e+02"/><rect vector-effect="non-scaling-stroke" x="3.956364e+02" y="0" width="6.464646e+00" height="4.406664e+01"/><rect height="4.470698e+01" vector-effect="non-scaling-stroke" x="4.169697e+02" y="0" width="6.464646e+00"/><rect y="0" width="6.464646e+00" height="4.877281e+01" vector-effect="non-scaling-stroke" x="4.383030e+02"/><rect width="6.464646e+00" height="1.122060e+02" vector-effect="non-scaling-stroke" x="4.596364e+02" y="0"/><rect height="4.400020e+01" vector-effect="non-scaling-stroke" x="4.809697e+02" y="0" width="6.464646e+00"/><rect y="0" width="6.464646e+00" height="2.046154e+02" vector-effect="non-scaling-stroke" x="5.023030e+02"/></g><g stroke="hsl(49, 88%, 65%)" stroke-width="1px" stroke-linecap="round" stroke-linejoin="round" transform="translate(80 520 )scale(1 -1 )" fill="hsl(49, 88%, 65%)"><rect x="6.076768e+01" y="0" width="6.464646e+00" height="4.406315e+01" vector-effect="non-scaling-stroke"/><rect width="6.464646e+00" height="4.414680e+01" vector-effect="non-scaling-stroke" x="8.210101e+01" y="0"/><rect vector-effect="non-scaling-stroke" x="1.034343e+02" y="0" width="6.464646e+00" height="4.403021e+01"/><rect y="0" width="6.464646e+00" height="4.554797e+01" vector-effect="non-scaling-stroke" x="1.247677e+02"/><rect vector-effect="non-scaling-stroke" x="1.461010e+02" y="0" width="6.464646e+00" height="4.405866e+01"/><rect vector-effect="non-scaling-stroke" x="1.674343e+02" y="0" width="6.464646e+00" height="2.298993e+02"/><rect width="6.464646e+00" height="1.020507e+02" vector-effect="non-scaling-stroke" x="1.887677e+02" y="0"/><rect height="4.401129e+01" vector-effect="non-scaling-stroke" x="2.101010e+02" y="0" width="6.464646e+00"/><rect x="2.314343e+02" y="0" width="6.464646e+00" height="4.598821e+01" vector-effect="non-scaling-stroke"/><rect width="6.464646e+00" height="4.413313e+01" vector-effect="non-scaling-stroke" x="2.527677e+02" y="0"/><rect width="6.464646e+00" height="4.760472e+01" vector-effect="non-scaling-stroke" x="2.741010e+02" y="0"/><rect vector-effect="non-scaling-stroke" x="2.954343e+02" y="0" width="6.464646e+00" height="4.553765e+01"/><rect height="4.401924e+01" vector-effect="non-scaling-stroke" x="3.167677e+02" y="0" width="6.464646e+00"/><rect width="6.464646e+00" height="5.697307e+01" vector-effect="non-scaling-stroke" x="3.381010e+02" y="0"/><rect height="5.016562e+01" vector-effect="non-scaling-stroke" x="3.594343e+02" y="0" width="6.464646e+00"/><rect width="6.464646e+00" height="6.312795e+01" vector-effect="non-scaling-stroke" x="3.807677e+02" y="0"/><rect x="4.021010e+02" y="0" width="6.464646e+00" height="4.473685e+01" vector-effect="non-scaling-stroke"/><rect width="6.464646e+00" height="4.442197e+01" vector-effect="non-scaling-stroke" x="4.234343e+02" y="0"/><rect width="6.464646e+00" height="5.015742e+01" vector-effect="non-scaling-stroke" x="4.447677e+02" y="0"/><rect height="1.318715e+02" vector-effect="non-scaling-stroke" x="4.661010e+02" y="0" width="6.464646e+00"/><rect x="4.874343e+02" y="0" width="6.464646e+00" height="4.400010e+01" vector-effect="non-scaling-stroke"/><rect height="396" vector-effect="non-scaling-stroke" x="5.087677e+02" y="0" width="6.464646e+00"/></g><g transform="translate(80 520 )scale(1 -1 )" fill="hsl(260, 76%, 65%)" stroke="hsl(260, 76%, 65%)" stroke-width="1px" stroke-linecap="round" stroke-linejoin="round"><rect vector-effect="non-scaling-stroke" x="6.723232e+01" y="0" width="6.464646e+00" height="4.410787e+01"/><rect vector-effect="non-scaling-stroke" x="8.856566e+01" y="0" width="6.464646e+00" height="4.408051e+01"/><rect x="1.098990e+02" y="0" width="6.464646e+00" height="4.408177e+01" vector-effect="non-scaling-stroke"/></g><g stroke="hsl(198, 47%, 65%)" font-size="12px" font-style="normal" stroke-width="1px" font-family="sans-serif" font-weight="normal" text-anchor="start" fill="hsl(198, 47%, 65%)" stroke-linejoin="round" dominant-baseline="hanging" stroke-linecap="round"><rect y="466" width="12" height="12" vector-effect="non-scaling-stroke" x="736"/><g fill="black" stroke="black"><text x="752" y="466" dominant-baseline="hanging" stroke="none" vector-effect="non-scaling-stroke">Golang</text></g><g font-size="12px" dominant-baseline="hanging" fill="hsl(49, 88%, 65%)" font-family="sans-serif" font-weight="normal" stroke="hsl(49, 88%, 65%)" stroke-linecap="round" font-style="normal" text-anchor="start" stroke-width="1px" stroke-linejoin="round"><rect height="12" vector-effect="non-scaling-stroke" x="736" y="484" width="12"/><g stroke="black" fill="black"><text dominant-baseline="hanging" stroke="none" vector-effect="non-scaling-stroke" x="752" y="484">Rust</text></g><g font-style="normal" stroke-width="1px" font-family="sans-serif" text-anchor="start" stroke-linecap="round" font-size="12px" stroke="hsl(260, 76%, 65%)" stroke-linejoin="round" font-weight="normal" dominant-baseline="hanging" fill="hsl(260, 76%, 65%)"><rect width="12" height="12" vector-effect="non-scaling-stroke" x="736" y="502"/><g stroke="black" fill="black"><text vector-effect="non-scaling-stroke" x="752" y="502" dominant-baseline="hanging" stroke="none">Zig</text><g font-size="12px" font-style="normal" stroke-width="2px" stroke-linejoin="round" font-family="sans-serif" text-anchor="start" stroke-linecap="round" dominant-baseline="hanging" font-weight="normal" fill="none"><rect height="440" vector-effect="non-scaling-stroke" x="80" y="80" width="640"/></g><g text-anchor="start" dominant-baseline="hanging" transform="translate(80 520 )scale(1 -1 )" fill="none" font-size="12px" font-style="normal" stroke-linejoin="round" font-weight="normal" stroke-linecap="round" stroke="black" font-family="sans-serif" stroke-width="2px"><path vector-effect="non-scaling-stroke" d="M64,0 L64,-6 M8.533333e+01,0 L8.533333e+01,-6 M1.066667e+02,0 L1.066667e+02,-6 M128,0 L128,-6 M1.493333e+02,0 L1.493333e+02,-6 M1.706667e+02,0 L1.706667e+02,-6 M192,0 L192,-6 M2.133333e+02,0 L2.133333e+02,-6 M2.346667e+02,0 L2.346667e+02,-6 M256,0 L256,-6 M2.773333e+02,0 L2.773333e+02,-6 M2.986667e+02,0 L2.986667e+02,-6 M320,0 L320,-6 M3.413333e+02,0 L3.413333e+02,-6 M3.626667e+02,0 L3.626667e+02,-6 M384,0 L384,-6 M4.053333e+02,0 L4.053333e+02,-6 M4.266667e+02,0 L4.266667e+02,-6 M448,0 L448,-6 M4.693333e+02,0 L4.693333e+02,-6 M4.906667e+02,0 L4.906667e+02,-6 M512,0 L512,-6 "/></g><g stroke-linecap="round" font-style="normal" stroke-linejoin="round" font-family="sans-serif" dominant-baseline="hanging" stroke="black" font-size="12px" transform="translate(80 520 )scale(1 1 )" fill="black" stroke-width="2px" font-weight="normal" text-anchor="middle"><text x="64" y="10" dominant-baseline="hanging" stroke="none" vector-effect="non-scaling-stroke">1</text><text x="8.533333e+01" y="10" dominant-baseline="hanging" stroke="none" vector-effect="non-scaling-stroke">2</text><text x="1.066667e+02" y="10" dominant-baseline="hanging" stroke="none" vector-effect="non-scaling-stroke">3</text><text vector-effect="non-scaling-stroke" x="128" y="10" dominant-baseline="hanging" stroke="none">4</text><text x="1.493333e+02" y="10" dominant-baseline="hanging" stroke="none" vector-effect="non-scaling-stroke">5</text><text vector-effect="non-scaling-stroke" x="1.706667e+02" y="10" dominant-baseline="hanging" stroke="none">6</text><text x="192" y="10" dominant-baseline="hanging" stroke="none" vector-effect="non-scaling-stroke">7</text><text vector-effect="non-scaling-stroke" x="2.133333e+02" y="10" dominant-baseline="hanging" stroke="none">8</text><text stroke="none" vector-effect="non-scaling-stroke" x="2.346667e+02" y="10" dominant-baseline="hanging">9</text><text x="256" y="10" dominant-baseline="hanging" stroke="none" vector-effect="non-scaling-stroke">10</text><text dominant-baseline="hanging" stroke="none" vector-effect="non-scaling-stroke" x="2.773333e+02" y="10">11</text><text x="2.986667e+02" y="10" dominant-baseline="hanging" stroke="none" vector-effect="non-scaling-stroke">12</text><text vector-effect="non-scaling-stroke" x="320" y="10" dominant-baseline="hanging" stroke="none">13</text><text x="3.413333e+02" y="10" dominant-baseline="hanging" stroke="none" vector-effect="non-scaling-stroke">14</text><text dominant-baseline="hanging" stroke="none" vector-effect="non-scaling-stroke" x="3.626667e+02" y="10">15</text><text x="384" y="10" dominant-baseline="hanging" stroke="none" vector-effect="non-scaling-stroke">16</text><text stroke="none" vector-effect="non-scaling-stroke" x="4.053333e+02" y="10" dominant-baseline="hanging">17</text><text y="10" dominant-baseline="hanging" stroke="none" vector-effect="non-scaling-stroke" x="4.266667e+02">18</text><text dominant-baseline="hanging" stroke="none" vector-effect="non-scaling-stroke" x="448" y="10">19</text><text stroke="none" vector-effect="non-scaling-stroke" x="4.693333e+02" y="10" dominant-baseline="hanging">20</text><text vector-effect="non-scaling-stroke" x="4.906667e+02" y="10" dominant-baseline="hanging" stroke="none">21</text><text dominant-baseline="hanging" stroke="none" vector-effect="non-scaling-stroke" x="512" y="10">22</text></g><g stroke-linejoin="round" font-family="sans-serif" stroke="black" font-size="12px" text-anchor="middle" transform="translate(80 520 )scale(1 1 )rotate(0 0 0 )" fill="black" stroke-width="2px" stroke-linecap="round" font-style="normal" font-weight="bold" dominant-baseline="baseline"><text x="320" y="-6" dominant-baseline="baseline" stroke="none" vector-effect="non-scaling-stroke">Day</text></g><g transform="translate(80 520 )scale(1 -1 )" stroke-width="2px" stroke-linejoin="round" font-family="sans-serif" dominant-baseline="baseline" fill="black" font-weight="bold" text-anchor="middle" stroke="black" stroke-linecap="round" font-size="12px" font-style="normal"><path d="M0,44 L-6,44 M0,1.122405e+02 L-6,1.122405e+02 M0,1.804811e+02 L-6,1.804811e+02 M0,2.487216e+02 L-6,2.487216e+02 M0,3.169622e+02 L-6,3.169622e+02 M0,3.852027e+02 L-6,3.852027e+02 " vector-effect="non-scaling-stroke"/></g><g font-family="sans-serif" font-weight="normal" text-anchor="end" dominant-baseline="middle" font-style="normal" stroke="black" stroke-linejoin="round" transform="translate(80 520 )scale(1 1 )" fill="black" stroke-width="2px" font-size="12px" stroke-linecap="round"><text y="-44" dominant-baseline="middle" stroke="none" vector-effect="non-scaling-stroke" x="-10">0s</text><text stroke="none" vector-effect="non-scaling-stroke" x="-10" y="-1.122405e+02" dominant-baseline="middle">20ms</text><text dominant-baseline="middle" stroke="none" vector-effect="non-scaling-stroke" x="-10" y="-1.804811e+02">40ms</text><text y="-2.487216e+02" dominant-baseline="middle" stroke="none" vector-effect="non-scaling-stroke" x="-10">60ms</text><text x="-10" y="-3.169622e+02" dominant-baseline="middle" stroke="none" vector-effect="non-scaling-stroke">80ms</text><text vector-effect="non-scaling-stroke" x="-10" y="-3.852027e+02" dominant-baseline="middle" stroke="none">100ms</text></g><g fill="black" stroke-width="2px" stroke-linejoin="round" stroke="black" font-weight="bold" dominant-baseline="hanging" font-family="sans-serif" text-anchor="middle" transform="translate(80 520 )scale(1 1 )rotate(-90 0 0 )" font-style="normal" stroke-linecap="round" font-size="12px"><text stroke="none" vector-effect="non-scaling-stroke" x="220" y="6" dominant-baseline="hanging">Runtime</text></g></g></g></g></g></svg>