<svg preserveAspectRatio="xMidYMid meet" xmlns="http://www.w3.org/2000/svg" width="800" height="600" viewbox="0 0 800 600"><defs><marker refY="5" markerUnits="userSpaceOnUse" markerWidth="2%" markerHeight="2%" id="circle" viewBox="0 0 10 10 " refX="5"><circle cy="5" r="3" fill="none" stroke="black" cx="5"/></marker><marker markerUnits="userSpaceOnUse" markerWidth="2%" markerHeight="2%" id="filled-circle" viewBox="0 0 10 10 " refX="5" refY="5"><circle r="3" fill="black" stroke="none" cx="5" cy="5"/></marker><marker refX="5" refY="5" markerUnits="userSpaceOnUse" markerWidth="2%" markerHeight="2%" id="square" viewBox="0 0 10 10 "><rect height="6" fill="none" stroke="black" x="2" y="2" width="6"/></marker><marker viewBox="0 0 10 10 " refX="5" refY="5" markerUnits="userSpaceOnUse" markerWidth="2%" markerHeight="2%" id="filled-square"><rect height="6" fill="black" stroke="none" x="2" y="2" width="6"/></marker></defs><g stroke="hsl(198, 47%, 65%)" stroke-width="1px" stroke-linecap="round" stroke-linejoin="round" transform="translate(80 520 )scale(1 -1 )" fill="hsl(198, 47%, 65%)"><rect y="0" width="8.888889e+00" height="4.401314e+01" vector-effect="non-scaling-stroke" x="5.511111e+01"/><rect y="0" width="8.888889e+00" height="4.400363e+01" vector-effect="non-scaling-stroke" x="7.644444e+01"/><rect x="9.777778e+01" y="0" width="8.888889e+00" height="4.403986e+01" vector-effect="non-scaling-stroke"/><rect x="1.191111e+02" y="0" width="8.888889e+00" height="4.401719e+01" vector-effect="non-scaling-stroke"/><rect x="1.404444e+02" y="0" width="8.888889e+00" height="4.400984e+01" vector-effect="non-scaling-stroke"/><rect vector-effect="non-scaling-stroke" x="1.617778e+02" y="0" width="8.888889e+00" height="4.402561e+01"/><rect vector-effect="non-scaling-stroke" x="1.831111e+02" y="0" width="8.888889e+00" height="4.401992e+01"/><rect x="2.044444e+02" y="0" width="8.888889e+00" height="4.453445e+01" vector-effect="non-scaling-stroke"/><rect vector-effect="non-scaling-stroke" x="2.257778e+02" y="0" width="8.888889e+00" height="4.432033e+01"/><rect width="8.888889e+00" height="4.400126e+01" vector-effect="non-scaling-stroke" x="2.471111e+02" y="0"/><rect x="2.684444e+02" y="0" width="8.888889e+00" height="5.528921e+01" vector-effect="non-scaling-stroke"/><rect height="4.440524e+01" vector-effect="non-scaling-stroke" x="2.897778e+02" y="0" width="8.888889e+00"/><rect x="3.111111e+02" y="0" width="8.888889e+00" height="4.464564e+01" vector-effect="non-scaling-stroke"/><rect vector-effect="non-scaling-stroke" x="3.324444e+02" y="0" width="8.888889e+00" height="4.876763e+01"/><rect x="3.537778e+02" y="0" width="8.888889e+00" height="4.400405e+01" vector-effect="non-scaling-stroke"/><rect height="2.728841e+02" vector-effect="non-scaling-stroke" x="3.751111e+02" y="0" width="8.888889e+00"/><rect x="3.964444e+02" y="0" width="8.888889e+00" height="4.438700e+01" vector-effect="non-scaling-stroke"/><rect width="8.888889e+00" height="4.415148e+01" vector-effect="non-scaling-stroke" x="4.177778e+02" y="0"/><rect vector-effect="non-scaling-stroke" x="4.391111e+02" y="0" width="8.888889e+00" height="2.640472e+02"/><rect vector-effect="non-scaling-stroke" x="4.604444e+02" y="0" width="8.888889e+00" height="8.054353e+01"/><rect vector-effect="non-scaling-stroke" x="4.817778e+02" y="0" width="8.888889e+00" height="4.429131e+01"/><rect x="5.031111e+02" y="0" width="8.888889e+00" height="4.478784e+01" vector-effect="non-scaling-stroke"/><rect width="8.888889e+00" height="2.500602e+02" vector-effect="non-scaling-stroke" x="5.244444e+02" y="0"/><rect height="1.485011e+02" vector-effect="non-scaling-stroke" x="5.457778e+02" y="0" width="8.888889e+00"/></g><g stroke-linecap="round" stroke-linejoin="round" transform="translate(80 520 )scale(1 -1 )" fill="hsl(49, 88%, 65%)" stroke="hsl(49, 88%, 65%)" stroke-width="1px"><rect vector-effect="non-scaling-stroke" x="64" y="0" width="8.888889e+00" height="4.400595e+01"/><rect width="8.888889e+00" height="4.400087e+01" vector-effect="non-scaling-stroke" x="8.533333e+01" y="0"/><rect width="8.888889e+00" height="4.403010e+01" vector-effect="non-scaling-stroke" x="1.066667e+02" y="0"/><rect vector-effect="non-scaling-stroke" x="128" y="0" width="8.888889e+00" height="4.401027e+01"/><rect height="4.400794e+01" vector-effect="non-scaling-stroke" x="1.493333e+02" y="0" width="8.888889e+00"/><rect vector-effect="non-scaling-stroke" x="1.706667e+02" y="0" width="8.888889e+00" height="4.401522e+01"/><rect height="4.401780e+01" vector-effect="non-scaling-stroke" x="192" y="0" width="8.888889e+00"/><rect y="0" width="8.888889e+00" height="4.451845e+01" vector-effect="non-scaling-stroke" x="2.133333e+02"/><rect y="0" width="8.888889e+00" height="4.430964e+01" vector-effect="non-scaling-stroke" x="2.346667e+02"/><rect height="4.400095e+01" vector-effect="non-scaling-stroke" x="256" y="0" width="8.888889e+00"/><rect y="0" width="8.888889e+00" height="4.821467e+01" vector-effect="non-scaling-stroke" x="2.773333e+02"/><rect height="4.425309e+01" vector-effect="non-scaling-stroke" x="2.986667e+02" y="0" width="8.888889e+00"/><rect height="4.454742e+01" vector-effect="non-scaling-stroke" x="320" y="0" width="8.888889e+00"/><rect vector-effect="non-scaling-stroke" x="3.413333e+02" y="0" width="8.888889e+00" height="4.925119e+01"/><rect width="8.888889e+00" height="4.400171e+01" vector-effect="non-scaling-stroke" x="3.626667e+02" y="0"/><rect vector-effect="non-scaling-stroke" x="384" y="0" width="8.888889e+00" height="396"/><rect vector-effect="non-scaling-stroke" x="4.053333e+02" y="0" width="8.888889e+00" height="4.426457e+01"/><rect height="4.417776e+01" vector-effect="non-scaling-stroke" x="4.266667e+02" y="0" width="8.888889e+00"/><rect y="0" width="8.888889e+00" height="1.209599e+02" vector-effect="non-scaling-stroke" x="448"/><rect x="4.693333e+02" y="0" width="8.888889e+00" height="7.444534e+01" vector-effect="non-scaling-stroke"/><rect vector-effect="non-scaling-stroke" x="4.906667e+02" y="0" width="8.888889e+00" height="4.436171e+01"/><rect x="512" y="0" width="8.888889e+00" height="4.452205e+01" vector-effect="non-scaling-stroke"/><rect vector-effect="non-scaling-stroke" x="5.333333e+02" y="0" width="8.888889e+00" height="2.372188e+02"/><rect width="8.888889e+00" height="2.552259e+02" vector-effect="non-scaling-stroke" x="5.546667e+02" y="0"/></g><g font-family="sans-serif" fill="hsl(198, 47%, 65%)" font-weight="normal" text-anchor="start" dominant-baseline="hanging" stroke-width="1px" font-size="12px" stroke="hsl(198, 47%, 65%)" stroke-linejoin="round" font-style="normal" stroke-linecap="round"><rect height="12" vector-effect="non-scaling-stroke" x="736" y="484" width="12"/><g fill="black" stroke="black"><text stroke="none" vector-effect="non-scaling-stroke" x="752" y="484" dominant-baseline="hanging">Golang</text></g><g font-style="normal" font-weight="normal" stroke-width="1px" font-size="12px" stroke-linecap="round" font-family="sans-serif" text-anchor="start" dominant-baseline="hanging" fill="hsl(49, 88%, 65%)" stroke-linejoin="round" stroke="hsl(49, 88%, 65%)"><rect vector-effect="non-scaling-stroke" x="736" y="502" width="12" height="12"/><g stroke="black" fill="black"><text x="752" y="502" dominant-baseline="hanging" stroke="none" vector-effect="non-scaling-stroke">Rust</text><g font-family="sans-serif" font-size="12px" font-weight="normal" stroke-linecap="round" fill="none" dominant-baseline="hanging" stroke-width="2px" stroke-linejoin="round" font-style="normal" text-anchor="start"><rect height="440" vector-effect="non-scaling-stroke" x="80" y="80" width="640"/></g><g fill="none" stroke-linejoin="round" text-anchor="start" dominant-baseline="hanging" transform="translate(80 520 )scale(1 -1 )" stroke-width="2px" font-family="sans-serif" font-style="normal" font-weight="normal" stroke="black" stroke-linecap="round" font-size="12px"><path vector-effect="non-scaling-stroke" d="M64,0 L64,-6 M8.533333e+01,0 L8.533333e+01,-6 M1.066667e+02,0 L1.066667e+02,-6 M128,0 L128,-6 M1.493333e+02,0 L1.493333e+02,-6 M1.706667e+02,0 L1.706667e+02,-6 M192,0 L192,-6 M2.133333e+02,0 L2.133333e+02,-6 M2.346667e+02,0 L2.346667e+02,-6 M256,0 L256,-6 M2.773333e+02,0 L2.773333e+02,-6 M2.986667e+02,0 L2.986667e+02,-6 M320,0 L320,-6 M3.413333e+02,0 L3.413333e+02,-6 M3.626667e+02,0 L3.626667e+02,-6 M384,0 L384,-6 M4.053333e+02,0 L4.053333e+02,-6 M4.266667e+02,0 L4.266667e+02,-6 M448,0 L448,-6 M4.693333e+02,0 L4.693333e+02,-6 M4.906667e+02,0 L4.906667e+02,-6 M512,0 L512,-6 M5.333333e+02,0 L5.333333e+02,-6 M5.546667e+02,0 L5.546667e+02,-6 "/></g><g font-style="normal" stroke-width="2px" font-family="sans-serif" transform="translate(80 520 )scale(1 1 )" stroke-linecap="round" font-size="12px" font-weight="normal" text-anchor="middle" dominant-baseline="hanging" fill="black" stroke-linejoin="round" stroke="black"><text stroke="none" vector-effect="non-scaling-stroke" x="64" y="10" dominant-baseline="hanging">1</text><text vector-effect="non-scaling-stroke" x="8.533333e+01" y="10" dominant-baseline="hanging" stroke="none">2</text><text y="10" dominant-baseline="hanging" stroke="none" vector-effect="non-scaling-stroke" x="1.066667e+02">3</text><text vector-effect="non-scaling-stroke" x="128" y="10" dominant-baseline="hanging" stroke="none">4</text><text y="10" dominant-baseline="hanging" stroke="none" vector-effect="non-scaling-stroke" x="1.493333e+02">5</text><text y="10" dominant-baseline="hanging" stroke="none" vector-effect="non-scaling-stroke" x="1.706667e+02">6</text><text dominant-baseline="hanging" stroke="none" vector-effect="non-scaling-stroke" x="192" y="10">7</text><text y="10" dominant-baseline="hanging" stroke="none" vector-effect="non-scaling-stroke" x="2.133333e+02">8</text><text stroke="none" vector-effect="non-scaling-stroke" x="2.346667e+02" y="10" dominant-baseline="hanging">9</text><text y="10" dominant-baseline="hanging" stroke="none" vector-effect="non-scaling-stroke" x="256">10</text><text y="10" dominant-baseline="hanging" stroke="none" vector-effect="non-scaling-stroke" x="2.773333e+02">11</text><text stroke="none" vector-effect="non-scaling-stroke" x="2.986667e+02" y="10" dominant-baseline="hanging">12</text><text y="10" dominant-baseline="hanging" stroke="none" vector-effect="non-scaling-stroke" x="320">13</text><text stroke="none" vector-effect="non-scaling-stroke" x="3.413333e+02" y="10" dominant-baseline="hanging">14</text><text stroke="none" vector-effect="non-scaling-stroke" x="3.626667e+02" y="10" dominant-baseline="hanging">15</text><text y="10" dominant-baseline="hanging" stroke="none" vector-effect="non-scaling-stroke" x="384">16</text><text stroke="none" vector-effect="non-scaling-stroke" x="4.053333e+02" y="10" dominant-baseline="hanging">17</text><text y="10" dominant-baseline="hanging" stroke="none" vector-effect="non-scaling-stroke" x="4.266667e+02">18</text><text x="448" y="10" dominant-baseline="hanging" stroke="none" vector-effect="non-scaling-stroke">19</text><text x="4.693333e+02" y="10" dominant-baseline="hanging" stroke="none" vector-effect="non-scaling-stroke">20</text><text y="10" dominant-baseline="hanging" stroke="none" vector-effect="non-scaling-stroke" x="4.906667e+02">21</text><text dominant-baseline="hanging" stroke="none" vector-effect="non-scaling-stroke" x="512" y="10">22</text><text stroke="none" vector-effect="non-scaling-stroke" x="5.333333e+02" y="10" dominant-baseline="hanging">23</text><text vector-effect="non-scaling-stroke" x="5.546667e+02" y="10" dominant-baseline="hanging" stroke="none">24</text></g><g stroke="black" font-style="normal" font-weight="bold" dominant-baseline="baseline" fill="black" stroke-linejoin="round" transform="translate(80 520 )scale(1 1 )rotate(0 0 0 )" font-family="sans-serif" text-anchor="middle" stroke-width="2px" stroke-linecap="round" font-size="12px"><text y="-6" dominant-baseline="baseline" stroke="none" vector-effect="non-scaling-stroke" x="320">Day</text></g><g stroke-linejoin="round" font-weight="bold" text-anchor="middle" dominant-baseline="baseline" stroke-width="2px" font-style="normal" fill="black" transform="translate(80 520 )scale(1 -1 )" stroke="black" stroke-linecap="round" font-size="12px" font-family="sans-serif"><path vector-effect="non-scaling-stroke" d="M0,44 L-6,44 M0,1.240583e+02 L-6,1.240583e+02 M0,2.041166e+02 L-6,2.041166e+02 M0,2.841749e+02 L-6,2.841749e+02 M0,3.642331e+02 L-6,3.642331e+02 "/></g><g font-style="normal" transform="translate(80 520 )scale(1 1 )" stroke-linecap="round" fill="black" font-family="sans-serif" dominant-baseline="middle" stroke-width="2px" stroke-linejoin="round" stroke="black" font-size="12px" font-weight="normal" text-anchor="end"><text vector-effect="non-scaling-stroke" x="-10" y="-44" dominant-baseline="middle" stroke="none">0s</text><text dominant-baseline="middle" stroke="none" vector-effect="non-scaling-stroke" x="-10" y="-1.240583e+02">100ms</text><text y="-2.041166e+02" dominant-baseline="middle" stroke="none" vector-effect="non-scaling-stroke" x="-10">200ms</text><text y="-2.841749e+02" dominant-baseline="middle" stroke="none" vector-effect="non-scaling-stroke" x="-10">300ms</text><text x="-10" y="-3.642331e+02" dominant-baseline="middle" stroke="none" vector-effect="non-scaling-stroke">400ms</text></g><g stroke-width="2px" stroke-linejoin="round" font-family="sans-serif" transform="translate(80 520 )scale(1 1 )rotate(-90 0 0 )" stroke="black" font-weight="bold" text-anchor="middle" fill="black" font-size="12px" font-style="normal" dominant-baseline="hanging" stroke-linecap="round"><text dominant-baseline="hanging" stroke="none" vector-effect="non-scaling-stroke" x="220" y="6">Runtime</text></g></g></g></g></svg>