<svg preserveAspectRatio="xMidYMid meet" xmlns="http://www.w3.org/2000/svg" width="800" height="600" viewbox="0 0 800 600"><defs><marker refY="5" markerUnits="userSpaceOnUse" markerWidth="2%" markerHeight="2%" id="circle" viewBox="0 0 10 10 " refX="5"><circle stroke="black" cx="5" cy="5" r="3" fill="none"/></marker><marker markerHeight="2%" id="filled-circle" viewBox="0 0 10 10 " refX="5" refY="5" markerUnits="userSpaceOnUse" markerWidth="2%"><circle r="3" fill="black" stroke="none" cx="5" cy="5"/></marker><marker refY="5" markerUnits="userSpaceOnUse" markerWidth="2%" markerHeight="2%" id="square" viewBox="0 0 10 10 " refX="5"><rect width="6" height="6" fill="none" stroke="black" x="2" y="2"/></marker><marker markerUnits="userSpaceOnUse" markerWidth="2%" markerHeight="2%" id="filled-square" viewBox="0 0 10 10 " refX="5" refY="5"><rect fill="black" stroke="none" x="2" y="2" width="6" height="6"/></marker></defs><g stroke-linecap="round" stroke-linejoin="round" transform="translate(80 520 )scale(1 -1 )" fill="hsl(198, 47%, 65%)" stroke="hsl(198, 47%, 65%)" stroke-width="1px"><rect height="4.409008e+01" vector-effect="non-scaling-stroke" x="5.546667e+01" y="0" width="3.413333e+00"/><rect height="4.402418e+01" vector-effect="non-scaling-stroke" x="7.680000e+01" y="0" width="3.413333e+00"/><rect height="4.405289e+01" vector-effect="non-scaling-stroke" x="9.813333e+01" y="0" width="3.413333e+00"/><rect height="44" vector-effect="non-scaling-stroke" x="1.194667e+02" y="0" width="3.413333e+00"/><rect width="3.413333e+00" height="44" vector-effect="non-scaling-stroke" x="1.408000e+02" y="0"/><rect height="44" vector-effect="non-scaling-stroke" x="1.621333e+02" y="0" width="3.413333e+00"/><rect vector-effect="non-scaling-stroke" x="1.834667e+02" y="0" width="3.413333e+00" height="44"/><rect height="44" vector-effect="non-scaling-stroke" x="2.048000e+02" y="0" width="3.413333e+00"/><rect x="2.261333e+02" y="0" width="3.413333e+00" height="44" vector-effect="non-scaling-stroke"/><rect x="2.474667e+02" y="0" width="3.413333e+00" height="44" vector-effect="non-scaling-stroke"/><rect height="44" vector-effect="non-scaling-stroke" x="2.688000e+02" y="0" width="3.413333e+00"/><rect x="2.901333e+02" y="0" width="3.413333e+00" height="44" vector-effect="non-scaling-stroke"/><rect x="3.114667e+02" y="0" width="3.413333e+00" height="44" vector-effect="non-scaling-stroke"/><rect vector-effect="non-scaling-stroke" x="3.328000e+02" y="0" width="3.413333e+00" height="44"/><rect vector-effect="non-scaling-stroke" x="3.541333e+02" y="0" width="3.413333e+00" height="44"/><rect height="44" vector-effect="non-scaling-stroke" x="3.754667e+02" y="0" width="3.413333e+00"/><rect y="0" width="3.413333e+00" height="44" vector-effect="non-scaling-stroke" x="3.968000e+02"/><rect width="3.413333e+00" height="44" vector-effect="non-scaling-stroke" x="4.181333e+02" y="0"/><rect vector-effect="non-scaling-stroke" x="4.394667e+02" y="0" width="3.413333e+00" height="44"/><rect height="44" vector-effect="non-scaling-stroke" x="4.608000e+02" y="0" width="3.413333e+00"/><rect width="3.413333e+00" height="44" vector-effect="non-scaling-stroke" x="4.821333e+02" y="0"/><rect x="5.034667e+02" y="0" width="3.413333e+00" height="44" vector-effect="non-scaling-stroke"/><rect x="5.248000e+02" y="0" width="3.413333e+00" height="44" vector-effect="non-scaling-stroke"/><rect x="5.461333e+02" y="0" width="3.413333e+00" height="44" vector-effect="non-scaling-stroke"/><rect x="5.674667e+02" y="0" width="3.413333e+00" height="44" vector-effect="non-scaling-stroke"/></g><g transform="translate(80 520 )scale(1 -1 )" fill="hsl(49, 88%, 65%)" stroke="hsl(49, 88%, 65%)" stroke-width="1px" stroke-linecap="round" stroke-linejoin="round"><rect width="3.413333e+00" height="4.400637e+01" vector-effect="non-scaling-stroke" x="5.888000e+01" y="0"/><rect vector-effect="non-scaling-stroke" x="8.021333e+01" y="0" width="3.413333e+00" height="4.400031e+01"/><rect width="3.413333e+00" height="4.401091e+01" vector-effect="non-scaling-stroke" x="1.015467e+02" y="0"/><rect vector-effect="non-scaling-stroke" x="1.228800e+02" y="0" width="3.413333e+00" height="4.401638e+01"/><rect x="1.442133e+02" y="0" width="3.413333e+00" height="4.423949e+01" vector-effect="non-scaling-stroke"/><rect height="4.400048e+01" vector-effect="non-scaling-stroke" x="1.655467e+02" y="0" width="3.413333e+00"/><rect vector-effect="non-scaling-stroke" x="1.868800e+02" y="0" width="3.413333e+00" height="4.402134e+01"/><rect height="4.405184e+01" vector-effect="non-scaling-stroke" x="2.082133e+02" y="0" width="3.413333e+00"/><rect height="4.419747e+01" vector-effect="non-scaling-stroke" x="2.295467e+02" y="0" width="3.413333e+00"/><rect x="2.508800e+02" y="0" width="3.413333e+00" height="4.401340e+01" vector-effect="non-scaling-stroke"/><rect vector-effect="non-scaling-stroke" x="2.722133e+02" y="0" width="3.413333e+00" height="4.415957e+01"/><rect width="3.413333e+00" height="4.421317e+01" vector-effect="non-scaling-stroke" x="2.935467e+02" y="0"/><rect vector-effect="non-scaling-stroke" x="3.148800e+02" y="0" width="3.413333e+00" height="4.407658e+01"/><rect y="0" width="3.413333e+00" height="4.407571e+01" vector-effect="non-scaling-stroke" x="3.362133e+02"/><rect x="3.575467e+02" y="0" width="3.413333e+00" height="5.582588e+01" vector-effect="non-scaling-stroke"/><rect vector-effect="non-scaling-stroke" x="3.788800e+02" y="0" width="3.413333e+00" height="4.400558e+01"/><rect width="3.413333e+00" height="4.454731e+01" vector-effect="non-scaling-stroke" x="4.002133e+02" y="0"/><rect x="4.215467e+02" y="0" width="3.413333e+00" height="5.534763e+01" vector-effect="non-scaling-stroke"/><rect height="2.568650e+02" vector-effect="non-scaling-stroke" x="4.428800e+02" y="0" width="3.413333e+00"/><rect y="0" width="3.413333e+00" height="5.011302e+01" vector-effect="non-scaling-stroke" x="4.642133e+02"/><rect y="0" width="3.413333e+00" height="4.444131e+01" vector-effect="non-scaling-stroke" x="4.855467e+02"/><rect height="4.608595e+01" vector-effect="non-scaling-stroke" x="5.068800e+02" y="0" width="3.413333e+00"/><rect vector-effect="non-scaling-stroke" x="5.282133e+02" y="0" width="3.413333e+00" height="1.544129e+02"/><rect vector-effect="non-scaling-stroke" x="5.495467e+02" y="0" width="3.413333e+00" height="4.400084e+01"/><rect height="5.540219e+01" vector-effect="non-scaling-stroke" x="5.708800e+02" y="0" width="3.413333e+00"/></g><g fill="hsl(260, 76%, 65%)" stroke="hsl(260, 76%, 65%)" stroke-width="1px" stroke-linecap="round" stroke-linejoin="round" transform="translate(80 520 )scale(1 -1 )"><rect height="4.456454e+01" vector-effect="non-scaling-stroke" x="6.229333e+01" y="0" width="3.413333e+00"/><rect y="0" width="3.413333e+00" height="4.460785e+01" vector-effect="non-scaling-stroke" x="8.362667e+01"/><rect vector-effect="non-scaling-stroke" x="1.049600e+02" y="0" width="3.413333e+00" height="4.481477e+01"/><rect y="0" width="3.413333e+00" height="4.403502e+01" vector-effect="non-scaling-stroke" x="1.262933e+02"/><rect vector-effect="non-scaling-stroke" x="1.476267e+02" y="0" width="3.413333e+00" height="44"/><rect vector-effect="non-scaling-stroke" x="1.689600e+02" y="0" width="3.413333e+00" height="44"/><rect vector-effect="non-scaling-stroke" x="1.902933e+02" y="0" width="3.413333e+00" height="44"/><rect width="3.413333e+00" height="44" vector-effect="non-scaling-stroke" x="2.116267e+02" y="0"/><rect vector-effect="non-scaling-stroke" x="2.329600e+02" y="0" width="3.413333e+00" height="44"/><rect y="0" width="3.413333e+00" height="44" vector-effect="non-scaling-stroke" x="2.542933e+02"/><rect width="3.413333e+00" height="44" vector-effect="non-scaling-stroke" x="2.756267e+02" y="0"/><rect width="3.413333e+00" height="44" vector-effect="non-scaling-stroke" x="2.969600e+02" y="0"/><rect vector-effect="non-scaling-stroke" x="3.182933e+02" y="0" width="3.413333e+00" height="44"/><rect width="3.413333e+00" height="44" vector-effect="non-scaling-stroke" x="3.396267e+02" y="0"/><rect x="3.609600e+02" y="0" width="3.413333e+00" height="44" vector-effect="non-scaling-stroke"/><rect x="3.822933e+02" y="0" width="3.413333e+00" height="44" vector-effect="non-scaling-stroke"/><rect y="0" width="3.413333e+00" height="44" vector-effect="non-scaling-stroke" x="4.036267e+02"/><rect x="4.249600e+02" y="0" width="3.413333e+00" height="44" vector-effect="non-scaling-stroke"/><rect x="4.462933e+02" y="0" width="3.413333e+00" height="44" vector-effect="non-scaling-stroke"/><rect y="0" width="3.413333e+00" height="44" vector-effect="non-scaling-stroke" x="4.676267e+02"/><rect vector-effect="non-scaling-stroke" x="4.889600e+02" y="0" width="3.413333e+00" height="44"/><rect x="5.102933e+02" y="0" width="3.413333e+00" height="44" vector-effect="non-scaling-stroke"/><rect vector-effect="non-scaling-stroke" x="5.316267e+02" y="0" width="3.413333e+00" height="44"/><rect width="3.413333e+00" height="44" vector-effect="non-scaling-stroke" x="5.529600e+02" y="0"/><rect y="0" width="3.413333e+00" height="44" vector-effect="non-scaling-stroke" x="5.742933e+02"/></g><g stroke-width="1px" stroke-linecap="round" stroke-linejoin="round" transform="translate(80 520 )scale(1 -1 )" fill="hsl(111, 64%, 65%)" stroke="hsl(111, 64%, 65%)"><rect x="6.570667e+01" y="0" width="3.413333e+00" height="4.400614e+01" vector-effect="non-scaling-stroke"/><rect vector-effect="non-scaling-stroke" x="8.704000e+01" y="0" width="3.413333e+00" height="4.400032e+01"/><rect vector-effect="non-scaling-stroke" x="1.083733e+02" y="0" width="3.413333e+00" height="4.400909e+01"/><rect vector-effect="non-scaling-stroke" x="1.297067e+02" y="0" width="3.413333e+00" height="4.402285e+01"/><rect vector-effect="non-scaling-stroke" x="1.510400e+02" y="0" width="3.413333e+00" height="4.423189e+01"/><rect width="3.413333e+00" height="4.400037e+01" vector-effect="non-scaling-stroke" x="1.723733e+02" y="0"/><rect x="1.937067e+02" y="0" width="3.413333e+00" height="4.400763e+01" vector-effect="non-scaling-stroke"/><rect height="4.401073e+01" vector-effect="non-scaling-stroke" x="2.150400e+02" y="0" width="3.413333e+00"/><rect y="0" width="3.413333e+00" height="4.404719e+01" vector-effect="non-scaling-stroke" x="2.363733e+02"/><rect width="3.413333e+00" height="4.401779e+01" vector-effect="non-scaling-stroke" x="2.577067e+02" y="0"/><rect vector-effect="non-scaling-stroke" x="2.790400e+02" y="0" width="3.413333e+00" height="4.405318e+01"/><rect width="3.413333e+00" height="4.580912e+01" vector-effect="non-scaling-stroke" x="3.003733e+02" y="0"/><rect width="3.413333e+00" height="4.410378e+01" vector-effect="non-scaling-stroke" x="3.217067e+02" y="0"/><rect height="4.400870e+01" vector-effect="non-scaling-stroke" x="3.430400e+02" y="0" width="3.413333e+00"/><rect vector-effect="non-scaling-stroke" x="3.643733e+02" y="0" width="3.413333e+00" height="7.024744e+01"/><rect height="4.400302e+01" vector-effect="non-scaling-stroke" x="3.857067e+02" y="0" width="3.413333e+00"/><rect y="0" width="3.413333e+00" height="4.461278e+01" vector-effect="non-scaling-stroke" x="4.070400e+02"/><rect vector-effect="non-scaling-stroke" x="4.283733e+02" y="0" width="3.413333e+00" height="5.346074e+01"/><rect x="4.497067e+02" y="0" width="3.413333e+00" height="4.849954e+01" vector-effect="non-scaling-stroke"/><rect x="4.710400e+02" y="0" width="3.413333e+00" height="5.224083e+01" vector-effect="non-scaling-stroke"/><rect y="0" width="3.413333e+00" height="4.400055e+01" vector-effect="non-scaling-stroke" x="4.923733e+02"/><rect vector-effect="non-scaling-stroke" x="5.137067e+02" y="0" width="3.413333e+00" height="4.933990e+01"/><rect height="396" vector-effect="non-scaling-stroke" x="5.350400e+02" y="0" width="3.413333e+00"/><rect vector-effect="non-scaling-stroke" x="5.563733e+02" y="0" width="3.413333e+00" height="4.400386e+01"/><rect vector-effect="non-scaling-stroke" x="5.777067e+02" y="0" width="3.413333e+00" height="5.423912e+01"/></g><g stroke-width="1px" stroke-linecap="round" stroke-linejoin="round" transform="translate(80 520 )scale(1 -1 )" fill="hsl(322, 52%, 65%)" stroke="hsl(322, 52%, 65%)"><rect y="0" width="3.413333e+00" height="4.400338e+01" vector-effect="non-scaling-stroke" x="6.912000e+01"/><rect y="0" width="3.413333e+00" height="4.400024e+01" vector-effect="non-scaling-stroke" x="9.045333e+01"/><rect vector-effect="non-scaling-stroke" x="1.117867e+02" y="0" width="3.413333e+00" height="4.401741e+01"/><rect width="3.413333e+00" height="4.401218e+01" vector-effect="non-scaling-stroke" x="1.331200e+02" y="0"/><rect width="3.413333e+00" height="4.424729e+01" vector-effect="non-scaling-stroke" x="1.544533e+02" y="0"/><rect vector-effect="non-scaling-stroke" x="1.757867e+02" y="0" width="3.413333e+00" height="4.400024e+01"/><rect width="3.413333e+00" height="4.401248e+01" vector-effect="non-scaling-stroke" x="1.971200e+02" y="0"/><rect vector-effect="non-scaling-stroke" x="2.184533e+02" y="0" width="3.413333e+00" height="4.448355e+01"/><rect y="0" width="3.413333e+00" height="4.406274e+01" vector-effect="non-scaling-stroke" x="2.397867e+02"/><rect width="3.413333e+00" height="4.401198e+01" vector-effect="non-scaling-stroke" x="2.611200e+02" y="0"/><rect vector-effect="non-scaling-stroke" x="2.824533e+02" y="0" width="3.413333e+00" height="4.404814e+01"/><rect vector-effect="non-scaling-stroke" x="3.037867e+02" y="0" width="3.413333e+00" height="4.406038e+01"/><rect y="0" width="3.413333e+00" height="4.408880e+01" vector-effect="non-scaling-stroke" x="3.251200e+02"/><rect height="4.403128e+01" vector-effect="non-scaling-stroke" x="3.464533e+02" y="0" width="3.413333e+00"/><rect vector-effect="non-scaling-stroke" x="3.677867e+02" y="0" width="3.413333e+00" height="4.902652e+01"/><rect vector-effect="non-scaling-stroke" x="3.891200e+02" y="0" width="3.413333e+00" height="4.411679e+01"/><rect y="0" width="3.413333e+00" height="4.438622e+01" vector-effect="non-scaling-stroke" x="4.104533e+02"/><rect height="4.780709e+01" vector-effect="non-scaling-stroke" x="4.317867e+02" y="0" width="3.413333e+00"/><rect height="44" vector-effect="non-scaling-stroke" x="4.531200e+02" y="0" width="3.413333e+00"/><rect y="0" width="3.413333e+00" height="44" vector-effect="non-scaling-stroke" x="4.744533e+02"/><rect vector-effect="non-scaling-stroke" x="4.957867e+02" y="0" width="3.413333e+00" height="4.409883e+01"/><rect width="3.413333e+00" height="44" vector-effect="non-scaling-stroke" x="5.171200e+02" y="0"/><rect vector-effect="non-scaling-stroke" x="5.384533e+02" y="0" width="3.413333e+00" height="44"/><rect x="5.597867e+02" y="0" width="3.413333e+00" height="44" vector-effect="non-scaling-stroke"/><rect x="5.811200e+02" y="0" width="3.413333e+00" height="44" vector-effect="non-scaling-stroke"/></g><g text-anchor="start" font-size="12px" stroke="hsl(198, 47%, 65%)" stroke-width="1px" font-weight="normal" font-style="normal" fill="hsl(198, 47%, 65%)" dominant-baseline="hanging" stroke-linecap="round" stroke-linejoin="round" font-family="sans-serif"><rect vector-effect="non-scaling-stroke" x="736" y="430" width="12" height="12"/><g fill="black" stroke="black"><text x="752" y="430" dominant-baseline="hanging" stroke="none" vector-effect="non-scaling-stroke">Crystal</text></g><g dominant-baseline="hanging" font-style="normal" font-weight="normal" text-anchor="start" fill="hsl(49, 88%, 65%)" stroke="hsl(49, 88%, 65%)" stroke-linecap="round" font-size="12px" font-family="sans-serif" stroke-width="1px" stroke-linejoin="round"><rect x="736" y="448" width="12" height="12" vector-effect="non-scaling-stroke"/><g stroke="black" fill="black"><text stroke="none" vector-effect="non-scaling-stroke" x="752" y="448" dominant-baseline="hanging">Golang</text></g><g stroke="hsl(260, 76%, 65%)" stroke-width="1px" font-family="sans-serif" font-style="normal" text-anchor="start" font-size="12px" stroke-linecap="round" stroke-linejoin="round" font-weight="normal" fill="hsl(260, 76%, 65%)" dominant-baseline="hanging"><rect height="12" vector-effect="non-scaling-stroke" x="736" y="466" width="12"/><g fill="black" stroke="black"><text stroke="none" vector-effect="non-scaling-stroke" x="752" y="466" dominant-baseline="hanging">Haskell</text></g><g font-size="12px" font-family="sans-serif" font-style="normal" font-weight="normal" stroke-width="1px" stroke-linecap="round" stroke-linejoin="round" text-anchor="start" fill="hsl(111, 64%, 65%)" stroke="hsl(111, 64%, 65%)" dominant-baseline="hanging"><rect y="484" width="12" height="12" vector-effect="non-scaling-stroke" x="736"/><g fill="black" stroke="black"><text vector-effect="non-scaling-stroke" x="752" y="484" dominant-baseline="hanging" stroke="none">Rust</text></g><g stroke="hsl(322, 52%, 65%)" stroke-linejoin="round" font-weight="normal" fill="hsl(322, 52%, 65%)" stroke-linecap="round" dominant-baseline="hanging" stroke-width="1px" font-family="sans-serif" font-style="normal" text-anchor="start" font-size="12px"><rect height="12" vector-effect="non-scaling-stroke" x="736" y="502" width="12"/><g fill="black" stroke="black"><text stroke="none" vector-effect="non-scaling-stroke" x="752" y="502" dominant-baseline="hanging">Zig</text><g fill="none" stroke-linejoin="round" stroke-linecap="round" font-size="12px" font-style="normal" stroke-width="2px" font-family="sans-serif" font-weight="normal" text-anchor="start" dominant-baseline="hanging"><rect height="440" vector-effect="non-scaling-stroke" x="80" y="80" width="640"/></g><g font-size="12px" stroke="black" stroke-width="2px" stroke-linejoin="round" font-family="sans-serif" font-weight="normal" text-anchor="start" stroke-linecap="round" fill="none" font-style="normal" dominant-baseline="hanging" transform="translate(80 520 )scale(1 -1 )"><path vector-effect="non-scaling-stroke" d="M64,0 L64,-6 M8.533333e+01,0 L8.533333e+01,-6 M1.066667e+02,0 L1.066667e+02,-6 M128,0 L128,-6 M1.493333e+02,0 L1.493333e+02,-6 M1.706667e+02,0 L1.706667e+02,-6 M192,0 L192,-6 M2.133333e+02,0 L2.133333e+02,-6 M2.346667e+02,0 L2.346667e+02,-6 M256,0 L256,-6 M2.773333e+02,0 L2.773333e+02,-6 M2.986667e+02,0 L2.986667e+02,-6 M320,0 L320,-6 M3.413333e+02,0 L3.413333e+02,-6 M3.626667e+02,0 L3.626667e+02,-6 M384,0 L384,-6 M4.053333e+02,0 L4.053333e+02,-6 M4.266667e+02,0 L4.266667e+02,-6 M448,0 L448,-6 M4.693333e+02,0 L4.693333e+02,-6 M4.906667e+02,0 L4.906667e+02,-6 M512,0 L512,-6 M5.333333e+02,0 L5.333333e+02,-6 M5.546667e+02,0 L5.546667e+02,-6 M576,0 L576,-6 "/></g><g font-weight="normal" fill="black" transform="translate(80 520 )scale(1 1 )" stroke-linecap="round" stroke-linejoin="round" font-family="sans-serif" text-anchor="middle" stroke="black" dominant-baseline="hanging" font-size="12px" stroke-width="2px" font-style="normal"><text vector-effect="non-scaling-stroke" x="64" y="10" dominant-baseline="hanging" stroke="none">1</text><text stroke="none" vector-effect="non-scaling-stroke" x="8.533333e+01" y="10" dominant-baseline="hanging">2</text><text x="1.066667e+02" y="10" dominant-baseline="hanging" stroke="none" vector-effect="non-scaling-stroke">3</text><text vector-effect="non-scaling-stroke" x="128" y="10" dominant-baseline="hanging" stroke="none">4</text><text dominant-baseline="hanging" stroke="none" vector-effect="non-scaling-stroke" x="1.493333e+02" y="10">5</text><text dominant-baseline="hanging" stroke="none" vector-effect="non-scaling-stroke" x="1.706667e+02" y="10">6</text><text dominant-baseline="hanging" stroke="none" vector-effect="non-scaling-stroke" x="192" y="10">7</text><text stroke="none" vector-effect="non-scaling-stroke" x="2.133333e+02" y="10" dominant-baseline="hanging">8</text><text x="2.346667e+02" y="10" dominant-baseline="hanging" stroke="none" vector-effect="non-scaling-stroke">9</text><text y="10" dominant-baseline="hanging" stroke="none" vector-effect="non-scaling-stroke" x="256">10</text><text x="2.773333e+02" y="10" dominant-baseline="hanging" stroke="none" vector-effect="non-scaling-stroke">11</text><text vector-effect="non-scaling-stroke" x="2.986667e+02" y="10" dominant-baseline="hanging" stroke="none">12</text><text y="10" dominant-baseline="hanging" stroke="none" vector-effect="non-scaling-stroke" x="320">13</text><text vector-effect="non-scaling-stroke" x="3.413333e+02" y="10" dominant-baseline="hanging" stroke="none">14</text><text x="3.626667e+02" y="10" dominant-baseline="hanging" stroke="none" vector-effect="non-scaling-stroke">15</text><text dominant-baseline="hanging" stroke="none" vector-effect="non-scaling-stroke" x="384" y="10">16</text><text y="10" dominant-baseline="hanging" stroke="none" vector-effect="non-scaling-stroke" x="4.053333e+02">17</text><text stroke="none" vector-effect="non-scaling-stroke" x="4.266667e+02" y="10" dominant-baseline="hanging">18</text><text vector-effect="non-scaling-stroke" x="448" y="10" dominant-baseline="hanging" stroke="none">19</text><text stroke="none" vector-effect="non-scaling-stroke" x="4.693333e+02" y="10" dominant-baseline="hanging">20</text><text x="4.906667e+02" y="10" dominant-baseline="hanging" stroke="none" vector-effect="non-scaling-stroke">21</text><text x="512" y="10" dominant-baseline="hanging" stroke="none" vector-effect="non-scaling-stroke">22</text><text vector-effect="non-scaling-stroke" x="5.333333e+02" y="10" dominant-baseline="hanging" stroke="none">23</text><text dominant-baseline="hanging" stroke="none" vector-effect="non-scaling-stroke" x="5.546667e+02" y="10">24</text><text y="10" dominant-baseline="hanging" stroke="none" vector-effect="non-scaling-stroke" x="576">25</text></g><g stroke-linejoin="round" font-family="sans-serif" stroke-linecap="round" dominant-baseline="baseline" font-style="normal" stroke-width="2px" fill="black" stroke="black" font-size="12px" transform="translate(80 520 )scale(1 1 )rotate(0 0 0 )" font-weight="bold" text-anchor="middle"><text stroke="none" vector-effect="non-scaling-stroke" x="320" y="-6" dominant-baseline="baseline">Day</text></g><g stroke="black" stroke-linejoin="round" dominant-baseline="baseline" font-size="12px" transform="translate(80 520 )scale(1 -1 )" fill="black" stroke-width="2px" font-family="sans-serif" font-style="normal" font-weight="bold" stroke-linecap="round" text-anchor="middle"><path vector-effect="non-scaling-stroke" d="M0,44 L-6,44 M0,8.774595e+01 L-6,8.774595e+01 M0,1.314919e+02 L-6,1.314919e+02 M0,1.752378e+02 L-6,1.752378e+02 M0,2.189838e+02 L-6,2.189838e+02 M0,2.627297e+02 L-6,2.627297e+02 M0,3.064757e+02 L-6,3.064757e+02 M0,3.502216e+02 L-6,3.502216e+02 M0,3.939676e+02 L-6,3.939676e+02 "/></g><g stroke-width="2px" font-family="sans-serif" transform="translate(80 520 )scale(1 1 )" stroke-linecap="round" font-size="12px" font-weight="normal" text-anchor="end" fill="black" stroke="black" stroke-linejoin="round" font-style="normal" dominant-baseline="middle"><text vector-effect="non-scaling-stroke" x="-10" y="-44" dominant-baseline="middle" stroke="none">0s</text><text stroke="none" vector-effect="non-scaling-stroke" x="-10" y="-8.774595e+01" dominant-baseline="middle">200ms</text><text x="-10" y="-1.314919e+02" dominant-baseline="middle" stroke="none" vector-effect="non-scaling-stroke">400ms</text><text x="-10" y="-1.752378e+02" dominant-baseline="middle" stroke="none" vector-effect="non-scaling-stroke">600ms</text><text dominant-baseline="middle" stroke="none" vector-effect="non-scaling-stroke" x="-10" y="-2.189838e+02">800ms</text><text y="-2.627297e+02" dominant-baseline="middle" stroke="none" vector-effect="non-scaling-stroke" x="-10">1s</text><text vector-effect="non-scaling-stroke" x="-10" y="-3.064757e+02" dominant-baseline="middle" stroke="none">1.2s</text><text stroke="none" vector-effect="non-scaling-stroke" x="-10" y="-3.502216e+02" dominant-baseline="middle">1.4s</text><text x="-10" y="-3.939676e+02" dominant-baseline="middle" stroke="none" vector-effect="non-scaling-stroke">1.6s</text></g><g fill="black" stroke-linejoin="round" stroke-linecap="round" dominant-baseline="hanging" transform="translate(80 520 )scale(1 1 )rotate(-90 0 0 )" stroke="black" stroke-width="2px" font-family="sans-serif" font-style="normal" font-weight="bold" text-anchor="middle" font-size="12px"><text y="6" dominant-baseline="hanging" stroke="none" vector-effect="non-scaling-stroke" x="220">Runtime</text></g></g></g></g></g></g></g></svg>