<svg preserveAspectRatio="xMidYMid meet" xmlns="http://www.w3.org/2000/svg" width="800" height="600" viewbox="0 0 800 600"><defs><marker markerUnits="userSpaceOnUse" markerWidth="2%" markerHeight="2%" id="circle" viewBox="0 0 10 10 " refX="5" refY="5"><circle fill="none" stroke="black" cx="5" cy="5" r="3"/></marker><marker markerHeight="2%" id="filled-circle" viewBox="0 0 10 10 " refX="5" refY="5" markerUnits="userSpaceOnUse" markerWidth="2%"><circle cx="5" cy="5" r="3" fill="black" stroke="none"/></marker><marker refY="5" markerUnits="userSpaceOnUse" markerWidth="2%" markerHeight="2%" id="square" viewBox="0 0 10 10 " refX="5"><rect fill="none" stroke="black" x="2" y="2" width="6" height="6"/></marker><marker markerUnits="userSpaceOnUse" markerWidth="2%" markerHeight="2%" id="filled-square" viewBox="0 0 10 10 " refX="5" refY="5"><rect y="2" width="6" height="6" fill="black" stroke="none" x="2"/></marker></defs><g stroke-linejoin="round" transform="translate(80 520 )scale(1 -1 )" fill="hsl(198, 47%, 65%)" stroke="hsl(198, 47%, 65%)" stroke-width="1px" stroke-linecap="round"><rect width="1.833333e+01" height="396" vector-effect="non-scaling-stroke" x="3.650000e+01" y="0"/></g><g stroke-linejoin="round" transform="translate(80 520 )scale(1 -1 )" fill="hsl(49, 88%, 65%)" stroke="hsl(49, 88%, 65%)" stroke-width="1px" stroke-linecap="round"><rect width="1.833333e+01" height="2.163614e+02" vector-effect="non-scaling-stroke" x="5.483333e+01" y="0"/></g><g stroke-linejoin="round" transform="translate(80 520 )scale(1 -1 )" fill="hsl(260, 76%, 65%)" stroke="hsl(260, 76%, 65%)" stroke-width="1px" stroke-linecap="round"><rect width="1.833333e+01" height="1.849813e+02" vector-effect="non-scaling-stroke" x="7.316667e+01" y="0"/></g><g font-family="sans-serif" dominant-baseline="hanging" stroke="hsl(198, 47%, 65%)" font-style="normal" stroke-width="1px" stroke-linecap="round" stroke-linejoin="round" font-size="12px" font-weight="normal" fill="hsl(198, 47%, 65%)" text-anchor="start"><rect width="12" height="12" vector-effect="non-scaling-stroke" x="736" y="466"/><g stroke="black" fill="black"><text vector-effect="non-scaling-stroke" x="752" y="466" dominant-baseline="hanging" stroke="none">Golang</text></g><g font-weight="normal" dominant-baseline="hanging" stroke-linecap="round" stroke-linejoin="round" font-family="sans-serif" font-size="12px" stroke-width="1px" font-style="normal" stroke="hsl(49, 88%, 65%)" text-anchor="start" fill="hsl(49, 88%, 65%)"><rect height="12" vector-effect="non-scaling-stroke" x="736" y="484" width="12"/><g fill="black" stroke="black"><text dominant-baseline="hanging" stroke="none" vector-effect="non-scaling-stroke" x="752" y="484">Rust</text></g><g font-style="normal" fill="hsl(260, 76%, 65%)" stroke="hsl(260, 76%, 65%)" stroke-linecap="round" stroke-linejoin="round" stroke-width="1px" text-anchor="start" dominant-baseline="hanging" font-family="sans-serif" font-size="12px" font-weight="normal"><rect y="502" width="12" height="12" vector-effect="non-scaling-stroke" x="736"/><g fill="black" stroke="black"><text vector-effect="non-scaling-stroke" x="752" y="502" dominant-baseline="hanging" stroke="none">Zig</text><g dominant-baseline="hanging" stroke-width="2px" font-size="12px" stroke-linecap="round" font-family="sans-serif" text-anchor="start" fill="none" font-style="normal" font-weight="normal" stroke-linejoin="round"><rect vector-effect="non-scaling-stroke" x="80" y="80" width="640" height="440"/></g><g text-anchor="start" dominant-baseline="hanging" fill="none" stroke-linecap="round" stroke-linejoin="round" stroke-width="2px" font-style="normal" font-size="12px" font-weight="normal" stroke="black" transform="translate(80 520 )scale(1 -1 )" font-family="sans-serif"><path d="M64,0 L64,-6 " vector-effect="non-scaling-stroke"/></g><g font-size="12px" dominant-baseline="hanging" stroke-linecap="round" font-family="sans-serif" font-style="normal" text-anchor="middle" transform="translate(80 520 )scale(1 1 )" font-weight="normal" fill="black" stroke="black" stroke-linejoin="round" stroke-width="2px"><text y="10" dominant-baseline="hanging" stroke="none" vector-effect="non-scaling-stroke" x="64">1</text></g><g stroke-linejoin="round" font-family="sans-serif" font-style="normal" text-anchor="middle" fill="black" stroke="black" stroke-linecap="round" stroke-width="2px" transform="translate(80 520 )scale(1 1 )rotate(0 0 0 )" dominant-baseline="baseline" font-size="12px" font-weight="bold"><text stroke="none" vector-effect="non-scaling-stroke" x="320" y="-6" dominant-baseline="baseline">Day</text></g><g transform="translate(80 520 )scale(1 -1 )" dominant-baseline="baseline" font-family="sans-serif" font-size="12px" font-weight="bold" font-style="normal" text-anchor="middle" fill="black" stroke="black" stroke-linecap="round" stroke-linejoin="round" stroke-width="2px"><path vector-effect="non-scaling-stroke" d="M0,1.554418e+02 L-6,1.554418e+02 M0,1.925890e+02 L-6,1.925890e+02 M0,2.297363e+02 L-6,2.297363e+02 M0,2.668836e+02 L-6,2.668836e+02 M0,3.040308e+02 L-6,3.040308e+02 M0,3.411781e+02 L-6,3.411781e+02 M0,3.783253e+02 L-6,3.783253e+02 "/></g><g stroke-width="2px" text-anchor="end" font-family="sans-serif" font-weight="normal" fill="black" stroke="black" transform="translate(80 520 )scale(1 1 )" font-style="normal" stroke-linejoin="round" font-size="12px" dominant-baseline="middle" stroke-linecap="round"><text stroke="none" vector-effect="non-scaling-stroke" x="-10" y="-1.554418e+02" dominant-baseline="middle">60µs</text><text x="-10" y="-1.925890e+02" dominant-baseline="middle" stroke="none" vector-effect="non-scaling-stroke">80µs</text><text x="-10" y="-2.297363e+02" dominant-baseline="middle" stroke="none" vector-effect="non-scaling-stroke">100µs</text><text stroke="none" vector-effect="non-scaling-stroke" x="-10" y="-2.668836e+02" dominant-baseline="middle">120µs</text><text dominant-baseline="middle" stroke="none" vector-effect="non-scaling-stroke" x="-10" y="-3.040308e+02">140µs</text><text dominant-baseline="middle" stroke="none" vector-effect="non-scaling-stroke" x="-10" y="-3.411781e+02">160µs</text><text stroke="none" vector-effect="non-scaling-stroke" x="-10" y="-3.783253e+02" dominant-baseline="middle">180µs</text></g><g font-style="normal" text-anchor="middle" font-family="sans-serif" font-weight="bold" stroke-linejoin="round" font-size="12px" dominant-baseline="hanging" fill="black" transform="translate(80 520 )scale(1 1 )rotate(-90 0 0 )" stroke-width="2px" stroke="black" stroke-linecap="round"><text x="220" y="6" dominant-baseline="hanging" stroke="none" vector-effect="non-scaling-stroke">Runtime</text></g></g></g></g></g></svg>