<svg preserveAspectRatio="xMidYMid meet" xmlns="http://www.w3.org/2000/svg" width="800" height="600" viewbox="0 0 800 600"><defs><marker refX="5" refY="5" markerUnits="userSpaceOnUse" markerWidth="2%" markerHeight="2%" id="circle" viewBox="0 0 10 10 "><circle cx="5" cy="5" r="3" fill="none" stroke="black"/></marker><marker markerWidth="2%" markerHeight="2%" id="filled-circle" viewBox="0 0 10 10 " refX="5" refY="5" markerUnits="userSpaceOnUse"><circle fill="black" stroke="none" cx="5" cy="5" r="3"/></marker><marker id="square" viewBox="0 0 10 10 " refX="5" refY="5" markerUnits="userSpaceOnUse" markerWidth="2%" markerHeight="2%"><rect y="2" width="6" height="6" fill="none" stroke="black" x="2"/></marker><marker markerWidth="2%" markerHeight="2%" id="filled-square" viewBox="0 0 10 10 " refX="5" refY="5" markerUnits="userSpaceOnUse"><rect height="6" fill="black" stroke="none" x="2" y="2" width="6"/></marker></defs><g stroke-linejoin="round" transform="translate(80 520 )scale(1 -1 )" fill="hsl(198, 47%, 65%)" stroke="hsl(198, 47%, 65%)" stroke-width="1px" stroke-linecap="round"><rect width="6.464646e+00" height="4.416758e+01" vector-effect="non-scaling-stroke" x="5.430303e+01" y="0"/><rect vector-effect="non-scaling-stroke" x="7.563636e+01" y="0" width="6.464646e+00" height="4.416874e+01"/><rect height="4.410325e+01" vector-effect="non-scaling-stroke" x="9.696970e+01" y="0" width="6.464646e+00"/><rect y="0" width="6.464646e+00" height="4.496499e+01" vector-effect="non-scaling-stroke" x="1.183030e+02"/><rect vector-effect="non-scaling-stroke" x="1.396364e+02" y="0" width="6.464646e+00" height="4.410829e+01"/><rect y="0" width="6.464646e+00" height="2.986285e+02" vector-effect="non-scaling-stroke" x="1.609697e+02"/><rect vector-effect="non-scaling-stroke" x="1.823030e+02" y="0" width="6.464646e+00" height="1.036935e+02"/><rect vector-effect="non-scaling-stroke" x="2.036364e+02" y="0" width="6.464646e+00" height="4.402470e+01"/><rect height="4.564019e+01" vector-effect="non-scaling-stroke" x="2.249697e+02" y="0" width="6.464646e+00"/><rect height="4.440481e+01" vector-effect="non-scaling-stroke" x="2.463030e+02" y="0" width="6.464646e+00"/><rect x="2.676364e+02" y="0" width="6.464646e+00" height="4.891033e+01" vector-effect="non-scaling-stroke"/><rect vector-effect="non-scaling-stroke" x="2.889697e+02" y="0" width="6.464646e+00" height="4.609875e+01"/><rect width="6.464646e+00" height="4.402486e+01" vector-effect="non-scaling-stroke" x="3.103030e+02" y="0"/><rect height="6.394317e+01" vector-effect="non-scaling-stroke" x="3.316364e+02" y="0" width="6.464646e+00"/><rect x="3.529697e+02" y="0" width="6.464646e+00" height="4.634351e+01" vector-effect="non-scaling-stroke"/><rect x="3.743030e+02" y="0" width="6.464646e+00" height="9.329568e+01" vector-effect="non-scaling-stroke"/><rect y="0" width="6.464646e+00" height="4.406934e+01" vector-effect="non-scaling-stroke" x="3.956364e+02"/><rect x="4.169697e+02" y="0" width="6.464646e+00" height="4.473562e+01" vector-effect="non-scaling-stroke"/><rect width="6.464646e+00" height="4.896618e+01" vector-effect="non-scaling-stroke" x="4.383030e+02" y="0"/><rect height="1.149694e+02" vector-effect="non-scaling-stroke" x="4.596364e+02" y="0" width="6.464646e+00"/><rect vector-effect="non-scaling-stroke" x="4.809697e+02" y="0" width="6.464646e+00" height="4.400021e+01"/><rect width="6.464646e+00" height="2.111228e+02" vector-effect="non-scaling-stroke" x="5.023030e+02" y="0"/></g><g stroke-linejoin="round" transform="translate(80 520 )scale(1 -1 )" fill="hsl(49, 88%, 65%)" stroke="hsl(49, 88%, 65%)" stroke-width="1px" stroke-linecap="round"><rect width="6.464646e+00" height="4.406571e+01" vector-effect="non-scaling-stroke" x="6.076768e+01" y="0"/><rect vector-effect="non-scaling-stroke" x="8.210101e+01" y="0" width="6.464646e+00" height="4.415275e+01"/><rect vector-effect="non-scaling-stroke" x="1.034343e+02" y="0" width="6.464646e+00" height="4.403144e+01"/><rect vector-effect="non-scaling-stroke" x="1.247677e+02" y="0" width="6.464646e+00" height="4.561069e+01"/><rect width="6.464646e+00" height="4.406104e+01" vector-effect="non-scaling-stroke" x="1.461010e+02" y="0"/><rect y="0" width="6.464646e+00" height="2.374311e+02" vector-effect="non-scaling-stroke" x="1.674343e+02"/><rect height="1.044027e+02" vector-effect="non-scaling-stroke" x="1.887677e+02" y="0" width="6.464646e+00"/><rect vector-effect="non-scaling-stroke" x="2.101010e+02" y="0" width="6.464646e+00" height="4.401175e+01"/><rect height="4.610335e+01" vector-effect="non-scaling-stroke" x="2.314343e+02" y="0" width="6.464646e+00"/><rect x="2.527677e+02" y="0" width="6.464646e+00" height="4.413231e+01" vector-effect="non-scaling-stroke"/><rect height="4.775077e+01" vector-effect="non-scaling-stroke" x="2.741010e+02" y="0" width="6.464646e+00"/><rect width="6.464646e+00" height="4.559995e+01" vector-effect="non-scaling-stroke" x="2.954343e+02" y="0"/><rect x="3.167677e+02" y="0" width="6.464646e+00" height="4.402002e+01" vector-effect="non-scaling-stroke"/><rect x="3.381010e+02" y="0" width="6.464646e+00" height="5.749868e+01" vector-effect="non-scaling-stroke"/><rect width="6.464646e+00" height="5.072570e+01" vector-effect="non-scaling-stroke" x="3.594343e+02" y="0"/><rect height="6.418455e+01" vector-effect="non-scaling-stroke" x="3.807677e+02" y="0" width="6.464646e+00"/><rect width="6.464646e+00" height="4.463000e+01" vector-effect="non-scaling-stroke" x="4.021010e+02" y="0"/><rect y="0" width="6.464646e+00" height="4.443448e+01" vector-effect="non-scaling-stroke" x="4.234343e+02"/><rect vector-effect="non-scaling-stroke" x="4.447677e+02" y="0" width="6.464646e+00" height="5.078020e+01"/><rect width="6.464646e+00" height="1.354317e+02" vector-effect="non-scaling-stroke" x="4.661010e+02" y="0"/><rect vector-effect="non-scaling-stroke" x="4.874343e+02" y="0" width="6.464646e+00" height="4.400010e+01"/><rect width="6.464646e+00" height="396" vector-effect="non-scaling-stroke" x="5.087677e+02" y="0"/></g><g stroke="hsl(260, 76%, 65%)" stroke-width="1px" stroke-linecap="round" stroke-linejoin="round" transform="translate(80 520 )scale(1 -1 )" fill="hsl(260, 76%, 65%)"><rect height="4.411224e+01" vector-effect="non-scaling-stroke" x="6.723232e+01" y="0" width="6.464646e+00"/><rect y="0" width="6.464646e+00" height="4.408377e+01" vector-effect="non-scaling-stroke" x="8.856566e+01"/><rect width="6.464646e+00" height="4.408508e+01" vector-effect="non-scaling-stroke" x="1.098990e+02" y="0"/></g><g dominant-baseline="hanging" stroke-linejoin="round" font-size="12px" stroke-linecap="round" fill="hsl(198, 47%, 65%)" stroke="hsl(198, 47%, 65%)" stroke-width="1px" font-family="sans-serif" text-anchor="start" font-style="normal" font-weight="normal"><rect width="12" height="12" vector-effect="non-scaling-stroke" x="736" y="466"/><g fill="black" stroke="black"><text stroke="none" vector-effect="non-scaling-stroke" x="752" y="466" dominant-baseline="hanging">Golang</text></g><g text-anchor="start" stroke="hsl(49, 88%, 65%)" font-family="sans-serif" stroke-linecap="round" font-style="normal" font-size="12px" fill="hsl(49, 88%, 65%)" stroke-width="1px" stroke-linejoin="round" font-weight="normal" dominant-baseline="hanging"><rect height="12" vector-effect="non-scaling-stroke" x="736" y="484" width="12"/><g stroke="black" fill="black"><text vector-effect="non-scaling-stroke" x="752" y="484" dominant-baseline="hanging" stroke="none">Rust</text></g><g stroke-width="1px" stroke-linecap="round" font-weight="normal" stroke-linejoin="round" font-family="sans-serif" text-anchor="start" dominant-baseline="hanging" font-style="normal" font-size="12px" fill="hsl(260, 76%, 65%)" stroke="hsl(260, 76%, 65%)"><rect vector-effect="non-scaling-stroke" x="736" y="502" width="12" height="12"/><g fill="black" stroke="black"><text x="752" y="502" dominant-baseline="hanging" stroke="none" vector-effect="non-scaling-stroke">Zig</text><g stroke-linejoin="round" fill="none" font-family="sans-serif" stroke-width="2px" stroke-linecap="round" font-weight="normal" font-style="normal" font-size="12px" text-anchor="start" dominant-baseline="hanging"><rect vector-effect="non-scaling-stroke" x="80" y="80" width="640" height="440"/></g><g stroke-linejoin="round" font-family="sans-serif" text-anchor="start" dominant-baseline="hanging" font-style="normal" stroke-width="2px" fill="none" stroke="black" transform="translate(80 520 )scale(1 -1 )" font-weight="normal" stroke-linecap="round" font-size="12px"><path vector-effect="non-scaling-stroke" d="M64,0 L64,-6 M8.533333e+01,0 L8.533333e+01,-6 M1.066667e+02,0 L1.066667e+02,-6 M128,0 L128,-6 M1.493333e+02,0 L1.493333e+02,-6 M1.706667e+02,0 L1.706667e+02,-6 M192,0 L192,-6 M2.133333e+02,0 L2.133333e+02,-6 M2.346667e+02,0 L2.346667e+02,-6 M256,0 L256,-6 M2.773333e+02,0 L2.773333e+02,-6 M2.986667e+02,0 L2.986667e+02,-6 M320,0 L320,-6 M3.413333e+02,0 L3.413333e+02,-6 M3.626667e+02,0 L3.626667e+02,-6 M384,0 L384,-6 M4.053333e+02,0 L4.053333e+02,-6 M4.266667e+02,0 L4.266667e+02,-6 M448,0 L448,-6 M4.693333e+02,0 L4.693333e+02,-6 M4.906667e+02,0 L4.906667e+02,-6 M512,0 L512,-6 "/></g><g fill="black" stroke="black" font-size="12px" text-anchor="middle" stroke-width="2px" stroke-linejoin="round" font-family="sans-serif" dominant-baseline="hanging" transform="translate(80 520 )scale(1 1 )" stroke-linecap="round" font-style="normal" font-weight="normal"><text y="10" dominant-baseline="hanging" stroke="none" vector-effect="non-scaling-stroke" x="64">1</text><text stroke="none" vector-effect="non-scaling-stroke" x="8.533333e+01" y="10" dominant-baseline="hanging">2</text><text stroke="none" vector-effect="non-scaling-stroke" x="1.066667e+02" y="10" dominant-baseline="hanging">3</text><text stroke="none" vector-effect="non-scaling-stroke" x="128" y="10" dominant-baseline="hanging">4</text><text y="10" dominant-baseline="hanging" stroke="none" vector-effect="non-scaling-stroke" x="1.493333e+02">5</text><text x="1.706667e+02" y="10" dominant-baseline="hanging" stroke="none" vector-effect="non-scaling-stroke">6</text><text y="10" dominant-baseline="hanging" stroke="none" vector-effect="non-scaling-stroke" x="192">7</text><text vector-effect="non-scaling-stroke" x="2.133333e+02" y="10" dominant-baseline="hanging" stroke="none">8</text><text y="10" dominant-baseline="hanging" stroke="none" vector-effect="non-scaling-stroke" x="2.346667e+02">9</text><text vector-effect="non-scaling-stroke" x="256" y="10" dominant-baseline="hanging" stroke="none">10</text><text stroke="none" vector-effect="non-scaling-stroke" x="2.773333e+02" y="10" dominant-baseline="hanging">11</text><text stroke="none" vector-effect="non-scaling-stroke" x="2.986667e+02" y="10" dominant-baseline="hanging">12</text><text dominant-baseline="hanging" stroke="none" vector-effect="non-scaling-stroke" x="320" y="10">13</text><text stroke="none" vector-effect="non-scaling-stroke" x="3.413333e+02" y="10" dominant-baseline="hanging">14</text><text y="10" dominant-baseline="hanging" stroke="none" vector-effect="non-scaling-stroke" x="3.626667e+02">15</text><text dominant-baseline="hanging" stroke="none" vector-effect="non-scaling-stroke" x="384" y="10">16</text><text stroke="none" vector-effect="non-scaling-stroke" x="4.053333e+02" y="10" dominant-baseline="hanging">17</text><text dominant-baseline="hanging" stroke="none" vector-effect="non-scaling-stroke" x="4.266667e+02" y="10">18</text><text vector-effect="non-scaling-stroke" x="448" y="10" dominant-baseline="hanging" stroke="none">19</text><text x="4.693333e+02" y="10" dominant-baseline="hanging" stroke="none" vector-effect="non-scaling-stroke">20</text><text vector-effect="non-scaling-stroke" x="4.906667e+02" y="10" dominant-baseline="hanging" stroke="none">21</text><text x="512" y="10" dominant-baseline="hanging" stroke="none" vector-effect="non-scaling-stroke">22</text></g><g stroke-width="2px" stroke-linejoin="round" text-anchor="middle" dominant-baseline="baseline" fill="black" stroke="black" font-family="sans-serif" font-size="12px" transform="translate(80 520 )scale(1 1 )rotate(0 0 0 )" stroke-linecap="round" font-style="normal" font-weight="bold"><text y="-6" dominant-baseline="baseline" stroke="none" vector-effect="non-scaling-stroke" x="320">Day</text></g><g stroke-linejoin="round" font-family="sans-serif" text-anchor="middle" transform="translate(80 520 )scale(1 -1 )" stroke-width="2px" font-size="12px" dominant-baseline="baseline" fill="black" font-style="normal" font-weight="bold" stroke-linecap="round" stroke="black"><path vector-effect="non-scaling-stroke" d="M0,44 L-6,44 M0,7.950267e+01 L-6,7.950267e+01 M0,1.150053e+02 L-6,1.150053e+02 M0,1.505080e+02 L-6,1.505080e+02 M0,1.860107e+02 L-6,1.860107e+02 M0,2.215134e+02 L-6,2.215134e+02 M0,2.570160e+02 L-6,2.570160e+02 M0,2.925187e+02 L-6,2.925187e+02 M0,3.280214e+02 L-6,3.280214e+02 M0,3.635240e+02 L-6,3.635240e+02 "/></g><g text-anchor="end" dominant-baseline="middle" stroke-linecap="round" font-style="normal" font-weight="normal" font-size="12px" fill="black" stroke="black" stroke-width="2px" stroke-linejoin="round" transform="translate(80 520 )scale(1 1 )" font-family="sans-serif"><text x="-10" y="-44" dominant-baseline="middle" stroke="none" vector-effect="non-scaling-stroke">0s</text><text x="-10" y="-7.950267e+01" dominant-baseline="middle" stroke="none" vector-effect="non-scaling-stroke">10ms</text><text x="-10" y="-1.150053e+02" dominant-baseline="middle" stroke="none" vector-effect="non-scaling-stroke">20ms</text><text stroke="none" vector-effect="non-scaling-stroke" x="-10" y="-1.505080e+02" dominant-baseline="middle">30ms</text><text stroke="none" vector-effect="non-scaling-stroke" x="-10" y="-1.860107e+02" dominant-baseline="middle">40ms</text><text dominant-baseline="middle" stroke="none" vector-effect="non-scaling-stroke" x="-10" y="-2.215134e+02">50ms</text><text vector-effect="non-scaling-stroke" x="-10" y="-2.570160e+02" dominant-baseline="middle" stroke="none">60ms</text><text x="-10" y="-2.925187e+02" dominant-baseline="middle" stroke="none" vector-effect="non-scaling-stroke">70ms</text><text stroke="none" vector-effect="non-scaling-stroke" x="-10" y="-3.280214e+02" dominant-baseline="middle">80ms</text><text vector-effect="non-scaling-stroke" x="-10" y="-3.635240e+02" dominant-baseline="middle" stroke="none">90ms</text></g><g stroke-width="2px" stroke-linejoin="round" font-family="sans-serif" font-style="normal" font-weight="bold" font-size="12px" dominant-baseline="hanging" fill="black" stroke-linecap="round" text-anchor="middle" stroke="black" transform="translate(80 520 )scale(1 1 )rotate(-90 0 0 )"><text stroke="none" vector-effect="non-scaling-stroke" x="220" y="6" dominant-baseline="hanging">Runtime</text></g></g></g></g></g></svg>