<svg height="600" viewbox="0 0 800 600" preserveAspectRatio="xMidYMid meet" xmlns="http://www.w3.org/2000/svg" width="800"><defs><marker markerUnits="userSpaceOnUse" markerWidth="2%" markerHeight="2%" id="circle" viewBox="0 0 10 10 " refX="5" refY="5"><circle r="3" fill="none" stroke="black" cx="5" cy="5"/></marker><marker markerUnits="userSpaceOnUse" markerWidth="2%" markerHeight="2%" id="filled-circle" viewBox="0 0 10 10 " refX="5" refY="5"><circle cy="5" r="3" fill="black" stroke="none" cx="5"/></marker><marker id="square" viewBox="0 0 10 10 " refX="5" refY="5" markerUnits="userSpaceOnUse" markerWidth="2%" markerHeight="2%"><rect stroke="black" x="2" y="2" width="6" height="6" fill="none"/></marker><marker markerHeight="2%" id="filled-square" viewBox="0 0 10 10 " refX="5" refY="5" markerUnits="userSpaceOnUse" markerWidth="2%"><rect stroke="none" x="2" y="2" width="6" height="6" fill="black"/></marker></defs><g fill="hsl(198, 47%, 65%)" stroke="hsl(198, 47%, 65%)" stroke-width="1px" stroke-linecap="round" stroke-linejoin="round" transform="translate(80 520 )scale(1 -1 )"><rect vector-effect="non-scaling-stroke" x="5.384127e+01" y="0" width="1.015873e+01" height="4.400775e+01"/><rect vector-effect="non-scaling-stroke" x="7.517460e+01" y="0" width="1.015873e+01" height="4.400214e+01"/><rect vector-effect="non-scaling-stroke" x="9.650794e+01" y="0" width="1.015873e+01" height="4.402350e+01"/><rect width="1.015873e+01" height="4.401013e+01" vector-effect="non-scaling-stroke" x="1.178413e+02" y="0"/><rect vector-effect="non-scaling-stroke" x="1.391746e+02" y="0" width="1.015873e+01" height="4.400580e+01"/><rect width="1.015873e+01" height="4.401509e+01" vector-effect="non-scaling-stroke" x="1.605079e+02" y="0"/><rect y="0" width="1.015873e+01" height="4.401174e+01" vector-effect="non-scaling-stroke" x="1.818413e+02"/><rect vector-effect="non-scaling-stroke" x="2.031746e+02" y="0" width="1.015873e+01" height="4.431504e+01"/><rect y="0" width="1.015873e+01" height="4.418882e+01" vector-effect="non-scaling-stroke" x="2.245079e+02"/><rect vector-effect="non-scaling-stroke" x="2.458413e+02" y="0" width="1.015873e+01" height="4.400074e+01"/><rect x="2.671746e+02" y="0" width="1.015873e+01" height="5.065464e+01" vector-effect="non-scaling-stroke"/><rect vector-effect="non-scaling-stroke" x="2.885079e+02" y="0" width="1.015873e+01" height="4.423888e+01"/><rect x="3.098413e+02" y="0" width="1.015873e+01" height="4.438058e+01" vector-effect="non-scaling-stroke"/><rect x="3.311746e+02" y="0" width="1.015873e+01" height="4.681037e+01" vector-effect="non-scaling-stroke"/><rect height="4.400239e+01" vector-effect="non-scaling-stroke" x="3.525079e+02" y="0" width="1.015873e+01"/><rect vector-effect="non-scaling-stroke" x="3.738413e+02" y="0" width="1.015873e+01" height="396"/><rect x="3.951746e+02" y="0" width="1.015873e+01" height="4.422812e+01" vector-effect="non-scaling-stroke"/><rect width="1.015873e+01" height="4.408930e+01" vector-effect="non-scaling-stroke" x="4.165079e+02" y="0"/><rect x="4.378413e+02" y="0" width="1.015873e+01" height="2.053979e+02" vector-effect="non-scaling-stroke"/><rect x="4.591746e+02" y="0" width="1.015873e+01" height="6.554127e+01" vector-effect="non-scaling-stroke"/><rect vector-effect="non-scaling-stroke" x="4.805079e+02" y="0" width="1.015873e+01" height="4.416457e+01"/></g><g stroke-width="1px" stroke-linecap="round" stroke-linejoin="round" transform="translate(80 520 )scale(1 -1 )" fill="hsl(49, 88%, 65%)" stroke="hsl(49, 88%, 65%)"><rect width="1.015873e+01" height="4.400351e+01" vector-effect="non-scaling-stroke" x="64" y="0"/><rect y="0" width="1.015873e+01" height="4.400051e+01" vector-effect="non-scaling-stroke" x="8.533333e+01"/><rect x="1.066667e+02" y="0" width="1.015873e+01" height="4.401775e+01" vector-effect="non-scaling-stroke"/><rect y="0" width="1.015873e+01" height="4.400605e+01" vector-effect="non-scaling-stroke" x="128"/><rect y="0" width="1.015873e+01" height="4.400468e+01" vector-effect="non-scaling-stroke" x="1.493333e+02"/><rect y="0" width="1.015873e+01" height="4.400897e+01" vector-effect="non-scaling-stroke" x="1.706667e+02"/><rect height="4.401049e+01" vector-effect="non-scaling-stroke" x="192" y="0" width="1.015873e+01"/><rect height="4.430561e+01" vector-effect="non-scaling-stroke" x="2.133333e+02" y="0" width="1.015873e+01"/><rect y="0" width="1.015873e+01" height="4.418252e+01" vector-effect="non-scaling-stroke" x="2.346667e+02"/><rect width="1.015873e+01" height="4.400056e+01" vector-effect="non-scaling-stroke" x="2.560000e+02" y="0"/><rect y="0" width="1.015873e+01" height="4.648442e+01" vector-effect="non-scaling-stroke" x="2.773333e+02"/><rect vector-effect="non-scaling-stroke" x="2.986667e+02" y="0" width="1.015873e+01" height="4.414919e+01"/><rect vector-effect="non-scaling-stroke" x="320" y="0" width="1.015873e+01" height="4.432268e+01"/><rect height="4.709541e+01" vector-effect="non-scaling-stroke" x="3.413333e+02" y="0" width="1.015873e+01"/><rect vector-effect="non-scaling-stroke" x="3.626667e+02" y="0" width="1.015873e+01" height="4.400101e+01"/><rect height="4.415595e+01" vector-effect="non-scaling-stroke" x="4.053333e+02" y="0" width="1.015873e+01"/><rect height="4.410479e+01" vector-effect="non-scaling-stroke" x="4.266667e+02" y="0" width="1.015873e+01"/><rect width="1.015873e+01" height="6.155360e+01" vector-effect="non-scaling-stroke" x="4.693333e+02" y="0"/></g><g dominant-baseline="hanging" stroke="hsl(198, 47%, 65%)" stroke-width="1px" font-family="sans-serif" text-anchor="start" stroke-linejoin="round" font-size="12px" fill="hsl(198, 47%, 65%)" stroke-linecap="round" font-style="normal" font-weight="normal"><rect x="736" y="484" width="12" height="12" vector-effect="non-scaling-stroke"/><g stroke="black" fill="black"><text y="484" dominant-baseline="hanging" stroke="none" vector-effect="non-scaling-stroke" x="752">Golang</text></g><g fill="hsl(49, 88%, 65%)" stroke="hsl(49, 88%, 65%)" stroke-width="1px" stroke-linejoin="round" font-style="normal" font-weight="normal" font-family="sans-serif" text-anchor="start" stroke-linecap="round" font-size="12px" dominant-baseline="hanging"><rect x="736" y="502" width="12" height="12" vector-effect="non-scaling-stroke"/><g fill="black" stroke="black"><text x="752" y="502" dominant-baseline="hanging" stroke="none" vector-effect="non-scaling-stroke">Rust</text><g font-family="sans-serif" text-anchor="start" font-weight="normal" dominant-baseline="hanging" fill="none" font-style="normal" stroke-width="2px" stroke-linecap="round" stroke-linejoin="round" font-size="12px"><rect y="80" width="640" height="440" vector-effect="non-scaling-stroke" x="80"/></g><g font-size="12px" font-style="normal" stroke-linejoin="round" text-anchor="start" transform="translate(80 520 )scale(1 -1 )" stroke="black" font-weight="normal" dominant-baseline="hanging" stroke-linecap="round" stroke-width="2px" font-family="sans-serif" fill="none"><path d="M64,0 L64,-6 M8.533333e+01,0 L8.533333e+01,-6 M1.066667e+02,0 L1.066667e+02,-6 M128,0 L128,-6 M1.493333e+02,0 L1.493333e+02,-6 M1.706667e+02,0 L1.706667e+02,-6 M192,0 L192,-6 M2.133333e+02,0 L2.133333e+02,-6 M2.346667e+02,0 L2.346667e+02,-6 M256,0 L256,-6 M2.773333e+02,0 L2.773333e+02,-6 M2.986667e+02,0 L2.986667e+02,-6 M320,0 L320,-6 M3.413333e+02,0 L3.413333e+02,-6 M3.626667e+02,0 L3.626667e+02,-6 M384,0 L384,-6 M4.053333e+02,0 L4.053333e+02,-6 M4.266667e+02,0 L4.266667e+02,-6 M448,0 L448,-6 M4.693333e+02,0 L4.693333e+02,-6 M4.906667e+02,0 L4.906667e+02,-6 " vector-effect="non-scaling-stroke"/></g><g dominant-baseline="hanging" font-size="12px" font-weight="normal" transform="translate(80 520 )scale(1 1 )" fill="black" stroke-width="2px" text-anchor="middle" stroke-linecap="round" stroke-linejoin="round" font-style="normal" stroke="black" font-family="sans-serif"><text vector-effect="non-scaling-stroke" x="64" y="10" dominant-baseline="hanging" stroke="none">1</text><text stroke="none" vector-effect="non-scaling-stroke" x="8.533333e+01" y="10" dominant-baseline="hanging">2</text><text x="1.066667e+02" y="10" dominant-baseline="hanging" stroke="none" vector-effect="non-scaling-stroke">3</text><text x="128" y="10" dominant-baseline="hanging" stroke="none" vector-effect="non-scaling-stroke">4</text><text vector-effect="non-scaling-stroke" x="1.493333e+02" y="10" dominant-baseline="hanging" stroke="none">5</text><text stroke="none" vector-effect="non-scaling-stroke" x="1.706667e+02" y="10" dominant-baseline="hanging">6</text><text vector-effect="non-scaling-stroke" x="192" y="10" dominant-baseline="hanging" stroke="none">7</text><text y="10" dominant-baseline="hanging" stroke="none" vector-effect="non-scaling-stroke" x="2.133333e+02">8</text><text vector-effect="non-scaling-stroke" x="2.346667e+02" y="10" dominant-baseline="hanging" stroke="none">9</text><text x="256" y="10" dominant-baseline="hanging" stroke="none" vector-effect="non-scaling-stroke">10</text><text stroke="none" vector-effect="non-scaling-stroke" x="2.773333e+02" y="10" dominant-baseline="hanging">11</text><text y="10" dominant-baseline="hanging" stroke="none" vector-effect="non-scaling-stroke" x="2.986667e+02">12</text><text stroke="none" vector-effect="non-scaling-stroke" x="320" y="10" dominant-baseline="hanging">13</text><text stroke="none" vector-effect="non-scaling-stroke" x="3.413333e+02" y="10" dominant-baseline="hanging">14</text><text dominant-baseline="hanging" stroke="none" vector-effect="non-scaling-stroke" x="3.626667e+02" y="10">15</text><text y="10" dominant-baseline="hanging" stroke="none" vector-effect="non-scaling-stroke" x="384">16</text><text x="4.053333e+02" y="10" dominant-baseline="hanging" stroke="none" vector-effect="non-scaling-stroke">17</text><text dominant-baseline="hanging" stroke="none" vector-effect="non-scaling-stroke" x="4.266667e+02" y="10">18</text><text dominant-baseline="hanging" stroke="none" vector-effect="non-scaling-stroke" x="448" y="10">19</text><text x="4.693333e+02" y="10" dominant-baseline="hanging" stroke="none" vector-effect="non-scaling-stroke">20</text><text y="10" dominant-baseline="hanging" stroke="none" vector-effect="non-scaling-stroke" x="4.906667e+02">21</text></g><g stroke="black" font-size="12px" stroke-linecap="round" stroke-linejoin="round" font-family="sans-serif" text-anchor="middle" fill="black" font-style="normal" font-weight="bold" dominant-baseline="baseline" stroke-width="2px" transform="translate(80 520 )scale(1 1 )rotate(0 0 0 )"><text stroke="none" vector-effect="non-scaling-stroke" x="320" y="-6" dominant-baseline="baseline">Day</text></g><g font-family="sans-serif" stroke-linecap="round" font-size="12px" font-style="normal" font-weight="bold" dominant-baseline="baseline" fill="black" stroke="black" stroke-width="2px" text-anchor="middle" transform="translate(80 520 )scale(1 -1 )" stroke-linejoin="round"><path vector-effect="non-scaling-stroke" d="M0,44 L-6,44 M0,9.119185e+01 L-6,9.119185e+01 M0,1.383837e+02 L-6,1.383837e+02 M0,1.855756e+02 L-6,1.855756e+02 M0,2.327674e+02 L-6,2.327674e+02 M0,2.799593e+02 L-6,2.799593e+02 M0,3.271511e+02 L-6,3.271511e+02 M0,3.743430e+02 L-6,3.743430e+02 "/></g><g dominant-baseline="middle" font-family="sans-serif" text-anchor="end" transform="translate(80 520 )scale(1 1 )" fill="black" stroke-width="2px" font-style="normal" font-weight="normal" stroke-linecap="round" stroke-linejoin="round" font-size="12px" stroke="black"><text stroke="none" vector-effect="non-scaling-stroke" x="-10" y="-44" dominant-baseline="middle">0s</text><text dominant-baseline="middle" stroke="none" vector-effect="non-scaling-stroke" x="-10" y="-9.119185e+01">100ms</text><text x="-10" y="-1.383837e+02" dominant-baseline="middle" stroke="none" vector-effect="non-scaling-stroke">200ms</text><text y="-1.855756e+02" dominant-baseline="middle" stroke="none" vector-effect="non-scaling-stroke" x="-10">300ms</text><text y="-2.327674e+02" dominant-baseline="middle" stroke="none" vector-effect="non-scaling-stroke" x="-10">400ms</text><text vector-effect="non-scaling-stroke" x="-10" y="-2.799593e+02" dominant-baseline="middle" stroke="none">500ms</text><text x="-10" y="-3.271511e+02" dominant-baseline="middle" stroke="none" vector-effect="non-scaling-stroke">600ms</text><text dominant-baseline="middle" stroke="none" vector-effect="non-scaling-stroke" x="-10" y="-3.743430e+02">700ms</text></g><g font-family="sans-serif" text-anchor="middle" transform="translate(80 520 )scale(1 1 )rotate(-90 0 0 )" font-weight="bold" dominant-baseline="hanging" fill="black" stroke-width="2px" stroke-linecap="round" stroke-linejoin="round" font-size="12px" font-style="normal" stroke="black"><text y="6" dominant-baseline="hanging" stroke="none" vector-effect="non-scaling-stroke" x="220">Runtime</text></g></g></g></g></svg>