<svg xmlns="http://www.w3.org/2000/svg" width="800" height="600" viewbox="0 0 800 600" preserveAspectRatio="xMidYMid meet"><defs><marker viewBox="0 0 10 10 " refX="5" refY="5" markerUnits="userSpaceOnUse" markerWidth="2%" markerHeight="2%" id="circle"><circle cx="5" cy="5" r="3" fill="none" stroke="black"/></marker><marker id="filled-circle" viewBox="0 0 10 10 " refX="5" refY="5" markerUnits="userSpaceOnUse" markerWidth="2%" markerHeight="2%"><circle stroke="none" cx="5" cy="5" r="3" fill="black"/></marker><marker markerUnits="userSpaceOnUse" markerWidth="2%" markerHeight="2%" id="square" viewBox="0 0 10 10 " refX="5" refY="5"><rect width="6" height="6" fill="none" stroke="black" x="2" y="2"/></marker><marker id="filled-square" viewBox="0 0 10 10 " refX="5" refY="5" markerUnits="userSpaceOnUse" markerWidth="2%" markerHeight="2%"><rect fill="black" stroke="none" x="2" y="2" width="6" height="6"/></marker></defs><g transform="translate(80 520 )scale(1 -1 )" fill="hsl(198, 47%, 65%)" stroke="hsl(198, 47%, 65%)" stroke-width="1px" stroke-linecap="round" stroke-linejoin="round"><rect y="0" width="2.750000e+01" height="8.562038e+01" vector-effect="non-scaling-stroke" x="3.650000e+01"/><rect vector-effect="non-scaling-stroke" x="5.783333e+01" y="0" width="2.750000e+01" height="8.087589e+01"/><rect vector-effect="non-scaling-stroke" x="7.916667e+01" y="0" width="2.750000e+01" height="6.689459e+01"/><rect vector-effect="non-scaling-stroke" x="1.005000e+02" y="0" width="2.750000e+01" height="2.548904e+02"/><rect y="0" width="2.750000e+01" height="6.766581e+01" vector-effect="non-scaling-stroke" x="1.218333e+02"/></g><g stroke-width="1px" stroke-linecap="round" stroke-linejoin="round" transform="translate(80 520 )scale(1 -1 )" fill="hsl(49, 88%, 65%)" stroke="hsl(49, 88%, 65%)"><rect x="64" y="0" width="2.750000e+01" height="8.135616e+01" vector-effect="non-scaling-stroke"/><rect height="7.590485e+01" vector-effect="non-scaling-stroke" x="8.533333e+01" y="0" width="2.750000e+01"/><rect height="5.023573e+01" vector-effect="non-scaling-stroke" x="1.066667e+02" y="0" width="2.750000e+01"/><rect height="396" vector-effect="non-scaling-stroke" x="128" y="0" width="2.750000e+01"/><rect vector-effect="non-scaling-stroke" x="1.493333e+02" y="0" width="2.750000e+01" height="6.086835e+01"/></g><g stroke-width="1px" dominant-baseline="hanging" font-style="normal" font-weight="normal" text-anchor="start" fill="hsl(198, 47%, 65%)" stroke-linejoin="round" stroke="hsl(198, 47%, 65%)" stroke-linecap="round" font-family="sans-serif" font-size="12px"><rect height="12" vector-effect="non-scaling-stroke" x="736" y="484" width="12"/><g fill="black" stroke="black"><text stroke="none" vector-effect="non-scaling-stroke" x="752" y="484" dominant-baseline="hanging">Golang</text></g><g font-size="12px" font-weight="normal" text-anchor="start" stroke="hsl(49, 88%, 65%)" stroke-width="1px" stroke-linejoin="round" font-family="sans-serif" stroke-linecap="round" font-style="normal" dominant-baseline="hanging" fill="hsl(49, 88%, 65%)"><rect vector-effect="non-scaling-stroke" x="736" y="502" width="12" height="12"/><g fill="black" stroke="black"><text stroke="none" vector-effect="non-scaling-stroke" x="752" y="502" dominant-baseline="hanging">Rust</text><g font-size="12px" font-style="normal" stroke-linecap="round" font-family="sans-serif" text-anchor="start" stroke-width="2px" stroke-linejoin="round" dominant-baseline="hanging" font-weight="normal" fill="none"><rect vector-effect="non-scaling-stroke" x="80" y="80" width="640" height="440"/></g><g fill="none" font-family="sans-serif" font-size="12px" font-weight="normal" stroke="black" text-anchor="start" transform="translate(80 520 )scale(1 -1 )" stroke-linecap="round" font-style="normal" stroke-width="2px" stroke-linejoin="round" dominant-baseline="hanging"><path d="M64,0 L64,-6 M8.533333e+01,0 L8.533333e+01,-6 M1.066667e+02,0 L1.066667e+02,-6 M128,0 L128,-6 M1.493333e+02,0 L1.493333e+02,-6 " vector-effect="non-scaling-stroke"/></g><g stroke-linejoin="round" dominant-baseline="hanging" transform="translate(80 520 )scale(1 1 )" fill="black" font-family="sans-serif" font-size="12px" font-style="normal" font-weight="normal" text-anchor="middle" stroke="black" stroke-width="2px" stroke-linecap="round"><text stroke="none" vector-effect="non-scaling-stroke" x="64" y="10" dominant-baseline="hanging">1</text><text vector-effect="non-scaling-stroke" x="8.533333e+01" y="10" dominant-baseline="hanging" stroke="none">2</text><text vector-effect="non-scaling-stroke" x="1.066667e+02" y="10" dominant-baseline="hanging" stroke="none">3</text><text stroke="none" vector-effect="non-scaling-stroke" x="128" y="10" dominant-baseline="hanging">4</text><text y="10" dominant-baseline="hanging" stroke="none" vector-effect="non-scaling-stroke" x="1.493333e+02">5</text></g><g font-family="sans-serif" font-size="12px" stroke="black" stroke-width="2px" transform="translate(80 520 )scale(1 1 )rotate(0 0 0 )" fill="black" stroke-linecap="round" stroke-linejoin="round" dominant-baseline="baseline" font-style="normal" font-weight="bold" text-anchor="middle"><text stroke="none" vector-effect="non-scaling-stroke" x="320" y="-6" dominant-baseline="baseline">Day</text></g><g stroke-linecap="round" stroke-linejoin="round" dominant-baseline="baseline" font-family="sans-serif" font-size="12px" font-style="normal" transform="translate(80 520 )scale(1 -1 )" stroke="black" stroke-width="2px" font-weight="bold" text-anchor="middle" fill="black"><path vector-effect="non-scaling-stroke" d="M0,44 L-6,44 M0,1.215877e+02 L-6,1.215877e+02 M0,1.991755e+02 L-6,1.991755e+02 M0,2.767632e+02 L-6,2.767632e+02 M0,3.543509e+02 L-6,3.543509e+02 "/></g><g text-anchor="end" font-style="normal" dominant-baseline="middle" stroke-width="2px" transform="translate(80 520 )scale(1 1 )" fill="black" stroke-linecap="round" font-family="sans-serif" font-size="12px" font-weight="normal" stroke="black" stroke-linejoin="round"><text x="-10" y="-44" dominant-baseline="middle" stroke="none" vector-effect="non-scaling-stroke">0s</text><text vector-effect="non-scaling-stroke" x="-10" y="-1.215877e+02" dominant-baseline="middle" stroke="none">100µs</text><text vector-effect="non-scaling-stroke" x="-10" y="-1.991755e+02" dominant-baseline="middle" stroke="none">200µs</text><text y="-2.767632e+02" dominant-baseline="middle" stroke="none" vector-effect="non-scaling-stroke" x="-10">300µs</text><text stroke="none" vector-effect="non-scaling-stroke" x="-10" y="-3.543509e+02" dominant-baseline="middle">400µs</text></g><g font-weight="bold" transform="translate(80 520 )scale(1 1 )rotate(-90 0 0 )" stroke-linejoin="round" stroke="black" font-family="sans-serif" font-style="normal" text-anchor="middle" fill="black" stroke-width="2px" dominant-baseline="hanging" stroke-linecap="round" font-size="12px"><text x="220" y="6" dominant-baseline="hanging" stroke="none" vector-effect="non-scaling-stroke">Runtime</text></g></g></g></g></svg>