<svg height="600" viewbox="0 0 800 600" preserveAspectRatio="xMidYMid meet" xmlns="http://www.w3.org/2000/svg" width="800"><defs><marker markerWidth="2%" markerHeight="2%" id="circle" viewBox="0 0 10 10 " refX="5" refY="5" markerUnits="userSpaceOnUse"><circle cx="5" cy="5" r="3" fill="none" stroke="black"/></marker><marker markerWidth="2%" markerHeight="2%" id="filled-circle" viewBox="0 0 10 10 " refX="5" refY="5" markerUnits="userSpaceOnUse"><circle r="3" fill="black" stroke="none" cx="5" cy="5"/></marker><marker markerUnits="userSpaceOnUse" markerWidth="2%" markerHeight="2%" id="square" viewBox="0 0 10 10 " refX="5" refY="5"><rect x="2" y="2" width="6" height="6" fill="none" stroke="black"/></marker><marker refY="5" markerUnits="userSpaceOnUse" markerWidth="2%" markerHeight="2%" id="filled-square" viewBox="0 0 10 10 " refX="5"><rect fill="black" stroke="none" x="2" y="2" width="6" height="6"/></marker></defs><g fill="hsl(198, 47%, 65%)" stroke="hsl(198, 47%, 65%)" stroke-width="1px" stroke-linecap="round" stroke-linejoin="round" transform="translate(80 520 )scale(1 -1 )"><rect vector-effect="non-scaling-stroke" x="5.511111e+01" y="0" width="8.888889e+00" height="4.400663e+01"/><rect x="7.644444e+01" y="0" width="8.888889e+00" height="4.400183e+01" vector-effect="non-scaling-stroke"/><rect y="0" width="8.888889e+00" height="4.402010e+01" vector-effect="non-scaling-stroke" x="9.777778e+01"/><rect vector-effect="non-scaling-stroke" x="1.191111e+02" y="0" width="8.888889e+00" height="4.400867e+01"/><rect x="1.404444e+02" y="0" width="8.888889e+00" height="4.400496e+01" vector-effect="non-scaling-stroke"/><rect height="4.401291e+01" vector-effect="non-scaling-stroke" x="1.617778e+02" y="0" width="8.888889e+00"/><rect vector-effect="non-scaling-stroke" x="1.831111e+02" y="0" width="8.888889e+00" height="4.401004e+01"/><rect width="8.888889e+00" height="4.426947e+01" vector-effect="non-scaling-stroke" x="2.044444e+02" y="0"/><rect y="0" width="8.888889e+00" height="4.416151e+01" vector-effect="non-scaling-stroke" x="2.257778e+02"/><rect width="8.888889e+00" height="4.400064e+01" vector-effect="non-scaling-stroke" x="2.471111e+02" y="0"/><rect width="8.888889e+00" height="4.969217e+01" vector-effect="non-scaling-stroke" x="2.684444e+02" y="0"/><rect y="0" width="8.888889e+00" height="4.420433e+01" vector-effect="non-scaling-stroke" x="2.897778e+02"/><rect y="0" width="8.888889e+00" height="4.432554e+01" vector-effect="non-scaling-stroke" x="3.111111e+02"/><rect vector-effect="non-scaling-stroke" x="3.324444e+02" y="0" width="8.888889e+00" height="4.640390e+01"/><rect y="0" width="8.888889e+00" height="4.400204e+01" vector-effect="non-scaling-stroke" x="3.537778e+02"/><rect height="2.825603e+02" vector-effect="non-scaling-stroke" x="3.751111e+02" y="0" width="8.888889e+00"/><rect vector-effect="non-scaling-stroke" x="3.964444e+02" y="0" width="8.888889e+00" height="4.419513e+01"/><rect width="8.888889e+00" height="4.407638e+01" vector-effect="non-scaling-stroke" x="4.177778e+02" y="0"/><rect height="1.549507e+02" vector-effect="non-scaling-stroke" x="4.391111e+02" y="0" width="8.888889e+00"/><rect vector-effect="non-scaling-stroke" x="4.604444e+02" y="0" width="8.888889e+00" height="6.242573e+01"/><rect vector-effect="non-scaling-stroke" x="4.817778e+02" y="0" width="8.888889e+00" height="4.414688e+01"/><rect x="5.031111e+02" y="0" width="8.888889e+00" height="4.439724e+01" vector-effect="non-scaling-stroke"/><rect vector-effect="non-scaling-stroke" x="5.244444e+02" y="0" width="8.888889e+00" height="1.478983e+02"/><rect height="1.819727e+02" vector-effect="non-scaling-stroke" x="5.457778e+02" y="0" width="8.888889e+00"/></g><g stroke="hsl(49, 88%, 65%)" stroke-width="1px" stroke-linecap="round" stroke-linejoin="round" transform="translate(80 520 )scale(1 -1 )" fill="hsl(49, 88%, 65%)"><rect vector-effect="non-scaling-stroke" x="64" y="0" width="8.888889e+00" height="4.400300e+01"/><rect vector-effect="non-scaling-stroke" x="8.533333e+01" y="0" width="8.888889e+00" height="4.400044e+01"/><rect vector-effect="non-scaling-stroke" x="1.066667e+02" y="0" width="8.888889e+00" height="4.401518e+01"/><rect vector-effect="non-scaling-stroke" x="128" y="0" width="8.888889e+00" height="4.400518e+01"/><rect vector-effect="non-scaling-stroke" x="1.493333e+02" y="0" width="8.888889e+00" height="4.400400e+01"/><rect y="0" width="8.888889e+00" height="4.400768e+01" vector-effect="non-scaling-stroke" x="1.706667e+02"/><rect vector-effect="non-scaling-stroke" x="192" y="0" width="8.888889e+00" height="4.400898e+01"/><rect width="8.888889e+00" height="4.426141e+01" vector-effect="non-scaling-stroke" x="2.133333e+02" y="0"/><rect x="2.346667e+02" y="0" width="8.888889e+00" height="4.415612e+01" vector-effect="non-scaling-stroke"/><rect x="256" y="0" width="8.888889e+00" height="4.400048e+01" vector-effect="non-scaling-stroke"/><rect x="2.773333e+02" y="0" width="8.888889e+00" height="4.612509e+01" vector-effect="non-scaling-stroke"/><rect vector-effect="non-scaling-stroke" x="2.986667e+02" y="0" width="8.888889e+00" height="4.412761e+01"/><rect vector-effect="non-scaling-stroke" x="320" y="0" width="8.888889e+00" height="4.427601e+01"/><rect height="4.664772e+01" vector-effect="non-scaling-stroke" x="3.413333e+02" y="0" width="8.888889e+00"/><rect vector-effect="non-scaling-stroke" x="3.626667e+02" y="0" width="8.888889e+00" height="4.400086e+01"/><rect width="8.888889e+00" height="396" vector-effect="non-scaling-stroke" x="384" y="0"/><rect vector-effect="non-scaling-stroke" x="4.053333e+02" y="0" width="8.888889e+00" height="4.413340e+01"/><rect vector-effect="non-scaling-stroke" x="4.266667e+02" y="0" width="8.888889e+00" height="4.408963e+01"/><rect width="8.888889e+00" height="8.280417e+01" vector-effect="non-scaling-stroke" x="448" y="0"/><rect vector-effect="non-scaling-stroke" x="4.693333e+02" y="0" width="8.888889e+00" height="5.935094e+01"/><rect y="0" width="8.888889e+00" height="4.418238e+01" vector-effect="non-scaling-stroke" x="4.906667e+02"/><rect height="4.426322e+01" vector-effect="non-scaling-stroke" x="512" y="0" width="8.888889e+00"/><rect y="0" width="8.888889e+00" height="1.414235e+02" vector-effect="non-scaling-stroke" x="5.333333e+02"/></g><g font-size="12px" font-style="normal" dominant-baseline="hanging" fill="hsl(198, 47%, 65%)" text-anchor="start" stroke="hsl(198, 47%, 65%)" stroke-linejoin="round" font-family="sans-serif" font-weight="normal" stroke-width="1px" stroke-linecap="round"><rect width="12" height="12" vector-effect="non-scaling-stroke" x="736" y="484"/><g stroke="black" fill="black"><text vector-effect="non-scaling-stroke" x="752" y="484" dominant-baseline="hanging" stroke="none">Golang</text></g><g dominant-baseline="hanging" stroke-linejoin="round" font-size="12px" text-anchor="start" font-style="normal" stroke-width="1px" stroke-linecap="round" font-family="sans-serif" fill="hsl(49, 88%, 65%)" font-weight="normal" stroke="hsl(49, 88%, 65%)"><rect vector-effect="non-scaling-stroke" x="736" y="502" width="12" height="12"/><g stroke="black" fill="black"><text stroke="none" vector-effect="non-scaling-stroke" x="752" y="502" dominant-baseline="hanging">Rust</text><g stroke-linecap="round" font-size="12px" font-style="normal" dominant-baseline="hanging" fill="none" font-weight="normal" text-anchor="start" stroke-linejoin="round" font-family="sans-serif" stroke-width="2px"><rect y="80" width="640" height="440" vector-effect="non-scaling-stroke" x="80"/></g><g dominant-baseline="hanging" stroke="black" stroke-width="2px" stroke-linecap="round" stroke-linejoin="round" font-family="sans-serif" text-anchor="start" font-style="normal" transform="translate(80 520 )scale(1 -1 )" font-size="12px" fill="none" font-weight="normal"><path d="M64,0 L64,-6 M8.533333e+01,0 L8.533333e+01,-6 M1.066667e+02,0 L1.066667e+02,-6 M128,0 L128,-6 M1.493333e+02,0 L1.493333e+02,-6 M1.706667e+02,0 L1.706667e+02,-6 M192,0 L192,-6 M2.133333e+02,0 L2.133333e+02,-6 M2.346667e+02,0 L2.346667e+02,-6 M256,0 L256,-6 M2.773333e+02,0 L2.773333e+02,-6 M2.986667e+02,0 L2.986667e+02,-6 M320,0 L320,-6 M3.413333e+02,0 L3.413333e+02,-6 M3.626667e+02,0 L3.626667e+02,-6 M384,0 L384,-6 M4.053333e+02,0 L4.053333e+02,-6 M4.266667e+02,0 L4.266667e+02,-6 M448,0 L448,-6 M4.693333e+02,0 L4.693333e+02,-6 M4.906667e+02,0 L4.906667e+02,-6 M512,0 L512,-6 M5.333333e+02,0 L5.333333e+02,-6 M5.546667e+02,0 L5.546667e+02,-6 " vector-effect="non-scaling-stroke"/></g><g fill="black" font-weight="normal" stroke="black" stroke-linejoin="round" font-family="sans-serif" font-style="normal" transform="translate(80 520 )scale(1 1 )" text-anchor="middle" stroke-width="2px" stroke-linecap="round" font-size="12px" dominant-baseline="hanging"><text x="64" y="10" dominant-baseline="hanging" stroke="none" vector-effect="non-scaling-stroke">1</text><text y="10" dominant-baseline="hanging" stroke="none" vector-effect="non-scaling-stroke" x="8.533333e+01">2</text><text x="1.066667e+02" y="10" dominant-baseline="hanging" stroke="none" vector-effect="non-scaling-stroke">3</text><text stroke="none" vector-effect="non-scaling-stroke" x="128" y="10" dominant-baseline="hanging">4</text><text vector-effect="non-scaling-stroke" x="1.493333e+02" y="10" dominant-baseline="hanging" stroke="none">5</text><text vector-effect="non-scaling-stroke" x="1.706667e+02" y="10" dominant-baseline="hanging" stroke="none">6</text><text stroke="none" vector-effect="non-scaling-stroke" x="192" y="10" dominant-baseline="hanging">7</text><text stroke="none" vector-effect="non-scaling-stroke" x="2.133333e+02" y="10" dominant-baseline="hanging">8</text><text x="2.346667e+02" y="10" dominant-baseline="hanging" stroke="none" vector-effect="non-scaling-stroke">9</text><text dominant-baseline="hanging" stroke="none" vector-effect="non-scaling-stroke" x="256" y="10">10</text><text y="10" dominant-baseline="hanging" stroke="none" vector-effect="non-scaling-stroke" x="2.773333e+02">11</text><text x="2.986667e+02" y="10" dominant-baseline="hanging" stroke="none" vector-effect="non-scaling-stroke">12</text><text stroke="none" vector-effect="non-scaling-stroke" x="320" y="10" dominant-baseline="hanging">13</text><text stroke="none" vector-effect="non-scaling-stroke" x="3.413333e+02" y="10" dominant-baseline="hanging">14</text><text stroke="none" vector-effect="non-scaling-stroke" x="3.626667e+02" y="10" dominant-baseline="hanging">15</text><text vector-effect="non-scaling-stroke" x="384" y="10" dominant-baseline="hanging" stroke="none">16</text><text vector-effect="non-scaling-stroke" x="4.053333e+02" y="10" dominant-baseline="hanging" stroke="none">17</text><text x="4.266667e+02" y="10" dominant-baseline="hanging" stroke="none" vector-effect="non-scaling-stroke">18</text><text stroke="none" vector-effect="non-scaling-stroke" x="448" y="10" dominant-baseline="hanging">19</text><text y="10" dominant-baseline="hanging" stroke="none" vector-effect="non-scaling-stroke" x="4.693333e+02">20</text><text y="10" dominant-baseline="hanging" stroke="none" vector-effect="non-scaling-stroke" x="4.906667e+02">21</text><text stroke="none" vector-effect="non-scaling-stroke" x="512" y="10" dominant-baseline="hanging">22</text><text stroke="none" vector-effect="non-scaling-stroke" x="5.333333e+02" y="10" dominant-baseline="hanging">23</text><text dominant-baseline="hanging" stroke="none" vector-effect="non-scaling-stroke" x="5.546667e+02" y="10">24</text></g><g font-size="12px" fill="black" stroke-width="2px" stroke-linecap="round" stroke="black" stroke-linejoin="round" font-family="sans-serif" font-style="normal" transform="translate(80 520 )scale(1 1 )rotate(0 0 0 )" font-weight="bold" text-anchor="middle" dominant-baseline="baseline"><text x="320" y="-6" dominant-baseline="baseline" stroke="none" vector-effect="non-scaling-stroke">Day</text></g><g font-size="12px" transform="translate(80 520 )scale(1 -1 )" fill="black" font-weight="bold" text-anchor="middle" font-style="normal" stroke-linejoin="round" dominant-baseline="baseline" stroke="black" stroke-width="2px" stroke-linecap="round" font-family="sans-serif"><path d="M0,44 L-6,44 M0,8.436644e+01 L-6,8.436644e+01 M0,1.247329e+02 L-6,1.247329e+02 M0,1.650993e+02 L-6,1.650993e+02 M0,2.054658e+02 L-6,2.054658e+02 M0,2.458322e+02 L-6,2.458322e+02 M0,2.861986e+02 L-6,2.861986e+02 M0,3.265651e+02 L-6,3.265651e+02 M0,3.669315e+02 L-6,3.669315e+02 " vector-effect="non-scaling-stroke"/></g><g stroke-linejoin="round" font-family="sans-serif" font-style="normal" fill="black" font-weight="normal" stroke="black" stroke-width="2px" stroke-linecap="round" text-anchor="end" font-size="12px" dominant-baseline="middle" transform="translate(80 520 )scale(1 1 )"><text stroke="none" vector-effect="non-scaling-stroke" x="-10" y="-44" dominant-baseline="middle">0s</text><text stroke="none" vector-effect="non-scaling-stroke" x="-10" y="-8.436644e+01" dominant-baseline="middle">100ms</text><text y="-1.247329e+02" dominant-baseline="middle" stroke="none" vector-effect="non-scaling-stroke" x="-10">200ms</text><text vector-effect="non-scaling-stroke" x="-10" y="-1.650993e+02" dominant-baseline="middle" stroke="none">300ms</text><text y="-2.054658e+02" dominant-baseline="middle" stroke="none" vector-effect="non-scaling-stroke" x="-10">400ms</text><text dominant-baseline="middle" stroke="none" vector-effect="non-scaling-stroke" x="-10" y="-2.458322e+02">500ms</text><text dominant-baseline="middle" stroke="none" vector-effect="non-scaling-stroke" x="-10" y="-2.861986e+02">600ms</text><text y="-3.265651e+02" dominant-baseline="middle" stroke="none" vector-effect="non-scaling-stroke" x="-10">700ms</text><text vector-effect="non-scaling-stroke" x="-10" y="-3.669315e+02" dominant-baseline="middle" stroke="none">800ms</text></g><g font-weight="bold" text-anchor="middle" font-size="12px" dominant-baseline="hanging" transform="translate(80 520 )scale(1 1 )rotate(-90 0 0 )" fill="black" font-style="normal" stroke="black" stroke-width="2px" stroke-linecap="round" stroke-linejoin="round" font-family="sans-serif"><text y="6" dominant-baseline="hanging" stroke="none" vector-effect="non-scaling-stroke" x="220">Runtime</text></g></g></g></g></svg>