<svg height="600" viewbox="0 0 800 600" preserveAspectRatio="xMidYMid meet" xmlns="http://www.w3.org/2000/svg" width="800"><defs><marker id="circle" viewBox="0 0 10 10 " refX="5" refY="5" markerUnits="userSpaceOnUse" markerWidth="2%" markerHeight="2%"><circle cy="5" r="3" fill="none" stroke="black" cx="5"/></marker><marker id="filled-circle" viewBox="0 0 10 10 " refX="5" refY="5" markerUnits="userSpaceOnUse" markerWidth="2%" markerHeight="2%"><circle stroke="none" cx="5" cy="5" r="3" fill="black"/></marker><marker markerWidth="2%" markerHeight="2%" id="square" viewBox="0 0 10 10 " refX="5" refY="5" markerUnits="userSpaceOnUse"><rect width="6" height="6" fill="none" stroke="black" x="2" y="2"/></marker><marker markerUnits="userSpaceOnUse" markerWidth="2%" markerHeight="2%" id="filled-square" viewBox="0 0 10 10 " refX="5" refY="5"><rect x="2" y="2" width="6" height="6" fill="black" stroke="none"/></marker></defs><g stroke="hsl(198, 47%, 65%)" stroke-width="1px" stroke-linecap="round" stroke-linejoin="round" transform="translate(80 520 )scale(1 -1 )" fill="hsl(198, 47%, 65%)"><rect vector-effect="non-scaling-stroke" x="3.733333e+01" y="0" width="1.777778e+01" height="4.410760e+01"/><rect height="1.357531e+02" vector-effect="non-scaling-stroke" x="8.387879e+01" y="0" width="1.777778e+01"/><rect vector-effect="non-scaling-stroke" x="1.304242e+02" y="0" width="1.777778e+01" height="4.456632e+01"/><rect vector-effect="non-scaling-stroke" x="1.769697e+02" y="0" width="1.777778e+01" height="6.681151e+01"/><rect y="0" width="1.777778e+01" height="4.442906e+01" vector-effect="non-scaling-stroke" x="2.235152e+02"/><rect vector-effect="non-scaling-stroke" x="2.700606e+02" y="0" width="1.777778e+01" height="4.419161e+01"/><rect x="3.166061e+02" y="0" width="1.777778e+01" height="4.404994e+01" vector-effect="non-scaling-stroke"/><rect width="1.777778e+01" height="396" vector-effect="non-scaling-stroke" x="3.631515e+02" y="0"/></g><g fill="hsl(49, 88%, 65%)" stroke="hsl(49, 88%, 65%)" stroke-width="1px" stroke-linecap="round" stroke-linejoin="round" transform="translate(80 520 )scale(1 -1 )"><rect height="4.405445e+01" vector-effect="non-scaling-stroke" x="5.511111e+01" y="0" width="1.777778e+01"/><rect y="0" width="1.777778e+01" height="1.621897e+02" vector-effect="non-scaling-stroke" x="1.016566e+02"/><rect width="1.777778e+01" height="4.434206e+01" vector-effect="non-scaling-stroke" x="1.482020e+02" y="0"/><rect vector-effect="non-scaling-stroke" x="1.947475e+02" y="0" width="1.777778e+01" height="4.642057e+01"/><rect vector-effect="non-scaling-stroke" x="2.412929e+02" y="0" width="1.777778e+01" height="4.476679e+01"/><rect x="2.878384e+02" y="0" width="1.777778e+01" height="4.413790e+01" vector-effect="non-scaling-stroke"/><rect height="4.406232e+01" vector-effect="non-scaling-stroke" x="3.343838e+02" y="0" width="1.777778e+01"/></g><g transform="translate(80 520 )scale(1 -1 )" fill="hsl(260, 76%, 65%)" stroke="hsl(260, 76%, 65%)" stroke-width="1px" stroke-linecap="round" stroke-linejoin="round"><rect x="7.288889e+01" y="0" width="1.777778e+01" height="4.405652e+01" vector-effect="non-scaling-stroke"/><rect x="1.194343e+02" y="0" width="1.777778e+01" height="1.003720e+02" vector-effect="non-scaling-stroke"/><rect width="1.777778e+01" height="4.423564e+01" vector-effect="non-scaling-stroke" x="1.659798e+02" y="0"/><rect vector-effect="non-scaling-stroke" x="2.125253e+02" y="0" width="1.777778e+01" height="4.678042e+01"/><rect vector-effect="non-scaling-stroke" x="2.590707e+02" y="0" width="1.777778e+01" height="4.437231e+01"/><rect height="4.410825e+01" vector-effect="non-scaling-stroke" x="3.056162e+02" y="0" width="1.777778e+01"/><rect vector-effect="non-scaling-stroke" x="3.521616e+02" y="0" width="1.777778e+01" height="4.404004e+01"/><rect height="3.215192e+02" vector-effect="non-scaling-stroke" x="3.987071e+02" y="0" width="1.777778e+01"/></g><g stroke-linecap="round" stroke-linejoin="round" font-size="12px" font-style="normal" font-weight="normal" stroke-width="1px" font-family="sans-serif" text-anchor="start" fill="hsl(198, 47%, 65%)" stroke="hsl(198, 47%, 65%)" dominant-baseline="hanging"><rect y="466" width="12" height="12" vector-effect="non-scaling-stroke" x="736"/><g stroke="black" fill="black"><text stroke="none" vector-effect="non-scaling-stroke" x="752" y="466" dominant-baseline="hanging">Golang</text></g><g font-size="12px" font-style="normal" font-weight="normal" stroke="hsl(49, 88%, 65%)" stroke-width="1px" dominant-baseline="hanging" stroke-linecap="round" stroke-linejoin="round" font-family="sans-serif" text-anchor="start" fill="hsl(49, 88%, 65%)"><rect vector-effect="non-scaling-stroke" x="736" y="484" width="12" height="12"/><g fill="black" stroke="black"><text vector-effect="non-scaling-stroke" x="752" y="484" dominant-baseline="hanging" stroke="none">Rust</text></g><g font-weight="normal" text-anchor="start" fill="hsl(260, 76%, 65%)" stroke-width="1px" dominant-baseline="hanging" stroke-linecap="round" font-size="12px" font-style="normal" stroke="hsl(260, 76%, 65%)" stroke-linejoin="round" font-family="sans-serif"><rect width="12" height="12" vector-effect="non-scaling-stroke" x="736" y="502"/><g fill="black" stroke="black"><text dominant-baseline="hanging" stroke="none" vector-effect="non-scaling-stroke" x="752" y="502">Zig</text><g font-family="sans-serif" font-weight="normal" font-size="12px" text-anchor="start" stroke-width="2px" font-style="normal" fill="none" dominant-baseline="hanging" stroke-linecap="round" stroke-linejoin="round"><rect vector-effect="non-scaling-stroke" x="80" y="80" width="640" height="440"/></g><g dominant-baseline="hanging" stroke-linejoin="round" font-style="normal" font-weight="normal" fill="none" stroke="black" stroke-width="2px" transform="translate(80 520 )scale(1 -1 )" stroke-linecap="round" font-family="sans-serif" font-size="12px" text-anchor="start"><path vector-effect="non-scaling-stroke" d="M64,0 L64,-6 M1.105455e+02,0 L1.105455e+02,-6 M1.570909e+02,0 L1.570909e+02,-6 M2.036364e+02,0 L2.036364e+02,-6 M2.501818e+02,0 L2.501818e+02,-6 M2.967273e+02,0 L2.967273e+02,-6 M3.432727e+02,0 L3.432727e+02,-6 M3.898182e+02,0 L3.898182e+02,-6 "/></g><g text-anchor="middle" stroke-width="2px" dominant-baseline="hanging" transform="translate(80 520 )scale(1 1 )" font-size="12px" font-style="normal" font-weight="normal" fill="black" stroke="black" stroke-linecap="round" stroke-linejoin="round" font-family="sans-serif"><text y="10" dominant-baseline="hanging" stroke="none" vector-effect="non-scaling-stroke" x="64">1</text><text stroke="none" vector-effect="non-scaling-stroke" x="1.105455e+02" y="10" dominant-baseline="hanging">2</text><text x="1.570909e+02" y="10" dominant-baseline="hanging" stroke="none" vector-effect="non-scaling-stroke">3</text><text y="10" dominant-baseline="hanging" stroke="none" vector-effect="non-scaling-stroke" x="2.036364e+02">4</text><text vector-effect="non-scaling-stroke" x="2.501818e+02" y="10" dominant-baseline="hanging" stroke="none">5</text><text stroke="none" vector-effect="non-scaling-stroke" x="2.967273e+02" y="10" dominant-baseline="hanging">6</text><text x="3.432727e+02" y="10" dominant-baseline="hanging" stroke="none" vector-effect="non-scaling-stroke">7</text><text stroke="none" vector-effect="non-scaling-stroke" x="3.898182e+02" y="10" dominant-baseline="hanging">8</text></g><g fill="black" stroke="black" dominant-baseline="baseline" transform="translate(80 520 )scale(1 1 )rotate(0 0 0 )" stroke-linecap="round" font-family="sans-serif" font-size="12px" font-style="normal" stroke-width="2px" stroke-linejoin="round" font-weight="bold" text-anchor="middle"><text stroke="none" vector-effect="non-scaling-stroke" x="320" y="-6" dominant-baseline="baseline">Day</text></g><g dominant-baseline="baseline" font-size="12px" font-style="normal" font-weight="bold" text-anchor="middle" fill="black" stroke="black" stroke-width="2px" transform="translate(80 520 )scale(1 -1 )" stroke-linecap="round" stroke-linejoin="round" font-family="sans-serif"><path vector-effect="non-scaling-stroke" d="M0,44 L-6,44 M0,9.977477e+01 L-6,9.977477e+01 M0,1.555495e+02 L-6,1.555495e+02 M0,2.113243e+02 L-6,2.113243e+02 M0,2.670991e+02 L-6,2.670991e+02 M0,3.228738e+02 L-6,3.228738e+02 M0,3.786486e+02 L-6,3.786486e+02 "/></g><g font-family="sans-serif" font-style="normal" text-anchor="end" fill="black" stroke="black" stroke-width="2px" dominant-baseline="middle" stroke-linecap="round" font-size="12px" font-weight="normal" transform="translate(80 520 )scale(1 1 )" stroke-linejoin="round"><text dominant-baseline="middle" stroke="none" vector-effect="non-scaling-stroke" x="-10" y="-44">0s</text><text stroke="none" vector-effect="non-scaling-stroke" x="-10" y="-9.977477e+01" dominant-baseline="middle">10ms</text><text stroke="none" vector-effect="non-scaling-stroke" x="-10" y="-1.555495e+02" dominant-baseline="middle">20ms</text><text vector-effect="non-scaling-stroke" x="-10" y="-2.113243e+02" dominant-baseline="middle" stroke="none">30ms</text><text vector-effect="non-scaling-stroke" x="-10" y="-2.670991e+02" dominant-baseline="middle" stroke="none">40ms</text><text vector-effect="non-scaling-stroke" x="-10" y="-3.228738e+02" dominant-baseline="middle" stroke="none">50ms</text><text y="-3.786486e+02" dominant-baseline="middle" stroke="none" vector-effect="non-scaling-stroke" x="-10">60ms</text></g><g font-weight="bold" text-anchor="middle" stroke="black" stroke-width="2px" stroke-linecap="round" font-family="sans-serif" font-size="12px" fill="black" dominant-baseline="hanging" transform="translate(80 520 )scale(1 1 )rotate(-90 0 0 )" stroke-linejoin="round" font-style="normal"><text stroke="none" vector-effect="non-scaling-stroke" x="220" y="6" dominant-baseline="hanging">Runtime</text></g></g></g></g></g></svg>