<svg viewbox="0 0 800 600" preserveAspectRatio="xMidYMid meet" xmlns="http://www.w3.org/2000/svg" width="800" height="600"><defs><marker refX="5" refY="5" markerUnits="userSpaceOnUse" markerWidth="2%" markerHeight="2%" id="circle" viewBox="0 0 10 10 "><circle cx="5" cy="5" r="3" fill="none" stroke="black"/></marker><marker refX="5" refY="5" markerUnits="userSpaceOnUse" markerWidth="2%" markerHeight="2%" id="filled-circle" viewBox="0 0 10 10 "><circle fill="black" stroke="none" cx="5" cy="5" r="3"/></marker><marker refX="5" refY="5" markerUnits="userSpaceOnUse" markerWidth="2%" markerHeight="2%" id="square" viewBox="0 0 10 10 "><rect x="2" y="2" width="6" height="6" fill="none" stroke="black"/></marker><marker markerUnits="userSpaceOnUse" markerWidth="2%" markerHeight="2%" id="filled-square" viewBox="0 0 10 10 " refX="5" refY="5"><rect fill="black" stroke="none" x="2" y="2" width="6" height="6"/></marker></defs><g fill="hsl(198, 47%, 65%)" stroke="hsl(198, 47%, 65%)" stroke-width="1px" stroke-linecap="round" stroke-linejoin="round" transform="translate(80 520 )scale(1 -1 )"><rect vector-effect="non-scaling-stroke" x="5.546667e+01" y="0" width="8.533333e+00" height="4.401621e+01"/><rect x="7.680000e+01" y="0" width="8.533333e+00" height="4.400417e+01" vector-effect="non-scaling-stroke"/><rect x="9.813333e+01" y="0" width="8.533333e+00" height="4.404750e+01" vector-effect="non-scaling-stroke"/><rect width="8.533333e+00" height="4.401781e+01" vector-effect="non-scaling-stroke" x="1.194667e+02" y="0"/><rect height="4.401205e+01" vector-effect="non-scaling-stroke" x="1.408000e+02" y="0" width="8.533333e+00"/><rect y="0" width="8.533333e+00" height="4.400657e+01" vector-effect="non-scaling-stroke" x="1.621333e+02"/><rect y="0" width="8.533333e+00" height="4.402785e+01" vector-effect="non-scaling-stroke" x="1.834667e+02"/><rect height="4.463364e+01" vector-effect="non-scaling-stroke" x="2.048000e+02" y="0" width="8.533333e+00"/><rect vector-effect="non-scaling-stroke" x="2.261333e+02" y="0" width="8.533333e+00" height="4.436760e+01"/><rect height="4.400158e+01" vector-effect="non-scaling-stroke" x="2.474667e+02" y="0" width="8.533333e+00"/><rect x="2.688000e+02" y="0" width="8.533333e+00" height="5.718099e+01" vector-effect="non-scaling-stroke"/><rect y="0" width="8.533333e+00" height="4.453335e+01" vector-effect="non-scaling-stroke" x="2.901333e+02"/><rect y="0" width="8.533333e+00" height="4.451587e+01" vector-effect="non-scaling-stroke" x="3.114667e+02"/><rect vector-effect="non-scaling-stroke" x="3.328000e+02" y="0" width="8.533333e+00" height="4.997305e+01"/><rect x="3.541333e+02" y="0" width="8.533333e+00" height="4.400498e+01" vector-effect="non-scaling-stroke"/><rect y="0" width="8.533333e+00" height="3.096100e+02" vector-effect="non-scaling-stroke" x="3.754667e+02"/><rect y="0" width="8.533333e+00" height="4.445922e+01" vector-effect="non-scaling-stroke" x="3.968000e+02"/><rect y="0" width="8.533333e+00" height="4.417830e+01" vector-effect="non-scaling-stroke" x="4.181333e+02"/><rect width="8.533333e+00" height="2.073173e+02" vector-effect="non-scaling-stroke" x="4.394667e+02" y="0"/><rect height="8.654738e+01" vector-effect="non-scaling-stroke" x="4.608000e+02" y="0" width="8.533333e+00"/><rect vector-effect="non-scaling-stroke" x="4.821333e+02" y="0" width="8.533333e+00" height="4.437663e+01"/><rect width="8.533333e+00" height="4.483644e+01" vector-effect="non-scaling-stroke" x="5.034667e+02" y="0"/><rect x="5.248000e+02" y="0" width="8.533333e+00" height="1.371295e+02" vector-effect="non-scaling-stroke"/><rect vector-effect="non-scaling-stroke" x="5.461333e+02" y="0" width="8.533333e+00" height="1.623528e+02"/><rect y="0" width="8.533333e+00" height="4.400279e+01" vector-effect="non-scaling-stroke" x="5.674667e+02"/></g><g stroke-linejoin="round" transform="translate(80 520 )scale(1 -1 )" fill="hsl(49, 88%, 65%)" stroke="hsl(49, 88%, 65%)" stroke-width="1px" stroke-linecap="round"><rect vector-effect="non-scaling-stroke" x="64" y="0" width="8.533333e+00" height="4.400693e+01"/><rect height="4.400106e+01" vector-effect="non-scaling-stroke" x="8.533333e+01" y="0" width="8.533333e+00"/><rect y="0" width="8.533333e+00" height="4.403551e+01" vector-effect="non-scaling-stroke" x="1.066667e+02"/><rect height="4.401196e+01" vector-effect="non-scaling-stroke" x="128" y="0" width="8.533333e+00"/><rect x="1.493333e+02" y="0" width="8.533333e+00" height="4.400925e+01" vector-effect="non-scaling-stroke"/><rect y="0" width="8.533333e+00" height="4.401054e+01" vector-effect="non-scaling-stroke" x="1.706667e+02"/><rect width="8.533333e+00" height="4.402073e+01" vector-effect="non-scaling-stroke" x="192" y="0"/><rect x="2.133333e+02" y="0" width="8.533333e+00" height="4.460378e+01" vector-effect="non-scaling-stroke"/><rect y="0" width="8.533333e+00" height="4.439051e+01" vector-effect="non-scaling-stroke" x="2.346667e+02"/><rect width="8.533333e+00" height="4.400111e+01" vector-effect="non-scaling-stroke" x="2.560000e+02" y="0"/><rect vector-effect="non-scaling-stroke" x="2.773333e+02" y="0" width="8.533333e+00" height="4.933238e+01"/><rect y="0" width="8.533333e+00" height="4.429364e+01" vector-effect="non-scaling-stroke" x="2.986667e+02"/><rect y="0" width="8.533333e+00" height="4.442308e+01" vector-effect="non-scaling-stroke" x="320"/><rect x="3.413333e+02" y="0" width="8.533333e+00" height="5.011543e+01" vector-effect="non-scaling-stroke"/><rect x="3.626667e+02" y="0" width="8.533333e+00" height="4.400207e+01" vector-effect="non-scaling-stroke"/><rect x="384" y="0" width="8.533333e+00" height="396" vector-effect="non-scaling-stroke"/><rect x="4.053333e+02" y="0" width="8.533333e+00" height="4.432364e+01" vector-effect="non-scaling-stroke"/><rect vector-effect="non-scaling-stroke" x="4.266667e+02" y="0" width="8.533333e+00" height="4.420702e+01"/><rect y="0" width="8.533333e+00" height="1.033720e+02" vector-effect="non-scaling-stroke" x="448"/><rect y="0" width="8.533333e+00" height="7.967368e+01" vector-effect="non-scaling-stroke" x="4.693333e+02"/><rect vector-effect="non-scaling-stroke" x="4.906667e+02" y="0" width="8.533333e+00" height="4.443162e+01"/><rect y="0" width="8.533333e+00" height="4.461319e+01" vector-effect="non-scaling-stroke" x="512"/><rect height="1.257143e+02" vector-effect="non-scaling-stroke" x="5.333333e+02" y="0" width="8.533333e+00"/><rect height="1.816159e+02" vector-effect="non-scaling-stroke" x="5.546667e+02" y="0" width="8.533333e+00"/><rect vector-effect="non-scaling-stroke" x="576" y="0" width="8.533333e+00" height="4.400679e+01"/></g><g fill="hsl(198, 47%, 65%)" dominant-baseline="hanging" font-size="12px" stroke-linecap="round" font-family="sans-serif" font-style="normal" font-weight="normal" text-anchor="start" stroke="hsl(198, 47%, 65%)" stroke-width="1px" stroke-linejoin="round"><rect y="484" width="12" height="12" vector-effect="non-scaling-stroke" x="736"/><g stroke="black" fill="black"><text vector-effect="non-scaling-stroke" x="752" y="484" dominant-baseline="hanging" stroke="none">Golang</text></g><g font-family="sans-serif" stroke="hsl(49, 88%, 65%)" stroke-linecap="round" stroke-linejoin="round" font-weight="normal" text-anchor="start" stroke-width="1px" font-size="12px" fill="hsl(49, 88%, 65%)" font-style="normal" dominant-baseline="hanging"><rect x="736" y="502" width="12" height="12" vector-effect="non-scaling-stroke"/><g stroke="black" fill="black"><text dominant-baseline="hanging" stroke="none" vector-effect="non-scaling-stroke" x="752" y="502">Rust</text><g stroke-width="2px" stroke-linecap="round" fill="none" font-style="normal" font-size="12px" text-anchor="start" font-weight="normal" dominant-baseline="hanging" stroke-linejoin="round" font-family="sans-serif"><rect vector-effect="non-scaling-stroke" x="80" y="80" width="640" height="440"/></g><g transform="translate(80 520 )scale(1 -1 )" stroke="black" stroke-width="2px" stroke-linecap="round" stroke-linejoin="round" fill="none" font-style="normal" dominant-baseline="hanging" font-weight="normal" text-anchor="start" font-family="sans-serif" font-size="12px"><path vector-effect="non-scaling-stroke" d="M64,0 L64,-6 M8.533333e+01,0 L8.533333e+01,-6 M1.066667e+02,0 L1.066667e+02,-6 M128,0 L128,-6 M1.493333e+02,0 L1.493333e+02,-6 M1.706667e+02,0 L1.706667e+02,-6 M192,0 L192,-6 M2.133333e+02,0 L2.133333e+02,-6 M2.346667e+02,0 L2.346667e+02,-6 M256,0 L256,-6 M2.773333e+02,0 L2.773333e+02,-6 M2.986667e+02,0 L2.986667e+02,-6 M320,0 L320,-6 M3.413333e+02,0 L3.413333e+02,-6 M3.626667e+02,0 L3.626667e+02,-6 M384,0 L384,-6 M4.053333e+02,0 L4.053333e+02,-6 M4.266667e+02,0 L4.266667e+02,-6 M448,0 L448,-6 M4.693333e+02,0 L4.693333e+02,-6 M4.906667e+02,0 L4.906667e+02,-6 M512,0 L512,-6 M5.333333e+02,0 L5.333333e+02,-6 M5.546667e+02,0 L5.546667e+02,-6 M576,0 L576,-6 "/></g><g stroke-linejoin="round" font-size="12px" text-anchor="middle" transform="translate(80 520 )scale(1 1 )" fill="black" font-style="normal" dominant-baseline="hanging" font-family="sans-serif" font-weight="normal" stroke="black" stroke-width="2px" stroke-linecap="round"><text vector-effect="non-scaling-stroke" x="64" y="10" dominant-baseline="hanging" stroke="none">1</text><text y="10" dominant-baseline="hanging" stroke="none" vector-effect="non-scaling-stroke" x="8.533333e+01">2</text><text stroke="none" vector-effect="non-scaling-stroke" x="1.066667e+02" y="10" dominant-baseline="hanging">3</text><text x="128" y="10" dominant-baseline="hanging" stroke="none" vector-effect="non-scaling-stroke">4</text><text stroke="none" vector-effect="non-scaling-stroke" x="1.493333e+02" y="10" dominant-baseline="hanging">5</text><text y="10" dominant-baseline="hanging" stroke="none" vector-effect="non-scaling-stroke" x="1.706667e+02">6</text><text stroke="none" vector-effect="non-scaling-stroke" x="192" y="10" dominant-baseline="hanging">7</text><text y="10" dominant-baseline="hanging" stroke="none" vector-effect="non-scaling-stroke" x="2.133333e+02">8</text><text y="10" dominant-baseline="hanging" stroke="none" vector-effect="non-scaling-stroke" x="2.346667e+02">9</text><text y="10" dominant-baseline="hanging" stroke="none" vector-effect="non-scaling-stroke" x="256">10</text><text y="10" dominant-baseline="hanging" stroke="none" vector-effect="non-scaling-stroke" x="2.773333e+02">11</text><text stroke="none" vector-effect="non-scaling-stroke" x="2.986667e+02" y="10" dominant-baseline="hanging">12</text><text vector-effect="non-scaling-stroke" x="320" y="10" dominant-baseline="hanging" stroke="none">13</text><text dominant-baseline="hanging" stroke="none" vector-effect="non-scaling-stroke" x="3.413333e+02" y="10">14</text><text y="10" dominant-baseline="hanging" stroke="none" vector-effect="non-scaling-stroke" x="3.626667e+02">15</text><text vector-effect="non-scaling-stroke" x="384" y="10" dominant-baseline="hanging" stroke="none">16</text><text dominant-baseline="hanging" stroke="none" vector-effect="non-scaling-stroke" x="4.053333e+02" y="10">17</text><text dominant-baseline="hanging" stroke="none" vector-effect="non-scaling-stroke" x="4.266667e+02" y="10">18</text><text stroke="none" vector-effect="non-scaling-stroke" x="448" y="10" dominant-baseline="hanging">19</text><text x="4.693333e+02" y="10" dominant-baseline="hanging" stroke="none" vector-effect="non-scaling-stroke">20</text><text dominant-baseline="hanging" stroke="none" vector-effect="non-scaling-stroke" x="4.906667e+02" y="10">21</text><text y="10" dominant-baseline="hanging" stroke="none" vector-effect="non-scaling-stroke" x="512">22</text><text stroke="none" vector-effect="non-scaling-stroke" x="5.333333e+02" y="10" dominant-baseline="hanging">23</text><text stroke="none" vector-effect="non-scaling-stroke" x="5.546667e+02" y="10" dominant-baseline="hanging">24</text><text stroke="none" vector-effect="non-scaling-stroke" x="576" y="10" dominant-baseline="hanging">25</text></g><g font-weight="bold" fill="black" font-style="normal" transform="translate(80 520 )scale(1 1 )rotate(0 0 0 )" font-family="sans-serif" font-size="12px" stroke-linecap="round" stroke-linejoin="round" text-anchor="middle" dominant-baseline="baseline" stroke="black" stroke-width="2px"><text stroke="none" vector-effect="non-scaling-stroke" x="320" y="-6" dominant-baseline="baseline">Day</text></g><g fill="black" font-style="normal" font-size="12px" stroke-linecap="round" transform="translate(80 520 )scale(1 -1 )" dominant-baseline="baseline" stroke-linejoin="round" font-family="sans-serif" font-weight="bold" text-anchor="middle" stroke="black" stroke-width="2px"><path d="M0,44 L-6,44 M0,1.372344e+02 L-6,1.372344e+02 M0,2.304687e+02 L-6,2.304687e+02 M0,3.237031e+02 L-6,3.237031e+02 " vector-effect="non-scaling-stroke"/></g><g dominant-baseline="middle" transform="translate(80 520 )scale(1 1 )" font-weight="normal" stroke-linecap="round" fill="black" font-style="normal" stroke-width="2px" stroke-linejoin="round" font-family="sans-serif" font-size="12px" text-anchor="end" stroke="black"><text stroke="none" vector-effect="non-scaling-stroke" x="-10" y="-44" dominant-baseline="middle">0s</text><text x="-10" y="-1.372344e+02" dominant-baseline="middle" stroke="none" vector-effect="non-scaling-stroke">100ms</text><text stroke="none" vector-effect="non-scaling-stroke" x="-10" y="-2.304687e+02" dominant-baseline="middle">200ms</text><text x="-10" y="-3.237031e+02" dominant-baseline="middle" stroke="none" vector-effect="non-scaling-stroke">300ms</text></g><g stroke-linejoin="round" font-family="sans-serif" fill="black" font-style="normal" dominant-baseline="hanging" transform="translate(80 520 )scale(1 1 )rotate(-90 0 0 )" stroke="black" stroke-width="2px" text-anchor="middle" stroke-linecap="round" font-size="12px" font-weight="bold"><text y="6" dominant-baseline="hanging" stroke="none" vector-effect="non-scaling-stroke" x="220">Runtime</text></g></g></g></g></svg>