<svg width="800" height="600" viewbox="0 0 800 600" preserveAspectRatio="xMidYMid meet" xmlns="http://www.w3.org/2000/svg"><defs><marker id="circle" viewBox="0 0 10 10 " refX="5" refY="5" markerUnits="userSpaceOnUse" markerWidth="2%" markerHeight="2%"><circle fill="none" stroke="black" cx="5" cy="5" r="3"/></marker><marker refX="5" refY="5" markerUnits="userSpaceOnUse" markerWidth="2%" markerHeight="2%" id="filled-circle" viewBox="0 0 10 10 "><circle fill="black" stroke="none" cx="5" cy="5" r="3"/></marker><marker markerWidth="2%" markerHeight="2%" id="square" viewBox="0 0 10 10 " refX="5" refY="5" markerUnits="userSpaceOnUse"><rect fill="none" stroke="black" x="2" y="2" width="6" height="6"/></marker><marker refX="5" refY="5" markerUnits="userSpaceOnUse" markerWidth="2%" markerHeight="2%" id="filled-square" viewBox="0 0 10 10 "><rect width="6" height="6" fill="black" stroke="none" x="2" y="2"/></marker></defs><g stroke-width="1px" stroke-linecap="round" stroke-linejoin="round" transform="translate(80 520 )scale(1 -1 )" fill="hsl(198, 47%, 65%)" stroke="hsl(198, 47%, 65%)"><rect x="5.333333e+01" y="0" width="1.066667e+01" height="4.423525e+01" vector-effect="non-scaling-stroke"/><rect vector-effect="non-scaling-stroke" x="7.466667e+01" y="0" width="1.066667e+01" height="4.423326e+01"/><rect x="96" y="0" width="1.066667e+01" height="4.414482e+01" vector-effect="non-scaling-stroke"/><rect x="1.173333e+02" y="0" width="1.066667e+01" height="4.533401e+01" vector-effect="non-scaling-stroke"/><rect height="4.414970e+01" vector-effect="non-scaling-stroke" x="1.386667e+02" y="0" width="1.066667e+01"/><rect width="1.066667e+01" height="396" vector-effect="non-scaling-stroke" x="160" y="0"/><rect vector-effect="non-scaling-stroke" x="1.813333e+02" y="0" width="1.066667e+01" height="1.265206e+02"/><rect height="4.403414e+01" vector-effect="non-scaling-stroke" x="2.026667e+02" y="0" width="1.066667e+01"/><rect x="2.240000e+02" y="0" width="1.066667e+01" height="4.626741e+01" vector-effect="non-scaling-stroke"/><rect y="0" width="1.066667e+01" height="4.455961e+01" vector-effect="non-scaling-stroke" x="2.453333e+02"/><rect vector-effect="non-scaling-stroke" x="2.666667e+02" y="0" width="1.066667e+01" height="5.078807e+01"/><rect x="288" y="0" width="1.066667e+01" height="4.690133e+01" vector-effect="non-scaling-stroke"/><rect vector-effect="non-scaling-stroke" x="3.093333e+02" y="0" width="1.066667e+01" height="4.403436e+01"/><rect vector-effect="non-scaling-stroke" x="3.306667e+02" y="0" width="1.066667e+01" height="7.156957e+01"/><rect x="3.520000e+02" y="0" width="1.066667e+01" height="4.723968e+01" vector-effect="non-scaling-stroke"/><rect x="3.733333e+02" y="0" width="1.066667e+01" height="1.121467e+02" vector-effect="non-scaling-stroke"/><rect y="0" width="1.066667e+01" height="4.409585e+01" vector-effect="non-scaling-stroke" x="3.946667e+02"/><rect x="4.160000e+02" y="0" width="1.066667e+01" height="4.501693e+01" vector-effect="non-scaling-stroke"/><rect y="0" width="1.066667e+01" height="1.616644e+02" vector-effect="non-scaling-stroke" x="4.373333e+02"/><rect width="1.066667e+01" height="1.421085e+02" vector-effect="non-scaling-stroke" x="4.586667e+02" y="0"/></g><g transform="translate(80 520 )scale(1 -1 )" fill="hsl(49, 88%, 65%)" stroke="hsl(49, 88%, 65%)" stroke-width="1px" stroke-linecap="round" stroke-linejoin="round"><rect x="6.400000e+01" y="0" width="1.066667e+01" height="4.422948e+01" vector-effect="non-scaling-stroke"/><rect x="8.533333e+01" y="0" width="1.066667e+01" height="4.421116e+01" vector-effect="non-scaling-stroke"/><rect vector-effect="non-scaling-stroke" x="1.066667e+02" y="0" width="1.066667e+01" height="4.404346e+01"/><rect y="0" width="1.066667e+01" height="4.622662e+01" vector-effect="non-scaling-stroke" x="128"/><rect vector-effect="non-scaling-stroke" x="1.493333e+02" y="0" width="1.066667e+01" height="4.408438e+01"/><rect width="1.066667e+01" height="3.114004e+02" vector-effect="non-scaling-stroke" x="1.706667e+02" y="0"/><rect y="0" width="1.066667e+01" height="1.275011e+02" vector-effect="non-scaling-stroke" x="192"/><rect width="1.066667e+01" height="4.401625e+01" vector-effect="non-scaling-stroke" x="2.133333e+02" y="0"/><rect height="4.690768e+01" vector-effect="non-scaling-stroke" x="2.346667e+02" y="0" width="1.066667e+01"/><rect y="0" width="1.066667e+01" height="4.418291e+01" vector-effect="non-scaling-stroke" x="2.560000e+02"/><rect x="2.773333e+02" y="0" width="1.066667e+01" height="4.918509e+01" vector-effect="non-scaling-stroke"/><rect vector-effect="non-scaling-stroke" x="2.986667e+02" y="0" width="1.066667e+01" height="4.621178e+01"/><rect width="1.066667e+01" height="4.402768e+01" vector-effect="non-scaling-stroke" x="320" y="0"/><rect x="3.413333e+02" y="0" width="1.066667e+01" height="6.266067e+01" vector-effect="non-scaling-stroke"/><rect width="1.066667e+01" height="5.329766e+01" vector-effect="non-scaling-stroke" x="3.626667e+02" y="0"/><rect vector-effect="non-scaling-stroke" x="384" y="0" width="1.066667e+01" height="9.482237e+01"/><rect vector-effect="non-scaling-stroke" x="4.053333e+02" y="0" width="1.066667e+01" height="4.487092e+01"/><rect width="1.066667e+01" height="4.460063e+01" vector-effect="non-scaling-stroke" x="4.266667e+02" y="0"/><rect height="1.371880e+02" vector-effect="non-scaling-stroke" x="448" y="0" width="1.066667e+01"/><rect vector-effect="non-scaling-stroke" x="4.693333e+02" y="0" width="1.066667e+01" height="1.703957e+02"/></g><g fill="hsl(198, 47%, 65%)" stroke-width="1px" stroke-linecap="round" stroke-linejoin="round" font-family="sans-serif" font-weight="normal" text-anchor="start" dominant-baseline="hanging" stroke="hsl(198, 47%, 65%)" font-size="12px" font-style="normal"><rect width="12" height="12" vector-effect="non-scaling-stroke" x="736" y="484"/><g stroke="black" fill="black"><text x="752" y="484" dominant-baseline="hanging" stroke="none" vector-effect="non-scaling-stroke">Golang</text></g><g text-anchor="start" font-weight="normal" stroke="hsl(49, 88%, 65%)" font-size="12px" font-style="normal" dominant-baseline="hanging" stroke-width="1px" stroke-linecap="round" stroke-linejoin="round" font-family="sans-serif" fill="hsl(49, 88%, 65%)"><rect vector-effect="non-scaling-stroke" x="736" y="502" width="12" height="12"/><g fill="black" stroke="black"><text dominant-baseline="hanging" stroke="none" vector-effect="non-scaling-stroke" x="752" y="502">Rust</text><g dominant-baseline="hanging" font-size="12px" stroke-linejoin="round" font-family="sans-serif" fill="none" text-anchor="start" stroke-linecap="round" font-weight="normal" font-style="normal" stroke-width="2px"><rect height="440" vector-effect="non-scaling-stroke" x="80" y="80" width="640"/></g><g stroke="black" stroke-linecap="round" stroke-linejoin="round" font-family="sans-serif" font-weight="normal" fill="none" font-style="normal" text-anchor="start" dominant-baseline="hanging" transform="translate(80 520 )scale(1 -1 )" stroke-width="2px" font-size="12px"><path vector-effect="non-scaling-stroke" d="M64,0 L64,-6 M8.533333e+01,0 L8.533333e+01,-6 M1.066667e+02,0 L1.066667e+02,-6 M128,0 L128,-6 M1.493333e+02,0 L1.493333e+02,-6 M1.706667e+02,0 L1.706667e+02,-6 M192,0 L192,-6 M2.133333e+02,0 L2.133333e+02,-6 M2.346667e+02,0 L2.346667e+02,-6 M256,0 L256,-6 M2.773333e+02,0 L2.773333e+02,-6 M2.986667e+02,0 L2.986667e+02,-6 M320,0 L320,-6 M3.413333e+02,0 L3.413333e+02,-6 M3.626667e+02,0 L3.626667e+02,-6 M384,0 L384,-6 M4.053333e+02,0 L4.053333e+02,-6 M4.266667e+02,0 L4.266667e+02,-6 M448,0 L448,-6 M4.693333e+02,0 L4.693333e+02,-6 "/></g><g font-style="normal" stroke="black" font-weight="normal" text-anchor="middle" dominant-baseline="hanging" transform="translate(80 520 )scale(1 1 )" stroke-width="2px" stroke-linecap="round" stroke-linejoin="round" font-family="sans-serif" font-size="12px" fill="black"><text dominant-baseline="hanging" stroke="none" vector-effect="non-scaling-stroke" x="64" y="10">1</text><text stroke="none" vector-effect="non-scaling-stroke" x="8.533333e+01" y="10" dominant-baseline="hanging">2</text><text y="10" dominant-baseline="hanging" stroke="none" vector-effect="non-scaling-stroke" x="1.066667e+02">3</text><text stroke="none" vector-effect="non-scaling-stroke" x="128" y="10" dominant-baseline="hanging">4</text><text stroke="none" vector-effect="non-scaling-stroke" x="1.493333e+02" y="10" dominant-baseline="hanging">5</text><text x="1.706667e+02" y="10" dominant-baseline="hanging" stroke="none" vector-effect="non-scaling-stroke">6</text><text stroke="none" vector-effect="non-scaling-stroke" x="192" y="10" dominant-baseline="hanging">7</text><text vector-effect="non-scaling-stroke" x="2.133333e+02" y="10" dominant-baseline="hanging" stroke="none">8</text><text stroke="none" vector-effect="non-scaling-stroke" x="2.346667e+02" y="10" dominant-baseline="hanging">9</text><text x="256" y="10" dominant-baseline="hanging" stroke="none" vector-effect="non-scaling-stroke">10</text><text stroke="none" vector-effect="non-scaling-stroke" x="2.773333e+02" y="10" dominant-baseline="hanging">11</text><text y="10" dominant-baseline="hanging" stroke="none" vector-effect="non-scaling-stroke" x="2.986667e+02">12</text><text vector-effect="non-scaling-stroke" x="320" y="10" dominant-baseline="hanging" stroke="none">13</text><text dominant-baseline="hanging" stroke="none" vector-effect="non-scaling-stroke" x="3.413333e+02" y="10">14</text><text y="10" dominant-baseline="hanging" stroke="none" vector-effect="non-scaling-stroke" x="3.626667e+02">15</text><text x="384" y="10" dominant-baseline="hanging" stroke="none" vector-effect="non-scaling-stroke">16</text><text vector-effect="non-scaling-stroke" x="4.053333e+02" y="10" dominant-baseline="hanging" stroke="none">17</text><text stroke="none" vector-effect="non-scaling-stroke" x="4.266667e+02" y="10" dominant-baseline="hanging">18</text><text x="448" y="10" dominant-baseline="hanging" stroke="none" vector-effect="non-scaling-stroke">19</text><text x="4.693333e+02" y="10" dominant-baseline="hanging" stroke="none" vector-effect="non-scaling-stroke">20</text></g><g stroke="black" text-anchor="middle" dominant-baseline="baseline" stroke-width="2px" stroke-linejoin="round" font-family="sans-serif" fill="black" font-size="12px" font-style="normal" font-weight="bold" transform="translate(80 520 )scale(1 1 )rotate(0 0 0 )" stroke-linecap="round"><text vector-effect="non-scaling-stroke" x="320" y="-6" dominant-baseline="baseline" stroke="none">Day</text></g><g transform="translate(80 520 )scale(1 -1 )" stroke-width="2px" stroke-linecap="round" font-weight="bold" fill="black" font-size="12px" font-style="normal" stroke-linejoin="round" font-family="sans-serif" text-anchor="middle" dominant-baseline="baseline" stroke="black"><path vector-effect="non-scaling-stroke" d="M0,44 L-6,44 M0,9.307912e+01 L-6,9.307912e+01 M0,1.421582e+02 L-6,1.421582e+02 M0,1.912374e+02 L-6,1.912374e+02 M0,2.403165e+02 L-6,2.403165e+02 M0,2.893956e+02 L-6,2.893956e+02 M0,3.384747e+02 L-6,3.384747e+02 M0,3.875538e+02 L-6,3.875538e+02 "/></g><g font-family="sans-serif" font-weight="normal" stroke="black" font-size="12px" font-style="normal" dominant-baseline="middle" stroke-linecap="round" stroke-linejoin="round" text-anchor="end" fill="black" transform="translate(80 520 )scale(1 1 )" stroke-width="2px"><text x="-10" y="-44" dominant-baseline="middle" stroke="none" vector-effect="non-scaling-stroke">0s</text><text dominant-baseline="middle" stroke="none" vector-effect="non-scaling-stroke" x="-10" y="-9.307912e+01">10ms</text><text stroke="none" vector-effect="non-scaling-stroke" x="-10" y="-1.421582e+02" dominant-baseline="middle">20ms</text><text dominant-baseline="middle" stroke="none" vector-effect="non-scaling-stroke" x="-10" y="-1.912374e+02">30ms</text><text stroke="none" vector-effect="non-scaling-stroke" x="-10" y="-2.403165e+02" dominant-baseline="middle">40ms</text><text dominant-baseline="middle" stroke="none" vector-effect="non-scaling-stroke" x="-10" y="-2.893956e+02">50ms</text><text x="-10" y="-3.384747e+02" dominant-baseline="middle" stroke="none" vector-effect="non-scaling-stroke">60ms</text><text vector-effect="non-scaling-stroke" x="-10" y="-3.875538e+02" dominant-baseline="middle" stroke="none">70ms</text></g><g font-weight="bold" text-anchor="middle" fill="black" font-size="12px" font-style="normal" stroke-width="2px" stroke-linecap="round" stroke-linejoin="round" dominant-baseline="hanging" stroke="black" font-family="sans-serif" transform="translate(80 520 )scale(1 1 )rotate(-90 0 0 )"><text stroke="none" vector-effect="non-scaling-stroke" x="220" y="6" dominant-baseline="hanging">Runtime</text></g></g></g></g></svg>