<svg viewbox="0 0 800 600" preserveAspectRatio="xMidYMid meet" xmlns="http://www.w3.org/2000/svg" width="800" height="600"><defs><marker refY="5" markerUnits="userSpaceOnUse" markerWidth="2%" markerHeight="2%" id="circle" viewBox="0 0 10 10 " refX="5"><circle cy="5" r="3" fill="none" stroke="black" cx="5"/></marker><marker id="filled-circle" viewBox="0 0 10 10 " refX="5" refY="5" markerUnits="userSpaceOnUse" markerWidth="2%" markerHeight="2%"><circle r="3" fill="black" stroke="none" cx="5" cy="5"/></marker><marker markerHeight="2%" id="square" viewBox="0 0 10 10 " refX="5" refY="5" markerUnits="userSpaceOnUse" markerWidth="2%"><rect height="6" fill="none" stroke="black" x="2" y="2" width="6"/></marker><marker markerUnits="userSpaceOnUse" markerWidth="2%" markerHeight="2%" id="filled-square" viewBox="0 0 10 10 " refX="5" refY="5"><rect width="6" height="6" fill="black" stroke="none" x="2" y="2"/></marker></defs><g fill="hsl(198, 47%, 65%)" stroke="hsl(198, 47%, 65%)" stroke-width="1px" stroke-linecap="round" stroke-linejoin="round" transform="translate(80 520 )scale(1 -1 )"><rect vector-effect="non-scaling-stroke" x="3.650000e+01" y="0" width="1.833333e+01" height="4.432046e+01"/><rect width="1.833333e+01" height="3.269573e+02" vector-effect="non-scaling-stroke" x="5.783333e+01" y="0"/><rect width="1.833333e+01" height="4.568665e+01" vector-effect="non-scaling-stroke" x="7.916667e+01" y="0"/><rect width="1.833333e+01" height="1.119387e+02" vector-effect="non-scaling-stroke" x="1.005000e+02" y="0"/><rect width="1.833333e+01" height="4.527785e+01" vector-effect="non-scaling-stroke" x="1.218333e+02" y="0"/></g><g stroke-linecap="round" stroke-linejoin="round" transform="translate(80 520 )scale(1 -1 )" fill="hsl(49, 88%, 65%)" stroke="hsl(49, 88%, 65%)" stroke-width="1px"><rect x="5.483333e+01" y="0" width="1.833333e+01" height="4.416216e+01" vector-effect="non-scaling-stroke"/><rect height="396" vector-effect="non-scaling-stroke" x="7.616667e+01" y="0" width="1.833333e+01"/><rect width="1.833333e+01" height="4.501873e+01" vector-effect="non-scaling-stroke" x="9.750000e+01" y="0"/><rect vector-effect="non-scaling-stroke" x="1.188333e+02" y="0" width="1.833333e+01" height="5.120911e+01"/><rect x="1.401667e+02" y="0" width="1.833333e+01" height="4.628371e+01" vector-effect="non-scaling-stroke"/></g><g stroke-linejoin="round" transform="translate(80 520 )scale(1 -1 )" fill="hsl(260, 76%, 65%)" stroke="hsl(260, 76%, 65%)" stroke-width="1px" stroke-linecap="round"><rect x="7.316667e+01" y="0" width="1.833333e+01" height="4.416834e+01" vector-effect="non-scaling-stroke"/><rect vector-effect="non-scaling-stroke" x="9.450000e+01" y="0" width="1.833333e+01" height="2.239032e+02"/><rect y="0" width="1.833333e+01" height="4.470181e+01" vector-effect="non-scaling-stroke" x="1.158333e+02"/><rect x="1.371667e+02" y="0" width="1.833333e+01" height="5.645230e+01" vector-effect="non-scaling-stroke"/><rect vector-effect="non-scaling-stroke" x="1.585000e+02" y="0" width="1.833333e+01" height="4.510883e+01"/></g><g fill="hsl(198, 47%, 65%)" stroke="hsl(198, 47%, 65%)" stroke-linecap="round" stroke-linejoin="round" font-size="12px" stroke-width="1px" text-anchor="start" font-family="sans-serif" font-style="normal" font-weight="normal" dominant-baseline="hanging"><rect y="466" width="12" height="12" vector-effect="non-scaling-stroke" x="736"/><g fill="black" stroke="black"><text x="752" y="466" dominant-baseline="hanging" stroke="none" vector-effect="non-scaling-stroke">Golang</text></g><g fill="hsl(49, 88%, 65%)" stroke="hsl(49, 88%, 65%)" stroke-linejoin="round" font-family="sans-serif" font-size="12px" font-weight="normal" text-anchor="start" dominant-baseline="hanging" stroke-linecap="round" stroke-width="1px" font-style="normal"><rect vector-effect="non-scaling-stroke" x="736" y="484" width="12" height="12"/><g stroke="black" fill="black"><text stroke="none" vector-effect="non-scaling-stroke" x="752" y="484" dominant-baseline="hanging">Rust</text></g><g text-anchor="start" fill="hsl(260, 76%, 65%)" stroke="hsl(260, 76%, 65%)" stroke-linecap="round" font-family="sans-serif" font-size="12px" stroke-width="1px" font-weight="normal" dominant-baseline="hanging" stroke-linejoin="round" font-style="normal"><rect vector-effect="non-scaling-stroke" x="736" y="502" width="12" height="12"/><g fill="black" stroke="black"><text stroke="none" vector-effect="non-scaling-stroke" x="752" y="502" dominant-baseline="hanging">Zig</text><g font-weight="normal" text-anchor="start" stroke-width="2px" fill="none" font-style="normal" dominant-baseline="hanging" stroke-linecap="round" stroke-linejoin="round" font-family="sans-serif" font-size="12px"><rect height="440" vector-effect="non-scaling-stroke" x="80" y="80" width="640"/></g><g font-weight="normal" fill="none" stroke="black" stroke-linecap="round" font-family="sans-serif" font-size="12px" transform="translate(80 520 )scale(1 -1 )" text-anchor="start" dominant-baseline="hanging" stroke-linejoin="round" stroke-width="2px" font-style="normal"><path d="M64,0 L64,-6 M8.533333e+01,0 L8.533333e+01,-6 M1.066667e+02,0 L1.066667e+02,-6 M128,0 L128,-6 M1.493333e+02,0 L1.493333e+02,-6 " vector-effect="non-scaling-stroke"/></g><g stroke-linecap="round" stroke-linejoin="round" font-family="sans-serif" font-size="12px" stroke-width="2px" font-style="normal" font-weight="normal" text-anchor="middle" fill="black" stroke="black" transform="translate(80 520 )scale(1 1 )" dominant-baseline="hanging"><text stroke="none" vector-effect="non-scaling-stroke" x="64" y="10" dominant-baseline="hanging">1</text><text x="8.533333e+01" y="10" dominant-baseline="hanging" stroke="none" vector-effect="non-scaling-stroke">2</text><text x="1.066667e+02" y="10" dominant-baseline="hanging" stroke="none" vector-effect="non-scaling-stroke">3</text><text vector-effect="non-scaling-stroke" x="128" y="10" dominant-baseline="hanging" stroke="none">4</text><text dominant-baseline="hanging" stroke="none" vector-effect="non-scaling-stroke" x="1.493333e+02" y="10">5</text></g><g text-anchor="middle" dominant-baseline="baseline" fill="black" stroke="black" stroke-linecap="round" stroke-linejoin="round" font-family="sans-serif" stroke-width="2px" font-style="normal" font-size="12px" transform="translate(80 520 )scale(1 1 )rotate(0 0 0 )" font-weight="bold"><text x="320" y="-6" dominant-baseline="baseline" stroke="none" vector-effect="non-scaling-stroke">Day</text></g><g stroke="black" stroke-linejoin="round" transform="translate(80 520 )scale(1 -1 )" stroke-width="2px" font-style="normal" font-weight="bold" text-anchor="middle" dominant-baseline="baseline" fill="black" stroke-linecap="round" font-family="sans-serif" font-size="12px"><path vector-effect="non-scaling-stroke" d="M0,44 L-6,44 M0,2.101119e+02 L-6,2.101119e+02 M0,3.762239e+02 L-6,3.762239e+02 "/></g><g fill="black" stroke="black" transform="translate(80 520 )scale(1 1 )" font-style="normal" font-weight="normal" text-anchor="end" dominant-baseline="middle" stroke-linecap="round" stroke-linejoin="round" font-family="sans-serif" font-size="12px" stroke-width="2px"><text x="-10" y="-44" dominant-baseline="middle" stroke="none" vector-effect="non-scaling-stroke">0s</text><text stroke="none" vector-effect="non-scaling-stroke" x="-10" y="-2.101119e+02" dominant-baseline="middle">10ms</text><text stroke="none" vector-effect="non-scaling-stroke" x="-10" y="-3.762239e+02" dominant-baseline="middle">20ms</text></g><g font-family="sans-serif" transform="translate(80 520 )scale(1 1 )rotate(-90 0 0 )" stroke-width="2px" fill="black" stroke="black" stroke-linecap="round" stroke-linejoin="round" font-size="12px" font-style="normal" font-weight="bold" text-anchor="middle" dominant-baseline="hanging"><text x="220" y="6" dominant-baseline="hanging" stroke="none" vector-effect="non-scaling-stroke">Runtime</text></g></g></g></g></g></svg>