<svg width="800" height="600" viewbox="0 0 800 600" preserveAspectRatio="xMidYMid meet" xmlns="http://www.w3.org/2000/svg"><defs><marker markerUnits="userSpaceOnUse" markerWidth="2%" markerHeight="2%" id="circle" viewBox="0 0 10 10 " refX="5" refY="5"><circle cy="5" r="3" fill="none" stroke="black" cx="5"/></marker><marker refY="5" markerUnits="userSpaceOnUse" markerWidth="2%" markerHeight="2%" id="filled-circle" viewBox="0 0 10 10 " refX="5"><circle stroke="none" cx="5" cy="5" r="3" fill="black"/></marker><marker id="square" viewBox="0 0 10 10 " refX="5" refY="5" markerUnits="userSpaceOnUse" markerWidth="2%" markerHeight="2%"><rect width="6" height="6" fill="none" stroke="black" x="2" y="2"/></marker><marker markerHeight="2%" id="filled-square" viewBox="0 0 10 10 " refX="5" refY="5" markerUnits="userSpaceOnUse" markerWidth="2%"><rect stroke="none" x="2" y="2" width="6" height="6" fill="black"/></marker></defs><g transform="translate(80 520 )scale(1 -1 )" fill="hsl(198, 47%, 65%)" stroke="hsl(198, 47%, 65%)" stroke-width="1px" stroke-linecap="round" stroke-linejoin="round"><rect width="9.275362e+00" height="4.400663e+01" vector-effect="non-scaling-stroke" x="5.472464e+01" y="0"/><rect y="0" width="9.275362e+00" height="4.400183e+01" vector-effect="non-scaling-stroke" x="7.605797e+01"/><rect vector-effect="non-scaling-stroke" x="9.739130e+01" y="0" width="9.275362e+00" height="4.402010e+01"/><rect x="1.187246e+02" y="0" width="9.275362e+00" height="4.400867e+01" vector-effect="non-scaling-stroke"/><rect x="1.400580e+02" y="0" width="9.275362e+00" height="4.400496e+01" vector-effect="non-scaling-stroke"/><rect vector-effect="non-scaling-stroke" x="1.613913e+02" y="0" width="9.275362e+00" height="4.401291e+01"/><rect vector-effect="non-scaling-stroke" x="1.827246e+02" y="0" width="9.275362e+00" height="4.401004e+01"/><rect vector-effect="non-scaling-stroke" x="2.040580e+02" y="0" width="9.275362e+00" height="4.426947e+01"/><rect x="2.253913e+02" y="0" width="9.275362e+00" height="4.416151e+01" vector-effect="non-scaling-stroke"/><rect height="4.400064e+01" vector-effect="non-scaling-stroke" x="2.467246e+02" y="0" width="9.275362e+00"/><rect x="2.680580e+02" y="0" width="9.275362e+00" height="4.969217e+01" vector-effect="non-scaling-stroke"/><rect y="0" width="9.275362e+00" height="4.420433e+01" vector-effect="non-scaling-stroke" x="2.893913e+02"/><rect x="3.107246e+02" y="0" width="9.275362e+00" height="4.432554e+01" vector-effect="non-scaling-stroke"/><rect vector-effect="non-scaling-stroke" x="3.320580e+02" y="0" width="9.275362e+00" height="4.640390e+01"/><rect width="9.275362e+00" height="4.400204e+01" vector-effect="non-scaling-stroke" x="3.533913e+02" y="0"/><rect width="9.275362e+00" height="2.825603e+02" vector-effect="non-scaling-stroke" x="3.747246e+02" y="0"/><rect vector-effect="non-scaling-stroke" x="3.960580e+02" y="0" width="9.275362e+00" height="4.419513e+01"/><rect height="4.407638e+01" vector-effect="non-scaling-stroke" x="4.173913e+02" y="0" width="9.275362e+00"/><rect width="9.275362e+00" height="1.549507e+02" vector-effect="non-scaling-stroke" x="4.387246e+02" y="0"/><rect height="6.242573e+01" vector-effect="non-scaling-stroke" x="4.600580e+02" y="0" width="9.275362e+00"/><rect y="0" width="9.275362e+00" height="4.414688e+01" vector-effect="non-scaling-stroke" x="4.813913e+02"/><rect vector-effect="non-scaling-stroke" x="5.027246e+02" y="0" width="9.275362e+00" height="4.439724e+01"/><rect height="1.478983e+02" vector-effect="non-scaling-stroke" x="5.240580e+02" y="0" width="9.275362e+00"/></g><g fill="hsl(49, 88%, 65%)" stroke="hsl(49, 88%, 65%)" stroke-width="1px" stroke-linecap="round" stroke-linejoin="round" transform="translate(80 520 )scale(1 -1 )"><rect width="9.275362e+00" height="4.400300e+01" vector-effect="non-scaling-stroke" x="64" y="0"/><rect vector-effect="non-scaling-stroke" x="8.533333e+01" y="0" width="9.275362e+00" height="4.400044e+01"/><rect vector-effect="non-scaling-stroke" x="1.066667e+02" y="0" width="9.275362e+00" height="4.401518e+01"/><rect height="4.400518e+01" vector-effect="non-scaling-stroke" x="1.280000e+02" y="0" width="9.275362e+00"/><rect width="9.275362e+00" height="4.400400e+01" vector-effect="non-scaling-stroke" x="1.493333e+02" y="0"/><rect vector-effect="non-scaling-stroke" x="1.706667e+02" y="0" width="9.275362e+00" height="4.400768e+01"/><rect y="0" width="9.275362e+00" height="4.400898e+01" vector-effect="non-scaling-stroke" x="192"/><rect x="2.133333e+02" y="0" width="9.275362e+00" height="4.426141e+01" vector-effect="non-scaling-stroke"/><rect vector-effect="non-scaling-stroke" x="2.346667e+02" y="0" width="9.275362e+00" height="4.415612e+01"/><rect y="0" width="9.275362e+00" height="4.400048e+01" vector-effect="non-scaling-stroke" x="256"/><rect y="0" width="9.275362e+00" height="4.612509e+01" vector-effect="non-scaling-stroke" x="2.773333e+02"/><rect vector-effect="non-scaling-stroke" x="2.986667e+02" y="0" width="9.275362e+00" height="4.412761e+01"/><rect x="320" y="0" width="9.275362e+00" height="4.427601e+01" vector-effect="non-scaling-stroke"/><rect height="4.664772e+01" vector-effect="non-scaling-stroke" x="3.413333e+02" y="0" width="9.275362e+00"/><rect width="9.275362e+00" height="4.400086e+01" vector-effect="non-scaling-stroke" x="3.626667e+02" y="0"/><rect vector-effect="non-scaling-stroke" x="384" y="0" width="9.275362e+00" height="396"/><rect vector-effect="non-scaling-stroke" x="4.053333e+02" y="0" width="9.275362e+00" height="4.413340e+01"/><rect width="9.275362e+00" height="4.408963e+01" vector-effect="non-scaling-stroke" x="4.266667e+02" y="0"/><rect width="9.275362e+00" height="8.280417e+01" vector-effect="non-scaling-stroke" x="448" y="0"/><rect vector-effect="non-scaling-stroke" x="4.693333e+02" y="0" width="9.275362e+00" height="5.935094e+01"/><rect vector-effect="non-scaling-stroke" x="4.906667e+02" y="0" width="9.275362e+00" height="4.418238e+01"/><rect height="4.426322e+01" vector-effect="non-scaling-stroke" x="5.120000e+02" y="0" width="9.275362e+00"/><rect vector-effect="non-scaling-stroke" x="5.333333e+02" y="0" width="9.275362e+00" height="1.414235e+02"/></g><g font-style="normal" fill="hsl(198, 47%, 65%)" font-size="12px" stroke-linecap="round" stroke-linejoin="round" font-family="sans-serif" stroke="hsl(198, 47%, 65%)" text-anchor="start" font-weight="normal" stroke-width="1px" dominant-baseline="hanging"><rect vector-effect="non-scaling-stroke" x="736" y="484" width="12" height="12"/><g stroke="black" fill="black"><text x="752" y="484" dominant-baseline="hanging" stroke="none" vector-effect="non-scaling-stroke">Golang</text></g><g font-weight="normal" fill="hsl(49, 88%, 65%)" stroke="hsl(49, 88%, 65%)" stroke-width="1px" stroke-linejoin="round" font-family="sans-serif" dominant-baseline="hanging" stroke-linecap="round" font-style="normal" font-size="12px" text-anchor="start"><rect y="502" width="12" height="12" vector-effect="non-scaling-stroke" x="736"/><g fill="black" stroke="black"><text stroke="none" vector-effect="non-scaling-stroke" x="752" y="502" dominant-baseline="hanging">Rust</text><g stroke-linejoin="round" font-style="normal" stroke-width="2px" font-weight="normal" font-size="12px" text-anchor="start" font-family="sans-serif" dominant-baseline="hanging" fill="none" stroke-linecap="round"><rect x="80" y="80" width="640" height="440" vector-effect="non-scaling-stroke"/></g><g font-family="sans-serif" font-style="normal" fill="none" font-size="12px" text-anchor="start" stroke-linecap="round" stroke-linejoin="round" dominant-baseline="hanging" stroke="black" stroke-width="2px" transform="translate(80 520 )scale(1 -1 )" font-weight="normal"><path vector-effect="non-scaling-stroke" d="M64,0 L64,-6 M8.533333e+01,0 L8.533333e+01,-6 M1.066667e+02,0 L1.066667e+02,-6 M128,0 L128,-6 M1.493333e+02,0 L1.493333e+02,-6 M1.706667e+02,0 L1.706667e+02,-6 M192,0 L192,-6 M2.133333e+02,0 L2.133333e+02,-6 M2.346667e+02,0 L2.346667e+02,-6 M256,0 L256,-6 M2.773333e+02,0 L2.773333e+02,-6 M2.986667e+02,0 L2.986667e+02,-6 M320,0 L320,-6 M3.413333e+02,0 L3.413333e+02,-6 M3.626667e+02,0 L3.626667e+02,-6 M384,0 L384,-6 M4.053333e+02,0 L4.053333e+02,-6 M4.266667e+02,0 L4.266667e+02,-6 M448,0 L448,-6 M4.693333e+02,0 L4.693333e+02,-6 M4.906667e+02,0 L4.906667e+02,-6 M512,0 L512,-6 M5.333333e+02,0 L5.333333e+02,-6 "/></g><g transform="translate(80 520 )scale(1 1 )" font-size="12px" font-family="sans-serif" stroke="black" stroke-linejoin="round" font-style="normal" dominant-baseline="hanging" fill="black" text-anchor="middle" font-weight="normal" stroke-width="2px" stroke-linecap="round"><text y="10" dominant-baseline="hanging" stroke="none" vector-effect="non-scaling-stroke" x="64">1</text><text vector-effect="non-scaling-stroke" x="8.533333e+01" y="10" dominant-baseline="hanging" stroke="none">2</text><text stroke="none" vector-effect="non-scaling-stroke" x="1.066667e+02" y="10" dominant-baseline="hanging">3</text><text vector-effect="non-scaling-stroke" x="128" y="10" dominant-baseline="hanging" stroke="none">4</text><text stroke="none" vector-effect="non-scaling-stroke" x="1.493333e+02" y="10" dominant-baseline="hanging">5</text><text x="1.706667e+02" y="10" dominant-baseline="hanging" stroke="none" vector-effect="non-scaling-stroke">6</text><text dominant-baseline="hanging" stroke="none" vector-effect="non-scaling-stroke" x="192" y="10">7</text><text x="2.133333e+02" y="10" dominant-baseline="hanging" stroke="none" vector-effect="non-scaling-stroke">8</text><text dominant-baseline="hanging" stroke="none" vector-effect="non-scaling-stroke" x="2.346667e+02" y="10">9</text><text vector-effect="non-scaling-stroke" x="256" y="10" dominant-baseline="hanging" stroke="none">10</text><text dominant-baseline="hanging" stroke="none" vector-effect="non-scaling-stroke" x="2.773333e+02" y="10">11</text><text stroke="none" vector-effect="non-scaling-stroke" x="2.986667e+02" y="10" dominant-baseline="hanging">12</text><text stroke="none" vector-effect="non-scaling-stroke" x="320" y="10" dominant-baseline="hanging">13</text><text stroke="none" vector-effect="non-scaling-stroke" x="3.413333e+02" y="10" dominant-baseline="hanging">14</text><text stroke="none" vector-effect="non-scaling-stroke" x="3.626667e+02" y="10" dominant-baseline="hanging">15</text><text stroke="none" vector-effect="non-scaling-stroke" x="384" y="10" dominant-baseline="hanging">16</text><text dominant-baseline="hanging" stroke="none" vector-effect="non-scaling-stroke" x="4.053333e+02" y="10">17</text><text vector-effect="non-scaling-stroke" x="4.266667e+02" y="10" dominant-baseline="hanging" stroke="none">18</text><text stroke="none" vector-effect="non-scaling-stroke" x="448" y="10" dominant-baseline="hanging">19</text><text x="4.693333e+02" y="10" dominant-baseline="hanging" stroke="none" vector-effect="non-scaling-stroke">20</text><text vector-effect="non-scaling-stroke" x="4.906667e+02" y="10" dominant-baseline="hanging" stroke="none">21</text><text vector-effect="non-scaling-stroke" x="512" y="10" dominant-baseline="hanging" stroke="none">22</text><text x="5.333333e+02" y="10" dominant-baseline="hanging" stroke="none" vector-effect="non-scaling-stroke">23</text></g><g font-family="sans-serif" fill="black" stroke-width="2px" stroke-linecap="round" font-size="12px" font-weight="bold" transform="translate(80 520 )scale(1 1 )rotate(0 0 0 )" stroke-linejoin="round" text-anchor="middle" font-style="normal" dominant-baseline="baseline" stroke="black"><text stroke="none" vector-effect="non-scaling-stroke" x="320" y="-6" dominant-baseline="baseline">Day</text></g><g font-weight="bold" text-anchor="middle" stroke="black" font-size="12px" dominant-baseline="baseline" fill="black" stroke-width="2px" stroke-linecap="round" stroke-linejoin="round" font-family="sans-serif" font-style="normal" transform="translate(80 520 )scale(1 -1 )"><path vector-effect="non-scaling-stroke" d="M0,44 L-6,44 M0,8.436644e+01 L-6,8.436644e+01 M0,1.247329e+02 L-6,1.247329e+02 M0,1.650993e+02 L-6,1.650993e+02 M0,2.054658e+02 L-6,2.054658e+02 M0,2.458322e+02 L-6,2.458322e+02 M0,2.861986e+02 L-6,2.861986e+02 M0,3.265651e+02 L-6,3.265651e+02 M0,3.669315e+02 L-6,3.669315e+02 "/></g><g text-anchor="end" font-family="sans-serif" font-style="normal" dominant-baseline="middle" fill="black" stroke="black" font-weight="normal" transform="translate(80 520 )scale(1 1 )" stroke-linejoin="round" stroke-width="2px" stroke-linecap="round" font-size="12px"><text dominant-baseline="middle" stroke="none" vector-effect="non-scaling-stroke" x="-10" y="-44">0s</text><text stroke="none" vector-effect="non-scaling-stroke" x="-10" y="-8.436644e+01" dominant-baseline="middle">100ms</text><text stroke="none" vector-effect="non-scaling-stroke" x="-10" y="-1.247329e+02" dominant-baseline="middle">200ms</text><text stroke="none" vector-effect="non-scaling-stroke" x="-10" y="-1.650993e+02" dominant-baseline="middle">300ms</text><text y="-2.054658e+02" dominant-baseline="middle" stroke="none" vector-effect="non-scaling-stroke" x="-10">400ms</text><text stroke="none" vector-effect="non-scaling-stroke" x="-10" y="-2.458322e+02" dominant-baseline="middle">500ms</text><text vector-effect="non-scaling-stroke" x="-10" y="-2.861986e+02" dominant-baseline="middle" stroke="none">600ms</text><text dominant-baseline="middle" stroke="none" vector-effect="non-scaling-stroke" x="-10" y="-3.265651e+02">700ms</text><text x="-10" y="-3.669315e+02" dominant-baseline="middle" stroke="none" vector-effect="non-scaling-stroke">800ms</text></g><g font-weight="bold" font-style="normal" dominant-baseline="hanging" fill="black" stroke-linecap="round" stroke-linejoin="round" font-size="12px" text-anchor="middle" transform="translate(80 520 )scale(1 1 )rotate(-90 0 0 )" stroke="black" stroke-width="2px" font-family="sans-serif"><text dominant-baseline="hanging" stroke="none" vector-effect="non-scaling-stroke" x="220" y="6">Runtime</text></g></g></g></g></svg>