<svg xmlns="http://www.w3.org/2000/svg" width="800" height="600" viewbox="0 0 800 600" preserveAspectRatio="xMidYMid meet"><defs><marker id="circle" viewBox="0 0 10 10 " refX="5" refY="5" markerUnits="userSpaceOnUse" markerWidth="2%" markerHeight="2%"><circle r="3" fill="none" stroke="black" cx="5" cy="5"/></marker><marker markerWidth="2%" markerHeight="2%" id="filled-circle" viewBox="0 0 10 10 " refX="5" refY="5" markerUnits="userSpaceOnUse"><circle cy="5" r="3" fill="black" stroke="none" cx="5"/></marker><marker refX="5" refY="5" markerUnits="userSpaceOnUse" markerWidth="2%" markerHeight="2%" id="square" viewBox="0 0 10 10 "><rect width="6" height="6" fill="none" stroke="black" x="2" y="2"/></marker><marker viewBox="0 0 10 10 " refX="5" refY="5" markerUnits="userSpaceOnUse" markerWidth="2%" markerHeight="2%" id="filled-square"><rect y="2" width="6" height="6" fill="black" stroke="none" x="2"/></marker></defs><g fill="hsl(198, 47%, 65%)" stroke="hsl(198, 47%, 65%)" stroke-width="1px" stroke-linecap="round" stroke-linejoin="round" transform="translate(80 520 )scale(1 -1 )"><rect vector-effect="non-scaling-stroke" x="5.546667e+01" y="0" width="5.688889e+00" height="4.401470e+01"/><rect x="7.680000e+01" y="0" width="5.688889e+00" height="4.400310e+01" vector-effect="non-scaling-stroke"/><rect y="0" width="5.688889e+00" height="4.403881e+01" vector-effect="non-scaling-stroke" x="9.813333e+01"/><rect vector-effect="non-scaling-stroke" x="1.194667e+02" y="0" width="5.688889e+00" height="4.401455e+01"/><rect height="4.400781e+01" vector-effect="non-scaling-stroke" x="1.408000e+02" y="0" width="5.688889e+00"/><rect y="0" width="5.688889e+00" height="4.400777e+01" vector-effect="non-scaling-stroke" x="1.621333e+02"/><rect y="0" width="5.688889e+00" height="4.402331e+01" vector-effect="non-scaling-stroke" x="1.834667e+02"/><rect vector-effect="non-scaling-stroke" x="2.048000e+02" y="0" width="5.688889e+00" height="4.463670e+01"/><rect vector-effect="non-scaling-stroke" x="2.261333e+02" y="0" width="5.688889e+00" height="4.438296e+01"/><rect height="4.400133e+01" vector-effect="non-scaling-stroke" x="2.474667e+02" y="0" width="5.688889e+00"/><rect width="5.688889e+00" height="5.005157e+01" vector-effect="non-scaling-stroke" x="2.688000e+02" y="0"/><rect height="4.434044e+01" vector-effect="non-scaling-stroke" x="2.901333e+02" y="0" width="5.688889e+00"/><rect height="4.525274e+01" vector-effect="non-scaling-stroke" x="3.114667e+02" y="0" width="5.688889e+00"/><rect y="0" width="5.688889e+00" height="4.909808e+01" vector-effect="non-scaling-stroke" x="3.328000e+02"/><rect vector-effect="non-scaling-stroke" x="3.541333e+02" y="0" width="5.688889e+00" height="4.400312e+01"/><rect width="5.688889e+00" height="2.744795e+02" vector-effect="non-scaling-stroke" x="3.754667e+02" y="0"/><rect vector-effect="non-scaling-stroke" x="3.968000e+02" y="0" width="5.688889e+00" height="4.476786e+01"/><rect height="4.415491e+01" vector-effect="non-scaling-stroke" x="4.181333e+02" y="0" width="5.688889e+00"/><rect x="4.394667e+02" y="0" width="5.688889e+00" height="2.574768e+02" vector-effect="non-scaling-stroke"/><rect x="4.608000e+02" y="0" width="5.688889e+00" height="1.054148e+02" vector-effect="non-scaling-stroke"/><rect width="5.688889e+00" height="4.446533e+01" vector-effect="non-scaling-stroke" x="4.821333e+02" y="0"/><rect vector-effect="non-scaling-stroke" x="5.034667e+02" y="0" width="5.688889e+00" height="4.445102e+01"/><rect vector-effect="non-scaling-stroke" x="5.248000e+02" y="0" width="5.688889e+00" height="1.439619e+02"/><rect height="1.732324e+02" vector-effect="non-scaling-stroke" x="5.461333e+02" y="0" width="5.688889e+00"/><rect x="5.674667e+02" y="0" width="5.688889e+00" height="4.400272e+01" vector-effect="non-scaling-stroke"/></g><g transform="translate(80 520 )scale(1 -1 )" fill="hsl(49, 88%, 65%)" stroke="hsl(49, 88%, 65%)" stroke-width="1px" stroke-linecap="round" stroke-linejoin="round"><rect vector-effect="non-scaling-stroke" x="6.115556e+01" y="0" width="5.688889e+00" height="4.401199e+01"/><rect vector-effect="non-scaling-stroke" x="8.248889e+01" y="0" width="5.688889e+00" height="4.400104e+01"/><rect vector-effect="non-scaling-stroke" x="1.038222e+02" y="0" width="5.688889e+00" height="4.403178e+01"/><rect width="5.688889e+00" height="4.400967e+01" vector-effect="non-scaling-stroke" x="1.251556e+02" y="0"/><rect height="4.400587e+01" vector-effect="non-scaling-stroke" x="1.464889e+02" y="0" width="5.688889e+00"/><rect height="4.400899e+01" vector-effect="non-scaling-stroke" x="1.678222e+02" y="0" width="5.688889e+00"/><rect x="1.891556e+02" y="0" width="5.688889e+00" height="4.401393e+01" vector-effect="non-scaling-stroke"/><rect vector-effect="non-scaling-stroke" x="2.104889e+02" y="0" width="5.688889e+00" height="4.448030e+01"/><rect vector-effect="non-scaling-stroke" x="2.318222e+02" y="0" width="5.688889e+00" height="4.431603e+01"/><rect height="4.400092e+01" vector-effect="non-scaling-stroke" x="2.531556e+02" y="0" width="5.688889e+00"/><rect vector-effect="non-scaling-stroke" x="2.744889e+02" y="0" width="5.688889e+00" height="4.741861e+01"/><rect width="5.688889e+00" height="4.420609e+01" vector-effect="non-scaling-stroke" x="2.958222e+02" y="0"/><rect width="5.688889e+00" height="4.443291e+01" vector-effect="non-scaling-stroke" x="3.171556e+02" y="0"/><rect y="0" width="5.688889e+00" height="4.953847e+01" vector-effect="non-scaling-stroke" x="3.384889e+02"/><rect vector-effect="non-scaling-stroke" x="3.598222e+02" y="0" width="5.688889e+00" height="4.400177e+01"/><rect height="3.221051e+02" vector-effect="non-scaling-stroke" x="3.811556e+02" y="0" width="5.688889e+00"/><rect vector-effect="non-scaling-stroke" x="4.024889e+02" y="0" width="5.688889e+00" height="4.426908e+01"/><rect width="5.688889e+00" height="4.414004e+01" vector-effect="non-scaling-stroke" x="4.238222e+02" y="0"/><rect width="5.688889e+00" height="8.850329e+01" vector-effect="non-scaling-stroke" x="4.451556e+02" y="0"/><rect y="0" width="5.688889e+00" height="8.381448e+01" vector-effect="non-scaling-stroke" x="4.664889e+02"/><rect vector-effect="non-scaling-stroke" x="4.878222e+02" y="0" width="5.688889e+00" height="4.433205e+01"/><rect height="4.452846e+01" vector-effect="non-scaling-stroke" x="5.091556e+02" y="0" width="5.688889e+00"/><rect vector-effect="non-scaling-stroke" x="5.304889e+02" y="0" width="5.688889e+00" height="1.193751e+02"/><rect width="5.688889e+00" height="1.663550e+02" vector-effect="non-scaling-stroke" x="5.518222e+02" y="0"/><rect width="5.688889e+00" height="4.400204e+01" vector-effect="non-scaling-stroke" x="5.731556e+02" y="0"/></g><g fill="hsl(260, 76%, 65%)" stroke="hsl(260, 76%, 65%)" stroke-width="1px" stroke-linecap="round" stroke-linejoin="round" transform="translate(80 520 )scale(1 -1 )"><rect height="4.400891e+01" vector-effect="non-scaling-stroke" x="6.684444e+01" y="0" width="5.688889e+00"/><rect x="8.817778e+01" y="0" width="5.688889e+00" height="4.400171e+01" vector-effect="non-scaling-stroke"/><rect x="1.095111e+02" y="0" width="5.688889e+00" height="4.401368e+01" vector-effect="non-scaling-stroke"/><rect vector-effect="non-scaling-stroke" x="1.308444e+02" y="0" width="5.688889e+00" height="4.400982e+01"/><rect vector-effect="non-scaling-stroke" x="1.521778e+02" y="0" width="5.688889e+00" height="4.400515e+01"/><rect x="1.735111e+02" y="0" width="5.688889e+00" height="4.400744e+01" vector-effect="non-scaling-stroke"/><rect vector-effect="non-scaling-stroke" x="1.948444e+02" y="0" width="5.688889e+00" height="4.401274e+01"/><rect y="0" width="5.688889e+00" height="4.444156e+01" vector-effect="non-scaling-stroke" x="2.161778e+02"/><rect vector-effect="non-scaling-stroke" x="2.375111e+02" y="0" width="5.688889e+00" height="4.436252e+01"/><rect width="5.688889e+00" height="4.400101e+01" vector-effect="non-scaling-stroke" x="2.588444e+02" y="0"/><rect y="0" width="5.688889e+00" height="4.827037e+01" vector-effect="non-scaling-stroke" x="2.801778e+02"/><rect vector-effect="non-scaling-stroke" x="3.015111e+02" y="0" width="5.688889e+00" height="4.410653e+01"/><rect y="0" width="5.688889e+00" height="4.400827e+01" vector-effect="non-scaling-stroke" x="3.228444e+02"/><rect height="4.837476e+01" vector-effect="non-scaling-stroke" x="3.441778e+02" y="0" width="5.688889e+00"/><rect height="4.400151e+01" vector-effect="non-scaling-stroke" x="3.655111e+02" y="0" width="5.688889e+00"/><rect vector-effect="non-scaling-stroke" x="3.868444e+02" y="0" width="5.688889e+00" height="396"/><rect vector-effect="non-scaling-stroke" x="4.081778e+02" y="0" width="5.688889e+00" height="4.427033e+01"/><rect width="5.688889e+00" height="4.413820e+01" vector-effect="non-scaling-stroke" x="4.295111e+02" y="0"/><rect vector-effect="non-scaling-stroke" x="4.508444e+02" y="0" width="5.688889e+00" height="6.408820e+01"/><rect vector-effect="non-scaling-stroke" x="4.721778e+02" y="0" width="5.688889e+00" height="1.038196e+02"/><rect x="4.935111e+02" y="0" width="5.688889e+00" height="4.412373e+01" vector-effect="non-scaling-stroke"/><rect height="4.548907e+01" vector-effect="non-scaling-stroke" x="5.148444e+02" y="0" width="5.688889e+00"/><rect x="5.361778e+02" y="0" width="5.688889e+00" height="1.536570e+02" vector-effect="non-scaling-stroke"/><rect y="0" width="5.688889e+00" height="1.761281e+02" vector-effect="non-scaling-stroke" x="5.575111e+02"/><rect height="4.400194e+01" vector-effect="non-scaling-stroke" x="5.788444e+02" y="0" width="5.688889e+00"/></g><g font-style="normal" fill="hsl(198, 47%, 65%)" stroke-linecap="round" font-size="12px" font-weight="normal" text-anchor="start" stroke-linejoin="round" font-family="sans-serif" dominant-baseline="hanging" stroke="hsl(198, 47%, 65%)" stroke-width="1px"><rect height="12" vector-effect="non-scaling-stroke" x="736" y="466" width="12"/><g fill="black" stroke="black"><text vector-effect="non-scaling-stroke" x="752" y="466" dominant-baseline="hanging" stroke="none">Golang</text></g><g font-family="sans-serif" font-style="normal" fill="hsl(49, 88%, 65%)" dominant-baseline="hanging" stroke-width="1px" stroke-linejoin="round" stroke-linecap="round" font-size="12px" font-weight="normal" text-anchor="start" stroke="hsl(49, 88%, 65%)"><rect y="484" width="12" height="12" vector-effect="non-scaling-stroke" x="736"/><g stroke="black" fill="black"><text x="752" y="484" dominant-baseline="hanging" stroke="none" vector-effect="non-scaling-stroke">Rust</text></g><g font-family="sans-serif" font-style="normal" stroke-linecap="round" font-size="12px" font-weight="normal" dominant-baseline="hanging" stroke="hsl(260, 76%, 65%)" stroke-width="1px" stroke-linejoin="round" fill="hsl(260, 76%, 65%)" text-anchor="start"><rect x="736" y="502" width="12" height="12" vector-effect="non-scaling-stroke"/><g fill="black" stroke="black"><text stroke="none" vector-effect="non-scaling-stroke" x="752" y="502" dominant-baseline="hanging">Zig</text><g font-weight="normal" text-anchor="start" font-family="sans-serif" dominant-baseline="hanging" stroke-width="2px" fill="none" stroke-linejoin="round" font-size="12px" font-style="normal" stroke-linecap="round"><rect y="80" width="640" height="440" vector-effect="non-scaling-stroke" x="80"/></g><g fill="none" stroke-linecap="round" font-size="12px" font-weight="normal" text-anchor="start" dominant-baseline="hanging" stroke-linejoin="round" font-family="sans-serif" stroke="black" stroke-width="2px" font-style="normal" transform="translate(80 520 )scale(1 -1 )"><path d="M64,0 L64,-6 M8.533333e+01,0 L8.533333e+01,-6 M1.066667e+02,0 L1.066667e+02,-6 M128,0 L128,-6 M1.493333e+02,0 L1.493333e+02,-6 M1.706667e+02,0 L1.706667e+02,-6 M192,0 L192,-6 M2.133333e+02,0 L2.133333e+02,-6 M2.346667e+02,0 L2.346667e+02,-6 M256,0 L256,-6 M2.773333e+02,0 L2.773333e+02,-6 M2.986667e+02,0 L2.986667e+02,-6 M320,0 L320,-6 M3.413333e+02,0 L3.413333e+02,-6 M3.626667e+02,0 L3.626667e+02,-6 M384,0 L384,-6 M4.053333e+02,0 L4.053333e+02,-6 M4.266667e+02,0 L4.266667e+02,-6 M448,0 L448,-6 M4.693333e+02,0 L4.693333e+02,-6 M4.906667e+02,0 L4.906667e+02,-6 M512,0 L512,-6 M5.333333e+02,0 L5.333333e+02,-6 M5.546667e+02,0 L5.546667e+02,-6 M576,0 L576,-6 " vector-effect="non-scaling-stroke"/></g><g stroke-linecap="round" text-anchor="middle" stroke="black" stroke-width="2px" font-family="sans-serif" font-size="12px" font-weight="normal" dominant-baseline="hanging" stroke-linejoin="round" font-style="normal" transform="translate(80 520 )scale(1 1 )" fill="black"><text stroke="none" vector-effect="non-scaling-stroke" x="64" y="10" dominant-baseline="hanging">1</text><text stroke="none" vector-effect="non-scaling-stroke" x="8.533333e+01" y="10" dominant-baseline="hanging">2</text><text stroke="none" vector-effect="non-scaling-stroke" x="1.066667e+02" y="10" dominant-baseline="hanging">3</text><text vector-effect="non-scaling-stroke" x="128" y="10" dominant-baseline="hanging" stroke="none">4</text><text stroke="none" vector-effect="non-scaling-stroke" x="1.493333e+02" y="10" dominant-baseline="hanging">5</text><text x="1.706667e+02" y="10" dominant-baseline="hanging" stroke="none" vector-effect="non-scaling-stroke">6</text><text y="10" dominant-baseline="hanging" stroke="none" vector-effect="non-scaling-stroke" x="192">7</text><text vector-effect="non-scaling-stroke" x="2.133333e+02" y="10" dominant-baseline="hanging" stroke="none">8</text><text vector-effect="non-scaling-stroke" x="2.346667e+02" y="10" dominant-baseline="hanging" stroke="none">9</text><text vector-effect="non-scaling-stroke" x="256" y="10" dominant-baseline="hanging" stroke="none">10</text><text stroke="none" vector-effect="non-scaling-stroke" x="2.773333e+02" y="10" dominant-baseline="hanging">11</text><text stroke="none" vector-effect="non-scaling-stroke" x="2.986667e+02" y="10" dominant-baseline="hanging">12</text><text y="10" dominant-baseline="hanging" stroke="none" vector-effect="non-scaling-stroke" x="320">13</text><text stroke="none" vector-effect="non-scaling-stroke" x="3.413333e+02" y="10" dominant-baseline="hanging">14</text><text stroke="none" vector-effect="non-scaling-stroke" x="3.626667e+02" y="10" dominant-baseline="hanging">15</text><text stroke="none" vector-effect="non-scaling-stroke" x="384" y="10" dominant-baseline="hanging">16</text><text stroke="none" vector-effect="non-scaling-stroke" x="4.053333e+02" y="10" dominant-baseline="hanging">17</text><text y="10" dominant-baseline="hanging" stroke="none" vector-effect="non-scaling-stroke" x="4.266667e+02">18</text><text vector-effect="non-scaling-stroke" x="448" y="10" dominant-baseline="hanging" stroke="none">19</text><text dominant-baseline="hanging" stroke="none" vector-effect="non-scaling-stroke" x="4.693333e+02" y="10">20</text><text stroke="none" vector-effect="non-scaling-stroke" x="4.906667e+02" y="10" dominant-baseline="hanging">21</text><text x="512" y="10" dominant-baseline="hanging" stroke="none" vector-effect="non-scaling-stroke">22</text><text dominant-baseline="hanging" stroke="none" vector-effect="non-scaling-stroke" x="5.333333e+02" y="10">23</text><text y="10" dominant-baseline="hanging" stroke="none" vector-effect="non-scaling-stroke" x="5.546667e+02">24</text><text dominant-baseline="hanging" stroke="none" vector-effect="non-scaling-stroke" x="576" y="10">25</text></g><g dominant-baseline="baseline" stroke-linejoin="round" font-style="normal" fill="black" stroke-linecap="round" font-weight="bold" text-anchor="middle" stroke="black" stroke-width="2px" font-family="sans-serif" transform="translate(80 520 )scale(1 1 )rotate(0 0 0 )" font-size="12px"><text y="-6" dominant-baseline="baseline" stroke="none" vector-effect="non-scaling-stroke" x="320">Day</text></g><g text-anchor="middle" dominant-baseline="baseline" stroke="black" stroke-linejoin="round" font-style="normal" transform="translate(80 520 )scale(1 -1 )" fill="black" font-size="12px" font-weight="bold" stroke-width="2px" font-family="sans-serif" stroke-linecap="round"><path vector-effect="non-scaling-stroke" d="M0,44 L-6,44 M0,2.080753e+02 L-6,2.080753e+02 M0,3.721505e+02 L-6,3.721505e+02 "/></g><g font-size="12px" font-weight="normal" text-anchor="end" stroke-width="2px" stroke-linejoin="round" font-family="sans-serif" fill="black" stroke-linecap="round" dominant-baseline="middle" stroke="black" font-style="normal" transform="translate(80 520 )scale(1 1 )"><text x="-10" y="-44" dominant-baseline="middle" stroke="none" vector-effect="non-scaling-stroke">0s</text><text vector-effect="non-scaling-stroke" x="-10" y="-2.080753e+02" dominant-baseline="middle" stroke="none">100ms</text><text y="-3.721505e+02" dominant-baseline="middle" stroke="none" vector-effect="non-scaling-stroke" x="-10">200ms</text></g><g fill="black" font-size="12px" text-anchor="middle" dominant-baseline="hanging" stroke-width="2px" stroke-linejoin="round" font-style="normal" stroke-linecap="round" font-weight="bold" stroke="black" font-family="sans-serif" transform="translate(80 520 )scale(1 1 )rotate(-90 0 0 )"><text vector-effect="non-scaling-stroke" x="220" y="6" dominant-baseline="hanging" stroke="none">Runtime</text></g></g></g></g></g></svg>