<svg height="600" viewbox="0 0 800 600" preserveAspectRatio="xMidYMid meet" xmlns="http://www.w3.org/2000/svg" width="800"><defs><marker refY="5" markerUnits="userSpaceOnUse" markerWidth="2%" markerHeight="2%" id="circle" viewBox="0 0 10 10 " refX="5"><circle fill="none" stroke="black" cx="5" cy="5" r="3"/></marker><marker refY="5" markerUnits="userSpaceOnUse" markerWidth="2%" markerHeight="2%" id="filled-circle" viewBox="0 0 10 10 " refX="5"><circle r="3" fill="black" stroke="none" cx="5" cy="5"/></marker><marker refY="5" markerUnits="userSpaceOnUse" markerWidth="2%" markerHeight="2%" id="square" viewBox="0 0 10 10 " refX="5"><rect stroke="black" x="2" y="2" width="6" height="6" fill="none"/></marker><marker id="filled-square" viewBox="0 0 10 10 " refX="5" refY="5" markerUnits="userSpaceOnUse" markerWidth="2%" markerHeight="2%"><rect height="6" fill="black" stroke="none" x="2" y="2" width="6"/></marker></defs><g transform="translate(80 520 )scale(1 -1 )" fill="hsl(198, 47%, 65%)" stroke="hsl(198, 47%, 65%)" stroke-width="1px" stroke-linecap="round" stroke-linejoin="round"><rect vector-effect="non-scaling-stroke" x="3.650000e+01" y="0" width="2.750000e+01" height="4.425661e+01"/><rect vector-effect="non-scaling-stroke" x="5.783333e+01" y="0" width="2.750000e+01" height="4.422736e+01"/><rect height="4.414116e+01" vector-effect="non-scaling-stroke" x="7.916667e+01" y="0" width="2.750000e+01"/><rect width="2.750000e+01" height="4.530026e+01" vector-effect="non-scaling-stroke" x="1.005000e+02" y="0"/><rect height="4.414591e+01" vector-effect="non-scaling-stroke" x="1.218333e+02" y="0" width="2.750000e+01"/><rect vector-effect="non-scaling-stroke" x="1.431667e+02" y="0" width="2.750000e+01" height="396"/></g><g fill="hsl(49, 88%, 65%)" stroke="hsl(49, 88%, 65%)" stroke-width="1px" stroke-linecap="round" stroke-linejoin="round" transform="translate(80 520 )scale(1 -1 )"><rect vector-effect="non-scaling-stroke" x="64" y="0" width="2.750000e+01" height="4.423032e+01"/><rect height="4.419671e+01" vector-effect="non-scaling-stroke" x="8.533333e+01" y="0" width="2.750000e+01"/><rect height="4.403845e+01" vector-effect="non-scaling-stroke" x="1.066667e+02" y="0" width="2.750000e+01"/><rect height="4.617028e+01" vector-effect="non-scaling-stroke" x="128" y="0" width="2.750000e+01"/><rect vector-effect="non-scaling-stroke" x="1.493333e+02" y="0" width="2.750000e+01" height="4.410400e+01"/><rect vector-effect="non-scaling-stroke" x="1.706667e+02" y="0" width="2.750000e+01" height="2.903915e+02"/></g><g font-size="12px" fill="hsl(198, 47%, 65%)" stroke="hsl(198, 47%, 65%)" font-style="normal" text-anchor="start" stroke-width="1px" stroke-linejoin="round" font-weight="normal" dominant-baseline="hanging" stroke-linecap="round" font-family="sans-serif"><rect width="12" height="12" vector-effect="non-scaling-stroke" x="736" y="484"/><g fill="black" stroke="black"><text dominant-baseline="hanging" stroke="none" vector-effect="non-scaling-stroke" x="752" y="484">Golang</text></g><g stroke-linecap="round" font-family="sans-serif" fill="hsl(49, 88%, 65%)" stroke-linejoin="round" font-size="12px" font-style="normal" dominant-baseline="hanging" text-anchor="start" stroke-width="1px" stroke="hsl(49, 88%, 65%)" font-weight="normal"><rect y="502" width="12" height="12" vector-effect="non-scaling-stroke" x="736"/><g fill="black" stroke="black"><text stroke="none" vector-effect="non-scaling-stroke" x="752" y="502" dominant-baseline="hanging">Rust</text><g stroke-linejoin="round" text-anchor="start" font-weight="normal" font-style="normal" stroke-linecap="round" font-family="sans-serif" dominant-baseline="hanging" fill="none" stroke-width="2px" font-size="12px"><rect x="80" y="80" width="640" height="440" vector-effect="non-scaling-stroke"/></g><g fill="none" stroke-linejoin="round" font-size="12px" transform="translate(80 520 )scale(1 -1 )" text-anchor="start" stroke="black" stroke-linecap="round" font-family="sans-serif" font-weight="normal" dominant-baseline="hanging" stroke-width="2px" font-style="normal"><path vector-effect="non-scaling-stroke" d="M64,0 L64,-6 M8.533333e+01,0 L8.533333e+01,-6 M1.066667e+02,0 L1.066667e+02,-6 M128,0 L128,-6 M1.493333e+02,0 L1.493333e+02,-6 M1.706667e+02,0 L1.706667e+02,-6 "/></g><g dominant-baseline="hanging" stroke="black" stroke-width="2px" font-size="12px" font-style="normal" text-anchor="middle" font-family="sans-serif" font-weight="normal" transform="translate(80 520 )scale(1 1 )" fill="black" stroke-linecap="round" stroke-linejoin="round"><text x="64" y="10" dominant-baseline="hanging" stroke="none" vector-effect="non-scaling-stroke">1</text><text dominant-baseline="hanging" stroke="none" vector-effect="non-scaling-stroke" x="8.533333e+01" y="10">2</text><text stroke="none" vector-effect="non-scaling-stroke" x="1.066667e+02" y="10" dominant-baseline="hanging">3</text><text stroke="none" vector-effect="non-scaling-stroke" x="128" y="10" dominant-baseline="hanging">4</text><text dominant-baseline="hanging" stroke="none" vector-effect="non-scaling-stroke" x="1.493333e+02" y="10">5</text><text stroke="none" vector-effect="non-scaling-stroke" x="1.706667e+02" y="10" dominant-baseline="hanging">6</text></g><g text-anchor="middle" transform="translate(80 520 )scale(1 1 )rotate(0 0 0 )" font-style="normal" stroke="black" stroke-linecap="round" fill="black" stroke-width="2px" stroke-linejoin="round" font-size="12px" font-family="sans-serif" font-weight="bold" dominant-baseline="baseline"><text x="320" y="-6" dominant-baseline="baseline" stroke="none" vector-effect="non-scaling-stroke">Day</text></g><g font-family="sans-serif" stroke="black" stroke-linecap="round" stroke-linejoin="round" font-size="12px" font-style="normal" text-anchor="middle" fill="black" transform="translate(80 520 )scale(1 -1 )" stroke-width="2px" font-weight="bold" dominant-baseline="baseline"><path d="M0,44 L-6,44 M0,9.183718e+01 L-6,9.183718e+01 M0,1.396744e+02 L-6,1.396744e+02 M0,1.875115e+02 L-6,1.875115e+02 M0,2.353487e+02 L-6,2.353487e+02 M0,2.831859e+02 L-6,2.831859e+02 M0,3.310231e+02 L-6,3.310231e+02 M0,3.788603e+02 L-6,3.788603e+02 " vector-effect="non-scaling-stroke"/></g><g text-anchor="end" stroke-linecap="round" font-family="sans-serif" font-weight="normal" transform="translate(80 520 )scale(1 1 )" fill="black" font-size="12px" font-style="normal" stroke="black" dominant-baseline="middle" stroke-width="2px" stroke-linejoin="round"><text vector-effect="non-scaling-stroke" x="-10" y="-44" dominant-baseline="middle" stroke="none">0s</text><text dominant-baseline="middle" stroke="none" vector-effect="non-scaling-stroke" x="-10" y="-9.183718e+01">10ms</text><text dominant-baseline="middle" stroke="none" vector-effect="non-scaling-stroke" x="-10" y="-1.396744e+02">20ms</text><text x="-10" y="-1.875115e+02" dominant-baseline="middle" stroke="none" vector-effect="non-scaling-stroke">30ms</text><text y="-2.353487e+02" dominant-baseline="middle" stroke="none" vector-effect="non-scaling-stroke" x="-10">40ms</text><text dominant-baseline="middle" stroke="none" vector-effect="non-scaling-stroke" x="-10" y="-2.831859e+02">50ms</text><text stroke="none" vector-effect="non-scaling-stroke" x="-10" y="-3.310231e+02" dominant-baseline="middle">60ms</text><text stroke="none" vector-effect="non-scaling-stroke" x="-10" y="-3.788603e+02" dominant-baseline="middle">70ms</text></g><g text-anchor="middle" transform="translate(80 520 )scale(1 1 )rotate(-90 0 0 )" stroke-linecap="round" font-weight="bold" dominant-baseline="hanging" stroke="black" stroke-linejoin="round" font-family="sans-serif" stroke-width="2px" font-size="12px" font-style="normal" fill="black"><text y="6" dominant-baseline="hanging" stroke="none" vector-effect="non-scaling-stroke" x="220">Runtime</text></g></g></g></g></svg>