<svg xmlns="http://www.w3.org/2000/svg" width="800" height="600" viewbox="0 0 800 600" preserveAspectRatio="xMidYMid meet"><defs><marker refX="5" refY="5" markerUnits="userSpaceOnUse" markerWidth="2%" markerHeight="2%" id="circle" viewBox="0 0 10 10 "><circle cy="5" r="3" fill="none" stroke="black" cx="5"/></marker><marker markerWidth="2%" markerHeight="2%" id="filled-circle" viewBox="0 0 10 10 " refX="5" refY="5" markerUnits="userSpaceOnUse"><circle cx="5" cy="5" r="3" fill="black" stroke="none"/></marker><marker id="square" viewBox="0 0 10 10 " refX="5" refY="5" markerUnits="userSpaceOnUse" markerWidth="2%" markerHeight="2%"><rect y="2" width="6" height="6" fill="none" stroke="black" x="2"/></marker><marker refX="5" refY="5" markerUnits="userSpaceOnUse" markerWidth="2%" markerHeight="2%" id="filled-square" viewBox="0 0 10 10 "><rect width="6" height="6" fill="black" stroke="none" x="2" y="2"/></marker></defs><g stroke="hsl(198, 47%, 65%)" stroke-width="1px" stroke-linecap="round" stroke-linejoin="round" transform="translate(80 520 )scale(1 -1 )" fill="hsl(198, 47%, 65%)"><rect x="4.758974e+01" y="0" width="1.641026e+01" height="4.441257e+01" vector-effect="non-scaling-stroke"/><rect width="1.641026e+01" height="4.411410e+01" vector-effect="non-scaling-stroke" x="6.892308e+01" y="0"/><rect y="0" width="1.641026e+01" height="4.525135e+01" vector-effect="non-scaling-stroke" x="9.025641e+01"/><rect vector-effect="non-scaling-stroke" x="1.115897e+02" y="0" width="1.641026e+01" height="4.450511e+01"/><rect vector-effect="non-scaling-stroke" x="1.329231e+02" y="0" width="1.641026e+01" height="4.430672e+01"/><rect height="4.480381e+01" vector-effect="non-scaling-stroke" x="1.542564e+02" y="0" width="1.641026e+01"/><rect vector-effect="non-scaling-stroke" x="1.755897e+02" y="0" width="1.641026e+01" height="4.462087e+01"/><rect vector-effect="non-scaling-stroke" x="1.969231e+02" y="0" width="1.641026e+01" height="6.077772e+01"/><rect x="2.182564e+02" y="0" width="1.641026e+01" height="5.379807e+01" vector-effect="non-scaling-stroke"/><rect x="2.395897e+02" y="0" width="1.641026e+01" height="4.404087e+01" vector-effect="non-scaling-stroke"/><rect width="1.641026e+01" height="396" vector-effect="non-scaling-stroke" x="2.609231e+02" y="0"/><rect vector-effect="non-scaling-stroke" x="2.822564e+02" y="0" width="1.641026e+01" height="5.837093e+01"/><rect y="0" width="1.641026e+01" height="6.395524e+01" vector-effect="non-scaling-stroke" x="3.035897e+02"/></g><g transform="translate(80 520 )scale(1 -1 )" fill="hsl(49, 88%, 65%)" stroke="hsl(49, 88%, 65%)" stroke-width="1px" stroke-linecap="round" stroke-linejoin="round"><rect width="1.641026e+01" height="4.418676e+01" vector-effect="non-scaling-stroke" x="64" y="0"/><rect vector-effect="non-scaling-stroke" x="8.533333e+01" y="0" width="1.641026e+01" height="4.402739e+01"/><rect vector-effect="non-scaling-stroke" x="1.066667e+02" y="0" width="1.641026e+01" height="4.494503e+01"/><rect width="1.641026e+01" height="4.432235e+01" vector-effect="non-scaling-stroke" x="128" y="0"/><rect vector-effect="non-scaling-stroke" x="1.493333e+02" y="0" width="1.641026e+01" height="4.424934e+01"/><rect y="0" width="1.641026e+01" height="4.447789e+01" vector-effect="non-scaling-stroke" x="1.706667e+02"/><rect vector-effect="non-scaling-stroke" x="192" y="0" width="1.641026e+01" height="4.455890e+01"/><rect x="2.133333e+02" y="0" width="1.641026e+01" height="6.027557e+01" vector-effect="non-scaling-stroke"/><rect y="0" width="1.641026e+01" height="5.372041e+01" vector-effect="non-scaling-stroke" x="2.346667e+02"/><rect vector-effect="non-scaling-stroke" x="256" y="0" width="1.641026e+01" height="4.402996e+01"/><rect height="1.763100e+02" vector-effect="non-scaling-stroke" x="2.773333e+02" y="0" width="1.641026e+01"/><rect vector-effect="non-scaling-stroke" x="2.986667e+02" y="0" width="1.641026e+01" height="5.355796e+01"/></g><g stroke-linejoin="round" dominant-baseline="hanging" font-style="normal" font-size="12px" stroke="hsl(198, 47%, 65%)" stroke-width="1px" stroke-linecap="round" font-weight="normal" text-anchor="start" fill="hsl(198, 47%, 65%)" font-family="sans-serif"><rect width="12" height="12" vector-effect="non-scaling-stroke" x="736" y="484"/><g fill="black" stroke="black"><text dominant-baseline="hanging" stroke="none" vector-effect="non-scaling-stroke" x="752" y="484">Golang</text></g><g font-weight="normal" font-family="sans-serif" font-style="normal" stroke="hsl(49, 88%, 65%)" stroke-linecap="round" stroke-linejoin="round" text-anchor="start" dominant-baseline="hanging" fill="hsl(49, 88%, 65%)" font-size="12px" stroke-width="1px"><rect x="736" y="502" width="12" height="12" vector-effect="non-scaling-stroke"/><g fill="black" stroke="black"><text y="502" dominant-baseline="hanging" stroke="none" vector-effect="non-scaling-stroke" x="752">Rust</text><g font-size="12px" font-style="normal" stroke-width="2px" stroke-linejoin="round" font-weight="normal" fill="none" text-anchor="start" dominant-baseline="hanging" stroke-linecap="round" font-family="sans-serif"><rect width="640" height="440" vector-effect="non-scaling-stroke" x="80" y="80"/></g><g font-family="sans-serif" font-size="12px" stroke-width="2px" stroke-linecap="round" stroke-linejoin="round" font-weight="normal" text-anchor="start" font-style="normal" transform="translate(80 520 )scale(1 -1 )" fill="none" dominant-baseline="hanging" stroke="black"><path vector-effect="non-scaling-stroke" d="M64,0 L64,-6 M8.533333e+01,0 L8.533333e+01,-6 M1.066667e+02,0 L1.066667e+02,-6 M128,0 L128,-6 M1.493333e+02,0 L1.493333e+02,-6 M1.706667e+02,0 L1.706667e+02,-6 M192,0 L192,-6 M2.133333e+02,0 L2.133333e+02,-6 M2.346667e+02,0 L2.346667e+02,-6 M256,0 L256,-6 M2.773333e+02,0 L2.773333e+02,-6 M2.986667e+02,0 L2.986667e+02,-6 M320,0 L320,-6 "/></g><g font-style="normal" text-anchor="middle" stroke="black" stroke-linecap="round" fill="black" font-size="12px" font-weight="normal" dominant-baseline="hanging" stroke-width="2px" stroke-linejoin="round" transform="translate(80 520 )scale(1 1 )" font-family="sans-serif"><text stroke="none" vector-effect="non-scaling-stroke" x="64" y="10" dominant-baseline="hanging">1</text><text x="8.533333e+01" y="10" dominant-baseline="hanging" stroke="none" vector-effect="non-scaling-stroke">2</text><text vector-effect="non-scaling-stroke" x="1.066667e+02" y="10" dominant-baseline="hanging" stroke="none">3</text><text dominant-baseline="hanging" stroke="none" vector-effect="non-scaling-stroke" x="128" y="10">4</text><text dominant-baseline="hanging" stroke="none" vector-effect="non-scaling-stroke" x="1.493333e+02" y="10">5</text><text vector-effect="non-scaling-stroke" x="1.706667e+02" y="10" dominant-baseline="hanging" stroke="none">6</text><text stroke="none" vector-effect="non-scaling-stroke" x="192" y="10" dominant-baseline="hanging">7</text><text dominant-baseline="hanging" stroke="none" vector-effect="non-scaling-stroke" x="2.133333e+02" y="10">8</text><text y="10" dominant-baseline="hanging" stroke="none" vector-effect="non-scaling-stroke" x="2.346667e+02">9</text><text stroke="none" vector-effect="non-scaling-stroke" x="256" y="10" dominant-baseline="hanging">10</text><text stroke="none" vector-effect="non-scaling-stroke" x="2.773333e+02" y="10" dominant-baseline="hanging">11</text><text vector-effect="non-scaling-stroke" x="2.986667e+02" y="10" dominant-baseline="hanging" stroke="none">12</text><text stroke="none" vector-effect="non-scaling-stroke" x="320" y="10" dominant-baseline="hanging">13</text></g><g transform="translate(80 520 )scale(1 1 )rotate(0 0 0 )" text-anchor="middle" dominant-baseline="baseline" fill="black" font-size="12px" font-style="normal" stroke="black" stroke-width="2px" stroke-linecap="round" stroke-linejoin="round" font-weight="bold" font-family="sans-serif"><text stroke="none" vector-effect="non-scaling-stroke" x="320" y="-6" dominant-baseline="baseline">Day</text></g><g transform="translate(80 520 )scale(1 -1 )" dominant-baseline="baseline" stroke-linecap="round" font-weight="bold" text-anchor="middle" font-family="sans-serif" font-size="12px" font-style="normal" stroke="black" stroke-width="2px" stroke-linejoin="round" fill="black"><path d="M0,44 L-6,44 M0,9.426497e+01 L-6,9.426497e+01 M0,1.445299e+02 L-6,1.445299e+02 M0,1.947949e+02 L-6,1.947949e+02 M0,2.450599e+02 L-6,2.450599e+02 M0,2.953248e+02 L-6,2.953248e+02 M0,3.455898e+02 L-6,3.455898e+02 M0,3.958548e+02 L-6,3.958548e+02 " vector-effect="non-scaling-stroke"/></g><g fill="black" font-weight="normal" text-anchor="end" stroke-linecap="round" stroke-linejoin="round" font-family="sans-serif" font-size="12px" font-style="normal" transform="translate(80 520 )scale(1 1 )" stroke="black" stroke-width="2px" dominant-baseline="middle"><text stroke="none" vector-effect="non-scaling-stroke" x="-10" y="-44" dominant-baseline="middle">0s</text><text dominant-baseline="middle" stroke="none" vector-effect="non-scaling-stroke" x="-10" y="-9.426497e+01">2ms</text><text y="-1.445299e+02" dominant-baseline="middle" stroke="none" vector-effect="non-scaling-stroke" x="-10">4ms</text><text vector-effect="non-scaling-stroke" x="-10" y="-1.947949e+02" dominant-baseline="middle" stroke="none">6ms</text><text x="-10" y="-2.450599e+02" dominant-baseline="middle" stroke="none" vector-effect="non-scaling-stroke">8ms</text><text vector-effect="non-scaling-stroke" x="-10" y="-2.953248e+02" dominant-baseline="middle" stroke="none">10ms</text><text y="-3.455898e+02" dominant-baseline="middle" stroke="none" vector-effect="non-scaling-stroke" x="-10">12ms</text><text stroke="none" vector-effect="non-scaling-stroke" x="-10" y="-3.958548e+02" dominant-baseline="middle">14ms</text></g><g font-size="12px" dominant-baseline="hanging" stroke-linecap="round" font-style="normal" transform="translate(80 520 )scale(1 1 )rotate(-90 0 0 )" fill="black" font-family="sans-serif" stroke-linejoin="round" font-weight="bold" text-anchor="middle" stroke="black" stroke-width="2px"><text x="220" y="6" dominant-baseline="hanging" stroke="none" vector-effect="non-scaling-stroke">Runtime</text></g></g></g></g></svg>