<svg xmlns="http://www.w3.org/2000/svg" width="800" height="600" viewbox="0 0 800 600" preserveAspectRatio="xMidYMid meet"><defs><marker id="circle" viewBox="0 0 10 10 " refX="5" refY="5" markerUnits="userSpaceOnUse" markerWidth="2%" markerHeight="2%"><circle fill="none" stroke="black" cx="5" cy="5" r="3"/></marker><marker viewBox="0 0 10 10 " refX="5" refY="5" markerUnits="userSpaceOnUse" markerWidth="2%" markerHeight="2%" id="filled-circle"><circle cx="5" cy="5" r="3" fill="black" stroke="none"/></marker><marker viewBox="0 0 10 10 " refX="5" refY="5" markerUnits="userSpaceOnUse" markerWidth="2%" markerHeight="2%" id="square"><rect fill="none" stroke="black" x="2" y="2" width="6" height="6"/></marker><marker markerUnits="userSpaceOnUse" markerWidth="2%" markerHeight="2%" id="filled-square" viewBox="0 0 10 10 " refX="5" refY="5"><rect x="2" y="2" width="6" height="6" fill="black" stroke="none"/></marker></defs><g stroke="hsl(198, 47%, 65%)" stroke-width="1px" stroke-linecap="round" stroke-linejoin="round" transform="translate(80 520 )scale(1 -1 )" fill="hsl(198, 47%, 65%)"><rect vector-effect="non-scaling-stroke" x="3.650000e+01" y="0" width="1.833333e+01" height="4.432046e+01"/><rect height="3.172647e+02" vector-effect="non-scaling-stroke" x="8.304545e+01" y="0" width="1.833333e+01"/><rect y="0" width="1.833333e+01" height="4.568665e+01" vector-effect="non-scaling-stroke" x="1.295909e+02"/><rect height="1.119387e+02" vector-effect="non-scaling-stroke" x="1.761364e+02" y="0" width="1.833333e+01"/><rect height="4.527785e+01" vector-effect="non-scaling-stroke" x="2.226818e+02" y="0" width="1.833333e+01"/><rect y="0" width="1.833333e+01" height="4.457066e+01" vector-effect="non-scaling-stroke" x="2.692273e+02"/><rect width="1.833333e+01" height="4.414872e+01" vector-effect="non-scaling-stroke" x="3.157727e+02" y="0"/></g><g stroke-linecap="round" stroke-linejoin="round" transform="translate(80 520 )scale(1 -1 )" fill="hsl(49, 88%, 65%)" stroke="hsl(49, 88%, 65%)" stroke-width="1px"><rect width="1.833333e+01" height="4.416216e+01" vector-effect="non-scaling-stroke" x="5.483333e+01" y="0"/><rect x="1.013788e+02" y="0" width="1.833333e+01" height="396" vector-effect="non-scaling-stroke"/><rect x="1.479242e+02" y="0" width="1.833333e+01" height="4.501873e+01" vector-effect="non-scaling-stroke"/><rect vector-effect="non-scaling-stroke" x="1.944697e+02" y="0" width="1.833333e+01" height="5.120911e+01"/><rect height="4.628371e+01" vector-effect="non-scaling-stroke" x="2.410152e+02" y="0" width="1.833333e+01"/><rect width="1.833333e+01" height="4.441070e+01" vector-effect="non-scaling-stroke" x="2.875606e+02" y="0"/><rect width="1.833333e+01" height="4.418560e+01" vector-effect="non-scaling-stroke" x="3.341061e+02" y="0"/></g><g fill="hsl(260, 76%, 65%)" stroke="hsl(260, 76%, 65%)" stroke-width="1px" stroke-linecap="round" stroke-linejoin="round" transform="translate(80 520 )scale(1 -1 )"><rect height="4.416834e+01" vector-effect="non-scaling-stroke" x="7.316667e+01" y="0" width="1.833333e+01"/><rect y="0" width="1.833333e+01" height="2.118906e+02" vector-effect="non-scaling-stroke" x="1.197121e+02"/><rect x="1.662576e+02" y="0" width="1.833333e+01" height="4.470181e+01" vector-effect="non-scaling-stroke"/><rect y="0" width="1.833333e+01" height="5.228081e+01" vector-effect="non-scaling-stroke" x="2.128030e+02"/><rect x="2.593485e+02" y="0" width="1.833333e+01" height="4.510883e+01" vector-effect="non-scaling-stroke"/><rect vector-effect="non-scaling-stroke" x="3.058939e+02" y="0" width="1.833333e+01" height="4.432239e+01"/><rect vector-effect="non-scaling-stroke" x="3.524394e+02" y="0" width="1.833333e+01" height="4.411925e+01"/></g><g fill="hsl(198, 47%, 65%)" stroke-linejoin="round" dominant-baseline="hanging" font-family="sans-serif" text-anchor="start" stroke-linecap="round" font-style="normal" font-weight="normal" stroke="hsl(198, 47%, 65%)" stroke-width="1px" font-size="12px"><rect x="736" y="466" width="12" height="12" vector-effect="non-scaling-stroke"/><g stroke="black" fill="black"><text y="466" dominant-baseline="hanging" stroke="none" vector-effect="non-scaling-stroke" x="752">Golang</text></g><g font-style="normal" font-weight="normal" dominant-baseline="hanging" stroke="hsl(49, 88%, 65%)" stroke-width="1px" font-family="sans-serif" font-size="12px" fill="hsl(49, 88%, 65%)" stroke-linecap="round" text-anchor="start" stroke-linejoin="round"><rect y="484" width="12" height="12" vector-effect="non-scaling-stroke" x="736"/><g fill="black" stroke="black"><text vector-effect="non-scaling-stroke" x="752" y="484" dominant-baseline="hanging" stroke="none">Rust</text></g><g font-weight="normal" stroke-width="1px" text-anchor="start" fill="hsl(260, 76%, 65%)" font-style="normal" dominant-baseline="hanging" stroke="hsl(260, 76%, 65%)" font-family="sans-serif" font-size="12px" stroke-linecap="round" stroke-linejoin="round"><rect vector-effect="non-scaling-stroke" x="736" y="502" width="12" height="12"/><g stroke="black" fill="black"><text stroke="none" vector-effect="non-scaling-stroke" x="752" y="502" dominant-baseline="hanging">Zig</text><g font-family="sans-serif" font-size="12px" dominant-baseline="hanging" stroke-width="2px" text-anchor="start" stroke-linecap="round" font-style="normal" fill="none" stroke-linejoin="round" font-weight="normal"><rect height="440" vector-effect="non-scaling-stroke" x="80" y="80" width="640"/></g><g font-weight="normal" transform="translate(80 520 )scale(1 -1 )" stroke-width="2px" font-family="sans-serif" text-anchor="start" font-style="normal" dominant-baseline="hanging" stroke="black" font-size="12px" fill="none" stroke-linecap="round" stroke-linejoin="round"><path vector-effect="non-scaling-stroke" d="M64,0 L64,-6 M1.105455e+02,0 L1.105455e+02,-6 M1.570909e+02,0 L1.570909e+02,-6 M2.036364e+02,0 L2.036364e+02,-6 M2.501818e+02,0 L2.501818e+02,-6 M2.967273e+02,0 L2.967273e+02,-6 M3.432727e+02,0 L3.432727e+02,-6 "/></g><g dominant-baseline="hanging" stroke="black" stroke-width="2px" font-size="12px" text-anchor="middle" fill="black" font-style="normal" transform="translate(80 520 )scale(1 1 )" font-family="sans-serif" stroke-linecap="round" stroke-linejoin="round" font-weight="normal"><text x="64" y="10" dominant-baseline="hanging" stroke="none" vector-effect="non-scaling-stroke">1</text><text vector-effect="non-scaling-stroke" x="1.105455e+02" y="10" dominant-baseline="hanging" stroke="none">2</text><text stroke="none" vector-effect="non-scaling-stroke" x="1.570909e+02" y="10" dominant-baseline="hanging">3</text><text stroke="none" vector-effect="non-scaling-stroke" x="2.036364e+02" y="10" dominant-baseline="hanging">4</text><text dominant-baseline="hanging" stroke="none" vector-effect="non-scaling-stroke" x="2.501818e+02" y="10">5</text><text vector-effect="non-scaling-stroke" x="2.967273e+02" y="10" dominant-baseline="hanging" stroke="none">6</text><text dominant-baseline="hanging" stroke="none" vector-effect="non-scaling-stroke" x="3.432727e+02" y="10">7</text></g><g stroke-linecap="round" font-style="normal" dominant-baseline="baseline" transform="translate(80 520 )scale(1 1 )rotate(0 0 0 )" stroke="black" stroke-width="2px" font-family="sans-serif" fill="black" stroke-linejoin="round" font-weight="bold" font-size="12px" text-anchor="middle"><text dominant-baseline="baseline" stroke="none" vector-effect="non-scaling-stroke" x="320" y="-6">Day</text></g><g fill="black" stroke-linejoin="round" transform="translate(80 520 )scale(1 -1 )" stroke="black" font-family="sans-serif" font-size="12px" text-anchor="middle" stroke-linecap="round" font-style="normal" font-weight="bold" dominant-baseline="baseline" stroke-width="2px"><path vector-effect="non-scaling-stroke" d="M0,44 L-6,44 M0,2.101119e+02 L-6,2.101119e+02 M0,3.762239e+02 L-6,3.762239e+02 "/></g><g fill="black" stroke-linecap="round" font-weight="normal" transform="translate(80 520 )scale(1 1 )" stroke="black" font-family="sans-serif" text-anchor="end" stroke-linejoin="round" font-style="normal" dominant-baseline="middle" stroke-width="2px" font-size="12px"><text stroke="none" vector-effect="non-scaling-stroke" x="-10" y="-44" dominant-baseline="middle">0s</text><text vector-effect="non-scaling-stroke" x="-10" y="-2.101119e+02" dominant-baseline="middle" stroke="none">10ms</text><text x="-10" y="-3.762239e+02" dominant-baseline="middle" stroke="none" vector-effect="non-scaling-stroke">20ms</text></g><g font-size="12px" text-anchor="middle" fill="black" dominant-baseline="hanging" stroke-width="2px" font-family="sans-serif" stroke-linecap="round" stroke-linejoin="round" font-style="normal" font-weight="bold" transform="translate(80 520 )scale(1 1 )rotate(-90 0 0 )" stroke="black"><text stroke="none" vector-effect="non-scaling-stroke" x="220" y="6" dominant-baseline="hanging">Runtime</text></g></g></g></g></g></svg>