<svg preserveAspectRatio="xMidYMid meet" xmlns="http://www.w3.org/2000/svg" width="800" height="600" viewbox="0 0 800 600"><defs><marker id="circle" viewBox="0 0 10 10 " refX="5" refY="5" markerUnits="userSpaceOnUse" markerWidth="2%" markerHeight="2%"><circle cy="5" r="3" fill="none" stroke="black" cx="5"/></marker><marker id="filled-circle" viewBox="0 0 10 10 " refX="5" refY="5" markerUnits="userSpaceOnUse" markerWidth="2%" markerHeight="2%"><circle fill="black" stroke="none" cx="5" cy="5" r="3"/></marker><marker markerWidth="2%" markerHeight="2%" id="square" viewBox="0 0 10 10 " refX="5" refY="5" markerUnits="userSpaceOnUse"><rect stroke="black" x="2" y="2" width="6" height="6" fill="none"/></marker><marker markerWidth="2%" markerHeight="2%" id="filled-square" viewBox="0 0 10 10 " refX="5" refY="5" markerUnits="userSpaceOnUse"><rect width="6" height="6" fill="black" stroke="none" x="2" y="2"/></marker></defs><g stroke-width="1px" stroke-linecap="round" stroke-linejoin="round" transform="translate(80 520 )scale(1 -1 )" fill="hsl(198, 47%, 65%)" stroke="hsl(198, 47%, 65%)"><rect x="3.650000e+01" y="0" width="2.750000e+01" height="9.406755e+01" vector-effect="non-scaling-stroke"/><rect x="5.783333e+01" y="0" width="2.750000e+01" height="5.744260e+01" vector-effect="non-scaling-stroke"/><rect y="0" width="2.750000e+01" height="1.922690e+02" vector-effect="non-scaling-stroke" x="7.916667e+01"/><rect y="0" width="2.750000e+01" height="1.042496e+02" vector-effect="non-scaling-stroke" x="1.005000e+02"/><rect height="8.136911e+01" vector-effect="non-scaling-stroke" x="1.218333e+02" y="0" width="2.750000e+01"/><rect vector-effect="non-scaling-stroke" x="1.431667e+02" y="0" width="2.750000e+01" height="1.412422e+02"/><rect x="1.645000e+02" y="0" width="2.750000e+01" height="396" vector-effect="non-scaling-stroke"/></g><g fill="hsl(49, 88%, 65%)" stroke="hsl(49, 88%, 65%)" stroke-width="1px" stroke-linecap="round" stroke-linejoin="round" transform="translate(80 520 )scale(1 -1 )"><rect width="2.750000e+01" height="6.631567e+01" vector-effect="non-scaling-stroke" x="64" y="0"/><rect x="8.533333e+01" y="0" width="2.750000e+01" height="4.725754e+01" vector-effect="non-scaling-stroke"/><rect width="2.750000e+01" height="1.563763e+02" vector-effect="non-scaling-stroke" x="1.066667e+02" y="0"/><rect height="7.825800e+01" vector-effect="non-scaling-stroke" x="128" y="0" width="2.750000e+01"/><rect x="1.493333e+02" y="0" width="2.750000e+01" height="6.641130e+01" vector-effect="non-scaling-stroke"/><rect vector-effect="non-scaling-stroke" x="1.706667e+02" y="0" width="2.750000e+01" height="9.721750e+01"/></g><g stroke-width="1px" stroke-linejoin="round" text-anchor="start" stroke="hsl(198, 47%, 65%)" stroke-linecap="round" font-weight="normal" font-size="12px" font-style="normal" dominant-baseline="hanging" fill="hsl(198, 47%, 65%)" font-family="sans-serif"><rect height="12" vector-effect="non-scaling-stroke" x="736" y="484" width="12"/><g fill="black" stroke="black"><text x="752" y="484" dominant-baseline="hanging" stroke="none" vector-effect="non-scaling-stroke">Golang</text></g><g stroke="hsl(49, 88%, 65%)" stroke-linecap="round" stroke-linejoin="round" fill="hsl(49, 88%, 65%)" stroke-width="1px" text-anchor="start" font-family="sans-serif" font-size="12px" font-style="normal" font-weight="normal" dominant-baseline="hanging"><rect width="12" height="12" vector-effect="non-scaling-stroke" x="736" y="502"/><g stroke="black" fill="black"><text y="502" dominant-baseline="hanging" stroke="none" vector-effect="non-scaling-stroke" x="752">Rust</text><g fill="none" text-anchor="start" font-family="sans-serif" font-size="12px" font-style="normal" font-weight="normal" stroke-width="2px" dominant-baseline="hanging" stroke-linejoin="round" stroke-linecap="round"><rect vector-effect="non-scaling-stroke" x="80" y="80" width="640" height="440"/></g><g font-weight="normal" stroke-linejoin="round" text-anchor="start" stroke="black" font-family="sans-serif" font-size="12px" font-style="normal" stroke-width="2px" stroke-linecap="round" dominant-baseline="hanging" transform="translate(80 520 )scale(1 -1 )" fill="none"><path vector-effect="non-scaling-stroke" d="M64,0 L64,-6 M8.533333e+01,0 L8.533333e+01,-6 M1.066667e+02,0 L1.066667e+02,-6 M128,0 L128,-6 M1.493333e+02,0 L1.493333e+02,-6 M1.706667e+02,0 L1.706667e+02,-6 M192,0 L192,-6 "/></g><g fill="black" stroke-linejoin="round" stroke-width="2px" font-size="12px" font-style="normal" font-weight="normal" dominant-baseline="hanging" transform="translate(80 520 )scale(1 1 )" stroke-linecap="round" text-anchor="middle" stroke="black" font-family="sans-serif"><text stroke="none" vector-effect="non-scaling-stroke" x="64" y="10" dominant-baseline="hanging">1</text><text dominant-baseline="hanging" stroke="none" vector-effect="non-scaling-stroke" x="8.533333e+01" y="10">2</text><text dominant-baseline="hanging" stroke="none" vector-effect="non-scaling-stroke" x="1.066667e+02" y="10">3</text><text x="128" y="10" dominant-baseline="hanging" stroke="none" vector-effect="non-scaling-stroke">4</text><text vector-effect="non-scaling-stroke" x="1.493333e+02" y="10" dominant-baseline="hanging" stroke="none">5</text><text vector-effect="non-scaling-stroke" x="1.706667e+02" y="10" dominant-baseline="hanging" stroke="none">6</text><text stroke="none" vector-effect="non-scaling-stroke" x="192" y="10" dominant-baseline="hanging">7</text></g><g stroke-linejoin="round" font-size="12px" font-style="normal" font-weight="bold" stroke="black" stroke-linecap="round" text-anchor="middle" transform="translate(80 520 )scale(1 1 )rotate(0 0 0 )" fill="black" stroke-width="2px" font-family="sans-serif" dominant-baseline="baseline"><text x="320" y="-6" dominant-baseline="baseline" stroke="none" vector-effect="non-scaling-stroke">Day</text></g><g text-anchor="middle" stroke="black" font-style="normal" font-weight="bold" dominant-baseline="baseline" transform="translate(80 520 )scale(1 -1 )" fill="black" stroke-linejoin="round" stroke-linecap="round" font-family="sans-serif" font-size="12px" stroke-width="2px"><path d="M0,44 L-6,44 M0,1.037714e+02 L-6,1.037714e+02 M0,1.635429e+02 L-6,1.635429e+02 M0,2.233143e+02 L-6,2.233143e+02 M0,2.830858e+02 L-6,2.830858e+02 M0,3.428572e+02 L-6,3.428572e+02 " vector-effect="non-scaling-stroke"/></g><g font-weight="normal" fill="black" text-anchor="end" font-style="normal" dominant-baseline="middle" transform="translate(80 520 )scale(1 1 )" stroke-linecap="round" stroke-linejoin="round" stroke-width="2px" font-family="sans-serif" font-size="12px" stroke="black"><text stroke="none" vector-effect="non-scaling-stroke" x="-10" y="-44" dominant-baseline="middle">0s</text><text stroke="none" vector-effect="non-scaling-stroke" x="-10" y="-1.037714e+02" dominant-baseline="middle">20µs</text><text stroke="none" vector-effect="non-scaling-stroke" x="-10" y="-1.635429e+02" dominant-baseline="middle">40µs</text><text stroke="none" vector-effect="non-scaling-stroke" x="-10" y="-2.233143e+02" dominant-baseline="middle">60µs</text><text vector-effect="non-scaling-stroke" x="-10" y="-2.830858e+02" dominant-baseline="middle" stroke="none">80µs</text><text dominant-baseline="middle" stroke="none" vector-effect="non-scaling-stroke" x="-10" y="-3.428572e+02">100µs</text></g><g stroke-linecap="round" stroke-linejoin="round" font-style="normal" font-weight="bold" dominant-baseline="hanging" stroke="black" fill="black" stroke-width="2px" font-family="sans-serif" font-size="12px" transform="translate(80 520 )scale(1 1 )rotate(-90 0 0 )" text-anchor="middle"><text x="220" y="6" dominant-baseline="hanging" stroke="none" vector-effect="non-scaling-stroke">Runtime</text></g></g></g></g></svg>