<svg height="600" viewbox="0 0 800 600" preserveAspectRatio="xMidYMid meet" xmlns="http://www.w3.org/2000/svg" width="800"><defs><marker refX="5" refY="5" markerUnits="userSpaceOnUse" markerWidth="2%" markerHeight="2%" id="circle" viewBox="0 0 10 10 "><circle cx="5" cy="5" r="3" fill="none" stroke="black"/></marker><marker markerUnits="userSpaceOnUse" markerWidth="2%" markerHeight="2%" id="filled-circle" viewBox="0 0 10 10 " refX="5" refY="5"><circle stroke="none" cx="5" cy="5" r="3" fill="black"/></marker><marker viewBox="0 0 10 10 " refX="5" refY="5" markerUnits="userSpaceOnUse" markerWidth="2%" markerHeight="2%" id="square"><rect y="2" width="6" height="6" fill="none" stroke="black" x="2"/></marker><marker markerHeight="2%" id="filled-square" viewBox="0 0 10 10 " refX="5" refY="5" markerUnits="userSpaceOnUse" markerWidth="2%"><rect width="6" height="6" fill="black" stroke="none" x="2" y="2"/></marker></defs><g transform="translate(80 520 )scale(1 -1 )" fill="hsl(198, 47%, 65%)" stroke="hsl(198, 47%, 65%)" stroke-width="1px" stroke-linecap="round" stroke-linejoin="round"><rect height="4.401462e+01" vector-effect="non-scaling-stroke" x="5.546667e+01" y="0" width="5.688889e+00"/><rect x="7.680000e+01" y="0" width="5.688889e+00" height="4.400308e+01" vector-effect="non-scaling-stroke"/><rect height="4.403859e+01" vector-effect="non-scaling-stroke" x="9.813333e+01" y="0" width="5.688889e+00"/><rect vector-effect="non-scaling-stroke" x="1.194667e+02" y="0" width="5.688889e+00" height="4.401446e+01"/><rect y="0" width="5.688889e+00" height="4.400777e+01" vector-effect="non-scaling-stroke" x="1.408000e+02"/><rect width="5.688889e+00" height="4.400772e+01" vector-effect="non-scaling-stroke" x="1.621333e+02" y="0"/><rect y="0" width="5.688889e+00" height="4.402317e+01" vector-effect="non-scaling-stroke" x="1.834667e+02"/><rect y="0" width="5.688889e+00" height="4.463301e+01" vector-effect="non-scaling-stroke" x="2.048000e+02"/><rect height="4.438074e+01" vector-effect="non-scaling-stroke" x="2.261333e+02" y="0" width="5.688889e+00"/><rect y="0" width="5.688889e+00" height="4.400132e+01" vector-effect="non-scaling-stroke" x="2.474667e+02"/><rect x="2.688000e+02" y="0" width="5.688889e+00" height="5.001648e+01" vector-effect="non-scaling-stroke"/><rect vector-effect="non-scaling-stroke" x="2.901333e+02" y="0" width="5.688889e+00" height="4.433847e+01"/><rect height="4.524548e+01" vector-effect="non-scaling-stroke" x="3.114667e+02" y="0" width="5.688889e+00"/><rect height="4.906853e+01" vector-effect="non-scaling-stroke" x="3.328000e+02" y="0" width="5.688889e+00"/><rect vector-effect="non-scaling-stroke" x="3.541333e+02" y="0" width="5.688889e+00" height="4.400310e+01"/><rect y="0" width="5.688889e+00" height="2.731433e+02" vector-effect="non-scaling-stroke" x="3.754667e+02"/><rect width="5.688889e+00" height="4.476340e+01" vector-effect="non-scaling-stroke" x="3.968000e+02" y="0"/><rect x="4.181333e+02" y="0" width="5.688889e+00" height="4.415401e+01" vector-effect="non-scaling-stroke"/><rect width="5.688889e+00" height="2.562391e+02" vector-effect="non-scaling-stroke" x="4.394667e+02" y="0"/><rect vector-effect="non-scaling-stroke" x="4.608000e+02" y="0" width="5.688889e+00" height="1.050587e+02"/><rect y="0" width="5.688889e+00" height="4.446264e+01" vector-effect="non-scaling-stroke" x="4.821333e+02"/><rect width="5.688889e+00" height="4.444840e+01" vector-effect="non-scaling-stroke" x="5.034667e+02" y="0"/><rect width="5.688889e+00" height="1.433823e+02" vector-effect="non-scaling-stroke" x="5.248000e+02" y="0"/><rect x="5.461333e+02" y="0" width="5.688889e+00" height="1.724832e+02" vector-effect="non-scaling-stroke"/><rect height="4.400270e+01" vector-effect="non-scaling-stroke" x="5.674667e+02" y="0" width="5.688889e+00"/></g><g stroke-width="1px" stroke-linecap="round" stroke-linejoin="round" transform="translate(80 520 )scale(1 -1 )" fill="hsl(49, 88%, 65%)" stroke="hsl(49, 88%, 65%)"><rect y="0" width="5.688889e+00" height="4.401018e+01" vector-effect="non-scaling-stroke" x="6.115556e+01"/><rect height="4.400105e+01" vector-effect="non-scaling-stroke" x="8.248889e+01" y="0" width="5.688889e+00"/><rect width="5.688889e+00" height="4.407504e+01" vector-effect="non-scaling-stroke" x="1.038222e+02" y="0"/><rect vector-effect="non-scaling-stroke" x="1.251556e+02" y="0" width="5.688889e+00" height="4.400978e+01"/><rect vector-effect="non-scaling-stroke" x="1.464889e+02" y="0" width="5.688889e+00" height="4.400535e+01"/><rect height="4.400915e+01" vector-effect="non-scaling-stroke" x="1.678222e+02" y="0" width="5.688889e+00"/><rect height="4.401298e+01" vector-effect="non-scaling-stroke" x="1.891556e+02" y="0" width="5.688889e+00"/><rect x="2.104889e+02" y="0" width="5.688889e+00" height="4.448191e+01" vector-effect="non-scaling-stroke"/><rect height="4.430603e+01" vector-effect="non-scaling-stroke" x="2.318222e+02" y="0" width="5.688889e+00"/><rect y="0" width="5.688889e+00" height="4.400106e+01" vector-effect="non-scaling-stroke" x="2.531556e+02"/><rect vector-effect="non-scaling-stroke" x="2.744889e+02" y="0" width="5.688889e+00" height="4.788246e+01"/><rect height="4.420106e+01" vector-effect="non-scaling-stroke" x="2.958222e+02" y="0" width="5.688889e+00"/><rect vector-effect="non-scaling-stroke" x="3.171556e+02" y="0" width="5.688889e+00" height="4.441360e+01"/><rect width="5.688889e+00" height="4.976011e+01" vector-effect="non-scaling-stroke" x="3.384889e+02" y="0"/><rect vector-effect="non-scaling-stroke" x="3.598222e+02" y="0" width="5.688889e+00" height="4.400147e+01"/><rect y="0" width="5.688889e+00" height="2.949777e+02" vector-effect="non-scaling-stroke" x="3.811556e+02"/><rect vector-effect="non-scaling-stroke" x="4.024889e+02" y="0" width="5.688889e+00" height="4.427219e+01"/><rect vector-effect="non-scaling-stroke" x="4.238222e+02" y="0" width="5.688889e+00" height="4.414191e+01"/><rect x="4.451556e+02" y="0" width="5.688889e+00" height="8.555461e+01" vector-effect="non-scaling-stroke"/><rect height="8.385912e+01" vector-effect="non-scaling-stroke" x="4.664889e+02" y="0" width="5.688889e+00"/><rect vector-effect="non-scaling-stroke" x="4.878222e+02" y="0" width="5.688889e+00" height="4.430260e+01"/><rect vector-effect="non-scaling-stroke" x="5.091556e+02" y="0" width="5.688889e+00" height="4.449778e+01"/><rect vector-effect="non-scaling-stroke" x="5.304889e+02" y="0" width="5.688889e+00" height="1.214495e+02"/><rect width="5.688889e+00" height="1.771488e+02" vector-effect="non-scaling-stroke" x="5.518222e+02" y="0"/><rect width="5.688889e+00" height="4.400231e+01" vector-effect="non-scaling-stroke" x="5.731556e+02" y="0"/></g><g stroke="hsl(260, 76%, 65%)" stroke-width="1px" stroke-linecap="round" stroke-linejoin="round" transform="translate(80 520 )scale(1 -1 )" fill="hsl(260, 76%, 65%)"><rect height="4.401021e+01" vector-effect="non-scaling-stroke" x="6.684444e+01" y="0" width="5.688889e+00"/><rect x="8.817778e+01" y="0" width="5.688889e+00" height="4.400309e+01" vector-effect="non-scaling-stroke"/><rect vector-effect="non-scaling-stroke" x="1.095111e+02" y="0" width="5.688889e+00" height="4.401778e+01"/><rect width="5.688889e+00" height="4.400990e+01" vector-effect="non-scaling-stroke" x="1.308444e+02" y="0"/><rect x="1.521778e+02" y="0" width="5.688889e+00" height="4.400466e+01" vector-effect="non-scaling-stroke"/><rect width="5.688889e+00" height="4.400721e+01" vector-effect="non-scaling-stroke" x="1.735111e+02" y="0"/><rect y="0" width="5.688889e+00" height="4.401555e+01" vector-effect="non-scaling-stroke" x="1.948444e+02"/><rect vector-effect="non-scaling-stroke" x="2.161778e+02" y="0" width="5.688889e+00" height="4.440900e+01"/><rect height="4.439495e+01" vector-effect="non-scaling-stroke" x="2.375111e+02" y="0" width="5.688889e+00"/><rect y="0" width="5.688889e+00" height="4.400092e+01" vector-effect="non-scaling-stroke" x="2.588444e+02"/><rect height="4.790442e+01" vector-effect="non-scaling-stroke" x="2.801778e+02" y="0" width="5.688889e+00"/><rect x="3.015111e+02" y="0" width="5.688889e+00" height="4.411404e+01" vector-effect="non-scaling-stroke"/><rect height="4.401143e+01" vector-effect="non-scaling-stroke" x="3.228444e+02" y="0" width="5.688889e+00"/><rect vector-effect="non-scaling-stroke" x="3.441778e+02" y="0" width="5.688889e+00" height="4.822847e+01"/><rect x="3.655111e+02" y="0" width="5.688889e+00" height="4.400148e+01" vector-effect="non-scaling-stroke"/><rect vector-effect="non-scaling-stroke" x="3.868444e+02" y="0" width="5.688889e+00" height="396"/><rect vector-effect="non-scaling-stroke" x="4.081778e+02" y="0" width="5.688889e+00" height="4.427726e+01"/><rect x="4.295111e+02" y="0" width="5.688889e+00" height="4.413234e+01" vector-effect="non-scaling-stroke"/><rect y="0" width="5.688889e+00" height="6.244366e+01" vector-effect="non-scaling-stroke" x="4.508444e+02"/><rect x="4.721778e+02" y="0" width="5.688889e+00" height="1.055734e+02" vector-effect="non-scaling-stroke"/><rect x="4.935111e+02" y="0" width="5.688889e+00" height="4.410795e+01" vector-effect="non-scaling-stroke"/><rect height="4.530956e+01" vector-effect="non-scaling-stroke" x="5.148444e+02" y="0" width="5.688889e+00"/><rect y="0" width="5.688889e+00" height="1.414933e+02" vector-effect="non-scaling-stroke" x="5.361778e+02"/><rect height="1.787463e+02" vector-effect="non-scaling-stroke" x="5.575111e+02" y="0" width="5.688889e+00"/><rect vector-effect="non-scaling-stroke" x="5.788444e+02" y="0" width="5.688889e+00" height="4.400182e+01"/></g><g font-weight="normal" text-anchor="start" stroke-linejoin="round" stroke-linecap="round" font-style="normal" fill="hsl(198, 47%, 65%)" stroke-width="1px" font-size="12px" dominant-baseline="hanging" stroke="hsl(198, 47%, 65%)" font-family="sans-serif"><rect width="12" height="12" vector-effect="non-scaling-stroke" x="736" y="466"/><g fill="black" stroke="black"><text x="752" y="466" dominant-baseline="hanging" stroke="none" vector-effect="non-scaling-stroke">Golang</text></g><g stroke-linejoin="round" fill="hsl(49, 88%, 65%)" stroke="hsl(49, 88%, 65%)" stroke-linecap="round" font-family="sans-serif" text-anchor="start" dominant-baseline="hanging" font-size="12px" font-weight="normal" font-style="normal" stroke-width="1px"><rect y="484" width="12" height="12" vector-effect="non-scaling-stroke" x="736"/><g stroke="black" fill="black"><text vector-effect="non-scaling-stroke" x="752" y="484" dominant-baseline="hanging" stroke="none">Rust</text></g><g fill="hsl(260, 76%, 65%)" stroke-linecap="round" stroke-linejoin="round" font-weight="normal" text-anchor="start" dominant-baseline="hanging" stroke-width="1px" font-family="sans-serif" font-style="normal" stroke="hsl(260, 76%, 65%)" font-size="12px"><rect height="12" vector-effect="non-scaling-stroke" x="736" y="502" width="12"/><g stroke="black" fill="black"><text vector-effect="non-scaling-stroke" x="752" y="502" dominant-baseline="hanging" stroke="none">Zig</text><g font-size="12px" text-anchor="start" dominant-baseline="hanging" stroke-width="2px" font-family="sans-serif" font-style="normal" fill="none" stroke-linecap="round" font-weight="normal" stroke-linejoin="round"><rect vector-effect="non-scaling-stroke" x="80" y="80" width="640" height="440"/></g><g transform="translate(80 520 )scale(1 -1 )" stroke-width="2px" text-anchor="start" dominant-baseline="hanging" stroke="black" stroke-linejoin="round" font-size="12px" fill="none" stroke-linecap="round" font-family="sans-serif" font-style="normal" font-weight="normal"><path vector-effect="non-scaling-stroke" d="M64,0 L64,-6 M8.533333e+01,0 L8.533333e+01,-6 M1.066667e+02,0 L1.066667e+02,-6 M128,0 L128,-6 M1.493333e+02,0 L1.493333e+02,-6 M1.706667e+02,0 L1.706667e+02,-6 M192,0 L192,-6 M2.133333e+02,0 L2.133333e+02,-6 M2.346667e+02,0 L2.346667e+02,-6 M256,0 L256,-6 M2.773333e+02,0 L2.773333e+02,-6 M2.986667e+02,0 L2.986667e+02,-6 M320,0 L320,-6 M3.413333e+02,0 L3.413333e+02,-6 M3.626667e+02,0 L3.626667e+02,-6 M384,0 L384,-6 M4.053333e+02,0 L4.053333e+02,-6 M4.266667e+02,0 L4.266667e+02,-6 M448,0 L448,-6 M4.693333e+02,0 L4.693333e+02,-6 M4.906667e+02,0 L4.906667e+02,-6 M512,0 L512,-6 M5.333333e+02,0 L5.333333e+02,-6 M5.546667e+02,0 L5.546667e+02,-6 M576,0 L576,-6 "/></g><g font-weight="normal" text-anchor="middle" dominant-baseline="hanging" font-style="normal" stroke-linecap="round" stroke-width="2px" stroke="black" stroke-linejoin="round" font-size="12px" font-family="sans-serif" transform="translate(80 520 )scale(1 1 )" fill="black"><text y="10" dominant-baseline="hanging" stroke="none" vector-effect="non-scaling-stroke" x="64">1</text><text y="10" dominant-baseline="hanging" stroke="none" vector-effect="non-scaling-stroke" x="8.533333e+01">2</text><text stroke="none" vector-effect="non-scaling-stroke" x="1.066667e+02" y="10" dominant-baseline="hanging">3</text><text vector-effect="non-scaling-stroke" x="128" y="10" dominant-baseline="hanging" stroke="none">4</text><text stroke="none" vector-effect="non-scaling-stroke" x="1.493333e+02" y="10" dominant-baseline="hanging">5</text><text x="1.706667e+02" y="10" dominant-baseline="hanging" stroke="none" vector-effect="non-scaling-stroke">6</text><text stroke="none" vector-effect="non-scaling-stroke" x="192" y="10" dominant-baseline="hanging">7</text><text y="10" dominant-baseline="hanging" stroke="none" vector-effect="non-scaling-stroke" x="2.133333e+02">8</text><text vector-effect="non-scaling-stroke" x="2.346667e+02" y="10" dominant-baseline="hanging" stroke="none">9</text><text x="256" y="10" dominant-baseline="hanging" stroke="none" vector-effect="non-scaling-stroke">10</text><text stroke="none" vector-effect="non-scaling-stroke" x="2.773333e+02" y="10" dominant-baseline="hanging">11</text><text vector-effect="non-scaling-stroke" x="2.986667e+02" y="10" dominant-baseline="hanging" stroke="none">12</text><text stroke="none" vector-effect="non-scaling-stroke" x="320" y="10" dominant-baseline="hanging">13</text><text stroke="none" vector-effect="non-scaling-stroke" x="3.413333e+02" y="10" dominant-baseline="hanging">14</text><text vector-effect="non-scaling-stroke" x="3.626667e+02" y="10" dominant-baseline="hanging" stroke="none">15</text><text stroke="none" vector-effect="non-scaling-stroke" x="384" y="10" dominant-baseline="hanging">16</text><text x="4.053333e+02" y="10" dominant-baseline="hanging" stroke="none" vector-effect="non-scaling-stroke">17</text><text x="4.266667e+02" y="10" dominant-baseline="hanging" stroke="none" vector-effect="non-scaling-stroke">18</text><text stroke="none" vector-effect="non-scaling-stroke" x="448" y="10" dominant-baseline="hanging">19</text><text vector-effect="non-scaling-stroke" x="4.693333e+02" y="10" dominant-baseline="hanging" stroke="none">20</text><text x="4.906667e+02" y="10" dominant-baseline="hanging" stroke="none" vector-effect="non-scaling-stroke">21</text><text stroke="none" vector-effect="non-scaling-stroke" x="512" y="10" dominant-baseline="hanging">22</text><text dominant-baseline="hanging" stroke="none" vector-effect="non-scaling-stroke" x="5.333333e+02" y="10">23</text><text x="5.546667e+02" y="10" dominant-baseline="hanging" stroke="none" vector-effect="non-scaling-stroke">24</text><text vector-effect="non-scaling-stroke" x="576" y="10" dominant-baseline="hanging" stroke="none">25</text></g><g stroke="black" stroke-linecap="round" font-style="normal" fill="black" font-size="12px" text-anchor="middle" dominant-baseline="baseline" transform="translate(80 520 )scale(1 1 )rotate(0 0 0 )" stroke-width="2px" font-weight="bold" stroke-linejoin="round" font-family="sans-serif"><text x="320" y="-6" dominant-baseline="baseline" stroke="none" vector-effect="non-scaling-stroke">Day</text></g><g stroke-width="2px" text-anchor="middle" font-family="sans-serif" transform="translate(80 520 )scale(1 -1 )" stroke-linecap="round" font-weight="bold" dominant-baseline="baseline" stroke="black" stroke-linejoin="round" font-size="12px" font-style="normal" fill="black"><path vector-effect="non-scaling-stroke" d="M0,44 L-6,44 M0,2.071240e+02 L-6,2.071240e+02 M0,3.702480e+02 L-6,3.702480e+02 "/></g><g font-weight="normal" text-anchor="end" transform="translate(80 520 )scale(1 1 )" fill="black" stroke-width="2px" stroke-linecap="round" font-family="sans-serif" font-size="12px" stroke="black" stroke-linejoin="round" font-style="normal" dominant-baseline="middle"><text y="-44" dominant-baseline="middle" stroke="none" vector-effect="non-scaling-stroke" x="-10">0s</text><text stroke="none" vector-effect="non-scaling-stroke" x="-10" y="-2.071240e+02" dominant-baseline="middle">100ms</text><text vector-effect="non-scaling-stroke" x="-10" y="-3.702480e+02" dominant-baseline="middle" stroke="none">200ms</text></g><g font-style="normal" stroke-linejoin="round" font-size="12px" font-weight="bold" stroke-linecap="round" font-family="sans-serif" stroke-width="2px" dominant-baseline="hanging" stroke="black" text-anchor="middle" transform="translate(80 520 )scale(1 1 )rotate(-90 0 0 )" fill="black"><text y="6" dominant-baseline="hanging" stroke="none" vector-effect="non-scaling-stroke" x="220">Runtime</text></g></g></g></g></g></svg>