<svg preserveAspectRatio="xMidYMid meet" xmlns="http://www.w3.org/2000/svg" width="800" height="600" viewbox="0 0 800 600"><defs><marker id="circle" viewBox="0 0 10 10 " refX="5" refY="5" markerUnits="userSpaceOnUse" markerWidth="2%" markerHeight="2%"><circle r="3" fill="none" stroke="black" cx="5" cy="5"/></marker><marker refY="5" markerUnits="userSpaceOnUse" markerWidth="2%" markerHeight="2%" id="filled-circle" viewBox="0 0 10 10 " refX="5"><circle cx="5" cy="5" r="3" fill="black" stroke="none"/></marker><marker viewBox="0 0 10 10 " refX="5" refY="5" markerUnits="userSpaceOnUse" markerWidth="2%" markerHeight="2%" id="square"><rect y="2" width="6" height="6" fill="none" stroke="black" x="2"/></marker><marker refY="5" markerUnits="userSpaceOnUse" markerWidth="2%" markerHeight="2%" id="filled-square" viewBox="0 0 10 10 " refX="5"><rect y="2" width="6" height="6" fill="black" stroke="none" x="2"/></marker></defs><g stroke-linejoin="round" transform="translate(80 520 )scale(1 -1 )" fill="hsl(198, 47%, 65%)" stroke="hsl(198, 47%, 65%)" stroke-width="1px" stroke-linecap="round"><rect height="4.400604e+01" vector-effect="non-scaling-stroke" x="5.546667e+01" y="0" width="5.688889e+00"/><rect height="4.400127e+01" vector-effect="non-scaling-stroke" x="7.680000e+01" y="0" width="5.688889e+00"/><rect y="0" width="5.688889e+00" height="4.401595e+01" vector-effect="non-scaling-stroke" x="9.813333e+01"/><rect vector-effect="non-scaling-stroke" x="1.194667e+02" y="0" width="5.688889e+00" height="4.400598e+01"/><rect vector-effect="non-scaling-stroke" x="1.408000e+02" y="0" width="5.688889e+00" height="4.400321e+01"/><rect vector-effect="non-scaling-stroke" x="1.621333e+02" y="0" width="5.688889e+00" height="4.400319e+01"/><rect y="0" width="5.688889e+00" height="4.400958e+01" vector-effect="non-scaling-stroke" x="1.834667e+02"/><rect vector-effect="non-scaling-stroke" x="2.048000e+02" y="0" width="5.688889e+00" height="4.426172e+01"/><rect x="2.261333e+02" y="0" width="5.688889e+00" height="4.415742e+01" vector-effect="non-scaling-stroke"/><rect vector-effect="non-scaling-stroke" x="2.474667e+02" y="0" width="5.688889e+00" height="4.400055e+01"/><rect x="2.688000e+02" y="0" width="5.688889e+00" height="4.648757e+01" vector-effect="non-scaling-stroke"/><rect height="4.413994e+01" vector-effect="non-scaling-stroke" x="2.901333e+02" y="0" width="5.688889e+00"/><rect height="4.451495e+01" vector-effect="non-scaling-stroke" x="3.114667e+02" y="0" width="5.688889e+00"/><rect height="4.609563e+01" vector-effect="non-scaling-stroke" x="3.328000e+02" y="0" width="5.688889e+00"/><rect vector-effect="non-scaling-stroke" x="3.541333e+02" y="0" width="5.688889e+00" height="4.400128e+01"/><rect width="5.688889e+00" height="1.387415e+02" vector-effect="non-scaling-stroke" x="3.754667e+02" y="0"/><rect vector-effect="non-scaling-stroke" x="3.968000e+02" y="0" width="5.688889e+00" height="4.431564e+01"/><rect y="0" width="5.688889e+00" height="4.405911e+01" vector-effect="non-scaling-stroke" x="4.181333e+02"/><rect vector-effect="non-scaling-stroke" x="4.394667e+02" y="0" width="5.688889e+00" height="1.220573e+02"/><rect x="4.608000e+02" y="0" width="5.688889e+00" height="6.924531e+01" vector-effect="non-scaling-stroke"/><rect vector-effect="non-scaling-stroke" x="4.821333e+02" y="0" width="5.688889e+00" height="4.422195e+01"/><rect vector-effect="non-scaling-stroke" x="5.034667e+02" y="0" width="5.688889e+00" height="4.418540e+01"/><rect width="5.688889e+00" height="8.509058e+01" vector-effect="non-scaling-stroke" x="5.248000e+02" y="0"/><rect y="0" width="5.688889e+00" height="9.567921e+01" vector-effect="non-scaling-stroke" x="5.461333e+02"/><rect y="0" width="5.688889e+00" height="4.400112e+01" vector-effect="non-scaling-stroke" x="5.674667e+02"/></g><g fill="hsl(49, 88%, 65%)" stroke="hsl(49, 88%, 65%)" stroke-width="1px" stroke-linecap="round" stroke-linejoin="round" transform="translate(80 520 )scale(1 -1 )"><rect x="6.115556e+01" y="0" width="5.688889e+00" height="4.400421e+01" vector-effect="non-scaling-stroke"/><rect vector-effect="non-scaling-stroke" x="8.248889e+01" y="0" width="5.688889e+00" height="4.400043e+01"/><rect y="0" width="5.688889e+00" height="4.403102e+01" vector-effect="non-scaling-stroke" x="1.038222e+02"/><rect vector-effect="non-scaling-stroke" x="1.251556e+02" y="0" width="5.688889e+00" height="4.400404e+01"/><rect vector-effect="non-scaling-stroke" x="1.464889e+02" y="0" width="5.688889e+00" height="4.400221e+01"/><rect x="1.678222e+02" y="0" width="5.688889e+00" height="4.400379e+01" vector-effect="non-scaling-stroke"/><rect width="5.688889e+00" height="4.400537e+01" vector-effect="non-scaling-stroke" x="1.891556e+02" y="0"/><rect width="5.688889e+00" height="4.419925e+01" vector-effect="non-scaling-stroke" x="2.104889e+02" y="0"/><rect vector-effect="non-scaling-stroke" x="2.318222e+02" y="0" width="5.688889e+00" height="4.412653e+01"/><rect x="2.531556e+02" y="0" width="5.688889e+00" height="4.400044e+01" vector-effect="non-scaling-stroke"/><rect vector-effect="non-scaling-stroke" x="2.744889e+02" y="0" width="5.688889e+00" height="4.560524e+01"/><rect height="4.408313e+01" vector-effect="non-scaling-stroke" x="2.958222e+02" y="0" width="5.688889e+00"/><rect y="0" width="5.688889e+00" height="4.417101e+01" vector-effect="non-scaling-stroke" x="3.171556e+02"/><rect height="4.638157e+01" vector-effect="non-scaling-stroke" x="3.384889e+02" y="0" width="5.688889e+00"/><rect vector-effect="non-scaling-stroke" x="3.598222e+02" y="0" width="5.688889e+00" height="4.400061e+01"/><rect y="0" width="5.688889e+00" height="1.477691e+02" vector-effect="non-scaling-stroke" x="3.811556e+02"/><rect x="4.024889e+02" y="0" width="5.688889e+00" height="4.411254e+01" vector-effect="non-scaling-stroke"/><rect x="4.238222e+02" y="0" width="5.688889e+00" height="4.405852e+01" vector-effect="non-scaling-stroke"/><rect y="0" width="5.688889e+00" height="7.877606e+01" vector-effect="non-scaling-stroke" x="4.451556e+02"/><rect height="6.048014e+01" vector-effect="non-scaling-stroke" x="4.664889e+02" y="0" width="5.688889e+00"/><rect vector-effect="non-scaling-stroke" x="4.878222e+02" y="0" width="5.688889e+00" height="4.413731e+01"/><rect vector-effect="non-scaling-stroke" x="5.091556e+02" y="0" width="5.688889e+00" height="4.421366e+01"/><rect vector-effect="non-scaling-stroke" x="5.304889e+02" y="0" width="5.688889e+00" height="7.624987e+01"/><rect vector-effect="non-scaling-stroke" x="5.518222e+02" y="0" width="5.688889e+00" height="9.905164e+01"/><rect width="5.688889e+00" height="4.400095e+01" vector-effect="non-scaling-stroke" x="5.731556e+02" y="0"/></g><g transform="translate(80 520 )scale(1 -1 )" fill="hsl(260, 76%, 65%)" stroke="hsl(260, 76%, 65%)" stroke-width="1px" stroke-linecap="round" stroke-linejoin="round"><rect width="5.688889e+00" height="4.400422e+01" vector-effect="non-scaling-stroke" x="6.684444e+01" y="0"/><rect x="8.817778e+01" y="0" width="5.688889e+00" height="4.400128e+01" vector-effect="non-scaling-stroke"/><rect vector-effect="non-scaling-stroke" x="1.095111e+02" y="0" width="5.688889e+00" height="4.400735e+01"/><rect width="5.688889e+00" height="4.400409e+01" vector-effect="non-scaling-stroke" x="1.308444e+02" y="0"/><rect width="5.688889e+00" height="4.400193e+01" vector-effect="non-scaling-stroke" x="1.521778e+02" y="0"/><rect y="0" width="5.688889e+00" height="4.400298e+01" vector-effect="non-scaling-stroke" x="1.735111e+02"/><rect y="0" width="5.688889e+00" height="4.400643e+01" vector-effect="non-scaling-stroke" x="1.948444e+02"/><rect width="5.688889e+00" height="4.416911e+01" vector-effect="non-scaling-stroke" x="2.161778e+02" y="0"/><rect vector-effect="non-scaling-stroke" x="2.375111e+02" y="0" width="5.688889e+00" height="4.416330e+01"/><rect vector-effect="non-scaling-stroke" x="2.588444e+02" y="0" width="5.688889e+00" height="4.400038e+01"/><rect height="4.561432e+01" vector-effect="non-scaling-stroke" x="2.801778e+02" y="0" width="5.688889e+00"/><rect y="0" width="5.688889e+00" height="4.404715e+01" vector-effect="non-scaling-stroke" x="3.015111e+02"/><rect vector-effect="non-scaling-stroke" x="3.228444e+02" y="0" width="5.688889e+00" height="4.400473e+01"/><rect y="0" width="5.688889e+00" height="4.574830e+01" vector-effect="non-scaling-stroke" x="3.441778e+02"/><rect x="3.655111e+02" y="0" width="5.688889e+00" height="4.400061e+01" vector-effect="non-scaling-stroke"/><rect height="396" vector-effect="non-scaling-stroke" x="3.868444e+02" y="0" width="5.688889e+00"/></g><g stroke-linejoin="round" font-size="12px" font-weight="normal" dominant-baseline="hanging" stroke="hsl(198, 47%, 65%)" font-style="normal" text-anchor="start" fill="hsl(198, 47%, 65%)" stroke-width="1px" stroke-linecap="round" font-family="sans-serif"><rect width="12" height="12" vector-effect="non-scaling-stroke" x="736" y="466"/><g fill="black" stroke="black"><text stroke="none" vector-effect="non-scaling-stroke" x="752" y="466" dominant-baseline="hanging">Golang</text></g><g stroke-width="1px" stroke="hsl(49, 88%, 65%)" font-weight="normal" font-family="sans-serif" font-style="normal" text-anchor="start" stroke-linejoin="round" dominant-baseline="hanging" font-size="12px" fill="hsl(49, 88%, 65%)" stroke-linecap="round"><rect y="484" width="12" height="12" vector-effect="non-scaling-stroke" x="736"/><g stroke="black" fill="black"><text vector-effect="non-scaling-stroke" x="752" y="484" dominant-baseline="hanging" stroke="none">Rust</text></g><g font-style="normal" text-anchor="start" font-weight="normal" stroke="hsl(260, 76%, 65%)" stroke-width="1px" stroke-linecap="round" stroke-linejoin="round" font-family="sans-serif" font-size="12px" fill="hsl(260, 76%, 65%)" dominant-baseline="hanging"><rect vector-effect="non-scaling-stroke" x="736" y="502" width="12" height="12"/><g stroke="black" fill="black"><text y="502" dominant-baseline="hanging" stroke="none" vector-effect="non-scaling-stroke" x="752">Zig</text><g stroke-linecap="round" font-family="sans-serif" dominant-baseline="hanging" stroke-linejoin="round" font-size="12px" font-style="normal" font-weight="normal" fill="none" text-anchor="start" stroke-width="2px"><rect vector-effect="non-scaling-stroke" x="80" y="80" width="640" height="440"/></g><g transform="translate(80 520 )scale(1 -1 )" font-weight="normal" text-anchor="start" font-family="sans-serif" stroke-width="2px" stroke-linecap="round" stroke-linejoin="round" font-size="12px" stroke="black" dominant-baseline="hanging" font-style="normal" fill="none"><path vector-effect="non-scaling-stroke" d="M64,0 L64,-6 M8.533333e+01,0 L8.533333e+01,-6 M1.066667e+02,0 L1.066667e+02,-6 M128,0 L128,-6 M1.493333e+02,0 L1.493333e+02,-6 M1.706667e+02,0 L1.706667e+02,-6 M192,0 L192,-6 M2.133333e+02,0 L2.133333e+02,-6 M2.346667e+02,0 L2.346667e+02,-6 M256,0 L256,-6 M2.773333e+02,0 L2.773333e+02,-6 M2.986667e+02,0 L2.986667e+02,-6 M320,0 L320,-6 M3.413333e+02,0 L3.413333e+02,-6 M3.626667e+02,0 L3.626667e+02,-6 M384,0 L384,-6 M4.053333e+02,0 L4.053333e+02,-6 M4.266667e+02,0 L4.266667e+02,-6 M448,0 L448,-6 M4.693333e+02,0 L4.693333e+02,-6 M4.906667e+02,0 L4.906667e+02,-6 M512,0 L512,-6 M5.333333e+02,0 L5.333333e+02,-6 M5.546667e+02,0 L5.546667e+02,-6 M576,0 L576,-6 "/></g><g text-anchor="middle" stroke-width="2px" stroke="black" dominant-baseline="hanging" font-size="12px" font-style="normal" fill="black" stroke-linecap="round" stroke-linejoin="round" transform="translate(80 520 )scale(1 1 )" font-weight="normal" font-family="sans-serif"><text dominant-baseline="hanging" stroke="none" vector-effect="non-scaling-stroke" x="64" y="10">1</text><text vector-effect="non-scaling-stroke" x="8.533333e+01" y="10" dominant-baseline="hanging" stroke="none">2</text><text dominant-baseline="hanging" stroke="none" vector-effect="non-scaling-stroke" x="1.066667e+02" y="10">3</text><text dominant-baseline="hanging" stroke="none" vector-effect="non-scaling-stroke" x="128" y="10">4</text><text stroke="none" vector-effect="non-scaling-stroke" x="1.493333e+02" y="10" dominant-baseline="hanging">5</text><text x="1.706667e+02" y="10" dominant-baseline="hanging" stroke="none" vector-effect="non-scaling-stroke">6</text><text dominant-baseline="hanging" stroke="none" vector-effect="non-scaling-stroke" x="192" y="10">7</text><text stroke="none" vector-effect="non-scaling-stroke" x="2.133333e+02" y="10" dominant-baseline="hanging">8</text><text vector-effect="non-scaling-stroke" x="2.346667e+02" y="10" dominant-baseline="hanging" stroke="none">9</text><text stroke="none" vector-effect="non-scaling-stroke" x="256" y="10" dominant-baseline="hanging">10</text><text y="10" dominant-baseline="hanging" stroke="none" vector-effect="non-scaling-stroke" x="2.773333e+02">11</text><text vector-effect="non-scaling-stroke" x="2.986667e+02" y="10" dominant-baseline="hanging" stroke="none">12</text><text y="10" dominant-baseline="hanging" stroke="none" vector-effect="non-scaling-stroke" x="320">13</text><text dominant-baseline="hanging" stroke="none" vector-effect="non-scaling-stroke" x="3.413333e+02" y="10">14</text><text y="10" dominant-baseline="hanging" stroke="none" vector-effect="non-scaling-stroke" x="3.626667e+02">15</text><text vector-effect="non-scaling-stroke" x="384" y="10" dominant-baseline="hanging" stroke="none">16</text><text stroke="none" vector-effect="non-scaling-stroke" x="4.053333e+02" y="10" dominant-baseline="hanging">17</text><text y="10" dominant-baseline="hanging" stroke="none" vector-effect="non-scaling-stroke" x="4.266667e+02">18</text><text y="10" dominant-baseline="hanging" stroke="none" vector-effect="non-scaling-stroke" x="448">19</text><text stroke="none" vector-effect="non-scaling-stroke" x="4.693333e+02" y="10" dominant-baseline="hanging">20</text><text y="10" dominant-baseline="hanging" stroke="none" vector-effect="non-scaling-stroke" x="4.906667e+02">21</text><text x="512" y="10" dominant-baseline="hanging" stroke="none" vector-effect="non-scaling-stroke">22</text><text stroke="none" vector-effect="non-scaling-stroke" x="5.333333e+02" y="10" dominant-baseline="hanging">23</text><text dominant-baseline="hanging" stroke="none" vector-effect="non-scaling-stroke" x="5.546667e+02" y="10">24</text><text stroke="none" vector-effect="non-scaling-stroke" x="576" y="10" dominant-baseline="hanging">25</text></g><g stroke="black" dominant-baseline="baseline" stroke-linejoin="round" text-anchor="middle" fill="black" stroke-linecap="round" transform="translate(80 520 )scale(1 1 )rotate(0 0 0 )" font-weight="bold" font-family="sans-serif" font-size="12px" font-style="normal" stroke-width="2px"><text stroke="none" vector-effect="non-scaling-stroke" x="320" y="-6" dominant-baseline="baseline">Day</text></g><g stroke-linejoin="round" font-style="normal" text-anchor="middle" fill="black" stroke-width="2px" stroke-linecap="round" transform="translate(80 520 )scale(1 -1 )" font-weight="bold" font-family="sans-serif" font-size="12px" stroke="black" dominant-baseline="baseline"><path vector-effect="non-scaling-stroke" d="M0,44 L-6,44 M0,1.114452e+02 L-6,1.114452e+02 M0,1.788904e+02 L-6,1.788904e+02 M0,2.463356e+02 L-6,2.463356e+02 M0,3.137808e+02 L-6,3.137808e+02 M0,3.812260e+02 L-6,3.812260e+02 "/></g><g stroke-linejoin="round" stroke="black" dominant-baseline="middle" font-size="12px" fill="black" stroke-width="2px" stroke-linecap="round" font-weight="normal" font-family="sans-serif" font-style="normal" text-anchor="end" transform="translate(80 520 )scale(1 1 )"><text y="-44" dominant-baseline="middle" stroke="none" vector-effect="non-scaling-stroke" x="-10">0s</text><text x="-10" y="-1.114452e+02" dominant-baseline="middle" stroke="none" vector-effect="non-scaling-stroke">100ms</text><text dominant-baseline="middle" stroke="none" vector-effect="non-scaling-stroke" x="-10" y="-1.788904e+02">200ms</text><text x="-10" y="-2.463356e+02" dominant-baseline="middle" stroke="none" vector-effect="non-scaling-stroke">300ms</text><text vector-effect="non-scaling-stroke" x="-10" y="-3.137808e+02" dominant-baseline="middle" stroke="none">400ms</text><text x="-10" y="-3.812260e+02" dominant-baseline="middle" stroke="none" vector-effect="non-scaling-stroke">500ms</text></g><g font-style="normal" text-anchor="middle" stroke-width="2px" transform="translate(80 520 )scale(1 1 )rotate(-90 0 0 )" dominant-baseline="hanging" stroke="black" font-family="sans-serif" font-size="12px" fill="black" font-weight="bold" stroke-linecap="round" stroke-linejoin="round"><text stroke="none" vector-effect="non-scaling-stroke" x="220" y="6" dominant-baseline="hanging">Runtime</text></g></g></g></g></g></svg>