<svg xmlns="http://www.w3.org/2000/svg" width="800" height="600" viewbox="0 0 800 600" preserveAspectRatio="xMidYMid meet"><defs><marker markerHeight="2%" id="circle" viewBox="0 0 10 10 " refX="5" refY="5" markerUnits="userSpaceOnUse" markerWidth="2%"><circle cy="5" r="3" fill="none" stroke="black" cx="5"/></marker><marker refY="5" markerUnits="userSpaceOnUse" markerWidth="2%" markerHeight="2%" id="filled-circle" viewBox="0 0 10 10 " refX="5"><circle cx="5" cy="5" r="3" fill="black" stroke="none"/></marker><marker refY="5" markerUnits="userSpaceOnUse" markerWidth="2%" markerHeight="2%" id="square" viewBox="0 0 10 10 " refX="5"><rect x="2" y="2" width="6" height="6" fill="none" stroke="black"/></marker><marker markerHeight="2%" id="filled-square" viewBox="0 0 10 10 " refX="5" refY="5" markerUnits="userSpaceOnUse" markerWidth="2%"><rect fill="black" stroke="none" x="2" y="2" width="6" height="6"/></marker></defs><g transform="translate(80 520 )scale(1 -1 )" fill="hsl(198, 47%, 65%)" stroke="hsl(198, 47%, 65%)" stroke-width="1px" stroke-linecap="round" stroke-linejoin="round"><rect height="4.423166e+01" vector-effect="non-scaling-stroke" x="5.430303e+01" y="0" width="6.464646e+00"/><rect vector-effect="non-scaling-stroke" x="7.563636e+01" y="0" width="6.464646e+00" height="4.423326e+01"/><rect vector-effect="non-scaling-stroke" x="9.696970e+01" y="0" width="6.464646e+00" height="4.414273e+01"/><rect vector-effect="non-scaling-stroke" x="1.183030e+02" y="0" width="6.464646e+00" height="4.533401e+01"/><rect x="1.396364e+02" y="0" width="6.464646e+00" height="4.414970e+01" vector-effect="non-scaling-stroke"/><rect height="396" vector-effect="non-scaling-stroke" x="1.609697e+02" y="0" width="6.464646e+00"/><rect x="1.823030e+02" y="0" width="6.464646e+00" height="1.265206e+02" vector-effect="non-scaling-stroke"/><rect height="4.403414e+01" vector-effect="non-scaling-stroke" x="2.036364e+02" y="0" width="6.464646e+00"/><rect x="2.249697e+02" y="0" width="6.464646e+00" height="4.626741e+01" vector-effect="non-scaling-stroke"/><rect x="2.463030e+02" y="0" width="6.464646e+00" height="4.455961e+01" vector-effect="non-scaling-stroke"/><rect x="2.676364e+02" y="0" width="6.464646e+00" height="5.078807e+01" vector-effect="non-scaling-stroke"/><rect y="0" width="6.464646e+00" height="4.690133e+01" vector-effect="non-scaling-stroke" x="2.889697e+02"/><rect height="4.403436e+01" vector-effect="non-scaling-stroke" x="3.103030e+02" y="0" width="6.464646e+00"/><rect height="7.156957e+01" vector-effect="non-scaling-stroke" x="3.316364e+02" y="0" width="6.464646e+00"/><rect vector-effect="non-scaling-stroke" x="3.529697e+02" y="0" width="6.464646e+00" height="4.723968e+01"/><rect width="6.464646e+00" height="1.121467e+02" vector-effect="non-scaling-stroke" x="3.743030e+02" y="0"/><rect vector-effect="non-scaling-stroke" x="3.956364e+02" y="0" width="6.464646e+00" height="4.409585e+01"/><rect y="0" width="6.464646e+00" height="4.501693e+01" vector-effect="non-scaling-stroke" x="4.169697e+02"/><rect y="0" width="6.464646e+00" height="5.086528e+01" vector-effect="non-scaling-stroke" x="4.383030e+02"/><rect vector-effect="non-scaling-stroke" x="4.596364e+02" y="0" width="6.464646e+00" height="1.421085e+02"/><rect height="4.400029e+01" vector-effect="non-scaling-stroke" x="4.809697e+02" y="0" width="6.464646e+00"/><rect width="6.464646e+00" height="3.151057e+02" vector-effect="non-scaling-stroke" x="5.023030e+02" y="0"/></g><g transform="translate(80 520 )scale(1 -1 )" fill="hsl(49, 88%, 65%)" stroke="hsl(49, 88%, 65%)" stroke-width="1px" stroke-linecap="round" stroke-linejoin="round"><rect height="4.409084e+01" vector-effect="non-scaling-stroke" x="6.076768e+01" y="0" width="6.464646e+00"/><rect vector-effect="non-scaling-stroke" x="8.210101e+01" y="0" width="6.464646e+00" height="4.421116e+01"/><rect x="1.034343e+02" y="0" width="6.464646e+00" height="4.404346e+01" vector-effect="non-scaling-stroke"/><rect height="4.622662e+01" vector-effect="non-scaling-stroke" x="1.247677e+02" y="0" width="6.464646e+00"/><rect width="6.464646e+00" height="4.408438e+01" vector-effect="non-scaling-stroke" x="1.461010e+02" y="0"/><rect vector-effect="non-scaling-stroke" x="1.674343e+02" y="0" width="6.464646e+00" height="3.114004e+02"/><rect y="0" width="6.464646e+00" height="1.275011e+02" vector-effect="non-scaling-stroke" x="1.887677e+02"/><rect width="6.464646e+00" height="4.401625e+01" vector-effect="non-scaling-stroke" x="2.101010e+02" y="0"/><rect height="4.690768e+01" vector-effect="non-scaling-stroke" x="2.314343e+02" y="0" width="6.464646e+00"/><rect vector-effect="non-scaling-stroke" x="2.527677e+02" y="0" width="6.464646e+00" height="4.418291e+01"/><rect y="0" width="6.464646e+00" height="4.918509e+01" vector-effect="non-scaling-stroke" x="2.741010e+02"/><rect y="0" width="6.464646e+00" height="4.621178e+01" vector-effect="non-scaling-stroke" x="2.954343e+02"/><rect vector-effect="non-scaling-stroke" x="3.167677e+02" y="0" width="6.464646e+00" height="4.402768e+01"/><rect vector-effect="non-scaling-stroke" x="3.381010e+02" y="0" width="6.464646e+00" height="6.266067e+01"/><rect width="6.464646e+00" height="5.329766e+01" vector-effect="non-scaling-stroke" x="3.594343e+02" y="0"/><rect x="3.807677e+02" y="0" width="6.464646e+00" height="7.190325e+01" vector-effect="non-scaling-stroke"/><rect x="4.021010e+02" y="0" width="6.464646e+00" height="4.487092e+01" vector-effect="non-scaling-stroke"/><rect vector-effect="non-scaling-stroke" x="4.234343e+02" y="0" width="6.464646e+00" height="4.460063e+01"/><rect y="0" width="6.464646e+00" height="5.337299e+01" vector-effect="non-scaling-stroke" x="4.447677e+02"/><rect vector-effect="non-scaling-stroke" x="4.661010e+02" y="0" width="6.464646e+00" height="1.703957e+02"/><rect vector-effect="non-scaling-stroke" x="4.874343e+02" y="0" width="6.464646e+00" height="4.400014e+01"/></g><g stroke="hsl(260, 76%, 65%)" stroke-width="1px" stroke-linecap="round" stroke-linejoin="round" transform="translate(80 520 )scale(1 -1 )" fill="hsl(260, 76%, 65%)"><rect y="0" width="6.464646e+00" height="4.415516e+01" vector-effect="non-scaling-stroke" x="6.723232e+01"/><rect x="8.856566e+01" y="0" width="6.464646e+00" height="4.411581e+01" vector-effect="non-scaling-stroke"/><rect width="6.464646e+00" height="4.411762e+01" vector-effect="non-scaling-stroke" x="1.098990e+02" y="0"/></g><g font-weight="normal" dominant-baseline="hanging" stroke-linejoin="round" stroke-width="1px" font-style="normal" text-anchor="start" fill="hsl(198, 47%, 65%)" stroke="hsl(198, 47%, 65%)" font-family="sans-serif" stroke-linecap="round" font-size="12px"><rect width="12" height="12" vector-effect="non-scaling-stroke" x="736" y="466"/><g stroke="black" fill="black"><text stroke="none" vector-effect="non-scaling-stroke" x="752" y="466" dominant-baseline="hanging">Golang</text></g><g font-size="12px" text-anchor="start" stroke-width="1px" font-family="sans-serif" stroke-linecap="round" stroke-linejoin="round" font-style="normal" fill="hsl(49, 88%, 65%)" font-weight="normal" dominant-baseline="hanging" stroke="hsl(49, 88%, 65%)"><rect vector-effect="non-scaling-stroke" x="736" y="484" width="12" height="12"/><g stroke="black" fill="black"><text stroke="none" vector-effect="non-scaling-stroke" x="752" y="484" dominant-baseline="hanging">Rust</text></g><g fill="hsl(260, 76%, 65%)" font-family="sans-serif" dominant-baseline="hanging" stroke-linejoin="round" font-size="12px" font-style="normal" stroke="hsl(260, 76%, 65%)" font-weight="normal" text-anchor="start" stroke-width="1px" stroke-linecap="round"><rect height="12" vector-effect="non-scaling-stroke" x="736" y="502" width="12"/><g fill="black" stroke="black"><text stroke="none" vector-effect="non-scaling-stroke" x="752" y="502" dominant-baseline="hanging">Zig</text><g font-size="12px" font-family="sans-serif" font-style="normal" fill="none" stroke-width="2px" text-anchor="start" stroke-linecap="round" dominant-baseline="hanging" stroke-linejoin="round" font-weight="normal"><rect vector-effect="non-scaling-stroke" x="80" y="80" width="640" height="440"/></g><g stroke-linejoin="round" font-style="normal" text-anchor="start" stroke="black" font-weight="normal" dominant-baseline="hanging" transform="translate(80 520 )scale(1 -1 )" fill="none" stroke-width="2px" stroke-linecap="round" font-size="12px" font-family="sans-serif"><path d="M64,0 L64,-6 M8.533333e+01,0 L8.533333e+01,-6 M1.066667e+02,0 L1.066667e+02,-6 M128,0 L128,-6 M1.493333e+02,0 L1.493333e+02,-6 M1.706667e+02,0 L1.706667e+02,-6 M192,0 L192,-6 M2.133333e+02,0 L2.133333e+02,-6 M2.346667e+02,0 L2.346667e+02,-6 M256,0 L256,-6 M2.773333e+02,0 L2.773333e+02,-6 M2.986667e+02,0 L2.986667e+02,-6 M320,0 L320,-6 M3.413333e+02,0 L3.413333e+02,-6 M3.626667e+02,0 L3.626667e+02,-6 M384,0 L384,-6 M4.053333e+02,0 L4.053333e+02,-6 M4.266667e+02,0 L4.266667e+02,-6 M448,0 L448,-6 M4.693333e+02,0 L4.693333e+02,-6 M4.906667e+02,0 L4.906667e+02,-6 M512,0 L512,-6 " vector-effect="non-scaling-stroke"/></g><g font-weight="normal" transform="translate(80 520 )scale(1 1 )" stroke="black" font-family="sans-serif" stroke-linecap="round" font-size="12px" font-style="normal" text-anchor="middle" dominant-baseline="hanging" stroke-linejoin="round" fill="black" stroke-width="2px"><text y="10" dominant-baseline="hanging" stroke="none" vector-effect="non-scaling-stroke" x="64">1</text><text y="10" dominant-baseline="hanging" stroke="none" vector-effect="non-scaling-stroke" x="8.533333e+01">2</text><text x="1.066667e+02" y="10" dominant-baseline="hanging" stroke="none" vector-effect="non-scaling-stroke">3</text><text y="10" dominant-baseline="hanging" stroke="none" vector-effect="non-scaling-stroke" x="128">4</text><text stroke="none" vector-effect="non-scaling-stroke" x="1.493333e+02" y="10" dominant-baseline="hanging">5</text><text y="10" dominant-baseline="hanging" stroke="none" vector-effect="non-scaling-stroke" x="1.706667e+02">6</text><text x="192" y="10" dominant-baseline="hanging" stroke="none" vector-effect="non-scaling-stroke">7</text><text stroke="none" vector-effect="non-scaling-stroke" x="2.133333e+02" y="10" dominant-baseline="hanging">8</text><text stroke="none" vector-effect="non-scaling-stroke" x="2.346667e+02" y="10" dominant-baseline="hanging">9</text><text dominant-baseline="hanging" stroke="none" vector-effect="non-scaling-stroke" x="256" y="10">10</text><text vector-effect="non-scaling-stroke" x="2.773333e+02" y="10" dominant-baseline="hanging" stroke="none">11</text><text vector-effect="non-scaling-stroke" x="2.986667e+02" y="10" dominant-baseline="hanging" stroke="none">12</text><text dominant-baseline="hanging" stroke="none" vector-effect="non-scaling-stroke" x="320" y="10">13</text><text stroke="none" vector-effect="non-scaling-stroke" x="3.413333e+02" y="10" dominant-baseline="hanging">14</text><text y="10" dominant-baseline="hanging" stroke="none" vector-effect="non-scaling-stroke" x="3.626667e+02">15</text><text x="384" y="10" dominant-baseline="hanging" stroke="none" vector-effect="non-scaling-stroke">16</text><text y="10" dominant-baseline="hanging" stroke="none" vector-effect="non-scaling-stroke" x="4.053333e+02">17</text><text x="4.266667e+02" y="10" dominant-baseline="hanging" stroke="none" vector-effect="non-scaling-stroke">18</text><text dominant-baseline="hanging" stroke="none" vector-effect="non-scaling-stroke" x="448" y="10">19</text><text x="4.693333e+02" y="10" dominant-baseline="hanging" stroke="none" vector-effect="non-scaling-stroke">20</text><text vector-effect="non-scaling-stroke" x="4.906667e+02" y="10" dominant-baseline="hanging" stroke="none">21</text><text x="512" y="10" dominant-baseline="hanging" stroke="none" vector-effect="non-scaling-stroke">22</text></g><g font-family="sans-serif" font-weight="bold" dominant-baseline="baseline" fill="black" stroke-width="2px" stroke-linejoin="round" font-size="12px" stroke="black" font-style="normal" stroke-linecap="round" text-anchor="middle" transform="translate(80 520 )scale(1 1 )rotate(0 0 0 )"><text x="320" y="-6" dominant-baseline="baseline" stroke="none" vector-effect="non-scaling-stroke">Day</text></g><g fill="black" stroke-width="2px" stroke-linecap="round" stroke="black" font-family="sans-serif" dominant-baseline="baseline" transform="translate(80 520 )scale(1 -1 )" font-style="normal" font-weight="bold" text-anchor="middle" stroke-linejoin="round" font-size="12px"><path vector-effect="non-scaling-stroke" d="M0,44 L-6,44 M0,9.307912e+01 L-6,9.307912e+01 M0,1.421582e+02 L-6,1.421582e+02 M0,1.912374e+02 L-6,1.912374e+02 M0,2.403165e+02 L-6,2.403165e+02 M0,2.893956e+02 L-6,2.893956e+02 M0,3.384747e+02 L-6,3.384747e+02 M0,3.875538e+02 L-6,3.875538e+02 "/></g><g font-weight="normal" font-style="normal" text-anchor="end" fill="black" stroke-width="2px" stroke="black" font-family="sans-serif" dominant-baseline="middle" transform="translate(80 520 )scale(1 1 )" stroke-linecap="round" stroke-linejoin="round" font-size="12px"><text stroke="none" vector-effect="non-scaling-stroke" x="-10" y="-44" dominant-baseline="middle">0s</text><text x="-10" y="-9.307912e+01" dominant-baseline="middle" stroke="none" vector-effect="non-scaling-stroke">10ms</text><text x="-10" y="-1.421582e+02" dominant-baseline="middle" stroke="none" vector-effect="non-scaling-stroke">20ms</text><text stroke="none" vector-effect="non-scaling-stroke" x="-10" y="-1.912374e+02" dominant-baseline="middle">30ms</text><text dominant-baseline="middle" stroke="none" vector-effect="non-scaling-stroke" x="-10" y="-2.403165e+02">40ms</text><text x="-10" y="-2.893956e+02" dominant-baseline="middle" stroke="none" vector-effect="non-scaling-stroke">50ms</text><text dominant-baseline="middle" stroke="none" vector-effect="non-scaling-stroke" x="-10" y="-3.384747e+02">60ms</text><text y="-3.875538e+02" dominant-baseline="middle" stroke="none" vector-effect="non-scaling-stroke" x="-10">70ms</text></g><g stroke-width="2px" transform="translate(80 520 )scale(1 1 )rotate(-90 0 0 )" stroke="black" font-family="sans-serif" fill="black" stroke-linecap="round" stroke-linejoin="round" font-size="12px" font-style="normal" text-anchor="middle" font-weight="bold" dominant-baseline="hanging"><text y="6" dominant-baseline="hanging" stroke="none" vector-effect="non-scaling-stroke" x="220">Runtime</text></g></g></g></g></g></svg>