<svg height="600" viewbox="0 0 800 600" preserveAspectRatio="xMidYMid meet" xmlns="http://www.w3.org/2000/svg" width="800"><defs><marker refY="5" markerUnits="userSpaceOnUse" markerWidth="2%" markerHeight="2%" id="circle" viewBox="0 0 10 10 " refX="5"><circle cx="5" cy="5" r="3" fill="none" stroke="black"/></marker><marker markerHeight="2%" id="filled-circle" viewBox="0 0 10 10 " refX="5" refY="5" markerUnits="userSpaceOnUse" markerWidth="2%"><circle cx="5" cy="5" r="3" fill="black" stroke="none"/></marker><marker markerWidth="2%" markerHeight="2%" id="square" viewBox="0 0 10 10 " refX="5" refY="5" markerUnits="userSpaceOnUse"><rect y="2" width="6" height="6" fill="none" stroke="black" x="2"/></marker><marker refY="5" markerUnits="userSpaceOnUse" markerWidth="2%" markerHeight="2%" id="filled-square" viewBox="0 0 10 10 " refX="5"><rect height="6" fill="black" stroke="none" x="2" y="2" width="6"/></marker></defs><g stroke="hsl(198, 47%, 65%)" stroke-width="1px" stroke-linecap="round" stroke-linejoin="round" transform="translate(80 520 )scale(1 -1 )" fill="hsl(198, 47%, 65%)"><rect x="3.733333e+01" y="0" width="1.777778e+01" height="4.410760e+01" vector-effect="non-scaling-stroke"/><rect height="1.357531e+02" vector-effect="non-scaling-stroke" x="8.387879e+01" y="0" width="1.777778e+01"/><rect vector-effect="non-scaling-stroke" x="1.304242e+02" y="0" width="1.777778e+01" height="4.456632e+01"/><rect vector-effect="non-scaling-stroke" x="1.769697e+02" y="0" width="1.777778e+01" height="6.681151e+01"/><rect vector-effect="non-scaling-stroke" x="2.235152e+02" y="0" width="1.777778e+01" height="4.442906e+01"/><rect height="4.419161e+01" vector-effect="non-scaling-stroke" x="2.700606e+02" y="0" width="1.777778e+01"/><rect x="3.166061e+02" y="0" width="1.777778e+01" height="4.404994e+01" vector-effect="non-scaling-stroke"/><rect width="1.777778e+01" height="396" vector-effect="non-scaling-stroke" x="3.631515e+02" y="0"/></g><g stroke-linecap="round" stroke-linejoin="round" transform="translate(80 520 )scale(1 -1 )" fill="hsl(49, 88%, 65%)" stroke="hsl(49, 88%, 65%)" stroke-width="1px"><rect height="4.405445e+01" vector-effect="non-scaling-stroke" x="5.511111e+01" y="0" width="1.777778e+01"/><rect y="0" width="1.777778e+01" height="1.621897e+02" vector-effect="non-scaling-stroke" x="1.016566e+02"/><rect vector-effect="non-scaling-stroke" x="1.482020e+02" y="0" width="1.777778e+01" height="4.434206e+01"/><rect width="1.777778e+01" height="4.642057e+01" vector-effect="non-scaling-stroke" x="1.947475e+02" y="0"/><rect height="4.476679e+01" vector-effect="non-scaling-stroke" x="2.412929e+02" y="0" width="1.777778e+01"/><rect vector-effect="non-scaling-stroke" x="2.878384e+02" y="0" width="1.777778e+01" height="4.413790e+01"/><rect vector-effect="non-scaling-stroke" x="3.343838e+02" y="0" width="1.777778e+01" height="4.406232e+01"/></g><g fill="hsl(260, 76%, 65%)" stroke="hsl(260, 76%, 65%)" stroke-width="1px" stroke-linecap="round" stroke-linejoin="round" transform="translate(80 520 )scale(1 -1 )"><rect y="0" width="1.777778e+01" height="4.405652e+01" vector-effect="non-scaling-stroke" x="7.288889e+01"/><rect vector-effect="non-scaling-stroke" x="1.194343e+02" y="0" width="1.777778e+01" height="1.003720e+02"/><rect vector-effect="non-scaling-stroke" x="1.659798e+02" y="0" width="1.777778e+01" height="4.423564e+01"/><rect vector-effect="non-scaling-stroke" x="2.125253e+02" y="0" width="1.777778e+01" height="4.678042e+01"/><rect y="0" width="1.777778e+01" height="4.437231e+01" vector-effect="non-scaling-stroke" x="2.590707e+02"/><rect width="1.777778e+01" height="4.410825e+01" vector-effect="non-scaling-stroke" x="3.056162e+02" y="0"/><rect vector-effect="non-scaling-stroke" x="3.521616e+02" y="0" width="1.777778e+01" height="4.404004e+01"/></g><g font-style="normal" text-anchor="start" stroke-linejoin="round" font-family="sans-serif" font-size="12px" dominant-baseline="hanging" fill="hsl(198, 47%, 65%)" stroke-width="1px" font-weight="normal" stroke="hsl(198, 47%, 65%)" stroke-linecap="round"><rect width="12" height="12" vector-effect="non-scaling-stroke" x="736" y="466"/><g fill="black" stroke="black"><text vector-effect="non-scaling-stroke" x="752" y="466" dominant-baseline="hanging" stroke="none">Golang</text></g><g stroke-linecap="round" font-family="sans-serif" font-size="12px" stroke-width="1px" font-weight="normal" stroke-linejoin="round" dominant-baseline="hanging" fill="hsl(49, 88%, 65%)" font-style="normal" text-anchor="start" stroke="hsl(49, 88%, 65%)"><rect vector-effect="non-scaling-stroke" x="736" y="484" width="12" height="12"/><g fill="black" stroke="black"><text stroke="none" vector-effect="non-scaling-stroke" x="752" y="484" dominant-baseline="hanging">Rust</text></g><g font-family="sans-serif" font-size="12px" dominant-baseline="hanging" fill="hsl(260, 76%, 65%)" stroke-width="1px" font-style="normal" stroke-linecap="round" font-weight="normal" text-anchor="start" stroke="hsl(260, 76%, 65%)" stroke-linejoin="round"><rect height="12" vector-effect="non-scaling-stroke" x="736" y="502" width="12"/><g fill="black" stroke="black"><text x="752" y="502" dominant-baseline="hanging" stroke="none" vector-effect="non-scaling-stroke">Zig</text><g stroke-width="2px" text-anchor="start" stroke-linejoin="round" font-size="12px" font-weight="normal" stroke-linecap="round" dominant-baseline="hanging" font-family="sans-serif" fill="none" font-style="normal"><rect height="440" vector-effect="non-scaling-stroke" x="80" y="80" width="640"/></g><g font-weight="normal" stroke-linecap="round" stroke-linejoin="round" font-size="12px" transform="translate(80 520 )scale(1 -1 )" fill="none" stroke-width="2px" font-style="normal" text-anchor="start" stroke="black" font-family="sans-serif" dominant-baseline="hanging"><path d="M64,0 L64,-6 M1.105455e+02,0 L1.105455e+02,-6 M1.570909e+02,0 L1.570909e+02,-6 M2.036364e+02,0 L2.036364e+02,-6 M2.501818e+02,0 L2.501818e+02,-6 M2.967273e+02,0 L2.967273e+02,-6 M3.432727e+02,0 L3.432727e+02,-6 M3.898182e+02,0 L3.898182e+02,-6 " vector-effect="non-scaling-stroke"/></g><g stroke-linecap="round" font-size="12px" fill="black" font-style="normal" font-weight="normal" stroke="black" stroke-linejoin="round" font-family="sans-serif" dominant-baseline="hanging" transform="translate(80 520 )scale(1 1 )" stroke-width="2px" text-anchor="middle"><text stroke="none" vector-effect="non-scaling-stroke" x="64" y="10" dominant-baseline="hanging">1</text><text x="1.105455e+02" y="10" dominant-baseline="hanging" stroke="none" vector-effect="non-scaling-stroke">2</text><text x="1.570909e+02" y="10" dominant-baseline="hanging" stroke="none" vector-effect="non-scaling-stroke">3</text><text y="10" dominant-baseline="hanging" stroke="none" vector-effect="non-scaling-stroke" x="2.036364e+02">4</text><text y="10" dominant-baseline="hanging" stroke="none" vector-effect="non-scaling-stroke" x="2.501818e+02">5</text><text vector-effect="non-scaling-stroke" x="2.967273e+02" y="10" dominant-baseline="hanging" stroke="none">6</text><text stroke="none" vector-effect="non-scaling-stroke" x="3.432727e+02" y="10" dominant-baseline="hanging">7</text><text x="3.898182e+02" y="10" dominant-baseline="hanging" stroke="none" vector-effect="non-scaling-stroke">8</text></g><g font-size="12px" dominant-baseline="baseline" transform="translate(80 520 )scale(1 1 )rotate(0 0 0 )" stroke-width="2px" font-style="normal" stroke="black" font-family="sans-serif" fill="black" font-weight="bold" text-anchor="middle" stroke-linecap="round" stroke-linejoin="round"><text stroke="none" vector-effect="non-scaling-stroke" x="320" y="-6" dominant-baseline="baseline">Day</text></g><g stroke-linejoin="round" font-family="sans-serif" font-size="12px" transform="translate(80 520 )scale(1 -1 )" stroke="black" dominant-baseline="baseline" fill="black" stroke-width="2px" font-style="normal" font-weight="bold" text-anchor="middle" stroke-linecap="round"><path vector-effect="non-scaling-stroke" d="M0,44 L-6,44 M0,9.977477e+01 L-6,9.977477e+01 M0,1.555495e+02 L-6,1.555495e+02 M0,2.113243e+02 L-6,2.113243e+02 M0,2.670991e+02 L-6,2.670991e+02 M0,3.228738e+02 L-6,3.228738e+02 M0,3.786486e+02 L-6,3.786486e+02 "/></g><g fill="black" font-style="normal" text-anchor="end" stroke="black" font-family="sans-serif" dominant-baseline="middle" stroke-width="2px" font-weight="normal" stroke-linecap="round" stroke-linejoin="round" font-size="12px" transform="translate(80 520 )scale(1 1 )"><text x="-10" y="-44" dominant-baseline="middle" stroke="none" vector-effect="non-scaling-stroke">0s</text><text vector-effect="non-scaling-stroke" x="-10" y="-9.977477e+01" dominant-baseline="middle" stroke="none">10ms</text><text stroke="none" vector-effect="non-scaling-stroke" x="-10" y="-1.555495e+02" dominant-baseline="middle">20ms</text><text x="-10" y="-2.113243e+02" dominant-baseline="middle" stroke="none" vector-effect="non-scaling-stroke">30ms</text><text y="-2.670991e+02" dominant-baseline="middle" stroke="none" vector-effect="non-scaling-stroke" x="-10">40ms</text><text stroke="none" vector-effect="non-scaling-stroke" x="-10" y="-3.228738e+02" dominant-baseline="middle">50ms</text><text y="-3.786486e+02" dominant-baseline="middle" stroke="none" vector-effect="non-scaling-stroke" x="-10">60ms</text></g><g fill="black" stroke-width="2px" font-weight="bold" stroke-linecap="round" stroke-linejoin="round" transform="translate(80 520 )scale(1 1 )rotate(-90 0 0 )" font-style="normal" text-anchor="middle" stroke="black" font-family="sans-serif" font-size="12px" dominant-baseline="hanging"><text vector-effect="non-scaling-stroke" x="220" y="6" dominant-baseline="hanging" stroke="none">Runtime</text></g></g></g></g></g></svg>