<svg height="600" viewbox="0 0 800 600" preserveAspectRatio="xMidYMid meet" xmlns="http://www.w3.org/2000/svg" width="800"><defs><marker refX="5" refY="5" markerUnits="userSpaceOnUse" markerWidth="2%" markerHeight="2%" id="circle" viewBox="0 0 10 10 "><circle cx="5" cy="5" r="3" fill="none" stroke="black"/></marker><marker id="filled-circle" viewBox="0 0 10 10 " refX="5" refY="5" markerUnits="userSpaceOnUse" markerWidth="2%" markerHeight="2%"><circle cx="5" cy="5" r="3" fill="black" stroke="none"/></marker><marker id="square" viewBox="0 0 10 10 " refX="5" refY="5" markerUnits="userSpaceOnUse" markerWidth="2%" markerHeight="2%"><rect x="2" y="2" width="6" height="6" fill="none" stroke="black"/></marker><marker refY="5" markerUnits="userSpaceOnUse" markerWidth="2%" markerHeight="2%" id="filled-square" viewBox="0 0 10 10 " refX="5"><rect x="2" y="2" width="6" height="6" fill="black" stroke="none"/></marker></defs><g fill="hsl(198, 47%, 65%)" stroke="hsl(198, 47%, 65%)" stroke-width="1px" stroke-linecap="round" stroke-linejoin="round" transform="translate(80 520 )scale(1 -1 )"><rect vector-effect="non-scaling-stroke" x="4.266667e+01" y="0" width="1.422222e+01" height="4.403267e+01"/><rect vector-effect="non-scaling-stroke" x="64" y="0" width="1.422222e+01" height="4.400104e+01"/><rect vector-effect="non-scaling-stroke" x="8.533333e+01" y="0" width="1.422222e+01" height="4.400471e+01"/><rect y="0" width="1.422222e+01" height="4.400597e+01" vector-effect="non-scaling-stroke" x="1.066667e+02"/><rect width="1.422222e+01" height="7.832963e+02" vector-effect="non-scaling-stroke" x="1.280000e+02" y="0"/><rect width="1.422222e+01" height="4.400002e+01" vector-effect="non-scaling-stroke" x="1.493333e+02" y="0"/><rect y="0" width="1.422222e+01" height="4.406514e+01" vector-effect="non-scaling-stroke" x="1.706667e+02"/><rect y="0" width="1.422222e+01" height="4.417566e+01" vector-effect="non-scaling-stroke" x="192"/><rect x="2.133333e+02" y="0" width="1.422222e+01" height="4.401569e+01" vector-effect="non-scaling-stroke"/><rect vector-effect="non-scaling-stroke" x="2.346667e+02" y="0" width="1.422222e+01" height="4.421617e+01"/></g><g fill="hsl(49, 88%, 65%)" stroke="hsl(49, 88%, 65%)" stroke-width="1px" stroke-linecap="round" stroke-linejoin="round" transform="translate(80 520 )scale(1 -1 )"><rect y="0" width="1.422222e+01" height="4.401633e+01" vector-effect="non-scaling-stroke" x="5.688889e+01"/><rect y="0" width="1.422222e+01" height="4.400042e+01" vector-effect="non-scaling-stroke" x="7.822222e+01"/><rect height="4.400305e+01" vector-effect="non-scaling-stroke" x="9.955556e+01" y="0" width="1.422222e+01"/><rect vector-effect="non-scaling-stroke" x="1.208889e+02" y="0" width="1.422222e+01" height="4.400333e+01"/><rect x="1.422222e+02" y="0" width="1.422222e+01" height="4.400195e+01" vector-effect="non-scaling-stroke"/><rect y="0" width="1.422222e+01" height="4.400002e+01" vector-effect="non-scaling-stroke" x="1.635556e+02"/><rect vector-effect="non-scaling-stroke" x="2.062222e+02" y="0" width="1.422222e+01" height="4.449101e+01"/><rect width="1.422222e+01" height="4.400863e+01" vector-effect="non-scaling-stroke" x="2.275556e+02" y="0"/></g><g stroke-width="1px" stroke-linecap="round" stroke-linejoin="round" transform="translate(80 520 )scale(1 -1 )" fill="hsl(260, 76%, 65%)" stroke="hsl(260, 76%, 65%)"><rect y="0" width="1.422222e+01" height="4.401287e+01" vector-effect="non-scaling-stroke" x="7.111111e+01"/><rect y="0" width="1.422222e+01" height="4.400046e+01" vector-effect="non-scaling-stroke" x="9.244444e+01"/><rect width="1.422222e+01" height="4.400241e+01" vector-effect="non-scaling-stroke" x="1.137778e+02" y="0"/><rect y="0" width="1.422222e+01" height="4.400937e+01" vector-effect="non-scaling-stroke" x="1.351111e+02"/><rect width="1.422222e+01" height="4.434469e+01" vector-effect="non-scaling-stroke" x="1.564444e+02" y="0"/><rect height="4.400002e+01" vector-effect="non-scaling-stroke" x="1.777778e+02" y="0" width="1.422222e+01"/><rect width="1.422222e+01" height="4.403870e+01" vector-effect="non-scaling-stroke" x="2.204444e+02" y="0"/><rect vector-effect="non-scaling-stroke" x="2.417778e+02" y="0" width="1.422222e+01" height="4.400895e+01"/></g><g font-family="sans-serif" font-style="normal" dominant-baseline="hanging" stroke-linejoin="round" fill="hsl(198, 47%, 65%)" font-size="12px" font-weight="normal" stroke-linecap="round" text-anchor="start" stroke="hsl(198, 47%, 65%)" stroke-width="1px"><rect x="736" y="466" width="12" height="12" vector-effect="non-scaling-stroke"/><g fill="black" stroke="black"><text stroke="none" vector-effect="non-scaling-stroke" x="752" y="466" dominant-baseline="hanging">Golang</text></g><g stroke-linecap="round" font-family="sans-serif" stroke-linejoin="round" font-size="12px" text-anchor="start" dominant-baseline="hanging" fill="hsl(49, 88%, 65%)" font-style="normal" stroke="hsl(49, 88%, 65%)" stroke-width="1px" font-weight="normal"><rect x="736" y="484" width="12" height="12" vector-effect="non-scaling-stroke"/><g stroke="black" fill="black"><text x="752" y="484" dominant-baseline="hanging" stroke="none" vector-effect="non-scaling-stroke">Rust</text></g><g fill="hsl(260, 76%, 65%)" stroke="hsl(260, 76%, 65%)" stroke-width="1px" stroke-linecap="round" font-family="sans-serif" font-style="normal" stroke-linejoin="round" font-size="12px" font-weight="normal" text-anchor="start" dominant-baseline="hanging"><rect vector-effect="non-scaling-stroke" x="736" y="502" width="12" height="12"/><g fill="black" stroke="black"><text y="502" dominant-baseline="hanging" stroke="none" vector-effect="non-scaling-stroke" x="752">Zig</text><g font-weight="normal" dominant-baseline="hanging" fill="none" stroke-linecap="round" font-family="sans-serif" font-size="12px" text-anchor="start" font-style="normal" stroke-width="2px" stroke-linejoin="round"><rect y="80" width="640" height="440" vector-effect="non-scaling-stroke" x="80"/></g><g font-size="12px" font-weight="normal" text-anchor="start" dominant-baseline="hanging" transform="translate(80 520 )scale(1 -1 )" stroke="black" stroke-linecap="round" font-family="sans-serif" font-style="normal" stroke-width="2px" stroke-linejoin="round" fill="none"><path vector-effect="non-scaling-stroke" d="M64,0 L64,-6 M8.533333e+01,0 L8.533333e+01,-6 M1.066667e+02,0 L1.066667e+02,-6 M128,0 L128,-6 M1.493333e+02,0 L1.493333e+02,-6 M1.706667e+02,0 L1.706667e+02,-6 M192,0 L192,-6 M2.133333e+02,0 L2.133333e+02,-6 M2.346667e+02,0 L2.346667e+02,-6 M256,0 L256,-6 "/></g><g stroke-width="2px" font-size="12px" text-anchor="middle" fill="black" dominant-baseline="hanging" font-style="normal" transform="translate(80 520 )scale(1 1 )" stroke="black" stroke-linejoin="round" font-weight="normal" stroke-linecap="round" font-family="sans-serif"><text x="64" y="10" dominant-baseline="hanging" stroke="none" vector-effect="non-scaling-stroke">1</text><text dominant-baseline="hanging" stroke="none" vector-effect="non-scaling-stroke" x="8.533333e+01" y="10">2</text><text stroke="none" vector-effect="non-scaling-stroke" x="1.066667e+02" y="10" dominant-baseline="hanging">3</text><text x="128" y="10" dominant-baseline="hanging" stroke="none" vector-effect="non-scaling-stroke">4</text><text y="10" dominant-baseline="hanging" stroke="none" vector-effect="non-scaling-stroke" x="1.493333e+02">5</text><text stroke="none" vector-effect="non-scaling-stroke" x="1.706667e+02" y="10" dominant-baseline="hanging">6</text><text x="192" y="10" dominant-baseline="hanging" stroke="none" vector-effect="non-scaling-stroke">7</text><text dominant-baseline="hanging" stroke="none" vector-effect="non-scaling-stroke" x="2.133333e+02" y="10">8</text><text stroke="none" vector-effect="non-scaling-stroke" x="2.346667e+02" y="10" dominant-baseline="hanging">9</text><text vector-effect="non-scaling-stroke" x="256" y="10" dominant-baseline="hanging" stroke="none">10</text></g><g text-anchor="middle" dominant-baseline="baseline" fill="black" stroke-linecap="round" stroke="black" stroke-linejoin="round" font-weight="bold" font-family="sans-serif" font-style="normal" stroke-width="2px" font-size="12px" transform="translate(80 520 )scale(1 1 )rotate(0 0 0 )"><text stroke="none" vector-effect="non-scaling-stroke" x="320" y="-6" dominant-baseline="baseline">Day</text></g><g font-weight="bold" stroke-linecap="round" font-family="sans-serif" stroke-width="2px" stroke-linejoin="round" font-size="12px" text-anchor="middle" dominant-baseline="baseline" transform="translate(80 520 )scale(1 -1 )" fill="black" font-style="normal" stroke="black"><path vector-effect="non-scaling-stroke" d="M0,44 L-6,44 M0,7.920000e+01 L-6,7.920000e+01 M0,1.144000e+02 L-6,1.144000e+02 M0,1.496000e+02 L-6,1.496000e+02 M0,1.848000e+02 L-6,1.848000e+02 M0,220 L-6,220 M0,2.552000e+02 L-6,2.552000e+02 M0,2.904000e+02 L-6,2.904000e+02 M0,3.256000e+02 L-6,3.256000e+02 M0,3.608000e+02 L-6,3.608000e+02 M0,396 L-6,396 "/></g><g stroke-linejoin="round" font-weight="normal" fill="black" font-family="sans-serif" dominant-baseline="middle" stroke="black" stroke-width="2px" font-size="12px" text-anchor="end" stroke-linecap="round" font-style="normal" transform="translate(80 520 )scale(1 1 )"><text stroke="none" vector-effect="non-scaling-stroke" x="-10" y="-44" dominant-baseline="middle">0s</text><text x="-10" y="-7.920000e+01" dominant-baseline="middle" stroke="none" vector-effect="non-scaling-stroke">200ms</text><text y="-1.144000e+02" dominant-baseline="middle" stroke="none" vector-effect="non-scaling-stroke" x="-10">400ms</text><text dominant-baseline="middle" stroke="none" vector-effect="non-scaling-stroke" x="-10" y="-1.496000e+02">600ms</text><text stroke="none" vector-effect="non-scaling-stroke" x="-10" y="-1.848000e+02" dominant-baseline="middle">800ms</text><text vector-effect="non-scaling-stroke" x="-10" y="-220" dominant-baseline="middle" stroke="none">1s</text><text dominant-baseline="middle" stroke="none" vector-effect="non-scaling-stroke" x="-10" y="-2.552000e+02">1.2s</text><text x="-10" y="-2.904000e+02" dominant-baseline="middle" stroke="none" vector-effect="non-scaling-stroke">1.4s</text><text dominant-baseline="middle" stroke="none" vector-effect="non-scaling-stroke" x="-10" y="-3.256000e+02">1.6s</text><text vector-effect="non-scaling-stroke" x="-10" y="-3.608000e+02" dominant-baseline="middle" stroke="none">1.8s</text><text y="-396" dominant-baseline="middle" stroke="none" vector-effect="non-scaling-stroke" x="-10">2s</text></g><g stroke-linecap="round" font-style="normal" stroke="black" font-weight="bold" text-anchor="middle" font-size="12px" dominant-baseline="hanging" fill="black" font-family="sans-serif" transform="translate(80 520 )scale(1 1 )rotate(-90 0 0 )" stroke-width="2px" stroke-linejoin="round"><text dominant-baseline="hanging" stroke="none" vector-effect="non-scaling-stroke" x="220" y="6">Runtime</text></g></g></g></g></g></svg>