<svg viewbox="0 0 800 600" preserveAspectRatio="xMidYMid meet" xmlns="http://www.w3.org/2000/svg" width="800" height="600"><defs><marker markerHeight="2%" id="circle" viewBox="0 0 10 10 " refX="5" refY="5" markerUnits="userSpaceOnUse" markerWidth="2%"><circle r="3" fill="none" stroke="black" cx="5" cy="5"/></marker><marker markerWidth="2%" markerHeight="2%" id="filled-circle" viewBox="0 0 10 10 " refX="5" refY="5" markerUnits="userSpaceOnUse"><circle fill="black" stroke="none" cx="5" cy="5" r="3"/></marker><marker viewBox="0 0 10 10 " refX="5" refY="5" markerUnits="userSpaceOnUse" markerWidth="2%" markerHeight="2%" id="square"><rect x="2" y="2" width="6" height="6" fill="none" stroke="black"/></marker><marker refX="5" refY="5" markerUnits="userSpaceOnUse" markerWidth="2%" markerHeight="2%" id="filled-square" viewBox="0 0 10 10 "><rect y="2" width="6" height="6" fill="black" stroke="none" x="2"/></marker></defs><g stroke-width="1px" stroke-linecap="round" stroke-linejoin="round" transform="translate(80 520 )scale(1 -1 )" fill="hsl(198, 47%, 65%)" stroke="hsl(198, 47%, 65%)"><rect height="4.401252e+01" vector-effect="non-scaling-stroke" x="5.546667e+01" y="0" width="8.533333e+00"/><rect x="7.680000e+01" y="0" width="8.533333e+00" height="4.400346e+01" vector-effect="non-scaling-stroke"/><rect height="4.403669e+01" vector-effect="non-scaling-stroke" x="9.813333e+01" y="0" width="8.533333e+00"/><rect vector-effect="non-scaling-stroke" x="1.194667e+02" y="0" width="8.533333e+00" height="4.401376e+01"/><rect vector-effect="non-scaling-stroke" x="1.408000e+02" y="0" width="8.533333e+00" height="4.400930e+01"/><rect height="4.402315e+01" vector-effect="non-scaling-stroke" x="1.621333e+02" y="0" width="8.533333e+00"/><rect width="8.533333e+00" height="4.402151e+01" vector-effect="non-scaling-stroke" x="1.834667e+02" y="0"/><rect height="4.448941e+01" vector-effect="non-scaling-stroke" x="2.048000e+02" y="0" width="8.533333e+00"/><rect vector-effect="non-scaling-stroke" x="2.261333e+02" y="0" width="8.533333e+00" height="4.428613e+01"/><rect vector-effect="non-scaling-stroke" x="2.474667e+02" y="0" width="8.533333e+00" height="4.400117e+01"/><rect vector-effect="non-scaling-stroke" x="2.688000e+02" y="0" width="8.533333e+00" height="5.418060e+01"/><rect height="4.441195e+01" vector-effect="non-scaling-stroke" x="2.901333e+02" y="0" width="8.533333e+00"/><rect y="0" width="8.533333e+00" height="4.459405e+01" vector-effect="non-scaling-stroke" x="3.114667e+02"/><rect x="3.328000e+02" y="0" width="8.533333e+00" height="4.861341e+01" vector-effect="non-scaling-stroke"/><rect x="3.541333e+02" y="0" width="8.533333e+00" height="4.400407e+01" vector-effect="non-scaling-stroke"/><rect y="0" width="8.533333e+00" height="2.491492e+02" vector-effect="non-scaling-stroke" x="3.754667e+02"/><rect vector-effect="non-scaling-stroke" x="3.968000e+02" y="0" width="8.533333e+00" height="4.435469e+01"/><rect height="4.413772e+01" vector-effect="non-scaling-stroke" x="4.181333e+02" y="0" width="8.533333e+00"/><rect y="0" width="8.533333e+00" height="1.701414e+02" vector-effect="non-scaling-stroke" x="4.394667e+02"/><rect vector-effect="non-scaling-stroke" x="4.608000e+02" y="0" width="8.533333e+00" height="8.130208e+01"/><rect vector-effect="non-scaling-stroke" x="4.821333e+02" y="0" width="8.533333e+00" height="4.429090e+01"/><rect height="4.464604e+01" vector-effect="non-scaling-stroke" x="5.034667e+02" y="0" width="8.533333e+00"/><rect height="2.191183e+02" vector-effect="non-scaling-stroke" x="5.248000e+02" y="0" width="8.533333e+00"/><rect vector-effect="non-scaling-stroke" x="5.461333e+02" y="0" width="8.533333e+00" height="1.344676e+02"/><rect x="5.674667e+02" y="0" width="8.533333e+00" height="4.400215e+01" vector-effect="non-scaling-stroke"/></g><g transform="translate(80 520 )scale(1 -1 )" fill="hsl(49, 88%, 65%)" stroke="hsl(49, 88%, 65%)" stroke-width="1px" stroke-linecap="round" stroke-linejoin="round"><rect height="4.400535e+01" vector-effect="non-scaling-stroke" x="64" y="0" width="8.533333e+00"/><rect vector-effect="non-scaling-stroke" x="8.533333e+01" y="0" width="8.533333e+00" height="4.400078e+01"/><rect vector-effect="non-scaling-stroke" x="1.066667e+02" y="0" width="8.533333e+00" height="4.402708e+01"/><rect y="0" width="8.533333e+00" height="4.400924e+01" vector-effect="non-scaling-stroke" x="128"/><rect y="0" width="8.533333e+00" height="4.400714e+01" vector-effect="non-scaling-stroke" x="1.493333e+02"/><rect vector-effect="non-scaling-stroke" x="1.706667e+02" y="0" width="8.533333e+00" height="4.401369e+01"/><rect y="0" width="8.533333e+00" height="4.401601e+01" vector-effect="non-scaling-stroke" x="192"/><rect height="4.446634e+01" vector-effect="non-scaling-stroke" x="2.133333e+02" y="0" width="8.533333e+00"/><rect width="8.533333e+00" height="4.427852e+01" vector-effect="non-scaling-stroke" x="2.346667e+02" y="0"/><rect y="0" width="8.533333e+00" height="4.400086e+01" vector-effect="non-scaling-stroke" x="2.560000e+02"/><rect x="2.773333e+02" y="0" width="8.533333e+00" height="4.779104e+01" vector-effect="non-scaling-stroke"/><rect x="2.986667e+02" y="0" width="8.533333e+00" height="4.422765e+01" vector-effect="non-scaling-stroke"/><rect y="0" width="8.533333e+00" height="4.449239e+01" vector-effect="non-scaling-stroke" x="320"/><rect vector-effect="non-scaling-stroke" x="3.413333e+02" y="0" width="8.533333e+00" height="4.872338e+01"/><rect x="3.626667e+02" y="0" width="8.533333e+00" height="4.400154e+01" vector-effect="non-scaling-stroke"/><rect height="396" vector-effect="non-scaling-stroke" x="384" y="0" width="8.533333e+00"/><rect height="4.423797e+01" vector-effect="non-scaling-stroke" x="4.053333e+02" y="0" width="8.533333e+00"/><rect height="4.415990e+01" vector-effect="non-scaling-stroke" x="4.266667e+02" y="0" width="8.533333e+00"/><rect vector-effect="non-scaling-stroke" x="448" y="0" width="8.533333e+00" height="9.022453e+01"/><rect width="8.533333e+00" height="7.138520e+01" vector-effect="non-scaling-stroke" x="4.693333e+02" y="0"/><rect width="8.533333e+00" height="4.431995e+01" vector-effect="non-scaling-stroke" x="4.906667e+02" y="0"/><rect vector-effect="non-scaling-stroke" x="512" y="0" width="8.533333e+00" height="4.446958e+01"/><rect height="2.177979e+02" vector-effect="non-scaling-stroke" x="5.333333e+02" y="0" width="8.533333e+00"/><rect y="0" width="8.533333e+00" height="2.339950e+02" vector-effect="non-scaling-stroke" x="5.546667e+02"/><rect width="8.533333e+00" height="4.400496e+01" vector-effect="non-scaling-stroke" x="576" y="0"/></g><g font-family="sans-serif" stroke-width="1px" stroke-linejoin="round" text-anchor="start" stroke="hsl(198, 47%, 65%)" dominant-baseline="hanging" stroke-linecap="round" font-style="normal" font-weight="normal" fill="hsl(198, 47%, 65%)" font-size="12px"><rect y="484" width="12" height="12" vector-effect="non-scaling-stroke" x="736"/><g fill="black" stroke="black"><text vector-effect="non-scaling-stroke" x="752" y="484" dominant-baseline="hanging" stroke="none">Golang</text></g><g fill="hsl(49, 88%, 65%)" font-style="normal" text-anchor="start" stroke-linecap="round" font-size="12px" stroke="hsl(49, 88%, 65%)" stroke-width="1px" stroke-linejoin="round" font-weight="normal" font-family="sans-serif" dominant-baseline="hanging"><rect x="736" y="502" width="12" height="12" vector-effect="non-scaling-stroke"/><g fill="black" stroke="black"><text stroke="none" vector-effect="non-scaling-stroke" x="752" y="502" dominant-baseline="hanging">Rust</text><g stroke-width="2px" dominant-baseline="hanging" font-size="12px" font-style="normal" font-weight="normal" stroke-linecap="round" fill="none" font-family="sans-serif" text-anchor="start" stroke-linejoin="round"><rect x="80" y="80" width="640" height="440" vector-effect="non-scaling-stroke"/></g><g stroke-width="2px" stroke-linejoin="round" font-weight="normal" stroke-linecap="round" dominant-baseline="hanging" transform="translate(80 520 )scale(1 -1 )" fill="none" stroke="black" font-family="sans-serif" font-size="12px" text-anchor="start" font-style="normal"><path vector-effect="non-scaling-stroke" d="M64,0 L64,-6 M8.533333e+01,0 L8.533333e+01,-6 M1.066667e+02,0 L1.066667e+02,-6 M128,0 L128,-6 M1.493333e+02,0 L1.493333e+02,-6 M1.706667e+02,0 L1.706667e+02,-6 M192,0 L192,-6 M2.133333e+02,0 L2.133333e+02,-6 M2.346667e+02,0 L2.346667e+02,-6 M256,0 L256,-6 M2.773333e+02,0 L2.773333e+02,-6 M2.986667e+02,0 L2.986667e+02,-6 M320,0 L320,-6 M3.413333e+02,0 L3.413333e+02,-6 M3.626667e+02,0 L3.626667e+02,-6 M384,0 L384,-6 M4.053333e+02,0 L4.053333e+02,-6 M4.266667e+02,0 L4.266667e+02,-6 M448,0 L448,-6 M4.693333e+02,0 L4.693333e+02,-6 M4.906667e+02,0 L4.906667e+02,-6 M512,0 L512,-6 M5.333333e+02,0 L5.333333e+02,-6 M5.546667e+02,0 L5.546667e+02,-6 M576,0 L576,-6 "/></g><g dominant-baseline="hanging" stroke="black" stroke-linejoin="round" font-weight="normal" text-anchor="middle" stroke-linecap="round" font-size="12px" transform="translate(80 520 )scale(1 1 )" fill="black" stroke-width="2px" font-style="normal" font-family="sans-serif"><text x="64" y="10" dominant-baseline="hanging" stroke="none" vector-effect="non-scaling-stroke">1</text><text stroke="none" vector-effect="non-scaling-stroke" x="8.533333e+01" y="10" dominant-baseline="hanging">2</text><text y="10" dominant-baseline="hanging" stroke="none" vector-effect="non-scaling-stroke" x="1.066667e+02">3</text><text y="10" dominant-baseline="hanging" stroke="none" vector-effect="non-scaling-stroke" x="128">4</text><text y="10" dominant-baseline="hanging" stroke="none" vector-effect="non-scaling-stroke" x="1.493333e+02">5</text><text dominant-baseline="hanging" stroke="none" vector-effect="non-scaling-stroke" x="1.706667e+02" y="10">6</text><text stroke="none" vector-effect="non-scaling-stroke" x="192" y="10" dominant-baseline="hanging">7</text><text dominant-baseline="hanging" stroke="none" vector-effect="non-scaling-stroke" x="2.133333e+02" y="10">8</text><text dominant-baseline="hanging" stroke="none" vector-effect="non-scaling-stroke" x="2.346667e+02" y="10">9</text><text stroke="none" vector-effect="non-scaling-stroke" x="256" y="10" dominant-baseline="hanging">10</text><text stroke="none" vector-effect="non-scaling-stroke" x="2.773333e+02" y="10" dominant-baseline="hanging">11</text><text stroke="none" vector-effect="non-scaling-stroke" x="2.986667e+02" y="10" dominant-baseline="hanging">12</text><text stroke="none" vector-effect="non-scaling-stroke" x="320" y="10" dominant-baseline="hanging">13</text><text stroke="none" vector-effect="non-scaling-stroke" x="3.413333e+02" y="10" dominant-baseline="hanging">14</text><text y="10" dominant-baseline="hanging" stroke="none" vector-effect="non-scaling-stroke" x="3.626667e+02">15</text><text vector-effect="non-scaling-stroke" x="384" y="10" dominant-baseline="hanging" stroke="none">16</text><text y="10" dominant-baseline="hanging" stroke="none" vector-effect="non-scaling-stroke" x="4.053333e+02">17</text><text stroke="none" vector-effect="non-scaling-stroke" x="4.266667e+02" y="10" dominant-baseline="hanging">18</text><text stroke="none" vector-effect="non-scaling-stroke" x="448" y="10" dominant-baseline="hanging">19</text><text dominant-baseline="hanging" stroke="none" vector-effect="non-scaling-stroke" x="4.693333e+02" y="10">20</text><text y="10" dominant-baseline="hanging" stroke="none" vector-effect="non-scaling-stroke" x="4.906667e+02">21</text><text stroke="none" vector-effect="non-scaling-stroke" x="512" y="10" dominant-baseline="hanging">22</text><text vector-effect="non-scaling-stroke" x="5.333333e+02" y="10" dominant-baseline="hanging" stroke="none">23</text><text vector-effect="non-scaling-stroke" x="5.546667e+02" y="10" dominant-baseline="hanging" stroke="none">24</text><text vector-effect="non-scaling-stroke" x="576" y="10" dominant-baseline="hanging" stroke="none">25</text></g><g fill="black" stroke="black" stroke-width="2px" stroke-linejoin="round" font-size="12px" font-family="sans-serif" dominant-baseline="baseline" transform="translate(80 520 )scale(1 1 )rotate(0 0 0 )" text-anchor="middle" font-style="normal" font-weight="bold" stroke-linecap="round"><text dominant-baseline="baseline" stroke="none" vector-effect="non-scaling-stroke" x="320" y="-6">Day</text></g><g font-style="normal" fill="black" stroke="black" font-size="12px" dominant-baseline="baseline" stroke-linecap="round" stroke-width="2px" stroke-linejoin="round" font-weight="bold" text-anchor="middle" transform="translate(80 520 )scale(1 -1 )" font-family="sans-serif"><path vector-effect="non-scaling-stroke" d="M0,44 L-6,44 M0,1.160114e+02 L-6,1.160114e+02 M0,1.880228e+02 L-6,1.880228e+02 M0,2.600343e+02 L-6,2.600343e+02 M0,3.320457e+02 L-6,3.320457e+02 "/></g><g font-family="sans-serif" font-size="12px" font-style="normal" fill="black" stroke="black" stroke-width="2px" stroke-linejoin="round" stroke-linecap="round" dominant-baseline="middle" font-weight="normal" text-anchor="end" transform="translate(80 520 )scale(1 1 )"><text dominant-baseline="middle" stroke="none" vector-effect="non-scaling-stroke" x="-10" y="-44">0s</text><text stroke="none" vector-effect="non-scaling-stroke" x="-10" y="-1.160114e+02" dominant-baseline="middle">100ms</text><text stroke="none" vector-effect="non-scaling-stroke" x="-10" y="-1.880228e+02" dominant-baseline="middle">200ms</text><text x="-10" y="-2.600343e+02" dominant-baseline="middle" stroke="none" vector-effect="non-scaling-stroke">300ms</text><text x="-10" y="-3.320457e+02" dominant-baseline="middle" stroke="none" vector-effect="non-scaling-stroke">400ms</text></g><g font-size="12px" dominant-baseline="hanging" font-style="normal" font-weight="bold" fill="black" stroke-linejoin="round" stroke-linecap="round" text-anchor="middle" stroke="black" stroke-width="2px" transform="translate(80 520 )scale(1 1 )rotate(-90 0 0 )" font-family="sans-serif"><text vector-effect="non-scaling-stroke" x="220" y="6" dominant-baseline="hanging" stroke="none">Runtime</text></g></g></g></g></svg>