<svg viewbox="0 0 800 600" preserveAspectRatio="xMidYMid meet" xmlns="http://www.w3.org/2000/svg" width="800" height="600"><defs><marker viewBox="0 0 10 10 " refX="5" refY="5" markerUnits="userSpaceOnUse" markerWidth="2%" markerHeight="2%" id="circle"><circle stroke="black" cx="5" cy="5" r="3" fill="none"/></marker><marker markerUnits="userSpaceOnUse" markerWidth="2%" markerHeight="2%" id="filled-circle" viewBox="0 0 10 10 " refX="5" refY="5"><circle cx="5" cy="5" r="3" fill="black" stroke="none"/></marker><marker markerWidth="2%" markerHeight="2%" id="square" viewBox="0 0 10 10 " refX="5" refY="5" markerUnits="userSpaceOnUse"><rect width="6" height="6" fill="none" stroke="black" x="2" y="2"/></marker><marker markerWidth="2%" markerHeight="2%" id="filled-square" viewBox="0 0 10 10 " refX="5" refY="5" markerUnits="userSpaceOnUse"><rect y="2" width="6" height="6" fill="black" stroke="none" x="2"/></marker></defs><g stroke-linecap="round" stroke-linejoin="round" transform="translate(80 520 )scale(1 -1 )" fill="hsl(198, 47%, 65%)" stroke="hsl(198, 47%, 65%)" stroke-width="1px"><rect width="1.833333e+01" height="396" vector-effect="non-scaling-stroke" x="3.650000e+01" y="0"/><rect height="5.773520e+01" vector-effect="non-scaling-stroke" x="5.783333e+01" y="0" width="1.833333e+01"/></g><g stroke="hsl(49, 88%, 65%)" stroke-width="1px" stroke-linecap="round" stroke-linejoin="round" transform="translate(80 520 )scale(1 -1 )" fill="hsl(49, 88%, 65%)"><rect y="0" width="1.833333e+01" height="2.163614e+02" vector-effect="non-scaling-stroke" x="5.483333e+01"/><rect height="4.844838e+01" vector-effect="non-scaling-stroke" x="7.616667e+01" y="0" width="1.833333e+01"/></g><g stroke-linecap="round" stroke-linejoin="round" transform="translate(80 520 )scale(1 -1 )" fill="hsl(260, 76%, 65%)" stroke="hsl(260, 76%, 65%)" stroke-width="1px"><rect vector-effect="non-scaling-stroke" x="7.316667e+01" y="0" width="1.833333e+01" height="1.815823e+02"/></g><g font-weight="normal" fill="hsl(198, 47%, 65%)" stroke="hsl(198, 47%, 65%)" text-anchor="start" dominant-baseline="hanging" stroke-width="1px" stroke-linecap="round" font-style="normal" stroke-linejoin="round" font-family="sans-serif" font-size="12px"><rect y="466" width="12" height="12" vector-effect="non-scaling-stroke" x="736"/><g fill="black" stroke="black"><text stroke="none" vector-effect="non-scaling-stroke" x="752" y="466" dominant-baseline="hanging">Golang</text></g><g font-family="sans-serif" stroke-width="1px" stroke-linecap="round" font-style="normal" font-size="12px" text-anchor="start" dominant-baseline="hanging" fill="hsl(49, 88%, 65%)" stroke="hsl(49, 88%, 65%)" stroke-linejoin="round" font-weight="normal"><rect vector-effect="non-scaling-stroke" x="736" y="484" width="12" height="12"/><g fill="black" stroke="black"><text x="752" y="484" dominant-baseline="hanging" stroke="none" vector-effect="non-scaling-stroke">Rust</text></g><g stroke-linecap="round" font-style="normal" font-weight="normal" fill="hsl(260, 76%, 65%)" stroke="hsl(260, 76%, 65%)" font-size="12px" text-anchor="start" stroke-width="1px" stroke-linejoin="round" font-family="sans-serif" dominant-baseline="hanging"><rect vector-effect="non-scaling-stroke" x="736" y="502" width="12" height="12"/><g stroke="black" fill="black"><text stroke="none" vector-effect="non-scaling-stroke" x="752" y="502" dominant-baseline="hanging">Zig</text><g text-anchor="start" stroke-linejoin="round" stroke-linecap="round" font-family="sans-serif" font-weight="normal" stroke-width="2px" fill="none" font-size="12px" dominant-baseline="hanging" font-style="normal"><rect y="80" width="640" height="440" vector-effect="non-scaling-stroke" x="80"/></g><g font-size="12px" text-anchor="start" dominant-baseline="hanging" transform="translate(80 520 )scale(1 -1 )" stroke-linejoin="round" stroke-width="2px" stroke-linecap="round" fill="none" stroke="black" font-family="sans-serif" font-style="normal" font-weight="normal"><path vector-effect="non-scaling-stroke" d="M64,0 L64,-6 M8.533333e+01,0 L8.533333e+01,-6 "/></g><g fill="black" stroke="black" font-size="12px" font-style="normal" transform="translate(80 520 )scale(1 1 )" font-family="sans-serif" text-anchor="middle" dominant-baseline="hanging" stroke-width="2px" stroke-linecap="round" font-weight="normal" stroke-linejoin="round"><text y="10" dominant-baseline="hanging" stroke="none" vector-effect="non-scaling-stroke" x="64">1</text><text x="8.533333e+01" y="10" dominant-baseline="hanging" stroke="none" vector-effect="non-scaling-stroke">2</text></g><g dominant-baseline="baseline" stroke-linecap="round" font-weight="bold" transform="translate(80 520 )scale(1 1 )rotate(0 0 0 )" font-family="sans-serif" font-size="12px" text-anchor="middle" stroke-width="2px" font-style="normal" fill="black" stroke="black" stroke-linejoin="round"><text dominant-baseline="baseline" stroke="none" vector-effect="non-scaling-stroke" x="320" y="-6">Day</text></g><g stroke-width="2px" font-size="12px" text-anchor="middle" transform="translate(80 520 )scale(1 -1 )" font-style="normal" stroke-linecap="round" stroke-linejoin="round" font-family="sans-serif" dominant-baseline="baseline" fill="black" stroke="black" font-weight="bold"><path vector-effect="non-scaling-stroke" d="M0,44 L-6,44 M0,8.114726e+01 L-6,8.114726e+01 M0,1.182945e+02 L-6,1.182945e+02 M0,1.554418e+02 L-6,1.554418e+02 M0,1.925890e+02 L-6,1.925890e+02 M0,2.297363e+02 L-6,2.297363e+02 M0,2.668836e+02 L-6,2.668836e+02 M0,3.040308e+02 L-6,3.040308e+02 M0,3.411781e+02 L-6,3.411781e+02 M0,3.783253e+02 L-6,3.783253e+02 "/></g><g text-anchor="end" dominant-baseline="middle" stroke-width="2px" stroke-linecap="round" stroke-linejoin="round" font-family="sans-serif" fill="black" stroke="black" font-style="normal" font-weight="normal" font-size="12px" transform="translate(80 520 )scale(1 1 )"><text x="-10" y="-44" dominant-baseline="middle" stroke="none" vector-effect="non-scaling-stroke">0s</text><text y="-8.114726e+01" dominant-baseline="middle" stroke="none" vector-effect="non-scaling-stroke" x="-10">20µs</text><text stroke="none" vector-effect="non-scaling-stroke" x="-10" y="-1.182945e+02" dominant-baseline="middle">40µs</text><text stroke="none" vector-effect="non-scaling-stroke" x="-10" y="-1.554418e+02" dominant-baseline="middle">60µs</text><text vector-effect="non-scaling-stroke" x="-10" y="-1.925890e+02" dominant-baseline="middle" stroke="none">80µs</text><text stroke="none" vector-effect="non-scaling-stroke" x="-10" y="-2.297363e+02" dominant-baseline="middle">100µs</text><text vector-effect="non-scaling-stroke" x="-10" y="-2.668836e+02" dominant-baseline="middle" stroke="none">120µs</text><text stroke="none" vector-effect="non-scaling-stroke" x="-10" y="-3.040308e+02" dominant-baseline="middle">140µs</text><text vector-effect="non-scaling-stroke" x="-10" y="-3.411781e+02" dominant-baseline="middle" stroke="none">160µs</text><text y="-3.783253e+02" dominant-baseline="middle" stroke="none" vector-effect="non-scaling-stroke" x="-10">180µs</text></g><g font-style="normal" font-weight="bold" font-size="12px" fill="black" transform="translate(80 520 )scale(1 1 )rotate(-90 0 0 )" stroke="black" stroke-width="2px" stroke-linecap="round" stroke-linejoin="round" font-family="sans-serif" text-anchor="middle" dominant-baseline="hanging"><text dominant-baseline="hanging" stroke="none" vector-effect="non-scaling-stroke" x="220" y="6">Runtime</text></g></g></g></g></g></svg>