<svg viewbox="0 0 800 600" preserveAspectRatio="xMidYMid meet" xmlns="http://www.w3.org/2000/svg" width="800" height="600"><defs><marker refX="5" refY="5" markerUnits="userSpaceOnUse" markerWidth="2%" markerHeight="2%" id="circle" viewBox="0 0 10 10 "><circle cx="5" cy="5" r="3" fill="none" stroke="black"/></marker><marker markerHeight="2%" id="filled-circle" viewBox="0 0 10 10 " refX="5" refY="5" markerUnits="userSpaceOnUse" markerWidth="2%"><circle stroke="none" cx="5" cy="5" r="3" fill="black"/></marker><marker id="square" viewBox="0 0 10 10 " refX="5" refY="5" markerUnits="userSpaceOnUse" markerWidth="2%" markerHeight="2%"><rect height="6" fill="none" stroke="black" x="2" y="2" width="6"/></marker><marker refY="5" markerUnits="userSpaceOnUse" markerWidth="2%" markerHeight="2%" id="filled-square" viewBox="0 0 10 10 " refX="5"><rect x="2" y="2" width="6" height="6" fill="black" stroke="none"/></marker></defs><g stroke-linejoin="round" transform="translate(80 520 )scale(1 -1 )" fill="hsl(198, 47%, 65%)" stroke="hsl(198, 47%, 65%)" stroke-width="1px" stroke-linecap="round"><rect vector-effect="non-scaling-stroke" x="5.546667e+01" y="0" width="4.266667e+00" height="4.404221e+01"/><rect x="7.680000e+01" y="0" width="4.266667e+00" height="4.406900e+01" vector-effect="non-scaling-stroke"/><rect y="0" width="4.266667e+00" height="4.405087e+01" vector-effect="non-scaling-stroke" x="9.813333e+01"/><rect y="0" width="4.266667e+00" height="4.413081e+01" vector-effect="non-scaling-stroke" x="1.194667e+02"/><rect width="4.266667e+00" height="4.408582e+01" vector-effect="non-scaling-stroke" x="1.408000e+02" y="0"/><rect vector-effect="non-scaling-stroke" x="1.621333e+02" y="0" width="4.266667e+00" height="4.433093e+01"/><rect width="4.266667e+00" height="4.412148e+01" vector-effect="non-scaling-stroke" x="1.834667e+02" y="0"/><rect x="2.048000e+02" y="0" width="4.266667e+00" height="4.408386e+01" vector-effect="non-scaling-stroke"/><rect height="4.402602e+01" vector-effect="non-scaling-stroke" x="2.261333e+02" y="0" width="4.266667e+00"/><rect vector-effect="non-scaling-stroke" x="2.474667e+02" y="0" width="4.266667e+00" height="4.400182e+01"/><rect y="0" width="4.266667e+00" height="5.087414e+01" vector-effect="non-scaling-stroke" x="2.688000e+02"/><rect x="2.901333e+02" y="0" width="4.266667e+00" height="4.400851e+01" vector-effect="non-scaling-stroke"/><rect vector-effect="non-scaling-stroke" x="3.114667e+02" y="0" width="4.266667e+00" height="4.401620e+01"/><rect height="4.452515e+01" vector-effect="non-scaling-stroke" x="3.328000e+02" y="0" width="4.266667e+00"/><rect vector-effect="non-scaling-stroke" x="3.541333e+02" y="0" width="4.266667e+00" height="1.085304e+02"/><rect vector-effect="non-scaling-stroke" x="3.754667e+02" y="0" width="4.266667e+00" height="4.410806e+01"/><rect vector-effect="non-scaling-stroke" x="3.968000e+02" y="0" width="4.266667e+00" height="7.250111e+01"/><rect vector-effect="non-scaling-stroke" x="4.181333e+02" y="0" width="4.266667e+00" height="4.410437e+01"/><rect vector-effect="non-scaling-stroke" x="4.394667e+02" y="0" width="4.266667e+00" height="4.468070e+01"/><rect vector-effect="non-scaling-stroke" x="4.608000e+02" y="0" width="4.266667e+00" height="4.482503e+01"/><rect y="0" width="4.266667e+00" height="4.414954e+01" vector-effect="non-scaling-stroke" x="4.821333e+02"/><rect x="5.034667e+02" y="0" width="4.266667e+00" height="6.484280e+01" vector-effect="non-scaling-stroke"/><rect y="0" width="4.266667e+00" height="2.219617e+02" vector-effect="non-scaling-stroke" x="5.248000e+02"/><rect vector-effect="non-scaling-stroke" x="5.461333e+02" y="0" width="4.266667e+00" height="1.117597e+03"/><rect y="0" width="4.266667e+00" height="5.085107e+01" vector-effect="non-scaling-stroke" x="5.674667e+02"/></g><g stroke-width="1px" stroke-linecap="round" stroke-linejoin="round" transform="translate(80 520 )scale(1 -1 )" fill="hsl(49, 88%, 65%)" stroke="hsl(49, 88%, 65%)"><rect vector-effect="non-scaling-stroke" x="5.973333e+01" y="0" width="4.266667e+00" height="4.718375e+01"/><rect y="0" width="4.266667e+00" height="4.408992e+01" vector-effect="non-scaling-stroke" x="8.106667e+01"/><rect width="4.266667e+00" height="4.400396e+01" vector-effect="non-scaling-stroke" x="1.024000e+02" y="0"/><rect x="1.237333e+02" y="0" width="4.266667e+00" height="4.407553e+01" vector-effect="non-scaling-stroke"/><rect x="1.450667e+02" y="0" width="4.266667e+00" height="4.401764e+01" vector-effect="non-scaling-stroke"/><rect x="1.664000e+02" y="0" width="4.266667e+00" height="4.463710e+01" vector-effect="non-scaling-stroke"/><rect height="4.423185e+01" vector-effect="non-scaling-stroke" x="1.877333e+02" y="0" width="4.266667e+00"/><rect y="0" width="4.266667e+00" height="4.477661e+01" vector-effect="non-scaling-stroke" x="2.090667e+02"/><rect height="4.738664e+01" vector-effect="non-scaling-stroke" x="2.304000e+02" y="0" width="4.266667e+00"/><rect x="2.517333e+02" y="0" width="4.266667e+00" height="4.401639e+01" vector-effect="non-scaling-stroke"/><rect vector-effect="non-scaling-stroke" x="2.730667e+02" y="0" width="4.266667e+00" height="5.191409e+01"/><rect width="4.266667e+00" height="4.402293e+01" vector-effect="non-scaling-stroke" x="2.944000e+02" y="0"/><rect vector-effect="non-scaling-stroke" x="3.157333e+02" y="0" width="4.266667e+00" height="4.400145e+01"/><rect height="4.587172e+01" vector-effect="non-scaling-stroke" x="3.370667e+02" y="0" width="4.266667e+00"/><rect width="4.266667e+00" height="1.137965e+02" vector-effect="non-scaling-stroke" x="3.584000e+02" y="0"/><rect vector-effect="non-scaling-stroke" x="3.797333e+02" y="0" width="4.266667e+00" height="4.431700e+01"/><rect height="1.390713e+02" vector-effect="non-scaling-stroke" x="4.010667e+02" y="0" width="4.266667e+00"/><rect x="4.224000e+02" y="0" width="4.266667e+00" height="4.592130e+01" vector-effect="non-scaling-stroke"/><rect y="0" width="4.266667e+00" height="4.713891e+01" vector-effect="non-scaling-stroke" x="4.437333e+02"/><rect vector-effect="non-scaling-stroke" x="4.650667e+02" y="0" width="4.266667e+00" height="4.540524e+01"/><rect vector-effect="non-scaling-stroke" x="4.864000e+02" y="0" width="4.266667e+00" height="4.439521e+01"/><rect x="5.077333e+02" y="0" width="4.266667e+00" height="5.749515e+01" vector-effect="non-scaling-stroke"/><rect x="5.290667e+02" y="0" width="4.266667e+00" height="1.630966e+02" vector-effect="non-scaling-stroke"/><rect vector-effect="non-scaling-stroke" x="5.504000e+02" y="0" width="4.266667e+00" height="6.701788e+01"/><rect width="4.266667e+00" height="5.104296e+01" vector-effect="non-scaling-stroke" x="5.717333e+02" y="0"/></g><g fill="hsl(260, 76%, 65%)" stroke="hsl(260, 76%, 65%)" stroke-width="1px" stroke-linecap="round" stroke-linejoin="round" transform="translate(80 520 )scale(1 -1 )"><rect width="4.266667e+00" height="4.402619e+01" vector-effect="non-scaling-stroke" x="6.400000e+01" y="0"/><rect height="4.400416e+01" vector-effect="non-scaling-stroke" x="8.533333e+01" y="0" width="4.266667e+00"/><rect height="4.400047e+01" vector-effect="non-scaling-stroke" x="1.066667e+02" y="0" width="4.266667e+00"/><rect vector-effect="non-scaling-stroke" x="1.280000e+02" y="0" width="4.266667e+00" height="4.400864e+01"/><rect height="4.401134e+01" vector-effect="non-scaling-stroke" x="1.493333e+02" y="0" width="4.266667e+00"/><rect vector-effect="non-scaling-stroke" x="1.706667e+02" y="0" width="4.266667e+00" height="4.400263e+01"/><rect x="192" y="0" width="4.266667e+00" height="4.404478e+01" vector-effect="non-scaling-stroke"/><rect y="0" width="4.266667e+00" height="4.401280e+01" vector-effect="non-scaling-stroke" x="2.133333e+02"/><rect width="4.266667e+00" height="4.401891e+01" vector-effect="non-scaling-stroke" x="2.346667e+02" y="0"/><rect vector-effect="non-scaling-stroke" x="256" y="0" width="4.266667e+00" height="4.400012e+01"/><rect vector-effect="non-scaling-stroke" x="2.773333e+02" y="0" width="4.266667e+00" height="4.658863e+01"/><rect y="0" width="4.266667e+00" height="4.400043e+01" vector-effect="non-scaling-stroke" x="2.986667e+02"/><rect vector-effect="non-scaling-stroke" x="320" y="0" width="4.266667e+00" height="4.400008e+01"/><rect x="3.413333e+02" y="0" width="4.266667e+00" height="4.456942e+01" vector-effect="non-scaling-stroke"/><rect height="1.208820e+02" vector-effect="non-scaling-stroke" x="3.626667e+02" y="0" width="4.266667e+00"/><rect y="0" width="4.266667e+00" height="4.404387e+01" vector-effect="non-scaling-stroke" x="384"/><rect height="5.034351e+01" vector-effect="non-scaling-stroke" x="4.053333e+02" y="0" width="4.266667e+00"/><rect y="0" width="4.266667e+00" height="4.402303e+01" vector-effect="non-scaling-stroke" x="4.266667e+02"/><rect height="5.023206e+01" vector-effect="non-scaling-stroke" x="448" y="0" width="4.266667e+00"/><rect height="4.401956e+01" vector-effect="non-scaling-stroke" x="4.693333e+02" y="0" width="4.266667e+00"/><rect y="0" width="4.266667e+00" height="4.404199e+01" vector-effect="non-scaling-stroke" x="4.906667e+02"/><rect width="4.266667e+00" height="4.979267e+01" vector-effect="non-scaling-stroke" x="512" y="0"/><rect width="4.266667e+00" height="7.554567e+01" vector-effect="non-scaling-stroke" x="5.333333e+02" y="0"/><rect width="4.266667e+00" height="5.766515e+01" vector-effect="non-scaling-stroke" x="5.546667e+02" y="0"/><rect x="576" y="0" width="4.266667e+00" height="5.050451e+01" vector-effect="non-scaling-stroke"/></g><g fill="hsl(111, 64%, 65%)" stroke="hsl(111, 64%, 65%)" stroke-width="1px" stroke-linecap="round" stroke-linejoin="round" transform="translate(80 520 )scale(1 -1 )"><rect width="4.266667e+00" height="4.406029e+01" vector-effect="non-scaling-stroke" x="6.826667e+01" y="0"/><rect height="4.401603e+01" vector-effect="non-scaling-stroke" x="8.960000e+01" y="0" width="4.266667e+00"/><rect x="1.109333e+02" y="0" width="4.266667e+00" height="4.400283e+01" vector-effect="non-scaling-stroke"/><rect vector-effect="non-scaling-stroke" x="1.322667e+02" y="0" width="4.266667e+00" height="4.435735e+01"/><rect width="4.266667e+00" height="4.403303e+01" vector-effect="non-scaling-stroke" x="1.536000e+02" y="0"/><rect x="1.749333e+02" y="0" width="4.266667e+00" height="4.535987e+01" vector-effect="non-scaling-stroke"/><rect vector-effect="non-scaling-stroke" x="1.962667e+02" y="0" width="4.266667e+00" height="4.409000e+01"/><rect width="4.266667e+00" height="4.482020e+01" vector-effect="non-scaling-stroke" x="2.176000e+02" y="0"/><rect x="2.389333e+02" y="0" width="4.266667e+00" height="4.402864e+01" vector-effect="non-scaling-stroke"/><rect y="0" width="4.266667e+00" height="4.400539e+01" vector-effect="non-scaling-stroke" x="2.602667e+02"/><rect y="0" width="4.266667e+00" height="4.701751e+01" vector-effect="non-scaling-stroke" x="2.816000e+02"/><rect width="4.266667e+00" height="4.427674e+01" vector-effect="non-scaling-stroke" x="3.029333e+02" y="0"/><rect y="0" width="4.266667e+00" height="4.400162e+01" vector-effect="non-scaling-stroke" x="3.242667e+02"/><rect height="1.394576e+02" vector-effect="non-scaling-stroke" x="3.669333e+02" y="0" width="4.266667e+00"/><rect height="4.421726e+01" vector-effect="non-scaling-stroke" x="3.882667e+02" y="0" width="4.266667e+00"/><rect y="0" width="4.266667e+00" height="4.488382e+01" vector-effect="non-scaling-stroke" x="4.096000e+02"/><rect x="4.309333e+02" y="0" width="4.266667e+00" height="4.526394e+01" vector-effect="non-scaling-stroke"/><rect x="4.522667e+02" y="0" width="4.266667e+00" height="4.621328e+01" vector-effect="non-scaling-stroke"/><rect height="4.603190e+01" vector-effect="non-scaling-stroke" x="4.736000e+02" y="0" width="4.266667e+00"/><rect x="4.949333e+02" y="0" width="4.266667e+00" height="4.458235e+01" vector-effect="non-scaling-stroke"/><rect vector-effect="non-scaling-stroke" x="5.162667e+02" y="0" width="4.266667e+00" height="6.353697e+01"/><rect x="5.376000e+02" y="0" width="4.266667e+00" height="8.521744e+02" vector-effect="non-scaling-stroke"/><rect x="5.589333e+02" y="0" width="4.266667e+00" height="5.760404e+01" vector-effect="non-scaling-stroke"/><rect vector-effect="non-scaling-stroke" x="5.802667e+02" y="0" width="4.266667e+00" height="4.999549e+01"/></g><g font-family="sans-serif" font-style="normal" stroke="hsl(198, 47%, 65%)" stroke-width="1px" stroke-linecap="round" font-weight="normal" stroke-linejoin="round" font-size="12px" fill="hsl(198, 47%, 65%)" text-anchor="start" dominant-baseline="hanging"><rect height="12" vector-effect="non-scaling-stroke" x="736" y="448" width="12"/><g fill="black" stroke="black"><text x="752" y="448" dominant-baseline="hanging" stroke="none" vector-effect="non-scaling-stroke">Crystal</text></g><g font-size="12px" fill="hsl(49, 88%, 65%)" stroke="hsl(49, 88%, 65%)" stroke-linecap="round" dominant-baseline="hanging" stroke-linejoin="round" font-family="sans-serif" font-style="normal" stroke-width="1px" font-weight="normal" text-anchor="start"><rect vector-effect="non-scaling-stroke" x="736" y="466" width="12" height="12"/><g stroke="black" fill="black"><text vector-effect="non-scaling-stroke" x="752" y="466" dominant-baseline="hanging" stroke="none">Golang</text></g><g dominant-baseline="hanging" font-style="normal" stroke-linejoin="round" font-family="sans-serif" font-size="12px" stroke-linecap="round" font-weight="normal" text-anchor="start" fill="hsl(260, 76%, 65%)" stroke="hsl(260, 76%, 65%)" stroke-width="1px"><rect vector-effect="non-scaling-stroke" x="736" y="484" width="12" height="12"/><g fill="black" stroke="black"><text dominant-baseline="hanging" stroke="none" vector-effect="non-scaling-stroke" x="752" y="484">Rust</text></g><g stroke-linejoin="round" font-size="12px" fill="hsl(111, 64%, 65%)" text-anchor="start" dominant-baseline="hanging" stroke="hsl(111, 64%, 65%)" stroke-width="1px" stroke-linecap="round" font-family="sans-serif" font-style="normal" font-weight="normal"><rect vector-effect="non-scaling-stroke" x="736" y="502" width="12" height="12"/><g fill="black" stroke="black"><text dominant-baseline="hanging" stroke="none" vector-effect="non-scaling-stroke" x="752" y="502">Zig</text><g text-anchor="start" font-family="sans-serif" font-style="normal" stroke-width="2px" stroke-linejoin="round" fill="none" dominant-baseline="hanging" stroke-linecap="round" font-weight="normal" font-size="12px"><rect height="440" vector-effect="non-scaling-stroke" x="80" y="80" width="640"/></g><g transform="translate(80 520 )scale(1 -1 )" stroke-width="2px" stroke-linecap="round" stroke-linejoin="round" font-family="sans-serif" font-size="12px" fill="none" stroke="black" font-weight="normal" text-anchor="start" dominant-baseline="hanging" font-style="normal"><path vector-effect="non-scaling-stroke" d="M64,0 L64,-6 M8.533333e+01,0 L8.533333e+01,-6 M1.066667e+02,0 L1.066667e+02,-6 M128,0 L128,-6 M1.493333e+02,0 L1.493333e+02,-6 M1.706667e+02,0 L1.706667e+02,-6 M192,0 L192,-6 M2.133333e+02,0 L2.133333e+02,-6 M2.346667e+02,0 L2.346667e+02,-6 M256,0 L256,-6 M2.773333e+02,0 L2.773333e+02,-6 M2.986667e+02,0 L2.986667e+02,-6 M320,0 L320,-6 M3.413333e+02,0 L3.413333e+02,-6 M3.626667e+02,0 L3.626667e+02,-6 M384,0 L384,-6 M4.053333e+02,0 L4.053333e+02,-6 M4.266667e+02,0 L4.266667e+02,-6 M448,0 L448,-6 M4.693333e+02,0 L4.693333e+02,-6 M4.906667e+02,0 L4.906667e+02,-6 M512,0 L512,-6 M5.333333e+02,0 L5.333333e+02,-6 M5.546667e+02,0 L5.546667e+02,-6 M576,0 L576,-6 "/></g><g stroke-linecap="round" font-size="12px" text-anchor="middle" dominant-baseline="hanging" transform="translate(80 520 )scale(1 1 )" fill="black" stroke="black" stroke-width="2px" font-style="normal" font-weight="normal" stroke-linejoin="round" font-family="sans-serif"><text y="10" dominant-baseline="hanging" stroke="none" vector-effect="non-scaling-stroke" x="64">1</text><text vector-effect="non-scaling-stroke" x="8.533333e+01" y="10" dominant-baseline="hanging" stroke="none">2</text><text stroke="none" vector-effect="non-scaling-stroke" x="1.066667e+02" y="10" dominant-baseline="hanging">3</text><text x="128" y="10" dominant-baseline="hanging" stroke="none" vector-effect="non-scaling-stroke">4</text><text dominant-baseline="hanging" stroke="none" vector-effect="non-scaling-stroke" x="1.493333e+02" y="10">5</text><text stroke="none" vector-effect="non-scaling-stroke" x="1.706667e+02" y="10" dominant-baseline="hanging">6</text><text vector-effect="non-scaling-stroke" x="192" y="10" dominant-baseline="hanging" stroke="none">7</text><text x="2.133333e+02" y="10" dominant-baseline="hanging" stroke="none" vector-effect="non-scaling-stroke">8</text><text dominant-baseline="hanging" stroke="none" vector-effect="non-scaling-stroke" x="2.346667e+02" y="10">9</text><text dominant-baseline="hanging" stroke="none" vector-effect="non-scaling-stroke" x="256" y="10">10</text><text y="10" dominant-baseline="hanging" stroke="none" vector-effect="non-scaling-stroke" x="2.773333e+02">11</text><text dominant-baseline="hanging" stroke="none" vector-effect="non-scaling-stroke" x="2.986667e+02" y="10">12</text><text vector-effect="non-scaling-stroke" x="320" y="10" dominant-baseline="hanging" stroke="none">13</text><text vector-effect="non-scaling-stroke" x="3.413333e+02" y="10" dominant-baseline="hanging" stroke="none">14</text><text stroke="none" vector-effect="non-scaling-stroke" x="3.626667e+02" y="10" dominant-baseline="hanging">15</text><text stroke="none" vector-effect="non-scaling-stroke" x="384" y="10" dominant-baseline="hanging">16</text><text y="10" dominant-baseline="hanging" stroke="none" vector-effect="non-scaling-stroke" x="4.053333e+02">17</text><text dominant-baseline="hanging" stroke="none" vector-effect="non-scaling-stroke" x="4.266667e+02" y="10">18</text><text stroke="none" vector-effect="non-scaling-stroke" x="448" y="10" dominant-baseline="hanging">19</text><text stroke="none" vector-effect="non-scaling-stroke" x="4.693333e+02" y="10" dominant-baseline="hanging">20</text><text dominant-baseline="hanging" stroke="none" vector-effect="non-scaling-stroke" x="4.906667e+02" y="10">21</text><text x="512" y="10" dominant-baseline="hanging" stroke="none" vector-effect="non-scaling-stroke">22</text><text stroke="none" vector-effect="non-scaling-stroke" x="5.333333e+02" y="10" dominant-baseline="hanging">23</text><text vector-effect="non-scaling-stroke" x="5.546667e+02" y="10" dominant-baseline="hanging" stroke="none">24</text><text y="10" dominant-baseline="hanging" stroke="none" vector-effect="non-scaling-stroke" x="576">25</text></g><g font-weight="bold" text-anchor="middle" dominant-baseline="baseline" transform="translate(80 520 )scale(1 1 )rotate(0 0 0 )" fill="black" stroke="black" font-family="sans-serif" stroke-linecap="round" stroke-width="2px" font-style="normal" stroke-linejoin="round" font-size="12px"><text y="-6" dominant-baseline="baseline" stroke="none" vector-effect="non-scaling-stroke" x="320">Day</text></g><g stroke-linejoin="round" font-family="sans-serif" font-size="12px" font-style="normal" text-anchor="middle" transform="translate(80 520 )scale(1 -1 )" fill="black" stroke="black" stroke-width="2px" stroke-linecap="round" font-weight="bold" dominant-baseline="baseline"><path vector-effect="non-scaling-stroke" d="M0,44 L-6,44 M0,7.920000e+01 L-6,7.920000e+01 M0,1.144000e+02 L-6,1.144000e+02 M0,1.496000e+02 L-6,1.496000e+02 M0,1.848000e+02 L-6,1.848000e+02 M0,220 L-6,220 M0,2.552000e+02 L-6,2.552000e+02 M0,2.904000e+02 L-6,2.904000e+02 M0,3.256000e+02 L-6,3.256000e+02 M0,3.608000e+02 L-6,3.608000e+02 M0,396 L-6,396 "/></g><g font-size="12px" stroke-linejoin="round" font-family="sans-serif" stroke-width="2px" fill="black" font-style="normal" stroke-linecap="round" font-weight="normal" text-anchor="end" dominant-baseline="middle" transform="translate(80 520 )scale(1 1 )" stroke="black"><text x="-10" y="-44" dominant-baseline="middle" stroke="none" vector-effect="non-scaling-stroke">0s</text><text x="-10" y="-7.920000e+01" dominant-baseline="middle" stroke="none" vector-effect="non-scaling-stroke">200ms</text><text stroke="none" vector-effect="non-scaling-stroke" x="-10" y="-1.144000e+02" dominant-baseline="middle">400ms</text><text dominant-baseline="middle" stroke="none" vector-effect="non-scaling-stroke" x="-10" y="-1.496000e+02">600ms</text><text y="-1.848000e+02" dominant-baseline="middle" stroke="none" vector-effect="non-scaling-stroke" x="-10">800ms</text><text vector-effect="non-scaling-stroke" x="-10" y="-220" dominant-baseline="middle" stroke="none">1s</text><text dominant-baseline="middle" stroke="none" vector-effect="non-scaling-stroke" x="-10" y="-2.552000e+02">1.2s</text><text x="-10" y="-2.904000e+02" dominant-baseline="middle" stroke="none" vector-effect="non-scaling-stroke">1.4s</text><text stroke="none" vector-effect="non-scaling-stroke" x="-10" y="-3.256000e+02" dominant-baseline="middle">1.6s</text><text y="-3.608000e+02" dominant-baseline="middle" stroke="none" vector-effect="non-scaling-stroke" x="-10">1.8s</text><text stroke="none" vector-effect="non-scaling-stroke" x="-10" y="-396" dominant-baseline="middle">2s</text></g><g dominant-baseline="hanging" stroke="black" font-style="normal" font-family="sans-serif" font-size="12px" stroke-linejoin="round" stroke-width="2px" stroke-linecap="round" font-weight="bold" text-anchor="middle" transform="translate(80 520 )scale(1 1 )rotate(-90 0 0 )" fill="black"><text stroke="none" vector-effect="non-scaling-stroke" x="220" y="6" dominant-baseline="hanging">Runtime</text></g></g></g></g></g></g></svg>