<svg preserveAspectRatio="xMidYMid meet" xmlns="http://www.w3.org/2000/svg" width="800" height="600" viewbox="0 0 800 600"><defs><marker refY="5" markerUnits="userSpaceOnUse" markerWidth="2%" markerHeight="2%" id="circle" viewBox="0 0 10 10 " refX="5"><circle fill="none" stroke="black" cx="5" cy="5" r="3"/></marker><marker refX="5" refY="5" markerUnits="userSpaceOnUse" markerWidth="2%" markerHeight="2%" id="filled-circle" viewBox="0 0 10 10 "><circle cx="5" cy="5" r="3" fill="black" stroke="none"/></marker><marker id="square" viewBox="0 0 10 10 " refX="5" refY="5" markerUnits="userSpaceOnUse" markerWidth="2%" markerHeight="2%"><rect height="6" fill="none" stroke="black" x="2" y="2" width="6"/></marker><marker markerUnits="userSpaceOnUse" markerWidth="2%" markerHeight="2%" id="filled-square" viewBox="0 0 10 10 " refX="5" refY="5"><rect y="2" width="6" height="6" fill="black" stroke="none" x="2"/></marker></defs><g stroke-linecap="round" stroke-linejoin="round" transform="translate(80 520 )scale(1 -1 )" fill="hsl(198, 47%, 65%)" stroke="hsl(198, 47%, 65%)" stroke-width="1px"><rect y="0" width="2.370370e+01" height="4.756321e+01" vector-effect="non-scaling-stroke" x="4.029630e+01"/><rect height="4.495668e+01" vector-effect="non-scaling-stroke" x="6.162963e+01" y="0" width="2.370370e+01"/><rect y="0" width="2.370370e+01" height="5.455201e+01" vector-effect="non-scaling-stroke" x="8.296296e+01"/><rect width="2.370370e+01" height="4.828784e+01" vector-effect="non-scaling-stroke" x="1.042963e+02" y="0"/><rect x="1.256296e+02" y="0" width="2.370370e+01" height="4.665948e+01" vector-effect="non-scaling-stroke"/><rect y="0" width="2.370370e+01" height="5.092053e+01" vector-effect="non-scaling-stroke" x="1.469630e+02"/><rect y="0" width="2.370370e+01" height="4.920369e+01" vector-effect="non-scaling-stroke" x="1.682963e+02"/><rect width="2.370370e+01" height="1.854399e+02" vector-effect="non-scaling-stroke" x="1.896296e+02" y="0"/><rect vector-effect="non-scaling-stroke" x="2.109630e+02" y="0" width="2.370370e+01" height="396"/></g><g stroke-linejoin="round" transform="translate(80 520 )scale(1 -1 )" fill="hsl(49, 88%, 65%)" stroke="hsl(49, 88%, 65%)" stroke-width="1px" stroke-linecap="round"><rect height="4.558050e+01" vector-effect="non-scaling-stroke" x="6.400000e+01" y="0" width="2.370370e+01"/><rect x="8.533333e+01" y="0" width="2.370370e+01" height="4.423183e+01" vector-effect="non-scaling-stroke"/><rect vector-effect="non-scaling-stroke" x="1.066667e+02" y="0" width="2.370370e+01" height="5.199759e+01"/><rect y="0" width="2.370370e+01" height="4.672797e+01" vector-effect="non-scaling-stroke" x="128"/><rect width="2.370370e+01" height="4.567239e+01" vector-effect="non-scaling-stroke" x="1.493333e+02" y="0"/><rect vector-effect="non-scaling-stroke" x="1.706667e+02" y="0" width="2.370370e+01" height="4.781142e+01"/><rect y="0" width="2.370370e+01" height="4.804580e+01" vector-effect="non-scaling-stroke" x="192"/><rect vector-effect="non-scaling-stroke" x="2.133333e+02" y="0" width="2.370370e+01" height="1.817365e+02"/></g><g stroke="hsl(198, 47%, 65%)" stroke-width="1px" stroke-linecap="round" font-style="normal" fill="hsl(198, 47%, 65%)" stroke-linejoin="round" font-family="sans-serif" font-weight="normal" dominant-baseline="hanging" font-size="12px" text-anchor="start"><rect y="484" width="12" height="12" vector-effect="non-scaling-stroke" x="736"/><g stroke="black" fill="black"><text y="484" dominant-baseline="hanging" stroke="none" vector-effect="non-scaling-stroke" x="752">Golang</text></g><g stroke-linejoin="round" fill="hsl(49, 88%, 65%)" font-style="normal" dominant-baseline="hanging" stroke-width="1px" stroke="hsl(49, 88%, 65%)" font-family="sans-serif" font-weight="normal" stroke-linecap="round" font-size="12px" text-anchor="start"><rect height="12" vector-effect="non-scaling-stroke" x="736" y="502" width="12"/><g fill="black" stroke="black"><text stroke="none" vector-effect="non-scaling-stroke" x="752" y="502" dominant-baseline="hanging">Rust</text><g text-anchor="start" font-size="12px" font-style="normal" stroke-linejoin="round" font-family="sans-serif" dominant-baseline="hanging" stroke-linecap="round" font-weight="normal" stroke-width="2px" fill="none"><rect x="80" y="80" width="640" height="440" vector-effect="non-scaling-stroke"/></g><g font-weight="normal" dominant-baseline="hanging" stroke-width="2px" stroke-linecap="round" transform="translate(80 520 )scale(1 -1 )" fill="none" stroke="black" stroke-linejoin="round" text-anchor="start" font-family="sans-serif" font-size="12px" font-style="normal"><path vector-effect="non-scaling-stroke" d="M64,0 L64,-6 M8.533333e+01,0 L8.533333e+01,-6 M1.066667e+02,0 L1.066667e+02,-6 M128,0 L128,-6 M1.493333e+02,0 L1.493333e+02,-6 M1.706667e+02,0 L1.706667e+02,-6 M192,0 L192,-6 M2.133333e+02,0 L2.133333e+02,-6 M2.346667e+02,0 L2.346667e+02,-6 "/></g><g dominant-baseline="hanging" stroke="black" stroke-linejoin="round" transform="translate(80 520 )scale(1 1 )" font-size="12px" stroke-linecap="round" font-style="normal" text-anchor="middle" fill="black" font-family="sans-serif" font-weight="normal" stroke-width="2px"><text stroke="none" vector-effect="non-scaling-stroke" x="64" y="10" dominant-baseline="hanging">1</text><text dominant-baseline="hanging" stroke="none" vector-effect="non-scaling-stroke" x="8.533333e+01" y="10">2</text><text dominant-baseline="hanging" stroke="none" vector-effect="non-scaling-stroke" x="1.066667e+02" y="10">3</text><text x="128" y="10" dominant-baseline="hanging" stroke="none" vector-effect="non-scaling-stroke">4</text><text stroke="none" vector-effect="non-scaling-stroke" x="1.493333e+02" y="10" dominant-baseline="hanging">5</text><text y="10" dominant-baseline="hanging" stroke="none" vector-effect="non-scaling-stroke" x="1.706667e+02">6</text><text stroke="none" vector-effect="non-scaling-stroke" x="192" y="10" dominant-baseline="hanging">7</text><text vector-effect="non-scaling-stroke" x="2.133333e+02" y="10" dominant-baseline="hanging" stroke="none">8</text><text stroke="none" vector-effect="non-scaling-stroke" x="2.346667e+02" y="10" dominant-baseline="hanging">9</text></g><g stroke-linecap="round" dominant-baseline="baseline" stroke-linejoin="round" font-family="sans-serif" font-weight="bold" stroke-width="2px" font-size="12px" font-style="normal" text-anchor="middle" fill="black" stroke="black" transform="translate(80 520 )scale(1 1 )rotate(0 0 0 )"><text x="320" y="-6" dominant-baseline="baseline" stroke="none" vector-effect="non-scaling-stroke">Day</text></g><g font-weight="bold" dominant-baseline="baseline" font-family="sans-serif" stroke="black" stroke-linejoin="round" transform="translate(80 520 )scale(1 -1 )" stroke-width="2px" stroke-linecap="round" font-size="12px" font-style="normal" fill="black" text-anchor="middle"><path vector-effect="non-scaling-stroke" d="M0,44 L-6,44 M0,8.653812e+01 L-6,8.653812e+01 M0,1.290762e+02 L-6,1.290762e+02 M0,1.716144e+02 L-6,1.716144e+02 M0,2.141525e+02 L-6,2.141525e+02 M0,2.566906e+02 L-6,2.566906e+02 M0,2.992287e+02 L-6,2.992287e+02 M0,3.417669e+02 L-6,3.417669e+02 M0,3.843050e+02 L-6,3.843050e+02 "/></g><g fill="black" stroke="black" dominant-baseline="middle" stroke-width="2px" stroke-linecap="round" font-size="12px" font-style="normal" text-anchor="end" transform="translate(80 520 )scale(1 1 )" stroke-linejoin="round" font-family="sans-serif" font-weight="normal"><text y="-44" dominant-baseline="middle" stroke="none" vector-effect="non-scaling-stroke" x="-10">0s</text><text dominant-baseline="middle" stroke="none" vector-effect="non-scaling-stroke" x="-10" y="-8.653812e+01">200µs</text><text stroke="none" vector-effect="non-scaling-stroke" x="-10" y="-1.290762e+02" dominant-baseline="middle">400µs</text><text dominant-baseline="middle" stroke="none" vector-effect="non-scaling-stroke" x="-10" y="-1.716144e+02">600µs</text><text vector-effect="non-scaling-stroke" x="-10" y="-2.141525e+02" dominant-baseline="middle" stroke="none">800µs</text><text stroke="none" vector-effect="non-scaling-stroke" x="-10" y="-2.566906e+02" dominant-baseline="middle">1ms</text><text stroke="none" vector-effect="non-scaling-stroke" x="-10" y="-2.992287e+02" dominant-baseline="middle">1.2ms</text><text vector-effect="non-scaling-stroke" x="-10" y="-3.417669e+02" dominant-baseline="middle" stroke="none">1.4ms</text><text y="-3.843050e+02" dominant-baseline="middle" stroke="none" vector-effect="non-scaling-stroke" x="-10">1.6ms</text></g><g stroke-linecap="round" fill="black" font-family="sans-serif" dominant-baseline="hanging" stroke-width="2px" text-anchor="middle" font-size="12px" font-style="normal" font-weight="bold" transform="translate(80 520 )scale(1 1 )rotate(-90 0 0 )" stroke="black" stroke-linejoin="round"><text x="220" y="6" dominant-baseline="hanging" stroke="none" vector-effect="non-scaling-stroke">Runtime</text></g></g></g></g></svg>