<svg viewbox="0 0 800 600" preserveAspectRatio="xMidYMid meet" xmlns="http://www.w3.org/2000/svg" width="800" height="600"><defs><marker markerHeight="2%" id="circle" viewBox="0 0 10 10 " refX="5" refY="5" markerUnits="userSpaceOnUse" markerWidth="2%"><circle stroke="black" cx="5" cy="5" r="3" fill="none"/></marker><marker markerHeight="2%" id="filled-circle" viewBox="0 0 10 10 " refX="5" refY="5" markerUnits="userSpaceOnUse" markerWidth="2%"><circle stroke="none" cx="5" cy="5" r="3" fill="black"/></marker><marker markerHeight="2%" id="square" viewBox="0 0 10 10 " refX="5" refY="5" markerUnits="userSpaceOnUse" markerWidth="2%"><rect fill="none" stroke="black" x="2" y="2" width="6" height="6"/></marker><marker refX="5" refY="5" markerUnits="userSpaceOnUse" markerWidth="2%" markerHeight="2%" id="filled-square" viewBox="0 0 10 10 "><rect width="6" height="6" fill="black" stroke="none" x="2" y="2"/></marker></defs><g stroke="hsl(198, 47%, 65%)" stroke-width="1px" stroke-linecap="round" stroke-linejoin="round" transform="translate(80 520 )scale(1 -1 )" fill="hsl(198, 47%, 65%)"><rect height="4.401557e+01" vector-effect="non-scaling-stroke" x="5.546667e+01" y="0" width="8.533333e+00"/><rect height="4.400400e+01" vector-effect="non-scaling-stroke" x="7.680000e+01" y="0" width="8.533333e+00"/><rect vector-effect="non-scaling-stroke" x="9.813333e+01" y="0" width="8.533333e+00" height="4.404564e+01"/><rect x="1.194667e+02" y="0" width="8.533333e+00" height="4.401711e+01" vector-effect="non-scaling-stroke"/><rect height="4.401157e+01" vector-effect="non-scaling-stroke" x="1.408000e+02" y="0" width="8.533333e+00"/><rect vector-effect="non-scaling-stroke" x="1.621333e+02" y="0" width="8.533333e+00" height="4.400631e+01"/><rect vector-effect="non-scaling-stroke" x="1.834667e+02" y="0" width="8.533333e+00" height="4.402675e+01"/><rect vector-effect="non-scaling-stroke" x="2.048000e+02" y="0" width="8.533333e+00" height="4.460874e+01"/><rect vector-effect="non-scaling-stroke" x="2.261333e+02" y="0" width="8.533333e+00" height="4.435315e+01"/><rect vector-effect="non-scaling-stroke" x="2.474667e+02" y="0" width="8.533333e+00" height="4.400152e+01"/><rect vector-effect="non-scaling-stroke" x="2.688000e+02" y="0" width="8.533333e+00" height="5.666300e+01"/><rect y="0" width="8.533333e+00" height="4.451239e+01" vector-effect="non-scaling-stroke" x="2.901333e+02"/><rect x="3.114667e+02" y="0" width="8.533333e+00" height="4.449560e+01" vector-effect="non-scaling-stroke"/><rect y="0" width="8.533333e+00" height="4.973832e+01" vector-effect="non-scaling-stroke" x="3.328000e+02"/><rect height="4.400479e+01" vector-effect="non-scaling-stroke" x="3.541333e+02" y="0" width="8.533333e+00"/><rect height="2.991718e+02" vector-effect="non-scaling-stroke" x="3.754667e+02" y="0" width="8.533333e+00"/><rect width="8.533333e+00" height="4.444118e+01" vector-effect="non-scaling-stroke" x="3.968000e+02" y="0"/><rect vector-effect="non-scaling-stroke" x="4.181333e+02" y="0" width="8.533333e+00" height="4.417130e+01"/><rect height="2.008991e+02" vector-effect="non-scaling-stroke" x="4.394667e+02" y="0" width="8.533333e+00"/><rect y="0" width="8.533333e+00" height="8.475022e+01" vector-effect="non-scaling-stroke" x="4.608000e+02"/><rect vector-effect="non-scaling-stroke" x="4.821333e+02" y="0" width="8.533333e+00" height="4.436183e+01"/><rect height="4.480357e+01" vector-effect="non-scaling-stroke" x="5.034667e+02" y="0" width="8.533333e+00"/><rect height="1.334696e+02" vector-effect="non-scaling-stroke" x="5.248000e+02" y="0" width="8.533333e+00"/><rect x="5.461333e+02" y="0" width="8.533333e+00" height="1.577017e+02" vector-effect="non-scaling-stroke"/><rect y="0" width="8.533333e+00" height="4.400268e+01" vector-effect="non-scaling-stroke" x="5.674667e+02"/></g><g fill="hsl(49, 88%, 65%)" stroke="hsl(49, 88%, 65%)" stroke-width="1px" stroke-linecap="round" stroke-linejoin="round" transform="translate(80 520 )scale(1 -1 )"><rect x="64" y="0" width="8.533333e+00" height="4.400997e+01" vector-effect="non-scaling-stroke"/><rect vector-effect="non-scaling-stroke" x="8.533333e+01" y="0" width="8.533333e+00" height="4.400095e+01"/><rect width="8.533333e+00" height="4.403394e+01" vector-effect="non-scaling-stroke" x="1.066667e+02" y="0"/><rect vector-effect="non-scaling-stroke" x="128" y="0" width="8.533333e+00" height="4.401103e+01"/><rect vector-effect="non-scaling-stroke" x="1.493333e+02" y="0" width="8.533333e+00" height="4.400748e+01"/><rect y="0" width="8.533333e+00" height="4.400951e+01" vector-effect="non-scaling-stroke" x="1.706667e+02"/><rect vector-effect="non-scaling-stroke" x="192" y="0" width="8.533333e+00" height="4.402152e+01"/><rect y="0" width="8.533333e+00" height="4.461991e+01" vector-effect="non-scaling-stroke" x="2.133333e+02"/><rect vector-effect="non-scaling-stroke" x="2.346667e+02" y="0" width="8.533333e+00" height="4.437397e+01"/><rect x="2.560000e+02" y="0" width="8.533333e+00" height="4.400086e+01" vector-effect="non-scaling-stroke"/><rect x="2.773333e+02" y="0" width="8.533333e+00" height="4.893107e+01" vector-effect="non-scaling-stroke"/><rect height="4.428880e+01" vector-effect="non-scaling-stroke" x="2.986667e+02" y="0" width="8.533333e+00"/><rect x="320" y="0" width="8.533333e+00" height="4.438805e+01" vector-effect="non-scaling-stroke"/><rect height="4.990534e+01" vector-effect="non-scaling-stroke" x="3.413333e+02" y="0" width="8.533333e+00"/><rect width="8.533333e+00" height="4.400208e+01" vector-effect="non-scaling-stroke" x="3.626667e+02" y="0"/><rect vector-effect="non-scaling-stroke" x="384" y="0" width="8.533333e+00" height="396"/><rect vector-effect="non-scaling-stroke" x="4.053333e+02" y="0" width="8.533333e+00" height="4.431308e+01"/><rect height="4.419827e+01" vector-effect="non-scaling-stroke" x="4.266667e+02" y="0" width="8.533333e+00"/><rect height="1.009466e+02" vector-effect="non-scaling-stroke" x="448" y="0" width="8.533333e+00"/><rect width="8.533333e+00" height="8.068301e+01" vector-effect="non-scaling-stroke" x="4.693333e+02" y="0"/><rect x="4.906667e+02" y="0" width="8.533333e+00" height="4.443939e+01" vector-effect="non-scaling-stroke"/><rect height="4.460012e+01" vector-effect="non-scaling-stroke" x="512" y="0" width="8.533333e+00"/><rect width="8.533333e+00" height="1.224267e+02" vector-effect="non-scaling-stroke" x="5.333333e+02" y="0"/><rect width="8.533333e+00" height="1.744698e+02" vector-effect="non-scaling-stroke" x="5.546667e+02" y="0"/><rect x="576" y="0" width="8.533333e+00" height="4.400597e+01" vector-effect="non-scaling-stroke"/></g><g font-style="normal" font-weight="normal" fill="hsl(198, 47%, 65%)" stroke="hsl(198, 47%, 65%)" stroke-linecap="round" stroke-linejoin="round" font-family="sans-serif" font-size="12px" text-anchor="start" dominant-baseline="hanging" stroke-width="1px"><rect x="736" y="484" width="12" height="12" vector-effect="non-scaling-stroke"/><g fill="black" stroke="black"><text y="484" dominant-baseline="hanging" stroke="none" vector-effect="non-scaling-stroke" x="752">Golang</text></g><g font-family="sans-serif" stroke-width="1px" stroke-linecap="round" fill="hsl(49, 88%, 65%)" dominant-baseline="hanging" font-style="normal" font-weight="normal" stroke-linejoin="round" text-anchor="start" stroke="hsl(49, 88%, 65%)" font-size="12px"><rect height="12" vector-effect="non-scaling-stroke" x="736" y="502" width="12"/><g stroke="black" fill="black"><text stroke="none" vector-effect="non-scaling-stroke" x="752" y="502" dominant-baseline="hanging">Rust</text><g stroke-linejoin="round" stroke-linecap="round" font-size="12px" font-style="normal" fill="none" stroke-width="2px" text-anchor="start" dominant-baseline="hanging" font-family="sans-serif" font-weight="normal"><rect vector-effect="non-scaling-stroke" x="80" y="80" width="640" height="440"/></g><g stroke-linecap="round" fill="none" font-family="sans-serif" font-style="normal" dominant-baseline="hanging" transform="translate(80 520 )scale(1 -1 )" stroke-linejoin="round" stroke="black" stroke-width="2px" text-anchor="start" font-size="12px" font-weight="normal"><path vector-effect="non-scaling-stroke" d="M64,0 L64,-6 M8.533333e+01,0 L8.533333e+01,-6 M1.066667e+02,0 L1.066667e+02,-6 M128,0 L128,-6 M1.493333e+02,0 L1.493333e+02,-6 M1.706667e+02,0 L1.706667e+02,-6 M192,0 L192,-6 M2.133333e+02,0 L2.133333e+02,-6 M2.346667e+02,0 L2.346667e+02,-6 M256,0 L256,-6 M2.773333e+02,0 L2.773333e+02,-6 M2.986667e+02,0 L2.986667e+02,-6 M320,0 L320,-6 M3.413333e+02,0 L3.413333e+02,-6 M3.626667e+02,0 L3.626667e+02,-6 M384,0 L384,-6 M4.053333e+02,0 L4.053333e+02,-6 M4.266667e+02,0 L4.266667e+02,-6 M448,0 L448,-6 M4.693333e+02,0 L4.693333e+02,-6 M4.906667e+02,0 L4.906667e+02,-6 M512,0 L512,-6 M5.333333e+02,0 L5.333333e+02,-6 M5.546667e+02,0 L5.546667e+02,-6 M576,0 L576,-6 "/></g><g stroke="black" stroke-linecap="round" text-anchor="middle" font-style="normal" font-weight="normal" dominant-baseline="hanging" transform="translate(80 520 )scale(1 1 )" fill="black" stroke-linejoin="round" font-family="sans-serif" font-size="12px" stroke-width="2px"><text stroke="none" vector-effect="non-scaling-stroke" x="64" y="10" dominant-baseline="hanging">1</text><text stroke="none" vector-effect="non-scaling-stroke" x="8.533333e+01" y="10" dominant-baseline="hanging">2</text><text y="10" dominant-baseline="hanging" stroke="none" vector-effect="non-scaling-stroke" x="1.066667e+02">3</text><text y="10" dominant-baseline="hanging" stroke="none" vector-effect="non-scaling-stroke" x="128">4</text><text x="1.493333e+02" y="10" dominant-baseline="hanging" stroke="none" vector-effect="non-scaling-stroke">5</text><text vector-effect="non-scaling-stroke" x="1.706667e+02" y="10" dominant-baseline="hanging" stroke="none">6</text><text vector-effect="non-scaling-stroke" x="192" y="10" dominant-baseline="hanging" stroke="none">7</text><text stroke="none" vector-effect="non-scaling-stroke" x="2.133333e+02" y="10" dominant-baseline="hanging">8</text><text stroke="none" vector-effect="non-scaling-stroke" x="2.346667e+02" y="10" dominant-baseline="hanging">9</text><text stroke="none" vector-effect="non-scaling-stroke" x="256" y="10" dominant-baseline="hanging">10</text><text vector-effect="non-scaling-stroke" x="2.773333e+02" y="10" dominant-baseline="hanging" stroke="none">11</text><text y="10" dominant-baseline="hanging" stroke="none" vector-effect="non-scaling-stroke" x="2.986667e+02">12</text><text stroke="none" vector-effect="non-scaling-stroke" x="320" y="10" dominant-baseline="hanging">13</text><text y="10" dominant-baseline="hanging" stroke="none" vector-effect="non-scaling-stroke" x="3.413333e+02">14</text><text stroke="none" vector-effect="non-scaling-stroke" x="3.626667e+02" y="10" dominant-baseline="hanging">15</text><text dominant-baseline="hanging" stroke="none" vector-effect="non-scaling-stroke" x="384" y="10">16</text><text x="4.053333e+02" y="10" dominant-baseline="hanging" stroke="none" vector-effect="non-scaling-stroke">17</text><text y="10" dominant-baseline="hanging" stroke="none" vector-effect="non-scaling-stroke" x="4.266667e+02">18</text><text stroke="none" vector-effect="non-scaling-stroke" x="448" y="10" dominant-baseline="hanging">19</text><text stroke="none" vector-effect="non-scaling-stroke" x="4.693333e+02" y="10" dominant-baseline="hanging">20</text><text x="4.906667e+02" y="10" dominant-baseline="hanging" stroke="none" vector-effect="non-scaling-stroke">21</text><text stroke="none" vector-effect="non-scaling-stroke" x="512" y="10" dominant-baseline="hanging">22</text><text y="10" dominant-baseline="hanging" stroke="none" vector-effect="non-scaling-stroke" x="5.333333e+02">23</text><text stroke="none" vector-effect="non-scaling-stroke" x="5.546667e+02" y="10" dominant-baseline="hanging">24</text><text stroke="none" vector-effect="non-scaling-stroke" x="576" y="10" dominant-baseline="hanging">25</text></g><g transform="translate(80 520 )scale(1 1 )rotate(0 0 0 )" stroke="black" stroke-linecap="round" font-family="sans-serif" font-style="normal" dominant-baseline="baseline" stroke-width="2px" text-anchor="middle" fill="black" font-size="12px" font-weight="bold" stroke-linejoin="round"><text stroke="none" vector-effect="non-scaling-stroke" x="320" y="-6" dominant-baseline="baseline">Day</text></g><g fill="black" stroke="black" stroke-width="2px" stroke-linecap="round" font-size="12px" font-style="normal" font-weight="bold" dominant-baseline="baseline" stroke-linejoin="round" font-family="sans-serif" transform="translate(80 520 )scale(1 -1 )" text-anchor="middle"><path vector-effect="non-scaling-stroke" d="M0,44 L-6,44 M0,1.335704e+02 L-6,1.335704e+02 M0,2.231407e+02 L-6,2.231407e+02 M0,3.127111e+02 L-6,3.127111e+02 "/></g><g transform="translate(80 520 )scale(1 1 )" font-size="12px" font-weight="normal" stroke-width="2px" stroke-linecap="round" text-anchor="end" stroke-linejoin="round" font-family="sans-serif" font-style="normal" dominant-baseline="middle" fill="black" stroke="black"><text vector-effect="non-scaling-stroke" x="-10" y="-44" dominant-baseline="middle" stroke="none">0s</text><text x="-10" y="-1.335704e+02" dominant-baseline="middle" stroke="none" vector-effect="non-scaling-stroke">100ms</text><text stroke="none" vector-effect="non-scaling-stroke" x="-10" y="-2.231407e+02" dominant-baseline="middle">200ms</text><text x="-10" y="-3.127111e+02" dominant-baseline="middle" stroke="none" vector-effect="non-scaling-stroke">300ms</text></g><g stroke-linecap="round" stroke-width="2px" transform="translate(80 520 )scale(1 1 )rotate(-90 0 0 )" font-family="sans-serif" text-anchor="middle" fill="black" stroke="black" font-style="normal" font-weight="bold" dominant-baseline="hanging" stroke-linejoin="round" font-size="12px"><text vector-effect="non-scaling-stroke" x="220" y="6" dominant-baseline="hanging" stroke="none">Runtime</text></g></g></g></g></svg>