<svg width="800" height="600" viewbox="0 0 800 600" preserveAspectRatio="xMidYMid meet" xmlns="http://www.w3.org/2000/svg"><defs><marker viewBox="0 0 10 10 " refX="5" refY="5" markerUnits="userSpaceOnUse" markerWidth="2%" markerHeight="2%" id="circle"><circle r="3" fill="none" stroke="black" cx="5" cy="5"/></marker><marker markerUnits="userSpaceOnUse" markerWidth="2%" markerHeight="2%" id="filled-circle" viewBox="0 0 10 10 " refX="5" refY="5"><circle stroke="none" cx="5" cy="5" r="3" fill="black"/></marker><marker markerWidth="2%" markerHeight="2%" id="square" viewBox="0 0 10 10 " refX="5" refY="5" markerUnits="userSpaceOnUse"><rect x="2" y="2" width="6" height="6" fill="none" stroke="black"/></marker><marker id="filled-square" viewBox="0 0 10 10 " refX="5" refY="5" markerUnits="userSpaceOnUse" markerWidth="2%" markerHeight="2%"><rect width="6" height="6" fill="black" stroke="none" x="2" y="2"/></marker></defs><g stroke="hsl(198, 47%, 65%)" stroke-width="1px" stroke-linecap="round" stroke-linejoin="round" transform="translate(80 520 )scale(1 -1 )" fill="hsl(198, 47%, 65%)"><rect height="8.404577e+01" vector-effect="non-scaling-stroke" x="3.650000e+01" y="0" width="2.750000e+01"/><rect vector-effect="non-scaling-stroke" x="5.783333e+01" y="0" width="2.750000e+01" height="396"/></g><g stroke-width="1px" stroke-linecap="round" stroke-linejoin="round" transform="translate(80 520 )scale(1 -1 )" fill="hsl(49, 88%, 65%)" stroke="hsl(49, 88%, 65%)"><rect height="7.473378e+01" vector-effect="non-scaling-stroke" x="64" y="0" width="2.750000e+01"/></g><g stroke="hsl(198, 47%, 65%)" font-family="sans-serif" dominant-baseline="hanging" stroke-width="1px" stroke-linejoin="round" font-style="normal" text-anchor="start" font-weight="normal" fill="hsl(198, 47%, 65%)" stroke-linecap="round" font-size="12px"><rect vector-effect="non-scaling-stroke" x="736" y="484" width="12" height="12"/><g fill="black" stroke="black"><text vector-effect="non-scaling-stroke" x="752" y="484" dominant-baseline="hanging" stroke="none">Golang</text></g><g text-anchor="start" font-weight="normal" dominant-baseline="hanging" stroke-linejoin="round" stroke="hsl(49, 88%, 65%)" font-style="normal" fill="hsl(49, 88%, 65%)" stroke-width="1px" stroke-linecap="round" font-size="12px" font-family="sans-serif"><rect y="502" width="12" height="12" vector-effect="non-scaling-stroke" x="736"/><g stroke="black" fill="black"><text dominant-baseline="hanging" stroke="none" vector-effect="non-scaling-stroke" x="752" y="502">Rust</text><g font-family="sans-serif" dominant-baseline="hanging" font-size="12px" text-anchor="start" font-style="normal" fill="none" stroke-linecap="round" stroke-linejoin="round" stroke-width="2px" font-weight="normal"><rect width="640" height="440" vector-effect="non-scaling-stroke" x="80" y="80"/></g><g text-anchor="start" transform="translate(80 520 )scale(1 -1 )" font-size="12px" font-weight="normal" stroke="black" font-family="sans-serif" stroke-width="2px" stroke-linecap="round" stroke-linejoin="round" dominant-baseline="hanging" font-style="normal" fill="none"><path d="M64,0 L64,-6 M8.533333e+01,0 L8.533333e+01,-6 " vector-effect="non-scaling-stroke"/></g><g font-family="sans-serif" font-style="normal" text-anchor="middle" fill="black" stroke-linejoin="round" dominant-baseline="hanging" stroke="black" transform="translate(80 520 )scale(1 1 )" stroke-width="2px" stroke-linecap="round" font-size="12px" font-weight="normal"><text x="64" y="10" dominant-baseline="hanging" stroke="none" vector-effect="non-scaling-stroke">1</text><text vector-effect="non-scaling-stroke" x="8.533333e+01" y="10" dominant-baseline="hanging" stroke="none">2</text></g><g fill="black" stroke-width="2px" stroke-linecap="round" stroke-linejoin="round" stroke="black" font-family="sans-serif" font-style="normal" text-anchor="middle" font-size="12px" font-weight="bold" dominant-baseline="baseline" transform="translate(80 520 )scale(1 1 )rotate(0 0 0 )"><text vector-effect="non-scaling-stroke" x="320" y="-6" dominant-baseline="baseline" stroke="none">Day</text></g><g stroke="black" font-style="normal" transform="translate(80 520 )scale(1 -1 )" stroke-linecap="round" stroke-linejoin="round" stroke-width="2px" font-size="12px" font-family="sans-serif" text-anchor="middle" font-weight="bold" dominant-baseline="baseline" fill="black"><path d="M0,44 L-6,44 M0,1.078332e+02 L-6,1.078332e+02 M0,1.716664e+02 L-6,1.716664e+02 M0,2.354997e+02 L-6,2.354997e+02 M0,2.993329e+02 L-6,2.993329e+02 M0,3.631661e+02 L-6,3.631661e+02 " vector-effect="non-scaling-stroke"/></g><g transform="translate(80 520 )scale(1 1 )" stroke-width="2px" stroke-linecap="round" font-size="12px" font-weight="normal" font-family="sans-serif" font-style="normal" dominant-baseline="middle" text-anchor="end" stroke-linejoin="round" stroke="black" fill="black"><text x="-10" y="-44" dominant-baseline="middle" stroke="none" vector-effect="non-scaling-stroke">0s</text><text x="-10" y="-1.078332e+02" dominant-baseline="middle" stroke="none" vector-effect="non-scaling-stroke">100µs</text><text dominant-baseline="middle" stroke="none" vector-effect="non-scaling-stroke" x="-10" y="-1.716664e+02">200µs</text><text vector-effect="non-scaling-stroke" x="-10" y="-2.354997e+02" dominant-baseline="middle" stroke="none">300µs</text><text x="-10" y="-2.993329e+02" dominant-baseline="middle" stroke="none" vector-effect="non-scaling-stroke">400µs</text><text vector-effect="non-scaling-stroke" x="-10" y="-3.631661e+02" dominant-baseline="middle" stroke="none">500µs</text></g><g transform="translate(80 520 )scale(1 1 )rotate(-90 0 0 )" stroke="black" font-family="sans-serif" stroke-width="2px" stroke-linejoin="round" font-size="12px" dominant-baseline="hanging" text-anchor="middle" fill="black" stroke-linecap="round" font-weight="bold" font-style="normal"><text vector-effect="non-scaling-stroke" x="220" y="6" dominant-baseline="hanging" stroke="none">Runtime</text></g></g></g></g></svg>