<svg preserveAspectRatio="xMidYMid meet" xmlns="http://www.w3.org/2000/svg" width="800" height="600" viewbox="0 0 800 600"><defs><marker viewBox="0 0 10 10 " refX="5" refY="5" markerUnits="userSpaceOnUse" markerWidth="2%" markerHeight="2%" id="circle"><circle cy="5" r="3" fill="none" stroke="black" cx="5"/></marker><marker id="filled-circle" viewBox="0 0 10 10 " refX="5" refY="5" markerUnits="userSpaceOnUse" markerWidth="2%" markerHeight="2%"><circle stroke="none" cx="5" cy="5" r="3" fill="black"/></marker><marker refX="5" refY="5" markerUnits="userSpaceOnUse" markerWidth="2%" markerHeight="2%" id="square" viewBox="0 0 10 10 "><rect fill="none" stroke="black" x="2" y="2" width="6" height="6"/></marker><marker markerWidth="2%" markerHeight="2%" id="filled-square" viewBox="0 0 10 10 " refX="5" refY="5" markerUnits="userSpaceOnUse"><rect width="6" height="6" fill="black" stroke="none" x="2" y="2"/></marker></defs><g transform="translate(80 520 )scale(1 -1 )" fill="hsl(198, 47%, 65%)" stroke="hsl(198, 47%, 65%)" stroke-width="1px" stroke-linecap="round" stroke-linejoin="round"><rect vector-effect="non-scaling-stroke" x="5.546667e+01" y="0" width="3.413333e+00" height="4.409315e+01"/><rect vector-effect="non-scaling-stroke" x="7.680000e+01" y="0" width="3.413333e+00" height="4.402501e+01"/><rect x="9.813333e+01" y="0" width="3.413333e+00" height="4.405470e+01" vector-effect="non-scaling-stroke"/></g><g stroke-linecap="round" stroke-linejoin="round" transform="translate(80 520 )scale(1 -1 )" fill="hsl(49, 88%, 65%)" stroke="hsl(49, 88%, 65%)" stroke-width="1px"><rect x="5.888000e+01" y="0" width="3.413333e+00" height="4.400642e+01" vector-effect="non-scaling-stroke"/><rect vector-effect="non-scaling-stroke" x="8.021333e+01" y="0" width="3.413333e+00" height="4.400031e+01"/><rect x="1.015467e+02" y="0" width="3.413333e+00" height="4.401121e+01" vector-effect="non-scaling-stroke"/><rect height="4.401668e+01" vector-effect="non-scaling-stroke" x="1.228800e+02" y="0" width="3.413333e+00"/><rect width="3.413333e+00" height="4.426257e+01" vector-effect="non-scaling-stroke" x="1.442133e+02" y="0"/><rect vector-effect="non-scaling-stroke" x="1.655467e+02" y="0" width="3.413333e+00" height="4.400050e+01"/><rect height="4.402255e+01" vector-effect="non-scaling-stroke" x="1.868800e+02" y="0" width="3.413333e+00"/><rect width="3.413333e+00" height="4.405450e+01" vector-effect="non-scaling-stroke" x="2.082133e+02" y="0"/><rect width="3.413333e+00" height="4.421195e+01" vector-effect="non-scaling-stroke" x="2.295467e+02" y="0"/><rect vector-effect="non-scaling-stroke" x="2.508800e+02" y="0" width="3.413333e+00" height="4.401382e+01"/><rect vector-effect="non-scaling-stroke" x="2.722133e+02" y="0" width="3.413333e+00" height="4.416264e+01"/><rect vector-effect="non-scaling-stroke" x="2.935467e+02" y="0" width="3.413333e+00" height="4.422936e+01"/><rect vector-effect="non-scaling-stroke" x="3.148800e+02" y="0" width="3.413333e+00" height="4.407771e+01"/><rect y="0" width="3.413333e+00" height="4.407796e+01" vector-effect="non-scaling-stroke" x="3.362133e+02"/><rect width="3.413333e+00" height="5.614084e+01" vector-effect="non-scaling-stroke" x="3.575467e+02" y="0"/><rect y="0" width="3.413333e+00" height="4.400571e+01" vector-effect="non-scaling-stroke" x="3.788800e+02"/><rect vector-effect="non-scaling-stroke" x="4.002133e+02" y="0" width="3.413333e+00" height="4.455433e+01"/><rect vector-effect="non-scaling-stroke" x="4.215467e+02" y="0" width="3.413333e+00" height="5.543148e+01"/><rect height="2.591784e+02" vector-effect="non-scaling-stroke" x="4.428800e+02" y="0" width="3.413333e+00"/><rect width="3.413333e+00" height="5.017305e+01" vector-effect="non-scaling-stroke" x="4.642133e+02" y="0"/><rect vector-effect="non-scaling-stroke" x="4.855467e+02" y="0" width="3.413333e+00" height="4.446531e+01"/><rect width="3.413333e+00" height="4.613271e+01" vector-effect="non-scaling-stroke" x="5.068800e+02" y="0"/><rect vector-effect="non-scaling-stroke" x="5.282133e+02" y="0" width="3.413333e+00" height="1.614455e+02"/><rect width="3.413333e+00" height="4.400087e+01" vector-effect="non-scaling-stroke" x="5.495467e+02" y="0"/><rect width="3.413333e+00" height="5.588114e+01" vector-effect="non-scaling-stroke" x="5.708800e+02" y="0"/></g><g stroke="hsl(260, 76%, 65%)" stroke-width="1px" stroke-linecap="round" stroke-linejoin="round" transform="translate(80 520 )scale(1 -1 )" fill="hsl(260, 76%, 65%)"><rect width="3.413333e+00" height="4.458379e+01" vector-effect="non-scaling-stroke" x="6.229333e+01" y="0"/><rect x="8.362667e+01" y="0" width="3.413333e+00" height="4.462857e+01" vector-effect="non-scaling-stroke"/><rect vector-effect="non-scaling-stroke" x="1.049600e+02" y="0" width="3.413333e+00" height="4.484254e+01"/><rect x="1.262933e+02" y="0" width="3.413333e+00" height="4.403621e+01" vector-effect="non-scaling-stroke"/></g><g stroke-width="1px" stroke-linecap="round" stroke-linejoin="round" transform="translate(80 520 )scale(1 -1 )" fill="hsl(111, 64%, 65%)" stroke="hsl(111, 64%, 65%)"><rect vector-effect="non-scaling-stroke" x="6.570667e+01" y="0" width="3.413333e+00" height="4.400615e+01"/><rect height="4.400038e+01" vector-effect="non-scaling-stroke" x="8.704000e+01" y="0" width="3.413333e+00"/><rect y="0" width="3.413333e+00" height="4.400944e+01" vector-effect="non-scaling-stroke" x="1.083733e+02"/><rect vector-effect="non-scaling-stroke" x="1.297067e+02" y="0" width="3.413333e+00" height="4.402659e+01"/><rect width="3.413333e+00" height="4.424234e+01" vector-effect="non-scaling-stroke" x="1.510400e+02" y="0"/><rect x="1.723733e+02" y="0" width="3.413333e+00" height="4.400037e+01" vector-effect="non-scaling-stroke"/><rect vector-effect="non-scaling-stroke" x="1.937067e+02" y="0" width="3.413333e+00" height="4.400802e+01"/><rect vector-effect="non-scaling-stroke" x="2.150400e+02" y="0" width="3.413333e+00" height="4.401088e+01"/><rect y="0" width="3.413333e+00" height="4.404841e+01" vector-effect="non-scaling-stroke" x="2.363733e+02"/><rect x="2.577067e+02" y="0" width="3.413333e+00" height="4.401452e+01" vector-effect="non-scaling-stroke"/><rect vector-effect="non-scaling-stroke" x="2.790400e+02" y="0" width="3.413333e+00" height="4.405486e+01"/><rect vector-effect="non-scaling-stroke" x="3.003733e+02" y="0" width="3.413333e+00" height="4.595231e+01"/><rect x="3.217067e+02" y="0" width="3.413333e+00" height="4.411646e+01" vector-effect="non-scaling-stroke"/><rect y="0" width="3.413333e+00" height="4.400769e+01" vector-effect="non-scaling-stroke" x="3.430400e+02"/><rect width="3.413333e+00" height="7.083973e+01" vector-effect="non-scaling-stroke" x="3.643733e+02" y="0"/><rect vector-effect="non-scaling-stroke" x="3.857067e+02" y="0" width="3.413333e+00" height="4.400314e+01"/><rect height="4.443373e+01" vector-effect="non-scaling-stroke" x="4.070400e+02" y="0" width="3.413333e+00"/><rect width="3.413333e+00" height="5.482051e+01" vector-effect="non-scaling-stroke" x="4.283733e+02" y="0"/><rect vector-effect="non-scaling-stroke" x="4.497067e+02" y="0" width="3.413333e+00" height="4.868547e+01"/><rect vector-effect="non-scaling-stroke" x="4.710400e+02" y="0" width="3.413333e+00" height="5.266727e+01"/><rect x="4.923733e+02" y="0" width="3.413333e+00" height="4.400038e+01" vector-effect="non-scaling-stroke"/><rect x="5.137067e+02" y="0" width="3.413333e+00" height="4.783932e+01" vector-effect="non-scaling-stroke"/><rect height="396" vector-effect="non-scaling-stroke" x="5.350400e+02" y="0" width="3.413333e+00"/><rect y="0" width="3.413333e+00" height="4.400340e+01" vector-effect="non-scaling-stroke" x="5.563733e+02"/><rect width="3.413333e+00" height="5.293710e+01" vector-effect="non-scaling-stroke" x="5.777067e+02" y="0"/></g><g stroke="hsl(322, 52%, 65%)" stroke-width="1px" stroke-linecap="round" stroke-linejoin="round" transform="translate(80 520 )scale(1 -1 )" fill="hsl(322, 52%, 65%)"><rect vector-effect="non-scaling-stroke" x="6.912000e+01" y="0" width="3.413333e+00" height="4.400349e+01"/><rect vector-effect="non-scaling-stroke" x="9.045333e+01" y="0" width="3.413333e+00" height="4.400025e+01"/><rect vector-effect="non-scaling-stroke" x="1.117867e+02" y="0" width="3.413333e+00" height="4.401801e+01"/><rect vector-effect="non-scaling-stroke" x="1.331200e+02" y="0" width="3.413333e+00" height="4.401259e+01"/><rect vector-effect="non-scaling-stroke" x="1.544533e+02" y="0" width="3.413333e+00" height="4.425572e+01"/><rect y="0" width="3.413333e+00" height="4.400025e+01" vector-effect="non-scaling-stroke" x="1.757867e+02"/><rect width="3.413333e+00" height="4.401291e+01" vector-effect="non-scaling-stroke" x="1.971200e+02" y="0"/><rect height="4.450003e+01" vector-effect="non-scaling-stroke" x="2.184533e+02" y="0" width="3.413333e+00"/><rect vector-effect="non-scaling-stroke" x="2.397867e+02" y="0" width="3.413333e+00" height="4.406488e+01"/><rect x="2.611200e+02" y="0" width="3.413333e+00" height="4.401239e+01" vector-effect="non-scaling-stroke"/><rect vector-effect="non-scaling-stroke" x="2.824533e+02" y="0" width="3.413333e+00" height="4.404978e+01"/><rect vector-effect="non-scaling-stroke" x="3.037867e+02" y="0" width="3.413333e+00" height="4.406244e+01"/><rect x="3.251200e+02" y="0" width="3.413333e+00" height="4.409183e+01" vector-effect="non-scaling-stroke"/><rect vector-effect="non-scaling-stroke" x="3.464533e+02" y="0" width="3.413333e+00" height="4.403234e+01"/><rect height="4.919787e+01" vector-effect="non-scaling-stroke" x="3.677867e+02" y="0" width="3.413333e+00"/><rect x="3.891200e+02" y="0" width="3.413333e+00" height="4.412077e+01" vector-effect="non-scaling-stroke"/><rect x="4.104533e+02" y="0" width="3.413333e+00" height="4.439939e+01" vector-effect="non-scaling-stroke"/><rect y="0" width="3.413333e+00" height="4.793687e+01" vector-effect="non-scaling-stroke" x="4.317867e+02"/><rect vector-effect="non-scaling-stroke" x="4.957867e+02" y="0" width="3.413333e+00" height="4.410220e+01"/></g><g stroke-width="1px" stroke-linecap="round" font-size="12px" text-anchor="start" fill="hsl(198, 47%, 65%)" dominant-baseline="hanging" stroke="hsl(198, 47%, 65%)" font-family="sans-serif" font-weight="normal" stroke-linejoin="round" font-style="normal"><rect height="12" vector-effect="non-scaling-stroke" x="736" y="430" width="12"/><g stroke="black" fill="black"><text stroke="none" vector-effect="non-scaling-stroke" x="752" y="430" dominant-baseline="hanging">Crystal</text></g><g dominant-baseline="hanging" text-anchor="start" stroke="hsl(49, 88%, 65%)" stroke-linecap="round" font-family="sans-serif" fill="hsl(49, 88%, 65%)" stroke-linejoin="round" font-style="normal" font-weight="normal" stroke-width="1px" font-size="12px"><rect x="736" y="448" width="12" height="12" vector-effect="non-scaling-stroke"/><g fill="black" stroke="black"><text stroke="none" vector-effect="non-scaling-stroke" x="752" y="448" dominant-baseline="hanging">Golang</text></g><g dominant-baseline="hanging" stroke="hsl(260, 76%, 65%)" font-weight="normal" stroke-width="1px" stroke-linecap="round" font-family="sans-serif" font-size="12px" text-anchor="start" fill="hsl(260, 76%, 65%)" stroke-linejoin="round" font-style="normal"><rect x="736" y="466" width="12" height="12" vector-effect="non-scaling-stroke"/><g fill="black" stroke="black"><text vector-effect="non-scaling-stroke" x="752" y="466" dominant-baseline="hanging" stroke="none">Haskell</text></g><g stroke="hsl(111, 64%, 65%)" stroke-width="1px" text-anchor="start" fill="hsl(111, 64%, 65%)" stroke-linejoin="round" font-style="normal" dominant-baseline="hanging" stroke-linecap="round" font-family="sans-serif" font-size="12px" font-weight="normal"><rect height="12" vector-effect="non-scaling-stroke" x="736" y="484" width="12"/><g stroke="black" fill="black"><text stroke="none" vector-effect="non-scaling-stroke" x="752" y="484" dominant-baseline="hanging">Rust</text></g><g text-anchor="start" fill="hsl(322, 52%, 65%)" stroke-linejoin="round" font-style="normal" dominant-baseline="hanging" stroke="hsl(322, 52%, 65%)" font-family="sans-serif" font-weight="normal" stroke-width="1px" stroke-linecap="round" font-size="12px"><rect y="502" width="12" height="12" vector-effect="non-scaling-stroke" x="736"/><g stroke="black" fill="black"><text x="752" y="502" dominant-baseline="hanging" stroke="none" vector-effect="non-scaling-stroke">Zig</text><g text-anchor="start" stroke-linejoin="round" stroke-width="2px" font-style="normal" font-family="sans-serif" font-size="12px" font-weight="normal" stroke-linecap="round" fill="none" dominant-baseline="hanging"><rect y="80" width="640" height="440" vector-effect="non-scaling-stroke" x="80"/></g><g font-family="sans-serif" font-size="12px" font-weight="normal" text-anchor="start" fill="none" stroke-linejoin="round" font-style="normal" stroke-width="2px" stroke-linecap="round" dominant-baseline="hanging" transform="translate(80 520 )scale(1 -1 )" stroke="black"><path vector-effect="non-scaling-stroke" d="M64,0 L64,-6 M8.533333e+01,0 L8.533333e+01,-6 M1.066667e+02,0 L1.066667e+02,-6 "/></g><g fill="black" font-family="sans-serif" text-anchor="middle" font-weight="normal" stroke-linejoin="round" font-style="normal" dominant-baseline="hanging" transform="translate(80 520 )scale(1 1 )" stroke-width="2px" stroke-linecap="round" font-size="12px" stroke="black"><text dominant-baseline="hanging" stroke="none" vector-effect="non-scaling-stroke" x="64" y="10">1</text><text dominant-baseline="hanging" stroke="none" vector-effect="non-scaling-stroke" x="8.533333e+01" y="10">2</text><text y="10" dominant-baseline="hanging" stroke="none" vector-effect="non-scaling-stroke" x="1.066667e+02">3</text></g><g stroke-linejoin="round" dominant-baseline="baseline" stroke-width="2px" stroke-linecap="round" font-family="sans-serif" font-size="12px" font-weight="bold" text-anchor="middle" transform="translate(80 520 )scale(1 1 )rotate(0 0 0 )" fill="black" stroke="black" font-style="normal"><text dominant-baseline="baseline" stroke="none" vector-effect="non-scaling-stroke" x="320" y="-6">Day</text></g><g font-family="sans-serif" stroke="black" stroke-width="2px" dominant-baseline="baseline" font-style="normal" font-size="12px" font-weight="bold" text-anchor="middle" stroke-linecap="round" transform="translate(80 520 )scale(1 -1 )" fill="black" stroke-linejoin="round"><path vector-effect="non-scaling-stroke" d="M0,44 L-6,44 M0,8.923721e+01 L-6,8.923721e+01 M0,1.344744e+02 L-6,1.344744e+02 M0,1.797116e+02 L-6,1.797116e+02 M0,2.249488e+02 L-6,2.249488e+02 M0,2.701860e+02 L-6,2.701860e+02 M0,3.154233e+02 L-6,3.154233e+02 M0,3.606605e+02 L-6,3.606605e+02 "/></g><g stroke-linejoin="round" font-weight="normal" stroke="black" transform="translate(80 520 )scale(1 1 )" fill="black" font-family="sans-serif" font-size="12px" text-anchor="end" stroke-width="2px" stroke-linecap="round" dominant-baseline="middle" font-style="normal"><text x="-10" y="-44" dominant-baseline="middle" stroke="none" vector-effect="non-scaling-stroke">0s</text><text x="-10" y="-8.923721e+01" dominant-baseline="middle" stroke="none" vector-effect="non-scaling-stroke">200ms</text><text stroke="none" vector-effect="non-scaling-stroke" x="-10" y="-1.344744e+02" dominant-baseline="middle">400ms</text><text x="-10" y="-1.797116e+02" dominant-baseline="middle" stroke="none" vector-effect="non-scaling-stroke">600ms</text><text x="-10" y="-2.249488e+02" dominant-baseline="middle" stroke="none" vector-effect="non-scaling-stroke">800ms</text><text dominant-baseline="middle" stroke="none" vector-effect="non-scaling-stroke" x="-10" y="-2.701860e+02">1s</text><text dominant-baseline="middle" stroke="none" vector-effect="non-scaling-stroke" x="-10" y="-3.154233e+02">1.2s</text><text stroke="none" vector-effect="non-scaling-stroke" x="-10" y="-3.606605e+02" dominant-baseline="middle">1.4s</text></g><g font-weight="bold" stroke="black" stroke-linejoin="round" transform="translate(80 520 )scale(1 1 )rotate(-90 0 0 )" stroke-linecap="round" font-family="sans-serif" font-size="12px" text-anchor="middle" font-style="normal" dominant-baseline="hanging" fill="black" stroke-width="2px"><text dominant-baseline="hanging" stroke="none" vector-effect="non-scaling-stroke" x="220" y="6">Runtime</text></g></g></g></g></g></g></g></svg>