<svg width="800" height="600" viewbox="0 0 800 600" preserveAspectRatio="xMidYMid meet" xmlns="http://www.w3.org/2000/svg"><defs><marker id="circle" viewBox="0 0 10 10 " refX="5" refY="5" markerUnits="userSpaceOnUse" markerWidth="2%" markerHeight="2%"><circle r="3" fill="none" stroke="black" cx="5" cy="5"/></marker><marker markerHeight="2%" id="filled-circle" viewBox="0 0 10 10 " refX="5" refY="5" markerUnits="userSpaceOnUse" markerWidth="2%"><circle cx="5" cy="5" r="3" fill="black" stroke="none"/></marker><marker refY="5" markerUnits="userSpaceOnUse" markerWidth="2%" markerHeight="2%" id="square" viewBox="0 0 10 10 " refX="5"><rect stroke="black" x="2" y="2" width="6" height="6" fill="none"/></marker><marker markerHeight="2%" id="filled-square" viewBox="0 0 10 10 " refX="5" refY="5" markerUnits="userSpaceOnUse" markerWidth="2%"><rect height="6" fill="black" stroke="none" x="2" y="2" width="6"/></marker></defs><g stroke-linejoin="round" transform="translate(80 520 )scale(1 -1 )" fill="hsl(198, 47%, 65%)" stroke="hsl(198, 47%, 65%)" stroke-width="1px" stroke-linecap="round"><rect height="396" vector-effect="non-scaling-stroke" x="3.650000e+01" y="0" width="1.833333e+01"/><rect vector-effect="non-scaling-stroke" x="5.783333e+01" y="0" width="1.833333e+01" height="5.655763e+01"/></g><g stroke="hsl(49, 88%, 65%)" stroke-width="1px" stroke-linecap="round" stroke-linejoin="round" transform="translate(80 520 )scale(1 -1 )" fill="hsl(49, 88%, 65%)"><rect height="2.163614e+02" vector-effect="non-scaling-stroke" x="5.483333e+01" y="0" width="1.833333e+01"/><rect height="4.844838e+01" vector-effect="non-scaling-stroke" x="7.616667e+01" y="0" width="1.833333e+01"/></g><g stroke="hsl(260, 76%, 65%)" stroke-width="1px" stroke-linecap="round" stroke-linejoin="round" transform="translate(80 520 )scale(1 -1 )" fill="hsl(260, 76%, 65%)"><rect x="7.316667e+01" y="0" width="1.833333e+01" height="1.815823e+02" vector-effect="non-scaling-stroke"/></g><g stroke-linecap="round" stroke-linejoin="round" font-size="12px" font-style="normal" text-anchor="start" font-weight="normal" dominant-baseline="hanging" stroke-width="1px" fill="hsl(198, 47%, 65%)" stroke="hsl(198, 47%, 65%)" font-family="sans-serif"><rect y="466" width="12" height="12" vector-effect="non-scaling-stroke" x="736"/><g fill="black" stroke="black"><text stroke="none" vector-effect="non-scaling-stroke" x="752" y="466" dominant-baseline="hanging">Golang</text></g><g stroke="hsl(49, 88%, 65%)" stroke-width="1px" font-family="sans-serif" font-weight="normal" fill="hsl(49, 88%, 65%)" text-anchor="start" stroke-linecap="round" stroke-linejoin="round" font-size="12px" dominant-baseline="hanging" font-style="normal"><rect x="736" y="484" width="12" height="12" vector-effect="non-scaling-stroke"/><g stroke="black" fill="black"><text stroke="none" vector-effect="non-scaling-stroke" x="752" y="484" dominant-baseline="hanging">Rust</text></g><g text-anchor="start" font-weight="normal" dominant-baseline="hanging" stroke-width="1px" stroke-linejoin="round" stroke-linecap="round" fill="hsl(260, 76%, 65%)" stroke="hsl(260, 76%, 65%)" font-style="normal" font-family="sans-serif" font-size="12px"><rect height="12" vector-effect="non-scaling-stroke" x="736" y="502" width="12"/><g stroke="black" fill="black"><text y="502" dominant-baseline="hanging" stroke="none" vector-effect="non-scaling-stroke" x="752">Zig</text><g fill="none" stroke-linejoin="round" font-family="sans-serif" font-weight="normal" dominant-baseline="hanging" font-style="normal" stroke-width="2px" stroke-linecap="round" font-size="12px" text-anchor="start"><rect vector-effect="non-scaling-stroke" x="80" y="80" width="640" height="440"/></g><g font-weight="normal" fill="none" stroke="black" font-style="normal" text-anchor="start" dominant-baseline="hanging" stroke-linejoin="round" font-family="sans-serif" font-size="12px" transform="translate(80 520 )scale(1 -1 )" stroke-width="2px" stroke-linecap="round"><path vector-effect="non-scaling-stroke" d="M64,0 L64,-6 M8.533333e+01,0 L8.533333e+01,-6 "/></g><g font-size="12px" stroke="black" text-anchor="middle" stroke-linecap="round" stroke-linejoin="round" font-weight="normal" dominant-baseline="hanging" transform="translate(80 520 )scale(1 1 )" fill="black" font-style="normal" stroke-width="2px" font-family="sans-serif"><text dominant-baseline="hanging" stroke="none" vector-effect="non-scaling-stroke" x="64" y="10">1</text><text stroke="none" vector-effect="non-scaling-stroke" x="8.533333e+01" y="10" dominant-baseline="hanging">2</text></g><g dominant-baseline="baseline" stroke-linecap="round" stroke-linejoin="round" font-family="sans-serif" font-size="12px" stroke="black" text-anchor="middle" transform="translate(80 520 )scale(1 1 )rotate(0 0 0 )" stroke-width="2px" font-weight="bold" fill="black" font-style="normal"><text x="320" y="-6" dominant-baseline="baseline" stroke="none" vector-effect="non-scaling-stroke">Day</text></g><g stroke-linejoin="round" font-family="sans-serif" font-size="12px" font-weight="bold" transform="translate(80 520 )scale(1 -1 )" font-style="normal" fill="black" stroke-linecap="round" dominant-baseline="baseline" stroke-width="2px" stroke="black" text-anchor="middle"><path d="M0,44 L-6,44 M0,8.114726e+01 L-6,8.114726e+01 M0,1.182945e+02 L-6,1.182945e+02 M0,1.554418e+02 L-6,1.554418e+02 M0,1.925890e+02 L-6,1.925890e+02 M0,2.297363e+02 L-6,2.297363e+02 M0,2.668836e+02 L-6,2.668836e+02 M0,3.040308e+02 L-6,3.040308e+02 M0,3.411781e+02 L-6,3.411781e+02 M0,3.783253e+02 L-6,3.783253e+02 " vector-effect="non-scaling-stroke"/></g><g font-weight="normal" transform="translate(80 520 )scale(1 1 )" stroke-width="2px" stroke-linecap="round" font-style="normal" text-anchor="end" font-family="sans-serif" font-size="12px" dominant-baseline="middle" fill="black" stroke="black" stroke-linejoin="round"><text stroke="none" vector-effect="non-scaling-stroke" x="-10" y="-44" dominant-baseline="middle">0s</text><text dominant-baseline="middle" stroke="none" vector-effect="non-scaling-stroke" x="-10" y="-8.114726e+01">20µs</text><text vector-effect="non-scaling-stroke" x="-10" y="-1.182945e+02" dominant-baseline="middle" stroke="none">40µs</text><text y="-1.554418e+02" dominant-baseline="middle" stroke="none" vector-effect="non-scaling-stroke" x="-10">60µs</text><text stroke="none" vector-effect="non-scaling-stroke" x="-10" y="-1.925890e+02" dominant-baseline="middle">80µs</text><text stroke="none" vector-effect="non-scaling-stroke" x="-10" y="-2.297363e+02" dominant-baseline="middle">100µs</text><text stroke="none" vector-effect="non-scaling-stroke" x="-10" y="-2.668836e+02" dominant-baseline="middle">120µs</text><text y="-3.040308e+02" dominant-baseline="middle" stroke="none" vector-effect="non-scaling-stroke" x="-10">140µs</text><text x="-10" y="-3.411781e+02" dominant-baseline="middle" stroke="none" vector-effect="non-scaling-stroke">160µs</text><text stroke="none" vector-effect="non-scaling-stroke" x="-10" y="-3.783253e+02" dominant-baseline="middle">180µs</text></g><g stroke="black" text-anchor="middle" dominant-baseline="hanging" font-family="sans-serif" font-size="12px" fill="black" font-style="normal" font-weight="bold" transform="translate(80 520 )scale(1 1 )rotate(-90 0 0 )" stroke-width="2px" stroke-linecap="round" stroke-linejoin="round"><text stroke="none" vector-effect="non-scaling-stroke" x="220" y="6" dominant-baseline="hanging">Runtime</text></g></g></g></g></g></svg>