<svg preserveAspectRatio="xMidYMid meet" xmlns="http://www.w3.org/2000/svg" width="800" height="600" viewbox="0 0 800 600"><defs><marker viewBox="0 0 10 10 " refX="5" refY="5" markerUnits="userSpaceOnUse" markerWidth="2%" markerHeight="2%" id="circle"><circle cx="5" cy="5" r="3" fill="none" stroke="black"/></marker><marker markerHeight="2%" id="filled-circle" viewBox="0 0 10 10 " refX="5" refY="5" markerUnits="userSpaceOnUse" markerWidth="2%"><circle cy="5" r="3" fill="black" stroke="none" cx="5"/></marker><marker viewBox="0 0 10 10 " refX="5" refY="5" markerUnits="userSpaceOnUse" markerWidth="2%" markerHeight="2%" id="square"><rect y="2" width="6" height="6" fill="none" stroke="black" x="2"/></marker><marker refY="5" markerUnits="userSpaceOnUse" markerWidth="2%" markerHeight="2%" id="filled-square" viewBox="0 0 10 10 " refX="5"><rect y="2" width="6" height="6" fill="black" stroke="none" x="2"/></marker></defs><g fill="hsl(198, 47%, 65%)" stroke="hsl(198, 47%, 65%)" stroke-width="1px" stroke-linecap="round" stroke-linejoin="round" transform="translate(80 520 )scale(1 -1 )"><rect vector-effect="non-scaling-stroke" x="4.266667e+01" y="0" width="2.133333e+01" height="4.426328e+01"/><rect height="4.423326e+01" vector-effect="non-scaling-stroke" x="6.400000e+01" y="0" width="2.133333e+01"/><rect vector-effect="non-scaling-stroke" x="8.533333e+01" y="0" width="2.133333e+01" height="4.414482e+01"/><rect vector-effect="non-scaling-stroke" x="1.066667e+02" y="0" width="2.133333e+01" height="4.533401e+01"/><rect x="1.280000e+02" y="0" width="2.133333e+01" height="4.414970e+01" vector-effect="non-scaling-stroke"/><rect vector-effect="non-scaling-stroke" x="1.493333e+02" y="0" width="2.133333e+01" height="396"/><rect width="2.133333e+01" height="1.265206e+02" vector-effect="non-scaling-stroke" x="1.706667e+02" y="0"/><rect vector-effect="non-scaling-stroke" x="1.920000e+02" y="0" width="2.133333e+01" height="4.403414e+01"/><rect vector-effect="non-scaling-stroke" x="2.133333e+02" y="0" width="2.133333e+01" height="4.785299e+01"/><rect width="2.133333e+01" height="4.572439e+01" vector-effect="non-scaling-stroke" x="2.346667e+02" y="0"/></g><g stroke-width="1px" stroke-linecap="round" stroke-linejoin="round" transform="translate(80 520 )scale(1 -1 )" fill="hsl(49, 88%, 65%)" stroke="hsl(49, 88%, 65%)"><rect x="64" y="0" width="2.133333e+01" height="4.422948e+01" vector-effect="non-scaling-stroke"/><rect vector-effect="non-scaling-stroke" x="8.533333e+01" y="0" width="2.133333e+01" height="4.421116e+01"/><rect width="2.133333e+01" height="4.404346e+01" vector-effect="non-scaling-stroke" x="1.066667e+02" y="0"/><rect y="0" width="2.133333e+01" height="4.622662e+01" vector-effect="non-scaling-stroke" x="1.280000e+02"/><rect y="0" width="2.133333e+01" height="4.410670e+01" vector-effect="non-scaling-stroke" x="1.493333e+02"/><rect vector-effect="non-scaling-stroke" x="1.706667e+02" y="0" width="2.133333e+01" height="3.114004e+02"/><rect vector-effect="non-scaling-stroke" x="192" y="0" width="2.133333e+01" height="1.275011e+02"/><rect vector-effect="non-scaling-stroke" x="2.133333e+02" y="0" width="2.133333e+01" height="4.401625e+01"/></g><g font-size="12px" dominant-baseline="hanging" stroke-linejoin="round" font-style="normal" text-anchor="start" stroke="hsl(198, 47%, 65%)" stroke-linecap="round" fill="hsl(198, 47%, 65%)" font-family="sans-serif" font-weight="normal" stroke-width="1px"><rect x="736" y="484" width="12" height="12" vector-effect="non-scaling-stroke"/><g stroke="black" fill="black"><text stroke="none" vector-effect="non-scaling-stroke" x="752" y="484" dominant-baseline="hanging">Golang</text></g><g fill="hsl(49, 88%, 65%)" text-anchor="start" stroke="hsl(49, 88%, 65%)" stroke-linecap="round" font-family="sans-serif" font-size="12px" dominant-baseline="hanging" stroke-width="1px" stroke-linejoin="round" font-style="normal" font-weight="normal"><rect height="12" vector-effect="non-scaling-stroke" x="736" y="502" width="12"/><g fill="black" stroke="black"><text x="752" y="502" dominant-baseline="hanging" stroke="none" vector-effect="non-scaling-stroke">Rust</text><g font-size="12px" stroke-linejoin="round" dominant-baseline="hanging" font-weight="normal" stroke-width="2px" stroke-linecap="round" font-style="normal" fill="none" font-family="sans-serif" text-anchor="start"><rect height="440" vector-effect="non-scaling-stroke" x="80" y="80" width="640"/></g><g font-style="normal" stroke="black" stroke-width="2px" stroke-linejoin="round" transform="translate(80 520 )scale(1 -1 )" fill="none" font-size="12px" font-family="sans-serif" font-weight="normal" text-anchor="start" stroke-linecap="round" dominant-baseline="hanging"><path vector-effect="non-scaling-stroke" d="M64,0 L64,-6 M8.533333e+01,0 L8.533333e+01,-6 M1.066667e+02,0 L1.066667e+02,-6 M128,0 L128,-6 M1.493333e+02,0 L1.493333e+02,-6 M1.706667e+02,0 L1.706667e+02,-6 M192,0 L192,-6 M2.133333e+02,0 L2.133333e+02,-6 M2.346667e+02,0 L2.346667e+02,-6 M256,0 L256,-6 "/></g><g font-family="sans-serif" dominant-baseline="hanging" font-style="normal" font-weight="normal" stroke="black" stroke-width="2px" stroke-linecap="round" stroke-linejoin="round" fill="black" font-size="12px" text-anchor="middle" transform="translate(80 520 )scale(1 1 )"><text stroke="none" vector-effect="non-scaling-stroke" x="64" y="10" dominant-baseline="hanging">1</text><text y="10" dominant-baseline="hanging" stroke="none" vector-effect="non-scaling-stroke" x="8.533333e+01">2</text><text stroke="none" vector-effect="non-scaling-stroke" x="1.066667e+02" y="10" dominant-baseline="hanging">3</text><text stroke="none" vector-effect="non-scaling-stroke" x="128" y="10" dominant-baseline="hanging">4</text><text dominant-baseline="hanging" stroke="none" vector-effect="non-scaling-stroke" x="1.493333e+02" y="10">5</text><text stroke="none" vector-effect="non-scaling-stroke" x="1.706667e+02" y="10" dominant-baseline="hanging">6</text><text x="192" y="10" dominant-baseline="hanging" stroke="none" vector-effect="non-scaling-stroke">7</text><text vector-effect="non-scaling-stroke" x="2.133333e+02" y="10" dominant-baseline="hanging" stroke="none">8</text><text stroke="none" vector-effect="non-scaling-stroke" x="2.346667e+02" y="10" dominant-baseline="hanging">9</text><text stroke="none" vector-effect="non-scaling-stroke" x="256" y="10" dominant-baseline="hanging">10</text></g><g text-anchor="middle" stroke-width="2px" stroke-linecap="round" font-family="sans-serif" font-weight="bold" font-size="12px" stroke="black" stroke-linejoin="round" font-style="normal" transform="translate(80 520 )scale(1 1 )rotate(0 0 0 )" fill="black" dominant-baseline="baseline"><text y="-6" dominant-baseline="baseline" stroke="none" vector-effect="non-scaling-stroke" x="320">Day</text></g><g dominant-baseline="baseline" text-anchor="middle" stroke="black" font-family="sans-serif" font-style="normal" transform="translate(80 520 )scale(1 -1 )" fill="black" font-size="12px" stroke-width="2px" stroke-linecap="round" stroke-linejoin="round" font-weight="bold"><path vector-effect="non-scaling-stroke" d="M0,44 L-6,44 M0,9.307912e+01 L-6,9.307912e+01 M0,1.421582e+02 L-6,1.421582e+02 M0,1.912374e+02 L-6,1.912374e+02 M0,2.403165e+02 L-6,2.403165e+02 M0,2.893956e+02 L-6,2.893956e+02 M0,3.384747e+02 L-6,3.384747e+02 M0,3.875538e+02 L-6,3.875538e+02 "/></g><g fill="black" stroke="black" font-style="normal" font-weight="normal" stroke-linejoin="round" font-family="sans-serif" transform="translate(80 520 )scale(1 1 )" font-size="12px" dominant-baseline="middle" text-anchor="end" stroke-width="2px" stroke-linecap="round"><text y="-44" dominant-baseline="middle" stroke="none" vector-effect="non-scaling-stroke" x="-10">0s</text><text stroke="none" vector-effect="non-scaling-stroke" x="-10" y="-9.307912e+01" dominant-baseline="middle">10ms</text><text stroke="none" vector-effect="non-scaling-stroke" x="-10" y="-1.421582e+02" dominant-baseline="middle">20ms</text><text dominant-baseline="middle" stroke="none" vector-effect="non-scaling-stroke" x="-10" y="-1.912374e+02">30ms</text><text stroke="none" vector-effect="non-scaling-stroke" x="-10" y="-2.403165e+02" dominant-baseline="middle">40ms</text><text x="-10" y="-2.893956e+02" dominant-baseline="middle" stroke="none" vector-effect="non-scaling-stroke">50ms</text><text stroke="none" vector-effect="non-scaling-stroke" x="-10" y="-3.384747e+02" dominant-baseline="middle">60ms</text><text stroke="none" vector-effect="non-scaling-stroke" x="-10" y="-3.875538e+02" dominant-baseline="middle">70ms</text></g><g stroke-width="2px" transform="translate(80 520 )scale(1 1 )rotate(-90 0 0 )" fill="black" dominant-baseline="hanging" font-style="normal" font-weight="bold" text-anchor="middle" stroke-linejoin="round" font-size="12px" font-family="sans-serif" stroke="black" stroke-linecap="round"><text dominant-baseline="hanging" stroke="none" vector-effect="non-scaling-stroke" x="220" y="6">Runtime</text></g></g></g></g></svg>