<svg height="600" viewbox="0 0 800 600" preserveAspectRatio="xMidYMid meet" xmlns="http://www.w3.org/2000/svg" width="800"><defs><marker refX="5" refY="5" markerUnits="userSpaceOnUse" markerWidth="2%" markerHeight="2%" id="circle" viewBox="0 0 10 10 "><circle cx="5" cy="5" r="3" fill="none" stroke="black"/></marker><marker refX="5" refY="5" markerUnits="userSpaceOnUse" markerWidth="2%" markerHeight="2%" id="filled-circle" viewBox="0 0 10 10 "><circle cx="5" cy="5" r="3" fill="black" stroke="none"/></marker><marker markerUnits="userSpaceOnUse" markerWidth="2%" markerHeight="2%" id="square" viewBox="0 0 10 10 " refX="5" refY="5"><rect fill="none" stroke="black" x="2" y="2" width="6" height="6"/></marker><marker markerHeight="2%" id="filled-square" viewBox="0 0 10 10 " refX="5" refY="5" markerUnits="userSpaceOnUse" markerWidth="2%"><rect height="6" fill="black" stroke="none" x="2" y="2" width="6"/></marker></defs><g stroke-linecap="round" stroke-linejoin="round" transform="translate(80 520 )scale(1 -1 )" fill="hsl(198, 47%, 65%)" stroke="hsl(198, 47%, 65%)" stroke-width="1px"><rect height="4.409523e+01" vector-effect="non-scaling-stroke" x="5.546667e+01" y="0" width="3.413333e+00"/><rect height="4.402557e+01" vector-effect="non-scaling-stroke" x="7.680000e+01" y="0" width="3.413333e+00"/><rect x="9.813333e+01" y="0" width="3.413333e+00" height="4.405592e+01" vector-effect="non-scaling-stroke"/><rect width="3.413333e+00" height="44" vector-effect="non-scaling-stroke" x="1.194667e+02" y="0"/><rect width="3.413333e+00" height="44" vector-effect="non-scaling-stroke" x="1.408000e+02" y="0"/><rect vector-effect="non-scaling-stroke" x="1.621333e+02" y="0" width="3.413333e+00" height="44"/><rect x="1.834667e+02" y="0" width="3.413333e+00" height="44" vector-effect="non-scaling-stroke"/><rect vector-effect="non-scaling-stroke" x="2.048000e+02" y="0" width="3.413333e+00" height="44"/><rect vector-effect="non-scaling-stroke" x="2.261333e+02" y="0" width="3.413333e+00" height="44"/><rect vector-effect="non-scaling-stroke" x="2.474667e+02" y="0" width="3.413333e+00" height="44"/><rect width="3.413333e+00" height="44" vector-effect="non-scaling-stroke" x="2.688000e+02" y="0"/><rect vector-effect="non-scaling-stroke" x="2.901333e+02" y="0" width="3.413333e+00" height="44"/><rect width="3.413333e+00" height="44" vector-effect="non-scaling-stroke" x="3.114667e+02" y="0"/><rect y="0" width="3.413333e+00" height="44" vector-effect="non-scaling-stroke" x="3.328000e+02"/><rect vector-effect="non-scaling-stroke" x="3.541333e+02" y="0" width="3.413333e+00" height="44"/><rect width="3.413333e+00" height="44" vector-effect="non-scaling-stroke" x="3.754667e+02" y="0"/><rect x="3.968000e+02" y="0" width="3.413333e+00" height="44" vector-effect="non-scaling-stroke"/><rect width="3.413333e+00" height="44" vector-effect="non-scaling-stroke" x="4.181333e+02" y="0"/><rect x="4.394667e+02" y="0" width="3.413333e+00" height="44" vector-effect="non-scaling-stroke"/><rect width="3.413333e+00" height="44" vector-effect="non-scaling-stroke" x="4.608000e+02" y="0"/><rect x="4.821333e+02" y="0" width="3.413333e+00" height="44" vector-effect="non-scaling-stroke"/><rect vector-effect="non-scaling-stroke" x="5.034667e+02" y="0" width="3.413333e+00" height="44"/><rect width="3.413333e+00" height="44" vector-effect="non-scaling-stroke" x="5.248000e+02" y="0"/><rect height="44" vector-effect="non-scaling-stroke" x="5.461333e+02" y="0" width="3.413333e+00"/><rect vector-effect="non-scaling-stroke" x="5.674667e+02" y="0" width="3.413333e+00" height="44"/></g><g stroke-width="1px" stroke-linecap="round" stroke-linejoin="round" transform="translate(80 520 )scale(1 -1 )" fill="hsl(49, 88%, 65%)" stroke="hsl(49, 88%, 65%)"><rect vector-effect="non-scaling-stroke" x="5.888000e+01" y="0" width="3.413333e+00" height="4.400674e+01"/><rect vector-effect="non-scaling-stroke" x="8.021333e+01" y="0" width="3.413333e+00" height="4.400032e+01"/><rect y="0" width="3.413333e+00" height="4.401153e+01" vector-effect="non-scaling-stroke" x="1.015467e+02"/><rect vector-effect="non-scaling-stroke" x="1.228800e+02" y="0" width="3.413333e+00" height="4.401731e+01"/><rect vector-effect="non-scaling-stroke" x="1.442133e+02" y="0" width="3.413333e+00" height="4.425319e+01"/><rect x="1.655467e+02" y="0" width="3.413333e+00" height="4.400051e+01" vector-effect="non-scaling-stroke"/><rect x="1.868800e+02" y="0" width="3.413333e+00" height="4.402256e+01" vector-effect="non-scaling-stroke"/><rect y="0" width="3.413333e+00" height="4.405480e+01" vector-effect="non-scaling-stroke" x="2.082133e+02"/><rect y="0" width="3.413333e+00" height="4.420877e+01" vector-effect="non-scaling-stroke" x="2.295467e+02"/><rect y="0" width="3.413333e+00" height="4.401417e+01" vector-effect="non-scaling-stroke" x="2.508800e+02"/><rect height="4.416870e+01" vector-effect="non-scaling-stroke" x="2.722133e+02" y="0" width="3.413333e+00"/><rect y="0" width="3.413333e+00" height="4.422538e+01" vector-effect="non-scaling-stroke" x="2.935467e+02"/><rect vector-effect="non-scaling-stroke" x="3.148800e+02" y="0" width="3.413333e+00" height="4.408096e+01"/><rect y="0" width="3.413333e+00" height="4.408004e+01" vector-effect="non-scaling-stroke" x="3.362133e+02"/><rect vector-effect="non-scaling-stroke" x="3.575467e+02" y="0" width="3.413333e+00" height="5.650286e+01"/><rect vector-effect="non-scaling-stroke" x="3.788800e+02" y="0" width="3.413333e+00" height="4.400590e+01"/><rect vector-effect="non-scaling-stroke" x="4.002133e+02" y="0" width="3.413333e+00" height="4.457864e+01"/><rect x="4.215467e+02" y="0" width="3.413333e+00" height="5.576386e+01" vector-effect="non-scaling-stroke"/><rect vector-effect="non-scaling-stroke" x="4.428800e+02" y="0" width="3.413333e+00" height="2.690505e+02"/><rect vector-effect="non-scaling-stroke" x="4.642133e+02" y="0" width="3.413333e+00" height="5.046296e+01"/><rect vector-effect="non-scaling-stroke" x="4.855467e+02" y="0" width="3.413333e+00" height="4.446658e+01"/><rect height="4.620537e+01" vector-effect="non-scaling-stroke" x="5.068800e+02" y="0" width="3.413333e+00"/><rect height="1.607335e+02" vector-effect="non-scaling-stroke" x="5.282133e+02" y="0" width="3.413333e+00"/><rect width="3.413333e+00" height="4.400089e+01" vector-effect="non-scaling-stroke" x="5.495467e+02" y="0"/><rect vector-effect="non-scaling-stroke" x="5.708800e+02" y="0" width="3.413333e+00" height="5.605491e+01"/></g><g stroke-width="1px" stroke-linecap="round" stroke-linejoin="round" transform="translate(80 520 )scale(1 -1 )" fill="hsl(260, 76%, 65%)" stroke="hsl(260, 76%, 65%)"><rect y="0" width="3.413333e+00" height="4.459686e+01" vector-effect="non-scaling-stroke" x="6.229333e+01"/><rect y="0" width="3.413333e+00" height="4.464265e+01" vector-effect="non-scaling-stroke" x="8.362667e+01"/><rect vector-effect="non-scaling-stroke" x="1.049600e+02" y="0" width="3.413333e+00" height="4.486141e+01"/><rect y="0" width="3.413333e+00" height="4.403702e+01" vector-effect="non-scaling-stroke" x="1.262933e+02"/><rect width="3.413333e+00" height="44" vector-effect="non-scaling-stroke" x="1.476267e+02" y="0"/><rect width="3.413333e+00" height="44" vector-effect="non-scaling-stroke" x="1.689600e+02" y="0"/><rect x="1.902933e+02" y="0" width="3.413333e+00" height="44" vector-effect="non-scaling-stroke"/><rect height="44" vector-effect="non-scaling-stroke" x="2.116267e+02" y="0" width="3.413333e+00"/><rect x="2.329600e+02" y="0" width="3.413333e+00" height="44" vector-effect="non-scaling-stroke"/><rect y="0" width="3.413333e+00" height="44" vector-effect="non-scaling-stroke" x="2.542933e+02"/><rect x="2.756267e+02" y="0" width="3.413333e+00" height="44" vector-effect="non-scaling-stroke"/><rect x="2.969600e+02" y="0" width="3.413333e+00" height="44" vector-effect="non-scaling-stroke"/><rect vector-effect="non-scaling-stroke" x="3.182933e+02" y="0" width="3.413333e+00" height="44"/><rect vector-effect="non-scaling-stroke" x="3.396267e+02" y="0" width="3.413333e+00" height="44"/><rect vector-effect="non-scaling-stroke" x="3.609600e+02" y="0" width="3.413333e+00" height="44"/><rect vector-effect="non-scaling-stroke" x="3.822933e+02" y="0" width="3.413333e+00" height="44"/><rect vector-effect="non-scaling-stroke" x="4.036267e+02" y="0" width="3.413333e+00" height="44"/><rect vector-effect="non-scaling-stroke" x="4.249600e+02" y="0" width="3.413333e+00" height="44"/><rect vector-effect="non-scaling-stroke" x="4.462933e+02" y="0" width="3.413333e+00" height="44"/><rect vector-effect="non-scaling-stroke" x="4.676267e+02" y="0" width="3.413333e+00" height="44"/><rect y="0" width="3.413333e+00" height="44" vector-effect="non-scaling-stroke" x="4.889600e+02"/><rect y="0" width="3.413333e+00" height="44" vector-effect="non-scaling-stroke" x="5.102933e+02"/><rect vector-effect="non-scaling-stroke" x="5.316267e+02" y="0" width="3.413333e+00" height="44"/><rect width="3.413333e+00" height="44" vector-effect="non-scaling-stroke" x="5.529600e+02" y="0"/><rect height="44" vector-effect="non-scaling-stroke" x="5.742933e+02" y="0" width="3.413333e+00"/></g><g transform="translate(80 520 )scale(1 -1 )" fill="hsl(111, 64%, 65%)" stroke="hsl(111, 64%, 65%)" stroke-width="1px" stroke-linecap="round" stroke-linejoin="round"><rect vector-effect="non-scaling-stroke" x="6.570667e+01" y="0" width="3.413333e+00" height="4.400814e+01"/><rect vector-effect="non-scaling-stroke" x="8.704000e+01" y="0" width="3.413333e+00" height="4.400069e+01"/><rect width="3.413333e+00" height="4.401223e+01" vector-effect="non-scaling-stroke" x="1.083733e+02" y="0"/><rect y="0" width="3.413333e+00" height="4.402929e+01" vector-effect="non-scaling-stroke" x="1.297067e+02"/><rect vector-effect="non-scaling-stroke" x="1.510400e+02" y="0" width="3.413333e+00" height="4.425876e+01"/><rect vector-effect="non-scaling-stroke" x="1.723733e+02" y="0" width="3.413333e+00" height="4.400041e+01"/><rect vector-effect="non-scaling-stroke" x="1.937067e+02" y="0" width="3.413333e+00" height="4.400831e+01"/><rect width="3.413333e+00" height="4.404122e+01" vector-effect="non-scaling-stroke" x="2.150400e+02" y="0"/><rect vector-effect="non-scaling-stroke" x="2.363733e+02" y="0" width="3.413333e+00" height="4.406892e+01"/><rect vector-effect="non-scaling-stroke" x="2.577067e+02" y="0" width="3.413333e+00" height="4.401881e+01"/><rect vector-effect="non-scaling-stroke" x="2.790400e+02" y="0" width="3.413333e+00" height="4.405758e+01"/><rect y="0" width="3.413333e+00" height="4.610422e+01" vector-effect="non-scaling-stroke" x="3.003733e+02"/><rect width="3.413333e+00" height="4.411587e+01" vector-effect="non-scaling-stroke" x="3.217067e+02" y="0"/><rect y="0" width="3.413333e+00" height="4.400738e+01" vector-effect="non-scaling-stroke" x="3.430400e+02"/><rect vector-effect="non-scaling-stroke" x="3.643733e+02" y="0" width="3.413333e+00" height="6.852657e+01"/><rect y="0" width="3.413333e+00" height="4.400289e+01" vector-effect="non-scaling-stroke" x="3.857067e+02"/><rect height="4.463634e+01" vector-effect="non-scaling-stroke" x="4.070400e+02" y="0" width="3.413333e+00"/><rect vector-effect="non-scaling-stroke" x="4.283733e+02" y="0" width="3.413333e+00" height="5.488734e+01"/><rect height="4.919505e+01" vector-effect="non-scaling-stroke" x="4.497067e+02" y="0" width="3.413333e+00"/><rect vector-effect="non-scaling-stroke" x="4.710400e+02" y="0" width="3.413333e+00" height="5.276088e+01"/><rect width="3.413333e+00" height="4.400039e+01" vector-effect="non-scaling-stroke" x="4.923733e+02" y="0"/><rect x="5.137067e+02" y="0" width="3.413333e+00" height="4.777610e+01" vector-effect="non-scaling-stroke"/><rect vector-effect="non-scaling-stroke" x="5.350400e+02" y="0" width="3.413333e+00" height="396"/><rect x="5.563733e+02" y="0" width="3.413333e+00" height="4.400408e+01" vector-effect="non-scaling-stroke"/><rect height="5.321121e+01" vector-effect="non-scaling-stroke" x="5.777067e+02" y="0" width="3.413333e+00"/></g><g transform="translate(80 520 )scale(1 -1 )" fill="hsl(322, 52%, 65%)" stroke="hsl(322, 52%, 65%)" stroke-width="1px" stroke-linecap="round" stroke-linejoin="round"><rect vector-effect="non-scaling-stroke" x="6.912000e+01" y="0" width="3.413333e+00" height="4.400357e+01"/><rect y="0" width="3.413333e+00" height="4.400025e+01" vector-effect="non-scaling-stroke" x="9.045333e+01"/><rect x="1.117867e+02" y="0" width="3.413333e+00" height="4.401841e+01" vector-effect="non-scaling-stroke"/><rect height="4.401288e+01" vector-effect="non-scaling-stroke" x="1.331200e+02" y="0" width="3.413333e+00"/><rect y="0" width="3.413333e+00" height="4.426145e+01" vector-effect="non-scaling-stroke" x="1.544533e+02"/><rect y="0" width="3.413333e+00" height="4.400026e+01" vector-effect="non-scaling-stroke" x="1.757867e+02"/><rect vector-effect="non-scaling-stroke" x="1.971200e+02" y="0" width="3.413333e+00" height="4.401320e+01"/><rect vector-effect="non-scaling-stroke" x="2.184533e+02" y="0" width="3.413333e+00" height="4.446231e+01"/><rect width="3.413333e+00" height="4.406633e+01" vector-effect="non-scaling-stroke" x="2.397867e+02" y="0"/><rect y="0" width="3.413333e+00" height="4.401267e+01" vector-effect="non-scaling-stroke" x="2.611200e+02"/><rect x="2.824533e+02" y="0" width="3.413333e+00" height="4.405089e+01" vector-effect="non-scaling-stroke"/><rect vector-effect="non-scaling-stroke" x="3.037867e+02" y="0" width="3.413333e+00" height="4.406383e+01"/><rect x="3.251200e+02" y="0" width="3.413333e+00" height="4.409388e+01" vector-effect="non-scaling-stroke"/><rect vector-effect="non-scaling-stroke" x="3.464533e+02" y="0" width="3.413333e+00" height="4.403307e+01"/><rect y="0" width="3.413333e+00" height="4.931426e+01" vector-effect="non-scaling-stroke" x="3.677867e+02"/><rect x="3.891200e+02" y="0" width="3.413333e+00" height="4.412348e+01" vector-effect="non-scaling-stroke"/><rect x="4.104533e+02" y="0" width="3.413333e+00" height="4.440833e+01" vector-effect="non-scaling-stroke"/><rect y="0" width="3.413333e+00" height="4.802503e+01" vector-effect="non-scaling-stroke" x="4.317867e+02"/><rect width="3.413333e+00" height="44" vector-effect="non-scaling-stroke" x="4.531200e+02" y="0"/><rect vector-effect="non-scaling-stroke" x="4.744533e+02" y="0" width="3.413333e+00" height="44"/><rect y="0" width="3.413333e+00" height="4.410449e+01" vector-effect="non-scaling-stroke" x="4.957867e+02"/><rect vector-effect="non-scaling-stroke" x="5.171200e+02" y="0" width="3.413333e+00" height="44"/><rect vector-effect="non-scaling-stroke" x="5.384533e+02" y="0" width="3.413333e+00" height="44"/><rect vector-effect="non-scaling-stroke" x="5.597867e+02" y="0" width="3.413333e+00" height="44"/><rect height="44" vector-effect="non-scaling-stroke" x="5.811200e+02" y="0" width="3.413333e+00"/></g><g dominant-baseline="hanging" stroke="hsl(198, 47%, 65%)" stroke-linecap="round" text-anchor="start" stroke-width="1px" font-style="normal" fill="hsl(198, 47%, 65%)" font-weight="normal" stroke-linejoin="round" font-family="sans-serif" font-size="12px"><rect x="736" y="430" width="12" height="12" vector-effect="non-scaling-stroke"/><g fill="black" stroke="black"><text stroke="none" vector-effect="non-scaling-stroke" x="752" y="430" dominant-baseline="hanging">Crystal</text></g><g font-size="12px" font-style="normal" stroke="hsl(49, 88%, 65%)" font-family="sans-serif" text-anchor="start" stroke-width="1px" stroke-linejoin="round" stroke-linecap="round" dominant-baseline="hanging" fill="hsl(49, 88%, 65%)" font-weight="normal"><rect vector-effect="non-scaling-stroke" x="736" y="448" width="12" height="12"/><g fill="black" stroke="black"><text stroke="none" vector-effect="non-scaling-stroke" x="752" y="448" dominant-baseline="hanging">Golang</text></g><g stroke-width="1px" font-style="normal" dominant-baseline="hanging" fill="hsl(260, 76%, 65%)" stroke="hsl(260, 76%, 65%)" font-family="sans-serif" text-anchor="start" stroke-linejoin="round" stroke-linecap="round" font-size="12px" font-weight="normal"><rect vector-effect="non-scaling-stroke" x="736" y="466" width="12" height="12"/><g fill="black" stroke="black"><text x="752" y="466" dominant-baseline="hanging" stroke="none" vector-effect="non-scaling-stroke">Haskell</text></g><g stroke-width="1px" dominant-baseline="hanging" stroke-linecap="round" font-size="12px" text-anchor="start" font-family="sans-serif" font-weight="normal" font-style="normal" fill="hsl(111, 64%, 65%)" stroke="hsl(111, 64%, 65%)" stroke-linejoin="round"><rect vector-effect="non-scaling-stroke" x="736" y="484" width="12" height="12"/><g fill="black" stroke="black"><text stroke="none" vector-effect="non-scaling-stroke" x="752" y="484" dominant-baseline="hanging">Rust</text></g><g stroke-linecap="round" font-family="sans-serif" text-anchor="start" fill="hsl(322, 52%, 65%)" stroke="hsl(322, 52%, 65%)" font-size="12px" font-style="normal" dominant-baseline="hanging" stroke-width="1px" stroke-linejoin="round" font-weight="normal"><rect width="12" height="12" vector-effect="non-scaling-stroke" x="736" y="502"/><g fill="black" stroke="black"><text vector-effect="non-scaling-stroke" x="752" y="502" dominant-baseline="hanging" stroke="none">Zig</text><g font-style="normal" stroke-linejoin="round" font-family="sans-serif" fill="none" dominant-baseline="hanging" stroke-width="2px" font-weight="normal" font-size="12px" stroke-linecap="round" text-anchor="start"><rect vector-effect="non-scaling-stroke" x="80" y="80" width="640" height="440"/></g><g stroke-linejoin="round" font-family="sans-serif" font-weight="normal" transform="translate(80 520 )scale(1 -1 )" stroke-linecap="round" font-size="12px" font-style="normal" dominant-baseline="hanging" stroke-width="2px" text-anchor="start" fill="none" stroke="black"><path vector-effect="non-scaling-stroke" d="M64,0 L64,-6 M8.533333e+01,0 L8.533333e+01,-6 M1.066667e+02,0 L1.066667e+02,-6 M128,0 L128,-6 M1.493333e+02,0 L1.493333e+02,-6 M1.706667e+02,0 L1.706667e+02,-6 M192,0 L192,-6 M2.133333e+02,0 L2.133333e+02,-6 M2.346667e+02,0 L2.346667e+02,-6 M256,0 L256,-6 M2.773333e+02,0 L2.773333e+02,-6 M2.986667e+02,0 L2.986667e+02,-6 M320,0 L320,-6 M3.413333e+02,0 L3.413333e+02,-6 M3.626667e+02,0 L3.626667e+02,-6 M384,0 L384,-6 M4.053333e+02,0 L4.053333e+02,-6 M4.266667e+02,0 L4.266667e+02,-6 M448,0 L448,-6 M4.693333e+02,0 L4.693333e+02,-6 M4.906667e+02,0 L4.906667e+02,-6 M512,0 L512,-6 M5.333333e+02,0 L5.333333e+02,-6 M5.546667e+02,0 L5.546667e+02,-6 M576,0 L576,-6 "/></g><g stroke-linecap="round" stroke-width="2px" font-weight="normal" font-style="normal" dominant-baseline="hanging" stroke-linejoin="round" font-family="sans-serif" text-anchor="middle" fill="black" stroke="black" font-size="12px" transform="translate(80 520 )scale(1 1 )"><text y="10" dominant-baseline="hanging" stroke="none" vector-effect="non-scaling-stroke" x="64">1</text><text stroke="none" vector-effect="non-scaling-stroke" x="8.533333e+01" y="10" dominant-baseline="hanging">2</text><text stroke="none" vector-effect="non-scaling-stroke" x="1.066667e+02" y="10" dominant-baseline="hanging">3</text><text dominant-baseline="hanging" stroke="none" vector-effect="non-scaling-stroke" x="128" y="10">4</text><text y="10" dominant-baseline="hanging" stroke="none" vector-effect="non-scaling-stroke" x="1.493333e+02">5</text><text y="10" dominant-baseline="hanging" stroke="none" vector-effect="non-scaling-stroke" x="1.706667e+02">6</text><text y="10" dominant-baseline="hanging" stroke="none" vector-effect="non-scaling-stroke" x="192">7</text><text vector-effect="non-scaling-stroke" x="2.133333e+02" y="10" dominant-baseline="hanging" stroke="none">8</text><text stroke="none" vector-effect="non-scaling-stroke" x="2.346667e+02" y="10" dominant-baseline="hanging">9</text><text dominant-baseline="hanging" stroke="none" vector-effect="non-scaling-stroke" x="256" y="10">10</text><text vector-effect="non-scaling-stroke" x="2.773333e+02" y="10" dominant-baseline="hanging" stroke="none">11</text><text vector-effect="non-scaling-stroke" x="2.986667e+02" y="10" dominant-baseline="hanging" stroke="none">12</text><text stroke="none" vector-effect="non-scaling-stroke" x="320" y="10" dominant-baseline="hanging">13</text><text vector-effect="non-scaling-stroke" x="3.413333e+02" y="10" dominant-baseline="hanging" stroke="none">14</text><text x="3.626667e+02" y="10" dominant-baseline="hanging" stroke="none" vector-effect="non-scaling-stroke">15</text><text x="384" y="10" dominant-baseline="hanging" stroke="none" vector-effect="non-scaling-stroke">16</text><text y="10" dominant-baseline="hanging" stroke="none" vector-effect="non-scaling-stroke" x="4.053333e+02">17</text><text stroke="none" vector-effect="non-scaling-stroke" x="4.266667e+02" y="10" dominant-baseline="hanging">18</text><text x="448" y="10" dominant-baseline="hanging" stroke="none" vector-effect="non-scaling-stroke">19</text><text stroke="none" vector-effect="non-scaling-stroke" x="4.693333e+02" y="10" dominant-baseline="hanging">20</text><text vector-effect="non-scaling-stroke" x="4.906667e+02" y="10" dominant-baseline="hanging" stroke="none">21</text><text stroke="none" vector-effect="non-scaling-stroke" x="512" y="10" dominant-baseline="hanging">22</text><text y="10" dominant-baseline="hanging" stroke="none" vector-effect="non-scaling-stroke" x="5.333333e+02">23</text><text dominant-baseline="hanging" stroke="none" vector-effect="non-scaling-stroke" x="5.546667e+02" y="10">24</text><text y="10" dominant-baseline="hanging" stroke="none" vector-effect="non-scaling-stroke" x="576">25</text></g><g font-style="normal" stroke-width="2px" stroke-linejoin="round" font-weight="bold" fill="black" stroke="black" stroke-linecap="round" font-size="12px" text-anchor="middle" transform="translate(80 520 )scale(1 1 )rotate(0 0 0 )" dominant-baseline="baseline" font-family="sans-serif"><text stroke="none" vector-effect="non-scaling-stroke" x="320" y="-6" dominant-baseline="baseline">Day</text></g><g transform="translate(80 520 )scale(1 -1 )" stroke-width="2px" stroke="black" stroke-linecap="round" font-size="12px" font-style="normal" font-weight="bold" text-anchor="middle" dominant-baseline="baseline" fill="black" stroke-linejoin="round" font-family="sans-serif"><path vector-effect="non-scaling-stroke" d="M0,44 L-6,44 M0,9.025019e+01 L-6,9.025019e+01 M0,1.365004e+02 L-6,1.365004e+02 M0,1.827506e+02 L-6,1.827506e+02 M0,2.290007e+02 L-6,2.290007e+02 M0,2.752509e+02 L-6,2.752509e+02 M0,3.215011e+02 L-6,3.215011e+02 M0,3.677513e+02 L-6,3.677513e+02 "/></g><g font-size="12px" dominant-baseline="middle" fill="black" stroke-linejoin="round" font-family="sans-serif" text-anchor="end" stroke="black" stroke-linecap="round" font-style="normal" font-weight="normal" transform="translate(80 520 )scale(1 1 )" stroke-width="2px"><text y="-44" dominant-baseline="middle" stroke="none" vector-effect="non-scaling-stroke" x="-10">0s</text><text stroke="none" vector-effect="non-scaling-stroke" x="-10" y="-9.025019e+01" dominant-baseline="middle">200ms</text><text stroke="none" vector-effect="non-scaling-stroke" x="-10" y="-1.365004e+02" dominant-baseline="middle">400ms</text><text stroke="none" vector-effect="non-scaling-stroke" x="-10" y="-1.827506e+02" dominant-baseline="middle">600ms</text><text stroke="none" vector-effect="non-scaling-stroke" x="-10" y="-2.290007e+02" dominant-baseline="middle">800ms</text><text stroke="none" vector-effect="non-scaling-stroke" x="-10" y="-2.752509e+02" dominant-baseline="middle">1s</text><text stroke="none" vector-effect="non-scaling-stroke" x="-10" y="-3.215011e+02" dominant-baseline="middle">1.2s</text><text y="-3.677513e+02" dominant-baseline="middle" stroke="none" vector-effect="non-scaling-stroke" x="-10">1.4s</text></g><g font-family="sans-serif" text-anchor="middle" transform="translate(80 520 )scale(1 1 )rotate(-90 0 0 )" stroke-width="2px" stroke="black" stroke-linecap="round" font-style="normal" stroke-linejoin="round" font-weight="bold" font-size="12px" dominant-baseline="hanging" fill="black"><text stroke="none" vector-effect="non-scaling-stroke" x="220" y="6" dominant-baseline="hanging">Runtime</text></g></g></g></g></g></g></g></svg>