<svg preserveAspectRatio="xMidYMid meet" xmlns="http://www.w3.org/2000/svg" width="800" height="600" viewbox="0 0 800 600"><defs><marker id="circle" viewBox="0 0 10 10 " refX="5" refY="5" markerUnits="userSpaceOnUse" markerWidth="2%" markerHeight="2%"><circle r="3" fill="none" stroke="black" cx="5" cy="5"/></marker><marker refY="5" markerUnits="userSpaceOnUse" markerWidth="2%" markerHeight="2%" id="filled-circle" viewBox="0 0 10 10 " refX="5"><circle cx="5" cy="5" r="3" fill="black" stroke="none"/></marker><marker viewBox="0 0 10 10 " refX="5" refY="5" markerUnits="userSpaceOnUse" markerWidth="2%" markerHeight="2%" id="square"><rect fill="none" stroke="black" x="2" y="2" width="6" height="6"/></marker><marker markerWidth="2%" markerHeight="2%" id="filled-square" viewBox="0 0 10 10 " refX="5" refY="5" markerUnits="userSpaceOnUse"><rect width="6" height="6" fill="black" stroke="none" x="2" y="2"/></marker></defs><g stroke-linecap="round" stroke-linejoin="round" transform="translate(80 520 )scale(1 -1 )" fill="hsl(198, 47%, 65%)" stroke="hsl(198, 47%, 65%)" stroke-width="1px"><rect x="5.472464e+01" y="0" width="6.183575e+00" height="4.408139e+01" vector-effect="non-scaling-stroke"/><rect width="6.183575e+00" height="4.408196e+01" vector-effect="non-scaling-stroke" x="7.605797e+01" y="0"/><rect y="0" width="6.183575e+00" height="4.405015e+01" vector-effect="non-scaling-stroke" x="9.739130e+01"/><rect height="4.446870e+01" vector-effect="non-scaling-stroke" x="1.187246e+02" y="0" width="6.183575e+00"/><rect y="0" width="6.183575e+00" height="4.405260e+01" vector-effect="non-scaling-stroke" x="1.400580e+02"/><rect x="1.613913e+02" y="0" width="6.183575e+00" height="1.676747e+02" vector-effect="non-scaling-stroke"/><rect width="6.183575e+00" height="7.299352e+01" vector-effect="non-scaling-stroke" x="1.827246e+02" y="0"/><rect width="6.183575e+00" height="4.401200e+01" vector-effect="non-scaling-stroke" x="2.040580e+02" y="0"/><rect height="4.479665e+01" vector-effect="non-scaling-stroke" x="2.253913e+02" y="0" width="6.183575e+00"/><rect vector-effect="non-scaling-stroke" x="2.467246e+02" y="0" width="6.183575e+00" height="4.419662e+01"/><rect y="0" width="6.183575e+00" height="4.638498e+01" vector-effect="non-scaling-stroke" x="2.680580e+02"/><rect height="4.501938e+01" vector-effect="non-scaling-stroke" x="2.893913e+02" y="0" width="6.183575e+00"/><rect vector-effect="non-scaling-stroke" x="3.107246e+02" y="0" width="6.183575e+00" height="4.401207e+01"/><rect vector-effect="non-scaling-stroke" x="3.320580e+02" y="0" width="6.183575e+00" height="5.368653e+01"/><rect y="0" width="6.183575e+00" height="4.513826e+01" vector-effect="non-scaling-stroke" x="3.533913e+02"/><rect height="6.794324e+01" vector-effect="non-scaling-stroke" x="3.747246e+02" y="0" width="6.183575e+00"/><rect height="4.403368e+01" vector-effect="non-scaling-stroke" x="3.960580e+02" y="0" width="6.183575e+00"/><rect x="4.173913e+02" y="0" width="6.183575e+00" height="4.435730e+01" vector-effect="non-scaling-stroke"/><rect vector-effect="non-scaling-stroke" x="4.387246e+02" y="0" width="6.183575e+00" height="4.641211e+01"/><rect width="6.183575e+00" height="7.847029e+01" vector-effect="non-scaling-stroke" x="4.600580e+02" y="0"/><rect width="6.183575e+00" height="4.400010e+01" vector-effect="non-scaling-stroke" x="4.813913e+02" y="0"/><rect y="0" width="6.183575e+00" height="1.251727e+02" vector-effect="non-scaling-stroke" x="5.027246e+02"/><rect y="0" width="6.183575e+00" height="1.531087e+02" vector-effect="non-scaling-stroke" x="5.240580e+02"/></g><g stroke="hsl(49, 88%, 65%)" stroke-width="1px" stroke-linecap="round" stroke-linejoin="round" transform="translate(80 520 )scale(1 -1 )" fill="hsl(49, 88%, 65%)"><rect vector-effect="non-scaling-stroke" x="6.090821e+01" y="0" width="6.183575e+00" height="4.403192e+01"/><rect width="6.183575e+00" height="4.407419e+01" vector-effect="non-scaling-stroke" x="8.224155e+01" y="0"/><rect width="6.183575e+00" height="4.401527e+01" vector-effect="non-scaling-stroke" x="1.035749e+02" y="0"/><rect height="4.478232e+01" vector-effect="non-scaling-stroke" x="1.249082e+02" y="0" width="6.183575e+00"/><rect height="4.402965e+01" vector-effect="non-scaling-stroke" x="1.462415e+02" y="0" width="6.183575e+00"/><rect width="6.183575e+00" height="1.379508e+02" vector-effect="non-scaling-stroke" x="1.675749e+02" y="0"/><rect vector-effect="non-scaling-stroke" x="1.889082e+02" y="0" width="6.183575e+00" height="7.333799e+01"/><rect height="4.400571e+01" vector-effect="non-scaling-stroke" x="2.102415e+02" y="0" width="6.183575e+00"/><rect width="6.183575e+00" height="4.500481e+01" vector-effect="non-scaling-stroke" x="2.315749e+02" y="0"/><rect height="4.406728e+01" vector-effect="non-scaling-stroke" x="2.529082e+02" y="0" width="6.183575e+00"/><rect y="0" width="6.183575e+00" height="4.582177e+01" vector-effect="non-scaling-stroke" x="2.742415e+02"/><rect vector-effect="non-scaling-stroke" x="2.955749e+02" y="0" width="6.183575e+00" height="4.477711e+01"/><rect height="4.400973e+01" vector-effect="non-scaling-stroke" x="3.169082e+02" y="0" width="6.183575e+00"/><rect y="0" width="6.183575e+00" height="5.055640e+01" vector-effect="non-scaling-stroke" x="3.382415e+02"/><rect width="6.183575e+00" height="4.711601e+01" vector-effect="non-scaling-stroke" x="3.595749e+02" y="0"/><rect vector-effect="non-scaling-stroke" x="3.809082e+02" y="0" width="6.183575e+00" height="5.366698e+01"/><rect y="0" width="6.183575e+00" height="4.437240e+01" vector-effect="non-scaling-stroke" x="4.022415e+02"/><rect vector-effect="non-scaling-stroke" x="4.235749e+02" y="0" width="6.183575e+00" height="4.421326e+01"/><rect height="4.711187e+01" vector-effect="non-scaling-stroke" x="4.449082e+02" y="0" width="6.183575e+00"/><rect width="6.183575e+00" height="8.840898e+01" vector-effect="non-scaling-stroke" x="4.662415e+02" y="0"/><rect x="4.875749e+02" y="0" width="6.183575e+00" height="4.400005e+01" vector-effect="non-scaling-stroke"/><rect x="5.089082e+02" y="0" width="6.183575e+00" height="2.218956e+02" vector-effect="non-scaling-stroke"/><rect width="6.183575e+00" height="4.493664e+01" vector-effect="non-scaling-stroke" x="5.302415e+02" y="0"/></g><g fill="hsl(260, 76%, 65%)" stroke="hsl(260, 76%, 65%)" stroke-width="1px" stroke-linecap="round" stroke-linejoin="round" transform="translate(80 520 )scale(1 -1 )"><rect y="0" width="6.183575e+00" height="4.405432e+01" vector-effect="non-scaling-stroke" x="6.709179e+01"/><rect vector-effect="non-scaling-stroke" x="8.842512e+01" y="0" width="6.183575e+00" height="4.404062e+01"/><rect vector-effect="non-scaling-stroke" x="1.097585e+02" y="0" width="6.183575e+00" height="4.404221e+01"/><rect x="1.310918e+02" y="0" width="6.183575e+00" height="4.424780e+01" vector-effect="non-scaling-stroke"/><rect vector-effect="non-scaling-stroke" x="1.524251e+02" y="0" width="6.183575e+00" height="4.402243e+01"/><rect y="0" width="6.183575e+00" height="396" vector-effect="non-scaling-stroke" x="1.737585e+02"/><rect height="7.296160e+01" vector-effect="non-scaling-stroke" x="1.950918e+02" y="0" width="6.183575e+00"/><rect y="0" width="6.183575e+00" height="4.401023e+01" vector-effect="non-scaling-stroke" x="2.164251e+02"/></g><g stroke-linecap="round" stroke="hsl(198, 47%, 65%)" font-weight="normal" dominant-baseline="hanging" fill="hsl(198, 47%, 65%)" stroke-linejoin="round" font-size="12px" text-anchor="start" stroke-width="1px" font-family="sans-serif" font-style="normal"><rect x="736" y="466" width="12" height="12" vector-effect="non-scaling-stroke"/><g fill="black" stroke="black"><text stroke="none" vector-effect="non-scaling-stroke" x="752" y="466" dominant-baseline="hanging">Golang</text></g><g fill="hsl(49, 88%, 65%)" stroke-width="1px" font-style="normal" font-weight="normal" font-size="12px" text-anchor="start" font-family="sans-serif" dominant-baseline="hanging" stroke="hsl(49, 88%, 65%)" stroke-linecap="round" stroke-linejoin="round"><rect height="12" vector-effect="non-scaling-stroke" x="736" y="484" width="12"/><g fill="black" stroke="black"><text y="484" dominant-baseline="hanging" stroke="none" vector-effect="non-scaling-stroke" x="752">Rust</text></g><g stroke="hsl(260, 76%, 65%)" stroke-width="1px" text-anchor="start" font-family="sans-serif" font-style="normal" stroke-linejoin="round" font-size="12px" fill="hsl(260, 76%, 65%)" stroke-linecap="round" font-weight="normal" dominant-baseline="hanging"><rect x="736" y="502" width="12" height="12" vector-effect="non-scaling-stroke"/><g stroke="black" fill="black"><text dominant-baseline="hanging" stroke="none" vector-effect="non-scaling-stroke" x="752" y="502">Zig</text><g stroke-width="2px" font-family="sans-serif" font-size="12px" text-anchor="start" dominant-baseline="hanging" stroke-linecap="round" font-weight="normal" fill="none" stroke-linejoin="round" font-style="normal"><rect vector-effect="non-scaling-stroke" x="80" y="80" width="640" height="440"/></g><g font-family="sans-serif" font-style="normal" font-size="12px" stroke="black" stroke-width="2px" font-weight="normal" dominant-baseline="hanging" fill="none" stroke-linecap="round" stroke-linejoin="round" text-anchor="start" transform="translate(80 520 )scale(1 -1 )"><path vector-effect="non-scaling-stroke" d="M64,0 L64,-6 M8.533333e+01,0 L8.533333e+01,-6 M1.066667e+02,0 L1.066667e+02,-6 M128,0 L128,-6 M1.493333e+02,0 L1.493333e+02,-6 M1.706667e+02,0 L1.706667e+02,-6 M192,0 L192,-6 M2.133333e+02,0 L2.133333e+02,-6 M2.346667e+02,0 L2.346667e+02,-6 M256,0 L256,-6 M2.773333e+02,0 L2.773333e+02,-6 M2.986667e+02,0 L2.986667e+02,-6 M320,0 L320,-6 M3.413333e+02,0 L3.413333e+02,-6 M3.626667e+02,0 L3.626667e+02,-6 M384,0 L384,-6 M4.053333e+02,0 L4.053333e+02,-6 M4.266667e+02,0 L4.266667e+02,-6 M448,0 L448,-6 M4.693333e+02,0 L4.693333e+02,-6 M4.906667e+02,0 L4.906667e+02,-6 M512,0 L512,-6 M5.333333e+02,0 L5.333333e+02,-6 "/></g><g stroke-linecap="round" text-anchor="middle" stroke="black" stroke-width="2px" font-family="sans-serif" font-style="normal" dominant-baseline="hanging" font-weight="normal" fill="black" stroke-linejoin="round" font-size="12px" transform="translate(80 520 )scale(1 1 )"><text dominant-baseline="hanging" stroke="none" vector-effect="non-scaling-stroke" x="64" y="10">1</text><text stroke="none" vector-effect="non-scaling-stroke" x="8.533333e+01" y="10" dominant-baseline="hanging">2</text><text stroke="none" vector-effect="non-scaling-stroke" x="1.066667e+02" y="10" dominant-baseline="hanging">3</text><text vector-effect="non-scaling-stroke" x="128" y="10" dominant-baseline="hanging" stroke="none">4</text><text y="10" dominant-baseline="hanging" stroke="none" vector-effect="non-scaling-stroke" x="1.493333e+02">5</text><text x="1.706667e+02" y="10" dominant-baseline="hanging" stroke="none" vector-effect="non-scaling-stroke">6</text><text x="192" y="10" dominant-baseline="hanging" stroke="none" vector-effect="non-scaling-stroke">7</text><text x="2.133333e+02" y="10" dominant-baseline="hanging" stroke="none" vector-effect="non-scaling-stroke">8</text><text x="2.346667e+02" y="10" dominant-baseline="hanging" stroke="none" vector-effect="non-scaling-stroke">9</text><text dominant-baseline="hanging" stroke="none" vector-effect="non-scaling-stroke" x="256" y="10">10</text><text dominant-baseline="hanging" stroke="none" vector-effect="non-scaling-stroke" x="2.773333e+02" y="10">11</text><text dominant-baseline="hanging" stroke="none" vector-effect="non-scaling-stroke" x="2.986667e+02" y="10">12</text><text x="320" y="10" dominant-baseline="hanging" stroke="none" vector-effect="non-scaling-stroke">13</text><text stroke="none" vector-effect="non-scaling-stroke" x="3.413333e+02" y="10" dominant-baseline="hanging">14</text><text stroke="none" vector-effect="non-scaling-stroke" x="3.626667e+02" y="10" dominant-baseline="hanging">15</text><text stroke="none" vector-effect="non-scaling-stroke" x="384" y="10" dominant-baseline="hanging">16</text><text x="4.053333e+02" y="10" dominant-baseline="hanging" stroke="none" vector-effect="non-scaling-stroke">17</text><text vector-effect="non-scaling-stroke" x="4.266667e+02" y="10" dominant-baseline="hanging" stroke="none">18</text><text stroke="none" vector-effect="non-scaling-stroke" x="448" y="10" dominant-baseline="hanging">19</text><text x="4.693333e+02" y="10" dominant-baseline="hanging" stroke="none" vector-effect="non-scaling-stroke">20</text><text dominant-baseline="hanging" stroke="none" vector-effect="non-scaling-stroke" x="4.906667e+02" y="10">21</text><text stroke="none" vector-effect="non-scaling-stroke" x="512" y="10" dominant-baseline="hanging">22</text><text stroke="none" vector-effect="non-scaling-stroke" x="5.333333e+02" y="10" dominant-baseline="hanging">23</text></g><g stroke-linecap="round" font-weight="bold" stroke="black" stroke-width="2px" stroke-linejoin="round" font-style="normal" dominant-baseline="baseline" font-family="sans-serif" font-size="12px" text-anchor="middle" transform="translate(80 520 )scale(1 1 )rotate(0 0 0 )" fill="black"><text stroke="none" vector-effect="non-scaling-stroke" x="320" y="-6" dominant-baseline="baseline">Day</text></g><g font-family="sans-serif" stroke="black" stroke-linecap="round" font-size="12px" text-anchor="middle" fill="black" stroke-width="2px" font-style="normal" font-weight="bold" dominant-baseline="baseline" stroke-linejoin="round" transform="translate(80 520 )scale(1 -1 )"><path d="M0,44 L-6,44 M0,2.164388e+02 L-6,2.164388e+02 M0,3.888777e+02 L-6,3.888777e+02 " vector-effect="non-scaling-stroke"/></g><g stroke="black" font-family="sans-serif" font-style="normal" text-anchor="end" stroke-linecap="round" stroke-linejoin="round" dominant-baseline="middle" stroke-width="2px" transform="translate(80 520 )scale(1 1 )" fill="black" font-size="12px" font-weight="normal"><text vector-effect="non-scaling-stroke" x="-10" y="-44" dominant-baseline="middle" stroke="none">0s</text><text vector-effect="non-scaling-stroke" x="-10" y="-2.164388e+02" dominant-baseline="middle" stroke="none">100ms</text><text x="-10" y="-3.888777e+02" dominant-baseline="middle" stroke="none" vector-effect="non-scaling-stroke">200ms</text></g><g font-size="12px" text-anchor="middle" stroke="black" font-weight="bold" dominant-baseline="hanging" fill="black" stroke-linecap="round" stroke-linejoin="round" transform="translate(80 520 )scale(1 1 )rotate(-90 0 0 )" stroke-width="2px" font-family="sans-serif" font-style="normal"><text stroke="none" vector-effect="non-scaling-stroke" x="220" y="6" dominant-baseline="hanging">Runtime</text></g></g></g></g></g></svg>