<svg viewbox="0 0 800 600" preserveAspectRatio="xMidYMid meet" xmlns="http://www.w3.org/2000/svg" width="800" height="600"><defs><marker id="circle" viewBox="0 0 10 10 " refX="5" refY="5" markerUnits="userSpaceOnUse" markerWidth="2%" markerHeight="2%"><circle stroke="black" cx="5" cy="5" r="3" fill="none"/></marker><marker markerUnits="userSpaceOnUse" markerWidth="2%" markerHeight="2%" id="filled-circle" viewBox="0 0 10 10 " refX="5" refY="5"><circle cy="5" r="3" fill="black" stroke="none" cx="5"/></marker><marker refY="5" markerUnits="userSpaceOnUse" markerWidth="2%" markerHeight="2%" id="square" viewBox="0 0 10 10 " refX="5"><rect fill="none" stroke="black" x="2" y="2" width="6" height="6"/></marker><marker viewBox="0 0 10 10 " refX="5" refY="5" markerUnits="userSpaceOnUse" markerWidth="2%" markerHeight="2%" id="filled-square"><rect x="2" y="2" width="6" height="6" fill="black" stroke="none"/></marker></defs><g stroke-linejoin="round" transform="translate(80 520 )scale(1 -1 )" fill="hsl(198, 47%, 65%)" stroke="hsl(198, 47%, 65%)" stroke-width="1px" stroke-linecap="round"><rect height="4.409728e+01" vector-effect="non-scaling-stroke" x="5.546667e+01" y="0" width="3.413333e+00"/><rect vector-effect="non-scaling-stroke" x="7.680000e+01" y="0" width="3.413333e+00" height="4.402612e+01"/><rect y="0" width="3.413333e+00" height="4.405712e+01" vector-effect="non-scaling-stroke" x="9.813333e+01"/><rect y="0" width="3.413333e+00" height="44" vector-effect="non-scaling-stroke" x="1.194667e+02"/><rect y="0" width="3.413333e+00" height="44" vector-effect="non-scaling-stroke" x="1.408000e+02"/><rect y="0" width="3.413333e+00" height="44" vector-effect="non-scaling-stroke" x="1.621333e+02"/><rect width="3.413333e+00" height="44" vector-effect="non-scaling-stroke" x="1.834667e+02" y="0"/><rect y="0" width="3.413333e+00" height="44" vector-effect="non-scaling-stroke" x="2.048000e+02"/><rect y="0" width="3.413333e+00" height="44" vector-effect="non-scaling-stroke" x="2.261333e+02"/><rect y="0" width="3.413333e+00" height="44" vector-effect="non-scaling-stroke" x="2.474667e+02"/><rect y="0" width="3.413333e+00" height="44" vector-effect="non-scaling-stroke" x="2.688000e+02"/><rect vector-effect="non-scaling-stroke" x="2.901333e+02" y="0" width="3.413333e+00" height="44"/><rect y="0" width="3.413333e+00" height="44" vector-effect="non-scaling-stroke" x="3.114667e+02"/><rect x="3.328000e+02" y="0" width="3.413333e+00" height="44" vector-effect="non-scaling-stroke"/><rect width="3.413333e+00" height="44" vector-effect="non-scaling-stroke" x="3.541333e+02" y="0"/><rect y="0" width="3.413333e+00" height="44" vector-effect="non-scaling-stroke" x="3.754667e+02"/><rect x="3.968000e+02" y="0" width="3.413333e+00" height="44" vector-effect="non-scaling-stroke"/><rect x="4.181333e+02" y="0" width="3.413333e+00" height="44" vector-effect="non-scaling-stroke"/><rect x="4.394667e+02" y="0" width="3.413333e+00" height="44" vector-effect="non-scaling-stroke"/><rect x="4.608000e+02" y="0" width="3.413333e+00" height="44" vector-effect="non-scaling-stroke"/><rect x="4.821333e+02" y="0" width="3.413333e+00" height="44" vector-effect="non-scaling-stroke"/><rect y="0" width="3.413333e+00" height="44" vector-effect="non-scaling-stroke" x="5.034667e+02"/><rect height="44" vector-effect="non-scaling-stroke" x="5.248000e+02" y="0" width="3.413333e+00"/><rect x="5.461333e+02" y="0" width="3.413333e+00" height="44" vector-effect="non-scaling-stroke"/><rect y="0" width="3.413333e+00" height="44" vector-effect="non-scaling-stroke" x="5.674667e+02"/></g><g stroke-linecap="round" stroke-linejoin="round" transform="translate(80 520 )scale(1 -1 )" fill="hsl(49, 88%, 65%)" stroke="hsl(49, 88%, 65%)" stroke-width="1px"><rect y="0" width="3.413333e+00" height="4.400688e+01" vector-effect="non-scaling-stroke" x="5.888000e+01"/><rect vector-effect="non-scaling-stroke" x="8.021333e+01" y="0" width="3.413333e+00" height="4.400033e+01"/><rect y="0" width="3.413333e+00" height="4.401178e+01" vector-effect="non-scaling-stroke" x="1.015467e+02"/><rect height="4.401769e+01" vector-effect="non-scaling-stroke" x="1.228800e+02" y="0" width="3.413333e+00"/><rect vector-effect="non-scaling-stroke" x="1.442133e+02" y="0" width="3.413333e+00" height="4.425864e+01"/><rect vector-effect="non-scaling-stroke" x="1.655467e+02" y="0" width="3.413333e+00" height="4.400052e+01"/><rect y="0" width="3.413333e+00" height="4.402304e+01" vector-effect="non-scaling-stroke" x="1.868800e+02"/><rect vector-effect="non-scaling-stroke" x="2.082133e+02" y="0" width="3.413333e+00" height="4.405598e+01"/><rect y="0" width="3.413333e+00" height="4.421326e+01" vector-effect="non-scaling-stroke" x="2.295467e+02"/><rect x="2.508800e+02" y="0" width="3.413333e+00" height="4.401447e+01" vector-effect="non-scaling-stroke"/><rect width="3.413333e+00" height="4.417233e+01" vector-effect="non-scaling-stroke" x="2.722133e+02" y="0"/><rect vector-effect="non-scaling-stroke" x="2.935467e+02" y="0" width="3.413333e+00" height="4.423022e+01"/><rect vector-effect="non-scaling-stroke" x="3.148800e+02" y="0" width="3.413333e+00" height="4.408270e+01"/><rect width="3.413333e+00" height="4.408176e+01" vector-effect="non-scaling-stroke" x="3.362133e+02" y="0"/><rect height="5.677161e+01" vector-effect="non-scaling-stroke" x="3.575467e+02" y="0" width="3.413333e+00"/><rect height="4.400603e+01" vector-effect="non-scaling-stroke" x="3.788800e+02" y="0" width="3.413333e+00"/><rect vector-effect="non-scaling-stroke" x="4.002133e+02" y="0" width="3.413333e+00" height="4.459108e+01"/><rect width="3.413333e+00" height="5.601673e+01" vector-effect="non-scaling-stroke" x="4.215467e+02" y="0"/><rect y="0" width="3.413333e+00" height="2.738881e+02" vector-effect="non-scaling-stroke" x="4.428800e+02"/><rect x="4.642133e+02" y="0" width="3.413333e+00" height="5.060189e+01" vector-effect="non-scaling-stroke"/><rect vector-effect="non-scaling-stroke" x="4.855467e+02" y="0" width="3.413333e+00" height="4.447660e+01"/><rect height="4.625277e+01" vector-effect="non-scaling-stroke" x="5.068800e+02" y="0" width="3.413333e+00"/><rect vector-effect="non-scaling-stroke" x="5.282133e+02" y="0" width="3.413333e+00" height="1.632427e+02"/><rect vector-effect="non-scaling-stroke" x="5.495467e+02" y="0" width="3.413333e+00" height="4.400091e+01"/><rect y="0" width="3.413333e+00" height="5.631403e+01" vector-effect="non-scaling-stroke" x="5.708800e+02"/></g><g stroke-linejoin="round" transform="translate(80 520 )scale(1 -1 )" fill="hsl(260, 76%, 65%)" stroke="hsl(260, 76%, 65%)" stroke-width="1px" stroke-linecap="round"><rect vector-effect="non-scaling-stroke" x="6.229333e+01" y="0" width="3.413333e+00" height="4.460969e+01"/><rect x="8.362667e+01" y="0" width="3.413333e+00" height="4.465646e+01" vector-effect="non-scaling-stroke"/><rect height="4.487993e+01" vector-effect="non-scaling-stroke" x="1.049600e+02" y="0" width="3.413333e+00"/><rect height="4.403782e+01" vector-effect="non-scaling-stroke" x="1.262933e+02" y="0" width="3.413333e+00"/><rect width="3.413333e+00" height="44" vector-effect="non-scaling-stroke" x="1.476267e+02" y="0"/><rect vector-effect="non-scaling-stroke" x="1.689600e+02" y="0" width="3.413333e+00" height="44"/><rect y="0" width="3.413333e+00" height="44" vector-effect="non-scaling-stroke" x="1.902933e+02"/><rect width="3.413333e+00" height="44" vector-effect="non-scaling-stroke" x="2.116267e+02" y="0"/><rect height="44" vector-effect="non-scaling-stroke" x="2.329600e+02" y="0" width="3.413333e+00"/><rect height="44" vector-effect="non-scaling-stroke" x="2.542933e+02" y="0" width="3.413333e+00"/><rect x="2.756267e+02" y="0" width="3.413333e+00" height="44" vector-effect="non-scaling-stroke"/><rect y="0" width="3.413333e+00" height="44" vector-effect="non-scaling-stroke" x="2.969600e+02"/><rect height="44" vector-effect="non-scaling-stroke" x="3.182933e+02" y="0" width="3.413333e+00"/><rect x="3.396267e+02" y="0" width="3.413333e+00" height="44" vector-effect="non-scaling-stroke"/><rect height="44" vector-effect="non-scaling-stroke" x="3.609600e+02" y="0" width="3.413333e+00"/><rect vector-effect="non-scaling-stroke" x="3.822933e+02" y="0" width="3.413333e+00" height="44"/><rect vector-effect="non-scaling-stroke" x="4.036267e+02" y="0" width="3.413333e+00" height="44"/><rect vector-effect="non-scaling-stroke" x="4.249600e+02" y="0" width="3.413333e+00" height="44"/><rect width="3.413333e+00" height="44" vector-effect="non-scaling-stroke" x="4.462933e+02" y="0"/><rect width="3.413333e+00" height="44" vector-effect="non-scaling-stroke" x="4.676267e+02" y="0"/><rect width="3.413333e+00" height="44" vector-effect="non-scaling-stroke" x="4.889600e+02" y="0"/><rect x="5.102933e+02" y="0" width="3.413333e+00" height="44" vector-effect="non-scaling-stroke"/><rect vector-effect="non-scaling-stroke" x="5.316267e+02" y="0" width="3.413333e+00" height="44"/><rect vector-effect="non-scaling-stroke" x="5.529600e+02" y="0" width="3.413333e+00" height="44"/><rect vector-effect="non-scaling-stroke" x="5.742933e+02" y="0" width="3.413333e+00" height="44"/></g><g stroke="hsl(111, 64%, 65%)" stroke-width="1px" stroke-linecap="round" stroke-linejoin="round" transform="translate(80 520 )scale(1 -1 )" fill="hsl(111, 64%, 65%)"><rect x="6.570667e+01" y="0" width="3.413333e+00" height="4.400645e+01" vector-effect="non-scaling-stroke"/><rect width="3.413333e+00" height="4.400035e+01" vector-effect="non-scaling-stroke" x="8.704000e+01" y="0"/><rect height="4.401249e+01" vector-effect="non-scaling-stroke" x="1.083733e+02" y="0" width="3.413333e+00"/><rect vector-effect="non-scaling-stroke" x="1.297067e+02" y="0" width="3.413333e+00" height="4.402505e+01"/><rect y="0" width="3.413333e+00" height="4.425044e+01" vector-effect="non-scaling-stroke" x="1.510400e+02"/><rect width="3.413333e+00" height="4.400042e+01" vector-effect="non-scaling-stroke" x="1.723733e+02" y="0"/><rect vector-effect="non-scaling-stroke" x="1.937067e+02" y="0" width="3.413333e+00" height="4.400849e+01"/><rect y="0" width="3.413333e+00" height="4.401070e+01" vector-effect="non-scaling-stroke" x="2.150400e+02"/><rect x="2.363733e+02" y="0" width="3.413333e+00" height="4.404589e+01" vector-effect="non-scaling-stroke"/><rect vector-effect="non-scaling-stroke" x="2.577067e+02" y="0" width="3.413333e+00" height="4.401922e+01"/><rect height="4.405882e+01" vector-effect="non-scaling-stroke" x="2.790400e+02" y="0" width="3.413333e+00"/><rect vector-effect="non-scaling-stroke" x="3.003733e+02" y="0" width="3.413333e+00" height="4.614945e+01"/><rect vector-effect="non-scaling-stroke" x="3.217067e+02" y="0" width="3.413333e+00" height="4.411836e+01"/><rect vector-effect="non-scaling-stroke" x="3.430400e+02" y="0" width="3.413333e+00" height="4.400754e+01"/><rect height="6.871962e+01" vector-effect="non-scaling-stroke" x="3.643733e+02" y="0" width="3.413333e+00"/><rect x="3.857067e+02" y="0" width="3.413333e+00" height="4.400295e+01" vector-effect="non-scaling-stroke"/><rect width="3.413333e+00" height="4.465001e+01" vector-effect="non-scaling-stroke" x="4.070400e+02" y="0"/><rect vector-effect="non-scaling-stroke" x="4.283733e+02" y="0" width="3.413333e+00" height="5.382973e+01"/><rect vector-effect="non-scaling-stroke" x="4.497067e+02" y="0" width="3.413333e+00" height="4.930672e+01"/><rect vector-effect="non-scaling-stroke" x="4.710400e+02" y="0" width="3.413333e+00" height="5.289986e+01"/><rect height="4.400039e+01" vector-effect="non-scaling-stroke" x="4.923733e+02" y="0" width="3.413333e+00"/><rect vector-effect="non-scaling-stroke" x="5.137067e+02" y="0" width="3.413333e+00" height="4.785727e+01"/><rect vector-effect="non-scaling-stroke" x="5.350400e+02" y="0" width="3.413333e+00" height="396"/><rect width="3.413333e+00" height="4.400417e+01" vector-effect="non-scaling-stroke" x="5.563733e+02" y="0"/><rect width="3.413333e+00" height="5.366543e+01" vector-effect="non-scaling-stroke" x="5.777067e+02" y="0"/></g><g stroke-width="1px" stroke-linecap="round" stroke-linejoin="round" transform="translate(80 520 )scale(1 -1 )" fill="hsl(322, 52%, 65%)" stroke="hsl(322, 52%, 65%)"><rect vector-effect="non-scaling-stroke" x="6.912000e+01" y="0" width="3.413333e+00" height="4.400365e+01"/><rect vector-effect="non-scaling-stroke" x="9.045333e+01" y="0" width="3.413333e+00" height="4.400026e+01"/><rect height="4.401881e+01" vector-effect="non-scaling-stroke" x="1.117867e+02" y="0" width="3.413333e+00"/><rect height="4.401315e+01" vector-effect="non-scaling-stroke" x="1.331200e+02" y="0" width="3.413333e+00"/><rect vector-effect="non-scaling-stroke" x="1.544533e+02" y="0" width="3.413333e+00" height="4.426707e+01"/><rect height="4.400026e+01" vector-effect="non-scaling-stroke" x="1.757867e+02" y="0" width="3.413333e+00"/><rect y="0" width="3.413333e+00" height="4.401348e+01" vector-effect="non-scaling-stroke" x="1.971200e+02"/><rect vector-effect="non-scaling-stroke" x="2.184533e+02" y="0" width="3.413333e+00" height="4.447225e+01"/><rect y="0" width="3.413333e+00" height="4.406776e+01" vector-effect="non-scaling-stroke" x="2.397867e+02"/><rect height="4.401294e+01" vector-effect="non-scaling-stroke" x="2.611200e+02" y="0" width="3.413333e+00"/><rect vector-effect="non-scaling-stroke" x="2.824533e+02" y="0" width="3.413333e+00" height="4.405199e+01"/><rect vector-effect="non-scaling-stroke" x="3.037867e+02" y="0" width="3.413333e+00" height="4.406521e+01"/><rect y="0" width="3.413333e+00" height="4.409590e+01" vector-effect="non-scaling-stroke" x="3.251200e+02"/><rect vector-effect="non-scaling-stroke" x="3.464533e+02" y="0" width="3.413333e+00" height="4.403378e+01"/><rect height="4.942849e+01" vector-effect="non-scaling-stroke" x="3.677867e+02" y="0" width="3.413333e+00"/><rect width="3.413333e+00" height="4.412613e+01" vector-effect="non-scaling-stroke" x="3.891200e+02" y="0"/><rect vector-effect="non-scaling-stroke" x="4.104533e+02" y="0" width="3.413333e+00" height="4.441711e+01"/><rect vector-effect="non-scaling-stroke" x="4.317867e+02" y="0" width="3.413333e+00" height="4.811155e+01"/><rect height="44" vector-effect="non-scaling-stroke" x="4.531200e+02" y="0" width="3.413333e+00"/><rect vector-effect="non-scaling-stroke" x="4.744533e+02" y="0" width="3.413333e+00" height="44"/><rect height="4.410673e+01" vector-effect="non-scaling-stroke" x="4.957867e+02" y="0" width="3.413333e+00"/><rect vector-effect="non-scaling-stroke" x="5.171200e+02" y="0" width="3.413333e+00" height="44"/><rect vector-effect="non-scaling-stroke" x="5.384533e+02" y="0" width="3.413333e+00" height="44"/><rect vector-effect="non-scaling-stroke" x="5.597867e+02" y="0" width="3.413333e+00" height="44"/><rect width="3.413333e+00" height="44" vector-effect="non-scaling-stroke" x="5.811200e+02" y="0"/></g><g font-weight="normal" fill="hsl(198, 47%, 65%)" stroke-linecap="round" stroke-linejoin="round" stroke="hsl(198, 47%, 65%)" stroke-width="1px" font-family="sans-serif" font-size="12px" text-anchor="start" dominant-baseline="hanging" font-style="normal"><rect x="736" y="430" width="12" height="12" vector-effect="non-scaling-stroke"/><g fill="black" stroke="black"><text stroke="none" vector-effect="non-scaling-stroke" x="752" y="430" dominant-baseline="hanging">Crystal</text></g><g font-size="12px" font-style="normal" font-weight="normal" stroke="hsl(49, 88%, 65%)" font-family="sans-serif" fill="hsl(49, 88%, 65%)" stroke-linejoin="round" stroke-width="1px" text-anchor="start" dominant-baseline="hanging" stroke-linecap="round"><rect width="12" height="12" vector-effect="non-scaling-stroke" x="736" y="448"/><g fill="black" stroke="black"><text vector-effect="non-scaling-stroke" x="752" y="448" dominant-baseline="hanging" stroke="none">Golang</text></g><g stroke-linejoin="round" font-weight="normal" stroke-linecap="round" stroke="hsl(260, 76%, 65%)" stroke-width="1px" font-size="12px" font-style="normal" fill="hsl(260, 76%, 65%)" font-family="sans-serif" text-anchor="start" dominant-baseline="hanging"><rect x="736" y="466" width="12" height="12" vector-effect="non-scaling-stroke"/><g stroke="black" fill="black"><text dominant-baseline="hanging" stroke="none" vector-effect="non-scaling-stroke" x="752" y="466">Haskell</text></g><g stroke="hsl(111, 64%, 65%)" font-family="sans-serif" stroke-linecap="round" font-size="12px" font-style="normal" stroke-width="1px" text-anchor="start" dominant-baseline="hanging" font-weight="normal" fill="hsl(111, 64%, 65%)" stroke-linejoin="round"><rect x="736" y="484" width="12" height="12" vector-effect="non-scaling-stroke"/><g fill="black" stroke="black"><text x="752" y="484" dominant-baseline="hanging" stroke="none" vector-effect="non-scaling-stroke">Rust</text></g><g font-size="12px" fill="hsl(322, 52%, 65%)" text-anchor="start" stroke-linejoin="round" dominant-baseline="hanging" stroke="hsl(322, 52%, 65%)" stroke-width="1px" font-family="sans-serif" font-style="normal" font-weight="normal" stroke-linecap="round"><rect x="736" y="502" width="12" height="12" vector-effect="non-scaling-stroke"/><g fill="black" stroke="black"><text dominant-baseline="hanging" stroke="none" vector-effect="non-scaling-stroke" x="752" y="502">Zig</text><g font-size="12px" font-family="sans-serif" stroke-linejoin="round" stroke-width="2px" text-anchor="start" font-style="normal" dominant-baseline="hanging" stroke-linecap="round" font-weight="normal" fill="none"><rect width="640" height="440" vector-effect="non-scaling-stroke" x="80" y="80"/></g><g font-style="normal" font-weight="normal" stroke-width="2px" font-family="sans-serif" text-anchor="start" dominant-baseline="hanging" fill="none" stroke-linecap="round" transform="translate(80 520 )scale(1 -1 )" stroke="black" stroke-linejoin="round" font-size="12px"><path vector-effect="non-scaling-stroke" d="M64,0 L64,-6 M8.533333e+01,0 L8.533333e+01,-6 M1.066667e+02,0 L1.066667e+02,-6 M128,0 L128,-6 M1.493333e+02,0 L1.493333e+02,-6 M1.706667e+02,0 L1.706667e+02,-6 M192,0 L192,-6 M2.133333e+02,0 L2.133333e+02,-6 M2.346667e+02,0 L2.346667e+02,-6 M256,0 L256,-6 M2.773333e+02,0 L2.773333e+02,-6 M2.986667e+02,0 L2.986667e+02,-6 M320,0 L320,-6 M3.413333e+02,0 L3.413333e+02,-6 M3.626667e+02,0 L3.626667e+02,-6 M384,0 L384,-6 M4.053333e+02,0 L4.053333e+02,-6 M4.266667e+02,0 L4.266667e+02,-6 M448,0 L448,-6 M4.693333e+02,0 L4.693333e+02,-6 M4.906667e+02,0 L4.906667e+02,-6 M512,0 L512,-6 M5.333333e+02,0 L5.333333e+02,-6 M5.546667e+02,0 L5.546667e+02,-6 M576,0 L576,-6 "/></g><g stroke-linecap="round" stroke-linejoin="round" font-size="12px" font-weight="normal" stroke="black" dominant-baseline="hanging" transform="translate(80 520 )scale(1 1 )" fill="black" stroke-width="2px" font-family="sans-serif" text-anchor="middle" font-style="normal"><text dominant-baseline="hanging" stroke="none" vector-effect="non-scaling-stroke" x="64" y="10">1</text><text stroke="none" vector-effect="non-scaling-stroke" x="8.533333e+01" y="10" dominant-baseline="hanging">2</text><text stroke="none" vector-effect="non-scaling-stroke" x="1.066667e+02" y="10" dominant-baseline="hanging">3</text><text stroke="none" vector-effect="non-scaling-stroke" x="128" y="10" dominant-baseline="hanging">4</text><text x="1.493333e+02" y="10" dominant-baseline="hanging" stroke="none" vector-effect="non-scaling-stroke">5</text><text x="1.706667e+02" y="10" dominant-baseline="hanging" stroke="none" vector-effect="non-scaling-stroke">6</text><text dominant-baseline="hanging" stroke="none" vector-effect="non-scaling-stroke" x="192" y="10">7</text><text stroke="none" vector-effect="non-scaling-stroke" x="2.133333e+02" y="10" dominant-baseline="hanging">8</text><text dominant-baseline="hanging" stroke="none" vector-effect="non-scaling-stroke" x="2.346667e+02" y="10">9</text><text stroke="none" vector-effect="non-scaling-stroke" x="256" y="10" dominant-baseline="hanging">10</text><text x="2.773333e+02" y="10" dominant-baseline="hanging" stroke="none" vector-effect="non-scaling-stroke">11</text><text y="10" dominant-baseline="hanging" stroke="none" vector-effect="non-scaling-stroke" x="2.986667e+02">12</text><text dominant-baseline="hanging" stroke="none" vector-effect="non-scaling-stroke" x="320" y="10">13</text><text vector-effect="non-scaling-stroke" x="3.413333e+02" y="10" dominant-baseline="hanging" stroke="none">14</text><text vector-effect="non-scaling-stroke" x="3.626667e+02" y="10" dominant-baseline="hanging" stroke="none">15</text><text dominant-baseline="hanging" stroke="none" vector-effect="non-scaling-stroke" x="384" y="10">16</text><text dominant-baseline="hanging" stroke="none" vector-effect="non-scaling-stroke" x="4.053333e+02" y="10">17</text><text dominant-baseline="hanging" stroke="none" vector-effect="non-scaling-stroke" x="4.266667e+02" y="10">18</text><text y="10" dominant-baseline="hanging" stroke="none" vector-effect="non-scaling-stroke" x="448">19</text><text x="4.693333e+02" y="10" dominant-baseline="hanging" stroke="none" vector-effect="non-scaling-stroke">20</text><text stroke="none" vector-effect="non-scaling-stroke" x="4.906667e+02" y="10" dominant-baseline="hanging">21</text><text y="10" dominant-baseline="hanging" stroke="none" vector-effect="non-scaling-stroke" x="512">22</text><text stroke="none" vector-effect="non-scaling-stroke" x="5.333333e+02" y="10" dominant-baseline="hanging">23</text><text x="5.546667e+02" y="10" dominant-baseline="hanging" stroke="none" vector-effect="non-scaling-stroke">24</text><text vector-effect="non-scaling-stroke" x="576" y="10" dominant-baseline="hanging" stroke="none">25</text></g><g transform="translate(80 520 )scale(1 1 )rotate(0 0 0 )" stroke-width="2px" font-family="sans-serif" text-anchor="middle" stroke="black" dominant-baseline="baseline" font-weight="bold" fill="black" stroke-linecap="round" stroke-linejoin="round" font-size="12px" font-style="normal"><text stroke="none" vector-effect="non-scaling-stroke" x="320" y="-6" dominant-baseline="baseline">Day</text></g><g dominant-baseline="baseline" stroke="black" stroke-width="2px" font-style="normal" font-weight="bold" fill="black" stroke-linejoin="round" font-size="12px" transform="translate(80 520 )scale(1 -1 )" font-family="sans-serif" text-anchor="middle" stroke-linecap="round"><path vector-effect="non-scaling-stroke" d="M0,44 L-6,44 M0,9.124436e+01 L-6,9.124436e+01 M0,1.384887e+02 L-6,1.384887e+02 M0,1.857331e+02 L-6,1.857331e+02 M0,2.329774e+02 L-6,2.329774e+02 M0,2.802218e+02 L-6,2.802218e+02 M0,3.274662e+02 L-6,3.274662e+02 M0,3.747105e+02 L-6,3.747105e+02 "/></g><g stroke="black" font-family="sans-serif" stroke-linejoin="round" dominant-baseline="middle" transform="translate(80 520 )scale(1 1 )" stroke-linecap="round" font-size="12px" stroke-width="2px" text-anchor="end" font-style="normal" font-weight="normal" fill="black"><text dominant-baseline="middle" stroke="none" vector-effect="non-scaling-stroke" x="-10" y="-44">0s</text><text stroke="none" vector-effect="non-scaling-stroke" x="-10" y="-9.124436e+01" dominant-baseline="middle">200ms</text><text vector-effect="non-scaling-stroke" x="-10" y="-1.384887e+02" dominant-baseline="middle" stroke="none">400ms</text><text stroke="none" vector-effect="non-scaling-stroke" x="-10" y="-1.857331e+02" dominant-baseline="middle">600ms</text><text stroke="none" vector-effect="non-scaling-stroke" x="-10" y="-2.329774e+02" dominant-baseline="middle">800ms</text><text y="-2.802218e+02" dominant-baseline="middle" stroke="none" vector-effect="non-scaling-stroke" x="-10">1s</text><text stroke="none" vector-effect="non-scaling-stroke" x="-10" y="-3.274662e+02" dominant-baseline="middle">1.2s</text><text stroke="none" vector-effect="non-scaling-stroke" x="-10" y="-3.747105e+02" dominant-baseline="middle">1.4s</text></g><g font-family="sans-serif" text-anchor="middle" fill="black" font-weight="bold" stroke-linecap="round" stroke-linejoin="round" font-size="12px" font-style="normal" stroke="black" stroke-width="2px" dominant-baseline="hanging" transform="translate(80 520 )scale(1 1 )rotate(-90 0 0 )"><text stroke="none" vector-effect="non-scaling-stroke" x="220" y="6" dominant-baseline="hanging">Runtime</text></g></g></g></g></g></g></g></svg>