<svg width="800" height="600" viewbox="0 0 800 600" preserveAspectRatio="xMidYMid meet" xmlns="http://www.w3.org/2000/svg"><defs><marker markerHeight="2%" id="circle" viewBox="0 0 10 10 " refX="5" refY="5" markerUnits="userSpaceOnUse" markerWidth="2%"><circle fill="none" stroke="black" cx="5" cy="5" r="3"/></marker><marker markerWidth="2%" markerHeight="2%" id="filled-circle" viewBox="0 0 10 10 " refX="5" refY="5" markerUnits="userSpaceOnUse"><circle cx="5" cy="5" r="3" fill="black" stroke="none"/></marker><marker id="square" viewBox="0 0 10 10 " refX="5" refY="5" markerUnits="userSpaceOnUse" markerWidth="2%" markerHeight="2%"><rect height="6" fill="none" stroke="black" x="2" y="2" width="6"/></marker><marker markerHeight="2%" id="filled-square" viewBox="0 0 10 10 " refX="5" refY="5" markerUnits="userSpaceOnUse" markerWidth="2%"><rect width="6" height="6" fill="black" stroke="none" x="2" y="2"/></marker></defs><g stroke-linejoin="round" transform="translate(80 520 )scale(1 -1 )" fill="hsl(198, 47%, 65%)" stroke="hsl(198, 47%, 65%)" stroke-width="1px" stroke-linecap="round"><rect height="4.403267e+01" vector-effect="non-scaling-stroke" x="3.733333e+01" y="0" width="1.777778e+01"/><rect y="0" width="1.777778e+01" height="4.400104e+01" vector-effect="non-scaling-stroke" x="5.866667e+01"/><rect x="80" y="0" width="1.777778e+01" height="4.400471e+01" vector-effect="non-scaling-stroke"/><rect x="1.013333e+02" y="0" width="1.777778e+01" height="4.400597e+01" vector-effect="non-scaling-stroke"/><rect height="7.832963e+02" vector-effect="non-scaling-stroke" x="1.226667e+02" y="0" width="1.777778e+01"/><rect y="0" width="1.777778e+01" height="4.400002e+01" vector-effect="non-scaling-stroke" x="1.440000e+02"/><rect vector-effect="non-scaling-stroke" x="1.653333e+02" y="0" width="1.777778e+01" height="4.406514e+01"/><rect vector-effect="non-scaling-stroke" x="1.866667e+02" y="0" width="1.777778e+01" height="4.419569e+01"/></g><g stroke-linejoin="round" transform="translate(80 520 )scale(1 -1 )" fill="hsl(49, 88%, 65%)" stroke="hsl(49, 88%, 65%)" stroke-width="1px" stroke-linecap="round"><rect height="4.401633e+01" vector-effect="non-scaling-stroke" x="5.511111e+01" y="0" width="1.777778e+01"/><rect x="7.644444e+01" y="0" width="1.777778e+01" height="4.400042e+01" vector-effect="non-scaling-stroke"/><rect x="9.777778e+01" y="0" width="1.777778e+01" height="4.400305e+01" vector-effect="non-scaling-stroke"/><rect height="4.400333e+01" vector-effect="non-scaling-stroke" x="1.191111e+02" y="0" width="1.777778e+01"/><rect vector-effect="non-scaling-stroke" x="1.617778e+02" y="0" width="1.777778e+01" height="4.400002e+01"/></g><g transform="translate(80 520 )scale(1 -1 )" fill="hsl(260, 76%, 65%)" stroke="hsl(260, 76%, 65%)" stroke-width="1px" stroke-linecap="round" stroke-linejoin="round"><rect width="1.777778e+01" height="4.401304e+01" vector-effect="non-scaling-stroke" x="7.288889e+01" y="0"/><rect x="9.422222e+01" y="0" width="1.777778e+01" height="4.400046e+01" vector-effect="non-scaling-stroke"/><rect y="0" width="1.777778e+01" height="4.400245e+01" vector-effect="non-scaling-stroke" x="1.155556e+02"/><rect width="1.777778e+01" height="4.400930e+01" vector-effect="non-scaling-stroke" x="1.368889e+02" y="0"/><rect x="1.795556e+02" y="0" width="1.777778e+01" height="4.400002e+01" vector-effect="non-scaling-stroke"/></g><g font-style="normal" stroke-linecap="round" font-weight="normal" text-anchor="start" dominant-baseline="hanging" stroke-width="1px" stroke-linejoin="round" stroke="hsl(198, 47%, 65%)" font-family="sans-serif" fill="hsl(198, 47%, 65%)" font-size="12px"><rect width="12" height="12" vector-effect="non-scaling-stroke" x="736" y="466"/><g stroke="black" fill="black"><text stroke="none" vector-effect="non-scaling-stroke" x="752" y="466" dominant-baseline="hanging">Golang</text></g><g fill="hsl(49, 88%, 65%)" text-anchor="start" stroke="hsl(49, 88%, 65%)" stroke-width="1px" font-size="12px" stroke-linecap="round" font-family="sans-serif" font-weight="normal" dominant-baseline="hanging" stroke-linejoin="round" font-style="normal"><rect height="12" vector-effect="non-scaling-stroke" x="736" y="484" width="12"/><g fill="black" stroke="black"><text vector-effect="non-scaling-stroke" x="752" y="484" dominant-baseline="hanging" stroke="none">Rust</text></g><g font-style="normal" fill="hsl(260, 76%, 65%)" stroke-width="1px" font-family="sans-serif" dominant-baseline="hanging" stroke="hsl(260, 76%, 65%)" font-size="12px" font-weight="normal" text-anchor="start" stroke-linecap="round" stroke-linejoin="round"><rect height="12" vector-effect="non-scaling-stroke" x="736" y="502" width="12"/><g fill="black" stroke="black"><text dominant-baseline="hanging" stroke="none" vector-effect="non-scaling-stroke" x="752" y="502">Zig</text><g font-size="12px" fill="none" stroke-linecap="round" dominant-baseline="hanging" font-style="normal" font-weight="normal" text-anchor="start" stroke-width="2px" font-family="sans-serif" stroke-linejoin="round"><rect x="80" y="80" width="640" height="440" vector-effect="non-scaling-stroke"/></g><g fill="none" font-style="normal" stroke="black" stroke-linecap="round" dominant-baseline="hanging" transform="translate(80 520 )scale(1 -1 )" stroke-linejoin="round" font-size="12px" font-family="sans-serif" font-weight="normal" text-anchor="start" stroke-width="2px"><path vector-effect="non-scaling-stroke" d="M64,0 L64,-6 M8.533333e+01,0 L8.533333e+01,-6 M1.066667e+02,0 L1.066667e+02,-6 M128,0 L128,-6 M1.493333e+02,0 L1.493333e+02,-6 M1.706667e+02,0 L1.706667e+02,-6 M192,0 L192,-6 M2.133333e+02,0 L2.133333e+02,-6 "/></g><g font-weight="normal" font-family="sans-serif" fill="black" stroke-linecap="round" font-size="12px" font-style="normal" stroke-width="2px" text-anchor="middle" dominant-baseline="hanging" transform="translate(80 520 )scale(1 1 )" stroke="black" stroke-linejoin="round"><text stroke="none" vector-effect="non-scaling-stroke" x="64" y="10" dominant-baseline="hanging">1</text><text y="10" dominant-baseline="hanging" stroke="none" vector-effect="non-scaling-stroke" x="8.533333e+01">2</text><text vector-effect="non-scaling-stroke" x="1.066667e+02" y="10" dominant-baseline="hanging" stroke="none">3</text><text stroke="none" vector-effect="non-scaling-stroke" x="128" y="10" dominant-baseline="hanging">4</text><text dominant-baseline="hanging" stroke="none" vector-effect="non-scaling-stroke" x="1.493333e+02" y="10">5</text><text x="1.706667e+02" y="10" dominant-baseline="hanging" stroke="none" vector-effect="non-scaling-stroke">6</text><text vector-effect="non-scaling-stroke" x="192" y="10" dominant-baseline="hanging" stroke="none">7</text><text x="2.133333e+02" y="10" dominant-baseline="hanging" stroke="none" vector-effect="non-scaling-stroke">8</text></g><g stroke="black" stroke-linecap="round" font-family="sans-serif" font-weight="bold" fill="black" stroke-width="2px" stroke-linejoin="round" transform="translate(80 520 )scale(1 1 )rotate(0 0 0 )" font-size="12px" dominant-baseline="baseline" font-style="normal" text-anchor="middle"><text stroke="none" vector-effect="non-scaling-stroke" x="320" y="-6" dominant-baseline="baseline">Day</text></g><g stroke-linejoin="round" font-size="12px" font-family="sans-serif" dominant-baseline="baseline" transform="translate(80 520 )scale(1 -1 )" fill="black" stroke-width="2px" font-style="normal" stroke="black" stroke-linecap="round" font-weight="bold" text-anchor="middle"><path vector-effect="non-scaling-stroke" d="M0,44 L-6,44 M0,7.920000e+01 L-6,7.920000e+01 M0,1.144000e+02 L-6,1.144000e+02 M0,1.496000e+02 L-6,1.496000e+02 M0,1.848000e+02 L-6,1.848000e+02 M0,220 L-6,220 M0,2.552000e+02 L-6,2.552000e+02 M0,2.904000e+02 L-6,2.904000e+02 M0,3.256000e+02 L-6,3.256000e+02 M0,3.608000e+02 L-6,3.608000e+02 M0,396 L-6,396 "/></g><g font-family="sans-serif" text-anchor="end" stroke-width="2px" font-size="12px" font-style="normal" stroke="black" stroke-linecap="round" font-weight="normal" dominant-baseline="middle" fill="black" stroke-linejoin="round" transform="translate(80 520 )scale(1 1 )"><text vector-effect="non-scaling-stroke" x="-10" y="-44" dominant-baseline="middle" stroke="none">0s</text><text x="-10" y="-7.920000e+01" dominant-baseline="middle" stroke="none" vector-effect="non-scaling-stroke">200ms</text><text stroke="none" vector-effect="non-scaling-stroke" x="-10" y="-1.144000e+02" dominant-baseline="middle">400ms</text><text stroke="none" vector-effect="non-scaling-stroke" x="-10" y="-1.496000e+02" dominant-baseline="middle">600ms</text><text y="-1.848000e+02" dominant-baseline="middle" stroke="none" vector-effect="non-scaling-stroke" x="-10">800ms</text><text stroke="none" vector-effect="non-scaling-stroke" x="-10" y="-220" dominant-baseline="middle">1s</text><text stroke="none" vector-effect="non-scaling-stroke" x="-10" y="-2.552000e+02" dominant-baseline="middle">1.2s</text><text x="-10" y="-2.904000e+02" dominant-baseline="middle" stroke="none" vector-effect="non-scaling-stroke">1.4s</text><text stroke="none" vector-effect="non-scaling-stroke" x="-10" y="-3.256000e+02" dominant-baseline="middle">1.6s</text><text vector-effect="non-scaling-stroke" x="-10" y="-3.608000e+02" dominant-baseline="middle" stroke="none">1.8s</text><text x="-10" y="-396" dominant-baseline="middle" stroke="none" vector-effect="non-scaling-stroke">2s</text></g><g stroke-linecap="round" font-family="sans-serif" fill="black" stroke-width="2px" text-anchor="middle" dominant-baseline="hanging" transform="translate(80 520 )scale(1 1 )rotate(-90 0 0 )" stroke="black" font-size="12px" font-style="normal" stroke-linejoin="round" font-weight="bold"><text stroke="none" vector-effect="non-scaling-stroke" x="220" y="6" dominant-baseline="hanging">Runtime</text></g></g></g></g></g></svg>