<svg xmlns="http://www.w3.org/2000/svg" width="800" height="600" viewbox="0 0 800 600" preserveAspectRatio="xMidYMid meet"><defs><marker id="circle" viewBox="0 0 10 10 " refX="5" refY="5" markerUnits="userSpaceOnUse" markerWidth="2%" markerHeight="2%"><circle cy="5" r="3" fill="none" stroke="black" cx="5"/></marker><marker refX="5" refY="5" markerUnits="userSpaceOnUse" markerWidth="2%" markerHeight="2%" id="filled-circle" viewBox="0 0 10 10 "><circle stroke="none" cx="5" cy="5" r="3" fill="black"/></marker><marker viewBox="0 0 10 10 " refX="5" refY="5" markerUnits="userSpaceOnUse" markerWidth="2%" markerHeight="2%" id="square"><rect y="2" width="6" height="6" fill="none" stroke="black" x="2"/></marker><marker id="filled-square" viewBox="0 0 10 10 " refX="5" refY="5" markerUnits="userSpaceOnUse" markerWidth="2%" markerHeight="2%"><rect fill="black" stroke="none" x="2" y="2" width="6" height="6"/></marker></defs><g transform="translate(80 520 )scale(1 -1 )" fill="hsl(198, 47%, 65%)" stroke="hsl(198, 47%, 65%)" stroke-width="1px" stroke-linecap="round" stroke-linejoin="round"><rect y="0" width="1.292929e+01" height="4.410760e+01" vector-effect="non-scaling-stroke" x="4.460606e+01"/><rect width="1.292929e+01" height="1.357531e+02" vector-effect="non-scaling-stroke" x="9.115152e+01" y="0"/><rect height="4.456632e+01" vector-effect="non-scaling-stroke" x="1.376970e+02" y="0" width="1.292929e+01"/><rect height="6.681151e+01" vector-effect="non-scaling-stroke" x="1.842424e+02" y="0" width="1.292929e+01"/><rect x="2.307879e+02" y="0" width="1.292929e+01" height="4.442906e+01" vector-effect="non-scaling-stroke"/><rect y="0" width="1.292929e+01" height="4.419161e+01" vector-effect="non-scaling-stroke" x="2.773333e+02"/><rect vector-effect="non-scaling-stroke" x="3.238788e+02" y="0" width="1.292929e+01" height="4.404994e+01"/><rect vector-effect="non-scaling-stroke" x="3.704242e+02" y="0" width="1.292929e+01" height="396"/><rect width="1.292929e+01" height="8.347082e+01" vector-effect="non-scaling-stroke" x="4.169697e+02" y="0"/><rect vector-effect="non-scaling-stroke" x="4.635152e+02" y="0" width="1.292929e+01" height="7.833864e+01"/><rect x="5.100606e+02" y="0" width="1.292929e+01" height="4.607239e+01" vector-effect="non-scaling-stroke"/></g><g stroke="hsl(49, 88%, 65%)" stroke-width="1px" stroke-linecap="round" stroke-linejoin="round" transform="translate(80 520 )scale(1 -1 )" fill="hsl(49, 88%, 65%)"><rect x="5.753535e+01" y="0" width="1.292929e+01" height="4.405445e+01" vector-effect="non-scaling-stroke"/><rect vector-effect="non-scaling-stroke" x="1.040808e+02" y="0" width="1.292929e+01" height="1.621897e+02"/><rect x="1.506263e+02" y="0" width="1.292929e+01" height="4.434206e+01" vector-effect="non-scaling-stroke"/><rect vector-effect="non-scaling-stroke" x="1.971717e+02" y="0" width="1.292929e+01" height="4.642057e+01"/><rect vector-effect="non-scaling-stroke" x="2.437172e+02" y="0" width="1.292929e+01" height="4.476679e+01"/><rect height="4.413790e+01" vector-effect="non-scaling-stroke" x="2.902626e+02" y="0" width="1.292929e+01"/><rect width="1.292929e+01" height="4.406232e+01" vector-effect="non-scaling-stroke" x="3.368081e+02" y="0"/><rect x="3.833535e+02" y="0" width="1.292929e+01" height="1.618717e+02" vector-effect="non-scaling-stroke"/><rect height="6.854051e+01" vector-effect="non-scaling-stroke" x="4.298990e+02" y="0" width="1.292929e+01"/></g><g fill="hsl(260, 76%, 65%)" stroke="hsl(260, 76%, 65%)" stroke-width="1px" stroke-linecap="round" stroke-linejoin="round" transform="translate(80 520 )scale(1 -1 )"><rect x="7.046465e+01" y="0" width="1.292929e+01" height="4.405652e+01" vector-effect="non-scaling-stroke"/><rect vector-effect="non-scaling-stroke" x="1.170101e+02" y="0" width="1.292929e+01" height="1.003720e+02"/><rect width="1.292929e+01" height="4.423564e+01" vector-effect="non-scaling-stroke" x="1.635556e+02" y="0"/><rect height="4.678042e+01" vector-effect="non-scaling-stroke" x="2.101010e+02" y="0" width="1.292929e+01"/><rect width="1.292929e+01" height="4.437231e+01" vector-effect="non-scaling-stroke" x="2.566465e+02" y="0"/><rect x="3.031919e+02" y="0" width="1.292929e+01" height="4.410825e+01" vector-effect="non-scaling-stroke"/><rect height="4.404004e+01" vector-effect="non-scaling-stroke" x="3.497374e+02" y="0" width="1.292929e+01"/><rect y="0" width="1.292929e+01" height="2.545900e+02" vector-effect="non-scaling-stroke" x="3.962828e+02"/><rect height="7.050048e+01" vector-effect="non-scaling-stroke" x="4.428283e+02" y="0" width="1.292929e+01"/></g><g fill="hsl(198, 47%, 65%)" stroke="hsl(198, 47%, 65%)" stroke-linejoin="round" stroke-width="1px" font-size="12px" font-weight="normal" text-anchor="start" dominant-baseline="hanging" stroke-linecap="round" font-family="sans-serif" font-style="normal"><rect width="12" height="12" vector-effect="non-scaling-stroke" x="736" y="466"/><g fill="black" stroke="black"><text vector-effect="non-scaling-stroke" x="752" y="466" dominant-baseline="hanging" stroke="none">Golang</text></g><g stroke="hsl(49, 88%, 65%)" stroke-linejoin="round" text-anchor="start" dominant-baseline="hanging" stroke-width="1px" stroke-linecap="round" font-family="sans-serif" font-size="12px" font-style="normal" font-weight="normal" fill="hsl(49, 88%, 65%)"><rect vector-effect="non-scaling-stroke" x="736" y="484" width="12" height="12"/><g fill="black" stroke="black"><text dominant-baseline="hanging" stroke="none" vector-effect="non-scaling-stroke" x="752" y="484">Rust</text></g><g font-size="12px" font-style="normal" font-weight="normal" text-anchor="start" dominant-baseline="hanging" stroke-width="1px" stroke-linecap="round" fill="hsl(260, 76%, 65%)" stroke="hsl(260, 76%, 65%)" stroke-linejoin="round" font-family="sans-serif"><rect height="12" vector-effect="non-scaling-stroke" x="736" y="502" width="12"/><g fill="black" stroke="black"><text x="752" y="502" dominant-baseline="hanging" stroke="none" vector-effect="non-scaling-stroke">Zig</text><g font-family="sans-serif" font-size="12px" font-style="normal" stroke-linejoin="round" stroke-width="2px" font-weight="normal" text-anchor="start" dominant-baseline="hanging" stroke-linecap="round" fill="none"><rect width="640" height="440" vector-effect="non-scaling-stroke" x="80" y="80"/></g><g font-size="12px" stroke="black" stroke-linejoin="round" text-anchor="start" stroke-width="2px" font-style="normal" font-weight="normal" fill="none" dominant-baseline="hanging" transform="translate(80 520 )scale(1 -1 )" stroke-linecap="round" font-family="sans-serif"><path vector-effect="non-scaling-stroke" d="M64,0 L64,-6 M1.105455e+02,0 L1.105455e+02,-6 M1.570909e+02,0 L1.570909e+02,-6 M2.036364e+02,0 L2.036364e+02,-6 M2.501818e+02,0 L2.501818e+02,-6 M2.967273e+02,0 L2.967273e+02,-6 M3.432727e+02,0 L3.432727e+02,-6 M3.898182e+02,0 L3.898182e+02,-6 M4.363636e+02,0 L4.363636e+02,-6 M4.829091e+02,0 L4.829091e+02,-6 M5.294545e+02,0 L5.294545e+02,-6 "/></g><g font-family="sans-serif" font-style="normal" fill="black" stroke="black" stroke-linejoin="round" text-anchor="middle" transform="translate(80 520 )scale(1 1 )" stroke-linecap="round" font-size="12px" font-weight="normal" dominant-baseline="hanging" stroke-width="2px"><text y="10" dominant-baseline="hanging" stroke="none" vector-effect="non-scaling-stroke" x="64">1</text><text y="10" dominant-baseline="hanging" stroke="none" vector-effect="non-scaling-stroke" x="1.105455e+02">2</text><text dominant-baseline="hanging" stroke="none" vector-effect="non-scaling-stroke" x="1.570909e+02" y="10">3</text><text vector-effect="non-scaling-stroke" x="2.036364e+02" y="10" dominant-baseline="hanging" stroke="none">4</text><text y="10" dominant-baseline="hanging" stroke="none" vector-effect="non-scaling-stroke" x="2.501818e+02">5</text><text y="10" dominant-baseline="hanging" stroke="none" vector-effect="non-scaling-stroke" x="2.967273e+02">6</text><text y="10" dominant-baseline="hanging" stroke="none" vector-effect="non-scaling-stroke" x="3.432727e+02">7</text><text x="3.898182e+02" y="10" dominant-baseline="hanging" stroke="none" vector-effect="non-scaling-stroke">8</text><text stroke="none" vector-effect="non-scaling-stroke" x="4.363636e+02" y="10" dominant-baseline="hanging">9</text><text stroke="none" vector-effect="non-scaling-stroke" x="4.829091e+02" y="10" dominant-baseline="hanging">10</text><text vector-effect="non-scaling-stroke" x="5.294545e+02" y="10" dominant-baseline="hanging" stroke="none">11</text></g><g stroke="black" dominant-baseline="baseline" font-style="normal" font-weight="bold" fill="black" stroke-linejoin="round" text-anchor="middle" transform="translate(80 520 )scale(1 1 )rotate(0 0 0 )" stroke-width="2px" stroke-linecap="round" font-family="sans-serif" font-size="12px"><text vector-effect="non-scaling-stroke" x="320" y="-6" dominant-baseline="baseline" stroke="none">Day</text></g><g stroke="black" stroke-linejoin="round" transform="translate(80 520 )scale(1 -1 )" stroke-width="2px" stroke-linecap="round" font-size="12px" fill="black" text-anchor="middle" dominant-baseline="baseline" font-family="sans-serif" font-style="normal" font-weight="bold"><path vector-effect="non-scaling-stroke" d="M0,44 L-6,44 M0,9.977477e+01 L-6,9.977477e+01 M0,1.555495e+02 L-6,1.555495e+02 M0,2.113243e+02 L-6,2.113243e+02 M0,2.670991e+02 L-6,2.670991e+02 M0,3.228738e+02 L-6,3.228738e+02 M0,3.786486e+02 L-6,3.786486e+02 "/></g><g stroke-linejoin="round" text-anchor="end" dominant-baseline="middle" transform="translate(80 520 )scale(1 1 )" stroke-linecap="round" font-size="12px" font-style="normal" font-weight="normal" fill="black" stroke="black" stroke-width="2px" font-family="sans-serif"><text y="-44" dominant-baseline="middle" stroke="none" vector-effect="non-scaling-stroke" x="-10">0s</text><text stroke="none" vector-effect="non-scaling-stroke" x="-10" y="-9.977477e+01" dominant-baseline="middle">10ms</text><text stroke="none" vector-effect="non-scaling-stroke" x="-10" y="-1.555495e+02" dominant-baseline="middle">20ms</text><text y="-2.113243e+02" dominant-baseline="middle" stroke="none" vector-effect="non-scaling-stroke" x="-10">30ms</text><text vector-effect="non-scaling-stroke" x="-10" y="-2.670991e+02" dominant-baseline="middle" stroke="none">40ms</text><text y="-3.228738e+02" dominant-baseline="middle" stroke="none" vector-effect="non-scaling-stroke" x="-10">50ms</text><text y="-3.786486e+02" dominant-baseline="middle" stroke="none" vector-effect="non-scaling-stroke" x="-10">60ms</text></g><g font-weight="bold" fill="black" text-anchor="middle" dominant-baseline="hanging" transform="translate(80 520 )scale(1 1 )rotate(-90 0 0 )" stroke-width="2px" stroke-linecap="round" font-family="sans-serif" font-style="normal" stroke="black" stroke-linejoin="round" font-size="12px"><text y="6" dominant-baseline="hanging" stroke="none" vector-effect="non-scaling-stroke" x="220">Runtime</text></g></g></g></g></g></svg>