<svg xmlns="http://www.w3.org/2000/svg" width="800" height="600" viewbox="0 0 800 600" preserveAspectRatio="xMidYMid meet"><defs><marker id="circle" viewBox="0 0 10 10 " refX="5" refY="5" markerUnits="userSpaceOnUse" markerWidth="2%" markerHeight="2%"><circle fill="none" stroke="black" cx="5" cy="5" r="3"/></marker><marker markerWidth="2%" markerHeight="2%" id="filled-circle" viewBox="0 0 10 10 " refX="5" refY="5" markerUnits="userSpaceOnUse"><circle fill="black" stroke="none" cx="5" cy="5" r="3"/></marker><marker markerWidth="2%" markerHeight="2%" id="square" viewBox="0 0 10 10 " refX="5" refY="5" markerUnits="userSpaceOnUse"><rect stroke="black" x="2" y="2" width="6" height="6" fill="none"/></marker><marker markerUnits="userSpaceOnUse" markerWidth="2%" markerHeight="2%" id="filled-square" viewBox="0 0 10 10 " refX="5" refY="5"><rect x="2" y="2" width="6" height="6" fill="black" stroke="none"/></marker></defs><g fill="hsl(198, 47%, 65%)" stroke="hsl(198, 47%, 65%)" stroke-width="1px" stroke-linecap="round" stroke-linejoin="round" transform="translate(80 520 )scale(1 -1 )"><rect vector-effect="non-scaling-stroke" x="5.472464e+01" y="0" width="6.183575e+00" height="4.403874e+01"/><rect y="0" width="6.183575e+00" height="4.400159e+01" vector-effect="non-scaling-stroke" x="7.605797e+01"/><rect x="9.739130e+01" y="0" width="6.183575e+00" height="4.400658e+01" vector-effect="non-scaling-stroke"/><rect width="6.183575e+00" height="4.400744e+01" vector-effect="non-scaling-stroke" x="1.187246e+02" y="0"/><rect vector-effect="non-scaling-stroke" x="1.400580e+02" y="0" width="6.183575e+00" height="4.401320e+01"/><rect width="6.183575e+00" height="4.400003e+01" vector-effect="non-scaling-stroke" x="1.613913e+02" y="0"/><rect x="1.827246e+02" y="0" width="6.183575e+00" height="4.408045e+01" vector-effect="non-scaling-stroke"/><rect y="0" width="6.183575e+00" height="4.420395e+01" vector-effect="non-scaling-stroke" x="2.040580e+02"/><rect vector-effect="non-scaling-stroke" x="2.253913e+02" y="0" width="6.183575e+00" height="4.400830e+01"/><rect y="0" width="6.183575e+00" height="4.425871e+01" vector-effect="non-scaling-stroke" x="2.467246e+02"/><rect y="0" width="6.183575e+00" height="4.400286e+01" vector-effect="non-scaling-stroke" x="2.680580e+02"/><rect height="4.642182e+01" vector-effect="non-scaling-stroke" x="2.893913e+02" y="0" width="6.183575e+00"/><rect y="0" width="6.183575e+00" height="4.402414e+01" vector-effect="non-scaling-stroke" x="3.107246e+02"/><rect vector-effect="non-scaling-stroke" x="3.320580e+02" y="0" width="6.183575e+00" height="4.754643e+01"/><rect y="0" width="6.183575e+00" height="4.403060e+01" vector-effect="non-scaling-stroke" x="3.533913e+02"/><rect vector-effect="non-scaling-stroke" x="3.747246e+02" y="0" width="6.183575e+00" height="4.873035e+01"/><rect y="0" width="6.183575e+00" height="9.551111e+01" vector-effect="non-scaling-stroke" x="3.960580e+02"/><rect width="6.183575e+00" height="4.400146e+01" vector-effect="non-scaling-stroke" x="4.173913e+02" y="0"/><rect x="4.387246e+02" y="0" width="6.183575e+00" height="4.406249e+01" vector-effect="non-scaling-stroke"/><rect y="0" width="6.183575e+00" height="4.427701e+01" vector-effect="non-scaling-stroke" x="4.600580e+02"/><rect width="6.183575e+00" height="396" vector-effect="non-scaling-stroke" x="4.813913e+02" y="0"/><rect vector-effect="non-scaling-stroke" x="5.027246e+02" y="0" width="6.183575e+00" height="4.511322e+01"/><rect y="0" width="6.183575e+00" height="1.560276e+02" vector-effect="non-scaling-stroke" x="5.240580e+02"/></g><g transform="translate(80 520 )scale(1 -1 )" fill="hsl(49, 88%, 65%)" stroke="hsl(49, 88%, 65%)" stroke-width="1px" stroke-linecap="round" stroke-linejoin="round"><rect x="6.090821e+01" y="0" width="6.183575e+00" height="4.401528e+01" vector-effect="non-scaling-stroke"/><rect height="4.400052e+01" vector-effect="non-scaling-stroke" x="8.224155e+01" y="0" width="6.183575e+00"/><rect y="0" width="6.183575e+00" height="4.400395e+01" vector-effect="non-scaling-stroke" x="1.035749e+02"/><rect x="1.249082e+02" y="0" width="6.183575e+00" height="4.400411e+01" vector-effect="non-scaling-stroke"/><rect y="0" width="6.183575e+00" height="4.400240e+01" vector-effect="non-scaling-stroke" x="1.462415e+02"/><rect vector-effect="non-scaling-stroke" x="1.675749e+02" y="0" width="6.183575e+00" height="4.400002e+01"/><rect height="4.401496e+01" vector-effect="non-scaling-stroke" x="1.889082e+02" y="0" width="6.183575e+00"/><rect vector-effect="non-scaling-stroke" x="2.102415e+02" y="0" width="6.183575e+00" height="4.461517e+01"/><rect y="0" width="6.183575e+00" height="4.400453e+01" vector-effect="non-scaling-stroke" x="2.315749e+02"/><rect x="2.529082e+02" y="0" width="6.183575e+00" height="4.402062e+01" vector-effect="non-scaling-stroke"/><rect x="2.742415e+02" y="0" width="6.183575e+00" height="4.400256e+01" vector-effect="non-scaling-stroke"/><rect x="2.955749e+02" y="0" width="6.183575e+00" height="4.738619e+01" vector-effect="non-scaling-stroke"/><rect height="4.401035e+01" vector-effect="non-scaling-stroke" x="3.169082e+02" y="0" width="6.183575e+00"/><rect vector-effect="non-scaling-stroke" x="3.382415e+02" y="0" width="6.183575e+00" height="4.753947e+01"/><rect vector-effect="non-scaling-stroke" x="3.595749e+02" y="0" width="6.183575e+00" height="4.401490e+01"/><rect height="4.624313e+01" vector-effect="non-scaling-stroke" x="3.809082e+02" y="0" width="6.183575e+00"/><rect height="1.090834e+02" vector-effect="non-scaling-stroke" x="4.022415e+02" y="0" width="6.183575e+00"/><rect vector-effect="non-scaling-stroke" x="4.235749e+02" y="0" width="6.183575e+00" height="4.400069e+01"/><rect height="4.403002e+01" vector-effect="non-scaling-stroke" x="4.449082e+02" y="0" width="6.183575e+00"/><rect x="4.662415e+02" y="0" width="6.183575e+00" height="4.533271e+01" vector-effect="non-scaling-stroke"/><rect width="6.183575e+00" height="1.568714e+02" vector-effect="non-scaling-stroke" x="4.875749e+02" y="0"/><rect y="0" width="6.183575e+00" height="4.431334e+01" vector-effect="non-scaling-stroke" x="5.089082e+02"/></g><g transform="translate(80 520 )scale(1 -1 )" fill="hsl(260, 76%, 65%)" stroke="hsl(260, 76%, 65%)" stroke-width="1px" stroke-linecap="round" stroke-linejoin="round"><rect x="6.709179e+01" y="0" width="6.183575e+00" height="4.401615e+01" vector-effect="non-scaling-stroke"/><rect width="6.183575e+00" height="4.400057e+01" vector-effect="non-scaling-stroke" x="8.842512e+01" y="0"/><rect vector-effect="non-scaling-stroke" x="1.097585e+02" y="0" width="6.183575e+00" height="4.400290e+01"/><rect x="1.310918e+02" y="0" width="6.183575e+00" height="4.401151e+01" vector-effect="non-scaling-stroke"/><rect vector-effect="non-scaling-stroke" x="1.524251e+02" y="0" width="6.183575e+00" height="4.442801e+01"/><rect x="1.737585e+02" y="0" width="6.183575e+00" height="4.400002e+01" vector-effect="non-scaling-stroke"/><rect vector-effect="non-scaling-stroke" x="1.950918e+02" y="0" width="6.183575e+00" height="4.400939e+01"/><rect x="2.164251e+02" y="0" width="6.183575e+00" height="4.404818e+01" vector-effect="non-scaling-stroke"/><rect x="2.377585e+02" y="0" width="6.183575e+00" height="4.400459e+01" vector-effect="non-scaling-stroke"/><rect vector-effect="non-scaling-stroke" x="2.590918e+02" y="0" width="6.183575e+00" height="4.401737e+01"/><rect height="4.400186e+01" vector-effect="non-scaling-stroke" x="2.804251e+02" y="0" width="6.183575e+00"/><rect y="0" width="6.183575e+00" height="4.772667e+01" vector-effect="non-scaling-stroke" x="3.017585e+02"/><rect height="4.401932e+01" vector-effect="non-scaling-stroke" x="3.230918e+02" y="0" width="6.183575e+00"/><rect height="4.401453e+01" vector-effect="non-scaling-stroke" x="3.657585e+02" y="0" width="6.183575e+00"/><rect y="0" width="6.183575e+00" height="5.514372e+01" vector-effect="non-scaling-stroke" x="3.870918e+02"/><rect height="4.400074e+01" vector-effect="non-scaling-stroke" x="4.297585e+02" y="0" width="6.183575e+00"/><rect x="4.510918e+02" y="0" width="6.183575e+00" height="4.452884e+01" vector-effect="non-scaling-stroke"/></g><g stroke-linejoin="round" fill="hsl(198, 47%, 65%)" font-family="sans-serif" font-style="normal" font-weight="normal" stroke-width="1px" font-size="12px" text-anchor="start" dominant-baseline="hanging" stroke="hsl(198, 47%, 65%)" stroke-linecap="round"><rect height="12" vector-effect="non-scaling-stroke" x="736" y="466" width="12"/><g fill="black" stroke="black"><text dominant-baseline="hanging" stroke="none" vector-effect="non-scaling-stroke" x="752" y="466">Golang</text></g><g fill="hsl(49, 88%, 65%)" font-weight="normal" dominant-baseline="hanging" stroke="hsl(49, 88%, 65%)" font-family="sans-serif" font-size="12px" stroke-width="1px" stroke-linecap="round" stroke-linejoin="round" font-style="normal" text-anchor="start"><rect height="12" vector-effect="non-scaling-stroke" x="736" y="484" width="12"/><g stroke="black" fill="black"><text x="752" y="484" dominant-baseline="hanging" stroke="none" vector-effect="non-scaling-stroke">Rust</text></g><g font-family="sans-serif" font-style="normal" stroke-width="1px" stroke-linecap="round" stroke-linejoin="round" font-size="12px" fill="hsl(260, 76%, 65%)" stroke="hsl(260, 76%, 65%)" text-anchor="start" dominant-baseline="hanging" font-weight="normal"><rect vector-effect="non-scaling-stroke" x="736" y="502" width="12" height="12"/><g fill="black" stroke="black"><text x="752" y="502" dominant-baseline="hanging" stroke="none" vector-effect="non-scaling-stroke">Zig</text><g font-family="sans-serif" text-anchor="start" stroke-linecap="round" stroke-linejoin="round" font-style="normal" stroke-width="2px" dominant-baseline="hanging" fill="none" font-weight="normal" font-size="12px"><rect width="640" height="440" vector-effect="non-scaling-stroke" x="80" y="80"/></g><g stroke-linecap="round" transform="translate(80 520 )scale(1 -1 )" fill="none" stroke="black" font-weight="normal" dominant-baseline="hanging" stroke-width="2px" font-family="sans-serif" font-style="normal" text-anchor="start" stroke-linejoin="round" font-size="12px"><path vector-effect="non-scaling-stroke" d="M64,0 L64,-6 M8.533333e+01,0 L8.533333e+01,-6 M1.066667e+02,0 L1.066667e+02,-6 M128,0 L128,-6 M1.493333e+02,0 L1.493333e+02,-6 M1.706667e+02,0 L1.706667e+02,-6 M192,0 L192,-6 M2.133333e+02,0 L2.133333e+02,-6 M2.346667e+02,0 L2.346667e+02,-6 M256,0 L256,-6 M2.773333e+02,0 L2.773333e+02,-6 M2.986667e+02,0 L2.986667e+02,-6 M320,0 L320,-6 M3.413333e+02,0 L3.413333e+02,-6 M3.626667e+02,0 L3.626667e+02,-6 M384,0 L384,-6 M4.053333e+02,0 L4.053333e+02,-6 M4.266667e+02,0 L4.266667e+02,-6 M448,0 L448,-6 M4.693333e+02,0 L4.693333e+02,-6 M4.906667e+02,0 L4.906667e+02,-6 M512,0 L512,-6 M5.333333e+02,0 L5.333333e+02,-6 "/></g><g stroke="black" font-family="sans-serif" font-style="normal" font-weight="normal" fill="black" transform="translate(80 520 )scale(1 1 )" stroke-width="2px" stroke-linecap="round" text-anchor="middle" dominant-baseline="hanging" stroke-linejoin="round" font-size="12px"><text x="64" y="10" dominant-baseline="hanging" stroke="none" vector-effect="non-scaling-stroke">1</text><text dominant-baseline="hanging" stroke="none" vector-effect="non-scaling-stroke" x="8.533333e+01" y="10">2</text><text stroke="none" vector-effect="non-scaling-stroke" x="1.066667e+02" y="10" dominant-baseline="hanging">3</text><text stroke="none" vector-effect="non-scaling-stroke" x="128" y="10" dominant-baseline="hanging">4</text><text dominant-baseline="hanging" stroke="none" vector-effect="non-scaling-stroke" x="1.493333e+02" y="10">5</text><text vector-effect="non-scaling-stroke" x="1.706667e+02" y="10" dominant-baseline="hanging" stroke="none">6</text><text dominant-baseline="hanging" stroke="none" vector-effect="non-scaling-stroke" x="192" y="10">7</text><text dominant-baseline="hanging" stroke="none" vector-effect="non-scaling-stroke" x="2.133333e+02" y="10">8</text><text y="10" dominant-baseline="hanging" stroke="none" vector-effect="non-scaling-stroke" x="2.346667e+02">9</text><text x="256" y="10" dominant-baseline="hanging" stroke="none" vector-effect="non-scaling-stroke">10</text><text y="10" dominant-baseline="hanging" stroke="none" vector-effect="non-scaling-stroke" x="2.773333e+02">11</text><text x="2.986667e+02" y="10" dominant-baseline="hanging" stroke="none" vector-effect="non-scaling-stroke">12</text><text dominant-baseline="hanging" stroke="none" vector-effect="non-scaling-stroke" x="320" y="10">13</text><text stroke="none" vector-effect="non-scaling-stroke" x="3.413333e+02" y="10" dominant-baseline="hanging">14</text><text vector-effect="non-scaling-stroke" x="3.626667e+02" y="10" dominant-baseline="hanging" stroke="none">15</text><text x="384" y="10" dominant-baseline="hanging" stroke="none" vector-effect="non-scaling-stroke">16</text><text stroke="none" vector-effect="non-scaling-stroke" x="4.053333e+02" y="10" dominant-baseline="hanging">17</text><text stroke="none" vector-effect="non-scaling-stroke" x="4.266667e+02" y="10" dominant-baseline="hanging">18</text><text dominant-baseline="hanging" stroke="none" vector-effect="non-scaling-stroke" x="448" y="10">19</text><text y="10" dominant-baseline="hanging" stroke="none" vector-effect="non-scaling-stroke" x="4.693333e+02">20</text><text y="10" dominant-baseline="hanging" stroke="none" vector-effect="non-scaling-stroke" x="4.906667e+02">21</text><text stroke="none" vector-effect="non-scaling-stroke" x="512" y="10" dominant-baseline="hanging">22</text><text dominant-baseline="hanging" stroke="none" vector-effect="non-scaling-stroke" x="5.333333e+02" y="10">23</text></g><g font-weight="bold" font-family="sans-serif" stroke-width="2px" stroke="black" font-size="12px" transform="translate(80 520 )scale(1 1 )rotate(0 0 0 )" stroke-linecap="round" font-style="normal" text-anchor="middle" dominant-baseline="baseline" fill="black" stroke-linejoin="round"><text stroke="none" vector-effect="non-scaling-stroke" x="320" y="-6" dominant-baseline="baseline">Day</text></g><g fill="black" font-size="12px" stroke="black" font-family="sans-serif" font-style="normal" font-weight="bold" text-anchor="middle" dominant-baseline="baseline" stroke-linecap="round" stroke-linejoin="round" transform="translate(80 520 )scale(1 -1 )" stroke-width="2px"><path vector-effect="non-scaling-stroke" d="M0,44 L-6,44 M0,8.742452e+01 L-6,8.742452e+01 M0,1.308490e+02 L-6,1.308490e+02 M0,1.742736e+02 L-6,1.742736e+02 M0,2.176981e+02 L-6,2.176981e+02 M0,2.611226e+02 L-6,2.611226e+02 M0,3.045471e+02 L-6,3.045471e+02 M0,3.479717e+02 L-6,3.479717e+02 M0,3.913962e+02 L-6,3.913962e+02 "/></g><g fill="black" stroke-linecap="round" font-family="sans-serif" font-style="normal" font-weight="normal" text-anchor="end" dominant-baseline="middle" stroke-linejoin="round" font-size="12px" transform="translate(80 520 )scale(1 1 )" stroke-width="2px" stroke="black"><text dominant-baseline="middle" stroke="none" vector-effect="non-scaling-stroke" x="-10" y="-44">0s</text><text x="-10" y="-8.742452e+01" dominant-baseline="middle" stroke="none" vector-effect="non-scaling-stroke">200ms</text><text y="-1.308490e+02" dominant-baseline="middle" stroke="none" vector-effect="non-scaling-stroke" x="-10">400ms</text><text vector-effect="non-scaling-stroke" x="-10" y="-1.742736e+02" dominant-baseline="middle" stroke="none">600ms</text><text y="-2.176981e+02" dominant-baseline="middle" stroke="none" vector-effect="non-scaling-stroke" x="-10">800ms</text><text stroke="none" vector-effect="non-scaling-stroke" x="-10" y="-2.611226e+02" dominant-baseline="middle">1s</text><text vector-effect="non-scaling-stroke" x="-10" y="-3.045471e+02" dominant-baseline="middle" stroke="none">1.2s</text><text stroke="none" vector-effect="non-scaling-stroke" x="-10" y="-3.479717e+02" dominant-baseline="middle">1.4s</text><text y="-3.913962e+02" dominant-baseline="middle" stroke="none" vector-effect="non-scaling-stroke" x="-10">1.6s</text></g><g dominant-baseline="hanging" stroke-width="2px" stroke-linecap="round" font-size="12px" transform="translate(80 520 )scale(1 1 )rotate(-90 0 0 )" text-anchor="middle" font-weight="bold" stroke-linejoin="round" fill="black" stroke="black" font-family="sans-serif" font-style="normal"><text stroke="none" vector-effect="non-scaling-stroke" x="220" y="6" dominant-baseline="hanging">Runtime</text></g></g></g></g></g></svg>