<svg width="800" height="600" viewbox="0 0 800 600" preserveAspectRatio="xMidYMid meet" xmlns="http://www.w3.org/2000/svg"><defs><marker refX="5" refY="5" markerUnits="userSpaceOnUse" markerWidth="2%" markerHeight="2%" id="circle" viewBox="0 0 10 10 "><circle fill="none" stroke="black" cx="5" cy="5" r="3"/></marker><marker viewBox="0 0 10 10 " refX="5" refY="5" markerUnits="userSpaceOnUse" markerWidth="2%" markerHeight="2%" id="filled-circle"><circle cx="5" cy="5" r="3" fill="black" stroke="none"/></marker><marker viewBox="0 0 10 10 " refX="5" refY="5" markerUnits="userSpaceOnUse" markerWidth="2%" markerHeight="2%" id="square"><rect fill="none" stroke="black" x="2" y="2" width="6" height="6"/></marker><marker markerWidth="2%" markerHeight="2%" id="filled-square" viewBox="0 0 10 10 " refX="5" refY="5" markerUnits="userSpaceOnUse"><rect x="2" y="2" width="6" height="6" fill="black" stroke="none"/></marker></defs><g stroke-linecap="round" stroke-linejoin="round" transform="translate(80 520 )scale(1 -1 )" fill="hsl(198, 47%, 65%)" stroke="hsl(198, 47%, 65%)" stroke-width="1px"><rect vector-effect="non-scaling-stroke" x="5.511111e+01" y="0" width="8.888889e+00" height="4.400663e+01"/><rect height="4.400183e+01" vector-effect="non-scaling-stroke" x="7.644444e+01" y="0" width="8.888889e+00"/><rect height="4.402010e+01" vector-effect="non-scaling-stroke" x="9.777778e+01" y="0" width="8.888889e+00"/><rect y="0" width="8.888889e+00" height="4.400867e+01" vector-effect="non-scaling-stroke" x="1.191111e+02"/><rect vector-effect="non-scaling-stroke" x="1.404444e+02" y="0" width="8.888889e+00" height="4.400496e+01"/><rect width="8.888889e+00" height="4.401291e+01" vector-effect="non-scaling-stroke" x="1.617778e+02" y="0"/><rect vector-effect="non-scaling-stroke" x="1.831111e+02" y="0" width="8.888889e+00" height="4.401004e+01"/><rect vector-effect="non-scaling-stroke" x="2.044444e+02" y="0" width="8.888889e+00" height="4.426947e+01"/><rect width="8.888889e+00" height="4.416151e+01" vector-effect="non-scaling-stroke" x="2.257778e+02" y="0"/><rect x="2.471111e+02" y="0" width="8.888889e+00" height="4.400064e+01" vector-effect="non-scaling-stroke"/><rect vector-effect="non-scaling-stroke" x="2.684444e+02" y="0" width="8.888889e+00" height="4.969217e+01"/><rect vector-effect="non-scaling-stroke" x="2.897778e+02" y="0" width="8.888889e+00" height="4.420433e+01"/><rect x="3.111111e+02" y="0" width="8.888889e+00" height="4.432554e+01" vector-effect="non-scaling-stroke"/><rect width="8.888889e+00" height="4.640390e+01" vector-effect="non-scaling-stroke" x="3.324444e+02" y="0"/><rect vector-effect="non-scaling-stroke" x="3.537778e+02" y="0" width="8.888889e+00" height="4.400204e+01"/><rect vector-effect="non-scaling-stroke" x="3.751111e+02" y="0" width="8.888889e+00" height="2.825603e+02"/><rect y="0" width="8.888889e+00" height="4.419513e+01" vector-effect="non-scaling-stroke" x="3.964444e+02"/><rect height="4.407638e+01" vector-effect="non-scaling-stroke" x="4.177778e+02" y="0" width="8.888889e+00"/><rect vector-effect="non-scaling-stroke" x="4.391111e+02" y="0" width="8.888889e+00" height="1.549507e+02"/><rect y="0" width="8.888889e+00" height="6.242573e+01" vector-effect="non-scaling-stroke" x="4.604444e+02"/><rect vector-effect="non-scaling-stroke" x="4.817778e+02" y="0" width="8.888889e+00" height="4.414688e+01"/><rect width="8.888889e+00" height="4.439724e+01" vector-effect="non-scaling-stroke" x="5.031111e+02" y="0"/><rect y="0" width="8.888889e+00" height="1.478983e+02" vector-effect="non-scaling-stroke" x="5.244444e+02"/><rect vector-effect="non-scaling-stroke" x="5.457778e+02" y="0" width="8.888889e+00" height="9.669082e+01"/></g><g stroke="hsl(49, 88%, 65%)" stroke-width="1px" stroke-linecap="round" stroke-linejoin="round" transform="translate(80 520 )scale(1 -1 )" fill="hsl(49, 88%, 65%)"><rect width="8.888889e+00" height="4.400300e+01" vector-effect="non-scaling-stroke" x="64" y="0"/><rect vector-effect="non-scaling-stroke" x="8.533333e+01" y="0" width="8.888889e+00" height="4.400044e+01"/><rect vector-effect="non-scaling-stroke" x="1.066667e+02" y="0" width="8.888889e+00" height="4.401518e+01"/><rect width="8.888889e+00" height="4.400518e+01" vector-effect="non-scaling-stroke" x="128" y="0"/><rect vector-effect="non-scaling-stroke" x="1.493333e+02" y="0" width="8.888889e+00" height="4.400400e+01"/><rect vector-effect="non-scaling-stroke" x="1.706667e+02" y="0" width="8.888889e+00" height="4.400768e+01"/><rect width="8.888889e+00" height="4.400898e+01" vector-effect="non-scaling-stroke" x="192" y="0"/><rect width="8.888889e+00" height="4.426141e+01" vector-effect="non-scaling-stroke" x="2.133333e+02" y="0"/><rect height="4.415612e+01" vector-effect="non-scaling-stroke" x="2.346667e+02" y="0" width="8.888889e+00"/><rect height="4.400048e+01" vector-effect="non-scaling-stroke" x="256" y="0" width="8.888889e+00"/><rect width="8.888889e+00" height="4.612509e+01" vector-effect="non-scaling-stroke" x="2.773333e+02" y="0"/><rect y="0" width="8.888889e+00" height="4.412761e+01" vector-effect="non-scaling-stroke" x="2.986667e+02"/><rect y="0" width="8.888889e+00" height="4.427601e+01" vector-effect="non-scaling-stroke" x="320"/><rect vector-effect="non-scaling-stroke" x="3.413333e+02" y="0" width="8.888889e+00" height="4.664772e+01"/><rect width="8.888889e+00" height="4.400086e+01" vector-effect="non-scaling-stroke" x="3.626667e+02" y="0"/><rect y="0" width="8.888889e+00" height="396" vector-effect="non-scaling-stroke" x="384"/><rect y="0" width="8.888889e+00" height="4.413340e+01" vector-effect="non-scaling-stroke" x="4.053333e+02"/><rect height="4.408963e+01" vector-effect="non-scaling-stroke" x="4.266667e+02" y="0" width="8.888889e+00"/><rect vector-effect="non-scaling-stroke" x="448" y="0" width="8.888889e+00" height="8.280417e+01"/><rect height="5.935094e+01" vector-effect="non-scaling-stroke" x="4.693333e+02" y="0" width="8.888889e+00"/><rect y="0" width="8.888889e+00" height="4.418238e+01" vector-effect="non-scaling-stroke" x="4.906667e+02"/><rect x="512" y="0" width="8.888889e+00" height="4.426322e+01" vector-effect="non-scaling-stroke"/><rect vector-effect="non-scaling-stroke" x="5.333333e+02" y="0" width="8.888889e+00" height="1.414235e+02"/></g><g stroke-linecap="round" stroke-linejoin="round" font-family="sans-serif" font-weight="normal" text-anchor="start" font-style="normal" dominant-baseline="hanging" fill="hsl(198, 47%, 65%)" stroke="hsl(198, 47%, 65%)" font-size="12px" stroke-width="1px"><rect vector-effect="non-scaling-stroke" x="736" y="484" width="12" height="12"/><g fill="black" stroke="black"><text stroke="none" vector-effect="non-scaling-stroke" x="752" y="484" dominant-baseline="hanging">Golang</text></g><g font-size="12px" font-style="normal" font-family="sans-serif" stroke-width="1px" stroke-linecap="round" dominant-baseline="hanging" stroke="hsl(49, 88%, 65%)" stroke-linejoin="round" font-weight="normal" text-anchor="start" fill="hsl(49, 88%, 65%)"><rect width="12" height="12" vector-effect="non-scaling-stroke" x="736" y="502"/><g fill="black" stroke="black"><text stroke="none" vector-effect="non-scaling-stroke" x="752" y="502" dominant-baseline="hanging">Rust</text><g stroke-linejoin="round" font-style="normal" font-weight="normal" font-size="12px" fill="none" dominant-baseline="hanging" stroke-width="2px" stroke-linecap="round" font-family="sans-serif" text-anchor="start"><rect height="440" vector-effect="non-scaling-stroke" x="80" y="80" width="640"/></g><g fill="none" stroke-width="2px" font-size="12px" font-family="sans-serif" text-anchor="start" stroke-linecap="round" stroke-linejoin="round" stroke="black" font-style="normal" dominant-baseline="hanging" font-weight="normal" transform="translate(80 520 )scale(1 -1 )"><path d="M64,0 L64,-6 M8.533333e+01,0 L8.533333e+01,-6 M1.066667e+02,0 L1.066667e+02,-6 M128,0 L128,-6 M1.493333e+02,0 L1.493333e+02,-6 M1.706667e+02,0 L1.706667e+02,-6 M192,0 L192,-6 M2.133333e+02,0 L2.133333e+02,-6 M2.346667e+02,0 L2.346667e+02,-6 M256,0 L256,-6 M2.773333e+02,0 L2.773333e+02,-6 M2.986667e+02,0 L2.986667e+02,-6 M320,0 L320,-6 M3.413333e+02,0 L3.413333e+02,-6 M3.626667e+02,0 L3.626667e+02,-6 M384,0 L384,-6 M4.053333e+02,0 L4.053333e+02,-6 M4.266667e+02,0 L4.266667e+02,-6 M448,0 L448,-6 M4.693333e+02,0 L4.693333e+02,-6 M4.906667e+02,0 L4.906667e+02,-6 M512,0 L512,-6 M5.333333e+02,0 L5.333333e+02,-6 M5.546667e+02,0 L5.546667e+02,-6 " vector-effect="non-scaling-stroke"/></g><g stroke-linejoin="round" font-size="12px" font-style="normal" dominant-baseline="hanging" font-weight="normal" transform="translate(80 520 )scale(1 1 )" fill="black" stroke-width="2px" font-family="sans-serif" stroke="black" text-anchor="middle" stroke-linecap="round"><text stroke="none" vector-effect="non-scaling-stroke" x="64" y="10" dominant-baseline="hanging">1</text><text dominant-baseline="hanging" stroke="none" vector-effect="non-scaling-stroke" x="8.533333e+01" y="10">2</text><text dominant-baseline="hanging" stroke="none" vector-effect="non-scaling-stroke" x="1.066667e+02" y="10">3</text><text stroke="none" vector-effect="non-scaling-stroke" x="128" y="10" dominant-baseline="hanging">4</text><text y="10" dominant-baseline="hanging" stroke="none" vector-effect="non-scaling-stroke" x="1.493333e+02">5</text><text stroke="none" vector-effect="non-scaling-stroke" x="1.706667e+02" y="10" dominant-baseline="hanging">6</text><text dominant-baseline="hanging" stroke="none" vector-effect="non-scaling-stroke" x="192" y="10">7</text><text y="10" dominant-baseline="hanging" stroke="none" vector-effect="non-scaling-stroke" x="2.133333e+02">8</text><text y="10" dominant-baseline="hanging" stroke="none" vector-effect="non-scaling-stroke" x="2.346667e+02">9</text><text vector-effect="non-scaling-stroke" x="256" y="10" dominant-baseline="hanging" stroke="none">10</text><text y="10" dominant-baseline="hanging" stroke="none" vector-effect="non-scaling-stroke" x="2.773333e+02">11</text><text stroke="none" vector-effect="non-scaling-stroke" x="2.986667e+02" y="10" dominant-baseline="hanging">12</text><text stroke="none" vector-effect="non-scaling-stroke" x="320" y="10" dominant-baseline="hanging">13</text><text y="10" dominant-baseline="hanging" stroke="none" vector-effect="non-scaling-stroke" x="3.413333e+02">14</text><text x="3.626667e+02" y="10" dominant-baseline="hanging" stroke="none" vector-effect="non-scaling-stroke">15</text><text x="384" y="10" dominant-baseline="hanging" stroke="none" vector-effect="non-scaling-stroke">16</text><text vector-effect="non-scaling-stroke" x="4.053333e+02" y="10" dominant-baseline="hanging" stroke="none">17</text><text vector-effect="non-scaling-stroke" x="4.266667e+02" y="10" dominant-baseline="hanging" stroke="none">18</text><text stroke="none" vector-effect="non-scaling-stroke" x="448" y="10" dominant-baseline="hanging">19</text><text vector-effect="non-scaling-stroke" x="4.693333e+02" y="10" dominant-baseline="hanging" stroke="none">20</text><text vector-effect="non-scaling-stroke" x="4.906667e+02" y="10" dominant-baseline="hanging" stroke="none">21</text><text x="512" y="10" dominant-baseline="hanging" stroke="none" vector-effect="non-scaling-stroke">22</text><text x="5.333333e+02" y="10" dominant-baseline="hanging" stroke="none" vector-effect="non-scaling-stroke">23</text><text x="5.546667e+02" y="10" dominant-baseline="hanging" stroke="none" vector-effect="non-scaling-stroke">24</text></g><g stroke="black" font-family="sans-serif" font-weight="bold" transform="translate(80 520 )scale(1 1 )rotate(0 0 0 )" stroke-linecap="round" stroke-linejoin="round" dominant-baseline="baseline" text-anchor="middle" fill="black" stroke-width="2px" font-size="12px" font-style="normal"><text vector-effect="non-scaling-stroke" x="320" y="-6" dominant-baseline="baseline" stroke="none">Day</text></g><g font-style="normal" font-weight="bold" text-anchor="middle" stroke-linecap="round" dominant-baseline="baseline" font-size="12px" stroke-linejoin="round" font-family="sans-serif" transform="translate(80 520 )scale(1 -1 )" fill="black" stroke-width="2px" stroke="black"><path d="M0,44 L-6,44 M0,8.436644e+01 L-6,8.436644e+01 M0,1.247329e+02 L-6,1.247329e+02 M0,1.650993e+02 L-6,1.650993e+02 M0,2.054658e+02 L-6,2.054658e+02 M0,2.458322e+02 L-6,2.458322e+02 M0,2.861986e+02 L-6,2.861986e+02 M0,3.265651e+02 L-6,3.265651e+02 M0,3.669315e+02 L-6,3.669315e+02 " vector-effect="non-scaling-stroke"/></g><g stroke-width="2px" stroke-linecap="round" font-weight="normal" text-anchor="end" transform="translate(80 520 )scale(1 1 )" stroke="black" font-size="12px" dominant-baseline="middle" font-family="sans-serif" font-style="normal" fill="black" stroke-linejoin="round"><text stroke="none" vector-effect="non-scaling-stroke" x="-10" y="-44" dominant-baseline="middle">0s</text><text x="-10" y="-8.436644e+01" dominant-baseline="middle" stroke="none" vector-effect="non-scaling-stroke">100ms</text><text dominant-baseline="middle" stroke="none" vector-effect="non-scaling-stroke" x="-10" y="-1.247329e+02">200ms</text><text stroke="none" vector-effect="non-scaling-stroke" x="-10" y="-1.650993e+02" dominant-baseline="middle">300ms</text><text vector-effect="non-scaling-stroke" x="-10" y="-2.054658e+02" dominant-baseline="middle" stroke="none">400ms</text><text y="-2.458322e+02" dominant-baseline="middle" stroke="none" vector-effect="non-scaling-stroke" x="-10">500ms</text><text y="-2.861986e+02" dominant-baseline="middle" stroke="none" vector-effect="non-scaling-stroke" x="-10">600ms</text><text x="-10" y="-3.265651e+02" dominant-baseline="middle" stroke="none" vector-effect="non-scaling-stroke">700ms</text><text y="-3.669315e+02" dominant-baseline="middle" stroke="none" vector-effect="non-scaling-stroke" x="-10">800ms</text></g><g stroke-linecap="round" font-family="sans-serif" stroke="black" font-size="12px" dominant-baseline="hanging" fill="black" stroke-width="2px" font-style="normal" transform="translate(80 520 )scale(1 1 )rotate(-90 0 0 )" stroke-linejoin="round" font-weight="bold" text-anchor="middle"><text stroke="none" vector-effect="non-scaling-stroke" x="220" y="6" dominant-baseline="hanging">Runtime</text></g></g></g></g></svg>