<svg xmlns="http://www.w3.org/2000/svg" width="800" height="600" viewbox="0 0 800 600" preserveAspectRatio="xMidYMid meet"><defs><marker markerWidth="2%" markerHeight="2%" id="circle" viewBox="0 0 10 10 " refX="5" refY="5" markerUnits="userSpaceOnUse"><circle cy="5" r="3" fill="none" stroke="black" cx="5"/></marker><marker refY="5" markerUnits="userSpaceOnUse" markerWidth="2%" markerHeight="2%" id="filled-circle" viewBox="0 0 10 10 " refX="5"><circle stroke="none" cx="5" cy="5" r="3" fill="black"/></marker><marker markerHeight="2%" id="square" viewBox="0 0 10 10 " refX="5" refY="5" markerUnits="userSpaceOnUse" markerWidth="2%"><rect width="6" height="6" fill="none" stroke="black" x="2" y="2"/></marker><marker viewBox="0 0 10 10 " refX="5" refY="5" markerUnits="userSpaceOnUse" markerWidth="2%" markerHeight="2%" id="filled-square"><rect x="2" y="2" width="6" height="6" fill="black" stroke="none"/></marker></defs><g fill="hsl(198, 47%, 65%)" stroke="hsl(198, 47%, 65%)" stroke-width="1px" stroke-linecap="round" stroke-linejoin="round" transform="translate(80 520 )scale(1 -1 )"><rect vector-effect="non-scaling-stroke" x="3.650000e+01" y="0" width="2.750000e+01" height="4.426328e+01"/><rect width="2.750000e+01" height="4.423326e+01" vector-effect="non-scaling-stroke" x="5.783333e+01" y="0"/><rect x="7.916667e+01" y="0" width="2.750000e+01" height="4.414482e+01" vector-effect="non-scaling-stroke"/><rect width="2.750000e+01" height="4.533401e+01" vector-effect="non-scaling-stroke" x="1.005000e+02" y="0"/><rect vector-effect="non-scaling-stroke" x="1.218333e+02" y="0" width="2.750000e+01" height="4.414970e+01"/><rect height="396" vector-effect="non-scaling-stroke" x="1.431667e+02" y="0" width="2.750000e+01"/><rect width="2.750000e+01" height="1.265206e+02" vector-effect="non-scaling-stroke" x="1.645000e+02" y="0"/></g><g fill="hsl(49, 88%, 65%)" stroke="hsl(49, 88%, 65%)" stroke-width="1px" stroke-linecap="round" stroke-linejoin="round" transform="translate(80 520 )scale(1 -1 )"><rect height="4.423630e+01" vector-effect="non-scaling-stroke" x="64" y="0" width="2.750000e+01"/><rect height="4.420182e+01" vector-effect="non-scaling-stroke" x="8.533333e+01" y="0" width="2.750000e+01"/><rect width="2.750000e+01" height="4.403944e+01" vector-effect="non-scaling-stroke" x="1.066667e+02" y="0"/><rect x="128" y="0" width="2.750000e+01" height="4.622662e+01" vector-effect="non-scaling-stroke"/><rect height="4.410670e+01" vector-effect="non-scaling-stroke" x="1.493333e+02" y="0" width="2.750000e+01"/><rect y="0" width="2.750000e+01" height="2.968756e+02" vector-effect="non-scaling-stroke" x="1.706667e+02"/><rect x="192" y="0" width="2.750000e+01" height="1.275011e+02" vector-effect="non-scaling-stroke"/></g><g stroke-linejoin="round" stroke-linecap="round" font-family="sans-serif" font-weight="normal" fill="hsl(198, 47%, 65%)" stroke="hsl(198, 47%, 65%)" text-anchor="start" dominant-baseline="hanging" font-style="normal" font-size="12px" stroke-width="1px"><rect height="12" vector-effect="non-scaling-stroke" x="736" y="484" width="12"/><g fill="black" stroke="black"><text stroke="none" vector-effect="non-scaling-stroke" x="752" y="484" dominant-baseline="hanging">Golang</text></g><g stroke-linejoin="round" font-style="normal" font-weight="normal" text-anchor="start" stroke="hsl(49, 88%, 65%)" font-size="12px" dominant-baseline="hanging" stroke-width="1px" stroke-linecap="round" font-family="sans-serif" fill="hsl(49, 88%, 65%)"><rect x="736" y="502" width="12" height="12" vector-effect="non-scaling-stroke"/><g fill="black" stroke="black"><text stroke="none" vector-effect="non-scaling-stroke" x="752" y="502" dominant-baseline="hanging">Rust</text><g stroke-width="2px" text-anchor="start" font-size="12px" fill="none" stroke-linecap="round" font-family="sans-serif" font-weight="normal" stroke-linejoin="round" dominant-baseline="hanging" font-style="normal"><rect height="440" vector-effect="non-scaling-stroke" x="80" y="80" width="640"/></g><g stroke="black" font-weight="normal" stroke-width="2px" font-size="12px" transform="translate(80 520 )scale(1 -1 )" fill="none" stroke-linecap="round" font-family="sans-serif" font-style="normal" stroke-linejoin="round" text-anchor="start" dominant-baseline="hanging"><path d="M64,0 L64,-6 M8.533333e+01,0 L8.533333e+01,-6 M1.066667e+02,0 L1.066667e+02,-6 M128,0 L128,-6 M1.493333e+02,0 L1.493333e+02,-6 M1.706667e+02,0 L1.706667e+02,-6 M192,0 L192,-6 " vector-effect="non-scaling-stroke"/></g><g dominant-baseline="hanging" stroke-width="2px" transform="translate(80 520 )scale(1 1 )" font-family="sans-serif" font-style="normal" font-weight="normal" fill="black" stroke="black" stroke-linecap="round" text-anchor="middle" stroke-linejoin="round" font-size="12px"><text stroke="none" vector-effect="non-scaling-stroke" x="64" y="10" dominant-baseline="hanging">1</text><text x="8.533333e+01" y="10" dominant-baseline="hanging" stroke="none" vector-effect="non-scaling-stroke">2</text><text stroke="none" vector-effect="non-scaling-stroke" x="1.066667e+02" y="10" dominant-baseline="hanging">3</text><text stroke="none" vector-effect="non-scaling-stroke" x="128" y="10" dominant-baseline="hanging">4</text><text y="10" dominant-baseline="hanging" stroke="none" vector-effect="non-scaling-stroke" x="1.493333e+02">5</text><text y="10" dominant-baseline="hanging" stroke="none" vector-effect="non-scaling-stroke" x="1.706667e+02">6</text><text stroke="none" vector-effect="non-scaling-stroke" x="192" y="10" dominant-baseline="hanging">7</text></g><g font-weight="bold" fill="black" font-style="normal" stroke-linecap="round" transform="translate(80 520 )scale(1 1 )rotate(0 0 0 )" stroke-width="2px" stroke-linejoin="round" font-size="12px" text-anchor="middle" dominant-baseline="baseline" stroke="black" font-family="sans-serif"><text x="320" y="-6" dominant-baseline="baseline" stroke="none" vector-effect="non-scaling-stroke">Day</text></g><g stroke-width="2px" stroke-linejoin="round" dominant-baseline="baseline" font-weight="bold" stroke-linecap="round" font-family="sans-serif" font-style="normal" font-size="12px" text-anchor="middle" transform="translate(80 520 )scale(1 -1 )" fill="black" stroke="black"><path vector-effect="non-scaling-stroke" d="M0,44 L-6,44 M0,9.307912e+01 L-6,9.307912e+01 M0,1.421582e+02 L-6,1.421582e+02 M0,1.912374e+02 L-6,1.912374e+02 M0,2.403165e+02 L-6,2.403165e+02 M0,2.893956e+02 L-6,2.893956e+02 M0,3.384747e+02 L-6,3.384747e+02 M0,3.875538e+02 L-6,3.875538e+02 "/></g><g stroke-linecap="round" font-family="sans-serif" font-style="normal" stroke-width="2px" text-anchor="end" transform="translate(80 520 )scale(1 1 )" fill="black" font-weight="normal" stroke-linejoin="round" font-size="12px" dominant-baseline="middle" stroke="black"><text y="-44" dominant-baseline="middle" stroke="none" vector-effect="non-scaling-stroke" x="-10">0s</text><text x="-10" y="-9.307912e+01" dominant-baseline="middle" stroke="none" vector-effect="non-scaling-stroke">10ms</text><text dominant-baseline="middle" stroke="none" vector-effect="non-scaling-stroke" x="-10" y="-1.421582e+02">20ms</text><text x="-10" y="-1.912374e+02" dominant-baseline="middle" stroke="none" vector-effect="non-scaling-stroke">30ms</text><text vector-effect="non-scaling-stroke" x="-10" y="-2.403165e+02" dominant-baseline="middle" stroke="none">40ms</text><text stroke="none" vector-effect="non-scaling-stroke" x="-10" y="-2.893956e+02" dominant-baseline="middle">50ms</text><text vector-effect="non-scaling-stroke" x="-10" y="-3.384747e+02" dominant-baseline="middle" stroke="none">60ms</text><text vector-effect="non-scaling-stroke" x="-10" y="-3.875538e+02" dominant-baseline="middle" stroke="none">70ms</text></g><g stroke-linejoin="round" font-size="12px" transform="translate(80 520 )scale(1 1 )rotate(-90 0 0 )" stroke-width="2px" fill="black" font-style="normal" font-weight="bold" text-anchor="middle" dominant-baseline="hanging" stroke="black" stroke-linecap="round" font-family="sans-serif"><text vector-effect="non-scaling-stroke" x="220" y="6" dominant-baseline="hanging" stroke="none">Runtime</text></g></g></g></g></svg>