<svg viewbox="0 0 800 600" preserveAspectRatio="xMidYMid meet" xmlns="http://www.w3.org/2000/svg" width="800" height="600"><defs><marker viewBox="0 0 10 10 " refX="5" refY="5" markerUnits="userSpaceOnUse" markerWidth="2%" markerHeight="2%" id="circle"><circle cx="5" cy="5" r="3" fill="none" stroke="black"/></marker><marker id="filled-circle" viewBox="0 0 10 10 " refX="5" refY="5" markerUnits="userSpaceOnUse" markerWidth="2%" markerHeight="2%"><circle stroke="none" cx="5" cy="5" r="3" fill="black"/></marker><marker viewBox="0 0 10 10 " refX="5" refY="5" markerUnits="userSpaceOnUse" markerWidth="2%" markerHeight="2%" id="square"><rect y="2" width="6" height="6" fill="none" stroke="black" x="2"/></marker><marker markerHeight="2%" id="filled-square" viewBox="0 0 10 10 " refX="5" refY="5" markerUnits="userSpaceOnUse" markerWidth="2%"><rect width="6" height="6" fill="black" stroke="none" x="2" y="2"/></marker></defs><g stroke-width="1px" stroke-linecap="round" stroke-linejoin="round" transform="translate(80 520 )scale(1 -1 )" fill="hsl(198, 47%, 65%)" stroke="hsl(198, 47%, 65%)"><rect x="4.029630e+01" y="0" width="2.370370e+01" height="5.286771e+01" vector-effect="non-scaling-stroke"/><rect vector-effect="non-scaling-stroke" x="6.162963e+01" y="0" width="2.370370e+01" height="4.638089e+01"/><rect width="2.370370e+01" height="7.026067e+01" vector-effect="non-scaling-stroke" x="8.296296e+01" y="0"/><rect y="0" width="2.370370e+01" height="5.467111e+01" vector-effect="non-scaling-stroke" x="1.042963e+02"/><rect vector-effect="non-scaling-stroke" x="1.256296e+02" y="0" width="2.370370e+01" height="5.061863e+01"/><rect width="2.370370e+01" height="6.122304e+01" vector-effect="non-scaling-stroke" x="1.469630e+02" y="0"/><rect y="0" width="2.370370e+01" height="5.695037e+01" vector-effect="non-scaling-stroke" x="1.682963e+02"/><rect x="1.896296e+02" y="0" width="2.370370e+01" height="396" vector-effect="non-scaling-stroke"/><rect x="2.109630e+02" y="0" width="2.370370e+01" height="3.089908e+02" vector-effect="non-scaling-stroke"/></g><g stroke-linejoin="round" transform="translate(80 520 )scale(1 -1 )" fill="hsl(49, 88%, 65%)" stroke="hsl(49, 88%, 65%)" stroke-width="1px" stroke-linecap="round"><rect width="2.370370e+01" height="4.793338e+01" vector-effect="non-scaling-stroke" x="6.400000e+01" y="0"/><rect y="0" width="2.370370e+01" height="4.457696e+01" vector-effect="non-scaling-stroke" x="8.533333e+01"/><rect width="2.370370e+01" height="6.390353e+01" vector-effect="non-scaling-stroke" x="1.066667e+02" y="0"/><rect width="2.370370e+01" height="5.078907e+01" vector-effect="non-scaling-stroke" x="128" y="0"/><rect y="0" width="2.370370e+01" height="4.816205e+01" vector-effect="non-scaling-stroke" x="1.493333e+02"/><rect y="0" width="2.370370e+01" height="5.348543e+01" vector-effect="non-scaling-stroke" x="1.706667e+02"/><rect height="5.406874e+01" vector-effect="non-scaling-stroke" x="192" y="0" width="2.370370e+01"/><rect height="3.867835e+02" vector-effect="non-scaling-stroke" x="2.133333e+02" y="0" width="2.370370e+01"/></g><g stroke="hsl(198, 47%, 65%)" stroke-width="1px" font-family="sans-serif" text-anchor="start" stroke-linejoin="round" font-size="12px" font-weight="normal" font-style="normal" dominant-baseline="hanging" fill="hsl(198, 47%, 65%)" stroke-linecap="round"><rect vector-effect="non-scaling-stroke" x="736" y="484" width="12" height="12"/><g stroke="black" fill="black"><text vector-effect="non-scaling-stroke" x="752" y="484" dominant-baseline="hanging" stroke="none">Golang</text></g><g font-family="sans-serif" text-anchor="start" dominant-baseline="hanging" stroke-linecap="round" fill="hsl(49, 88%, 65%)" stroke-linejoin="round" font-style="normal" font-weight="normal" stroke="hsl(49, 88%, 65%)" stroke-width="1px" font-size="12px"><rect width="12" height="12" vector-effect="non-scaling-stroke" x="736" y="502"/><g stroke="black" fill="black"><text stroke="none" vector-effect="non-scaling-stroke" x="752" y="502" dominant-baseline="hanging">Rust</text><g stroke-linejoin="round" font-size="12px" font-style="normal" fill="none" stroke-width="2px" font-weight="normal" text-anchor="start" font-family="sans-serif" stroke-linecap="round" dominant-baseline="hanging"><rect vector-effect="non-scaling-stroke" x="80" y="80" width="640" height="440"/></g><g transform="translate(80 520 )scale(1 -1 )" stroke-width="2px" font-size="12px" text-anchor="start" fill="none" font-family="sans-serif" font-style="normal" font-weight="normal" stroke-linecap="round" stroke="black" stroke-linejoin="round" dominant-baseline="hanging"><path vector-effect="non-scaling-stroke" d="M64,0 L64,-6 M8.533333e+01,0 L8.533333e+01,-6 M1.066667e+02,0 L1.066667e+02,-6 M128,0 L128,-6 M1.493333e+02,0 L1.493333e+02,-6 M1.706667e+02,0 L1.706667e+02,-6 M192,0 L192,-6 M2.133333e+02,0 L2.133333e+02,-6 M2.346667e+02,0 L2.346667e+02,-6 "/></g><g stroke-linecap="round" font-size="12px" stroke="black" stroke-width="2px" font-weight="normal" dominant-baseline="hanging" fill="black" transform="translate(80 520 )scale(1 1 )" font-family="sans-serif" font-style="normal" stroke-linejoin="round" text-anchor="middle"><text vector-effect="non-scaling-stroke" x="64" y="10" dominant-baseline="hanging" stroke="none">1</text><text vector-effect="non-scaling-stroke" x="8.533333e+01" y="10" dominant-baseline="hanging" stroke="none">2</text><text stroke="none" vector-effect="non-scaling-stroke" x="1.066667e+02" y="10" dominant-baseline="hanging">3</text><text x="128" y="10" dominant-baseline="hanging" stroke="none" vector-effect="non-scaling-stroke">4</text><text dominant-baseline="hanging" stroke="none" vector-effect="non-scaling-stroke" x="1.493333e+02" y="10">5</text><text stroke="none" vector-effect="non-scaling-stroke" x="1.706667e+02" y="10" dominant-baseline="hanging">6</text><text y="10" dominant-baseline="hanging" stroke="none" vector-effect="non-scaling-stroke" x="192">7</text><text dominant-baseline="hanging" stroke="none" vector-effect="non-scaling-stroke" x="2.133333e+02" y="10">8</text><text stroke="none" vector-effect="non-scaling-stroke" x="2.346667e+02" y="10" dominant-baseline="hanging">9</text></g><g font-size="12px" text-anchor="middle" dominant-baseline="baseline" font-style="normal" font-weight="bold" transform="translate(80 520 )scale(1 1 )rotate(0 0 0 )" stroke="black" stroke-width="2px" font-family="sans-serif" fill="black" stroke-linecap="round" stroke-linejoin="round"><text stroke="none" vector-effect="non-scaling-stroke" x="320" y="-6" dominant-baseline="baseline">Day</text></g><g text-anchor="middle" font-family="sans-serif" font-style="normal" font-weight="bold" transform="translate(80 520 )scale(1 -1 )" stroke-linejoin="round" dominant-baseline="baseline" stroke="black" stroke-width="2px" fill="black" stroke-linecap="round" font-size="12px"><path vector-effect="non-scaling-stroke" d="M0,44 L-6,44 M0,9.693209e+01 L-6,9.693209e+01 M0,1.498642e+02 L-6,1.498642e+02 M0,2.027963e+02 L-6,2.027963e+02 M0,2.557284e+02 L-6,2.557284e+02 M0,3.086605e+02 L-6,3.086605e+02 M0,3.615926e+02 L-6,3.615926e+02 "/></g><g text-anchor="end" stroke-width="2px" font-family="sans-serif" font-weight="normal" transform="translate(80 520 )scale(1 1 )" stroke-linejoin="round" font-size="12px" dominant-baseline="middle" stroke="black" font-style="normal" fill="black" stroke-linecap="round"><text x="-10" y="-44" dominant-baseline="middle" stroke="none" vector-effect="non-scaling-stroke">0s</text><text dominant-baseline="middle" stroke="none" vector-effect="non-scaling-stroke" x="-10" y="-9.693209e+01">100µs</text><text x="-10" y="-1.498642e+02" dominant-baseline="middle" stroke="none" vector-effect="non-scaling-stroke">200µs</text><text y="-2.027963e+02" dominant-baseline="middle" stroke="none" vector-effect="non-scaling-stroke" x="-10">300µs</text><text stroke="none" vector-effect="non-scaling-stroke" x="-10" y="-2.557284e+02" dominant-baseline="middle">400µs</text><text dominant-baseline="middle" stroke="none" vector-effect="non-scaling-stroke" x="-10" y="-3.086605e+02">500µs</text><text stroke="none" vector-effect="non-scaling-stroke" x="-10" y="-3.615926e+02" dominant-baseline="middle">600µs</text></g><g stroke-width="2px" font-weight="bold" transform="translate(80 520 )scale(1 1 )rotate(-90 0 0 )" dominant-baseline="hanging" font-size="12px" text-anchor="middle" stroke="black" font-family="sans-serif" font-style="normal" fill="black" stroke-linecap="round" stroke-linejoin="round"><text stroke="none" vector-effect="non-scaling-stroke" x="220" y="6" dominant-baseline="hanging">Runtime</text></g></g></g></g></svg>