<svg viewbox="0 0 800 600" preserveAspectRatio="xMidYMid meet" xmlns="http://www.w3.org/2000/svg" width="800" height="600"><defs><marker viewBox="0 0 10 10 " refX="5" refY="5" markerUnits="userSpaceOnUse" markerWidth="2%" markerHeight="2%" id="circle"><circle stroke="black" cx="5" cy="5" r="3" fill="none"/></marker><marker refX="5" refY="5" markerUnits="userSpaceOnUse" markerWidth="2%" markerHeight="2%" id="filled-circle" viewBox="0 0 10 10 "><circle stroke="none" cx="5" cy="5" r="3" fill="black"/></marker><marker id="square" viewBox="0 0 10 10 " refX="5" refY="5" markerUnits="userSpaceOnUse" markerWidth="2%" markerHeight="2%"><rect height="6" fill="none" stroke="black" x="2" y="2" width="6"/></marker><marker viewBox="0 0 10 10 " refX="5" refY="5" markerUnits="userSpaceOnUse" markerWidth="2%" markerHeight="2%" id="filled-square"><rect fill="black" stroke="none" x="2" y="2" width="6" height="6"/></marker></defs><g stroke-width="1px" stroke-linecap="round" stroke-linejoin="round" transform="translate(80 520 )scale(1 -1 )" fill="hsl(198, 47%, 65%)" stroke="hsl(198, 47%, 65%)"><rect vector-effect="non-scaling-stroke" x="4.876190e+01" y="0" width="1.523810e+01" height="4.423525e+01"/><rect vector-effect="non-scaling-stroke" x="7.009524e+01" y="0" width="1.523810e+01" height="4.423326e+01"/><rect vector-effect="non-scaling-stroke" x="9.142857e+01" y="0" width="1.523810e+01" height="4.414482e+01"/><rect height="4.533401e+01" vector-effect="non-scaling-stroke" x="1.127619e+02" y="0" width="1.523810e+01"/><rect vector-effect="non-scaling-stroke" x="1.340952e+02" y="0" width="1.523810e+01" height="4.414970e+01"/><rect x="1.554286e+02" y="0" width="1.523810e+01" height="396" vector-effect="non-scaling-stroke"/><rect vector-effect="non-scaling-stroke" x="1.767619e+02" y="0" width="1.523810e+01" height="1.265206e+02"/><rect vector-effect="non-scaling-stroke" x="1.980952e+02" y="0" width="1.523810e+01" height="4.403414e+01"/><rect vector-effect="non-scaling-stroke" x="2.194286e+02" y="0" width="1.523810e+01" height="5.167989e+01"/><rect width="1.523810e+01" height="4.622438e+01" vector-effect="non-scaling-stroke" x="2.407619e+02" y="0"/><rect vector-effect="non-scaling-stroke" x="2.620952e+02" y="0" width="1.523810e+01" height="5.073232e+01"/><rect vector-effect="non-scaling-stroke" x="2.834286e+02" y="0" width="1.523810e+01" height="4.690133e+01"/><rect vector-effect="non-scaling-stroke" x="3.047619e+02" y="0" width="1.523810e+01" height="4.403436e+01"/><rect vector-effect="non-scaling-stroke" x="3.260952e+02" y="0" width="1.523810e+01" height="3.900794e+02"/></g><g fill="hsl(49, 88%, 65%)" stroke="hsl(49, 88%, 65%)" stroke-width="1px" stroke-linecap="round" stroke-linejoin="round" transform="translate(80 520 )scale(1 -1 )"><rect x="64" y="0" width="1.523810e+01" height="4.422948e+01" vector-effect="non-scaling-stroke"/><rect height="4.421116e+01" vector-effect="non-scaling-stroke" x="8.533333e+01" y="0" width="1.523810e+01"/><rect vector-effect="non-scaling-stroke" x="1.066667e+02" y="0" width="1.523810e+01" height="4.404346e+01"/><rect width="1.523810e+01" height="4.622662e+01" vector-effect="non-scaling-stroke" x="128" y="0"/><rect y="0" width="1.523810e+01" height="4.410670e+01" vector-effect="non-scaling-stroke" x="1.493333e+02"/><rect y="0" width="1.523810e+01" height="3.114004e+02" vector-effect="non-scaling-stroke" x="1.706667e+02"/><rect y="0" width="1.523810e+01" height="1.275011e+02" vector-effect="non-scaling-stroke" x="192"/><rect x="2.133333e+02" y="0" width="1.523810e+01" height="4.401625e+01" vector-effect="non-scaling-stroke"/><rect y="0" width="1.523810e+01" height="4.690768e+01" vector-effect="non-scaling-stroke" x="2.346667e+02"/><rect width="1.523810e+01" height="4.418291e+01" vector-effect="non-scaling-stroke" x="2.560000e+02" y="0"/><rect vector-effect="non-scaling-stroke" x="2.773333e+02" y="0" width="1.523810e+01" height="4.918509e+01"/><rect vector-effect="non-scaling-stroke" x="2.986667e+02" y="0" width="1.523810e+01" height="4.621178e+01"/><rect height="4.402768e+01" vector-effect="non-scaling-stroke" x="320" y="0" width="1.523810e+01"/></g><g font-family="sans-serif" font-size="12px" font-weight="normal" stroke-width="1px" stroke-linejoin="round" text-anchor="start" dominant-baseline="hanging" stroke="hsl(198, 47%, 65%)" stroke-linecap="round" font-style="normal" fill="hsl(198, 47%, 65%)"><rect vector-effect="non-scaling-stroke" x="736" y="484" width="12" height="12"/><g fill="black" stroke="black"><text y="484" dominant-baseline="hanging" stroke="none" vector-effect="non-scaling-stroke" x="752">Golang</text></g><g font-style="normal" stroke="hsl(49, 88%, 65%)" font-family="sans-serif" text-anchor="start" font-size="12px" dominant-baseline="hanging" fill="hsl(49, 88%, 65%)" stroke-linecap="round" font-weight="normal" stroke-width="1px" stroke-linejoin="round"><rect vector-effect="non-scaling-stroke" x="736" y="502" width="12" height="12"/><g fill="black" stroke="black"><text stroke="none" vector-effect="non-scaling-stroke" x="752" y="502" dominant-baseline="hanging">Rust</text><g text-anchor="start" font-weight="normal" dominant-baseline="hanging" stroke-width="2px" font-family="sans-serif" stroke-linecap="round" font-style="normal" font-size="12px" stroke-linejoin="round" fill="none"><rect width="640" height="440" vector-effect="non-scaling-stroke" x="80" y="80"/></g><g dominant-baseline="hanging" stroke="black" stroke-linecap="round" font-style="normal" stroke-linejoin="round" font-family="sans-serif" fill="none" font-weight="normal" font-size="12px" text-anchor="start" transform="translate(80 520 )scale(1 -1 )" stroke-width="2px"><path d="M64,0 L64,-6 M8.533333e+01,0 L8.533333e+01,-6 M1.066667e+02,0 L1.066667e+02,-6 M128,0 L128,-6 M1.493333e+02,0 L1.493333e+02,-6 M1.706667e+02,0 L1.706667e+02,-6 M192,0 L192,-6 M2.133333e+02,0 L2.133333e+02,-6 M2.346667e+02,0 L2.346667e+02,-6 M256,0 L256,-6 M2.773333e+02,0 L2.773333e+02,-6 M2.986667e+02,0 L2.986667e+02,-6 M320,0 L320,-6 M3.413333e+02,0 L3.413333e+02,-6 " vector-effect="non-scaling-stroke"/></g><g stroke="black" stroke-linejoin="round" fill="black" stroke-linecap="round" font-style="normal" font-size="12px" text-anchor="middle" font-weight="normal" dominant-baseline="hanging" transform="translate(80 520 )scale(1 1 )" stroke-width="2px" font-family="sans-serif"><text y="10" dominant-baseline="hanging" stroke="none" vector-effect="non-scaling-stroke" x="64">1</text><text x="8.533333e+01" y="10" dominant-baseline="hanging" stroke="none" vector-effect="non-scaling-stroke">2</text><text y="10" dominant-baseline="hanging" stroke="none" vector-effect="non-scaling-stroke" x="1.066667e+02">3</text><text dominant-baseline="hanging" stroke="none" vector-effect="non-scaling-stroke" x="128" y="10">4</text><text x="1.493333e+02" y="10" dominant-baseline="hanging" stroke="none" vector-effect="non-scaling-stroke">5</text><text stroke="none" vector-effect="non-scaling-stroke" x="1.706667e+02" y="10" dominant-baseline="hanging">6</text><text x="192" y="10" dominant-baseline="hanging" stroke="none" vector-effect="non-scaling-stroke">7</text><text stroke="none" vector-effect="non-scaling-stroke" x="2.133333e+02" y="10" dominant-baseline="hanging">8</text><text vector-effect="non-scaling-stroke" x="2.346667e+02" y="10" dominant-baseline="hanging" stroke="none">9</text><text x="256" y="10" dominant-baseline="hanging" stroke="none" vector-effect="non-scaling-stroke">10</text><text stroke="none" vector-effect="non-scaling-stroke" x="2.773333e+02" y="10" dominant-baseline="hanging">11</text><text x="2.986667e+02" y="10" dominant-baseline="hanging" stroke="none" vector-effect="non-scaling-stroke">12</text><text x="320" y="10" dominant-baseline="hanging" stroke="none" vector-effect="non-scaling-stroke">13</text><text vector-effect="non-scaling-stroke" x="3.413333e+02" y="10" dominant-baseline="hanging" stroke="none">14</text></g><g font-family="sans-serif" font-size="12px" fill="black" font-style="normal" font-weight="bold" text-anchor="middle" stroke-width="2px" stroke-linejoin="round" stroke-linecap="round" dominant-baseline="baseline" transform="translate(80 520 )scale(1 1 )rotate(0 0 0 )" stroke="black"><text x="320" y="-6" dominant-baseline="baseline" stroke="none" vector-effect="non-scaling-stroke">Day</text></g><g stroke="black" font-style="normal" stroke-width="2px" font-size="12px" text-anchor="middle" dominant-baseline="baseline" transform="translate(80 520 )scale(1 -1 )" stroke-linejoin="round" font-family="sans-serif" stroke-linecap="round" font-weight="bold" fill="black"><path vector-effect="non-scaling-stroke" d="M0,44 L-6,44 M0,9.307912e+01 L-6,9.307912e+01 M0,1.421582e+02 L-6,1.421582e+02 M0,1.912374e+02 L-6,1.912374e+02 M0,2.403165e+02 L-6,2.403165e+02 M0,2.893956e+02 L-6,2.893956e+02 M0,3.384747e+02 L-6,3.384747e+02 M0,3.875538e+02 L-6,3.875538e+02 "/></g><g text-anchor="end" dominant-baseline="middle" stroke-linecap="round" stroke="black" stroke-width="2px" font-family="sans-serif" stroke-linejoin="round" font-size="12px" fill="black" font-style="normal" font-weight="normal" transform="translate(80 520 )scale(1 1 )"><text stroke="none" vector-effect="non-scaling-stroke" x="-10" y="-44" dominant-baseline="middle">0s</text><text stroke="none" vector-effect="non-scaling-stroke" x="-10" y="-9.307912e+01" dominant-baseline="middle">10ms</text><text stroke="none" vector-effect="non-scaling-stroke" x="-10" y="-1.421582e+02" dominant-baseline="middle">20ms</text><text vector-effect="non-scaling-stroke" x="-10" y="-1.912374e+02" dominant-baseline="middle" stroke="none">30ms</text><text dominant-baseline="middle" stroke="none" vector-effect="non-scaling-stroke" x="-10" y="-2.403165e+02">40ms</text><text vector-effect="non-scaling-stroke" x="-10" y="-2.893956e+02" dominant-baseline="middle" stroke="none">50ms</text><text vector-effect="non-scaling-stroke" x="-10" y="-3.384747e+02" dominant-baseline="middle" stroke="none">60ms</text><text stroke="none" vector-effect="non-scaling-stroke" x="-10" y="-3.875538e+02" dominant-baseline="middle">70ms</text></g><g stroke-linecap="round" font-weight="bold" dominant-baseline="hanging" transform="translate(80 520 )scale(1 1 )rotate(-90 0 0 )" stroke="black" stroke-width="2px" text-anchor="middle" fill="black" stroke-linejoin="round" font-family="sans-serif" font-size="12px" font-style="normal"><text x="220" y="6" dominant-baseline="hanging" stroke="none" vector-effect="non-scaling-stroke">Runtime</text></g></g></g></g></svg>