<svg xmlns="http://www.w3.org/2000/svg" width="800" height="600" viewbox="0 0 800 600" preserveAspectRatio="xMidYMid meet"><defs><marker markerUnits="userSpaceOnUse" markerWidth="2%" markerHeight="2%" id="circle" viewBox="0 0 10 10 " refX="5" refY="5"><circle r="3" fill="none" stroke="black" cx="5" cy="5"/></marker><marker markerUnits="userSpaceOnUse" markerWidth="2%" markerHeight="2%" id="filled-circle" viewBox="0 0 10 10 " refX="5" refY="5"><circle stroke="none" cx="5" cy="5" r="3" fill="black"/></marker><marker id="square" viewBox="0 0 10 10 " refX="5" refY="5" markerUnits="userSpaceOnUse" markerWidth="2%" markerHeight="2%"><rect x="2" y="2" width="6" height="6" fill="none" stroke="black"/></marker><marker refY="5" markerUnits="userSpaceOnUse" markerWidth="2%" markerHeight="2%" id="filled-square" viewBox="0 0 10 10 " refX="5"><rect stroke="none" x="2" y="2" width="6" height="6" fill="black"/></marker></defs><g stroke="hsl(198, 47%, 65%)" stroke-width="1px" stroke-linecap="round" stroke-linejoin="round" transform="translate(80 520 )scale(1 -1 )" fill="hsl(198, 47%, 65%)"><rect vector-effect="non-scaling-stroke" x="3.650000e+01" y="0" width="2.750000e+01" height="9.218275e+01"/><rect y="0" width="2.750000e+01" height="8.669018e+01" vector-effect="non-scaling-stroke" x="5.783333e+01"/><rect x="7.916667e+01" y="0" width="2.750000e+01" height="7.050442e+01" vector-effect="non-scaling-stroke"/><rect vector-effect="non-scaling-stroke" x="1.005000e+02" y="0" width="2.750000e+01" height="396"/></g><g stroke-linejoin="round" transform="translate(80 520 )scale(1 -1 )" fill="hsl(49, 88%, 65%)" stroke="hsl(49, 88%, 65%)" stroke-width="1px" stroke-linecap="round"><rect vector-effect="non-scaling-stroke" x="64" y="0" width="2.750000e+01" height="8.724618e+01"/><rect vector-effect="non-scaling-stroke" x="8.533333e+01" y="0" width="2.750000e+01" height="8.093534e+01"/><rect x="1.066667e+02" y="0" width="2.750000e+01" height="5.121892e+01" vector-effect="non-scaling-stroke"/></g><g stroke="hsl(198, 47%, 65%)" stroke-width="1px" stroke-linecap="round" dominant-baseline="hanging" fill="hsl(198, 47%, 65%)" text-anchor="start" font-weight="normal" font-family="sans-serif" font-size="12px" font-style="normal" stroke-linejoin="round"><rect vector-effect="non-scaling-stroke" x="736" y="484" width="12" height="12"/><g fill="black" stroke="black"><text dominant-baseline="hanging" stroke="none" vector-effect="non-scaling-stroke" x="752" y="484">Golang</text></g><g stroke="hsl(49, 88%, 65%)" font-weight="normal" font-size="12px" font-style="normal" fill="hsl(49, 88%, 65%)" text-anchor="start" dominant-baseline="hanging" stroke-width="1px" stroke-linecap="round" stroke-linejoin="round" font-family="sans-serif"><rect x="736" y="502" width="12" height="12" vector-effect="non-scaling-stroke"/><g stroke="black" fill="black"><text vector-effect="non-scaling-stroke" x="752" y="502" dominant-baseline="hanging" stroke="none">Rust</text><g fill="none" stroke-linejoin="round" font-size="12px" font-style="normal" text-anchor="start" dominant-baseline="hanging" stroke-width="2px" font-weight="normal" font-family="sans-serif" stroke-linecap="round"><rect height="440" vector-effect="non-scaling-stroke" x="80" y="80" width="640"/></g><g stroke-linecap="round" font-weight="normal" text-anchor="start" dominant-baseline="hanging" fill="none" font-style="normal" stroke-width="2px" font-size="12px" transform="translate(80 520 )scale(1 -1 )" stroke="black" stroke-linejoin="round" font-family="sans-serif"><path vector-effect="non-scaling-stroke" d="M64,0 L64,-6 M8.533333e+01,0 L8.533333e+01,-6 M1.066667e+02,0 L1.066667e+02,-6 M128,0 L128,-6 "/></g><g stroke="black" text-anchor="middle" dominant-baseline="hanging" transform="translate(80 520 )scale(1 1 )" stroke-width="2px" stroke-linecap="round" stroke-linejoin="round" fill="black" font-weight="normal" font-family="sans-serif" font-size="12px" font-style="normal"><text dominant-baseline="hanging" stroke="none" vector-effect="non-scaling-stroke" x="64" y="10">1</text><text stroke="none" vector-effect="non-scaling-stroke" x="8.533333e+01" y="10" dominant-baseline="hanging">2</text><text y="10" dominant-baseline="hanging" stroke="none" vector-effect="non-scaling-stroke" x="1.066667e+02">3</text><text dominant-baseline="hanging" stroke="none" vector-effect="non-scaling-stroke" x="128" y="10">4</text></g><g stroke="black" text-anchor="middle" dominant-baseline="baseline" transform="translate(80 520 )scale(1 1 )rotate(0 0 0 )" stroke-width="2px" font-family="sans-serif" font-size="12px" fill="black" font-weight="bold" stroke-linecap="round" stroke-linejoin="round" font-style="normal"><text y="-6" dominant-baseline="baseline" stroke="none" vector-effect="non-scaling-stroke" x="320">Day</text></g><g stroke-linecap="round" text-anchor="middle" transform="translate(80 520 )scale(1 -1 )" fill="black" stroke-width="2px" font-family="sans-serif" font-size="12px" font-style="normal" font-weight="bold" dominant-baseline="baseline" stroke="black" stroke-linejoin="round"><path vector-effect="non-scaling-stroke" d="M0,44 L-6,44 M0,1.338211e+02 L-6,1.338211e+02 M0,2.236422e+02 L-6,2.236422e+02 M0,3.134634e+02 L-6,3.134634e+02 "/></g><g font-weight="normal" font-size="12px" font-style="normal" stroke-width="2px" stroke-linecap="round" dominant-baseline="middle" transform="translate(80 520 )scale(1 1 )" stroke="black" stroke-linejoin="round" text-anchor="end" fill="black" font-family="sans-serif"><text dominant-baseline="middle" stroke="none" vector-effect="non-scaling-stroke" x="-10" y="-44">0s</text><text x="-10" y="-1.338211e+02" dominant-baseline="middle" stroke="none" vector-effect="non-scaling-stroke">100µs</text><text stroke="none" vector-effect="non-scaling-stroke" x="-10" y="-2.236422e+02" dominant-baseline="middle">200µs</text><text x="-10" y="-3.134634e+02" dominant-baseline="middle" stroke="none" vector-effect="non-scaling-stroke">300µs</text></g><g stroke-linejoin="round" font-style="normal" fill="black" text-anchor="middle" transform="translate(80 520 )scale(1 1 )rotate(-90 0 0 )" stroke-width="2px" stroke-linecap="round" font-family="sans-serif" font-size="12px" stroke="black" font-weight="bold" dominant-baseline="hanging"><text stroke="none" vector-effect="non-scaling-stroke" x="220" y="6" dominant-baseline="hanging">Runtime</text></g></g></g></g></svg>