<svg viewbox="0 0 800 600" preserveAspectRatio="xMidYMid meet" xmlns="http://www.w3.org/2000/svg" width="800" height="600"><defs><marker id="circle" viewBox="0 0 10 10 " refX="5" refY="5" markerUnits="userSpaceOnUse" markerWidth="2%" markerHeight="2%"><circle stroke="black" cx="5" cy="5" r="3" fill="none"/></marker><marker viewBox="0 0 10 10 " refX="5" refY="5" markerUnits="userSpaceOnUse" markerWidth="2%" markerHeight="2%" id="filled-circle"><circle cy="5" r="3" fill="black" stroke="none" cx="5"/></marker><marker markerHeight="2%" id="square" viewBox="0 0 10 10 " refX="5" refY="5" markerUnits="userSpaceOnUse" markerWidth="2%"><rect y="2" width="6" height="6" fill="none" stroke="black" x="2"/></marker><marker id="filled-square" viewBox="0 0 10 10 " refX="5" refY="5" markerUnits="userSpaceOnUse" markerWidth="2%" markerHeight="2%"><rect height="6" fill="black" stroke="none" x="2" y="2" width="6"/></marker></defs><g stroke-linecap="round" stroke-linejoin="round" transform="translate(80 520 )scale(1 -1 )" fill="hsl(198, 47%, 65%)" stroke="hsl(198, 47%, 65%)" stroke-width="1px"><rect y="0" width="1.833333e+01" height="396" vector-effect="non-scaling-stroke" x="3.650000e+01"/><rect x="5.783333e+01" y="0" width="1.833333e+01" height="5.515657e+01" vector-effect="non-scaling-stroke"/><rect width="1.833333e+01" height="9.394572e+01" vector-effect="non-scaling-stroke" x="7.916667e+01" y="0"/></g><g transform="translate(80 520 )scale(1 -1 )" fill="hsl(49, 88%, 65%)" stroke="hsl(49, 88%, 65%)" stroke-width="1px" stroke-linecap="round" stroke-linejoin="round"><rect vector-effect="non-scaling-stroke" x="5.483333e+01" y="0" width="1.833333e+01" height="2.199848e+02"/><rect width="1.833333e+01" height="4.854190e+01" vector-effect="non-scaling-stroke" x="7.616667e+01" y="0"/><rect width="1.833333e+01" height="9.159986e+01" vector-effect="non-scaling-stroke" x="9.750000e+01" y="0"/></g><g stroke="hsl(260, 76%, 65%)" stroke-width="1px" stroke-linecap="round" stroke-linejoin="round" transform="translate(80 520 )scale(1 -1 )" fill="hsl(260, 76%, 65%)"><rect vector-effect="non-scaling-stroke" x="7.316667e+01" y="0" width="1.833333e+01" height="1.845258e+02"/><rect width="1.833333e+01" height="4.890411e+01" vector-effect="non-scaling-stroke" x="9.450000e+01" y="0"/><rect vector-effect="non-scaling-stroke" x="1.158333e+02" y="0" width="1.833333e+01" height="8.128719e+01"/></g><g font-weight="normal" font-style="normal" text-anchor="start" stroke-width="1px" font-family="sans-serif" stroke-linecap="round" stroke-linejoin="round" dominant-baseline="hanging" fill="hsl(198, 47%, 65%)" stroke="hsl(198, 47%, 65%)" font-size="12px"><rect width="12" height="12" vector-effect="non-scaling-stroke" x="736" y="466"/><g fill="black" stroke="black"><text dominant-baseline="hanging" stroke="none" vector-effect="non-scaling-stroke" x="752" y="466">Golang</text></g><g stroke-linecap="round" font-style="normal" fill="hsl(49, 88%, 65%)" stroke="hsl(49, 88%, 65%)" stroke-width="1px" font-size="12px" font-weight="normal" stroke-linejoin="round" dominant-baseline="hanging" font-family="sans-serif" text-anchor="start"><rect vector-effect="non-scaling-stroke" x="736" y="484" width="12" height="12"/><g stroke="black" fill="black"><text stroke="none" vector-effect="non-scaling-stroke" x="752" y="484" dominant-baseline="hanging">Rust</text></g><g dominant-baseline="hanging" text-anchor="start" font-family="sans-serif" font-weight="normal" stroke-linecap="round" stroke-linejoin="round" font-style="normal" fill="hsl(260, 76%, 65%)" stroke="hsl(260, 76%, 65%)" stroke-width="1px" font-size="12px"><rect y="502" width="12" height="12" vector-effect="non-scaling-stroke" x="736"/><g stroke="black" fill="black"><text stroke="none" vector-effect="non-scaling-stroke" x="752" y="502" dominant-baseline="hanging">Zig</text><g fill="none" stroke-linecap="round" text-anchor="start" dominant-baseline="hanging" stroke-width="2px" stroke-linejoin="round" font-family="sans-serif" font-size="12px" font-weight="normal" font-style="normal"><rect vector-effect="non-scaling-stroke" x="80" y="80" width="640" height="440"/></g><g stroke="black" stroke-width="2px" font-size="12px" font-weight="normal" text-anchor="start" fill="none" stroke-linejoin="round" font-style="normal" dominant-baseline="hanging" stroke-linecap="round" font-family="sans-serif" transform="translate(80 520 )scale(1 -1 )"><path d="M64,0 L64,-6 M8.533333e+01,0 L8.533333e+01,-6 M1.066667e+02,0 L1.066667e+02,-6 " vector-effect="non-scaling-stroke"/></g><g transform="translate(80 520 )scale(1 1 )" stroke-linejoin="round" stroke-linecap="round" stroke-width="2px" font-size="12px" text-anchor="middle" fill="black" font-style="normal" dominant-baseline="hanging" stroke="black" font-family="sans-serif" font-weight="normal"><text x="64" y="10" dominant-baseline="hanging" stroke="none" vector-effect="non-scaling-stroke">1</text><text dominant-baseline="hanging" stroke="none" vector-effect="non-scaling-stroke" x="8.533333e+01" y="10">2</text><text dominant-baseline="hanging" stroke="none" vector-effect="non-scaling-stroke" x="1.066667e+02" y="10">3</text></g><g transform="translate(80 520 )scale(1 1 )rotate(0 0 0 )" stroke-linejoin="round" font-style="normal" stroke-width="2px" font-weight="bold" font-family="sans-serif" font-size="12px" text-anchor="middle" stroke-linecap="round" dominant-baseline="baseline" fill="black" stroke="black"><text stroke="none" vector-effect="non-scaling-stroke" x="320" y="-6" dominant-baseline="baseline">Day</text></g><g stroke-linecap="round" font-style="normal" dominant-baseline="baseline" stroke-width="2px" font-family="sans-serif" stroke="black" font-size="12px" stroke-linejoin="round" font-weight="bold" text-anchor="middle" transform="translate(80 520 )scale(1 -1 )" fill="black"><path vector-effect="non-scaling-stroke" d="M0,44 L-6,44 M0,8.192817e+01 L-6,8.192817e+01 M0,1.198563e+02 L-6,1.198563e+02 M0,1.577845e+02 L-6,1.577845e+02 M0,1.957127e+02 L-6,1.957127e+02 M0,2.336409e+02 L-6,2.336409e+02 M0,2.715690e+02 L-6,2.715690e+02 M0,3.094972e+02 L-6,3.094972e+02 M0,3.474254e+02 L-6,3.474254e+02 M0,3.853536e+02 L-6,3.853536e+02 "/></g><g text-anchor="end" transform="translate(80 520 )scale(1 1 )" fill="black" font-style="normal" stroke-width="2px" dominant-baseline="middle" stroke-linecap="round" stroke-linejoin="round" font-family="sans-serif" font-size="12px" font-weight="normal" stroke="black"><text y="-44" dominant-baseline="middle" stroke="none" vector-effect="non-scaling-stroke" x="-10">0s</text><text stroke="none" vector-effect="non-scaling-stroke" x="-10" y="-8.192817e+01" dominant-baseline="middle">20µs</text><text dominant-baseline="middle" stroke="none" vector-effect="non-scaling-stroke" x="-10" y="-1.198563e+02">40µs</text><text stroke="none" vector-effect="non-scaling-stroke" x="-10" y="-1.577845e+02" dominant-baseline="middle">60µs</text><text y="-1.957127e+02" dominant-baseline="middle" stroke="none" vector-effect="non-scaling-stroke" x="-10">80µs</text><text y="-2.336409e+02" dominant-baseline="middle" stroke="none" vector-effect="non-scaling-stroke" x="-10">100µs</text><text vector-effect="non-scaling-stroke" x="-10" y="-2.715690e+02" dominant-baseline="middle" stroke="none">120µs</text><text x="-10" y="-3.094972e+02" dominant-baseline="middle" stroke="none" vector-effect="non-scaling-stroke">140µs</text><text vector-effect="non-scaling-stroke" x="-10" y="-3.474254e+02" dominant-baseline="middle" stroke="none">160µs</text><text stroke="none" vector-effect="non-scaling-stroke" x="-10" y="-3.853536e+02" dominant-baseline="middle">180µs</text></g><g transform="translate(80 520 )scale(1 1 )rotate(-90 0 0 )" stroke-linecap="round" stroke-linejoin="round" font-style="normal" font-size="12px" text-anchor="middle" stroke-width="2px" dominant-baseline="hanging" font-family="sans-serif" font-weight="bold" fill="black" stroke="black"><text x="220" y="6" dominant-baseline="hanging" stroke="none" vector-effect="non-scaling-stroke">Runtime</text></g></g></g></g></g></svg>