<svg width="800" height="600" viewbox="0 0 800 600" preserveAspectRatio="xMidYMid meet" xmlns="http://www.w3.org/2000/svg"><defs><marker refY="5" markerUnits="userSpaceOnUse" markerWidth="2%" markerHeight="2%" id="circle" viewBox="0 0 10 10 " refX="5"><circle fill="none" stroke="black" cx="5" cy="5" r="3"/></marker><marker id="filled-circle" viewBox="0 0 10 10 " refX="5" refY="5" markerUnits="userSpaceOnUse" markerWidth="2%" markerHeight="2%"><circle r="3" fill="black" stroke="none" cx="5" cy="5"/></marker><marker markerUnits="userSpaceOnUse" markerWidth="2%" markerHeight="2%" id="square" viewBox="0 0 10 10 " refX="5" refY="5"><rect x="2" y="2" width="6" height="6" fill="none" stroke="black"/></marker><marker markerWidth="2%" markerHeight="2%" id="filled-square" viewBox="0 0 10 10 " refX="5" refY="5" markerUnits="userSpaceOnUse"><rect fill="black" stroke="none" x="2" y="2" width="6" height="6"/></marker></defs><g stroke-width="1px" stroke-linecap="round" stroke-linejoin="round" transform="translate(80 520 )scale(1 -1 )" fill="hsl(198, 47%, 65%)" stroke="hsl(198, 47%, 65%)"><rect vector-effect="non-scaling-stroke" x="3.733333e+01" y="0" width="2.666667e+01" height="5.193033e+01"/><rect vector-effect="non-scaling-stroke" x="5.866667e+01" y="0" width="2.666667e+01" height="4.612921e+01"/><rect height="6.748472e+01" vector-effect="non-scaling-stroke" x="80" y="0" width="2.666667e+01"/><rect height="5.354309e+01" vector-effect="non-scaling-stroke" x="1.013333e+02" y="0" width="2.666667e+01"/><rect vector-effect="non-scaling-stroke" x="1.226667e+02" y="0" width="2.666667e+01" height="4.991899e+01"/><rect vector-effect="non-scaling-stroke" x="144" y="0" width="2.666667e+01" height="5.940244e+01"/><rect vector-effect="non-scaling-stroke" x="1.653333e+02" y="0" width="2.666667e+01" height="5.558141e+01"/><rect height="396" vector-effect="non-scaling-stroke" x="1.866667e+02" y="0" width="2.666667e+01"/></g><g stroke="hsl(49, 88%, 65%)" stroke-width="1px" stroke-linecap="round" stroke-linejoin="round" transform="translate(80 520 )scale(1 -1 )" fill="hsl(49, 88%, 65%)"><rect y="0" width="2.666667e+01" height="4.751760e+01" vector-effect="non-scaling-stroke" x="6.400000e+01"/><rect y="0" width="2.666667e+01" height="4.451597e+01" vector-effect="non-scaling-stroke" x="8.533333e+01"/><rect vector-effect="non-scaling-stroke" x="1.066667e+02" y="0" width="2.666667e+01" height="6.179957e+01"/><rect vector-effect="non-scaling-stroke" x="128" y="0" width="2.666667e+01" height="5.007141e+01"/><rect y="0" width="2.666667e+01" height="4.772209e+01" vector-effect="non-scaling-stroke" x="1.493333e+02"/><rect width="2.666667e+01" height="5.248275e+01" vector-effect="non-scaling-stroke" x="1.706667e+02" y="0"/><rect width="2.666667e+01" height="5.300440e+01" vector-effect="non-scaling-stroke" x="192" y="0"/></g><g font-size="12px" font-family="sans-serif" fill="hsl(198, 47%, 65%)" dominant-baseline="hanging" stroke-width="1px" font-style="normal" text-anchor="start" font-weight="normal" stroke="hsl(198, 47%, 65%)" stroke-linecap="round" stroke-linejoin="round"><rect vector-effect="non-scaling-stroke" x="736" y="484" width="12" height="12"/><g fill="black" stroke="black"><text stroke="none" vector-effect="non-scaling-stroke" x="752" y="484" dominant-baseline="hanging">Golang</text></g><g font-family="sans-serif" fill="hsl(49, 88%, 65%)" stroke="hsl(49, 88%, 65%)" font-style="normal" text-anchor="start" dominant-baseline="hanging" stroke-width="1px" font-size="12px" stroke-linecap="round" stroke-linejoin="round" font-weight="normal"><rect width="12" height="12" vector-effect="non-scaling-stroke" x="736" y="502"/><g fill="black" stroke="black"><text y="502" dominant-baseline="hanging" stroke="none" vector-effect="non-scaling-stroke" x="752">Rust</text><g stroke-linejoin="round" font-size="12px" font-style="normal" text-anchor="start" font-family="sans-serif" dominant-baseline="hanging" stroke-width="2px" font-weight="normal" fill="none" stroke-linecap="round"><rect x="80" y="80" width="640" height="440" vector-effect="non-scaling-stroke"/></g><g stroke-linecap="round" stroke-linejoin="round" text-anchor="start" font-style="normal" dominant-baseline="hanging" stroke-width="2px" font-family="sans-serif" font-weight="normal" transform="translate(80 520 )scale(1 -1 )" fill="none" stroke="black" font-size="12px"><path d="M64,0 L64,-6 M8.533333e+01,0 L8.533333e+01,-6 M1.066667e+02,0 L1.066667e+02,-6 M128,0 L128,-6 M1.493333e+02,0 L1.493333e+02,-6 M1.706667e+02,0 L1.706667e+02,-6 M192,0 L192,-6 M2.133333e+02,0 L2.133333e+02,-6 " vector-effect="non-scaling-stroke"/></g><g transform="translate(80 520 )scale(1 1 )" fill="black" stroke="black" font-family="sans-serif" font-weight="normal" stroke-width="2px" font-size="12px" dominant-baseline="hanging" stroke-linecap="round" stroke-linejoin="round" font-style="normal" text-anchor="middle"><text stroke="none" vector-effect="non-scaling-stroke" x="64" y="10" dominant-baseline="hanging">1</text><text y="10" dominant-baseline="hanging" stroke="none" vector-effect="non-scaling-stroke" x="8.533333e+01">2</text><text vector-effect="non-scaling-stroke" x="1.066667e+02" y="10" dominant-baseline="hanging" stroke="none">3</text><text dominant-baseline="hanging" stroke="none" vector-effect="non-scaling-stroke" x="128" y="10">4</text><text vector-effect="non-scaling-stroke" x="1.493333e+02" y="10" dominant-baseline="hanging" stroke="none">5</text><text y="10" dominant-baseline="hanging" stroke="none" vector-effect="non-scaling-stroke" x="1.706667e+02">6</text><text stroke="none" vector-effect="non-scaling-stroke" x="192" y="10" dominant-baseline="hanging">7</text><text vector-effect="non-scaling-stroke" x="2.133333e+02" y="10" dominant-baseline="hanging" stroke="none">8</text></g><g text-anchor="middle" stroke="black" transform="translate(80 520 )scale(1 1 )rotate(0 0 0 )" font-size="12px" font-style="normal" fill="black" dominant-baseline="baseline" stroke-width="2px" stroke-linecap="round" stroke-linejoin="round" font-family="sans-serif" font-weight="bold"><text dominant-baseline="baseline" stroke="none" vector-effect="non-scaling-stroke" x="320" y="-6">Day</text></g><g stroke-width="2px" font-size="12px" stroke="black" stroke-linecap="round" stroke-linejoin="round" font-weight="bold" transform="translate(80 520 )scale(1 -1 )" fill="black" font-family="sans-serif" font-style="normal" text-anchor="middle" dominant-baseline="baseline"><path vector-effect="non-scaling-stroke" d="M0,44 L-6,44 M0,9.133677e+01 L-6,9.133677e+01 M0,1.386735e+02 L-6,1.386735e+02 M0,1.860103e+02 L-6,1.860103e+02 M0,2.333471e+02 L-6,2.333471e+02 M0,2.806838e+02 L-6,2.806838e+02 M0,3.280206e+02 L-6,3.280206e+02 M0,3.753574e+02 L-6,3.753574e+02 "/></g><g font-family="sans-serif" text-anchor="end" dominant-baseline="middle" font-weight="normal" transform="translate(80 520 )scale(1 1 )" stroke-linecap="round" stroke-width="2px" font-size="12px" font-style="normal" fill="black" stroke="black" stroke-linejoin="round"><text stroke="none" vector-effect="non-scaling-stroke" x="-10" y="-44" dominant-baseline="middle">0s</text><text stroke="none" vector-effect="non-scaling-stroke" x="-10" y="-9.133677e+01" dominant-baseline="middle">100µs</text><text dominant-baseline="middle" stroke="none" vector-effect="non-scaling-stroke" x="-10" y="-1.386735e+02">200µs</text><text vector-effect="non-scaling-stroke" x="-10" y="-1.860103e+02" dominant-baseline="middle" stroke="none">300µs</text><text x="-10" y="-2.333471e+02" dominant-baseline="middle" stroke="none" vector-effect="non-scaling-stroke">400µs</text><text stroke="none" vector-effect="non-scaling-stroke" x="-10" y="-2.806838e+02" dominant-baseline="middle">500µs</text><text x="-10" y="-3.280206e+02" dominant-baseline="middle" stroke="none" vector-effect="non-scaling-stroke">600µs</text><text x="-10" y="-3.753574e+02" dominant-baseline="middle" stroke="none" vector-effect="non-scaling-stroke">700µs</text></g><g fill="black" font-family="sans-serif" transform="translate(80 520 )scale(1 1 )rotate(-90 0 0 )" font-size="12px" text-anchor="middle" dominant-baseline="hanging" stroke="black" stroke-linecap="round" stroke-linejoin="round" font-weight="bold" stroke-width="2px" font-style="normal"><text dominant-baseline="hanging" stroke="none" vector-effect="non-scaling-stroke" x="220" y="6">Runtime</text></g></g></g></g></svg>