<svg height="600" viewbox="0 0 800 600" preserveAspectRatio="xMidYMid meet" xmlns="http://www.w3.org/2000/svg" width="800"><defs><marker refX="5" refY="5" markerUnits="userSpaceOnUse" markerWidth="2%" markerHeight="2%" id="circle" viewBox="0 0 10 10 "><circle cy="5" r="3" fill="none" stroke="black" cx="5"/></marker><marker markerUnits="userSpaceOnUse" markerWidth="2%" markerHeight="2%" id="filled-circle" viewBox="0 0 10 10 " refX="5" refY="5"><circle cx="5" cy="5" r="3" fill="black" stroke="none"/></marker><marker markerWidth="2%" markerHeight="2%" id="square" viewBox="0 0 10 10 " refX="5" refY="5" markerUnits="userSpaceOnUse"><rect fill="none" stroke="black" x="2" y="2" width="6" height="6"/></marker><marker refY="5" markerUnits="userSpaceOnUse" markerWidth="2%" markerHeight="2%" id="filled-square" viewBox="0 0 10 10 " refX="5"><rect y="2" width="6" height="6" fill="black" stroke="none" x="2"/></marker></defs><g stroke-linecap="round" stroke-linejoin="round" transform="translate(80 520 )scale(1 -1 )" fill="hsl(198, 47%, 65%)" stroke="hsl(198, 47%, 65%)" stroke-width="1px"><rect y="0" width="1.939394e+01" height="4.417104e+01" vector-effect="non-scaling-stroke" x="4.460606e+01"/><rect y="0" width="1.939394e+01" height="4.404592e+01" vector-effect="non-scaling-stroke" x="6.593939e+01"/><rect height="4.450652e+01" vector-effect="non-scaling-stroke" x="8.727273e+01" y="0" width="1.939394e+01"/><rect vector-effect="non-scaling-stroke" x="1.086061e+02" y="0" width="1.939394e+01" height="4.420583e+01"/><rect height="4.412766e+01" vector-effect="non-scaling-stroke" x="1.299394e+02" y="0" width="1.939394e+01"/><rect x="1.512727e+02" y="0" width="1.939394e+01" height="4.433220e+01" vector-effect="non-scaling-stroke"/><rect vector-effect="non-scaling-stroke" x="1.726061e+02" y="0" width="1.939394e+01" height="4.424979e+01"/><rect x="1.939394e+02" y="0" width="1.939394e+01" height="5.078942e+01" vector-effect="non-scaling-stroke"/><rect y="0" width="1.939394e+01" height="4.809844e+01" vector-effect="non-scaling-stroke" x="2.152727e+02"/><rect width="1.939394e+01" height="4.401641e+01" vector-effect="non-scaling-stroke" x="2.366061e+02" y="0"/><rect x="2.579394e+02" y="0" width="1.939394e+01" height="396" vector-effect="non-scaling-stroke"/></g><g stroke-linejoin="round" transform="translate(80 520 )scale(1 -1 )" fill="hsl(49, 88%, 65%)" stroke="hsl(49, 88%, 65%)" stroke-width="1px" stroke-linecap="round"><rect x="64" y="0" width="1.939394e+01" height="4.407587e+01" vector-effect="non-scaling-stroke"/><rect width="1.939394e+01" height="4.401113e+01" vector-effect="non-scaling-stroke" x="8.533333e+01" y="0"/><rect x="1.066667e+02" y="0" width="1.939394e+01" height="4.438390e+01" vector-effect="non-scaling-stroke"/><rect vector-effect="non-scaling-stroke" x="1.280000e+02" y="0" width="1.939394e+01" height="4.413095e+01"/><rect x="1.493333e+02" y="0" width="1.939394e+01" height="4.410129e+01" vector-effect="non-scaling-stroke"/><rect height="4.419414e+01" vector-effect="non-scaling-stroke" x="1.706667e+02" y="0" width="1.939394e+01"/><rect vector-effect="non-scaling-stroke" x="192" y="0" width="1.939394e+01" height="4.422704e+01"/><rect vector-effect="non-scaling-stroke" x="2.133333e+02" y="0" width="1.939394e+01" height="5.061165e+01"/><rect height="4.794874e+01" vector-effect="non-scaling-stroke" x="2.346667e+02" y="0" width="1.939394e+01"/><rect x="256" y="0" width="1.939394e+01" height="4.401217e+01" vector-effect="non-scaling-stroke"/></g><g stroke="hsl(198, 47%, 65%)" font-weight="normal" fill="hsl(198, 47%, 65%)" stroke-linecap="round" stroke-linejoin="round" font-family="sans-serif" font-size="12px" text-anchor="start" dominant-baseline="hanging" stroke-width="1px" font-style="normal"><rect height="12" vector-effect="non-scaling-stroke" x="736" y="484" width="12"/><g fill="black" stroke="black"><text x="752" y="484" dominant-baseline="hanging" stroke="none" vector-effect="non-scaling-stroke">Golang</text></g><g stroke="hsl(49, 88%, 65%)" font-style="normal" fill="hsl(49, 88%, 65%)" stroke-linecap="round" font-size="12px" stroke-width="1px" dominant-baseline="hanging" stroke-linejoin="round" font-family="sans-serif" font-weight="normal" text-anchor="start"><rect width="12" height="12" vector-effect="non-scaling-stroke" x="736" y="502"/><g stroke="black" fill="black"><text vector-effect="non-scaling-stroke" x="752" y="502" dominant-baseline="hanging" stroke="none">Rust</text><g font-weight="normal" fill="none" stroke-linecap="round" stroke-linejoin="round" text-anchor="start" font-style="normal" font-family="sans-serif" font-size="12px" dominant-baseline="hanging" stroke-width="2px"><rect vector-effect="non-scaling-stroke" x="80" y="80" width="640" height="440"/></g><g fill="none" stroke-linecap="round" font-style="normal" stroke-width="2px" stroke-linejoin="round" font-family="sans-serif" font-weight="normal" text-anchor="start" transform="translate(80 520 )scale(1 -1 )" stroke="black" font-size="12px" dominant-baseline="hanging"><path vector-effect="non-scaling-stroke" d="M64,0 L64,-6 M8.533333e+01,0 L8.533333e+01,-6 M1.066667e+02,0 L1.066667e+02,-6 M128,0 L128,-6 M1.493333e+02,0 L1.493333e+02,-6 M1.706667e+02,0 L1.706667e+02,-6 M192,0 L192,-6 M2.133333e+02,0 L2.133333e+02,-6 M2.346667e+02,0 L2.346667e+02,-6 M256,0 L256,-6 M2.773333e+02,0 L2.773333e+02,-6 "/></g><g stroke="black" font-family="sans-serif" font-size="12px" font-weight="normal" dominant-baseline="hanging" fill="black" transform="translate(80 520 )scale(1 1 )" font-style="normal" stroke-linecap="round" stroke-linejoin="round" text-anchor="middle" stroke-width="2px"><text y="10" dominant-baseline="hanging" stroke="none" vector-effect="non-scaling-stroke" x="64">1</text><text stroke="none" vector-effect="non-scaling-stroke" x="8.533333e+01" y="10" dominant-baseline="hanging">2</text><text vector-effect="non-scaling-stroke" x="1.066667e+02" y="10" dominant-baseline="hanging" stroke="none">3</text><text y="10" dominant-baseline="hanging" stroke="none" vector-effect="non-scaling-stroke" x="128">4</text><text y="10" dominant-baseline="hanging" stroke="none" vector-effect="non-scaling-stroke" x="1.493333e+02">5</text><text x="1.706667e+02" y="10" dominant-baseline="hanging" stroke="none" vector-effect="non-scaling-stroke">6</text><text stroke="none" vector-effect="non-scaling-stroke" x="192" y="10" dominant-baseline="hanging">7</text><text stroke="none" vector-effect="non-scaling-stroke" x="2.133333e+02" y="10" dominant-baseline="hanging">8</text><text vector-effect="non-scaling-stroke" x="2.346667e+02" y="10" dominant-baseline="hanging" stroke="none">9</text><text stroke="none" vector-effect="non-scaling-stroke" x="256" y="10" dominant-baseline="hanging">10</text><text stroke="none" vector-effect="non-scaling-stroke" x="2.773333e+02" y="10" dominant-baseline="hanging">11</text></g><g stroke="black" stroke-width="2px" font-style="normal" stroke-linecap="round" font-size="12px" transform="translate(80 520 )scale(1 1 )rotate(0 0 0 )" font-weight="bold" text-anchor="middle" dominant-baseline="baseline" fill="black" stroke-linejoin="round" font-family="sans-serif"><text dominant-baseline="baseline" stroke="none" vector-effect="non-scaling-stroke" x="320" y="-6">Day</text></g><g stroke="black" font-style="normal" font-family="sans-serif" transform="translate(80 520 )scale(1 -1 )" stroke-linecap="round" stroke-linejoin="round" stroke-width="2px" font-size="12px" font-weight="bold" text-anchor="middle" dominant-baseline="baseline" fill="black"><path vector-effect="non-scaling-stroke" d="M0,44 L-6,44 M0,1.460961e+02 L-6,1.460961e+02 M0,2.481923e+02 L-6,2.481923e+02 M0,3.502884e+02 L-6,3.502884e+02 "/></g><g text-anchor="end" dominant-baseline="middle" fill="black" stroke-linecap="round" stroke="black" font-family="sans-serif" font-size="12px" font-weight="normal" font-style="normal" stroke-linejoin="round" transform="translate(80 520 )scale(1 1 )" stroke-width="2px"><text vector-effect="non-scaling-stroke" x="-10" y="-44" dominant-baseline="middle" stroke="none">0s</text><text y="-1.460961e+02" dominant-baseline="middle" stroke="none" vector-effect="non-scaling-stroke" x="-10">10ms</text><text vector-effect="non-scaling-stroke" x="-10" y="-2.481923e+02" dominant-baseline="middle" stroke="none">20ms</text><text stroke="none" vector-effect="non-scaling-stroke" x="-10" y="-3.502884e+02" dominant-baseline="middle">30ms</text></g><g font-weight="bold" text-anchor="middle" dominant-baseline="hanging" fill="black" stroke-linejoin="round" stroke-width="2px" font-style="normal" font-size="12px" stroke-linecap="round" transform="translate(80 520 )scale(1 1 )rotate(-90 0 0 )" stroke="black" font-family="sans-serif"><text dominant-baseline="hanging" stroke="none" vector-effect="non-scaling-stroke" x="220" y="6">Runtime</text></g></g></g></g></svg>