<svg preserveAspectRatio="xMidYMid meet" xmlns="http://www.w3.org/2000/svg" width="800" height="600" viewbox="0 0 800 600"><defs><marker id="circle" viewBox="0 0 10 10 " refX="5" refY="5" markerUnits="userSpaceOnUse" markerWidth="2%" markerHeight="2%"><circle r="3" fill="none" stroke="black" cx="5" cy="5"/></marker><marker markerWidth="2%" markerHeight="2%" id="filled-circle" viewBox="0 0 10 10 " refX="5" refY="5" markerUnits="userSpaceOnUse"><circle stroke="none" cx="5" cy="5" r="3" fill="black"/></marker><marker markerUnits="userSpaceOnUse" markerWidth="2%" markerHeight="2%" id="square" viewBox="0 0 10 10 " refX="5" refY="5"><rect x="2" y="2" width="6" height="6" fill="none" stroke="black"/></marker><marker id="filled-square" viewBox="0 0 10 10 " refX="5" refY="5" markerUnits="userSpaceOnUse" markerWidth="2%" markerHeight="2%"><rect stroke="none" x="2" y="2" width="6" height="6" fill="black"/></marker></defs><g stroke="hsl(198, 47%, 65%)" stroke-width="1px" stroke-linecap="round" stroke-linejoin="round" transform="translate(80 520 )scale(1 -1 )" fill="hsl(198, 47%, 65%)"><rect vector-effect="non-scaling-stroke" x="4.029630e+01" y="0" width="1.580247e+01" height="4.403267e+01"/><rect y="0" width="1.580247e+01" height="4.400104e+01" vector-effect="non-scaling-stroke" x="6.162963e+01"/><rect height="4.400471e+01" vector-effect="non-scaling-stroke" x="8.296296e+01" y="0" width="1.580247e+01"/><rect y="0" width="1.580247e+01" height="4.400597e+01" vector-effect="non-scaling-stroke" x="1.042963e+02"/><rect y="0" width="1.580247e+01" height="7.832963e+02" vector-effect="non-scaling-stroke" x="1.256296e+02"/><rect height="4.400002e+01" vector-effect="non-scaling-stroke" x="1.469630e+02" y="0" width="1.580247e+01"/><rect vector-effect="non-scaling-stroke" x="1.682963e+02" y="0" width="1.580247e+01" height="4.406514e+01"/><rect x="1.896296e+02" y="0" width="1.580247e+01" height="4.417566e+01" vector-effect="non-scaling-stroke"/><rect height="4.401569e+01" vector-effect="non-scaling-stroke" x="2.109630e+02" y="0" width="1.580247e+01"/></g><g stroke-width="1px" stroke-linecap="round" stroke-linejoin="round" transform="translate(80 520 )scale(1 -1 )" fill="hsl(49, 88%, 65%)" stroke="hsl(49, 88%, 65%)"><rect width="1.580247e+01" height="4.401633e+01" vector-effect="non-scaling-stroke" x="5.609877e+01" y="0"/><rect y="0" width="1.580247e+01" height="4.400042e+01" vector-effect="non-scaling-stroke" x="7.743210e+01"/><rect height="4.400305e+01" vector-effect="non-scaling-stroke" x="9.876543e+01" y="0" width="1.580247e+01"/><rect height="4.400333e+01" vector-effect="non-scaling-stroke" x="1.200988e+02" y="0" width="1.580247e+01"/><rect x="1.414321e+02" y="0" width="1.580247e+01" height="4.400195e+01" vector-effect="non-scaling-stroke"/><rect y="0" width="1.580247e+01" height="4.400002e+01" vector-effect="non-scaling-stroke" x="1.627654e+02"/><rect height="4.449101e+01" vector-effect="non-scaling-stroke" x="2.054321e+02" y="0" width="1.580247e+01"/><rect y="0" width="1.580247e+01" height="4.400863e+01" vector-effect="non-scaling-stroke" x="2.267654e+02"/></g><g fill="hsl(260, 76%, 65%)" stroke="hsl(260, 76%, 65%)" stroke-width="1px" stroke-linecap="round" stroke-linejoin="round" transform="translate(80 520 )scale(1 -1 )"><rect x="7.190123e+01" y="0" width="1.580247e+01" height="4.401287e+01" vector-effect="non-scaling-stroke"/><rect y="0" width="1.580247e+01" height="4.400046e+01" vector-effect="non-scaling-stroke" x="9.323457e+01"/><rect height="4.400241e+01" vector-effect="non-scaling-stroke" x="1.145679e+02" y="0" width="1.580247e+01"/><rect height="4.400937e+01" vector-effect="non-scaling-stroke" x="1.359012e+02" y="0" width="1.580247e+01"/><rect vector-effect="non-scaling-stroke" x="1.572346e+02" y="0" width="1.580247e+01" height="4.434469e+01"/><rect x="1.785679e+02" y="0" width="1.580247e+01" height="4.400002e+01" vector-effect="non-scaling-stroke"/><rect x="2.212346e+02" y="0" width="1.580247e+01" height="4.403870e+01" vector-effect="non-scaling-stroke"/><rect height="4.400895e+01" vector-effect="non-scaling-stroke" x="2.425679e+02" y="0" width="1.580247e+01"/></g><g font-weight="normal" stroke-linecap="round" font-family="sans-serif" font-style="normal" text-anchor="start" stroke="hsl(198, 47%, 65%)" fill="hsl(198, 47%, 65%)" stroke-width="1px" stroke-linejoin="round" font-size="12px" dominant-baseline="hanging"><rect y="466" width="12" height="12" vector-effect="non-scaling-stroke" x="736"/><g fill="black" stroke="black"><text vector-effect="non-scaling-stroke" x="752" y="466" dominant-baseline="hanging" stroke="none">Golang</text></g><g stroke-linejoin="round" font-family="sans-serif" stroke="hsl(49, 88%, 65%)" text-anchor="start" font-style="normal" font-weight="normal" fill="hsl(49, 88%, 65%)" stroke-width="1px" stroke-linecap="round" font-size="12px" dominant-baseline="hanging"><rect vector-effect="non-scaling-stroke" x="736" y="484" width="12" height="12"/><g stroke="black" fill="black"><text x="752" y="484" dominant-baseline="hanging" stroke="none" vector-effect="non-scaling-stroke">Rust</text></g><g text-anchor="start" fill="hsl(260, 76%, 65%)" stroke-linecap="round" stroke-linejoin="round" font-style="normal" font-weight="normal" dominant-baseline="hanging" stroke="hsl(260, 76%, 65%)" stroke-width="1px" font-family="sans-serif" font-size="12px"><rect height="12" vector-effect="non-scaling-stroke" x="736" y="502" width="12"/><g stroke="black" fill="black"><text y="502" dominant-baseline="hanging" stroke="none" vector-effect="non-scaling-stroke" x="752">Zig</text><g dominant-baseline="hanging" font-family="sans-serif" font-style="normal" stroke-width="2px" stroke-linecap="round" font-weight="normal" stroke-linejoin="round" font-size="12px" text-anchor="start" fill="none"><rect vector-effect="non-scaling-stroke" x="80" y="80" width="640" height="440"/></g><g dominant-baseline="hanging" stroke-linejoin="round" font-family="sans-serif" font-style="normal" font-weight="normal" fill="none" stroke-width="2px" stroke-linecap="round" stroke="black" text-anchor="start" transform="translate(80 520 )scale(1 -1 )" font-size="12px"><path d="M64,0 L64,-6 M8.533333e+01,0 L8.533333e+01,-6 M1.066667e+02,0 L1.066667e+02,-6 M128,0 L128,-6 M1.493333e+02,0 L1.493333e+02,-6 M1.706667e+02,0 L1.706667e+02,-6 M192,0 L192,-6 M2.133333e+02,0 L2.133333e+02,-6 M2.346667e+02,0 L2.346667e+02,-6 " vector-effect="non-scaling-stroke"/></g><g font-family="sans-serif" font-size="12px" font-weight="normal" fill="black" stroke="black" stroke-linejoin="round" font-style="normal" stroke-width="2px" dominant-baseline="hanging" transform="translate(80 520 )scale(1 1 )" text-anchor="middle" stroke-linecap="round"><text y="10" dominant-baseline="hanging" stroke="none" vector-effect="non-scaling-stroke" x="64">1</text><text dominant-baseline="hanging" stroke="none" vector-effect="non-scaling-stroke" x="8.533333e+01" y="10">2</text><text stroke="none" vector-effect="non-scaling-stroke" x="1.066667e+02" y="10" dominant-baseline="hanging">3</text><text stroke="none" vector-effect="non-scaling-stroke" x="128" y="10" dominant-baseline="hanging">4</text><text vector-effect="non-scaling-stroke" x="1.493333e+02" y="10" dominant-baseline="hanging" stroke="none">5</text><text stroke="none" vector-effect="non-scaling-stroke" x="1.706667e+02" y="10" dominant-baseline="hanging">6</text><text x="192" y="10" dominant-baseline="hanging" stroke="none" vector-effect="non-scaling-stroke">7</text><text stroke="none" vector-effect="non-scaling-stroke" x="2.133333e+02" y="10" dominant-baseline="hanging">8</text><text stroke="none" vector-effect="non-scaling-stroke" x="2.346667e+02" y="10" dominant-baseline="hanging">9</text></g><g stroke-width="2px" stroke="black" text-anchor="middle" stroke-linecap="round" font-family="sans-serif" font-size="12px" font-style="normal" transform="translate(80 520 )scale(1 1 )rotate(0 0 0 )" stroke-linejoin="round" font-weight="bold" fill="black" dominant-baseline="baseline"><text vector-effect="non-scaling-stroke" x="320" y="-6" dominant-baseline="baseline" stroke="none">Day</text></g><g text-anchor="middle" transform="translate(80 520 )scale(1 -1 )" font-family="sans-serif" font-size="12px" font-weight="bold" stroke-linecap="round" stroke="black" font-style="normal" fill="black" stroke-width="2px" stroke-linejoin="round" dominant-baseline="baseline"><path vector-effect="non-scaling-stroke" d="M0,44 L-6,44 M0,7.920000e+01 L-6,7.920000e+01 M0,1.144000e+02 L-6,1.144000e+02 M0,1.496000e+02 L-6,1.496000e+02 M0,1.848000e+02 L-6,1.848000e+02 M0,220 L-6,220 M0,2.552000e+02 L-6,2.552000e+02 M0,2.904000e+02 L-6,2.904000e+02 M0,3.256000e+02 L-6,3.256000e+02 M0,3.608000e+02 L-6,3.608000e+02 M0,396 L-6,396 "/></g><g stroke-linejoin="round" stroke-width="2px" stroke-linecap="round" text-anchor="end" transform="translate(80 520 )scale(1 1 )" stroke="black" font-family="sans-serif" font-size="12px" font-style="normal" font-weight="normal" fill="black" dominant-baseline="middle"><text x="-10" y="-44" dominant-baseline="middle" stroke="none" vector-effect="non-scaling-stroke">0s</text><text stroke="none" vector-effect="non-scaling-stroke" x="-10" y="-7.920000e+01" dominant-baseline="middle">200ms</text><text x="-10" y="-1.144000e+02" dominant-baseline="middle" stroke="none" vector-effect="non-scaling-stroke">400ms</text><text stroke="none" vector-effect="non-scaling-stroke" x="-10" y="-1.496000e+02" dominant-baseline="middle">600ms</text><text x="-10" y="-1.848000e+02" dominant-baseline="middle" stroke="none" vector-effect="non-scaling-stroke">800ms</text><text stroke="none" vector-effect="non-scaling-stroke" x="-10" y="-220" dominant-baseline="middle">1s</text><text stroke="none" vector-effect="non-scaling-stroke" x="-10" y="-2.552000e+02" dominant-baseline="middle">1.2s</text><text dominant-baseline="middle" stroke="none" vector-effect="non-scaling-stroke" x="-10" y="-2.904000e+02">1.4s</text><text stroke="none" vector-effect="non-scaling-stroke" x="-10" y="-3.256000e+02" dominant-baseline="middle">1.6s</text><text x="-10" y="-3.608000e+02" dominant-baseline="middle" stroke="none" vector-effect="non-scaling-stroke">1.8s</text><text x="-10" y="-396" dominant-baseline="middle" stroke="none" vector-effect="non-scaling-stroke">2s</text></g><g font-size="12px" font-style="normal" font-weight="bold" stroke-linecap="round" stroke-linejoin="round" text-anchor="middle" fill="black" stroke-width="2px" font-family="sans-serif" dominant-baseline="hanging" stroke="black" transform="translate(80 520 )scale(1 1 )rotate(-90 0 0 )"><text vector-effect="non-scaling-stroke" x="220" y="6" dominant-baseline="hanging" stroke="none">Runtime</text></g></g></g></g></g></svg>