<svg preserveAspectRatio="xMidYMid meet" xmlns="http://www.w3.org/2000/svg" width="800" height="600" viewbox="0 0 800 600"><defs><marker markerWidth="2%" markerHeight="2%" id="circle" viewBox="0 0 10 10 " refX="5" refY="5" markerUnits="userSpaceOnUse"><circle cx="5" cy="5" r="3" fill="none" stroke="black"/></marker><marker id="filled-circle" viewBox="0 0 10 10 " refX="5" refY="5" markerUnits="userSpaceOnUse" markerWidth="2%" markerHeight="2%"><circle cx="5" cy="5" r="3" fill="black" stroke="none"/></marker><marker id="square" viewBox="0 0 10 10 " refX="5" refY="5" markerUnits="userSpaceOnUse" markerWidth="2%" markerHeight="2%"><rect y="2" width="6" height="6" fill="none" stroke="black" x="2"/></marker><marker refX="5" refY="5" markerUnits="userSpaceOnUse" markerWidth="2%" markerHeight="2%" id="filled-square" viewBox="0 0 10 10 "><rect width="6" height="6" fill="black" stroke="none" x="2" y="2"/></marker></defs><g transform="translate(80 520 )scale(1 -1 )" fill="hsl(198, 47%, 65%)" stroke="hsl(198, 47%, 65%)" stroke-width="1px" stroke-linecap="round" stroke-linejoin="round"><rect x="3.650000e+01" y="0" width="2.750000e+01" height="4.426328e+01" vector-effect="non-scaling-stroke"/><rect height="4.423326e+01" vector-effect="non-scaling-stroke" x="5.783333e+01" y="0" width="2.750000e+01"/><rect vector-effect="non-scaling-stroke" x="7.916667e+01" y="0" width="2.750000e+01" height="4.414482e+01"/><rect vector-effect="non-scaling-stroke" x="1.005000e+02" y="0" width="2.750000e+01" height="4.533401e+01"/><rect vector-effect="non-scaling-stroke" x="1.218333e+02" y="0" width="2.750000e+01" height="4.414970e+01"/><rect width="2.750000e+01" height="396" vector-effect="non-scaling-stroke" x="1.431667e+02" y="0"/><rect vector-effect="non-scaling-stroke" x="1.645000e+02" y="0" width="2.750000e+01" height="1.661633e+02"/></g><g stroke-width="1px" stroke-linecap="round" stroke-linejoin="round" transform="translate(80 520 )scale(1 -1 )" fill="hsl(49, 88%, 65%)" stroke="hsl(49, 88%, 65%)"><rect height="4.423630e+01" vector-effect="non-scaling-stroke" x="64" y="0" width="2.750000e+01"/><rect height="4.420182e+01" vector-effect="non-scaling-stroke" x="8.533333e+01" y="0" width="2.750000e+01"/><rect x="1.066667e+02" y="0" width="2.750000e+01" height="4.403944e+01" vector-effect="non-scaling-stroke"/><rect vector-effect="non-scaling-stroke" x="128" y="0" width="2.750000e+01" height="4.622662e+01"/><rect height="4.410670e+01" vector-effect="non-scaling-stroke" x="1.493333e+02" y="0" width="2.750000e+01"/><rect width="2.750000e+01" height="2.968756e+02" vector-effect="non-scaling-stroke" x="1.706667e+02" y="0"/><rect vector-effect="non-scaling-stroke" x="192" y="0" width="2.750000e+01" height="1.584133e+02"/></g><g font-size="12px" stroke-width="1px" stroke-linecap="round" font-family="sans-serif" dominant-baseline="hanging" text-anchor="start" stroke-linejoin="round" font-style="normal" font-weight="normal" fill="hsl(198, 47%, 65%)" stroke="hsl(198, 47%, 65%)"><rect vector-effect="non-scaling-stroke" x="736" y="484" width="12" height="12"/><g stroke="black" fill="black"><text dominant-baseline="hanging" stroke="none" vector-effect="non-scaling-stroke" x="752" y="484">Golang</text></g><g stroke-linejoin="round" text-anchor="start" fill="hsl(49, 88%, 65%)" stroke="hsl(49, 88%, 65%)" font-style="normal" font-weight="normal" font-size="12px" dominant-baseline="hanging" stroke-width="1px" stroke-linecap="round" font-family="sans-serif"><rect x="736" y="502" width="12" height="12" vector-effect="non-scaling-stroke"/><g stroke="black" fill="black"><text x="752" y="502" dominant-baseline="hanging" stroke="none" vector-effect="non-scaling-stroke">Rust</text><g stroke-width="2px" font-size="12px" font-style="normal" dominant-baseline="hanging" stroke-linecap="round" stroke-linejoin="round" text-anchor="start" font-weight="normal" fill="none" font-family="sans-serif"><rect vector-effect="non-scaling-stroke" x="80" y="80" width="640" height="440"/></g><g stroke-width="2px" font-family="sans-serif" font-size="12px" text-anchor="start" dominant-baseline="hanging" fill="none" stroke="black" stroke-linecap="round" font-style="normal" font-weight="normal" stroke-linejoin="round" transform="translate(80 520 )scale(1 -1 )"><path vector-effect="non-scaling-stroke" d="M64,0 L64,-6 M8.533333e+01,0 L8.533333e+01,-6 M1.066667e+02,0 L1.066667e+02,-6 M128,0 L128,-6 M1.493333e+02,0 L1.493333e+02,-6 M1.706667e+02,0 L1.706667e+02,-6 M192,0 L192,-6 "/></g><g stroke-width="2px" stroke-linecap="round" text-anchor="middle" dominant-baseline="hanging" fill="black" stroke="black" font-style="normal" font-weight="normal" stroke-linejoin="round" font-size="12px" transform="translate(80 520 )scale(1 1 )" font-family="sans-serif"><text y="10" dominant-baseline="hanging" stroke="none" vector-effect="non-scaling-stroke" x="64">1</text><text dominant-baseline="hanging" stroke="none" vector-effect="non-scaling-stroke" x="8.533333e+01" y="10">2</text><text stroke="none" vector-effect="non-scaling-stroke" x="1.066667e+02" y="10" dominant-baseline="hanging">3</text><text x="128" y="10" dominant-baseline="hanging" stroke="none" vector-effect="non-scaling-stroke">4</text><text dominant-baseline="hanging" stroke="none" vector-effect="non-scaling-stroke" x="1.493333e+02" y="10">5</text><text stroke="none" vector-effect="non-scaling-stroke" x="1.706667e+02" y="10" dominant-baseline="hanging">6</text><text x="192" y="10" dominant-baseline="hanging" stroke="none" vector-effect="non-scaling-stroke">7</text></g><g stroke-linejoin="round" font-size="12px" text-anchor="middle" transform="translate(80 520 )scale(1 1 )rotate(0 0 0 )" fill="black" stroke="black" stroke-linecap="round" font-style="normal" stroke-width="2px" font-family="sans-serif" font-weight="bold" dominant-baseline="baseline"><text x="320" y="-6" dominant-baseline="baseline" stroke="none" vector-effect="non-scaling-stroke">Day</text></g><g dominant-baseline="baseline" font-weight="bold" fill="black" stroke="black" stroke-linecap="round" font-style="normal" font-size="12px" text-anchor="middle" transform="translate(80 520 )scale(1 -1 )" stroke-width="2px" font-family="sans-serif" stroke-linejoin="round"><path vector-effect="non-scaling-stroke" d="M0,44 L-6,44 M0,9.307912e+01 L-6,9.307912e+01 M0,1.421582e+02 L-6,1.421582e+02 M0,1.912374e+02 L-6,1.912374e+02 M0,2.403165e+02 L-6,2.403165e+02 M0,2.893956e+02 L-6,2.893956e+02 M0,3.384747e+02 L-6,3.384747e+02 M0,3.875538e+02 L-6,3.875538e+02 "/></g><g text-anchor="end" dominant-baseline="middle" font-style="normal" font-weight="normal" stroke-width="2px" transform="translate(80 520 )scale(1 1 )" font-size="12px" font-family="sans-serif" fill="black" stroke="black" stroke-linecap="round" stroke-linejoin="round"><text stroke="none" vector-effect="non-scaling-stroke" x="-10" y="-44" dominant-baseline="middle">0s</text><text x="-10" y="-9.307912e+01" dominant-baseline="middle" stroke="none" vector-effect="non-scaling-stroke">10ms</text><text vector-effect="non-scaling-stroke" x="-10" y="-1.421582e+02" dominant-baseline="middle" stroke="none">20ms</text><text stroke="none" vector-effect="non-scaling-stroke" x="-10" y="-1.912374e+02" dominant-baseline="middle">30ms</text><text stroke="none" vector-effect="non-scaling-stroke" x="-10" y="-2.403165e+02" dominant-baseline="middle">40ms</text><text stroke="none" vector-effect="non-scaling-stroke" x="-10" y="-2.893956e+02" dominant-baseline="middle">50ms</text><text stroke="none" vector-effect="non-scaling-stroke" x="-10" y="-3.384747e+02" dominant-baseline="middle">60ms</text><text stroke="none" vector-effect="non-scaling-stroke" x="-10" y="-3.875538e+02" dominant-baseline="middle">70ms</text></g><g font-size="12px" dominant-baseline="hanging" transform="translate(80 520 )scale(1 1 )rotate(-90 0 0 )" font-weight="bold" fill="black" stroke-width="2px" stroke-linecap="round" stroke-linejoin="round" font-family="sans-serif" font-style="normal" stroke="black" text-anchor="middle"><text dominant-baseline="hanging" stroke="none" vector-effect="non-scaling-stroke" x="220" y="6">Runtime</text></g></g></g></g></svg>