<svg viewbox="0 0 800 600" preserveAspectRatio="xMidYMid meet" xmlns="http://www.w3.org/2000/svg" width="800" height="600"><defs><marker markerUnits="userSpaceOnUse" markerWidth="2%" markerHeight="2%" id="circle" viewBox="0 0 10 10 " refX="5" refY="5"><circle r="3" fill="none" stroke="black" cx="5" cy="5"/></marker><marker refY="5" markerUnits="userSpaceOnUse" markerWidth="2%" markerHeight="2%" id="filled-circle" viewBox="0 0 10 10 " refX="5"><circle stroke="none" cx="5" cy="5" r="3" fill="black"/></marker><marker markerUnits="userSpaceOnUse" markerWidth="2%" markerHeight="2%" id="square" viewBox="0 0 10 10 " refX="5" refY="5"><rect stroke="black" x="2" y="2" width="6" height="6" fill="none"/></marker><marker markerUnits="userSpaceOnUse" markerWidth="2%" markerHeight="2%" id="filled-square" viewBox="0 0 10 10 " refX="5" refY="5"><rect width="6" height="6" fill="black" stroke="none" x="2" y="2"/></marker></defs><g stroke-linejoin="round" transform="translate(80 520 )scale(1 -1 )" fill="hsl(198, 47%, 65%)" stroke="hsl(198, 47%, 65%)" stroke-width="1px" stroke-linecap="round"><rect y="0" width="1.292929e+01" height="4.403144e+01" vector-effect="non-scaling-stroke" x="4.460606e+01"/><rect y="0" width="1.292929e+01" height="4.400108e+01" vector-effect="non-scaling-stroke" x="6.593939e+01"/><rect height="4.400463e+01" vector-effect="non-scaling-stroke" x="8.727273e+01" y="0" width="1.292929e+01"/><rect width="1.292929e+01" height="4.400595e+01" vector-effect="non-scaling-stroke" x="1.086061e+02" y="0"/><rect y="0" width="1.292929e+01" height="7.476154e+02" vector-effect="non-scaling-stroke" x="1.299394e+02"/><rect x="1.512727e+02" y="0" width="1.292929e+01" height="4.400002e+01" vector-effect="non-scaling-stroke"/><rect y="0" width="1.292929e+01" height="4.406238e+01" vector-effect="non-scaling-stroke" x="1.726061e+02"/><rect height="4.417180e+01" vector-effect="non-scaling-stroke" x="1.939394e+02" y="0" width="1.292929e+01"/><rect y="0" width="1.292929e+01" height="4.401536e+01" vector-effect="non-scaling-stroke" x="2.152727e+02"/><rect y="0" width="1.292929e+01" height="4.420467e+01" vector-effect="non-scaling-stroke" x="2.366061e+02"/><rect height="4.404712e+01" vector-effect="non-scaling-stroke" x="2.579394e+02" y="0" width="1.292929e+01"/></g><g stroke-linejoin="round" transform="translate(80 520 )scale(1 -1 )" fill="hsl(49, 88%, 65%)" stroke="hsl(49, 88%, 65%)" stroke-width="1px" stroke-linecap="round"><rect height="4.401633e+01" vector-effect="non-scaling-stroke" x="5.753535e+01" y="0" width="1.292929e+01"/><rect height="4.400042e+01" vector-effect="non-scaling-stroke" x="7.886869e+01" y="0" width="1.292929e+01"/><rect height="4.400305e+01" vector-effect="non-scaling-stroke" x="1.002020e+02" y="0" width="1.292929e+01"/><rect width="1.292929e+01" height="4.400333e+01" vector-effect="non-scaling-stroke" x="1.215354e+02" y="0"/><rect y="0" width="1.292929e+01" height="4.400195e+01" vector-effect="non-scaling-stroke" x="1.428687e+02"/><rect y="0" width="1.292929e+01" height="4.400002e+01" vector-effect="non-scaling-stroke" x="1.642020e+02"/><rect width="1.292929e+01" height="4.449101e+01" vector-effect="non-scaling-stroke" x="2.068687e+02" y="0"/><rect width="1.292929e+01" height="4.400863e+01" vector-effect="non-scaling-stroke" x="2.282020e+02" y="0"/><rect vector-effect="non-scaling-stroke" x="2.495354e+02" y="0" width="1.292929e+01" height="4.401508e+01"/><rect height="4.404344e+01" vector-effect="non-scaling-stroke" x="2.708687e+02" y="0" width="1.292929e+01"/></g><g stroke="hsl(260, 76%, 65%)" stroke-width="1px" stroke-linecap="round" stroke-linejoin="round" transform="translate(80 520 )scale(1 -1 )" fill="hsl(260, 76%, 65%)"><rect y="0" width="1.292929e+01" height="4.401305e+01" vector-effect="non-scaling-stroke" x="7.046465e+01"/><rect width="1.292929e+01" height="4.400046e+01" vector-effect="non-scaling-stroke" x="9.179798e+01" y="0"/><rect y="0" width="1.292929e+01" height="4.400242e+01" vector-effect="non-scaling-stroke" x="1.131313e+02"/><rect vector-effect="non-scaling-stroke" x="1.344646e+02" y="0" width="1.292929e+01" height="4.400927e+01"/><rect x="1.557980e+02" y="0" width="1.292929e+01" height="4.434314e+01" vector-effect="non-scaling-stroke"/><rect width="1.292929e+01" height="4.400002e+01" vector-effect="non-scaling-stroke" x="1.771313e+02" y="0"/><rect height="4.400763e+01" vector-effect="non-scaling-stroke" x="1.984646e+02" y="0" width="1.292929e+01"/><rect vector-effect="non-scaling-stroke" x="2.197980e+02" y="0" width="1.292929e+01" height="4.403874e+01"/><rect x="2.411313e+02" y="0" width="1.292929e+01" height="4.400906e+01" vector-effect="non-scaling-stroke"/><rect width="1.292929e+01" height="4.401466e+01" vector-effect="non-scaling-stroke" x="2.624646e+02" y="0"/><rect width="1.292929e+01" height="4.739095e+01" vector-effect="non-scaling-stroke" x="2.837980e+02" y="0"/></g><g text-anchor="start" fill="hsl(198, 47%, 65%)" stroke-linejoin="round" stroke="hsl(198, 47%, 65%)" font-size="12px" font-style="normal" font-weight="normal" stroke-width="1px" stroke-linecap="round" font-family="sans-serif" dominant-baseline="hanging"><rect width="12" height="12" vector-effect="non-scaling-stroke" x="736" y="466"/><g stroke="black" fill="black"><text stroke="none" vector-effect="non-scaling-stroke" x="752" y="466" dominant-baseline="hanging">Golang</text></g><g font-weight="normal" stroke="hsl(49, 88%, 65%)" dominant-baseline="hanging" font-size="12px" stroke-linecap="round" font-style="normal" text-anchor="start" stroke-width="1px" stroke-linejoin="round" font-family="sans-serif" fill="hsl(49, 88%, 65%)"><rect vector-effect="non-scaling-stroke" x="736" y="484" width="12" height="12"/><g fill="black" stroke="black"><text stroke="none" vector-effect="non-scaling-stroke" x="752" y="484" dominant-baseline="hanging">Rust</text></g><g stroke-linejoin="round" font-family="sans-serif" dominant-baseline="hanging" fill="hsl(260, 76%, 65%)" stroke-linecap="round" font-weight="normal" stroke-width="1px" font-size="12px" font-style="normal" text-anchor="start" stroke="hsl(260, 76%, 65%)"><rect y="502" width="12" height="12" vector-effect="non-scaling-stroke" x="736"/><g fill="black" stroke="black"><text x="752" y="502" dominant-baseline="hanging" stroke="none" vector-effect="non-scaling-stroke">Zig</text><g font-weight="normal" font-family="sans-serif" text-anchor="start" stroke-linejoin="round" dominant-baseline="hanging" stroke-width="2px" stroke-linecap="round" font-style="normal" fill="none" font-size="12px"><rect vector-effect="non-scaling-stroke" x="80" y="80" width="640" height="440"/></g><g dominant-baseline="hanging" stroke-width="2px" stroke-linejoin="round" stroke-linecap="round" font-size="12px" font-style="normal" transform="translate(80 520 )scale(1 -1 )" stroke="black" font-family="sans-serif" font-weight="normal" text-anchor="start" fill="none"><path vector-effect="non-scaling-stroke" d="M64,0 L64,-6 M8.533333e+01,0 L8.533333e+01,-6 M1.066667e+02,0 L1.066667e+02,-6 M128,0 L128,-6 M1.493333e+02,0 L1.493333e+02,-6 M1.706667e+02,0 L1.706667e+02,-6 M192,0 L192,-6 M2.133333e+02,0 L2.133333e+02,-6 M2.346667e+02,0 L2.346667e+02,-6 M256,0 L256,-6 M2.773333e+02,0 L2.773333e+02,-6 "/></g><g stroke-linecap="round" stroke-linejoin="round" font-family="sans-serif" stroke="black" font-size="12px" font-weight="normal" fill="black" dominant-baseline="hanging" transform="translate(80 520 )scale(1 1 )" stroke-width="2px" font-style="normal" text-anchor="middle"><text stroke="none" vector-effect="non-scaling-stroke" x="64" y="10" dominant-baseline="hanging">1</text><text stroke="none" vector-effect="non-scaling-stroke" x="8.533333e+01" y="10" dominant-baseline="hanging">2</text><text y="10" dominant-baseline="hanging" stroke="none" vector-effect="non-scaling-stroke" x="1.066667e+02">3</text><text dominant-baseline="hanging" stroke="none" vector-effect="non-scaling-stroke" x="128" y="10">4</text><text stroke="none" vector-effect="non-scaling-stroke" x="1.493333e+02" y="10" dominant-baseline="hanging">5</text><text x="1.706667e+02" y="10" dominant-baseline="hanging" stroke="none" vector-effect="non-scaling-stroke">6</text><text stroke="none" vector-effect="non-scaling-stroke" x="192" y="10" dominant-baseline="hanging">7</text><text stroke="none" vector-effect="non-scaling-stroke" x="2.133333e+02" y="10" dominant-baseline="hanging">8</text><text y="10" dominant-baseline="hanging" stroke="none" vector-effect="non-scaling-stroke" x="2.346667e+02">9</text><text dominant-baseline="hanging" stroke="none" vector-effect="non-scaling-stroke" x="256" y="10">10</text><text y="10" dominant-baseline="hanging" stroke="none" vector-effect="non-scaling-stroke" x="2.773333e+02">11</text></g><g fill="black" stroke-linecap="round" font-size="12px" transform="translate(80 520 )scale(1 1 )rotate(0 0 0 )" stroke="black" stroke-linejoin="round" font-family="sans-serif" font-weight="bold" text-anchor="middle" font-style="normal" dominant-baseline="baseline" stroke-width="2px"><text dominant-baseline="baseline" stroke="none" vector-effect="non-scaling-stroke" x="320" y="-6">Day</text></g><g stroke-linejoin="round" fill="black" stroke-linecap="round" font-size="12px" font-style="normal" text-anchor="middle" stroke="black" stroke-width="2px" font-family="sans-serif" dominant-baseline="baseline" font-weight="bold" transform="translate(80 520 )scale(1 -1 )"><path vector-effect="non-scaling-stroke" d="M0,44 L-6,44 M0,7.920000e+01 L-6,7.920000e+01 M0,1.144000e+02 L-6,1.144000e+02 M0,1.496000e+02 L-6,1.496000e+02 M0,1.848000e+02 L-6,1.848000e+02 M0,220 L-6,220 M0,2.552000e+02 L-6,2.552000e+02 M0,2.904000e+02 L-6,2.904000e+02 M0,3.256000e+02 L-6,3.256000e+02 M0,3.608000e+02 L-6,3.608000e+02 M0,396 L-6,396 "/></g><g stroke="black" stroke-linejoin="round" stroke-linecap="round" font-size="12px" transform="translate(80 520 )scale(1 1 )" stroke-width="2px" font-family="sans-serif" dominant-baseline="middle" text-anchor="end" fill="black" font-style="normal" font-weight="normal"><text x="-10" y="-44" dominant-baseline="middle" stroke="none" vector-effect="non-scaling-stroke">0s</text><text stroke="none" vector-effect="non-scaling-stroke" x="-10" y="-7.920000e+01" dominant-baseline="middle">200ms</text><text x="-10" y="-1.144000e+02" dominant-baseline="middle" stroke="none" vector-effect="non-scaling-stroke">400ms</text><text x="-10" y="-1.496000e+02" dominant-baseline="middle" stroke="none" vector-effect="non-scaling-stroke">600ms</text><text y="-1.848000e+02" dominant-baseline="middle" stroke="none" vector-effect="non-scaling-stroke" x="-10">800ms</text><text stroke="none" vector-effect="non-scaling-stroke" x="-10" y="-220" dominant-baseline="middle">1s</text><text stroke="none" vector-effect="non-scaling-stroke" x="-10" y="-2.552000e+02" dominant-baseline="middle">1.2s</text><text y="-2.904000e+02" dominant-baseline="middle" stroke="none" vector-effect="non-scaling-stroke" x="-10">1.4s</text><text y="-3.256000e+02" dominant-baseline="middle" stroke="none" vector-effect="non-scaling-stroke" x="-10">1.6s</text><text y="-3.608000e+02" dominant-baseline="middle" stroke="none" vector-effect="non-scaling-stroke" x="-10">1.8s</text><text stroke="none" vector-effect="non-scaling-stroke" x="-10" y="-396" dominant-baseline="middle">2s</text></g><g stroke-linejoin="round" font-family="sans-serif" dominant-baseline="hanging" transform="translate(80 520 )scale(1 1 )rotate(-90 0 0 )" font-weight="bold" text-anchor="middle" fill="black" stroke-width="2px" stroke="black" stroke-linecap="round" font-size="12px" font-style="normal"><text dominant-baseline="hanging" stroke="none" vector-effect="non-scaling-stroke" x="220" y="6">Runtime</text></g></g></g></g></g></svg>