<svg xmlns="http://www.w3.org/2000/svg" width="800" height="600" viewbox="0 0 800 600" preserveAspectRatio="xMidYMid meet"><defs><marker markerWidth="2%" markerHeight="2%" id="circle" viewBox="0 0 10 10 " refX="5" refY="5" markerUnits="userSpaceOnUse"><circle cx="5" cy="5" r="3" fill="none" stroke="black"/></marker><marker id="filled-circle" viewBox="0 0 10 10 " refX="5" refY="5" markerUnits="userSpaceOnUse" markerWidth="2%" markerHeight="2%"><circle r="3" fill="black" stroke="none" cx="5" cy="5"/></marker><marker markerHeight="2%" id="square" viewBox="0 0 10 10 " refX="5" refY="5" markerUnits="userSpaceOnUse" markerWidth="2%"><rect stroke="black" x="2" y="2" width="6" height="6" fill="none"/></marker><marker markerWidth="2%" markerHeight="2%" id="filled-square" viewBox="0 0 10 10 " refX="5" refY="5" markerUnits="userSpaceOnUse"><rect stroke="none" x="2" y="2" width="6" height="6" fill="black"/></marker></defs><g fill="hsl(198, 47%, 65%)" stroke="hsl(198, 47%, 65%)" stroke-width="1px" stroke-linecap="round" stroke-linejoin="round" transform="translate(80 520 )scale(1 -1 )"><rect vector-effect="non-scaling-stroke" x="5.430303e+01" y="0" width="6.464646e+00" height="4.408139e+01"/><rect height="4.408196e+01" vector-effect="non-scaling-stroke" x="7.563636e+01" y="0" width="6.464646e+00"/><rect x="9.696970e+01" y="0" width="6.464646e+00" height="4.405015e+01" vector-effect="non-scaling-stroke"/><rect height="4.446870e+01" vector-effect="non-scaling-stroke" x="1.183030e+02" y="0" width="6.464646e+00"/><rect height="4.405260e+01" vector-effect="non-scaling-stroke" x="1.396364e+02" y="0" width="6.464646e+00"/><rect vector-effect="non-scaling-stroke" x="1.609697e+02" y="0" width="6.464646e+00" height="1.676747e+02"/><rect y="0" width="6.464646e+00" height="7.299352e+01" vector-effect="non-scaling-stroke" x="1.823030e+02"/><rect width="6.464646e+00" height="4.401200e+01" vector-effect="non-scaling-stroke" x="2.036364e+02" y="0"/><rect width="6.464646e+00" height="4.479665e+01" vector-effect="non-scaling-stroke" x="2.249697e+02" y="0"/><rect vector-effect="non-scaling-stroke" x="2.463030e+02" y="0" width="6.464646e+00" height="4.419662e+01"/><rect vector-effect="non-scaling-stroke" x="2.676364e+02" y="0" width="6.464646e+00" height="4.638498e+01"/><rect y="0" width="6.464646e+00" height="4.501938e+01" vector-effect="non-scaling-stroke" x="2.889697e+02"/><rect y="0" width="6.464646e+00" height="4.401207e+01" vector-effect="non-scaling-stroke" x="3.103030e+02"/><rect width="6.464646e+00" height="5.368653e+01" vector-effect="non-scaling-stroke" x="3.316364e+02" y="0"/><rect vector-effect="non-scaling-stroke" x="3.529697e+02" y="0" width="6.464646e+00" height="4.513826e+01"/><rect x="3.743030e+02" y="0" width="6.464646e+00" height="6.794324e+01" vector-effect="non-scaling-stroke"/><rect width="6.464646e+00" height="4.403368e+01" vector-effect="non-scaling-stroke" x="3.956364e+02" y="0"/><rect height="4.435730e+01" vector-effect="non-scaling-stroke" x="4.169697e+02" y="0" width="6.464646e+00"/><rect x="4.383030e+02" y="0" width="6.464646e+00" height="4.641211e+01" vector-effect="non-scaling-stroke"/><rect vector-effect="non-scaling-stroke" x="4.596364e+02" y="0" width="6.464646e+00" height="7.847029e+01"/><rect vector-effect="non-scaling-stroke" x="4.809697e+02" y="0" width="6.464646e+00" height="4.400010e+01"/><rect x="5.023030e+02" y="0" width="6.464646e+00" height="1.251727e+02" vector-effect="non-scaling-stroke"/></g><g transform="translate(80 520 )scale(1 -1 )" fill="hsl(49, 88%, 65%)" stroke="hsl(49, 88%, 65%)" stroke-width="1px" stroke-linecap="round" stroke-linejoin="round"><rect height="4.403192e+01" vector-effect="non-scaling-stroke" x="6.076768e+01" y="0" width="6.464646e+00"/><rect height="4.407419e+01" vector-effect="non-scaling-stroke" x="8.210101e+01" y="0" width="6.464646e+00"/><rect width="6.464646e+00" height="4.401527e+01" vector-effect="non-scaling-stroke" x="1.034343e+02" y="0"/><rect x="1.247677e+02" y="0" width="6.464646e+00" height="4.478232e+01" vector-effect="non-scaling-stroke"/><rect width="6.464646e+00" height="4.402965e+01" vector-effect="non-scaling-stroke" x="1.461010e+02" y="0"/><rect height="1.379508e+02" vector-effect="non-scaling-stroke" x="1.674343e+02" y="0" width="6.464646e+00"/><rect width="6.464646e+00" height="7.333799e+01" vector-effect="non-scaling-stroke" x="1.887677e+02" y="0"/><rect height="4.400571e+01" vector-effect="non-scaling-stroke" x="2.101010e+02" y="0" width="6.464646e+00"/><rect x="2.314343e+02" y="0" width="6.464646e+00" height="4.500481e+01" vector-effect="non-scaling-stroke"/><rect y="0" width="6.464646e+00" height="4.406728e+01" vector-effect="non-scaling-stroke" x="2.527677e+02"/><rect y="0" width="6.464646e+00" height="4.582177e+01" vector-effect="non-scaling-stroke" x="2.741010e+02"/><rect x="2.954343e+02" y="0" width="6.464646e+00" height="4.477711e+01" vector-effect="non-scaling-stroke"/><rect x="3.167677e+02" y="0" width="6.464646e+00" height="4.400973e+01" vector-effect="non-scaling-stroke"/><rect vector-effect="non-scaling-stroke" x="3.381010e+02" y="0" width="6.464646e+00" height="5.055640e+01"/><rect vector-effect="non-scaling-stroke" x="3.594343e+02" y="0" width="6.464646e+00" height="4.711601e+01"/><rect width="6.464646e+00" height="5.366698e+01" vector-effect="non-scaling-stroke" x="3.807677e+02" y="0"/><rect height="4.437240e+01" vector-effect="non-scaling-stroke" x="4.021010e+02" y="0" width="6.464646e+00"/><rect height="4.421326e+01" vector-effect="non-scaling-stroke" x="4.234343e+02" y="0" width="6.464646e+00"/><rect x="4.447677e+02" y="0" width="6.464646e+00" height="4.711187e+01" vector-effect="non-scaling-stroke"/><rect width="6.464646e+00" height="8.840898e+01" vector-effect="non-scaling-stroke" x="4.661010e+02" y="0"/><rect y="0" width="6.464646e+00" height="4.400005e+01" vector-effect="non-scaling-stroke" x="4.874343e+02"/><rect width="6.464646e+00" height="2.218956e+02" vector-effect="non-scaling-stroke" x="5.087677e+02" y="0"/></g><g stroke-width="1px" stroke-linecap="round" stroke-linejoin="round" transform="translate(80 520 )scale(1 -1 )" fill="hsl(260, 76%, 65%)" stroke="hsl(260, 76%, 65%)"><rect vector-effect="non-scaling-stroke" x="6.723232e+01" y="0" width="6.464646e+00" height="4.405432e+01"/><rect height="4.404062e+01" vector-effect="non-scaling-stroke" x="8.856566e+01" y="0" width="6.464646e+00"/><rect height="4.404221e+01" vector-effect="non-scaling-stroke" x="1.098990e+02" y="0" width="6.464646e+00"/><rect vector-effect="non-scaling-stroke" x="1.312323e+02" y="0" width="6.464646e+00" height="4.424780e+01"/><rect y="0" width="6.464646e+00" height="4.402243e+01" vector-effect="non-scaling-stroke" x="1.525657e+02"/><rect vector-effect="non-scaling-stroke" x="1.738990e+02" y="0" width="6.464646e+00" height="396"/><rect width="6.464646e+00" height="7.296160e+01" vector-effect="non-scaling-stroke" x="1.952323e+02" y="0"/></g><g font-style="normal" dominant-baseline="hanging" font-size="12px" font-weight="normal" stroke="hsl(198, 47%, 65%)" stroke-linecap="round" font-family="sans-serif" fill="hsl(198, 47%, 65%)" text-anchor="start" stroke-width="1px" stroke-linejoin="round"><rect height="12" vector-effect="non-scaling-stroke" x="736" y="466" width="12"/><g fill="black" stroke="black"><text stroke="none" vector-effect="non-scaling-stroke" x="752" y="466" dominant-baseline="hanging">Golang</text></g><g font-size="12px" text-anchor="start" stroke-width="1px" stroke-linecap="round" stroke-linejoin="round" font-family="sans-serif" font-weight="normal" stroke="hsl(49, 88%, 65%)" dominant-baseline="hanging" fill="hsl(49, 88%, 65%)" font-style="normal"><rect vector-effect="non-scaling-stroke" x="736" y="484" width="12" height="12"/><g fill="black" stroke="black"><text stroke="none" vector-effect="non-scaling-stroke" x="752" y="484" dominant-baseline="hanging">Rust</text></g><g stroke-linejoin="round" font-style="normal" dominant-baseline="hanging" stroke="hsl(260, 76%, 65%)" font-family="sans-serif" font-size="12px" fill="hsl(260, 76%, 65%)" text-anchor="start" stroke-width="1px" stroke-linecap="round" font-weight="normal"><rect vector-effect="non-scaling-stroke" x="736" y="502" width="12" height="12"/><g stroke="black" fill="black"><text dominant-baseline="hanging" stroke="none" vector-effect="non-scaling-stroke" x="752" y="502">Zig</text><g stroke-linejoin="round" font-style="normal" font-size="12px" text-anchor="start" stroke-width="2px" dominant-baseline="hanging" font-weight="normal" fill="none" stroke-linecap="round" font-family="sans-serif"><rect vector-effect="non-scaling-stroke" x="80" y="80" width="640" height="440"/></g><g stroke="black" font-family="sans-serif" stroke-linejoin="round" font-style="normal" text-anchor="start" stroke-width="2px" stroke-linecap="round" font-size="12px" font-weight="normal" fill="none" dominant-baseline="hanging" transform="translate(80 520 )scale(1 -1 )"><path vector-effect="non-scaling-stroke" d="M64,0 L64,-6 M8.533333e+01,0 L8.533333e+01,-6 M1.066667e+02,0 L1.066667e+02,-6 M128,0 L128,-6 M1.493333e+02,0 L1.493333e+02,-6 M1.706667e+02,0 L1.706667e+02,-6 M192,0 L192,-6 M2.133333e+02,0 L2.133333e+02,-6 M2.346667e+02,0 L2.346667e+02,-6 M256,0 L256,-6 M2.773333e+02,0 L2.773333e+02,-6 M2.986667e+02,0 L2.986667e+02,-6 M320,0 L320,-6 M3.413333e+02,0 L3.413333e+02,-6 M3.626667e+02,0 L3.626667e+02,-6 M384,0 L384,-6 M4.053333e+02,0 L4.053333e+02,-6 M4.266667e+02,0 L4.266667e+02,-6 M448,0 L448,-6 M4.693333e+02,0 L4.693333e+02,-6 M4.906667e+02,0 L4.906667e+02,-6 M512,0 L512,-6 "/></g><g font-weight="normal" stroke-linejoin="round" font-style="normal" dominant-baseline="hanging" transform="translate(80 520 )scale(1 1 )" stroke="black" stroke-width="2px" font-family="sans-serif" fill="black" stroke-linecap="round" font-size="12px" text-anchor="middle"><text x="64" y="10" dominant-baseline="hanging" stroke="none" vector-effect="non-scaling-stroke">1</text><text stroke="none" vector-effect="non-scaling-stroke" x="8.533333e+01" y="10" dominant-baseline="hanging">2</text><text stroke="none" vector-effect="non-scaling-stroke" x="1.066667e+02" y="10" dominant-baseline="hanging">3</text><text x="128" y="10" dominant-baseline="hanging" stroke="none" vector-effect="non-scaling-stroke">4</text><text vector-effect="non-scaling-stroke" x="1.493333e+02" y="10" dominant-baseline="hanging" stroke="none">5</text><text y="10" dominant-baseline="hanging" stroke="none" vector-effect="non-scaling-stroke" x="1.706667e+02">6</text><text stroke="none" vector-effect="non-scaling-stroke" x="192" y="10" dominant-baseline="hanging">7</text><text dominant-baseline="hanging" stroke="none" vector-effect="non-scaling-stroke" x="2.133333e+02" y="10">8</text><text y="10" dominant-baseline="hanging" stroke="none" vector-effect="non-scaling-stroke" x="2.346667e+02">9</text><text stroke="none" vector-effect="non-scaling-stroke" x="256" y="10" dominant-baseline="hanging">10</text><text stroke="none" vector-effect="non-scaling-stroke" x="2.773333e+02" y="10" dominant-baseline="hanging">11</text><text stroke="none" vector-effect="non-scaling-stroke" x="2.986667e+02" y="10" dominant-baseline="hanging">12</text><text dominant-baseline="hanging" stroke="none" vector-effect="non-scaling-stroke" x="320" y="10">13</text><text vector-effect="non-scaling-stroke" x="3.413333e+02" y="10" dominant-baseline="hanging" stroke="none">14</text><text stroke="none" vector-effect="non-scaling-stroke" x="3.626667e+02" y="10" dominant-baseline="hanging">15</text><text x="384" y="10" dominant-baseline="hanging" stroke="none" vector-effect="non-scaling-stroke">16</text><text x="4.053333e+02" y="10" dominant-baseline="hanging" stroke="none" vector-effect="non-scaling-stroke">17</text><text vector-effect="non-scaling-stroke" x="4.266667e+02" y="10" dominant-baseline="hanging" stroke="none">18</text><text stroke="none" vector-effect="non-scaling-stroke" x="448" y="10" dominant-baseline="hanging">19</text><text stroke="none" vector-effect="non-scaling-stroke" x="4.693333e+02" y="10" dominant-baseline="hanging">20</text><text x="4.906667e+02" y="10" dominant-baseline="hanging" stroke="none" vector-effect="non-scaling-stroke">21</text><text stroke="none" vector-effect="non-scaling-stroke" x="512" y="10" dominant-baseline="hanging">22</text></g><g text-anchor="middle" stroke-linecap="round" transform="translate(80 520 )scale(1 1 )rotate(0 0 0 )" fill="black" stroke-linejoin="round" font-style="normal" font-weight="bold" dominant-baseline="baseline" font-family="sans-serif" font-size="12px" stroke="black" stroke-width="2px"><text x="320" y="-6" dominant-baseline="baseline" stroke="none" vector-effect="non-scaling-stroke">Day</text></g><g fill="black" font-style="normal" stroke="black" stroke-width="2px" stroke-linecap="round" font-family="sans-serif" font-weight="bold" text-anchor="middle" font-size="12px" stroke-linejoin="round" dominant-baseline="baseline" transform="translate(80 520 )scale(1 -1 )"><path vector-effect="non-scaling-stroke" d="M0,44 L-6,44 M0,2.164388e+02 L-6,2.164388e+02 M0,3.888777e+02 L-6,3.888777e+02 "/></g><g stroke="black" stroke-linecap="round" font-size="12px" text-anchor="end" fill="black" font-style="normal" transform="translate(80 520 )scale(1 1 )" stroke-width="2px" font-family="sans-serif" font-weight="normal" stroke-linejoin="round" dominant-baseline="middle"><text vector-effect="non-scaling-stroke" x="-10" y="-44" dominant-baseline="middle" stroke="none">0s</text><text stroke="none" vector-effect="non-scaling-stroke" x="-10" y="-2.164388e+02" dominant-baseline="middle">100ms</text><text stroke="none" vector-effect="non-scaling-stroke" x="-10" y="-3.888777e+02" dominant-baseline="middle">200ms</text></g><g dominant-baseline="hanging" fill="black" font-style="normal" font-family="sans-serif" font-size="12px" font-weight="bold" stroke-width="2px" stroke-linejoin="round" text-anchor="middle" stroke="black" stroke-linecap="round" transform="translate(80 520 )scale(1 1 )rotate(-90 0 0 )"><text y="6" dominant-baseline="hanging" stroke="none" vector-effect="non-scaling-stroke" x="220">Runtime</text></g></g></g></g></g></svg>