<svg viewbox="0 0 800 600" preserveAspectRatio="xMidYMid meet" xmlns="http://www.w3.org/2000/svg" width="800" height="600"><defs><marker viewBox="0 0 10 10 " refX="5" refY="5" markerUnits="userSpaceOnUse" markerWidth="2%" markerHeight="2%" id="circle"><circle stroke="black" cx="5" cy="5" r="3" fill="none"/></marker><marker id="filled-circle" viewBox="0 0 10 10 " refX="5" refY="5" markerUnits="userSpaceOnUse" markerWidth="2%" markerHeight="2%"><circle fill="black" stroke="none" cx="5" cy="5" r="3"/></marker><marker markerHeight="2%" id="square" viewBox="0 0 10 10 " refX="5" refY="5" markerUnits="userSpaceOnUse" markerWidth="2%"><rect stroke="black" x="2" y="2" width="6" height="6" fill="none"/></marker><marker refX="5" refY="5" markerUnits="userSpaceOnUse" markerWidth="2%" markerHeight="2%" id="filled-square" viewBox="0 0 10 10 "><rect width="6" height="6" fill="black" stroke="none" x="2" y="2"/></marker></defs><g stroke-width="1px" stroke-linecap="round" stroke-linejoin="round" transform="translate(80 520 )scale(1 -1 )" fill="hsl(198, 47%, 65%)" stroke="hsl(198, 47%, 65%)"><rect height="396" vector-effect="non-scaling-stroke" x="3.650000e+01" y="0" width="2.750000e+01"/><rect height="3.558740e+02" vector-effect="non-scaling-stroke" x="5.783333e+01" y="0" width="2.750000e+01"/></g><g transform="translate(80 520 )scale(1 -1 )" fill="hsl(49, 88%, 65%)" stroke="hsl(49, 88%, 65%)" stroke-width="1px" stroke-linecap="round" stroke-linejoin="round"><rect x="64" y="0" width="2.750000e+01" height="3.599358e+02" vector-effect="non-scaling-stroke"/><rect width="2.750000e+01" height="3.138319e+02" vector-effect="non-scaling-stroke" x="8.533333e+01" y="0"/></g><g stroke-linecap="round" fill="hsl(198, 47%, 65%)" font-weight="normal" text-anchor="start" stroke="hsl(198, 47%, 65%)" stroke-linejoin="round" font-size="12px" dominant-baseline="hanging" stroke-width="1px" font-family="sans-serif" font-style="normal"><rect height="12" vector-effect="non-scaling-stroke" x="736" y="484" width="12"/><g stroke="black" fill="black"><text x="752" y="484" dominant-baseline="hanging" stroke="none" vector-effect="non-scaling-stroke">Golang</text></g><g stroke="hsl(49, 88%, 65%)" stroke-linecap="round" font-size="12px" dominant-baseline="hanging" text-anchor="start" font-family="sans-serif" font-style="normal" font-weight="normal" stroke-linejoin="round" fill="hsl(49, 88%, 65%)" stroke-width="1px"><rect width="12" height="12" vector-effect="non-scaling-stroke" x="736" y="502"/><g fill="black" stroke="black"><text y="502" dominant-baseline="hanging" stroke="none" vector-effect="non-scaling-stroke" x="752">Rust</text><g stroke-linecap="round" stroke-linejoin="round" fill="none" stroke-width="2px" dominant-baseline="hanging" font-weight="normal" font-family="sans-serif" text-anchor="start" font-size="12px" font-style="normal"><rect vector-effect="non-scaling-stroke" x="80" y="80" width="640" height="440"/></g><g dominant-baseline="hanging" transform="translate(80 520 )scale(1 -1 )" stroke-linecap="round" fill="none" stroke-width="2px" stroke-linejoin="round" font-size="12px" font-family="sans-serif" font-style="normal" font-weight="normal" text-anchor="start" stroke="black"><path vector-effect="non-scaling-stroke" d="M64,0 L64,-6 M8.533333e+01,0 L8.533333e+01,-6 "/></g><g stroke="black" stroke-linecap="round" font-size="12px" dominant-baseline="hanging" font-style="normal" text-anchor="middle" stroke-linejoin="round" transform="translate(80 520 )scale(1 1 )" fill="black" stroke-width="2px" font-family="sans-serif" font-weight="normal"><text stroke="none" vector-effect="non-scaling-stroke" x="64" y="10" dominant-baseline="hanging">1</text><text y="10" dominant-baseline="hanging" stroke="none" vector-effect="non-scaling-stroke" x="8.533333e+01">2</text></g><g stroke="black" stroke-linecap="round" stroke-linejoin="round" font-size="12px" stroke-width="2px" font-style="normal" font-weight="bold" text-anchor="middle" dominant-baseline="baseline" fill="black" font-family="sans-serif" transform="translate(80 520 )scale(1 1 )rotate(0 0 0 )"><text y="-6" dominant-baseline="baseline" stroke="none" vector-effect="non-scaling-stroke" x="320">Day</text></g><g stroke-linejoin="round" fill="black" font-style="normal" transform="translate(80 520 )scale(1 -1 )" stroke-linecap="round" stroke="black" font-size="12px" dominant-baseline="baseline" text-anchor="middle" stroke-width="2px" font-family="sans-serif" font-weight="bold"><path vector-effect="non-scaling-stroke" d="M0,3.064760e+02 L-6,3.064760e+02 M0,3.195998e+02 L-6,3.195998e+02 M0,3.327236e+02 L-6,3.327236e+02 M0,3.458474e+02 L-6,3.458474e+02 M0,3.589712e+02 L-6,3.589712e+02 M0,3.720950e+02 L-6,3.720950e+02 M0,3.852188e+02 L-6,3.852188e+02 "/></g><g text-anchor="end" fill="black" stroke-width="2px" font-size="12px" transform="translate(80 520 )scale(1 1 )" stroke="black" stroke-linecap="round" font-weight="normal" stroke-linejoin="round" dominant-baseline="middle" font-family="sans-serif" font-style="normal"><text y="-3.064760e+02" dominant-baseline="middle" stroke="none" vector-effect="non-scaling-stroke" x="-10">40µs</text><text dominant-baseline="middle" stroke="none" vector-effect="non-scaling-stroke" x="-10" y="-3.195998e+02">42µs</text><text stroke="none" vector-effect="non-scaling-stroke" x="-10" y="-3.327236e+02" dominant-baseline="middle">44µs</text><text vector-effect="non-scaling-stroke" x="-10" y="-3.458474e+02" dominant-baseline="middle" stroke="none">46µs</text><text stroke="none" vector-effect="non-scaling-stroke" x="-10" y="-3.589712e+02" dominant-baseline="middle">48µs</text><text stroke="none" vector-effect="non-scaling-stroke" x="-10" y="-3.720950e+02" dominant-baseline="middle">50µs</text><text y="-3.852188e+02" dominant-baseline="middle" stroke="none" vector-effect="non-scaling-stroke" x="-10">52µs</text></g><g stroke-linecap="round" font-size="12px" text-anchor="middle" fill="black" font-weight="bold" stroke-linejoin="round" dominant-baseline="hanging" transform="translate(80 520 )scale(1 1 )rotate(-90 0 0 )" stroke="black" stroke-width="2px" font-family="sans-serif" font-style="normal"><text stroke="none" vector-effect="non-scaling-stroke" x="220" y="6" dominant-baseline="hanging">Runtime</text></g></g></g></g></svg>